<?xml version="1.0" encoding="UTF-8" standalone="no"?>
<!DOCTYPE svg PUBLIC "-//W3C//DTD SVG 1.1//EN"
 "http://www.w3.org/Graphics/SVG/1.1/DTD/svg11.dtd">
<!-- Generated by graphviz version 11.0.0 (20240519.1550)
 -->
<!-- Pages: 1 -->
<svg width="533pt" height="476pt"
 viewBox="0.00 0.00 532.84 476.00" xmlns="http://www.w3.org/2000/svg" xmlns:xlink="http://www.w3.org/1999/xlink">
<g id="graph0" class="graph" transform="scale(1 1) rotate(0) translate(4 472)">
<polygon fill="white" stroke="none" points="-4,4 -4,-472 528.84,-472 528.84,4 -4,4"/>
<!-- hpp&#45;core -->
<g id="node1" class="node">
<title>hpp&#45;core</title>
<g id="a_node1"><a xlink:href="https://github.com/conda-forge/hpp-core-feedstock" xlink:title="hpp core">
<ellipse fill="#fde725" stroke="black" cx="73.84" cy="-306" rx="54.89" ry="18"/>
<text text-anchor="middle" x="73.84" y="-301.32" font-family="Times,serif" font-size="14.00">hpp core</text>
</a>
</g>
</g>
<!-- hpp&#45;manipulation&#45;urdf -->
<g id="node2" class="node">
<title>hpp&#45;manipulation&#45;urdf</title>
<g id="a_node2"><a xlink:href="https://github.com/conda-forge/hpp-manipulation-urdf-feedstock" xlink:title="hpp manipulation urdf">
<ellipse fill="#fde725" stroke="black" cx="257.84" cy="-162" rx="123.29" ry="18"/>
<text text-anchor="middle" x="257.84" y="-157.32" font-family="Times,serif" font-size="14.00">hpp manipulation urdf</text>
</a>
</g>
</g>
<!-- hpp&#45;core&#45;&gt;hpp&#45;manipulation&#45;urdf -->
<g id="edge1" class="edge">
<title>hpp&#45;core&#45;&gt;hpp&#45;manipulation&#45;urdf</title>
<path fill="none" stroke="black" d="M89.37,-288.44C107.44,-269.65 138.68,-238.69 168.84,-216 183.58,-204.91 200.79,-194.21 216.13,-185.35"/>
<polygon fill="black" stroke="black" points="217.6,-188.54 224.57,-180.56 214.15,-182.45 217.6,-188.54"/>
</g>
<!-- hpp&#45;manipulation -->
<g id="node3" class="node">
<title>hpp&#45;manipulation</title>
<g id="a_node3"><a xlink:href="https://github.com/conda-forge/hpp-manipulation-feedstock" xlink:title="hpp manipulation">
<ellipse fill="#fde725" stroke="black" cx="359.84" cy="-234" rx="99.08" ry="18"/>
<text text-anchor="middle" x="359.84" y="-229.32" font-family="Times,serif" font-size="14.00">hpp manipulation</text>
</a>
</g>
</g>
<!-- hpp&#45;core&#45;&gt;hpp&#45;manipulation -->
<g id="edge2" class="edge">
<title>hpp&#45;core&#45;&gt;hpp&#45;manipulation</title>
<path fill="none" stroke="black" d="M116.97,-294.44C163.25,-283.12 237.4,-264.97 291.61,-251.7"/>
<polygon fill="black" stroke="black" points="292.16,-255.17 301.04,-249.39 290.5,-248.37 292.16,-255.17"/>
</g>
<!-- hpp&#45;manipulation&#45;corba -->
<g id="node4" class="node">
<title>hpp&#45;manipulation&#45;corba</title>
<g id="a_node4"><a xlink:href="https://github.com/conda-forge/hpp-manipulation-corba-feedstock" xlink:title="hpp manipulation corba">
<ellipse fill="#fde725" stroke="black" cx="200.84" cy="-90" rx="130.13" ry="18"/>
<text text-anchor="middle" x="200.84" y="-85.33" font-family="Times,serif" font-size="14.00">hpp manipulation corba</text>
</a>
</g>
</g>
<!-- hpp&#45;core&#45;&gt;hpp&#45;manipulation&#45;corba -->
<g id="edge3" class="edge">
<title>hpp&#45;core&#45;&gt;hpp&#45;manipulation&#45;corba</title>
<path fill="none" stroke="black" d="M70.89,-287.62C66.49,-255.9 61.78,-187.88 92.84,-144 102.94,-129.74 117.97,-119.14 133.64,-111.33"/>
<polygon fill="black" stroke="black" points="134.97,-114.57 142.6,-107.22 132.05,-108.2 134.97,-114.57"/>
</g>
<!-- hpp&#45;gepetto&#45;viewer -->
<g id="node5" class="node">
<title>hpp&#45;gepetto&#45;viewer</title>
<g id="a_node5"><a xlink:href="https://github.com/conda-forge/hpp-gepetto-viewer-feedstock" xlink:title="hpp gepetto viewer">
<ellipse fill="#fde725" stroke="black" cx="414.84" cy="-18" rx="108.55" ry="18"/>
<text text-anchor="middle" x="414.84" y="-13.32" font-family="Times,serif" font-size="14.00">hpp gepetto viewer</text>
</a>
</g>
</g>
<!-- hpp&#45;core&#45;&gt;hpp&#45;gepetto&#45;viewer -->
<g id="edge4" class="edge">
<title>hpp&#45;core&#45;&gt;hpp&#45;gepetto&#45;viewer</title>
<path fill="none" stroke="black" d="M65.88,-287.82C47.56,-245.4 7.93,-134.62 61.84,-72 91.75,-37.27 204.95,-24.98 295.21,-20.79"/>
<polygon fill="black" stroke="black" points="295.3,-24.29 305.14,-20.36 295,-17.3 295.3,-24.29"/>
</g>
<!-- hpp&#45;manipulation&#45;urdf&#45;&gt;hpp&#45;manipulation&#45;corba -->
<g id="edge5" class="edge">
<title>hpp&#45;manipulation&#45;urdf&#45;&gt;hpp&#45;manipulation&#45;corba</title>
<path fill="none" stroke="black" d="M243.75,-143.7C237.19,-135.64 229.26,-125.89 222,-116.98"/>
<polygon fill="black" stroke="black" points="224.75,-114.82 215.73,-109.28 219.33,-119.24 224.75,-114.82"/>
</g>
<!-- hpp&#45;manipulation&#45;urdf&#45;&gt;hpp&#45;gepetto&#45;viewer -->
<g id="edge6" class="edge">
<title>hpp&#45;manipulation&#45;urdf&#45;&gt;hpp&#45;gepetto&#45;viewer</title>
<path fill="none" stroke="black" d="M288.57,-144.11C304.66,-134.56 324.2,-121.78 339.84,-108 361.27,-89.12 381.91,-63.95 396.09,-45.2"/>
<polygon fill="black" stroke="black" points="398.83,-47.38 401.98,-37.26 393.21,-43.2 398.83,-47.38"/>
</g>
<!-- hpp&#45;manipulation&#45;&gt;hpp&#45;manipulation&#45;urdf -->
<g id="edge7" class="edge">
<title>hpp&#45;manipulation&#45;&gt;hpp&#45;manipulation&#45;urdf</title>
<path fill="none" stroke="black" d="M335.41,-216.23C322.48,-207.36 306.39,-196.32 292.22,-186.59"/>
<polygon fill="black" stroke="black" points="294.26,-183.75 284.03,-180.97 290.29,-189.52 294.26,-183.75"/>
</g>
<!-- hpp&#45;manipulation&#45;&gt;hpp&#45;manipulation&#45;corba -->
<g id="edge8" class="edge">
<title>hpp&#45;manipulation&#45;&gt;hpp&#45;manipulation&#45;corba</title>
<path fill="none" stroke="black" d="M374.42,-215.73C388.73,-196.59 406.19,-165.57 389.84,-144 377.65,-127.92 336.31,-115.38 295.39,-106.54"/>
<polygon fill="black" stroke="black" points="296.16,-103.13 285.65,-104.51 294.73,-109.98 296.16,-103.13"/>
</g>
<!-- hpp&#45;manipulation&#45;&gt;hpp&#45;gepetto&#45;viewer -->
<g id="edge9" class="edge">
<title>hpp&#45;manipulation&#45;&gt;hpp&#45;gepetto&#45;viewer</title>
<path fill="none" stroke="black" d="M380.33,-216.06C390.23,-206.58 401.17,-193.89 406.84,-180 424.65,-136.39 422.49,-80.52 418.93,-47.37"/>
<polygon fill="black" stroke="black" points="422.45,-47.26 417.77,-37.75 415.5,-48.1 422.45,-47.26"/>
</g>
<!-- hpp&#45;manipulation&#45;corba&#45;&gt;hpp&#45;gepetto&#45;viewer -->
<g id="edge10" class="edge">
<title>hpp&#45;manipulation&#45;corba&#45;&gt;hpp&#45;gepetto&#45;viewer</title>
<path fill="none" stroke="black" d="M249.94,-72.94C281.67,-62.56 323.13,-49 356.54,-38.07"/>
<polygon fill="black" stroke="black" points="357.22,-41.53 365.64,-35.09 355.05,-34.88 357.22,-41.53"/>
</g>
<!-- hpp&#45;constraints -->
<g id="node6" class="node">
<title>hpp&#45;constraints</title>
<g id="a_node6"><a xlink:href="https://github.com/conda-forge/hpp-constraints-feedstock" xlink:title="hpp constraints">
<ellipse fill="#fde725" stroke="black" cx="274.84" cy="-378" rx="89.61" ry="18"/>
<text text-anchor="middle" x="274.84" y="-373.32" font-family="Times,serif" font-size="14.00">hpp constraints</text>
</a>
</g>
</g>
<!-- hpp&#45;constraints&#45;&gt;hpp&#45;core -->
<g id="edge11" class="edge">
<title>hpp&#45;constraints&#45;&gt;hpp&#45;core</title>
<path fill="none" stroke="black" d="M231.72,-361.98C199.14,-350.64 154.46,-335.08 120.95,-323.41"/>
<polygon fill="black" stroke="black" points="122.51,-320.24 111.92,-320.26 120.21,-326.86 122.51,-320.24"/>
</g>
<!-- hpp&#45;constraints&#45;&gt;hpp&#45;manipulation&#45;urdf -->
<g id="edge12" class="edge">
<title>hpp&#45;constraints&#45;&gt;hpp&#45;manipulation&#45;urdf</title>
<path fill="none" stroke="black" d="M270.64,-359.75C265.03,-335.76 255.39,-290.89 251.84,-252 250.39,-236.07 250.94,-231.97 251.84,-216 252.29,-208.02 253.12,-199.39 254.02,-191.47"/>
<polygon fill="black" stroke="black" points="257.48,-192 255.22,-181.65 250.53,-191.15 257.48,-192"/>
</g>
<!-- hpp&#45;constraints&#45;&gt;hpp&#45;manipulation -->
<g id="edge13" class="edge">
<title>hpp&#45;constraints&#45;&gt;hpp&#45;manipulation</title>
<path fill="none" stroke="black" d="M285.09,-359.87C299.65,-335.56 326.43,-290.82 343.67,-262.01"/>
<polygon fill="black" stroke="black" points="346.64,-263.87 348.77,-253.49 340.64,-260.27 346.64,-263.87"/>
</g>
<!-- hpp&#45;constraints&#45;&gt;hpp&#45;manipulation&#45;corba -->
<g id="edge14" class="edge">
<title>hpp&#45;constraints&#45;&gt;hpp&#45;manipulation&#45;corba</title>
<path fill="none" stroke="black" d="M255.67,-360.12C221.65,-328.72 151.83,-257.45 125.84,-180 120.75,-164.83 118.48,-158.21 125.84,-144 132.2,-131.72 142.86,-121.68 154.17,-113.77"/>
<polygon fill="black" stroke="black" points="155.95,-116.79 162.47,-108.44 152.17,-110.9 155.95,-116.79"/>
</g>
<!-- hpp&#45;constraints&#45;&gt;hpp&#45;gepetto&#45;viewer -->
<g id="edge15" class="edge">
<title>hpp&#45;constraints&#45;&gt;hpp&#45;gepetto&#45;viewer</title>
<path fill="none" stroke="black" d="M334.18,-364.19C396.89,-346.75 486.84,-308.87 486.84,-235 486.84,-235 486.84,-235 486.84,-161 486.84,-116.49 458.36,-71.8 437.22,-44.76"/>
<polygon fill="black" stroke="black" points="440.07,-42.71 431.06,-37.14 434.63,-47.11 440.07,-42.71"/>
</g>
<!-- hpp&#45;pinocchio -->
<g id="node7" class="node">
<title>hpp&#45;pinocchio</title>
<g id="a_node7"><a xlink:href="https://github.com/conda-forge/hpp-pinocchio-feedstock" xlink:title="hpp pinocchio">
<ellipse fill="#ff8c00" stroke="black" cx="215.84" cy="-450" rx="80.67" ry="18"/>
<text text-anchor="middle" x="215.84" y="-445.32" font-family="Times,serif" font-size="14.00">hpp pinocchio</text>
</a>
</g>
</g>
<!-- hpp&#45;pinocchio&#45;&gt;hpp&#45;core -->
<g id="edge16" class="edge">
<title>hpp&#45;pinocchio&#45;&gt;hpp&#45;core</title>
<path fill="none" stroke="black" d="M189.8,-432.73C175.2,-422.99 157.13,-409.84 142.84,-396 123.08,-376.86 104.2,-351.87 91.2,-333.25"/>
<polygon fill="black" stroke="black" points="94.18,-331.41 85.64,-325.14 88.41,-335.37 94.18,-331.41"/>
</g>
<!-- hpp&#45;pinocchio&#45;&gt;hpp&#45;manipulation&#45;urdf -->
<g id="edge17" class="edge">
<title>hpp&#45;pinocchio&#45;&gt;hpp&#45;manipulation&#45;urdf</title>
<path fill="none" stroke="black" d="M198.53,-432.07C189.91,-422.41 180.38,-409.55 175.84,-396 170.76,-380.83 172.71,-375.69 175.84,-360 188.59,-296.19 222.45,-227.19 242.45,-190.17"/>
<polygon fill="black" stroke="black" points="245.46,-191.96 247.2,-181.51 239.33,-188.59 245.46,-191.96"/>
</g>
<!-- hpp&#45;pinocchio&#45;&gt;hpp&#45;manipulation -->
<g id="edge18" class="edge">
<title>hpp&#45;pinocchio&#45;&gt;hpp&#45;manipulation</title>
<path fill="none" stroke="black" d="M290.38,-442.8C321.44,-436.1 354.67,-422.66 373.84,-396 402.15,-356.64 385.86,-297.06 372.29,-262.49"/>
<polygon fill="black" stroke="black" points="375.67,-261.51 368.61,-253.6 369.2,-264.18 375.67,-261.51"/>
</g>
<!-- hpp&#45;pinocchio&#45;&gt;hpp&#45;manipulation&#45;corba -->
<g id="edge19" class="edge">
<title>hpp&#45;pinocchio&#45;&gt;hpp&#45;manipulation&#45;corba</title>
<path fill="none" stroke="black" d="M166.23,-435.58C115.73,-418.88 40.64,-384.84 9.84,-324 -20.68,-263.7 27.91,-187.2 71.84,-144 87.13,-128.96 107.29,-117.99 127.11,-110.06"/>
<polygon fill="black" stroke="black" points="128.18,-113.4 136.32,-106.61 125.72,-106.84 128.18,-113.4"/>
</g>
<!-- hpp&#45;pinocchio&#45;&gt;hpp&#45;gepetto&#45;viewer -->
<g id="edge20" class="edge">
<title>hpp&#45;pinocchio&#45;&gt;hpp&#45;gepetto&#45;viewer</title>
<path fill="none" stroke="black" d="M294.61,-445.89C386.16,-437.57 524.84,-408.25 524.84,-307 524.84,-307 524.84,-307 524.84,-161 524.84,-111.05 481.77,-68.01 449.53,-42.79"/>
<polygon fill="black" stroke="black" points="451.65,-40 441.56,-36.77 447.43,-45.59 451.65,-40"/>
</g>
<!-- hpp&#45;pinocchio&#45;&gt;hpp&#45;constraints -->
<g id="edge21" class="edge">
<title>hpp&#45;pinocchio&#45;&gt;hpp&#45;constraints</title>
<path fill="none" stroke="black" d="M230.12,-432.05C237.08,-423.8 245.59,-413.7 253.32,-404.54"/>
<polygon fill="black" stroke="black" points="255.95,-406.85 259.72,-396.95 250.59,-402.34 255.95,-406.85"/>
</g>
</g>
</svg>
