<?xml version="1.0" encoding="UTF-8" standalone="no"?>
<!DOCTYPE svg PUBLIC "-//W3C//DTD SVG 1.1//EN"
 "http://www.w3.org/Graphics/SVG/1.1/DTD/svg11.dtd">
<!-- Generated by graphviz version 9.0.0 (20231125.0833)
 -->
<!-- Pages: 1 -->
<svg width="282pt" height="188pt"
 viewBox="0.00 0.00 282.20 188.00" xmlns="http://www.w3.org/2000/svg" xmlns:xlink="http://www.w3.org/1999/xlink">
<g id="graph0" class="graph" transform="scale(1 1) rotate(0) translate(4 184)">
<polygon fill="white" stroke="none" points="-4,4 -4,-184 278.2,-184 278.2,4 -4,4"/>
<!-- aws&#45;sdk&#45;cpp -->
<g id="node1" class="node">
<title>aws&#45;sdk&#45;cpp</title>
<g id="a_node1"><a xlink:href="https://github.com/conda-forge/aws-sdk-cpp-feedstock" xlink:title="aws sdk cpp">
<ellipse fill="#fde725" stroke="black" cx="81.36" cy="-18" rx="72.25" ry="18"/>
<text text-anchor="middle" x="81.36" y="-13.32" font-family="Times,serif" font-size="14.00">aws sdk cpp</text>
</a>
</g>
</g>
<!-- aws&#45;c&#45;mqtt -->
<g id="node2" class="node">
<title>aws&#45;c&#45;mqtt</title>
<g id="a_node2"><a xlink:href="https://github.com/conda-forge/aws-c-mqtt-feedstock/pull/198" xlink:title="aws c mqtt ✓">
<ellipse fill="#31688e" stroke="black" cx="74.36" cy="-162" rx="74.36" ry="18"/>
<text text-anchor="middle" x="74.36" y="-157.32" font-family="Times,serif" font-size="14.00" fill="white">aws c mqtt ✓</text>
</a>
</g>
</g>
<!-- aws&#45;crt&#45;cpp -->
<g id="node3" class="node">
<title>aws&#45;crt&#45;cpp</title>
<g id="a_node3"><a xlink:href="https://github.com/conda-forge/aws-crt-cpp-feedstock" xlink:title="aws crt cpp">
<ellipse fill="#fde725" stroke="black" cx="81.36" cy="-90" rx="69.1" ry="18"/>
<text text-anchor="middle" x="81.36" y="-85.33" font-family="Times,serif" font-size="14.00">aws crt cpp</text>
</a>
</g>
</g>
<!-- aws&#45;c&#45;mqtt&#45;&gt;aws&#45;crt&#45;cpp -->
<g id="edge1" class="edge">
<title>aws&#45;c&#45;mqtt&#45;&gt;aws&#45;crt&#45;cpp</title>
<path fill="none" stroke="black" d="M76.09,-143.7C76.82,-136.41 77.68,-127.73 78.5,-119.54"/>
<polygon fill="black" stroke="black" points="81.98,-119.91 79.5,-109.61 75.02,-119.21 81.98,-119.91"/>
</g>
<!-- awscrt -->
<g id="node5" class="node">
<title>awscrt</title>
<g id="a_node5"><a xlink:href="https://github.com/conda-forge/awscrt-feedstock" xlink:title="awscrt">
<ellipse fill="#fde725" stroke="black" cx="216.36" cy="-90" rx="44.89" ry="18"/>
<text text-anchor="middle" x="216.36" y="-85.33" font-family="Times,serif" font-size="14.00">awscrt</text>
</a>
</g>
</g>
<!-- aws&#45;c&#45;mqtt&#45;&gt;awscrt -->
<g id="edge2" class="edge">
<title>aws&#45;c&#45;mqtt&#45;&gt;awscrt</title>
<path fill="none" stroke="black" d="M106.22,-145.29C127.68,-134.71 156.08,-120.71 178.66,-109.58"/>
<polygon fill="black" stroke="black" points="180.12,-112.76 187.55,-105.2 177.03,-106.48 180.12,-112.76"/>
</g>
<!-- aws&#45;crt&#45;cpp&#45;&gt;aws&#45;sdk&#45;cpp -->
<g id="edge3" class="edge">
<title>aws&#45;crt&#45;cpp&#45;&gt;aws&#45;sdk&#45;cpp</title>
<path fill="none" stroke="black" d="M81.36,-71.7C81.36,-64.41 81.36,-55.73 81.36,-47.54"/>
<polygon fill="black" stroke="black" points="84.86,-47.62 81.36,-37.62 77.86,-47.62 84.86,-47.62"/>
</g>
<!-- aws&#45;c&#45;s3 -->
<g id="node4" class="node">
<title>aws&#45;c&#45;s3</title>
<g id="a_node4"><a xlink:href="https://github.com/conda-forge/aws-c-s3-feedstock" xlink:title="aws c s3">
<ellipse fill="#35b779" stroke="black" cx="220.36" cy="-162" rx="53.84" ry="18"/>
<text text-anchor="middle" x="220.36" y="-157.32" font-family="Times,serif" font-size="14.00">aws c s3</text>
</a>
</g>
</g>
<!-- aws&#45;c&#45;s3&#45;&gt;aws&#45;crt&#45;cpp -->
<g id="edge4" class="edge">
<title>aws&#45;c&#45;s3&#45;&gt;aws&#45;crt&#45;cpp</title>
<path fill="none" stroke="black" d="M191.56,-146.5C171.51,-136.4 144.49,-122.79 122.22,-111.58"/>
<polygon fill="black" stroke="black" points="123.91,-108.51 113.4,-107.14 120.76,-114.76 123.91,-108.51"/>
</g>
<!-- aws&#45;c&#45;s3&#45;&gt;awscrt -->
<g id="edge5" class="edge">
<title>aws&#45;c&#45;s3&#45;&gt;awscrt</title>
<path fill="none" stroke="black" d="M219.37,-143.7C218.95,-136.41 218.46,-127.73 217.99,-119.54"/>
<polygon fill="black" stroke="black" points="221.49,-119.4 217.42,-109.62 214.5,-119.8 221.49,-119.4"/>
</g>
</g>
</svg>
