<?xml version="1.0" encoding="UTF-8" standalone="no"?>
<!DOCTYPE svg PUBLIC "-//W3C//DTD SVG 1.1//EN"
 "http://www.w3.org/Graphics/SVG/1.1/DTD/svg11.dtd">
<!-- Generated by graphviz version 9.0.0 (20231125.0833)
 -->
<!-- Pages: 1 -->
<svg width="645pt" height="332pt"
 viewBox="0.00 0.00 645.20 332.00" xmlns="http://www.w3.org/2000/svg" xmlns:xlink="http://www.w3.org/1999/xlink">
<g id="graph0" class="graph" transform="scale(1 1) rotate(0) translate(4 328)">
<polygon fill="white" stroke="none" points="-4,4 -4,-328 641.2,-328 641.2,4 -4,4"/>
<!-- aws&#45;sdk&#45;cpp -->
<g id="node1" class="node">
<title>aws&#45;sdk&#45;cpp</title>
<g id="a_node1"><a xlink:href="https://github.com/conda-forge/aws-sdk-cpp-feedstock" xlink:title="aws sdk cpp">
<ellipse fill="#fde725" stroke="black" cx="235.45" cy="-18" rx="72.25" ry="18"/>
<text text-anchor="middle" x="235.45" y="-13.32" font-family="Times,serif" font-size="14.00">aws sdk cpp</text>
</a>
</g>
</g>
<!-- aws&#45;c&#45;event&#45;stream -->
<g id="node2" class="node">
<title>aws&#45;c&#45;event&#45;stream</title>
<g id="a_node2"><a xlink:href="https://github.com/conda-forge/aws-c-event-stream-feedstock/pull/167" xlink:title="aws c event stream ✓">
<ellipse fill="#31688e" stroke="black" cx="116.45" cy="-162" rx="116.45" ry="18"/>
<text text-anchor="middle" x="116.45" y="-157.32" font-family="Times,serif" font-size="14.00" fill="white">aws c event stream ✓</text>
</a>
</g>
</g>
<!-- aws&#45;c&#45;event&#45;stream&#45;&gt;aws&#45;sdk&#45;cpp -->
<g id="edge2" class="edge">
<title>aws&#45;c&#45;event&#45;stream&#45;&gt;aws&#45;sdk&#45;cpp</title>
<path fill="none" stroke="black" d="M130.8,-143.87C151.55,-119.11 190.07,-73.14 214.14,-44.42"/>
<polygon fill="black" stroke="black" points="216.7,-46.82 220.44,-36.91 211.33,-42.32 216.7,-46.82"/>
</g>
<!-- aws&#45;crt&#45;cpp -->
<g id="node6" class="node">
<title>aws&#45;crt&#45;cpp</title>
<g id="a_node6"><a xlink:href="https://github.com/conda-forge/aws-crt-cpp-feedstock" xlink:title="aws crt cpp">
<ellipse fill="#fde725" stroke="black" cx="307.45" cy="-90" rx="69.1" ry="18"/>
<text text-anchor="middle" x="307.45" y="-85.33" font-family="Times,serif" font-size="14.00">aws crt cpp</text>
</a>
</g>
</g>
<!-- aws&#45;c&#45;event&#45;stream&#45;&gt;aws&#45;crt&#45;cpp -->
<g id="edge1" class="edge">
<title>aws&#45;c&#45;event&#45;stream&#45;&gt;aws&#45;crt&#45;cpp</title>
<path fill="none" stroke="black" d="M160.26,-144.94C189.4,-134.26 227.71,-120.22 257.95,-109.14"/>
<polygon fill="black" stroke="black" points="259.08,-112.45 267.27,-105.73 256.67,-105.88 259.08,-112.45"/>
</g>
<!-- awscrt -->
<g id="node8" class="node">
<title>awscrt</title>
<g id="a_node8"><a xlink:href="https://github.com/conda-forge/awscrt-feedstock" xlink:title="awscrt">
<ellipse fill="#fde725" stroke="black" cx="486.45" cy="-90" rx="44.89" ry="18"/>
<text text-anchor="middle" x="486.45" y="-85.33" font-family="Times,serif" font-size="14.00">awscrt</text>
</a>
</g>
</g>
<!-- aws&#45;c&#45;event&#45;stream&#45;&gt;awscrt -->
<g id="edge3" class="edge">
<title>aws&#45;c&#45;event&#45;stream&#45;&gt;awscrt</title>
<path fill="none" stroke="black" d="M188.22,-147.42C260.78,-133.69 371.1,-112.82 435.25,-100.69"/>
<polygon fill="black" stroke="black" points="435.63,-104.18 444.8,-98.88 434.33,-97.3 435.63,-104.18"/>
</g>
<!-- aws&#45;c&#45;http -->
<g id="node3" class="node">
<title>aws&#45;c&#45;http</title>
<g id="a_node3"><a xlink:href="https://github.com/conda-forge/aws-c-http-feedstock/pull/183" xlink:title="aws c http ✓">
<ellipse fill="#31688e" stroke="black" cx="475.45" cy="-306" rx="71.2" ry="18"/>
<text text-anchor="middle" x="475.45" y="-301.32" font-family="Times,serif" font-size="14.00" fill="white">aws c http ✓</text>
</a>
</g>
</g>
<!-- aws&#45;c&#45;mqtt -->
<g id="node4" class="node">
<title>aws&#45;c&#45;mqtt</title>
<g id="a_node4"><a xlink:href="https://github.com/conda-forge/aws-c-mqtt-feedstock" xlink:title="aws c mqtt">
<ellipse fill="#fde725" stroke="black" cx="354.45" cy="-162" rx="66.47" ry="18"/>
<text text-anchor="middle" x="354.45" y="-157.32" font-family="Times,serif" font-size="14.00">aws c mqtt</text>
</a>
</g>
</g>
<!-- aws&#45;c&#45;http&#45;&gt;aws&#45;c&#45;mqtt -->
<g id="edge5" class="edge">
<title>aws&#45;c&#45;http&#45;&gt;aws&#45;c&#45;mqtt</title>
<path fill="none" stroke="black" d="M446.99,-289.03C432.09,-279.66 414.33,-266.76 401.45,-252 385.58,-233.82 373.15,-209.35 365.07,-190.67"/>
<polygon fill="black" stroke="black" points="368.36,-189.46 361.3,-181.56 361.89,-192.14 368.36,-189.46"/>
</g>
<!-- aws&#45;c&#45;auth -->
<g id="node5" class="node">
<title>aws&#45;c&#45;auth</title>
<g id="a_node5"><a xlink:href="https://github.com/conda-forge/aws-c-auth-feedstock" xlink:title="aws c auth">
<ellipse fill="#fde725" stroke="black" cx="475.45" cy="-234" rx="64.89" ry="18"/>
<text text-anchor="middle" x="475.45" y="-229.32" font-family="Times,serif" font-size="14.00">aws c auth</text>
</a>
</g>
</g>
<!-- aws&#45;c&#45;http&#45;&gt;aws&#45;c&#45;auth -->
<g id="edge4" class="edge">
<title>aws&#45;c&#45;http&#45;&gt;aws&#45;c&#45;auth</title>
<path fill="none" stroke="black" d="M475.45,-287.7C475.45,-280.41 475.45,-271.73 475.45,-263.54"/>
<polygon fill="black" stroke="black" points="478.95,-263.62 475.45,-253.62 471.95,-263.62 478.95,-263.62"/>
</g>
<!-- aws&#45;c&#45;http&#45;&gt;aws&#45;crt&#45;cpp -->
<g id="edge7" class="edge">
<title>aws&#45;c&#45;http&#45;&gt;aws&#45;crt&#45;cpp</title>
<path fill="none" stroke="black" d="M430.42,-291.61C382.38,-274.54 309.17,-239.82 279.45,-180 269.52,-160.02 278.38,-135.78 288.68,-117.64"/>
<polygon fill="black" stroke="black" points="291.56,-119.64 293.82,-109.29 285.6,-115.97 291.56,-119.64"/>
</g>
<!-- aws&#45;c&#45;s3 -->
<g id="node7" class="node">
<title>aws&#45;c&#45;s3</title>
<g id="a_node7"><a xlink:href="https://github.com/conda-forge/aws-c-s3-feedstock" xlink:title="aws c s3">
<ellipse fill="#fde725" stroke="black" cx="568.45" cy="-162" rx="53.84" ry="18"/>
<text text-anchor="middle" x="568.45" y="-157.32" font-family="Times,serif" font-size="14.00">aws c s3</text>
</a>
</g>
</g>
<!-- aws&#45;c&#45;http&#45;&gt;aws&#45;c&#45;s3 -->
<g id="edge6" class="edge">
<title>aws&#45;c&#45;http&#45;&gt;aws&#45;c&#45;s3</title>
<path fill="none" stroke="black" d="M507.11,-289.45C522.15,-280.5 539.06,-267.86 549.45,-252 561.16,-234.11 565.8,-210.26 567.57,-191.75"/>
<polygon fill="black" stroke="black" points="571.05,-192.21 568.26,-181.99 564.06,-191.71 571.05,-192.21"/>
</g>
<!-- aws&#45;c&#45;http&#45;&gt;awscrt -->
<g id="edge8" class="edge">
<title>aws&#45;c&#45;http&#45;&gt;awscrt</title>
<path fill="none" stroke="black" d="M511.23,-290.05C550.67,-271.19 611.21,-234.5 631.45,-180 637.01,-165 640.61,-157.11 631.45,-144 611.25,-115.12 573.54,-101.92 541.65,-95.92"/>
<polygon fill="black" stroke="black" points="542.58,-92.53 532.14,-94.33 541.42,-99.43 542.58,-92.53"/>
</g>
<!-- aws&#45;c&#45;mqtt&#45;&gt;aws&#45;crt&#45;cpp -->
<g id="edge9" class="edge">
<title>aws&#45;c&#45;mqtt&#45;&gt;aws&#45;crt&#45;cpp</title>
<path fill="none" stroke="black" d="M343.07,-144.05C337.64,-135.97 331.03,-126.12 324.98,-117.11"/>
<polygon fill="black" stroke="black" points="328.04,-115.4 319.56,-109.05 322.23,-119.3 328.04,-115.4"/>
</g>
<!-- aws&#45;c&#45;mqtt&#45;&gt;awscrt -->
<g id="edge10" class="edge">
<title>aws&#45;c&#45;mqtt&#45;&gt;awscrt</title>
<path fill="none" stroke="black" d="M383.74,-145.46C403.36,-135.06 429.33,-121.29 450.25,-110.2"/>
<polygon fill="black" stroke="black" points="451.83,-113.32 459.02,-105.54 448.55,-107.13 451.83,-113.32"/>
</g>
<!-- aws&#45;c&#45;auth&#45;&gt;aws&#45;crt&#45;cpp -->
<g id="edge12" class="edge">
<title>aws&#45;c&#45;auth&#45;&gt;aws&#45;crt&#45;cpp</title>
<path fill="none" stroke="black" d="M470.44,-215.75C463.93,-196.05 450.79,-163.96 429.45,-144 411.62,-127.33 387.71,-115.39 365.79,-107.12"/>
<polygon fill="black" stroke="black" points="367.24,-103.92 356.64,-103.85 364.88,-110.51 367.24,-103.92"/>
</g>
<!-- aws&#45;c&#45;auth&#45;&gt;aws&#45;c&#45;s3 -->
<g id="edge11" class="edge">
<title>aws&#45;c&#45;auth&#45;&gt;aws&#45;c&#45;s3</title>
<path fill="none" stroke="black" d="M497.02,-216.76C509.31,-207.51 524.91,-195.77 538.39,-185.63"/>
<polygon fill="black" stroke="black" points="540.22,-188.63 546.1,-179.82 536.01,-183.03 540.22,-188.63"/>
</g>
<!-- aws&#45;c&#45;auth&#45;&gt;awscrt -->
<g id="edge13" class="edge">
<title>aws&#45;c&#45;auth&#45;&gt;awscrt</title>
<path fill="none" stroke="black" d="M476.79,-215.59C478.65,-191.61 482.02,-148.14 484.24,-119.42"/>
<polygon fill="black" stroke="black" points="487.72,-119.86 485,-109.62 480.74,-119.32 487.72,-119.86"/>
</g>
<!-- aws&#45;crt&#45;cpp&#45;&gt;aws&#45;sdk&#45;cpp -->
<g id="edge14" class="edge">
<title>aws&#45;crt&#45;cpp&#45;&gt;aws&#45;sdk&#45;cpp</title>
<path fill="none" stroke="black" d="M290.38,-72.41C281.63,-63.91 270.8,-53.37 261.07,-43.91"/>
<polygon fill="black" stroke="black" points="263.58,-41.47 253.97,-37.01 258.7,-46.49 263.58,-41.47"/>
</g>
<!-- aws&#45;c&#45;s3&#45;&gt;aws&#45;crt&#45;cpp -->
<g id="edge15" class="edge">
<title>aws&#45;c&#45;s3&#45;&gt;aws&#45;crt&#45;cpp</title>
<path fill="none" stroke="black" d="M527.38,-149.99C483.83,-138.31 414.67,-119.76 365.54,-106.58"/>
<polygon fill="black" stroke="black" points="366.48,-103.21 355.91,-104 364.66,-109.97 366.48,-103.21"/>
</g>
<!-- aws&#45;c&#45;s3&#45;&gt;awscrt -->
<g id="edge16" class="edge">
<title>aws&#45;c&#45;s3&#45;&gt;awscrt</title>
<path fill="none" stroke="black" d="M549.43,-144.76C538.72,-135.62 525.17,-124.06 513.39,-114"/>
<polygon fill="black" stroke="black" points="515.83,-111.48 505.95,-107.65 511.28,-116.8 515.83,-111.48"/>
</g>
</g>
</svg>
