<?xml version="1.0" encoding="UTF-8" standalone="no"?>
<!DOCTYPE svg PUBLIC "-//W3C//DTD SVG 1.1//EN"
 "http://www.w3.org/Graphics/SVG/1.1/DTD/svg11.dtd">
<!-- Generated by graphviz version 12.0.0 (20240803.0821)
 -->
<!-- Pages: 1 -->
<svg width="706pt" height="332pt"
 viewBox="0.00 0.00 705.87 332.00" xmlns="http://www.w3.org/2000/svg" xmlns:xlink="http://www.w3.org/1999/xlink">
<g id="graph0" class="graph" transform="scale(1 1) rotate(0) translate(4 328)">
<polygon fill="white" stroke="none" points="-4,4 -4,-328 701.87,-328 701.87,4 -4,4"/>
<!-- aws&#45;sdk&#45;cpp -->
<g id="node1" class="node">
<title>aws&#45;sdk&#45;cpp</title>
<g id="a_node1"><a xlink:href="https://github.com/conda-forge/aws-sdk-cpp-feedstock" xlink:title="aws sdk cpp">
<ellipse fill="#fde725" stroke="black" cx="377.89" cy="-18" rx="72.25" ry="18"/>
<text text-anchor="middle" x="377.89" y="-13.32" font-family="Times,serif" font-size="14.00">aws sdk cpp</text>
</a>
</g>
</g>
<!-- aws&#45;c&#45;event&#45;stream -->
<g id="node2" class="node">
<title>aws&#45;c&#45;event&#45;stream</title>
<g id="a_node2"><a xlink:href="https://github.com/conda-forge/aws-c-event-stream-feedstock" xlink:title="aws c event stream">
<ellipse fill="#35b779" stroke="black" cx="135.89" cy="-162" rx="108.55" ry="18"/>
<text text-anchor="middle" x="135.89" y="-157.32" font-family="Times,serif" font-size="14.00">aws c event stream</text>
</a>
</g>
</g>
<!-- aws&#45;c&#45;event&#45;stream&#45;&gt;aws&#45;sdk&#45;cpp -->
<g id="edge1" class="edge">
<title>aws&#45;c&#45;event&#45;stream&#45;&gt;aws&#45;sdk&#45;cpp</title>
<path fill="none" stroke="black" d="M164.6,-144.15C208.55,-118.36 292.49,-69.11 340.93,-40.69"/>
<polygon fill="black" stroke="black" points="342.54,-43.8 349.4,-35.72 339,-37.76 342.54,-43.8"/>
</g>
<!-- aws&#45;crt&#45;cpp -->
<g id="node3" class="node">
<title>aws&#45;crt&#45;cpp</title>
<g id="a_node3"><a xlink:href="https://github.com/conda-forge/aws-crt-cpp-feedstock" xlink:title="aws crt cpp">
<ellipse fill="#fde725" stroke="black" cx="466.89" cy="-90" rx="69.1" ry="18"/>
<text text-anchor="middle" x="466.89" y="-85.33" font-family="Times,serif" font-size="14.00">aws crt cpp</text>
</a>
</g>
</g>
<!-- aws&#45;c&#45;event&#45;stream&#45;&gt;aws&#45;crt&#45;cpp -->
<g id="edge2" class="edge">
<title>aws&#45;c&#45;event&#45;stream&#45;&gt;aws&#45;crt&#45;cpp</title>
<path fill="none" stroke="black" d="M200.89,-147.25C259.49,-134.86 345.14,-116.75 403.3,-104.45"/>
<polygon fill="black" stroke="black" points="404.01,-107.87 413.07,-102.38 402.56,-101.03 404.01,-107.87"/>
</g>
<!-- awscrt -->
<g id="node4" class="node">
<title>awscrt</title>
<g id="a_node4"><a xlink:href="https://github.com/conda-forge/awscrt-feedstock" xlink:title="awscrt">
<ellipse fill="#fde725" stroke="black" cx="135.89" cy="-90" rx="44.9" ry="18"/>
<text text-anchor="middle" x="135.89" y="-85.33" font-family="Times,serif" font-size="14.00">awscrt</text>
</a>
</g>
</g>
<!-- aws&#45;c&#45;event&#45;stream&#45;&gt;awscrt -->
<g id="edge3" class="edge">
<title>aws&#45;c&#45;event&#45;stream&#45;&gt;awscrt</title>
<path fill="none" stroke="black" d="M135.89,-143.7C135.89,-136.41 135.89,-127.73 135.89,-119.54"/>
<polygon fill="black" stroke="black" points="139.39,-119.62 135.89,-109.62 132.39,-119.62 139.39,-119.62"/>
</g>
<!-- aws&#45;crt&#45;cpp&#45;&gt;aws&#45;sdk&#45;cpp -->
<g id="edge4" class="edge">
<title>aws&#45;crt&#45;cpp&#45;&gt;aws&#45;sdk&#45;cpp</title>
<path fill="none" stroke="black" d="M445.8,-72.41C434.38,-63.43 420.09,-52.19 407.57,-42.34"/>
<polygon fill="black" stroke="black" points="410.04,-39.84 400.02,-36.41 405.71,-45.34 410.04,-39.84"/>
</g>
<!-- aws&#45;c&#45;http -->
<g id="node5" class="node">
<title>aws&#45;c&#45;http</title>
<g id="a_node5"><a xlink:href="https://github.com/conda-forge/aws-c-http-feedstock" xlink:title="aws c http">
<ellipse fill="#35b779" stroke="black" cx="386.89" cy="-306" rx="63.31" ry="18"/>
<text text-anchor="middle" x="386.89" y="-301.32" font-family="Times,serif" font-size="14.00">aws c http</text>
</a>
</g>
</g>
<!-- aws&#45;c&#45;http&#45;&gt;aws&#45;crt&#45;cpp -->
<g id="edge5" class="edge">
<title>aws&#45;c&#45;http&#45;&gt;aws&#45;crt&#45;cpp</title>
<path fill="none" stroke="black" d="M438.71,-295.47C482.43,-286.24 540.06,-270.9 553.89,-252 565.42,-236.24 556.66,-161.76 545.89,-144 537.69,-130.48 524.57,-119.66 511.36,-111.41"/>
<polygon fill="black" stroke="black" points="513.5,-108.61 503.1,-106.61 509.99,-114.66 513.5,-108.61"/>
</g>
<!-- aws&#45;c&#45;http&#45;&gt;awscrt -->
<g id="edge6" class="edge">
<title>aws&#45;c&#45;http&#45;&gt;awscrt</title>
<path fill="none" stroke="black" d="M323.48,-305.18C235.64,-301.58 79.57,-280.42 6.89,-180 -2.49,-167.04 -2.02,-157.29 6.89,-144 23.71,-118.9 54.79,-105.68 82.23,-98.71"/>
<polygon fill="black" stroke="black" points="82.87,-102.16 91.84,-96.52 81.31,-95.33 82.87,-102.16"/>
</g>
<!-- aws&#45;c&#45;mqtt -->
<g id="node6" class="node">
<title>aws&#45;c&#45;mqtt</title>
<g id="a_node6"><a xlink:href="https://github.com/conda-forge/aws-c-mqtt-feedstock" xlink:title="aws c mqtt">
<ellipse fill="#fde725" stroke="black" cx="328.89" cy="-162" rx="66.47" ry="18"/>
<text text-anchor="middle" x="328.89" y="-157.32" font-family="Times,serif" font-size="14.00">aws c mqtt</text>
</a>
</g>
</g>
<!-- aws&#45;c&#45;http&#45;&gt;aws&#45;c&#45;mqtt -->
<g id="edge7" class="edge">
<title>aws&#45;c&#45;http&#45;&gt;aws&#45;c&#45;mqtt</title>
<path fill="none" stroke="black" d="M379.89,-287.87C370.05,-263.78 352.01,-219.6 340.23,-190.77"/>
<polygon fill="black" stroke="black" points="343.5,-189.52 336.48,-181.59 337.02,-192.17 343.5,-189.52"/>
</g>
<!-- aws&#45;c&#45;auth -->
<g id="node7" class="node">
<title>aws&#45;c&#45;auth</title>
<g id="a_node7"><a xlink:href="https://github.com/conda-forge/aws-c-auth-feedstock" xlink:title="aws c auth">
<ellipse fill="#fde725" stroke="black" cx="479.89" cy="-234" rx="64.89" ry="18"/>
<text text-anchor="middle" x="479.89" y="-229.32" font-family="Times,serif" font-size="14.00">aws c auth</text>
</a>
</g>
</g>
<!-- aws&#45;c&#45;http&#45;&gt;aws&#45;c&#45;auth -->
<g id="edge8" class="edge">
<title>aws&#45;c&#45;http&#45;&gt;aws&#45;c&#45;auth</title>
<path fill="none" stroke="black" d="M408.46,-288.76C420.58,-279.64 435.91,-268.1 449.25,-258.06"/>
<polygon fill="black" stroke="black" points="451.02,-261.11 456.9,-252.3 446.81,-255.52 451.02,-261.11"/>
</g>
<!-- aws&#45;c&#45;s3 -->
<g id="node8" class="node">
<title>aws&#45;c&#45;s3</title>
<g id="a_node8"><a xlink:href="https://github.com/conda-forge/aws-c-s3-feedstock" xlink:title="aws c s3">
<ellipse fill="#fde725" stroke="black" cx="466.89" cy="-162" rx="53.84" ry="18"/>
<text text-anchor="middle" x="466.89" y="-157.32" font-family="Times,serif" font-size="14.00">aws c s3</text>
</a>
</g>
</g>
<!-- aws&#45;c&#45;http&#45;&gt;aws&#45;c&#45;s3 -->
<g id="edge9" class="edge">
<title>aws&#45;c&#45;http&#45;&gt;aws&#45;c&#45;s3</title>
<path fill="none" stroke="black" d="M387.36,-287.77C388.58,-268.94 392.64,-238.45 405.89,-216 412.83,-204.22 423.33,-193.73 433.67,-185.26"/>
<polygon fill="black" stroke="black" points="435.65,-188.15 441.42,-179.27 431.37,-182.61 435.65,-188.15"/>
</g>
<!-- aws&#45;c&#45;mqtt&#45;&gt;aws&#45;crt&#45;cpp -->
<g id="edge10" class="edge">
<title>aws&#45;c&#45;mqtt&#45;&gt;aws&#45;crt&#45;cpp</title>
<path fill="none" stroke="black" d="M359.17,-145.64C378.81,-135.68 404.63,-122.58 426.07,-111.7"/>
<polygon fill="black" stroke="black" points="427.51,-114.9 434.85,-107.25 424.35,-108.65 427.51,-114.9"/>
</g>
<!-- aws&#45;c&#45;mqtt&#45;&gt;awscrt -->
<g id="edge11" class="edge">
<title>aws&#45;c&#45;mqtt&#45;&gt;awscrt</title>
<path fill="none" stroke="black" d="M290.3,-147C258.17,-135.35 212.47,-118.78 179.12,-106.68"/>
<polygon fill="black" stroke="black" points="180.34,-103.4 169.75,-103.28 177.96,-109.98 180.34,-103.4"/>
</g>
<!-- aws&#45;c&#45;auth&#45;&gt;aws&#45;crt&#45;cpp -->
<g id="edge12" class="edge">
<title>aws&#45;c&#45;auth&#45;&gt;aws&#45;crt&#45;cpp</title>
<path fill="none" stroke="black" d="M501.7,-216.66C512.38,-207.26 524.14,-194.46 529.89,-180 535.8,-165.13 536.64,-158.51 529.89,-144 524.29,-131.97 514.47,-121.7 504.22,-113.49"/>
<polygon fill="black" stroke="black" points="506.54,-110.85 496.42,-107.72 502.38,-116.48 506.54,-110.85"/>
</g>
<!-- aws&#45;c&#45;auth&#45;&gt;awscrt -->
<g id="edge13" class="edge">
<title>aws&#45;c&#45;auth&#45;&gt;awscrt</title>
<path fill="none" stroke="black" d="M415.84,-230.3C295.18,-224.55 43.92,-209.19 17.89,-180 7.24,-168.06 9.2,-157.43 17.89,-144 32.54,-121.35 59.42,-108.29 83.82,-100.8"/>
<polygon fill="black" stroke="black" points="84.66,-104.21 93.35,-98.15 82.78,-97.46 84.66,-104.21"/>
</g>
<!-- aws&#45;c&#45;auth&#45;&gt;aws&#45;c&#45;s3 -->
<g id="edge14" class="edge">
<title>aws&#45;c&#45;auth&#45;&gt;aws&#45;c&#45;s3</title>
<path fill="none" stroke="black" d="M476.67,-215.7C475.3,-208.32 473.67,-199.52 472.13,-191.25"/>
<polygon fill="black" stroke="black" points="475.61,-190.79 470.34,-181.59 468.73,-192.06 475.61,-190.79"/>
</g>
<!-- aws&#45;c&#45;s3&#45;&gt;aws&#45;crt&#45;cpp -->
<g id="edge15" class="edge">
<title>aws&#45;c&#45;s3&#45;&gt;aws&#45;crt&#45;cpp</title>
<path fill="none" stroke="black" d="M466.89,-143.7C466.89,-136.41 466.89,-127.73 466.89,-119.54"/>
<polygon fill="black" stroke="black" points="470.39,-119.62 466.89,-109.62 463.39,-119.62 470.39,-119.62"/>
</g>
<!-- aws&#45;c&#45;s3&#45;&gt;awscrt -->
<g id="edge16" class="edge">
<title>aws&#45;c&#45;s3&#45;&gt;awscrt</title>
<path fill="none" stroke="black" d="M426.66,-149.71C419.12,-147.71 411.28,-145.73 403.89,-144 329.08,-126.53 241.64,-109.95 187.51,-100.13"/>
<polygon fill="black" stroke="black" points="188.43,-96.74 177.97,-98.4 187.19,-103.63 188.43,-96.74"/>
</g>
<!-- aws&#45;c&#45;sdkutils -->
<g id="node9" class="node">
<title>aws&#45;c&#45;sdkutils</title>
<g id="a_node9"><a xlink:href="https://github.com/conda-forge/aws-c-sdkutils-feedstock/pull/64" xlink:title="aws c sdkutils ❎">
<ellipse fill="#31688e" stroke="black" cx="600.89" cy="-306" rx="96.98" ry="18"/>
<text text-anchor="middle" x="600.89" y="-301.32" font-family="Times,serif" font-size="14.00" fill="white">aws c sdkutils ❎</text>
</a>
</g>
</g>
<!-- aws&#45;c&#45;sdkutils&#45;&gt;aws&#45;crt&#45;cpp -->
<g id="edge17" class="edge">
<title>aws&#45;c&#45;sdkutils&#45;&gt;aws&#45;crt&#45;cpp</title>
<path fill="none" stroke="black" d="M601.34,-287.58C601.28,-255.79 596.97,-187.66 563.89,-144 552.47,-128.93 535.47,-117.6 518.87,-109.38"/>
<polygon fill="black" stroke="black" points="520.57,-106.31 510.02,-105.29 517.63,-112.66 520.57,-106.31"/>
</g>
<!-- aws&#45;c&#45;sdkutils&#45;&gt;aws&#45;c&#45;auth -->
<g id="edge18" class="edge">
<title>aws&#45;c&#45;sdkutils&#45;&gt;aws&#45;c&#45;auth</title>
<path fill="none" stroke="black" d="M572.21,-288.41C555.58,-278.79 534.47,-266.58 516.63,-256.26"/>
<polygon fill="black" stroke="black" points="518.83,-253.48 508.42,-251.51 515.32,-259.54 518.83,-253.48"/>
</g>
</g>
</svg>
