<?xml version="1.0" encoding="UTF-8" standalone="no"?>
<!DOCTYPE svg PUBLIC "-//W3C//DTD SVG 1.1//EN"
 "http://www.w3.org/Graphics/SVG/1.1/DTD/svg11.dtd">
<!-- Generated by graphviz version 11.0.0 (20240519.1550)
 -->
<!-- Pages: 1 -->
<svg width="1318pt" height="260pt"
 viewBox="0.00 0.00 1318.28 260.00" xmlns="http://www.w3.org/2000/svg" xmlns:xlink="http://www.w3.org/1999/xlink">
<g id="graph0" class="graph" transform="scale(1 1) rotate(0) translate(4 256)">
<polygon fill="white" stroke="none" points="-4,4 -4,-256 1314.28,-256 1314.28,4 -4,4"/>
<!-- arrow&#45;cpp -->
<g id="node1" class="node">
<title>arrow&#45;cpp</title>
<g id="a_node1"><a xlink:href="https://github.com/conda-forge/arrow-cpp-feedstock" xlink:title="arrow cpp">
<ellipse fill="#fde725" stroke="black" cx="269.16" cy="-90" rx="61.73" ry="18"/>
<text text-anchor="middle" x="269.16" y="-85.33" font-family="Times,serif" font-size="14.00">arrow cpp</text>
</a>
</g>
</g>
<!-- arcticdb -->
<g id="node3" class="node">
<title>arcticdb</title>
<g id="a_node3"><a xlink:href="https://github.com/conda-forge/arcticdb-feedstock" xlink:title="arcticdb">
<ellipse fill="#fde725" stroke="black" cx="269.16" cy="-18" rx="52.26" ry="18"/>
<text text-anchor="middle" x="269.16" y="-13.32" font-family="Times,serif" font-size="14.00">arcticdb</text>
</a>
</g>
</g>
<!-- arrow&#45;cpp&#45;&gt;arcticdb -->
<g id="edge1" class="edge">
<title>arrow&#45;cpp&#45;&gt;arcticdb</title>
<path fill="none" stroke="black" d="M269.16,-71.7C269.16,-64.41 269.16,-55.73 269.16,-47.54"/>
<polygon fill="black" stroke="black" points="272.66,-47.62 269.16,-37.62 265.66,-47.62 272.66,-47.62"/>
</g>
<!-- tiledb -->
<g id="node2" class="node">
<title>tiledb</title>
<g id="a_node2"><a xlink:href="https://github.com/conda-forge/tiledb-feedstock" xlink:title="tiledb">
<ellipse fill="#fde725" stroke="black" cx="40.16" cy="-90" rx="40.16" ry="18"/>
<text text-anchor="middle" x="40.16" y="-85.33" font-family="Times,serif" font-size="14.00">tiledb</text>
</a>
</g>
</g>
<!-- azure&#45;storage&#45;queues&#45;cpp -->
<g id="node4" class="node">
<title>azure&#45;storage&#45;queues&#45;cpp</title>
<g id="a_node4"><a xlink:href="https://github.com/conda-forge/azure-storage-queues-cpp-feedstock" xlink:title="azure storage queues cpp">
<ellipse fill="#35b779" stroke="black" cx="1170.16" cy="-126" rx="140.12" ry="18"/>
<text text-anchor="middle" x="1170.16" y="-121.33" font-family="Times,serif" font-size="14.00">azure storage queues cpp</text>
</a>
</g>
</g>
<!-- azure&#45;storage&#45;files&#45;datalake&#45;cpp -->
<g id="node5" class="node">
<title>azure&#45;storage&#45;files&#45;datalake&#45;cpp</title>
<g id="a_node5"><a xlink:href="https://github.com/conda-forge/azure-storage-files-datalake-cpp-feedstock" xlink:title="azure storage files datalake cpp">
<ellipse fill="#fde725" stroke="black" cx="468.16" cy="-162" rx="170.63" ry="18"/>
<text text-anchor="middle" x="468.16" y="-157.32" font-family="Times,serif" font-size="14.00">azure storage files datalake cpp</text>
</a>
</g>
</g>
<!-- azure&#45;storage&#45;files&#45;datalake&#45;cpp&#45;&gt;arrow&#45;cpp -->
<g id="edge2" class="edge">
<title>azure&#45;storage&#45;files&#45;datalake&#45;cpp&#45;&gt;arrow&#45;cpp</title>
<path fill="none" stroke="black" d="M420.49,-144.23C389.53,-133.34 349.28,-119.18 318.08,-108.21"/>
<polygon fill="black" stroke="black" points="319.47,-104.99 308.87,-104.97 317.15,-111.59 319.47,-104.99"/>
</g>
<!-- azure&#45;storage&#45;files&#45;shares&#45;cpp -->
<g id="node6" class="node">
<title>azure&#45;storage&#45;files&#45;shares&#45;cpp</title>
<g id="a_node6"><a xlink:href="https://github.com/conda-forge/azure-storage-files-shares-cpp-feedstock" xlink:title="azure storage files shares cpp">
<ellipse fill="#35b779" stroke="black" cx="861.16" cy="-126" rx="161.17" ry="18"/>
<text text-anchor="middle" x="861.16" y="-121.33" font-family="Times,serif" font-size="14.00">azure storage files shares cpp</text>
</a>
</g>
</g>
<!-- azure&#45;identity&#45;cpp -->
<g id="node7" class="node">
<title>azure&#45;identity&#45;cpp</title>
<g id="a_node7"><a xlink:href="https://github.com/conda-forge/azure-identity-cpp-feedstock" xlink:title="azure identity cpp">
<ellipse fill="#35b779" stroke="black" cx="139.16" cy="-162" rx="102.24" ry="18"/>
<text text-anchor="middle" x="139.16" y="-157.32" font-family="Times,serif" font-size="14.00">azure identity cpp</text>
</a>
</g>
</g>
<!-- azure&#45;identity&#45;cpp&#45;&gt;arrow&#45;cpp -->
<g id="edge4" class="edge">
<title>azure&#45;identity&#45;cpp&#45;&gt;arrow&#45;cpp</title>
<path fill="none" stroke="black" d="M169.97,-144.41C188.17,-134.61 211.37,-122.12 230.76,-111.68"/>
<polygon fill="black" stroke="black" points="232.32,-114.81 239.46,-106.99 229,-108.65 232.32,-114.81"/>
</g>
<!-- azure&#45;identity&#45;cpp&#45;&gt;tiledb -->
<g id="edge5" class="edge">
<title>azure&#45;identity&#45;cpp&#45;&gt;tiledb</title>
<path fill="none" stroke="black" d="M115.19,-144.05C101.58,-134.43 84.42,-122.29 69.95,-112.06"/>
<polygon fill="black" stroke="black" points="72.31,-109.45 62.12,-106.53 68.27,-115.16 72.31,-109.45"/>
</g>
<!-- azure&#45;identity&#45;cpp&#45;&gt;arcticdb -->
<g id="edge3" class="edge">
<title>azure&#45;identity&#45;cpp&#45;&gt;arcticdb</title>
<path fill="none" stroke="black" d="M148.26,-143.68C158.71,-124.77 177.14,-94.22 198.16,-72 209.11,-60.42 222.82,-49.54 235.27,-40.68"/>
<polygon fill="black" stroke="black" points="236.99,-43.74 243.23,-35.18 233.01,-37.98 236.99,-43.74"/>
</g>
<!-- azure&#45;storage&#45;blobs&#45;cpp -->
<g id="node8" class="node">
<title>azure&#45;storage&#45;blobs&#45;cpp</title>
<g id="a_node8"><a xlink:href="https://github.com/conda-forge/azure-storage-blobs-cpp-feedstock" xlink:title="azure storage blobs cpp">
<ellipse fill="#35b779" stroke="black" cx="368.16" cy="-234" rx="131.18" ry="18"/>
<text text-anchor="middle" x="368.16" y="-229.32" font-family="Times,serif" font-size="14.00">azure storage blobs cpp</text>
</a>
</g>
</g>
<!-- azure&#45;storage&#45;blobs&#45;cpp&#45;&gt;arrow&#45;cpp -->
<g id="edge7" class="edge">
<title>azure&#45;storage&#45;blobs&#45;cpp&#45;&gt;arrow&#45;cpp</title>
<path fill="none" stroke="black" d="M331.08,-216.43C315.59,-207.71 298.76,-195.56 288.16,-180 276.05,-162.22 271.44,-138.17 269.79,-119.56"/>
<polygon fill="black" stroke="black" points="273.29,-119.5 269.17,-109.74 266.31,-119.94 273.29,-119.5"/>
</g>
<!-- azure&#45;storage&#45;blobs&#45;cpp&#45;&gt;tiledb -->
<g id="edge9" class="edge">
<title>azure&#45;storage&#45;blobs&#45;cpp&#45;&gt;tiledb</title>
<path fill="none" stroke="black" d="M240.1,-229.86C155.56,-224.78 55.5,-211.94 28.16,-180 13.77,-163.19 19.02,-137.66 26.56,-118.25"/>
<polygon fill="black" stroke="black" points="29.67,-119.88 30.41,-109.31 23.24,-117.11 29.67,-119.88"/>
</g>
<!-- azure&#45;storage&#45;blobs&#45;cpp&#45;&gt;arcticdb -->
<g id="edge6" class="edge">
<title>azure&#45;storage&#45;blobs&#45;cpp&#45;&gt;arcticdb</title>
<path fill="none" stroke="black" d="M498.3,-231.57C591.22,-225.5 692.55,-205.38 648.16,-144 575.89,-44.06 420.88,-22.67 333.13,-18.91"/>
<polygon fill="black" stroke="black" points="333.37,-15.42 323.25,-18.56 333.12,-22.41 333.37,-15.42"/>
</g>
<!-- azure&#45;storage&#45;blobs&#45;cpp&#45;&gt;azure&#45;storage&#45;files&#45;datalake&#45;cpp -->
<g id="edge8" class="edge">
<title>azure&#45;storage&#45;blobs&#45;cpp&#45;&gt;azure&#45;storage&#45;files&#45;datalake&#45;cpp</title>
<path fill="none" stroke="black" d="M392.62,-215.88C405.21,-207.06 420.76,-196.18 434.47,-186.59"/>
<polygon fill="black" stroke="black" points="436.18,-189.66 442.36,-181.06 432.16,-183.93 436.18,-189.66"/>
</g>
</g>
</svg>
