<?xml version="1.0" encoding="UTF-8" standalone="no"?>
<!DOCTYPE svg PUBLIC "-//W3C//DTD SVG 1.1//EN"
 "http://www.w3.org/Graphics/SVG/1.1/DTD/svg11.dtd">
<!-- Generated by graphviz version 9.0.0 (20231125.0833)
 -->
<!-- Pages: 1 -->
<svg width="1640pt" height="1068pt"
 viewBox="0.00 0.00 1640.24 1068.00" xmlns="http://www.w3.org/2000/svg" xmlns:xlink="http://www.w3.org/1999/xlink">
<g id="graph0" class="graph" transform="scale(1 1) rotate(0) translate(4 1064)">
<polygon fill="white" stroke="none" points="-4,4 -4,-1064 1636.24,-1064 1636.24,4 -4,4"/>
<!-- mshr -->
<g id="node1" class="node">
<title>mshr</title>
<g id="a_node1"><a xlink:href="https://github.com/conda-forge/mshr-feedstock" xlink:title="mshr">
<ellipse fill="#35b779" stroke="black" cx="1543.68" cy="-1042" rx="37" ry="18"/>
<text text-anchor="middle" x="1543.68" y="-1037.33" font-family="Times,serif" font-size="14.00">mshr</text>
</a>
</g>
</g>
<!-- ambertools -->
<g id="node2" class="node">
<title>ambertools</title>
<g id="a_node2"><a xlink:href="https://github.com/conda-forge/ambertools-feedstock/pull/139" xlink:title="ambertools ❎">
<ellipse fill="#31688e" stroke="black" cx="1543.68" cy="-970" rx="82.77" ry="18"/>
<text text-anchor="middle" x="1543.68" y="-965.33" font-family="Times,serif" font-size="14.00" fill="white">ambertools ❎</text>
</a>
</g>
</g>
<!-- mshr&#45;&gt;ambertools -->
<!-- ifcopenshell -->
<g id="node9" class="node">
<title>ifcopenshell</title>
<g id="a_node9"><a xlink:href="https://github.com/conda-forge/ifcopenshell-feedstock/pull/46" xlink:title="ifcopenshell ❎">
<ellipse fill="#31688e" stroke="black" cx="1543.68" cy="-898" rx="86.46" ry="18"/>
<text text-anchor="middle" x="1543.68" y="-893.33" font-family="Times,serif" font-size="14.00" fill="white">ifcopenshell ❎</text>
</a>
</g>
</g>
<!-- ambertools&#45;&gt;ifcopenshell -->
<!-- vigra -->
<g id="node3" class="node">
<title>vigra</title>
<g id="a_node3"><a xlink:href="https://github.com/conda-forge/vigra-feedstock/pull/131" xlink:title="vigra ❎">
<ellipse fill="#31688e" stroke="black" cx="1543.68" cy="-242" rx="52.26" ry="18"/>
<text text-anchor="middle" x="1543.68" y="-237.32" font-family="Times,serif" font-size="14.00" fill="white">vigra ❎</text>
</a>
</g>
</g>
<!-- hugin -->
<g id="node4" class="node">
<title>hugin</title>
<g id="a_node4"><a xlink:href="https://github.com/conda-forge/hugin-feedstock" xlink:title="hugin">
<ellipse fill="#fde725" stroke="black" cx="1543.68" cy="-170" rx="39.63" ry="18"/>
<text text-anchor="middle" x="1543.68" y="-165.32" font-family="Times,serif" font-size="14.00">hugin</text>
</a>
</g>
</g>
<!-- vigra&#45;&gt;hugin -->
<g id="edge2" class="edge">
<title>vigra&#45;&gt;hugin</title>
<path fill="none" stroke="black" d="M1543.68,-223.7C1543.68,-216.41 1543.68,-207.73 1543.68,-199.54"/>
<polygon fill="black" stroke="black" points="1547.18,-199.62 1543.68,-189.62 1540.18,-199.62 1547.18,-199.62"/>
</g>
<!-- smesh -->
<g id="node5" class="node">
<title>smesh</title>
<g id="a_node5"><a xlink:href="https://github.com/conda-forge/smesh-feedstock/pull/79" xlink:title="smesh ✓">
<ellipse fill="#31688e" stroke="black" cx="591.68" cy="-90" rx="51.21" ry="18"/>
<text text-anchor="middle" x="591.68" y="-85.33" font-family="Times,serif" font-size="14.00" fill="white">smesh ✓</text>
</a>
</g>
</g>
<!-- freecad -->
<g id="node6" class="node">
<title>freecad</title>
<g id="a_node6"><a xlink:href="https://github.com/conda-forge/freecad-feedstock" xlink:title="freecad">
<ellipse fill="#fde725" stroke="black" cx="591.68" cy="-18" rx="48.58" ry="18"/>
<text text-anchor="middle" x="591.68" y="-13.32" font-family="Times,serif" font-size="14.00">freecad</text>
</a>
</g>
</g>
<!-- smesh&#45;&gt;freecad -->
<g id="edge3" class="edge">
<title>smesh&#45;&gt;freecad</title>
<path fill="none" stroke="black" d="M591.68,-71.7C591.68,-64.41 591.68,-55.73 591.68,-47.54"/>
<polygon fill="black" stroke="black" points="595.18,-47.62 591.68,-37.62 588.18,-47.62 595.18,-47.62"/>
</g>
<!-- ldas&#45;tools&#45;frameapi -->
<g id="node7" class="node">
<title>ldas&#45;tools&#45;frameapi</title>
<g id="a_node7"><a xlink:href="https://github.com/conda-forge/ldas-tools-frameapi-feedstock/pull/18" xlink:title="ldas tools frameapi ❎">
<ellipse fill="#31688e" stroke="black" cx="1319.68" cy="-242" rx="122.23" ry="18"/>
<text text-anchor="middle" x="1319.68" y="-237.32" font-family="Times,serif" font-size="14.00" fill="white">ldas tools frameapi ❎</text>
</a>
</g>
</g>
<!-- ldas&#45;tools&#45;utilities -->
<g id="node8" class="node">
<title>ldas&#45;tools&#45;utilities</title>
<g id="a_node8"><a xlink:href="https://github.com/conda-forge/ldas-tools-utilities-feedstock" xlink:title="ldas tools utilities">
<ellipse fill="#fde725" stroke="black" cx="1319.68" cy="-170" rx="100.66" ry="18"/>
<text text-anchor="middle" x="1319.68" y="-165.32" font-family="Times,serif" font-size="14.00">ldas tools utilities</text>
</a>
</g>
</g>
<!-- ldas&#45;tools&#45;frameapi&#45;&gt;ldas&#45;tools&#45;utilities -->
<g id="edge4" class="edge">
<title>ldas&#45;tools&#45;frameapi&#45;&gt;ldas&#45;tools&#45;utilities</title>
<path fill="none" stroke="black" d="M1319.68,-223.7C1319.68,-216.41 1319.68,-207.73 1319.68,-199.54"/>
<polygon fill="black" stroke="black" points="1323.18,-199.62 1319.68,-189.62 1316.18,-199.62 1323.18,-199.62"/>
</g>
<!-- dcgp&#45;python -->
<g id="node10" class="node">
<title>dcgp&#45;python</title>
<g id="a_node10"><a xlink:href="https://github.com/conda-forge/dcgp-python-feedstock/pull/24" xlink:title="dcgp python ❎">
<ellipse fill="#31688e" stroke="black" cx="1543.68" cy="-826" rx="88.56" ry="18"/>
<text text-anchor="middle" x="1543.68" y="-821.33" font-family="Times,serif" font-size="14.00" fill="white">dcgp python ❎</text>
</a>
</g>
</g>
<!-- ifcopenshell&#45;&gt;dcgp&#45;python -->
<!-- odil -->
<g id="node27" class="node">
<title>odil</title>
<g id="a_node27"><a xlink:href="https://github.com/conda-forge/odil-feedstock/pull/31" xlink:title="odil ❎">
<ellipse fill="#31688e" stroke="black" cx="1543.68" cy="-754" rx="44.9" ry="18"/>
<text text-anchor="middle" x="1543.68" y="-749.33" font-family="Times,serif" font-size="14.00" fill="white">odil ❎</text>
</a>
</g>
</g>
<!-- dcgp&#45;python&#45;&gt;odil -->
<!-- pinocchio -->
<g id="node11" class="node">
<title>pinocchio</title>
<g id="a_node11"><a xlink:href="https://github.com/conda-forge/pinocchio-feedstock" xlink:title="pinocchio">
<ellipse fill="#35b779" stroke="black" cx="845.68" cy="-1006" rx="58.57" ry="18"/>
<text text-anchor="middle" x="845.68" y="-1001.33" font-family="Times,serif" font-size="14.00">pinocchio</text>
</a>
</g>
</g>
<!-- hpp&#45;corbaserver -->
<g id="node12" class="node">
<title>hpp&#45;corbaserver</title>
<g id="a_node12"><a xlink:href="https://github.com/conda-forge/hpp-corbaserver-feedstock" xlink:title="hpp corbaserver">
<ellipse fill="#fde725" stroke="black" cx="191.68" cy="-646" rx="93.3" ry="18"/>
<text text-anchor="middle" x="191.68" y="-641.33" font-family="Times,serif" font-size="14.00">hpp corbaserver</text>
</a>
</g>
</g>
<!-- pinocchio&#45;&gt;hpp&#45;corbaserver -->
<g id="edge7" class="edge">
<title>pinocchio&#45;&gt;hpp&#45;corbaserver</title>
<path fill="none" stroke="black" d="M786.85,-1005.33C619.98,-1004.7 155.68,-991.42 155.68,-863 155.68,-863 155.68,-863 155.68,-789 155.68,-748.32 169.73,-703.03 180.28,-674.78"/>
<polygon fill="black" stroke="black" points="183.51,-676.13 183.84,-665.54 176.98,-673.61 183.51,-676.13"/>
</g>
<!-- hpp&#45;pinocchio -->
<g id="node13" class="node">
<title>hpp&#45;pinocchio</title>
<g id="a_node13"><a xlink:href="https://github.com/conda-forge/hpp-pinocchio-feedstock" xlink:title="hpp pinocchio">
<ellipse fill="#fde725" stroke="black" cx="493.68" cy="-934" rx="80.67" ry="18"/>
<text text-anchor="middle" x="493.68" y="-929.33" font-family="Times,serif" font-size="14.00">hpp pinocchio</text>
</a>
</g>
</g>
<!-- pinocchio&#45;&gt;hpp&#45;pinocchio -->
<g id="edge8" class="edge">
<title>pinocchio&#45;&gt;hpp&#45;pinocchio</title>
<path fill="none" stroke="black" d="M797.47,-995.41C737.01,-983.39 632.88,-962.68 563.65,-948.92"/>
<polygon fill="black" stroke="black" points="564.4,-945.5 553.91,-946.98 563.04,-952.36 564.4,-945.5"/>
</g>
<!-- hpp&#45;manipulation&#45;corba -->
<g id="node14" class="node">
<title>hpp&#45;manipulation&#45;corba</title>
<g id="a_node14"><a xlink:href="https://github.com/conda-forge/hpp-manipulation-corba-feedstock" xlink:title="hpp manipulation corba">
<ellipse fill="#fde725" stroke="black" cx="494.68" cy="-574" rx="130.13" ry="18"/>
<text text-anchor="middle" x="494.68" y="-569.33" font-family="Times,serif" font-size="14.00">hpp manipulation corba</text>
</a>
</g>
</g>
<!-- pinocchio&#45;&gt;hpp&#45;manipulation&#45;corba -->
<g id="edge9" class="edge">
<title>pinocchio&#45;&gt;hpp&#45;manipulation&#45;corba</title>
<path fill="none" stroke="black" d="M787.07,-1003.72C647.56,-1000.11 299.2,-987.7 188.68,-952 116,-928.52 41.68,-939.37 41.68,-863 41.68,-863 41.68,-863 41.68,-789 41.68,-714.33 32.84,-676.42 89.68,-628 100.8,-618.52 265.6,-599.27 381.51,-586.76"/>
<polygon fill="black" stroke="black" points="381.84,-590.25 391.41,-585.7 381.1,-583.29 381.84,-590.25"/>
</g>
<!-- crocoddyl -->
<g id="node15" class="node">
<title>crocoddyl</title>
<g id="a_node15"><a xlink:href="https://github.com/conda-forge/crocoddyl-feedstock" xlink:title="crocoddyl">
<ellipse fill="#fde725" stroke="black" cx="1045.68" cy="-934" rx="59.63" ry="18"/>
<text text-anchor="middle" x="1045.68" y="-929.33" font-family="Times,serif" font-size="14.00">crocoddyl</text>
</a>
</g>
</g>
<!-- pinocchio&#45;&gt;crocoddyl -->
<g id="edge10" class="edge">
<title>pinocchio&#45;&gt;crocoddyl</title>
<path fill="none" stroke="black" d="M883.29,-991.83C915.6,-980.53 962.36,-964.16 997.41,-951.89"/>
<polygon fill="black" stroke="black" points="998.18,-955.33 1006.46,-948.73 995.86,-948.73 998.18,-955.33"/>
</g>
<!-- tsid -->
<g id="node16" class="node">
<title>tsid</title>
<g id="a_node16"><a xlink:href="https://github.com/conda-forge/tsid-feedstock" xlink:title="tsid">
<ellipse fill="#fde725" stroke="black" cx="1153.68" cy="-934" rx="30.16" ry="18"/>
<text text-anchor="middle" x="1153.68" y="-929.33" font-family="Times,serif" font-size="14.00">tsid</text>
</a>
</g>
</g>
<!-- pinocchio&#45;&gt;tsid -->
<g id="edge11" class="edge">
<title>pinocchio&#45;&gt;tsid</title>
<path fill="none" stroke="black" d="M898.84,-998C953.72,-989.97 1041.41,-974.89 1114.68,-952 1116.47,-951.44 1118.29,-950.82 1120.12,-950.17"/>
<polygon fill="black" stroke="black" points="1121.05,-953.56 1129.07,-946.64 1118.48,-947.05 1121.05,-953.56"/>
</g>
<!-- aligator -->
<g id="node17" class="node">
<title>aligator</title>
<g id="a_node17"><a xlink:href="https://github.com/conda-forge/aligator-feedstock" xlink:title="aligator">
<ellipse fill="#fde725" stroke="black" cx="951.68" cy="-790" rx="50.16" ry="18"/>
<text text-anchor="middle" x="951.68" y="-785.33" font-family="Times,serif" font-size="14.00">aligator</text>
</a>
</g>
</g>
<!-- pinocchio&#45;&gt;aligator -->
<g id="edge12" class="edge">
<title>pinocchio&#45;&gt;aligator</title>
<path fill="none" stroke="black" d="M860.76,-988.13C880.37,-965.28 914.27,-922.45 932.68,-880 941.04,-860.71 945.84,-837.43 948.53,-819.51"/>
<polygon fill="black" stroke="black" points="951.96,-820.23 949.83,-809.85 945.02,-819.29 951.96,-820.23"/>
</g>
<!-- proxsuite&#45;nlp -->
<g id="node18" class="node">
<title>proxsuite&#45;nlp</title>
<g id="a_node18"><a xlink:href="https://github.com/conda-forge/proxsuite-nlp-feedstock" xlink:title="proxsuite nlp">
<ellipse fill="#fde725" stroke="black" cx="845.68" cy="-862" rx="77.52" ry="18"/>
<text text-anchor="middle" x="845.68" y="-857.33" font-family="Times,serif" font-size="14.00">proxsuite nlp</text>
</a>
</g>
</g>
<!-- pinocchio&#45;&gt;proxsuite&#45;nlp -->
<g id="edge13" class="edge">
<title>pinocchio&#45;&gt;proxsuite&#45;nlp</title>
<path fill="none" stroke="black" d="M845.68,-987.59C845.68,-963.61 845.68,-920.14 845.68,-891.42"/>
<polygon fill="black" stroke="black" points="849.18,-891.62 845.68,-881.62 842.18,-891.62 849.18,-891.62"/>
</g>
<!-- hpp&#45;corbaserver&#45;&gt;hpp&#45;manipulation&#45;corba -->
<g id="edge14" class="edge">
<title>hpp&#45;corbaserver&#45;&gt;hpp&#45;manipulation&#45;corba</title>
<path fill="none" stroke="black" d="M249.74,-631.59C297.79,-620.49 366.41,-604.63 418.8,-592.53"/>
<polygon fill="black" stroke="black" points="419.29,-596.01 428.24,-590.35 417.71,-589.19 419.29,-596.01"/>
</g>
<!-- hpp&#45;gepetto&#45;viewer -->
<g id="node19" class="node">
<title>hpp&#45;gepetto&#45;viewer</title>
<g id="a_node19"><a xlink:href="https://github.com/conda-forge/hpp-gepetto-viewer-feedstock" xlink:title="hpp gepetto viewer">
<ellipse fill="#fde725" stroke="black" cx="671.68" cy="-502" rx="108.55" ry="18"/>
<text text-anchor="middle" x="671.68" y="-497.32" font-family="Times,serif" font-size="14.00">hpp gepetto viewer</text>
</a>
</g>
</g>
<!-- hpp&#45;corbaserver&#45;&gt;hpp&#45;gepetto&#45;viewer -->
<g id="edge15" class="edge">
<title>hpp&#45;corbaserver&#45;&gt;hpp&#45;gepetto&#45;viewer</title>
<path fill="none" stroke="black" d="M238.27,-629.98C262.95,-620.92 293.13,-608.02 317.68,-592 337.16,-579.28 334.85,-566.38 355.68,-556 416.73,-525.58 491.79,-512.14 553.44,-506.4"/>
<polygon fill="black" stroke="black" points="553.62,-509.89 563.28,-505.54 553.01,-502.92 553.62,-509.89"/>
</g>
<!-- hpp&#45;plot -->
<g id="node20" class="node">
<title>hpp&#45;plot</title>
<g id="a_node20"><a xlink:href="https://github.com/conda-forge/hpp-plot-feedstock" xlink:title="hpp plot">
<ellipse fill="#fde725" stroke="black" cx="217.68" cy="-502" rx="52.79" ry="18"/>
<text text-anchor="middle" x="217.68" y="-497.32" font-family="Times,serif" font-size="14.00">hpp plot</text>
</a>
</g>
</g>
<!-- hpp&#45;corbaserver&#45;&gt;hpp&#45;plot -->
<g id="edge16" class="edge">
<title>hpp&#45;corbaserver&#45;&gt;hpp&#45;plot</title>
<path fill="none" stroke="black" d="M161.91,-628.6C148.84,-619.66 134.86,-607.27 127.68,-592 120.87,-577.52 119.73,-569.89 127.68,-556 136.99,-539.7 153.49,-527.92 169.84,-519.67"/>
<polygon fill="black" stroke="black" points="170.97,-523 178.56,-515.61 168.01,-516.65 170.97,-523"/>
</g>
<!-- hpp&#45;tutorial -->
<g id="node21" class="node">
<title>hpp&#45;tutorial</title>
<g id="a_node21"><a xlink:href="https://github.com/conda-forge/hpp-tutorial-feedstock" xlink:title="hpp tutorial">
<ellipse fill="#fde725" stroke="black" cx="70.68" cy="-502" rx="70.68" ry="18"/>
<text text-anchor="middle" x="70.68" y="-497.32" font-family="Times,serif" font-size="14.00">hpp tutorial</text>
</a>
</g>
</g>
<!-- hpp&#45;corbaserver&#45;&gt;hpp&#45;tutorial -->
<g id="edge17" class="edge">
<title>hpp&#45;corbaserver&#45;&gt;hpp&#45;tutorial</title>
<path fill="none" stroke="black" d="M162.95,-628.46C148.42,-619.09 131.26,-606.38 118.68,-592 102.71,-573.75 90,-549.29 81.68,-530.63"/>
<polygon fill="black" stroke="black" points="84.94,-529.34 77.78,-521.52 78.5,-532.09 84.94,-529.34"/>
</g>
<!-- hpp&#45;pinocchio&#45;&gt;hpp&#45;corbaserver -->
<g id="edge18" class="edge">
<title>hpp&#45;pinocchio&#45;&gt;hpp&#45;corbaserver</title>
<path fill="none" stroke="black" d="M422.27,-925.25C361.14,-917.19 279.36,-902.55 255.68,-880 198.4,-825.46 190.77,-724.89 190.73,-675.66"/>
<polygon fill="black" stroke="black" points="194.23,-675.86 190.84,-665.83 187.23,-675.79 194.23,-675.86"/>
</g>
<!-- hpp&#45;pinocchio&#45;&gt;hpp&#45;manipulation&#45;corba -->
<g id="edge19" class="edge">
<title>hpp&#45;pinocchio&#45;&gt;hpp&#45;manipulation&#45;corba</title>
<path fill="none" stroke="black" d="M449.84,-918.5C428.19,-909.79 402.7,-897.05 383.68,-880 344.95,-845.3 330.35,-823.33 338.68,-772 349.48,-705.41 342.28,-678.8 386.68,-628 398.85,-614.06 415.54,-603.43 432.15,-595.47"/>
<polygon fill="black" stroke="black" points="433.37,-598.76 441.07,-591.48 430.51,-592.37 433.37,-598.76"/>
</g>
<!-- hpp&#45;pinocchio&#45;&gt;hpp&#45;gepetto&#45;viewer -->
<g id="edge20" class="edge">
<title>hpp&#45;pinocchio&#45;&gt;hpp&#45;gepetto&#45;viewer</title>
<path fill="none" stroke="black" d="M540.64,-919C573.01,-909 616.84,-894.75 654.68,-880 690.81,-865.92 784.34,-833.38 813.68,-808 849.2,-777.27 870.68,-765.97 870.68,-719 870.68,-719 870.68,-719 870.68,-645 870.68,-579.31 797.94,-541.15 740.41,-521.24"/>
<polygon fill="black" stroke="black" points="741.53,-517.92 730.94,-518.09 739.32,-524.56 741.53,-517.92"/>
</g>
<!-- hpp&#45;pinocchio&#45;&gt;hpp&#45;tutorial -->
<g id="edge21" class="edge">
<title>hpp&#45;pinocchio&#45;&gt;hpp&#45;tutorial</title>
<path fill="none" stroke="black" d="M412.93,-932.24C356.53,-928.26 281.62,-915.76 225.68,-880 125.68,-816.08 112.3,-774.37 68.68,-664 50.97,-619.21 54.76,-603.91 59.68,-556 60.51,-547.83 62.06,-539.07 63.73,-531.07"/>
<polygon fill="black" stroke="black" points="67.1,-532.05 65.88,-521.52 60.27,-530.51 67.1,-532.05"/>
</g>
<!-- hpp&#45;core -->
<g id="node22" class="node">
<title>hpp&#45;core</title>
<g id="a_node22"><a xlink:href="https://github.com/conda-forge/hpp-core-feedstock" xlink:title="hpp core">
<ellipse fill="#fde725" stroke="black" cx="402.68" cy="-790" rx="54.89" ry="18"/>
<text text-anchor="middle" x="402.68" y="-785.33" font-family="Times,serif" font-size="14.00">hpp core</text>
</a>
</g>
</g>
<!-- hpp&#45;pinocchio&#45;&gt;hpp&#45;core -->
<g id="edge22" class="edge">
<title>hpp&#45;pinocchio&#45;&gt;hpp&#45;core</title>
<path fill="none" stroke="black" d="M445.33,-919.23C426.06,-911.11 405.84,-898.65 394.68,-880 383.72,-861.7 386.83,-837.39 392.07,-818.8"/>
<polygon fill="black" stroke="black" points="395.33,-820.11 395.04,-809.52 388.66,-817.98 395.33,-820.11"/>
</g>
<!-- hpp&#45;manipulation&#45;urdf -->
<g id="node23" class="node">
<title>hpp&#45;manipulation&#45;urdf</title>
<g id="a_node23"><a xlink:href="https://github.com/conda-forge/hpp-manipulation-urdf-feedstock" xlink:title="hpp manipulation urdf">
<ellipse fill="#fde725" stroke="black" cx="605.68" cy="-646" rx="123.29" ry="18"/>
<text text-anchor="middle" x="605.68" y="-641.33" font-family="Times,serif" font-size="14.00">hpp manipulation urdf</text>
</a>
</g>
</g>
<!-- hpp&#45;pinocchio&#45;&gt;hpp&#45;manipulation&#45;urdf -->
<g id="edge23" class="edge">
<title>hpp&#45;pinocchio&#45;&gt;hpp&#45;manipulation&#45;urdf</title>
<path fill="none" stroke="black" d="M541.51,-919.19C560.81,-911.04 581.2,-898.57 592.68,-880 603.19,-862.98 595.9,-719.93 597.68,-700 598.39,-692 599.53,-683.37 600.73,-675.44"/>
<polygon fill="black" stroke="black" points="604.18,-676.05 602.31,-665.62 597.27,-674.93 604.18,-676.05"/>
</g>
<!-- hpp&#45;manipulation -->
<g id="node24" class="node">
<title>hpp&#45;manipulation</title>
<g id="a_node24"><a xlink:href="https://github.com/conda-forge/hpp-manipulation-feedstock" xlink:title="hpp manipulation">
<ellipse fill="#fde725" stroke="black" cx="705.68" cy="-718" rx="99.08" ry="18"/>
<text text-anchor="middle" x="705.68" y="-713.33" font-family="Times,serif" font-size="14.00">hpp manipulation</text>
</a>
</g>
</g>
<!-- hpp&#45;pinocchio&#45;&gt;hpp&#45;manipulation -->
<g id="edge24" class="edge">
<title>hpp&#45;pinocchio&#45;&gt;hpp&#45;manipulation</title>
<path fill="none" stroke="black" d="M549.06,-920.53C574.8,-912.47 604.36,-899.69 625.68,-880 665.43,-843.28 688.03,-782.44 698.48,-747"/>
<polygon fill="black" stroke="black" points="701.82,-748.06 701.16,-737.48 695.08,-746.16 701.82,-748.06"/>
</g>
<!-- hpp&#45;constraints -->
<g id="node25" class="node">
<title>hpp&#45;constraints</title>
<g id="a_node25"><a xlink:href="https://github.com/conda-forge/hpp-constraints-feedstock" xlink:title="hpp constraints">
<ellipse fill="#fde725" stroke="black" cx="493.68" cy="-862" rx="89.61" ry="18"/>
<text text-anchor="middle" x="493.68" y="-857.33" font-family="Times,serif" font-size="14.00">hpp constraints</text>
</a>
</g>
</g>
<!-- hpp&#45;pinocchio&#45;&gt;hpp&#45;constraints -->
<g id="edge25" class="edge">
<title>hpp&#45;pinocchio&#45;&gt;hpp&#45;constraints</title>
<path fill="none" stroke="black" d="M493.68,-915.7C493.68,-908.41 493.68,-899.73 493.68,-891.54"/>
<polygon fill="black" stroke="black" points="497.18,-891.62 493.68,-881.62 490.18,-891.62 497.18,-891.62"/>
</g>
<!-- hpp&#45;manipulation&#45;corba&#45;&gt;hpp&#45;gepetto&#45;viewer -->
<g id="edge26" class="edge">
<title>hpp&#45;manipulation&#45;corba&#45;&gt;hpp&#45;gepetto&#45;viewer</title>
<path fill="none" stroke="black" d="M536.17,-556.59C561.32,-546.64 593.6,-533.88 620.34,-523.3"/>
<polygon fill="black" stroke="black" points="621.63,-526.56 629.64,-519.62 619.05,-520.05 621.63,-526.56"/>
</g>
<!-- hpp&#45;manipulation&#45;corba&#45;&gt;hpp&#45;plot -->
<g id="edge27" class="edge">
<title>hpp&#45;manipulation&#45;corba&#45;&gt;hpp&#45;plot</title>
<path fill="none" stroke="black" d="M433.89,-557.64C384.89,-545.26 316.72,-528.03 270.1,-516.25"/>
<polygon fill="black" stroke="black" points="271.05,-512.88 260.5,-513.82 269.34,-519.67 271.05,-512.88"/>
</g>
<!-- hpp&#45;manipulation&#45;corba&#45;&gt;hpp&#45;tutorial -->
<g id="edge28" class="edge">
<title>hpp&#45;manipulation&#45;corba&#45;&gt;hpp&#45;tutorial</title>
<path fill="none" stroke="black" d="M407.06,-560.34C338.51,-550.19 240.86,-535.17 155.68,-520 148.97,-518.81 141.97,-517.5 135,-516.16"/>
<polygon fill="black" stroke="black" points="136.08,-512.81 125.6,-514.34 134.75,-519.68 136.08,-512.81"/>
</g>
<!-- crocoddyl&#45;&gt;aligator -->
<g id="edge29" class="edge">
<title>crocoddyl&#45;&gt;aligator</title>
<path fill="none" stroke="black" d="M1084,-919.89C1102.18,-911.52 1122.19,-898.66 1132.68,-880 1140.51,-866.05 1142.27,-856.81 1132.68,-844 1117.59,-823.86 1055.39,-808.8 1008.08,-799.98"/>
<polygon fill="black" stroke="black" points="1008.97,-796.59 998.51,-798.25 1007.72,-803.48 1008.97,-796.59"/>
</g>
<!-- mim&#45;solvers -->
<g id="node26" class="node">
<title>mim&#45;solvers</title>
<g id="a_node26"><a xlink:href="https://github.com/conda-forge/mim-solvers-feedstock" xlink:title="mim solvers">
<ellipse fill="#fde725" stroke="black" cx="1051.68" cy="-862" rx="72.25" ry="18"/>
<text text-anchor="middle" x="1051.68" y="-857.33" font-family="Times,serif" font-size="14.00">mim solvers</text>
</a>
</g>
</g>
<!-- crocoddyl&#45;&gt;mim&#45;solvers -->
<g id="edge30" class="edge">
<title>crocoddyl&#45;&gt;mim&#45;solvers</title>
<path fill="none" stroke="black" d="M1047.16,-915.7C1047.78,-908.41 1048.53,-899.73 1049.23,-891.54"/>
<polygon fill="black" stroke="black" points="1052.71,-891.87 1050.08,-881.61 1045.74,-891.28 1052.71,-891.87"/>
</g>
<!-- proxsuite&#45;nlp&#45;&gt;aligator -->
<g id="edge31" class="edge">
<title>proxsuite&#45;nlp&#45;&gt;aligator</title>
<path fill="none" stroke="black" d="M870.53,-844.59C885.02,-835.02 903.47,-822.83 919.11,-812.5"/>
<polygon fill="black" stroke="black" points="920.75,-815.62 927.17,-807.18 916.89,-809.77 920.75,-815.62"/>
</g>
<!-- hpp&#45;practicals -->
<g id="node34" class="node">
<title>hpp&#45;practicals</title>
<g id="a_node34"><a xlink:href="https://github.com/conda-forge/hpp-practicals-feedstock" xlink:title="hpp practicals">
<ellipse fill="#fde725" stroke="black" cx="211.68" cy="-430" rx="82.25" ry="18"/>
<text text-anchor="middle" x="211.68" y="-425.32" font-family="Times,serif" font-size="14.00">hpp practicals</text>
</a>
</g>
</g>
<!-- hpp&#45;plot&#45;&gt;hpp&#45;practicals -->
<g id="edge40" class="edge">
<title>hpp&#45;plot&#45;&gt;hpp&#45;practicals</title>
<path fill="none" stroke="black" d="M216.19,-483.7C215.57,-476.41 214.82,-467.73 214.12,-459.54"/>
<polygon fill="black" stroke="black" points="217.61,-459.28 213.27,-449.61 210.64,-459.87 217.61,-459.28"/>
</g>
<!-- hpp&#45;doc -->
<g id="node35" class="node">
<title>hpp&#45;doc</title>
<g id="a_node35"><a xlink:href="https://github.com/conda-forge/hpp-doc-feedstock" xlink:title="hpp doc">
<ellipse fill="#fde725" stroke="black" cx="146.68" cy="-358" rx="50.68" ry="18"/>
<text text-anchor="middle" x="146.68" y="-353.32" font-family="Times,serif" font-size="14.00">hpp doc</text>
</a>
</g>
</g>
<!-- hpp&#45;tutorial&#45;&gt;hpp&#45;doc -->
<g id="edge41" class="edge">
<title>hpp&#45;tutorial&#45;&gt;hpp&#45;doc</title>
<path fill="none" stroke="black" d="M79.84,-483.87C92.85,-459.56 116.8,-414.82 132.22,-386.01"/>
<polygon fill="black" stroke="black" points="135.13,-387.99 136.76,-377.52 128.96,-384.69 135.13,-387.99"/>
</g>
<!-- hpp&#45;core&#45;&gt;hpp&#45;corbaserver -->
<g id="edge42" class="edge">
<title>hpp&#45;core&#45;&gt;hpp&#45;corbaserver</title>
<path fill="none" stroke="black" d="M391,-772.16C376.65,-752.53 350.62,-720.22 321.68,-700 300.8,-685.42 275.32,-673.91 252.47,-665.4"/>
<polygon fill="black" stroke="black" points="253.85,-662.18 243.26,-662.09 251.48,-668.77 253.85,-662.18"/>
</g>
<!-- hpp&#45;core&#45;&gt;hpp&#45;manipulation&#45;corba -->
<g id="edge43" class="edge">
<title>hpp&#45;core&#45;&gt;hpp&#45;manipulation&#45;corba</title>
<path fill="none" stroke="black" d="M397.51,-772.07C389.11,-741.09 375.96,-674.22 402.68,-628 410.47,-614.52 423.14,-604.16 436.62,-596.33"/>
<polygon fill="black" stroke="black" points="437.99,-599.57 445.18,-591.79 434.71,-593.39 437.99,-599.57"/>
</g>
<!-- hpp&#45;core&#45;&gt;hpp&#45;gepetto&#45;viewer -->
<g id="edge44" class="edge">
<title>hpp&#45;core&#45;&gt;hpp&#45;gepetto&#45;viewer</title>
<path fill="none" stroke="black" d="M405.14,-771.61C410.82,-738.32 428.02,-665.55 473.68,-628 529.97,-581.69 577.66,-638.64 633.68,-592 651.94,-576.79 661.62,-551.22 666.63,-531.38"/>
<polygon fill="black" stroke="black" points="670.03,-532.2 668.79,-521.67 663.2,-530.67 670.03,-532.2"/>
</g>
<!-- hpp&#45;core&#45;&gt;hpp&#45;tutorial -->
<g id="edge45" class="edge">
<title>hpp&#45;core&#45;&gt;hpp&#45;tutorial</title>
<path fill="none" stroke="black" d="M350.26,-784.2C278.91,-774.64 152.87,-746.42 89.68,-664 60.34,-625.74 61.76,-566.59 65.9,-531.64"/>
<polygon fill="black" stroke="black" points="69.35,-532.25 67.24,-521.87 62.42,-531.3 69.35,-532.25"/>
</g>
<!-- hpp&#45;core&#45;&gt;hpp&#45;manipulation&#45;urdf -->
<g id="edge46" class="edge">
<title>hpp&#45;core&#45;&gt;hpp&#45;manipulation&#45;urdf</title>
<path fill="none" stroke="black" d="M422.95,-773.06C446.35,-754.85 486.18,-724.42 521.68,-700 536.57,-689.76 553.34,-679.02 567.97,-669.9"/>
<polygon fill="black" stroke="black" points="569.75,-672.92 576.41,-664.68 566.07,-666.97 569.75,-672.92"/>
</g>
<!-- hpp&#45;core&#45;&gt;hpp&#45;manipulation -->
<g id="edge47" class="edge">
<title>hpp&#45;core&#45;&gt;hpp&#45;manipulation</title>
<path fill="none" stroke="black" d="M446.73,-778.82C496.15,-767.4 577,-748.73 635.22,-735.28"/>
<polygon fill="black" stroke="black" points="635.75,-738.75 644.7,-733.09 634.17,-731.93 635.75,-738.75"/>
</g>
<!-- hpp&#45;manipulation&#45;urdf&#45;&gt;hpp&#45;manipulation&#45;corba -->
<g id="edge48" class="edge">
<title>hpp&#45;manipulation&#45;urdf&#45;&gt;hpp&#45;manipulation&#45;corba</title>
<path fill="none" stroke="black" d="M578.81,-628.05C564.46,-619.01 546.6,-607.74 531.03,-597.93"/>
<polygon fill="black" stroke="black" points="533.29,-595.21 522.96,-592.84 529.55,-601.13 533.29,-595.21"/>
</g>
<!-- hpp&#45;manipulation&#45;urdf&#45;&gt;hpp&#45;gepetto&#45;viewer -->
<g id="edge49" class="edge">
<title>hpp&#45;manipulation&#45;urdf&#45;&gt;hpp&#45;gepetto&#45;viewer</title>
<path fill="none" stroke="black" d="M633.71,-628.13C646.09,-619.08 659.45,-606.74 666.68,-592 675.8,-573.39 676.74,-549.91 675.57,-531.73"/>
<polygon fill="black" stroke="black" points="679.07,-531.54 674.67,-521.9 672.1,-532.18 679.07,-531.54"/>
</g>
<!-- hpp&#45;manipulation&#45;&gt;hpp&#45;manipulation&#45;corba -->
<g id="edge50" class="edge">
<title>hpp&#45;manipulation&#45;&gt;hpp&#45;manipulation&#45;corba</title>
<path fill="none" stroke="black" d="M720.83,-699.95C736.02,-680.72 754.88,-649.36 737.68,-628 721.14,-607.47 665.11,-594.47 611.01,-586.48"/>
<polygon fill="black" stroke="black" points="611.77,-583.05 601.37,-585.12 610.78,-589.99 611.77,-583.05"/>
</g>
<!-- hpp&#45;manipulation&#45;&gt;hpp&#45;gepetto&#45;viewer -->
<g id="edge51" class="edge">
<title>hpp&#45;manipulation&#45;&gt;hpp&#45;gepetto&#45;viewer</title>
<path fill="none" stroke="black" d="M728.01,-700.2C738.55,-690.84 750.02,-678.22 755.68,-664 761.58,-649.13 760.34,-643.3 755.68,-628 743.98,-589.63 716.14,-552.36 695.7,-528.65"/>
<polygon fill="black" stroke="black" points="698.53,-526.56 689.28,-521.39 693.28,-531.2 698.53,-526.56"/>
</g>
<!-- hpp&#45;manipulation&#45;&gt;hpp&#45;manipulation&#45;urdf -->
<g id="edge52" class="edge">
<title>hpp&#45;manipulation&#45;&gt;hpp&#45;manipulation&#45;urdf</title>
<path fill="none" stroke="black" d="M681.47,-700.05C668.79,-691.18 653.06,-680.17 639.22,-670.48"/>
<polygon fill="black" stroke="black" points="641.45,-667.77 631.25,-664.9 637.43,-673.5 641.45,-667.77"/>
</g>
<!-- hpp&#45;constraints&#45;&gt;hpp&#45;corbaserver -->
<g id="edge53" class="edge">
<title>hpp&#45;constraints&#45;&gt;hpp&#45;corbaserver</title>
<path fill="none" stroke="black" d="M433.23,-848.31C403.07,-840.07 367.06,-827.2 338.68,-808 286.21,-772.51 288.98,-746.23 245.68,-700 236.83,-690.56 226.79,-680.53 217.79,-671.77"/>
<polygon fill="black" stroke="black" points="220.27,-669.3 210.65,-664.87 215.41,-674.34 220.27,-669.3"/>
</g>
<!-- hpp&#45;constraints&#45;&gt;hpp&#45;manipulation&#45;corba -->
<g id="edge54" class="edge">
<title>hpp&#45;constraints&#45;&gt;hpp&#45;manipulation&#45;corba</title>
<path fill="none" stroke="black" d="M488.96,-843.59C479.12,-804.62 458.49,-707.56 473.68,-628 475.29,-619.54 478.23,-610.71 481.41,-602.74"/>
<polygon fill="black" stroke="black" points="484.63,-604.13 485.36,-593.56 478.2,-601.36 484.63,-604.13"/>
</g>
<!-- hpp&#45;constraints&#45;&gt;hpp&#45;gepetto&#45;viewer -->
<g id="edge55" class="edge">
<title>hpp&#45;constraints&#45;&gt;hpp&#45;gepetto&#45;viewer</title>
<path fill="none" stroke="black" d="M583.19,-860.39C683.62,-854.42 832.68,-827.32 832.68,-719 832.68,-719 832.68,-719 832.68,-645 832.68,-586.1 771.31,-545.8 724.35,-523.59"/>
<polygon fill="black" stroke="black" points="725.9,-520.45 715.35,-519.49 723,-526.82 725.9,-520.45"/>
</g>
<!-- hpp&#45;constraints&#45;&gt;hpp&#45;core -->
<g id="edge56" class="edge">
<title>hpp&#45;constraints&#45;&gt;hpp&#45;core</title>
<path fill="none" stroke="black" d="M472.11,-844.41C460.27,-835.3 445.4,-823.87 432.47,-813.92"/>
<polygon fill="black" stroke="black" points="434.72,-811.23 424.66,-807.91 430.45,-816.78 434.72,-811.23"/>
</g>
<!-- hpp&#45;constraints&#45;&gt;hpp&#45;manipulation&#45;urdf -->
<g id="edge57" class="edge">
<title>hpp&#45;constraints&#45;&gt;hpp&#45;manipulation&#45;urdf</title>
<path fill="none" stroke="black" d="M499.65,-843.88C510.52,-813.72 535.15,-749.61 564.68,-700 570.21,-690.7 577.13,-681.17 583.71,-672.79"/>
<polygon fill="black" stroke="black" points="586.37,-675.06 589.94,-665.08 580.93,-670.66 586.37,-675.06"/>
</g>
<!-- hpp&#45;constraints&#45;&gt;hpp&#45;manipulation -->
<g id="edge58" class="edge">
<title>hpp&#45;constraints&#45;&gt;hpp&#45;manipulation</title>
<path fill="none" stroke="black" d="M518.41,-844.43C556.21,-819.12 628.45,-770.72 671.32,-742.01"/>
<polygon fill="black" stroke="black" points="673.15,-745 679.51,-736.52 669.26,-739.18 673.15,-745"/>
</g>
<!-- ompl -->
<g id="node31" class="node">
<title>ompl</title>
<g id="a_node31"><a xlink:href="https://github.com/conda-forge/ompl-feedstock/pull/35" xlink:title="ompl ❎">
<ellipse fill="#31688e" stroke="black" cx="1543.68" cy="-682" rx="51.21" ry="18"/>
<text text-anchor="middle" x="1543.68" y="-677.33" font-family="Times,serif" font-size="14.00" fill="white">ompl ❎</text>
</a>
</g>
</g>
<!-- odil&#45;&gt;ompl -->
<!-- gnuradio -->
<g id="node28" class="node">
<title>gnuradio</title>
<g id="a_node28"><a xlink:href="https://github.com/conda-forge/gnuradio-feedstock/pull/262" xlink:title="gnuradio ❎">
<ellipse fill="#31688e" stroke="black" cx="639.68" cy="-278" rx="71.2" ry="18"/>
<text text-anchor="middle" x="639.68" y="-273.32" font-family="Times,serif" font-size="14.00" fill="white">gnuradio ❎</text>
</a>
</g>
</g>
<!-- gnuradio&#45;osmosdr -->
<g id="node29" class="node">
<title>gnuradio&#45;osmosdr</title>
<g id="a_node29"><a xlink:href="https://github.com/conda-forge/gnuradio-osmosdr-feedstock" xlink:title="gnuradio osmosdr">
<ellipse fill="#fde725" stroke="black" cx="574.68" cy="-206" rx="101.71" ry="18"/>
<text text-anchor="middle" x="574.68" y="-201.33" font-family="Times,serif" font-size="14.00">gnuradio osmosdr</text>
</a>
</g>
</g>
<!-- gnuradio&#45;&gt;gnuradio&#45;osmosdr -->
<g id="edge33" class="edge">
<title>gnuradio&#45;&gt;gnuradio&#45;osmosdr</title>
<path fill="none" stroke="black" d="M623.94,-260.05C616.12,-251.63 606.51,-241.28 597.86,-231.97"/>
<polygon fill="black" stroke="black" points="600.66,-229.84 591.29,-224.9 595.53,-234.61 600.66,-229.84"/>
</g>
<!-- gnss&#45;sdr -->
<g id="node30" class="node">
<title>gnss&#45;sdr</title>
<g id="a_node30"><a xlink:href="https://github.com/conda-forge/gnss-sdr-feedstock" xlink:title="gnss sdr">
<ellipse fill="#fde725" stroke="black" cx="639.68" cy="-134" rx="53.84" ry="18"/>
<text text-anchor="middle" x="639.68" y="-129.32" font-family="Times,serif" font-size="14.00">gnss sdr</text>
</a>
</g>
</g>
<!-- gnuradio&#45;&gt;gnss&#45;sdr -->
<g id="edge34" class="edge">
<title>gnuradio&#45;&gt;gnss&#45;sdr</title>
<path fill="none" stroke="black" d="M659.54,-260.55C669.43,-251.03 680.39,-238.15 685.68,-224 691.27,-209.01 691.27,-202.99 685.68,-188 681.69,-177.33 674.48,-167.38 666.93,-159.05"/>
<polygon fill="black" stroke="black" points="669.61,-156.79 660.12,-152.08 664.6,-161.68 669.61,-156.79"/>
</g>
<!-- gnuradio&#45;osmosdr&#45;&gt;gnss&#45;sdr -->
<g id="edge35" class="edge">
<title>gnuradio&#45;osmosdr&#45;&gt;gnss&#45;sdr</title>
<path fill="none" stroke="black" d="M590.41,-188.05C598.35,-179.5 608.13,-168.97 616.87,-159.56"/>
<polygon fill="black" stroke="black" points="619.26,-162.13 623.5,-152.42 614.13,-157.36 619.26,-162.13"/>
</g>
<!-- smina -->
<g id="node32" class="node">
<title>smina</title>
<g id="a_node32"><a xlink:href="https://github.com/conda-forge/smina-feedstock/pull/3" xlink:title="smina ❎">
<ellipse fill="#31688e" stroke="black" cx="1543.68" cy="-610" rx="56.47" ry="18"/>
<text text-anchor="middle" x="1543.68" y="-605.33" font-family="Times,serif" font-size="14.00" fill="white">smina ❎</text>
</a>
</g>
</g>
<!-- ompl&#45;&gt;smina -->
<!-- scipoptsuite -->
<g id="node36" class="node">
<title>scipoptsuite</title>
<g id="a_node36"><a xlink:href="https://github.com/conda-forge/scipoptsuite-feedstock/pull/64" xlink:title="scipoptsuite ❎">
<ellipse fill="#31688e" stroke="black" cx="1543.68" cy="-538" rx="87.51" ry="18"/>
<text text-anchor="middle" x="1543.68" y="-533.33" font-family="Times,serif" font-size="14.00" fill="white">scipoptsuite ❎</text>
</a>
</g>
</g>
<!-- smina&#45;&gt;scipoptsuite -->
<!-- gepetto&#45;viewer -->
<g id="node33" class="node">
<title>gepetto&#45;viewer</title>
<g id="a_node33"><a xlink:href="https://github.com/conda-forge/gepetto-viewer-feedstock" xlink:title="gepetto viewer">
<ellipse fill="#35b779" stroke="black" cx="222.68" cy="-574" rx="86.46" ry="18"/>
<text text-anchor="middle" x="222.68" y="-569.33" font-family="Times,serif" font-size="14.00">gepetto viewer</text>
</a>
</g>
</g>
<!-- gepetto&#45;viewer&#45;&gt;hpp&#45;gepetto&#45;viewer -->
<g id="edge38" class="edge">
<title>gepetto&#45;viewer&#45;&gt;hpp&#45;gepetto&#45;viewer</title>
<path fill="none" stroke="black" d="M287.74,-561.77C299.36,-559.81 311.37,-557.82 322.68,-556 410.41,-541.88 510.71,-526.76 581.21,-516.29"/>
<polygon fill="black" stroke="black" points="581.38,-519.8 590.76,-514.87 580.36,-512.88 581.38,-519.8"/>
</g>
<!-- gepetto&#45;viewer&#45;&gt;hpp&#45;plot -->
<g id="edge39" class="edge">
<title>gepetto&#45;viewer&#45;&gt;hpp&#45;plot</title>
<path fill="none" stroke="black" d="M221.44,-555.7C220.92,-548.41 220.3,-539.73 219.71,-531.54"/>
<polygon fill="black" stroke="black" points="223.21,-531.34 219,-521.61 216.23,-531.84 223.21,-531.34"/>
</g>
<!-- hpp&#45;practicals&#45;&gt;hpp&#45;doc -->
<g id="edge73" class="edge">
<title>hpp&#45;practicals&#45;&gt;hpp&#45;doc</title>
<path fill="none" stroke="black" d="M195.94,-412.05C188,-403.5 178.22,-392.97 169.48,-383.56"/>
<polygon fill="black" stroke="black" points="172.22,-381.36 162.85,-376.42 167.09,-386.13 172.22,-381.36"/>
</g>
<!-- pycuda -->
<g id="node37" class="node">
<title>pycuda</title>
<g id="a_node37"><a xlink:href="https://github.com/conda-forge/pycuda-feedstock/pull/38" xlink:title="pycuda ❎">
<ellipse fill="#31688e" stroke="black" cx="1543.68" cy="-466" rx="62.26" ry="18"/>
<text text-anchor="middle" x="1543.68" y="-461.32" font-family="Times,serif" font-size="14.00" fill="white">pycuda ❎</text>
</a>
</g>
</g>
<!-- scipoptsuite&#45;&gt;pycuda -->
<!-- cudadecon -->
<g id="node38" class="node">
<title>cudadecon</title>
<g id="a_node38"><a xlink:href="https://github.com/conda-forge/cudadecon-feedstock/pull/28" xlink:title="cudadecon ❎">
<ellipse fill="#31688e" stroke="black" cx="1543.68" cy="-394" rx="79.62" ry="18"/>
<text text-anchor="middle" x="1543.68" y="-389.32" font-family="Times,serif" font-size="14.00" fill="white">cudadecon ❎</text>
</a>
</g>
</g>
<!-- pycuda&#45;&gt;cudadecon -->
<!-- cudasirecon -->
<g id="node39" class="node">
<title>cudasirecon</title>
<g id="a_node39"><a xlink:href="https://github.com/conda-forge/cudasirecon-feedstock/pull/29" xlink:title="cudasirecon ❎">
<ellipse fill="#31688e" stroke="black" cx="1543.68" cy="-322" rx="86.46" ry="18"/>
<text text-anchor="middle" x="1543.68" y="-317.32" font-family="Times,serif" font-size="14.00" fill="white">cudasirecon ❎</text>
</a>
</g>
</g>
<!-- cudadecon&#45;&gt;cudasirecon -->
<!-- vina -->
<g id="node40" class="node">
<title>vina</title>
<g id="a_node40"><a xlink:href="https://github.com/conda-forge/vina-feedstock/pull/16" xlink:title="vina ❎">
<ellipse fill="#31688e" stroke="black" cx="1319.68" cy="-1042" rx="47.53" ry="18"/>
<text text-anchor="middle" x="1319.68" y="-1037.33" font-family="Times,serif" font-size="14.00" fill="white">vina ❎</text>
</a>
</g>
</g>
<!-- flatsurf -->
<g id="node41" class="node">
<title>flatsurf</title>
<g id="a_node41"><a xlink:href="https://github.com/conda-forge/flatsurf-feedstock" xlink:title="flatsurf">
<ellipse fill="#35b779" stroke="black" cx="1319.68" cy="-970" rx="47.53" ry="18"/>
<text text-anchor="middle" x="1319.68" y="-965.33" font-family="Times,serif" font-size="14.00">flatsurf</text>
</a>
</g>
</g>
<!-- vina&#45;&gt;flatsurf -->
<!-- vmtk -->
<g id="node42" class="node">
<title>vmtk</title>
<g id="a_node42"><a xlink:href="https://github.com/conda-forge/vmtk-feedstock/pull/23" xlink:title="vmtk ❎">
<ellipse fill="#31688e" stroke="black" cx="1319.68" cy="-898" rx="51.74" ry="18"/>
<text text-anchor="middle" x="1319.68" y="-893.33" font-family="Times,serif" font-size="14.00" fill="white">vmtk ❎</text>
</a>
</g>
</g>
<!-- flatsurf&#45;&gt;vmtk -->
<!-- scine&#45;utilsos -->
<g id="node43" class="node">
<title>scine&#45;utilsos</title>
<g id="a_node43"><a xlink:href="https://github.com/conda-forge/scine-utilsos-feedstock" xlink:title="scine utilsos">
<ellipse fill="#35b779" stroke="black" cx="1319.68" cy="-826" rx="73.3" ry="18"/>
<text text-anchor="middle" x="1319.68" y="-821.33" font-family="Times,serif" font-size="14.00">scine utilsos</text>
</a>
</g>
</g>
<!-- vmtk&#45;&gt;scine&#45;utilsos -->
<!-- rstudio -->
<g id="node44" class="node">
<title>rstudio</title>
<g id="a_node44"><a xlink:href="https://github.com/conda-forge/rstudio-feedstock/pull/30" xlink:title="rstudio ❎">
<ellipse fill="#31688e" stroke="black" cx="1319.68" cy="-754" rx="62.26" ry="18"/>
<text text-anchor="middle" x="1319.68" y="-749.33" font-family="Times,serif" font-size="14.00" fill="white">rstudio ❎</text>
</a>
</g>
</g>
<!-- scine&#45;utilsos&#45;&gt;rstudio -->
<!-- xilinx&#45;runtime -->
<g id="node45" class="node">
<title>xilinx&#45;runtime</title>
<g id="a_node45"><a xlink:href="https://github.com/conda-forge/xilinx-runtime-feedstock/pull/34" xlink:title="xilinx runtime ❎">
<ellipse fill="#31688e" stroke="black" cx="1319.68" cy="-682" rx="96.98" ry="18"/>
<text text-anchor="middle" x="1319.68" y="-677.33" font-family="Times,serif" font-size="14.00" fill="white">xilinx runtime ❎</text>
</a>
</g>
</g>
<!-- rstudio&#45;&gt;xilinx&#45;runtime -->
<!-- qtmolecularnetwork -->
<g id="node46" class="node">
<title>qtmolecularnetwork</title>
<g id="a_node46"><a xlink:href="https://github.com/conda-forge/qtmolecularnetwork-feedstock/pull/16" xlink:title="qtmolecularnetwork ❎">
<ellipse fill="#31688e" stroke="black" cx="1319.68" cy="-610" rx="127.49" ry="18"/>
<text text-anchor="middle" x="1319.68" y="-605.33" font-family="Times,serif" font-size="14.00" fill="white">qtmolecularnetwork ❎</text>
</a>
</g>
</g>
<!-- xilinx&#45;runtime&#45;&gt;qtmolecularnetwork -->
<!-- hdk -->
<g id="node47" class="node">
<title>hdk</title>
<g id="a_node47"><a xlink:href="https://github.com/conda-forge/hdk-feedstock" xlink:title="hdk">
<ellipse fill="#000000" stroke="black" cx="1319.68" cy="-538" rx="29.64" ry="18"/>
<text text-anchor="middle" x="1319.68" y="-533.33" font-family="Times,serif" font-size="14.00" fill="white">hdk</text>
</a>
</g>
</g>
<!-- qtmolecularnetwork&#45;&gt;hdk -->
<!-- river&#45;ingester -->
<g id="node48" class="node">
<title>river&#45;ingester</title>
<g id="a_node48"><a xlink:href="https://github.com/conda-forge/river-ingester-feedstock/pull/24" xlink:title="river ingester ❎">
<ellipse fill="#31688e" stroke="black" cx="1319.68" cy="-466" rx="95.4" ry="18"/>
<text text-anchor="middle" x="1319.68" y="-461.32" font-family="Times,serif" font-size="14.00" fill="white">river ingester ❎</text>
</a>
</g>
</g>
<!-- hdk&#45;&gt;river&#45;ingester -->
<!-- pygplates -->
<g id="node49" class="node">
<title>pygplates</title>
<g id="a_node49"><a xlink:href="https://github.com/conda-forge/pygplates-feedstock/pull/20" xlink:title="pygplates ❎">
<ellipse fill="#31688e" stroke="black" cx="1319.68" cy="-394" rx="75.41" ry="18"/>
<text text-anchor="middle" x="1319.68" y="-389.32" font-family="Times,serif" font-size="14.00" fill="white">pygplates ❎</text>
</a>
</g>
</g>
<!-- river&#45;ingester&#45;&gt;pygplates -->
<!-- pixsfm -->
<g id="node50" class="node">
<title>pixsfm</title>
<g id="a_node50"><a xlink:href="https://github.com/conda-forge/pixsfm-feedstock/pull/16" xlink:title="pixsfm ❎">
<ellipse fill="#31688e" stroke="black" cx="1319.68" cy="-322" rx="60.15" ry="18"/>
<text text-anchor="middle" x="1319.68" y="-317.32" font-family="Times,serif" font-size="14.00" fill="white">pixsfm ❎</text>
</a>
</g>
</g>
<!-- pygplates&#45;&gt;pixsfm -->
</g>
</svg>
