<?xml version="1.0" encoding="UTF-8" standalone="no"?>
<!DOCTYPE svg PUBLIC "-//W3C//DTD SVG 1.1//EN"
 "http://www.w3.org/Graphics/SVG/1.1/DTD/svg11.dtd">
<!-- Generated by graphviz version 9.0.0 (20231125.0833)
 -->
<!-- Pages: 1 -->
<svg width="1157pt" height="1068pt"
 viewBox="0.00 0.00 1156.78 1068.00" xmlns="http://www.w3.org/2000/svg" xmlns:xlink="http://www.w3.org/1999/xlink">
<g id="graph0" class="graph" transform="scale(1 1) rotate(0) translate(4 1064)">
<polygon fill="white" stroke="none" points="-4,4 -4,-1064 1152.78,-1064 1152.78,4 -4,4"/>
<!-- vigra -->
<g id="node1" class="node">
<title>vigra</title>
<g id="a_node1"><a xlink:href="https://github.com/conda-forge/vigra-feedstock/pull/131" xlink:title="vigra ❎">
<ellipse fill="#31688e" stroke="black" cx="1021.28" cy="-242" rx="52.26" ry="18"/>
<text text-anchor="middle" x="1021.28" y="-237.32" font-family="Times,serif" font-size="14.00" fill="white">vigra ❎</text>
</a>
</g>
</g>
<!-- hugin -->
<g id="node2" class="node">
<title>hugin</title>
<g id="a_node2"><a xlink:href="https://github.com/conda-forge/hugin-feedstock" xlink:title="hugin">
<ellipse fill="#fde725" stroke="black" cx="1021.28" cy="-170" rx="39.63" ry="18"/>
<text text-anchor="middle" x="1021.28" y="-165.32" font-family="Times,serif" font-size="14.00">hugin</text>
</a>
</g>
</g>
<!-- vigra&#45;&gt;hugin -->
<g id="edge1" class="edge">
<title>vigra&#45;&gt;hugin</title>
<path fill="none" stroke="black" d="M1021.28,-223.7C1021.28,-216.41 1021.28,-207.73 1021.28,-199.54"/>
<polygon fill="black" stroke="black" points="1024.78,-199.62 1021.28,-189.62 1017.78,-199.62 1024.78,-199.62"/>
</g>
<!-- smesh -->
<g id="node3" class="node">
<title>smesh</title>
<g id="a_node3"><a xlink:href="https://github.com/conda-forge/smesh-feedstock/pull/79" xlink:title="smesh ✓">
<ellipse fill="#31688e" stroke="black" cx="316.28" cy="-90" rx="51.21" ry="18"/>
<text text-anchor="middle" x="316.28" y="-85.33" font-family="Times,serif" font-size="14.00" fill="white">smesh ✓</text>
</a>
</g>
</g>
<!-- freecad -->
<g id="node4" class="node">
<title>freecad</title>
<g id="a_node4"><a xlink:href="https://github.com/conda-forge/freecad-feedstock" xlink:title="freecad">
<ellipse fill="#fde725" stroke="black" cx="316.28" cy="-18" rx="48.58" ry="18"/>
<text text-anchor="middle" x="316.28" y="-13.32" font-family="Times,serif" font-size="14.00">freecad</text>
</a>
</g>
</g>
<!-- smesh&#45;&gt;freecad -->
<g id="edge2" class="edge">
<title>smesh&#45;&gt;freecad</title>
<path fill="none" stroke="black" d="M316.28,-71.7C316.28,-64.41 316.28,-55.73 316.28,-47.54"/>
<polygon fill="black" stroke="black" points="319.78,-47.62 316.28,-37.62 312.78,-47.62 319.78,-47.62"/>
</g>
<!-- ldas&#45;tools&#45;frameapi -->
<g id="node5" class="node">
<title>ldas&#45;tools&#45;frameapi</title>
<g id="a_node5"><a xlink:href="https://github.com/conda-forge/ldas-tools-frameapi-feedstock/pull/18" xlink:title="ldas tools frameapi ❎">
<ellipse fill="#31688e" stroke="black" cx="763.28" cy="-242" rx="122.23" ry="18"/>
<text text-anchor="middle" x="763.28" y="-237.32" font-family="Times,serif" font-size="14.00" fill="white">ldas tools frameapi ❎</text>
</a>
</g>
</g>
<!-- ldas&#45;tools&#45;utilities -->
<g id="node6" class="node">
<title>ldas&#45;tools&#45;utilities</title>
<g id="a_node6"><a xlink:href="https://github.com/conda-forge/ldas-tools-utilities-feedstock" xlink:title="ldas tools utilities">
<ellipse fill="#fde725" stroke="black" cx="763.28" cy="-170" rx="100.66" ry="18"/>
<text text-anchor="middle" x="763.28" y="-165.32" font-family="Times,serif" font-size="14.00">ldas tools utilities</text>
</a>
</g>
</g>
<!-- ldas&#45;tools&#45;frameapi&#45;&gt;ldas&#45;tools&#45;utilities -->
<g id="edge3" class="edge">
<title>ldas&#45;tools&#45;frameapi&#45;&gt;ldas&#45;tools&#45;utilities</title>
<path fill="none" stroke="black" d="M763.28,-223.7C763.28,-216.41 763.28,-207.73 763.28,-199.54"/>
<polygon fill="black" stroke="black" points="766.78,-199.62 763.28,-189.62 759.78,-199.62 766.78,-199.62"/>
</g>
<!-- ambertools -->
<g id="node7" class="node">
<title>ambertools</title>
<g id="a_node7"><a xlink:href="https://github.com/conda-forge/ambertools-feedstock/pull/139" xlink:title="ambertools ❎">
<ellipse fill="#31688e" stroke="black" cx="763.28" cy="-1042" rx="82.77" ry="18"/>
<text text-anchor="middle" x="763.28" y="-1037.33" font-family="Times,serif" font-size="14.00" fill="white">ambertools ❎</text>
</a>
</g>
</g>
<!-- ifcopenshell -->
<g id="node8" class="node">
<title>ifcopenshell</title>
<g id="a_node8"><a xlink:href="https://github.com/conda-forge/ifcopenshell-feedstock/pull/46" xlink:title="ifcopenshell ❎">
<ellipse fill="#31688e" stroke="black" cx="763.28" cy="-970" rx="86.46" ry="18"/>
<text text-anchor="middle" x="763.28" y="-965.33" font-family="Times,serif" font-size="14.00" fill="white">ifcopenshell ❎</text>
</a>
</g>
</g>
<!-- ambertools&#45;&gt;ifcopenshell -->
<!-- dcgp&#45;python -->
<g id="node9" class="node">
<title>dcgp&#45;python</title>
<g id="a_node9"><a xlink:href="https://github.com/conda-forge/dcgp-python-feedstock/pull/24" xlink:title="dcgp python ❎">
<ellipse fill="#31688e" stroke="black" cx="763.28" cy="-898" rx="88.56" ry="18"/>
<text text-anchor="middle" x="763.28" y="-893.33" font-family="Times,serif" font-size="14.00" fill="white">dcgp python ❎</text>
</a>
</g>
</g>
<!-- ifcopenshell&#45;&gt;dcgp&#45;python -->
<!-- odil -->
<g id="node10" class="node">
<title>odil</title>
<g id="a_node10"><a xlink:href="https://github.com/conda-forge/odil-feedstock/pull/31" xlink:title="odil ❎">
<ellipse fill="#31688e" stroke="black" cx="763.28" cy="-826" rx="44.9" ry="18"/>
<text text-anchor="middle" x="763.28" y="-821.33" font-family="Times,serif" font-size="14.00" fill="white">odil ❎</text>
</a>
</g>
</g>
<!-- dcgp&#45;python&#45;&gt;odil -->
<!-- ompl -->
<g id="node14" class="node">
<title>ompl</title>
<g id="a_node14"><a xlink:href="https://github.com/conda-forge/ompl-feedstock/pull/35" xlink:title="ompl ❎">
<ellipse fill="#31688e" stroke="black" cx="763.28" cy="-754" rx="51.21" ry="18"/>
<text text-anchor="middle" x="763.28" y="-749.33" font-family="Times,serif" font-size="14.00" fill="white">ompl ❎</text>
</a>
</g>
</g>
<!-- odil&#45;&gt;ompl -->
<!-- gnuradio -->
<g id="node11" class="node">
<title>gnuradio</title>
<g id="a_node11"><a xlink:href="https://github.com/conda-forge/gnuradio-feedstock" xlink:title="gnuradio">
<ellipse fill="#000000" stroke="black" cx="372.28" cy="-278" rx="55.94" ry="18"/>
<text text-anchor="middle" x="372.28" y="-273.32" font-family="Times,serif" font-size="14.00" fill="white">gnuradio</text>
</a>
</g>
</g>
<!-- gnuradio&#45;osmosdr -->
<g id="node12" class="node">
<title>gnuradio&#45;osmosdr</title>
<g id="a_node12"><a xlink:href="https://github.com/conda-forge/gnuradio-osmosdr-feedstock" xlink:title="gnuradio osmosdr">
<ellipse fill="#fde725" stroke="black" cx="307.28" cy="-206" rx="101.71" ry="18"/>
<text text-anchor="middle" x="307.28" y="-201.33" font-family="Times,serif" font-size="14.00">gnuradio osmosdr</text>
</a>
</g>
</g>
<!-- gnuradio&#45;&gt;gnuradio&#45;osmosdr -->
<g id="edge7" class="edge">
<title>gnuradio&#45;&gt;gnuradio&#45;osmosdr</title>
<path fill="none" stroke="black" d="M356.88,-260.41C349.06,-251.99 339.4,-241.58 330.68,-232.2"/>
<polygon fill="black" stroke="black" points="333.43,-230.01 324.06,-225.07 328.3,-234.77 333.43,-230.01"/>
</g>
<!-- gnss&#45;sdr -->
<g id="node13" class="node">
<title>gnss&#45;sdr</title>
<g id="a_node13"><a xlink:href="https://github.com/conda-forge/gnss-sdr-feedstock" xlink:title="gnss sdr">
<ellipse fill="#fde725" stroke="black" cx="372.28" cy="-134" rx="53.84" ry="18"/>
<text text-anchor="middle" x="372.28" y="-129.32" font-family="Times,serif" font-size="14.00">gnss sdr</text>
</a>
</g>
</g>
<!-- gnuradio&#45;&gt;gnss&#45;sdr -->
<g id="edge8" class="edge">
<title>gnuradio&#45;&gt;gnss&#45;sdr</title>
<path fill="none" stroke="black" d="M391.67,-261C401.68,-251.45 412.91,-238.38 418.28,-224 423.88,-209.01 423.88,-202.99 418.28,-188 414.3,-177.33 407.08,-167.38 399.53,-159.05"/>
<polygon fill="black" stroke="black" points="402.22,-156.79 392.72,-152.08 397.21,-161.68 402.22,-156.79"/>
</g>
<!-- gnuradio&#45;osmosdr&#45;&gt;gnss&#45;sdr -->
<g id="edge9" class="edge">
<title>gnuradio&#45;osmosdr&#45;&gt;gnss&#45;sdr</title>
<path fill="none" stroke="black" d="M323.02,-188.05C330.96,-179.5 340.73,-168.97 349.48,-159.56"/>
<polygon fill="black" stroke="black" points="351.87,-162.13 356.11,-152.42 346.74,-157.36 351.87,-162.13"/>
</g>
<!-- smina -->
<g id="node15" class="node">
<title>smina</title>
<g id="a_node15"><a xlink:href="https://github.com/conda-forge/smina-feedstock/pull/3" xlink:title="smina ❎">
<ellipse fill="#31688e" stroke="black" cx="763.28" cy="-682" rx="56.47" ry="18"/>
<text text-anchor="middle" x="763.28" y="-677.33" font-family="Times,serif" font-size="14.00" fill="white">smina ❎</text>
</a>
</g>
</g>
<!-- ompl&#45;&gt;smina -->
<!-- scipoptsuite -->
<g id="node26" class="node">
<title>scipoptsuite</title>
<g id="a_node26"><a xlink:href="https://github.com/conda-forge/scipoptsuite-feedstock/pull/64" xlink:title="scipoptsuite ❎">
<ellipse fill="#31688e" stroke="black" cx="763.28" cy="-610" rx="87.51" ry="18"/>
<text text-anchor="middle" x="763.28" y="-605.33" font-family="Times,serif" font-size="14.00" fill="white">scipoptsuite ❎</text>
</a>
</g>
</g>
<!-- smina&#45;&gt;scipoptsuite -->
<!-- hpp&#45;corbaserver -->
<g id="node16" class="node">
<title>hpp&#45;corbaserver</title>
<g id="a_node16"><a xlink:href="https://github.com/conda-forge/hpp-corbaserver-feedstock" xlink:title="hpp corbaserver">
<ellipse fill="#fde725" stroke="black" cx="151.28" cy="-826" rx="93.3" ry="18"/>
<text text-anchor="middle" x="151.28" y="-821.33" font-family="Times,serif" font-size="14.00">hpp corbaserver</text>
</a>
</g>
</g>
<!-- hpp&#45;manipulation&#45;corba -->
<g id="node17" class="node">
<title>hpp&#45;manipulation&#45;corba</title>
<g id="a_node17"><a xlink:href="https://github.com/conda-forge/hpp-manipulation-corba-feedstock" xlink:title="hpp manipulation corba">
<ellipse fill="#fde725" stroke="black" cx="310.28" cy="-682" rx="130.13" ry="18"/>
<text text-anchor="middle" x="310.28" y="-677.33" font-family="Times,serif" font-size="14.00">hpp manipulation corba</text>
</a>
</g>
</g>
<!-- hpp&#45;corbaserver&#45;&gt;hpp&#45;manipulation&#45;corba -->
<g id="edge12" class="edge">
<title>hpp&#45;corbaserver&#45;&gt;hpp&#45;manipulation&#45;corba</title>
<path fill="none" stroke="black" d="M170.15,-808.15C197.97,-783.31 250.18,-736.68 282.42,-707.88"/>
<polygon fill="black" stroke="black" points="284.69,-710.55 289.82,-701.28 280.03,-705.33 284.69,-710.55"/>
</g>
<!-- hpp&#45;gepetto&#45;viewer -->
<g id="node18" class="node">
<title>hpp&#45;gepetto&#45;viewer</title>
<g id="a_node18"><a xlink:href="https://github.com/conda-forge/hpp-gepetto-viewer-feedstock" xlink:title="hpp gepetto viewer">
<ellipse fill="#fde725" stroke="black" cx="468.28" cy="-610" rx="108.55" ry="18"/>
<text text-anchor="middle" x="468.28" y="-605.33" font-family="Times,serif" font-size="14.00">hpp gepetto viewer</text>
</a>
</g>
</g>
<!-- hpp&#45;corbaserver&#45;&gt;hpp&#45;gepetto&#45;viewer -->
<g id="edge13" class="edge">
<title>hpp&#45;corbaserver&#45;&gt;hpp&#45;gepetto&#45;viewer</title>
<path fill="none" stroke="black" d="M147.52,-807.71C141.5,-774.92 133.88,-703.44 171.28,-664 185.12,-649.41 289.18,-633.26 370.27,-622.67"/>
<polygon fill="black" stroke="black" points="370.58,-626.16 380.05,-621.4 369.68,-619.21 370.58,-626.16"/>
</g>
<!-- hpp&#45;plot -->
<g id="node19" class="node">
<title>hpp&#45;plot</title>
<g id="a_node19"><a xlink:href="https://github.com/conda-forge/hpp-plot-feedstock" xlink:title="hpp plot">
<ellipse fill="#fde725" stroke="black" cx="217.28" cy="-610" rx="52.79" ry="18"/>
<text text-anchor="middle" x="217.28" y="-605.33" font-family="Times,serif" font-size="14.00">hpp plot</text>
</a>
</g>
</g>
<!-- hpp&#45;corbaserver&#45;&gt;hpp&#45;plot -->
<g id="edge14" class="edge">
<title>hpp&#45;corbaserver&#45;&gt;hpp&#45;plot</title>
<path fill="none" stroke="black" d="M144.14,-807.79C132.52,-776.93 113.21,-711.01 138.28,-664 146.04,-649.46 159.75,-638.2 173.59,-629.88"/>
<polygon fill="black" stroke="black" points="175.24,-632.97 182.29,-625.06 171.85,-626.84 175.24,-632.97"/>
</g>
<!-- hpp&#45;tutorial -->
<g id="node20" class="node">
<title>hpp&#45;tutorial</title>
<g id="a_node20"><a xlink:href="https://github.com/conda-forge/hpp-tutorial-feedstock" xlink:title="hpp tutorial">
<ellipse fill="#fde725" stroke="black" cx="76.28" cy="-610" rx="70.68" ry="18"/>
<text text-anchor="middle" x="76.28" y="-605.33" font-family="Times,serif" font-size="14.00">hpp tutorial</text>
</a>
</g>
</g>
<!-- hpp&#45;corbaserver&#45;&gt;hpp&#45;tutorial -->
<g id="edge15" class="edge">
<title>hpp&#45;corbaserver&#45;&gt;hpp&#45;tutorial</title>
<path fill="none" stroke="black" d="M141.03,-807.76C135.29,-797.6 128.29,-784.35 123.28,-772 104.97,-726.81 90.51,-671.86 82.69,-639.25"/>
<polygon fill="black" stroke="black" points="86.16,-638.71 80.46,-629.78 79.35,-640.31 86.16,-638.71"/>
</g>
<!-- hpp&#45;manipulation&#45;corba&#45;&gt;hpp&#45;gepetto&#45;viewer -->
<g id="edge16" class="edge">
<title>hpp&#45;manipulation&#45;corba&#45;&gt;hpp&#45;gepetto&#45;viewer</title>
<path fill="none" stroke="black" d="M347.73,-664.41C369.65,-654.7 397.53,-642.34 420.97,-631.96"/>
<polygon fill="black" stroke="black" points="422.27,-635.21 430,-627.96 419.44,-628.81 422.27,-635.21"/>
</g>
<!-- hpp&#45;manipulation&#45;corba&#45;&gt;hpp&#45;plot -->
<g id="edge17" class="edge">
<title>hpp&#45;manipulation&#45;corba&#45;&gt;hpp&#45;plot</title>
<path fill="none" stroke="black" d="M287.77,-664.05C275.66,-654.94 260.56,-643.57 247.44,-633.7"/>
<polygon fill="black" stroke="black" points="249.62,-630.96 239.52,-627.74 245.41,-636.55 249.62,-630.96"/>
</g>
<!-- hpp&#45;manipulation&#45;corba&#45;&gt;hpp&#45;tutorial -->
<g id="edge18" class="edge">
<title>hpp&#45;manipulation&#45;corba&#45;&gt;hpp&#45;tutorial</title>
<path fill="none" stroke="black" d="M257.18,-665.12C219.75,-653.92 169.73,-638.95 131.78,-627.6"/>
<polygon fill="black" stroke="black" points="132.95,-624.3 122.36,-624.79 130.94,-631 132.95,-624.3"/>
</g>
<!-- hpp&#45;practicals -->
<g id="node21" class="node">
<title>hpp&#45;practicals</title>
<g id="a_node21"><a xlink:href="https://github.com/conda-forge/hpp-practicals-feedstock" xlink:title="hpp practicals">
<ellipse fill="#fde725" stroke="black" cx="209.28" cy="-538" rx="82.25" ry="18"/>
<text text-anchor="middle" x="209.28" y="-533.33" font-family="Times,serif" font-size="14.00">hpp practicals</text>
</a>
</g>
</g>
<!-- hpp&#45;plot&#45;&gt;hpp&#45;practicals -->
<g id="edge19" class="edge">
<title>hpp&#45;plot&#45;&gt;hpp&#45;practicals</title>
<path fill="none" stroke="black" d="M215.3,-591.7C214.47,-584.41 213.48,-575.73 212.54,-567.54"/>
<polygon fill="black" stroke="black" points="216.02,-567.15 211.41,-557.61 209.07,-567.94 216.02,-567.15"/>
</g>
<!-- hpp&#45;doc -->
<g id="node22" class="node">
<title>hpp&#45;doc</title>
<g id="a_node22"><a xlink:href="https://github.com/conda-forge/hpp-doc-feedstock" xlink:title="hpp doc">
<ellipse fill="#fde725" stroke="black" cx="146.28" cy="-466" rx="50.68" ry="18"/>
<text text-anchor="middle" x="146.28" y="-461.32" font-family="Times,serif" font-size="14.00">hpp doc</text>
</a>
</g>
</g>
<!-- hpp&#45;tutorial&#45;&gt;hpp&#45;doc -->
<g id="edge20" class="edge">
<title>hpp&#45;tutorial&#45;&gt;hpp&#45;doc</title>
<path fill="none" stroke="black" d="M84.11,-591.83C92.38,-573.82 105.91,-544.76 118.28,-520 122.53,-511.49 127.32,-502.3 131.72,-494"/>
<polygon fill="black" stroke="black" points="134.68,-495.89 136.29,-485.42 128.5,-492.6 134.68,-495.89"/>
</g>
<!-- hpp&#45;practicals&#45;&gt;hpp&#45;doc -->
<g id="edge45" class="edge">
<title>hpp&#45;practicals&#45;&gt;hpp&#45;doc</title>
<path fill="none" stroke="black" d="M194.03,-520.05C186.41,-511.59 177.05,-501.19 168.64,-491.84"/>
<polygon fill="black" stroke="black" points="171.26,-489.52 161.97,-484.43 166.06,-494.21 171.26,-489.52"/>
</g>
<!-- hpp&#45;core -->
<g id="node23" class="node">
<title>hpp&#45;core</title>
<g id="a_node23"><a xlink:href="https://github.com/conda-forge/hpp-core-feedstock" xlink:title="hpp core">
<ellipse fill="#35b779" stroke="black" cx="335.28" cy="-898" rx="54.89" ry="18"/>
<text text-anchor="middle" x="335.28" y="-893.33" font-family="Times,serif" font-size="14.00">hpp core</text>
</a>
</g>
</g>
<!-- hpp&#45;core&#45;&gt;hpp&#45;corbaserver -->
<g id="edge21" class="edge">
<title>hpp&#45;core&#45;&gt;hpp&#45;corbaserver</title>
<path fill="none" stroke="black" d="M300.67,-883.83C273.11,-873.35 234.1,-858.51 202.86,-846.62"/>
<polygon fill="black" stroke="black" points="204.17,-843.37 193.58,-843.09 201.68,-849.92 204.17,-843.37"/>
</g>
<!-- hpp&#45;core&#45;&gt;hpp&#45;manipulation&#45;corba -->
<g id="edge22" class="edge">
<title>hpp&#45;core&#45;&gt;hpp&#45;manipulation&#45;corba</title>
<path fill="none" stroke="black" d="M316.72,-880.84C307.14,-871.23 296.4,-858.17 291.28,-844 275.12,-799.24 288.6,-743.38 299.61,-710.6"/>
<polygon fill="black" stroke="black" points="302.81,-712.05 302.84,-701.46 296.21,-709.72 302.81,-712.05"/>
</g>
<!-- hpp&#45;core&#45;&gt;hpp&#45;gepetto&#45;viewer -->
<g id="edge23" class="edge">
<title>hpp&#45;core&#45;&gt;hpp&#45;gepetto&#45;viewer</title>
<path fill="none" stroke="black" d="M388.1,-892.52C456.69,-883.38 572.34,-855.68 612.28,-772 633.74,-727.04 616.79,-699.93 582.28,-664 568.38,-649.52 549.76,-638.61 531.6,-630.57"/>
<polygon fill="black" stroke="black" points="532.97,-627.35 522.4,-626.74 530.28,-633.81 532.97,-627.35"/>
</g>
<!-- hpp&#45;core&#45;&gt;hpp&#45;tutorial -->
<g id="edge24" class="edge">
<title>hpp&#45;core&#45;&gt;hpp&#45;tutorial</title>
<path fill="none" stroke="black" d="M280.76,-894.91C206.14,-890.78 78.14,-878.7 49.28,-844 0,-784.75 38.34,-685.76 61.68,-638.17"/>
<polygon fill="black" stroke="black" points="64.74,-639.88 66.13,-629.38 58.5,-636.72 64.74,-639.88"/>
</g>
<!-- hpp&#45;manipulation&#45;urdf -->
<g id="node24" class="node">
<title>hpp&#45;manipulation&#45;urdf</title>
<g id="a_node24"><a xlink:href="https://github.com/conda-forge/hpp-manipulation-urdf-feedstock" xlink:title="hpp manipulation urdf">
<ellipse fill="#fde725" stroke="black" cx="461.28" cy="-754" rx="123.29" ry="18"/>
<text text-anchor="middle" x="461.28" y="-749.33" font-family="Times,serif" font-size="14.00">hpp manipulation urdf</text>
</a>
</g>
</g>
<!-- hpp&#45;core&#45;&gt;hpp&#45;manipulation&#45;urdf -->
<g id="edge25" class="edge">
<title>hpp&#45;core&#45;&gt;hpp&#45;manipulation&#45;urdf</title>
<path fill="none" stroke="black" d="M390.31,-896.19C429.83,-892.36 480.65,-880.07 507.28,-844 522.06,-823.98 505.95,-798.53 488.86,-779.98"/>
<polygon fill="black" stroke="black" points="491.6,-777.78 482.11,-773.07 486.59,-782.67 491.6,-777.78"/>
</g>
<!-- hpp&#45;manipulation -->
<g id="node25" class="node">
<title>hpp&#45;manipulation</title>
<g id="a_node25"><a xlink:href="https://github.com/conda-forge/hpp-manipulation-feedstock" xlink:title="hpp manipulation">
<ellipse fill="#fde725" stroke="black" cx="399.28" cy="-826" rx="99.08" ry="18"/>
<text text-anchor="middle" x="399.28" y="-821.33" font-family="Times,serif" font-size="14.00">hpp manipulation</text>
</a>
</g>
</g>
<!-- hpp&#45;core&#45;&gt;hpp&#45;manipulation -->
<g id="edge26" class="edge">
<title>hpp&#45;core&#45;&gt;hpp&#45;manipulation</title>
<path fill="none" stroke="black" d="M350.45,-880.41C358.15,-871.99 367.66,-861.58 376.24,-852.2"/>
<polygon fill="black" stroke="black" points="378.59,-854.82 382.76,-845.07 373.43,-850.09 378.59,-854.82"/>
</g>
<!-- hpp&#45;manipulation&#45;urdf&#45;&gt;hpp&#45;manipulation&#45;corba -->
<g id="edge27" class="edge">
<title>hpp&#45;manipulation&#45;urdf&#45;&gt;hpp&#45;manipulation&#45;corba</title>
<path fill="none" stroke="black" d="M425.5,-736.41C404.87,-726.85 378.71,-714.72 356.53,-704.44"/>
<polygon fill="black" stroke="black" points="358.25,-701.38 347.71,-700.35 355.31,-707.73 358.25,-701.38"/>
</g>
<!-- hpp&#45;manipulation&#45;urdf&#45;&gt;hpp&#45;gepetto&#45;viewer -->
<g id="edge28" class="edge">
<title>hpp&#45;manipulation&#45;urdf&#45;&gt;hpp&#45;gepetto&#45;viewer</title>
<path fill="none" stroke="black" d="M462.14,-735.59C463.32,-711.61 465.47,-668.14 466.88,-639.42"/>
<polygon fill="black" stroke="black" points="470.37,-639.78 467.36,-629.62 463.38,-639.44 470.37,-639.78"/>
</g>
<!-- hpp&#45;manipulation&#45;&gt;hpp&#45;manipulation&#45;corba -->
<g id="edge29" class="edge">
<title>hpp&#45;manipulation&#45;&gt;hpp&#45;manipulation&#45;corba</title>
<path fill="none" stroke="black" d="M368.6,-808.63C354.56,-799.62 338.94,-787.18 329.28,-772 317.8,-753.96 313.15,-730.11 311.32,-711.65"/>
<polygon fill="black" stroke="black" points="314.82,-711.62 310.59,-701.91 307.84,-712.15 314.82,-711.62"/>
</g>
<!-- hpp&#45;manipulation&#45;&gt;hpp&#45;gepetto&#45;viewer -->
<g id="edge30" class="edge">
<title>hpp&#45;manipulation&#45;&gt;hpp&#45;gepetto&#45;viewer</title>
<path fill="none" stroke="black" d="M474.58,-813.99C522.63,-805.26 578.56,-791.29 593.28,-772 631.23,-722.29 557.22,-664.49 507.74,-633.46"/>
<polygon fill="black" stroke="black" points="509.86,-630.65 499.5,-628.41 506.2,-636.62 509.86,-630.65"/>
</g>
<!-- hpp&#45;manipulation&#45;&gt;hpp&#45;manipulation&#45;urdf -->
<g id="edge31" class="edge">
<title>hpp&#45;manipulation&#45;&gt;hpp&#45;manipulation&#45;urdf</title>
<path fill="none" stroke="black" d="M414.29,-808.05C421.57,-799.84 430.47,-789.79 438.55,-780.66"/>
<polygon fill="black" stroke="black" points="440.97,-783.21 444.98,-773.41 435.73,-778.57 440.97,-783.21"/>
</g>
<!-- pycuda -->
<g id="node27" class="node">
<title>pycuda</title>
<g id="a_node27"><a xlink:href="https://github.com/conda-forge/pycuda-feedstock/pull/38" xlink:title="pycuda ❎">
<ellipse fill="#31688e" stroke="black" cx="763.28" cy="-538" rx="62.26" ry="18"/>
<text text-anchor="middle" x="763.28" y="-533.33" font-family="Times,serif" font-size="14.00" fill="white">pycuda ❎</text>
</a>
</g>
</g>
<!-- scipoptsuite&#45;&gt;pycuda -->
<!-- cudadecon -->
<g id="node28" class="node">
<title>cudadecon</title>
<g id="a_node28"><a xlink:href="https://github.com/conda-forge/cudadecon-feedstock/pull/28" xlink:title="cudadecon ❎">
<ellipse fill="#31688e" stroke="black" cx="763.28" cy="-466" rx="79.62" ry="18"/>
<text text-anchor="middle" x="763.28" y="-461.32" font-family="Times,serif" font-size="14.00" fill="white">cudadecon ❎</text>
</a>
</g>
</g>
<!-- pycuda&#45;&gt;cudadecon -->
<!-- tsid -->
<g id="node29" class="node">
<title>tsid</title>
<g id="a_node29"><a xlink:href="https://github.com/conda-forge/tsid-feedstock/pull/33" xlink:title="tsid ❎">
<ellipse fill="#31688e" stroke="black" cx="763.28" cy="-394" rx="45.42" ry="18"/>
<text text-anchor="middle" x="763.28" y="-389.32" font-family="Times,serif" font-size="14.00" fill="white">tsid ❎</text>
</a>
</g>
</g>
<!-- cudadecon&#45;&gt;tsid -->
<!-- cudasirecon -->
<g id="node30" class="node">
<title>cudasirecon</title>
<g id="a_node30"><a xlink:href="https://github.com/conda-forge/cudasirecon-feedstock/pull/29" xlink:title="cudasirecon ❎">
<ellipse fill="#31688e" stroke="black" cx="763.28" cy="-322" rx="86.46" ry="18"/>
<text text-anchor="middle" x="763.28" y="-317.32" font-family="Times,serif" font-size="14.00" fill="white">cudasirecon ❎</text>
</a>
</g>
</g>
<!-- tsid&#45;&gt;cudasirecon -->
<!-- vina -->
<g id="node31" class="node">
<title>vina</title>
<g id="a_node31"><a xlink:href="https://github.com/conda-forge/vina-feedstock/pull/16" xlink:title="vina ❎">
<ellipse fill="#31688e" stroke="black" cx="1021.28" cy="-970" rx="47.53" ry="18"/>
<text text-anchor="middle" x="1021.28" y="-965.33" font-family="Times,serif" font-size="14.00" fill="white">vina ❎</text>
</a>
</g>
</g>
<!-- vmtk -->
<g id="node32" class="node">
<title>vmtk</title>
<g id="a_node32"><a xlink:href="https://github.com/conda-forge/vmtk-feedstock/pull/23" xlink:title="vmtk ❎">
<ellipse fill="#31688e" stroke="black" cx="1021.28" cy="-898" rx="51.74" ry="18"/>
<text text-anchor="middle" x="1021.28" y="-893.33" font-family="Times,serif" font-size="14.00" fill="white">vmtk ❎</text>
</a>
</g>
</g>
<!-- vina&#45;&gt;vmtk -->
<!-- rstudio -->
<g id="node33" class="node">
<title>rstudio</title>
<g id="a_node33"><a xlink:href="https://github.com/conda-forge/rstudio-feedstock/pull/30" xlink:title="rstudio ❎">
<ellipse fill="#31688e" stroke="black" cx="1021.28" cy="-826" rx="62.26" ry="18"/>
<text text-anchor="middle" x="1021.28" y="-821.33" font-family="Times,serif" font-size="14.00" fill="white">rstudio ❎</text>
</a>
</g>
</g>
<!-- vmtk&#45;&gt;rstudio -->
<!-- xilinx&#45;runtime -->
<g id="node34" class="node">
<title>xilinx&#45;runtime</title>
<g id="a_node34"><a xlink:href="https://github.com/conda-forge/xilinx-runtime-feedstock/pull/34" xlink:title="xilinx runtime ❎">
<ellipse fill="#31688e" stroke="black" cx="1021.28" cy="-754" rx="96.98" ry="18"/>
<text text-anchor="middle" x="1021.28" y="-749.33" font-family="Times,serif" font-size="14.00" fill="white">xilinx runtime ❎</text>
</a>
</g>
</g>
<!-- rstudio&#45;&gt;xilinx&#45;runtime -->
<!-- qtmolecularnetwork -->
<g id="node35" class="node">
<title>qtmolecularnetwork</title>
<g id="a_node35"><a xlink:href="https://github.com/conda-forge/qtmolecularnetwork-feedstock/pull/16" xlink:title="qtmolecularnetwork ❎">
<ellipse fill="#31688e" stroke="black" cx="1021.28" cy="-682" rx="127.49" ry="18"/>
<text text-anchor="middle" x="1021.28" y="-677.33" font-family="Times,serif" font-size="14.00" fill="white">qtmolecularnetwork ❎</text>
</a>
</g>
</g>
<!-- xilinx&#45;runtime&#45;&gt;qtmolecularnetwork -->
<!-- hdk -->
<g id="node36" class="node">
<title>hdk</title>
<g id="a_node36"><a xlink:href="https://github.com/conda-forge/hdk-feedstock" xlink:title="hdk">
<ellipse fill="#000000" stroke="black" cx="1021.28" cy="-610" rx="29.64" ry="18"/>
<text text-anchor="middle" x="1021.28" y="-605.33" font-family="Times,serif" font-size="14.00" fill="white">hdk</text>
</a>
</g>
</g>
<!-- qtmolecularnetwork&#45;&gt;hdk -->
<!-- river&#45;ingester -->
<g id="node37" class="node">
<title>river&#45;ingester</title>
<g id="a_node37"><a xlink:href="https://github.com/conda-forge/river-ingester-feedstock/pull/24" xlink:title="river ingester ❎">
<ellipse fill="#31688e" stroke="black" cx="1021.28" cy="-538" rx="95.4" ry="18"/>
<text text-anchor="middle" x="1021.28" y="-533.33" font-family="Times,serif" font-size="14.00" fill="white">river ingester ❎</text>
</a>
</g>
</g>
<!-- hdk&#45;&gt;river&#45;ingester -->
<!-- pygplates -->
<g id="node38" class="node">
<title>pygplates</title>
<g id="a_node38"><a xlink:href="https://github.com/conda-forge/pygplates-feedstock/pull/20" xlink:title="pygplates ❎">
<ellipse fill="#31688e" stroke="black" cx="1021.28" cy="-466" rx="75.41" ry="18"/>
<text text-anchor="middle" x="1021.28" y="-461.32" font-family="Times,serif" font-size="14.00" fill="white">pygplates ❎</text>
</a>
</g>
</g>
<!-- river&#45;ingester&#45;&gt;pygplates -->
<!-- pixsfm -->
<g id="node39" class="node">
<title>pixsfm</title>
<g id="a_node39"><a xlink:href="https://github.com/conda-forge/pixsfm-feedstock/pull/16" xlink:title="pixsfm ❎">
<ellipse fill="#31688e" stroke="black" cx="1021.28" cy="-394" rx="60.15" ry="18"/>
<text text-anchor="middle" x="1021.28" y="-389.32" font-family="Times,serif" font-size="14.00" fill="white">pixsfm ❎</text>
</a>
</g>
</g>
<!-- pygplates&#45;&gt;pixsfm -->
</g>
</svg>
