<?xml version="1.0" encoding="UTF-8" standalone="no"?>
<!DOCTYPE svg PUBLIC "-//W3C//DTD SVG 1.1//EN"
 "http://www.w3.org/Graphics/SVG/1.1/DTD/svg11.dtd">
<!-- Generated by graphviz version 9.0.0 (20231125.0833)
 -->
<!-- Pages: 1 -->
<svg width="1337pt" height="1068pt"
 viewBox="0.00 0.00 1336.74 1068.00" xmlns="http://www.w3.org/2000/svg" xmlns:xlink="http://www.w3.org/1999/xlink">
<g id="graph0" class="graph" transform="scale(1 1) rotate(0) translate(4 1064)">
<polygon fill="white" stroke="none" points="-4,4 -4,-1064 1332.74,-1064 1332.74,4 -4,4"/>
<!-- vigra -->
<g id="node1" class="node">
<title>vigra</title>
<g id="a_node1"><a xlink:href="https://github.com/conda-forge/vigra-feedstock/pull/131" xlink:title="vigra ❎">
<ellipse fill="#31688e" stroke="black" cx="1201.25" cy="-242" rx="52.26" ry="18"/>
<text text-anchor="middle" x="1201.25" y="-237.32" font-family="Times,serif" font-size="14.00" fill="white">vigra ❎</text>
</a>
</g>
</g>
<!-- hugin -->
<g id="node2" class="node">
<title>hugin</title>
<g id="a_node2"><a xlink:href="https://github.com/conda-forge/hugin-feedstock" xlink:title="hugin">
<ellipse fill="#fde725" stroke="black" cx="1201.25" cy="-170" rx="39.63" ry="18"/>
<text text-anchor="middle" x="1201.25" y="-165.32" font-family="Times,serif" font-size="14.00">hugin</text>
</a>
</g>
</g>
<!-- vigra&#45;&gt;hugin -->
<g id="edge1" class="edge">
<title>vigra&#45;&gt;hugin</title>
<path fill="none" stroke="black" d="M1201.25,-223.7C1201.25,-216.41 1201.25,-207.73 1201.25,-199.54"/>
<polygon fill="black" stroke="black" points="1204.75,-199.62 1201.25,-189.62 1197.75,-199.62 1204.75,-199.62"/>
</g>
<!-- smesh -->
<g id="node3" class="node">
<title>smesh</title>
<g id="a_node3"><a xlink:href="https://github.com/conda-forge/smesh-feedstock/pull/79" xlink:title="smesh ✓">
<ellipse fill="#31688e" stroke="black" cx="406.25" cy="-90" rx="51.21" ry="18"/>
<text text-anchor="middle" x="406.25" y="-85.33" font-family="Times,serif" font-size="14.00" fill="white">smesh ✓</text>
</a>
</g>
</g>
<!-- freecad -->
<g id="node4" class="node">
<title>freecad</title>
<g id="a_node4"><a xlink:href="https://github.com/conda-forge/freecad-feedstock" xlink:title="freecad">
<ellipse fill="#fde725" stroke="black" cx="406.25" cy="-18" rx="48.58" ry="18"/>
<text text-anchor="middle" x="406.25" y="-13.32" font-family="Times,serif" font-size="14.00">freecad</text>
</a>
</g>
</g>
<!-- smesh&#45;&gt;freecad -->
<g id="edge2" class="edge">
<title>smesh&#45;&gt;freecad</title>
<path fill="none" stroke="black" d="M406.25,-71.7C406.25,-64.41 406.25,-55.73 406.25,-47.54"/>
<polygon fill="black" stroke="black" points="409.75,-47.62 406.25,-37.62 402.75,-47.62 409.75,-47.62"/>
</g>
<!-- ldas&#45;tools&#45;frameapi -->
<g id="node5" class="node">
<title>ldas&#45;tools&#45;frameapi</title>
<g id="a_node5"><a xlink:href="https://github.com/conda-forge/ldas-tools-frameapi-feedstock/pull/18" xlink:title="ldas tools frameapi ❎">
<ellipse fill="#31688e" stroke="black" cx="943.25" cy="-242" rx="122.23" ry="18"/>
<text text-anchor="middle" x="943.25" y="-237.32" font-family="Times,serif" font-size="14.00" fill="white">ldas tools frameapi ❎</text>
</a>
</g>
</g>
<!-- ldas&#45;tools&#45;utilities -->
<g id="node6" class="node">
<title>ldas&#45;tools&#45;utilities</title>
<g id="a_node6"><a xlink:href="https://github.com/conda-forge/ldas-tools-utilities-feedstock" xlink:title="ldas tools utilities">
<ellipse fill="#fde725" stroke="black" cx="943.25" cy="-170" rx="100.66" ry="18"/>
<text text-anchor="middle" x="943.25" y="-165.32" font-family="Times,serif" font-size="14.00">ldas tools utilities</text>
</a>
</g>
</g>
<!-- ldas&#45;tools&#45;frameapi&#45;&gt;ldas&#45;tools&#45;utilities -->
<g id="edge3" class="edge">
<title>ldas&#45;tools&#45;frameapi&#45;&gt;ldas&#45;tools&#45;utilities</title>
<path fill="none" stroke="black" d="M943.25,-223.7C943.25,-216.41 943.25,-207.73 943.25,-199.54"/>
<polygon fill="black" stroke="black" points="946.75,-199.62 943.25,-189.62 939.75,-199.62 946.75,-199.62"/>
</g>
<!-- ambertools -->
<g id="node7" class="node">
<title>ambertools</title>
<g id="a_node7"><a xlink:href="https://github.com/conda-forge/ambertools-feedstock/pull/139" xlink:title="ambertools ❎">
<ellipse fill="#31688e" stroke="black" cx="943.25" cy="-1042" rx="82.77" ry="18"/>
<text text-anchor="middle" x="943.25" y="-1037.33" font-family="Times,serif" font-size="14.00" fill="white">ambertools ❎</text>
</a>
</g>
</g>
<!-- ifcopenshell -->
<g id="node8" class="node">
<title>ifcopenshell</title>
<g id="a_node8"><a xlink:href="https://github.com/conda-forge/ifcopenshell-feedstock/pull/46" xlink:title="ifcopenshell ❎">
<ellipse fill="#31688e" stroke="black" cx="943.25" cy="-970" rx="86.46" ry="18"/>
<text text-anchor="middle" x="943.25" y="-965.33" font-family="Times,serif" font-size="14.00" fill="white">ifcopenshell ❎</text>
</a>
</g>
</g>
<!-- ambertools&#45;&gt;ifcopenshell -->
<!-- dcgp&#45;python -->
<g id="node9" class="node">
<title>dcgp&#45;python</title>
<g id="a_node9"><a xlink:href="https://github.com/conda-forge/dcgp-python-feedstock/pull/24" xlink:title="dcgp python ❎">
<ellipse fill="#31688e" stroke="black" cx="943.25" cy="-898" rx="88.56" ry="18"/>
<text text-anchor="middle" x="943.25" y="-893.33" font-family="Times,serif" font-size="14.00" fill="white">dcgp python ❎</text>
</a>
</g>
</g>
<!-- ifcopenshell&#45;&gt;dcgp&#45;python -->
<!-- odil -->
<g id="node10" class="node">
<title>odil</title>
<g id="a_node10"><a xlink:href="https://github.com/conda-forge/odil-feedstock/pull/31" xlink:title="odil ❎">
<ellipse fill="#31688e" stroke="black" cx="943.25" cy="-826" rx="44.9" ry="18"/>
<text text-anchor="middle" x="943.25" y="-821.33" font-family="Times,serif" font-size="14.00" fill="white">odil ❎</text>
</a>
</g>
</g>
<!-- dcgp&#45;python&#45;&gt;odil -->
<!-- ompl -->
<g id="node14" class="node">
<title>ompl</title>
<g id="a_node14"><a xlink:href="https://github.com/conda-forge/ompl-feedstock/pull/35" xlink:title="ompl ❎">
<ellipse fill="#31688e" stroke="black" cx="943.25" cy="-754" rx="51.21" ry="18"/>
<text text-anchor="middle" x="943.25" y="-749.33" font-family="Times,serif" font-size="14.00" fill="white">ompl ❎</text>
</a>
</g>
</g>
<!-- odil&#45;&gt;ompl -->
<!-- gnuradio -->
<g id="node11" class="node">
<title>gnuradio</title>
<g id="a_node11"><a xlink:href="https://github.com/conda-forge/gnuradio-feedstock" xlink:title="gnuradio">
<ellipse fill="#000000" stroke="black" cx="462.25" cy="-278" rx="55.94" ry="18"/>
<text text-anchor="middle" x="462.25" y="-273.32" font-family="Times,serif" font-size="14.00" fill="white">gnuradio</text>
</a>
</g>
</g>
<!-- gnuradio&#45;osmosdr -->
<g id="node12" class="node">
<title>gnuradio&#45;osmosdr</title>
<g id="a_node12"><a xlink:href="https://github.com/conda-forge/gnuradio-osmosdr-feedstock" xlink:title="gnuradio osmosdr">
<ellipse fill="#fde725" stroke="black" cx="397.25" cy="-206" rx="101.71" ry="18"/>
<text text-anchor="middle" x="397.25" y="-201.33" font-family="Times,serif" font-size="14.00">gnuradio osmosdr</text>
</a>
</g>
</g>
<!-- gnuradio&#45;&gt;gnuradio&#45;osmosdr -->
<g id="edge7" class="edge">
<title>gnuradio&#45;&gt;gnuradio&#45;osmosdr</title>
<path fill="none" stroke="black" d="M446.85,-260.41C439.03,-251.99 429.36,-241.58 420.65,-232.2"/>
<polygon fill="black" stroke="black" points="423.39,-230.01 414.02,-225.07 418.26,-234.77 423.39,-230.01"/>
</g>
<!-- gnss&#45;sdr -->
<g id="node13" class="node">
<title>gnss&#45;sdr</title>
<g id="a_node13"><a xlink:href="https://github.com/conda-forge/gnss-sdr-feedstock" xlink:title="gnss sdr">
<ellipse fill="#fde725" stroke="black" cx="462.25" cy="-134" rx="53.84" ry="18"/>
<text text-anchor="middle" x="462.25" y="-129.32" font-family="Times,serif" font-size="14.00">gnss sdr</text>
</a>
</g>
</g>
<!-- gnuradio&#45;&gt;gnss&#45;sdr -->
<g id="edge8" class="edge">
<title>gnuradio&#45;&gt;gnss&#45;sdr</title>
<path fill="none" stroke="black" d="M481.63,-261C491.65,-251.45 502.88,-238.38 508.25,-224 513.85,-209.01 513.85,-202.99 508.25,-188 504.26,-177.33 497.05,-167.38 489.5,-159.05"/>
<polygon fill="black" stroke="black" points="492.18,-156.79 482.69,-152.08 487.17,-161.68 492.18,-156.79"/>
</g>
<!-- gnuradio&#45;osmosdr&#45;&gt;gnss&#45;sdr -->
<g id="edge9" class="edge">
<title>gnuradio&#45;osmosdr&#45;&gt;gnss&#45;sdr</title>
<path fill="none" stroke="black" d="M412.98,-188.05C420.92,-179.5 430.7,-168.97 439.45,-159.56"/>
<polygon fill="black" stroke="black" points="441.84,-162.13 446.08,-152.42 436.71,-157.36 441.84,-162.13"/>
</g>
<!-- smina -->
<g id="node15" class="node">
<title>smina</title>
<g id="a_node15"><a xlink:href="https://github.com/conda-forge/smina-feedstock/pull/3" xlink:title="smina ❎">
<ellipse fill="#31688e" stroke="black" cx="943.25" cy="-682" rx="56.47" ry="18"/>
<text text-anchor="middle" x="943.25" y="-677.33" font-family="Times,serif" font-size="14.00" fill="white">smina ❎</text>
</a>
</g>
</g>
<!-- ompl&#45;&gt;smina -->
<!-- scipoptsuite -->
<g id="node27" class="node">
<title>scipoptsuite</title>
<g id="a_node27"><a xlink:href="https://github.com/conda-forge/scipoptsuite-feedstock/pull/64" xlink:title="scipoptsuite ❎">
<ellipse fill="#31688e" stroke="black" cx="943.25" cy="-610" rx="87.51" ry="18"/>
<text text-anchor="middle" x="943.25" y="-605.33" font-family="Times,serif" font-size="14.00" fill="white">scipoptsuite ❎</text>
</a>
</g>
</g>
<!-- smina&#45;&gt;scipoptsuite -->
<!-- hpp&#45;corbaserver -->
<g id="node16" class="node">
<title>hpp&#45;corbaserver</title>
<g id="a_node16"><a xlink:href="https://github.com/conda-forge/hpp-corbaserver-feedstock" xlink:title="hpp corbaserver">
<ellipse fill="#fde725" stroke="black" cx="161.25" cy="-790" rx="93.3" ry="18"/>
<text text-anchor="middle" x="161.25" y="-785.33" font-family="Times,serif" font-size="14.00">hpp corbaserver</text>
</a>
</g>
</g>
<!-- hpp&#45;manipulation&#45;corba -->
<g id="node17" class="node">
<title>hpp&#45;manipulation&#45;corba</title>
<g id="a_node17"><a xlink:href="https://github.com/conda-forge/hpp-manipulation-corba-feedstock" xlink:title="hpp manipulation corba">
<ellipse fill="#fde725" stroke="black" cx="339.25" cy="-646" rx="130.13" ry="18"/>
<text text-anchor="middle" x="339.25" y="-641.33" font-family="Times,serif" font-size="14.00">hpp manipulation corba</text>
</a>
</g>
</g>
<!-- hpp&#45;corbaserver&#45;&gt;hpp&#45;manipulation&#45;corba -->
<g id="edge12" class="edge">
<title>hpp&#45;corbaserver&#45;&gt;hpp&#45;manipulation&#45;corba</title>
<path fill="none" stroke="black" d="M181.11,-771.95C202.4,-753.8 237.32,-724.38 268.25,-700 280.67,-690.21 294.56,-679.74 306.74,-670.71"/>
<polygon fill="black" stroke="black" points="308.48,-673.77 314.45,-665.02 304.33,-668.14 308.48,-673.77"/>
</g>
<!-- hpp&#45;gepetto&#45;viewer -->
<g id="node18" class="node">
<title>hpp&#45;gepetto&#45;viewer</title>
<g id="a_node18"><a xlink:href="https://github.com/conda-forge/hpp-gepetto-viewer-feedstock" xlink:title="hpp gepetto viewer">
<ellipse fill="#fde725" stroke="black" cx="516.25" cy="-574" rx="108.55" ry="18"/>
<text text-anchor="middle" x="516.25" y="-569.33" font-family="Times,serif" font-size="14.00">hpp gepetto viewer</text>
</a>
</g>
</g>
<!-- hpp&#45;corbaserver&#45;&gt;hpp&#45;gepetto&#45;viewer -->
<g id="edge13" class="edge">
<title>hpp&#45;corbaserver&#45;&gt;hpp&#45;gepetto&#45;viewer</title>
<path fill="none" stroke="black" d="M159.8,-771.68C158.08,-738.5 159.52,-665.92 200.25,-628 229.26,-601 323.87,-587.63 402.08,-581.09"/>
<polygon fill="black" stroke="black" points="402.29,-584.59 411.98,-580.3 401.73,-577.61 402.29,-584.59"/>
</g>
<!-- hpp&#45;plot -->
<g id="node19" class="node">
<title>hpp&#45;plot</title>
<g id="a_node19"><a xlink:href="https://github.com/conda-forge/hpp-plot-feedstock" xlink:title="hpp plot">
<ellipse fill="#fde725" stroke="black" cx="67.25" cy="-574" rx="52.79" ry="18"/>
<text text-anchor="middle" x="67.25" y="-569.33" font-family="Times,serif" font-size="14.00">hpp plot</text>
</a>
</g>
</g>
<!-- hpp&#45;corbaserver&#45;&gt;hpp&#45;plot -->
<g id="edge14" class="edge">
<title>hpp&#45;corbaserver&#45;&gt;hpp&#45;plot</title>
<path fill="none" stroke="black" d="M145.16,-771.97C136.51,-762.09 126.23,-749.04 119.25,-736 95.92,-692.4 80.79,-636.53 73.16,-603.38"/>
<polygon fill="black" stroke="black" points="76.6,-602.73 71.02,-593.73 69.77,-604.25 76.6,-602.73"/>
</g>
<!-- hpp&#45;tutorial -->
<g id="node20" class="node">
<title>hpp&#45;tutorial</title>
<g id="a_node20"><a xlink:href="https://github.com/conda-forge/hpp-tutorial-feedstock" xlink:title="hpp tutorial">
<ellipse fill="#fde725" stroke="black" cx="208.25" cy="-574" rx="70.68" ry="18"/>
<text text-anchor="middle" x="208.25" y="-569.33" font-family="Times,serif" font-size="14.00">hpp tutorial</text>
</a>
</g>
</g>
<!-- hpp&#45;corbaserver&#45;&gt;hpp&#45;tutorial -->
<g id="edge15" class="edge">
<title>hpp&#45;corbaserver&#45;&gt;hpp&#45;tutorial</title>
<path fill="none" stroke="black" d="M150.88,-771.94C133.74,-741.32 103.77,-675.78 129.25,-628 136.5,-614.41 148.94,-603.69 161.84,-595.55"/>
<polygon fill="black" stroke="black" points="163.51,-598.63 170.4,-590.59 160,-592.58 163.51,-598.63"/>
</g>
<!-- hpp&#45;manipulation&#45;corba&#45;&gt;hpp&#45;gepetto&#45;viewer -->
<g id="edge16" class="edge">
<title>hpp&#45;manipulation&#45;corba&#45;&gt;hpp&#45;gepetto&#45;viewer</title>
<path fill="none" stroke="black" d="M380.75,-628.59C405.89,-618.64 438.17,-605.88 464.92,-595.3"/>
<polygon fill="black" stroke="black" points="466.2,-598.56 474.21,-591.62 463.63,-592.05 466.2,-598.56"/>
</g>
<!-- hpp&#45;manipulation&#45;corba&#45;&gt;hpp&#45;plot -->
<g id="edge17" class="edge">
<title>hpp&#45;manipulation&#45;corba&#45;&gt;hpp&#45;plot</title>
<path fill="none" stroke="black" d="M276.82,-629.77C234.77,-619.39 178.09,-605.2 128.25,-592 124.9,-591.11 121.46,-590.19 117.99,-589.25"/>
<polygon fill="black" stroke="black" points="118.94,-585.88 108.37,-586.61 117.09,-592.63 118.94,-585.88"/>
</g>
<!-- hpp&#45;manipulation&#45;corba&#45;&gt;hpp&#45;tutorial -->
<g id="edge18" class="edge">
<title>hpp&#45;manipulation&#45;corba&#45;&gt;hpp&#45;tutorial</title>
<path fill="none" stroke="black" d="M307.54,-628.05C289.44,-618.38 266.6,-606.18 247.39,-595.91"/>
<polygon fill="black" stroke="black" points="249.23,-592.93 238.76,-591.31 245.93,-599.11 249.23,-592.93"/>
</g>
<!-- hpp&#45;practicals -->
<g id="node21" class="node">
<title>hpp&#45;practicals</title>
<g id="a_node21"><a xlink:href="https://github.com/conda-forge/hpp-practicals-feedstock" xlink:title="hpp practicals">
<ellipse fill="#fde725" stroke="black" cx="82.25" cy="-502" rx="82.25" ry="18"/>
<text text-anchor="middle" x="82.25" y="-497.32" font-family="Times,serif" font-size="14.00">hpp practicals</text>
</a>
</g>
</g>
<!-- hpp&#45;plot&#45;&gt;hpp&#45;practicals -->
<g id="edge19" class="edge">
<title>hpp&#45;plot&#45;&gt;hpp&#45;practicals</title>
<path fill="none" stroke="black" d="M70.96,-555.7C72.54,-548.32 74.42,-539.52 76.2,-531.25"/>
<polygon fill="black" stroke="black" points="79.59,-532.1 78.27,-521.58 72.75,-530.63 79.59,-532.1"/>
</g>
<!-- hpp&#45;doc -->
<g id="node22" class="node">
<title>hpp&#45;doc</title>
<g id="a_node22"><a xlink:href="https://github.com/conda-forge/hpp-doc-feedstock" xlink:title="hpp doc">
<ellipse fill="#fde725" stroke="black" cx="137.25" cy="-430" rx="50.68" ry="18"/>
<text text-anchor="middle" x="137.25" y="-425.32" font-family="Times,serif" font-size="14.00">hpp doc</text>
</a>
</g>
</g>
<!-- hpp&#45;tutorial&#45;&gt;hpp&#45;doc -->
<g id="edge20" class="edge">
<title>hpp&#45;tutorial&#45;&gt;hpp&#45;doc</title>
<path fill="none" stroke="black" d="M202.75,-555.77C196.62,-537.47 185.88,-507.93 173.25,-484 168.4,-474.81 162.29,-465.27 156.49,-456.85"/>
<polygon fill="black" stroke="black" points="159.44,-454.95 150.8,-448.82 153.73,-459 159.44,-454.95"/>
</g>
<!-- hpp&#45;practicals&#45;&gt;hpp&#45;doc -->
<g id="edge51" class="edge">
<title>hpp&#45;practicals&#45;&gt;hpp&#45;doc</title>
<path fill="none" stroke="black" d="M95.56,-484.05C101.98,-475.89 109.82,-465.91 116.96,-456.82"/>
<polygon fill="black" stroke="black" points="119.7,-459 123.12,-448.98 114.19,-454.68 119.7,-459"/>
</g>
<!-- hpp&#45;core -->
<g id="node23" class="node">
<title>hpp&#45;core</title>
<g id="a_node23"><a xlink:href="https://github.com/conda-forge/hpp-core-feedstock" xlink:title="hpp core">
<ellipse fill="#fde725" stroke="black" cx="396.25" cy="-862" rx="54.89" ry="18"/>
<text text-anchor="middle" x="396.25" y="-857.33" font-family="Times,serif" font-size="14.00">hpp core</text>
</a>
</g>
</g>
<!-- hpp&#45;core&#45;&gt;hpp&#45;corbaserver -->
<g id="edge21" class="edge">
<title>hpp&#45;core&#45;&gt;hpp&#45;corbaserver</title>
<path fill="none" stroke="black" d="M356.65,-849.2C319.59,-838.16 263.71,-821.52 221.18,-808.85"/>
<polygon fill="black" stroke="black" points="222.44,-805.57 211.85,-806.07 220.44,-812.28 222.44,-805.57"/>
</g>
<!-- hpp&#45;core&#45;&gt;hpp&#45;manipulation&#45;corba -->
<g id="edge22" class="edge">
<title>hpp&#45;core&#45;&gt;hpp&#45;manipulation&#45;corba</title>
<path fill="none" stroke="black" d="M391.68,-843.85C381.88,-807.07 358.77,-720.29 346.77,-675.24"/>
<polygon fill="black" stroke="black" points="350.18,-674.46 344.23,-665.7 343.42,-676.26 350.18,-674.46"/>
</g>
<!-- hpp&#45;core&#45;&gt;hpp&#45;gepetto&#45;viewer -->
<g id="edge23" class="edge">
<title>hpp&#45;core&#45;&gt;hpp&#45;gepetto&#45;viewer</title>
<path fill="none" stroke="black" d="M398.27,-843.81C400.79,-825.53 405.96,-796.02 415.25,-772 435.3,-720.17 453.29,-713.65 478.25,-664 488.32,-643.96 498.23,-620.61 505.4,-602.86"/>
<polygon fill="black" stroke="black" points="508.57,-604.34 509.03,-593.76 502.07,-601.75 508.57,-604.34"/>
</g>
<!-- hpp&#45;core&#45;&gt;hpp&#45;tutorial -->
<g id="edge24" class="edge">
<title>hpp&#45;core&#45;&gt;hpp&#45;tutorial</title>
<path fill="none" stroke="black" d="M371.21,-845.59C326.73,-816.56 235.31,-748.96 200.25,-664 192.29,-644.71 194.9,-621.11 199.18,-603.07"/>
<polygon fill="black" stroke="black" points="202.51,-604.14 201.74,-593.57 195.75,-602.31 202.51,-604.14"/>
</g>
<!-- hpp&#45;manipulation&#45;urdf -->
<g id="node24" class="node">
<title>hpp&#45;manipulation&#45;urdf</title>
<g id="a_node24"><a xlink:href="https://github.com/conda-forge/hpp-manipulation-urdf-feedstock" xlink:title="hpp manipulation urdf">
<ellipse fill="#fde725" stroke="black" cx="662.25" cy="-718" rx="123.29" ry="18"/>
<text text-anchor="middle" x="662.25" y="-713.33" font-family="Times,serif" font-size="14.00">hpp manipulation urdf</text>
</a>
</g>
</g>
<!-- hpp&#45;core&#45;&gt;hpp&#45;manipulation&#45;urdf -->
<g id="edge25" class="edge">
<title>hpp&#45;core&#45;&gt;hpp&#45;manipulation&#45;urdf</title>
<path fill="none" stroke="black" d="M447.68,-855.26C508.4,-847.51 604.53,-831.85 631.25,-808 648.41,-792.68 656.07,-767.34 659.49,-747.61"/>
<polygon fill="black" stroke="black" points="662.92,-748.36 660.87,-737.97 655.99,-747.37 662.92,-748.36"/>
</g>
<!-- hpp&#45;manipulation -->
<g id="node25" class="node">
<title>hpp&#45;manipulation</title>
<g id="a_node25"><a xlink:href="https://github.com/conda-forge/hpp-manipulation-feedstock" xlink:title="hpp manipulation">
<ellipse fill="#fde725" stroke="black" cx="523.25" cy="-790" rx="99.08" ry="18"/>
<text text-anchor="middle" x="523.25" y="-785.33" font-family="Times,serif" font-size="14.00">hpp manipulation</text>
</a>
</g>
</g>
<!-- hpp&#45;core&#45;&gt;hpp&#45;manipulation -->
<g id="edge26" class="edge">
<title>hpp&#45;core&#45;&gt;hpp&#45;manipulation</title>
<path fill="none" stroke="black" d="M423.49,-845.98C441,-836.34 464.03,-823.64 483.55,-812.88"/>
<polygon fill="black" stroke="black" points="484.99,-816.08 492.06,-808.19 481.61,-809.95 484.99,-816.08"/>
</g>
<!-- hpp&#45;manipulation&#45;urdf&#45;&gt;hpp&#45;manipulation&#45;corba -->
<g id="edge27" class="edge">
<title>hpp&#45;manipulation&#45;urdf&#45;&gt;hpp&#45;manipulation&#45;corba</title>
<path fill="none" stroke="black" d="M595.32,-702.5C543.81,-691.33 472.47,-675.87 418.17,-664.1"/>
<polygon fill="black" stroke="black" points="419.19,-660.74 408.68,-662.05 417.71,-667.59 419.19,-660.74"/>
</g>
<!-- hpp&#45;manipulation&#45;urdf&#45;&gt;hpp&#45;gepetto&#45;viewer -->
<g id="edge28" class="edge">
<title>hpp&#45;manipulation&#45;urdf&#45;&gt;hpp&#45;gepetto&#45;viewer</title>
<path fill="none" stroke="black" d="M644.64,-699.87C619.1,-675.03 571.61,-628.85 542.1,-600.14"/>
<polygon fill="black" stroke="black" points="544.62,-597.71 535.01,-593.24 539.74,-602.73 544.62,-597.71"/>
</g>
<!-- hpp&#45;manipulation&#45;&gt;hpp&#45;manipulation&#45;corba -->
<g id="edge29" class="edge">
<title>hpp&#45;manipulation&#45;&gt;hpp&#45;manipulation&#45;corba</title>
<path fill="none" stroke="black" d="M501.42,-772.15C468.86,-747.03 407.44,-699.62 370.24,-670.92"/>
<polygon fill="black" stroke="black" points="372.59,-668.31 362.53,-664.97 368.31,-673.85 372.59,-668.31"/>
</g>
<!-- hpp&#45;manipulation&#45;&gt;hpp&#45;gepetto&#45;viewer -->
<g id="edge30" class="edge">
<title>hpp&#45;manipulation&#45;&gt;hpp&#45;gepetto&#45;viewer</title>
<path fill="none" stroke="black" d="M522.69,-771.85C521.49,-735.14 518.66,-648.66 517.18,-603.53"/>
<polygon fill="black" stroke="black" points="520.69,-603.63 516.86,-593.75 513.69,-603.85 520.69,-603.63"/>
</g>
<!-- hpp&#45;manipulation&#45;&gt;hpp&#45;manipulation&#45;urdf -->
<g id="edge31" class="edge">
<title>hpp&#45;manipulation&#45;&gt;hpp&#45;manipulation&#45;urdf</title>
<path fill="none" stroke="black" d="M555.84,-772.59C574.56,-763.16 598.32,-751.2 618.63,-740.96"/>
<polygon fill="black" stroke="black" points="620.19,-744.1 627.55,-736.48 617.04,-737.85 620.19,-744.1"/>
</g>
<!-- hpp&#45;constraints -->
<g id="node26" class="node">
<title>hpp&#45;constraints</title>
<g id="a_node26"><a xlink:href="https://github.com/conda-forge/hpp-constraints-feedstock/pull/19" xlink:title="hpp constraints ✓">
<ellipse fill="#31688e" stroke="black" cx="459.25" cy="-934" rx="97.51" ry="18"/>
<text text-anchor="middle" x="459.25" y="-929.33" font-family="Times,serif" font-size="14.00" fill="white">hpp constraints ✓</text>
</a>
</g>
</g>
<!-- hpp&#45;constraints&#45;&gt;hpp&#45;corbaserver -->
<g id="edge32" class="edge">
<title>hpp&#45;constraints&#45;&gt;hpp&#45;corbaserver</title>
<path fill="none" stroke="black" d="M389.43,-921.04C352.05,-912.84 306.05,-899.79 268.25,-880 236.41,-863.33 205.44,-835.98 185.09,-816"/>
<polygon fill="black" stroke="black" points="187.65,-813.61 178.11,-809.01 182.7,-818.56 187.65,-813.61"/>
</g>
<!-- hpp&#45;constraints&#45;&gt;hpp&#45;manipulation&#45;corba -->
<g id="edge33" class="edge">
<title>hpp&#45;constraints&#45;&gt;hpp&#45;manipulation&#45;corba</title>
<path fill="none" stroke="black" d="M391.67,-920.67C368.89,-912.94 345.83,-900.38 332.25,-880 290.36,-817.13 313.29,-722.05 328.77,-675.17"/>
<polygon fill="black" stroke="black" points="332.06,-676.36 332.01,-665.77 325.45,-674.08 332.06,-676.36"/>
</g>
<!-- hpp&#45;constraints&#45;&gt;hpp&#45;gepetto&#45;viewer -->
<g id="edge34" class="edge">
<title>hpp&#45;constraints&#45;&gt;hpp&#45;gepetto&#45;viewer</title>
<path fill="none" stroke="black" d="M525.83,-920.43C628.38,-899.13 813.25,-852.25 813.25,-791 813.25,-791 813.25,-791 813.25,-717 813.25,-630.85 710.28,-596.92 625.61,-583.59"/>
<polygon fill="black" stroke="black" points="626.22,-580.14 615.82,-582.13 625.2,-587.06 626.22,-580.14"/>
</g>
<!-- hpp&#45;constraints&#45;&gt;hpp&#45;core -->
<g id="edge35" class="edge">
<title>hpp&#45;constraints&#45;&gt;hpp&#45;core</title>
<path fill="none" stroke="black" d="M444,-916.05C436.49,-907.71 427.29,-897.49 418.98,-888.25"/>
<polygon fill="black" stroke="black" points="421.66,-886.01 412.37,-880.91 416.46,-890.69 421.66,-886.01"/>
</g>
<!-- hpp&#45;constraints&#45;&gt;hpp&#45;manipulation&#45;urdf -->
<g id="edge36" class="edge">
<title>hpp&#45;constraints&#45;&gt;hpp&#45;manipulation&#45;urdf</title>
<path fill="none" stroke="black" d="M505.08,-917.66C551.61,-899.44 621.49,-864.22 655.25,-808 666.05,-790.02 667.39,-766.17 666.25,-747.69"/>
<polygon fill="black" stroke="black" points="669.75,-747.58 665.35,-737.94 662.78,-748.22 669.75,-747.58"/>
</g>
<!-- hpp&#45;constraints&#45;&gt;hpp&#45;manipulation -->
<g id="edge37" class="edge">
<title>hpp&#45;constraints&#45;&gt;hpp&#45;manipulation</title>
<path fill="none" stroke="black" d="M467.1,-915.59C478.05,-891.29 498.02,-846.97 510.96,-818.27"/>
<polygon fill="black" stroke="black" points="514,-820.05 514.92,-809.49 507.62,-817.17 514,-820.05"/>
</g>
<!-- pycuda -->
<g id="node28" class="node">
<title>pycuda</title>
<g id="a_node28"><a xlink:href="https://github.com/conda-forge/pycuda-feedstock/pull/38" xlink:title="pycuda ❎">
<ellipse fill="#31688e" stroke="black" cx="943.25" cy="-538" rx="62.26" ry="18"/>
<text text-anchor="middle" x="943.25" y="-533.33" font-family="Times,serif" font-size="14.00" fill="white">pycuda ❎</text>
</a>
</g>
</g>
<!-- scipoptsuite&#45;&gt;pycuda -->
<!-- cudadecon -->
<g id="node29" class="node">
<title>cudadecon</title>
<g id="a_node29"><a xlink:href="https://github.com/conda-forge/cudadecon-feedstock/pull/28" xlink:title="cudadecon ❎">
<ellipse fill="#31688e" stroke="black" cx="943.25" cy="-466" rx="79.62" ry="18"/>
<text text-anchor="middle" x="943.25" y="-461.32" font-family="Times,serif" font-size="14.00" fill="white">cudadecon ❎</text>
</a>
</g>
</g>
<!-- pycuda&#45;&gt;cudadecon -->
<!-- tsid -->
<g id="node30" class="node">
<title>tsid</title>
<g id="a_node30"><a xlink:href="https://github.com/conda-forge/tsid-feedstock/pull/33" xlink:title="tsid ❎">
<ellipse fill="#31688e" stroke="black" cx="943.25" cy="-394" rx="45.42" ry="18"/>
<text text-anchor="middle" x="943.25" y="-389.32" font-family="Times,serif" font-size="14.00" fill="white">tsid ❎</text>
</a>
</g>
</g>
<!-- cudadecon&#45;&gt;tsid -->
<!-- cudasirecon -->
<g id="node31" class="node">
<title>cudasirecon</title>
<g id="a_node31"><a xlink:href="https://github.com/conda-forge/cudasirecon-feedstock/pull/29" xlink:title="cudasirecon ❎">
<ellipse fill="#31688e" stroke="black" cx="943.25" cy="-322" rx="86.46" ry="18"/>
<text text-anchor="middle" x="943.25" y="-317.32" font-family="Times,serif" font-size="14.00" fill="white">cudasirecon ❎</text>
</a>
</g>
</g>
<!-- tsid&#45;&gt;cudasirecon -->
<!-- vina -->
<g id="node32" class="node">
<title>vina</title>
<g id="a_node32"><a xlink:href="https://github.com/conda-forge/vina-feedstock/pull/16" xlink:title="vina ❎">
<ellipse fill="#31688e" stroke="black" cx="1201.25" cy="-970" rx="47.53" ry="18"/>
<text text-anchor="middle" x="1201.25" y="-965.33" font-family="Times,serif" font-size="14.00" fill="white">vina ❎</text>
</a>
</g>
</g>
<!-- vmtk -->
<g id="node33" class="node">
<title>vmtk</title>
<g id="a_node33"><a xlink:href="https://github.com/conda-forge/vmtk-feedstock/pull/23" xlink:title="vmtk ❎">
<ellipse fill="#31688e" stroke="black" cx="1201.25" cy="-898" rx="51.74" ry="18"/>
<text text-anchor="middle" x="1201.25" y="-893.33" font-family="Times,serif" font-size="14.00" fill="white">vmtk ❎</text>
</a>
</g>
</g>
<!-- vina&#45;&gt;vmtk -->
<!-- rstudio -->
<g id="node34" class="node">
<title>rstudio</title>
<g id="a_node34"><a xlink:href="https://github.com/conda-forge/rstudio-feedstock/pull/30" xlink:title="rstudio ❎">
<ellipse fill="#31688e" stroke="black" cx="1201.25" cy="-826" rx="62.26" ry="18"/>
<text text-anchor="middle" x="1201.25" y="-821.33" font-family="Times,serif" font-size="14.00" fill="white">rstudio ❎</text>
</a>
</g>
</g>
<!-- vmtk&#45;&gt;rstudio -->
<!-- xilinx&#45;runtime -->
<g id="node35" class="node">
<title>xilinx&#45;runtime</title>
<g id="a_node35"><a xlink:href="https://github.com/conda-forge/xilinx-runtime-feedstock/pull/34" xlink:title="xilinx runtime ❎">
<ellipse fill="#31688e" stroke="black" cx="1201.25" cy="-754" rx="96.98" ry="18"/>
<text text-anchor="middle" x="1201.25" y="-749.33" font-family="Times,serif" font-size="14.00" fill="white">xilinx runtime ❎</text>
</a>
</g>
</g>
<!-- rstudio&#45;&gt;xilinx&#45;runtime -->
<!-- qtmolecularnetwork -->
<g id="node36" class="node">
<title>qtmolecularnetwork</title>
<g id="a_node36"><a xlink:href="https://github.com/conda-forge/qtmolecularnetwork-feedstock/pull/16" xlink:title="qtmolecularnetwork ❎">
<ellipse fill="#31688e" stroke="black" cx="1201.25" cy="-682" rx="127.49" ry="18"/>
<text text-anchor="middle" x="1201.25" y="-677.33" font-family="Times,serif" font-size="14.00" fill="white">qtmolecularnetwork ❎</text>
</a>
</g>
</g>
<!-- xilinx&#45;runtime&#45;&gt;qtmolecularnetwork -->
<!-- hdk -->
<g id="node37" class="node">
<title>hdk</title>
<g id="a_node37"><a xlink:href="https://github.com/conda-forge/hdk-feedstock" xlink:title="hdk">
<ellipse fill="#000000" stroke="black" cx="1201.25" cy="-610" rx="29.64" ry="18"/>
<text text-anchor="middle" x="1201.25" y="-605.33" font-family="Times,serif" font-size="14.00" fill="white">hdk</text>
</a>
</g>
</g>
<!-- qtmolecularnetwork&#45;&gt;hdk -->
<!-- river&#45;ingester -->
<g id="node38" class="node">
<title>river&#45;ingester</title>
<g id="a_node38"><a xlink:href="https://github.com/conda-forge/river-ingester-feedstock/pull/24" xlink:title="river ingester ❎">
<ellipse fill="#31688e" stroke="black" cx="1201.25" cy="-538" rx="95.4" ry="18"/>
<text text-anchor="middle" x="1201.25" y="-533.33" font-family="Times,serif" font-size="14.00" fill="white">river ingester ❎</text>
</a>
</g>
</g>
<!-- hdk&#45;&gt;river&#45;ingester -->
<!-- pygplates -->
<g id="node39" class="node">
<title>pygplates</title>
<g id="a_node39"><a xlink:href="https://github.com/conda-forge/pygplates-feedstock/pull/20" xlink:title="pygplates ❎">
<ellipse fill="#31688e" stroke="black" cx="1201.25" cy="-466" rx="75.41" ry="18"/>
<text text-anchor="middle" x="1201.25" y="-461.32" font-family="Times,serif" font-size="14.00" fill="white">pygplates ❎</text>
</a>
</g>
</g>
<!-- river&#45;ingester&#45;&gt;pygplates -->
<!-- pixsfm -->
<g id="node40" class="node">
<title>pixsfm</title>
<g id="a_node40"><a xlink:href="https://github.com/conda-forge/pixsfm-feedstock/pull/16" xlink:title="pixsfm ❎">
<ellipse fill="#31688e" stroke="black" cx="1201.25" cy="-394" rx="60.15" ry="18"/>
<text text-anchor="middle" x="1201.25" y="-389.32" font-family="Times,serif" font-size="14.00" fill="white">pixsfm ❎</text>
</a>
</g>
</g>
<!-- pygplates&#45;&gt;pixsfm -->
</g>
</svg>
