<?xml version="1.0" encoding="UTF-8" standalone="no"?>
<!DOCTYPE svg PUBLIC "-//W3C//DTD SVG 1.1//EN"
 "http://www.w3.org/Graphics/SVG/1.1/DTD/svg11.dtd">
<!-- Generated by graphviz version 9.0.0 (20231125.0833)
 -->
<!-- Pages: 1 -->
<svg width="1107pt" height="1068pt"
 viewBox="0.00 0.00 1107.05 1068.00" xmlns="http://www.w3.org/2000/svg" xmlns:xlink="http://www.w3.org/1999/xlink">
<g id="graph0" class="graph" transform="scale(1 1) rotate(0) translate(4 1064)">
<polygon fill="white" stroke="none" points="-4,4 -4,-1064 1103.05,-1064 1103.05,4 -4,4"/>
<!-- cyclus -->
<g id="node1" class="node">
<title>cyclus</title>
<g id="a_node1"><a xlink:href="https://github.com/conda-forge/cyclus-feedstock/pull/78" xlink:title="cyclus ❎">
<ellipse fill="#31688e" stroke="black" cx="713.55" cy="-1042" rx="57.52" ry="18"/>
<text text-anchor="middle" x="713.55" y="-1037.33" font-family="Times,serif" font-size="14.00" fill="white">cyclus ❎</text>
</a>
</g>
</g>
<!-- ifcopenshell -->
<g id="node2" class="node">
<title>ifcopenshell</title>
<g id="a_node2"><a xlink:href="https://github.com/conda-forge/ifcopenshell-feedstock/pull/46" xlink:title="ifcopenshell ❎">
<ellipse fill="#31688e" stroke="black" cx="713.55" cy="-970" rx="86.46" ry="18"/>
<text text-anchor="middle" x="713.55" y="-965.33" font-family="Times,serif" font-size="14.00" fill="white">ifcopenshell ❎</text>
</a>
</g>
</g>
<!-- cyclus&#45;&gt;ifcopenshell -->
<!-- dcgp&#45;python -->
<g id="node9" class="node">
<title>dcgp&#45;python</title>
<g id="a_node9"><a xlink:href="https://github.com/conda-forge/dcgp-python-feedstock/pull/24" xlink:title="dcgp python ❎">
<ellipse fill="#31688e" stroke="black" cx="713.55" cy="-898" rx="88.56" ry="18"/>
<text text-anchor="middle" x="713.55" y="-893.33" font-family="Times,serif" font-size="14.00" fill="white">dcgp python ❎</text>
</a>
</g>
</g>
<!-- ifcopenshell&#45;&gt;dcgp&#45;python -->
<!-- vigra -->
<g id="node3" class="node">
<title>vigra</title>
<g id="a_node3"><a xlink:href="https://github.com/conda-forge/vigra-feedstock/pull/131" xlink:title="vigra ❎">
<ellipse fill="#31688e" stroke="black" cx="971.55" cy="-242" rx="52.26" ry="18"/>
<text text-anchor="middle" x="971.55" y="-237.32" font-family="Times,serif" font-size="14.00" fill="white">vigra ❎</text>
</a>
</g>
</g>
<!-- hugin -->
<g id="node4" class="node">
<title>hugin</title>
<g id="a_node4"><a xlink:href="https://github.com/conda-forge/hugin-feedstock" xlink:title="hugin">
<ellipse fill="#fde725" stroke="black" cx="971.55" cy="-170" rx="39.63" ry="18"/>
<text text-anchor="middle" x="971.55" y="-165.32" font-family="Times,serif" font-size="14.00">hugin</text>
</a>
</g>
</g>
<!-- vigra&#45;&gt;hugin -->
<g id="edge2" class="edge">
<title>vigra&#45;&gt;hugin</title>
<path fill="none" stroke="black" d="M971.55,-223.7C971.55,-216.41 971.55,-207.73 971.55,-199.54"/>
<polygon fill="black" stroke="black" points="975.05,-199.62 971.55,-189.62 968.05,-199.62 975.05,-199.62"/>
</g>
<!-- smesh -->
<g id="node5" class="node">
<title>smesh</title>
<g id="a_node5"><a xlink:href="https://github.com/conda-forge/smesh-feedstock/pull/79" xlink:title="smesh ✓">
<ellipse fill="#31688e" stroke="black" cx="291.55" cy="-90" rx="51.21" ry="18"/>
<text text-anchor="middle" x="291.55" y="-85.33" font-family="Times,serif" font-size="14.00" fill="white">smesh ✓</text>
</a>
</g>
</g>
<!-- freecad -->
<g id="node6" class="node">
<title>freecad</title>
<g id="a_node6"><a xlink:href="https://github.com/conda-forge/freecad-feedstock" xlink:title="freecad">
<ellipse fill="#fde725" stroke="black" cx="291.55" cy="-18" rx="48.58" ry="18"/>
<text text-anchor="middle" x="291.55" y="-13.32" font-family="Times,serif" font-size="14.00">freecad</text>
</a>
</g>
</g>
<!-- smesh&#45;&gt;freecad -->
<g id="edge3" class="edge">
<title>smesh&#45;&gt;freecad</title>
<path fill="none" stroke="black" d="M291.55,-71.7C291.55,-64.41 291.55,-55.73 291.55,-47.54"/>
<polygon fill="black" stroke="black" points="295.05,-47.62 291.55,-37.62 288.05,-47.62 295.05,-47.62"/>
</g>
<!-- ldas&#45;tools&#45;frameapi -->
<g id="node7" class="node">
<title>ldas&#45;tools&#45;frameapi</title>
<g id="a_node7"><a xlink:href="https://github.com/conda-forge/ldas-tools-frameapi-feedstock/pull/18" xlink:title="ldas tools frameapi ❎">
<ellipse fill="#31688e" stroke="black" cx="713.55" cy="-242" rx="122.23" ry="18"/>
<text text-anchor="middle" x="713.55" y="-237.32" font-family="Times,serif" font-size="14.00" fill="white">ldas tools frameapi ❎</text>
</a>
</g>
</g>
<!-- ldas&#45;tools&#45;utilities -->
<g id="node8" class="node">
<title>ldas&#45;tools&#45;utilities</title>
<g id="a_node8"><a xlink:href="https://github.com/conda-forge/ldas-tools-utilities-feedstock" xlink:title="ldas tools utilities">
<ellipse fill="#fde725" stroke="black" cx="713.55" cy="-170" rx="100.66" ry="18"/>
<text text-anchor="middle" x="713.55" y="-165.32" font-family="Times,serif" font-size="14.00">ldas tools utilities</text>
</a>
</g>
</g>
<!-- ldas&#45;tools&#45;frameapi&#45;&gt;ldas&#45;tools&#45;utilities -->
<g id="edge4" class="edge">
<title>ldas&#45;tools&#45;frameapi&#45;&gt;ldas&#45;tools&#45;utilities</title>
<path fill="none" stroke="black" d="M713.55,-223.7C713.55,-216.41 713.55,-207.73 713.55,-199.54"/>
<polygon fill="black" stroke="black" points="717.05,-199.62 713.55,-189.62 710.05,-199.62 717.05,-199.62"/>
</g>
<!-- odil -->
<g id="node10" class="node">
<title>odil</title>
<g id="a_node10"><a xlink:href="https://github.com/conda-forge/odil-feedstock/pull/31" xlink:title="odil ❎">
<ellipse fill="#31688e" stroke="black" cx="713.55" cy="-826" rx="44.9" ry="18"/>
<text text-anchor="middle" x="713.55" y="-821.33" font-family="Times,serif" font-size="14.00" fill="white">odil ❎</text>
</a>
</g>
</g>
<!-- dcgp&#45;python&#45;&gt;odil -->
<!-- ompl -->
<g id="node14" class="node">
<title>ompl</title>
<g id="a_node14"><a xlink:href="https://github.com/conda-forge/ompl-feedstock/pull/35" xlink:title="ompl ❎">
<ellipse fill="#31688e" stroke="black" cx="713.55" cy="-754" rx="51.21" ry="18"/>
<text text-anchor="middle" x="713.55" y="-749.33" font-family="Times,serif" font-size="14.00" fill="white">ompl ❎</text>
</a>
</g>
</g>
<!-- odil&#45;&gt;ompl -->
<!-- gnuradio -->
<g id="node11" class="node">
<title>gnuradio</title>
<g id="a_node11"><a xlink:href="https://github.com/conda-forge/gnuradio-feedstock" xlink:title="gnuradio">
<ellipse fill="#000000" stroke="black" cx="346.55" cy="-278" rx="55.94" ry="18"/>
<text text-anchor="middle" x="346.55" y="-273.32" font-family="Times,serif" font-size="14.00" fill="white">gnuradio</text>
</a>
</g>
</g>
<!-- gnuradio&#45;osmosdr -->
<g id="node12" class="node">
<title>gnuradio&#45;osmosdr</title>
<g id="a_node12"><a xlink:href="https://github.com/conda-forge/gnuradio-osmosdr-feedstock" xlink:title="gnuradio osmosdr">
<ellipse fill="#fde725" stroke="black" cx="281.55" cy="-206" rx="101.71" ry="18"/>
<text text-anchor="middle" x="281.55" y="-201.33" font-family="Times,serif" font-size="14.00">gnuradio osmosdr</text>
</a>
</g>
</g>
<!-- gnuradio&#45;&gt;gnuradio&#45;osmosdr -->
<g id="edge7" class="edge">
<title>gnuradio&#45;&gt;gnuradio&#45;osmosdr</title>
<path fill="none" stroke="black" d="M331.15,-260.41C323.33,-251.99 313.67,-241.58 304.96,-232.2"/>
<polygon fill="black" stroke="black" points="307.7,-230.01 298.33,-225.07 302.57,-234.77 307.7,-230.01"/>
</g>
<!-- gnss&#45;sdr -->
<g id="node13" class="node">
<title>gnss&#45;sdr</title>
<g id="a_node13"><a xlink:href="https://github.com/conda-forge/gnss-sdr-feedstock" xlink:title="gnss sdr">
<ellipse fill="#fde725" stroke="black" cx="346.55" cy="-134" rx="53.84" ry="18"/>
<text text-anchor="middle" x="346.55" y="-129.32" font-family="Times,serif" font-size="14.00">gnss sdr</text>
</a>
</g>
</g>
<!-- gnuradio&#45;&gt;gnss&#45;sdr -->
<g id="edge8" class="edge">
<title>gnuradio&#45;&gt;gnss&#45;sdr</title>
<path fill="none" stroke="black" d="M365.94,-261C375.96,-251.45 387.18,-238.38 392.55,-224 398.15,-209.01 398.15,-202.99 392.55,-188 388.57,-177.33 381.36,-167.38 373.81,-159.05"/>
<polygon fill="black" stroke="black" points="376.49,-156.79 367,-152.08 371.48,-161.68 376.49,-156.79"/>
</g>
<!-- gnuradio&#45;osmosdr&#45;&gt;gnss&#45;sdr -->
<g id="edge9" class="edge">
<title>gnuradio&#45;osmosdr&#45;&gt;gnss&#45;sdr</title>
<path fill="none" stroke="black" d="M297.29,-188.05C305.23,-179.5 315.01,-168.97 323.75,-159.56"/>
<polygon fill="black" stroke="black" points="326.14,-162.13 330.38,-152.42 321.01,-157.36 326.14,-162.13"/>
</g>
<!-- smina -->
<g id="node15" class="node">
<title>smina</title>
<g id="a_node15"><a xlink:href="https://github.com/conda-forge/smina-feedstock/pull/3" xlink:title="smina ❎">
<ellipse fill="#31688e" stroke="black" cx="713.55" cy="-682" rx="56.47" ry="18"/>
<text text-anchor="middle" x="713.55" y="-677.33" font-family="Times,serif" font-size="14.00" fill="white">smina ❎</text>
</a>
</g>
</g>
<!-- ompl&#45;&gt;smina -->
<!-- scipoptsuite -->
<g id="node25" class="node">
<title>scipoptsuite</title>
<g id="a_node25"><a xlink:href="https://github.com/conda-forge/scipoptsuite-feedstock/pull/64" xlink:title="scipoptsuite ❎">
<ellipse fill="#31688e" stroke="black" cx="713.55" cy="-610" rx="87.51" ry="18"/>
<text text-anchor="middle" x="713.55" y="-605.33" font-family="Times,serif" font-size="14.00" fill="white">scipoptsuite ❎</text>
</a>
</g>
</g>
<!-- smina&#45;&gt;scipoptsuite -->
<!-- hpp&#45;corbaserver -->
<g id="node16" class="node">
<title>hpp&#45;corbaserver</title>
<g id="a_node16"><a xlink:href="https://github.com/conda-forge/hpp-corbaserver-feedstock/pull/17" xlink:title="hpp corbaserver ❎">
<ellipse fill="#31688e" stroke="black" cx="108.55" cy="-790" rx="108.55" ry="18"/>
<text text-anchor="middle" x="108.55" y="-785.33" font-family="Times,serif" font-size="14.00" fill="white">hpp corbaserver ❎</text>
</a>
</g>
</g>
<!-- hpp&#45;manipulation&#45;corba -->
<g id="node17" class="node">
<title>hpp&#45;manipulation&#45;corba</title>
<g id="a_node17"><a xlink:href="https://github.com/conda-forge/hpp-manipulation-corba-feedstock" xlink:title="hpp manipulation corba">
<ellipse fill="#fde725" stroke="black" cx="285.55" cy="-718" rx="130.13" ry="18"/>
<text text-anchor="middle" x="285.55" y="-713.33" font-family="Times,serif" font-size="14.00">hpp manipulation corba</text>
</a>
</g>
</g>
<!-- hpp&#45;corbaserver&#45;&gt;hpp&#45;manipulation&#45;corba -->
<g id="edge12" class="edge">
<title>hpp&#45;corbaserver&#45;&gt;hpp&#45;manipulation&#45;corba</title>
<path fill="none" stroke="black" d="M149.16,-772.94C174.21,-763.03 206.58,-750.23 233.5,-739.58"/>
<polygon fill="black" stroke="black" points="234.49,-742.96 242.5,-736.03 231.91,-736.45 234.49,-742.96"/>
</g>
<!-- hpp&#45;gepetto&#45;viewer -->
<g id="node18" class="node">
<title>hpp&#45;gepetto&#45;viewer</title>
<g id="a_node18"><a xlink:href="https://github.com/conda-forge/hpp-gepetto-viewer-feedstock" xlink:title="hpp gepetto viewer">
<ellipse fill="#fde725" stroke="black" cx="425.55" cy="-646" rx="108.55" ry="18"/>
<text text-anchor="middle" x="425.55" y="-641.33" font-family="Times,serif" font-size="14.00">hpp gepetto viewer</text>
</a>
</g>
</g>
<!-- hpp&#45;corbaserver&#45;&gt;hpp&#45;gepetto&#45;viewer -->
<g id="edge13" class="edge">
<title>hpp&#45;corbaserver&#45;&gt;hpp&#45;gepetto&#45;viewer</title>
<path fill="none" stroke="black" d="M111,-771.68C114.85,-751.28 124.3,-717.9 146.55,-700 161.27,-688.16 258.31,-671.51 333.86,-660.05"/>
<polygon fill="black" stroke="black" points="333.97,-663.57 343.34,-658.62 332.93,-656.65 333.97,-663.57"/>
</g>
<!-- hpp&#45;plot -->
<g id="node19" class="node">
<title>hpp&#45;plot</title>
<g id="a_node19"><a xlink:href="https://github.com/conda-forge/hpp-plot-feedstock" xlink:title="hpp plot">
<ellipse fill="#fde725" stroke="black" cx="228.55" cy="-646" rx="52.79" ry="18"/>
<text text-anchor="middle" x="228.55" y="-641.33" font-family="Times,serif" font-size="14.00">hpp plot</text>
</a>
</g>
</g>
<!-- hpp&#45;corbaserver&#45;&gt;hpp&#45;plot -->
<g id="edge14" class="edge">
<title>hpp&#45;corbaserver&#45;&gt;hpp&#45;plot</title>
<path fill="none" stroke="black" d="M104.61,-771.61C101.29,-752.36 99.1,-721.24 113.55,-700 121.89,-687.75 153.32,-673.71 181.23,-663.16"/>
<polygon fill="black" stroke="black" points="182.1,-666.57 190.27,-659.82 179.68,-660 182.1,-666.57"/>
</g>
<!-- hpp&#45;tutorial -->
<g id="node20" class="node">
<title>hpp&#45;tutorial</title>
<g id="a_node20"><a xlink:href="https://github.com/conda-forge/hpp-tutorial-feedstock" xlink:title="hpp tutorial">
<ellipse fill="#fde725" stroke="black" cx="87.55" cy="-646" rx="70.68" ry="18"/>
<text text-anchor="middle" x="87.55" y="-641.33" font-family="Times,serif" font-size="14.00">hpp tutorial</text>
</a>
</g>
</g>
<!-- hpp&#45;corbaserver&#45;&gt;hpp&#45;tutorial -->
<g id="edge15" class="edge">
<title>hpp&#45;corbaserver&#45;&gt;hpp&#45;tutorial</title>
<path fill="none" stroke="black" d="M94.57,-772.04C87.36,-762.18 79.31,-749.13 75.55,-736 69.89,-716.17 73.28,-693.08 77.88,-675.38"/>
<polygon fill="black" stroke="black" points="81.23,-676.4 80.66,-665.82 74.51,-674.44 81.23,-676.4"/>
</g>
<!-- hpp&#45;manipulation&#45;corba&#45;&gt;hpp&#45;gepetto&#45;viewer -->
<g id="edge16" class="edge">
<title>hpp&#45;manipulation&#45;corba&#45;&gt;hpp&#45;gepetto&#45;viewer</title>
<path fill="none" stroke="black" d="M319.09,-700.23C338.1,-690.73 362.09,-678.73 382.49,-668.53"/>
<polygon fill="black" stroke="black" points="384.04,-671.67 391.42,-664.07 380.91,-665.41 384.04,-671.67"/>
</g>
<!-- hpp&#45;manipulation&#45;corba&#45;&gt;hpp&#45;plot -->
<g id="edge17" class="edge">
<title>hpp&#45;manipulation&#45;corba&#45;&gt;hpp&#45;plot</title>
<path fill="none" stroke="black" d="M271.46,-699.7C264.74,-691.44 256.56,-681.39 249.16,-672.3"/>
<polygon fill="black" stroke="black" points="252.07,-670.34 243.05,-664.8 246.65,-674.76 252.07,-670.34"/>
</g>
<!-- hpp&#45;manipulation&#45;corba&#45;&gt;hpp&#45;tutorial -->
<g id="edge18" class="edge">
<title>hpp&#45;manipulation&#45;corba&#45;&gt;hpp&#45;tutorial</title>
<path fill="none" stroke="black" d="M239.63,-700.76C209.28,-690.03 169.48,-675.96 138.21,-664.91"/>
<polygon fill="black" stroke="black" points="139.56,-661.67 128.96,-661.64 137.22,-668.27 139.56,-661.67"/>
</g>
<!-- hpp&#45;practicals -->
<g id="node21" class="node">
<title>hpp&#45;practicals</title>
<g id="a_node21"><a xlink:href="https://github.com/conda-forge/hpp-practicals-feedstock" xlink:title="hpp practicals">
<ellipse fill="#fde725" stroke="black" cx="220.55" cy="-574" rx="82.25" ry="18"/>
<text text-anchor="middle" x="220.55" y="-569.33" font-family="Times,serif" font-size="14.00">hpp practicals</text>
</a>
</g>
</g>
<!-- hpp&#45;plot&#45;&gt;hpp&#45;practicals -->
<g id="edge19" class="edge">
<title>hpp&#45;plot&#45;&gt;hpp&#45;practicals</title>
<path fill="none" stroke="black" d="M226.58,-627.7C225.74,-620.41 224.75,-611.73 223.82,-603.54"/>
<polygon fill="black" stroke="black" points="227.29,-603.15 222.68,-593.61 220.34,-603.94 227.29,-603.15"/>
</g>
<!-- hpp&#45;doc -->
<g id="node22" class="node">
<title>hpp&#45;doc</title>
<g id="a_node22"><a xlink:href="https://github.com/conda-forge/hpp-doc-feedstock" xlink:title="hpp doc">
<ellipse fill="#fde725" stroke="black" cx="157.55" cy="-502" rx="50.68" ry="18"/>
<text text-anchor="middle" x="157.55" y="-497.32" font-family="Times,serif" font-size="14.00">hpp doc</text>
</a>
</g>
</g>
<!-- hpp&#45;tutorial&#45;&gt;hpp&#45;doc -->
<g id="edge20" class="edge">
<title>hpp&#45;tutorial&#45;&gt;hpp&#45;doc</title>
<path fill="none" stroke="black" d="M95.38,-627.83C103.65,-609.82 117.18,-580.76 129.55,-556 133.81,-547.49 138.59,-538.3 142.99,-530"/>
<polygon fill="black" stroke="black" points="145.95,-531.89 147.57,-521.42 139.77,-528.6 145.95,-531.89"/>
</g>
<!-- hpp&#45;practicals&#45;&gt;hpp&#45;doc -->
<g id="edge39" class="edge">
<title>hpp&#45;practicals&#45;&gt;hpp&#45;doc</title>
<path fill="none" stroke="black" d="M205.3,-556.05C197.69,-547.59 188.33,-537.19 179.91,-527.84"/>
<polygon fill="black" stroke="black" points="182.53,-525.52 173.24,-520.43 177.33,-530.21 182.53,-525.52"/>
</g>
<!-- hpp&#45;manipulation&#45;urdf -->
<g id="node23" class="node">
<title>hpp&#45;manipulation&#45;urdf</title>
<g id="a_node23"><a xlink:href="https://github.com/conda-forge/hpp-manipulation-urdf-feedstock" xlink:title="hpp manipulation urdf">
<ellipse fill="#fde725" stroke="black" cx="416.55" cy="-790" rx="123.29" ry="18"/>
<text text-anchor="middle" x="416.55" y="-785.33" font-family="Times,serif" font-size="14.00">hpp manipulation urdf</text>
</a>
</g>
</g>
<!-- hpp&#45;manipulation&#45;urdf&#45;&gt;hpp&#45;manipulation&#45;corba -->
<g id="edge21" class="edge">
<title>hpp&#45;manipulation&#45;urdf&#45;&gt;hpp&#45;manipulation&#45;corba</title>
<path fill="none" stroke="black" d="M385.18,-772.23C367.8,-762.95 345.99,-751.29 327.21,-741.26"/>
<polygon fill="black" stroke="black" points="328.93,-738.21 318.47,-736.59 325.64,-744.39 328.93,-738.21"/>
</g>
<!-- hpp&#45;manipulation&#45;urdf&#45;&gt;hpp&#45;gepetto&#45;viewer -->
<g id="edge22" class="edge">
<title>hpp&#45;manipulation&#45;urdf&#45;&gt;hpp&#45;gepetto&#45;viewer</title>
<path fill="none" stroke="black" d="M419.75,-771.88C421.53,-761.54 423.58,-748.06 424.55,-736 426.17,-715.95 426.4,-693.28 426.24,-675.83"/>
<polygon fill="black" stroke="black" points="429.74,-675.89 426.09,-665.94 422.74,-675.99 429.74,-675.89"/>
</g>
<!-- hpp&#45;manipulation -->
<g id="node24" class="node">
<title>hpp&#45;manipulation</title>
<g id="a_node24"><a xlink:href="https://github.com/conda-forge/hpp-manipulation-feedstock/pull/14" xlink:title="hpp manipulation ❎">
<ellipse fill="#31688e" stroke="black" cx="416.55" cy="-862" rx="114.34" ry="18"/>
<text text-anchor="middle" x="416.55" y="-857.33" font-family="Times,serif" font-size="14.00" fill="white">hpp manipulation ❎</text>
</a>
</g>
</g>
<!-- hpp&#45;manipulation&#45;&gt;hpp&#45;manipulation&#45;corba -->
<g id="edge23" class="edge">
<title>hpp&#45;manipulation&#45;&gt;hpp&#45;manipulation&#45;corba</title>
<path fill="none" stroke="black" d="M342.23,-847.91C319.94,-840.13 297.9,-827.74 284.55,-808 272.71,-790.49 273.81,-766.27 277.41,-747.52"/>
<polygon fill="black" stroke="black" points="280.8,-748.39 279.61,-737.86 273.97,-746.83 280.8,-748.39"/>
</g>
<!-- hpp&#45;manipulation&#45;&gt;hpp&#45;gepetto&#45;viewer -->
<g id="edge24" class="edge">
<title>hpp&#45;manipulation&#45;&gt;hpp&#45;gepetto&#45;viewer</title>
<path fill="none" stroke="black" d="M490.88,-847.91C513.17,-840.13 535.21,-827.74 548.55,-808 583.11,-756.88 512.56,-700.23 464.72,-669.62"/>
<polygon fill="black" stroke="black" points="466.82,-666.8 456.48,-664.48 463.11,-672.74 466.82,-666.8"/>
</g>
<!-- hpp&#45;manipulation&#45;&gt;hpp&#45;manipulation&#45;urdf -->
<g id="edge25" class="edge">
<title>hpp&#45;manipulation&#45;&gt;hpp&#45;manipulation&#45;urdf</title>
<path fill="none" stroke="black" d="M416.55,-843.7C416.55,-836.41 416.55,-827.73 416.55,-819.54"/>
<polygon fill="black" stroke="black" points="420.05,-819.62 416.55,-809.62 413.05,-819.62 420.05,-819.62"/>
</g>
<!-- pycuda -->
<g id="node26" class="node">
<title>pycuda</title>
<g id="a_node26"><a xlink:href="https://github.com/conda-forge/pycuda-feedstock/pull/38" xlink:title="pycuda ❎">
<ellipse fill="#31688e" stroke="black" cx="713.55" cy="-538" rx="62.26" ry="18"/>
<text text-anchor="middle" x="713.55" y="-533.33" font-family="Times,serif" font-size="14.00" fill="white">pycuda ❎</text>
</a>
</g>
</g>
<!-- scipoptsuite&#45;&gt;pycuda -->
<!-- cudadecon -->
<g id="node27" class="node">
<title>cudadecon</title>
<g id="a_node27"><a xlink:href="https://github.com/conda-forge/cudadecon-feedstock/pull/30" xlink:title="cudadecon ✓">
<ellipse fill="#31688e" stroke="black" cx="713.55" cy="-466" rx="72.25" ry="18"/>
<text text-anchor="middle" x="713.55" y="-461.32" font-family="Times,serif" font-size="14.00" fill="white">cudadecon ✓</text>
</a>
</g>
</g>
<!-- pycuda&#45;&gt;cudadecon -->
<!-- tsid -->
<g id="node28" class="node">
<title>tsid</title>
<g id="a_node28"><a xlink:href="https://github.com/conda-forge/tsid-feedstock/pull/33" xlink:title="tsid ❎">
<ellipse fill="#31688e" stroke="black" cx="713.55" cy="-394" rx="45.42" ry="18"/>
<text text-anchor="middle" x="713.55" y="-389.32" font-family="Times,serif" font-size="14.00" fill="white">tsid ❎</text>
</a>
</g>
</g>
<!-- cudadecon&#45;&gt;tsid -->
<!-- cudasirecon -->
<g id="node29" class="node">
<title>cudasirecon</title>
<g id="a_node29"><a xlink:href="https://github.com/conda-forge/cudasirecon-feedstock/pull/29" xlink:title="cudasirecon ❎">
<ellipse fill="#31688e" stroke="black" cx="713.55" cy="-322" rx="86.46" ry="18"/>
<text text-anchor="middle" x="713.55" y="-317.32" font-family="Times,serif" font-size="14.00" fill="white">cudasirecon ❎</text>
</a>
</g>
</g>
<!-- tsid&#45;&gt;cudasirecon -->
<!-- vina -->
<g id="node30" class="node">
<title>vina</title>
<g id="a_node30"><a xlink:href="https://github.com/conda-forge/vina-feedstock/pull/16" xlink:title="vina ❎">
<ellipse fill="#31688e" stroke="black" cx="971.55" cy="-970" rx="47.53" ry="18"/>
<text text-anchor="middle" x="971.55" y="-965.33" font-family="Times,serif" font-size="14.00" fill="white">vina ❎</text>
</a>
</g>
</g>
<!-- vmtk -->
<g id="node31" class="node">
<title>vmtk</title>
<g id="a_node31"><a xlink:href="https://github.com/conda-forge/vmtk-feedstock/pull/23" xlink:title="vmtk ❎">
<ellipse fill="#31688e" stroke="black" cx="971.55" cy="-898" rx="51.74" ry="18"/>
<text text-anchor="middle" x="971.55" y="-893.33" font-family="Times,serif" font-size="14.00" fill="white">vmtk ❎</text>
</a>
</g>
</g>
<!-- vina&#45;&gt;vmtk -->
<!-- rstudio -->
<g id="node32" class="node">
<title>rstudio</title>
<g id="a_node32"><a xlink:href="https://github.com/conda-forge/rstudio-feedstock/pull/30" xlink:title="rstudio ❎">
<ellipse fill="#31688e" stroke="black" cx="971.55" cy="-826" rx="62.26" ry="18"/>
<text text-anchor="middle" x="971.55" y="-821.33" font-family="Times,serif" font-size="14.00" fill="white">rstudio ❎</text>
</a>
</g>
</g>
<!-- vmtk&#45;&gt;rstudio -->
<!-- xilinx&#45;runtime -->
<g id="node33" class="node">
<title>xilinx&#45;runtime</title>
<g id="a_node33"><a xlink:href="https://github.com/conda-forge/xilinx-runtime-feedstock/pull/34" xlink:title="xilinx runtime ❎">
<ellipse fill="#31688e" stroke="black" cx="971.55" cy="-754" rx="96.98" ry="18"/>
<text text-anchor="middle" x="971.55" y="-749.33" font-family="Times,serif" font-size="14.00" fill="white">xilinx runtime ❎</text>
</a>
</g>
</g>
<!-- rstudio&#45;&gt;xilinx&#45;runtime -->
<!-- qtmolecularnetwork -->
<g id="node34" class="node">
<title>qtmolecularnetwork</title>
<g id="a_node34"><a xlink:href="https://github.com/conda-forge/qtmolecularnetwork-feedstock/pull/16" xlink:title="qtmolecularnetwork ❎">
<ellipse fill="#31688e" stroke="black" cx="971.55" cy="-682" rx="127.49" ry="18"/>
<text text-anchor="middle" x="971.55" y="-677.33" font-family="Times,serif" font-size="14.00" fill="white">qtmolecularnetwork ❎</text>
</a>
</g>
</g>
<!-- xilinx&#45;runtime&#45;&gt;qtmolecularnetwork -->
<!-- hdk -->
<g id="node35" class="node">
<title>hdk</title>
<g id="a_node35"><a xlink:href="https://github.com/conda-forge/hdk-feedstock" xlink:title="hdk">
<ellipse fill="#000000" stroke="black" cx="971.55" cy="-610" rx="29.64" ry="18"/>
<text text-anchor="middle" x="971.55" y="-605.33" font-family="Times,serif" font-size="14.00" fill="white">hdk</text>
</a>
</g>
</g>
<!-- qtmolecularnetwork&#45;&gt;hdk -->
<!-- river&#45;ingester -->
<g id="node36" class="node">
<title>river&#45;ingester</title>
<g id="a_node36"><a xlink:href="https://github.com/conda-forge/river-ingester-feedstock/pull/24" xlink:title="river ingester ❎">
<ellipse fill="#31688e" stroke="black" cx="971.55" cy="-538" rx="95.4" ry="18"/>
<text text-anchor="middle" x="971.55" y="-533.33" font-family="Times,serif" font-size="14.00" fill="white">river ingester ❎</text>
</a>
</g>
</g>
<!-- hdk&#45;&gt;river&#45;ingester -->
<!-- pygplates -->
<g id="node37" class="node">
<title>pygplates</title>
<g id="a_node37"><a xlink:href="https://github.com/conda-forge/pygplates-feedstock/pull/20" xlink:title="pygplates ❎">
<ellipse fill="#31688e" stroke="black" cx="971.55" cy="-466" rx="75.41" ry="18"/>
<text text-anchor="middle" x="971.55" y="-461.32" font-family="Times,serif" font-size="14.00" fill="white">pygplates ❎</text>
</a>
</g>
</g>
<!-- river&#45;ingester&#45;&gt;pygplates -->
<!-- pixsfm -->
<g id="node38" class="node">
<title>pixsfm</title>
<g id="a_node38"><a xlink:href="https://github.com/conda-forge/pixsfm-feedstock/pull/16" xlink:title="pixsfm ❎">
<ellipse fill="#31688e" stroke="black" cx="971.55" cy="-394" rx="60.15" ry="18"/>
<text text-anchor="middle" x="971.55" y="-389.32" font-family="Times,serif" font-size="14.00" fill="white">pixsfm ❎</text>
</a>
</g>
</g>
<!-- pygplates&#45;&gt;pixsfm -->
</g>
</svg>
