<?xml version="1.0" encoding="UTF-8" standalone="no"?>
<!DOCTYPE svg PUBLIC "-//W3C//DTD SVG 1.1//EN"
 "http://www.w3.org/Graphics/SVG/1.1/DTD/svg11.dtd">
<!-- Generated by graphviz version 9.0.0 (20231125.0833)
 -->
<!-- Pages: 1 -->
<svg width="1322pt" height="1068pt"
 viewBox="0.00 0.00 1322.49 1068.00" xmlns="http://www.w3.org/2000/svg" xmlns:xlink="http://www.w3.org/1999/xlink">
<g id="graph0" class="graph" transform="scale(1 1) rotate(0) translate(4 1064)">
<polygon fill="white" stroke="none" points="-4,4 -4,-1064 1318.49,-1064 1318.49,4 -4,4"/>
<!-- vigra -->
<g id="node1" class="node">
<title>vigra</title>
<g id="a_node1"><a xlink:href="https://github.com/conda-forge/vigra-feedstock/pull/131" xlink:title="vigra ❎">
<ellipse fill="#31688e" stroke="black" cx="1187" cy="-242" rx="52.26" ry="18"/>
<text text-anchor="middle" x="1187" y="-237.32" font-family="Times,serif" font-size="14.00" fill="white">vigra ❎</text>
</a>
</g>
</g>
<!-- hugin -->
<g id="node2" class="node">
<title>hugin</title>
<g id="a_node2"><a xlink:href="https://github.com/conda-forge/hugin-feedstock" xlink:title="hugin">
<ellipse fill="#fde725" stroke="black" cx="1187" cy="-170" rx="39.63" ry="18"/>
<text text-anchor="middle" x="1187" y="-165.32" font-family="Times,serif" font-size="14.00">hugin</text>
</a>
</g>
</g>
<!-- vigra&#45;&gt;hugin -->
<g id="edge1" class="edge">
<title>vigra&#45;&gt;hugin</title>
<path fill="none" stroke="black" d="M1187,-223.7C1187,-216.41 1187,-207.73 1187,-199.54"/>
<polygon fill="black" stroke="black" points="1190.5,-199.62 1187,-189.62 1183.5,-199.62 1190.5,-199.62"/>
</g>
<!-- smesh -->
<g id="node3" class="node">
<title>smesh</title>
<g id="a_node3"><a xlink:href="https://github.com/conda-forge/smesh-feedstock/pull/79" xlink:title="smesh ✓">
<ellipse fill="#31688e" stroke="black" cx="400" cy="-90" rx="51.21" ry="18"/>
<text text-anchor="middle" x="400" y="-85.33" font-family="Times,serif" font-size="14.00" fill="white">smesh ✓</text>
</a>
</g>
</g>
<!-- freecad -->
<g id="node4" class="node">
<title>freecad</title>
<g id="a_node4"><a xlink:href="https://github.com/conda-forge/freecad-feedstock" xlink:title="freecad">
<ellipse fill="#fde725" stroke="black" cx="400" cy="-18" rx="48.58" ry="18"/>
<text text-anchor="middle" x="400" y="-13.32" font-family="Times,serif" font-size="14.00">freecad</text>
</a>
</g>
</g>
<!-- smesh&#45;&gt;freecad -->
<g id="edge2" class="edge">
<title>smesh&#45;&gt;freecad</title>
<path fill="none" stroke="black" d="M400,-71.7C400,-64.41 400,-55.73 400,-47.54"/>
<polygon fill="black" stroke="black" points="403.5,-47.62 400,-37.62 396.5,-47.62 403.5,-47.62"/>
</g>
<!-- ldas&#45;tools&#45;frameapi -->
<g id="node5" class="node">
<title>ldas&#45;tools&#45;frameapi</title>
<g id="a_node5"><a xlink:href="https://github.com/conda-forge/ldas-tools-frameapi-feedstock/pull/18" xlink:title="ldas tools frameapi ❎">
<ellipse fill="#31688e" stroke="black" cx="930" cy="-242" rx="122.23" ry="18"/>
<text text-anchor="middle" x="930" y="-237.32" font-family="Times,serif" font-size="14.00" fill="white">ldas tools frameapi ❎</text>
</a>
</g>
</g>
<!-- ldas&#45;tools&#45;utilities -->
<g id="node6" class="node">
<title>ldas&#45;tools&#45;utilities</title>
<g id="a_node6"><a xlink:href="https://github.com/conda-forge/ldas-tools-utilities-feedstock" xlink:title="ldas tools utilities">
<ellipse fill="#fde725" stroke="black" cx="930" cy="-170" rx="100.66" ry="18"/>
<text text-anchor="middle" x="930" y="-165.32" font-family="Times,serif" font-size="14.00">ldas tools utilities</text>
</a>
</g>
</g>
<!-- ldas&#45;tools&#45;frameapi&#45;&gt;ldas&#45;tools&#45;utilities -->
<g id="edge3" class="edge">
<title>ldas&#45;tools&#45;frameapi&#45;&gt;ldas&#45;tools&#45;utilities</title>
<path fill="none" stroke="black" d="M930,-223.7C930,-216.41 930,-207.73 930,-199.54"/>
<polygon fill="black" stroke="black" points="933.5,-199.62 930,-189.62 926.5,-199.62 933.5,-199.62"/>
</g>
<!-- ambertools -->
<g id="node7" class="node">
<title>ambertools</title>
<g id="a_node7"><a xlink:href="https://github.com/conda-forge/ambertools-feedstock/pull/139" xlink:title="ambertools ❎">
<ellipse fill="#31688e" stroke="black" cx="930" cy="-1042" rx="82.77" ry="18"/>
<text text-anchor="middle" x="930" y="-1037.33" font-family="Times,serif" font-size="14.00" fill="white">ambertools ❎</text>
</a>
</g>
</g>
<!-- ifcopenshell -->
<g id="node8" class="node">
<title>ifcopenshell</title>
<g id="a_node8"><a xlink:href="https://github.com/conda-forge/ifcopenshell-feedstock/pull/46" xlink:title="ifcopenshell ❎">
<ellipse fill="#31688e" stroke="black" cx="930" cy="-970" rx="86.46" ry="18"/>
<text text-anchor="middle" x="930" y="-965.33" font-family="Times,serif" font-size="14.00" fill="white">ifcopenshell ❎</text>
</a>
</g>
</g>
<!-- ambertools&#45;&gt;ifcopenshell -->
<!-- dcgp&#45;python -->
<g id="node9" class="node">
<title>dcgp&#45;python</title>
<g id="a_node9"><a xlink:href="https://github.com/conda-forge/dcgp-python-feedstock/pull/24" xlink:title="dcgp python ❎">
<ellipse fill="#31688e" stroke="black" cx="930" cy="-898" rx="88.56" ry="18"/>
<text text-anchor="middle" x="930" y="-893.33" font-family="Times,serif" font-size="14.00" fill="white">dcgp python ❎</text>
</a>
</g>
</g>
<!-- ifcopenshell&#45;&gt;dcgp&#45;python -->
<!-- odil -->
<g id="node10" class="node">
<title>odil</title>
<g id="a_node10"><a xlink:href="https://github.com/conda-forge/odil-feedstock/pull/31" xlink:title="odil ❎">
<ellipse fill="#31688e" stroke="black" cx="930" cy="-826" rx="44.9" ry="18"/>
<text text-anchor="middle" x="930" y="-821.33" font-family="Times,serif" font-size="14.00" fill="white">odil ❎</text>
</a>
</g>
</g>
<!-- dcgp&#45;python&#45;&gt;odil -->
<!-- ompl -->
<g id="node14" class="node">
<title>ompl</title>
<g id="a_node14"><a xlink:href="https://github.com/conda-forge/ompl-feedstock/pull/35" xlink:title="ompl ❎">
<ellipse fill="#31688e" stroke="black" cx="930" cy="-754" rx="51.21" ry="18"/>
<text text-anchor="middle" x="930" y="-749.33" font-family="Times,serif" font-size="14.00" fill="white">ompl ❎</text>
</a>
</g>
</g>
<!-- odil&#45;&gt;ompl -->
<!-- gnuradio -->
<g id="node11" class="node">
<title>gnuradio</title>
<g id="a_node11"><a xlink:href="https://github.com/conda-forge/gnuradio-feedstock/pull/262" xlink:title="gnuradio ❎">
<ellipse fill="#31688e" stroke="black" cx="447" cy="-278" rx="71.2" ry="18"/>
<text text-anchor="middle" x="447" y="-273.32" font-family="Times,serif" font-size="14.00" fill="white">gnuradio ❎</text>
</a>
</g>
</g>
<!-- gnuradio&#45;osmosdr -->
<g id="node12" class="node">
<title>gnuradio&#45;osmosdr</title>
<g id="a_node12"><a xlink:href="https://github.com/conda-forge/gnuradio-osmosdr-feedstock" xlink:title="gnuradio osmosdr">
<ellipse fill="#fde725" stroke="black" cx="382" cy="-206" rx="101.71" ry="18"/>
<text text-anchor="middle" x="382" y="-201.33" font-family="Times,serif" font-size="14.00">gnuradio osmosdr</text>
</a>
</g>
</g>
<!-- gnuradio&#45;&gt;gnuradio&#45;osmosdr -->
<g id="edge7" class="edge">
<title>gnuradio&#45;&gt;gnuradio&#45;osmosdr</title>
<path fill="none" stroke="black" d="M431.27,-260.05C423.44,-251.63 413.83,-241.28 405.18,-231.97"/>
<polygon fill="black" stroke="black" points="407.99,-229.84 398.62,-224.9 402.86,-234.61 407.99,-229.84"/>
</g>
<!-- gnss&#45;sdr -->
<g id="node13" class="node">
<title>gnss&#45;sdr</title>
<g id="a_node13"><a xlink:href="https://github.com/conda-forge/gnss-sdr-feedstock" xlink:title="gnss sdr">
<ellipse fill="#fde725" stroke="black" cx="447" cy="-134" rx="53.84" ry="18"/>
<text text-anchor="middle" x="447" y="-129.32" font-family="Times,serif" font-size="14.00">gnss sdr</text>
</a>
</g>
</g>
<!-- gnuradio&#45;&gt;gnss&#45;sdr -->
<g id="edge8" class="edge">
<title>gnuradio&#45;&gt;gnss&#45;sdr</title>
<path fill="none" stroke="black" d="M466.86,-260.55C476.76,-251.03 487.71,-238.15 493,-224 498.6,-209.01 498.6,-202.99 493,-188 489.01,-177.33 481.8,-167.38 474.25,-159.05"/>
<polygon fill="black" stroke="black" points="476.93,-156.79 467.44,-152.08 471.93,-161.68 476.93,-156.79"/>
</g>
<!-- gnuradio&#45;osmosdr&#45;&gt;gnss&#45;sdr -->
<g id="edge9" class="edge">
<title>gnuradio&#45;osmosdr&#45;&gt;gnss&#45;sdr</title>
<path fill="none" stroke="black" d="M397.73,-188.05C405.67,-179.5 415.45,-168.97 424.2,-159.56"/>
<polygon fill="black" stroke="black" points="426.59,-162.13 430.83,-152.42 421.46,-157.36 426.59,-162.13"/>
</g>
<!-- smina -->
<g id="node15" class="node">
<title>smina</title>
<g id="a_node15"><a xlink:href="https://github.com/conda-forge/smina-feedstock/pull/3" xlink:title="smina ❎">
<ellipse fill="#31688e" stroke="black" cx="930" cy="-682" rx="56.47" ry="18"/>
<text text-anchor="middle" x="930" y="-677.33" font-family="Times,serif" font-size="14.00" fill="white">smina ❎</text>
</a>
</g>
</g>
<!-- ompl&#45;&gt;smina -->
<!-- scipoptsuite -->
<g id="node28" class="node">
<title>scipoptsuite</title>
<g id="a_node28"><a xlink:href="https://github.com/conda-forge/scipoptsuite-feedstock/pull/64" xlink:title="scipoptsuite ❎">
<ellipse fill="#31688e" stroke="black" cx="930" cy="-610" rx="87.51" ry="18"/>
<text text-anchor="middle" x="930" y="-605.33" font-family="Times,serif" font-size="14.00" fill="white">scipoptsuite ❎</text>
</a>
</g>
</g>
<!-- smina&#45;&gt;scipoptsuite -->
<!-- hpp&#45;corbaserver -->
<g id="node16" class="node">
<title>hpp&#45;corbaserver</title>
<g id="a_node16"><a xlink:href="https://github.com/conda-forge/hpp-corbaserver-feedstock" xlink:title="hpp corbaserver">
<ellipse fill="#fde725" stroke="black" cx="159" cy="-754" rx="93.3" ry="18"/>
<text text-anchor="middle" x="159" y="-749.33" font-family="Times,serif" font-size="14.00">hpp corbaserver</text>
</a>
</g>
</g>
<!-- hpp&#45;manipulation&#45;corba -->
<g id="node17" class="node">
<title>hpp&#45;manipulation&#45;corba</title>
<g id="a_node17"><a xlink:href="https://github.com/conda-forge/hpp-manipulation-corba-feedstock" xlink:title="hpp manipulation corba">
<ellipse fill="#fde725" stroke="black" cx="390" cy="-610" rx="130.13" ry="18"/>
<text text-anchor="middle" x="390" y="-605.33" font-family="Times,serif" font-size="14.00">hpp manipulation corba</text>
</a>
</g>
</g>
<!-- hpp&#45;corbaserver&#45;&gt;hpp&#45;manipulation&#45;corba -->
<g id="edge12" class="edge">
<title>hpp&#45;corbaserver&#45;&gt;hpp&#45;manipulation&#45;corba</title>
<path fill="none" stroke="black" d="M187.65,-736.49C204.83,-726.36 226.96,-712.89 246,-700 268.08,-685.05 271.61,-678.48 294,-664 310.81,-653.13 330.02,-642.24 346.8,-633.19"/>
<polygon fill="black" stroke="black" points="348.39,-636.31 355.57,-628.52 345.1,-630.14 348.39,-636.31"/>
</g>
<!-- hpp&#45;gepetto&#45;viewer -->
<g id="node18" class="node">
<title>hpp&#45;gepetto&#45;viewer</title>
<g id="a_node18"><a xlink:href="https://github.com/conda-forge/hpp-gepetto-viewer-feedstock" xlink:title="hpp gepetto viewer">
<ellipse fill="#fde725" stroke="black" cx="686" cy="-538" rx="108.55" ry="18"/>
<text text-anchor="middle" x="686" y="-533.33" font-family="Times,serif" font-size="14.00">hpp gepetto viewer</text>
</a>
</g>
</g>
<!-- hpp&#45;corbaserver&#45;&gt;hpp&#45;gepetto&#45;viewer -->
<g id="edge13" class="edge">
<title>hpp&#45;corbaserver&#45;&gt;hpp&#45;gepetto&#45;viewer</title>
<path fill="none" stroke="black" d="M169.12,-735.85C175.21,-725.49 183.09,-712.01 190,-700 217.47,-652.21 205.16,-622.62 251,-592 301.27,-558.42 456.76,-546.11 567.46,-541.6"/>
<polygon fill="black" stroke="black" points="567.33,-545.11 577.19,-541.22 567.06,-538.11 567.33,-545.11"/>
</g>
<!-- hpp&#45;plot -->
<g id="node19" class="node">
<title>hpp&#45;plot</title>
<g id="a_node19"><a xlink:href="https://github.com/conda-forge/hpp-plot-feedstock" xlink:title="hpp plot">
<ellipse fill="#fde725" stroke="black" cx="297" cy="-538" rx="52.79" ry="18"/>
<text text-anchor="middle" x="297" y="-533.33" font-family="Times,serif" font-size="14.00">hpp plot</text>
</a>
</g>
</g>
<!-- hpp&#45;corbaserver&#45;&gt;hpp&#45;plot -->
<g id="edge14" class="edge">
<title>hpp&#45;corbaserver&#45;&gt;hpp&#45;plot</title>
<path fill="none" stroke="black" d="M161.69,-735.78C167.33,-704.33 182.89,-636.72 218,-592 228.42,-578.72 243.11,-567.6 257,-559.03"/>
<polygon fill="black" stroke="black" points="258.73,-562.07 265.6,-554.01 255.2,-556.03 258.73,-562.07"/>
</g>
<!-- hpp&#45;tutorial -->
<g id="node20" class="node">
<title>hpp&#45;tutorial</title>
<g id="a_node20"><a xlink:href="https://github.com/conda-forge/hpp-tutorial-feedstock" xlink:title="hpp tutorial">
<ellipse fill="#fde725" stroke="black" cx="156" cy="-538" rx="70.68" ry="18"/>
<text text-anchor="middle" x="156" y="-533.33" font-family="Times,serif" font-size="14.00">hpp tutorial</text>
</a>
</g>
</g>
<!-- hpp&#45;corbaserver&#45;&gt;hpp&#45;tutorial -->
<g id="edge15" class="edge">
<title>hpp&#45;corbaserver&#45;&gt;hpp&#45;tutorial</title>
<path fill="none" stroke="black" d="M151.93,-735.67C148.16,-725.47 143.91,-712.22 142,-700 134.58,-652.58 135.82,-639.6 142,-592 143.07,-583.76 145.04,-574.97 147.17,-566.97"/>
<polygon fill="black" stroke="black" points="150.52,-567.99 149.91,-557.42 143.79,-566.07 150.52,-567.99"/>
</g>
<!-- hpp&#45;manipulation&#45;corba&#45;&gt;hpp&#45;gepetto&#45;viewer -->
<g id="edge16" class="edge">
<title>hpp&#45;manipulation&#45;corba&#45;&gt;hpp&#45;gepetto&#45;viewer</title>
<path fill="none" stroke="black" d="M453.86,-593.9C501.01,-582.75 565.21,-567.57 614.14,-555.99"/>
<polygon fill="black" stroke="black" points="614.89,-559.41 623.81,-553.71 613.27,-552.6 614.89,-559.41"/>
</g>
<!-- hpp&#45;manipulation&#45;corba&#45;&gt;hpp&#45;plot -->
<g id="edge17" class="edge">
<title>hpp&#45;manipulation&#45;corba&#45;&gt;hpp&#45;plot</title>
<path fill="none" stroke="black" d="M367.49,-592.05C355.38,-582.94 340.27,-571.57 327.16,-561.7"/>
<polygon fill="black" stroke="black" points="329.33,-558.96 319.24,-555.74 325.12,-564.55 329.33,-558.96"/>
</g>
<!-- hpp&#45;manipulation&#45;corba&#45;&gt;hpp&#45;tutorial -->
<g id="edge18" class="edge">
<title>hpp&#45;manipulation&#45;corba&#45;&gt;hpp&#45;tutorial</title>
<path fill="none" stroke="black" d="M336.9,-593.12C299.47,-581.92 249.45,-566.95 211.49,-555.6"/>
<polygon fill="black" stroke="black" points="212.66,-552.3 202.08,-552.79 210.66,-559 212.66,-552.3"/>
</g>
<!-- hpp&#45;practicals -->
<g id="node21" class="node">
<title>hpp&#45;practicals</title>
<g id="a_node21"><a xlink:href="https://github.com/conda-forge/hpp-practicals-feedstock" xlink:title="hpp practicals">
<ellipse fill="#fde725" stroke="black" cx="289" cy="-466" rx="82.25" ry="18"/>
<text text-anchor="middle" x="289" y="-461.32" font-family="Times,serif" font-size="14.00">hpp practicals</text>
</a>
</g>
</g>
<!-- hpp&#45;plot&#45;&gt;hpp&#45;practicals -->
<g id="edge19" class="edge">
<title>hpp&#45;plot&#45;&gt;hpp&#45;practicals</title>
<path fill="none" stroke="black" d="M295.02,-519.7C294.19,-512.41 293.2,-503.73 292.26,-495.54"/>
<polygon fill="black" stroke="black" points="295.74,-495.15 291.13,-485.61 288.78,-495.94 295.74,-495.15"/>
</g>
<!-- hpp&#45;doc -->
<g id="node22" class="node">
<title>hpp&#45;doc</title>
<g id="a_node22"><a xlink:href="https://github.com/conda-forge/hpp-doc-feedstock" xlink:title="hpp doc">
<ellipse fill="#fde725" stroke="black" cx="226" cy="-394" rx="50.68" ry="18"/>
<text text-anchor="middle" x="226" y="-389.32" font-family="Times,serif" font-size="14.00">hpp doc</text>
</a>
</g>
</g>
<!-- hpp&#45;tutorial&#45;&gt;hpp&#45;doc -->
<g id="edge20" class="edge">
<title>hpp&#45;tutorial&#45;&gt;hpp&#45;doc</title>
<path fill="none" stroke="black" d="M163.82,-519.83C172.09,-501.82 185.63,-472.76 198,-448 202.25,-439.49 207.04,-430.3 211.43,-422"/>
<polygon fill="black" stroke="black" points="214.39,-423.89 216.01,-413.42 208.22,-420.6 214.39,-423.89"/>
</g>
<!-- hpp&#45;practicals&#45;&gt;hpp&#45;doc -->
<g id="edge59" class="edge">
<title>hpp&#45;practicals&#45;&gt;hpp&#45;doc</title>
<path fill="none" stroke="black" d="M273.75,-448.05C266.13,-439.59 256.77,-429.19 248.36,-419.84"/>
<polygon fill="black" stroke="black" points="250.98,-417.52 241.69,-412.43 245.78,-422.21 250.98,-417.52"/>
</g>
<!-- hpp&#45;core -->
<g id="node23" class="node">
<title>hpp&#45;core</title>
<g id="a_node23"><a xlink:href="https://github.com/conda-forge/hpp-core-feedstock" xlink:title="hpp core">
<ellipse fill="#fde725" stroke="black" cx="457" cy="-826" rx="54.89" ry="18"/>
<text text-anchor="middle" x="457" y="-821.33" font-family="Times,serif" font-size="14.00">hpp core</text>
</a>
</g>
</g>
<!-- hpp&#45;core&#45;&gt;hpp&#45;corbaserver -->
<g id="edge21" class="edge">
<title>hpp&#45;core&#45;&gt;hpp&#45;corbaserver</title>
<path fill="none" stroke="black" d="M413.35,-814.75C364.55,-803.28 284.87,-784.57 227.7,-771.14"/>
<polygon fill="black" stroke="black" points="228.59,-767.75 218.05,-768.87 226.99,-774.57 228.59,-767.75"/>
</g>
<!-- hpp&#45;core&#45;&gt;hpp&#45;manipulation&#45;corba -->
<g id="edge22" class="edge">
<title>hpp&#45;core&#45;&gt;hpp&#45;manipulation&#45;corba</title>
<path fill="none" stroke="black" d="M439.62,-808.83C417.3,-786.76 379.71,-744.8 365,-700 358.28,-679.54 365.47,-656.09 373.84,-638.39"/>
<polygon fill="black" stroke="black" points="376.93,-640.03 378.39,-629.54 370.7,-636.83 376.93,-640.03"/>
</g>
<!-- hpp&#45;core&#45;&gt;hpp&#45;gepetto&#45;viewer -->
<g id="edge23" class="edge">
<title>hpp&#45;core&#45;&gt;hpp&#45;gepetto&#45;viewer</title>
<path fill="none" stroke="black" d="M507.23,-818.63C562.24,-810.6 645.51,-795.02 667,-772 719.2,-716.09 704.84,-616.22 693.63,-567.42"/>
<polygon fill="black" stroke="black" points="697.08,-566.8 691.32,-557.91 690.28,-568.46 697.08,-566.8"/>
</g>
<!-- hpp&#45;core&#45;&gt;hpp&#45;tutorial -->
<g id="edge24" class="edge">
<title>hpp&#45;core&#45;&gt;hpp&#45;tutorial</title>
<path fill="none" stroke="black" d="M431.8,-809.79C416.03,-799.82 395.63,-786.06 379,-772 298.38,-703.81 215.52,-609.64 177.48,-564.78"/>
<polygon fill="black" stroke="black" points="180.15,-562.52 171.03,-557.13 174.8,-567.04 180.15,-562.52"/>
</g>
<!-- hpp&#45;manipulation&#45;urdf -->
<g id="node24" class="node">
<title>hpp&#45;manipulation&#45;urdf</title>
<g id="a_node24"><a xlink:href="https://github.com/conda-forge/hpp-manipulation-urdf-feedstock" xlink:title="hpp manipulation urdf">
<ellipse fill="#fde725" stroke="black" cx="497" cy="-682" rx="123.29" ry="18"/>
<text text-anchor="middle" x="497" y="-677.33" font-family="Times,serif" font-size="14.00">hpp manipulation urdf</text>
</a>
</g>
</g>
<!-- hpp&#45;core&#45;&gt;hpp&#45;manipulation&#45;urdf -->
<g id="edge25" class="edge">
<title>hpp&#45;core&#45;&gt;hpp&#45;manipulation&#45;urdf</title>
<path fill="none" stroke="black" d="M451.7,-807.66C447.02,-789.26 442.17,-759.65 451,-736 454.82,-725.77 461.6,-716.21 468.8,-708.11"/>
<polygon fill="black" stroke="black" points="471.21,-710.65 475.61,-701.01 466.16,-705.8 471.21,-710.65"/>
</g>
<!-- hpp&#45;manipulation -->
<g id="node25" class="node">
<title>hpp&#45;manipulation</title>
<g id="a_node25"><a xlink:href="https://github.com/conda-forge/hpp-manipulation-feedstock" xlink:title="hpp manipulation">
<ellipse fill="#fde725" stroke="black" cx="559" cy="-754" rx="99.08" ry="18"/>
<text text-anchor="middle" x="559" y="-749.33" font-family="Times,serif" font-size="14.00">hpp manipulation</text>
</a>
</g>
</g>
<!-- hpp&#45;core&#45;&gt;hpp&#45;manipulation -->
<g id="edge26" class="edge">
<title>hpp&#45;core&#45;&gt;hpp&#45;manipulation</title>
<path fill="none" stroke="black" d="M479.89,-809.29C493.19,-800.16 510.2,-788.49 525.03,-778.31"/>
<polygon fill="black" stroke="black" points="526.89,-781.28 533.16,-772.74 522.93,-775.51 526.89,-781.28"/>
</g>
<!-- hpp&#45;manipulation&#45;urdf&#45;&gt;hpp&#45;manipulation&#45;corba -->
<g id="edge27" class="edge">
<title>hpp&#45;manipulation&#45;urdf&#45;&gt;hpp&#45;manipulation&#45;corba</title>
<path fill="none" stroke="black" d="M471.1,-664.05C457.4,-655.09 440.38,-643.96 425.47,-634.2"/>
<polygon fill="black" stroke="black" points="427.59,-631.41 417.3,-628.86 423.75,-637.26 427.59,-631.41"/>
</g>
<!-- hpp&#45;manipulation&#45;urdf&#45;&gt;hpp&#45;gepetto&#45;viewer -->
<g id="edge28" class="edge">
<title>hpp&#45;manipulation&#45;urdf&#45;&gt;hpp&#45;gepetto&#45;viewer</title>
<path fill="none" stroke="black" d="M519.8,-663.87C553.38,-638.64 616.26,-591.4 654.31,-562.81"/>
<polygon fill="black" stroke="black" points="656.31,-565.68 662.21,-556.88 652.11,-560.09 656.31,-565.68"/>
</g>
<!-- hpp&#45;manipulation&#45;&gt;hpp&#45;manipulation&#45;corba -->
<g id="edge29" class="edge">
<title>hpp&#45;manipulation&#45;&gt;hpp&#45;manipulation&#45;corba</title>
<path fill="none" stroke="black" d="M592.21,-736.76C606.28,-727.99 621.2,-715.7 629,-700 636.12,-685.67 639.01,-676.48 629,-664 612.83,-643.85 558.09,-630.88 505.08,-622.82"/>
<polygon fill="black" stroke="black" points="505.71,-619.38 495.31,-621.39 504.7,-626.3 505.71,-619.38"/>
</g>
<!-- hpp&#45;manipulation&#45;&gt;hpp&#45;gepetto&#45;viewer -->
<g id="edge30" class="edge">
<title>hpp&#45;manipulation&#45;&gt;hpp&#45;gepetto&#45;viewer</title>
<path fill="none" stroke="black" d="M598.59,-737.17C615.51,-728.54 634.06,-716.25 646,-700 675.13,-660.34 683.2,-601.91 685.34,-567.42"/>
<polygon fill="black" stroke="black" points="688.82,-567.96 685.8,-557.8 681.82,-567.63 688.82,-567.96"/>
</g>
<!-- hpp&#45;manipulation&#45;&gt;hpp&#45;manipulation&#45;urdf -->
<g id="edge31" class="edge">
<title>hpp&#45;manipulation&#45;&gt;hpp&#45;manipulation&#45;urdf</title>
<path fill="none" stroke="black" d="M543.99,-736.05C536.71,-727.84 527.81,-717.79 519.73,-708.66"/>
<polygon fill="black" stroke="black" points="522.55,-706.57 513.3,-701.41 517.31,-711.21 522.55,-706.57"/>
</g>
<!-- hpp&#45;constraints -->
<g id="node26" class="node">
<title>hpp&#45;constraints</title>
<g id="a_node26"><a xlink:href="https://github.com/conda-forge/hpp-constraints-feedstock" xlink:title="hpp constraints">
<ellipse fill="#fde725" stroke="black" cx="374" cy="-898" rx="89.61" ry="18"/>
<text text-anchor="middle" x="374" y="-893.33" font-family="Times,serif" font-size="14.00">hpp constraints</text>
</a>
</g>
</g>
<!-- hpp&#45;constraints&#45;&gt;hpp&#45;corbaserver -->
<g id="edge32" class="edge">
<title>hpp&#45;constraints&#45;&gt;hpp&#45;corbaserver</title>
<path fill="none" stroke="black" d="M336.58,-881.29C315.22,-871.69 288.35,-858.48 266,-844 236.37,-824.8 205.7,-798.52 184.84,-779.5"/>
<polygon fill="black" stroke="black" points="187.36,-777.07 177.64,-772.86 182.62,-782.21 187.36,-777.07"/>
</g>
<!-- hpp&#45;constraints&#45;&gt;hpp&#45;manipulation&#45;corba -->
<g id="edge33" class="edge">
<title>hpp&#45;constraints&#45;&gt;hpp&#45;manipulation&#45;corba</title>
<path fill="none" stroke="black" d="M369.12,-879.66C358.88,-840.45 337.8,-742.25 359,-664 361.47,-654.88 365.94,-645.73 370.74,-637.66"/>
<polygon fill="black" stroke="black" points="373.6,-639.68 376.04,-629.37 367.7,-635.91 373.6,-639.68"/>
</g>
<!-- hpp&#45;constraints&#45;&gt;hpp&#45;gepetto&#45;viewer -->
<g id="edge34" class="edge">
<title>hpp&#45;constraints&#45;&gt;hpp&#45;gepetto&#45;viewer</title>
<path fill="none" stroke="black" d="M443.37,-886.23C554.97,-866.92 762,-822.07 762,-755 762,-755 762,-755 762,-681 762,-636.03 732.01,-591.52 709.71,-564.64"/>
<polygon fill="black" stroke="black" points="712.64,-562.69 703.48,-557.38 707.33,-567.25 712.64,-562.69"/>
</g>
<!-- hpp&#45;constraints&#45;&gt;hpp&#45;core -->
<g id="edge35" class="edge">
<title>hpp&#45;constraints&#45;&gt;hpp&#45;core</title>
<path fill="none" stroke="black" d="M394.09,-880.05C404.54,-871.24 417.48,-860.33 428.91,-850.69"/>
<polygon fill="black" stroke="black" points="431.12,-853.41 436.51,-844.28 426.61,-848.05 431.12,-853.41"/>
</g>
<!-- hpp&#45;constraints&#45;&gt;hpp&#45;manipulation&#45;urdf -->
<g id="edge36" class="edge">
<title>hpp&#45;constraints&#45;&gt;hpp&#45;manipulation&#45;urdf</title>
<path fill="none" stroke="black" d="M375.65,-879.65C377.86,-861.25 382.77,-831.63 393,-808 410.26,-768.14 444.34,-731.04 468.79,-707.78"/>
<polygon fill="black" stroke="black" points="470.94,-710.56 475.88,-701.18 466.18,-705.43 470.94,-710.56"/>
</g>
<!-- hpp&#45;constraints&#45;&gt;hpp&#45;manipulation -->
<g id="edge37" class="edge">
<title>hpp&#45;constraints&#45;&gt;hpp&#45;manipulation</title>
<path fill="none" stroke="black" d="M439.87,-885.46C467.73,-877.72 498.81,-864.95 521,-844 538.08,-827.88 547.83,-802.83 553.17,-783.41"/>
<polygon fill="black" stroke="black" points="556.52,-784.47 555.53,-773.92 549.72,-782.78 556.52,-784.47"/>
</g>
<!-- hpp&#45;pinocchio -->
<g id="node27" class="node">
<title>hpp&#45;pinocchio</title>
<g id="a_node27"><a xlink:href="https://github.com/conda-forge/hpp-pinocchio-feedstock/pull/25" xlink:title="hpp pinocchio ❎">
<ellipse fill="#31688e" stroke="black" cx="433" cy="-970" rx="95.93" ry="18"/>
<text text-anchor="middle" x="433" y="-965.33" font-family="Times,serif" font-size="14.00" fill="white">hpp pinocchio ❎</text>
</a>
</g>
</g>
<!-- hpp&#45;pinocchio&#45;&gt;hpp&#45;corbaserver -->
<g id="edge38" class="edge">
<title>hpp&#45;pinocchio&#45;&gt;hpp&#45;corbaserver</title>
<path fill="none" stroke="black" d="M368.87,-956.2C338.56,-948.06 302.98,-935.31 275,-916 225.28,-881.69 189.24,-818.84 171.48,-782.65"/>
<polygon fill="black" stroke="black" points="174.67,-781.22 167.21,-773.7 168.35,-784.23 174.67,-781.22"/>
</g>
<!-- hpp&#45;pinocchio&#45;&gt;hpp&#45;manipulation&#45;corba -->
<g id="edge39" class="edge">
<title>hpp&#45;pinocchio&#45;&gt;hpp&#45;manipulation&#45;corba</title>
<path fill="none" stroke="black" d="M359.63,-958C245.4,-938.79 38,-894.59 38,-827 38,-827 38,-827 38,-753 38,-695.62 200.9,-650.59 305.07,-627.67"/>
<polygon fill="black" stroke="black" points="305.7,-631.11 314.73,-625.57 304.22,-624.27 305.7,-631.11"/>
</g>
<!-- hpp&#45;pinocchio&#45;&gt;hpp&#45;gepetto&#45;viewer -->
<g id="edge40" class="edge">
<title>hpp&#45;pinocchio&#45;&gt;hpp&#45;gepetto&#45;viewer</title>
<path fill="none" stroke="black" d="M501.17,-957.04C607.3,-936.46 800,-890.37 800,-827 800,-827 800,-827 800,-681 800,-630.28 755.24,-587.37 721.81,-562.39"/>
<polygon fill="black" stroke="black" points="724.11,-559.74 713.95,-556.72 720.01,-565.41 724.11,-559.74"/>
</g>
<!-- hpp&#45;pinocchio&#45;&gt;hpp&#45;tutorial -->
<g id="edge41" class="edge">
<title>hpp&#45;pinocchio&#45;&gt;hpp&#45;tutorial</title>
<path fill="none" stroke="black" d="M345.53,-962.35C257.08,-954.46 127.3,-939.36 83,-916 35.16,-890.77 0,-881.09 0,-827 0,-827 0,-827 0,-681 0,-621.71 62.39,-580.62 108.25,-558.42"/>
<polygon fill="black" stroke="black" points="109.68,-561.62 117.26,-554.22 106.72,-555.28 109.68,-561.62"/>
</g>
<!-- hpp&#45;pinocchio&#45;&gt;hpp&#45;core -->
<g id="edge42" class="edge">
<title>hpp&#45;pinocchio&#45;&gt;hpp&#45;core</title>
<path fill="none" stroke="black" d="M450.32,-952.07C458.93,-942.41 468.46,-929.55 473,-916 479.7,-896 474.96,-872.48 468.94,-854.64"/>
<polygon fill="black" stroke="black" points="472.31,-853.67 465.55,-845.51 465.75,-856.11 472.31,-853.67"/>
</g>
<!-- hpp&#45;pinocchio&#45;&gt;hpp&#45;manipulation&#45;urdf -->
<g id="edge43" class="edge">
<title>hpp&#45;pinocchio&#45;&gt;hpp&#45;manipulation&#45;urdf</title>
<path fill="none" stroke="black" d="M468.41,-952.92C524.12,-925.3 629.72,-862.9 667,-772 673.07,-757.2 676.48,-748.89 667,-736 652.77,-716.65 631.51,-704.17 608.81,-696.16"/>
<polygon fill="black" stroke="black" points="609.97,-692.86 599.38,-693.14 607.84,-699.52 609.97,-692.86"/>
</g>
<!-- hpp&#45;pinocchio&#45;&gt;hpp&#45;manipulation -->
<g id="edge44" class="edge">
<title>hpp&#45;pinocchio&#45;&gt;hpp&#45;manipulation</title>
<path fill="none" stroke="black" d="M455.8,-952.07C482.96,-930.41 527.16,-890.14 547,-844 555.16,-825.03 558.09,-801.87 559.01,-783.93"/>
<polygon fill="black" stroke="black" points="562.51,-784.08 559.33,-773.97 555.51,-783.86 562.51,-784.08"/>
</g>
<!-- hpp&#45;pinocchio&#45;&gt;hpp&#45;constraints -->
<g id="edge45" class="edge">
<title>hpp&#45;pinocchio&#45;&gt;hpp&#45;constraints</title>
<path fill="none" stroke="black" d="M418.72,-952.05C411.76,-943.8 403.25,-933.7 395.52,-924.54"/>
<polygon fill="black" stroke="black" points="398.25,-922.34 389.13,-916.95 392.89,-926.85 398.25,-922.34"/>
</g>
<!-- pycuda -->
<g id="node29" class="node">
<title>pycuda</title>
<g id="a_node29"><a xlink:href="https://github.com/conda-forge/pycuda-feedstock/pull/38" xlink:title="pycuda ❎">
<ellipse fill="#31688e" stroke="black" cx="930" cy="-538" rx="62.26" ry="18"/>
<text text-anchor="middle" x="930" y="-533.33" font-family="Times,serif" font-size="14.00" fill="white">pycuda ❎</text>
</a>
</g>
</g>
<!-- scipoptsuite&#45;&gt;pycuda -->
<!-- cudadecon -->
<g id="node30" class="node">
<title>cudadecon</title>
<g id="a_node30"><a xlink:href="https://github.com/conda-forge/cudadecon-feedstock/pull/28" xlink:title="cudadecon ❎">
<ellipse fill="#31688e" stroke="black" cx="930" cy="-466" rx="79.62" ry="18"/>
<text text-anchor="middle" x="930" y="-461.32" font-family="Times,serif" font-size="14.00" fill="white">cudadecon ❎</text>
</a>
</g>
</g>
<!-- pycuda&#45;&gt;cudadecon -->
<!-- tsid -->
<g id="node31" class="node">
<title>tsid</title>
<g id="a_node31"><a xlink:href="https://github.com/conda-forge/tsid-feedstock/pull/33" xlink:title="tsid ❎">
<ellipse fill="#31688e" stroke="black" cx="930" cy="-394" rx="45.42" ry="18"/>
<text text-anchor="middle" x="930" y="-389.32" font-family="Times,serif" font-size="14.00" fill="white">tsid ❎</text>
</a>
</g>
</g>
<!-- cudadecon&#45;&gt;tsid -->
<!-- cudasirecon -->
<g id="node32" class="node">
<title>cudasirecon</title>
<g id="a_node32"><a xlink:href="https://github.com/conda-forge/cudasirecon-feedstock/pull/29" xlink:title="cudasirecon ❎">
<ellipse fill="#31688e" stroke="black" cx="930" cy="-322" rx="86.46" ry="18"/>
<text text-anchor="middle" x="930" y="-317.32" font-family="Times,serif" font-size="14.00" fill="white">cudasirecon ❎</text>
</a>
</g>
</g>
<!-- tsid&#45;&gt;cudasirecon -->
<!-- vina -->
<g id="node33" class="node">
<title>vina</title>
<g id="a_node33"><a xlink:href="https://github.com/conda-forge/vina-feedstock/pull/16" xlink:title="vina ❎">
<ellipse fill="#31688e" stroke="black" cx="1187" cy="-970" rx="47.53" ry="18"/>
<text text-anchor="middle" x="1187" y="-965.33" font-family="Times,serif" font-size="14.00" fill="white">vina ❎</text>
</a>
</g>
</g>
<!-- vmtk -->
<g id="node34" class="node">
<title>vmtk</title>
<g id="a_node34"><a xlink:href="https://github.com/conda-forge/vmtk-feedstock/pull/23" xlink:title="vmtk ❎">
<ellipse fill="#31688e" stroke="black" cx="1187" cy="-898" rx="51.74" ry="18"/>
<text text-anchor="middle" x="1187" y="-893.33" font-family="Times,serif" font-size="14.00" fill="white">vmtk ❎</text>
</a>
</g>
</g>
<!-- vina&#45;&gt;vmtk -->
<!-- rstudio -->
<g id="node35" class="node">
<title>rstudio</title>
<g id="a_node35"><a xlink:href="https://github.com/conda-forge/rstudio-feedstock/pull/30" xlink:title="rstudio ❎">
<ellipse fill="#31688e" stroke="black" cx="1187" cy="-826" rx="62.26" ry="18"/>
<text text-anchor="middle" x="1187" y="-821.33" font-family="Times,serif" font-size="14.00" fill="white">rstudio ❎</text>
</a>
</g>
</g>
<!-- vmtk&#45;&gt;rstudio -->
<!-- xilinx&#45;runtime -->
<g id="node36" class="node">
<title>xilinx&#45;runtime</title>
<g id="a_node36"><a xlink:href="https://github.com/conda-forge/xilinx-runtime-feedstock/pull/34" xlink:title="xilinx runtime ❎">
<ellipse fill="#31688e" stroke="black" cx="1187" cy="-754" rx="96.98" ry="18"/>
<text text-anchor="middle" x="1187" y="-749.33" font-family="Times,serif" font-size="14.00" fill="white">xilinx runtime ❎</text>
</a>
</g>
</g>
<!-- rstudio&#45;&gt;xilinx&#45;runtime -->
<!-- qtmolecularnetwork -->
<g id="node37" class="node">
<title>qtmolecularnetwork</title>
<g id="a_node37"><a xlink:href="https://github.com/conda-forge/qtmolecularnetwork-feedstock/pull/16" xlink:title="qtmolecularnetwork ❎">
<ellipse fill="#31688e" stroke="black" cx="1187" cy="-682" rx="127.49" ry="18"/>
<text text-anchor="middle" x="1187" y="-677.33" font-family="Times,serif" font-size="14.00" fill="white">qtmolecularnetwork ❎</text>
</a>
</g>
</g>
<!-- xilinx&#45;runtime&#45;&gt;qtmolecularnetwork -->
<!-- hdk -->
<g id="node38" class="node">
<title>hdk</title>
<g id="a_node38"><a xlink:href="https://github.com/conda-forge/hdk-feedstock" xlink:title="hdk">
<ellipse fill="#000000" stroke="black" cx="1187" cy="-610" rx="29.64" ry="18"/>
<text text-anchor="middle" x="1187" y="-605.33" font-family="Times,serif" font-size="14.00" fill="white">hdk</text>
</a>
</g>
</g>
<!-- qtmolecularnetwork&#45;&gt;hdk -->
<!-- river&#45;ingester -->
<g id="node39" class="node">
<title>river&#45;ingester</title>
<g id="a_node39"><a xlink:href="https://github.com/conda-forge/river-ingester-feedstock/pull/24" xlink:title="river ingester ❎">
<ellipse fill="#31688e" stroke="black" cx="1187" cy="-538" rx="95.4" ry="18"/>
<text text-anchor="middle" x="1187" y="-533.33" font-family="Times,serif" font-size="14.00" fill="white">river ingester ❎</text>
</a>
</g>
</g>
<!-- hdk&#45;&gt;river&#45;ingester -->
<!-- pygplates -->
<g id="node40" class="node">
<title>pygplates</title>
<g id="a_node40"><a xlink:href="https://github.com/conda-forge/pygplates-feedstock/pull/20" xlink:title="pygplates ❎">
<ellipse fill="#31688e" stroke="black" cx="1187" cy="-466" rx="75.41" ry="18"/>
<text text-anchor="middle" x="1187" y="-461.32" font-family="Times,serif" font-size="14.00" fill="white">pygplates ❎</text>
</a>
</g>
</g>
<!-- river&#45;ingester&#45;&gt;pygplates -->
<!-- pixsfm -->
<g id="node41" class="node">
<title>pixsfm</title>
<g id="a_node41"><a xlink:href="https://github.com/conda-forge/pixsfm-feedstock/pull/16" xlink:title="pixsfm ❎">
<ellipse fill="#31688e" stroke="black" cx="1187" cy="-394" rx="60.15" ry="18"/>
<text text-anchor="middle" x="1187" y="-389.32" font-family="Times,serif" font-size="14.00" fill="white">pixsfm ❎</text>
</a>
</g>
</g>
<!-- pygplates&#45;&gt;pixsfm -->
</g>
</svg>
