<?xml version="1.0" encoding="UTF-8" standalone="no"?>
<!DOCTYPE svg PUBLIC "-//W3C//DTD SVG 1.1//EN"
 "http://www.w3.org/Graphics/SVG/1.1/DTD/svg11.dtd">
<!-- Generated by graphviz version 9.0.0 (20231125.0833)
 -->
<!-- Pages: 1 -->
<svg width="1281pt" height="996pt"
 viewBox="0.00 0.00 1281.49 996.00" xmlns="http://www.w3.org/2000/svg" xmlns:xlink="http://www.w3.org/1999/xlink">
<g id="graph0" class="graph" transform="scale(1 1) rotate(0) translate(4 992)">
<polygon fill="white" stroke="none" points="-4,4 -4,-992 1277.49,-992 1277.49,4 -4,4"/>
<!-- vigra -->
<g id="node1" class="node">
<title>vigra</title>
<g id="a_node1"><a xlink:href="https://github.com/conda-forge/vigra-feedstock/pull/131" xlink:title="vigra ❎">
<ellipse fill="#31688e" stroke="black" cx="1146" cy="-206" rx="52.26" ry="18"/>
<text text-anchor="middle" x="1146" y="-201.33" font-family="Times,serif" font-size="14.00" fill="white">vigra ❎</text>
</a>
</g>
</g>
<!-- hugin -->
<g id="node2" class="node">
<title>hugin</title>
<g id="a_node2"><a xlink:href="https://github.com/conda-forge/hugin-feedstock" xlink:title="hugin">
<ellipse fill="#fde725" stroke="black" cx="1146" cy="-134" rx="39.63" ry="18"/>
<text text-anchor="middle" x="1146" y="-129.32" font-family="Times,serif" font-size="14.00">hugin</text>
</a>
</g>
</g>
<!-- vigra&#45;&gt;hugin -->
<g id="edge1" class="edge">
<title>vigra&#45;&gt;hugin</title>
<path fill="none" stroke="black" d="M1146,-187.7C1146,-180.41 1146,-171.73 1146,-163.54"/>
<polygon fill="black" stroke="black" points="1149.5,-163.62 1146,-153.62 1142.5,-163.62 1149.5,-163.62"/>
</g>
<!-- smesh -->
<g id="node3" class="node">
<title>smesh</title>
<g id="a_node3"><a xlink:href="https://github.com/conda-forge/smesh-feedstock/pull/79" xlink:title="smesh ✓">
<ellipse fill="#31688e" stroke="black" cx="400" cy="-90" rx="51.21" ry="18"/>
<text text-anchor="middle" x="400" y="-85.33" font-family="Times,serif" font-size="14.00" fill="white">smesh ✓</text>
</a>
</g>
</g>
<!-- freecad -->
<g id="node4" class="node">
<title>freecad</title>
<g id="a_node4"><a xlink:href="https://github.com/conda-forge/freecad-feedstock" xlink:title="freecad">
<ellipse fill="#fde725" stroke="black" cx="400" cy="-18" rx="48.58" ry="18"/>
<text text-anchor="middle" x="400" y="-13.32" font-family="Times,serif" font-size="14.00">freecad</text>
</a>
</g>
</g>
<!-- smesh&#45;&gt;freecad -->
<g id="edge2" class="edge">
<title>smesh&#45;&gt;freecad</title>
<path fill="none" stroke="black" d="M400,-71.7C400,-64.41 400,-55.73 400,-47.54"/>
<polygon fill="black" stroke="black" points="403.5,-47.62 400,-37.62 396.5,-47.62 403.5,-47.62"/>
</g>
<!-- ldas&#45;tools&#45;frameapi -->
<g id="node5" class="node">
<title>ldas&#45;tools&#45;frameapi</title>
<g id="a_node5"><a xlink:href="https://github.com/conda-forge/ldas-tools-frameapi-feedstock/pull/18" xlink:title="ldas tools frameapi ❎">
<ellipse fill="#31688e" stroke="black" cx="400" cy="-206" rx="122.23" ry="18"/>
<text text-anchor="middle" x="400" y="-201.33" font-family="Times,serif" font-size="14.00" fill="white">ldas tools frameapi ❎</text>
</a>
</g>
</g>
<!-- ldas&#45;tools&#45;utilities -->
<g id="node6" class="node">
<title>ldas&#45;tools&#45;utilities</title>
<g id="a_node6"><a xlink:href="https://github.com/conda-forge/ldas-tools-utilities-feedstock" xlink:title="ldas tools utilities">
<ellipse fill="#fde725" stroke="black" cx="400" cy="-134" rx="100.66" ry="18"/>
<text text-anchor="middle" x="400" y="-129.32" font-family="Times,serif" font-size="14.00">ldas tools utilities</text>
</a>
</g>
</g>
<!-- ldas&#45;tools&#45;frameapi&#45;&gt;ldas&#45;tools&#45;utilities -->
<g id="edge3" class="edge">
<title>ldas&#45;tools&#45;frameapi&#45;&gt;ldas&#45;tools&#45;utilities</title>
<path fill="none" stroke="black" d="M400,-187.7C400,-180.41 400,-171.73 400,-163.54"/>
<polygon fill="black" stroke="black" points="403.5,-163.62 400,-153.62 396.5,-163.62 403.5,-163.62"/>
</g>
<!-- ambertools -->
<g id="node7" class="node">
<title>ambertools</title>
<g id="a_node7"><a xlink:href="https://github.com/conda-forge/ambertools-feedstock/pull/139" xlink:title="ambertools ❎">
<ellipse fill="#31688e" stroke="black" cx="909" cy="-970" rx="82.77" ry="18"/>
<text text-anchor="middle" x="909" y="-965.33" font-family="Times,serif" font-size="14.00" fill="white">ambertools ❎</text>
</a>
</g>
</g>
<!-- ifcopenshell -->
<g id="node8" class="node">
<title>ifcopenshell</title>
<g id="a_node8"><a xlink:href="https://github.com/conda-forge/ifcopenshell-feedstock/pull/46" xlink:title="ifcopenshell ❎">
<ellipse fill="#31688e" stroke="black" cx="909" cy="-898" rx="86.46" ry="18"/>
<text text-anchor="middle" x="909" y="-893.33" font-family="Times,serif" font-size="14.00" fill="white">ifcopenshell ❎</text>
</a>
</g>
</g>
<!-- ambertools&#45;&gt;ifcopenshell -->
<!-- dcgp&#45;python -->
<g id="node9" class="node">
<title>dcgp&#45;python</title>
<g id="a_node9"><a xlink:href="https://github.com/conda-forge/dcgp-python-feedstock/pull/24" xlink:title="dcgp python ❎">
<ellipse fill="#31688e" stroke="black" cx="909" cy="-826" rx="88.56" ry="18"/>
<text text-anchor="middle" x="909" y="-821.33" font-family="Times,serif" font-size="14.00" fill="white">dcgp python ❎</text>
</a>
</g>
</g>
<!-- ifcopenshell&#45;&gt;dcgp&#45;python -->
<!-- odil -->
<g id="node10" class="node">
<title>odil</title>
<g id="a_node10"><a xlink:href="https://github.com/conda-forge/odil-feedstock/pull/31" xlink:title="odil ❎">
<ellipse fill="#31688e" stroke="black" cx="909" cy="-754" rx="44.9" ry="18"/>
<text text-anchor="middle" x="909" y="-749.33" font-family="Times,serif" font-size="14.00" fill="white">odil ❎</text>
</a>
</g>
</g>
<!-- dcgp&#45;python&#45;&gt;odil -->
<!-- ompl -->
<g id="node11" class="node">
<title>ompl</title>
<g id="a_node11"><a xlink:href="https://github.com/conda-forge/ompl-feedstock/pull/35" xlink:title="ompl ❎">
<ellipse fill="#31688e" stroke="black" cx="909" cy="-682" rx="51.21" ry="18"/>
<text text-anchor="middle" x="909" y="-677.33" font-family="Times,serif" font-size="14.00" fill="white">ompl ❎</text>
</a>
</g>
</g>
<!-- odil&#45;&gt;ompl -->
<!-- smina -->
<g id="node12" class="node">
<title>smina</title>
<g id="a_node12"><a xlink:href="https://github.com/conda-forge/smina-feedstock/pull/3" xlink:title="smina ❎">
<ellipse fill="#31688e" stroke="black" cx="909" cy="-610" rx="56.47" ry="18"/>
<text text-anchor="middle" x="909" y="-605.33" font-family="Times,serif" font-size="14.00" fill="white">smina ❎</text>
</a>
</g>
</g>
<!-- ompl&#45;&gt;smina -->
<!-- scipoptsuite -->
<g id="node27" class="node">
<title>scipoptsuite</title>
<g id="a_node27"><a xlink:href="https://github.com/conda-forge/scipoptsuite-feedstock/pull/64" xlink:title="scipoptsuite ❎">
<ellipse fill="#31688e" stroke="black" cx="909" cy="-538" rx="87.51" ry="18"/>
<text text-anchor="middle" x="909" y="-533.33" font-family="Times,serif" font-size="14.00" fill="white">scipoptsuite ❎</text>
</a>
</g>
</g>
<!-- smina&#45;&gt;scipoptsuite -->
<!-- gnuradio&#45;osmosdr -->
<g id="node13" class="node">
<title>gnuradio&#45;osmosdr</title>
<g id="a_node13"><a xlink:href="https://github.com/conda-forge/gnuradio-osmosdr-feedstock" xlink:title="gnuradio osmosdr">
<ellipse fill="#35b779" stroke="black" cx="909" cy="-206" rx="101.71" ry="18"/>
<text text-anchor="middle" x="909" y="-201.33" font-family="Times,serif" font-size="14.00">gnuradio osmosdr</text>
</a>
</g>
</g>
<!-- gnss&#45;sdr -->
<g id="node14" class="node">
<title>gnss&#45;sdr</title>
<g id="a_node14"><a xlink:href="https://github.com/conda-forge/gnss-sdr-feedstock" xlink:title="gnss sdr">
<ellipse fill="#fde725" stroke="black" cx="909" cy="-134" rx="53.84" ry="18"/>
<text text-anchor="middle" x="909" y="-129.32" font-family="Times,serif" font-size="14.00">gnss sdr</text>
</a>
</g>
</g>
<!-- gnuradio&#45;osmosdr&#45;&gt;gnss&#45;sdr -->
<g id="edge9" class="edge">
<title>gnuradio&#45;osmosdr&#45;&gt;gnss&#45;sdr</title>
<path fill="none" stroke="black" d="M909,-187.7C909,-180.41 909,-171.73 909,-163.54"/>
<polygon fill="black" stroke="black" points="912.5,-163.62 909,-153.62 905.5,-163.62 912.5,-163.62"/>
</g>
<!-- hpp&#45;corbaserver -->
<g id="node15" class="node">
<title>hpp&#45;corbaserver</title>
<g id="a_node15"><a xlink:href="https://github.com/conda-forge/hpp-corbaserver-feedstock" xlink:title="hpp corbaserver">
<ellipse fill="#fde725" stroke="black" cx="159" cy="-682" rx="93.3" ry="18"/>
<text text-anchor="middle" x="159" y="-677.33" font-family="Times,serif" font-size="14.00">hpp corbaserver</text>
</a>
</g>
</g>
<!-- hpp&#45;manipulation&#45;corba -->
<g id="node16" class="node">
<title>hpp&#45;manipulation&#45;corba</title>
<g id="a_node16"><a xlink:href="https://github.com/conda-forge/hpp-manipulation-corba-feedstock" xlink:title="hpp manipulation corba">
<ellipse fill="#fde725" stroke="black" cx="390" cy="-538" rx="130.13" ry="18"/>
<text text-anchor="middle" x="390" y="-533.33" font-family="Times,serif" font-size="14.00">hpp manipulation corba</text>
</a>
</g>
</g>
<!-- hpp&#45;corbaserver&#45;&gt;hpp&#45;manipulation&#45;corba -->
<g id="edge10" class="edge">
<title>hpp&#45;corbaserver&#45;&gt;hpp&#45;manipulation&#45;corba</title>
<path fill="none" stroke="black" d="M187.65,-664.49C204.83,-654.36 226.96,-640.89 246,-628 268.08,-613.05 271.61,-606.48 294,-592 310.81,-581.13 330.02,-570.24 346.8,-561.19"/>
<polygon fill="black" stroke="black" points="348.39,-564.31 355.57,-556.52 345.1,-558.14 348.39,-564.31"/>
</g>
<!-- hpp&#45;gepetto&#45;viewer -->
<g id="node17" class="node">
<title>hpp&#45;gepetto&#45;viewer</title>
<g id="a_node17"><a xlink:href="https://github.com/conda-forge/hpp-gepetto-viewer-feedstock" xlink:title="hpp gepetto viewer">
<ellipse fill="#fde725" stroke="black" cx="686" cy="-466" rx="108.55" ry="18"/>
<text text-anchor="middle" x="686" y="-461.32" font-family="Times,serif" font-size="14.00">hpp gepetto viewer</text>
</a>
</g>
</g>
<!-- hpp&#45;corbaserver&#45;&gt;hpp&#45;gepetto&#45;viewer -->
<g id="edge11" class="edge">
<title>hpp&#45;corbaserver&#45;&gt;hpp&#45;gepetto&#45;viewer</title>
<path fill="none" stroke="black" d="M169.12,-663.85C175.21,-653.49 183.09,-640.01 190,-628 217.47,-580.21 205.16,-550.62 251,-520 301.27,-486.42 456.76,-474.11 567.46,-469.6"/>
<polygon fill="black" stroke="black" points="567.33,-473.11 577.19,-469.22 567.06,-466.11 567.33,-473.11"/>
</g>
<!-- hpp&#45;plot -->
<g id="node18" class="node">
<title>hpp&#45;plot</title>
<g id="a_node18"><a xlink:href="https://github.com/conda-forge/hpp-plot-feedstock" xlink:title="hpp plot">
<ellipse fill="#fde725" stroke="black" cx="297" cy="-466" rx="52.79" ry="18"/>
<text text-anchor="middle" x="297" y="-461.32" font-family="Times,serif" font-size="14.00">hpp plot</text>
</a>
</g>
</g>
<!-- hpp&#45;corbaserver&#45;&gt;hpp&#45;plot -->
<g id="edge12" class="edge">
<title>hpp&#45;corbaserver&#45;&gt;hpp&#45;plot</title>
<path fill="none" stroke="black" d="M161.69,-663.78C167.33,-632.33 182.89,-564.72 218,-520 228.42,-506.72 243.11,-495.6 257,-487.03"/>
<polygon fill="black" stroke="black" points="258.73,-490.07 265.6,-482.01 255.2,-484.03 258.73,-490.07"/>
</g>
<!-- hpp&#45;tutorial -->
<g id="node19" class="node">
<title>hpp&#45;tutorial</title>
<g id="a_node19"><a xlink:href="https://github.com/conda-forge/hpp-tutorial-feedstock" xlink:title="hpp tutorial">
<ellipse fill="#fde725" stroke="black" cx="156" cy="-466" rx="70.68" ry="18"/>
<text text-anchor="middle" x="156" y="-461.32" font-family="Times,serif" font-size="14.00">hpp tutorial</text>
</a>
</g>
</g>
<!-- hpp&#45;corbaserver&#45;&gt;hpp&#45;tutorial -->
<g id="edge13" class="edge">
<title>hpp&#45;corbaserver&#45;&gt;hpp&#45;tutorial</title>
<path fill="none" stroke="black" d="M151.93,-663.67C148.16,-653.47 143.91,-640.22 142,-628 134.58,-580.58 135.82,-567.6 142,-520 143.07,-511.76 145.04,-502.97 147.17,-494.97"/>
<polygon fill="black" stroke="black" points="150.52,-495.99 149.91,-485.42 143.79,-494.07 150.52,-495.99"/>
</g>
<!-- hpp&#45;manipulation&#45;corba&#45;&gt;hpp&#45;gepetto&#45;viewer -->
<g id="edge14" class="edge">
<title>hpp&#45;manipulation&#45;corba&#45;&gt;hpp&#45;gepetto&#45;viewer</title>
<path fill="none" stroke="black" d="M453.86,-521.9C501.01,-510.75 565.21,-495.57 614.14,-483.99"/>
<polygon fill="black" stroke="black" points="614.89,-487.41 623.81,-481.71 613.27,-480.6 614.89,-487.41"/>
</g>
<!-- hpp&#45;manipulation&#45;corba&#45;&gt;hpp&#45;plot -->
<g id="edge15" class="edge">
<title>hpp&#45;manipulation&#45;corba&#45;&gt;hpp&#45;plot</title>
<path fill="none" stroke="black" d="M367.49,-520.05C355.38,-510.94 340.27,-499.57 327.16,-489.7"/>
<polygon fill="black" stroke="black" points="329.33,-486.96 319.24,-483.74 325.12,-492.55 329.33,-486.96"/>
</g>
<!-- hpp&#45;manipulation&#45;corba&#45;&gt;hpp&#45;tutorial -->
<g id="edge16" class="edge">
<title>hpp&#45;manipulation&#45;corba&#45;&gt;hpp&#45;tutorial</title>
<path fill="none" stroke="black" d="M336.9,-521.12C299.47,-509.92 249.45,-494.95 211.49,-483.6"/>
<polygon fill="black" stroke="black" points="212.66,-480.3 202.08,-480.79 210.66,-487 212.66,-480.3"/>
</g>
<!-- hpp&#45;practicals -->
<g id="node20" class="node">
<title>hpp&#45;practicals</title>
<g id="a_node20"><a xlink:href="https://github.com/conda-forge/hpp-practicals-feedstock" xlink:title="hpp practicals">
<ellipse fill="#fde725" stroke="black" cx="289" cy="-394" rx="82.25" ry="18"/>
<text text-anchor="middle" x="289" y="-389.32" font-family="Times,serif" font-size="14.00">hpp practicals</text>
</a>
</g>
</g>
<!-- hpp&#45;plot&#45;&gt;hpp&#45;practicals -->
<g id="edge17" class="edge">
<title>hpp&#45;plot&#45;&gt;hpp&#45;practicals</title>
<path fill="none" stroke="black" d="M295.02,-447.7C294.19,-440.41 293.2,-431.73 292.26,-423.54"/>
<polygon fill="black" stroke="black" points="295.74,-423.15 291.13,-413.61 288.78,-423.94 295.74,-423.15"/>
</g>
<!-- hpp&#45;doc -->
<g id="node21" class="node">
<title>hpp&#45;doc</title>
<g id="a_node21"><a xlink:href="https://github.com/conda-forge/hpp-doc-feedstock" xlink:title="hpp doc">
<ellipse fill="#fde725" stroke="black" cx="226" cy="-322" rx="50.68" ry="18"/>
<text text-anchor="middle" x="226" y="-317.32" font-family="Times,serif" font-size="14.00">hpp doc</text>
</a>
</g>
</g>
<!-- hpp&#45;tutorial&#45;&gt;hpp&#45;doc -->
<g id="edge18" class="edge">
<title>hpp&#45;tutorial&#45;&gt;hpp&#45;doc</title>
<path fill="none" stroke="black" d="M163.82,-447.83C172.09,-429.82 185.63,-400.76 198,-376 202.25,-367.49 207.04,-358.3 211.43,-350"/>
<polygon fill="black" stroke="black" points="214.39,-351.89 216.01,-341.42 208.22,-348.6 214.39,-351.89"/>
</g>
<!-- hpp&#45;practicals&#45;&gt;hpp&#45;doc -->
<g id="edge57" class="edge">
<title>hpp&#45;practicals&#45;&gt;hpp&#45;doc</title>
<path fill="none" stroke="black" d="M273.75,-376.05C266.13,-367.59 256.77,-357.19 248.36,-347.84"/>
<polygon fill="black" stroke="black" points="250.98,-345.52 241.69,-340.43 245.78,-350.21 250.98,-345.52"/>
</g>
<!-- hpp&#45;core -->
<g id="node22" class="node">
<title>hpp&#45;core</title>
<g id="a_node22"><a xlink:href="https://github.com/conda-forge/hpp-core-feedstock" xlink:title="hpp core">
<ellipse fill="#fde725" stroke="black" cx="457" cy="-754" rx="54.89" ry="18"/>
<text text-anchor="middle" x="457" y="-749.33" font-family="Times,serif" font-size="14.00">hpp core</text>
</a>
</g>
</g>
<!-- hpp&#45;core&#45;&gt;hpp&#45;corbaserver -->
<g id="edge19" class="edge">
<title>hpp&#45;core&#45;&gt;hpp&#45;corbaserver</title>
<path fill="none" stroke="black" d="M413.35,-742.75C364.55,-731.28 284.87,-712.57 227.7,-699.14"/>
<polygon fill="black" stroke="black" points="228.59,-695.75 218.05,-696.87 226.99,-702.57 228.59,-695.75"/>
</g>
<!-- hpp&#45;core&#45;&gt;hpp&#45;manipulation&#45;corba -->
<g id="edge20" class="edge">
<title>hpp&#45;core&#45;&gt;hpp&#45;manipulation&#45;corba</title>
<path fill="none" stroke="black" d="M439.62,-736.83C417.3,-714.76 379.71,-672.8 365,-628 358.28,-607.54 365.47,-584.09 373.84,-566.39"/>
<polygon fill="black" stroke="black" points="376.93,-568.03 378.39,-557.54 370.7,-564.83 376.93,-568.03"/>
</g>
<!-- hpp&#45;core&#45;&gt;hpp&#45;gepetto&#45;viewer -->
<g id="edge21" class="edge">
<title>hpp&#45;core&#45;&gt;hpp&#45;gepetto&#45;viewer</title>
<path fill="none" stroke="black" d="M507.23,-746.63C562.24,-738.6 645.51,-723.02 667,-700 719.2,-644.09 704.84,-544.22 693.63,-495.42"/>
<polygon fill="black" stroke="black" points="697.08,-494.8 691.32,-485.91 690.28,-496.46 697.08,-494.8"/>
</g>
<!-- hpp&#45;core&#45;&gt;hpp&#45;tutorial -->
<g id="edge22" class="edge">
<title>hpp&#45;core&#45;&gt;hpp&#45;tutorial</title>
<path fill="none" stroke="black" d="M431.8,-737.79C416.03,-727.82 395.63,-714.06 379,-700 298.38,-631.81 215.52,-537.64 177.48,-492.78"/>
<polygon fill="black" stroke="black" points="180.15,-490.52 171.03,-485.13 174.8,-495.04 180.15,-490.52"/>
</g>
<!-- hpp&#45;manipulation&#45;urdf -->
<g id="node23" class="node">
<title>hpp&#45;manipulation&#45;urdf</title>
<g id="a_node23"><a xlink:href="https://github.com/conda-forge/hpp-manipulation-urdf-feedstock" xlink:title="hpp manipulation urdf">
<ellipse fill="#fde725" stroke="black" cx="497" cy="-610" rx="123.29" ry="18"/>
<text text-anchor="middle" x="497" y="-605.33" font-family="Times,serif" font-size="14.00">hpp manipulation urdf</text>
</a>
</g>
</g>
<!-- hpp&#45;core&#45;&gt;hpp&#45;manipulation&#45;urdf -->
<g id="edge23" class="edge">
<title>hpp&#45;core&#45;&gt;hpp&#45;manipulation&#45;urdf</title>
<path fill="none" stroke="black" d="M451.7,-735.66C447.02,-717.26 442.17,-687.65 451,-664 454.82,-653.77 461.6,-644.21 468.8,-636.11"/>
<polygon fill="black" stroke="black" points="471.21,-638.65 475.61,-629.01 466.16,-633.8 471.21,-638.65"/>
</g>
<!-- hpp&#45;manipulation -->
<g id="node24" class="node">
<title>hpp&#45;manipulation</title>
<g id="a_node24"><a xlink:href="https://github.com/conda-forge/hpp-manipulation-feedstock" xlink:title="hpp manipulation">
<ellipse fill="#fde725" stroke="black" cx="559" cy="-682" rx="99.08" ry="18"/>
<text text-anchor="middle" x="559" y="-677.33" font-family="Times,serif" font-size="14.00">hpp manipulation</text>
</a>
</g>
</g>
<!-- hpp&#45;core&#45;&gt;hpp&#45;manipulation -->
<g id="edge24" class="edge">
<title>hpp&#45;core&#45;&gt;hpp&#45;manipulation</title>
<path fill="none" stroke="black" d="M479.89,-737.29C493.19,-728.16 510.2,-716.49 525.03,-706.31"/>
<polygon fill="black" stroke="black" points="526.89,-709.28 533.16,-700.74 522.93,-703.51 526.89,-709.28"/>
</g>
<!-- hpp&#45;manipulation&#45;urdf&#45;&gt;hpp&#45;manipulation&#45;corba -->
<g id="edge25" class="edge">
<title>hpp&#45;manipulation&#45;urdf&#45;&gt;hpp&#45;manipulation&#45;corba</title>
<path fill="none" stroke="black" d="M471.1,-592.05C457.4,-583.09 440.38,-571.96 425.47,-562.2"/>
<polygon fill="black" stroke="black" points="427.59,-559.41 417.3,-556.86 423.75,-565.26 427.59,-559.41"/>
</g>
<!-- hpp&#45;manipulation&#45;urdf&#45;&gt;hpp&#45;gepetto&#45;viewer -->
<g id="edge26" class="edge">
<title>hpp&#45;manipulation&#45;urdf&#45;&gt;hpp&#45;gepetto&#45;viewer</title>
<path fill="none" stroke="black" d="M519.8,-591.87C553.38,-566.64 616.26,-519.4 654.31,-490.81"/>
<polygon fill="black" stroke="black" points="656.31,-493.68 662.21,-484.88 652.11,-488.09 656.31,-493.68"/>
</g>
<!-- hpp&#45;manipulation&#45;&gt;hpp&#45;manipulation&#45;corba -->
<g id="edge27" class="edge">
<title>hpp&#45;manipulation&#45;&gt;hpp&#45;manipulation&#45;corba</title>
<path fill="none" stroke="black" d="M592.21,-664.76C606.28,-655.99 621.2,-643.7 629,-628 636.12,-613.67 639.01,-604.48 629,-592 612.83,-571.85 558.09,-558.88 505.08,-550.82"/>
<polygon fill="black" stroke="black" points="505.71,-547.38 495.31,-549.39 504.7,-554.3 505.71,-547.38"/>
</g>
<!-- hpp&#45;manipulation&#45;&gt;hpp&#45;gepetto&#45;viewer -->
<g id="edge28" class="edge">
<title>hpp&#45;manipulation&#45;&gt;hpp&#45;gepetto&#45;viewer</title>
<path fill="none" stroke="black" d="M598.59,-665.17C615.51,-656.54 634.06,-644.25 646,-628 675.13,-588.34 683.2,-529.91 685.34,-495.42"/>
<polygon fill="black" stroke="black" points="688.82,-495.96 685.8,-485.8 681.82,-495.63 688.82,-495.96"/>
</g>
<!-- hpp&#45;manipulation&#45;&gt;hpp&#45;manipulation&#45;urdf -->
<g id="edge29" class="edge">
<title>hpp&#45;manipulation&#45;&gt;hpp&#45;manipulation&#45;urdf</title>
<path fill="none" stroke="black" d="M543.99,-664.05C536.71,-655.84 527.81,-645.79 519.73,-636.66"/>
<polygon fill="black" stroke="black" points="522.55,-634.57 513.3,-629.41 517.31,-639.21 522.55,-634.57"/>
</g>
<!-- hpp&#45;constraints -->
<g id="node25" class="node">
<title>hpp&#45;constraints</title>
<g id="a_node25"><a xlink:href="https://github.com/conda-forge/hpp-constraints-feedstock" xlink:title="hpp constraints">
<ellipse fill="#fde725" stroke="black" cx="374" cy="-826" rx="89.61" ry="18"/>
<text text-anchor="middle" x="374" y="-821.33" font-family="Times,serif" font-size="14.00">hpp constraints</text>
</a>
</g>
</g>
<!-- hpp&#45;constraints&#45;&gt;hpp&#45;corbaserver -->
<g id="edge30" class="edge">
<title>hpp&#45;constraints&#45;&gt;hpp&#45;corbaserver</title>
<path fill="none" stroke="black" d="M336.58,-809.29C315.22,-799.69 288.35,-786.48 266,-772 236.37,-752.8 205.7,-726.52 184.84,-707.5"/>
<polygon fill="black" stroke="black" points="187.36,-705.07 177.64,-700.86 182.62,-710.21 187.36,-705.07"/>
</g>
<!-- hpp&#45;constraints&#45;&gt;hpp&#45;manipulation&#45;corba -->
<g id="edge31" class="edge">
<title>hpp&#45;constraints&#45;&gt;hpp&#45;manipulation&#45;corba</title>
<path fill="none" stroke="black" d="M369.12,-807.66C358.88,-768.45 337.8,-670.25 359,-592 361.47,-582.88 365.94,-573.73 370.74,-565.66"/>
<polygon fill="black" stroke="black" points="373.6,-567.68 376.04,-557.37 367.7,-563.91 373.6,-567.68"/>
</g>
<!-- hpp&#45;constraints&#45;&gt;hpp&#45;gepetto&#45;viewer -->
<g id="edge32" class="edge">
<title>hpp&#45;constraints&#45;&gt;hpp&#45;gepetto&#45;viewer</title>
<path fill="none" stroke="black" d="M443.37,-814.23C554.97,-794.92 762,-750.07 762,-683 762,-683 762,-683 762,-609 762,-564.03 732.01,-519.52 709.71,-492.64"/>
<polygon fill="black" stroke="black" points="712.64,-490.69 703.48,-485.38 707.33,-495.25 712.64,-490.69"/>
</g>
<!-- hpp&#45;constraints&#45;&gt;hpp&#45;core -->
<g id="edge33" class="edge">
<title>hpp&#45;constraints&#45;&gt;hpp&#45;core</title>
<path fill="none" stroke="black" d="M394.09,-808.05C404.54,-799.24 417.48,-788.33 428.91,-778.69"/>
<polygon fill="black" stroke="black" points="431.12,-781.41 436.51,-772.28 426.61,-776.05 431.12,-781.41"/>
</g>
<!-- hpp&#45;constraints&#45;&gt;hpp&#45;manipulation&#45;urdf -->
<g id="edge34" class="edge">
<title>hpp&#45;constraints&#45;&gt;hpp&#45;manipulation&#45;urdf</title>
<path fill="none" stroke="black" d="M375.65,-807.65C377.86,-789.25 382.77,-759.63 393,-736 410.26,-696.14 444.34,-659.04 468.79,-635.78"/>
<polygon fill="black" stroke="black" points="470.94,-638.56 475.88,-629.18 466.18,-633.43 470.94,-638.56"/>
</g>
<!-- hpp&#45;constraints&#45;&gt;hpp&#45;manipulation -->
<g id="edge35" class="edge">
<title>hpp&#45;constraints&#45;&gt;hpp&#45;manipulation</title>
<path fill="none" stroke="black" d="M439.87,-813.46C467.73,-805.72 498.81,-792.95 521,-772 538.08,-755.88 547.83,-730.83 553.17,-711.41"/>
<polygon fill="black" stroke="black" points="556.52,-712.47 555.53,-701.92 549.72,-710.78 556.52,-712.47"/>
</g>
<!-- hpp&#45;pinocchio -->
<g id="node26" class="node">
<title>hpp&#45;pinocchio</title>
<g id="a_node26"><a xlink:href="https://github.com/conda-forge/hpp-pinocchio-feedstock/pull/25" xlink:title="hpp pinocchio ❎">
<ellipse fill="#31688e" stroke="black" cx="433" cy="-898" rx="95.93" ry="18"/>
<text text-anchor="middle" x="433" y="-893.33" font-family="Times,serif" font-size="14.00" fill="white">hpp pinocchio ❎</text>
</a>
</g>
</g>
<!-- hpp&#45;pinocchio&#45;&gt;hpp&#45;corbaserver -->
<g id="edge36" class="edge">
<title>hpp&#45;pinocchio&#45;&gt;hpp&#45;corbaserver</title>
<path fill="none" stroke="black" d="M368.87,-884.2C338.56,-876.06 302.98,-863.31 275,-844 225.28,-809.69 189.24,-746.84 171.48,-710.65"/>
<polygon fill="black" stroke="black" points="174.67,-709.22 167.21,-701.7 168.35,-712.23 174.67,-709.22"/>
</g>
<!-- hpp&#45;pinocchio&#45;&gt;hpp&#45;manipulation&#45;corba -->
<g id="edge37" class="edge">
<title>hpp&#45;pinocchio&#45;&gt;hpp&#45;manipulation&#45;corba</title>
<path fill="none" stroke="black" d="M359.63,-886C245.4,-866.79 38,-822.59 38,-755 38,-755 38,-755 38,-681 38,-623.62 200.9,-578.59 305.07,-555.67"/>
<polygon fill="black" stroke="black" points="305.7,-559.11 314.73,-553.57 304.22,-552.27 305.7,-559.11"/>
</g>
<!-- hpp&#45;pinocchio&#45;&gt;hpp&#45;gepetto&#45;viewer -->
<g id="edge38" class="edge">
<title>hpp&#45;pinocchio&#45;&gt;hpp&#45;gepetto&#45;viewer</title>
<path fill="none" stroke="black" d="M501.17,-885.04C607.3,-864.46 800,-818.37 800,-755 800,-755 800,-755 800,-609 800,-558.28 755.24,-515.37 721.81,-490.39"/>
<polygon fill="black" stroke="black" points="724.11,-487.74 713.95,-484.72 720.01,-493.41 724.11,-487.74"/>
</g>
<!-- hpp&#45;pinocchio&#45;&gt;hpp&#45;tutorial -->
<g id="edge39" class="edge">
<title>hpp&#45;pinocchio&#45;&gt;hpp&#45;tutorial</title>
<path fill="none" stroke="black" d="M345.53,-890.35C257.08,-882.46 127.3,-867.36 83,-844 35.16,-818.77 0,-809.09 0,-755 0,-755 0,-755 0,-609 0,-549.71 62.39,-508.62 108.25,-486.42"/>
<polygon fill="black" stroke="black" points="109.68,-489.62 117.26,-482.22 106.72,-483.28 109.68,-489.62"/>
</g>
<!-- hpp&#45;pinocchio&#45;&gt;hpp&#45;core -->
<g id="edge40" class="edge">
<title>hpp&#45;pinocchio&#45;&gt;hpp&#45;core</title>
<path fill="none" stroke="black" d="M450.32,-880.07C458.93,-870.41 468.46,-857.55 473,-844 479.7,-824 474.96,-800.48 468.94,-782.64"/>
<polygon fill="black" stroke="black" points="472.31,-781.67 465.55,-773.51 465.75,-784.11 472.31,-781.67"/>
</g>
<!-- hpp&#45;pinocchio&#45;&gt;hpp&#45;manipulation&#45;urdf -->
<g id="edge41" class="edge">
<title>hpp&#45;pinocchio&#45;&gt;hpp&#45;manipulation&#45;urdf</title>
<path fill="none" stroke="black" d="M468.41,-880.92C524.12,-853.3 629.72,-790.9 667,-700 673.07,-685.2 676.48,-676.89 667,-664 652.77,-644.65 631.51,-632.17 608.81,-624.16"/>
<polygon fill="black" stroke="black" points="609.97,-620.86 599.38,-621.14 607.84,-627.52 609.97,-620.86"/>
</g>
<!-- hpp&#45;pinocchio&#45;&gt;hpp&#45;manipulation -->
<g id="edge42" class="edge">
<title>hpp&#45;pinocchio&#45;&gt;hpp&#45;manipulation</title>
<path fill="none" stroke="black" d="M455.8,-880.07C482.96,-858.41 527.16,-818.14 547,-772 555.16,-753.03 558.09,-729.87 559.01,-711.93"/>
<polygon fill="black" stroke="black" points="562.51,-712.08 559.33,-701.97 555.51,-711.86 562.51,-712.08"/>
</g>
<!-- hpp&#45;pinocchio&#45;&gt;hpp&#45;constraints -->
<g id="edge43" class="edge">
<title>hpp&#45;pinocchio&#45;&gt;hpp&#45;constraints</title>
<path fill="none" stroke="black" d="M418.72,-880.05C411.76,-871.8 403.25,-861.7 395.52,-852.54"/>
<polygon fill="black" stroke="black" points="398.25,-850.34 389.13,-844.95 392.89,-854.85 398.25,-850.34"/>
</g>
<!-- pycuda -->
<g id="node28" class="node">
<title>pycuda</title>
<g id="a_node28"><a xlink:href="https://github.com/conda-forge/pycuda-feedstock/pull/38" xlink:title="pycuda ❎">
<ellipse fill="#31688e" stroke="black" cx="909" cy="-466" rx="62.26" ry="18"/>
<text text-anchor="middle" x="909" y="-461.32" font-family="Times,serif" font-size="14.00" fill="white">pycuda ❎</text>
</a>
</g>
</g>
<!-- scipoptsuite&#45;&gt;pycuda -->
<!-- cudadecon -->
<g id="node29" class="node">
<title>cudadecon</title>
<g id="a_node29"><a xlink:href="https://github.com/conda-forge/cudadecon-feedstock/pull/28" xlink:title="cudadecon ❎">
<ellipse fill="#31688e" stroke="black" cx="909" cy="-394" rx="79.62" ry="18"/>
<text text-anchor="middle" x="909" y="-389.32" font-family="Times,serif" font-size="14.00" fill="white">cudadecon ❎</text>
</a>
</g>
</g>
<!-- pycuda&#45;&gt;cudadecon -->
<!-- tsid -->
<g id="node30" class="node">
<title>tsid</title>
<g id="a_node30"><a xlink:href="https://github.com/conda-forge/tsid-feedstock/pull/33" xlink:title="tsid ❎">
<ellipse fill="#31688e" stroke="black" cx="909" cy="-322" rx="45.42" ry="18"/>
<text text-anchor="middle" x="909" y="-317.32" font-family="Times,serif" font-size="14.00" fill="white">tsid ❎</text>
</a>
</g>
</g>
<!-- cudadecon&#45;&gt;tsid -->
<!-- cudasirecon -->
<g id="node31" class="node">
<title>cudasirecon</title>
<g id="a_node31"><a xlink:href="https://github.com/conda-forge/cudasirecon-feedstock/pull/29" xlink:title="cudasirecon ❎">
<ellipse fill="#31688e" stroke="black" cx="909" cy="-250" rx="86.46" ry="18"/>
<text text-anchor="middle" x="909" y="-245.32" font-family="Times,serif" font-size="14.00" fill="white">cudasirecon ❎</text>
</a>
</g>
</g>
<!-- tsid&#45;&gt;cudasirecon -->
<!-- vina -->
<g id="node32" class="node">
<title>vina</title>
<g id="a_node32"><a xlink:href="https://github.com/conda-forge/vina-feedstock/pull/16" xlink:title="vina ❎">
<ellipse fill="#31688e" stroke="black" cx="1146" cy="-898" rx="47.53" ry="18"/>
<text text-anchor="middle" x="1146" y="-893.33" font-family="Times,serif" font-size="14.00" fill="white">vina ❎</text>
</a>
</g>
</g>
<!-- vmtk -->
<g id="node33" class="node">
<title>vmtk</title>
<g id="a_node33"><a xlink:href="https://github.com/conda-forge/vmtk-feedstock/pull/23" xlink:title="vmtk ❎">
<ellipse fill="#31688e" stroke="black" cx="1146" cy="-826" rx="51.74" ry="18"/>
<text text-anchor="middle" x="1146" y="-821.33" font-family="Times,serif" font-size="14.00" fill="white">vmtk ❎</text>
</a>
</g>
</g>
<!-- vina&#45;&gt;vmtk -->
<!-- rstudio -->
<g id="node34" class="node">
<title>rstudio</title>
<g id="a_node34"><a xlink:href="https://github.com/conda-forge/rstudio-feedstock/pull/30" xlink:title="rstudio ❎">
<ellipse fill="#31688e" stroke="black" cx="1146" cy="-754" rx="62.26" ry="18"/>
<text text-anchor="middle" x="1146" y="-749.33" font-family="Times,serif" font-size="14.00" fill="white">rstudio ❎</text>
</a>
</g>
</g>
<!-- vmtk&#45;&gt;rstudio -->
<!-- xilinx&#45;runtime -->
<g id="node35" class="node">
<title>xilinx&#45;runtime</title>
<g id="a_node35"><a xlink:href="https://github.com/conda-forge/xilinx-runtime-feedstock/pull/34" xlink:title="xilinx runtime ❎">
<ellipse fill="#31688e" stroke="black" cx="1146" cy="-682" rx="96.98" ry="18"/>
<text text-anchor="middle" x="1146" y="-677.33" font-family="Times,serif" font-size="14.00" fill="white">xilinx runtime ❎</text>
</a>
</g>
</g>
<!-- rstudio&#45;&gt;xilinx&#45;runtime -->
<!-- qtmolecularnetwork -->
<g id="node36" class="node">
<title>qtmolecularnetwork</title>
<g id="a_node36"><a xlink:href="https://github.com/conda-forge/qtmolecularnetwork-feedstock/pull/16" xlink:title="qtmolecularnetwork ❎">
<ellipse fill="#31688e" stroke="black" cx="1146" cy="-610" rx="127.49" ry="18"/>
<text text-anchor="middle" x="1146" y="-605.33" font-family="Times,serif" font-size="14.00" fill="white">qtmolecularnetwork ❎</text>
</a>
</g>
</g>
<!-- xilinx&#45;runtime&#45;&gt;qtmolecularnetwork -->
<!-- hdk -->
<g id="node37" class="node">
<title>hdk</title>
<g id="a_node37"><a xlink:href="https://github.com/conda-forge/hdk-feedstock" xlink:title="hdk">
<ellipse fill="#000000" stroke="black" cx="1146" cy="-538" rx="29.64" ry="18"/>
<text text-anchor="middle" x="1146" y="-533.33" font-family="Times,serif" font-size="14.00" fill="white">hdk</text>
</a>
</g>
</g>
<!-- qtmolecularnetwork&#45;&gt;hdk -->
<!-- river&#45;ingester -->
<g id="node38" class="node">
<title>river&#45;ingester</title>
<g id="a_node38"><a xlink:href="https://github.com/conda-forge/river-ingester-feedstock/pull/24" xlink:title="river ingester ❎">
<ellipse fill="#31688e" stroke="black" cx="1146" cy="-466" rx="95.4" ry="18"/>
<text text-anchor="middle" x="1146" y="-461.32" font-family="Times,serif" font-size="14.00" fill="white">river ingester ❎</text>
</a>
</g>
</g>
<!-- hdk&#45;&gt;river&#45;ingester -->
<!-- pygplates -->
<g id="node39" class="node">
<title>pygplates</title>
<g id="a_node39"><a xlink:href="https://github.com/conda-forge/pygplates-feedstock/pull/20" xlink:title="pygplates ❎">
<ellipse fill="#31688e" stroke="black" cx="1146" cy="-394" rx="75.41" ry="18"/>
<text text-anchor="middle" x="1146" y="-389.32" font-family="Times,serif" font-size="14.00" fill="white">pygplates ❎</text>
</a>
</g>
</g>
<!-- river&#45;ingester&#45;&gt;pygplates -->
<!-- pixsfm -->
<g id="node40" class="node">
<title>pixsfm</title>
<g id="a_node40"><a xlink:href="https://github.com/conda-forge/pixsfm-feedstock/pull/16" xlink:title="pixsfm ❎">
<ellipse fill="#31688e" stroke="black" cx="1146" cy="-322" rx="60.15" ry="18"/>
<text text-anchor="middle" x="1146" y="-317.32" font-family="Times,serif" font-size="14.00" fill="white">pixsfm ❎</text>
</a>
</g>
</g>
<!-- pygplates&#45;&gt;pixsfm -->
</g>
</svg>
