<?xml version="1.0" encoding="UTF-8" standalone="no"?>
<!DOCTYPE svg PUBLIC "-//W3C//DTD SVG 1.1//EN"
 "http://www.w3.org/Graphics/SVG/1.1/DTD/svg11.dtd">
<!-- Generated by graphviz version 9.0.0 (20231125.0833)
 -->
<!-- Pages: 1 -->
<svg width="1082pt" height="1068pt"
 viewBox="0.00 0.00 1081.79 1068.00" xmlns="http://www.w3.org/2000/svg" xmlns:xlink="http://www.w3.org/1999/xlink">
<g id="graph0" class="graph" transform="scale(1 1) rotate(0) translate(4 1064)">
<polygon fill="white" stroke="none" points="-4,4 -4,-1064 1077.79,-1064 1077.79,4 -4,4"/>
<!-- vigra -->
<g id="node1" class="node">
<title>vigra</title>
<g id="a_node1"><a xlink:href="https://github.com/conda-forge/vigra-feedstock/pull/131" xlink:title="vigra ❎">
<ellipse fill="#31688e" stroke="black" cx="946.3" cy="-242" rx="52.26" ry="18"/>
<text text-anchor="middle" x="946.3" y="-237.32" font-family="Times,serif" font-size="14.00" fill="white">vigra ❎</text>
</a>
</g>
</g>
<!-- hugin -->
<g id="node2" class="node">
<title>hugin</title>
<g id="a_node2"><a xlink:href="https://github.com/conda-forge/hugin-feedstock" xlink:title="hugin">
<ellipse fill="#fde725" stroke="black" cx="946.3" cy="-170" rx="39.63" ry="18"/>
<text text-anchor="middle" x="946.3" y="-165.32" font-family="Times,serif" font-size="14.00">hugin</text>
</a>
</g>
</g>
<!-- vigra&#45;&gt;hugin -->
<g id="edge1" class="edge">
<title>vigra&#45;&gt;hugin</title>
<path fill="none" stroke="black" d="M946.3,-223.7C946.3,-216.41 946.3,-207.73 946.3,-199.54"/>
<polygon fill="black" stroke="black" points="949.8,-199.62 946.3,-189.62 942.8,-199.62 949.8,-199.62"/>
</g>
<!-- smesh -->
<g id="node3" class="node">
<title>smesh</title>
<g id="a_node3"><a xlink:href="https://github.com/conda-forge/smesh-feedstock/pull/79" xlink:title="smesh ✓">
<ellipse fill="#31688e" stroke="black" cx="279.3" cy="-90" rx="51.21" ry="18"/>
<text text-anchor="middle" x="279.3" y="-85.33" font-family="Times,serif" font-size="14.00" fill="white">smesh ✓</text>
</a>
</g>
</g>
<!-- freecad -->
<g id="node4" class="node">
<title>freecad</title>
<g id="a_node4"><a xlink:href="https://github.com/conda-forge/freecad-feedstock" xlink:title="freecad">
<ellipse fill="#fde725" stroke="black" cx="279.3" cy="-18" rx="48.58" ry="18"/>
<text text-anchor="middle" x="279.3" y="-13.32" font-family="Times,serif" font-size="14.00">freecad</text>
</a>
</g>
</g>
<!-- smesh&#45;&gt;freecad -->
<g id="edge2" class="edge">
<title>smesh&#45;&gt;freecad</title>
<path fill="none" stroke="black" d="M279.3,-71.7C279.3,-64.41 279.3,-55.73 279.3,-47.54"/>
<polygon fill="black" stroke="black" points="282.8,-47.62 279.3,-37.62 275.8,-47.62 282.8,-47.62"/>
</g>
<!-- ldas&#45;tools&#45;frameapi -->
<g id="node5" class="node">
<title>ldas&#45;tools&#45;frameapi</title>
<g id="a_node5"><a xlink:href="https://github.com/conda-forge/ldas-tools-frameapi-feedstock/pull/18" xlink:title="ldas tools frameapi ❎">
<ellipse fill="#31688e" stroke="black" cx="689.3" cy="-242" rx="122.23" ry="18"/>
<text text-anchor="middle" x="689.3" y="-237.32" font-family="Times,serif" font-size="14.00" fill="white">ldas tools frameapi ❎</text>
</a>
</g>
</g>
<!-- ldas&#45;tools&#45;utilities -->
<g id="node6" class="node">
<title>ldas&#45;tools&#45;utilities</title>
<g id="a_node6"><a xlink:href="https://github.com/conda-forge/ldas-tools-utilities-feedstock" xlink:title="ldas tools utilities">
<ellipse fill="#fde725" stroke="black" cx="689.3" cy="-170" rx="100.66" ry="18"/>
<text text-anchor="middle" x="689.3" y="-165.32" font-family="Times,serif" font-size="14.00">ldas tools utilities</text>
</a>
</g>
</g>
<!-- ldas&#45;tools&#45;frameapi&#45;&gt;ldas&#45;tools&#45;utilities -->
<g id="edge3" class="edge">
<title>ldas&#45;tools&#45;frameapi&#45;&gt;ldas&#45;tools&#45;utilities</title>
<path fill="none" stroke="black" d="M689.3,-223.7C689.3,-216.41 689.3,-207.73 689.3,-199.54"/>
<polygon fill="black" stroke="black" points="692.8,-199.62 689.3,-189.62 685.8,-199.62 692.8,-199.62"/>
</g>
<!-- ifcopenshell -->
<g id="node7" class="node">
<title>ifcopenshell</title>
<g id="a_node7"><a xlink:href="https://github.com/conda-forge/ifcopenshell-feedstock/pull/46" xlink:title="ifcopenshell ❎">
<ellipse fill="#31688e" stroke="black" cx="689.3" cy="-1042" rx="86.46" ry="18"/>
<text text-anchor="middle" x="689.3" y="-1037.33" font-family="Times,serif" font-size="14.00" fill="white">ifcopenshell ❎</text>
</a>
</g>
</g>
<!-- dcgp&#45;python -->
<g id="node8" class="node">
<title>dcgp&#45;python</title>
<g id="a_node8"><a xlink:href="https://github.com/conda-forge/dcgp-python-feedstock/pull/24" xlink:title="dcgp python ❎">
<ellipse fill="#31688e" stroke="black" cx="689.3" cy="-970" rx="88.56" ry="18"/>
<text text-anchor="middle" x="689.3" y="-965.33" font-family="Times,serif" font-size="14.00" fill="white">dcgp python ❎</text>
</a>
</g>
</g>
<!-- ifcopenshell&#45;&gt;dcgp&#45;python -->
<!-- odil -->
<g id="node9" class="node">
<title>odil</title>
<g id="a_node9"><a xlink:href="https://github.com/conda-forge/odil-feedstock/pull/31" xlink:title="odil ❎">
<ellipse fill="#31688e" stroke="black" cx="689.3" cy="-898" rx="44.9" ry="18"/>
<text text-anchor="middle" x="689.3" y="-893.33" font-family="Times,serif" font-size="14.00" fill="white">odil ❎</text>
</a>
</g>
</g>
<!-- dcgp&#45;python&#45;&gt;odil -->
<!-- ompl -->
<g id="node13" class="node">
<title>ompl</title>
<g id="a_node13"><a xlink:href="https://github.com/conda-forge/ompl-feedstock/pull/35" xlink:title="ompl ❎">
<ellipse fill="#31688e" stroke="black" cx="689.3" cy="-826" rx="51.21" ry="18"/>
<text text-anchor="middle" x="689.3" y="-821.33" font-family="Times,serif" font-size="14.00" fill="white">ompl ❎</text>
</a>
</g>
</g>
<!-- odil&#45;&gt;ompl -->
<!-- gnuradio -->
<g id="node10" class="node">
<title>gnuradio</title>
<g id="a_node10"><a xlink:href="https://github.com/conda-forge/gnuradio-feedstock" xlink:title="gnuradio">
<ellipse fill="#000000" stroke="black" cx="334.3" cy="-278" rx="55.94" ry="18"/>
<text text-anchor="middle" x="334.3" y="-273.32" font-family="Times,serif" font-size="14.00" fill="white">gnuradio</text>
</a>
</g>
</g>
<!-- gnuradio&#45;osmosdr -->
<g id="node11" class="node">
<title>gnuradio&#45;osmosdr</title>
<g id="a_node11"><a xlink:href="https://github.com/conda-forge/gnuradio-osmosdr-feedstock" xlink:title="gnuradio osmosdr">
<ellipse fill="#fde725" stroke="black" cx="269.3" cy="-206" rx="101.71" ry="18"/>
<text text-anchor="middle" x="269.3" y="-201.33" font-family="Times,serif" font-size="14.00">gnuradio osmosdr</text>
</a>
</g>
</g>
<!-- gnuradio&#45;&gt;gnuradio&#45;osmosdr -->
<g id="edge6" class="edge">
<title>gnuradio&#45;&gt;gnuradio&#45;osmosdr</title>
<path fill="none" stroke="black" d="M318.89,-260.41C311.08,-251.99 301.41,-241.58 292.7,-232.2"/>
<polygon fill="black" stroke="black" points="295.44,-230.01 286.07,-225.07 290.31,-234.77 295.44,-230.01"/>
</g>
<!-- gnss&#45;sdr -->
<g id="node12" class="node">
<title>gnss&#45;sdr</title>
<g id="a_node12"><a xlink:href="https://github.com/conda-forge/gnss-sdr-feedstock" xlink:title="gnss sdr">
<ellipse fill="#fde725" stroke="black" cx="334.3" cy="-134" rx="53.84" ry="18"/>
<text text-anchor="middle" x="334.3" y="-129.32" font-family="Times,serif" font-size="14.00">gnss sdr</text>
</a>
</g>
</g>
<!-- gnuradio&#45;&gt;gnss&#45;sdr -->
<g id="edge7" class="edge">
<title>gnuradio&#45;&gt;gnss&#45;sdr</title>
<path fill="none" stroke="black" d="M353.68,-261C363.7,-251.45 374.93,-238.38 380.3,-224 385.9,-209.01 385.9,-202.99 380.3,-188 376.31,-177.33 369.1,-167.38 361.55,-159.05"/>
<polygon fill="black" stroke="black" points="364.23,-156.79 354.74,-152.08 359.22,-161.68 364.23,-156.79"/>
</g>
<!-- gnuradio&#45;osmosdr&#45;&gt;gnss&#45;sdr -->
<g id="edge8" class="edge">
<title>gnuradio&#45;osmosdr&#45;&gt;gnss&#45;sdr</title>
<path fill="none" stroke="black" d="M285.03,-188.05C292.97,-179.5 302.75,-168.97 311.5,-159.56"/>
<polygon fill="black" stroke="black" points="313.89,-162.13 318.13,-152.42 308.76,-157.36 313.89,-162.13"/>
</g>
<!-- smina -->
<g id="node14" class="node">
<title>smina</title>
<g id="a_node14"><a xlink:href="https://github.com/conda-forge/smina-feedstock/pull/3" xlink:title="smina ❎">
<ellipse fill="#31688e" stroke="black" cx="689.3" cy="-754" rx="56.47" ry="18"/>
<text text-anchor="middle" x="689.3" y="-749.33" font-family="Times,serif" font-size="14.00" fill="white">smina ❎</text>
</a>
</g>
</g>
<!-- ompl&#45;&gt;smina -->
<!-- scipoptsuite -->
<g id="node24" class="node">
<title>scipoptsuite</title>
<g id="a_node24"><a xlink:href="https://github.com/conda-forge/scipoptsuite-feedstock/pull/64" xlink:title="scipoptsuite ❎">
<ellipse fill="#31688e" stroke="black" cx="689.3" cy="-682" rx="87.51" ry="18"/>
<text text-anchor="middle" x="689.3" y="-677.33" font-family="Times,serif" font-size="14.00" fill="white">scipoptsuite ❎</text>
</a>
</g>
</g>
<!-- smina&#45;&gt;scipoptsuite -->
<!-- hpp&#45;corbaserver -->
<g id="node15" class="node">
<title>hpp&#45;corbaserver</title>
<g id="a_node15"><a xlink:href="https://github.com/conda-forge/hpp-corbaserver-feedstock" xlink:title="hpp corbaserver">
<ellipse fill="#35b779" stroke="black" cx="93.3" cy="-790" rx="93.3" ry="18"/>
<text text-anchor="middle" x="93.3" y="-785.33" font-family="Times,serif" font-size="14.00">hpp corbaserver</text>
</a>
</g>
</g>
<!-- hpp&#45;manipulation&#45;corba -->
<g id="node16" class="node">
<title>hpp&#45;manipulation&#45;corba</title>
<g id="a_node16"><a xlink:href="https://github.com/conda-forge/hpp-manipulation-corba-feedstock" xlink:title="hpp manipulation corba">
<ellipse fill="#fde725" stroke="black" cx="270.3" cy="-718" rx="130.13" ry="18"/>
<text text-anchor="middle" x="270.3" y="-713.33" font-family="Times,serif" font-size="14.00">hpp manipulation corba</text>
</a>
</g>
</g>
<!-- hpp&#45;corbaserver&#45;&gt;hpp&#45;manipulation&#45;corba -->
<g id="edge11" class="edge">
<title>hpp&#45;corbaserver&#45;&gt;hpp&#45;manipulation&#45;corba</title>
<path fill="none" stroke="black" d="M133.02,-773.29C158.12,-763.36 190.84,-750.42 218.04,-739.67"/>
<polygon fill="black" stroke="black" points="219.13,-743 227.14,-736.07 216.56,-736.49 219.13,-743"/>
</g>
<!-- hpp&#45;gepetto&#45;viewer -->
<g id="node17" class="node">
<title>hpp&#45;gepetto&#45;viewer</title>
<g id="a_node17"><a xlink:href="https://github.com/conda-forge/hpp-gepetto-viewer-feedstock" xlink:title="hpp gepetto viewer">
<ellipse fill="#fde725" stroke="black" cx="410.3" cy="-646" rx="108.55" ry="18"/>
<text text-anchor="middle" x="410.3" y="-641.33" font-family="Times,serif" font-size="14.00">hpp gepetto viewer</text>
</a>
</g>
</g>
<!-- hpp&#45;corbaserver&#45;&gt;hpp&#45;gepetto&#45;viewer -->
<g id="edge12" class="edge">
<title>hpp&#45;corbaserver&#45;&gt;hpp&#45;gepetto&#45;viewer</title>
<path fill="none" stroke="black" d="M95.75,-771.68C99.59,-751.28 109.04,-717.9 131.3,-700 146.01,-688.16 243.05,-671.51 318.6,-660.05"/>
<polygon fill="black" stroke="black" points="318.72,-663.57 328.08,-658.62 317.67,-656.65 318.72,-663.57"/>
</g>
<!-- hpp&#45;plot -->
<g id="node18" class="node">
<title>hpp&#45;plot</title>
<g id="a_node18"><a xlink:href="https://github.com/conda-forge/hpp-plot-feedstock" xlink:title="hpp plot">
<ellipse fill="#fde725" stroke="black" cx="213.3" cy="-646" rx="52.79" ry="18"/>
<text text-anchor="middle" x="213.3" y="-641.33" font-family="Times,serif" font-size="14.00">hpp plot</text>
</a>
</g>
</g>
<!-- hpp&#45;corbaserver&#45;&gt;hpp&#45;plot -->
<g id="edge13" class="edge">
<title>hpp&#45;corbaserver&#45;&gt;hpp&#45;plot</title>
<path fill="none" stroke="black" d="M89.36,-771.61C86.03,-752.36 83.84,-721.24 98.3,-700 106.63,-687.75 138.07,-673.71 165.97,-663.16"/>
<polygon fill="black" stroke="black" points="166.84,-666.57 175.01,-659.82 164.42,-660 166.84,-666.57"/>
</g>
<!-- hpp&#45;tutorial -->
<g id="node19" class="node">
<title>hpp&#45;tutorial</title>
<g id="a_node19"><a xlink:href="https://github.com/conda-forge/hpp-tutorial-feedstock" xlink:title="hpp tutorial">
<ellipse fill="#fde725" stroke="black" cx="72.3" cy="-646" rx="70.68" ry="18"/>
<text text-anchor="middle" x="72.3" y="-641.33" font-family="Times,serif" font-size="14.00">hpp tutorial</text>
</a>
</g>
</g>
<!-- hpp&#45;corbaserver&#45;&gt;hpp&#45;tutorial -->
<g id="edge14" class="edge">
<title>hpp&#45;corbaserver&#45;&gt;hpp&#45;tutorial</title>
<path fill="none" stroke="black" d="M79.32,-772.04C72.1,-762.18 64.05,-749.13 60.3,-736 54.63,-716.17 58.02,-693.08 62.62,-675.38"/>
<polygon fill="black" stroke="black" points="65.97,-676.4 65.4,-665.82 59.25,-674.44 65.97,-676.4"/>
</g>
<!-- hpp&#45;manipulation&#45;corba&#45;&gt;hpp&#45;gepetto&#45;viewer -->
<g id="edge15" class="edge">
<title>hpp&#45;manipulation&#45;corba&#45;&gt;hpp&#45;gepetto&#45;viewer</title>
<path fill="none" stroke="black" d="M303.83,-700.23C322.84,-690.73 346.84,-678.73 367.23,-668.53"/>
<polygon fill="black" stroke="black" points="368.79,-671.67 376.17,-664.07 365.66,-665.41 368.79,-671.67"/>
</g>
<!-- hpp&#45;manipulation&#45;corba&#45;&gt;hpp&#45;plot -->
<g id="edge16" class="edge">
<title>hpp&#45;manipulation&#45;corba&#45;&gt;hpp&#45;plot</title>
<path fill="none" stroke="black" d="M256.21,-699.7C249.48,-691.44 241.3,-681.39 233.9,-672.3"/>
<polygon fill="black" stroke="black" points="236.82,-670.34 227.79,-664.8 231.39,-674.76 236.82,-670.34"/>
</g>
<!-- hpp&#45;manipulation&#45;corba&#45;&gt;hpp&#45;tutorial -->
<g id="edge17" class="edge">
<title>hpp&#45;manipulation&#45;corba&#45;&gt;hpp&#45;tutorial</title>
<path fill="none" stroke="black" d="M224.37,-700.76C194.02,-690.03 154.22,-675.96 122.95,-664.91"/>
<polygon fill="black" stroke="black" points="124.3,-661.67 113.7,-661.64 121.96,-668.27 124.3,-661.67"/>
</g>
<!-- hpp&#45;practicals -->
<g id="node20" class="node">
<title>hpp&#45;practicals</title>
<g id="a_node20"><a xlink:href="https://github.com/conda-forge/hpp-practicals-feedstock" xlink:title="hpp practicals">
<ellipse fill="#fde725" stroke="black" cx="205.3" cy="-574" rx="82.25" ry="18"/>
<text text-anchor="middle" x="205.3" y="-569.33" font-family="Times,serif" font-size="14.00">hpp practicals</text>
</a>
</g>
</g>
<!-- hpp&#45;plot&#45;&gt;hpp&#45;practicals -->
<g id="edge18" class="edge">
<title>hpp&#45;plot&#45;&gt;hpp&#45;practicals</title>
<path fill="none" stroke="black" d="M211.32,-627.7C210.49,-620.41 209.49,-611.73 208.56,-603.54"/>
<polygon fill="black" stroke="black" points="212.04,-603.15 207.42,-593.61 205.08,-603.94 212.04,-603.15"/>
</g>
<!-- hpp&#45;doc -->
<g id="node21" class="node">
<title>hpp&#45;doc</title>
<g id="a_node21"><a xlink:href="https://github.com/conda-forge/hpp-doc-feedstock" xlink:title="hpp doc">
<ellipse fill="#fde725" stroke="black" cx="142.3" cy="-502" rx="50.68" ry="18"/>
<text text-anchor="middle" x="142.3" y="-497.32" font-family="Times,serif" font-size="14.00">hpp doc</text>
</a>
</g>
</g>
<!-- hpp&#45;tutorial&#45;&gt;hpp&#45;doc -->
<g id="edge19" class="edge">
<title>hpp&#45;tutorial&#45;&gt;hpp&#45;doc</title>
<path fill="none" stroke="black" d="M80.12,-627.83C88.39,-609.82 101.92,-580.76 114.3,-556 118.55,-547.49 123.34,-538.3 127.73,-530"/>
<polygon fill="black" stroke="black" points="130.69,-531.89 132.31,-521.42 124.51,-528.6 130.69,-531.89"/>
</g>
<!-- hpp&#45;practicals&#45;&gt;hpp&#45;doc -->
<g id="edge38" class="edge">
<title>hpp&#45;practicals&#45;&gt;hpp&#45;doc</title>
<path fill="none" stroke="black" d="M190.05,-556.05C182.43,-547.59 173.07,-537.19 164.66,-527.84"/>
<polygon fill="black" stroke="black" points="167.28,-525.52 157.99,-520.43 162.07,-530.21 167.28,-525.52"/>
</g>
<!-- hpp&#45;manipulation&#45;urdf -->
<g id="node22" class="node">
<title>hpp&#45;manipulation&#45;urdf</title>
<g id="a_node22"><a xlink:href="https://github.com/conda-forge/hpp-manipulation-urdf-feedstock" xlink:title="hpp manipulation urdf">
<ellipse fill="#fde725" stroke="black" cx="393.3" cy="-790" rx="123.29" ry="18"/>
<text text-anchor="middle" x="393.3" y="-785.33" font-family="Times,serif" font-size="14.00">hpp manipulation urdf</text>
</a>
</g>
</g>
<!-- hpp&#45;manipulation&#45;urdf&#45;&gt;hpp&#45;manipulation&#45;corba -->
<g id="edge20" class="edge">
<title>hpp&#45;manipulation&#45;urdf&#45;&gt;hpp&#45;manipulation&#45;corba</title>
<path fill="none" stroke="black" d="M363.52,-772.05C347.36,-762.85 327.16,-751.36 309.71,-741.43"/>
<polygon fill="black" stroke="black" points="311.54,-738.44 301.11,-736.54 308.07,-744.53 311.54,-738.44"/>
</g>
<!-- hpp&#45;manipulation&#45;urdf&#45;&gt;hpp&#45;gepetto&#45;viewer -->
<g id="edge21" class="edge">
<title>hpp&#45;manipulation&#45;urdf&#45;&gt;hpp&#45;gepetto&#45;viewer</title>
<path fill="none" stroke="black" d="M399.9,-771.62C403.43,-761.41 407.43,-748.16 409.3,-736 412.37,-715.99 412.56,-693.16 412.01,-675.63"/>
<polygon fill="black" stroke="black" points="415.51,-675.53 411.59,-665.69 408.52,-675.83 415.51,-675.53"/>
</g>
<!-- hpp&#45;manipulation -->
<g id="node23" class="node">
<title>hpp&#45;manipulation</title>
<g id="a_node23"><a xlink:href="https://github.com/conda-forge/hpp-manipulation-feedstock" xlink:title="hpp manipulation">
<ellipse fill="#35b779" stroke="black" cx="393.3" cy="-862" rx="99.08" ry="18"/>
<text text-anchor="middle" x="393.3" y="-857.33" font-family="Times,serif" font-size="14.00">hpp manipulation</text>
</a>
</g>
</g>
<!-- hpp&#45;manipulation&#45;&gt;hpp&#45;manipulation&#45;corba -->
<g id="edge22" class="edge">
<title>hpp&#45;manipulation&#45;&gt;hpp&#45;manipulation&#45;corba</title>
<path fill="none" stroke="black" d="M322.43,-849.08C298.99,-841.4 275.34,-828.76 261.3,-808 249.34,-790.31 252.82,-765.96 258.61,-747.2"/>
<polygon fill="black" stroke="black" points="261.9,-748.37 261.89,-737.78 255.29,-746.07 261.9,-748.37"/>
</g>
<!-- hpp&#45;manipulation&#45;&gt;hpp&#45;gepetto&#45;viewer -->
<g id="edge23" class="edge">
<title>hpp&#45;manipulation&#45;&gt;hpp&#45;gepetto&#45;viewer</title>
<path fill="none" stroke="black" d="M464.16,-849.08C487.6,-841.4 511.26,-828.76 525.3,-808 558.99,-758.16 492.75,-701.15 447.55,-670.12"/>
<polygon fill="black" stroke="black" points="449.5,-667.21 439.24,-664.56 445.61,-673.03 449.5,-667.21"/>
</g>
<!-- hpp&#45;manipulation&#45;&gt;hpp&#45;manipulation&#45;urdf -->
<g id="edge24" class="edge">
<title>hpp&#45;manipulation&#45;&gt;hpp&#45;manipulation&#45;urdf</title>
<path fill="none" stroke="black" d="M393.3,-843.7C393.3,-836.41 393.3,-827.73 393.3,-819.54"/>
<polygon fill="black" stroke="black" points="396.8,-819.62 393.3,-809.62 389.8,-819.62 396.8,-819.62"/>
</g>
<!-- pycuda -->
<g id="node25" class="node">
<title>pycuda</title>
<g id="a_node25"><a xlink:href="https://github.com/conda-forge/pycuda-feedstock/pull/38" xlink:title="pycuda ❎">
<ellipse fill="#31688e" stroke="black" cx="689.3" cy="-610" rx="62.26" ry="18"/>
<text text-anchor="middle" x="689.3" y="-605.33" font-family="Times,serif" font-size="14.00" fill="white">pycuda ❎</text>
</a>
</g>
</g>
<!-- scipoptsuite&#45;&gt;pycuda -->
<!-- cudadecon -->
<g id="node26" class="node">
<title>cudadecon</title>
<g id="a_node26"><a xlink:href="https://github.com/conda-forge/cudadecon-feedstock/pull/28" xlink:title="cudadecon ❎">
<ellipse fill="#31688e" stroke="black" cx="689.3" cy="-538" rx="79.62" ry="18"/>
<text text-anchor="middle" x="689.3" y="-533.33" font-family="Times,serif" font-size="14.00" fill="white">cudadecon ❎</text>
</a>
</g>
</g>
<!-- pycuda&#45;&gt;cudadecon -->
<!-- tsid -->
<g id="node27" class="node">
<title>tsid</title>
<g id="a_node27"><a xlink:href="https://github.com/conda-forge/tsid-feedstock/pull/33" xlink:title="tsid ❎">
<ellipse fill="#31688e" stroke="black" cx="689.3" cy="-466" rx="45.42" ry="18"/>
<text text-anchor="middle" x="689.3" y="-461.32" font-family="Times,serif" font-size="14.00" fill="white">tsid ❎</text>
</a>
</g>
</g>
<!-- cudadecon&#45;&gt;tsid -->
<!-- cudasirecon -->
<g id="node28" class="node">
<title>cudasirecon</title>
<g id="a_node28"><a xlink:href="https://github.com/conda-forge/cudasirecon-feedstock/pull/29" xlink:title="cudasirecon ❎">
<ellipse fill="#31688e" stroke="black" cx="689.3" cy="-394" rx="86.46" ry="18"/>
<text text-anchor="middle" x="689.3" y="-389.32" font-family="Times,serif" font-size="14.00" fill="white">cudasirecon ❎</text>
</a>
</g>
</g>
<!-- tsid&#45;&gt;cudasirecon -->
<!-- vina -->
<g id="node29" class="node">
<title>vina</title>
<g id="a_node29"><a xlink:href="https://github.com/conda-forge/vina-feedstock/pull/16" xlink:title="vina ❎">
<ellipse fill="#31688e" stroke="black" cx="689.3" cy="-322" rx="47.53" ry="18"/>
<text text-anchor="middle" x="689.3" y="-317.32" font-family="Times,serif" font-size="14.00" fill="white">vina ❎</text>
</a>
</g>
</g>
<!-- cudasirecon&#45;&gt;vina -->
<!-- vmtk -->
<g id="node30" class="node">
<title>vmtk</title>
<g id="a_node30"><a xlink:href="https://github.com/conda-forge/vmtk-feedstock/pull/23" xlink:title="vmtk ❎">
<ellipse fill="#31688e" stroke="black" cx="946.3" cy="-934" rx="51.74" ry="18"/>
<text text-anchor="middle" x="946.3" y="-929.33" font-family="Times,serif" font-size="14.00" fill="white">vmtk ❎</text>
</a>
</g>
</g>
<!-- rstudio -->
<g id="node31" class="node">
<title>rstudio</title>
<g id="a_node31"><a xlink:href="https://github.com/conda-forge/rstudio-feedstock/pull/30" xlink:title="rstudio ❎">
<ellipse fill="#31688e" stroke="black" cx="946.3" cy="-862" rx="62.26" ry="18"/>
<text text-anchor="middle" x="946.3" y="-857.33" font-family="Times,serif" font-size="14.00" fill="white">rstudio ❎</text>
</a>
</g>
</g>
<!-- vmtk&#45;&gt;rstudio -->
<!-- xilinx&#45;runtime -->
<g id="node32" class="node">
<title>xilinx&#45;runtime</title>
<g id="a_node32"><a xlink:href="https://github.com/conda-forge/xilinx-runtime-feedstock/pull/34" xlink:title="xilinx runtime ❎">
<ellipse fill="#31688e" stroke="black" cx="946.3" cy="-790" rx="96.98" ry="18"/>
<text text-anchor="middle" x="946.3" y="-785.33" font-family="Times,serif" font-size="14.00" fill="white">xilinx runtime ❎</text>
</a>
</g>
</g>
<!-- rstudio&#45;&gt;xilinx&#45;runtime -->
<!-- qtmolecularnetwork -->
<g id="node33" class="node">
<title>qtmolecularnetwork</title>
<g id="a_node33"><a xlink:href="https://github.com/conda-forge/qtmolecularnetwork-feedstock/pull/16" xlink:title="qtmolecularnetwork ❎">
<ellipse fill="#31688e" stroke="black" cx="946.3" cy="-718" rx="127.49" ry="18"/>
<text text-anchor="middle" x="946.3" y="-713.33" font-family="Times,serif" font-size="14.00" fill="white">qtmolecularnetwork ❎</text>
</a>
</g>
</g>
<!-- xilinx&#45;runtime&#45;&gt;qtmolecularnetwork -->
<!-- hdk -->
<g id="node34" class="node">
<title>hdk</title>
<g id="a_node34"><a xlink:href="https://github.com/conda-forge/hdk-feedstock" xlink:title="hdk">
<ellipse fill="#000000" stroke="black" cx="946.3" cy="-646" rx="29.64" ry="18"/>
<text text-anchor="middle" x="946.3" y="-641.33" font-family="Times,serif" font-size="14.00" fill="white">hdk</text>
</a>
</g>
</g>
<!-- qtmolecularnetwork&#45;&gt;hdk -->
<!-- river&#45;ingester -->
<g id="node35" class="node">
<title>river&#45;ingester</title>
<g id="a_node35"><a xlink:href="https://github.com/conda-forge/river-ingester-feedstock/pull/24" xlink:title="river ingester ❎">
<ellipse fill="#31688e" stroke="black" cx="946.3" cy="-574" rx="95.4" ry="18"/>
<text text-anchor="middle" x="946.3" y="-569.33" font-family="Times,serif" font-size="14.00" fill="white">river ingester ❎</text>
</a>
</g>
</g>
<!-- hdk&#45;&gt;river&#45;ingester -->
<!-- pygplates -->
<g id="node36" class="node">
<title>pygplates</title>
<g id="a_node36"><a xlink:href="https://github.com/conda-forge/pygplates-feedstock/pull/20" xlink:title="pygplates ❎">
<ellipse fill="#31688e" stroke="black" cx="946.3" cy="-502" rx="75.41" ry="18"/>
<text text-anchor="middle" x="946.3" y="-497.32" font-family="Times,serif" font-size="14.00" fill="white">pygplates ❎</text>
</a>
</g>
</g>
<!-- river&#45;ingester&#45;&gt;pygplates -->
<!-- pixsfm -->
<g id="node37" class="node">
<title>pixsfm</title>
<g id="a_node37"><a xlink:href="https://github.com/conda-forge/pixsfm-feedstock/pull/16" xlink:title="pixsfm ❎">
<ellipse fill="#31688e" stroke="black" cx="946.3" cy="-430" rx="60.15" ry="18"/>
<text text-anchor="middle" x="946.3" y="-425.32" font-family="Times,serif" font-size="14.00" fill="white">pixsfm ❎</text>
</a>
</g>
</g>
<!-- pygplates&#45;&gt;pixsfm -->
</g>
</svg>
