<?xml version="1.0" encoding="UTF-8" standalone="no"?>
<!DOCTYPE svg PUBLIC "-//W3C//DTD SVG 1.1//EN"
 "http://www.w3.org/Graphics/SVG/1.1/DTD/svg11.dtd">
<!-- Generated by graphviz version 9.0.0 (20231125.0833)
 -->
<!-- Pages: 1 -->
<svg width="1802pt" height="1068pt"
 viewBox="0.00 0.00 1802.17 1068.00" xmlns="http://www.w3.org/2000/svg" xmlns:xlink="http://www.w3.org/1999/xlink">
<g id="graph0" class="graph" transform="scale(1 1) rotate(0) translate(4 1064)">
<polygon fill="white" stroke="none" points="-4,4 -4,-1064 1798.17,-1064 1798.17,4 -4,4"/>
<!-- vigra -->
<g id="node1" class="node">
<title>vigra</title>
<g id="a_node1"><a xlink:href="https://github.com/conda-forge/vigra-feedstock/pull/131" xlink:title="vigra ❎">
<ellipse fill="#31688e" stroke="black" cx="1666.68" cy="-242" rx="52.26" ry="18"/>
<text text-anchor="middle" x="1666.68" y="-237.32" font-family="Times,serif" font-size="14.00" fill="white">vigra ❎</text>
</a>
</g>
</g>
<!-- hugin -->
<g id="node2" class="node">
<title>hugin</title>
<g id="a_node2"><a xlink:href="https://github.com/conda-forge/hugin-feedstock" xlink:title="hugin">
<ellipse fill="#fde725" stroke="black" cx="1666.68" cy="-170" rx="39.63" ry="18"/>
<text text-anchor="middle" x="1666.68" y="-165.32" font-family="Times,serif" font-size="14.00">hugin</text>
</a>
</g>
</g>
<!-- vigra&#45;&gt;hugin -->
<g id="edge1" class="edge">
<title>vigra&#45;&gt;hugin</title>
<path fill="none" stroke="black" d="M1666.68,-223.7C1666.68,-216.41 1666.68,-207.73 1666.68,-199.54"/>
<polygon fill="black" stroke="black" points="1670.18,-199.62 1666.68,-189.62 1663.18,-199.62 1670.18,-199.62"/>
</g>
<!-- smesh -->
<g id="node3" class="node">
<title>smesh</title>
<g id="a_node3"><a xlink:href="https://github.com/conda-forge/smesh-feedstock/pull/79" xlink:title="smesh ✓">
<ellipse fill="#31688e" stroke="black" cx="639.68" cy="-90" rx="51.21" ry="18"/>
<text text-anchor="middle" x="639.68" y="-85.33" font-family="Times,serif" font-size="14.00" fill="white">smesh ✓</text>
</a>
</g>
</g>
<!-- freecad -->
<g id="node4" class="node">
<title>freecad</title>
<g id="a_node4"><a xlink:href="https://github.com/conda-forge/freecad-feedstock" xlink:title="freecad">
<ellipse fill="#fde725" stroke="black" cx="639.68" cy="-18" rx="48.58" ry="18"/>
<text text-anchor="middle" x="639.68" y="-13.32" font-family="Times,serif" font-size="14.00">freecad</text>
</a>
</g>
</g>
<!-- smesh&#45;&gt;freecad -->
<g id="edge2" class="edge">
<title>smesh&#45;&gt;freecad</title>
<path fill="none" stroke="black" d="M639.68,-71.7C639.68,-64.41 639.68,-55.73 639.68,-47.54"/>
<polygon fill="black" stroke="black" points="643.18,-47.62 639.68,-37.62 636.18,-47.62 643.18,-47.62"/>
</g>
<!-- ldas&#45;tools&#45;frameapi -->
<g id="node5" class="node">
<title>ldas&#45;tools&#45;frameapi</title>
<g id="a_node5"><a xlink:href="https://github.com/conda-forge/ldas-tools-frameapi-feedstock/pull/18" xlink:title="ldas tools frameapi ❎">
<ellipse fill="#31688e" stroke="black" cx="1408.68" cy="-242" rx="122.23" ry="18"/>
<text text-anchor="middle" x="1408.68" y="-237.32" font-family="Times,serif" font-size="14.00" fill="white">ldas tools frameapi ❎</text>
</a>
</g>
</g>
<!-- ldas&#45;tools&#45;utilities -->
<g id="node6" class="node">
<title>ldas&#45;tools&#45;utilities</title>
<g id="a_node6"><a xlink:href="https://github.com/conda-forge/ldas-tools-utilities-feedstock" xlink:title="ldas tools utilities">
<ellipse fill="#fde725" stroke="black" cx="1408.68" cy="-170" rx="100.66" ry="18"/>
<text text-anchor="middle" x="1408.68" y="-165.32" font-family="Times,serif" font-size="14.00">ldas tools utilities</text>
</a>
</g>
</g>
<!-- ldas&#45;tools&#45;frameapi&#45;&gt;ldas&#45;tools&#45;utilities -->
<g id="edge3" class="edge">
<title>ldas&#45;tools&#45;frameapi&#45;&gt;ldas&#45;tools&#45;utilities</title>
<path fill="none" stroke="black" d="M1408.68,-223.7C1408.68,-216.41 1408.68,-207.73 1408.68,-199.54"/>
<polygon fill="black" stroke="black" points="1412.18,-199.62 1408.68,-189.62 1405.18,-199.62 1412.18,-199.62"/>
</g>
<!-- ambertools -->
<g id="node7" class="node">
<title>ambertools</title>
<g id="a_node7"><a xlink:href="https://github.com/conda-forge/ambertools-feedstock/pull/139" xlink:title="ambertools ❎">
<ellipse fill="#31688e" stroke="black" cx="1408.68" cy="-1042" rx="82.77" ry="18"/>
<text text-anchor="middle" x="1408.68" y="-1037.33" font-family="Times,serif" font-size="14.00" fill="white">ambertools ❎</text>
</a>
</g>
</g>
<!-- ifcopenshell -->
<g id="node8" class="node">
<title>ifcopenshell</title>
<g id="a_node8"><a xlink:href="https://github.com/conda-forge/ifcopenshell-feedstock/pull/46" xlink:title="ifcopenshell ❎">
<ellipse fill="#31688e" stroke="black" cx="1408.68" cy="-970" rx="86.46" ry="18"/>
<text text-anchor="middle" x="1408.68" y="-965.33" font-family="Times,serif" font-size="14.00" fill="white">ifcopenshell ❎</text>
</a>
</g>
</g>
<!-- ambertools&#45;&gt;ifcopenshell -->
<!-- dcgp&#45;python -->
<g id="node9" class="node">
<title>dcgp&#45;python</title>
<g id="a_node9"><a xlink:href="https://github.com/conda-forge/dcgp-python-feedstock/pull/24" xlink:title="dcgp python ❎">
<ellipse fill="#31688e" stroke="black" cx="1408.68" cy="-898" rx="88.56" ry="18"/>
<text text-anchor="middle" x="1408.68" y="-893.33" font-family="Times,serif" font-size="14.00" fill="white">dcgp python ❎</text>
</a>
</g>
</g>
<!-- ifcopenshell&#45;&gt;dcgp&#45;python -->
<!-- odil -->
<g id="node26" class="node">
<title>odil</title>
<g id="a_node26"><a xlink:href="https://github.com/conda-forge/odil-feedstock/pull/31" xlink:title="odil ❎">
<ellipse fill="#31688e" stroke="black" cx="1408.68" cy="-826" rx="44.9" ry="18"/>
<text text-anchor="middle" x="1408.68" y="-821.33" font-family="Times,serif" font-size="14.00" fill="white">odil ❎</text>
</a>
</g>
</g>
<!-- dcgp&#45;python&#45;&gt;odil -->
<!-- pinocchio -->
<g id="node10" class="node">
<title>pinocchio</title>
<g id="a_node10"><a xlink:href="https://github.com/conda-forge/pinocchio-feedstock/pull/114" xlink:title="pinocchio ✓">
<ellipse fill="#31688e" stroke="black" cx="894.68" cy="-1006" rx="66.47" ry="18"/>
<text text-anchor="middle" x="894.68" y="-1001.33" font-family="Times,serif" font-size="14.00" fill="white">pinocchio ✓</text>
</a>
</g>
</g>
<!-- hpp&#45;corbaserver -->
<g id="node11" class="node">
<title>hpp&#45;corbaserver</title>
<g id="a_node11"><a xlink:href="https://github.com/conda-forge/hpp-corbaserver-feedstock" xlink:title="hpp corbaserver">
<ellipse fill="#fde725" stroke="black" cx="172.68" cy="-646" rx="93.3" ry="18"/>
<text text-anchor="middle" x="172.68" y="-641.33" font-family="Times,serif" font-size="14.00">hpp corbaserver</text>
</a>
</g>
</g>
<!-- pinocchio&#45;&gt;hpp&#45;corbaserver -->
<g id="edge6" class="edge">
<title>pinocchio&#45;&gt;hpp&#45;corbaserver</title>
<path fill="none" stroke="black" d="M827.97,-1004.56C645.76,-1002.82 149.24,-994.21 89.68,-952 54.58,-927.13 51.68,-906.01 51.68,-863 51.68,-863 51.68,-863 51.68,-789 51.68,-736.82 99.6,-694.08 135.12,-669.56"/>
<polygon fill="black" stroke="black" points="136.67,-672.73 143.05,-664.27 132.79,-666.91 136.67,-672.73"/>
</g>
<!-- hpp&#45;pinocchio -->
<g id="node12" class="node">
<title>hpp&#45;pinocchio</title>
<g id="a_node12"><a xlink:href="https://github.com/conda-forge/hpp-pinocchio-feedstock" xlink:title="hpp pinocchio">
<ellipse fill="#fde725" stroke="black" cx="515.68" cy="-934" rx="80.67" ry="18"/>
<text text-anchor="middle" x="515.68" y="-929.33" font-family="Times,serif" font-size="14.00">hpp pinocchio</text>
</a>
</g>
</g>
<!-- pinocchio&#45;&gt;hpp&#45;pinocchio -->
<g id="edge7" class="edge">
<title>pinocchio&#45;&gt;hpp&#45;pinocchio</title>
<path fill="none" stroke="black" d="M840.78,-995.05C774.3,-982.77 661.06,-961.85 587.31,-948.23"/>
<polygon fill="black" stroke="black" points="588.24,-944.84 577.77,-946.47 586.97,-951.73 588.24,-944.84"/>
</g>
<!-- hpp&#45;manipulation&#45;corba -->
<g id="node13" class="node">
<title>hpp&#45;manipulation&#45;corba</title>
<g id="a_node13"><a xlink:href="https://github.com/conda-forge/hpp-manipulation-corba-feedstock" xlink:title="hpp manipulation corba">
<ellipse fill="#fde725" stroke="black" cx="325.68" cy="-574" rx="130.13" ry="18"/>
<text text-anchor="middle" x="325.68" y="-569.33" font-family="Times,serif" font-size="14.00">hpp manipulation corba</text>
</a>
</g>
</g>
<!-- pinocchio&#45;&gt;hpp&#45;manipulation&#45;corba -->
<g id="edge8" class="edge">
<title>pinocchio&#45;&gt;hpp&#45;manipulation&#45;corba</title>
<path fill="none" stroke="black" d="M829.14,-1002.61C717.58,-997.71 496,-984.17 425.68,-952 314.86,-901.32 313.78,-821.79 317.68,-700 318.73,-666.94 321.36,-629.04 323.31,-603.72"/>
<polygon fill="black" stroke="black" points="326.79,-604.13 324.09,-593.88 319.81,-603.58 326.79,-604.13"/>
</g>
<!-- crocoddyl -->
<g id="node14" class="node">
<title>crocoddyl</title>
<g id="a_node14"><a xlink:href="https://github.com/conda-forge/crocoddyl-feedstock" xlink:title="crocoddyl">
<ellipse fill="#fde725" stroke="black" cx="982.68" cy="-934" rx="59.63" ry="18"/>
<text text-anchor="middle" x="982.68" y="-929.33" font-family="Times,serif" font-size="14.00">crocoddyl</text>
</a>
</g>
</g>
<!-- pinocchio&#45;&gt;crocoddyl -->
<g id="edge9" class="edge">
<title>pinocchio&#45;&gt;crocoddyl</title>
<path fill="none" stroke="black" d="M915.09,-988.76C926.53,-979.66 940.99,-968.16 953.59,-958.13"/>
<polygon fill="black" stroke="black" points="955.54,-961.05 961.19,-952.09 951.19,-955.58 955.54,-961.05"/>
</g>
<!-- tsid -->
<g id="node15" class="node">
<title>tsid</title>
<g id="a_node15"><a xlink:href="https://github.com/conda-forge/tsid-feedstock" xlink:title="tsid">
<ellipse fill="#fde725" stroke="black" cx="1128.68" cy="-934" rx="30.16" ry="18"/>
<text text-anchor="middle" x="1128.68" y="-929.33" font-family="Times,serif" font-size="14.00">tsid</text>
</a>
</g>
</g>
<!-- pinocchio&#45;&gt;tsid -->
<g id="edge10" class="edge">
<title>pinocchio&#45;&gt;tsid</title>
<path fill="none" stroke="black" d="M942.3,-993.08C980.96,-983.08 1036.73,-967.91 1084.68,-952 1087.56,-951.04 1090.54,-950 1093.52,-948.93"/>
<polygon fill="black" stroke="black" points="1094.6,-952.26 1102.74,-945.48 1092.15,-945.7 1094.6,-952.26"/>
</g>
<!-- aligator -->
<g id="node16" class="node">
<title>aligator</title>
<g id="a_node16"><a xlink:href="https://github.com/conda-forge/aligator-feedstock" xlink:title="aligator">
<ellipse fill="#fde725" stroke="black" cx="934.68" cy="-790" rx="50.16" ry="18"/>
<text text-anchor="middle" x="934.68" y="-785.33" font-family="Times,serif" font-size="14.00">aligator</text>
</a>
</g>
</g>
<!-- pinocchio&#45;&gt;aligator -->
<g id="edge11" class="edge">
<title>pinocchio&#45;&gt;aligator</title>
<path fill="none" stroke="black" d="M897.88,-987.85C904.74,-951.14 920.91,-864.66 929.34,-819.53"/>
<polygon fill="black" stroke="black" points="932.78,-820.19 931.18,-809.72 925.9,-818.91 932.78,-820.19"/>
</g>
<!-- proxsuite&#45;nlp -->
<g id="node17" class="node">
<title>proxsuite&#45;nlp</title>
<g id="a_node17"><a xlink:href="https://github.com/conda-forge/proxsuite-nlp-feedstock" xlink:title="proxsuite nlp">
<ellipse fill="#fde725" stroke="black" cx="1200.68" cy="-862" rx="77.52" ry="18"/>
<text text-anchor="middle" x="1200.68" y="-857.33" font-family="Times,serif" font-size="14.00">proxsuite nlp</text>
</a>
</g>
</g>
<!-- pinocchio&#45;&gt;proxsuite&#45;nlp -->
<g id="edge12" class="edge">
<title>pinocchio&#45;&gt;proxsuite&#45;nlp</title>
<path fill="none" stroke="black" d="M945.16,-993.91C977.18,-985.47 1018.65,-971.88 1051.68,-952 1071.61,-940 1070.5,-929.17 1089.68,-916 1108.7,-902.93 1131.44,-891.45 1151.38,-882.55"/>
<polygon fill="black" stroke="black" points="1152.65,-885.81 1160.43,-878.61 1149.86,-879.39 1152.65,-885.81"/>
</g>
<!-- hpp&#45;corbaserver&#45;&gt;hpp&#45;manipulation&#45;corba -->
<g id="edge13" class="edge">
<title>hpp&#45;corbaserver&#45;&gt;hpp&#45;manipulation&#45;corba</title>
<path fill="none" stroke="black" d="M207.78,-628.94C228.89,-619.28 256.03,-606.86 278.95,-596.38"/>
<polygon fill="black" stroke="black" points="280.13,-599.69 287.76,-592.35 277.21,-593.32 280.13,-599.69"/>
</g>
<!-- hpp&#45;gepetto&#45;viewer -->
<g id="node18" class="node">
<title>hpp&#45;gepetto&#45;viewer</title>
<g id="a_node18"><a xlink:href="https://github.com/conda-forge/hpp-gepetto-viewer-feedstock" xlink:title="hpp gepetto viewer">
<ellipse fill="#fde725" stroke="black" cx="521.68" cy="-502" rx="108.55" ry="18"/>
<text text-anchor="middle" x="521.68" y="-497.32" font-family="Times,serif" font-size="14.00">hpp gepetto viewer</text>
</a>
</g>
</g>
<!-- hpp&#45;corbaserver&#45;&gt;hpp&#45;gepetto&#45;viewer -->
<g id="edge14" class="edge">
<title>hpp&#45;corbaserver&#45;&gt;hpp&#45;gepetto&#45;viewer</title>
<path fill="none" stroke="black" d="M169.95,-627.63C167.88,-607.5 167.99,-574.7 186.68,-556 216.87,-525.78 320.43,-512.79 404.51,-507.21"/>
<polygon fill="black" stroke="black" points="404.7,-510.7 414.46,-506.58 404.26,-503.72 404.7,-510.7"/>
</g>
<!-- hpp&#45;plot -->
<g id="node19" class="node">
<title>hpp&#45;plot</title>
<g id="a_node19"><a xlink:href="https://github.com/conda-forge/hpp-plot-feedstock" xlink:title="hpp plot">
<ellipse fill="#fde725" stroke="black" cx="211.68" cy="-502" rx="52.79" ry="18"/>
<text text-anchor="middle" x="211.68" y="-497.32" font-family="Times,serif" font-size="14.00">hpp plot</text>
</a>
</g>
</g>
<!-- hpp&#45;corbaserver&#45;&gt;hpp&#45;plot -->
<g id="edge15" class="edge">
<title>hpp&#45;corbaserver&#45;&gt;hpp&#45;plot</title>
<path fill="none" stroke="black" d="M162.86,-627.63C153.83,-609.2 143.29,-579.57 153.68,-556 158.94,-544.05 168.38,-533.63 178.13,-525.27"/>
<polygon fill="black" stroke="black" points="180.22,-528.08 185.87,-519.12 175.87,-522.59 180.22,-528.08"/>
</g>
<!-- hpp&#45;tutorial -->
<g id="node20" class="node">
<title>hpp&#45;tutorial</title>
<g id="a_node20"><a xlink:href="https://github.com/conda-forge/hpp-tutorial-feedstock" xlink:title="hpp tutorial">
<ellipse fill="#fde725" stroke="black" cx="70.68" cy="-502" rx="70.68" ry="18"/>
<text text-anchor="middle" x="70.68" y="-497.32" font-family="Times,serif" font-size="14.00">hpp tutorial</text>
</a>
</g>
</g>
<!-- hpp&#45;corbaserver&#45;&gt;hpp&#45;tutorial -->
<g id="edge16" class="edge">
<title>hpp&#45;corbaserver&#45;&gt;hpp&#45;tutorial</title>
<path fill="none" stroke="black" d="M160.37,-627.87C142.76,-603.35 110.21,-558.03 89.54,-529.26"/>
<polygon fill="black" stroke="black" points="92.58,-527.5 83.91,-521.42 86.9,-531.58 92.58,-527.5"/>
</g>
<!-- hpp&#45;pinocchio&#45;&gt;hpp&#45;corbaserver -->
<g id="edge17" class="edge">
<title>hpp&#45;pinocchio&#45;&gt;hpp&#45;corbaserver</title>
<path fill="none" stroke="black" d="M443.21,-925.91C403.28,-919.13 354.5,-905.89 317.68,-880 243.54,-827.89 199.53,-724.61 181.8,-674.95"/>
<polygon fill="black" stroke="black" points="185.21,-674.1 178.63,-665.8 178.6,-676.39 185.21,-674.1"/>
</g>
<!-- hpp&#45;pinocchio&#45;&gt;hpp&#45;manipulation&#45;corba -->
<g id="edge18" class="edge">
<title>hpp&#45;pinocchio&#45;&gt;hpp&#45;manipulation&#45;corba</title>
<path fill="none" stroke="black" d="M467.81,-919.08C413.29,-899.94 331.68,-859.8 331.68,-791 331.68,-791 331.68,-791 331.68,-717 331.68,-677.71 329.35,-632.35 327.6,-603.68"/>
<polygon fill="black" stroke="black" points="331.11,-603.75 326.99,-593.99 324.12,-604.19 331.11,-603.75"/>
</g>
<!-- hpp&#45;pinocchio&#45;&gt;hpp&#45;gepetto&#45;viewer -->
<g id="edge19" class="edge">
<title>hpp&#45;pinocchio&#45;&gt;hpp&#45;gepetto&#45;viewer</title>
<path fill="none" stroke="black" d="M569.59,-920.28C599.61,-911.72 636.83,-898.56 666.68,-880 779.14,-810.07 872.25,-751.97 825.68,-628 797.47,-552.93 708.62,-522.61 634.2,-510.53"/>
<polygon fill="black" stroke="black" points="634.78,-507.08 624.36,-509.04 633.73,-514 634.78,-507.08"/>
</g>
<!-- hpp&#45;pinocchio&#45;&gt;hpp&#45;tutorial -->
<g id="edge20" class="edge">
<title>hpp&#45;pinocchio&#45;&gt;hpp&#45;tutorial</title>
<path fill="none" stroke="black" d="M447.1,-924.2C397.85,-916.39 330.57,-902.62 274.68,-880 148.34,-828.86 13.68,-855.29 13.68,-719 13.68,-719 13.68,-719 13.68,-645 13.68,-602.36 36.08,-557.38 52.8,-529.74"/>
<polygon fill="black" stroke="black" points="55.72,-531.66 58.06,-521.32 49.79,-527.95 55.72,-531.66"/>
</g>
<!-- hpp&#45;core -->
<g id="node21" class="node">
<title>hpp&#45;core</title>
<g id="a_node21"><a xlink:href="https://github.com/conda-forge/hpp-core-feedstock" xlink:title="hpp core">
<ellipse fill="#fde725" stroke="black" cx="414.68" cy="-790" rx="54.89" ry="18"/>
<text text-anchor="middle" x="414.68" y="-785.33" font-family="Times,serif" font-size="14.00">hpp core</text>
</a>
</g>
</g>
<!-- hpp&#45;pinocchio&#45;&gt;hpp&#45;core -->
<g id="edge21" class="edge">
<title>hpp&#45;pinocchio&#45;&gt;hpp&#45;core</title>
<path fill="none" stroke="black" d="M467.53,-919.11C448.3,-910.96 428.05,-898.52 416.68,-880 405.66,-862.07 405.8,-838.03 408.34,-819.46"/>
<polygon fill="black" stroke="black" points="411.78,-820.1 410.01,-809.65 404.88,-818.92 411.78,-820.1"/>
</g>
<!-- hpp&#45;manipulation&#45;urdf -->
<g id="node22" class="node">
<title>hpp&#45;manipulation&#45;urdf</title>
<g id="a_node22"><a xlink:href="https://github.com/conda-forge/hpp-manipulation-urdf-feedstock" xlink:title="hpp manipulation urdf">
<ellipse fill="#fde725" stroke="black" cx="672.68" cy="-646" rx="123.29" ry="18"/>
<text text-anchor="middle" x="672.68" y="-641.33" font-family="Times,serif" font-size="14.00">hpp manipulation urdf</text>
</a>
</g>
</g>
<!-- hpp&#45;pinocchio&#45;&gt;hpp&#45;manipulation&#45;urdf -->
<g id="edge22" class="edge">
<title>hpp&#45;pinocchio&#45;&gt;hpp&#45;manipulation&#45;urdf</title>
<path fill="none" stroke="black" d="M564.3,-919.23C587.61,-910.79 614.73,-898.07 634.68,-880 689.26,-830.55 697.83,-807.2 716.68,-736 720.77,-720.53 722.11,-715.05 716.68,-700 713.08,-690.03 706.69,-680.61 699.89,-672.55"/>
<polygon fill="black" stroke="black" points="702.5,-670.22 693.17,-665.2 697.33,-674.94 702.5,-670.22"/>
</g>
<!-- hpp&#45;manipulation -->
<g id="node23" class="node">
<title>hpp&#45;manipulation</title>
<g id="a_node23"><a xlink:href="https://github.com/conda-forge/hpp-manipulation-feedstock" xlink:title="hpp manipulation">
<ellipse fill="#fde725" stroke="black" cx="572.68" cy="-718" rx="99.08" ry="18"/>
<text text-anchor="middle" x="572.68" y="-713.33" font-family="Times,serif" font-size="14.00">hpp manipulation</text>
</a>
</g>
</g>
<!-- hpp&#45;pinocchio&#45;&gt;hpp&#45;manipulation -->
<g id="edge23" class="edge">
<title>hpp&#45;pinocchio&#45;&gt;hpp&#45;manipulation</title>
<path fill="none" stroke="black" d="M564.02,-919.23C583.29,-911.11 603.51,-898.65 614.68,-880 640.23,-837.33 612.41,-779.22 591.45,-745.75"/>
<polygon fill="black" stroke="black" points="594.45,-743.94 586.06,-737.47 588.58,-747.76 594.45,-743.94"/>
</g>
<!-- hpp&#45;constraints -->
<g id="node24" class="node">
<title>hpp&#45;constraints</title>
<g id="a_node24"><a xlink:href="https://github.com/conda-forge/hpp-constraints-feedstock" xlink:title="hpp constraints">
<ellipse fill="#fde725" stroke="black" cx="515.68" cy="-862" rx="89.61" ry="18"/>
<text text-anchor="middle" x="515.68" y="-857.33" font-family="Times,serif" font-size="14.00">hpp constraints</text>
</a>
</g>
</g>
<!-- hpp&#45;pinocchio&#45;&gt;hpp&#45;constraints -->
<g id="edge24" class="edge">
<title>hpp&#45;pinocchio&#45;&gt;hpp&#45;constraints</title>
<path fill="none" stroke="black" d="M515.68,-915.7C515.68,-908.41 515.68,-899.73 515.68,-891.54"/>
<polygon fill="black" stroke="black" points="519.18,-891.62 515.68,-881.62 512.18,-891.62 519.18,-891.62"/>
</g>
<!-- hpp&#45;manipulation&#45;corba&#45;&gt;hpp&#45;gepetto&#45;viewer -->
<g id="edge25" class="edge">
<title>hpp&#45;manipulation&#45;corba&#45;&gt;hpp&#45;gepetto&#45;viewer</title>
<path fill="none" stroke="black" d="M371.13,-556.76C399.64,-546.58 436.56,-533.4 466.7,-522.63"/>
<polygon fill="black" stroke="black" points="467.81,-525.95 476.05,-519.29 465.46,-519.36 467.81,-525.95"/>
</g>
<!-- hpp&#45;manipulation&#45;corba&#45;&gt;hpp&#45;plot -->
<g id="edge26" class="edge">
<title>hpp&#45;manipulation&#45;corba&#45;&gt;hpp&#45;plot</title>
<path fill="none" stroke="black" d="M298.08,-556.05C282.32,-546.38 262.44,-534.17 245.73,-523.91"/>
<polygon fill="black" stroke="black" points="247.94,-521.16 237.59,-518.91 244.28,-527.13 247.94,-521.16"/>
</g>
<!-- hpp&#45;manipulation&#45;corba&#45;&gt;hpp&#45;tutorial -->
<g id="edge27" class="edge">
<title>hpp&#45;manipulation&#45;corba&#45;&gt;hpp&#45;tutorial</title>
<path fill="none" stroke="black" d="M268.77,-557.38C226.99,-545.91 170.46,-530.39 128.48,-518.87"/>
<polygon fill="black" stroke="black" points="129.63,-515.55 119.06,-516.28 127.77,-522.3 129.63,-515.55"/>
</g>
<!-- crocoddyl&#45;&gt;aligator -->
<g id="edge28" class="edge">
<title>crocoddyl&#45;&gt;aligator</title>
<path fill="none" stroke="black" d="M970.77,-916.08C964.22,-906.02 956.47,-892.77 951.68,-880 944.36,-860.49 940.06,-837.35 937.62,-819.55"/>
<polygon fill="black" stroke="black" points="941.1,-819.19 936.4,-809.7 934.15,-820.06 941.1,-819.19"/>
</g>
<!-- mim&#45;solvers -->
<g id="node25" class="node">
<title>mim&#45;solvers</title>
<g id="a_node25"><a xlink:href="https://github.com/conda-forge/mim-solvers-feedstock" xlink:title="mim solvers">
<ellipse fill="#fde725" stroke="black" cx="1032.68" cy="-862" rx="72.25" ry="18"/>
<text text-anchor="middle" x="1032.68" y="-857.33" font-family="Times,serif" font-size="14.00">mim solvers</text>
</a>
</g>
</g>
<!-- crocoddyl&#45;&gt;mim&#45;solvers -->
<g id="edge29" class="edge">
<title>crocoddyl&#45;&gt;mim&#45;solvers</title>
<path fill="none" stroke="black" d="M994.78,-916.05C1000.55,-907.97 1007.59,-898.12 1014.02,-889.11"/>
<polygon fill="black" stroke="black" points="1016.84,-891.19 1019.8,-881.02 1011.14,-887.12 1016.84,-891.19"/>
</g>
<!-- proxsuite&#45;nlp&#45;&gt;aligator -->
<g id="edge30" class="edge">
<title>proxsuite&#45;nlp&#45;&gt;aligator</title>
<path fill="none" stroke="black" d="M1150.64,-847.83C1103.27,-835.37 1032.52,-816.75 985.04,-804.25"/>
<polygon fill="black" stroke="black" points="986.12,-800.92 975.56,-801.76 984.34,-807.69 986.12,-800.92"/>
</g>
<!-- hpp&#45;practicals -->
<g id="node32" class="node">
<title>hpp&#45;practicals</title>
<g id="a_node32"><a xlink:href="https://github.com/conda-forge/hpp-practicals-feedstock" xlink:title="hpp practicals">
<ellipse fill="#fde725" stroke="black" cx="203.68" cy="-430" rx="82.25" ry="18"/>
<text text-anchor="middle" x="203.68" y="-425.32" font-family="Times,serif" font-size="14.00">hpp practicals</text>
</a>
</g>
</g>
<!-- hpp&#45;plot&#45;&gt;hpp&#45;practicals -->
<g id="edge37" class="edge">
<title>hpp&#45;plot&#45;&gt;hpp&#45;practicals</title>
<path fill="none" stroke="black" d="M209.7,-483.7C208.86,-476.41 207.87,-467.73 206.94,-459.54"/>
<polygon fill="black" stroke="black" points="210.41,-459.15 205.8,-449.61 203.46,-459.94 210.41,-459.15"/>
</g>
<!-- hpp&#45;doc -->
<g id="node33" class="node">
<title>hpp&#45;doc</title>
<g id="a_node33"><a xlink:href="https://github.com/conda-forge/hpp-doc-feedstock" xlink:title="hpp doc">
<ellipse fill="#fde725" stroke="black" cx="140.68" cy="-358" rx="50.68" ry="18"/>
<text text-anchor="middle" x="140.68" y="-353.32" font-family="Times,serif" font-size="14.00">hpp doc</text>
</a>
</g>
</g>
<!-- hpp&#45;tutorial&#45;&gt;hpp&#45;doc -->
<g id="edge38" class="edge">
<title>hpp&#45;tutorial&#45;&gt;hpp&#45;doc</title>
<path fill="none" stroke="black" d="M78.5,-483.83C86.77,-465.82 100.3,-436.76 112.68,-412 116.93,-403.49 121.71,-394.3 126.11,-386"/>
<polygon fill="black" stroke="black" points="129.07,-387.89 130.69,-377.42 122.89,-384.6 129.07,-387.89"/>
</g>
<!-- hpp&#45;core&#45;&gt;hpp&#45;corbaserver -->
<g id="edge39" class="edge">
<title>hpp&#45;core&#45;&gt;hpp&#45;corbaserver</title>
<path fill="none" stroke="black" d="M390.27,-773.5C361.64,-755.44 312.61,-724.88 269.68,-700 251.35,-689.38 230.81,-678.07 213.35,-668.64"/>
<polygon fill="black" stroke="black" points="215.27,-665.69 204.81,-664.04 211.96,-671.86 215.27,-665.69"/>
</g>
<!-- hpp&#45;core&#45;&gt;hpp&#45;manipulation&#45;corba -->
<g id="edge40" class="edge">
<title>hpp&#45;core&#45;&gt;hpp&#45;manipulation&#45;corba</title>
<path fill="none" stroke="black" d="M407.54,-771.85C392.18,-734.91 355.85,-647.55 337.18,-602.67"/>
<polygon fill="black" stroke="black" points="340.49,-601.52 333.42,-593.63 334.03,-604.21 340.49,-601.52"/>
</g>
<!-- hpp&#45;core&#45;&gt;hpp&#45;gepetto&#45;viewer -->
<g id="edge41" class="edge">
<title>hpp&#45;core&#45;&gt;hpp&#45;gepetto&#45;viewer</title>
<path fill="none" stroke="black" d="M421.05,-771.97C438.85,-724.39 489.22,-589.75 511.2,-531"/>
<polygon fill="black" stroke="black" points="514.44,-532.32 514.67,-521.72 507.89,-529.86 514.44,-532.32"/>
</g>
<!-- hpp&#45;core&#45;&gt;hpp&#45;tutorial -->
<g id="edge42" class="edge">
<title>hpp&#45;core&#45;&gt;hpp&#45;tutorial</title>
<path fill="none" stroke="black" d="M360,-787.37C280.76,-781.71 136.33,-758.24 70.68,-664 43.25,-624.65 52.6,-565.71 61.73,-531.13"/>
<polygon fill="black" stroke="black" points="65,-532.43 64.36,-521.85 58.27,-530.52 65,-532.43"/>
</g>
<!-- hpp&#45;core&#45;&gt;hpp&#45;manipulation&#45;urdf -->
<g id="edge43" class="edge">
<title>hpp&#45;core&#45;&gt;hpp&#45;manipulation&#45;urdf</title>
<path fill="none" stroke="black" d="M468.67,-786.09C538.52,-781.07 654.39,-768.04 680.68,-736 694.49,-719.16 690.74,-694.01 684.54,-674.74"/>
<polygon fill="black" stroke="black" points="687.93,-673.81 681.24,-665.6 681.35,-676.19 687.93,-673.81"/>
</g>
<!-- hpp&#45;core&#45;&gt;hpp&#45;manipulation -->
<g id="edge44" class="edge">
<title>hpp&#45;core&#45;&gt;hpp&#45;manipulation</title>
<path fill="none" stroke="black" d="M446.27,-775C469.06,-764.9 500.22,-751.1 525.89,-739.73"/>
<polygon fill="black" stroke="black" points="527.04,-743.04 534.77,-735.79 524.21,-736.64 527.04,-743.04"/>
</g>
<!-- hpp&#45;manipulation&#45;urdf&#45;&gt;hpp&#45;manipulation&#45;corba -->
<g id="edge45" class="edge">
<title>hpp&#45;manipulation&#45;urdf&#45;&gt;hpp&#45;manipulation&#45;corba</title>
<path fill="none" stroke="black" d="M602.45,-630.83C546.36,-619.52 467.62,-603.64 408.46,-591.7"/>
<polygon fill="black" stroke="black" points="409.26,-588.29 398.76,-589.74 407.88,-595.15 409.26,-588.29"/>
</g>
<!-- hpp&#45;manipulation&#45;urdf&#45;&gt;hpp&#45;gepetto&#45;viewer -->
<g id="edge46" class="edge">
<title>hpp&#45;manipulation&#45;urdf&#45;&gt;hpp&#45;gepetto&#45;viewer</title>
<path fill="none" stroke="black" d="M654.46,-627.87C627.93,-602.92 578.51,-556.45 548.02,-527.77"/>
<polygon fill="black" stroke="black" points="550.74,-525.53 541.06,-521.23 545.94,-530.63 550.74,-525.53"/>
</g>
<!-- hpp&#45;manipulation&#45;&gt;hpp&#45;manipulation&#45;corba -->
<g id="edge47" class="edge">
<title>hpp&#45;manipulation&#45;&gt;hpp&#45;manipulation&#45;corba</title>
<path fill="none" stroke="black" d="M544.98,-700.36C514.8,-682.3 465.02,-652.73 421.68,-628 403.57,-617.67 383.39,-606.48 366.22,-597.05"/>
<polygon fill="black" stroke="black" points="368.27,-594.19 357.82,-592.46 364.91,-600.33 368.27,-594.19"/>
</g>
<!-- hpp&#45;manipulation&#45;&gt;hpp&#45;gepetto&#45;viewer -->
<g id="edge48" class="edge">
<title>hpp&#45;manipulation&#45;&gt;hpp&#45;gepetto&#45;viewer</title>
<path fill="none" stroke="black" d="M559.7,-699.79C552.89,-689.85 545.07,-676.81 540.68,-664 525.46,-619.62 522,-564.77 521.44,-531.9"/>
<polygon fill="black" stroke="black" points="524.94,-531.93 521.36,-521.96 517.94,-531.99 524.94,-531.93"/>
</g>
<!-- hpp&#45;manipulation&#45;&gt;hpp&#45;manipulation&#45;urdf -->
<g id="edge49" class="edge">
<title>hpp&#45;manipulation&#45;&gt;hpp&#45;manipulation&#45;urdf</title>
<path fill="none" stroke="black" d="M596.88,-700.05C609.56,-691.18 625.29,-680.17 639.13,-670.48"/>
<polygon fill="black" stroke="black" points="640.92,-673.5 647.1,-664.9 636.9,-667.77 640.92,-673.5"/>
</g>
<!-- hpp&#45;constraints&#45;&gt;hpp&#45;corbaserver -->
<g id="edge50" class="edge">
<title>hpp&#45;constraints&#45;&gt;hpp&#45;corbaserver</title>
<path fill="none" stroke="black" d="M455.93,-848.22C423.44,-839.72 383.34,-826.65 350.68,-808 286.29,-771.24 225.42,-707.81 194.28,-672.54"/>
<polygon fill="black" stroke="black" points="197.22,-670.59 188.01,-665.35 191.95,-675.19 197.22,-670.59"/>
</g>
<!-- hpp&#45;constraints&#45;&gt;hpp&#45;manipulation&#45;corba -->
<g id="edge51" class="edge">
<title>hpp&#45;constraints&#45;&gt;hpp&#45;manipulation&#45;corba</title>
<path fill="none" stroke="black" d="M509.95,-843.66C503.54,-825.27 492.25,-795.66 478.68,-772 440.53,-705.52 381.99,-636.79 349.49,-600.71"/>
<polygon fill="black" stroke="black" points="352.15,-598.43 342.84,-593.38 346.97,-603.14 352.15,-598.43"/>
</g>
<!-- hpp&#45;constraints&#45;&gt;hpp&#45;gepetto&#45;viewer -->
<g id="edge52" class="edge">
<title>hpp&#45;constraints&#45;&gt;hpp&#45;gepetto&#45;viewer</title>
<path fill="none" stroke="black" d="M565.32,-846.65C664.95,-815.22 874.07,-734.51 804.68,-628 762.69,-563.55 679.11,-532.09 613.61,-516.88"/>
<polygon fill="black" stroke="black" points="614.44,-513.48 603.92,-514.73 612.92,-520.31 614.44,-513.48"/>
</g>
<!-- hpp&#45;constraints&#45;&gt;hpp&#45;core -->
<g id="edge53" class="edge">
<title>hpp&#45;constraints&#45;&gt;hpp&#45;core</title>
<path fill="none" stroke="black" d="M491.48,-844.23C477.98,-834.88 461,-823.11 446.44,-813.02"/>
<polygon fill="black" stroke="black" points="448.74,-810.35 438.53,-807.53 444.75,-816.11 448.74,-810.35"/>
</g>
<!-- hpp&#45;constraints&#45;&gt;hpp&#45;manipulation&#45;urdf -->
<g id="edge54" class="edge">
<title>hpp&#45;constraints&#45;&gt;hpp&#45;manipulation&#45;urdf</title>
<path fill="none" stroke="black" d="M558.4,-845.86C602.86,-827.53 670.03,-791.97 699.68,-736 710.08,-716.35 701.48,-692.08 691.3,-673.85"/>
<polygon fill="black" stroke="black" points="694.39,-672.19 686.22,-665.45 688.4,-675.82 694.39,-672.19"/>
</g>
<!-- hpp&#45;constraints&#45;&gt;hpp&#45;manipulation -->
<g id="edge55" class="edge">
<title>hpp&#45;constraints&#45;&gt;hpp&#45;manipulation</title>
<path fill="none" stroke="black" d="M522.66,-843.59C532.37,-819.4 550.05,-775.36 561.58,-746.65"/>
<polygon fill="black" stroke="black" points="564.77,-748.1 565.24,-737.52 558.27,-745.49 564.77,-748.1"/>
</g>
<!-- ompl -->
<g id="node30" class="node">
<title>ompl</title>
<g id="a_node30"><a xlink:href="https://github.com/conda-forge/ompl-feedstock/pull/35" xlink:title="ompl ❎">
<ellipse fill="#31688e" stroke="black" cx="1408.68" cy="-754" rx="51.21" ry="18"/>
<text text-anchor="middle" x="1408.68" y="-749.33" font-family="Times,serif" font-size="14.00" fill="white">ompl ❎</text>
</a>
</g>
</g>
<!-- odil&#45;&gt;ompl -->
<!-- gnuradio -->
<g id="node27" class="node">
<title>gnuradio</title>
<g id="a_node27"><a xlink:href="https://github.com/conda-forge/gnuradio-feedstock/pull/262" xlink:title="gnuradio ❎">
<ellipse fill="#31688e" stroke="black" cx="686.68" cy="-278" rx="71.2" ry="18"/>
<text text-anchor="middle" x="686.68" y="-273.32" font-family="Times,serif" font-size="14.00" fill="white">gnuradio ❎</text>
</a>
</g>
</g>
<!-- gnuradio&#45;osmosdr -->
<g id="node28" class="node">
<title>gnuradio&#45;osmosdr</title>
<g id="a_node28"><a xlink:href="https://github.com/conda-forge/gnuradio-osmosdr-feedstock" xlink:title="gnuradio osmosdr">
<ellipse fill="#fde725" stroke="black" cx="621.68" cy="-206" rx="101.71" ry="18"/>
<text text-anchor="middle" x="621.68" y="-201.33" font-family="Times,serif" font-size="14.00">gnuradio osmosdr</text>
</a>
</g>
</g>
<!-- gnuradio&#45;&gt;gnuradio&#45;osmosdr -->
<g id="edge32" class="edge">
<title>gnuradio&#45;&gt;gnuradio&#45;osmosdr</title>
<path fill="none" stroke="black" d="M670.94,-260.05C663.12,-251.63 653.51,-241.28 644.86,-231.97"/>
<polygon fill="black" stroke="black" points="647.66,-229.84 638.29,-224.9 642.53,-234.61 647.66,-229.84"/>
</g>
<!-- gnss&#45;sdr -->
<g id="node29" class="node">
<title>gnss&#45;sdr</title>
<g id="a_node29"><a xlink:href="https://github.com/conda-forge/gnss-sdr-feedstock" xlink:title="gnss sdr">
<ellipse fill="#fde725" stroke="black" cx="686.68" cy="-134" rx="53.84" ry="18"/>
<text text-anchor="middle" x="686.68" y="-129.32" font-family="Times,serif" font-size="14.00">gnss sdr</text>
</a>
</g>
</g>
<!-- gnuradio&#45;&gt;gnss&#45;sdr -->
<g id="edge33" class="edge">
<title>gnuradio&#45;&gt;gnss&#45;sdr</title>
<path fill="none" stroke="black" d="M706.54,-260.55C716.43,-251.03 727.39,-238.15 732.68,-224 738.27,-209.01 738.27,-202.99 732.68,-188 728.69,-177.33 721.48,-167.38 713.93,-159.05"/>
<polygon fill="black" stroke="black" points="716.61,-156.79 707.12,-152.08 711.6,-161.68 716.61,-156.79"/>
</g>
<!-- gnuradio&#45;osmosdr&#45;&gt;gnss&#45;sdr -->
<g id="edge34" class="edge">
<title>gnuradio&#45;osmosdr&#45;&gt;gnss&#45;sdr</title>
<path fill="none" stroke="black" d="M637.41,-188.05C645.35,-179.5 655.13,-168.97 663.87,-159.56"/>
<polygon fill="black" stroke="black" points="666.26,-162.13 670.5,-152.42 661.13,-157.36 666.26,-162.13"/>
</g>
<!-- smina -->
<g id="node31" class="node">
<title>smina</title>
<g id="a_node31"><a xlink:href="https://github.com/conda-forge/smina-feedstock/pull/3" xlink:title="smina ❎">
<ellipse fill="#31688e" stroke="black" cx="1408.68" cy="-682" rx="56.47" ry="18"/>
<text text-anchor="middle" x="1408.68" y="-677.33" font-family="Times,serif" font-size="14.00" fill="white">smina ❎</text>
</a>
</g>
</g>
<!-- ompl&#45;&gt;smina -->
<!-- scipoptsuite -->
<g id="node34" class="node">
<title>scipoptsuite</title>
<g id="a_node34"><a xlink:href="https://github.com/conda-forge/scipoptsuite-feedstock/pull/64" xlink:title="scipoptsuite ❎">
<ellipse fill="#31688e" stroke="black" cx="1408.68" cy="-610" rx="87.51" ry="18"/>
<text text-anchor="middle" x="1408.68" y="-605.33" font-family="Times,serif" font-size="14.00" fill="white">scipoptsuite ❎</text>
</a>
</g>
</g>
<!-- smina&#45;&gt;scipoptsuite -->
<!-- hpp&#45;practicals&#45;&gt;hpp&#45;doc -->
<g id="edge68" class="edge">
<title>hpp&#45;practicals&#45;&gt;hpp&#45;doc</title>
<path fill="none" stroke="black" d="M188.42,-412.05C180.81,-403.59 171.45,-393.19 163.04,-383.84"/>
<polygon fill="black" stroke="black" points="165.66,-381.52 156.36,-376.43 160.45,-386.21 165.66,-381.52"/>
</g>
<!-- pycuda -->
<g id="node35" class="node">
<title>pycuda</title>
<g id="a_node35"><a xlink:href="https://github.com/conda-forge/pycuda-feedstock/pull/38" xlink:title="pycuda ❎">
<ellipse fill="#31688e" stroke="black" cx="1408.68" cy="-538" rx="62.26" ry="18"/>
<text text-anchor="middle" x="1408.68" y="-533.33" font-family="Times,serif" font-size="14.00" fill="white">pycuda ❎</text>
</a>
</g>
</g>
<!-- scipoptsuite&#45;&gt;pycuda -->
<!-- cudadecon -->
<g id="node36" class="node">
<title>cudadecon</title>
<g id="a_node36"><a xlink:href="https://github.com/conda-forge/cudadecon-feedstock/pull/28" xlink:title="cudadecon ❎">
<ellipse fill="#31688e" stroke="black" cx="1408.68" cy="-466" rx="79.62" ry="18"/>
<text text-anchor="middle" x="1408.68" y="-461.32" font-family="Times,serif" font-size="14.00" fill="white">cudadecon ❎</text>
</a>
</g>
</g>
<!-- pycuda&#45;&gt;cudadecon -->
<!-- cudasirecon -->
<g id="node37" class="node">
<title>cudasirecon</title>
<g id="a_node37"><a xlink:href="https://github.com/conda-forge/cudasirecon-feedstock/pull/29" xlink:title="cudasirecon ❎">
<ellipse fill="#31688e" stroke="black" cx="1408.68" cy="-394" rx="86.46" ry="18"/>
<text text-anchor="middle" x="1408.68" y="-389.32" font-family="Times,serif" font-size="14.00" fill="white">cudasirecon ❎</text>
</a>
</g>
</g>
<!-- cudadecon&#45;&gt;cudasirecon -->
<!-- vina -->
<g id="node38" class="node">
<title>vina</title>
<g id="a_node38"><a xlink:href="https://github.com/conda-forge/vina-feedstock/pull/16" xlink:title="vina ❎">
<ellipse fill="#31688e" stroke="black" cx="1408.68" cy="-322" rx="47.53" ry="18"/>
<text text-anchor="middle" x="1408.68" y="-317.32" font-family="Times,serif" font-size="14.00" fill="white">vina ❎</text>
</a>
</g>
</g>
<!-- cudasirecon&#45;&gt;vina -->
<!-- vmtk -->
<g id="node39" class="node">
<title>vmtk</title>
<g id="a_node39"><a xlink:href="https://github.com/conda-forge/vmtk-feedstock/pull/23" xlink:title="vmtk ❎">
<ellipse fill="#31688e" stroke="black" cx="1666.68" cy="-934" rx="51.74" ry="18"/>
<text text-anchor="middle" x="1666.68" y="-929.33" font-family="Times,serif" font-size="14.00" fill="white">vmtk ❎</text>
</a>
</g>
</g>
<!-- rstudio -->
<g id="node40" class="node">
<title>rstudio</title>
<g id="a_node40"><a xlink:href="https://github.com/conda-forge/rstudio-feedstock/pull/30" xlink:title="rstudio ❎">
<ellipse fill="#31688e" stroke="black" cx="1666.68" cy="-862" rx="62.26" ry="18"/>
<text text-anchor="middle" x="1666.68" y="-857.33" font-family="Times,serif" font-size="14.00" fill="white">rstudio ❎</text>
</a>
</g>
</g>
<!-- vmtk&#45;&gt;rstudio -->
<!-- xilinx&#45;runtime -->
<g id="node41" class="node">
<title>xilinx&#45;runtime</title>
<g id="a_node41"><a xlink:href="https://github.com/conda-forge/xilinx-runtime-feedstock/pull/34" xlink:title="xilinx runtime ❎">
<ellipse fill="#31688e" stroke="black" cx="1666.68" cy="-790" rx="96.98" ry="18"/>
<text text-anchor="middle" x="1666.68" y="-785.33" font-family="Times,serif" font-size="14.00" fill="white">xilinx runtime ❎</text>
</a>
</g>
</g>
<!-- rstudio&#45;&gt;xilinx&#45;runtime -->
<!-- qtmolecularnetwork -->
<g id="node42" class="node">
<title>qtmolecularnetwork</title>
<g id="a_node42"><a xlink:href="https://github.com/conda-forge/qtmolecularnetwork-feedstock/pull/16" xlink:title="qtmolecularnetwork ❎">
<ellipse fill="#31688e" stroke="black" cx="1666.68" cy="-718" rx="127.49" ry="18"/>
<text text-anchor="middle" x="1666.68" y="-713.33" font-family="Times,serif" font-size="14.00" fill="white">qtmolecularnetwork ❎</text>
</a>
</g>
</g>
<!-- xilinx&#45;runtime&#45;&gt;qtmolecularnetwork -->
<!-- hdk -->
<g id="node43" class="node">
<title>hdk</title>
<g id="a_node43"><a xlink:href="https://github.com/conda-forge/hdk-feedstock" xlink:title="hdk">
<ellipse fill="#000000" stroke="black" cx="1666.68" cy="-646" rx="29.64" ry="18"/>
<text text-anchor="middle" x="1666.68" y="-641.33" font-family="Times,serif" font-size="14.00" fill="white">hdk</text>
</a>
</g>
</g>
<!-- qtmolecularnetwork&#45;&gt;hdk -->
<!-- river&#45;ingester -->
<g id="node44" class="node">
<title>river&#45;ingester</title>
<g id="a_node44"><a xlink:href="https://github.com/conda-forge/river-ingester-feedstock/pull/24" xlink:title="river ingester ❎">
<ellipse fill="#31688e" stroke="black" cx="1666.68" cy="-574" rx="95.4" ry="18"/>
<text text-anchor="middle" x="1666.68" y="-569.33" font-family="Times,serif" font-size="14.00" fill="white">river ingester ❎</text>
</a>
</g>
</g>
<!-- hdk&#45;&gt;river&#45;ingester -->
<!-- pygplates -->
<g id="node45" class="node">
<title>pygplates</title>
<g id="a_node45"><a xlink:href="https://github.com/conda-forge/pygplates-feedstock/pull/20" xlink:title="pygplates ❎">
<ellipse fill="#31688e" stroke="black" cx="1666.68" cy="-502" rx="75.41" ry="18"/>
<text text-anchor="middle" x="1666.68" y="-497.32" font-family="Times,serif" font-size="14.00" fill="white">pygplates ❎</text>
</a>
</g>
</g>
<!-- river&#45;ingester&#45;&gt;pygplates -->
<!-- pixsfm -->
<g id="node46" class="node">
<title>pixsfm</title>
<g id="a_node46"><a xlink:href="https://github.com/conda-forge/pixsfm-feedstock/pull/16" xlink:title="pixsfm ❎">
<ellipse fill="#31688e" stroke="black" cx="1666.68" cy="-430" rx="60.15" ry="18"/>
<text text-anchor="middle" x="1666.68" y="-425.32" font-family="Times,serif" font-size="14.00" fill="white">pixsfm ❎</text>
</a>
</g>
</g>
<!-- pygplates&#45;&gt;pixsfm -->
</g>
</svg>
