<?xml version="1.0" encoding="UTF-8" standalone="no"?>
<!DOCTYPE svg PUBLIC "-//W3C//DTD SVG 1.1//EN"
 "http://www.w3.org/Graphics/SVG/1.1/DTD/svg11.dtd">
<!-- Generated by graphviz version 9.0.0 (20231125.0833)
 -->
<!-- Pages: 1 -->
<svg width="426pt" height="232pt"
 viewBox="0.00 0.00 426.30 232.00" xmlns="http://www.w3.org/2000/svg" xmlns:xlink="http://www.w3.org/1999/xlink">
<g id="graph0" class="graph" transform="scale(1 1) rotate(0) translate(4 228)">
<polygon fill="white" stroke="none" points="-4,4 -4,-228 422.3,-228 422.3,4 -4,4"/>
<!-- healpix_cxx -->
<g id="node1" class="node">
<title>healpix_cxx</title>
<g id="a_node1"><a xlink:href="https://github.com/conda-forge/healpix_cxx-feedstock/pull/31" xlink:title="healpix_cxx ❎">
<ellipse fill="#31688e" stroke="black" cx="84.35" cy="-18" rx="84.35" ry="18"/>
<text text-anchor="middle" x="84.35" y="-13.32" font-family="Times,serif" font-size="14.00" fill="white">healpix_cxx ❎</text>
</a>
</g>
</g>
<!-- ccfits -->
<g id="node2" class="node">
<title>ccfits</title>
<g id="a_node2"><a xlink:href="https://github.com/conda-forge/ccfits-feedstock/pull/15" xlink:title="ccfits ✓">
<ellipse fill="#31688e" stroke="black" cx="237.35" cy="-18" rx="45.42" ry="18"/>
<text text-anchor="middle" x="237.35" y="-13.32" font-family="Times,serif" font-size="14.00" fill="white">ccfits ✓</text>
</a>
</g>
</g>
<!-- chealpix -->
<g id="node3" class="node">
<title>chealpix</title>
<g id="a_node3"><a xlink:href="https://github.com/conda-forge/chealpix-feedstock/pull/12" xlink:title="chealpix ✓">
<ellipse fill="#31688e" stroke="black" cx="237.35" cy="-170" rx="60.68" ry="18"/>
<text text-anchor="middle" x="237.35" y="-165.33" font-family="Times,serif" font-size="14.00" fill="white">chealpix ✓</text>
</a>
</g>
</g>
<!-- namaster -->
<g id="node4" class="node">
<title>namaster</title>
<g id="a_node4"><a xlink:href="https://github.com/conda-forge/namaster-feedstock" xlink:title="namaster">
<ellipse fill="#fde725" stroke="black" cx="237.35" cy="-98" rx="58.57" ry="18"/>
<text text-anchor="middle" x="237.35" y="-93.33" font-family="Times,serif" font-size="14.00">namaster</text>
</a>
</g>
</g>
<!-- chealpix&#45;&gt;namaster -->
<g id="edge1" class="edge">
<title>chealpix&#45;&gt;namaster</title>
<path fill="none" stroke="black" d="M237.35,-151.7C237.35,-144.41 237.35,-135.73 237.35,-127.54"/>
<polygon fill="black" stroke="black" points="240.85,-127.62 237.35,-117.62 233.85,-127.62 240.85,-127.62"/>
</g>
<!-- root -->
<g id="node5" class="node">
<title>root</title>
<g id="a_node5"><a xlink:href="https://github.com/conda-forge/root-feedstock/pull/239" xlink:title="root ❎">
<ellipse fill="#31688e" stroke="black" cx="362.35" cy="-170" rx="47" ry="18"/>
<text text-anchor="middle" x="362.35" y="-165.33" font-family="Times,serif" font-size="14.00" fill="white">root ❎</text>
</a>
</g>
</g>
<!-- rubinenv -->
<g id="node6" class="node">
<title>rubinenv</title>
<g id="a_node6"><a xlink:href="https://github.com/conda-forge/rubinenv-feedstock" xlink:title="rubinenv">
<ellipse fill="#fde725" stroke="black" cx="362.35" cy="-98" rx="55.94" ry="18"/>
<text text-anchor="middle" x="362.35" y="-93.33" font-family="Times,serif" font-size="14.00">rubinenv</text>
</a>
</g>
</g>
<!-- root&#45;&gt;rubinenv -->
<g id="edge2" class="edge">
<title>root&#45;&gt;rubinenv</title>
<path fill="none" stroke="black" d="M362.35,-151.7C362.35,-144.41 362.35,-135.73 362.35,-127.54"/>
<polygon fill="black" stroke="black" points="365.85,-127.62 362.35,-117.62 358.85,-127.62 365.85,-127.62"/>
</g>
<!-- tempo2 -->
<g id="node7" class="node">
<title>tempo2</title>
<g id="a_node7"><a xlink:href="https://github.com/conda-forge/tempo2-feedstock/pull/29" xlink:title="tempo2 ✓">
<ellipse fill="#31688e" stroke="black" cx="84.35" cy="-206" rx="57" ry="18"/>
<text text-anchor="middle" x="84.35" y="-201.32" font-family="Times,serif" font-size="14.00" fill="white">tempo2 ✓</text>
</a>
</g>
</g>
<!-- psrchive -->
<g id="node8" class="node">
<title>psrchive</title>
<g id="a_node8"><a xlink:href="https://github.com/conda-forge/psrchive-feedstock" xlink:title="psrchive">
<ellipse fill="#fde725" stroke="black" cx="84.35" cy="-134" rx="53.84" ry="18"/>
<text text-anchor="middle" x="84.35" y="-129.32" font-family="Times,serif" font-size="14.00">psrchive</text>
</a>
</g>
</g>
<!-- tempo2&#45;&gt;psrchive -->
<g id="edge3" class="edge">
<title>tempo2&#45;&gt;psrchive</title>
<path fill="none" stroke="black" d="M84.35,-187.7C84.35,-180.41 84.35,-171.73 84.35,-163.54"/>
<polygon fill="black" stroke="black" points="87.85,-163.62 84.35,-153.62 80.85,-163.62 87.85,-163.62"/>
</g>
<!-- dspsr -->
<g id="node9" class="node">
<title>dspsr</title>
<g id="a_node9"><a xlink:href="https://github.com/conda-forge/dspsr-feedstock" xlink:title="dspsr">
<ellipse fill="#fde725" stroke="black" cx="84.35" cy="-62" rx="39.11" ry="18"/>
<text text-anchor="middle" x="84.35" y="-57.33" font-family="Times,serif" font-size="14.00">dspsr</text>
</a>
</g>
</g>
<!-- psrchive&#45;&gt;dspsr -->
<g id="edge4" class="edge">
<title>psrchive&#45;&gt;dspsr</title>
<path fill="none" stroke="black" d="M84.35,-115.7C84.35,-108.41 84.35,-99.73 84.35,-91.54"/>
<polygon fill="black" stroke="black" points="87.85,-91.62 84.35,-81.62 80.85,-91.62 87.85,-91.62"/>
</g>
</g>
</svg>
