<?xml version="1.0" encoding="UTF-8" standalone="no"?>
<!DOCTYPE svg PUBLIC "-//W3C//DTD SVG 1.1//EN"
 "http://www.w3.org/Graphics/SVG/1.1/DTD/svg11.dtd">
<!-- Generated by graphviz version 11.0.0 (20240519.1550)
 -->
<!-- Pages: 1 -->
<svg width="995pt" height="664pt"
 viewBox="0.00 0.00 995.20 664.00" xmlns="http://www.w3.org/2000/svg" xmlns:xlink="http://www.w3.org/1999/xlink">
<g id="graph0" class="graph" transform="scale(1 1) rotate(0) translate(4 660)">
<polygon fill="white" stroke="none" points="-4,4 -4,-660 991.2,-660 991.2,4 -4,4"/>
<!-- casacore -->
<g id="node1" class="node">
<title>casacore</title>
<g id="a_node1"><a xlink:href="https://github.com/conda-forge/casacore-feedstock" xlink:title="casacore">
<ellipse fill="#fde725" stroke="black" cx="252.84" cy="-422" rx="54.89" ry="18"/>
<text text-anchor="middle" x="252.84" y="-417.32" font-family="Times,serif" font-size="14.00">casacore</text>
</a>
</g>
</g>
<!-- gdal -->
<g id="node2" class="node">
<title>gdal</title>
<g id="a_node2"><a xlink:href="https://github.com/conda-forge/gdal-feedstock/pull/949" xlink:title="gdal ✓">
<ellipse fill="#31688e" stroke="black" cx="192.84" cy="-494" rx="40.69" ry="18"/>
<text text-anchor="middle" x="192.84" y="-489.32" font-family="Times,serif" font-size="14.00" fill="white">gdal ✓</text>
</a>
</g>
</g>
<!-- rubinenv -->
<g id="node3" class="node">
<title>rubinenv</title>
<g id="a_node3"><a xlink:href="https://github.com/conda-forge/rubinenv-feedstock" xlink:title="rubinenv">
<ellipse fill="#fde725" stroke="black" cx="123.84" cy="-422" rx="55.94" ry="18"/>
<text text-anchor="middle" x="123.84" y="-417.32" font-family="Times,serif" font-size="14.00">rubinenv</text>
</a>
</g>
</g>
<!-- gdal&#45;&gt;rubinenv -->
<g id="edge1" class="edge">
<title>gdal&#45;&gt;rubinenv</title>
<path fill="none" stroke="black" d="M177.18,-477.12C168.48,-468.29 157.48,-457.13 147.73,-447.24"/>
<polygon fill="black" stroke="black" points="150.48,-445.05 140.97,-440.38 145.5,-449.96 150.48,-445.05"/>
</g>
<!-- healpix_cxx -->
<g id="node4" class="node">
<title>healpix_cxx</title>
<g id="a_node4"><a xlink:href="https://github.com/conda-forge/healpix_cxx-feedstock/pull/33" xlink:title="healpix_cxx ✓">
<ellipse fill="#31688e" stroke="black" cx="699.84" cy="-602" rx="76.99" ry="18"/>
<text text-anchor="middle" x="699.84" y="-597.33" font-family="Times,serif" font-size="14.00" fill="white">healpix_cxx ✓</text>
</a>
</g>
</g>
<!-- ccfits -->
<g id="node5" class="node">
<title>ccfits</title>
<g id="a_node5"><a xlink:href="https://github.com/conda-forge/ccfits-feedstock" xlink:title="ccfits">
<ellipse fill="#35b779" stroke="black" cx="699.84" cy="-530" rx="37.53" ry="18"/>
<text text-anchor="middle" x="699.84" y="-525.33" font-family="Times,serif" font-size="14.00">ccfits</text>
</a>
</g>
</g>
<!-- healpix_cxx&#45;&gt;ccfits -->
<!-- numcosmo -->
<g id="node11" class="node">
<title>numcosmo</title>
<g id="a_node11"><a xlink:href="https://github.com/conda-forge/numcosmo-feedstock/pull/64" xlink:title="numcosmo ✓">
<ellipse fill="#31688e" stroke="black" cx="699.84" cy="-458" rx="72.78" ry="18"/>
<text text-anchor="middle" x="699.84" y="-453.32" font-family="Times,serif" font-size="14.00" fill="white">numcosmo ✓</text>
</a>
</g>
</g>
<!-- ccfits&#45;&gt;numcosmo -->
<!-- wcslib -->
<g id="node6" class="node">
<title>wcslib</title>
<g id="a_node6"><a xlink:href="https://github.com/conda-forge/wcslib-feedstock/pull/33" xlink:title="wcslib ✓">
<ellipse fill="#31688e" stroke="black" cx="354.84" cy="-494" rx="50.68" ry="18"/>
<text text-anchor="middle" x="354.84" y="-489.32" font-family="Times,serif" font-size="14.00" fill="white">wcslib ✓</text>
</a>
</g>
</g>
<!-- wcslib&#45;&gt;casacore -->
<g id="edge3" class="edge">
<title>wcslib&#45;&gt;casacore</title>
<path fill="none" stroke="black" d="M332.2,-477.46C318.3,-467.93 300.27,-455.56 284.92,-445.02"/>
<polygon fill="black" stroke="black" points="287.24,-442.36 277.01,-439.59 283.27,-448.13 287.24,-442.36"/>
</g>
<!-- wcslib&#45;&gt;rubinenv -->
<g id="edge4" class="edge">
<title>wcslib&#45;&gt;rubinenv</title>
<path fill="none" stroke="black" d="M317.21,-481.6C278.28,-469.8 217.26,-451.31 174.19,-438.26"/>
<polygon fill="black" stroke="black" points="175.42,-434.97 164.83,-435.42 173.39,-441.67 175.42,-434.97"/>
</g>
<!-- astrometry -->
<g id="node7" class="node">
<title>astrometry</title>
<g id="a_node7"><a xlink:href="https://github.com/conda-forge/astrometry-feedstock" xlink:title="astrometry">
<ellipse fill="#fde725" stroke="black" cx="278.84" cy="-350" rx="66.99" ry="18"/>
<text text-anchor="middle" x="278.84" y="-345.32" font-family="Times,serif" font-size="14.00">astrometry</text>
</a>
</g>
</g>
<!-- wcslib&#45;&gt;astrometry -->
<g id="edge5" class="edge">
<title>wcslib&#45;&gt;astrometry</title>
<path fill="none" stroke="black" d="M348.75,-475.74C342,-457.42 330.27,-427.86 316.84,-404 311.72,-394.92 305.38,-385.53 299.35,-377.21"/>
<polygon fill="black" stroke="black" points="302.19,-375.17 293.41,-369.24 296.58,-379.35 302.19,-375.17"/>
</g>
<!-- gnuastro -->
<g id="node8" class="node">
<title>gnuastro</title>
<g id="a_node8"><a xlink:href="https://github.com/conda-forge/gnuastro-feedstock" xlink:title="gnuastro">
<ellipse fill="#fde725" stroke="black" cx="350.84" cy="-278" rx="55.94" ry="18"/>
<text text-anchor="middle" x="350.84" y="-273.32" font-family="Times,serif" font-size="14.00">gnuastro</text>
</a>
</g>
</g>
<!-- wcslib&#45;&gt;gnuastro -->
<g id="edge6" class="edge">
<title>wcslib&#45;&gt;gnuastro</title>
<path fill="none" stroke="black" d="M355.26,-475.6C355.9,-446.06 356.8,-384.23 354.84,-332 354.54,-324.04 353.98,-315.42 353.38,-307.49"/>
<polygon fill="black" stroke="black" points="356.88,-307.36 352.58,-297.68 349.91,-307.93 356.88,-307.36"/>
</g>
<!-- cpl -->
<g id="node9" class="node">
<title>cpl</title>
<g id="a_node9"><a xlink:href="https://github.com/conda-forge/cpl-feedstock" xlink:title="cpl">
<ellipse fill="#fde725" stroke="black" cx="434.84" cy="-206" rx="27" ry="18"/>
<text text-anchor="middle" x="434.84" y="-201.33" font-family="Times,serif" font-size="14.00">cpl</text>
</a>
</g>
</g>
<!-- wcslib&#45;&gt;cpl -->
<g id="edge7" class="edge">
<title>wcslib&#45;&gt;cpl</title>
<path fill="none" stroke="black" d="M360.75,-475.76C372.31,-441.69 398.29,-363.21 415.84,-296 421.09,-275.88 425.96,-252.92 429.46,-235.36"/>
<polygon fill="black" stroke="black" points="432.87,-236.14 431.36,-225.65 426,-234.8 432.87,-236.14"/>
</g>
<!-- lenstool -->
<g id="node10" class="node">
<title>lenstool</title>
<g id="a_node10"><a xlink:href="https://github.com/conda-forge/lenstool-feedstock" xlink:title="lenstool">
<ellipse fill="#fde725" stroke="black" cx="489.84" cy="-134" rx="50.68" ry="18"/>
<text text-anchor="middle" x="489.84" y="-129.32" font-family="Times,serif" font-size="14.00">lenstool</text>
</a>
</g>
</g>
<!-- wcslib&#45;&gt;lenstool -->
<g id="edge8" class="edge">
<title>wcslib&#45;&gt;lenstool</title>
<path fill="none" stroke="black" d="M383.8,-478.89C423.46,-457.31 489.84,-412.06 489.84,-351 489.84,-351 489.84,-351 489.84,-277 489.84,-237.74 489.84,-192.38 489.84,-163.69"/>
<polygon fill="black" stroke="black" points="493.34,-164 489.84,-154 486.34,-164 493.34,-164"/>
</g>
<!-- astromatic&#45;source&#45;extractor -->
<g id="node12" class="node">
<title>astromatic&#45;source&#45;extractor</title>
<g id="a_node12"><a xlink:href="https://github.com/conda-forge/astromatic-source-extractor-feedstock" xlink:title="astromatic source extractor">
<ellipse fill="#35b779" stroke="black" cx="699.84" cy="-386" rx="150.64" ry="18"/>
<text text-anchor="middle" x="699.84" y="-381.32" font-family="Times,serif" font-size="14.00">astromatic source extractor</text>
</a>
</g>
</g>
<!-- numcosmo&#45;&gt;astromatic&#45;source&#45;extractor -->
<!-- hstcal -->
<g id="node20" class="node">
<title>hstcal</title>
<g id="a_node20"><a xlink:href="https://github.com/conda-forge/hstcal-feedstock/pull/22" xlink:title="hstcal ✓">
<ellipse fill="#31688e" stroke="black" cx="699.84" cy="-314" rx="49.1" ry="18"/>
<text text-anchor="middle" x="699.84" y="-309.32" font-family="Times,serif" font-size="14.00" fill="white">hstcal ✓</text>
</a>
</g>
</g>
<!-- astromatic&#45;source&#45;extractor&#45;&gt;hstcal -->
<!-- lalpulsar -->
<g id="node13" class="node">
<title>lalpulsar</title>
<g id="a_node13"><a xlink:href="https://github.com/conda-forge/lalpulsar-feedstock/pull/71" xlink:title="lalpulsar ❎">
<ellipse fill="#31688e" stroke="black" cx="699.84" cy="-90" rx="70.15" ry="18"/>
<text text-anchor="middle" x="699.84" y="-85.33" font-family="Times,serif" font-size="14.00" fill="white">lalpulsar ❎</text>
</a>
</g>
</g>
<!-- lalapps -->
<g id="node14" class="node">
<title>lalapps</title>
<g id="a_node14"><a xlink:href="https://github.com/conda-forge/lalapps-feedstock" xlink:title="lalapps">
<ellipse fill="#fde725" stroke="black" cx="699.84" cy="-18" rx="47" ry="18"/>
<text text-anchor="middle" x="699.84" y="-13.32" font-family="Times,serif" font-size="14.00">lalapps</text>
</a>
</g>
</g>
<!-- lalpulsar&#45;&gt;lalapps -->
<g id="edge11" class="edge">
<title>lalpulsar&#45;&gt;lalapps</title>
<path fill="none" stroke="black" d="M699.84,-71.7C699.84,-64.41 699.84,-55.73 699.84,-47.54"/>
<polygon fill="black" stroke="black" points="703.34,-47.62 699.84,-37.62 696.34,-47.62 703.34,-47.62"/>
</g>
<!-- chealpix -->
<g id="node15" class="node">
<title>chealpix</title>
<g id="a_node15"><a xlink:href="https://github.com/conda-forge/chealpix-feedstock/pull/13" xlink:title="chealpix ✓">
<ellipse fill="#31688e" stroke="black" cx="922.84" cy="-90" rx="60.68" ry="18"/>
<text text-anchor="middle" x="922.84" y="-85.33" font-family="Times,serif" font-size="14.00" fill="white">chealpix ✓</text>
</a>
</g>
</g>
<!-- namaster -->
<g id="node16" class="node">
<title>namaster</title>
<g id="a_node16"><a xlink:href="https://github.com/conda-forge/namaster-feedstock" xlink:title="namaster">
<ellipse fill="#fde725" stroke="black" cx="922.84" cy="-18" rx="58.57" ry="18"/>
<text text-anchor="middle" x="922.84" y="-13.32" font-family="Times,serif" font-size="14.00">namaster</text>
</a>
</g>
</g>
<!-- chealpix&#45;&gt;namaster -->
<g id="edge12" class="edge">
<title>chealpix&#45;&gt;namaster</title>
<path fill="none" stroke="black" d="M922.84,-71.7C922.84,-64.41 922.84,-55.73 922.84,-47.54"/>
<polygon fill="black" stroke="black" points="926.34,-47.62 922.84,-37.62 919.34,-47.62 926.34,-47.62"/>
</g>
<!-- root -->
<g id="node17" class="node">
<title>root</title>
<g id="a_node17"><a xlink:href="https://github.com/conda-forge/root-feedstock" xlink:title="root">
<ellipse fill="#000000" stroke="black" cx="123.84" cy="-566" rx="31.74" ry="18"/>
<text text-anchor="middle" x="123.84" y="-561.33" font-family="Times,serif" font-size="14.00" fill="white">root</text>
</a>
</g>
</g>
<!-- root&#45;&gt;rubinenv -->
<g id="edge13" class="edge">
<title>root&#45;&gt;rubinenv</title>
<path fill="none" stroke="black" d="M123.84,-547.59C123.84,-523.61 123.84,-480.14 123.84,-451.42"/>
<polygon fill="black" stroke="black" points="127.34,-451.62 123.84,-441.62 120.34,-451.62 127.34,-451.62"/>
</g>
<!-- photospline -->
<g id="node18" class="node">
<title>photospline</title>
<g id="a_node18"><a xlink:href="https://github.com/conda-forge/photospline-feedstock/pull/42" xlink:title="photospline ✓">
<ellipse fill="#31688e" stroke="black" cx="270.84" cy="-90" rx="77.52" ry="18"/>
<text text-anchor="middle" x="270.84" y="-85.33" font-family="Times,serif" font-size="14.00" fill="white">photospline ✓</text>
</a>
</g>
</g>
<!-- nuflux -->
<g id="node19" class="node">
<title>nuflux</title>
<g id="a_node19"><a xlink:href="https://github.com/conda-forge/nuflux-feedstock" xlink:title="nuflux">
<ellipse fill="#fde725" stroke="black" cx="270.84" cy="-18" rx="42.26" ry="18"/>
<text text-anchor="middle" x="270.84" y="-13.32" font-family="Times,serif" font-size="14.00">nuflux</text>
</a>
</g>
</g>
<!-- photospline&#45;&gt;nuflux -->
<g id="edge14" class="edge">
<title>photospline&#45;&gt;nuflux</title>
<path fill="none" stroke="black" d="M270.84,-71.7C270.84,-64.41 270.84,-55.73 270.84,-47.54"/>
<polygon fill="black" stroke="black" points="274.34,-47.62 270.84,-37.62 267.34,-47.62 274.34,-47.62"/>
</g>
<!-- des&#45;eastlake -->
<g id="node24" class="node">
<title>des&#45;eastlake</title>
<g id="a_node24"><a xlink:href="https://github.com/conda-forge/des-eastlake-feedstock" xlink:title="des eastlake">
<ellipse fill="#ff8c00" stroke="black" cx="699.84" cy="-242" rx="73.3" ry="18"/>
<text text-anchor="middle" x="699.84" y="-237.32" font-family="Times,serif" font-size="14.00">des eastlake</text>
</a>
</g>
</g>
<!-- hstcal&#45;&gt;des&#45;eastlake -->
<!-- tempo2 -->
<g id="node21" class="node">
<title>tempo2</title>
<g id="a_node21"><a xlink:href="https://github.com/conda-forge/tempo2-feedstock/pull/30" xlink:title="tempo2 ❎">
<ellipse fill="#31688e" stroke="black" cx="922.84" cy="-458" rx="64.36" ry="18"/>
<text text-anchor="middle" x="922.84" y="-453.32" font-family="Times,serif" font-size="14.00" fill="white">tempo2 ❎</text>
</a>
</g>
</g>
<!-- psrchive -->
<g id="node22" class="node">
<title>psrchive</title>
<g id="a_node22"><a xlink:href="https://github.com/conda-forge/psrchive-feedstock" xlink:title="psrchive">
<ellipse fill="#fde725" stroke="black" cx="922.84" cy="-386" rx="53.84" ry="18"/>
<text text-anchor="middle" x="922.84" y="-381.32" font-family="Times,serif" font-size="14.00">psrchive</text>
</a>
</g>
</g>
<!-- tempo2&#45;&gt;psrchive -->
<g id="edge16" class="edge">
<title>tempo2&#45;&gt;psrchive</title>
<path fill="none" stroke="black" d="M922.84,-439.7C922.84,-432.41 922.84,-423.73 922.84,-415.54"/>
<polygon fill="black" stroke="black" points="926.34,-415.62 922.84,-405.62 919.34,-415.62 926.34,-415.62"/>
</g>
<!-- dspsr -->
<g id="node23" class="node">
<title>dspsr</title>
<g id="a_node23"><a xlink:href="https://github.com/conda-forge/dspsr-feedstock" xlink:title="dspsr">
<ellipse fill="#fde725" stroke="black" cx="922.84" cy="-314" rx="39.11" ry="18"/>
<text text-anchor="middle" x="922.84" y="-309.32" font-family="Times,serif" font-size="14.00">dspsr</text>
</a>
</g>
</g>
<!-- psrchive&#45;&gt;dspsr -->
<g id="edge17" class="edge">
<title>psrchive&#45;&gt;dspsr</title>
<path fill="none" stroke="black" d="M922.84,-367.7C922.84,-360.41 922.84,-351.73 922.84,-343.54"/>
<polygon fill="black" stroke="black" points="926.34,-343.62 922.84,-333.62 919.34,-343.62 926.34,-343.62"/>
</g>
<!-- disperse -->
<g id="node26" class="node">
<title>disperse</title>
<g id="a_node26"><a xlink:href="https://github.com/conda-forge/disperse-feedstock" xlink:title="disperse">
<ellipse fill="#35b779" stroke="black" cx="699.84" cy="-170" rx="53.84" ry="18"/>
<text text-anchor="middle" x="699.84" y="-165.32" font-family="Times,serif" font-size="14.00">disperse</text>
</a>
</g>
</g>
<!-- des&#45;eastlake&#45;&gt;disperse -->
<!-- fitsverify -->
<g id="node25" class="node">
<title>fitsverify</title>
<g id="a_node25"><a xlink:href="https://github.com/conda-forge/fitsverify-feedstock/pull/16" xlink:title="fitsverify ✓">
<ellipse fill="#31688e" stroke="black" cx="63.84" cy="-638" rx="63.84" ry="18"/>
<text text-anchor="middle" x="63.84" y="-633.33" font-family="Times,serif" font-size="14.00" fill="white">fitsverify ✓</text>
</a>
</g>
</g>
<!-- fitsverify&#45;&gt;rubinenv -->
<g id="edge19" class="edge">
<title>fitsverify&#45;&gt;rubinenv</title>
<path fill="none" stroke="black" d="M66.94,-619.81C70.33,-601.79 76.17,-572.71 82.84,-548 91.97,-514.16 104.89,-475.96 113.77,-450.8"/>
<polygon fill="black" stroke="black" points="116.98,-452.23 117.03,-441.64 110.38,-449.89 116.98,-452.23"/>
</g>
</g>
</svg>
