<?xml version="1.0" encoding="UTF-8" standalone="no"?>
<!DOCTYPE svg PUBLIC "-//W3C//DTD SVG 1.1//EN"
 "http://www.w3.org/Graphics/SVG/1.1/DTD/svg11.dtd">
<!-- Generated by graphviz version 9.0.0 (20231125.0833)
 -->
<!-- Pages: 1 -->
<svg width="414pt" height="304pt"
 viewBox="0.00 0.00 413.67 304.00" xmlns="http://www.w3.org/2000/svg" xmlns:xlink="http://www.w3.org/1999/xlink">
<g id="graph0" class="graph" transform="scale(1 1) rotate(0) translate(4 300)">
<polygon fill="white" stroke="none" points="-4,4 -4,-300 409.67,-300 409.67,4 -4,4"/>
<!-- healpix_cxx -->
<g id="node1" class="node">
<title>healpix_cxx</title>
<g id="a_node1"><a xlink:href="https://github.com/conda-forge/healpix_cxx-feedstock/pull/31" xlink:title="healpix_cxx ✓">
<ellipse fill="#31688e" stroke="black" cx="199" cy="-54" rx="76.99" ry="18"/>
<text text-anchor="middle" x="199" y="-49.33" font-family="Times,serif" font-size="14.00" fill="white">healpix_cxx ✓</text>
</a>
</g>
</g>
<!-- lalpulsar -->
<g id="node2" class="node">
<title>lalpulsar</title>
<g id="a_node2"><a xlink:href="https://github.com/conda-forge/lalpulsar-feedstock/pull/70" xlink:title="lalpulsar ✓">
<ellipse fill="#31688e" stroke="black" cx="199" cy="-242" rx="62.78" ry="18"/>
<text text-anchor="middle" x="199" y="-237.32" font-family="Times,serif" font-size="14.00" fill="white">lalpulsar ✓</text>
</a>
</g>
</g>
<!-- lalapps -->
<g id="node5" class="node">
<title>lalapps</title>
<g id="a_node5"><a xlink:href="https://github.com/conda-forge/lalapps-feedstock" xlink:title="lalapps">
<ellipse fill="#fde725" stroke="black" cx="199" cy="-170" rx="47" ry="18"/>
<text text-anchor="middle" x="199" y="-165.32" font-family="Times,serif" font-size="14.00">lalapps</text>
</a>
</g>
</g>
<!-- lalpulsar&#45;&gt;lalapps -->
<g id="edge1" class="edge">
<title>lalpulsar&#45;&gt;lalapps</title>
<path fill="none" stroke="black" d="M199,-223.7C199,-216.41 199,-207.73 199,-199.54"/>
<polygon fill="black" stroke="black" points="202.5,-199.62 199,-189.62 195.5,-199.62 202.5,-199.62"/>
</g>
<!-- chealpix -->
<g id="node3" class="node">
<title>chealpix</title>
<g id="a_node3"><a xlink:href="https://github.com/conda-forge/chealpix-feedstock/pull/12" xlink:title="chealpix ✓">
<ellipse fill="#31688e" stroke="black" cx="345" cy="-242" rx="60.68" ry="18"/>
<text text-anchor="middle" x="345" y="-237.32" font-family="Times,serif" font-size="14.00" fill="white">chealpix ✓</text>
</a>
</g>
</g>
<!-- namaster -->
<g id="node4" class="node">
<title>namaster</title>
<g id="a_node4"><a xlink:href="https://github.com/conda-forge/namaster-feedstock" xlink:title="namaster">
<ellipse fill="#fde725" stroke="black" cx="345" cy="-170" rx="58.57" ry="18"/>
<text text-anchor="middle" x="345" y="-165.32" font-family="Times,serif" font-size="14.00">namaster</text>
</a>
</g>
</g>
<!-- chealpix&#45;&gt;namaster -->
<g id="edge2" class="edge">
<title>chealpix&#45;&gt;namaster</title>
<path fill="none" stroke="black" d="M345,-223.7C345,-216.41 345,-207.73 345,-199.54"/>
<polygon fill="black" stroke="black" points="348.5,-199.62 345,-189.62 341.5,-199.62 348.5,-199.62"/>
</g>
<!-- root -->
<g id="node6" class="node">
<title>root</title>
<g id="a_node6"><a xlink:href="https://github.com/conda-forge/root-feedstock/pull/239" xlink:title="root ❎">
<ellipse fill="#31688e" stroke="black" cx="57" cy="-90" rx="47" ry="18"/>
<text text-anchor="middle" x="57" y="-85.33" font-family="Times,serif" font-size="14.00" fill="white">root ❎</text>
</a>
</g>
</g>
<!-- rubinenv -->
<g id="node7" class="node">
<title>rubinenv</title>
<g id="a_node7"><a xlink:href="https://github.com/conda-forge/rubinenv-feedstock" xlink:title="rubinenv">
<ellipse fill="#fde725" stroke="black" cx="57" cy="-18" rx="55.94" ry="18"/>
<text text-anchor="middle" x="57" y="-13.32" font-family="Times,serif" font-size="14.00">rubinenv</text>
</a>
</g>
</g>
<!-- root&#45;&gt;rubinenv -->
<g id="edge3" class="edge">
<title>root&#45;&gt;rubinenv</title>
<path fill="none" stroke="black" d="M57,-71.7C57,-64.41 57,-55.73 57,-47.54"/>
<polygon fill="black" stroke="black" points="60.5,-47.62 57,-37.62 53.5,-47.62 60.5,-47.62"/>
</g>
<!-- tempo2 -->
<g id="node8" class="node">
<title>tempo2</title>
<g id="a_node8"><a xlink:href="https://github.com/conda-forge/tempo2-feedstock/pull/29" xlink:title="tempo2 ✓">
<ellipse fill="#31688e" stroke="black" cx="57" cy="-278" rx="57" ry="18"/>
<text text-anchor="middle" x="57" y="-273.32" font-family="Times,serif" font-size="14.00" fill="white">tempo2 ✓</text>
</a>
</g>
</g>
<!-- psrchive -->
<g id="node9" class="node">
<title>psrchive</title>
<g id="a_node9"><a xlink:href="https://github.com/conda-forge/psrchive-feedstock" xlink:title="psrchive">
<ellipse fill="#fde725" stroke="black" cx="57" cy="-206" rx="53.84" ry="18"/>
<text text-anchor="middle" x="57" y="-201.33" font-family="Times,serif" font-size="14.00">psrchive</text>
</a>
</g>
</g>
<!-- tempo2&#45;&gt;psrchive -->
<g id="edge4" class="edge">
<title>tempo2&#45;&gt;psrchive</title>
<path fill="none" stroke="black" d="M57,-259.7C57,-252.41 57,-243.73 57,-235.54"/>
<polygon fill="black" stroke="black" points="60.5,-235.62 57,-225.62 53.5,-235.62 60.5,-235.62"/>
</g>
<!-- dspsr -->
<g id="node10" class="node">
<title>dspsr</title>
<g id="a_node10"><a xlink:href="https://github.com/conda-forge/dspsr-feedstock" xlink:title="dspsr">
<ellipse fill="#fde725" stroke="black" cx="57" cy="-134" rx="39.11" ry="18"/>
<text text-anchor="middle" x="57" y="-129.32" font-family="Times,serif" font-size="14.00">dspsr</text>
</a>
</g>
</g>
<!-- psrchive&#45;&gt;dspsr -->
<g id="edge5" class="edge">
<title>psrchive&#45;&gt;dspsr</title>
<path fill="none" stroke="black" d="M57,-187.7C57,-180.41 57,-171.73 57,-163.54"/>
<polygon fill="black" stroke="black" points="60.5,-163.62 57,-153.62 53.5,-163.62 60.5,-163.62"/>
</g>
</g>
</svg>
