<?xml version="1.0" encoding="UTF-8" standalone="no"?>
<!DOCTYPE svg PUBLIC "-//W3C//DTD SVG 1.1//EN"
 "http://www.w3.org/Graphics/SVG/1.1/DTD/svg11.dtd">
<!-- Generated by graphviz version 11.0.0 (20240519.1550)
 -->
<!-- Pages: 1 -->
<svg width="414pt" height="232pt"
 viewBox="0.00 0.00 413.98 232.00" xmlns="http://www.w3.org/2000/svg" xmlns:xlink="http://www.w3.org/1999/xlink">
<g id="graph0" class="graph" transform="scale(1 1) rotate(0) translate(4 228)">
<polygon fill="white" stroke="none" points="-4,4 -4,-228 409.98,-228 409.98,4 -4,4"/>
<!-- healpix_cxx -->
<g id="node1" class="node">
<title>healpix_cxx</title>
<g id="a_node1"><a xlink:href="https://github.com/conda-forge/healpix_cxx-feedstock/pull/31" xlink:title="healpix_cxx ✓">
<ellipse fill="#31688e" stroke="black" cx="329" cy="-134" rx="76.99" ry="18"/>
<text text-anchor="middle" x="329" y="-129.32" font-family="Times,serif" font-size="14.00" fill="white">healpix_cxx ✓</text>
</a>
</g>
</g>
<!-- ccfits -->
<g id="node2" class="node">
<title>ccfits</title>
<g id="a_node2"><a xlink:href="https://github.com/conda-forge/ccfits-feedstock/pull/15" xlink:title="ccfits ✓">
<ellipse fill="#31688e" stroke="black" cx="183" cy="-18" rx="45.42" ry="18"/>
<text text-anchor="middle" x="183" y="-13.32" font-family="Times,serif" font-size="14.00" fill="white">ccfits ✓</text>
</a>
</g>
</g>
<!-- chealpix -->
<g id="node3" class="node">
<title>chealpix</title>
<g id="a_node3"><a xlink:href="https://github.com/conda-forge/chealpix-feedstock/pull/12" xlink:title="chealpix ✓">
<ellipse fill="#31688e" stroke="black" cx="183" cy="-170" rx="60.68" ry="18"/>
<text text-anchor="middle" x="183" y="-165.33" font-family="Times,serif" font-size="14.00" fill="white">chealpix ✓</text>
</a>
</g>
</g>
<!-- namaster -->
<g id="node4" class="node">
<title>namaster</title>
<g id="a_node4"><a xlink:href="https://github.com/conda-forge/namaster-feedstock" xlink:title="namaster">
<ellipse fill="#fde725" stroke="black" cx="183" cy="-98" rx="58.57" ry="18"/>
<text text-anchor="middle" x="183" y="-93.33" font-family="Times,serif" font-size="14.00">namaster</text>
</a>
</g>
</g>
<!-- chealpix&#45;&gt;namaster -->
<g id="edge1" class="edge">
<title>chealpix&#45;&gt;namaster</title>
<path fill="none" stroke="black" d="M183,-151.7C183,-144.41 183,-135.73 183,-127.54"/>
<polygon fill="black" stroke="black" points="186.5,-127.62 183,-117.62 179.5,-127.62 186.5,-127.62"/>
</g>
<!-- rubinenv -->
<g id="node5" class="node">
<title>rubinenv</title>
<g id="a_node5"><a xlink:href="https://github.com/conda-forge/rubinenv-feedstock" xlink:title="rubinenv">
<ellipse fill="#35b779" stroke="black" cx="57" cy="-18" rx="55.94" ry="18"/>
<text text-anchor="middle" x="57" y="-13.32" font-family="Times,serif" font-size="14.00">rubinenv</text>
</a>
</g>
</g>
<!-- tempo2 -->
<g id="node6" class="node">
<title>tempo2</title>
<g id="a_node6"><a xlink:href="https://github.com/conda-forge/tempo2-feedstock/pull/29" xlink:title="tempo2 ✓">
<ellipse fill="#31688e" stroke="black" cx="57" cy="-206" rx="57" ry="18"/>
<text text-anchor="middle" x="57" y="-201.32" font-family="Times,serif" font-size="14.00" fill="white">tempo2 ✓</text>
</a>
</g>
</g>
<!-- psrchive -->
<g id="node7" class="node">
<title>psrchive</title>
<g id="a_node7"><a xlink:href="https://github.com/conda-forge/psrchive-feedstock" xlink:title="psrchive">
<ellipse fill="#fde725" stroke="black" cx="57" cy="-134" rx="53.84" ry="18"/>
<text text-anchor="middle" x="57" y="-129.32" font-family="Times,serif" font-size="14.00">psrchive</text>
</a>
</g>
</g>
<!-- tempo2&#45;&gt;psrchive -->
<g id="edge2" class="edge">
<title>tempo2&#45;&gt;psrchive</title>
<path fill="none" stroke="black" d="M57,-187.7C57,-180.41 57,-171.73 57,-163.54"/>
<polygon fill="black" stroke="black" points="60.5,-163.62 57,-153.62 53.5,-163.62 60.5,-163.62"/>
</g>
<!-- dspsr -->
<g id="node8" class="node">
<title>dspsr</title>
<g id="a_node8"><a xlink:href="https://github.com/conda-forge/dspsr-feedstock" xlink:title="dspsr">
<ellipse fill="#fde725" stroke="black" cx="57" cy="-62" rx="39.11" ry="18"/>
<text text-anchor="middle" x="57" y="-57.33" font-family="Times,serif" font-size="14.00">dspsr</text>
</a>
</g>
</g>
<!-- psrchive&#45;&gt;dspsr -->
<g id="edge3" class="edge">
<title>psrchive&#45;&gt;dspsr</title>
<path fill="none" stroke="black" d="M57,-115.7C57,-108.41 57,-99.73 57,-91.54"/>
<polygon fill="black" stroke="black" points="60.5,-91.62 57,-81.62 53.5,-91.62 60.5,-91.62"/>
</g>
</g>
</svg>
