<?xml version="1.0" encoding="UTF-8" standalone="no"?>
<!DOCTYPE svg PUBLIC "-//W3C//DTD SVG 1.1//EN"
 "http://www.w3.org/Graphics/SVG/1.1/DTD/svg11.dtd">
<!-- Generated by graphviz version 11.0.0 (20240519.1550)
 -->
<!-- Pages: 1 -->
<svg width="1952pt" height="808pt"
 viewBox="0.00 0.00 1952.41 808.00" xmlns="http://www.w3.org/2000/svg" xmlns:xlink="http://www.w3.org/1999/xlink">
<g id="graph0" class="graph" transform="scale(1 1) rotate(0) translate(4 804)">
<polygon fill="white" stroke="none" points="-4,4 -4,-804 1948.41,-804 1948.41,4 -4,4"/>
<!-- implicit -->
<g id="node1" class="node">
<title>implicit</title>
<g id="a_node1"><a xlink:href="https://github.com/conda-forge/implicit-feedstock" xlink:title="implicit">
<ellipse fill="#fde725" stroke="black" cx="1513.64" cy="-566" rx="49.1" ry="18"/>
<text text-anchor="middle" x="1513.64" y="-561.33" font-family="Times,serif" font-size="14.00">implicit</text>
</a>
</g>
</g>
<!-- spdlog -->
<g id="node2" class="node">
<title>spdlog</title>
<g id="a_node2"><a xlink:href="https://github.com/conda-forge/spdlog-feedstock/pull/64" xlink:title="spdlog ❎">
<ellipse fill="#31688e" stroke="black" cx="665.64" cy="-638" rx="59.63" ry="18"/>
<text text-anchor="middle" x="665.64" y="-633.33" font-family="Times,serif" font-size="14.00" fill="white">spdlog ❎</text>
</a>
</g>
</g>
<!-- spdlog&#45;&gt;implicit -->
<g id="edge1" class="edge">
<title>spdlog&#45;&gt;implicit</title>
<path fill="none" stroke="black" d="M725.18,-636.95C856.9,-635.97 1182.53,-628.78 1450.64,-584 1455.55,-583.18 1460.63,-582.14 1465.67,-580.98"/>
<polygon fill="black" stroke="black" points="1466.25,-584.44 1475.12,-578.65 1464.58,-577.65 1466.25,-584.44"/>
</g>
<!-- tiledb -->
<g id="node3" class="node">
<title>tiledb</title>
<g id="a_node3"><a xlink:href="https://github.com/conda-forge/tiledb-feedstock" xlink:title="tiledb">
<ellipse fill="#fde725" stroke="black" cx="1451.64" cy="-494" rx="40.16" ry="18"/>
<text text-anchor="middle" x="1451.64" y="-489.32" font-family="Times,serif" font-size="14.00">tiledb</text>
</a>
</g>
</g>
<!-- spdlog&#45;&gt;tiledb -->
<g id="edge2" class="edge">
<title>spdlog&#45;&gt;tiledb</title>
<path fill="none" stroke="black" d="M725.15,-635.8C889.43,-632.06 1340.88,-618.71 1397.64,-584 1420.01,-570.32 1434.37,-543.55 1442.62,-522.92"/>
<polygon fill="black" stroke="black" points="1445.86,-524.23 1446.05,-513.64 1439.3,-521.8 1445.86,-524.23"/>
</g>
<!-- reaktoro -->
<g id="node4" class="node">
<title>reaktoro</title>
<g id="a_node4"><a xlink:href="https://github.com/conda-forge/reaktoro-feedstock" xlink:title="reaktoro">
<ellipse fill="#fde725" stroke="black" cx="1427.64" cy="-422" rx="53.84" ry="18"/>
<text text-anchor="middle" x="1427.64" y="-417.32" font-family="Times,serif" font-size="14.00">reaktoro</text>
</a>
</g>
</g>
<!-- spdlog&#45;&gt;reaktoro -->
<g id="edge3" class="edge">
<title>spdlog&#45;&gt;reaktoro</title>
<path fill="none" stroke="black" d="M725.2,-636.02C884.04,-632.91 1309.11,-621.16 1359.64,-584 1401.26,-553.39 1382.05,-523.39 1402.64,-476 1406.3,-467.57 1410.5,-458.48 1414.39,-450.25"/>
<polygon fill="black" stroke="black" points="1417.45,-451.96 1418.61,-441.43 1411.14,-448.94 1417.45,-451.96"/>
</g>
<!-- mamba -->
<g id="node5" class="node">
<title>mamba</title>
<g id="a_node5"><a xlink:href="https://github.com/conda-forge/mamba-feedstock" xlink:title="mamba">
<ellipse fill="#fde725" stroke="black" cx="1383.64" cy="-350" rx="48.05" ry="18"/>
<text text-anchor="middle" x="1383.64" y="-345.32" font-family="Times,serif" font-size="14.00">mamba</text>
</a>
</g>
</g>
<!-- spdlog&#45;&gt;mamba -->
<g id="edge4" class="edge">
<title>spdlog&#45;&gt;mamba</title>
<path fill="none" stroke="black" d="M725.26,-636.12C878.44,-633.3 1276.9,-622.33 1321.64,-584 1384.1,-530.48 1341.17,-482.83 1364.64,-404 1367.1,-395.72 1370.13,-386.84 1373.04,-378.77"/>
<polygon fill="black" stroke="black" points="1376.3,-380.04 1376.47,-369.45 1369.73,-377.62 1376.3,-380.04"/>
</g>
<!-- vowpalwabbit -->
<g id="node6" class="node">
<title>vowpalwabbit</title>
<g id="a_node6"><a xlink:href="https://github.com/conda-forge/vowpalwabbit-feedstock" xlink:title="vowpalwabbit">
<ellipse fill="#fde725" stroke="black" cx="1307.64" cy="-278" rx="80.67" ry="18"/>
<text text-anchor="middle" x="1307.64" y="-273.32" font-family="Times,serif" font-size="14.00">vowpalwabbit</text>
</a>
</g>
</g>
<!-- spdlog&#45;&gt;vowpalwabbit -->
<g id="edge5" class="edge">
<title>spdlog&#45;&gt;vowpalwabbit</title>
<path fill="none" stroke="black" d="M725.46,-636.41C884.84,-633.21 1307.64,-613.58 1307.64,-495 1307.64,-495 1307.64,-495 1307.64,-421 1307.64,-381.74 1307.64,-336.38 1307.64,-307.69"/>
<polygon fill="black" stroke="black" points="1311.14,-308 1307.64,-298 1304.14,-308 1311.14,-308"/>
</g>
<!-- gnuradio -->
<g id="node7" class="node">
<title>gnuradio</title>
<g id="a_node7"><a xlink:href="https://github.com/conda-forge/gnuradio-feedstock" xlink:title="gnuradio">
<ellipse fill="#fde725" stroke="black" cx="994.64" cy="-566" rx="55.94" ry="18"/>
<text text-anchor="middle" x="994.64" y="-561.33" font-family="Times,serif" font-size="14.00">gnuradio</text>
</a>
</g>
</g>
<!-- spdlog&#45;&gt;gnuradio -->
<g id="edge6" class="edge">
<title>spdlog&#45;&gt;gnuradio</title>
<path fill="none" stroke="black" d="M714.92,-627.47C767.11,-617.25 851.85,-600.28 924.64,-584 929.78,-582.85 935.13,-581.62 940.48,-580.36"/>
<polygon fill="black" stroke="black" points="940.99,-583.84 949.91,-578.12 939.37,-577.03 940.99,-583.84"/>
</g>
<!-- micromamba -->
<g id="node8" class="node">
<title>micromamba</title>
<g id="a_node8"><a xlink:href="https://github.com/conda-forge/micromamba-feedstock" xlink:title="micromamba">
<ellipse fill="#fde725" stroke="black" cx="806.64" cy="-566" rx="76.46" ry="18"/>
<text text-anchor="middle" x="806.64" y="-561.33" font-family="Times,serif" font-size="14.00">micromamba</text>
</a>
</g>
</g>
<!-- spdlog&#45;&gt;micromamba -->
<g id="edge7" class="edge">
<title>spdlog&#45;&gt;micromamba</title>
<path fill="none" stroke="black" d="M695.54,-622.15C715.64,-612.18 742.41,-598.88 764.64,-587.85"/>
<polygon fill="black" stroke="black" points="766.06,-591.05 773.46,-583.47 762.95,-584.78 766.06,-591.05"/>
</g>
<!-- gnuradio&#45;satellites -->
<g id="node9" class="node">
<title>gnuradio&#45;satellites</title>
<g id="a_node9"><a xlink:href="https://github.com/conda-forge/gnuradio-satellites-feedstock" xlink:title="gnuradio satellites">
<ellipse fill="#fde725" stroke="black" cx="1174.64" cy="-494" rx="104.87" ry="18"/>
<text text-anchor="middle" x="1174.64" y="-489.32" font-family="Times,serif" font-size="14.00">gnuradio satellites</text>
</a>
</g>
</g>
<!-- spdlog&#45;&gt;gnuradio&#45;satellites -->
<g id="edge8" class="edge">
<title>spdlog&#45;&gt;gnuradio&#45;satellites</title>
<path fill="none" stroke="black" d="M723.1,-632.95C817.31,-625.7 1000.1,-608.9 1059.64,-584 1095,-569.21 1128.87,-540.65 1150.58,-519.86"/>
<polygon fill="black" stroke="black" points="1152.78,-522.6 1157.48,-513.11 1147.88,-517.61 1152.78,-522.6"/>
</g>
<!-- dartsim -->
<g id="node10" class="node">
<title>dartsim</title>
<g id="a_node10"><a xlink:href="https://github.com/conda-forge/dartsim-feedstock" xlink:title="dartsim">
<ellipse fill="#fde725" stroke="black" cx="785.64" cy="-494" rx="50.16" ry="18"/>
<text text-anchor="middle" x="785.64" y="-489.32" font-family="Times,serif" font-size="14.00">dartsim</text>
</a>
</g>
</g>
<!-- spdlog&#45;&gt;dartsim -->
<g id="edge9" class="edge">
<title>spdlog&#45;&gt;dartsim</title>
<path fill="none" stroke="black" d="M674.3,-619.84C684.25,-601.07 701.77,-570.64 721.64,-548 731.38,-536.9 743.56,-526.21 754.67,-517.37"/>
<polygon fill="black" stroke="black" points="756.71,-520.22 762.48,-511.33 752.43,-514.68 756.71,-520.22"/>
</g>
<!-- heyoka -->
<g id="node11" class="node">
<title>heyoka</title>
<g id="a_node11"><a xlink:href="https://github.com/conda-forge/heyoka-feedstock" xlink:title="heyoka">
<ellipse fill="#fde725" stroke="black" cx="628.64" cy="-566" rx="46.47" ry="18"/>
<text text-anchor="middle" x="628.64" y="-561.33" font-family="Times,serif" font-size="14.00">heyoka</text>
</a>
</g>
</g>
<!-- spdlog&#45;&gt;heyoka -->
<g id="edge10" class="edge">
<title>spdlog&#45;&gt;heyoka</title>
<path fill="none" stroke="black" d="M656.68,-620.05C652.5,-612.14 647.42,-602.54 642.74,-593.69"/>
<polygon fill="black" stroke="black" points="645.99,-592.33 638.22,-585.13 639.8,-595.6 645.99,-592.33"/>
</g>
<!-- librmm -->
<g id="node12" class="node">
<title>librmm</title>
<g id="a_node12"><a xlink:href="https://github.com/conda-forge/librmm-feedstock" xlink:title="librmm">
<ellipse fill="#fde725" stroke="black" cx="527.64" cy="-422" rx="47.53" ry="18"/>
<text text-anchor="middle" x="527.64" y="-417.32" font-family="Times,serif" font-size="14.00">librmm</text>
</a>
</g>
</g>
<!-- spdlog&#45;&gt;librmm -->
<g id="edge11" class="edge">
<title>spdlog&#45;&gt;librmm</title>
<path fill="none" stroke="black" d="M624.03,-624.8C602.93,-616.56 578.67,-603.53 563.64,-584 533.8,-545.21 527.75,-486.49 527.03,-451.71"/>
<polygon fill="black" stroke="black" points="530.53,-451.98 526.98,-442 523.53,-452.01 530.53,-451.98"/>
</g>
<!-- libhdbpp&#45;timescale -->
<g id="node13" class="node">
<title>libhdbpp&#45;timescale</title>
<g id="a_node13"><a xlink:href="https://github.com/conda-forge/libhdbpp-timescale-feedstock" xlink:title="libhdbpp timescale">
<ellipse fill="#fde725" stroke="black" cx="547.64" cy="-350" rx="106.45" ry="18"/>
<text text-anchor="middle" x="547.64" y="-345.32" font-family="Times,serif" font-size="14.00">libhdbpp timescale</text>
</a>
</g>
</g>
<!-- spdlog&#45;&gt;libhdbpp&#45;timescale -->
<g id="edge12" class="edge">
<title>spdlog&#45;&gt;libhdbpp&#45;timescale</title>
<path fill="none" stroke="black" d="M619.85,-626.18C594.01,-618.13 562.6,-604.86 540.64,-584 489.04,-534.99 486.6,-509.35 470.64,-440 467.05,-424.41 463.19,-418.16 470.64,-404 477.31,-391.31 488.55,-381.06 500.41,-373.08"/>
<polygon fill="black" stroke="black" points="502.03,-376.2 508.7,-367.97 498.35,-370.25 502.03,-376.2"/>
</g>
<!-- bipedal&#45;locomotion&#45;framework -->
<g id="node14" class="node">
<title>bipedal&#45;locomotion&#45;framework</title>
<g id="a_node14"><a xlink:href="https://github.com/conda-forge/bipedal-locomotion-framework-feedstock" xlink:title="bipedal locomotion framework">
<ellipse fill="#fde725" stroke="black" cx="413.64" cy="-278" rx="163.27" ry="18"/>
<text text-anchor="middle" x="413.64" y="-273.32" font-family="Times,serif" font-size="14.00">bipedal locomotion framework</text>
</a>
</g>
</g>
<!-- spdlog&#45;&gt;bipedal&#45;locomotion&#45;framework -->
<g id="edge13" class="edge">
<title>spdlog&#45;&gt;bipedal&#45;locomotion&#45;framework</title>
<path fill="none" stroke="black" d="M610.65,-630.53C536.5,-618.41 413.64,-584.76 413.64,-495 413.64,-495 413.64,-495 413.64,-421 413.64,-381.74 413.64,-336.38 413.64,-307.69"/>
<polygon fill="black" stroke="black" points="417.14,-308 413.64,-298 410.14,-308 417.14,-308"/>
</g>
<!-- tip -->
<g id="node15" class="node">
<title>tip</title>
<g id="a_node15"><a xlink:href="https://github.com/conda-forge/tip-feedstock" xlink:title="tip">
<ellipse fill="#fde725" stroke="black" cx="358.64" cy="-566" rx="27" ry="18"/>
<text text-anchor="middle" x="358.64" y="-561.33" font-family="Times,serif" font-size="14.00">tip</text>
</a>
</g>
</g>
<!-- spdlog&#45;&gt;tip -->
<g id="edge14" class="edge">
<title>spdlog&#45;&gt;tip</title>
<path fill="none" stroke="black" d="M612.39,-629.55C558.15,-621.22 471.95,-605.96 399.64,-584 396.86,-583.16 394.02,-582.2 391.19,-581.17"/>
<polygon fill="black" stroke="black" points="392.47,-577.91 381.89,-577.54 389.93,-584.43 392.47,-577.91"/>
</g>
<!-- cascade -->
<g id="node16" class="node">
<title>cascade</title>
<g id="a_node16"><a xlink:href="https://github.com/conda-forge/cascade-feedstock" xlink:title="cascade">
<ellipse fill="#fde725" stroke="black" cx="643.64" cy="-422" rx="50.68" ry="18"/>
<text text-anchor="middle" x="643.64" y="-417.32" font-family="Times,serif" font-size="14.00">cascade</text>
</a>
</g>
</g>
<!-- spdlog&#45;&gt;cascade -->
<g id="edge15" class="edge">
<title>spdlog&#45;&gt;cascade</title>
<path fill="none" stroke="black" d="M625.18,-624.44C605.96,-616.21 584.8,-603.31 573.64,-584 566.32,-571.35 564.12,-498.78 575.64,-476 582.3,-462.83 593.92,-451.94 605.7,-443.53"/>
<polygon fill="black" stroke="black" points="607.41,-446.59 613.81,-438.15 603.54,-440.75 607.41,-446.59"/>
</g>
<!-- arcticdb -->
<g id="node17" class="node">
<title>arcticdb</title>
<g id="a_node17"><a xlink:href="https://github.com/conda-forge/arcticdb-feedstock" xlink:title="arcticdb">
<ellipse fill="#fde725" stroke="black" cx="129.64" cy="-566" rx="52.26" ry="18"/>
<text text-anchor="middle" x="129.64" y="-561.33" font-family="Times,serif" font-size="14.00">arcticdb</text>
</a>
</g>
</g>
<!-- spdlog&#45;&gt;arcticdb -->
<g id="edge16" class="edge">
<title>spdlog&#45;&gt;arcticdb</title>
<path fill="none" stroke="black" d="M607.74,-633.09C518.64,-626.48 342.81,-611.12 195.64,-584 190.66,-583.08 185.5,-582 180.36,-580.83"/>
<polygon fill="black" stroke="black" points="181.24,-577.44 170.7,-578.51 179.6,-584.24 181.24,-577.44"/>
</g>
<!-- gnuradio&#45;funcube -->
<g id="node18" class="node">
<title>gnuradio&#45;funcube</title>
<g id="a_node18"><a xlink:href="https://github.com/conda-forge/gnuradio-funcube-feedstock" xlink:title="gnuradio funcube">
<ellipse fill="#fde725" stroke="black" cx="952.64" cy="-494" rx="99.08" ry="18"/>
<text text-anchor="middle" x="952.64" y="-489.32" font-family="Times,serif" font-size="14.00">gnuradio funcube</text>
</a>
</g>
</g>
<!-- spdlog&#45;&gt;gnuradio&#45;funcube -->
<g id="edge17" class="edge">
<title>spdlog&#45;&gt;gnuradio&#45;funcube</title>
<path fill="none" stroke="black" d="M724.62,-634.78C773.19,-630.39 841.92,-618.03 891.64,-584 913.91,-568.76 930.44,-542.47 940.63,-522.41"/>
<polygon fill="black" stroke="black" points="943.66,-524.19 944.85,-513.66 937.35,-521.15 943.66,-524.19"/>
</g>
<!-- bmf -->
<g id="node19" class="node">
<title>bmf</title>
<g id="a_node19"><a xlink:href="https://github.com/conda-forge/bmf-feedstock" xlink:title="bmf">
<ellipse fill="#fde725" stroke="black" cx="324.64" cy="-494" rx="30.69" ry="18"/>
<text text-anchor="middle" x="324.64" y="-489.32" font-family="Times,serif" font-size="14.00">bmf</text>
</a>
</g>
</g>
<!-- spdlog&#45;&gt;bmf -->
<g id="edge18" class="edge">
<title>spdlog&#45;&gt;bmf</title>
<path fill="none" stroke="black" d="M605.9,-636.72C517.5,-634.9 358.42,-625.74 322.64,-584 308.49,-567.5 310.49,-542.28 315.16,-522.89"/>
<polygon fill="black" stroke="black" points="318.48,-524.01 317.8,-513.44 311.74,-522.13 318.48,-524.01"/>
</g>
<!-- spiceql -->
<g id="node20" class="node">
<title>spiceql</title>
<g id="a_node20"><a xlink:href="https://github.com/conda-forge/spiceql-feedstock" xlink:title="spiceql">
<ellipse fill="#fde725" stroke="black" cx="283.64" cy="-422" rx="46.47" ry="18"/>
<text text-anchor="middle" x="283.64" y="-417.32" font-family="Times,serif" font-size="14.00">spiceql</text>
</a>
</g>
</g>
<!-- spdlog&#45;&gt;spiceql -->
<g id="edge19" class="edge">
<title>spdlog&#45;&gt;spiceql</title>
<path fill="none" stroke="black" d="M606.33,-635.64C516.46,-632.37 351.57,-621.33 307.64,-584 269.84,-551.89 272.59,-488.13 278.05,-451.22"/>
<polygon fill="black" stroke="black" points="281.44,-452.18 279.63,-441.74 274.54,-451.03 281.44,-452.18"/>
</g>
<!-- momentum -->
<g id="node21" class="node">
<title>momentum</title>
<g id="a_node21"><a xlink:href="https://github.com/conda-forge/momentum-feedstock" xlink:title="momentum">
<ellipse fill="#fde725" stroke="black" cx="209.64" cy="-350" rx="68.04" ry="18"/>
<text text-anchor="middle" x="209.64" y="-345.32" font-family="Times,serif" font-size="14.00">momentum</text>
</a>
</g>
</g>
<!-- spdlog&#45;&gt;momentum -->
<g id="edge20" class="edge">
<title>spdlog&#45;&gt;momentum</title>
<path fill="none" stroke="black" d="M606.17,-636.2C510.57,-633.73 328.48,-623.78 279.64,-584 217.46,-533.37 209.01,-429.69 208.79,-379.49"/>
<polygon fill="black" stroke="black" points="212.29,-379.77 208.87,-369.74 205.29,-379.71 212.29,-379.77"/>
</g>
<!-- gnuradio&#45;&gt;gnuradio&#45;satellites -->
<g id="edge21" class="edge">
<title>gnuradio&#45;&gt;gnuradio&#45;satellites</title>
<path fill="none" stroke="black" d="M1029.34,-551.5C1055.91,-541.17 1092.98,-526.76 1123.02,-515.07"/>
<polygon fill="black" stroke="black" points="1124.27,-518.34 1132.33,-511.45 1121.74,-511.82 1124.27,-518.34"/>
</g>
<!-- gnuradio&#45;&gt;gnuradio&#45;funcube -->
<g id="edge22" class="edge">
<title>gnuradio&#45;&gt;gnuradio&#45;funcube</title>
<path fill="none" stroke="black" d="M984.47,-548.05C979.79,-540.26 974.13,-530.82 968.88,-522.08"/>
<polygon fill="black" stroke="black" points="971.93,-520.35 963.78,-513.57 965.93,-523.95 971.93,-520.35"/>
</g>
<!-- heyoka&#45;&gt;cascade -->
<g id="edge23" class="edge">
<title>heyoka&#45;&gt;cascade</title>
<path fill="none" stroke="black" d="M610.54,-549.3C600.84,-539.65 589.84,-526.4 584.64,-512 579.2,-496.95 578.12,-490.61 584.64,-476 590.06,-463.84 599.8,-453.31 609.83,-444.91"/>
<polygon fill="black" stroke="black" points="611.66,-447.91 617.41,-439.01 607.37,-442.38 611.66,-447.91"/>
</g>
<!-- heyoka.py -->
<g id="node22" class="node">
<title>heyoka.py</title>
<g id="a_node22"><a xlink:href="https://github.com/conda-forge/heyoka.py-feedstock" xlink:title="heyoka py">
<ellipse fill="#fde725" stroke="black" cx="655.64" cy="-494" rx="61.73" ry="18"/>
<text text-anchor="middle" x="655.64" y="-489.32" font-family="Times,serif" font-size="14.00">heyoka py</text>
</a>
</g>
</g>
<!-- heyoka&#45;&gt;heyoka.py -->
<g id="edge24" class="edge">
<title>heyoka&#45;&gt;heyoka.py</title>
<path fill="none" stroke="black" d="M635.31,-547.7C638.22,-540.15 641.71,-531.12 644.96,-522.68"/>
<polygon fill="black" stroke="black" points="648.16,-524.11 648.5,-513.52 641.63,-521.59 648.16,-524.11"/>
</g>
<!-- heyoka.py&#45;&gt;cascade -->
<g id="edge31" class="edge">
<title>heyoka.py&#45;&gt;cascade</title>
<path fill="none" stroke="black" d="M652.67,-475.7C651.41,-468.32 649.9,-459.52 648.48,-451.25"/>
<polygon fill="black" stroke="black" points="651.96,-450.86 646.83,-441.6 645.07,-452.04 651.96,-450.86"/>
</g>
<!-- openimageio -->
<g id="node23" class="node">
<title>openimageio</title>
<g id="a_node23"><a xlink:href="https://github.com/conda-forge/openimageio-feedstock/pull/107" xlink:title="openimageio ❎">
<ellipse fill="#31688e" stroke="black" cx="1660.64" cy="-782" rx="90.14" ry="18"/>
<text text-anchor="middle" x="1660.64" y="-777.33" font-family="Times,serif" font-size="14.00" fill="white">openimageio ❎</text>
</a>
</g>
</g>
<!-- log4cxx -->
<g id="node24" class="node">
<title>log4cxx</title>
<g id="a_node24"><a xlink:href="https://github.com/conda-forge/log4cxx-feedstock/pull/25" xlink:title="log4cxx ❎">
<ellipse fill="#31688e" stroke="black" cx="1660.64" cy="-710" rx="64.89" ry="18"/>
<text text-anchor="middle" x="1660.64" y="-705.33" font-family="Times,serif" font-size="14.00" fill="white">log4cxx ❎</text>
</a>
</g>
</g>
<!-- openimageio&#45;&gt;log4cxx -->
<!-- topologytoolkit -->
<g id="node25" class="node">
<title>topologytoolkit</title>
<g id="a_node25"><a xlink:href="https://github.com/conda-forge/topologytoolkit-feedstock" xlink:title="topologytoolkit">
<ellipse fill="#ff8c00" stroke="black" cx="1660.64" cy="-638" rx="86.46" ry="18"/>
<text text-anchor="middle" x="1660.64" y="-633.33" font-family="Times,serif" font-size="14.00">topologytoolkit</text>
</a>
</g>
</g>
<!-- log4cxx&#45;&gt;topologytoolkit -->
<!-- obake -->
<g id="node26" class="node">
<title>obake</title>
<g id="a_node26"><a xlink:href="https://github.com/conda-forge/obake-feedstock/pull/47" xlink:title="obake ❎">
<ellipse fill="#31688e" stroke="black" cx="1660.64" cy="-566" rx="55.94" ry="18"/>
<text text-anchor="middle" x="1660.64" y="-561.33" font-family="Times,serif" font-size="14.00" fill="white">obake ❎</text>
</a>
</g>
</g>
<!-- topologytoolkit&#45;&gt;obake -->
<!-- lue -->
<g id="node27" class="node">
<title>lue</title>
<g id="a_node27"><a xlink:href="https://github.com/conda-forge/lue-feedstock" xlink:title="lue">
<ellipse fill="#000000" stroke="black" cx="1660.64" cy="-494" rx="27" ry="18"/>
<text text-anchor="middle" x="1660.64" y="-489.32" font-family="Times,serif" font-size="14.00" fill="white">lue</text>
</a>
</g>
</g>
<!-- obake&#45;&gt;lue -->
<!-- cantera -->
<g id="node28" class="node">
<title>cantera</title>
<g id="a_node28"><a xlink:href="https://github.com/conda-forge/cantera-feedstock/pull/40" xlink:title="cantera ❎">
<ellipse fill="#31688e" stroke="black" cx="1660.64" cy="-422" rx="64.36" ry="18"/>
<text text-anchor="middle" x="1660.64" y="-417.32" font-family="Times,serif" font-size="14.00" fill="white">cantera ❎</text>
</a>
</g>
</g>
<!-- lue&#45;&gt;cantera -->
<!-- ecole -->
<g id="node29" class="node">
<title>ecole</title>
<g id="a_node29"><a xlink:href="https://github.com/conda-forge/ecole-feedstock" xlink:title="ecole">
<ellipse fill="#ff8c00" stroke="black" cx="1660.64" cy="-350" rx="37" ry="18"/>
<text text-anchor="middle" x="1660.64" y="-345.32" font-family="Times,serif" font-size="14.00">ecole</text>
</a>
</g>
</g>
<!-- cantera&#45;&gt;ecole -->
<!-- heavydb&#45;ext -->
<g id="node30" class="node">
<title>heavydb&#45;ext</title>
<g id="a_node30"><a xlink:href="https://github.com/conda-forge/heavydb-ext-feedstock/pull/75" xlink:title="heavydb ext ❎">
<ellipse fill="#31688e" stroke="black" cx="1660.64" cy="-278" rx="87.51" ry="18"/>
<text text-anchor="middle" x="1660.64" y="-273.32" font-family="Times,serif" font-size="14.00" fill="white">heavydb ext ❎</text>
</a>
</g>
</g>
<!-- ecole&#45;&gt;heavydb&#45;ext -->
<!-- samurai -->
<g id="node35" class="node">
<title>samurai</title>
<g id="a_node35"><a xlink:href="https://github.com/conda-forge/samurai-feedstock/pull/22" xlink:title="samurai ✓">
<ellipse fill="#31688e" stroke="black" cx="1660.64" cy="-206" rx="59.63" ry="18"/>
<text text-anchor="middle" x="1660.64" y="-201.33" font-family="Times,serif" font-size="14.00" fill="white">samurai ✓</text>
</a>
</g>
</g>
<!-- heavydb&#45;ext&#45;&gt;samurai -->
<!-- folly -->
<g id="node31" class="node">
<title>folly</title>
<g id="a_node31"><a xlink:href="https://github.com/conda-forge/folly-feedstock/pull/204" xlink:title="folly ❎">
<ellipse fill="#31688e" stroke="black" cx="79.64" cy="-638" rx="48.05" ry="18"/>
<text text-anchor="middle" x="79.64" y="-633.33" font-family="Times,serif" font-size="14.00" fill="white">folly ❎</text>
</a>
</g>
</g>
<!-- folly&#45;&gt;arcticdb -->
<g id="edge33" class="edge">
<title>folly&#45;&gt;arcticdb</title>
<path fill="none" stroke="black" d="M91.49,-620.41C97.32,-612.25 104.48,-602.22 111.02,-593.07"/>
<polygon fill="black" stroke="black" points="113.68,-595.36 116.65,-585.19 107.99,-591.29 113.68,-595.36"/>
</g>
<!-- hdk -->
<g id="node32" class="node">
<title>hdk</title>
<g id="a_node32"><a xlink:href="https://github.com/conda-forge/hdk-feedstock" xlink:title="hdk">
<ellipse fill="#fde725" stroke="black" cx="29.64" cy="-566" rx="29.64" ry="18"/>
<text text-anchor="middle" x="29.64" y="-561.33" font-family="Times,serif" font-size="14.00">hdk</text>
</a>
</g>
</g>
<!-- folly&#45;&gt;hdk -->
<g id="edge34" class="edge">
<title>folly&#45;&gt;hdk</title>
<path fill="none" stroke="black" d="M67.79,-620.41C61.79,-612.01 54.37,-601.63 47.68,-592.26"/>
<polygon fill="black" stroke="black" points="50.6,-590.32 41.94,-584.22 44.9,-594.39 50.6,-590.32"/>
</g>
<!-- intervalxt -->
<g id="node33" class="node">
<title>intervalxt</title>
<g id="a_node33"><a xlink:href="https://github.com/conda-forge/intervalxt-feedstock/pull/21" xlink:title="intervalxt ❎">
<ellipse fill="#31688e" stroke="black" cx="781.64" cy="-90" rx="75.41" ry="18"/>
<text text-anchor="middle" x="781.64" y="-85.33" font-family="Times,serif" font-size="14.00" fill="white">intervalxt ❎</text>
</a>
</g>
</g>
<!-- flatsurf -->
<g id="node34" class="node">
<title>flatsurf</title>
<g id="a_node34"><a xlink:href="https://github.com/conda-forge/flatsurf-feedstock" xlink:title="flatsurf">
<ellipse fill="#fde725" stroke="black" cx="781.64" cy="-18" rx="47.53" ry="18"/>
<text text-anchor="middle" x="781.64" y="-13.32" font-family="Times,serif" font-size="14.00">flatsurf</text>
</a>
</g>
</g>
<!-- intervalxt&#45;&gt;flatsurf -->
<g id="edge35" class="edge">
<title>intervalxt&#45;&gt;flatsurf</title>
<path fill="none" stroke="black" d="M781.64,-71.7C781.64,-64.41 781.64,-55.73 781.64,-47.54"/>
<polygon fill="black" stroke="black" points="785.14,-47.62 781.64,-37.62 778.14,-47.62 785.14,-47.62"/>
</g>
<!-- genomekit -->
<g id="node36" class="node">
<title>genomekit</title>
<g id="a_node36"><a xlink:href="https://github.com/conda-forge/genomekit-feedstock/pull/16" xlink:title="genomekit ❎">
<ellipse fill="#31688e" stroke="black" cx="1660.64" cy="-134" rx="79.09" ry="18"/>
<text text-anchor="middle" x="1660.64" y="-129.32" font-family="Times,serif" font-size="14.00" fill="white">genomekit ❎</text>
</a>
</g>
</g>
<!-- samurai&#45;&gt;genomekit -->
<!-- aligator -->
<g id="node37" class="node">
<title>aligator</title>
<g id="a_node37"><a xlink:href="https://github.com/conda-forge/aligator-feedstock" xlink:title="aligator">
<ellipse fill="#fde725" stroke="black" cx="1851.64" cy="-422" rx="50.16" ry="18"/>
<text text-anchor="middle" x="1851.64" y="-417.32" font-family="Times,serif" font-size="14.00">aligator</text>
</a>
</g>
</g>
<!-- proxsuite&#45;nlp -->
<g id="node38" class="node">
<title>proxsuite&#45;nlp</title>
<g id="a_node38"><a xlink:href="https://github.com/conda-forge/proxsuite-nlp-feedstock/pull/28" xlink:title="proxsuite nlp ❎">
<ellipse fill="#31688e" stroke="black" cx="1851.64" cy="-494" rx="92.77" ry="18"/>
<text text-anchor="middle" x="1851.64" y="-489.32" font-family="Times,serif" font-size="14.00" fill="white">proxsuite nlp ❎</text>
</a>
</g>
</g>
<!-- proxsuite&#45;nlp&#45;&gt;aligator -->
<g id="edge38" class="edge">
<title>proxsuite&#45;nlp&#45;&gt;aligator</title>
<path fill="none" stroke="black" d="M1851.64,-475.7C1851.64,-468.41 1851.64,-459.73 1851.64,-451.54"/>
<polygon fill="black" stroke="black" points="1855.14,-451.62 1851.64,-441.62 1848.14,-451.62 1855.14,-451.62"/>
</g>
</g>
</svg>
