<?xml version="1.0" encoding="UTF-8" standalone="no"?>
<!DOCTYPE svg PUBLIC "-//W3C//DTD SVG 1.1//EN"
 "http://www.w3.org/Graphics/SVG/1.1/DTD/svg11.dtd">
<!-- Generated by graphviz version 11.0.0 (20240519.1550)
 -->
<!-- Pages: 1 -->
<svg width="1918pt" height="692pt"
 viewBox="0.00 0.00 1918.05 692.00" xmlns="http://www.w3.org/2000/svg" xmlns:xlink="http://www.w3.org/1999/xlink">
<g id="graph0" class="graph" transform="scale(1 1) rotate(0) translate(4 688)">
<polygon fill="white" stroke="none" points="-4,4 -4,-688 1914.05,-688 1914.05,4 -4,4"/>
<!-- implicit -->
<g id="node1" class="node">
<title>implicit</title>
<g id="a_node1"><a xlink:href="https://github.com/conda-forge/implicit-feedstock" xlink:title="implicit">
<ellipse fill="#fde725" stroke="black" cx="1513.64" cy="-450" rx="49.1" ry="18"/>
<text text-anchor="middle" x="1513.64" y="-445.32" font-family="Times,serif" font-size="14.00">implicit</text>
</a>
</g>
</g>
<!-- spdlog -->
<g id="node2" class="node">
<title>spdlog</title>
<g id="a_node2"><a xlink:href="https://github.com/conda-forge/spdlog-feedstock/pull/64" xlink:title="spdlog ❎">
<ellipse fill="#31688e" stroke="black" cx="665.64" cy="-522" rx="59.63" ry="18"/>
<text text-anchor="middle" x="665.64" y="-517.33" font-family="Times,serif" font-size="14.00" fill="white">spdlog ❎</text>
</a>
</g>
</g>
<!-- spdlog&#45;&gt;implicit -->
<g id="edge1" class="edge">
<title>spdlog&#45;&gt;implicit</title>
<path fill="none" stroke="black" d="M725.18,-520.95C856.9,-519.97 1182.53,-512.78 1450.64,-468 1455.55,-467.18 1460.63,-466.14 1465.67,-464.98"/>
<polygon fill="black" stroke="black" points="1466.25,-468.44 1475.12,-462.65 1464.58,-461.65 1466.25,-468.44"/>
</g>
<!-- tiledb -->
<g id="node3" class="node">
<title>tiledb</title>
<g id="a_node3"><a xlink:href="https://github.com/conda-forge/tiledb-feedstock" xlink:title="tiledb">
<ellipse fill="#fde725" stroke="black" cx="1451.64" cy="-378" rx="40.16" ry="18"/>
<text text-anchor="middle" x="1451.64" y="-373.32" font-family="Times,serif" font-size="14.00">tiledb</text>
</a>
</g>
</g>
<!-- spdlog&#45;&gt;tiledb -->
<g id="edge2" class="edge">
<title>spdlog&#45;&gt;tiledb</title>
<path fill="none" stroke="black" d="M725.15,-519.8C889.43,-516.06 1340.88,-502.71 1397.64,-468 1420.01,-454.32 1434.37,-427.55 1442.62,-406.92"/>
<polygon fill="black" stroke="black" points="1445.86,-408.23 1446.05,-397.64 1439.3,-405.8 1445.86,-408.23"/>
</g>
<!-- reaktoro -->
<g id="node4" class="node">
<title>reaktoro</title>
<g id="a_node4"><a xlink:href="https://github.com/conda-forge/reaktoro-feedstock" xlink:title="reaktoro">
<ellipse fill="#fde725" stroke="black" cx="1427.64" cy="-306" rx="53.84" ry="18"/>
<text text-anchor="middle" x="1427.64" y="-301.32" font-family="Times,serif" font-size="14.00">reaktoro</text>
</a>
</g>
</g>
<!-- spdlog&#45;&gt;reaktoro -->
<g id="edge3" class="edge">
<title>spdlog&#45;&gt;reaktoro</title>
<path fill="none" stroke="black" d="M725.2,-520.02C884.04,-516.91 1309.11,-505.16 1359.64,-468 1401.26,-437.39 1382.05,-407.39 1402.64,-360 1406.3,-351.57 1410.5,-342.48 1414.39,-334.25"/>
<polygon fill="black" stroke="black" points="1417.45,-335.96 1418.61,-325.43 1411.14,-332.94 1417.45,-335.96"/>
</g>
<!-- mamba -->
<g id="node5" class="node">
<title>mamba</title>
<g id="a_node5"><a xlink:href="https://github.com/conda-forge/mamba-feedstock" xlink:title="mamba">
<ellipse fill="#fde725" stroke="black" cx="1383.64" cy="-234" rx="48.05" ry="18"/>
<text text-anchor="middle" x="1383.64" y="-229.32" font-family="Times,serif" font-size="14.00">mamba</text>
</a>
</g>
</g>
<!-- spdlog&#45;&gt;mamba -->
<g id="edge4" class="edge">
<title>spdlog&#45;&gt;mamba</title>
<path fill="none" stroke="black" d="M725.26,-520.12C878.44,-517.3 1276.9,-506.33 1321.64,-468 1384.1,-414.48 1341.17,-366.83 1364.64,-288 1367.1,-279.72 1370.13,-270.84 1373.04,-262.77"/>
<polygon fill="black" stroke="black" points="1376.3,-264.04 1376.47,-253.45 1369.73,-261.62 1376.3,-264.04"/>
</g>
<!-- vowpalwabbit -->
<g id="node6" class="node">
<title>vowpalwabbit</title>
<g id="a_node6"><a xlink:href="https://github.com/conda-forge/vowpalwabbit-feedstock" xlink:title="vowpalwabbit">
<ellipse fill="#fde725" stroke="black" cx="1307.64" cy="-162" rx="80.67" ry="18"/>
<text text-anchor="middle" x="1307.64" y="-157.32" font-family="Times,serif" font-size="14.00">vowpalwabbit</text>
</a>
</g>
</g>
<!-- spdlog&#45;&gt;vowpalwabbit -->
<g id="edge5" class="edge">
<title>spdlog&#45;&gt;vowpalwabbit</title>
<path fill="none" stroke="black" d="M725.46,-520.41C884.84,-517.21 1307.64,-497.58 1307.64,-379 1307.64,-379 1307.64,-379 1307.64,-305 1307.64,-265.74 1307.64,-220.38 1307.64,-191.69"/>
<polygon fill="black" stroke="black" points="1311.14,-192 1307.64,-182 1304.14,-192 1311.14,-192"/>
</g>
<!-- gnuradio -->
<g id="node7" class="node">
<title>gnuradio</title>
<g id="a_node7"><a xlink:href="https://github.com/conda-forge/gnuradio-feedstock" xlink:title="gnuradio">
<ellipse fill="#fde725" stroke="black" cx="994.64" cy="-450" rx="55.94" ry="18"/>
<text text-anchor="middle" x="994.64" y="-445.32" font-family="Times,serif" font-size="14.00">gnuradio</text>
</a>
</g>
</g>
<!-- spdlog&#45;&gt;gnuradio -->
<g id="edge6" class="edge">
<title>spdlog&#45;&gt;gnuradio</title>
<path fill="none" stroke="black" d="M714.92,-511.47C767.11,-501.25 851.85,-484.28 924.64,-468 929.78,-466.85 935.13,-465.62 940.48,-464.36"/>
<polygon fill="black" stroke="black" points="940.99,-467.84 949.91,-462.12 939.37,-461.03 940.99,-467.84"/>
</g>
<!-- micromamba -->
<g id="node8" class="node">
<title>micromamba</title>
<g id="a_node8"><a xlink:href="https://github.com/conda-forge/micromamba-feedstock" xlink:title="micromamba">
<ellipse fill="#fde725" stroke="black" cx="806.64" cy="-450" rx="76.46" ry="18"/>
<text text-anchor="middle" x="806.64" y="-445.32" font-family="Times,serif" font-size="14.00">micromamba</text>
</a>
</g>
</g>
<!-- spdlog&#45;&gt;micromamba -->
<g id="edge7" class="edge">
<title>spdlog&#45;&gt;micromamba</title>
<path fill="none" stroke="black" d="M695.54,-506.15C715.64,-496.18 742.41,-482.88 764.64,-471.85"/>
<polygon fill="black" stroke="black" points="766.06,-475.05 773.46,-467.47 762.95,-468.78 766.06,-475.05"/>
</g>
<!-- gnuradio&#45;satellites -->
<g id="node9" class="node">
<title>gnuradio&#45;satellites</title>
<g id="a_node9"><a xlink:href="https://github.com/conda-forge/gnuradio-satellites-feedstock" xlink:title="gnuradio satellites">
<ellipse fill="#fde725" stroke="black" cx="1174.64" cy="-378" rx="104.87" ry="18"/>
<text text-anchor="middle" x="1174.64" y="-373.32" font-family="Times,serif" font-size="14.00">gnuradio satellites</text>
</a>
</g>
</g>
<!-- spdlog&#45;&gt;gnuradio&#45;satellites -->
<g id="edge8" class="edge">
<title>spdlog&#45;&gt;gnuradio&#45;satellites</title>
<path fill="none" stroke="black" d="M723.1,-516.95C817.31,-509.7 1000.1,-492.9 1059.64,-468 1095,-453.21 1128.87,-424.65 1150.58,-403.86"/>
<polygon fill="black" stroke="black" points="1152.78,-406.6 1157.48,-397.11 1147.88,-401.61 1152.78,-406.6"/>
</g>
<!-- dartsim -->
<g id="node10" class="node">
<title>dartsim</title>
<g id="a_node10"><a xlink:href="https://github.com/conda-forge/dartsim-feedstock" xlink:title="dartsim">
<ellipse fill="#fde725" stroke="black" cx="785.64" cy="-378" rx="50.16" ry="18"/>
<text text-anchor="middle" x="785.64" y="-373.32" font-family="Times,serif" font-size="14.00">dartsim</text>
</a>
</g>
</g>
<!-- spdlog&#45;&gt;dartsim -->
<g id="edge9" class="edge">
<title>spdlog&#45;&gt;dartsim</title>
<path fill="none" stroke="black" d="M674.3,-503.84C684.25,-485.07 701.77,-454.64 721.64,-432 731.38,-420.9 743.56,-410.21 754.67,-401.37"/>
<polygon fill="black" stroke="black" points="756.71,-404.22 762.48,-395.33 752.43,-398.68 756.71,-404.22"/>
</g>
<!-- heyoka -->
<g id="node11" class="node">
<title>heyoka</title>
<g id="a_node11"><a xlink:href="https://github.com/conda-forge/heyoka-feedstock" xlink:title="heyoka">
<ellipse fill="#fde725" stroke="black" cx="628.64" cy="-450" rx="46.47" ry="18"/>
<text text-anchor="middle" x="628.64" y="-445.32" font-family="Times,serif" font-size="14.00">heyoka</text>
</a>
</g>
</g>
<!-- spdlog&#45;&gt;heyoka -->
<g id="edge10" class="edge">
<title>spdlog&#45;&gt;heyoka</title>
<path fill="none" stroke="black" d="M656.68,-504.05C652.5,-496.14 647.42,-486.54 642.74,-477.69"/>
<polygon fill="black" stroke="black" points="645.99,-476.33 638.22,-469.13 639.8,-479.6 645.99,-476.33"/>
</g>
<!-- librmm -->
<g id="node12" class="node">
<title>librmm</title>
<g id="a_node12"><a xlink:href="https://github.com/conda-forge/librmm-feedstock" xlink:title="librmm">
<ellipse fill="#fde725" stroke="black" cx="527.64" cy="-306" rx="47.53" ry="18"/>
<text text-anchor="middle" x="527.64" y="-301.32" font-family="Times,serif" font-size="14.00">librmm</text>
</a>
</g>
</g>
<!-- spdlog&#45;&gt;librmm -->
<g id="edge11" class="edge">
<title>spdlog&#45;&gt;librmm</title>
<path fill="none" stroke="black" d="M624.03,-508.8C602.93,-500.56 578.67,-487.53 563.64,-468 533.8,-429.21 527.75,-370.49 527.03,-335.71"/>
<polygon fill="black" stroke="black" points="530.53,-335.98 526.98,-326 523.53,-336.01 530.53,-335.98"/>
</g>
<!-- libhdbpp&#45;timescale -->
<g id="node13" class="node">
<title>libhdbpp&#45;timescale</title>
<g id="a_node13"><a xlink:href="https://github.com/conda-forge/libhdbpp-timescale-feedstock" xlink:title="libhdbpp timescale">
<ellipse fill="#fde725" stroke="black" cx="547.64" cy="-234" rx="106.45" ry="18"/>
<text text-anchor="middle" x="547.64" y="-229.32" font-family="Times,serif" font-size="14.00">libhdbpp timescale</text>
</a>
</g>
</g>
<!-- spdlog&#45;&gt;libhdbpp&#45;timescale -->
<g id="edge12" class="edge">
<title>spdlog&#45;&gt;libhdbpp&#45;timescale</title>
<path fill="none" stroke="black" d="M619.85,-510.18C594.01,-502.13 562.6,-488.86 540.64,-468 489.04,-418.99 486.6,-393.35 470.64,-324 467.05,-308.41 463.19,-302.16 470.64,-288 477.31,-275.31 488.55,-265.06 500.41,-257.08"/>
<polygon fill="black" stroke="black" points="502.03,-260.2 508.7,-251.97 498.35,-254.25 502.03,-260.2"/>
</g>
<!-- bipedal&#45;locomotion&#45;framework -->
<g id="node14" class="node">
<title>bipedal&#45;locomotion&#45;framework</title>
<g id="a_node14"><a xlink:href="https://github.com/conda-forge/bipedal-locomotion-framework-feedstock" xlink:title="bipedal locomotion framework">
<ellipse fill="#fde725" stroke="black" cx="413.64" cy="-162" rx="163.27" ry="18"/>
<text text-anchor="middle" x="413.64" y="-157.32" font-family="Times,serif" font-size="14.00">bipedal locomotion framework</text>
</a>
</g>
</g>
<!-- spdlog&#45;&gt;bipedal&#45;locomotion&#45;framework -->
<g id="edge13" class="edge">
<title>spdlog&#45;&gt;bipedal&#45;locomotion&#45;framework</title>
<path fill="none" stroke="black" d="M610.65,-514.53C536.5,-502.41 413.64,-468.76 413.64,-379 413.64,-379 413.64,-379 413.64,-305 413.64,-265.74 413.64,-220.38 413.64,-191.69"/>
<polygon fill="black" stroke="black" points="417.14,-192 413.64,-182 410.14,-192 417.14,-192"/>
</g>
<!-- tip -->
<g id="node15" class="node">
<title>tip</title>
<g id="a_node15"><a xlink:href="https://github.com/conda-forge/tip-feedstock" xlink:title="tip">
<ellipse fill="#fde725" stroke="black" cx="358.64" cy="-450" rx="27" ry="18"/>
<text text-anchor="middle" x="358.64" y="-445.32" font-family="Times,serif" font-size="14.00">tip</text>
</a>
</g>
</g>
<!-- spdlog&#45;&gt;tip -->
<g id="edge14" class="edge">
<title>spdlog&#45;&gt;tip</title>
<path fill="none" stroke="black" d="M612.39,-513.55C558.15,-505.22 471.95,-489.96 399.64,-468 396.86,-467.16 394.02,-466.2 391.19,-465.17"/>
<polygon fill="black" stroke="black" points="392.47,-461.91 381.89,-461.54 389.93,-468.43 392.47,-461.91"/>
</g>
<!-- cascade -->
<g id="node16" class="node">
<title>cascade</title>
<g id="a_node16"><a xlink:href="https://github.com/conda-forge/cascade-feedstock" xlink:title="cascade">
<ellipse fill="#fde725" stroke="black" cx="643.64" cy="-306" rx="50.68" ry="18"/>
<text text-anchor="middle" x="643.64" y="-301.32" font-family="Times,serif" font-size="14.00">cascade</text>
</a>
</g>
</g>
<!-- spdlog&#45;&gt;cascade -->
<g id="edge15" class="edge">
<title>spdlog&#45;&gt;cascade</title>
<path fill="none" stroke="black" d="M625.18,-508.44C605.96,-500.21 584.8,-487.31 573.64,-468 566.32,-455.35 564.12,-382.78 575.64,-360 582.3,-346.83 593.92,-335.94 605.7,-327.53"/>
<polygon fill="black" stroke="black" points="607.41,-330.59 613.81,-322.15 603.54,-324.75 607.41,-330.59"/>
</g>
<!-- arcticdb -->
<g id="node17" class="node">
<title>arcticdb</title>
<g id="a_node17"><a xlink:href="https://github.com/conda-forge/arcticdb-feedstock" xlink:title="arcticdb">
<ellipse fill="#fde725" stroke="black" cx="129.64" cy="-450" rx="52.26" ry="18"/>
<text text-anchor="middle" x="129.64" y="-445.32" font-family="Times,serif" font-size="14.00">arcticdb</text>
</a>
</g>
</g>
<!-- spdlog&#45;&gt;arcticdb -->
<g id="edge16" class="edge">
<title>spdlog&#45;&gt;arcticdb</title>
<path fill="none" stroke="black" d="M607.74,-517.09C518.64,-510.48 342.81,-495.12 195.64,-468 190.66,-467.08 185.5,-466 180.36,-464.83"/>
<polygon fill="black" stroke="black" points="181.24,-461.44 170.7,-462.51 179.6,-468.24 181.24,-461.44"/>
</g>
<!-- gnuradio&#45;funcube -->
<g id="node18" class="node">
<title>gnuradio&#45;funcube</title>
<g id="a_node18"><a xlink:href="https://github.com/conda-forge/gnuradio-funcube-feedstock" xlink:title="gnuradio funcube">
<ellipse fill="#fde725" stroke="black" cx="952.64" cy="-378" rx="99.08" ry="18"/>
<text text-anchor="middle" x="952.64" y="-373.32" font-family="Times,serif" font-size="14.00">gnuradio funcube</text>
</a>
</g>
</g>
<!-- spdlog&#45;&gt;gnuradio&#45;funcube -->
<g id="edge17" class="edge">
<title>spdlog&#45;&gt;gnuradio&#45;funcube</title>
<path fill="none" stroke="black" d="M724.62,-518.78C773.19,-514.39 841.92,-502.03 891.64,-468 913.91,-452.76 930.44,-426.47 940.63,-406.41"/>
<polygon fill="black" stroke="black" points="943.66,-408.19 944.85,-397.66 937.35,-405.15 943.66,-408.19"/>
</g>
<!-- bmf -->
<g id="node19" class="node">
<title>bmf</title>
<g id="a_node19"><a xlink:href="https://github.com/conda-forge/bmf-feedstock" xlink:title="bmf">
<ellipse fill="#fde725" stroke="black" cx="324.64" cy="-378" rx="30.69" ry="18"/>
<text text-anchor="middle" x="324.64" y="-373.32" font-family="Times,serif" font-size="14.00">bmf</text>
</a>
</g>
</g>
<!-- spdlog&#45;&gt;bmf -->
<g id="edge18" class="edge">
<title>spdlog&#45;&gt;bmf</title>
<path fill="none" stroke="black" d="M605.9,-520.72C517.5,-518.9 358.42,-509.74 322.64,-468 308.49,-451.5 310.49,-426.28 315.16,-406.89"/>
<polygon fill="black" stroke="black" points="318.48,-408.01 317.8,-397.44 311.74,-406.13 318.48,-408.01"/>
</g>
<!-- spiceql -->
<g id="node20" class="node">
<title>spiceql</title>
<g id="a_node20"><a xlink:href="https://github.com/conda-forge/spiceql-feedstock" xlink:title="spiceql">
<ellipse fill="#fde725" stroke="black" cx="283.64" cy="-306" rx="46.47" ry="18"/>
<text text-anchor="middle" x="283.64" y="-301.32" font-family="Times,serif" font-size="14.00">spiceql</text>
</a>
</g>
</g>
<!-- spdlog&#45;&gt;spiceql -->
<g id="edge19" class="edge">
<title>spdlog&#45;&gt;spiceql</title>
<path fill="none" stroke="black" d="M606.33,-519.64C516.46,-516.37 351.57,-505.33 307.64,-468 269.84,-435.89 272.59,-372.13 278.05,-335.22"/>
<polygon fill="black" stroke="black" points="281.44,-336.18 279.63,-325.74 274.54,-335.03 281.44,-336.18"/>
</g>
<!-- momentum -->
<g id="node21" class="node">
<title>momentum</title>
<g id="a_node21"><a xlink:href="https://github.com/conda-forge/momentum-feedstock" xlink:title="momentum">
<ellipse fill="#fde725" stroke="black" cx="209.64" cy="-234" rx="68.04" ry="18"/>
<text text-anchor="middle" x="209.64" y="-229.32" font-family="Times,serif" font-size="14.00">momentum</text>
</a>
</g>
</g>
<!-- spdlog&#45;&gt;momentum -->
<g id="edge20" class="edge">
<title>spdlog&#45;&gt;momentum</title>
<path fill="none" stroke="black" d="M606.17,-520.2C510.57,-517.73 328.48,-507.78 279.64,-468 217.46,-417.37 209.01,-313.69 208.79,-263.49"/>
<polygon fill="black" stroke="black" points="212.29,-263.77 208.87,-253.74 205.29,-263.71 212.29,-263.77"/>
</g>
<!-- gnuradio&#45;&gt;gnuradio&#45;satellites -->
<g id="edge21" class="edge">
<title>gnuradio&#45;&gt;gnuradio&#45;satellites</title>
<path fill="none" stroke="black" d="M1029.34,-435.5C1055.91,-425.17 1092.98,-410.76 1123.02,-399.07"/>
<polygon fill="black" stroke="black" points="1124.27,-402.34 1132.33,-395.45 1121.74,-395.82 1124.27,-402.34"/>
</g>
<!-- gnuradio&#45;&gt;gnuradio&#45;funcube -->
<g id="edge22" class="edge">
<title>gnuradio&#45;&gt;gnuradio&#45;funcube</title>
<path fill="none" stroke="black" d="M984.47,-432.05C979.79,-424.26 974.13,-414.82 968.88,-406.08"/>
<polygon fill="black" stroke="black" points="971.93,-404.35 963.78,-397.57 965.93,-407.95 971.93,-404.35"/>
</g>
<!-- heyoka&#45;&gt;cascade -->
<g id="edge23" class="edge">
<title>heyoka&#45;&gt;cascade</title>
<path fill="none" stroke="black" d="M610.54,-433.3C600.84,-423.65 589.84,-410.4 584.64,-396 579.2,-380.95 578.12,-374.61 584.64,-360 590.06,-347.84 599.8,-337.31 609.83,-328.91"/>
<polygon fill="black" stroke="black" points="611.66,-331.91 617.41,-323.01 607.37,-326.38 611.66,-331.91"/>
</g>
<!-- heyoka.py -->
<g id="node22" class="node">
<title>heyoka.py</title>
<g id="a_node22"><a xlink:href="https://github.com/conda-forge/heyoka.py-feedstock" xlink:title="heyoka py">
<ellipse fill="#fde725" stroke="black" cx="655.64" cy="-378" rx="61.73" ry="18"/>
<text text-anchor="middle" x="655.64" y="-373.32" font-family="Times,serif" font-size="14.00">heyoka py</text>
</a>
</g>
</g>
<!-- heyoka&#45;&gt;heyoka.py -->
<g id="edge24" class="edge">
<title>heyoka&#45;&gt;heyoka.py</title>
<path fill="none" stroke="black" d="M635.31,-431.7C638.22,-424.15 641.71,-415.12 644.96,-406.68"/>
<polygon fill="black" stroke="black" points="648.16,-408.11 648.5,-397.52 641.63,-405.59 648.16,-408.11"/>
</g>
<!-- heyoka.py&#45;&gt;cascade -->
<g id="edge30" class="edge">
<title>heyoka.py&#45;&gt;cascade</title>
<path fill="none" stroke="black" d="M652.67,-359.7C651.41,-352.32 649.9,-343.52 648.48,-335.25"/>
<polygon fill="black" stroke="black" points="651.96,-334.86 646.83,-325.6 645.07,-336.04 651.96,-334.86"/>
</g>
<!-- openimageio -->
<g id="node23" class="node">
<title>openimageio</title>
<g id="a_node23"><a xlink:href="https://github.com/conda-forge/openimageio-feedstock/pull/107" xlink:title="openimageio ❎">
<ellipse fill="#31688e" stroke="black" cx="1660.64" cy="-666" rx="90.14" ry="18"/>
<text text-anchor="middle" x="1660.64" y="-661.33" font-family="Times,serif" font-size="14.00" fill="white">openimageio ❎</text>
</a>
</g>
</g>
<!-- log4cxx -->
<g id="node24" class="node">
<title>log4cxx</title>
<g id="a_node24"><a xlink:href="https://github.com/conda-forge/log4cxx-feedstock/pull/25" xlink:title="log4cxx ❎">
<ellipse fill="#31688e" stroke="black" cx="1660.64" cy="-594" rx="64.89" ry="18"/>
<text text-anchor="middle" x="1660.64" y="-589.33" font-family="Times,serif" font-size="14.00" fill="white">log4cxx ❎</text>
</a>
</g>
</g>
<!-- openimageio&#45;&gt;log4cxx -->
<!-- obake -->
<g id="node25" class="node">
<title>obake</title>
<g id="a_node25"><a xlink:href="https://github.com/conda-forge/obake-feedstock/pull/47" xlink:title="obake ❎">
<ellipse fill="#31688e" stroke="black" cx="1660.64" cy="-522" rx="55.94" ry="18"/>
<text text-anchor="middle" x="1660.64" y="-517.33" font-family="Times,serif" font-size="14.00" fill="white">obake ❎</text>
</a>
</g>
</g>
<!-- log4cxx&#45;&gt;obake -->
<!-- lue -->
<g id="node26" class="node">
<title>lue</title>
<g id="a_node26"><a xlink:href="https://github.com/conda-forge/lue-feedstock" xlink:title="lue">
<ellipse fill="#000000" stroke="black" cx="1660.64" cy="-450" rx="27" ry="18"/>
<text text-anchor="middle" x="1660.64" y="-445.32" font-family="Times,serif" font-size="14.00" fill="white">lue</text>
</a>
</g>
</g>
<!-- obake&#45;&gt;lue -->
<!-- cantera -->
<g id="node27" class="node">
<title>cantera</title>
<g id="a_node27"><a xlink:href="https://github.com/conda-forge/cantera-feedstock/pull/40" xlink:title="cantera ❎">
<ellipse fill="#31688e" stroke="black" cx="1660.64" cy="-378" rx="64.36" ry="18"/>
<text text-anchor="middle" x="1660.64" y="-373.32" font-family="Times,serif" font-size="14.00" fill="white">cantera ❎</text>
</a>
</g>
</g>
<!-- lue&#45;&gt;cantera -->
<!-- ecole -->
<g id="node28" class="node">
<title>ecole</title>
<g id="a_node28"><a xlink:href="https://github.com/conda-forge/ecole-feedstock/pull/42" xlink:title="ecole ❎">
<ellipse fill="#31688e" stroke="black" cx="1660.64" cy="-306" rx="52.26" ry="18"/>
<text text-anchor="middle" x="1660.64" y="-301.32" font-family="Times,serif" font-size="14.00" fill="white">ecole ❎</text>
</a>
</g>
</g>
<!-- cantera&#45;&gt;ecole -->
<!-- heavydb&#45;ext -->
<g id="node29" class="node">
<title>heavydb&#45;ext</title>
<g id="a_node29"><a xlink:href="https://github.com/conda-forge/heavydb-ext-feedstock/pull/75" xlink:title="heavydb ext ❎">
<ellipse fill="#31688e" stroke="black" cx="1660.64" cy="-234" rx="87.51" ry="18"/>
<text text-anchor="middle" x="1660.64" y="-229.32" font-family="Times,serif" font-size="14.00" fill="white">heavydb ext ❎</text>
</a>
</g>
</g>
<!-- ecole&#45;&gt;heavydb&#45;ext -->
<!-- samurai -->
<g id="node34" class="node">
<title>samurai</title>
<g id="a_node34"><a xlink:href="https://github.com/conda-forge/samurai-feedstock/pull/22" xlink:title="samurai ✓">
<ellipse fill="#31688e" stroke="black" cx="1660.64" cy="-162" rx="59.63" ry="18"/>
<text text-anchor="middle" x="1660.64" y="-157.32" font-family="Times,serif" font-size="14.00" fill="white">samurai ✓</text>
</a>
</g>
</g>
<!-- heavydb&#45;ext&#45;&gt;samurai -->
<!-- folly -->
<g id="node30" class="node">
<title>folly</title>
<g id="a_node30"><a xlink:href="https://github.com/conda-forge/folly-feedstock/pull/208" xlink:title="folly ❎">
<ellipse fill="#31688e" stroke="black" cx="79.64" cy="-522" rx="48.05" ry="18"/>
<text text-anchor="middle" x="79.64" y="-517.33" font-family="Times,serif" font-size="14.00" fill="white">folly ❎</text>
</a>
</g>
</g>
<!-- folly&#45;&gt;arcticdb -->
<g id="edge32" class="edge">
<title>folly&#45;&gt;arcticdb</title>
<path fill="none" stroke="black" d="M91.49,-504.41C97.32,-496.25 104.48,-486.22 111.02,-477.07"/>
<polygon fill="black" stroke="black" points="113.68,-479.36 116.65,-469.19 107.99,-475.29 113.68,-479.36"/>
</g>
<!-- hdk -->
<g id="node31" class="node">
<title>hdk</title>
<g id="a_node31"><a xlink:href="https://github.com/conda-forge/hdk-feedstock" xlink:title="hdk">
<ellipse fill="#fde725" stroke="black" cx="29.64" cy="-450" rx="29.64" ry="18"/>
<text text-anchor="middle" x="29.64" y="-445.32" font-family="Times,serif" font-size="14.00">hdk</text>
</a>
</g>
</g>
<!-- folly&#45;&gt;hdk -->
<g id="edge33" class="edge">
<title>folly&#45;&gt;hdk</title>
<path fill="none" stroke="black" d="M67.79,-504.41C61.79,-496.01 54.37,-485.63 47.68,-476.26"/>
<polygon fill="black" stroke="black" points="50.6,-474.32 41.94,-468.22 44.9,-478.39 50.6,-474.32"/>
</g>
<!-- intervalxt -->
<g id="node32" class="node">
<title>intervalxt</title>
<g id="a_node32"><a xlink:href="https://github.com/conda-forge/intervalxt-feedstock/pull/21" xlink:title="intervalxt ❎">
<ellipse fill="#31688e" stroke="black" cx="1834.64" cy="-378" rx="75.41" ry="18"/>
<text text-anchor="middle" x="1834.64" y="-373.32" font-family="Times,serif" font-size="14.00" fill="white">intervalxt ❎</text>
</a>
</g>
</g>
<!-- flatsurf -->
<g id="node33" class="node">
<title>flatsurf</title>
<g id="a_node33"><a xlink:href="https://github.com/conda-forge/flatsurf-feedstock" xlink:title="flatsurf">
<ellipse fill="#fde725" stroke="black" cx="1834.64" cy="-306" rx="47.53" ry="18"/>
<text text-anchor="middle" x="1834.64" y="-301.32" font-family="Times,serif" font-size="14.00">flatsurf</text>
</a>
</g>
</g>
<!-- intervalxt&#45;&gt;flatsurf -->
<g id="edge34" class="edge">
<title>intervalxt&#45;&gt;flatsurf</title>
<path fill="none" stroke="black" d="M1834.64,-359.7C1834.64,-352.41 1834.64,-343.73 1834.64,-335.54"/>
<polygon fill="black" stroke="black" points="1838.14,-335.62 1834.64,-325.62 1831.14,-335.62 1838.14,-335.62"/>
</g>
<!-- genomekit -->
<g id="node35" class="node">
<title>genomekit</title>
<g id="a_node35"><a xlink:href="https://github.com/conda-forge/genomekit-feedstock/pull/16" xlink:title="genomekit ❎">
<ellipse fill="#31688e" stroke="black" cx="1660.64" cy="-90" rx="79.09" ry="18"/>
<text text-anchor="middle" x="1660.64" y="-85.33" font-family="Times,serif" font-size="14.00" fill="white">genomekit ❎</text>
</a>
</g>
</g>
<!-- samurai&#45;&gt;genomekit -->
<!-- mesonlsp -->
<g id="node36" class="node">
<title>mesonlsp</title>
<g id="a_node36"><a xlink:href="https://github.com/conda-forge/mesonlsp-feedstock" xlink:title="mesonlsp">
<ellipse fill="#35b779" stroke="black" cx="1660.64" cy="-18" rx="58.57" ry="18"/>
<text text-anchor="middle" x="1660.64" y="-13.32" font-family="Times,serif" font-size="14.00">mesonlsp</text>
</a>
</g>
</g>
<!-- genomekit&#45;&gt;mesonlsp -->
</g>
</svg>
