<?xml version="1.0" encoding="UTF-8" standalone="no"?>
<!DOCTYPE svg PUBLIC "-//W3C//DTD SVG 1.1//EN"
 "http://www.w3.org/Graphics/SVG/1.1/DTD/svg11.dtd">
<!-- Generated by graphviz version 11.0.0 (20240519.1550)
 -->
<!-- Pages: 1 -->
<svg width="1864pt" height="808pt"
 viewBox="0.00 0.00 1863.51 808.00" xmlns="http://www.w3.org/2000/svg" xmlns:xlink="http://www.w3.org/1999/xlink">
<g id="graph0" class="graph" transform="scale(1 1) rotate(0) translate(4 804)">
<polygon fill="white" stroke="none" points="-4,4 -4,-804 1859.51,-804 1859.51,4 -4,4"/>
<!-- implicit -->
<g id="node1" class="node">
<title>implicit</title>
<g id="a_node1"><a xlink:href="https://github.com/conda-forge/implicit-feedstock" xlink:title="implicit">
<ellipse fill="#fde725" stroke="black" cx="49.1" cy="-530" rx="49.1" ry="18"/>
<text text-anchor="middle" x="49.1" y="-525.33" font-family="Times,serif" font-size="14.00">implicit</text>
</a>
</g>
</g>
<!-- spdlog -->
<g id="node2" class="node">
<title>spdlog</title>
<g id="a_node2"><a xlink:href="https://github.com/conda-forge/spdlog-feedstock/pull/64" xlink:title="spdlog ❎">
<ellipse fill="#31688e" stroke="black" cx="835.1" cy="-602" rx="59.63" ry="18"/>
<text text-anchor="middle" x="835.1" y="-597.33" font-family="Times,serif" font-size="14.00" fill="white">spdlog ❎</text>
</a>
</g>
</g>
<!-- spdlog&#45;&gt;implicit -->
<g id="edge1" class="edge">
<title>spdlog&#45;&gt;implicit</title>
<path fill="none" stroke="black" d="M775.6,-600.46C651.41,-598.49 355.92,-589.44 112.1,-548 107.2,-547.17 102.12,-546.12 97.07,-544.95"/>
<polygon fill="black" stroke="black" points="98.17,-541.62 87.62,-542.62 96.49,-548.41 98.17,-541.62"/>
</g>
<!-- tiledb -->
<g id="node3" class="node">
<title>tiledb</title>
<g id="a_node3"><a xlink:href="https://github.com/conda-forge/tiledb-feedstock" xlink:title="tiledb">
<ellipse fill="#fde725" stroke="black" cx="111.1" cy="-458" rx="40.16" ry="18"/>
<text text-anchor="middle" x="111.1" y="-453.32" font-family="Times,serif" font-size="14.00">tiledb</text>
</a>
</g>
</g>
<!-- spdlog&#45;&gt;tiledb -->
<g id="edge2" class="edge">
<title>spdlog&#45;&gt;tiledb</title>
<path fill="none" stroke="black" d="M775.67,-599.37C621.37,-594.72 216.42,-579.62 165.1,-548 142.77,-534.24 128.41,-507.48 120.15,-486.88"/>
<polygon fill="black" stroke="black" points="123.47,-485.77 116.71,-477.61 116.91,-488.2 123.47,-485.77"/>
</g>
<!-- reaktoro -->
<g id="node4" class="node">
<title>reaktoro</title>
<g id="a_node4"><a xlink:href="https://github.com/conda-forge/reaktoro-feedstock" xlink:title="reaktoro">
<ellipse fill="#fde725" stroke="black" cx="135.1" cy="-386" rx="53.84" ry="18"/>
<text text-anchor="middle" x="135.1" y="-381.32" font-family="Times,serif" font-size="14.00">reaktoro</text>
</a>
</g>
</g>
<!-- spdlog&#45;&gt;reaktoro -->
<g id="edge3" class="edge">
<title>spdlog&#45;&gt;reaktoro</title>
<path fill="none" stroke="black" d="M775.52,-599.54C626.9,-595.39 248.47,-581.62 203.1,-548 161.6,-517.24 180.69,-487.39 160.1,-440 156.44,-431.57 152.25,-422.48 148.35,-414.25"/>
<polygon fill="black" stroke="black" points="151.61,-412.94 144.13,-405.43 145.29,-415.96 151.61,-412.94"/>
</g>
<!-- mamba -->
<g id="node5" class="node">
<title>mamba</title>
<g id="a_node5"><a xlink:href="https://github.com/conda-forge/mamba-feedstock" xlink:title="mamba">
<ellipse fill="#fde725" stroke="black" cx="179.1" cy="-314" rx="48.05" ry="18"/>
<text text-anchor="middle" x="179.1" y="-309.32" font-family="Times,serif" font-size="14.00">mamba</text>
</a>
</g>
</g>
<!-- spdlog&#45;&gt;mamba -->
<g id="edge4" class="edge">
<title>spdlog&#45;&gt;mamba</title>
<path fill="none" stroke="black" d="M775.7,-599.58C633.23,-595.63 280.98,-582.46 241.1,-548 178.87,-494.22 221.57,-446.83 198.1,-368 195.64,-359.72 192.61,-350.84 189.71,-342.77"/>
<polygon fill="black" stroke="black" points="193.01,-341.62 186.27,-333.45 186.45,-344.04 193.01,-341.62"/>
</g>
<!-- vowpalwabbit -->
<g id="node6" class="node">
<title>vowpalwabbit</title>
<g id="a_node6"><a xlink:href="https://github.com/conda-forge/vowpalwabbit-feedstock" xlink:title="vowpalwabbit">
<ellipse fill="#fde725" stroke="black" cx="255.1" cy="-242" rx="80.67" ry="18"/>
<text text-anchor="middle" x="255.1" y="-237.32" font-family="Times,serif" font-size="14.00">vowpalwabbit</text>
</a>
</g>
</g>
<!-- spdlog&#45;&gt;vowpalwabbit -->
<g id="edge5" class="edge">
<title>spdlog&#45;&gt;vowpalwabbit</title>
<path fill="none" stroke="black" d="M776.03,-599.03C628.39,-592.49 255.1,-565.45 255.1,-459 255.1,-459 255.1,-459 255.1,-385 255.1,-345.74 255.1,-300.38 255.1,-271.69"/>
<polygon fill="black" stroke="black" points="258.6,-272 255.1,-262 251.6,-272 258.6,-272"/>
</g>
<!-- gnuradio -->
<g id="node7" class="node">
<title>gnuradio</title>
<g id="a_node7"><a xlink:href="https://github.com/conda-forge/gnuradio-feedstock" xlink:title="gnuradio">
<ellipse fill="#fde725" stroke="black" cx="729.1" cy="-530" rx="55.94" ry="18"/>
<text text-anchor="middle" x="729.1" y="-525.33" font-family="Times,serif" font-size="14.00">gnuradio</text>
</a>
</g>
</g>
<!-- spdlog&#45;&gt;gnuradio -->
<g id="edge6" class="edge">
<title>spdlog&#45;&gt;gnuradio</title>
<path fill="none" stroke="black" d="M811.05,-585.12C796.58,-575.56 777.97,-563.27 762.13,-552.81"/>
<polygon fill="black" stroke="black" points="764.23,-550 753.96,-547.41 760.38,-555.85 764.23,-550"/>
</g>
<!-- micromamba -->
<g id="node8" class="node">
<title>micromamba</title>
<g id="a_node8"><a xlink:href="https://github.com/conda-forge/micromamba-feedstock" xlink:title="micromamba">
<ellipse fill="#fde725" stroke="black" cx="541.1" cy="-530" rx="76.46" ry="18"/>
<text text-anchor="middle" x="541.1" y="-525.33" font-family="Times,serif" font-size="14.00">micromamba</text>
</a>
</g>
</g>
<!-- spdlog&#45;&gt;micromamba -->
<g id="edge7" class="edge">
<title>spdlog&#45;&gt;micromamba</title>
<path fill="none" stroke="black" d="M789.49,-590.14C739.92,-578.34 660.37,-559.4 604.68,-546.14"/>
<polygon fill="black" stroke="black" points="605.54,-542.75 595,-543.83 603.92,-549.55 605.54,-542.75"/>
</g>
<!-- gnuradio&#45;satellites -->
<g id="node9" class="node">
<title>gnuradio&#45;satellites</title>
<g id="a_node9"><a xlink:href="https://github.com/conda-forge/gnuradio-satellites-feedstock" xlink:title="gnuradio satellites">
<ellipse fill="#fde725" stroke="black" cx="506.1" cy="-458" rx="104.87" ry="18"/>
<text text-anchor="middle" x="506.1" y="-453.32" font-family="Times,serif" font-size="14.00">gnuradio satellites</text>
</a>
</g>
</g>
<!-- spdlog&#45;&gt;gnuradio&#45;satellites -->
<g id="edge8" class="edge">
<title>spdlog&#45;&gt;gnuradio&#45;satellites</title>
<path fill="none" stroke="black" d="M785.1,-591.84C749.62,-583.87 701.79,-570.06 664.1,-548 644.02,-536.25 645.47,-524.89 626.1,-512 606.32,-498.83 582.72,-487.59 561.7,-478.9"/>
<polygon fill="black" stroke="black" points="563.29,-475.76 552.71,-475.28 560.68,-482.26 563.29,-475.76"/>
</g>
<!-- dartsim -->
<g id="node10" class="node">
<title>dartsim</title>
<g id="a_node10"><a xlink:href="https://github.com/conda-forge/dartsim-feedstock" xlink:title="dartsim">
<ellipse fill="#fde725" stroke="black" cx="333.1" cy="-458" rx="50.16" ry="18"/>
<text text-anchor="middle" x="333.1" y="-453.32" font-family="Times,serif" font-size="14.00">dartsim</text>
</a>
</g>
</g>
<!-- spdlog&#45;&gt;dartsim -->
<g id="edge9" class="edge">
<title>spdlog&#45;&gt;dartsim</title>
<path fill="none" stroke="black" d="M775.04,-601.43C698.33,-600.03 562.73,-590.92 456.1,-548 418.38,-532.82 381.45,-503.61 358.06,-482.79"/>
<polygon fill="black" stroke="black" points="360.66,-480.43 350.9,-476.29 355.95,-485.61 360.66,-480.43"/>
</g>
<!-- heyoka -->
<g id="node11" class="node">
<title>heyoka</title>
<g id="a_node11"><a xlink:href="https://github.com/conda-forge/heyoka-feedstock" xlink:title="heyoka">
<ellipse fill="#fde725" stroke="black" cx="937.1" cy="-530" rx="46.47" ry="18"/>
<text text-anchor="middle" x="937.1" y="-525.33" font-family="Times,serif" font-size="14.00">heyoka</text>
</a>
</g>
</g>
<!-- spdlog&#45;&gt;heyoka -->
<g id="edge10" class="edge">
<title>spdlog&#45;&gt;heyoka</title>
<path fill="none" stroke="black" d="M858.25,-585.12C872.37,-575.43 890.59,-562.92 905.96,-552.37"/>
<polygon fill="black" stroke="black" points="907.59,-555.5 913.85,-546.96 903.63,-549.73 907.59,-555.5"/>
</g>
<!-- librmm -->
<g id="node12" class="node">
<title>librmm</title>
<g id="a_node12"><a xlink:href="https://github.com/conda-forge/librmm-feedstock" xlink:title="librmm">
<ellipse fill="#fde725" stroke="black" cx="1045.1" cy="-386" rx="47.53" ry="18"/>
<text text-anchor="middle" x="1045.1" y="-381.32" font-family="Times,serif" font-size="14.00">librmm</text>
</a>
</g>
</g>
<!-- spdlog&#45;&gt;librmm -->
<g id="edge11" class="edge">
<title>spdlog&#45;&gt;librmm</title>
<path fill="none" stroke="black" d="M887.91,-593.17C920.86,-586.04 962.49,-572.68 992.1,-548 1031.51,-515.17 1041.83,-452.41 1044.4,-415.7"/>
<polygon fill="black" stroke="black" points="1047.88,-416.01 1044.92,-405.84 1040.89,-415.64 1047.88,-416.01"/>
</g>
<!-- libhdbpp&#45;timescale -->
<g id="node13" class="node">
<title>libhdbpp&#45;timescale</title>
<g id="a_node13"><a xlink:href="https://github.com/conda-forge/libhdbpp-timescale-feedstock" xlink:title="libhdbpp timescale">
<ellipse fill="#fde725" stroke="black" cx="1025.1" cy="-314" rx="106.45" ry="18"/>
<text text-anchor="middle" x="1025.1" y="-309.32" font-family="Times,serif" font-size="14.00">libhdbpp timescale</text>
</a>
</g>
</g>
<!-- spdlog&#45;&gt;libhdbpp&#45;timescale -->
<g id="edge12" class="edge">
<title>spdlog&#45;&gt;libhdbpp&#45;timescale</title>
<path fill="none" stroke="black" d="M893.54,-597.82C964,-592.62 1076.24,-579.5 1102.1,-548 1152.87,-486.17 1139.33,-438.81 1102.1,-368 1095.43,-355.31 1084.19,-345.06 1072.33,-337.08"/>
<polygon fill="black" stroke="black" points="1074.39,-334.25 1064.04,-331.97 1070.71,-340.2 1074.39,-334.25"/>
</g>
<!-- bipedal&#45;locomotion&#45;framework -->
<g id="node14" class="node">
<title>bipedal&#45;locomotion&#45;framework</title>
<g id="a_node14"><a xlink:href="https://github.com/conda-forge/bipedal-locomotion-framework-feedstock" xlink:title="bipedal locomotion framework">
<ellipse fill="#fde725" stroke="black" cx="1159.1" cy="-242" rx="163.27" ry="18"/>
<text text-anchor="middle" x="1159.1" y="-237.32" font-family="Times,serif" font-size="14.00">bipedal locomotion framework</text>
</a>
</g>
</g>
<!-- spdlog&#45;&gt;bipedal&#45;locomotion&#45;framework -->
<g id="edge13" class="edge">
<title>spdlog&#45;&gt;bipedal&#45;locomotion&#45;framework</title>
<path fill="none" stroke="black" d="M893.01,-597.27C967.82,-591.32 1092.55,-577.26 1127.1,-548 1159.18,-520.84 1159.1,-501.03 1159.1,-459 1159.1,-459 1159.1,-459 1159.1,-385 1159.1,-345.74 1159.1,-300.38 1159.1,-271.69"/>
<polygon fill="black" stroke="black" points="1162.6,-272 1159.1,-262 1155.6,-272 1162.6,-272"/>
</g>
<!-- tip -->
<g id="node15" class="node">
<title>tip</title>
<g id="a_node15"><a xlink:href="https://github.com/conda-forge/tip-feedstock" xlink:title="tip">
<ellipse fill="#fde725" stroke="black" cx="1066.1" cy="-530" rx="27" ry="18"/>
<text text-anchor="middle" x="1066.1" y="-525.33" font-family="Times,serif" font-size="14.00">tip</text>
</a>
</g>
</g>
<!-- spdlog&#45;&gt;tip -->
<g id="edge14" class="edge">
<title>spdlog&#45;&gt;tip</title>
<path fill="none" stroke="black" d="M880.49,-589.99C919.28,-580.19 976.39,-564.83 1025.1,-548 1027.84,-547.05 1030.66,-546.02 1033.48,-544.94"/>
<polygon fill="black" stroke="black" points="1034.77,-548.19 1042.76,-541.23 1032.17,-541.69 1034.77,-548.19"/>
</g>
<!-- cascade -->
<g id="node16" class="node">
<title>cascade</title>
<g id="a_node16"><a xlink:href="https://github.com/conda-forge/cascade-feedstock" xlink:title="cascade">
<ellipse fill="#fde725" stroke="black" cx="929.1" cy="-386" rx="50.68" ry="18"/>
<text text-anchor="middle" x="929.1" y="-381.32" font-family="Times,serif" font-size="14.00">cascade</text>
</a>
</g>
</g>
<!-- spdlog&#45;&gt;cascade -->
<g id="edge15" class="edge">
<title>spdlog&#45;&gt;cascade</title>
<path fill="none" stroke="black" d="M836.12,-583.87C838.6,-553.13 846.92,-487.4 874.1,-440 880.45,-428.93 889.8,-418.69 899,-410.23"/>
<polygon fill="black" stroke="black" points="901.28,-412.88 906.52,-403.68 896.68,-407.6 901.28,-412.88"/>
</g>
<!-- arcticdb -->
<g id="node17" class="node">
<title>arcticdb</title>
<g id="a_node17"><a xlink:href="https://github.com/conda-forge/arcticdb-feedstock" xlink:title="arcticdb">
<ellipse fill="#fde725" stroke="black" cx="1239.1" cy="-458" rx="52.26" ry="18"/>
<text text-anchor="middle" x="1239.1" y="-453.32" font-family="Times,serif" font-size="14.00">arcticdb</text>
</a>
</g>
</g>
<!-- spdlog&#45;&gt;arcticdb -->
<g id="edge16" class="edge">
<title>spdlog&#45;&gt;arcticdb</title>
<path fill="none" stroke="black" d="M892.95,-597.21C976.78,-590.84 1127.05,-575.87 1173.1,-548 1197.07,-533.5 1215.13,-506.7 1226.24,-486.28"/>
<polygon fill="black" stroke="black" points="1229.23,-488.12 1230.72,-477.63 1223.01,-484.9 1229.23,-488.12"/>
</g>
<!-- gnuradio&#45;funcube -->
<g id="node18" class="node">
<title>gnuradio&#45;funcube</title>
<g id="a_node18"><a xlink:href="https://github.com/conda-forge/gnuradio-funcube-feedstock" xlink:title="gnuradio funcube">
<ellipse fill="#fde725" stroke="black" cx="728.1" cy="-458" rx="99.08" ry="18"/>
<text text-anchor="middle" x="728.1" y="-453.32" font-family="Times,serif" font-size="14.00">gnuradio funcube</text>
</a>
</g>
</g>
<!-- spdlog&#45;&gt;gnuradio&#45;funcube -->
<g id="edge17" class="edge">
<title>spdlog&#45;&gt;gnuradio&#45;funcube</title>
<path fill="none" stroke="black" d="M829.79,-583.64C823.42,-564.7 811.38,-534.12 794.1,-512 785.48,-500.96 774.13,-490.79 763.28,-482.38"/>
<polygon fill="black" stroke="black" points="765.68,-479.81 755.57,-476.65 761.51,-485.42 765.68,-479.81"/>
</g>
<!-- bmf -->
<g id="node19" class="node">
<title>bmf</title>
<g id="a_node19"><a xlink:href="https://github.com/conda-forge/bmf-feedstock" xlink:title="bmf">
<ellipse fill="#fde725" stroke="black" cx="1308.1" cy="-386" rx="30.69" ry="18"/>
<text text-anchor="middle" x="1308.1" y="-381.32" font-family="Times,serif" font-size="14.00">bmf</text>
</a>
</g>
</g>
<!-- spdlog&#45;&gt;bmf -->
<g id="edge18" class="edge">
<title>spdlog&#45;&gt;bmf</title>
<path fill="none" stroke="black" d="M895.2,-601.51C970.49,-600.14 1102.1,-590.99 1205.1,-548 1253.99,-527.59 1274.43,-522.34 1300.1,-476 1310.23,-457.72 1311.92,-434.04 1311.24,-415.69"/>
<polygon fill="black" stroke="black" points="1314.73,-415.52 1310.59,-405.77 1307.75,-415.97 1314.73,-415.52"/>
</g>
<!-- spiceql -->
<g id="node20" class="node">
<title>spiceql</title>
<g id="a_node20"><a xlink:href="https://github.com/conda-forge/spiceql-feedstock" xlink:title="spiceql">
<ellipse fill="#fde725" stroke="black" cx="1367.1" cy="-314" rx="46.47" ry="18"/>
<text text-anchor="middle" x="1367.1" y="-309.32" font-family="Times,serif" font-size="14.00">spiceql</text>
</a>
</g>
</g>
<!-- spdlog&#45;&gt;spiceql -->
<g id="edge19" class="edge">
<title>spdlog&#45;&gt;spiceql</title>
<path fill="none" stroke="black" d="M894.02,-598.44C993.74,-593.29 1190.9,-579.39 1252.1,-548 1329.37,-508.37 1355.46,-396.59 1363.65,-343.58"/>
<polygon fill="black" stroke="black" points="1367.09,-344.21 1365.04,-333.82 1360.16,-343.23 1367.09,-344.21"/>
</g>
<!-- momentum -->
<g id="node21" class="node">
<title>momentum</title>
<g id="a_node21"><a xlink:href="https://github.com/conda-forge/momentum-feedstock" xlink:title="momentum">
<ellipse fill="#fde725" stroke="black" cx="1441.1" cy="-242" rx="68.04" ry="18"/>
<text text-anchor="middle" x="1441.1" y="-237.32" font-family="Times,serif" font-size="14.00">momentum</text>
</a>
</g>
</g>
<!-- spdlog&#45;&gt;momentum -->
<g id="edge20" class="edge">
<title>spdlog&#45;&gt;momentum</title>
<path fill="none" stroke="black" d="M894.59,-599.63C1047.28,-594.51 1441.1,-570.5 1441.1,-459 1441.1,-459 1441.1,-459 1441.1,-385 1441.1,-345.74 1441.1,-300.38 1441.1,-271.69"/>
<polygon fill="black" stroke="black" points="1444.6,-272 1441.1,-262 1437.6,-272 1444.6,-272"/>
</g>
<!-- gnuradio&#45;&gt;gnuradio&#45;satellites -->
<g id="edge21" class="edge">
<title>gnuradio&#45;&gt;gnuradio&#45;satellites</title>
<path fill="none" stroke="black" d="M690.01,-516.73C655.64,-505.94 605.1,-490.08 565.7,-477.71"/>
<polygon fill="black" stroke="black" points="566.94,-474.43 556.35,-474.77 564.84,-481.11 566.94,-474.43"/>
</g>
<!-- gnuradio&#45;&gt;gnuradio&#45;funcube -->
<g id="edge22" class="edge">
<title>gnuradio&#45;&gt;gnuradio&#45;funcube</title>
<path fill="none" stroke="black" d="M728.86,-511.7C728.75,-504.41 728.63,-495.73 728.51,-487.54"/>
<polygon fill="black" stroke="black" points="732.01,-487.57 728.37,-477.62 725.01,-487.67 732.01,-487.57"/>
</g>
<!-- heyoka&#45;&gt;cascade -->
<g id="edge23" class="edge">
<title>heyoka&#45;&gt;cascade</title>
<path fill="none" stroke="black" d="M969.14,-516.49C986.41,-507.9 1006.16,-494.65 1016.1,-476 1023.63,-461.88 1023.94,-453.95 1016.1,-440 1007.15,-424.06 991.25,-412.35 975.46,-404.06"/>
<polygon fill="black" stroke="black" points="977.07,-400.95 966.54,-399.75 974.02,-407.25 977.07,-400.95"/>
</g>
<!-- heyoka.py -->
<g id="node22" class="node">
<title>heyoka.py</title>
<g id="a_node22"><a xlink:href="https://github.com/conda-forge/heyoka.py-feedstock" xlink:title="heyoka py">
<ellipse fill="#fde725" stroke="black" cx="945.1" cy="-458" rx="61.73" ry="18"/>
<text text-anchor="middle" x="945.1" y="-453.32" font-family="Times,serif" font-size="14.00">heyoka py</text>
</a>
</g>
</g>
<!-- heyoka&#45;&gt;heyoka.py -->
<g id="edge24" class="edge">
<title>heyoka&#45;&gt;heyoka.py</title>
<path fill="none" stroke="black" d="M939.08,-511.7C939.91,-504.41 940.91,-495.73 941.84,-487.54"/>
<polygon fill="black" stroke="black" points="945.32,-487.94 942.98,-477.61 938.36,-487.15 945.32,-487.94"/>
</g>
<!-- heyoka.py&#45;&gt;cascade -->
<g id="edge31" class="edge">
<title>heyoka.py&#45;&gt;cascade</title>
<path fill="none" stroke="black" d="M941.15,-439.7C939.46,-432.32 937.45,-423.52 935.56,-415.25"/>
<polygon fill="black" stroke="black" points="938.99,-414.55 933.35,-405.58 932.17,-416.11 938.99,-414.55"/>
</g>
<!-- openimageio -->
<g id="node23" class="node">
<title>openimageio</title>
<g id="a_node23"><a xlink:href="https://github.com/conda-forge/openimageio-feedstock/pull/107" xlink:title="openimageio ❎">
<ellipse fill="#31688e" stroke="black" cx="1607.1" cy="-782" rx="90.14" ry="18"/>
<text text-anchor="middle" x="1607.1" y="-777.33" font-family="Times,serif" font-size="14.00" fill="white">openimageio ❎</text>
</a>
</g>
</g>
<!-- log4cxx -->
<g id="node24" class="node">
<title>log4cxx</title>
<g id="a_node24"><a xlink:href="https://github.com/conda-forge/log4cxx-feedstock/pull/25" xlink:title="log4cxx ❎">
<ellipse fill="#31688e" stroke="black" cx="1607.1" cy="-710" rx="64.89" ry="18"/>
<text text-anchor="middle" x="1607.1" y="-705.33" font-family="Times,serif" font-size="14.00" fill="white">log4cxx ❎</text>
</a>
</g>
</g>
<!-- openimageio&#45;&gt;log4cxx -->
<!-- topologytoolkit -->
<g id="node25" class="node">
<title>topologytoolkit</title>
<g id="a_node25"><a xlink:href="https://github.com/conda-forge/topologytoolkit-feedstock" xlink:title="topologytoolkit">
<ellipse fill="#ff8c00" stroke="black" cx="1607.1" cy="-638" rx="86.46" ry="18"/>
<text text-anchor="middle" x="1607.1" y="-633.33" font-family="Times,serif" font-size="14.00">topologytoolkit</text>
</a>
</g>
</g>
<!-- log4cxx&#45;&gt;topologytoolkit -->
<!-- obake -->
<g id="node26" class="node">
<title>obake</title>
<g id="a_node26"><a xlink:href="https://github.com/conda-forge/obake-feedstock/pull/47" xlink:title="obake ❎">
<ellipse fill="#31688e" stroke="black" cx="1607.1" cy="-566" rx="55.94" ry="18"/>
<text text-anchor="middle" x="1607.1" y="-561.33" font-family="Times,serif" font-size="14.00" fill="white">obake ❎</text>
</a>
</g>
</g>
<!-- topologytoolkit&#45;&gt;obake -->
<!-- lue -->
<g id="node27" class="node">
<title>lue</title>
<g id="a_node27"><a xlink:href="https://github.com/conda-forge/lue-feedstock" xlink:title="lue">
<ellipse fill="#000000" stroke="black" cx="1607.1" cy="-494" rx="27" ry="18"/>
<text text-anchor="middle" x="1607.1" y="-489.32" font-family="Times,serif" font-size="14.00" fill="white">lue</text>
</a>
</g>
</g>
<!-- obake&#45;&gt;lue -->
<!-- cantera -->
<g id="node28" class="node">
<title>cantera</title>
<g id="a_node28"><a xlink:href="https://github.com/conda-forge/cantera-feedstock/pull/40" xlink:title="cantera ❎">
<ellipse fill="#31688e" stroke="black" cx="1607.1" cy="-422" rx="64.36" ry="18"/>
<text text-anchor="middle" x="1607.1" y="-417.32" font-family="Times,serif" font-size="14.00" fill="white">cantera ❎</text>
</a>
</g>
</g>
<!-- lue&#45;&gt;cantera -->
<!-- ecole -->
<g id="node29" class="node">
<title>ecole</title>
<g id="a_node29"><a xlink:href="https://github.com/conda-forge/ecole-feedstock" xlink:title="ecole">
<ellipse fill="#ff8c00" stroke="black" cx="1607.1" cy="-350" rx="37" ry="18"/>
<text text-anchor="middle" x="1607.1" y="-345.32" font-family="Times,serif" font-size="14.00">ecole</text>
</a>
</g>
</g>
<!-- cantera&#45;&gt;ecole -->
<!-- heavydb&#45;ext -->
<g id="node30" class="node">
<title>heavydb&#45;ext</title>
<g id="a_node30"><a xlink:href="https://github.com/conda-forge/heavydb-ext-feedstock/pull/75" xlink:title="heavydb ext ❎">
<ellipse fill="#31688e" stroke="black" cx="1607.1" cy="-278" rx="87.51" ry="18"/>
<text text-anchor="middle" x="1607.1" y="-273.32" font-family="Times,serif" font-size="14.00" fill="white">heavydb ext ❎</text>
</a>
</g>
</g>
<!-- ecole&#45;&gt;heavydb&#45;ext -->
<!-- hdk -->
<g id="node33" class="node">
<title>hdk</title>
<g id="a_node33"><a xlink:href="https://github.com/conda-forge/hdk-feedstock" xlink:title="hdk">
<ellipse fill="#35b779" stroke="black" cx="1607.1" cy="-206" rx="29.64" ry="18"/>
<text text-anchor="middle" x="1607.1" y="-201.32" font-family="Times,serif" font-size="14.00">hdk</text>
</a>
</g>
</g>
<!-- heavydb&#45;ext&#45;&gt;hdk -->
<!-- intervalxt -->
<g id="node31" class="node">
<title>intervalxt</title>
<g id="a_node31"><a xlink:href="https://github.com/conda-forge/intervalxt-feedstock/pull/21" xlink:title="intervalxt ❎">
<ellipse fill="#31688e" stroke="black" cx="1780.1" cy="-458" rx="75.41" ry="18"/>
<text text-anchor="middle" x="1780.1" y="-453.32" font-family="Times,serif" font-size="14.00" fill="white">intervalxt ❎</text>
</a>
</g>
</g>
<!-- flatsurf -->
<g id="node32" class="node">
<title>flatsurf</title>
<g id="a_node32"><a xlink:href="https://github.com/conda-forge/flatsurf-feedstock" xlink:title="flatsurf">
<ellipse fill="#fde725" stroke="black" cx="1780.1" cy="-386" rx="47.53" ry="18"/>
<text text-anchor="middle" x="1780.1" y="-381.32" font-family="Times,serif" font-size="14.00">flatsurf</text>
</a>
</g>
</g>
<!-- intervalxt&#45;&gt;flatsurf -->
<g id="edge33" class="edge">
<title>intervalxt&#45;&gt;flatsurf</title>
<path fill="none" stroke="black" d="M1780.1,-439.7C1780.1,-432.41 1780.1,-423.73 1780.1,-415.54"/>
<polygon fill="black" stroke="black" points="1783.6,-415.62 1780.1,-405.62 1776.6,-415.62 1783.6,-415.62"/>
</g>
<!-- samurai -->
<g id="node34" class="node">
<title>samurai</title>
<g id="a_node34"><a xlink:href="https://github.com/conda-forge/samurai-feedstock/pull/22" xlink:title="samurai ✓">
<ellipse fill="#31688e" stroke="black" cx="1607.1" cy="-134" rx="59.63" ry="18"/>
<text text-anchor="middle" x="1607.1" y="-129.32" font-family="Times,serif" font-size="14.00" fill="white">samurai ✓</text>
</a>
</g>
</g>
<!-- hdk&#45;&gt;samurai -->
<!-- aligator -->
<g id="node35" class="node">
<title>aligator</title>
<g id="a_node35"><a xlink:href="https://github.com/conda-forge/aligator-feedstock/pull/23" xlink:title="aligator ❎">
<ellipse fill="#31688e" stroke="black" cx="1607.1" cy="-62" rx="65.41" ry="18"/>
<text text-anchor="middle" x="1607.1" y="-57.33" font-family="Times,serif" font-size="14.00" fill="white">aligator ❎</text>
</a>
</g>
</g>
<!-- samurai&#45;&gt;aligator -->
<!-- genomekit -->
<g id="node36" class="node">
<title>genomekit</title>
<g id="a_node36"><a xlink:href="https://github.com/conda-forge/genomekit-feedstock/pull/16" xlink:title="genomekit ❎">
<ellipse fill="#31688e" stroke="black" cx="754.1" cy="-18" rx="79.09" ry="18"/>
<text text-anchor="middle" x="754.1" y="-13.32" font-family="Times,serif" font-size="14.00" fill="white">genomekit ❎</text>
</a>
</g>
</g>
</g>
</svg>
