<?xml version="1.0" encoding="UTF-8" standalone="no"?>
<!DOCTYPE svg PUBLIC "-//W3C//DTD SVG 1.1//EN"
 "http://www.w3.org/Graphics/SVG/1.1/DTD/svg11.dtd">
<!-- Generated by graphviz version 11.0.0 (20240519.1550)
 -->
<!-- Pages: 1 -->
<svg width="1918pt" height="620pt"
 viewBox="0.00 0.00 1918.05 620.00" xmlns="http://www.w3.org/2000/svg" xmlns:xlink="http://www.w3.org/1999/xlink">
<g id="graph0" class="graph" transform="scale(1 1) rotate(0) translate(4 616)">
<polygon fill="white" stroke="none" points="-4,4 -4,-616 1914.05,-616 1914.05,4 -4,4"/>
<!-- implicit -->
<g id="node1" class="node">
<title>implicit</title>
<g id="a_node1"><a xlink:href="https://github.com/conda-forge/implicit-feedstock" xlink:title="implicit">
<ellipse fill="#fde725" stroke="black" cx="1513.64" cy="-414" rx="49.1" ry="18"/>
<text text-anchor="middle" x="1513.64" y="-409.32" font-family="Times,serif" font-size="14.00">implicit</text>
</a>
</g>
</g>
<!-- spdlog -->
<g id="node2" class="node">
<title>spdlog</title>
<g id="a_node2"><a xlink:href="https://github.com/conda-forge/spdlog-feedstock/pull/64" xlink:title="spdlog ❎">
<ellipse fill="#31688e" stroke="black" cx="665.64" cy="-486" rx="59.63" ry="18"/>
<text text-anchor="middle" x="665.64" y="-481.32" font-family="Times,serif" font-size="14.00" fill="white">spdlog ❎</text>
</a>
</g>
</g>
<!-- spdlog&#45;&gt;implicit -->
<g id="edge1" class="edge">
<title>spdlog&#45;&gt;implicit</title>
<path fill="none" stroke="black" d="M725.18,-484.95C856.9,-483.97 1182.53,-476.78 1450.64,-432 1455.55,-431.18 1460.63,-430.14 1465.67,-428.98"/>
<polygon fill="black" stroke="black" points="1466.25,-432.44 1475.12,-426.65 1464.58,-425.65 1466.25,-432.44"/>
</g>
<!-- tiledb -->
<g id="node3" class="node">
<title>tiledb</title>
<g id="a_node3"><a xlink:href="https://github.com/conda-forge/tiledb-feedstock" xlink:title="tiledb">
<ellipse fill="#fde725" stroke="black" cx="1451.64" cy="-342" rx="40.16" ry="18"/>
<text text-anchor="middle" x="1451.64" y="-337.32" font-family="Times,serif" font-size="14.00">tiledb</text>
</a>
</g>
</g>
<!-- spdlog&#45;&gt;tiledb -->
<g id="edge2" class="edge">
<title>spdlog&#45;&gt;tiledb</title>
<path fill="none" stroke="black" d="M725.15,-483.8C889.43,-480.06 1340.88,-466.71 1397.64,-432 1420.01,-418.32 1434.37,-391.55 1442.62,-370.92"/>
<polygon fill="black" stroke="black" points="1445.86,-372.23 1446.05,-361.64 1439.3,-369.8 1445.86,-372.23"/>
</g>
<!-- reaktoro -->
<g id="node4" class="node">
<title>reaktoro</title>
<g id="a_node4"><a xlink:href="https://github.com/conda-forge/reaktoro-feedstock" xlink:title="reaktoro">
<ellipse fill="#fde725" stroke="black" cx="1427.64" cy="-270" rx="53.84" ry="18"/>
<text text-anchor="middle" x="1427.64" y="-265.32" font-family="Times,serif" font-size="14.00">reaktoro</text>
</a>
</g>
</g>
<!-- spdlog&#45;&gt;reaktoro -->
<g id="edge3" class="edge">
<title>spdlog&#45;&gt;reaktoro</title>
<path fill="none" stroke="black" d="M725.2,-484.02C884.04,-480.91 1309.11,-469.16 1359.64,-432 1401.26,-401.39 1382.05,-371.39 1402.64,-324 1406.3,-315.57 1410.5,-306.48 1414.39,-298.25"/>
<polygon fill="black" stroke="black" points="1417.45,-299.96 1418.61,-289.43 1411.14,-296.94 1417.45,-299.96"/>
</g>
<!-- mamba -->
<g id="node5" class="node">
<title>mamba</title>
<g id="a_node5"><a xlink:href="https://github.com/conda-forge/mamba-feedstock" xlink:title="mamba">
<ellipse fill="#fde725" stroke="black" cx="1383.64" cy="-198" rx="48.05" ry="18"/>
<text text-anchor="middle" x="1383.64" y="-193.32" font-family="Times,serif" font-size="14.00">mamba</text>
</a>
</g>
</g>
<!-- spdlog&#45;&gt;mamba -->
<g id="edge4" class="edge">
<title>spdlog&#45;&gt;mamba</title>
<path fill="none" stroke="black" d="M725.26,-484.12C878.44,-481.3 1276.9,-470.33 1321.64,-432 1384.1,-378.48 1341.17,-330.83 1364.64,-252 1367.1,-243.72 1370.13,-234.84 1373.04,-226.77"/>
<polygon fill="black" stroke="black" points="1376.3,-228.04 1376.47,-217.45 1369.73,-225.62 1376.3,-228.04"/>
</g>
<!-- vowpalwabbit -->
<g id="node6" class="node">
<title>vowpalwabbit</title>
<g id="a_node6"><a xlink:href="https://github.com/conda-forge/vowpalwabbit-feedstock" xlink:title="vowpalwabbit">
<ellipse fill="#fde725" stroke="black" cx="1307.64" cy="-126" rx="80.67" ry="18"/>
<text text-anchor="middle" x="1307.64" y="-121.33" font-family="Times,serif" font-size="14.00">vowpalwabbit</text>
</a>
</g>
</g>
<!-- spdlog&#45;&gt;vowpalwabbit -->
<g id="edge5" class="edge">
<title>spdlog&#45;&gt;vowpalwabbit</title>
<path fill="none" stroke="black" d="M725.46,-484.41C884.84,-481.21 1307.64,-461.58 1307.64,-343 1307.64,-343 1307.64,-343 1307.64,-269 1307.64,-229.74 1307.64,-184.38 1307.64,-155.69"/>
<polygon fill="black" stroke="black" points="1311.14,-156 1307.64,-146 1304.14,-156 1311.14,-156"/>
</g>
<!-- gnuradio -->
<g id="node7" class="node">
<title>gnuradio</title>
<g id="a_node7"><a xlink:href="https://github.com/conda-forge/gnuradio-feedstock" xlink:title="gnuradio">
<ellipse fill="#fde725" stroke="black" cx="994.64" cy="-414" rx="55.94" ry="18"/>
<text text-anchor="middle" x="994.64" y="-409.32" font-family="Times,serif" font-size="14.00">gnuradio</text>
</a>
</g>
</g>
<!-- spdlog&#45;&gt;gnuradio -->
<g id="edge6" class="edge">
<title>spdlog&#45;&gt;gnuradio</title>
<path fill="none" stroke="black" d="M714.92,-475.47C767.11,-465.25 851.85,-448.28 924.64,-432 929.78,-430.85 935.13,-429.62 940.48,-428.36"/>
<polygon fill="black" stroke="black" points="940.99,-431.84 949.91,-426.12 939.37,-425.03 940.99,-431.84"/>
</g>
<!-- micromamba -->
<g id="node8" class="node">
<title>micromamba</title>
<g id="a_node8"><a xlink:href="https://github.com/conda-forge/micromamba-feedstock" xlink:title="micromamba">
<ellipse fill="#fde725" stroke="black" cx="806.64" cy="-414" rx="76.46" ry="18"/>
<text text-anchor="middle" x="806.64" y="-409.32" font-family="Times,serif" font-size="14.00">micromamba</text>
</a>
</g>
</g>
<!-- spdlog&#45;&gt;micromamba -->
<g id="edge7" class="edge">
<title>spdlog&#45;&gt;micromamba</title>
<path fill="none" stroke="black" d="M695.54,-470.15C715.64,-460.18 742.41,-446.88 764.64,-435.85"/>
<polygon fill="black" stroke="black" points="766.06,-439.05 773.46,-431.47 762.95,-432.78 766.06,-439.05"/>
</g>
<!-- gnuradio&#45;satellites -->
<g id="node9" class="node">
<title>gnuradio&#45;satellites</title>
<g id="a_node9"><a xlink:href="https://github.com/conda-forge/gnuradio-satellites-feedstock" xlink:title="gnuradio satellites">
<ellipse fill="#fde725" stroke="black" cx="1174.64" cy="-342" rx="104.87" ry="18"/>
<text text-anchor="middle" x="1174.64" y="-337.32" font-family="Times,serif" font-size="14.00">gnuradio satellites</text>
</a>
</g>
</g>
<!-- spdlog&#45;&gt;gnuradio&#45;satellites -->
<g id="edge8" class="edge">
<title>spdlog&#45;&gt;gnuradio&#45;satellites</title>
<path fill="none" stroke="black" d="M723.1,-480.95C817.31,-473.7 1000.1,-456.9 1059.64,-432 1095,-417.21 1128.87,-388.65 1150.58,-367.86"/>
<polygon fill="black" stroke="black" points="1152.78,-370.6 1157.48,-361.11 1147.88,-365.61 1152.78,-370.6"/>
</g>
<!-- dartsim -->
<g id="node10" class="node">
<title>dartsim</title>
<g id="a_node10"><a xlink:href="https://github.com/conda-forge/dartsim-feedstock" xlink:title="dartsim">
<ellipse fill="#fde725" stroke="black" cx="785.64" cy="-342" rx="50.16" ry="18"/>
<text text-anchor="middle" x="785.64" y="-337.32" font-family="Times,serif" font-size="14.00">dartsim</text>
</a>
</g>
</g>
<!-- spdlog&#45;&gt;dartsim -->
<g id="edge9" class="edge">
<title>spdlog&#45;&gt;dartsim</title>
<path fill="none" stroke="black" d="M674.3,-467.84C684.25,-449.07 701.77,-418.64 721.64,-396 731.38,-384.9 743.56,-374.21 754.67,-365.37"/>
<polygon fill="black" stroke="black" points="756.71,-368.22 762.48,-359.33 752.43,-362.68 756.71,-368.22"/>
</g>
<!-- heyoka -->
<g id="node11" class="node">
<title>heyoka</title>
<g id="a_node11"><a xlink:href="https://github.com/conda-forge/heyoka-feedstock" xlink:title="heyoka">
<ellipse fill="#fde725" stroke="black" cx="628.64" cy="-414" rx="46.47" ry="18"/>
<text text-anchor="middle" x="628.64" y="-409.32" font-family="Times,serif" font-size="14.00">heyoka</text>
</a>
</g>
</g>
<!-- spdlog&#45;&gt;heyoka -->
<g id="edge10" class="edge">
<title>spdlog&#45;&gt;heyoka</title>
<path fill="none" stroke="black" d="M656.68,-468.05C652.5,-460.14 647.42,-450.54 642.74,-441.69"/>
<polygon fill="black" stroke="black" points="645.99,-440.33 638.22,-433.13 639.8,-443.6 645.99,-440.33"/>
</g>
<!-- librmm -->
<g id="node12" class="node">
<title>librmm</title>
<g id="a_node12"><a xlink:href="https://github.com/conda-forge/librmm-feedstock" xlink:title="librmm">
<ellipse fill="#fde725" stroke="black" cx="527.64" cy="-270" rx="47.53" ry="18"/>
<text text-anchor="middle" x="527.64" y="-265.32" font-family="Times,serif" font-size="14.00">librmm</text>
</a>
</g>
</g>
<!-- spdlog&#45;&gt;librmm -->
<g id="edge11" class="edge">
<title>spdlog&#45;&gt;librmm</title>
<path fill="none" stroke="black" d="M624.03,-472.8C602.93,-464.56 578.67,-451.53 563.64,-432 533.8,-393.21 527.75,-334.49 527.03,-299.71"/>
<polygon fill="black" stroke="black" points="530.53,-299.98 526.98,-290 523.53,-300.01 530.53,-299.98"/>
</g>
<!-- libhdbpp&#45;timescale -->
<g id="node13" class="node">
<title>libhdbpp&#45;timescale</title>
<g id="a_node13"><a xlink:href="https://github.com/conda-forge/libhdbpp-timescale-feedstock" xlink:title="libhdbpp timescale">
<ellipse fill="#fde725" stroke="black" cx="547.64" cy="-198" rx="106.45" ry="18"/>
<text text-anchor="middle" x="547.64" y="-193.32" font-family="Times,serif" font-size="14.00">libhdbpp timescale</text>
</a>
</g>
</g>
<!-- spdlog&#45;&gt;libhdbpp&#45;timescale -->
<g id="edge12" class="edge">
<title>spdlog&#45;&gt;libhdbpp&#45;timescale</title>
<path fill="none" stroke="black" d="M619.85,-474.18C594.01,-466.13 562.6,-452.86 540.64,-432 489.04,-382.99 486.6,-357.35 470.64,-288 467.05,-272.41 463.19,-266.16 470.64,-252 477.31,-239.31 488.55,-229.06 500.41,-221.08"/>
<polygon fill="black" stroke="black" points="502.03,-224.2 508.7,-215.97 498.35,-218.25 502.03,-224.2"/>
</g>
<!-- bipedal&#45;locomotion&#45;framework -->
<g id="node14" class="node">
<title>bipedal&#45;locomotion&#45;framework</title>
<g id="a_node14"><a xlink:href="https://github.com/conda-forge/bipedal-locomotion-framework-feedstock" xlink:title="bipedal locomotion framework">
<ellipse fill="#fde725" stroke="black" cx="413.64" cy="-126" rx="163.27" ry="18"/>
<text text-anchor="middle" x="413.64" y="-121.33" font-family="Times,serif" font-size="14.00">bipedal locomotion framework</text>
</a>
</g>
</g>
<!-- spdlog&#45;&gt;bipedal&#45;locomotion&#45;framework -->
<g id="edge13" class="edge">
<title>spdlog&#45;&gt;bipedal&#45;locomotion&#45;framework</title>
<path fill="none" stroke="black" d="M610.65,-478.53C536.5,-466.41 413.64,-432.76 413.64,-343 413.64,-343 413.64,-343 413.64,-269 413.64,-229.74 413.64,-184.38 413.64,-155.69"/>
<polygon fill="black" stroke="black" points="417.14,-156 413.64,-146 410.14,-156 417.14,-156"/>
</g>
<!-- tip -->
<g id="node15" class="node">
<title>tip</title>
<g id="a_node15"><a xlink:href="https://github.com/conda-forge/tip-feedstock" xlink:title="tip">
<ellipse fill="#fde725" stroke="black" cx="358.64" cy="-414" rx="27" ry="18"/>
<text text-anchor="middle" x="358.64" y="-409.32" font-family="Times,serif" font-size="14.00">tip</text>
</a>
</g>
</g>
<!-- spdlog&#45;&gt;tip -->
<g id="edge14" class="edge">
<title>spdlog&#45;&gt;tip</title>
<path fill="none" stroke="black" d="M612.39,-477.55C558.15,-469.22 471.95,-453.96 399.64,-432 396.86,-431.16 394.02,-430.2 391.19,-429.17"/>
<polygon fill="black" stroke="black" points="392.47,-425.91 381.89,-425.54 389.93,-432.43 392.47,-425.91"/>
</g>
<!-- cascade -->
<g id="node16" class="node">
<title>cascade</title>
<g id="a_node16"><a xlink:href="https://github.com/conda-forge/cascade-feedstock" xlink:title="cascade">
<ellipse fill="#fde725" stroke="black" cx="643.64" cy="-270" rx="50.68" ry="18"/>
<text text-anchor="middle" x="643.64" y="-265.32" font-family="Times,serif" font-size="14.00">cascade</text>
</a>
</g>
</g>
<!-- spdlog&#45;&gt;cascade -->
<g id="edge15" class="edge">
<title>spdlog&#45;&gt;cascade</title>
<path fill="none" stroke="black" d="M625.18,-472.44C605.96,-464.21 584.8,-451.31 573.64,-432 566.32,-419.35 564.12,-346.78 575.64,-324 582.3,-310.83 593.92,-299.94 605.7,-291.53"/>
<polygon fill="black" stroke="black" points="607.41,-294.59 613.81,-286.15 603.54,-288.75 607.41,-294.59"/>
</g>
<!-- arcticdb -->
<g id="node17" class="node">
<title>arcticdb</title>
<g id="a_node17"><a xlink:href="https://github.com/conda-forge/arcticdb-feedstock" xlink:title="arcticdb">
<ellipse fill="#fde725" stroke="black" cx="129.64" cy="-414" rx="52.26" ry="18"/>
<text text-anchor="middle" x="129.64" y="-409.32" font-family="Times,serif" font-size="14.00">arcticdb</text>
</a>
</g>
</g>
<!-- spdlog&#45;&gt;arcticdb -->
<g id="edge16" class="edge">
<title>spdlog&#45;&gt;arcticdb</title>
<path fill="none" stroke="black" d="M607.74,-481.09C518.64,-474.48 342.81,-459.12 195.64,-432 190.66,-431.08 185.5,-430 180.36,-428.83"/>
<polygon fill="black" stroke="black" points="181.24,-425.44 170.7,-426.51 179.6,-432.24 181.24,-425.44"/>
</g>
<!-- gnuradio&#45;funcube -->
<g id="node18" class="node">
<title>gnuradio&#45;funcube</title>
<g id="a_node18"><a xlink:href="https://github.com/conda-forge/gnuradio-funcube-feedstock" xlink:title="gnuradio funcube">
<ellipse fill="#fde725" stroke="black" cx="952.64" cy="-342" rx="99.08" ry="18"/>
<text text-anchor="middle" x="952.64" y="-337.32" font-family="Times,serif" font-size="14.00">gnuradio funcube</text>
</a>
</g>
</g>
<!-- spdlog&#45;&gt;gnuradio&#45;funcube -->
<g id="edge17" class="edge">
<title>spdlog&#45;&gt;gnuradio&#45;funcube</title>
<path fill="none" stroke="black" d="M724.62,-482.78C773.19,-478.39 841.92,-466.03 891.64,-432 913.91,-416.76 930.44,-390.47 940.63,-370.41"/>
<polygon fill="black" stroke="black" points="943.66,-372.19 944.85,-361.66 937.35,-369.15 943.66,-372.19"/>
</g>
<!-- bmf -->
<g id="node19" class="node">
<title>bmf</title>
<g id="a_node19"><a xlink:href="https://github.com/conda-forge/bmf-feedstock" xlink:title="bmf">
<ellipse fill="#fde725" stroke="black" cx="324.64" cy="-342" rx="30.69" ry="18"/>
<text text-anchor="middle" x="324.64" y="-337.32" font-family="Times,serif" font-size="14.00">bmf</text>
</a>
</g>
</g>
<!-- spdlog&#45;&gt;bmf -->
<g id="edge18" class="edge">
<title>spdlog&#45;&gt;bmf</title>
<path fill="none" stroke="black" d="M605.9,-484.72C517.5,-482.9 358.42,-473.74 322.64,-432 308.49,-415.5 310.49,-390.28 315.16,-370.89"/>
<polygon fill="black" stroke="black" points="318.48,-372.01 317.8,-361.44 311.74,-370.13 318.48,-372.01"/>
</g>
<!-- spiceql -->
<g id="node20" class="node">
<title>spiceql</title>
<g id="a_node20"><a xlink:href="https://github.com/conda-forge/spiceql-feedstock" xlink:title="spiceql">
<ellipse fill="#fde725" stroke="black" cx="283.64" cy="-270" rx="46.47" ry="18"/>
<text text-anchor="middle" x="283.64" y="-265.32" font-family="Times,serif" font-size="14.00">spiceql</text>
</a>
</g>
</g>
<!-- spdlog&#45;&gt;spiceql -->
<g id="edge19" class="edge">
<title>spdlog&#45;&gt;spiceql</title>
<path fill="none" stroke="black" d="M606.33,-483.64C516.46,-480.37 351.57,-469.33 307.64,-432 269.84,-399.89 272.59,-336.13 278.05,-299.22"/>
<polygon fill="black" stroke="black" points="281.44,-300.18 279.63,-289.74 274.54,-299.03 281.44,-300.18"/>
</g>
<!-- momentum -->
<g id="node21" class="node">
<title>momentum</title>
<g id="a_node21"><a xlink:href="https://github.com/conda-forge/momentum-feedstock" xlink:title="momentum">
<ellipse fill="#fde725" stroke="black" cx="209.64" cy="-198" rx="68.04" ry="18"/>
<text text-anchor="middle" x="209.64" y="-193.32" font-family="Times,serif" font-size="14.00">momentum</text>
</a>
</g>
</g>
<!-- spdlog&#45;&gt;momentum -->
<g id="edge20" class="edge">
<title>spdlog&#45;&gt;momentum</title>
<path fill="none" stroke="black" d="M606.17,-484.2C510.57,-481.73 328.48,-471.78 279.64,-432 217.46,-381.37 209.01,-277.69 208.79,-227.49"/>
<polygon fill="black" stroke="black" points="212.29,-227.77 208.87,-217.74 205.29,-227.71 212.29,-227.77"/>
</g>
<!-- gnuradio&#45;&gt;gnuradio&#45;satellites -->
<g id="edge21" class="edge">
<title>gnuradio&#45;&gt;gnuradio&#45;satellites</title>
<path fill="none" stroke="black" d="M1029.34,-399.5C1055.91,-389.17 1092.98,-374.76 1123.02,-363.07"/>
<polygon fill="black" stroke="black" points="1124.27,-366.34 1132.33,-359.45 1121.74,-359.82 1124.27,-366.34"/>
</g>
<!-- gnuradio&#45;&gt;gnuradio&#45;funcube -->
<g id="edge22" class="edge">
<title>gnuradio&#45;&gt;gnuradio&#45;funcube</title>
<path fill="none" stroke="black" d="M984.47,-396.05C979.79,-388.26 974.13,-378.82 968.88,-370.08"/>
<polygon fill="black" stroke="black" points="971.93,-368.35 963.78,-361.57 965.93,-371.95 971.93,-368.35"/>
</g>
<!-- heyoka&#45;&gt;cascade -->
<g id="edge23" class="edge">
<title>heyoka&#45;&gt;cascade</title>
<path fill="none" stroke="black" d="M610.54,-397.3C600.84,-387.65 589.84,-374.4 584.64,-360 579.2,-344.95 578.12,-338.61 584.64,-324 590.06,-311.84 599.8,-301.31 609.83,-292.91"/>
<polygon fill="black" stroke="black" points="611.66,-295.91 617.41,-287.01 607.37,-290.38 611.66,-295.91"/>
</g>
<!-- heyoka.py -->
<g id="node22" class="node">
<title>heyoka.py</title>
<g id="a_node22"><a xlink:href="https://github.com/conda-forge/heyoka.py-feedstock" xlink:title="heyoka py">
<ellipse fill="#fde725" stroke="black" cx="655.64" cy="-342" rx="61.73" ry="18"/>
<text text-anchor="middle" x="655.64" y="-337.32" font-family="Times,serif" font-size="14.00">heyoka py</text>
</a>
</g>
</g>
<!-- heyoka&#45;&gt;heyoka.py -->
<g id="edge24" class="edge">
<title>heyoka&#45;&gt;heyoka.py</title>
<path fill="none" stroke="black" d="M635.31,-395.7C638.22,-388.15 641.71,-379.12 644.96,-370.68"/>
<polygon fill="black" stroke="black" points="648.16,-372.11 648.5,-361.52 641.63,-369.59 648.16,-372.11"/>
</g>
<!-- heyoka.py&#45;&gt;cascade -->
<g id="edge30" class="edge">
<title>heyoka.py&#45;&gt;cascade</title>
<path fill="none" stroke="black" d="M652.67,-323.7C651.41,-316.32 649.9,-307.52 648.48,-299.25"/>
<polygon fill="black" stroke="black" points="651.96,-298.86 646.83,-289.6 645.07,-300.04 651.96,-298.86"/>
</g>
<!-- openimageio -->
<g id="node23" class="node">
<title>openimageio</title>
<g id="a_node23"><a xlink:href="https://github.com/conda-forge/openimageio-feedstock/pull/107" xlink:title="openimageio ❎">
<ellipse fill="#31688e" stroke="black" cx="1660.64" cy="-594" rx="90.14" ry="18"/>
<text text-anchor="middle" x="1660.64" y="-589.33" font-family="Times,serif" font-size="14.00" fill="white">openimageio ❎</text>
</a>
</g>
</g>
<!-- log4cxx -->
<g id="node24" class="node">
<title>log4cxx</title>
<g id="a_node24"><a xlink:href="https://github.com/conda-forge/log4cxx-feedstock/pull/25" xlink:title="log4cxx ❎">
<ellipse fill="#31688e" stroke="black" cx="1660.64" cy="-522" rx="64.89" ry="18"/>
<text text-anchor="middle" x="1660.64" y="-517.33" font-family="Times,serif" font-size="14.00" fill="white">log4cxx ❎</text>
</a>
</g>
</g>
<!-- openimageio&#45;&gt;log4cxx -->
<!-- obake -->
<g id="node25" class="node">
<title>obake</title>
<g id="a_node25"><a xlink:href="https://github.com/conda-forge/obake-feedstock/pull/47" xlink:title="obake ❎">
<ellipse fill="#31688e" stroke="black" cx="1660.64" cy="-450" rx="55.94" ry="18"/>
<text text-anchor="middle" x="1660.64" y="-445.32" font-family="Times,serif" font-size="14.00" fill="white">obake ❎</text>
</a>
</g>
</g>
<!-- log4cxx&#45;&gt;obake -->
<!-- lue -->
<g id="node26" class="node">
<title>lue</title>
<g id="a_node26"><a xlink:href="https://github.com/conda-forge/lue-feedstock" xlink:title="lue">
<ellipse fill="#000000" stroke="black" cx="1660.64" cy="-378" rx="27" ry="18"/>
<text text-anchor="middle" x="1660.64" y="-373.32" font-family="Times,serif" font-size="14.00" fill="white">lue</text>
</a>
</g>
</g>
<!-- obake&#45;&gt;lue -->
<!-- cantera -->
<g id="node27" class="node">
<title>cantera</title>
<g id="a_node27"><a xlink:href="https://github.com/conda-forge/cantera-feedstock/pull/40" xlink:title="cantera ❎">
<ellipse fill="#31688e" stroke="black" cx="1660.64" cy="-306" rx="64.36" ry="18"/>
<text text-anchor="middle" x="1660.64" y="-301.32" font-family="Times,serif" font-size="14.00" fill="white">cantera ❎</text>
</a>
</g>
</g>
<!-- lue&#45;&gt;cantera -->
<!-- ecole -->
<g id="node28" class="node">
<title>ecole</title>
<g id="a_node28"><a xlink:href="https://github.com/conda-forge/ecole-feedstock/pull/42" xlink:title="ecole ❎">
<ellipse fill="#31688e" stroke="black" cx="1660.64" cy="-234" rx="52.26" ry="18"/>
<text text-anchor="middle" x="1660.64" y="-229.32" font-family="Times,serif" font-size="14.00" fill="white">ecole ❎</text>
</a>
</g>
</g>
<!-- cantera&#45;&gt;ecole -->
<!-- heavydb&#45;ext -->
<g id="node29" class="node">
<title>heavydb&#45;ext</title>
<g id="a_node29"><a xlink:href="https://github.com/conda-forge/heavydb-ext-feedstock/pull/75" xlink:title="heavydb ext ❎">
<ellipse fill="#31688e" stroke="black" cx="1660.64" cy="-162" rx="87.51" ry="18"/>
<text text-anchor="middle" x="1660.64" y="-157.32" font-family="Times,serif" font-size="14.00" fill="white">heavydb ext ❎</text>
</a>
</g>
</g>
<!-- ecole&#45;&gt;heavydb&#45;ext -->
<!-- samurai -->
<g id="node34" class="node">
<title>samurai</title>
<g id="a_node34"><a xlink:href="https://github.com/conda-forge/samurai-feedstock/pull/22" xlink:title="samurai ✓">
<ellipse fill="#31688e" stroke="black" cx="1660.64" cy="-90" rx="59.63" ry="18"/>
<text text-anchor="middle" x="1660.64" y="-85.33" font-family="Times,serif" font-size="14.00" fill="white">samurai ✓</text>
</a>
</g>
</g>
<!-- heavydb&#45;ext&#45;&gt;samurai -->
<!-- folly -->
<g id="node30" class="node">
<title>folly</title>
<g id="a_node30"><a xlink:href="https://github.com/conda-forge/folly-feedstock/pull/208" xlink:title="folly ❎">
<ellipse fill="#31688e" stroke="black" cx="79.64" cy="-486" rx="48.05" ry="18"/>
<text text-anchor="middle" x="79.64" y="-481.32" font-family="Times,serif" font-size="14.00" fill="white">folly ❎</text>
</a>
</g>
</g>
<!-- folly&#45;&gt;arcticdb -->
<g id="edge32" class="edge">
<title>folly&#45;&gt;arcticdb</title>
<path fill="none" stroke="black" d="M91.49,-468.41C97.32,-460.25 104.48,-450.22 111.02,-441.07"/>
<polygon fill="black" stroke="black" points="113.68,-443.36 116.65,-433.19 107.99,-439.29 113.68,-443.36"/>
</g>
<!-- hdk -->
<g id="node31" class="node">
<title>hdk</title>
<g id="a_node31"><a xlink:href="https://github.com/conda-forge/hdk-feedstock" xlink:title="hdk">
<ellipse fill="#fde725" stroke="black" cx="29.64" cy="-414" rx="29.64" ry="18"/>
<text text-anchor="middle" x="29.64" y="-409.32" font-family="Times,serif" font-size="14.00">hdk</text>
</a>
</g>
</g>
<!-- folly&#45;&gt;hdk -->
<g id="edge33" class="edge">
<title>folly&#45;&gt;hdk</title>
<path fill="none" stroke="black" d="M67.79,-468.41C61.79,-460.01 54.37,-449.63 47.68,-440.26"/>
<polygon fill="black" stroke="black" points="50.6,-438.32 41.94,-432.22 44.9,-442.39 50.6,-438.32"/>
</g>
<!-- intervalxt -->
<g id="node32" class="node">
<title>intervalxt</title>
<g id="a_node32"><a xlink:href="https://github.com/conda-forge/intervalxt-feedstock/pull/21" xlink:title="intervalxt ❎">
<ellipse fill="#31688e" stroke="black" cx="1834.64" cy="-342" rx="75.41" ry="18"/>
<text text-anchor="middle" x="1834.64" y="-337.32" font-family="Times,serif" font-size="14.00" fill="white">intervalxt ❎</text>
</a>
</g>
</g>
<!-- flatsurf -->
<g id="node33" class="node">
<title>flatsurf</title>
<g id="a_node33"><a xlink:href="https://github.com/conda-forge/flatsurf-feedstock" xlink:title="flatsurf">
<ellipse fill="#fde725" stroke="black" cx="1834.64" cy="-270" rx="47.53" ry="18"/>
<text text-anchor="middle" x="1834.64" y="-265.32" font-family="Times,serif" font-size="14.00">flatsurf</text>
</a>
</g>
</g>
<!-- intervalxt&#45;&gt;flatsurf -->
<g id="edge34" class="edge">
<title>intervalxt&#45;&gt;flatsurf</title>
<path fill="none" stroke="black" d="M1834.64,-323.7C1834.64,-316.41 1834.64,-307.73 1834.64,-299.54"/>
<polygon fill="black" stroke="black" points="1838.14,-299.62 1834.64,-289.62 1831.14,-299.62 1838.14,-299.62"/>
</g>
<!-- genomekit -->
<g id="node35" class="node">
<title>genomekit</title>
<g id="a_node35"><a xlink:href="https://github.com/conda-forge/genomekit-feedstock/pull/16" xlink:title="genomekit ❎">
<ellipse fill="#31688e" stroke="black" cx="1660.64" cy="-18" rx="79.09" ry="18"/>
<text text-anchor="middle" x="1660.64" y="-13.32" font-family="Times,serif" font-size="14.00" fill="white">genomekit ❎</text>
</a>
</g>
</g>
<!-- samurai&#45;&gt;genomekit -->
</g>
</svg>
