<?xml version="1.0" encoding="UTF-8" standalone="no"?>
<!DOCTYPE svg PUBLIC "-//W3C//DTD SVG 1.1//EN"
 "http://www.w3.org/Graphics/SVG/1.1/DTD/svg11.dtd">
<!-- Generated by graphviz version 11.0.0 (20240519.1550)
 -->
<!-- Pages: 1 -->
<svg width="2048pt" height="736pt"
 viewBox="0.00 0.00 2048.41 736.00" xmlns="http://www.w3.org/2000/svg" xmlns:xlink="http://www.w3.org/1999/xlink">
<g id="graph0" class="graph" transform="scale(1 1) rotate(0) translate(4 732)">
<polygon fill="white" stroke="none" points="-4,4 -4,-732 2044.41,-732 2044.41,4 -4,4"/>
<!-- implicit -->
<g id="node1" class="node">
<title>implicit</title>
<g id="a_node1"><a xlink:href="https://github.com/conda-forge/implicit-feedstock" xlink:title="implicit">
<ellipse fill="#fde725" stroke="black" cx="1468.64" cy="-530" rx="49.1" ry="18"/>
<text text-anchor="middle" x="1468.64" y="-525.33" font-family="Times,serif" font-size="14.00">implicit</text>
</a>
</g>
</g>
<!-- spdlog -->
<g id="node2" class="node">
<title>spdlog</title>
<g id="a_node2"><a xlink:href="https://github.com/conda-forge/spdlog-feedstock/pull/64" xlink:title="spdlog ❎">
<ellipse fill="#31688e" stroke="black" cx="865.64" cy="-602" rx="59.63" ry="18"/>
<text text-anchor="middle" x="865.64" y="-597.33" font-family="Times,serif" font-size="14.00" fill="white">spdlog ❎</text>
</a>
</g>
</g>
<!-- spdlog&#45;&gt;implicit -->
<g id="edge1" class="edge">
<title>spdlog&#45;&gt;implicit</title>
<path fill="none" stroke="black" d="M924.41,-598.42C1024.09,-593.35 1232.35,-579.66 1405.64,-548 1410.53,-547.11 1415.61,-546.02 1420.65,-544.83"/>
<polygon fill="black" stroke="black" points="1421.24,-548.29 1430.09,-542.47 1419.54,-541.5 1421.24,-548.29"/>
</g>
<!-- tiledb -->
<g id="node3" class="node">
<title>tiledb</title>
<g id="a_node3"><a xlink:href="https://github.com/conda-forge/tiledb-feedstock" xlink:title="tiledb">
<ellipse fill="#fde725" stroke="black" cx="1575.64" cy="-530" rx="40.16" ry="18"/>
<text text-anchor="middle" x="1575.64" y="-525.33" font-family="Times,serif" font-size="14.00">tiledb</text>
</a>
</g>
</g>
<!-- spdlog&#45;&gt;tiledb -->
<g id="edge2" class="edge">
<title>spdlog&#45;&gt;tiledb</title>
<path fill="none" stroke="black" d="M925.61,-601.25C1042.54,-600.63 1308.62,-593.78 1526.64,-548 1529.45,-547.41 1532.33,-546.7 1535.2,-545.91"/>
<polygon fill="black" stroke="black" points="1536.19,-549.27 1544.73,-543.01 1534.15,-542.58 1536.19,-549.27"/>
</g>
<!-- reaktoro -->
<g id="node4" class="node">
<title>reaktoro</title>
<g id="a_node4"><a xlink:href="https://github.com/conda-forge/reaktoro-feedstock" xlink:title="reaktoro">
<ellipse fill="#fde725" stroke="black" cx="187.64" cy="-458" rx="53.84" ry="18"/>
<text text-anchor="middle" x="187.64" y="-453.32" font-family="Times,serif" font-size="14.00">reaktoro</text>
</a>
</g>
</g>
<!-- spdlog&#45;&gt;reaktoro -->
<g id="edge3" class="edge">
<title>spdlog&#45;&gt;reaktoro</title>
<path fill="none" stroke="black" d="M805.73,-601.84C671.11,-602.77 349.15,-599.39 255.64,-548 230.68,-534.28 212.02,-507.13 200.62,-486.4"/>
<polygon fill="black" stroke="black" points="203.76,-484.84 196.03,-477.6 197.55,-488.08 203.76,-484.84"/>
</g>
<!-- mamba -->
<g id="node5" class="node">
<title>mamba</title>
<g id="a_node5"><a xlink:href="https://github.com/conda-forge/mamba-feedstock" xlink:title="mamba">
<ellipse fill="#fde725" stroke="black" cx="231.64" cy="-386" rx="48.05" ry="18"/>
<text text-anchor="middle" x="231.64" y="-381.32" font-family="Times,serif" font-size="14.00">mamba</text>
</a>
</g>
</g>
<!-- spdlog&#45;&gt;mamba -->
<g id="edge4" class="edge">
<title>spdlog&#45;&gt;mamba</title>
<path fill="none" stroke="black" d="M806.41,-599.02C668.37,-593.9 333.9,-578.47 293.64,-548 290.84,-545.88 258.85,-460.41 241.95,-414.88"/>
<polygon fill="black" stroke="black" points="245.29,-413.83 238.53,-405.67 238.73,-416.26 245.29,-413.83"/>
</g>
<!-- vowpalwabbit -->
<g id="node6" class="node">
<title>vowpalwabbit</title>
<g id="a_node6"><a xlink:href="https://github.com/conda-forge/vowpalwabbit-feedstock" xlink:title="vowpalwabbit">
<ellipse fill="#fde725" stroke="black" cx="307.64" cy="-314" rx="80.67" ry="18"/>
<text text-anchor="middle" x="307.64" y="-309.32" font-family="Times,serif" font-size="14.00">vowpalwabbit</text>
</a>
</g>
</g>
<!-- spdlog&#45;&gt;vowpalwabbit -->
<g id="edge5" class="edge">
<title>spdlog&#45;&gt;vowpalwabbit</title>
<path fill="none" stroke="black" d="M806.05,-600.49C724.48,-598.2 574.39,-588.26 453.64,-548 392.08,-527.48 362.53,-530.05 326.64,-476 300.03,-435.94 300.48,-377.64 303.72,-343.29"/>
<polygon fill="black" stroke="black" points="307.15,-344.03 304.77,-333.71 300.2,-343.27 307.15,-344.03"/>
</g>
<!-- gnuradio -->
<g id="node7" class="node">
<title>gnuradio</title>
<g id="a_node7"><a xlink:href="https://github.com/conda-forge/gnuradio-feedstock" xlink:title="gnuradio">
<ellipse fill="#fde725" stroke="black" cx="549.64" cy="-530" rx="55.94" ry="18"/>
<text text-anchor="middle" x="549.64" y="-525.33" font-family="Times,serif" font-size="14.00">gnuradio</text>
</a>
</g>
</g>
<!-- spdlog&#45;&gt;gnuradio -->
<g id="edge6" class="edge">
<title>spdlog&#45;&gt;gnuradio</title>
<path fill="none" stroke="black" d="M817.48,-591.01C767.82,-580.62 688.2,-563.71 619.64,-548 614.5,-546.82 609.15,-545.57 603.81,-544.3"/>
<polygon fill="black" stroke="black" points="604.92,-540.97 594.38,-542.05 603.29,-547.78 604.92,-540.97"/>
</g>
<!-- micromamba -->
<g id="node8" class="node">
<title>micromamba</title>
<g id="a_node8"><a xlink:href="https://github.com/conda-forge/micromamba-feedstock" xlink:title="micromamba">
<ellipse fill="#fde725" stroke="black" cx="789.64" cy="-242" rx="76.46" ry="18"/>
<text text-anchor="middle" x="789.64" y="-237.32" font-family="Times,serif" font-size="14.00">micromamba</text>
</a>
</g>
</g>
<!-- spdlog&#45;&gt;micromamba -->
<g id="edge7" class="edge">
<title>spdlog&#45;&gt;micromamba</title>
<path fill="none" stroke="black" d="M849.52,-584.19C827.21,-559.09 789.64,-509.33 789.64,-459 789.64,-459 789.64,-459 789.64,-385 789.64,-345.74 789.64,-300.38 789.64,-271.69"/>
<polygon fill="black" stroke="black" points="793.14,-272 789.64,-262 786.14,-272 793.14,-272"/>
</g>
<!-- gnuradio&#45;satellites -->
<g id="node9" class="node">
<title>gnuradio&#45;satellites</title>
<g id="a_node9"><a xlink:href="https://github.com/conda-forge/gnuradio-satellites-feedstock" xlink:title="gnuradio satellites">
<ellipse fill="#fde725" stroke="black" cx="440.64" cy="-458" rx="104.87" ry="18"/>
<text text-anchor="middle" x="440.64" y="-453.32" font-family="Times,serif" font-size="14.00">gnuradio satellites</text>
</a>
</g>
</g>
<!-- spdlog&#45;&gt;gnuradio&#45;satellites -->
<g id="edge8" class="edge">
<title>spdlog&#45;&gt;gnuradio&#45;satellites</title>
<path fill="none" stroke="black" d="M806.3,-599.4C712.35,-595.79 534.87,-584.24 484.64,-548 464.66,-533.59 453.27,-507.52 447.11,-487.31"/>
<polygon fill="black" stroke="black" points="450.49,-486.39 444.46,-477.68 443.74,-488.25 450.49,-486.39"/>
</g>
<!-- dartsim -->
<g id="node10" class="node">
<title>dartsim</title>
<g id="a_node10"><a xlink:href="https://github.com/conda-forge/dartsim-feedstock" xlink:title="dartsim">
<ellipse fill="#fde725" stroke="black" cx="711.64" cy="-530" rx="50.16" ry="18"/>
<text text-anchor="middle" x="711.64" y="-525.33" font-family="Times,serif" font-size="14.00">dartsim</text>
</a>
</g>
</g>
<!-- spdlog&#45;&gt;dartsim -->
<g id="edge9" class="edge">
<title>spdlog&#45;&gt;dartsim</title>
<path fill="none" stroke="black" d="M833.73,-586.5C810.14,-575.77 777.83,-561.09 752.38,-549.52"/>
<polygon fill="black" stroke="black" points="753.86,-546.35 743.31,-545.4 750.97,-552.72 753.86,-546.35"/>
</g>
<!-- heyoka -->
<g id="node11" class="node">
<title>heyoka</title>
<g id="a_node11"><a xlink:href="https://github.com/conda-forge/heyoka-feedstock" xlink:title="heyoka">
<ellipse fill="#fde725" stroke="black" cx="979.64" cy="-530" rx="46.47" ry="18"/>
<text text-anchor="middle" x="979.64" y="-525.33" font-family="Times,serif" font-size="14.00">heyoka</text>
</a>
</g>
</g>
<!-- spdlog&#45;&gt;heyoka -->
<g id="edge10" class="edge">
<title>spdlog&#45;&gt;heyoka</title>
<path fill="none" stroke="black" d="M891.22,-585.29C907.51,-575.29 928.77,-562.24 946.36,-551.44"/>
<polygon fill="black" stroke="black" points="947.72,-554.71 954.41,-546.49 944.05,-548.74 947.72,-554.71"/>
</g>
<!-- librmm -->
<g id="node12" class="node">
<title>librmm</title>
<g id="a_node12"><a xlink:href="https://github.com/conda-forge/librmm-feedstock" xlink:title="librmm">
<ellipse fill="#fde725" stroke="black" cx="903.64" cy="-458" rx="47.53" ry="18"/>
<text text-anchor="middle" x="903.64" y="-453.32" font-family="Times,serif" font-size="14.00">librmm</text>
</a>
</g>
</g>
<!-- spdlog&#45;&gt;librmm -->
<g id="edge11" class="edge">
<title>spdlog&#45;&gt;librmm</title>
<path fill="none" stroke="black" d="M870.3,-583.59C876.74,-559.5 888.45,-515.75 896.14,-487.03"/>
<polygon fill="black" stroke="black" points="899.46,-488.14 898.67,-477.57 892.7,-486.33 899.46,-488.14"/>
</g>
<!-- libhdbpp&#45;timescale -->
<g id="node13" class="node">
<title>libhdbpp&#45;timescale</title>
<g id="a_node13"><a xlink:href="https://github.com/conda-forge/libhdbpp-timescale-feedstock" xlink:title="libhdbpp timescale">
<ellipse fill="#fde725" stroke="black" cx="1063.64" cy="-386" rx="106.45" ry="18"/>
<text text-anchor="middle" x="1063.64" y="-381.32" font-family="Times,serif" font-size="14.00">libhdbpp timescale</text>
</a>
</g>
</g>
<!-- spdlog&#45;&gt;libhdbpp&#45;timescale -->
<g id="edge12" class="edge">
<title>spdlog&#45;&gt;libhdbpp&#45;timescale</title>
<path fill="none" stroke="black" d="M921.4,-595.2C988.79,-584.74 1098.42,-555.71 1140.64,-476 1148.13,-461.86 1148.08,-454.16 1140.64,-440 1133.96,-427.31 1122.72,-417.06 1110.86,-409.08"/>
<polygon fill="black" stroke="black" points="1112.93,-406.25 1102.58,-403.97 1109.25,-412.2 1112.93,-406.25"/>
</g>
<!-- bipedal&#45;locomotion&#45;framework -->
<g id="node14" class="node">
<title>bipedal&#45;locomotion&#45;framework</title>
<g id="a_node14"><a xlink:href="https://github.com/conda-forge/bipedal-locomotion-framework-feedstock" xlink:title="bipedal locomotion framework">
<ellipse fill="#fde725" stroke="black" cx="1044.64" cy="-314" rx="163.27" ry="18"/>
<text text-anchor="middle" x="1044.64" y="-309.32" font-family="Times,serif" font-size="14.00">bipedal locomotion framework</text>
</a>
</g>
</g>
<!-- spdlog&#45;&gt;bipedal&#45;locomotion&#45;framework -->
<g id="edge13" class="edge">
<title>spdlog&#45;&gt;bipedal&#45;locomotion&#45;framework</title>
<path fill="none" stroke="black" d="M924.95,-599.46C976.28,-595.57 1050.57,-583.56 1104.64,-548 1137.62,-526.31 1139.08,-511.35 1156.64,-476 1178.43,-432.13 1206.18,-408.51 1178.64,-368 1168.39,-352.92 1153.11,-342.13 1136.51,-334.42"/>
<polygon fill="black" stroke="black" points="1138,-331.25 1127.42,-330.58 1135.28,-337.7 1138,-331.25"/>
</g>
<!-- tip -->
<g id="node15" class="node">
<title>tip</title>
<g id="a_node15"><a xlink:href="https://github.com/conda-forge/tip-feedstock" xlink:title="tip">
<ellipse fill="#fde725" stroke="black" cx="1235.64" cy="-242" rx="27" ry="18"/>
<text text-anchor="middle" x="1235.64" y="-237.32" font-family="Times,serif" font-size="14.00">tip</text>
</a>
</g>
</g>
<!-- spdlog&#45;&gt;tip -->
<g id="edge14" class="edge">
<title>spdlog&#45;&gt;tip</title>
<path fill="none" stroke="black" d="M924.59,-598.37C981.3,-593.83 1068.13,-581.49 1135.64,-548 1188.94,-521.56 1235.64,-518.5 1235.64,-459 1235.64,-459 1235.64,-459 1235.64,-385 1235.64,-345.74 1235.64,-300.38 1235.64,-271.69"/>
<polygon fill="black" stroke="black" points="1239.14,-272 1235.64,-262 1232.14,-272 1239.14,-272"/>
</g>
<!-- cascade -->
<g id="node16" class="node">
<title>cascade</title>
<g id="a_node16"><a xlink:href="https://github.com/conda-forge/cascade-feedstock" xlink:title="cascade">
<ellipse fill="#fde725" stroke="black" cx="888.64" cy="-386" rx="50.68" ry="18"/>
<text text-anchor="middle" x="888.64" y="-381.32" font-family="Times,serif" font-size="14.00">cascade</text>
</a>
</g>
</g>
<!-- spdlog&#45;&gt;cascade -->
<g id="edge15" class="edge">
<title>spdlog&#45;&gt;cascade</title>
<path fill="none" stroke="black" d="M858.82,-584.01C847.84,-554.05 829.15,-490.24 846.64,-440 850.21,-429.74 856.69,-419.97 863.5,-411.68"/>
<polygon fill="black" stroke="black" points="865.9,-414.26 869.91,-404.45 860.66,-409.62 865.9,-414.26"/>
</g>
<!-- arcticdb -->
<g id="node17" class="node">
<title>arcticdb</title>
<g id="a_node17"><a xlink:href="https://github.com/conda-forge/arcticdb-feedstock" xlink:title="arcticdb">
<ellipse fill="#fde725" stroke="black" cx="129.64" cy="-530" rx="52.26" ry="18"/>
<text text-anchor="middle" x="129.64" y="-525.33" font-family="Times,serif" font-size="14.00">arcticdb</text>
</a>
</g>
</g>
<!-- spdlog&#45;&gt;arcticdb -->
<g id="edge16" class="edge">
<title>spdlog&#45;&gt;arcticdb</title>
<path fill="none" stroke="black" d="M806.06,-599.74C688.55,-596.5 418.91,-585.3 195.64,-548 190.44,-547.13 185.05,-546.05 179.7,-544.86"/>
<polygon fill="black" stroke="black" points="180.85,-541.53 170.31,-542.63 179.23,-548.34 180.85,-541.53"/>
</g>
<!-- gnuradio&#45;funcube -->
<g id="node18" class="node">
<title>gnuradio&#45;funcube</title>
<g id="a_node18"><a xlink:href="https://github.com/conda-forge/gnuradio-funcube-feedstock" xlink:title="gnuradio funcube">
<ellipse fill="#fde725" stroke="black" cx="662.64" cy="-458" rx="99.08" ry="18"/>
<text text-anchor="middle" x="662.64" y="-453.32" font-family="Times,serif" font-size="14.00">gnuradio funcube</text>
</a>
</g>
</g>
<!-- spdlog&#45;&gt;gnuradio&#45;funcube -->
<g id="edge17" class="edge">
<title>spdlog&#45;&gt;gnuradio&#45;funcube</title>
<path fill="none" stroke="black" d="M810.34,-594.92C753.88,-587.45 671.88,-572.62 652.64,-548 639.27,-530.9 643.46,-505.98 650.02,-486.86"/>
<polygon fill="black" stroke="black" points="653.19,-488.38 653.51,-477.79 646.66,-485.87 653.19,-488.38"/>
</g>
<!-- bmf -->
<g id="node19" class="node">
<title>bmf</title>
<g id="a_node19"><a xlink:href="https://github.com/conda-forge/bmf-feedstock" xlink:title="bmf">
<ellipse fill="#fde725" stroke="black" cx="1294.64" cy="-530" rx="30.69" ry="18"/>
<text text-anchor="middle" x="1294.64" y="-525.33" font-family="Times,serif" font-size="14.00">bmf</text>
</a>
</g>
</g>
<!-- spdlog&#45;&gt;bmf -->
<g id="edge18" class="edge">
<title>spdlog&#45;&gt;bmf</title>
<path fill="none" stroke="black" d="M923.34,-597.08C999.15,-591.03 1135.99,-576.92 1249.64,-548 1252.82,-547.19 1256.1,-546.23 1259.35,-545.18"/>
<polygon fill="black" stroke="black" points="1260.49,-548.48 1268.77,-541.87 1258.18,-541.88 1260.49,-548.48"/>
</g>
<!-- spiceql -->
<g id="node20" class="node">
<title>spiceql</title>
<g id="a_node20"><a xlink:href="https://github.com/conda-forge/spiceql-feedstock" xlink:title="spiceql">
<ellipse fill="#fde725" stroke="black" cx="1317.64" cy="-458" rx="46.47" ry="18"/>
<text text-anchor="middle" x="1317.64" y="-453.32" font-family="Times,serif" font-size="14.00">spiceql</text>
</a>
</g>
</g>
<!-- spdlog&#45;&gt;spiceql -->
<g id="edge19" class="edge">
<title>spdlog&#45;&gt;spiceql</title>
<path fill="none" stroke="black" d="M924.6,-598.65C1044.51,-593.26 1307.75,-578.1 1334.64,-548 1349.58,-531.27 1342.6,-505.57 1333.49,-486.07"/>
<polygon fill="black" stroke="black" points="1336.69,-484.64 1329.02,-477.33 1330.45,-487.83 1336.69,-484.64"/>
</g>
<!-- momentum -->
<g id="node21" class="node">
<title>momentum</title>
<g id="a_node21"><a xlink:href="https://github.com/conda-forge/momentum-feedstock" xlink:title="momentum">
<ellipse fill="#fde725" stroke="black" cx="1391.64" cy="-386" rx="68.04" ry="18"/>
<text text-anchor="middle" x="1391.64" y="-381.32" font-family="Times,serif" font-size="14.00">momentum</text>
</a>
</g>
</g>
<!-- spdlog&#45;&gt;momentum -->
<g id="edge20" class="edge">
<title>spdlog&#45;&gt;momentum</title>
<path fill="none" stroke="black" d="M924.36,-598.27C1046.77,-592.05 1320.55,-575.25 1352.64,-548 1390.84,-515.55 1395.1,-452.65 1393.93,-415.81"/>
<polygon fill="black" stroke="black" points="1397.43,-415.73 1393.44,-405.91 1390.44,-416.07 1397.43,-415.73"/>
</g>
<!-- lue -->
<g id="node22" class="node">
<title>lue</title>
<g id="a_node22"><a xlink:href="https://github.com/conda-forge/lue-feedstock" xlink:title="lue">
<ellipse fill="#fde725" stroke="black" cx="1625.64" cy="-458" rx="27" ry="18"/>
<text text-anchor="middle" x="1625.64" y="-453.32" font-family="Times,serif" font-size="14.00">lue</text>
</a>
</g>
</g>
<!-- tiledb&#45;&gt;lue -->
<g id="edge21" class="edge">
<title>tiledb&#45;&gt;lue</title>
<path fill="none" stroke="black" d="M1587.49,-512.41C1593.57,-503.89 1601.11,-493.33 1607.88,-483.86"/>
<polygon fill="black" stroke="black" points="1610.71,-485.91 1613.68,-475.74 1605.02,-481.85 1610.71,-485.91"/>
</g>
<!-- heavydb&#45;ext -->
<g id="node23" class="node">
<title>heavydb&#45;ext</title>
<g id="a_node23"><a xlink:href="https://github.com/conda-forge/heavydb-ext-feedstock/pull/75" xlink:title="heavydb ext ❎">
<ellipse fill="#31688e" stroke="black" cx="1570.64" cy="-386" rx="87.51" ry="18"/>
<text text-anchor="middle" x="1570.64" y="-381.32" font-family="Times,serif" font-size="14.00" fill="white">heavydb ext ❎</text>
</a>
</g>
</g>
<!-- tiledb&#45;&gt;heavydb&#45;ext -->
<g id="edge22" class="edge">
<title>tiledb&#45;&gt;heavydb&#45;ext</title>
<path fill="none" stroke="black" d="M1575.02,-511.59C1574.18,-487.61 1572.65,-444.14 1571.64,-415.42"/>
<polygon fill="black" stroke="black" points="1575.14,-415.49 1571.29,-405.62 1568.15,-415.74 1575.14,-415.49"/>
</g>
<!-- gnuradio&#45;&gt;gnuradio&#45;satellites -->
<g id="edge23" class="edge">
<title>gnuradio&#45;&gt;gnuradio&#45;satellites</title>
<path fill="none" stroke="black" d="M525.45,-513.46C511.01,-504.19 492.41,-492.25 476.31,-481.91"/>
<polygon fill="black" stroke="black" points="478.24,-478.99 467.94,-476.53 474.46,-484.88 478.24,-478.99"/>
</g>
<!-- gnuradio&#45;&gt;gnuradio&#45;funcube -->
<g id="edge24" class="edge">
<title>gnuradio&#45;&gt;gnuradio&#45;funcube</title>
<path fill="none" stroke="black" d="M574.72,-513.46C589.83,-504.1 609.33,-492.02 626.13,-481.61"/>
<polygon fill="black" stroke="black" points="627.71,-484.75 634.37,-476.51 624.03,-478.8 627.71,-484.75"/>
</g>
<!-- heyoka&#45;&gt;cascade -->
<g id="edge25" class="edge">
<title>heyoka&#45;&gt;cascade</title>
<path fill="none" stroke="black" d="M979.5,-511.56C978.58,-492.54 974.78,-461.9 960.64,-440 952.12,-426.8 939.08,-415.76 926.43,-407.22"/>
<polygon fill="black" stroke="black" points="928.51,-404.4 918.19,-402.01 924.77,-410.31 928.51,-404.4"/>
</g>
<!-- heyoka.py -->
<g id="node24" class="node">
<title>heyoka.py</title>
<g id="a_node24"><a xlink:href="https://github.com/conda-forge/heyoka.py-feedstock" xlink:title="heyoka py">
<ellipse fill="#fde725" stroke="black" cx="1069.64" cy="-458" rx="61.73" ry="18"/>
<text text-anchor="middle" x="1069.64" y="-453.32" font-family="Times,serif" font-size="14.00">heyoka py</text>
</a>
</g>
</g>
<!-- heyoka&#45;&gt;heyoka.py -->
<g id="edge26" class="edge">
<title>heyoka&#45;&gt;heyoka.py</title>
<path fill="none" stroke="black" d="M999.61,-513.46C1011.48,-504.24 1026.75,-492.36 1040,-482.05"/>
<polygon fill="black" stroke="black" points="1041.84,-485.05 1047.59,-476.15 1037.54,-479.53 1041.84,-485.05"/>
</g>
<!-- heyoka.py&#45;&gt;cascade -->
<g id="edge32" class="edge">
<title>heyoka.py&#45;&gt;cascade</title>
<path fill="none" stroke="black" d="M1033.44,-443C1004.37,-431.76 963.44,-415.93 932.51,-403.97"/>
<polygon fill="black" stroke="black" points="934.02,-400.8 923.43,-400.46 931.5,-407.33 934.02,-400.8"/>
</g>
<!-- openimageio -->
<g id="node25" class="node">
<title>openimageio</title>
<g id="a_node25"><a xlink:href="https://github.com/conda-forge/openimageio-feedstock/pull/107" xlink:title="openimageio ❎">
<ellipse fill="#31688e" stroke="black" cx="1756.64" cy="-710" rx="90.14" ry="18"/>
<text text-anchor="middle" x="1756.64" y="-705.33" font-family="Times,serif" font-size="14.00" fill="white">openimageio ❎</text>
</a>
</g>
</g>
<!-- log4cxx -->
<g id="node26" class="node">
<title>log4cxx</title>
<g id="a_node26"><a xlink:href="https://github.com/conda-forge/log4cxx-feedstock/pull/25" xlink:title="log4cxx ❎">
<ellipse fill="#31688e" stroke="black" cx="1756.64" cy="-638" rx="64.89" ry="18"/>
<text text-anchor="middle" x="1756.64" y="-633.33" font-family="Times,serif" font-size="14.00" fill="white">log4cxx ❎</text>
</a>
</g>
</g>
<!-- openimageio&#45;&gt;log4cxx -->
<!-- topologytoolkit -->
<g id="node27" class="node">
<title>topologytoolkit</title>
<g id="a_node27"><a xlink:href="https://github.com/conda-forge/topologytoolkit-feedstock" xlink:title="topologytoolkit">
<ellipse fill="#35b779" stroke="black" cx="1756.64" cy="-566" rx="86.46" ry="18"/>
<text text-anchor="middle" x="1756.64" y="-561.33" font-family="Times,serif" font-size="14.00">topologytoolkit</text>
</a>
</g>
</g>
<!-- log4cxx&#45;&gt;topologytoolkit -->
<!-- obake -->
<g id="node28" class="node">
<title>obake</title>
<g id="a_node28"><a xlink:href="https://github.com/conda-forge/obake-feedstock/pull/47" xlink:title="obake ❎">
<ellipse fill="#31688e" stroke="black" cx="1756.64" cy="-494" rx="55.94" ry="18"/>
<text text-anchor="middle" x="1756.64" y="-489.32" font-family="Times,serif" font-size="14.00" fill="white">obake ❎</text>
</a>
</g>
</g>
<!-- topologytoolkit&#45;&gt;obake -->
<!-- cantera -->
<g id="node29" class="node">
<title>cantera</title>
<g id="a_node29"><a xlink:href="https://github.com/conda-forge/cantera-feedstock/pull/40" xlink:title="cantera ❎">
<ellipse fill="#31688e" stroke="black" cx="1756.64" cy="-422" rx="64.36" ry="18"/>
<text text-anchor="middle" x="1756.64" y="-417.32" font-family="Times,serif" font-size="14.00" fill="white">cantera ❎</text>
</a>
</g>
</g>
<!-- obake&#45;&gt;cantera -->
<!-- ecole -->
<g id="node30" class="node">
<title>ecole</title>
<g id="a_node30"><a xlink:href="https://github.com/conda-forge/ecole-feedstock" xlink:title="ecole">
<ellipse fill="#ff8c00" stroke="black" cx="1756.64" cy="-350" rx="37" ry="18"/>
<text text-anchor="middle" x="1756.64" y="-345.32" font-family="Times,serif" font-size="14.00">ecole</text>
</a>
</g>
</g>
<!-- cantera&#45;&gt;ecole -->
<!-- samurai -->
<g id="node31" class="node">
<title>samurai</title>
<g id="a_node31"><a xlink:href="https://github.com/conda-forge/samurai-feedstock/pull/22" xlink:title="samurai ✓">
<ellipse fill="#31688e" stroke="black" cx="1756.64" cy="-278" rx="59.63" ry="18"/>
<text text-anchor="middle" x="1756.64" y="-273.32" font-family="Times,serif" font-size="14.00" fill="white">samurai ✓</text>
</a>
</g>
</g>
<!-- ecole&#45;&gt;samurai -->
<!-- open3d -->
<g id="node36" class="node">
<title>open3d</title>
<g id="a_node36"><a xlink:href="https://github.com/conda-forge/open3d-feedstock/pull/8" xlink:title="open3d ❎">
<ellipse fill="#31688e" stroke="black" cx="1756.64" cy="-206" rx="63.31" ry="18"/>
<text text-anchor="middle" x="1756.64" y="-201.33" font-family="Times,serif" font-size="14.00" fill="white">open3d ❎</text>
</a>
</g>
</g>
<!-- samurai&#45;&gt;open3d -->
<!-- folly -->
<g id="node32" class="node">
<title>folly</title>
<g id="a_node32"><a xlink:href="https://github.com/conda-forge/folly-feedstock/pull/204" xlink:title="folly ❎">
<ellipse fill="#31688e" stroke="black" cx="79.64" cy="-602" rx="48.05" ry="18"/>
<text text-anchor="middle" x="79.64" y="-597.33" font-family="Times,serif" font-size="14.00" fill="white">folly ❎</text>
</a>
</g>
</g>
<!-- folly&#45;&gt;arcticdb -->
<g id="edge34" class="edge">
<title>folly&#45;&gt;arcticdb</title>
<path fill="none" stroke="black" d="M91.49,-584.41C97.32,-576.25 104.48,-566.22 111.02,-557.07"/>
<polygon fill="black" stroke="black" points="113.68,-559.36 116.65,-549.19 107.99,-555.29 113.68,-559.36"/>
</g>
<!-- hdk -->
<g id="node33" class="node">
<title>hdk</title>
<g id="a_node33"><a xlink:href="https://github.com/conda-forge/hdk-feedstock" xlink:title="hdk">
<ellipse fill="#fde725" stroke="black" cx="29.64" cy="-530" rx="29.64" ry="18"/>
<text text-anchor="middle" x="29.64" y="-525.33" font-family="Times,serif" font-size="14.00">hdk</text>
</a>
</g>
</g>
<!-- folly&#45;&gt;hdk -->
<g id="edge35" class="edge">
<title>folly&#45;&gt;hdk</title>
<path fill="none" stroke="black" d="M67.79,-584.41C61.79,-576.01 54.37,-565.63 47.68,-556.26"/>
<polygon fill="black" stroke="black" points="50.6,-554.32 41.94,-548.22 44.9,-558.39 50.6,-554.32"/>
</g>
<!-- intervalxt -->
<g id="node34" class="node">
<title>intervalxt</title>
<g id="a_node34"><a xlink:href="https://github.com/conda-forge/intervalxt-feedstock/pull/21" xlink:title="intervalxt ❎">
<ellipse fill="#31688e" stroke="black" cx="829.64" cy="-90" rx="75.41" ry="18"/>
<text text-anchor="middle" x="829.64" y="-85.33" font-family="Times,serif" font-size="14.00" fill="white">intervalxt ❎</text>
</a>
</g>
</g>
<!-- flatsurf -->
<g id="node35" class="node">
<title>flatsurf</title>
<g id="a_node35"><a xlink:href="https://github.com/conda-forge/flatsurf-feedstock" xlink:title="flatsurf">
<ellipse fill="#fde725" stroke="black" cx="829.64" cy="-18" rx="47.53" ry="18"/>
<text text-anchor="middle" x="829.64" y="-13.32" font-family="Times,serif" font-size="14.00">flatsurf</text>
</a>
</g>
</g>
<!-- intervalxt&#45;&gt;flatsurf -->
<g id="edge36" class="edge">
<title>intervalxt&#45;&gt;flatsurf</title>
<path fill="none" stroke="black" d="M829.64,-71.7C829.64,-64.41 829.64,-55.73 829.64,-47.54"/>
<polygon fill="black" stroke="black" points="833.14,-47.62 829.64,-37.62 826.14,-47.62 833.14,-47.62"/>
</g>
<!-- genomekit -->
<g id="node39" class="node">
<title>genomekit</title>
<g id="a_node39"><a xlink:href="https://github.com/conda-forge/genomekit-feedstock/pull/16" xlink:title="genomekit ❎">
<ellipse fill="#31688e" stroke="black" cx="1756.64" cy="-134" rx="79.09" ry="18"/>
<text text-anchor="middle" x="1756.64" y="-129.32" font-family="Times,serif" font-size="14.00" fill="white">genomekit ❎</text>
</a>
</g>
</g>
<!-- open3d&#45;&gt;genomekit -->
<!-- aligator -->
<g id="node37" class="node">
<title>aligator</title>
<g id="a_node37"><a xlink:href="https://github.com/conda-forge/aligator-feedstock" xlink:title="aligator">
<ellipse fill="#fde725" stroke="black" cx="1947.64" cy="-386" rx="50.16" ry="18"/>
<text text-anchor="middle" x="1947.64" y="-381.32" font-family="Times,serif" font-size="14.00">aligator</text>
</a>
</g>
</g>
<!-- proxsuite&#45;nlp -->
<g id="node38" class="node">
<title>proxsuite&#45;nlp</title>
<g id="a_node38"><a xlink:href="https://github.com/conda-forge/proxsuite-nlp-feedstock/pull/28" xlink:title="proxsuite nlp ❎">
<ellipse fill="#31688e" stroke="black" cx="1947.64" cy="-458" rx="92.77" ry="18"/>
<text text-anchor="middle" x="1947.64" y="-453.32" font-family="Times,serif" font-size="14.00" fill="white">proxsuite nlp ❎</text>
</a>
</g>
</g>
<!-- proxsuite&#45;nlp&#45;&gt;aligator -->
<g id="edge38" class="edge">
<title>proxsuite&#45;nlp&#45;&gt;aligator</title>
<path fill="none" stroke="black" d="M1947.64,-439.7C1947.64,-432.41 1947.64,-423.73 1947.64,-415.54"/>
<polygon fill="black" stroke="black" points="1951.14,-415.62 1947.64,-405.62 1944.14,-415.62 1951.14,-415.62"/>
</g>
</g>
</svg>
