<?xml version="1.0" encoding="UTF-8" standalone="no"?>
<!DOCTYPE svg PUBLIC "-//W3C//DTD SVG 1.1//EN"
 "http://www.w3.org/Graphics/SVG/1.1/DTD/svg11.dtd">
<!-- Generated by graphviz version 11.0.0 (20240519.1550)
 -->
<!-- Pages: 1 -->
<svg width="1918pt" height="764pt"
 viewBox="0.00 0.00 1918.05 764.00" xmlns="http://www.w3.org/2000/svg" xmlns:xlink="http://www.w3.org/1999/xlink">
<g id="graph0" class="graph" transform="scale(1 1) rotate(0) translate(4 760)">
<polygon fill="white" stroke="none" points="-4,4 -4,-760 1914.05,-760 1914.05,4 -4,4"/>
<!-- implicit -->
<g id="node1" class="node">
<title>implicit</title>
<g id="a_node1"><a xlink:href="https://github.com/conda-forge/implicit-feedstock" xlink:title="implicit">
<ellipse fill="#fde725" stroke="black" cx="1513.64" cy="-486" rx="49.1" ry="18"/>
<text text-anchor="middle" x="1513.64" y="-481.32" font-family="Times,serif" font-size="14.00">implicit</text>
</a>
</g>
</g>
<!-- spdlog -->
<g id="node2" class="node">
<title>spdlog</title>
<g id="a_node2"><a xlink:href="https://github.com/conda-forge/spdlog-feedstock/pull/64" xlink:title="spdlog ❎">
<ellipse fill="#31688e" stroke="black" cx="665.64" cy="-558" rx="59.63" ry="18"/>
<text text-anchor="middle" x="665.64" y="-553.33" font-family="Times,serif" font-size="14.00" fill="white">spdlog ❎</text>
</a>
</g>
</g>
<!-- spdlog&#45;&gt;implicit -->
<g id="edge1" class="edge">
<title>spdlog&#45;&gt;implicit</title>
<path fill="none" stroke="black" d="M725.18,-556.95C856.9,-555.97 1182.53,-548.78 1450.64,-504 1455.55,-503.18 1460.63,-502.14 1465.67,-500.98"/>
<polygon fill="black" stroke="black" points="1466.25,-504.44 1475.12,-498.65 1464.58,-497.65 1466.25,-504.44"/>
</g>
<!-- tiledb -->
<g id="node3" class="node">
<title>tiledb</title>
<g id="a_node3"><a xlink:href="https://github.com/conda-forge/tiledb-feedstock" xlink:title="tiledb">
<ellipse fill="#fde725" stroke="black" cx="1451.64" cy="-414" rx="40.16" ry="18"/>
<text text-anchor="middle" x="1451.64" y="-409.32" font-family="Times,serif" font-size="14.00">tiledb</text>
</a>
</g>
</g>
<!-- spdlog&#45;&gt;tiledb -->
<g id="edge2" class="edge">
<title>spdlog&#45;&gt;tiledb</title>
<path fill="none" stroke="black" d="M725.15,-555.8C889.43,-552.06 1340.88,-538.71 1397.64,-504 1420.01,-490.32 1434.37,-463.55 1442.62,-442.92"/>
<polygon fill="black" stroke="black" points="1445.86,-444.23 1446.05,-433.64 1439.3,-441.8 1445.86,-444.23"/>
</g>
<!-- reaktoro -->
<g id="node4" class="node">
<title>reaktoro</title>
<g id="a_node4"><a xlink:href="https://github.com/conda-forge/reaktoro-feedstock" xlink:title="reaktoro">
<ellipse fill="#fde725" stroke="black" cx="1427.64" cy="-342" rx="53.84" ry="18"/>
<text text-anchor="middle" x="1427.64" y="-337.32" font-family="Times,serif" font-size="14.00">reaktoro</text>
</a>
</g>
</g>
<!-- spdlog&#45;&gt;reaktoro -->
<g id="edge3" class="edge">
<title>spdlog&#45;&gt;reaktoro</title>
<path fill="none" stroke="black" d="M725.2,-556.02C884.04,-552.91 1309.11,-541.16 1359.64,-504 1401.26,-473.39 1382.05,-443.39 1402.64,-396 1406.3,-387.57 1410.5,-378.48 1414.39,-370.25"/>
<polygon fill="black" stroke="black" points="1417.45,-371.96 1418.61,-361.43 1411.14,-368.94 1417.45,-371.96"/>
</g>
<!-- mamba -->
<g id="node5" class="node">
<title>mamba</title>
<g id="a_node5"><a xlink:href="https://github.com/conda-forge/mamba-feedstock" xlink:title="mamba">
<ellipse fill="#fde725" stroke="black" cx="1383.64" cy="-270" rx="48.05" ry="18"/>
<text text-anchor="middle" x="1383.64" y="-265.32" font-family="Times,serif" font-size="14.00">mamba</text>
</a>
</g>
</g>
<!-- spdlog&#45;&gt;mamba -->
<g id="edge4" class="edge">
<title>spdlog&#45;&gt;mamba</title>
<path fill="none" stroke="black" d="M725.26,-556.12C878.44,-553.3 1276.9,-542.33 1321.64,-504 1384.1,-450.48 1341.17,-402.83 1364.64,-324 1367.1,-315.72 1370.13,-306.84 1373.04,-298.77"/>
<polygon fill="black" stroke="black" points="1376.3,-300.04 1376.47,-289.45 1369.73,-297.62 1376.3,-300.04"/>
</g>
<!-- vowpalwabbit -->
<g id="node6" class="node">
<title>vowpalwabbit</title>
<g id="a_node6"><a xlink:href="https://github.com/conda-forge/vowpalwabbit-feedstock" xlink:title="vowpalwabbit">
<ellipse fill="#fde725" stroke="black" cx="1307.64" cy="-198" rx="80.67" ry="18"/>
<text text-anchor="middle" x="1307.64" y="-193.32" font-family="Times,serif" font-size="14.00">vowpalwabbit</text>
</a>
</g>
</g>
<!-- spdlog&#45;&gt;vowpalwabbit -->
<g id="edge5" class="edge">
<title>spdlog&#45;&gt;vowpalwabbit</title>
<path fill="none" stroke="black" d="M725.46,-556.41C884.84,-553.21 1307.64,-533.58 1307.64,-415 1307.64,-415 1307.64,-415 1307.64,-341 1307.64,-301.74 1307.64,-256.38 1307.64,-227.69"/>
<polygon fill="black" stroke="black" points="1311.14,-228 1307.64,-218 1304.14,-228 1311.14,-228"/>
</g>
<!-- gnuradio -->
<g id="node7" class="node">
<title>gnuradio</title>
<g id="a_node7"><a xlink:href="https://github.com/conda-forge/gnuradio-feedstock" xlink:title="gnuradio">
<ellipse fill="#fde725" stroke="black" cx="994.64" cy="-486" rx="55.94" ry="18"/>
<text text-anchor="middle" x="994.64" y="-481.32" font-family="Times,serif" font-size="14.00">gnuradio</text>
</a>
</g>
</g>
<!-- spdlog&#45;&gt;gnuradio -->
<g id="edge6" class="edge">
<title>spdlog&#45;&gt;gnuradio</title>
<path fill="none" stroke="black" d="M714.92,-547.47C767.11,-537.25 851.85,-520.28 924.64,-504 929.78,-502.85 935.13,-501.62 940.48,-500.36"/>
<polygon fill="black" stroke="black" points="940.99,-503.84 949.91,-498.12 939.37,-497.03 940.99,-503.84"/>
</g>
<!-- micromamba -->
<g id="node8" class="node">
<title>micromamba</title>
<g id="a_node8"><a xlink:href="https://github.com/conda-forge/micromamba-feedstock" xlink:title="micromamba">
<ellipse fill="#fde725" stroke="black" cx="806.64" cy="-486" rx="76.46" ry="18"/>
<text text-anchor="middle" x="806.64" y="-481.32" font-family="Times,serif" font-size="14.00">micromamba</text>
</a>
</g>
</g>
<!-- spdlog&#45;&gt;micromamba -->
<g id="edge7" class="edge">
<title>spdlog&#45;&gt;micromamba</title>
<path fill="none" stroke="black" d="M695.54,-542.15C715.64,-532.18 742.41,-518.88 764.64,-507.85"/>
<polygon fill="black" stroke="black" points="766.06,-511.05 773.46,-503.47 762.95,-504.78 766.06,-511.05"/>
</g>
<!-- gnuradio&#45;satellites -->
<g id="node9" class="node">
<title>gnuradio&#45;satellites</title>
<g id="a_node9"><a xlink:href="https://github.com/conda-forge/gnuradio-satellites-feedstock" xlink:title="gnuradio satellites">
<ellipse fill="#fde725" stroke="black" cx="1174.64" cy="-414" rx="104.87" ry="18"/>
<text text-anchor="middle" x="1174.64" y="-409.32" font-family="Times,serif" font-size="14.00">gnuradio satellites</text>
</a>
</g>
</g>
<!-- spdlog&#45;&gt;gnuradio&#45;satellites -->
<g id="edge8" class="edge">
<title>spdlog&#45;&gt;gnuradio&#45;satellites</title>
<path fill="none" stroke="black" d="M723.1,-552.95C817.31,-545.7 1000.1,-528.9 1059.64,-504 1095,-489.21 1128.87,-460.65 1150.58,-439.86"/>
<polygon fill="black" stroke="black" points="1152.78,-442.6 1157.48,-433.11 1147.88,-437.61 1152.78,-442.6"/>
</g>
<!-- dartsim -->
<g id="node10" class="node">
<title>dartsim</title>
<g id="a_node10"><a xlink:href="https://github.com/conda-forge/dartsim-feedstock" xlink:title="dartsim">
<ellipse fill="#fde725" stroke="black" cx="785.64" cy="-414" rx="50.16" ry="18"/>
<text text-anchor="middle" x="785.64" y="-409.32" font-family="Times,serif" font-size="14.00">dartsim</text>
</a>
</g>
</g>
<!-- spdlog&#45;&gt;dartsim -->
<g id="edge9" class="edge">
<title>spdlog&#45;&gt;dartsim</title>
<path fill="none" stroke="black" d="M674.3,-539.84C684.25,-521.07 701.77,-490.64 721.64,-468 731.38,-456.9 743.56,-446.21 754.67,-437.37"/>
<polygon fill="black" stroke="black" points="756.71,-440.22 762.48,-431.33 752.43,-434.68 756.71,-440.22"/>
</g>
<!-- heyoka -->
<g id="node11" class="node">
<title>heyoka</title>
<g id="a_node11"><a xlink:href="https://github.com/conda-forge/heyoka-feedstock" xlink:title="heyoka">
<ellipse fill="#fde725" stroke="black" cx="628.64" cy="-486" rx="46.47" ry="18"/>
<text text-anchor="middle" x="628.64" y="-481.32" font-family="Times,serif" font-size="14.00">heyoka</text>
</a>
</g>
</g>
<!-- spdlog&#45;&gt;heyoka -->
<g id="edge10" class="edge">
<title>spdlog&#45;&gt;heyoka</title>
<path fill="none" stroke="black" d="M656.68,-540.05C652.5,-532.14 647.42,-522.54 642.74,-513.69"/>
<polygon fill="black" stroke="black" points="645.99,-512.33 638.22,-505.13 639.8,-515.6 645.99,-512.33"/>
</g>
<!-- librmm -->
<g id="node12" class="node">
<title>librmm</title>
<g id="a_node12"><a xlink:href="https://github.com/conda-forge/librmm-feedstock" xlink:title="librmm">
<ellipse fill="#fde725" stroke="black" cx="527.64" cy="-342" rx="47.53" ry="18"/>
<text text-anchor="middle" x="527.64" y="-337.32" font-family="Times,serif" font-size="14.00">librmm</text>
</a>
</g>
</g>
<!-- spdlog&#45;&gt;librmm -->
<g id="edge11" class="edge">
<title>spdlog&#45;&gt;librmm</title>
<path fill="none" stroke="black" d="M624.03,-544.8C602.93,-536.56 578.67,-523.53 563.64,-504 533.8,-465.21 527.75,-406.49 527.03,-371.71"/>
<polygon fill="black" stroke="black" points="530.53,-371.98 526.98,-362 523.53,-372.01 530.53,-371.98"/>
</g>
<!-- libhdbpp&#45;timescale -->
<g id="node13" class="node">
<title>libhdbpp&#45;timescale</title>
<g id="a_node13"><a xlink:href="https://github.com/conda-forge/libhdbpp-timescale-feedstock" xlink:title="libhdbpp timescale">
<ellipse fill="#fde725" stroke="black" cx="547.64" cy="-270" rx="106.45" ry="18"/>
<text text-anchor="middle" x="547.64" y="-265.32" font-family="Times,serif" font-size="14.00">libhdbpp timescale</text>
</a>
</g>
</g>
<!-- spdlog&#45;&gt;libhdbpp&#45;timescale -->
<g id="edge12" class="edge">
<title>spdlog&#45;&gt;libhdbpp&#45;timescale</title>
<path fill="none" stroke="black" d="M619.85,-546.18C594.01,-538.13 562.6,-524.86 540.64,-504 489.04,-454.99 486.6,-429.35 470.64,-360 467.05,-344.41 463.19,-338.16 470.64,-324 477.31,-311.31 488.55,-301.06 500.41,-293.08"/>
<polygon fill="black" stroke="black" points="502.03,-296.2 508.7,-287.97 498.35,-290.25 502.03,-296.2"/>
</g>
<!-- bipedal&#45;locomotion&#45;framework -->
<g id="node14" class="node">
<title>bipedal&#45;locomotion&#45;framework</title>
<g id="a_node14"><a xlink:href="https://github.com/conda-forge/bipedal-locomotion-framework-feedstock" xlink:title="bipedal locomotion framework">
<ellipse fill="#fde725" stroke="black" cx="413.64" cy="-198" rx="163.27" ry="18"/>
<text text-anchor="middle" x="413.64" y="-193.32" font-family="Times,serif" font-size="14.00">bipedal locomotion framework</text>
</a>
</g>
</g>
<!-- spdlog&#45;&gt;bipedal&#45;locomotion&#45;framework -->
<g id="edge13" class="edge">
<title>spdlog&#45;&gt;bipedal&#45;locomotion&#45;framework</title>
<path fill="none" stroke="black" d="M610.65,-550.53C536.5,-538.41 413.64,-504.76 413.64,-415 413.64,-415 413.64,-415 413.64,-341 413.64,-301.74 413.64,-256.38 413.64,-227.69"/>
<polygon fill="black" stroke="black" points="417.14,-228 413.64,-218 410.14,-228 417.14,-228"/>
</g>
<!-- tip -->
<g id="node15" class="node">
<title>tip</title>
<g id="a_node15"><a xlink:href="https://github.com/conda-forge/tip-feedstock" xlink:title="tip">
<ellipse fill="#fde725" stroke="black" cx="358.64" cy="-486" rx="27" ry="18"/>
<text text-anchor="middle" x="358.64" y="-481.32" font-family="Times,serif" font-size="14.00">tip</text>
</a>
</g>
</g>
<!-- spdlog&#45;&gt;tip -->
<g id="edge14" class="edge">
<title>spdlog&#45;&gt;tip</title>
<path fill="none" stroke="black" d="M612.39,-549.55C558.15,-541.22 471.95,-525.96 399.64,-504 396.86,-503.16 394.02,-502.2 391.19,-501.17"/>
<polygon fill="black" stroke="black" points="392.47,-497.91 381.89,-497.54 389.93,-504.43 392.47,-497.91"/>
</g>
<!-- cascade -->
<g id="node16" class="node">
<title>cascade</title>
<g id="a_node16"><a xlink:href="https://github.com/conda-forge/cascade-feedstock" xlink:title="cascade">
<ellipse fill="#fde725" stroke="black" cx="643.64" cy="-342" rx="50.68" ry="18"/>
<text text-anchor="middle" x="643.64" y="-337.32" font-family="Times,serif" font-size="14.00">cascade</text>
</a>
</g>
</g>
<!-- spdlog&#45;&gt;cascade -->
<g id="edge15" class="edge">
<title>spdlog&#45;&gt;cascade</title>
<path fill="none" stroke="black" d="M625.18,-544.44C605.96,-536.21 584.8,-523.31 573.64,-504 566.32,-491.35 564.12,-418.78 575.64,-396 582.3,-382.83 593.92,-371.94 605.7,-363.53"/>
<polygon fill="black" stroke="black" points="607.41,-366.59 613.81,-358.15 603.54,-360.75 607.41,-366.59"/>
</g>
<!-- arcticdb -->
<g id="node17" class="node">
<title>arcticdb</title>
<g id="a_node17"><a xlink:href="https://github.com/conda-forge/arcticdb-feedstock" xlink:title="arcticdb">
<ellipse fill="#fde725" stroke="black" cx="129.64" cy="-486" rx="52.26" ry="18"/>
<text text-anchor="middle" x="129.64" y="-481.32" font-family="Times,serif" font-size="14.00">arcticdb</text>
</a>
</g>
</g>
<!-- spdlog&#45;&gt;arcticdb -->
<g id="edge16" class="edge">
<title>spdlog&#45;&gt;arcticdb</title>
<path fill="none" stroke="black" d="M607.74,-553.09C518.64,-546.48 342.81,-531.12 195.64,-504 190.66,-503.08 185.5,-502 180.36,-500.83"/>
<polygon fill="black" stroke="black" points="181.24,-497.44 170.7,-498.51 179.6,-504.24 181.24,-497.44"/>
</g>
<!-- gnuradio&#45;funcube -->
<g id="node18" class="node">
<title>gnuradio&#45;funcube</title>
<g id="a_node18"><a xlink:href="https://github.com/conda-forge/gnuradio-funcube-feedstock" xlink:title="gnuradio funcube">
<ellipse fill="#fde725" stroke="black" cx="952.64" cy="-414" rx="99.08" ry="18"/>
<text text-anchor="middle" x="952.64" y="-409.32" font-family="Times,serif" font-size="14.00">gnuradio funcube</text>
</a>
</g>
</g>
<!-- spdlog&#45;&gt;gnuradio&#45;funcube -->
<g id="edge17" class="edge">
<title>spdlog&#45;&gt;gnuradio&#45;funcube</title>
<path fill="none" stroke="black" d="M724.62,-554.78C773.19,-550.39 841.92,-538.03 891.64,-504 913.91,-488.76 930.44,-462.47 940.63,-442.41"/>
<polygon fill="black" stroke="black" points="943.66,-444.19 944.85,-433.66 937.35,-441.15 943.66,-444.19"/>
</g>
<!-- bmf -->
<g id="node19" class="node">
<title>bmf</title>
<g id="a_node19"><a xlink:href="https://github.com/conda-forge/bmf-feedstock" xlink:title="bmf">
<ellipse fill="#fde725" stroke="black" cx="324.64" cy="-414" rx="30.69" ry="18"/>
<text text-anchor="middle" x="324.64" y="-409.32" font-family="Times,serif" font-size="14.00">bmf</text>
</a>
</g>
</g>
<!-- spdlog&#45;&gt;bmf -->
<g id="edge18" class="edge">
<title>spdlog&#45;&gt;bmf</title>
<path fill="none" stroke="black" d="M605.9,-556.72C517.5,-554.9 358.42,-545.74 322.64,-504 308.49,-487.5 310.49,-462.28 315.16,-442.89"/>
<polygon fill="black" stroke="black" points="318.48,-444.01 317.8,-433.44 311.74,-442.13 318.48,-444.01"/>
</g>
<!-- spiceql -->
<g id="node20" class="node">
<title>spiceql</title>
<g id="a_node20"><a xlink:href="https://github.com/conda-forge/spiceql-feedstock" xlink:title="spiceql">
<ellipse fill="#fde725" stroke="black" cx="283.64" cy="-342" rx="46.47" ry="18"/>
<text text-anchor="middle" x="283.64" y="-337.32" font-family="Times,serif" font-size="14.00">spiceql</text>
</a>
</g>
</g>
<!-- spdlog&#45;&gt;spiceql -->
<g id="edge19" class="edge">
<title>spdlog&#45;&gt;spiceql</title>
<path fill="none" stroke="black" d="M606.33,-555.64C516.46,-552.37 351.57,-541.33 307.64,-504 269.84,-471.89 272.59,-408.13 278.05,-371.22"/>
<polygon fill="black" stroke="black" points="281.44,-372.18 279.63,-361.74 274.54,-371.03 281.44,-372.18"/>
</g>
<!-- momentum -->
<g id="node21" class="node">
<title>momentum</title>
<g id="a_node21"><a xlink:href="https://github.com/conda-forge/momentum-feedstock" xlink:title="momentum">
<ellipse fill="#fde725" stroke="black" cx="209.64" cy="-270" rx="68.04" ry="18"/>
<text text-anchor="middle" x="209.64" y="-265.32" font-family="Times,serif" font-size="14.00">momentum</text>
</a>
</g>
</g>
<!-- spdlog&#45;&gt;momentum -->
<g id="edge20" class="edge">
<title>spdlog&#45;&gt;momentum</title>
<path fill="none" stroke="black" d="M606.17,-556.2C510.57,-553.73 328.48,-543.78 279.64,-504 217.46,-453.37 209.01,-349.69 208.79,-299.49"/>
<polygon fill="black" stroke="black" points="212.29,-299.77 208.87,-289.74 205.29,-299.71 212.29,-299.77"/>
</g>
<!-- gnuradio&#45;&gt;gnuradio&#45;satellites -->
<g id="edge21" class="edge">
<title>gnuradio&#45;&gt;gnuradio&#45;satellites</title>
<path fill="none" stroke="black" d="M1029.34,-471.5C1055.91,-461.17 1092.98,-446.76 1123.02,-435.07"/>
<polygon fill="black" stroke="black" points="1124.27,-438.34 1132.33,-431.45 1121.74,-431.82 1124.27,-438.34"/>
</g>
<!-- gnuradio&#45;&gt;gnuradio&#45;funcube -->
<g id="edge22" class="edge">
<title>gnuradio&#45;&gt;gnuradio&#45;funcube</title>
<path fill="none" stroke="black" d="M984.47,-468.05C979.79,-460.26 974.13,-450.82 968.88,-442.08"/>
<polygon fill="black" stroke="black" points="971.93,-440.35 963.78,-433.57 965.93,-443.95 971.93,-440.35"/>
</g>
<!-- heyoka&#45;&gt;cascade -->
<g id="edge23" class="edge">
<title>heyoka&#45;&gt;cascade</title>
<path fill="none" stroke="black" d="M610.54,-469.3C600.84,-459.65 589.84,-446.4 584.64,-432 579.2,-416.95 578.12,-410.61 584.64,-396 590.06,-383.84 599.8,-373.31 609.83,-364.91"/>
<polygon fill="black" stroke="black" points="611.66,-367.91 617.41,-359.01 607.37,-362.38 611.66,-367.91"/>
</g>
<!-- heyoka.py -->
<g id="node22" class="node">
<title>heyoka.py</title>
<g id="a_node22"><a xlink:href="https://github.com/conda-forge/heyoka.py-feedstock" xlink:title="heyoka py">
<ellipse fill="#fde725" stroke="black" cx="655.64" cy="-414" rx="61.73" ry="18"/>
<text text-anchor="middle" x="655.64" y="-409.32" font-family="Times,serif" font-size="14.00">heyoka py</text>
</a>
</g>
</g>
<!-- heyoka&#45;&gt;heyoka.py -->
<g id="edge24" class="edge">
<title>heyoka&#45;&gt;heyoka.py</title>
<path fill="none" stroke="black" d="M635.31,-467.7C638.22,-460.15 641.71,-451.12 644.96,-442.68"/>
<polygon fill="black" stroke="black" points="648.16,-444.11 648.5,-433.52 641.63,-441.59 648.16,-444.11"/>
</g>
<!-- heyoka.py&#45;&gt;cascade -->
<g id="edge31" class="edge">
<title>heyoka.py&#45;&gt;cascade</title>
<path fill="none" stroke="black" d="M652.67,-395.7C651.41,-388.32 649.9,-379.52 648.48,-371.25"/>
<polygon fill="black" stroke="black" points="651.96,-370.86 646.83,-361.6 645.07,-372.04 651.96,-370.86"/>
</g>
<!-- openimageio -->
<g id="node23" class="node">
<title>openimageio</title>
<g id="a_node23"><a xlink:href="https://github.com/conda-forge/openimageio-feedstock/pull/107" xlink:title="openimageio ❎">
<ellipse fill="#31688e" stroke="black" cx="1660.64" cy="-738" rx="90.14" ry="18"/>
<text text-anchor="middle" x="1660.64" y="-733.33" font-family="Times,serif" font-size="14.00" fill="white">openimageio ❎</text>
</a>
</g>
</g>
<!-- log4cxx -->
<g id="node24" class="node">
<title>log4cxx</title>
<g id="a_node24"><a xlink:href="https://github.com/conda-forge/log4cxx-feedstock/pull/25" xlink:title="log4cxx ❎">
<ellipse fill="#31688e" stroke="black" cx="1660.64" cy="-666" rx="64.89" ry="18"/>
<text text-anchor="middle" x="1660.64" y="-661.33" font-family="Times,serif" font-size="14.00" fill="white">log4cxx ❎</text>
</a>
</g>
</g>
<!-- openimageio&#45;&gt;log4cxx -->
<!-- topologytoolkit -->
<g id="node25" class="node">
<title>topologytoolkit</title>
<g id="a_node25"><a xlink:href="https://github.com/conda-forge/topologytoolkit-feedstock" xlink:title="topologytoolkit">
<ellipse fill="#ff8c00" stroke="black" cx="1660.64" cy="-594" rx="86.46" ry="18"/>
<text text-anchor="middle" x="1660.64" y="-589.33" font-family="Times,serif" font-size="14.00">topologytoolkit</text>
</a>
</g>
</g>
<!-- log4cxx&#45;&gt;topologytoolkit -->
<!-- obake -->
<g id="node26" class="node">
<title>obake</title>
<g id="a_node26"><a xlink:href="https://github.com/conda-forge/obake-feedstock/pull/47" xlink:title="obake ❎">
<ellipse fill="#31688e" stroke="black" cx="1660.64" cy="-522" rx="55.94" ry="18"/>
<text text-anchor="middle" x="1660.64" y="-517.33" font-family="Times,serif" font-size="14.00" fill="white">obake ❎</text>
</a>
</g>
</g>
<!-- topologytoolkit&#45;&gt;obake -->
<!-- lue -->
<g id="node27" class="node">
<title>lue</title>
<g id="a_node27"><a xlink:href="https://github.com/conda-forge/lue-feedstock" xlink:title="lue">
<ellipse fill="#000000" stroke="black" cx="1660.64" cy="-450" rx="27" ry="18"/>
<text text-anchor="middle" x="1660.64" y="-445.32" font-family="Times,serif" font-size="14.00" fill="white">lue</text>
</a>
</g>
</g>
<!-- obake&#45;&gt;lue -->
<!-- cantera -->
<g id="node28" class="node">
<title>cantera</title>
<g id="a_node28"><a xlink:href="https://github.com/conda-forge/cantera-feedstock/pull/40" xlink:title="cantera ❎">
<ellipse fill="#31688e" stroke="black" cx="1660.64" cy="-378" rx="64.36" ry="18"/>
<text text-anchor="middle" x="1660.64" y="-373.32" font-family="Times,serif" font-size="14.00" fill="white">cantera ❎</text>
</a>
</g>
</g>
<!-- lue&#45;&gt;cantera -->
<!-- ecole -->
<g id="node29" class="node">
<title>ecole</title>
<g id="a_node29"><a xlink:href="https://github.com/conda-forge/ecole-feedstock" xlink:title="ecole">
<ellipse fill="#ff8c00" stroke="black" cx="1660.64" cy="-306" rx="37" ry="18"/>
<text text-anchor="middle" x="1660.64" y="-301.32" font-family="Times,serif" font-size="14.00">ecole</text>
</a>
</g>
</g>
<!-- cantera&#45;&gt;ecole -->
<!-- heavydb&#45;ext -->
<g id="node30" class="node">
<title>heavydb&#45;ext</title>
<g id="a_node30"><a xlink:href="https://github.com/conda-forge/heavydb-ext-feedstock/pull/75" xlink:title="heavydb ext ❎">
<ellipse fill="#31688e" stroke="black" cx="1660.64" cy="-234" rx="87.51" ry="18"/>
<text text-anchor="middle" x="1660.64" y="-229.32" font-family="Times,serif" font-size="14.00" fill="white">heavydb ext ❎</text>
</a>
</g>
</g>
<!-- ecole&#45;&gt;heavydb&#45;ext -->
<!-- samurai -->
<g id="node35" class="node">
<title>samurai</title>
<g id="a_node35"><a xlink:href="https://github.com/conda-forge/samurai-feedstock/pull/22" xlink:title="samurai ✓">
<ellipse fill="#31688e" stroke="black" cx="1660.64" cy="-162" rx="59.63" ry="18"/>
<text text-anchor="middle" x="1660.64" y="-157.32" font-family="Times,serif" font-size="14.00" fill="white">samurai ✓</text>
</a>
</g>
</g>
<!-- heavydb&#45;ext&#45;&gt;samurai -->
<!-- folly -->
<g id="node31" class="node">
<title>folly</title>
<g id="a_node31"><a xlink:href="https://github.com/conda-forge/folly-feedstock/pull/204" xlink:title="folly ❎">
<ellipse fill="#31688e" stroke="black" cx="79.64" cy="-558" rx="48.05" ry="18"/>
<text text-anchor="middle" x="79.64" y="-553.33" font-family="Times,serif" font-size="14.00" fill="white">folly ❎</text>
</a>
</g>
</g>
<!-- folly&#45;&gt;arcticdb -->
<g id="edge33" class="edge">
<title>folly&#45;&gt;arcticdb</title>
<path fill="none" stroke="black" d="M91.49,-540.41C97.32,-532.25 104.48,-522.22 111.02,-513.07"/>
<polygon fill="black" stroke="black" points="113.68,-515.36 116.65,-505.19 107.99,-511.29 113.68,-515.36"/>
</g>
<!-- hdk -->
<g id="node32" class="node">
<title>hdk</title>
<g id="a_node32"><a xlink:href="https://github.com/conda-forge/hdk-feedstock" xlink:title="hdk">
<ellipse fill="#fde725" stroke="black" cx="29.64" cy="-486" rx="29.64" ry="18"/>
<text text-anchor="middle" x="29.64" y="-481.32" font-family="Times,serif" font-size="14.00">hdk</text>
</a>
</g>
</g>
<!-- folly&#45;&gt;hdk -->
<g id="edge34" class="edge">
<title>folly&#45;&gt;hdk</title>
<path fill="none" stroke="black" d="M67.79,-540.41C61.79,-532.01 54.37,-521.63 47.68,-512.26"/>
<polygon fill="black" stroke="black" points="50.6,-510.32 41.94,-504.22 44.9,-514.39 50.6,-510.32"/>
</g>
<!-- intervalxt -->
<g id="node33" class="node">
<title>intervalxt</title>
<g id="a_node33"><a xlink:href="https://github.com/conda-forge/intervalxt-feedstock/pull/21" xlink:title="intervalxt ❎">
<ellipse fill="#31688e" stroke="black" cx="1834.64" cy="-414" rx="75.41" ry="18"/>
<text text-anchor="middle" x="1834.64" y="-409.32" font-family="Times,serif" font-size="14.00" fill="white">intervalxt ❎</text>
</a>
</g>
</g>
<!-- flatsurf -->
<g id="node34" class="node">
<title>flatsurf</title>
<g id="a_node34"><a xlink:href="https://github.com/conda-forge/flatsurf-feedstock" xlink:title="flatsurf">
<ellipse fill="#fde725" stroke="black" cx="1834.64" cy="-342" rx="47.53" ry="18"/>
<text text-anchor="middle" x="1834.64" y="-337.32" font-family="Times,serif" font-size="14.00">flatsurf</text>
</a>
</g>
</g>
<!-- intervalxt&#45;&gt;flatsurf -->
<g id="edge35" class="edge">
<title>intervalxt&#45;&gt;flatsurf</title>
<path fill="none" stroke="black" d="M1834.64,-395.7C1834.64,-388.41 1834.64,-379.73 1834.64,-371.54"/>
<polygon fill="black" stroke="black" points="1838.14,-371.62 1834.64,-361.62 1831.14,-371.62 1838.14,-371.62"/>
</g>
<!-- aligator -->
<g id="node36" class="node">
<title>aligator</title>
<g id="a_node36"><a xlink:href="https://github.com/conda-forge/aligator-feedstock" xlink:title="aligator">
<ellipse fill="#35b779" stroke="black" cx="1660.64" cy="-90" rx="50.16" ry="18"/>
<text text-anchor="middle" x="1660.64" y="-85.33" font-family="Times,serif" font-size="14.00">aligator</text>
</a>
</g>
</g>
<!-- samurai&#45;&gt;aligator -->
<!-- genomekit -->
<g id="node37" class="node">
<title>genomekit</title>
<g id="a_node37"><a xlink:href="https://github.com/conda-forge/genomekit-feedstock/pull/16" xlink:title="genomekit ❎">
<ellipse fill="#31688e" stroke="black" cx="1660.64" cy="-18" rx="79.09" ry="18"/>
<text text-anchor="middle" x="1660.64" y="-13.32" font-family="Times,serif" font-size="14.00" fill="white">genomekit ❎</text>
</a>
</g>
</g>
<!-- aligator&#45;&gt;genomekit -->
</g>
</svg>
