<?xml version="1.0" encoding="UTF-8" standalone="no"?>
<!DOCTYPE svg PUBLIC "-//W3C//DTD SVG 1.1//EN"
 "http://www.w3.org/Graphics/SVG/1.1/DTD/svg11.dtd">
<!-- Generated by graphviz version 11.0.0 (20240519.1550)
 -->
<!-- Pages: 1 -->
<svg width="2135pt" height="808pt"
 viewBox="0.00 0.00 2135.10 808.00" xmlns="http://www.w3.org/2000/svg" xmlns:xlink="http://www.w3.org/1999/xlink">
<g id="graph0" class="graph" transform="scale(1 1) rotate(0) translate(4 804)">
<polygon fill="white" stroke="none" points="-4,4 -4,-804 2131.1,-804 2131.1,4 -4,4"/>
<!-- implicit -->
<g id="node1" class="node">
<title>implicit</title>
<g id="a_node1"><a xlink:href="https://github.com/conda-forge/implicit-feedstock" xlink:title="implicit">
<ellipse fill="#fde725" stroke="black" cx="1384.64" cy="-566" rx="49.1" ry="18"/>
<text text-anchor="middle" x="1384.64" y="-561.33" font-family="Times,serif" font-size="14.00">implicit</text>
</a>
</g>
</g>
<!-- libsemigroups -->
<g id="node2" class="node">
<title>libsemigroups</title>
<g id="a_node2"><a xlink:href="https://github.com/conda-forge/libsemigroups-feedstock/pull/81" xlink:title="libsemigroups ✓">
<ellipse fill="#31688e" stroke="black" cx="1855.64" cy="-782" rx="90.14" ry="18"/>
<text text-anchor="middle" x="1855.64" y="-777.33" font-family="Times,serif" font-size="14.00" fill="white">libsemigroups ✓</text>
</a>
</g>
</g>
<!-- openimageio -->
<g id="node3" class="node">
<title>openimageio</title>
<g id="a_node3"><a xlink:href="https://github.com/conda-forge/openimageio-feedstock" xlink:title="openimageio">
<ellipse fill="#35b779" stroke="black" cx="1855.64" cy="-710" rx="74.88" ry="18"/>
<text text-anchor="middle" x="1855.64" y="-705.33" font-family="Times,serif" font-size="14.00">openimageio</text>
</a>
</g>
</g>
<!-- libsemigroups&#45;&gt;openimageio -->
<!-- log4cxx -->
<g id="node31" class="node">
<title>log4cxx</title>
<g id="a_node31"><a xlink:href="https://github.com/conda-forge/log4cxx-feedstock/pull/25" xlink:title="log4cxx ❎">
<ellipse fill="#31688e" stroke="black" cx="1855.64" cy="-638" rx="64.89" ry="18"/>
<text text-anchor="middle" x="1855.64" y="-633.33" font-family="Times,serif" font-size="14.00" fill="white">log4cxx ❎</text>
</a>
</g>
</g>
<!-- openimageio&#45;&gt;log4cxx -->
<!-- mppp -->
<g id="node4" class="node">
<title>mppp</title>
<g id="a_node4"><a xlink:href="https://github.com/conda-forge/mppp-feedstock/pull/58" xlink:title="mppp ✓">
<ellipse fill="#31688e" stroke="black" cx="1647.64" cy="-638" rx="47.53" ry="18"/>
<text text-anchor="middle" x="1647.64" y="-633.33" font-family="Times,serif" font-size="14.00" fill="white">mppp ✓</text>
</a>
</g>
</g>
<!-- obake -->
<g id="node5" class="node">
<title>obake</title>
<g id="a_node5"><a xlink:href="https://github.com/conda-forge/obake-feedstock" xlink:title="obake">
<ellipse fill="#fde725" stroke="black" cx="1716.64" cy="-566" rx="40.69" ry="18"/>
<text text-anchor="middle" x="1716.64" y="-561.33" font-family="Times,serif" font-size="14.00">obake</text>
</a>
</g>
</g>
<!-- mppp&#45;&gt;obake -->
<g id="edge2" class="edge">
<title>mppp&#45;&gt;obake</title>
<path fill="none" stroke="black" d="M1663.64,-620.76C1672.47,-611.8 1683.6,-600.51 1693.38,-590.59"/>
<polygon fill="black" stroke="black" points="1695.61,-593.32 1700.13,-583.74 1690.62,-588.41 1695.61,-593.32"/>
</g>
<!-- heyoka -->
<g id="node6" class="node">
<title>heyoka</title>
<g id="a_node6"><a xlink:href="https://github.com/conda-forge/heyoka-feedstock" xlink:title="heyoka">
<ellipse fill="#fde725" stroke="black" cx="1573.64" cy="-566" rx="46.47" ry="18"/>
<text text-anchor="middle" x="1573.64" y="-561.33" font-family="Times,serif" font-size="14.00">heyoka</text>
</a>
</g>
</g>
<!-- mppp&#45;&gt;heyoka -->
<g id="edge3" class="edge">
<title>mppp&#45;&gt;heyoka</title>
<path fill="none" stroke="black" d="M1630.47,-620.76C1621.13,-611.93 1609.4,-600.83 1599.02,-591.01"/>
<polygon fill="black" stroke="black" points="1601.48,-588.52 1591.81,-584.19 1596.67,-593.6 1601.48,-588.52"/>
</g>
<!-- heyoka.py -->
<g id="node7" class="node">
<title>heyoka.py</title>
<g id="a_node7"><a xlink:href="https://github.com/conda-forge/heyoka.py-feedstock" xlink:title="heyoka py">
<ellipse fill="#fde725" stroke="black" cx="1638.64" cy="-494" rx="61.73" ry="18"/>
<text text-anchor="middle" x="1638.64" y="-489.32" font-family="Times,serif" font-size="14.00">heyoka py</text>
</a>
</g>
</g>
<!-- mppp&#45;&gt;heyoka.py -->
<g id="edge4" class="edge">
<title>mppp&#45;&gt;heyoka.py</title>
<path fill="none" stroke="black" d="M1646.53,-619.59C1645.01,-595.61 1642.26,-552.14 1640.44,-523.42"/>
<polygon fill="black" stroke="black" points="1643.94,-523.38 1639.82,-513.62 1636.96,-523.82 1643.94,-523.38"/>
</g>
<!-- heyoka&#45;&gt;heyoka.py -->
<g id="edge5" class="edge">
<title>heyoka&#45;&gt;heyoka.py</title>
<path fill="none" stroke="black" d="M1588.71,-548.76C1596.64,-540.23 1606.53,-529.58 1615.41,-520.02"/>
<polygon fill="black" stroke="black" points="1617.92,-522.45 1622.16,-512.74 1612.79,-517.69 1617.92,-522.45"/>
</g>
<!-- cascade -->
<g id="node8" class="node">
<title>cascade</title>
<g id="a_node8"><a xlink:href="https://github.com/conda-forge/cascade-feedstock" xlink:title="cascade">
<ellipse fill="#fde725" stroke="black" cx="1548.64" cy="-422" rx="50.68" ry="18"/>
<text text-anchor="middle" x="1548.64" y="-417.32" font-family="Times,serif" font-size="14.00">cascade</text>
</a>
</g>
</g>
<!-- heyoka&#45;&gt;cascade -->
<g id="edge6" class="edge">
<title>heyoka&#45;&gt;cascade</title>
<path fill="none" stroke="black" d="M1570.57,-547.59C1566.35,-523.61 1558.7,-480.14 1553.64,-451.42"/>
<polygon fill="black" stroke="black" points="1557.09,-450.84 1551.91,-441.6 1550.2,-452.06 1557.09,-450.84"/>
</g>
<!-- heyoka.py&#45;&gt;cascade -->
<g id="edge7" class="edge">
<title>heyoka.py&#45;&gt;cascade</title>
<path fill="none" stroke="black" d="M1617.76,-476.76C1605.98,-467.6 1591.06,-456 1578.1,-445.92"/>
<polygon fill="black" stroke="black" points="1580.33,-443.21 1570.28,-439.84 1576.03,-448.74 1580.33,-443.21"/>
</g>
<!-- paraview -->
<g id="node9" class="node">
<title>paraview</title>
<g id="a_node9"><a xlink:href="https://github.com/conda-forge/paraview-feedstock" xlink:title="paraview">
<ellipse fill="#35b779" stroke="black" cx="2040.64" cy="-494" rx="57" ry="18"/>
<text text-anchor="middle" x="2040.64" y="-489.32" font-family="Times,serif" font-size="14.00">paraview</text>
</a>
</g>
</g>
<!-- topologytoolkit -->
<g id="node10" class="node">
<title>topologytoolkit</title>
<g id="a_node10"><a xlink:href="https://github.com/conda-forge/topologytoolkit-feedstock" xlink:title="topologytoolkit">
<ellipse fill="#fde725" stroke="black" cx="2040.64" cy="-422" rx="86.46" ry="18"/>
<text text-anchor="middle" x="2040.64" y="-417.32" font-family="Times,serif" font-size="14.00">topologytoolkit</text>
</a>
</g>
</g>
<!-- paraview&#45;&gt;topologytoolkit -->
<g id="edge8" class="edge">
<title>paraview&#45;&gt;topologytoolkit</title>
<path fill="none" stroke="black" d="M2040.64,-475.7C2040.64,-468.41 2040.64,-459.73 2040.64,-451.54"/>
<polygon fill="black" stroke="black" points="2044.14,-451.62 2040.64,-441.62 2037.14,-451.62 2044.14,-451.62"/>
</g>
<!-- spdlog -->
<g id="node11" class="node">
<title>spdlog</title>
<g id="a_node11"><a xlink:href="https://github.com/conda-forge/spdlog-feedstock/pull/64" xlink:title="spdlog ❎">
<ellipse fill="#31688e" stroke="black" cx="922.64" cy="-638" rx="59.63" ry="18"/>
<text text-anchor="middle" x="922.64" y="-633.33" font-family="Times,serif" font-size="14.00" fill="white">spdlog ❎</text>
</a>
</g>
</g>
<!-- spdlog&#45;&gt;implicit -->
<g id="edge9" class="edge">
<title>spdlog&#45;&gt;implicit</title>
<path fill="none" stroke="black" d="M979.19,-631.85C1056.86,-624.25 1200.71,-608.24 1321.64,-584 1326.45,-583.03 1331.45,-581.91 1336.42,-580.7"/>
<polygon fill="black" stroke="black" points="1336.88,-584.2 1345.72,-578.35 1335.16,-577.41 1336.88,-584.2"/>
</g>
<!-- spdlog&#45;&gt;heyoka -->
<g id="edge10" class="edge">
<title>spdlog&#45;&gt;heyoka</title>
<path fill="none" stroke="black" d="M981.85,-635.34C1088.85,-631.54 1321.17,-619.57 1513.64,-584 1518.19,-583.16 1522.89,-582.12 1527.57,-580.98"/>
<polygon fill="black" stroke="black" points="1528.1,-584.46 1536.9,-578.56 1526.34,-577.69 1528.1,-584.46"/>
</g>
<!-- spdlog&#45;&gt;cascade -->
<g id="edge23" class="edge">
<title>spdlog&#45;&gt;cascade</title>
<path fill="none" stroke="black" d="M981.28,-634.68C1115.4,-628.9 1436.06,-612.28 1475.64,-584 1519.47,-552.69 1537.51,-488.64 1544.52,-451.46"/>
<polygon fill="black" stroke="black" points="1547.92,-452.34 1546.17,-441.89 1541.02,-451.15 1547.92,-452.34"/>
</g>
<!-- tiledb -->
<g id="node12" class="node">
<title>tiledb</title>
<g id="a_node12"><a xlink:href="https://github.com/conda-forge/tiledb-feedstock" xlink:title="tiledb">
<ellipse fill="#fde725" stroke="black" cx="1062.64" cy="-566" rx="40.16" ry="18"/>
<text text-anchor="middle" x="1062.64" y="-561.33" font-family="Times,serif" font-size="14.00">tiledb</text>
</a>
</g>
</g>
<!-- spdlog&#45;&gt;tiledb -->
<g id="edge11" class="edge">
<title>spdlog&#45;&gt;tiledb</title>
<path fill="none" stroke="black" d="M952.67,-621.98C974.27,-611.18 1003.5,-596.57 1026.4,-585.12"/>
<polygon fill="black" stroke="black" points="1027.69,-588.39 1035.07,-580.78 1024.56,-582.13 1027.69,-588.39"/>
</g>
<!-- reaktoro -->
<g id="node13" class="node">
<title>reaktoro</title>
<g id="a_node13"><a xlink:href="https://github.com/conda-forge/reaktoro-feedstock" xlink:title="reaktoro">
<ellipse fill="#fde725" stroke="black" cx="963.64" cy="-494" rx="53.84" ry="18"/>
<text text-anchor="middle" x="963.64" y="-489.32" font-family="Times,serif" font-size="14.00">reaktoro</text>
</a>
</g>
</g>
<!-- spdlog&#45;&gt;reaktoro -->
<g id="edge12" class="edge">
<title>spdlog&#45;&gt;reaktoro</title>
<path fill="none" stroke="black" d="M927.66,-619.59C934.62,-595.5 947.25,-551.75 955.54,-523.03"/>
<polygon fill="black" stroke="black" points="958.87,-524.14 958.28,-513.57 952.14,-522.2 958.87,-524.14"/>
</g>
<!-- mamba -->
<g id="node14" class="node">
<title>mamba</title>
<g id="a_node14"><a xlink:href="https://github.com/conda-forge/mamba-feedstock" xlink:title="mamba">
<ellipse fill="#fde725" stroke="black" cx="915.64" cy="-422" rx="48.05" ry="18"/>
<text text-anchor="middle" x="915.64" y="-417.32" font-family="Times,serif" font-size="14.00">mamba</text>
</a>
</g>
</g>
<!-- spdlog&#45;&gt;mamba -->
<g id="edge13" class="edge">
<title>spdlog&#45;&gt;mamba</title>
<path fill="none" stroke="black" d="M917.12,-619.6C908.47,-590.08 893.39,-528.25 900.64,-476 901.79,-467.73 903.9,-458.93 906.18,-450.93"/>
<polygon fill="black" stroke="black" points="909.52,-451.96 909.11,-441.38 902.83,-449.91 909.52,-451.96"/>
</g>
<!-- vowpalwabbit -->
<g id="node15" class="node">
<title>vowpalwabbit</title>
<g id="a_node15"><a xlink:href="https://github.com/conda-forge/vowpalwabbit-feedstock" xlink:title="vowpalwabbit">
<ellipse fill="#fde725" stroke="black" cx="839.64" cy="-350" rx="80.67" ry="18"/>
<text text-anchor="middle" x="839.64" y="-345.32" font-family="Times,serif" font-size="14.00">vowpalwabbit</text>
</a>
</g>
</g>
<!-- spdlog&#45;&gt;vowpalwabbit -->
<g id="edge14" class="edge">
<title>spdlog&#45;&gt;vowpalwabbit</title>
<path fill="none" stroke="black" d="M913.75,-620.14C908.58,-609.89 902.21,-596.41 897.64,-584 871.26,-512.33 852.93,-423.91 844.64,-379.42"/>
<polygon fill="black" stroke="black" points="848.13,-379.03 842.89,-369.83 841.24,-380.29 848.13,-379.03"/>
</g>
<!-- gnuradio -->
<g id="node16" class="node">
<title>gnuradio</title>
<g id="a_node16"><a xlink:href="https://github.com/conda-forge/gnuradio-feedstock" xlink:title="gnuradio">
<ellipse fill="#fde725" stroke="black" cx="710.64" cy="-566" rx="55.94" ry="18"/>
<text text-anchor="middle" x="710.64" y="-561.33" font-family="Times,serif" font-size="14.00">gnuradio</text>
</a>
</g>
</g>
<!-- spdlog&#45;&gt;gnuradio -->
<g id="edge15" class="edge">
<title>spdlog&#45;&gt;gnuradio</title>
<path fill="none" stroke="black" d="M883.75,-624.16C848.72,-612.59 797.07,-595.54 759.31,-583.07"/>
<polygon fill="black" stroke="black" points="760.59,-579.81 750,-580 758.4,-586.46 760.59,-579.81"/>
</g>
<!-- micromamba -->
<g id="node17" class="node">
<title>micromamba</title>
<g id="a_node17"><a xlink:href="https://github.com/conda-forge/micromamba-feedstock" xlink:title="micromamba">
<ellipse fill="#fde725" stroke="black" cx="361.64" cy="-278" rx="76.46" ry="18"/>
<text text-anchor="middle" x="361.64" y="-273.32" font-family="Times,serif" font-size="14.00">micromamba</text>
</a>
</g>
</g>
<!-- spdlog&#45;&gt;micromamba -->
<g id="edge16" class="edge">
<title>spdlog&#45;&gt;micromamba</title>
<path fill="none" stroke="black" d="M864.99,-632.79C737.59,-622.14 438.76,-589.27 380.64,-512 335.07,-451.43 345.87,-355.24 355.05,-307.63"/>
<polygon fill="black" stroke="black" points="358.48,-308.34 357.07,-297.84 351.62,-306.93 358.48,-308.34"/>
</g>
<!-- gnuradio&#45;satellites -->
<g id="node18" class="node">
<title>gnuradio&#45;satellites</title>
<g id="a_node18"><a xlink:href="https://github.com/conda-forge/gnuradio-satellites-feedstock" xlink:title="gnuradio satellites">
<ellipse fill="#fde725" stroke="black" cx="710.64" cy="-494" rx="104.87" ry="18"/>
<text text-anchor="middle" x="710.64" y="-489.32" font-family="Times,serif" font-size="14.00">gnuradio satellites</text>
</a>
</g>
</g>
<!-- spdlog&#45;&gt;gnuradio&#45;satellites -->
<g id="edge17" class="edge">
<title>spdlog&#45;&gt;gnuradio&#45;satellites</title>
<path fill="none" stroke="black" d="M894.01,-621.89C875.34,-611.74 850.62,-597.75 829.64,-584 798.21,-563.4 764.02,-537.43 740.38,-518.87"/>
<polygon fill="black" stroke="black" points="742.76,-516.29 732.75,-512.84 738.42,-521.78 742.76,-516.29"/>
</g>
<!-- dartsim -->
<g id="node19" class="node">
<title>dartsim</title>
<g id="a_node19"><a xlink:href="https://github.com/conda-forge/dartsim-feedstock" xlink:title="dartsim">
<ellipse fill="#fde725" stroke="black" cx="363.64" cy="-566" rx="50.16" ry="18"/>
<text text-anchor="middle" x="363.64" y="-561.33" font-family="Times,serif" font-size="14.00">dartsim</text>
</a>
</g>
</g>
<!-- spdlog&#45;&gt;dartsim -->
<g id="edge18" class="edge">
<title>spdlog&#45;&gt;dartsim</title>
<path fill="none" stroke="black" d="M864.3,-633.65C771.31,-627.67 584.01,-612.96 427.64,-584 422.74,-583.09 417.66,-582 412.61,-580.82"/>
<polygon fill="black" stroke="black" points="413.68,-577.48 403.13,-578.49 412,-584.28 413.68,-577.48"/>
</g>
<!-- librmm -->
<g id="node20" class="node">
<title>librmm</title>
<g id="a_node20"><a xlink:href="https://github.com/conda-forge/librmm-feedstock" xlink:title="librmm">
<ellipse fill="#fde725" stroke="black" cx="285.64" cy="-494" rx="47.53" ry="18"/>
<text text-anchor="middle" x="285.64" y="-489.32" font-family="Times,serif" font-size="14.00">librmm</text>
</a>
</g>
</g>
<!-- spdlog&#45;&gt;librmm -->
<g id="edge19" class="edge">
<title>spdlog&#45;&gt;librmm</title>
<path fill="none" stroke="black" d="M862.95,-635.86C716.06,-632.49 345.94,-620.45 304.64,-584 287.88,-569.21 283.84,-543.6 283.58,-523.63"/>
<polygon fill="black" stroke="black" points="287.07,-523.95 283.78,-513.88 280.08,-523.81 287.07,-523.95"/>
</g>
<!-- libhdbpp&#45;timescale -->
<g id="node21" class="node">
<title>libhdbpp&#45;timescale</title>
<g id="a_node21"><a xlink:href="https://github.com/conda-forge/libhdbpp-timescale-feedstock" xlink:title="libhdbpp timescale">
<ellipse fill="#fde725" stroke="black" cx="209.64" cy="-422" rx="106.45" ry="18"/>
<text text-anchor="middle" x="209.64" y="-417.32" font-family="Times,serif" font-size="14.00">libhdbpp timescale</text>
</a>
</g>
</g>
<!-- spdlog&#45;&gt;libhdbpp&#45;timescale -->
<g id="edge20" class="edge">
<title>spdlog&#45;&gt;libhdbpp&#45;timescale</title>
<path fill="none" stroke="black" d="M863.6,-634.86C714.82,-629.08 332.77,-611.71 282.64,-584 234.91,-557.62 218.27,-490.29 212.55,-451.57"/>
<polygon fill="black" stroke="black" points="216.04,-451.28 211.28,-441.82 209.1,-452.19 216.04,-451.28"/>
</g>
<!-- bipedal&#45;locomotion&#45;framework -->
<g id="node22" class="node">
<title>bipedal&#45;locomotion&#45;framework</title>
<g id="a_node22"><a xlink:href="https://github.com/conda-forge/bipedal-locomotion-framework-feedstock" xlink:title="bipedal locomotion framework">
<ellipse fill="#fde725" stroke="black" cx="1498.64" cy="-350" rx="163.27" ry="18"/>
<text text-anchor="middle" x="1498.64" y="-345.32" font-family="Times,serif" font-size="14.00">bipedal locomotion framework</text>
</a>
</g>
</g>
<!-- spdlog&#45;&gt;bipedal&#45;locomotion&#45;framework -->
<g id="edge21" class="edge">
<title>spdlog&#45;&gt;bipedal&#45;locomotion&#45;framework</title>
<path fill="none" stroke="black" d="M981.5,-634.79C1110.31,-629.41 1408.47,-613.86 1442.64,-584 1450.44,-577.18 1480.01,-439.87 1492.75,-379.3"/>
<polygon fill="black" stroke="black" points="1496.12,-380.25 1494.75,-369.75 1489.27,-378.82 1496.12,-380.25"/>
</g>
<!-- tip -->
<g id="node23" class="node">
<title>tip</title>
<g id="a_node23"><a xlink:href="https://github.com/conda-forge/tip-feedstock" xlink:title="tip">
<ellipse fill="#fde725" stroke="black" cx="1307.64" cy="-278" rx="27" ry="18"/>
<text text-anchor="middle" x="1307.64" y="-273.32" font-family="Times,serif" font-size="14.00">tip</text>
</a>
</g>
</g>
<!-- spdlog&#45;&gt;tip -->
<g id="edge22" class="edge">
<title>spdlog&#45;&gt;tip</title>
<path fill="none" stroke="black" d="M982.22,-636.38C1074.37,-634.13 1245.39,-624.47 1288.64,-584 1318.17,-556.37 1307.64,-535.45 1307.64,-495 1307.64,-495 1307.64,-495 1307.64,-421 1307.64,-381.74 1307.64,-336.38 1307.64,-307.69"/>
<polygon fill="black" stroke="black" points="1311.14,-308 1307.64,-298 1304.14,-308 1311.14,-308"/>
</g>
<!-- arcticdb -->
<g id="node24" class="node">
<title>arcticdb</title>
<g id="a_node24"><a xlink:href="https://github.com/conda-forge/arcticdb-feedstock" xlink:title="arcticdb">
<ellipse fill="#fde725" stroke="black" cx="129.64" cy="-566" rx="52.26" ry="18"/>
<text text-anchor="middle" x="129.64" y="-561.33" font-family="Times,serif" font-size="14.00">arcticdb</text>
</a>
</g>
</g>
<!-- spdlog&#45;&gt;arcticdb -->
<g id="edge24" class="edge">
<title>spdlog&#45;&gt;arcticdb</title>
<path fill="none" stroke="black" d="M862.84,-636.26C738.04,-633.92 441.04,-624.22 195.64,-584 190.44,-583.15 185.05,-582.08 179.7,-580.89"/>
<polygon fill="black" stroke="black" points="180.84,-577.56 170.3,-578.67 179.23,-584.38 180.84,-577.56"/>
</g>
<!-- gnuradio&#45;funcube -->
<g id="node25" class="node">
<title>gnuradio&#45;funcube</title>
<g id="a_node25"><a xlink:href="https://github.com/conda-forge/gnuradio-funcube-feedstock" xlink:title="gnuradio funcube">
<ellipse fill="#fde725" stroke="black" cx="488.64" cy="-494" rx="99.08" ry="18"/>
<text text-anchor="middle" x="488.64" y="-489.32" font-family="Times,serif" font-size="14.00">gnuradio funcube</text>
</a>
</g>
</g>
<!-- spdlog&#45;&gt;gnuradio&#45;funcube -->
<g id="edge25" class="edge">
<title>spdlog&#45;&gt;gnuradio&#45;funcube</title>
<path fill="none" stroke="black" d="M866.28,-631.67C809.27,-625.03 719.28,-611.08 645.64,-584 600.26,-567.31 552.55,-538.41 521.8,-518.08"/>
<polygon fill="black" stroke="black" points="523.95,-515.31 513.7,-512.65 520.05,-521.12 523.95,-515.31"/>
</g>
<!-- bmf -->
<g id="node26" class="node">
<title>bmf</title>
<g id="a_node26"><a xlink:href="https://github.com/conda-forge/bmf-feedstock" xlink:title="bmf">
<ellipse fill="#fde725" stroke="black" cx="1248.64" cy="-566" rx="30.69" ry="18"/>
<text text-anchor="middle" x="1248.64" y="-561.33" font-family="Times,serif" font-size="14.00">bmf</text>
</a>
</g>
</g>
<!-- spdlog&#45;&gt;bmf -->
<g id="edge26" class="edge">
<title>spdlog&#45;&gt;bmf</title>
<path fill="none" stroke="black" d="M976.36,-629.72C1033.4,-621.34 1125.85,-605.85 1203.64,-584 1206.8,-583.11 1210.06,-582.09 1213.3,-581.01"/>
<polygon fill="black" stroke="black" points="1214.47,-584.31 1222.71,-577.65 1212.12,-577.71 1214.47,-584.31"/>
</g>
<!-- spiceql -->
<g id="node27" class="node">
<title>spiceql</title>
<g id="a_node27"><a xlink:href="https://github.com/conda-forge/spiceql-feedstock" xlink:title="spiceql">
<ellipse fill="#fde725" stroke="black" cx="1229.64" cy="-494" rx="46.47" ry="18"/>
<text text-anchor="middle" x="1229.64" y="-489.32" font-family="Times,serif" font-size="14.00">spiceql</text>
</a>
</g>
</g>
<!-- spdlog&#45;&gt;spiceql -->
<g id="edge27" class="edge">
<title>spdlog&#45;&gt;spiceql</title>
<path fill="none" stroke="black" d="M982.18,-635.78C1034.4,-632.11 1110.42,-620.26 1165.64,-584 1188.7,-568.86 1206.16,-542.33 1216.97,-522.16"/>
<polygon fill="black" stroke="black" points="1220.04,-523.86 1221.47,-513.36 1213.8,-520.68 1220.04,-523.86"/>
</g>
<!-- momentum -->
<g id="node28" class="node">
<title>momentum</title>
<g id="a_node28"><a xlink:href="https://github.com/conda-forge/momentum-feedstock" xlink:title="momentum">
<ellipse fill="#fde725" stroke="black" cx="1211.64" cy="-422" rx="68.04" ry="18"/>
<text text-anchor="middle" x="1211.64" y="-417.32" font-family="Times,serif" font-size="14.00">momentum</text>
</a>
</g>
</g>
<!-- spdlog&#45;&gt;momentum -->
<g id="edge28" class="edge">
<title>spdlog&#45;&gt;momentum</title>
<path fill="none" stroke="black" d="M979.78,-632.31C1020.15,-626.48 1073.62,-613.39 1111.64,-584 1155.6,-550.01 1144.71,-522.82 1174.64,-476 1180.28,-467.17 1186.74,-457.72 1192.66,-449.29"/>
<polygon fill="black" stroke="black" points="1195.48,-451.36 1198.41,-441.18 1189.77,-447.31 1195.48,-451.36"/>
</g>
<!-- lue -->
<g id="node29" class="node">
<title>lue</title>
<g id="a_node29"><a xlink:href="https://github.com/conda-forge/lue-feedstock" xlink:title="lue">
<ellipse fill="#fde725" stroke="black" cx="1062.64" cy="-494" rx="27" ry="18"/>
<text text-anchor="middle" x="1062.64" y="-489.32" font-family="Times,serif" font-size="14.00">lue</text>
</a>
</g>
</g>
<!-- tiledb&#45;&gt;lue -->
<g id="edge29" class="edge">
<title>tiledb&#45;&gt;lue</title>
<path fill="none" stroke="black" d="M1062.64,-547.7C1062.64,-540.41 1062.64,-531.73 1062.64,-523.54"/>
<polygon fill="black" stroke="black" points="1066.14,-523.62 1062.64,-513.62 1059.14,-523.62 1066.14,-523.62"/>
</g>
<!-- heavydb&#45;ext -->
<g id="node30" class="node">
<title>heavydb&#45;ext</title>
<g id="a_node30"><a xlink:href="https://github.com/conda-forge/heavydb-ext-feedstock" xlink:title="heavydb ext">
<ellipse fill="#35b779" stroke="black" cx="1053.64" cy="-422" rx="72.25" ry="18"/>
<text text-anchor="middle" x="1053.64" y="-417.32" font-family="Times,serif" font-size="14.00">heavydb ext</text>
</a>
</g>
</g>
<!-- tiledb&#45;&gt;heavydb&#45;ext -->
<g id="edge30" class="edge">
<title>tiledb&#45;&gt;heavydb&#45;ext</title>
<path fill="none" stroke="black" d="M1077.13,-549.17C1085.17,-539.27 1094.39,-525.82 1098.64,-512 1103.34,-496.71 1104.15,-491.02 1098.64,-476 1094.85,-465.68 1088.06,-456 1080.89,-447.8"/>
<polygon fill="black" stroke="black" points="1083.53,-445.5 1074.12,-440.64 1078.44,-450.31 1083.53,-445.5"/>
</g>
<!-- gnuradio&#45;&gt;gnuradio&#45;satellites -->
<g id="edge31" class="edge">
<title>gnuradio&#45;&gt;gnuradio&#45;satellites</title>
<path fill="none" stroke="black" d="M710.64,-547.7C710.64,-540.41 710.64,-531.73 710.64,-523.54"/>
<polygon fill="black" stroke="black" points="714.14,-523.62 710.64,-513.62 707.14,-523.62 714.14,-523.62"/>
</g>
<!-- gnuradio&#45;&gt;gnuradio&#45;funcube -->
<g id="edge32" class="edge">
<title>gnuradio&#45;&gt;gnuradio&#45;funcube</title>
<path fill="none" stroke="black" d="M671.71,-552.73C637.27,-541.87 586.52,-525.86 547.18,-513.46"/>
<polygon fill="black" stroke="black" points="548.45,-510.19 537.86,-510.52 546.34,-516.87 548.45,-510.19"/>
</g>
<!-- cantera -->
<g id="node32" class="node">
<title>cantera</title>
<g id="a_node32"><a xlink:href="https://github.com/conda-forge/cantera-feedstock" xlink:title="cantera">
<ellipse fill="#35b779" stroke="black" cx="1855.64" cy="-566" rx="49.1" ry="18"/>
<text text-anchor="middle" x="1855.64" y="-561.33" font-family="Times,serif" font-size="14.00">cantera</text>
</a>
</g>
</g>
<!-- log4cxx&#45;&gt;cantera -->
<!-- ecole -->
<g id="node33" class="node">
<title>ecole</title>
<g id="a_node33"><a xlink:href="https://github.com/conda-forge/ecole-feedstock" xlink:title="ecole">
<ellipse fill="#35b779" stroke="black" cx="1855.64" cy="-494" rx="37" ry="18"/>
<text text-anchor="middle" x="1855.64" y="-489.32" font-family="Times,serif" font-size="14.00">ecole</text>
</a>
</g>
</g>
<!-- cantera&#45;&gt;ecole -->
<!-- precice -->
<g id="node34" class="node">
<title>precice</title>
<g id="a_node34"><a xlink:href="https://github.com/conda-forge/precice-feedstock" xlink:title="precice">
<ellipse fill="#35b779" stroke="black" cx="1855.64" cy="-422" rx="47.53" ry="18"/>
<text text-anchor="middle" x="1855.64" y="-417.32" font-family="Times,serif" font-size="14.00">precice</text>
</a>
</g>
</g>
<!-- ecole&#45;&gt;precice -->
<!-- samurai -->
<g id="node39" class="node">
<title>samurai</title>
<g id="a_node39"><a xlink:href="https://github.com/conda-forge/samurai-feedstock" xlink:title="samurai">
<ellipse fill="#35b779" stroke="black" cx="1855.64" cy="-350" rx="51.74" ry="18"/>
<text text-anchor="middle" x="1855.64" y="-345.32" font-family="Times,serif" font-size="14.00">samurai</text>
</a>
</g>
</g>
<!-- precice&#45;&gt;samurai -->
<!-- folly -->
<g id="node35" class="node">
<title>folly</title>
<g id="a_node35"><a xlink:href="https://github.com/conda-forge/folly-feedstock" xlink:title="folly">
<ellipse fill="#35b779" stroke="black" cx="79.64" cy="-638" rx="32.79" ry="18"/>
<text text-anchor="middle" x="79.64" y="-633.33" font-family="Times,serif" font-size="14.00">folly</text>
</a>
</g>
</g>
<!-- folly&#45;&gt;arcticdb -->
<g id="edge37" class="edge">
<title>folly&#45;&gt;arcticdb</title>
<path fill="none" stroke="black" d="M91.23,-620.76C97.14,-612.49 104.47,-602.23 111.14,-592.9"/>
<polygon fill="black" stroke="black" points="113.91,-595.04 116.88,-584.87 108.22,-590.97 113.91,-595.04"/>
</g>
<!-- hdk -->
<g id="node36" class="node">
<title>hdk</title>
<g id="a_node36"><a xlink:href="https://github.com/conda-forge/hdk-feedstock" xlink:title="hdk">
<ellipse fill="#fde725" stroke="black" cx="29.64" cy="-566" rx="29.64" ry="18"/>
<text text-anchor="middle" x="29.64" y="-561.33" font-family="Times,serif" font-size="14.00">hdk</text>
</a>
</g>
</g>
<!-- folly&#45;&gt;hdk -->
<g id="edge38" class="edge">
<title>folly&#45;&gt;hdk</title>
<path fill="none" stroke="black" d="M68.04,-620.76C61.9,-612.16 54.22,-601.41 47.34,-591.79"/>
<polygon fill="black" stroke="black" points="50.37,-590 41.71,-583.9 44.67,-594.07 50.37,-590"/>
</g>
<!-- intervalxt -->
<g id="node37" class="node">
<title>intervalxt</title>
<g id="a_node37"><a xlink:href="https://github.com/conda-forge/intervalxt-feedstock" xlink:title="intervalxt">
<ellipse fill="#35b779" stroke="black" cx="1855.64" cy="-90" rx="60.15" ry="18"/>
<text text-anchor="middle" x="1855.64" y="-85.33" font-family="Times,serif" font-size="14.00">intervalxt</text>
</a>
</g>
</g>
<!-- flatsurf -->
<g id="node38" class="node">
<title>flatsurf</title>
<g id="a_node38"><a xlink:href="https://github.com/conda-forge/flatsurf-feedstock" xlink:title="flatsurf">
<ellipse fill="#fde725" stroke="black" cx="1855.64" cy="-18" rx="47.53" ry="18"/>
<text text-anchor="middle" x="1855.64" y="-13.32" font-family="Times,serif" font-size="14.00">flatsurf</text>
</a>
</g>
</g>
<!-- intervalxt&#45;&gt;flatsurf -->
<g id="edge39" class="edge">
<title>intervalxt&#45;&gt;flatsurf</title>
<path fill="none" stroke="black" d="M1855.64,-71.7C1855.64,-64.41 1855.64,-55.73 1855.64,-47.54"/>
<polygon fill="black" stroke="black" points="1859.14,-47.62 1855.64,-37.62 1852.14,-47.62 1859.14,-47.62"/>
</g>
<!-- einsums -->
<g id="node40" class="node">
<title>einsums</title>
<g id="a_node40"><a xlink:href="https://github.com/conda-forge/einsums-feedstock" xlink:title="einsums">
<ellipse fill="#35b779" stroke="black" cx="1855.64" cy="-278" rx="52.79" ry="18"/>
<text text-anchor="middle" x="1855.64" y="-273.32" font-family="Times,serif" font-size="14.00">einsums</text>
</a>
</g>
</g>
<!-- samurai&#45;&gt;einsums -->
<!-- open3d -->
<g id="node41" class="node">
<title>open3d</title>
<g id="a_node41"><a xlink:href="https://github.com/conda-forge/open3d-feedstock" xlink:title="open3d">
<ellipse fill="#35b779" stroke="black" cx="1855.64" cy="-206" rx="48.05" ry="18"/>
<text text-anchor="middle" x="1855.64" y="-201.33" font-family="Times,serif" font-size="14.00">open3d</text>
</a>
</g>
</g>
<!-- einsums&#45;&gt;open3d -->
<!-- genomekit -->
<g id="node44" class="node">
<title>genomekit</title>
<g id="a_node44"><a xlink:href="https://github.com/conda-forge/genomekit-feedstock" xlink:title="genomekit">
<ellipse fill="#35b779" stroke="black" cx="1855.64" cy="-134" rx="63.84" ry="18"/>
<text text-anchor="middle" x="1855.64" y="-129.32" font-family="Times,serif" font-size="14.00">genomekit</text>
</a>
</g>
</g>
<!-- open3d&#45;&gt;genomekit -->
<!-- aligator -->
<g id="node42" class="node">
<title>aligator</title>
<g id="a_node42"><a xlink:href="https://github.com/conda-forge/aligator-feedstock" xlink:title="aligator">
<ellipse fill="#fde725" stroke="black" cx="878.64" cy="-18" rx="50.16" ry="18"/>
<text text-anchor="middle" x="878.64" y="-13.32" font-family="Times,serif" font-size="14.00">aligator</text>
</a>
</g>
</g>
<!-- proxsuite&#45;nlp -->
<g id="node43" class="node">
<title>proxsuite&#45;nlp</title>
<g id="a_node43"><a xlink:href="https://github.com/conda-forge/proxsuite-nlp-feedstock" xlink:title="proxsuite nlp">
<ellipse fill="#35b779" stroke="black" cx="878.64" cy="-90" rx="77.52" ry="18"/>
<text text-anchor="middle" x="878.64" y="-85.33" font-family="Times,serif" font-size="14.00">proxsuite nlp</text>
</a>
</g>
</g>
<!-- proxsuite&#45;nlp&#45;&gt;aligator -->
<g id="edge43" class="edge">
<title>proxsuite&#45;nlp&#45;&gt;aligator</title>
<path fill="none" stroke="black" d="M878.64,-71.7C878.64,-64.41 878.64,-55.73 878.64,-47.54"/>
<polygon fill="black" stroke="black" points="882.14,-47.62 878.64,-37.62 875.14,-47.62 882.14,-47.62"/>
</g>
</g>
</svg>
