<?xml version="1.0" encoding="UTF-8" standalone="no"?>
<!DOCTYPE svg PUBLIC "-//W3C//DTD SVG 1.1//EN"
 "http://www.w3.org/Graphics/SVG/1.1/DTD/svg11.dtd">
<!-- Generated by graphviz version 12.0.0 (20240803.0821)
 -->
<!-- Pages: 1 -->
<svg width="699pt" height="188pt"
 viewBox="0.00 0.00 698.79 188.00" xmlns="http://www.w3.org/2000/svg" xmlns:xlink="http://www.w3.org/1999/xlink">
<g id="graph0" class="graph" transform="scale(1 1) rotate(0) translate(4 184)">
<polygon fill="white" stroke="none" points="-4,4 -4,-184 694.79,-184 694.79,4 -4,4"/>
<!-- gnuradio&#45;osmosdr -->
<g id="node1" class="node">
<title>gnuradio&#45;osmosdr</title>
<g id="a_node1"><a xlink:href="https://github.com/conda-forge/gnuradio-osmosdr-feedstock" xlink:title="gnuradio osmosdr">
<ellipse fill="#fde725" stroke="black" cx="229.98" cy="-90" rx="101.71" ry="18"/>
<text text-anchor="middle" x="229.98" y="-85.33" font-family="Times,serif" font-size="14.00">gnuradio osmosdr</text>
</a>
</g>
</g>
<!-- gqrx -->
<g id="node2" class="node">
<title>gqrx</title>
<g id="a_node2"><a xlink:href="https://github.com/conda-forge/gqrx-feedstock" xlink:title="gqrx">
<ellipse fill="#fde725" stroke="black" cx="176.98" cy="-18" rx="34.37" ry="18"/>
<text text-anchor="middle" x="176.98" y="-13.32" font-family="Times,serif" font-size="14.00">gqrx</text>
</a>
</g>
</g>
<!-- gnuradio&#45;osmosdr&#45;&gt;gqrx -->
<g id="edge2" class="edge">
<title>gnuradio&#45;osmosdr&#45;&gt;gqrx</title>
<path fill="none" stroke="black" d="M216.87,-71.7C210.6,-63.4 202.95,-53.31 196.05,-44.19"/>
<polygon fill="black" stroke="black" points="198.94,-42.21 190.11,-36.35 193.36,-46.44 198.94,-42.21"/>
</g>
<!-- gnss&#45;sdr -->
<g id="node4" class="node">
<title>gnss&#45;sdr</title>
<g id="a_node4"><a xlink:href="https://github.com/conda-forge/gnss-sdr-feedstock" xlink:title="gnss sdr">
<ellipse fill="#fde725" stroke="black" cx="282.98" cy="-18" rx="53.84" ry="18"/>
<text text-anchor="middle" x="282.98" y="-13.32" font-family="Times,serif" font-size="14.00">gnss sdr</text>
</a>
</g>
</g>
<!-- gnuradio&#45;osmosdr&#45;&gt;gnss&#45;sdr -->
<g id="edge1" class="edge">
<title>gnuradio&#45;osmosdr&#45;&gt;gnss&#45;sdr</title>
<path fill="none" stroke="black" d="M243.08,-71.7C249.27,-63.52 256.78,-53.6 263.6,-44.58"/>
<polygon fill="black" stroke="black" points="266.23,-46.91 269.48,-36.83 260.65,-42.69 266.23,-46.91"/>
</g>
<!-- gnuradio&#45;iridium -->
<g id="node3" class="node">
<title>gnuradio&#45;iridium</title>
<g id="a_node3"><a xlink:href="https://github.com/conda-forge/gnuradio-iridium-feedstock/pull/40" xlink:title="gnuradio iridium ✓">
<ellipse fill="#31688e" stroke="black" cx="587.5" cy="-90" rx="103.29" ry="18"/>
<text text-anchor="middle" x="587.5" y="-85.33" font-family="Times,serif" font-size="14.00" fill="white">gnuradio iridium ✓</text>
</a>
</g>
</g>
<!-- gnuradio&#45;iqbalance -->
<g id="node5" class="node">
<title>gnuradio&#45;iqbalance</title>
<g id="a_node5"><a xlink:href="https://github.com/conda-forge/gnuradio-iqbalance-feedstock/pull/7" xlink:title="gnuradio iqbalance ❎">
<ellipse fill="#31688e" stroke="black" cx="353.98" cy="-162" rx="122.23" ry="18"/>
<text text-anchor="middle" x="353.98" y="-157.32" font-family="Times,serif" font-size="14.00" fill="white">gnuradio iqbalance ❎</text>
</a>
</g>
</g>
<!-- gnuradio&#45;iqbalance&#45;&gt;gnuradio&#45;osmosdr -->
<g id="edge3" class="edge">
<title>gnuradio&#45;iqbalance&#45;&gt;gnuradio&#45;osmosdr</title>
<path fill="none" stroke="black" d="M324.27,-144.23C307.71,-134.88 286.88,-123.12 269.01,-113.04"/>
<polygon fill="black" stroke="black" points="271.18,-110.24 260.75,-108.37 267.74,-116.34 271.18,-110.24"/>
</g>
<!-- gnuradio&#45;funcube -->
<g id="node6" class="node">
<title>gnuradio&#45;funcube</title>
<g id="a_node6"><a xlink:href="https://github.com/conda-forge/gnuradio-funcube-feedstock/pull/8" xlink:title="gnuradio funcube ✓">
<ellipse fill="#31688e" stroke="black" cx="106.98" cy="-162" rx="106.98" ry="18"/>
<text text-anchor="middle" x="106.98" y="-157.32" font-family="Times,serif" font-size="14.00" fill="white">gnuradio funcube ✓</text>
</a>
</g>
</g>
<!-- gnuradio&#45;funcube&#45;&gt;gnuradio&#45;osmosdr -->
<g id="edge4" class="edge">
<title>gnuradio&#45;funcube&#45;&gt;gnuradio&#45;osmosdr</title>
<path fill="none" stroke="black" d="M136.44,-144.23C152.72,-134.97 173.15,-123.34 190.76,-113.32"/>
<polygon fill="black" stroke="black" points="192.48,-116.37 199.44,-108.38 189.02,-110.28 192.48,-116.37"/>
</g>
</g>
</svg>
