<?xml version="1.0" encoding="UTF-8" standalone="no"?>
<!DOCTYPE svg PUBLIC "-//W3C//DTD SVG 1.1//EN"
 "http://www.w3.org/Graphics/SVG/1.1/DTD/svg11.dtd">
<!-- Generated by graphviz version 11.0.0 (20240519.1550)
 -->
<!-- Pages: 1 -->
<svg width="593pt" height="332pt"
 viewBox="0.00 0.00 593.18 332.00" xmlns="http://www.w3.org/2000/svg" xmlns:xlink="http://www.w3.org/1999/xlink">
<g id="graph0" class="graph" transform="scale(1 1) rotate(0) translate(4 328)">
<polygon fill="white" stroke="none" points="-4,4 -4,-328 589.18,-328 589.18,4 -4,4"/>
<!-- gst&#45;python -->
<g id="node1" class="node">
<title>gst&#45;python</title>
<g id="a_node1"><a xlink:href="https://github.com/conda-forge/gst-python-feedstock/pull/56" xlink:title="gst python ❎">
<ellipse fill="#31688e" stroke="black" cx="436.55" cy="-306" rx="80.14" ry="18"/>
<text text-anchor="middle" x="436.55" y="-301.32" font-family="Times,serif" font-size="14.00" fill="white">gst python ❎</text>
</a>
</g>
</g>
<!-- gstlal -->
<g id="node2" class="node">
<title>gstlal</title>
<g id="a_node2"><a xlink:href="https://github.com/conda-forge/gstlal-feedstock" xlink:title="gstlal">
<ellipse fill="#fde725" stroke="black" cx="223.55" cy="-234" rx="39.11" ry="18"/>
<text text-anchor="middle" x="223.55" y="-229.32" font-family="Times,serif" font-size="14.00">gstlal</text>
</a>
</g>
</g>
<!-- gst&#45;python&#45;&gt;gstlal -->
<g id="edge2" class="edge">
<title>gst&#45;python&#45;&gt;gstlal</title>
<path fill="none" stroke="black" d="M392.67,-290.58C355.37,-278.32 302.17,-260.84 265.44,-248.77"/>
<polygon fill="black" stroke="black" points="266.64,-245.48 256.05,-245.68 264.46,-252.13 266.64,-245.48"/>
</g>
<!-- gstlal&#45;ugly -->
<g id="node3" class="node">
<title>gstlal&#45;ugly</title>
<g id="a_node3"><a xlink:href="https://github.com/conda-forge/gstlal-ugly-feedstock" xlink:title="gstlal ugly">
<ellipse fill="#fde725" stroke="black" cx="315.55" cy="-162" rx="63.83" ry="18"/>
<text text-anchor="middle" x="315.55" y="-157.32" font-family="Times,serif" font-size="14.00">gstlal ugly</text>
</a>
</g>
</g>
<!-- gst&#45;python&#45;&gt;gstlal&#45;ugly -->
<g id="edge4" class="edge">
<title>gst&#45;python&#45;&gt;gstlal&#45;ugly</title>
<path fill="none" stroke="black" d="M421.95,-287.87C400.86,-263.11 361.69,-217.14 337.21,-188.42"/>
<polygon fill="black" stroke="black" points="339.95,-186.24 330.8,-180.9 334.63,-190.78 339.95,-186.24"/>
</g>
<!-- gstlal&#45;burst -->
<g id="node4" class="node">
<title>gstlal&#45;burst</title>
<g id="a_node4"><a xlink:href="https://github.com/conda-forge/gstlal-burst-feedstock" xlink:title="gstlal burst">
<ellipse fill="#fde725" stroke="black" cx="260.55" cy="-18" rx="69.1" ry="18"/>
<text text-anchor="middle" x="260.55" y="-13.32" font-family="Times,serif" font-size="14.00">gstlal burst</text>
</a>
</g>
</g>
<!-- gst&#45;python&#45;&gt;gstlal&#45;burst -->
<g id="edge3" class="edge">
<title>gst&#45;python&#45;&gt;gstlal&#45;burst</title>
<path fill="none" stroke="black" d="M440.9,-287.83C450.41,-245.93 468.4,-137.08 417.55,-72 398.07,-47.07 366.34,-33.77 336.49,-26.72"/>
<polygon fill="black" stroke="black" points="337.6,-23.38 327.09,-24.71 336.14,-30.23 337.6,-23.38"/>
</g>
<!-- adaflow -->
<g id="node7" class="node">
<title>adaflow</title>
<g id="a_node7"><a xlink:href="https://github.com/conda-forge/adaflow-feedstock" xlink:title="adaflow">
<ellipse fill="#fde725" stroke="black" cx="535.55" cy="-234" rx="49.63" ry="18"/>
<text text-anchor="middle" x="535.55" y="-229.32" font-family="Times,serif" font-size="14.00">adaflow</text>
</a>
</g>
</g>
<!-- gst&#45;python&#45;&gt;adaflow -->
<g id="edge1" class="edge">
<title>gst&#45;python&#45;&gt;adaflow</title>
<path fill="none" stroke="black" d="M460.01,-288.41C473.33,-278.99 490.17,-267.09 504.57,-256.91"/>
<polygon fill="black" stroke="black" points="506.23,-260.02 512.38,-251.38 502.19,-254.3 506.23,-260.02"/>
</g>
<!-- gstlal&#45;&gt;gstlal&#45;ugly -->
<g id="edge8" class="edge">
<title>gstlal&#45;&gt;gstlal&#45;ugly</title>
<path fill="none" stroke="black" d="M243.06,-218.15C255.23,-208.89 271.16,-196.78 284.98,-186.26"/>
<polygon fill="black" stroke="black" points="287.1,-189.05 292.94,-180.21 282.86,-183.48 287.1,-189.05"/>
</g>
<!-- gstlal&#45;&gt;gstlal&#45;burst -->
<g id="edge5" class="edge">
<title>gstlal&#45;&gt;gstlal&#45;burst</title>
<path fill="none" stroke="black" d="M190.45,-223.87C117.6,-202.19 -45.7,-144.01 12.55,-72 33.81,-45.72 118.77,-31.9 183.38,-25.05"/>
<polygon fill="black" stroke="black" points="183.67,-28.53 193.27,-24.04 182.97,-21.57 183.67,-28.53"/>
</g>
<!-- gstlal&#45;inspiral -->
<g id="node5" class="node">
<title>gstlal&#45;inspiral</title>
<g id="a_node5"><a xlink:href="https://github.com/conda-forge/gstlal-inspiral-feedstock" xlink:title="gstlal inspiral">
<ellipse fill="#fde725" stroke="black" cx="101.55" cy="-90" rx="80.14" ry="18"/>
<text text-anchor="middle" x="101.55" y="-85.33" font-family="Times,serif" font-size="14.00">gstlal inspiral</text>
</a>
</g>
</g>
<!-- gstlal&#45;&gt;gstlal&#45;inspiral -->
<g id="edge7" class="edge">
<title>gstlal&#45;&gt;gstlal&#45;inspiral</title>
<path fill="none" stroke="black" d="M209.56,-216.71C188.46,-192.15 148.32,-145.43 123.36,-116.38"/>
<polygon fill="black" stroke="black" points="126.3,-114.43 117.12,-109.13 120.99,-118.99 126.3,-114.43"/>
</g>
<!-- gstlal&#45;calibration -->
<g id="node6" class="node">
<title>gstlal&#45;calibration</title>
<g id="a_node6"><a xlink:href="https://github.com/conda-forge/gstlal-calibration-feedstock" xlink:title="gstlal calibration">
<ellipse fill="#fde725" stroke="black" cx="295.55" cy="-90" rx="95.93" ry="18"/>
<text text-anchor="middle" x="295.55" y="-85.33" font-family="Times,serif" font-size="14.00">gstlal calibration</text>
</a>
</g>
</g>
<!-- gstlal&#45;&gt;gstlal&#45;calibration -->
<g id="edge6" class="edge">
<title>gstlal&#45;&gt;gstlal&#45;calibration</title>
<path fill="none" stroke="black" d="M224.35,-215.6C225.86,-196.89 230.18,-166.77 242.55,-144 248.24,-133.54 256.63,-123.78 265.07,-115.57"/>
<polygon fill="black" stroke="black" points="267.31,-118.26 272.31,-108.92 262.57,-113.11 267.31,-118.26"/>
</g>
<!-- gstlal&#45;ugly&#45;&gt;gstlal&#45;burst -->
<g id="edge9" class="edge">
<title>gstlal&#45;ugly&#45;&gt;gstlal&#45;burst</title>
<path fill="none" stroke="black" d="M353.9,-147.26C371.44,-138.82 390.51,-126.1 400.55,-108 408.31,-94.01 409.64,-85.17 400.55,-72 385.11,-49.64 358.92,-36.7 333.35,-29.22"/>
<polygon fill="black" stroke="black" points="334.48,-25.9 323.92,-26.73 332.69,-32.67 334.48,-25.9"/>
</g>
<!-- gstlal&#45;ugly&#45;&gt;gstlal&#45;inspiral -->
<g id="edge11" class="edge">
<title>gstlal&#45;ugly&#45;&gt;gstlal&#45;inspiral</title>
<path fill="none" stroke="black" d="M275.05,-147.75C241.41,-136.75 193.25,-120.99 156.2,-108.87"/>
<polygon fill="black" stroke="black" points="157.6,-105.65 147.01,-105.87 155.43,-112.31 157.6,-105.65"/>
</g>
<!-- gstlal&#45;ugly&#45;&gt;gstlal&#45;calibration -->
<g id="edge10" class="edge">
<title>gstlal&#45;ugly&#45;&gt;gstlal&#45;calibration</title>
<path fill="none" stroke="black" d="M310.61,-143.7C308.48,-136.24 305.93,-127.32 303.54,-118.97"/>
<polygon fill="black" stroke="black" points="306.97,-118.21 300.85,-109.56 300.24,-120.14 306.97,-118.21"/>
</g>
<!-- gstlal&#45;inspiral&#45;&gt;gstlal&#45;burst -->
<g id="edge12" class="edge">
<title>gstlal&#45;inspiral&#45;&gt;gstlal&#45;burst</title>
<path fill="none" stroke="black" d="M136.84,-73.46C160.21,-63.17 191.07,-49.59 216.11,-38.56"/>
<polygon fill="black" stroke="black" points="217.33,-41.85 225.07,-34.62 214.51,-35.45 217.33,-41.85"/>
</g>
</g>
</svg>
