<?xml version="1.0" encoding="UTF-8" standalone="no"?>
<!DOCTYPE svg PUBLIC "-//W3C//DTD SVG 1.1//EN"
 "http://www.w3.org/Graphics/SVG/1.1/DTD/svg11.dtd">
<!-- Generated by graphviz version 9.0.0 (20231125.0833)
 -->
<!-- Pages: 1 -->
<svg width="1009pt" height="332pt"
 viewBox="0.00 0.00 1009.48 332.00" xmlns="http://www.w3.org/2000/svg" xmlns:xlink="http://www.w3.org/1999/xlink">
<g id="graph0" class="graph" transform="scale(1 1) rotate(0) translate(4 328)">
<polygon fill="white" stroke="none" points="-4,4 -4,-328 1005.48,-328 1005.48,4 -4,4"/>
<!-- wxpython -->
<g id="node1" class="node">
<title>wxpython</title>
<g id="a_node1"><a xlink:href="https://github.com/conda-forge/wxpython-feedstock/pull/120" xlink:title="wxpython ✓">
<ellipse fill="#31688e" stroke="black" cx="767.39" cy="-270" rx="68.04" ry="18"/>
<text text-anchor="middle" x="767.39" y="-265.32" font-family="Times,serif" font-size="14.00" fill="white">wxpython ✓</text>
</a>
</g>
</g>
<!-- kivy -->
<g id="node2" class="node">
<title>kivy</title>
<g id="a_node2"><a xlink:href="https://github.com/conda-forge/kivy-feedstock/pull/63" xlink:title="kivy ✓">
<ellipse fill="#31688e" stroke="black" cx="767.39" cy="-198" rx="39.63" ry="18"/>
<text text-anchor="middle" x="767.39" y="-193.32" font-family="Times,serif" font-size="14.00" fill="white">kivy ✓</text>
</a>
</g>
</g>
<!-- wxpython&#45;&gt;kivy -->
<!-- gst&#45;libav -->
<g id="node3" class="node">
<title>gst&#45;libav</title>
<g id="a_node3"><a xlink:href="https://github.com/conda-forge/gst-libav-feedstock" xlink:title="gst libav">
<ellipse fill="#35b779" stroke="black" cx="767.39" cy="-126" rx="54.36" ry="18"/>
<text text-anchor="middle" x="767.39" y="-121.33" font-family="Times,serif" font-size="14.00">gst libav</text>
</a>
</g>
</g>
<!-- kivy&#45;&gt;gst&#45;libav -->
<!-- xpra -->
<g id="node12" class="node">
<title>xpra</title>
<g id="a_node12"><a xlink:href="https://github.com/conda-forge/xpra-feedstock" xlink:title="xpra">
<ellipse fill="#35b779" stroke="black" cx="767.39" cy="-54" rx="33.85" ry="18"/>
<text text-anchor="middle" x="767.39" y="-49.33" font-family="Times,serif" font-size="14.00">xpra</text>
</a>
</g>
</g>
<!-- gst&#45;libav&#45;&gt;xpra -->
<!-- gst&#45;python -->
<g id="node4" class="node">
<title>gst&#45;python</title>
<g id="a_node4"><a xlink:href="https://github.com/conda-forge/gst-python-feedstock" xlink:title="gst python">
<ellipse fill="#ff8c00" stroke="black" cx="377.39" cy="-306" rx="64.89" ry="18"/>
<text text-anchor="middle" x="377.39" y="-301.32" font-family="Times,serif" font-size="14.00">gst python</text>
</a>
</g>
</g>
<!-- gstlal -->
<g id="node5" class="node">
<title>gstlal</title>
<g id="a_node5"><a xlink:href="https://github.com/conda-forge/gstlal-feedstock" xlink:title="gstlal">
<ellipse fill="#fde725" stroke="black" cx="276.39" cy="-234" rx="39.11" ry="18"/>
<text text-anchor="middle" x="276.39" y="-229.32" font-family="Times,serif" font-size="14.00">gstlal</text>
</a>
</g>
</g>
<!-- gst&#45;python&#45;&gt;gstlal -->
<g id="edge3" class="edge">
<title>gst&#45;python&#45;&gt;gstlal</title>
<path fill="none" stroke="black" d="M353.96,-288.76C339.91,-279.02 321.88,-266.53 306.74,-256.04"/>
<polygon fill="black" stroke="black" points="308.74,-253.16 298.53,-250.34 304.75,-258.92 308.74,-253.16"/>
</g>
<!-- gstlal&#45;ugly -->
<g id="node6" class="node">
<title>gstlal&#45;ugly</title>
<g id="a_node6"><a xlink:href="https://github.com/conda-forge/gstlal-ugly-feedstock" xlink:title="gstlal ugly">
<ellipse fill="#fde725" stroke="black" cx="368.39" cy="-162" rx="63.84" ry="18"/>
<text text-anchor="middle" x="368.39" y="-157.32" font-family="Times,serif" font-size="14.00">gstlal ugly</text>
</a>
</g>
</g>
<!-- gst&#45;python&#45;&gt;gstlal&#45;ugly -->
<g id="edge4" class="edge">
<title>gst&#45;python&#45;&gt;gstlal&#45;ugly</title>
<path fill="none" stroke="black" d="M376.28,-287.59C374.76,-263.61 372.01,-220.14 370.19,-191.42"/>
<polygon fill="black" stroke="black" points="373.69,-191.38 369.57,-181.62 366.71,-191.82 373.69,-191.38"/>
</g>
<!-- gstlal&#45;burst -->
<g id="node7" class="node">
<title>gstlal&#45;burst</title>
<g id="a_node7"><a xlink:href="https://github.com/conda-forge/gstlal-burst-feedstock" xlink:title="gstlal burst">
<ellipse fill="#fde725" stroke="black" cx="414.39" cy="-18" rx="69.1" ry="18"/>
<text text-anchor="middle" x="414.39" y="-13.32" font-family="Times,serif" font-size="14.00">gstlal burst</text>
</a>
</g>
</g>
<!-- gst&#45;python&#45;&gt;gstlal&#45;burst -->
<g id="edge5" class="edge">
<title>gst&#45;python&#45;&gt;gstlal&#45;burst</title>
<path fill="none" stroke="black" d="M388.88,-287.8C410.1,-254.73 454.37,-179.24 466.39,-108 469.05,-92.22 472.44,-86.81 466.39,-72 461.93,-61.08 454.01,-51.2 445.68,-43"/>
<polygon fill="black" stroke="black" points="448.19,-40.56 438.44,-36.41 443.48,-45.73 448.19,-40.56"/>
</g>
<!-- adaflow -->
<g id="node8" class="node">
<title>adaflow</title>
<g id="a_node8"><a xlink:href="https://github.com/conda-forge/adaflow-feedstock" xlink:title="adaflow">
<ellipse fill="#fde725" stroke="black" cx="584.39" cy="-234" rx="49.63" ry="18"/>
<text text-anchor="middle" x="584.39" y="-229.32" font-family="Times,serif" font-size="14.00">adaflow</text>
</a>
</g>
</g>
<!-- gst&#45;python&#45;&gt;adaflow -->
<g id="edge6" class="edge">
<title>gst&#45;python&#45;&gt;adaflow</title>
<path fill="none" stroke="black" d="M417.3,-291.5C451.9,-279.8 501.99,-262.87 538.29,-250.59"/>
<polygon fill="black" stroke="black" points="539.3,-253.94 547.65,-247.42 537.05,-247.31 539.3,-253.94"/>
</g>
<!-- gstlal&#45;&gt;gstlal&#45;ugly -->
<g id="edge7" class="edge">
<title>gstlal&#45;&gt;gstlal&#45;ugly</title>
<path fill="none" stroke="black" d="M295.9,-218.15C308.07,-208.89 323.99,-196.78 337.82,-186.26"/>
<polygon fill="black" stroke="black" points="339.93,-189.05 345.77,-180.21 335.7,-183.48 339.93,-189.05"/>
</g>
<!-- gstlal&#45;&gt;gstlal&#45;burst -->
<g id="edge8" class="edge">
<title>gstlal&#45;&gt;gstlal&#45;burst</title>
<path fill="none" stroke="black" d="M243.24,-223.98C168.9,-202.21 0,-143.29 61.39,-72 95.84,-31.99 240.81,-21.76 333.92,-19.39"/>
<polygon fill="black" stroke="black" points="333.86,-22.9 343.78,-19.17 333.7,-15.9 333.86,-22.9"/>
</g>
<!-- gstlal&#45;inspiral -->
<g id="node9" class="node">
<title>gstlal&#45;inspiral</title>
<g id="a_node9"><a xlink:href="https://github.com/conda-forge/gstlal-inspiral-feedstock" xlink:title="gstlal inspiral">
<ellipse fill="#fde725" stroke="black" cx="360.39" cy="-90" rx="80.14" ry="18"/>
<text text-anchor="middle" x="360.39" y="-85.33" font-family="Times,serif" font-size="14.00">gstlal inspiral</text>
</a>
</g>
</g>
<!-- gstlal&#45;&gt;gstlal&#45;inspiral -->
<g id="edge9" class="edge">
<title>gstlal&#45;&gt;gstlal&#45;inspiral</title>
<path fill="none" stroke="black" d="M276.73,-215.69C277.83,-196.79 281.79,-166.24 295.39,-144 302.43,-132.47 312.92,-122.33 323.41,-114.09"/>
<polygon fill="black" stroke="black" points="325.37,-117 331.34,-108.26 321.21,-111.37 325.37,-117"/>
</g>
<!-- gstlal&#45;calibration -->
<g id="node10" class="node">
<title>gstlal&#45;calibration</title>
<g id="a_node10"><a xlink:href="https://github.com/conda-forge/gstlal-calibration-feedstock" xlink:title="gstlal calibration">
<ellipse fill="#fde725" stroke="black" cx="166.39" cy="-90" rx="95.93" ry="18"/>
<text text-anchor="middle" x="166.39" y="-85.33" font-family="Times,serif" font-size="14.00">gstlal calibration</text>
</a>
</g>
</g>
<!-- gstlal&#45;&gt;gstlal&#45;calibration -->
<g id="edge10" class="edge">
<title>gstlal&#45;&gt;gstlal&#45;calibration</title>
<path fill="none" stroke="black" d="M263.77,-216.71C244.83,-192.26 208.86,-145.83 186.34,-116.76"/>
<polygon fill="black" stroke="black" points="189.36,-114.94 180.47,-109.18 183.82,-119.22 189.36,-114.94"/>
</g>
<!-- gstlal&#45;ugly&#45;&gt;gstlal&#45;burst -->
<g id="edge11" class="edge">
<title>gstlal&#45;ugly&#45;&gt;gstlal&#45;burst</title>
<path fill="none" stroke="black" d="M404.98,-146.82C421.7,-138.28 439.88,-125.59 449.39,-108 460.42,-87.6 449,-62.97 436.34,-44.8"/>
<polygon fill="black" stroke="black" points="439.41,-43.07 430.62,-37.15 433.81,-47.26 439.41,-43.07"/>
</g>
<!-- gstlal&#45;ugly&#45;&gt;gstlal&#45;inspiral -->
<g id="edge12" class="edge">
<title>gstlal&#45;ugly&#45;&gt;gstlal&#45;inspiral</title>
<path fill="none" stroke="black" d="M366.41,-143.7C365.58,-136.41 364.58,-127.73 363.65,-119.54"/>
<polygon fill="black" stroke="black" points="367.13,-119.15 362.51,-109.61 360.17,-119.94 367.13,-119.15"/>
</g>
<!-- gstlal&#45;ugly&#45;&gt;gstlal&#45;calibration -->
<g id="edge13" class="edge">
<title>gstlal&#45;ugly&#45;&gt;gstlal&#45;calibration</title>
<path fill="none" stroke="black" d="M329.44,-147.5C298.82,-136.89 255.77,-121.98 221.6,-110.13"/>
<polygon fill="black" stroke="black" points="222.87,-106.87 212.27,-106.9 220.58,-113.48 222.87,-106.87"/>
</g>
<!-- gstlal&#45;inspiral&#45;&gt;gstlal&#45;burst -->
<g id="edge14" class="edge">
<title>gstlal&#45;inspiral&#45;&gt;gstlal&#45;burst</title>
<path fill="none" stroke="black" d="M373.46,-72.05C379.76,-63.89 387.46,-53.91 394.47,-44.82"/>
<polygon fill="black" stroke="black" points="397.17,-47.04 400.51,-36.99 391.63,-42.77 397.17,-47.04"/>
</g>
<!-- gst&#45;plugins&#45;ugly -->
<g id="node11" class="node">
<title>gst&#45;plugins&#45;ugly</title>
<g id="a_node11"><a xlink:href="https://github.com/conda-forge/gst-plugins-ugly-feedstock/pull/43" xlink:title="gst plugins ugly ❎">
<ellipse fill="#31688e" stroke="black" cx="584.39" cy="-306" rx="106.98" ry="18"/>
<text text-anchor="middle" x="584.39" y="-301.32" font-family="Times,serif" font-size="14.00" fill="white">gst plugins ugly ❎</text>
</a>
</g>
</g>
<!-- gst&#45;plugins&#45;ugly&#45;&gt;adaflow -->
<g id="edge15" class="edge">
<title>gst&#45;plugins&#45;ugly&#45;&gt;adaflow</title>
<path fill="none" stroke="black" d="M584.39,-287.7C584.39,-280.41 584.39,-271.73 584.39,-263.54"/>
<polygon fill="black" stroke="black" points="587.89,-263.62 584.39,-253.62 580.89,-263.62 587.89,-263.62"/>
</g>
<!-- qt&#45;main -->
<g id="node13" class="node">
<title>qt&#45;main</title>
<g id="a_node13"><a xlink:href="https://github.com/conda-forge/qt-main-feedstock/pull/255" xlink:title="qt main ❎">
<ellipse fill="#31688e" stroke="black" cx="922.39" cy="-198" rx="64.89" ry="18"/>
<text text-anchor="middle" x="922.39" y="-193.32" font-family="Times,serif" font-size="14.00" fill="white">qt main ❎</text>
</a>
</g>
</g>
<!-- qt&#45;webengine -->
<g id="node14" class="node">
<title>qt&#45;webengine</title>
<g id="a_node14"><a xlink:href="https://github.com/conda-forge/qt-webengine-feedstock" xlink:title="qt webengine">
<ellipse fill="#fde725" stroke="black" cx="922.39" cy="-126" rx="79.09" ry="18"/>
<text text-anchor="middle" x="922.39" y="-121.33" font-family="Times,serif" font-size="14.00">qt webengine</text>
</a>
</g>
</g>
<!-- qt&#45;main&#45;&gt;qt&#45;webengine -->
<g id="edge17" class="edge">
<title>qt&#45;main&#45;&gt;qt&#45;webengine</title>
<path fill="none" stroke="black" d="M922.39,-179.7C922.39,-172.41 922.39,-163.73 922.39,-155.54"/>
<polygon fill="black" stroke="black" points="925.89,-155.62 922.39,-145.62 918.89,-155.62 925.89,-155.62"/>
</g>
</g>
</svg>
