<?xml version="1.0" encoding="UTF-8" standalone="no"?>
<!DOCTYPE svg PUBLIC "-//W3C//DTD SVG 1.1//EN"
 "http://www.w3.org/Graphics/SVG/1.1/DTD/svg11.dtd">
<!-- Generated by graphviz version 9.0.0 (20231125.0833)
 -->
<!-- Pages: 1 -->
<svg width="836pt" height="332pt"
 viewBox="0.00 0.00 835.59 332.00" xmlns="http://www.w3.org/2000/svg" xmlns:xlink="http://www.w3.org/1999/xlink">
<g id="graph0" class="graph" transform="scale(1 1) rotate(0) translate(4 328)">
<polygon fill="white" stroke="none" points="-4,4 -4,-328 831.59,-328 831.59,4 -4,4"/>
<!-- gst&#45;python -->
<g id="node1" class="node">
<title>gst&#45;python</title>
<g id="a_node1"><a xlink:href="https://github.com/conda-forge/gst-python-feedstock/pull/56" xlink:title="gst python ❎">
<ellipse fill="#31688e" stroke="black" cx="482.25" cy="-306" rx="80.14" ry="18"/>
<text text-anchor="middle" x="482.25" y="-301.32" font-family="Times,serif" font-size="14.00" fill="white">gst python ❎</text>
</a>
</g>
</g>
<!-- gstlal -->
<g id="node2" class="node">
<title>gstlal</title>
<g id="a_node2"><a xlink:href="https://github.com/conda-forge/gstlal-feedstock" xlink:title="gstlal">
<ellipse fill="#fde725" stroke="black" cx="269.25" cy="-234" rx="39.11" ry="18"/>
<text text-anchor="middle" x="269.25" y="-229.32" font-family="Times,serif" font-size="14.00">gstlal</text>
</a>
</g>
</g>
<!-- gst&#45;python&#45;&gt;gstlal -->
<g id="edge2" class="edge">
<title>gst&#45;python&#45;&gt;gstlal</title>
<path fill="none" stroke="black" d="M438.37,-290.58C401.07,-278.32 347.86,-260.84 311.14,-248.77"/>
<polygon fill="black" stroke="black" points="312.34,-245.48 301.74,-245.68 310.15,-252.13 312.34,-245.48"/>
</g>
<!-- gstlal&#45;ugly -->
<g id="node3" class="node">
<title>gstlal&#45;ugly</title>
<g id="a_node3"><a xlink:href="https://github.com/conda-forge/gstlal-ugly-feedstock" xlink:title="gstlal ugly">
<ellipse fill="#fde725" stroke="black" cx="361.25" cy="-162" rx="63.83" ry="18"/>
<text text-anchor="middle" x="361.25" y="-157.32" font-family="Times,serif" font-size="14.00">gstlal ugly</text>
</a>
</g>
</g>
<!-- gst&#45;python&#45;&gt;gstlal&#45;ugly -->
<g id="edge4" class="edge">
<title>gst&#45;python&#45;&gt;gstlal&#45;ugly</title>
<path fill="none" stroke="black" d="M467.65,-287.87C446.55,-263.11 407.38,-217.14 382.91,-188.42"/>
<polygon fill="black" stroke="black" points="385.65,-186.24 376.5,-180.9 380.32,-190.78 385.65,-186.24"/>
</g>
<!-- gstlal&#45;burst -->
<g id="node4" class="node">
<title>gstlal&#45;burst</title>
<g id="a_node4"><a xlink:href="https://github.com/conda-forge/gstlal-burst-feedstock" xlink:title="gstlal burst">
<ellipse fill="#fde725" stroke="black" cx="306.25" cy="-18" rx="69.1" ry="18"/>
<text text-anchor="middle" x="306.25" y="-13.32" font-family="Times,serif" font-size="14.00">gstlal burst</text>
</a>
</g>
</g>
<!-- gst&#45;python&#45;&gt;gstlal&#45;burst -->
<g id="edge3" class="edge">
<title>gst&#45;python&#45;&gt;gstlal&#45;burst</title>
<path fill="none" stroke="black" d="M486.59,-287.83C496.11,-245.93 514.1,-137.08 463.25,-72 443.76,-47.07 412.04,-33.77 382.19,-26.72"/>
<polygon fill="black" stroke="black" points="383.29,-23.38 372.78,-24.71 381.83,-30.23 383.29,-23.38"/>
</g>
<!-- adaflow -->
<g id="node8" class="node">
<title>adaflow</title>
<g id="a_node8"><a xlink:href="https://github.com/conda-forge/adaflow-feedstock" xlink:title="adaflow">
<ellipse fill="#fde725" stroke="black" cx="581.25" cy="-234" rx="49.63" ry="18"/>
<text text-anchor="middle" x="581.25" y="-229.32" font-family="Times,serif" font-size="14.00">adaflow</text>
</a>
</g>
</g>
<!-- gst&#45;python&#45;&gt;adaflow -->
<g id="edge1" class="edge">
<title>gst&#45;python&#45;&gt;adaflow</title>
<path fill="none" stroke="black" d="M505.71,-288.41C519.03,-278.99 535.87,-267.09 550.26,-256.91"/>
<polygon fill="black" stroke="black" points="551.93,-260.02 558.07,-251.38 547.89,-254.3 551.93,-260.02"/>
</g>
<!-- gstlal&#45;&gt;gstlal&#45;ugly -->
<g id="edge8" class="edge">
<title>gstlal&#45;&gt;gstlal&#45;ugly</title>
<path fill="none" stroke="black" d="M288.76,-218.15C300.93,-208.89 316.85,-196.78 330.67,-186.26"/>
<polygon fill="black" stroke="black" points="332.79,-189.05 338.63,-180.21 328.55,-183.48 332.79,-189.05"/>
</g>
<!-- gstlal&#45;&gt;gstlal&#45;burst -->
<g id="edge5" class="edge">
<title>gstlal&#45;&gt;gstlal&#45;burst</title>
<path fill="none" stroke="black" d="M236.15,-223.87C163.29,-202.19 0,-144.01 58.25,-72 79.5,-45.72 164.46,-31.9 229.07,-25.05"/>
<polygon fill="black" stroke="black" points="229.37,-28.53 238.96,-24.04 228.66,-21.57 229.37,-28.53"/>
</g>
<!-- gstlal&#45;inspiral -->
<g id="node5" class="node">
<title>gstlal&#45;inspiral</title>
<g id="a_node5"><a xlink:href="https://github.com/conda-forge/gstlal-inspiral-feedstock" xlink:title="gstlal inspiral">
<ellipse fill="#fde725" stroke="black" cx="147.25" cy="-90" rx="80.14" ry="18"/>
<text text-anchor="middle" x="147.25" y="-85.33" font-family="Times,serif" font-size="14.00">gstlal inspiral</text>
</a>
</g>
</g>
<!-- gstlal&#45;&gt;gstlal&#45;inspiral -->
<g id="edge7" class="edge">
<title>gstlal&#45;&gt;gstlal&#45;inspiral</title>
<path fill="none" stroke="black" d="M255.25,-216.71C234.15,-192.15 194.01,-145.43 169.05,-116.38"/>
<polygon fill="black" stroke="black" points="171.99,-114.43 162.82,-109.13 166.68,-118.99 171.99,-114.43"/>
</g>
<!-- gstlal&#45;calibration -->
<g id="node6" class="node">
<title>gstlal&#45;calibration</title>
<g id="a_node6"><a xlink:href="https://github.com/conda-forge/gstlal-calibration-feedstock" xlink:title="gstlal calibration">
<ellipse fill="#fde725" stroke="black" cx="341.25" cy="-90" rx="95.93" ry="18"/>
<text text-anchor="middle" x="341.25" y="-85.33" font-family="Times,serif" font-size="14.00">gstlal calibration</text>
</a>
</g>
</g>
<!-- gstlal&#45;&gt;gstlal&#45;calibration -->
<g id="edge6" class="edge">
<title>gstlal&#45;&gt;gstlal&#45;calibration</title>
<path fill="none" stroke="black" d="M270.05,-215.6C271.55,-196.89 275.87,-166.77 288.25,-144 293.93,-133.54 302.32,-123.78 310.76,-115.57"/>
<polygon fill="black" stroke="black" points="313,-118.26 318,-108.92 308.27,-113.11 313,-118.26"/>
</g>
<!-- gstlal&#45;ugly&#45;&gt;gstlal&#45;burst -->
<g id="edge9" class="edge">
<title>gstlal&#45;ugly&#45;&gt;gstlal&#45;burst</title>
<path fill="none" stroke="black" d="M399.59,-147.26C417.13,-138.82 436.2,-126.1 446.25,-108 454.01,-94.01 455.34,-85.17 446.25,-72 430.8,-49.64 404.62,-36.7 379.04,-29.22"/>
<polygon fill="black" stroke="black" points="380.18,-25.9 369.62,-26.73 378.39,-32.67 380.18,-25.9"/>
</g>
<!-- gstlal&#45;ugly&#45;&gt;gstlal&#45;inspiral -->
<g id="edge11" class="edge">
<title>gstlal&#45;ugly&#45;&gt;gstlal&#45;inspiral</title>
<path fill="none" stroke="black" d="M320.74,-147.75C287.11,-136.75 238.94,-120.99 201.89,-108.87"/>
<polygon fill="black" stroke="black" points="203.3,-105.65 192.71,-105.87 201.12,-112.31 203.3,-105.65"/>
</g>
<!-- gstlal&#45;ugly&#45;&gt;gstlal&#45;calibration -->
<g id="edge10" class="edge">
<title>gstlal&#45;ugly&#45;&gt;gstlal&#45;calibration</title>
<path fill="none" stroke="black" d="M356.3,-143.7C354.17,-136.24 351.62,-127.32 349.24,-118.97"/>
<polygon fill="black" stroke="black" points="352.66,-118.21 346.55,-109.56 345.93,-120.14 352.66,-118.21"/>
</g>
<!-- gstlal&#45;inspiral&#45;&gt;gstlal&#45;burst -->
<g id="edge12" class="edge">
<title>gstlal&#45;inspiral&#45;&gt;gstlal&#45;burst</title>
<path fill="none" stroke="black" d="M182.53,-73.46C205.91,-63.17 236.76,-49.59 261.81,-38.56"/>
<polygon fill="black" stroke="black" points="263.02,-41.85 270.76,-34.62 260.2,-35.45 263.02,-41.85"/>
</g>
<!-- qt&#45;webengine -->
<g id="node7" class="node">
<title>qt&#45;webengine</title>
<g id="a_node7"><a xlink:href="https://github.com/conda-forge/qt-webengine-feedstock/pull/52" xlink:title="qt webengine ❎">
<ellipse fill="#31688e" stroke="black" cx="733.25" cy="-162" rx="94.35" ry="18"/>
<text text-anchor="middle" x="733.25" y="-157.32" font-family="Times,serif" font-size="14.00" fill="white">qt webengine ❎</text>
</a>
</g>
</g>
</g>
</svg>
