<?xml version="1.0" encoding="UTF-8" standalone="no"?>
<!DOCTYPE svg PUBLIC "-//W3C//DTD SVG 1.1//EN"
 "http://www.w3.org/Graphics/SVG/1.1/DTD/svg11.dtd">
<!-- Generated by graphviz version 9.0.0 (20231125.0833)
 -->
<!-- Pages: 1 -->
<svg width="1106pt" height="404pt"
 viewBox="0.00 0.00 1106.11 404.00" xmlns="http://www.w3.org/2000/svg" xmlns:xlink="http://www.w3.org/1999/xlink">
<g id="graph0" class="graph" transform="scale(1 1) rotate(0) translate(4 400)">
<polygon fill="white" stroke="none" points="-4,4 -4,-400 1102.11,-400 1102.11,4 -4,4"/>
<!-- wxpython -->
<g id="node1" class="node">
<title>wxpython</title>
<g id="a_node1"><a xlink:href="https://github.com/conda-forge/wxpython-feedstock/pull/120" xlink:title="wxpython ✓">
<ellipse fill="#31688e" stroke="black" cx="864.02" cy="-306" rx="68.04" ry="18"/>
<text text-anchor="middle" x="864.02" y="-301.32" font-family="Times,serif" font-size="14.00" fill="white">wxpython ✓</text>
</a>
</g>
</g>
<!-- kivy -->
<g id="node2" class="node">
<title>kivy</title>
<g id="a_node2"><a xlink:href="https://github.com/conda-forge/kivy-feedstock" xlink:title="kivy">
<ellipse fill="#35b779" stroke="black" cx="864.02" cy="-234" rx="31.74" ry="18"/>
<text text-anchor="middle" x="864.02" y="-229.32" font-family="Times,serif" font-size="14.00">kivy</text>
</a>
</g>
</g>
<!-- wxpython&#45;&gt;kivy -->
<!-- gst&#45;libav -->
<g id="node3" class="node">
<title>gst&#45;libav</title>
<g id="a_node3"><a xlink:href="https://github.com/conda-forge/gst-libav-feedstock" xlink:title="gst libav">
<ellipse fill="#35b779" stroke="black" cx="864.02" cy="-162" rx="54.36" ry="18"/>
<text text-anchor="middle" x="864.02" y="-157.32" font-family="Times,serif" font-size="14.00">gst libav</text>
</a>
</g>
</g>
<!-- kivy&#45;&gt;gst&#45;libav -->
<!-- xpra -->
<g id="node13" class="node">
<title>xpra</title>
<g id="a_node13"><a xlink:href="https://github.com/conda-forge/xpra-feedstock" xlink:title="xpra">
<ellipse fill="#35b779" stroke="black" cx="864.02" cy="-90" rx="33.85" ry="18"/>
<text text-anchor="middle" x="864.02" y="-85.33" font-family="Times,serif" font-size="14.00">xpra</text>
</a>
</g>
</g>
<!-- gst&#45;libav&#45;&gt;xpra -->
<!-- gst&#45;python -->
<g id="node4" class="node">
<title>gst&#45;python</title>
<g id="a_node4"><a xlink:href="https://github.com/conda-forge/gst-python-feedstock" xlink:title="gst python">
<ellipse fill="#ff8c00" stroke="black" cx="393.02" cy="-306" rx="64.89" ry="18"/>
<text text-anchor="middle" x="393.02" y="-301.32" font-family="Times,serif" font-size="14.00">gst python</text>
</a>
</g>
</g>
<!-- gstlal -->
<g id="node5" class="node">
<title>gstlal</title>
<g id="a_node5"><a xlink:href="https://github.com/conda-forge/gstlal-feedstock" xlink:title="gstlal">
<ellipse fill="#fde725" stroke="black" cx="274.02" cy="-234" rx="39.11" ry="18"/>
<text text-anchor="middle" x="274.02" y="-229.32" font-family="Times,serif" font-size="14.00">gstlal</text>
</a>
</g>
</g>
<!-- gst&#45;python&#45;&gt;gstlal -->
<g id="edge3" class="edge">
<title>gst&#45;python&#45;&gt;gstlal</title>
<path fill="none" stroke="black" d="M366.32,-289.29C348.86,-279.02 325.91,-265.52 307.27,-254.56"/>
<polygon fill="black" stroke="black" points="309.12,-251.58 298.73,-249.53 305.57,-257.62 309.12,-251.58"/>
</g>
<!-- gstlal&#45;ugly -->
<g id="node6" class="node">
<title>gstlal&#45;ugly</title>
<g id="a_node6"><a xlink:href="https://github.com/conda-forge/gstlal-ugly-feedstock" xlink:title="gstlal ugly">
<ellipse fill="#fde725" stroke="black" cx="366.02" cy="-162" rx="63.84" ry="18"/>
<text text-anchor="middle" x="366.02" y="-157.32" font-family="Times,serif" font-size="14.00">gstlal ugly</text>
</a>
</g>
</g>
<!-- gst&#45;python&#45;&gt;gstlal&#45;ugly -->
<g id="edge4" class="edge">
<title>gst&#45;python&#45;&gt;gstlal&#45;ugly</title>
<path fill="none" stroke="black" d="M389.71,-287.59C385.15,-263.61 376.89,-220.14 371.43,-191.42"/>
<polygon fill="black" stroke="black" points="374.86,-190.77 369.56,-181.6 367.99,-192.08 374.86,-190.77"/>
</g>
<!-- gstlal&#45;burst -->
<g id="node7" class="node">
<title>gstlal&#45;burst</title>
<g id="a_node7"><a xlink:href="https://github.com/conda-forge/gstlal-burst-feedstock" xlink:title="gstlal burst">
<ellipse fill="#fde725" stroke="black" cx="414.02" cy="-18" rx="69.1" ry="18"/>
<text text-anchor="middle" x="414.02" y="-13.32" font-family="Times,serif" font-size="14.00">gstlal burst</text>
</a>
</g>
</g>
<!-- gst&#45;python&#45;&gt;gstlal&#45;burst -->
<g id="edge5" class="edge">
<title>gst&#45;python&#45;&gt;gstlal&#45;burst</title>
<path fill="none" stroke="black" d="M401.72,-287.93C418.23,-254.47 453.56,-177.47 466.02,-108 468.85,-92.25 472.07,-86.81 466.02,-72 461.56,-61.08 453.65,-51.2 445.32,-43"/>
<polygon fill="black" stroke="black" points="447.83,-40.56 438.08,-36.41 443.12,-45.73 447.83,-40.56"/>
</g>
<!-- adaflow -->
<g id="node8" class="node">
<title>adaflow</title>
<g id="a_node8"><a xlink:href="https://github.com/conda-forge/adaflow-feedstock" xlink:title="adaflow">
<ellipse fill="#fde725" stroke="black" cx="584.02" cy="-234" rx="49.63" ry="18"/>
<text text-anchor="middle" x="584.02" y="-229.32" font-family="Times,serif" font-size="14.00">adaflow</text>
</a>
</g>
</g>
<!-- gst&#45;python&#45;&gt;adaflow -->
<g id="edge6" class="edge">
<title>gst&#45;python&#45;&gt;adaflow</title>
<path fill="none" stroke="black" d="M431.21,-291C462.42,-279.57 506.57,-263.39 539.39,-251.36"/>
<polygon fill="black" stroke="black" points="540.45,-254.7 548.64,-247.97 538.04,-248.12 540.45,-254.7"/>
</g>
<!-- gstlal&#45;&gt;gstlal&#45;ugly -->
<g id="edge7" class="edge">
<title>gstlal&#45;&gt;gstlal&#45;ugly</title>
<path fill="none" stroke="black" d="M293.53,-218.15C305.7,-208.89 321.63,-196.78 335.45,-186.26"/>
<polygon fill="black" stroke="black" points="337.57,-189.05 343.41,-180.21 333.33,-183.48 337.57,-189.05"/>
</g>
<!-- gstlal&#45;&gt;gstlal&#45;burst -->
<g id="edge8" class="edge">
<title>gstlal&#45;&gt;gstlal&#45;burst</title>
<path fill="none" stroke="black" d="M241.16,-223.92C167.45,-202.03 0,-142.87 61.02,-72 95.47,-31.99 240.45,-21.76 333.56,-19.39"/>
<polygon fill="black" stroke="black" points="333.49,-22.9 343.41,-19.17 333.34,-15.9 333.49,-22.9"/>
</g>
<!-- gstlal&#45;inspiral -->
<g id="node9" class="node">
<title>gstlal&#45;inspiral</title>
<g id="a_node9"><a xlink:href="https://github.com/conda-forge/gstlal-inspiral-feedstock" xlink:title="gstlal inspiral">
<ellipse fill="#fde725" stroke="black" cx="360.02" cy="-90" rx="80.14" ry="18"/>
<text text-anchor="middle" x="360.02" y="-85.33" font-family="Times,serif" font-size="14.00">gstlal inspiral</text>
</a>
</g>
</g>
<!-- gstlal&#45;&gt;gstlal&#45;inspiral -->
<g id="edge9" class="edge">
<title>gstlal&#45;&gt;gstlal&#45;inspiral</title>
<path fill="none" stroke="black" d="M274.3,-215.65C275.35,-196.72 279.26,-166.14 293.02,-144 300.36,-132.19 311.31,-121.92 322.24,-113.65"/>
<polygon fill="black" stroke="black" points="323.98,-116.71 330.1,-108.06 319.93,-111 323.98,-116.71"/>
</g>
<!-- gstlal&#45;calibration -->
<g id="node10" class="node">
<title>gstlal&#45;calibration</title>
<g id="a_node10"><a xlink:href="https://github.com/conda-forge/gstlal-calibration-feedstock" xlink:title="gstlal calibration">
<ellipse fill="#fde725" stroke="black" cx="166.02" cy="-90" rx="95.93" ry="18"/>
<text text-anchor="middle" x="166.02" y="-85.33" font-family="Times,serif" font-size="14.00">gstlal calibration</text>
</a>
</g>
</g>
<!-- gstlal&#45;&gt;gstlal&#45;calibration -->
<g id="edge10" class="edge">
<title>gstlal&#45;&gt;gstlal&#45;calibration</title>
<path fill="none" stroke="black" d="M261.63,-216.71C243.12,-192.36 208.03,-146.24 185.9,-117.14"/>
<polygon fill="black" stroke="black" points="188.69,-115.02 179.85,-109.18 183.12,-119.26 188.69,-115.02"/>
</g>
<!-- gstlal&#45;ugly&#45;&gt;gstlal&#45;burst -->
<g id="edge11" class="edge">
<title>gstlal&#45;ugly&#45;&gt;gstlal&#45;burst</title>
<path fill="none" stroke="black" d="M403.49,-147.04C420.62,-138.55 439.25,-125.84 449.02,-108 460.16,-87.67 448.73,-63.03 436.04,-44.84"/>
<polygon fill="black" stroke="black" points="439.11,-43.09 430.31,-37.18 433.5,-47.28 439.11,-43.09"/>
</g>
<!-- gstlal&#45;ugly&#45;&gt;gstlal&#45;inspiral -->
<g id="edge12" class="edge">
<title>gstlal&#45;ugly&#45;&gt;gstlal&#45;inspiral</title>
<path fill="none" stroke="black" d="M364.54,-143.7C363.91,-136.41 363.17,-127.73 362.47,-119.54"/>
<polygon fill="black" stroke="black" points="365.96,-119.28 361.62,-109.61 358.98,-119.87 365.96,-119.28"/>
</g>
<!-- gstlal&#45;ugly&#45;&gt;gstlal&#45;calibration -->
<g id="edge13" class="edge">
<title>gstlal&#45;ugly&#45;&gt;gstlal&#45;calibration</title>
<path fill="none" stroke="black" d="M326.99,-147.34C296.62,-136.71 254.13,-121.84 220.43,-110.04"/>
<polygon fill="black" stroke="black" points="221.85,-106.83 211.26,-106.83 219.54,-113.44 221.85,-106.83"/>
</g>
<!-- gstlal&#45;inspiral&#45;&gt;gstlal&#45;burst -->
<g id="edge14" class="edge">
<title>gstlal&#45;inspiral&#45;&gt;gstlal&#45;burst</title>
<path fill="none" stroke="black" d="M373.09,-72.05C379.4,-63.89 387.09,-53.91 394.1,-44.82"/>
<polygon fill="black" stroke="black" points="396.81,-47.04 400.15,-36.99 391.27,-42.77 396.81,-47.04"/>
</g>
<!-- gst&#45;plugins&#45;ugly -->
<g id="node11" class="node">
<title>gst&#45;plugins&#45;ugly</title>
<g id="a_node11"><a xlink:href="https://github.com/conda-forge/gst-plugins-ugly-feedstock" xlink:title="gst plugins ugly">
<ellipse fill="#35b779" stroke="black" cx="580.02" cy="-306" rx="91.72" ry="18"/>
<text text-anchor="middle" x="580.02" y="-301.32" font-family="Times,serif" font-size="14.00">gst plugins ugly</text>
</a>
</g>
</g>
<!-- gst&#45;plugins&#45;ugly&#45;&gt;adaflow -->
<g id="edge15" class="edge">
<title>gst&#45;plugins&#45;ugly&#45;&gt;adaflow</title>
<path fill="none" stroke="black" d="M581.01,-287.7C581.43,-280.41 581.92,-271.73 582.39,-263.54"/>
<polygon fill="black" stroke="black" points="585.88,-263.8 582.96,-253.62 578.89,-263.4 585.88,-263.8"/>
</g>
<!-- gst&#45;plugins&#45;bad -->
<g id="node12" class="node">
<title>gst&#45;plugins&#45;bad</title>
<g id="a_node12"><a xlink:href="https://github.com/conda-forge/gst-plugins-bad-feedstock" xlink:title="gst plugins bad">
<ellipse fill="#35b779" stroke="black" cx="700.02" cy="-378" rx="88.56" ry="18"/>
<text text-anchor="middle" x="700.02" y="-373.32" font-family="Times,serif" font-size="14.00">gst plugins bad</text>
</a>
</g>
</g>
<!-- gst&#45;plugins&#45;bad&#45;&gt;adaflow -->
<g id="edge16" class="edge">
<title>gst&#45;plugins&#45;bad&#45;&gt;adaflow</title>
<path fill="none" stroke="black" d="M700.44,-359.53C700.03,-340.21 696.7,-309.03 681.02,-288 668.56,-271.28 649.2,-259.2 631.04,-250.84"/>
<polygon fill="black" stroke="black" points="632.51,-247.67 621.94,-246.94 629.75,-254.1 632.51,-247.67"/>
</g>
<!-- qt&#45;main -->
<g id="node14" class="node">
<title>qt&#45;main</title>
<g id="a_node14"><a xlink:href="https://github.com/conda-forge/qt-main-feedstock" xlink:title="qt main">
<ellipse fill="#ff8c00" stroke="black" cx="1019.02" cy="-234" rx="49.63" ry="18"/>
<text text-anchor="middle" x="1019.02" y="-229.32" font-family="Times,serif" font-size="14.00">qt main</text>
</a>
</g>
</g>
<!-- qt&#45;webengine -->
<g id="node15" class="node">
<title>qt&#45;webengine</title>
<g id="a_node15"><a xlink:href="https://github.com/conda-forge/qt-webengine-feedstock" xlink:title="qt webengine">
<ellipse fill="#fde725" stroke="black" cx="1019.02" cy="-162" rx="79.09" ry="18"/>
<text text-anchor="middle" x="1019.02" y="-157.32" font-family="Times,serif" font-size="14.00">qt webengine</text>
</a>
</g>
</g>
<!-- qt&#45;main&#45;&gt;qt&#45;webengine -->
<g id="edge18" class="edge">
<title>qt&#45;main&#45;&gt;qt&#45;webengine</title>
<path fill="none" stroke="black" d="M1019.02,-215.7C1019.02,-208.41 1019.02,-199.73 1019.02,-191.54"/>
<polygon fill="black" stroke="black" points="1022.52,-191.62 1019.02,-181.62 1015.52,-191.62 1022.52,-191.62"/>
</g>
</g>
</svg>
