<?xml version="1.0" encoding="UTF-8" standalone="no"?>
<!DOCTYPE svg PUBLIC "-//W3C//DTD SVG 1.1//EN"
 "http://www.w3.org/Graphics/SVG/1.1/DTD/svg11.dtd">
<!-- Generated by graphviz version 9.0.0 (20231125.0833)
 -->
<!-- Pages: 1 -->
<svg width="949pt" height="376pt"
 viewBox="0.00 0.00 949.29 376.00" xmlns="http://www.w3.org/2000/svg" xmlns:xlink="http://www.w3.org/1999/xlink">
<g id="graph0" class="graph" transform="scale(1 1) rotate(0) translate(4 372)">
<polygon fill="white" stroke="none" points="-4,4 -4,-372 945.29,-372 945.29,4 -4,4"/>
<!-- wxpython -->
<g id="node1" class="node">
<title>wxpython</title>
<g id="a_node1"><a xlink:href="https://github.com/conda-forge/wxpython-feedstock/pull/120" xlink:title="wxpython ✓">
<ellipse fill="#31688e" stroke="black" cx="873.25" cy="-206" rx="68.04" ry="18"/>
<text text-anchor="middle" x="873.25" y="-201.32" font-family="Times,serif" font-size="14.00" fill="white">wxpython ✓</text>
</a>
</g>
</g>
<!-- kivy -->
<g id="node2" class="node">
<title>kivy</title>
<g id="a_node2"><a xlink:href="https://github.com/conda-forge/kivy-feedstock/pull/63" xlink:title="kivy ✓">
<ellipse fill="#31688e" stroke="black" cx="717.25" cy="-18" rx="39.63" ry="18"/>
<text text-anchor="middle" x="717.25" y="-13.32" font-family="Times,serif" font-size="14.00" fill="white">kivy ✓</text>
</a>
</g>
</g>
<!-- gst&#45;python -->
<g id="node3" class="node">
<title>gst&#45;python</title>
<g id="a_node3"><a xlink:href="https://github.com/conda-forge/gst-python-feedstock/pull/56" xlink:title="gst python ❎">
<ellipse fill="#31688e" stroke="black" cx="482.25" cy="-350" rx="80.14" ry="18"/>
<text text-anchor="middle" x="482.25" y="-345.32" font-family="Times,serif" font-size="14.00" fill="white">gst python ❎</text>
</a>
</g>
</g>
<!-- gstlal -->
<g id="node4" class="node">
<title>gstlal</title>
<g id="a_node4"><a xlink:href="https://github.com/conda-forge/gstlal-feedstock" xlink:title="gstlal">
<ellipse fill="#fde725" stroke="black" cx="269.25" cy="-278" rx="39.11" ry="18"/>
<text text-anchor="middle" x="269.25" y="-273.32" font-family="Times,serif" font-size="14.00">gstlal</text>
</a>
</g>
</g>
<!-- gst&#45;python&#45;&gt;gstlal -->
<g id="edge2" class="edge">
<title>gst&#45;python&#45;&gt;gstlal</title>
<path fill="none" stroke="black" d="M438.37,-334.58C401.07,-322.32 347.86,-304.84 311.14,-292.77"/>
<polygon fill="black" stroke="black" points="312.34,-289.48 301.74,-289.68 310.15,-296.13 312.34,-289.48"/>
</g>
<!-- gstlal&#45;ugly -->
<g id="node5" class="node">
<title>gstlal&#45;ugly</title>
<g id="a_node5"><a xlink:href="https://github.com/conda-forge/gstlal-ugly-feedstock" xlink:title="gstlal ugly">
<ellipse fill="#fde725" stroke="black" cx="361.25" cy="-206" rx="63.83" ry="18"/>
<text text-anchor="middle" x="361.25" y="-201.32" font-family="Times,serif" font-size="14.00">gstlal ugly</text>
</a>
</g>
</g>
<!-- gst&#45;python&#45;&gt;gstlal&#45;ugly -->
<g id="edge4" class="edge">
<title>gst&#45;python&#45;&gt;gstlal&#45;ugly</title>
<path fill="none" stroke="black" d="M467.65,-331.87C446.55,-307.11 407.38,-261.14 382.91,-232.42"/>
<polygon fill="black" stroke="black" points="385.65,-230.24 376.5,-224.9 380.32,-234.78 385.65,-230.24"/>
</g>
<!-- gstlal&#45;burst -->
<g id="node6" class="node">
<title>gstlal&#45;burst</title>
<g id="a_node6"><a xlink:href="https://github.com/conda-forge/gstlal-burst-feedstock" xlink:title="gstlal burst">
<ellipse fill="#fde725" stroke="black" cx="306.25" cy="-62" rx="69.1" ry="18"/>
<text text-anchor="middle" x="306.25" y="-57.33" font-family="Times,serif" font-size="14.00">gstlal burst</text>
</a>
</g>
</g>
<!-- gst&#45;python&#45;&gt;gstlal&#45;burst -->
<g id="edge3" class="edge">
<title>gst&#45;python&#45;&gt;gstlal&#45;burst</title>
<path fill="none" stroke="black" d="M486.59,-331.83C496.11,-289.93 514.1,-181.08 463.25,-116 443.76,-91.07 412.04,-77.77 382.19,-70.72"/>
<polygon fill="black" stroke="black" points="383.29,-67.38 372.78,-68.71 381.83,-74.23 383.29,-67.38"/>
</g>
<!-- adaflow -->
<g id="node11" class="node">
<title>adaflow</title>
<g id="a_node11"><a xlink:href="https://github.com/conda-forge/adaflow-feedstock" xlink:title="adaflow">
<ellipse fill="#fde725" stroke="black" cx="581.25" cy="-278" rx="49.63" ry="18"/>
<text text-anchor="middle" x="581.25" y="-273.32" font-family="Times,serif" font-size="14.00">adaflow</text>
</a>
</g>
</g>
<!-- gst&#45;python&#45;&gt;adaflow -->
<g id="edge1" class="edge">
<title>gst&#45;python&#45;&gt;adaflow</title>
<path fill="none" stroke="black" d="M505.71,-332.41C519.03,-322.99 535.87,-311.09 550.26,-300.91"/>
<polygon fill="black" stroke="black" points="551.93,-304.02 558.07,-295.38 547.89,-298.3 551.93,-304.02"/>
</g>
<!-- gstlal&#45;&gt;gstlal&#45;ugly -->
<g id="edge8" class="edge">
<title>gstlal&#45;&gt;gstlal&#45;ugly</title>
<path fill="none" stroke="black" d="M288.76,-262.15C300.93,-252.89 316.85,-240.78 330.67,-230.26"/>
<polygon fill="black" stroke="black" points="332.79,-233.05 338.63,-224.21 328.55,-227.48 332.79,-233.05"/>
</g>
<!-- gstlal&#45;&gt;gstlal&#45;burst -->
<g id="edge5" class="edge">
<title>gstlal&#45;&gt;gstlal&#45;burst</title>
<path fill="none" stroke="black" d="M236.15,-267.87C163.29,-246.19 0,-188.01 58.25,-116 79.5,-89.72 164.46,-75.9 229.07,-69.05"/>
<polygon fill="black" stroke="black" points="229.37,-72.53 238.96,-68.04 228.66,-65.57 229.37,-72.53"/>
</g>
<!-- gstlal&#45;inspiral -->
<g id="node7" class="node">
<title>gstlal&#45;inspiral</title>
<g id="a_node7"><a xlink:href="https://github.com/conda-forge/gstlal-inspiral-feedstock" xlink:title="gstlal inspiral">
<ellipse fill="#fde725" stroke="black" cx="147.25" cy="-134" rx="80.14" ry="18"/>
<text text-anchor="middle" x="147.25" y="-129.32" font-family="Times,serif" font-size="14.00">gstlal inspiral</text>
</a>
</g>
</g>
<!-- gstlal&#45;&gt;gstlal&#45;inspiral -->
<g id="edge7" class="edge">
<title>gstlal&#45;&gt;gstlal&#45;inspiral</title>
<path fill="none" stroke="black" d="M255.25,-260.71C234.15,-236.15 194.01,-189.43 169.05,-160.38"/>
<polygon fill="black" stroke="black" points="171.99,-158.43 162.82,-153.13 166.68,-162.99 171.99,-158.43"/>
</g>
<!-- gstlal&#45;calibration -->
<g id="node8" class="node">
<title>gstlal&#45;calibration</title>
<g id="a_node8"><a xlink:href="https://github.com/conda-forge/gstlal-calibration-feedstock" xlink:title="gstlal calibration">
<ellipse fill="#fde725" stroke="black" cx="341.25" cy="-134" rx="95.93" ry="18"/>
<text text-anchor="middle" x="341.25" y="-129.32" font-family="Times,serif" font-size="14.00">gstlal calibration</text>
</a>
</g>
</g>
<!-- gstlal&#45;&gt;gstlal&#45;calibration -->
<g id="edge6" class="edge">
<title>gstlal&#45;&gt;gstlal&#45;calibration</title>
<path fill="none" stroke="black" d="M270.05,-259.6C271.55,-240.89 275.87,-210.77 288.25,-188 293.93,-177.54 302.32,-167.78 310.76,-159.57"/>
<polygon fill="black" stroke="black" points="313,-162.26 318,-152.92 308.27,-157.11 313,-162.26"/>
</g>
<!-- gstlal&#45;ugly&#45;&gt;gstlal&#45;burst -->
<g id="edge9" class="edge">
<title>gstlal&#45;ugly&#45;&gt;gstlal&#45;burst</title>
<path fill="none" stroke="black" d="M399.59,-191.26C417.13,-182.82 436.2,-170.1 446.25,-152 454.01,-138.01 455.34,-129.17 446.25,-116 430.8,-93.64 404.62,-80.7 379.04,-73.22"/>
<polygon fill="black" stroke="black" points="380.18,-69.9 369.62,-70.73 378.39,-76.67 380.18,-69.9"/>
</g>
<!-- gstlal&#45;ugly&#45;&gt;gstlal&#45;inspiral -->
<g id="edge11" class="edge">
<title>gstlal&#45;ugly&#45;&gt;gstlal&#45;inspiral</title>
<path fill="none" stroke="black" d="M320.74,-191.75C287.11,-180.75 238.94,-164.99 201.89,-152.87"/>
<polygon fill="black" stroke="black" points="203.3,-149.65 192.71,-149.87 201.12,-156.31 203.3,-149.65"/>
</g>
<!-- gstlal&#45;ugly&#45;&gt;gstlal&#45;calibration -->
<g id="edge10" class="edge">
<title>gstlal&#45;ugly&#45;&gt;gstlal&#45;calibration</title>
<path fill="none" stroke="black" d="M356.3,-187.7C354.17,-180.24 351.62,-171.32 349.24,-162.97"/>
<polygon fill="black" stroke="black" points="352.66,-162.21 346.55,-153.56 345.93,-164.14 352.66,-162.21"/>
</g>
<!-- gstlal&#45;inspiral&#45;&gt;gstlal&#45;burst -->
<g id="edge12" class="edge">
<title>gstlal&#45;inspiral&#45;&gt;gstlal&#45;burst</title>
<path fill="none" stroke="black" d="M182.53,-117.46C205.91,-107.17 236.76,-93.59 261.81,-82.56"/>
<polygon fill="black" stroke="black" points="263.02,-85.85 270.76,-78.62 260.2,-79.45 263.02,-85.85"/>
</g>
<!-- qt&#45;webengine -->
<g id="node9" class="node">
<title>qt&#45;webengine</title>
<g id="a_node9"><a xlink:href="https://github.com/conda-forge/qt-webengine-feedstock" xlink:title="qt webengine">
<ellipse fill="#ff8c00" stroke="black" cx="717.25" cy="-206" rx="79.09" ry="18"/>
<text text-anchor="middle" x="717.25" y="-201.32" font-family="Times,serif" font-size="14.00">qt webengine</text>
</a>
</g>
</g>
<!-- xpra -->
<g id="node10" class="node">
<title>xpra</title>
<g id="a_node10"><a xlink:href="https://github.com/conda-forge/xpra-feedstock/pull/37" xlink:title="xpra ✓">
<ellipse fill="#31688e" stroke="black" cx="315.25" cy="-18" rx="41.74" ry="18"/>
<text text-anchor="middle" x="315.25" y="-13.32" font-family="Times,serif" font-size="14.00" fill="white">xpra ✓</text>
</a>
</g>
</g>
</g>
</svg>
