<?xml version="1.0" encoding="UTF-8" standalone="no"?>
<!DOCTYPE svg PUBLIC "-//W3C//DTD SVG 1.1//EN"
 "http://www.w3.org/Graphics/SVG/1.1/DTD/svg11.dtd">
<!-- Generated by graphviz version 11.0.0 (20240519.1550)
 -->
<!-- Pages: 1 -->
<svg width="723pt" height="276pt"
 viewBox="0.00 0.00 722.93 276.00" xmlns="http://www.w3.org/2000/svg" xmlns:xlink="http://www.w3.org/1999/xlink">
<g id="graph0" class="graph" transform="scale(1 1) rotate(0) translate(4 272)">
<polygon fill="white" stroke="none" points="-4,4 -4,-272 718.93,-272 718.93,4 -4,4"/>
<!-- emacs -->
<g id="node1" class="node">
<title>emacs</title>
<g id="a_node1"><a xlink:href="https://github.com/conda-forge/emacs-feedstock" xlink:title="emacs">
<ellipse fill="#fde725" stroke="black" cx="177.1" cy="-106" rx="42.79" ry="18"/>
<text text-anchor="middle" x="177.1" y="-101.33" font-family="Times,serif" font-size="14.00">emacs</text>
</a>
</g>
</g>
<!-- librsvg -->
<g id="node2" class="node">
<title>librsvg</title>
<g id="a_node2"><a xlink:href="https://github.com/conda-forge/librsvg-feedstock/pull/115" xlink:title="librsvg ❎">
<ellipse fill="#31688e" stroke="black" cx="177.1" cy="-250" rx="61.2" ry="18"/>
<text text-anchor="middle" x="177.1" y="-245.32" font-family="Times,serif" font-size="14.00" fill="white">librsvg ❎</text>
</a>
</g>
</g>
<!-- librsvg&#45;&gt;emacs -->
<g id="edge1" class="edge">
<title>librsvg&#45;&gt;emacs</title>
<path fill="none" stroke="black" d="M172.23,-231.98C169.54,-221.67 166.47,-208.19 165.1,-196 163.33,-180.1 163.33,-175.9 165.1,-160 166.02,-151.81 167.71,-143.04 169.53,-135.04"/>
<polygon fill="black" stroke="black" points="172.89,-136.04 171.87,-125.49 166.09,-134.37 172.89,-136.04"/>
</g>
<!-- kitty -->
<g id="node9" class="node">
<title>kitty</title>
<g id="a_node9"><a xlink:href="https://github.com/conda-forge/kitty-feedstock" xlink:title="kitty">
<ellipse fill="#fde725" stroke="black" cx="82.1" cy="-178" rx="34.37" ry="18"/>
<text text-anchor="middle" x="82.1" y="-173.32" font-family="Times,serif" font-size="14.00">kitty</text>
</a>
</g>
</g>
<!-- librsvg&#45;&gt;kitty -->
<g id="edge3" class="edge">
<title>librsvg&#45;&gt;kitty</title>
<path fill="none" stroke="black" d="M155.07,-232.76C141.76,-222.96 124.66,-210.36 110.37,-199.83"/>
<polygon fill="black" stroke="black" points="112.79,-197.26 102.66,-194.15 108.64,-202.9 112.79,-197.26"/>
</g>
<!-- gtk3 -->
<g id="node10" class="node">
<title>gtk3</title>
<g id="a_node10"><a xlink:href="https://github.com/conda-forge/gtk3-feedstock" xlink:title="gtk3">
<ellipse fill="#fde725" stroke="black" cx="208.1" cy="-178" rx="33.85" ry="18"/>
<text text-anchor="middle" x="208.1" y="-173.32" font-family="Times,serif" font-size="14.00">gtk3</text>
</a>
</g>
</g>
<!-- librsvg&#45;&gt;gtk3 -->
<g id="edge2" class="edge">
<title>librsvg&#45;&gt;gtk3</title>
<path fill="none" stroke="black" d="M184.77,-231.7C188.2,-223.95 192.32,-214.64 196.14,-206.02"/>
<polygon fill="black" stroke="black" points="199.28,-207.57 200.13,-197.01 192.88,-204.73 199.28,-207.57"/>
</g>
<!-- opencv -->
<g id="node3" class="node">
<title>opencv</title>
<g id="a_node3"><a xlink:href="https://github.com/conda-forge/opencv-feedstock" xlink:title="opencv">
<ellipse fill="#fde725" stroke="black" cx="296.1" cy="-142" rx="46.47" ry="18"/>
<text text-anchor="middle" x="296.1" y="-137.32" font-family="Times,serif" font-size="14.00">opencv</text>
</a>
</g>
</g>
<!-- openjdk -->
<g id="node4" class="node">
<title>openjdk</title>
<g id="a_node4"><a xlink:href="https://github.com/conda-forge/openjdk-feedstock/pull/163" xlink:title="openjdk ❎">
<ellipse fill="#31688e" stroke="black" cx="120.1" cy="-18" rx="65.94" ry="18"/>
<text text-anchor="middle" x="120.1" y="-13.32" font-family="Times,serif" font-size="14.00" fill="white">openjdk ❎</text>
</a>
</g>
</g>
<!-- r&#45;cairo -->
<g id="node5" class="node">
<title>r&#45;cairo</title>
<g id="a_node5"><a xlink:href="https://github.com/conda-forge/r-cairo-feedstock/pull/37" xlink:title="r cairo ✓">
<ellipse fill="#31688e" stroke="black" cx="384.1" cy="-18" rx="51.73" ry="18"/>
<text text-anchor="middle" x="384.1" y="-13.32" font-family="Times,serif" font-size="14.00" fill="white">r cairo ✓</text>
</a>
</g>
</g>
<!-- tectonic -->
<g id="node6" class="node">
<title>tectonic</title>
<g id="a_node6"><a xlink:href="https://github.com/conda-forge/tectonic-feedstock/pull/71" xlink:title="tectonic ❎">
<ellipse fill="#31688e" stroke="black" cx="621.1" cy="-62" rx="66.47" ry="18"/>
<text text-anchor="middle" x="621.1" y="-57.33" font-family="Times,serif" font-size="14.00" fill="white">tectonic ❎</text>
</a>
</g>
</g>
<!-- texlive&#45;core -->
<g id="node7" class="node">
<title>texlive&#45;core</title>
<g id="a_node7"><a xlink:href="https://github.com/conda-forge/texlive-core-feedstock/pull/93" xlink:title="texlive core ❎">
<ellipse fill="#31688e" stroke="black" cx="120.1" cy="-62" rx="84.88" ry="18"/>
<text text-anchor="middle" x="120.1" y="-57.33" font-family="Times,serif" font-size="14.00" fill="white">texlive core ❎</text>
</a>
</g>
</g>
<!-- gtk2 -->
<g id="node8" class="node">
<title>gtk2</title>
<g id="a_node8"><a xlink:href="https://github.com/conda-forge/gtk2-feedstock/pull/27" xlink:title="gtk2 ❎">
<ellipse fill="#31688e" stroke="black" cx="49.1" cy="-250" rx="49.1" ry="18"/>
<text text-anchor="middle" x="49.1" y="-245.32" font-family="Times,serif" font-size="14.00" fill="white">gtk2 ❎</text>
</a>
</g>
</g>
<!-- gtk2&#45;&gt;kitty -->
<g id="edge4" class="edge">
<title>gtk2&#45;&gt;kitty</title>
<path fill="none" stroke="black" d="M57.09,-232.05C60.78,-224.23 65.25,-214.75 69.39,-205.98"/>
<polygon fill="black" stroke="black" points="72.44,-207.7 73.54,-197.16 66.11,-204.71 72.44,-207.7"/>
</g>
<!-- gtk3&#45;&gt;emacs -->
<g id="edge5" class="edge">
<title>gtk3&#45;&gt;emacs</title>
<path fill="none" stroke="black" d="M200.6,-160.05C197.17,-152.32 193.03,-142.96 189.18,-134.27"/>
<polygon fill="black" stroke="black" points="192.4,-132.9 185.15,-125.17 186,-135.73 192.4,-132.9"/>
</g>
<!-- r&#45;textshaping -->
<g id="node11" class="node">
<title>r&#45;textshaping</title>
<g id="a_node11"><a xlink:href="https://github.com/conda-forge/r-textshaping-feedstock/pull/24" xlink:title="r textshaping ❎">
<ellipse fill="#31688e" stroke="black" cx="621.1" cy="-178" rx="93.82" ry="18"/>
<text text-anchor="middle" x="621.1" y="-173.32" font-family="Times,serif" font-size="14.00" fill="white">r textshaping ❎</text>
</a>
</g>
</g>
<!-- panda3d -->
<g id="node12" class="node">
<title>panda3d</title>
<g id="a_node12"><a xlink:href="https://github.com/conda-forge/panda3d-feedstock/pull/50" xlink:title="panda3d ❎">
<ellipse fill="#31688e" stroke="black" cx="384.1" cy="-62" rx="69.62" ry="18"/>
<text text-anchor="middle" x="384.1" y="-57.33" font-family="Times,serif" font-size="14.00" fill="white">panda3d ❎</text>
</a>
</g>
</g>
<!-- gtk4 -->
<g id="node13" class="node">
<title>gtk4</title>
<g id="a_node13"><a xlink:href="https://github.com/conda-forge/gtk4-feedstock/pull/55" xlink:title="gtk4 ❎">
<ellipse fill="#31688e" stroke="black" cx="621.1" cy="-18" rx="49.1" ry="18"/>
<text text-anchor="middle" x="621.1" y="-13.32" font-family="Times,serif" font-size="14.00" fill="white">gtk4 ❎</text>
</a>
</g>
</g>
<!-- qt&#45;main -->
<g id="node14" class="node">
<title>qt&#45;main</title>
<g id="a_node14"><a xlink:href="https://github.com/conda-forge/qt-main-feedstock/pull/276" xlink:title="qt main ❎">
<ellipse fill="#31688e" stroke="black" cx="368.1" cy="-214" rx="64.89" ry="18"/>
<text text-anchor="middle" x="368.1" y="-209.32" font-family="Times,serif" font-size="14.00" fill="white">qt main ❎</text>
</a>
</g>
</g>
<!-- qt&#45;main&#45;&gt;opencv -->
<g id="edge6" class="edge">
<title>qt&#45;main&#45;&gt;opencv</title>
<path fill="none" stroke="black" d="M351.04,-196.41C341.94,-187.57 330.59,-176.53 320.57,-166.79"/>
<polygon fill="black" stroke="black" points="323.24,-164.5 313.63,-160.04 318.36,-169.52 323.24,-164.5"/>
</g>
<!-- qt&#45;webengine -->
<g id="node15" class="node">
<title>qt&#45;webengine</title>
<g id="a_node15"><a xlink:href="https://github.com/conda-forge/qt-webengine-feedstock" xlink:title="qt webengine">
<ellipse fill="#fde725" stroke="black" cx="440.1" cy="-142" rx="79.09" ry="18"/>
<text text-anchor="middle" x="440.1" y="-137.32" font-family="Times,serif" font-size="14.00">qt webengine</text>
</a>
</g>
</g>
<!-- qt&#45;main&#45;&gt;qt&#45;webengine -->
<g id="edge7" class="edge">
<title>qt&#45;main&#45;&gt;qt&#45;webengine</title>
<path fill="none" stroke="black" d="M385.17,-196.41C393.91,-187.91 404.75,-177.37 414.48,-167.91"/>
<polygon fill="black" stroke="black" points="416.85,-170.49 421.58,-161.01 411.97,-165.47 416.85,-170.49"/>
</g>
</g>
</svg>
