<?xml version="1.0" encoding="UTF-8" standalone="no"?>
<!DOCTYPE svg PUBLIC "-//W3C//DTD SVG 1.1//EN"
 "http://www.w3.org/Graphics/SVG/1.1/DTD/svg11.dtd">
<!-- Generated by graphviz version 11.0.0 (20240519.1550)
 -->
<!-- Pages: 1 -->
<svg width="712pt" height="276pt"
 viewBox="0.00 0.00 711.67 276.00" xmlns="http://www.w3.org/2000/svg" xmlns:xlink="http://www.w3.org/1999/xlink">
<g id="graph0" class="graph" transform="scale(1 1) rotate(0) translate(4 272)">
<polygon fill="white" stroke="none" points="-4,4 -4,-272 707.67,-272 707.67,4 -4,4"/>
<!-- emacs -->
<g id="node1" class="node">
<title>emacs</title>
<g id="a_node1"><a xlink:href="https://github.com/conda-forge/emacs-feedstock" xlink:title="emacs">
<ellipse fill="#fde725" stroke="black" cx="164.85" cy="-106" rx="42.79" ry="18"/>
<text text-anchor="middle" x="164.85" y="-101.33" font-family="Times,serif" font-size="14.00">emacs</text>
</a>
</g>
</g>
<!-- librsvg -->
<g id="node2" class="node">
<title>librsvg</title>
<g id="a_node2"><a xlink:href="https://github.com/conda-forge/librsvg-feedstock/pull/115" xlink:title="librsvg ❎">
<ellipse fill="#31688e" stroke="black" cx="146.85" cy="-250" rx="61.2" ry="18"/>
<text text-anchor="middle" x="146.85" y="-245.32" font-family="Times,serif" font-size="14.00" fill="white">librsvg ❎</text>
</a>
</g>
</g>
<!-- librsvg&#45;&gt;emacs -->
<g id="edge1" class="edge">
<title>librsvg&#45;&gt;emacs</title>
<path fill="none" stroke="black" d="M147.22,-231.52C147.8,-213.51 149.24,-184.67 152.85,-160 154.04,-151.85 155.81,-143.09 157.63,-135.08"/>
<polygon fill="black" stroke="black" points="161,-136.07 159.92,-125.53 154.19,-134.44 161,-136.07"/>
</g>
<!-- kitty -->
<g id="node9" class="node">
<title>kitty</title>
<g id="a_node9"><a xlink:href="https://github.com/conda-forge/kitty-feedstock" xlink:title="kitty">
<ellipse fill="#fde725" stroke="black" cx="58.85" cy="-178" rx="34.37" ry="18"/>
<text text-anchor="middle" x="58.85" y="-173.32" font-family="Times,serif" font-size="14.00">kitty</text>
</a>
</g>
</g>
<!-- librsvg&#45;&gt;kitty -->
<g id="edge3" class="edge">
<title>librsvg&#45;&gt;kitty</title>
<path fill="none" stroke="black" d="M126.44,-232.76C114.42,-223.21 99.08,-211.01 86.05,-200.64"/>
<polygon fill="black" stroke="black" points="88.24,-197.91 78.24,-194.43 83.89,-203.39 88.24,-197.91"/>
</g>
<!-- gtk3 -->
<g id="node10" class="node">
<title>gtk3</title>
<g id="a_node10"><a xlink:href="https://github.com/conda-forge/gtk3-feedstock" xlink:title="gtk3">
<ellipse fill="#fde725" stroke="black" cx="195.85" cy="-178" rx="33.85" ry="18"/>
<text text-anchor="middle" x="195.85" y="-173.32" font-family="Times,serif" font-size="14.00">gtk3</text>
</a>
</g>
</g>
<!-- librsvg&#45;&gt;gtk3 -->
<g id="edge2" class="edge">
<title>librsvg&#45;&gt;gtk3</title>
<path fill="none" stroke="black" d="M158.71,-232.05C164.45,-223.85 171.46,-213.83 177.85,-204.71"/>
<polygon fill="black" stroke="black" points="180.7,-206.75 183.56,-196.55 174.96,-202.73 180.7,-206.75"/>
</g>
<!-- opencv -->
<g id="node3" class="node">
<title>opencv</title>
<g id="a_node3"><a xlink:href="https://github.com/conda-forge/opencv-feedstock" xlink:title="opencv">
<ellipse fill="#fde725" stroke="black" cx="284.85" cy="-142" rx="46.47" ry="18"/>
<text text-anchor="middle" x="284.85" y="-137.32" font-family="Times,serif" font-size="14.00">opencv</text>
</a>
</g>
</g>
<!-- openjdk -->
<g id="node4" class="node">
<title>openjdk</title>
<g id="a_node4"><a xlink:href="https://github.com/conda-forge/openjdk-feedstock/pull/163" xlink:title="openjdk ❎">
<ellipse fill="#31688e" stroke="black" cx="114.85" cy="-18" rx="65.94" ry="18"/>
<text text-anchor="middle" x="114.85" y="-13.32" font-family="Times,serif" font-size="14.00" fill="white">openjdk ❎</text>
</a>
</g>
</g>
<!-- r&#45;cairo -->
<g id="node5" class="node">
<title>r&#45;cairo</title>
<g id="a_node5"><a xlink:href="https://github.com/conda-forge/r-cairo-feedstock/pull/37" xlink:title="r cairo ✓">
<ellipse fill="#31688e" stroke="black" cx="372.85" cy="-18" rx="51.73" ry="18"/>
<text text-anchor="middle" x="372.85" y="-13.32" font-family="Times,serif" font-size="14.00" fill="white">r cairo ✓</text>
</a>
</g>
</g>
<!-- tectonic -->
<g id="node6" class="node">
<title>tectonic</title>
<g id="a_node6"><a xlink:href="https://github.com/conda-forge/tectonic-feedstock/pull/71" xlink:title="tectonic ❎">
<ellipse fill="#31688e" stroke="black" cx="609.85" cy="-62" rx="66.47" ry="18"/>
<text text-anchor="middle" x="609.85" y="-57.33" font-family="Times,serif" font-size="14.00" fill="white">tectonic ❎</text>
</a>
</g>
</g>
<!-- texlive&#45;core -->
<g id="node7" class="node">
<title>texlive&#45;core</title>
<g id="a_node7"><a xlink:href="https://github.com/conda-forge/texlive-core-feedstock/pull/93" xlink:title="texlive core ❎">
<ellipse fill="#31688e" stroke="black" cx="114.85" cy="-62" rx="84.88" ry="18"/>
<text text-anchor="middle" x="114.85" y="-57.33" font-family="Times,serif" font-size="14.00" fill="white">texlive core ❎</text>
</a>
</g>
</g>
<!-- gtk2 -->
<g id="node8" class="node">
<title>gtk2</title>
<g id="a_node8"><a xlink:href="https://github.com/conda-forge/gtk2-feedstock" xlink:title="gtk2">
<ellipse fill="#ff8c00" stroke="black" cx="33.85" cy="-250" rx="33.85" ry="18"/>
<text text-anchor="middle" x="33.85" y="-245.32" font-family="Times,serif" font-size="14.00">gtk2</text>
</a>
</g>
</g>
<!-- gtk2&#45;&gt;kitty -->
<g id="edge4" class="edge">
<title>gtk2&#45;&gt;kitty</title>
<path fill="none" stroke="black" d="M39.9,-232.05C42.63,-224.4 45.93,-215.16 49,-206.56"/>
<polygon fill="black" stroke="black" points="52.27,-207.81 52.34,-197.21 45.68,-205.45 52.27,-207.81"/>
</g>
<!-- gtk3&#45;&gt;emacs -->
<g id="edge5" class="edge">
<title>gtk3&#45;&gt;emacs</title>
<path fill="none" stroke="black" d="M188.34,-160.05C184.92,-152.32 180.77,-142.96 176.92,-134.27"/>
<polygon fill="black" stroke="black" points="180.14,-132.9 172.89,-125.17 173.74,-135.73 180.14,-132.9"/>
</g>
<!-- r&#45;textshaping -->
<g id="node11" class="node">
<title>r&#45;textshaping</title>
<g id="a_node11"><a xlink:href="https://github.com/conda-forge/r-textshaping-feedstock/pull/24" xlink:title="r textshaping ❎">
<ellipse fill="#31688e" stroke="black" cx="609.85" cy="-178" rx="93.82" ry="18"/>
<text text-anchor="middle" x="609.85" y="-173.32" font-family="Times,serif" font-size="14.00" fill="white">r textshaping ❎</text>
</a>
</g>
</g>
<!-- panda3d -->
<g id="node12" class="node">
<title>panda3d</title>
<g id="a_node12"><a xlink:href="https://github.com/conda-forge/panda3d-feedstock/pull/50" xlink:title="panda3d ❎">
<ellipse fill="#31688e" stroke="black" cx="372.85" cy="-62" rx="69.62" ry="18"/>
<text text-anchor="middle" x="372.85" y="-57.33" font-family="Times,serif" font-size="14.00" fill="white">panda3d ❎</text>
</a>
</g>
</g>
<!-- gtk4 -->
<g id="node13" class="node">
<title>gtk4</title>
<g id="a_node13"><a xlink:href="https://github.com/conda-forge/gtk4-feedstock" xlink:title="gtk4">
<ellipse fill="#000000" stroke="black" cx="609.85" cy="-18" rx="33.85" ry="18"/>
<text text-anchor="middle" x="609.85" y="-13.32" font-family="Times,serif" font-size="14.00" fill="white">gtk4</text>
</a>
</g>
</g>
<!-- qt&#45;main -->
<g id="node14" class="node">
<title>qt&#45;main</title>
<g id="a_node14"><a xlink:href="https://github.com/conda-forge/qt-main-feedstock/pull/276" xlink:title="qt main ❎">
<ellipse fill="#31688e" stroke="black" cx="356.85" cy="-214" rx="64.89" ry="18"/>
<text text-anchor="middle" x="356.85" y="-209.32" font-family="Times,serif" font-size="14.00" fill="white">qt main ❎</text>
</a>
</g>
</g>
<!-- qt&#45;main&#45;&gt;opencv -->
<g id="edge6" class="edge">
<title>qt&#45;main&#45;&gt;opencv</title>
<path fill="none" stroke="black" d="M339.78,-196.41C330.69,-187.57 319.33,-176.53 309.32,-166.79"/>
<polygon fill="black" stroke="black" points="311.99,-164.5 302.38,-160.04 307.11,-169.52 311.99,-164.5"/>
</g>
<!-- qt&#45;webengine -->
<g id="node15" class="node">
<title>qt&#45;webengine</title>
<g id="a_node15"><a xlink:href="https://github.com/conda-forge/qt-webengine-feedstock" xlink:title="qt webengine">
<ellipse fill="#fde725" stroke="black" cx="428.85" cy="-142" rx="79.09" ry="18"/>
<text text-anchor="middle" x="428.85" y="-137.32" font-family="Times,serif" font-size="14.00">qt webengine</text>
</a>
</g>
</g>
<!-- qt&#45;main&#45;&gt;qt&#45;webengine -->
<g id="edge7" class="edge">
<title>qt&#45;main&#45;&gt;qt&#45;webengine</title>
<path fill="none" stroke="black" d="M373.91,-196.41C382.66,-187.91 393.49,-177.37 403.22,-167.91"/>
<polygon fill="black" stroke="black" points="405.59,-170.49 410.32,-161.01 400.71,-165.47 405.59,-170.49"/>
</g>
</g>
</svg>
