<?xml version="1.0" encoding="UTF-8" standalone="no"?>
<!DOCTYPE svg PUBLIC "-//W3C//DTD SVG 1.1//EN"
 "http://www.w3.org/Graphics/SVG/1.1/DTD/svg11.dtd">
<!-- Generated by graphviz version 11.0.0 (20240519.1550)
 -->
<!-- Pages: 1 -->
<svg width="924pt" height="664pt"
 viewBox="0.00 0.00 923.66 664.00" xmlns="http://www.w3.org/2000/svg" xmlns:xlink="http://www.w3.org/1999/xlink">
<g id="graph0" class="graph" transform="scale(1 1) rotate(0) translate(4 660)">
<polygon fill="white" stroke="none" points="-4,4 -4,-660 919.66,-660 919.66,4 -4,4"/>
<!-- emacs -->
<g id="node1" class="node">
<title>emacs</title>
<g id="a_node1"><a xlink:href="https://github.com/conda-forge/emacs-feedstock" xlink:title="emacs">
<ellipse fill="#fde725" stroke="black" cx="359.57" cy="-278" rx="42.79" ry="18"/>
<text text-anchor="middle" x="359.57" y="-273.32" font-family="Times,serif" font-size="14.00">emacs</text>
</a>
</g>
</g>
<!-- ffmpeg -->
<g id="node2" class="node">
<title>ffmpeg</title>
<g id="a_node2"><a xlink:href="https://github.com/conda-forge/ffmpeg-feedstock" xlink:title="ffmpeg">
<ellipse fill="#fde725" stroke="black" cx="632.57" cy="-386" rx="45.95" ry="18"/>
<text text-anchor="middle" x="632.57" y="-381.32" font-family="Times,serif" font-size="14.00">ffmpeg</text>
</a>
</g>
</g>
<!-- opencv -->
<g id="node3" class="node">
<title>opencv</title>
<g id="a_node3"><a xlink:href="https://github.com/conda-forge/opencv-feedstock" xlink:title="opencv">
<ellipse fill="#fde725" stroke="black" cx="692.57" cy="-314" rx="46.47" ry="18"/>
<text text-anchor="middle" x="692.57" y="-309.32" font-family="Times,serif" font-size="14.00">opencv</text>
</a>
</g>
</g>
<!-- ffmpeg&#45;&gt;opencv -->
<g id="edge1" class="edge">
<title>ffmpeg&#45;&gt;opencv</title>
<path fill="none" stroke="black" d="M646.79,-368.41C654.03,-359.95 663,-349.49 671.07,-340.08"/>
<polygon fill="black" stroke="black" points="673.61,-342.49 677.46,-332.62 668.3,-337.93 673.61,-342.49"/>
</g>
<!-- panda3d -->
<g id="node4" class="node">
<title>panda3d</title>
<g id="a_node4"><a xlink:href="https://github.com/conda-forge/panda3d-feedstock" xlink:title="panda3d">
<ellipse fill="#fde725" stroke="black" cx="573.57" cy="-314" rx="54.36" ry="18"/>
<text text-anchor="middle" x="573.57" y="-309.32" font-family="Times,serif" font-size="14.00">panda3d</text>
</a>
</g>
</g>
<!-- ffmpeg&#45;&gt;panda3d -->
<g id="edge2" class="edge">
<title>ffmpeg&#45;&gt;panda3d</title>
<path fill="none" stroke="black" d="M618.58,-368.41C611.46,-359.95 602.64,-349.49 594.7,-340.08"/>
<polygon fill="black" stroke="black" points="597.54,-338.02 588.42,-332.63 592.19,-342.53 597.54,-338.02"/>
</g>
<!-- librsvg -->
<g id="node5" class="node">
<title>librsvg</title>
<g id="a_node5"><a xlink:href="https://github.com/conda-forge/librsvg-feedstock" xlink:title="librsvg">
<ellipse fill="#fde725" stroke="black" cx="334.57" cy="-422" rx="45.95" ry="18"/>
<text text-anchor="middle" x="334.57" y="-417.32" font-family="Times,serif" font-size="14.00">librsvg</text>
</a>
</g>
</g>
<!-- librsvg&#45;&gt;emacs -->
<g id="edge3" class="edge">
<title>librsvg&#45;&gt;emacs</title>
<path fill="none" stroke="black" d="M336.71,-403.54C339.01,-385.55 342.97,-356.72 347.57,-332 349.07,-323.9 350.95,-315.16 352.77,-307.15"/>
<polygon fill="black" stroke="black" points="356.13,-308.12 354.99,-297.59 349.32,-306.54 356.13,-308.12"/>
</g>
<!-- kitty -->
<g id="node6" class="node">
<title>kitty</title>
<g id="a_node6"><a xlink:href="https://github.com/conda-forge/kitty-feedstock" xlink:title="kitty">
<ellipse fill="#fde725" stroke="black" cx="260.57" cy="-350" rx="34.37" ry="18"/>
<text text-anchor="middle" x="260.57" y="-345.32" font-family="Times,serif" font-size="14.00">kitty</text>
</a>
</g>
</g>
<!-- librsvg&#45;&gt;kitty -->
<g id="edge4" class="edge">
<title>librsvg&#45;&gt;kitty</title>
<path fill="none" stroke="black" d="M317.77,-405.12C308.08,-395.95 295.73,-384.26 284.98,-374.09"/>
<polygon fill="black" stroke="black" points="287.55,-371.71 277.88,-367.38 282.74,-376.79 287.55,-371.71"/>
</g>
<!-- gtk3 -->
<g id="node7" class="node">
<title>gtk3</title>
<g id="a_node7"><a xlink:href="https://github.com/conda-forge/gtk3-feedstock" xlink:title="gtk3">
<ellipse fill="#fde725" stroke="black" cx="390.57" cy="-350" rx="33.85" ry="18"/>
<text text-anchor="middle" x="390.57" y="-345.32" font-family="Times,serif" font-size="14.00">gtk3</text>
</a>
</g>
</g>
<!-- librsvg&#45;&gt;gtk3 -->
<g id="edge5" class="edge">
<title>librsvg&#45;&gt;gtk3</title>
<path fill="none" stroke="black" d="M347.84,-404.41C354.63,-395.92 363.04,-385.41 370.59,-375.96"/>
<polygon fill="black" stroke="black" points="373.32,-378.17 376.83,-368.17 367.85,-373.79 373.32,-378.17"/>
</g>
<!-- gtk3&#45;&gt;emacs -->
<g id="edge6" class="edge">
<title>gtk3&#45;&gt;emacs</title>
<path fill="none" stroke="black" d="M383.06,-332.05C379.64,-324.32 375.49,-314.96 371.64,-306.27"/>
<polygon fill="black" stroke="black" points="374.86,-304.9 367.61,-297.17 368.46,-307.73 374.86,-304.9"/>
</g>
<!-- openjdk -->
<g id="node8" class="node">
<title>openjdk</title>
<g id="a_node8"><a xlink:href="https://github.com/conda-forge/openjdk-feedstock" xlink:title="openjdk">
<ellipse fill="#35b779" stroke="black" cx="78.57" cy="-638" rx="50.68" ry="18"/>
<text text-anchor="middle" x="78.57" y="-633.33" font-family="Times,serif" font-size="14.00">openjdk</text>
</a>
</g>
</g>
<!-- r&#45;cairo -->
<g id="node9" class="node">
<title>r&#45;cairo</title>
<g id="a_node9"><a xlink:href="https://github.com/conda-forge/r-cairo-feedstock" xlink:title="r cairo">
<ellipse fill="#35b779" stroke="black" cx="78.57" cy="-566" rx="43.84" ry="18"/>
<text text-anchor="middle" x="78.57" y="-561.33" font-family="Times,serif" font-size="14.00">r cairo</text>
</a>
</g>
</g>
<!-- openjdk&#45;&gt;r&#45;cairo -->
<!-- tectonic -->
<g id="node13" class="node">
<title>tectonic</title>
<g id="a_node13"><a xlink:href="https://github.com/conda-forge/tectonic-feedstock" xlink:title="tectonic">
<ellipse fill="#35b779" stroke="black" cx="78.57" cy="-494" rx="51.21" ry="18"/>
<text text-anchor="middle" x="78.57" y="-489.32" font-family="Times,serif" font-size="14.00">tectonic</text>
</a>
</g>
</g>
<!-- r&#45;cairo&#45;&gt;tectonic -->
<!-- pango -->
<g id="node10" class="node">
<title>pango</title>
<g id="a_node10"><a xlink:href="https://github.com/conda-forge/pango-feedstock" xlink:title="pango">
<ellipse fill="#35b779" stroke="black" cx="334.57" cy="-494" rx="41.74" ry="18"/>
<text text-anchor="middle" x="334.57" y="-489.32" font-family="Times,serif" font-size="14.00">pango</text>
</a>
</g>
</g>
<!-- pango&#45;&gt;librsvg -->
<g id="edge8" class="edge">
<title>pango&#45;&gt;librsvg</title>
<path fill="none" stroke="black" d="M334.57,-475.7C334.57,-468.41 334.57,-459.73 334.57,-451.54"/>
<polygon fill="black" stroke="black" points="338.07,-451.62 334.57,-441.62 331.07,-451.62 338.07,-451.62"/>
</g>
<!-- pango&#45;&gt;kitty -->
<g id="edge9" class="edge">
<title>pango&#45;&gt;kitty</title>
<path fill="none" stroke="black" d="M313.8,-478.07C301.99,-468.5 287.94,-455.07 279.57,-440 269.29,-421.51 264.57,-398.01 262.4,-379.81"/>
<polygon fill="black" stroke="black" points="265.89,-379.56 261.44,-369.95 258.92,-380.25 265.89,-379.56"/>
</g>
<!-- pango&#45;&gt;gtk3 -->
<g id="edge10" class="edge">
<title>pango&#45;&gt;gtk3</title>
<path fill="none" stroke="black" d="M356.74,-478.41C368.87,-469.04 382.79,-455.7 389.57,-440 397.77,-421.01 397.66,-397.53 395.7,-379.47"/>
<polygon fill="black" stroke="black" points="399.19,-379.14 394.37,-369.71 392.25,-380.09 399.19,-379.14"/>
</g>
<!-- gtk2 -->
<g id="node11" class="node">
<title>gtk2</title>
<g id="a_node11"><a xlink:href="https://github.com/conda-forge/gtk2-feedstock" xlink:title="gtk2">
<ellipse fill="#fde725" stroke="black" cx="198.57" cy="-422" rx="33.85" ry="18"/>
<text text-anchor="middle" x="198.57" y="-417.32" font-family="Times,serif" font-size="14.00">gtk2</text>
</a>
</g>
</g>
<!-- pango&#45;&gt;gtk2 -->
<g id="edge11" class="edge">
<title>pango&#45;&gt;gtk2</title>
<path fill="none" stroke="black" d="M308.34,-479.5C286.79,-468.41 256.09,-452.61 232.64,-440.54"/>
<polygon fill="black" stroke="black" points="234.27,-437.44 223.78,-435.98 231.07,-443.66 234.27,-437.44"/>
</g>
<!-- gtk4 -->
<g id="node12" class="node">
<title>gtk4</title>
<g id="a_node12"><a xlink:href="https://github.com/conda-forge/gtk4-feedstock" xlink:title="gtk4">
<ellipse fill="#fde725" stroke="black" cx="476.57" cy="-350" rx="33.85" ry="18"/>
<text text-anchor="middle" x="476.57" y="-345.32" font-family="Times,serif" font-size="14.00">gtk4</text>
</a>
</g>
</g>
<!-- pango&#45;&gt;gtk4 -->
<g id="edge12" class="edge">
<title>pango&#45;&gt;gtk4</title>
<path fill="none" stroke="black" d="M357.2,-478.66C372.03,-468.73 391.4,-454.69 406.57,-440 426.55,-420.64 445.84,-395.48 459.09,-376.85"/>
<polygon fill="black" stroke="black" points="461.89,-378.95 464.75,-368.75 456.15,-374.94 461.89,-378.95"/>
</g>
<!-- gtk2&#45;&gt;kitty -->
<g id="edge13" class="edge">
<title>gtk2&#45;&gt;kitty</title>
<path fill="none" stroke="black" d="M212.33,-405.46C220.27,-396.49 230.44,-385.02 239.38,-374.92"/>
<polygon fill="black" stroke="black" points="241.83,-377.43 245.84,-367.62 236.59,-372.79 241.83,-377.43"/>
</g>
<!-- texlive&#45;core -->
<g id="node14" class="node">
<title>texlive&#45;core</title>
<g id="a_node14"><a xlink:href="https://github.com/conda-forge/texlive-core-feedstock" xlink:title="texlive core">
<ellipse fill="#35b779" stroke="black" cx="78.57" cy="-422" rx="69.62" ry="18"/>
<text text-anchor="middle" x="78.57" y="-417.32" font-family="Times,serif" font-size="14.00">texlive core</text>
</a>
</g>
</g>
<!-- tectonic&#45;&gt;texlive&#45;core -->
<!-- sdl2_ttf -->
<g id="node15" class="node">
<title>sdl2_ttf</title>
<g id="a_node15"><a xlink:href="https://github.com/conda-forge/sdl2_ttf-feedstock" xlink:title="sdl2_ttf">
<ellipse fill="#35b779" stroke="black" cx="78.57" cy="-350" rx="49.1" ry="18"/>
<text text-anchor="middle" x="78.57" y="-345.32" font-family="Times,serif" font-size="14.00">sdl2_ttf</text>
</a>
</g>
</g>
<!-- texlive&#45;core&#45;&gt;sdl2_ttf -->
<!-- r&#45;textshaping -->
<g id="node16" class="node">
<title>r&#45;textshaping</title>
<g id="a_node16"><a xlink:href="https://github.com/conda-forge/r-textshaping-feedstock" xlink:title="r textshaping">
<ellipse fill="#35b779" stroke="black" cx="78.57" cy="-278" rx="78.57" ry="18"/>
<text text-anchor="middle" x="78.57" y="-273.32" font-family="Times,serif" font-size="14.00">r textshaping</text>
</a>
</g>
</g>
<!-- sdl2_ttf&#45;&gt;r&#45;textshaping -->
<!-- mapserver -->
<g id="node20" class="node">
<title>mapserver</title>
<g id="a_node20"><a xlink:href="https://github.com/conda-forge/mapserver-feedstock" xlink:title="mapserver">
<ellipse fill="#35b779" stroke="black" cx="78.57" cy="-206" rx="64.89" ry="18"/>
<text text-anchor="middle" x="78.57" y="-201.33" font-family="Times,serif" font-size="14.00">mapserver</text>
</a>
</g>
</g>
<!-- r&#45;textshaping&#45;&gt;mapserver -->
<!-- libass -->
<g id="node17" class="node">
<title>libass</title>
<g id="a_node17"><a xlink:href="https://github.com/conda-forge/libass-feedstock" xlink:title="libass">
<ellipse fill="#35b779" stroke="black" cx="632.57" cy="-458" rx="40.16" ry="18"/>
<text text-anchor="middle" x="632.57" y="-453.32" font-family="Times,serif" font-size="14.00">libass</text>
</a>
</g>
</g>
<!-- libass&#45;&gt;ffmpeg -->
<g id="edge18" class="edge">
<title>libass&#45;&gt;ffmpeg</title>
<path fill="none" stroke="black" d="M632.57,-439.7C632.57,-432.41 632.57,-423.73 632.57,-415.54"/>
<polygon fill="black" stroke="black" points="636.07,-415.62 632.57,-405.62 629.07,-415.62 636.07,-415.62"/>
</g>
<!-- mupdf -->
<g id="node18" class="node">
<title>mupdf</title>
<g id="a_node18"><a xlink:href="https://github.com/conda-forge/mupdf-feedstock" xlink:title="mupdf">
<ellipse fill="#35b779" stroke="black" cx="78.57" cy="-90" rx="43.32" ry="18"/>
<text text-anchor="middle" x="78.57" y="-85.33" font-family="Times,serif" font-size="14.00">mupdf</text>
</a>
</g>
</g>
<!-- pymupdf -->
<g id="node19" class="node">
<title>pymupdf</title>
<g id="a_node19"><a xlink:href="https://github.com/conda-forge/pymupdf-feedstock" xlink:title="pymupdf">
<ellipse fill="#fde725" stroke="black" cx="78.57" cy="-18" rx="55.42" ry="18"/>
<text text-anchor="middle" x="78.57" y="-13.32" font-family="Times,serif" font-size="14.00">pymupdf</text>
</a>
</g>
</g>
<!-- mupdf&#45;&gt;pymupdf -->
<g id="edge19" class="edge">
<title>mupdf&#45;&gt;pymupdf</title>
<path fill="none" stroke="black" d="M78.57,-71.7C78.57,-64.41 78.57,-55.73 78.57,-47.54"/>
<polygon fill="black" stroke="black" points="82.07,-47.62 78.57,-37.62 75.07,-47.62 82.07,-47.62"/>
</g>
<!-- silicon -->
<g id="node23" class="node">
<title>silicon</title>
<g id="a_node23"><a xlink:href="https://github.com/conda-forge/silicon-feedstock" xlink:title="silicon">
<ellipse fill="#35b779" stroke="black" cx="78.57" cy="-134" rx="43.32" ry="18"/>
<text text-anchor="middle" x="78.57" y="-129.32" font-family="Times,serif" font-size="14.00">silicon</text>
</a>
</g>
</g>
<!-- mapserver&#45;&gt;silicon -->
<!-- qt&#45;main -->
<g id="node21" class="node">
<title>qt&#45;main</title>
<g id="a_node21"><a xlink:href="https://github.com/conda-forge/qt-main-feedstock/pull/276" xlink:title="qt main ❎">
<ellipse fill="#31688e" stroke="black" cx="798.57" cy="-386" rx="64.89" ry="18"/>
<text text-anchor="middle" x="798.57" y="-381.32" font-family="Times,serif" font-size="14.00" fill="white">qt main ❎</text>
</a>
</g>
</g>
<!-- qt&#45;main&#45;&gt;opencv -->
<g id="edge21" class="edge">
<title>qt&#45;main&#45;&gt;opencv</title>
<path fill="none" stroke="black" d="M774.25,-368.94C759.57,-359.25 740.69,-346.78 724.78,-336.27"/>
<polygon fill="black" stroke="black" points="726.86,-333.45 716.58,-330.86 723,-339.29 726.86,-333.45"/>
</g>
<!-- qt&#45;webengine -->
<g id="node22" class="node">
<title>qt&#45;webengine</title>
<g id="a_node22"><a xlink:href="https://github.com/conda-forge/qt-webengine-feedstock" xlink:title="qt webengine">
<ellipse fill="#fde725" stroke="black" cx="836.57" cy="-314" rx="79.09" ry="18"/>
<text text-anchor="middle" x="836.57" y="-309.32" font-family="Times,serif" font-size="14.00">qt webengine</text>
</a>
</g>
</g>
<!-- qt&#45;main&#45;&gt;qt&#45;webengine -->
<g id="edge22" class="edge">
<title>qt&#45;main&#45;&gt;qt&#45;webengine</title>
<path fill="none" stroke="black" d="M807.96,-367.7C812.15,-359.98 817.18,-350.71 821.85,-342.11"/>
<polygon fill="black" stroke="black" points="824.86,-343.89 826.56,-333.43 818.71,-340.55 824.86,-343.89"/>
</g>
</g>
</svg>
