<?xml version="1.0" encoding="UTF-8" standalone="no"?>
<!DOCTYPE svg PUBLIC "-//W3C//DTD SVG 1.1//EN"
 "http://www.w3.org/Graphics/SVG/1.1/DTD/svg11.dtd">
<!-- Generated by graphviz version 11.0.0 (20240519.1550)
 -->
<!-- Pages: 1 -->
<svg width="623pt" height="320pt"
 viewBox="0.00 0.00 622.98 320.00" xmlns="http://www.w3.org/2000/svg" xmlns:xlink="http://www.w3.org/1999/xlink">
<g id="graph0" class="graph" transform="scale(1 1) rotate(0) translate(4 316)">
<polygon fill="white" stroke="none" points="-4,4 -4,-316 618.98,-316 618.98,4 -4,4"/>
<!-- emacs -->
<g id="node1" class="node">
<title>emacs</title>
<g id="a_node1"><a xlink:href="https://github.com/conda-forge/emacs-feedstock" xlink:title="emacs">
<ellipse fill="#fde725" stroke="black" cx="177.1" cy="-150" rx="42.79" ry="18"/>
<text text-anchor="middle" x="177.1" y="-145.32" font-family="Times,serif" font-size="14.00">emacs</text>
</a>
</g>
</g>
<!-- librsvg -->
<g id="node2" class="node">
<title>librsvg</title>
<g id="a_node2"><a xlink:href="https://github.com/conda-forge/librsvg-feedstock/pull/115" xlink:title="librsvg ❎">
<ellipse fill="#31688e" stroke="black" cx="177.1" cy="-294" rx="61.2" ry="18"/>
<text text-anchor="middle" x="177.1" y="-289.32" font-family="Times,serif" font-size="14.00" fill="white">librsvg ❎</text>
</a>
</g>
</g>
<!-- librsvg&#45;&gt;emacs -->
<g id="edge1" class="edge">
<title>librsvg&#45;&gt;emacs</title>
<path fill="none" stroke="black" d="M172.23,-275.98C169.54,-265.67 166.47,-252.19 165.1,-240 163.33,-224.1 163.33,-219.9 165.1,-204 166.02,-195.81 167.71,-187.04 169.53,-179.04"/>
<polygon fill="black" stroke="black" points="172.89,-180.04 171.87,-169.49 166.09,-178.37 172.89,-180.04"/>
</g>
<!-- kitty -->
<g id="node9" class="node">
<title>kitty</title>
<g id="a_node9"><a xlink:href="https://github.com/conda-forge/kitty-feedstock" xlink:title="kitty">
<ellipse fill="#fde725" stroke="black" cx="82.1" cy="-222" rx="34.37" ry="18"/>
<text text-anchor="middle" x="82.1" y="-217.32" font-family="Times,serif" font-size="14.00">kitty</text>
</a>
</g>
</g>
<!-- librsvg&#45;&gt;kitty -->
<g id="edge3" class="edge">
<title>librsvg&#45;&gt;kitty</title>
<path fill="none" stroke="black" d="M155.07,-276.76C141.76,-266.96 124.66,-254.36 110.37,-243.83"/>
<polygon fill="black" stroke="black" points="112.79,-241.26 102.66,-238.15 108.64,-246.9 112.79,-241.26"/>
</g>
<!-- gtk3 -->
<g id="node10" class="node">
<title>gtk3</title>
<g id="a_node10"><a xlink:href="https://github.com/conda-forge/gtk3-feedstock" xlink:title="gtk3">
<ellipse fill="#fde725" stroke="black" cx="208.1" cy="-222" rx="33.85" ry="18"/>
<text text-anchor="middle" x="208.1" y="-217.32" font-family="Times,serif" font-size="14.00">gtk3</text>
</a>
</g>
</g>
<!-- librsvg&#45;&gt;gtk3 -->
<g id="edge2" class="edge">
<title>librsvg&#45;&gt;gtk3</title>
<path fill="none" stroke="black" d="M184.77,-275.7C188.2,-267.95 192.32,-258.64 196.14,-250.02"/>
<polygon fill="black" stroke="black" points="199.28,-251.57 200.13,-241.01 192.88,-248.73 199.28,-251.57"/>
</g>
<!-- opencv -->
<g id="node3" class="node">
<title>opencv</title>
<g id="a_node3"><a xlink:href="https://github.com/conda-forge/opencv-feedstock" xlink:title="opencv">
<ellipse fill="#35b779" stroke="black" cx="120.1" cy="-18" rx="46.47" ry="18"/>
<text text-anchor="middle" x="120.1" y="-13.32" font-family="Times,serif" font-size="14.00">opencv</text>
</a>
</g>
</g>
<!-- openjdk -->
<g id="node4" class="node">
<title>openjdk</title>
<g id="a_node4"><a xlink:href="https://github.com/conda-forge/openjdk-feedstock/pull/163" xlink:title="openjdk ❎">
<ellipse fill="#31688e" stroke="black" cx="120.1" cy="-62" rx="65.94" ry="18"/>
<text text-anchor="middle" x="120.1" y="-57.33" font-family="Times,serif" font-size="14.00" fill="white">openjdk ❎</text>
</a>
</g>
</g>
<!-- r&#45;cairo -->
<g id="node5" class="node">
<title>r&#45;cairo</title>
<g id="a_node5"><a xlink:href="https://github.com/conda-forge/r-cairo-feedstock/pull/37" xlink:title="r cairo ✓">
<ellipse fill="#31688e" stroke="black" cx="343.1" cy="-62" rx="51.73" ry="18"/>
<text text-anchor="middle" x="343.1" y="-57.33" font-family="Times,serif" font-size="14.00" fill="white">r cairo ✓</text>
</a>
</g>
</g>
<!-- tectonic -->
<g id="node6" class="node">
<title>tectonic</title>
<g id="a_node6"><a xlink:href="https://github.com/conda-forge/tectonic-feedstock/pull/71" xlink:title="tectonic ❎">
<ellipse fill="#31688e" stroke="black" cx="530.1" cy="-106" rx="66.47" ry="18"/>
<text text-anchor="middle" x="530.1" y="-101.33" font-family="Times,serif" font-size="14.00" fill="white">tectonic ❎</text>
</a>
</g>
</g>
<!-- texlive&#45;core -->
<g id="node7" class="node">
<title>texlive&#45;core</title>
<g id="a_node7"><a xlink:href="https://github.com/conda-forge/texlive-core-feedstock/pull/93" xlink:title="texlive core ❎">
<ellipse fill="#31688e" stroke="black" cx="530.1" cy="-222" rx="84.88" ry="18"/>
<text text-anchor="middle" x="530.1" y="-217.32" font-family="Times,serif" font-size="14.00" fill="white">texlive core ❎</text>
</a>
</g>
</g>
<!-- gtk2 -->
<g id="node8" class="node">
<title>gtk2</title>
<g id="a_node8"><a xlink:href="https://github.com/conda-forge/gtk2-feedstock/pull/27" xlink:title="gtk2 ❎">
<ellipse fill="#31688e" stroke="black" cx="49.1" cy="-294" rx="49.1" ry="18"/>
<text text-anchor="middle" x="49.1" y="-289.32" font-family="Times,serif" font-size="14.00" fill="white">gtk2 ❎</text>
</a>
</g>
</g>
<!-- gtk2&#45;&gt;kitty -->
<g id="edge4" class="edge">
<title>gtk2&#45;&gt;kitty</title>
<path fill="none" stroke="black" d="M57.09,-276.05C60.78,-268.23 65.25,-258.75 69.39,-249.98"/>
<polygon fill="black" stroke="black" points="72.44,-251.7 73.54,-241.16 66.11,-248.71 72.44,-251.7"/>
</g>
<!-- gtk3&#45;&gt;emacs -->
<g id="edge5" class="edge">
<title>gtk3&#45;&gt;emacs</title>
<path fill="none" stroke="black" d="M200.6,-204.05C197.17,-196.32 193.03,-186.96 189.18,-178.27"/>
<polygon fill="black" stroke="black" points="192.4,-176.9 185.15,-169.17 186,-179.73 192.4,-176.9"/>
</g>
<!-- r&#45;textshaping -->
<g id="node11" class="node">
<title>r&#45;textshaping</title>
<g id="a_node11"><a xlink:href="https://github.com/conda-forge/r-textshaping-feedstock/pull/24" xlink:title="r textshaping ❎">
<ellipse fill="#31688e" stroke="black" cx="343.1" cy="-222" rx="93.82" ry="18"/>
<text text-anchor="middle" x="343.1" y="-217.32" font-family="Times,serif" font-size="14.00" fill="white">r textshaping ❎</text>
</a>
</g>
</g>
<!-- panda3d -->
<g id="node12" class="node">
<title>panda3d</title>
<g id="a_node12"><a xlink:href="https://github.com/conda-forge/panda3d-feedstock/pull/50" xlink:title="panda3d ❎">
<ellipse fill="#31688e" stroke="black" cx="343.1" cy="-106" rx="69.62" ry="18"/>
<text text-anchor="middle" x="343.1" y="-101.33" font-family="Times,serif" font-size="14.00" fill="white">panda3d ❎</text>
</a>
</g>
</g>
<!-- gtk4 -->
<g id="node13" class="node">
<title>gtk4</title>
<g id="a_node13"><a xlink:href="https://github.com/conda-forge/gtk4-feedstock/pull/55" xlink:title="gtk4 ❎">
<ellipse fill="#31688e" stroke="black" cx="530.1" cy="-62" rx="49.1" ry="18"/>
<text text-anchor="middle" x="530.1" y="-57.33" font-family="Times,serif" font-size="14.00" fill="white">gtk4 ❎</text>
</a>
</g>
</g>
<!-- qt&#45;webengine -->
<g id="node14" class="node">
<title>qt&#45;webengine</title>
<g id="a_node14"><a xlink:href="https://github.com/conda-forge/qt-webengine-feedstock" xlink:title="qt webengine">
<ellipse fill="#35b779" stroke="black" cx="120.1" cy="-106" rx="79.09" ry="18"/>
<text text-anchor="middle" x="120.1" y="-101.33" font-family="Times,serif" font-size="14.00">qt webengine</text>
</a>
</g>
</g>
</g>
</svg>
