<?xml version="1.0" encoding="UTF-8" standalone="no"?>
<!DOCTYPE svg PUBLIC "-//W3C//DTD SVG 1.1//EN"
 "http://www.w3.org/Graphics/SVG/1.1/DTD/svg11.dtd">
<!-- Generated by graphviz version 11.0.0 (20240519.1550)
 -->
<!-- Pages: 1 -->
<svg width="739pt" height="476pt"
 viewBox="0.00 0.00 738.97 476.00" xmlns="http://www.w3.org/2000/svg" xmlns:xlink="http://www.w3.org/1999/xlink">
<g id="graph0" class="graph" transform="scale(1 1) rotate(0) translate(4 472)">
<polygon fill="white" stroke="none" points="-4,4 -4,-472 734.97,-472 734.97,4 -4,4"/>
<!-- emacs -->
<g id="node1" class="node">
<title>emacs</title>
<g id="a_node1"><a xlink:href="https://github.com/conda-forge/emacs-feedstock" xlink:title="emacs">
<ellipse fill="#fde725" stroke="black" cx="372.88" cy="-126" rx="42.79" ry="18"/>
<text text-anchor="middle" x="372.88" y="-121.33" font-family="Times,serif" font-size="14.00">emacs</text>
</a>
</g>
</g>
<!-- librsvg -->
<g id="node2" class="node">
<title>librsvg</title>
<g id="a_node2"><a xlink:href="https://github.com/conda-forge/librsvg-feedstock" xlink:title="librsvg">
<ellipse fill="#fde725" stroke="black" cx="347.88" cy="-270" rx="45.95" ry="18"/>
<text text-anchor="middle" x="347.88" y="-265.32" font-family="Times,serif" font-size="14.00">librsvg</text>
</a>
</g>
</g>
<!-- librsvg&#45;&gt;emacs -->
<g id="edge1" class="edge">
<title>librsvg&#45;&gt;emacs</title>
<path fill="none" stroke="black" d="M350.02,-251.54C352.33,-233.55 356.28,-204.72 360.88,-180 362.39,-171.9 364.26,-163.16 366.08,-155.15"/>
<polygon fill="black" stroke="black" points="369.45,-156.12 368.31,-145.59 362.63,-154.54 369.45,-156.12"/>
</g>
<!-- kitty -->
<g id="node3" class="node">
<title>kitty</title>
<g id="a_node3"><a xlink:href="https://github.com/conda-forge/kitty-feedstock" xlink:title="kitty">
<ellipse fill="#fde725" stroke="black" cx="273.88" cy="-198" rx="34.37" ry="18"/>
<text text-anchor="middle" x="273.88" y="-193.32" font-family="Times,serif" font-size="14.00">kitty</text>
</a>
</g>
</g>
<!-- librsvg&#45;&gt;kitty -->
<g id="edge2" class="edge">
<title>librsvg&#45;&gt;kitty</title>
<path fill="none" stroke="black" d="M331.09,-253.12C321.4,-243.95 309.04,-232.26 298.29,-222.09"/>
<polygon fill="black" stroke="black" points="300.87,-219.71 291.2,-215.38 296.06,-224.79 300.87,-219.71"/>
</g>
<!-- gtk3 -->
<g id="node4" class="node">
<title>gtk3</title>
<g id="a_node4"><a xlink:href="https://github.com/conda-forge/gtk3-feedstock" xlink:title="gtk3">
<ellipse fill="#fde725" stroke="black" cx="403.88" cy="-198" rx="33.85" ry="18"/>
<text text-anchor="middle" x="403.88" y="-193.32" font-family="Times,serif" font-size="14.00">gtk3</text>
</a>
</g>
</g>
<!-- librsvg&#45;&gt;gtk3 -->
<g id="edge3" class="edge">
<title>librsvg&#45;&gt;gtk3</title>
<path fill="none" stroke="black" d="M361.15,-252.41C367.94,-243.92 376.35,-233.41 383.91,-223.96"/>
<polygon fill="black" stroke="black" points="386.63,-226.17 390.14,-216.17 381.16,-221.79 386.63,-226.17"/>
</g>
<!-- gtk3&#45;&gt;emacs -->
<g id="edge4" class="edge">
<title>gtk3&#45;&gt;emacs</title>
<path fill="none" stroke="black" d="M396.38,-180.05C392.95,-172.32 388.8,-162.96 384.96,-154.27"/>
<polygon fill="black" stroke="black" points="388.18,-152.9 380.93,-145.17 381.78,-155.73 388.18,-152.9"/>
</g>
<!-- opencv -->
<g id="node5" class="node">
<title>opencv</title>
<g id="a_node5"><a xlink:href="https://github.com/conda-forge/opencv-feedstock" xlink:title="opencv">
<ellipse fill="#fde725" stroke="black" cx="577.88" cy="-234" rx="46.47" ry="18"/>
<text text-anchor="middle" x="577.88" y="-229.32" font-family="Times,serif" font-size="14.00">opencv</text>
</a>
</g>
</g>
<!-- openjdk -->
<g id="node6" class="node">
<title>openjdk</title>
<g id="a_node6"><a xlink:href="https://github.com/conda-forge/openjdk-feedstock/pull/163" xlink:title="openjdk ❎">
<ellipse fill="#31688e" stroke="black" cx="84.88" cy="-450" rx="65.94" ry="18"/>
<text text-anchor="middle" x="84.88" y="-445.32" font-family="Times,serif" font-size="14.00" fill="white">openjdk ❎</text>
</a>
</g>
</g>
<!-- r&#45;cairo -->
<g id="node7" class="node">
<title>r&#45;cairo</title>
<g id="a_node7"><a xlink:href="https://github.com/conda-forge/r-cairo-feedstock" xlink:title="r cairo">
<ellipse fill="#ff8c00" stroke="black" cx="84.88" cy="-378" rx="43.84" ry="18"/>
<text text-anchor="middle" x="84.88" y="-373.32" font-family="Times,serif" font-size="14.00">r cairo</text>
</a>
</g>
</g>
<!-- openjdk&#45;&gt;r&#45;cairo -->
<!-- tectonic -->
<g id="node11" class="node">
<title>tectonic</title>
<g id="a_node11"><a xlink:href="https://github.com/conda-forge/tectonic-feedstock/pull/71" xlink:title="tectonic ❎">
<ellipse fill="#31688e" stroke="black" cx="84.88" cy="-306" rx="66.47" ry="18"/>
<text text-anchor="middle" x="84.88" y="-301.32" font-family="Times,serif" font-size="14.00" fill="white">tectonic ❎</text>
</a>
</g>
</g>
<!-- r&#45;cairo&#45;&gt;tectonic -->
<!-- pango -->
<g id="node8" class="node">
<title>pango</title>
<g id="a_node8"><a xlink:href="https://github.com/conda-forge/pango-feedstock/pull/74" xlink:title="pango ✓">
<ellipse fill="#31688e" stroke="black" cx="347.88" cy="-342" rx="49.63" ry="18"/>
<text text-anchor="middle" x="347.88" y="-337.32" font-family="Times,serif" font-size="14.00" fill="white">pango ✓</text>
</a>
</g>
</g>
<!-- pango&#45;&gt;librsvg -->
<g id="edge6" class="edge">
<title>pango&#45;&gt;librsvg</title>
<path fill="none" stroke="black" d="M347.88,-323.7C347.88,-316.41 347.88,-307.73 347.88,-299.54"/>
<polygon fill="black" stroke="black" points="351.38,-299.62 347.88,-289.62 344.38,-299.62 351.38,-299.62"/>
</g>
<!-- pango&#45;&gt;kitty -->
<g id="edge7" class="edge">
<title>pango&#45;&gt;kitty</title>
<path fill="none" stroke="black" d="M326.29,-325.4C314.66,-315.88 301.06,-302.72 292.88,-288 282.61,-269.51 277.88,-246.01 275.71,-227.81"/>
<polygon fill="black" stroke="black" points="279.21,-227.56 274.75,-217.95 272.24,-228.25 279.21,-227.56"/>
</g>
<!-- pango&#45;&gt;gtk3 -->
<g id="edge8" class="edge">
<title>pango&#45;&gt;gtk3</title>
<path fill="none" stroke="black" d="M370.9,-325.75C382.83,-316.42 396.26,-303.34 402.88,-288 411.08,-269.01 410.98,-245.53 409.01,-227.47"/>
<polygon fill="black" stroke="black" points="412.5,-227.14 407.68,-217.71 405.57,-228.09 412.5,-227.14"/>
</g>
<!-- gtk2 -->
<g id="node9" class="node">
<title>gtk2</title>
<g id="a_node9"><a xlink:href="https://github.com/conda-forge/gtk2-feedstock" xlink:title="gtk2">
<ellipse fill="#fde725" stroke="black" cx="211.88" cy="-270" rx="33.85" ry="18"/>
<text text-anchor="middle" x="211.88" y="-265.32" font-family="Times,serif" font-size="14.00">gtk2</text>
</a>
</g>
</g>
<!-- pango&#45;&gt;gtk2 -->
<g id="edge9" class="edge">
<title>pango&#45;&gt;gtk2</title>
<path fill="none" stroke="black" d="M320.03,-326.67C298.47,-315.57 268.51,-300.15 245.59,-288.35"/>
<polygon fill="black" stroke="black" points="247.45,-285.37 236.95,-283.91 244.24,-291.59 247.45,-285.37"/>
</g>
<!-- gtk4 -->
<g id="node10" class="node">
<title>gtk4</title>
<g id="a_node10"><a xlink:href="https://github.com/conda-forge/gtk4-feedstock" xlink:title="gtk4">
<ellipse fill="#fde725" stroke="black" cx="489.88" cy="-198" rx="33.85" ry="18"/>
<text text-anchor="middle" x="489.88" y="-193.32" font-family="Times,serif" font-size="14.00">gtk4</text>
</a>
</g>
</g>
<!-- pango&#45;&gt;gtk4 -->
<g id="edge10" class="edge">
<title>pango&#45;&gt;gtk4</title>
<path fill="none" stroke="black" d="M371.84,-325.77C386.48,-315.9 405.16,-302.25 419.88,-288 439.87,-268.64 459.16,-243.48 472.4,-224.85"/>
<polygon fill="black" stroke="black" points="475.2,-226.95 478.07,-216.75 469.47,-222.94 475.2,-226.95"/>
</g>
<!-- gtk2&#45;&gt;kitty -->
<g id="edge11" class="edge">
<title>gtk2&#45;&gt;kitty</title>
<path fill="none" stroke="black" d="M225.64,-253.46C233.59,-244.49 243.75,-233.02 252.7,-222.92"/>
<polygon fill="black" stroke="black" points="255.15,-225.43 259.16,-215.62 249.91,-220.79 255.15,-225.43"/>
</g>
<!-- texlive&#45;core -->
<g id="node12" class="node">
<title>texlive&#45;core</title>
<g id="a_node12"><a xlink:href="https://github.com/conda-forge/texlive-core-feedstock/pull/93" xlink:title="texlive core ❎">
<ellipse fill="#31688e" stroke="black" cx="84.88" cy="-234" rx="84.88" ry="18"/>
<text text-anchor="middle" x="84.88" y="-229.32" font-family="Times,serif" font-size="14.00" fill="white">texlive core ❎</text>
</a>
</g>
</g>
<!-- tectonic&#45;&gt;texlive&#45;core -->
<!-- r&#45;textshaping -->
<g id="node13" class="node">
<title>r&#45;textshaping</title>
<g id="a_node13"><a xlink:href="https://github.com/conda-forge/r-textshaping-feedstock" xlink:title="r textshaping">
<ellipse fill="#ff8c00" stroke="black" cx="84.88" cy="-162" rx="78.57" ry="18"/>
<text text-anchor="middle" x="84.88" y="-157.32" font-family="Times,serif" font-size="14.00">r textshaping</text>
</a>
</g>
</g>
<!-- texlive&#45;core&#45;&gt;r&#45;textshaping -->
<!-- panda3d -->
<g id="node14" class="node">
<title>panda3d</title>
<g id="a_node14"><a xlink:href="https://github.com/conda-forge/panda3d-feedstock" xlink:title="panda3d">
<ellipse fill="#35b779" stroke="black" cx="84.88" cy="-90" rx="54.36" ry="18"/>
<text text-anchor="middle" x="84.88" y="-85.33" font-family="Times,serif" font-size="14.00">panda3d</text>
</a>
</g>
</g>
<!-- r&#45;textshaping&#45;&gt;panda3d -->
<!-- mapserver -->
<g id="node15" class="node">
<title>mapserver</title>
<g id="a_node15"><a xlink:href="https://github.com/conda-forge/mapserver-feedstock/pull/50" xlink:title="mapserver ❎">
<ellipse fill="#31688e" stroke="black" cx="84.88" cy="-18" rx="80.14" ry="18"/>
<text text-anchor="middle" x="84.88" y="-13.32" font-family="Times,serif" font-size="14.00" fill="white">mapserver ❎</text>
</a>
</g>
</g>
<!-- panda3d&#45;&gt;mapserver -->
<!-- qt&#45;main -->
<g id="node16" class="node">
<title>qt&#45;main</title>
<g id="a_node16"><a xlink:href="https://github.com/conda-forge/qt-main-feedstock/pull/276" xlink:title="qt main ❎">
<ellipse fill="#31688e" stroke="black" cx="614.88" cy="-306" rx="64.89" ry="18"/>
<text text-anchor="middle" x="614.88" y="-301.32" font-family="Times,serif" font-size="14.00" fill="white">qt main ❎</text>
</a>
</g>
</g>
<!-- qt&#45;main&#45;&gt;opencv -->
<g id="edge17" class="edge">
<title>qt&#45;main&#45;&gt;opencv</title>
<path fill="none" stroke="black" d="M605.73,-287.7C601.66,-279.98 596.76,-270.71 592.21,-262.11"/>
<polygon fill="black" stroke="black" points="595.4,-260.65 587.63,-253.44 589.21,-263.92 595.4,-260.65"/>
</g>
<!-- qt&#45;webengine -->
<g id="node17" class="node">
<title>qt&#45;webengine</title>
<g id="a_node17"><a xlink:href="https://github.com/conda-forge/qt-webengine-feedstock" xlink:title="qt webengine">
<ellipse fill="#fde725" stroke="black" cx="651.88" cy="-162" rx="79.09" ry="18"/>
<text text-anchor="middle" x="651.88" y="-157.32" font-family="Times,serif" font-size="14.00">qt webengine</text>
</a>
</g>
</g>
<!-- qt&#45;main&#45;&gt;qt&#45;webengine -->
<g id="edge18" class="edge">
<title>qt&#45;main&#45;&gt;qt&#45;webengine</title>
<path fill="none" stroke="black" d="M621.23,-287.97C624.94,-277.66 629.53,-264.18 632.88,-252 638.41,-231.95 643.27,-208.99 646.7,-191.41"/>
<polygon fill="black" stroke="black" points="650.11,-192.17 648.54,-181.69 643.24,-190.86 650.11,-192.17"/>
</g>
</g>
</svg>
