<?xml version="1.0" encoding="UTF-8" standalone="no"?>
<!DOCTYPE svg PUBLIC "-//W3C//DTD SVG 1.1//EN"
 "http://www.w3.org/Graphics/SVG/1.1/DTD/svg11.dtd">
<!-- Generated by graphviz version 11.0.0 (20240519.1550)
 -->
<!-- Pages: 1 -->
<svg width="701pt" height="276pt"
 viewBox="0.00 0.00 700.67 276.00" xmlns="http://www.w3.org/2000/svg" xmlns:xlink="http://www.w3.org/1999/xlink">
<g id="graph0" class="graph" transform="scale(1 1) rotate(0) translate(4 272)">
<polygon fill="white" stroke="none" points="-4,4 -4,-272 696.67,-272 696.67,4 -4,4"/>
<!-- emacs -->
<g id="node1" class="node">
<title>emacs</title>
<g id="a_node1"><a xlink:href="https://github.com/conda-forge/emacs-feedstock" xlink:title="emacs">
<ellipse fill="#fde725" stroke="black" cx="153.85" cy="-106" rx="42.79" ry="18"/>
<text text-anchor="middle" x="153.85" y="-101.33" font-family="Times,serif" font-size="14.00">emacs</text>
</a>
</g>
</g>
<!-- librsvg -->
<g id="node2" class="node">
<title>librsvg</title>
<g id="a_node2"><a xlink:href="https://github.com/conda-forge/librsvg-feedstock" xlink:title="librsvg">
<ellipse fill="#ff8c00" stroke="black" cx="131.85" cy="-250" rx="45.95" ry="18"/>
<text text-anchor="middle" x="131.85" y="-245.32" font-family="Times,serif" font-size="14.00">librsvg</text>
</a>
</g>
</g>
<!-- librsvg&#45;&gt;emacs -->
<g id="edge1" class="edge">
<title>librsvg&#45;&gt;emacs</title>
<path fill="none" stroke="black" d="M133.23,-231.53C134.8,-213.52 137.68,-184.68 141.85,-160 143.22,-151.87 145.05,-143.12 146.87,-135.12"/>
<polygon fill="black" stroke="black" points="150.24,-136.1 149.12,-125.56 143.42,-134.49 150.24,-136.1"/>
</g>
<!-- kitty -->
<g id="node9" class="node">
<title>kitty</title>
<g id="a_node9"><a xlink:href="https://github.com/conda-forge/kitty-feedstock" xlink:title="kitty">
<ellipse fill="#fde725" stroke="black" cx="51.85" cy="-178" rx="34.37" ry="18"/>
<text text-anchor="middle" x="51.85" y="-173.32" font-family="Times,serif" font-size="14.00">kitty</text>
</a>
</g>
</g>
<!-- librsvg&#45;&gt;kitty -->
<g id="edge3" class="edge">
<title>librsvg&#45;&gt;kitty</title>
<path fill="none" stroke="black" d="M113.69,-233.12C102.97,-223.73 89.22,-211.7 77.4,-201.36"/>
<polygon fill="black" stroke="black" points="79.8,-198.81 69.97,-194.86 75.19,-204.08 79.8,-198.81"/>
</g>
<!-- gtk3 -->
<g id="node10" class="node">
<title>gtk3</title>
<g id="a_node10"><a xlink:href="https://github.com/conda-forge/gtk3-feedstock" xlink:title="gtk3">
<ellipse fill="#fde725" stroke="black" cx="184.85" cy="-178" rx="33.85" ry="18"/>
<text text-anchor="middle" x="184.85" y="-173.32" font-family="Times,serif" font-size="14.00">gtk3</text>
</a>
</g>
</g>
<!-- librsvg&#45;&gt;gtk3 -->
<g id="edge2" class="edge">
<title>librsvg&#45;&gt;gtk3</title>
<path fill="none" stroke="black" d="M144.41,-232.41C150.83,-223.92 158.79,-213.41 165.94,-203.96"/>
<polygon fill="black" stroke="black" points="168.58,-206.28 171.83,-196.19 163,-202.05 168.58,-206.28"/>
</g>
<!-- opencv -->
<g id="node3" class="node">
<title>opencv</title>
<g id="a_node3"><a xlink:href="https://github.com/conda-forge/opencv-feedstock" xlink:title="opencv">
<ellipse fill="#fde725" stroke="black" cx="273.85" cy="-142" rx="46.47" ry="18"/>
<text text-anchor="middle" x="273.85" y="-137.32" font-family="Times,serif" font-size="14.00">opencv</text>
</a>
</g>
</g>
<!-- openjdk -->
<g id="node4" class="node">
<title>openjdk</title>
<g id="a_node4"><a xlink:href="https://github.com/conda-forge/openjdk-feedstock/pull/163" xlink:title="openjdk ❎">
<ellipse fill="#31688e" stroke="black" cx="598.85" cy="-62" rx="65.94" ry="18"/>
<text text-anchor="middle" x="598.85" y="-57.33" font-family="Times,serif" font-size="14.00" fill="white">openjdk ❎</text>
</a>
</g>
</g>
<!-- r&#45;cairo -->
<g id="node5" class="node">
<title>r&#45;cairo</title>
<g id="a_node5"><a xlink:href="https://github.com/conda-forge/r-cairo-feedstock/pull/37" xlink:title="r cairo ✓">
<ellipse fill="#31688e" stroke="black" cx="361.85" cy="-18" rx="51.73" ry="18"/>
<text text-anchor="middle" x="361.85" y="-13.32" font-family="Times,serif" font-size="14.00" fill="white">r cairo ✓</text>
</a>
</g>
</g>
<!-- tectonic -->
<g id="node6" class="node">
<title>tectonic</title>
<g id="a_node6"><a xlink:href="https://github.com/conda-forge/tectonic-feedstock/pull/71" xlink:title="tectonic ❎">
<ellipse fill="#31688e" stroke="black" cx="361.85" cy="-62" rx="66.47" ry="18"/>
<text text-anchor="middle" x="361.85" y="-57.33" font-family="Times,serif" font-size="14.00" fill="white">tectonic ❎</text>
</a>
</g>
</g>
<!-- texlive&#45;core -->
<g id="node7" class="node">
<title>texlive&#45;core</title>
<g id="a_node7"><a xlink:href="https://github.com/conda-forge/texlive-core-feedstock/pull/93" xlink:title="texlive core ❎">
<ellipse fill="#31688e" stroke="black" cx="109.85" cy="-62" rx="84.88" ry="18"/>
<text text-anchor="middle" x="109.85" y="-57.33" font-family="Times,serif" font-size="14.00" fill="white">texlive core ❎</text>
</a>
</g>
</g>
<!-- gtk2 -->
<g id="node8" class="node">
<title>gtk2</title>
<g id="a_node8"><a xlink:href="https://github.com/conda-forge/gtk2-feedstock" xlink:title="gtk2">
<ellipse fill="#ff8c00" stroke="black" cx="33.85" cy="-250" rx="33.85" ry="18"/>
<text text-anchor="middle" x="33.85" y="-245.32" font-family="Times,serif" font-size="14.00">gtk2</text>
</a>
</g>
</g>
<!-- gtk2&#45;&gt;kitty -->
<g id="edge4" class="edge">
<title>gtk2&#45;&gt;kitty</title>
<path fill="none" stroke="black" d="M38.3,-231.7C40.19,-224.32 42.45,-215.52 44.58,-207.25"/>
<polygon fill="black" stroke="black" points="47.97,-208.13 47.07,-197.57 41.19,-206.38 47.97,-208.13"/>
</g>
<!-- gtk3&#45;&gt;emacs -->
<g id="edge5" class="edge">
<title>gtk3&#45;&gt;emacs</title>
<path fill="none" stroke="black" d="M177.34,-160.05C173.92,-152.32 169.77,-142.96 165.92,-134.27"/>
<polygon fill="black" stroke="black" points="169.14,-132.9 161.89,-125.17 162.74,-135.73 169.14,-132.9"/>
</g>
<!-- r&#45;textshaping -->
<g id="node11" class="node">
<title>r&#45;textshaping</title>
<g id="a_node11"><a xlink:href="https://github.com/conda-forge/r-textshaping-feedstock/pull/24" xlink:title="r textshaping ❎">
<ellipse fill="#31688e" stroke="black" cx="598.85" cy="-178" rx="93.82" ry="18"/>
<text text-anchor="middle" x="598.85" y="-173.32" font-family="Times,serif" font-size="14.00" fill="white">r textshaping ❎</text>
</a>
</g>
</g>
<!-- panda3d -->
<g id="node12" class="node">
<title>panda3d</title>
<g id="a_node12"><a xlink:href="https://github.com/conda-forge/panda3d-feedstock" xlink:title="panda3d">
<ellipse fill="#000000" stroke="black" cx="109.85" cy="-18" rx="54.36" ry="18"/>
<text text-anchor="middle" x="109.85" y="-13.32" font-family="Times,serif" font-size="14.00" fill="white">panda3d</text>
</a>
</g>
</g>
<!-- gtk4 -->
<g id="node13" class="node">
<title>gtk4</title>
<g id="a_node13"><a xlink:href="https://github.com/conda-forge/gtk4-feedstock" xlink:title="gtk4">
<ellipse fill="#000000" stroke="black" cx="598.85" cy="-18" rx="33.85" ry="18"/>
<text text-anchor="middle" x="598.85" y="-13.32" font-family="Times,serif" font-size="14.00" fill="white">gtk4</text>
</a>
</g>
</g>
<!-- qt&#45;main -->
<g id="node14" class="node">
<title>qt&#45;main</title>
<g id="a_node14"><a xlink:href="https://github.com/conda-forge/qt-main-feedstock/pull/276" xlink:title="qt main ❎">
<ellipse fill="#31688e" stroke="black" cx="345.85" cy="-214" rx="64.89" ry="18"/>
<text text-anchor="middle" x="345.85" y="-209.32" font-family="Times,serif" font-size="14.00" fill="white">qt main ❎</text>
</a>
</g>
</g>
<!-- qt&#45;main&#45;&gt;opencv -->
<g id="edge6" class="edge">
<title>qt&#45;main&#45;&gt;opencv</title>
<path fill="none" stroke="black" d="M328.78,-196.41C319.69,-187.57 308.33,-176.53 298.32,-166.79"/>
<polygon fill="black" stroke="black" points="300.99,-164.5 291.38,-160.04 296.11,-169.52 300.99,-164.5"/>
</g>
<!-- qt&#45;webengine -->
<g id="node15" class="node">
<title>qt&#45;webengine</title>
<g id="a_node15"><a xlink:href="https://github.com/conda-forge/qt-webengine-feedstock" xlink:title="qt webengine">
<ellipse fill="#fde725" stroke="black" cx="417.85" cy="-142" rx="79.09" ry="18"/>
<text text-anchor="middle" x="417.85" y="-137.32" font-family="Times,serif" font-size="14.00">qt webengine</text>
</a>
</g>
</g>
<!-- qt&#45;main&#45;&gt;qt&#45;webengine -->
<g id="edge7" class="edge">
<title>qt&#45;main&#45;&gt;qt&#45;webengine</title>
<path fill="none" stroke="black" d="M362.91,-196.41C371.66,-187.91 382.49,-177.37 392.22,-167.91"/>
<polygon fill="black" stroke="black" points="394.59,-170.49 399.32,-161.01 389.71,-165.47 394.59,-170.49"/>
</g>
</g>
</svg>
