<?xml version="1.0" encoding="UTF-8" standalone="no"?>
<!DOCTYPE svg PUBLIC "-//W3C//DTD SVG 1.1//EN"
 "http://www.w3.org/Graphics/SVG/1.1/DTD/svg11.dtd">
<!-- Generated by graphviz version 11.0.0 (20240519.1550)
 -->
<!-- Pages: 1 -->
<svg width="936pt" height="664pt"
 viewBox="0.00 0.00 935.97 664.00" xmlns="http://www.w3.org/2000/svg" xmlns:xlink="http://www.w3.org/1999/xlink">
<g id="graph0" class="graph" transform="scale(1 1) rotate(0) translate(4 660)">
<polygon fill="white" stroke="none" points="-4,4 -4,-660 931.97,-660 931.97,4 -4,4"/>
<!-- emacs -->
<g id="node1" class="node">
<title>emacs</title>
<g id="a_node1"><a xlink:href="https://github.com/conda-forge/emacs-feedstock" xlink:title="emacs">
<ellipse fill="#fde725" stroke="black" cx="372.88" cy="-278" rx="42.79" ry="18"/>
<text text-anchor="middle" x="372.88" y="-273.32" font-family="Times,serif" font-size="14.00">emacs</text>
</a>
</g>
</g>
<!-- ffmpeg -->
<g id="node2" class="node">
<title>ffmpeg</title>
<g id="a_node2"><a xlink:href="https://github.com/conda-forge/ffmpeg-feedstock" xlink:title="ffmpeg">
<ellipse fill="#fde725" stroke="black" cx="644.88" cy="-386" rx="45.95" ry="18"/>
<text text-anchor="middle" x="644.88" y="-381.32" font-family="Times,serif" font-size="14.00">ffmpeg</text>
</a>
</g>
</g>
<!-- opencv -->
<g id="node3" class="node">
<title>opencv</title>
<g id="a_node3"><a xlink:href="https://github.com/conda-forge/opencv-feedstock" xlink:title="opencv">
<ellipse fill="#fde725" stroke="black" cx="704.88" cy="-314" rx="46.47" ry="18"/>
<text text-anchor="middle" x="704.88" y="-309.32" font-family="Times,serif" font-size="14.00">opencv</text>
</a>
</g>
</g>
<!-- ffmpeg&#45;&gt;opencv -->
<g id="edge1" class="edge">
<title>ffmpeg&#45;&gt;opencv</title>
<path fill="none" stroke="black" d="M659.1,-368.41C666.35,-359.95 675.31,-349.49 683.39,-340.08"/>
<polygon fill="black" stroke="black" points="685.93,-342.49 689.78,-332.62 680.61,-337.93 685.93,-342.49"/>
</g>
<!-- panda3d -->
<g id="node4" class="node">
<title>panda3d</title>
<g id="a_node4"><a xlink:href="https://github.com/conda-forge/panda3d-feedstock" xlink:title="panda3d">
<ellipse fill="#fde725" stroke="black" cx="585.88" cy="-314" rx="54.36" ry="18"/>
<text text-anchor="middle" x="585.88" y="-309.32" font-family="Times,serif" font-size="14.00">panda3d</text>
</a>
</g>
</g>
<!-- ffmpeg&#45;&gt;panda3d -->
<g id="edge2" class="edge">
<title>ffmpeg&#45;&gt;panda3d</title>
<path fill="none" stroke="black" d="M630.9,-368.41C623.77,-359.95 614.95,-349.49 607.02,-340.08"/>
<polygon fill="black" stroke="black" points="609.86,-338.02 600.74,-332.63 604.51,-342.53 609.86,-338.02"/>
</g>
<!-- librsvg -->
<g id="node5" class="node">
<title>librsvg</title>
<g id="a_node5"><a xlink:href="https://github.com/conda-forge/librsvg-feedstock" xlink:title="librsvg">
<ellipse fill="#fde725" stroke="black" cx="347.88" cy="-422" rx="45.95" ry="18"/>
<text text-anchor="middle" x="347.88" y="-417.32" font-family="Times,serif" font-size="14.00">librsvg</text>
</a>
</g>
</g>
<!-- librsvg&#45;&gt;emacs -->
<g id="edge3" class="edge">
<title>librsvg&#45;&gt;emacs</title>
<path fill="none" stroke="black" d="M350.02,-403.54C352.33,-385.55 356.28,-356.72 360.88,-332 362.39,-323.9 364.26,-315.16 366.08,-307.15"/>
<polygon fill="black" stroke="black" points="369.45,-308.12 368.31,-297.59 362.63,-306.54 369.45,-308.12"/>
</g>
<!-- kitty -->
<g id="node6" class="node">
<title>kitty</title>
<g id="a_node6"><a xlink:href="https://github.com/conda-forge/kitty-feedstock" xlink:title="kitty">
<ellipse fill="#fde725" stroke="black" cx="273.88" cy="-350" rx="34.37" ry="18"/>
<text text-anchor="middle" x="273.88" y="-345.32" font-family="Times,serif" font-size="14.00">kitty</text>
</a>
</g>
</g>
<!-- librsvg&#45;&gt;kitty -->
<g id="edge4" class="edge">
<title>librsvg&#45;&gt;kitty</title>
<path fill="none" stroke="black" d="M331.09,-405.12C321.4,-395.95 309.04,-384.26 298.29,-374.09"/>
<polygon fill="black" stroke="black" points="300.87,-371.71 291.2,-367.38 296.06,-376.79 300.87,-371.71"/>
</g>
<!-- gtk3 -->
<g id="node7" class="node">
<title>gtk3</title>
<g id="a_node7"><a xlink:href="https://github.com/conda-forge/gtk3-feedstock" xlink:title="gtk3">
<ellipse fill="#fde725" stroke="black" cx="403.88" cy="-350" rx="33.85" ry="18"/>
<text text-anchor="middle" x="403.88" y="-345.32" font-family="Times,serif" font-size="14.00">gtk3</text>
</a>
</g>
</g>
<!-- librsvg&#45;&gt;gtk3 -->
<g id="edge5" class="edge">
<title>librsvg&#45;&gt;gtk3</title>
<path fill="none" stroke="black" d="M361.15,-404.41C367.94,-395.92 376.35,-385.41 383.91,-375.96"/>
<polygon fill="black" stroke="black" points="386.63,-378.17 390.14,-368.17 381.16,-373.79 386.63,-378.17"/>
</g>
<!-- gtk3&#45;&gt;emacs -->
<g id="edge6" class="edge">
<title>gtk3&#45;&gt;emacs</title>
<path fill="none" stroke="black" d="M396.38,-332.05C392.95,-324.32 388.8,-314.96 384.96,-306.27"/>
<polygon fill="black" stroke="black" points="388.18,-304.9 380.93,-297.17 381.78,-307.73 388.18,-304.9"/>
</g>
<!-- openjdk -->
<g id="node8" class="node">
<title>openjdk</title>
<g id="a_node8"><a xlink:href="https://github.com/conda-forge/openjdk-feedstock/pull/163" xlink:title="openjdk ❎">
<ellipse fill="#31688e" stroke="black" cx="84.88" cy="-638" rx="65.94" ry="18"/>
<text text-anchor="middle" x="84.88" y="-633.33" font-family="Times,serif" font-size="14.00" fill="white">openjdk ❎</text>
</a>
</g>
</g>
<!-- r&#45;cairo -->
<g id="node9" class="node">
<title>r&#45;cairo</title>
<g id="a_node9"><a xlink:href="https://github.com/conda-forge/r-cairo-feedstock" xlink:title="r cairo">
<ellipse fill="#35b779" stroke="black" cx="84.88" cy="-566" rx="43.84" ry="18"/>
<text text-anchor="middle" x="84.88" y="-561.33" font-family="Times,serif" font-size="14.00">r cairo</text>
</a>
</g>
</g>
<!-- openjdk&#45;&gt;r&#45;cairo -->
<!-- tectonic -->
<g id="node13" class="node">
<title>tectonic</title>
<g id="a_node13"><a xlink:href="https://github.com/conda-forge/tectonic-feedstock" xlink:title="tectonic">
<ellipse fill="#35b779" stroke="black" cx="84.88" cy="-494" rx="51.21" ry="18"/>
<text text-anchor="middle" x="84.88" y="-489.32" font-family="Times,serif" font-size="14.00">tectonic</text>
</a>
</g>
</g>
<!-- r&#45;cairo&#45;&gt;tectonic -->
<!-- pango -->
<g id="node10" class="node">
<title>pango</title>
<g id="a_node10"><a xlink:href="https://github.com/conda-forge/pango-feedstock/pull/74" xlink:title="pango ❎">
<ellipse fill="#31688e" stroke="black" cx="347.88" cy="-494" rx="57" ry="18"/>
<text text-anchor="middle" x="347.88" y="-489.32" font-family="Times,serif" font-size="14.00" fill="white">pango ❎</text>
</a>
</g>
</g>
<!-- pango&#45;&gt;librsvg -->
<g id="edge8" class="edge">
<title>pango&#45;&gt;librsvg</title>
<path fill="none" stroke="black" d="M347.88,-475.7C347.88,-468.41 347.88,-459.73 347.88,-451.54"/>
<polygon fill="black" stroke="black" points="351.38,-451.62 347.88,-441.62 344.38,-451.62 351.38,-451.62"/>
</g>
<!-- pango&#45;&gt;kitty -->
<g id="edge9" class="edge">
<title>pango&#45;&gt;kitty</title>
<path fill="none" stroke="black" d="M325.74,-476.95C314.23,-467.47 300.93,-454.49 292.88,-440 282.61,-421.51 277.88,-398.01 275.71,-379.81"/>
<polygon fill="black" stroke="black" points="279.21,-379.56 274.75,-369.95 272.24,-380.25 279.21,-379.56"/>
</g>
<!-- pango&#45;&gt;gtk3 -->
<g id="edge10" class="edge">
<title>pango&#45;&gt;gtk3</title>
<path fill="none" stroke="black" d="M371.47,-477.3C383.26,-468 396.36,-455.1 402.88,-440 411.08,-421.01 410.98,-397.53 409.01,-379.47"/>
<polygon fill="black" stroke="black" points="412.5,-379.14 407.68,-369.71 405.57,-380.09 412.5,-379.14"/>
</g>
<!-- gtk2 -->
<g id="node11" class="node">
<title>gtk2</title>
<g id="a_node11"><a xlink:href="https://github.com/conda-forge/gtk2-feedstock" xlink:title="gtk2">
<ellipse fill="#fde725" stroke="black" cx="211.88" cy="-422" rx="33.85" ry="18"/>
<text text-anchor="middle" x="211.88" y="-417.32" font-family="Times,serif" font-size="14.00">gtk2</text>
</a>
</g>
</g>
<!-- pango&#45;&gt;gtk2 -->
<g id="edge11" class="edge">
<title>pango&#45;&gt;gtk2</title>
<path fill="none" stroke="black" d="M319.04,-478.15C297.63,-467.14 268.38,-452.08 245.84,-440.48"/>
<polygon fill="black" stroke="black" points="247.54,-437.42 237.04,-435.95 244.33,-443.64 247.54,-437.42"/>
</g>
<!-- gtk4 -->
<g id="node12" class="node">
<title>gtk4</title>
<g id="a_node12"><a xlink:href="https://github.com/conda-forge/gtk4-feedstock" xlink:title="gtk4">
<ellipse fill="#fde725" stroke="black" cx="489.88" cy="-350" rx="33.85" ry="18"/>
<text text-anchor="middle" x="489.88" y="-345.32" font-family="Times,serif" font-size="14.00">gtk4</text>
</a>
</g>
</g>
<!-- pango&#45;&gt;gtk4 -->
<g id="edge12" class="edge">
<title>pango&#45;&gt;gtk4</title>
<path fill="none" stroke="black" d="M372.5,-477.32C387.05,-467.49 405.39,-454.04 419.88,-440 439.87,-420.64 459.16,-395.48 472.4,-376.85"/>
<polygon fill="black" stroke="black" points="475.2,-378.95 478.07,-368.75 469.47,-374.94 475.2,-378.95"/>
</g>
<!-- gtk2&#45;&gt;kitty -->
<g id="edge13" class="edge">
<title>gtk2&#45;&gt;kitty</title>
<path fill="none" stroke="black" d="M225.64,-405.46C233.59,-396.49 243.75,-385.02 252.7,-374.92"/>
<polygon fill="black" stroke="black" points="255.15,-377.43 259.16,-367.62 249.91,-372.79 255.15,-377.43"/>
</g>
<!-- texlive&#45;core -->
<g id="node14" class="node">
<title>texlive&#45;core</title>
<g id="a_node14"><a xlink:href="https://github.com/conda-forge/texlive-core-feedstock/pull/93" xlink:title="texlive core ❎">
<ellipse fill="#31688e" stroke="black" cx="84.88" cy="-422" rx="84.88" ry="18"/>
<text text-anchor="middle" x="84.88" y="-417.32" font-family="Times,serif" font-size="14.00" fill="white">texlive core ❎</text>
</a>
</g>
</g>
<!-- tectonic&#45;&gt;texlive&#45;core -->
<!-- sdl2_ttf -->
<g id="node15" class="node">
<title>sdl2_ttf</title>
<g id="a_node15"><a xlink:href="https://github.com/conda-forge/sdl2_ttf-feedstock/pull/20" xlink:title="sdl2_ttf ❎">
<ellipse fill="#31688e" stroke="black" cx="84.88" cy="-350" rx="64.36" ry="18"/>
<text text-anchor="middle" x="84.88" y="-345.32" font-family="Times,serif" font-size="14.00" fill="white">sdl2_ttf ❎</text>
</a>
</g>
</g>
<!-- texlive&#45;core&#45;&gt;sdl2_ttf -->
<!-- r&#45;textshaping -->
<g id="node16" class="node">
<title>r&#45;textshaping</title>
<g id="a_node16"><a xlink:href="https://github.com/conda-forge/r-textshaping-feedstock" xlink:title="r textshaping">
<ellipse fill="#35b779" stroke="black" cx="84.88" cy="-278" rx="78.57" ry="18"/>
<text text-anchor="middle" x="84.88" y="-273.32" font-family="Times,serif" font-size="14.00">r textshaping</text>
</a>
</g>
</g>
<!-- sdl2_ttf&#45;&gt;r&#45;textshaping -->
<!-- mapserver -->
<g id="node20" class="node">
<title>mapserver</title>
<g id="a_node20"><a xlink:href="https://github.com/conda-forge/mapserver-feedstock" xlink:title="mapserver">
<ellipse fill="#35b779" stroke="black" cx="84.88" cy="-206" rx="64.89" ry="18"/>
<text text-anchor="middle" x="84.88" y="-201.33" font-family="Times,serif" font-size="14.00">mapserver</text>
</a>
</g>
</g>
<!-- r&#45;textshaping&#45;&gt;mapserver -->
<!-- libass -->
<g id="node17" class="node">
<title>libass</title>
<g id="a_node17"><a xlink:href="https://github.com/conda-forge/libass-feedstock/pull/26" xlink:title="libass ❎">
<ellipse fill="#31688e" stroke="black" cx="644.88" cy="-458" rx="55.42" ry="18"/>
<text text-anchor="middle" x="644.88" y="-453.32" font-family="Times,serif" font-size="14.00" fill="white">libass ❎</text>
</a>
</g>
</g>
<!-- libass&#45;&gt;ffmpeg -->
<g id="edge18" class="edge">
<title>libass&#45;&gt;ffmpeg</title>
<path fill="none" stroke="black" d="M644.88,-439.7C644.88,-432.41 644.88,-423.73 644.88,-415.54"/>
<polygon fill="black" stroke="black" points="648.38,-415.62 644.88,-405.62 641.38,-415.62 648.38,-415.62"/>
</g>
<!-- mupdf -->
<g id="node18" class="node">
<title>mupdf</title>
<g id="a_node18"><a xlink:href="https://github.com/conda-forge/mupdf-feedstock" xlink:title="mupdf">
<ellipse fill="#35b779" stroke="black" cx="84.88" cy="-90" rx="43.32" ry="18"/>
<text text-anchor="middle" x="84.88" y="-85.33" font-family="Times,serif" font-size="14.00">mupdf</text>
</a>
</g>
</g>
<!-- pymupdf -->
<g id="node19" class="node">
<title>pymupdf</title>
<g id="a_node19"><a xlink:href="https://github.com/conda-forge/pymupdf-feedstock" xlink:title="pymupdf">
<ellipse fill="#fde725" stroke="black" cx="84.88" cy="-18" rx="55.42" ry="18"/>
<text text-anchor="middle" x="84.88" y="-13.32" font-family="Times,serif" font-size="14.00">pymupdf</text>
</a>
</g>
</g>
<!-- mupdf&#45;&gt;pymupdf -->
<g id="edge19" class="edge">
<title>mupdf&#45;&gt;pymupdf</title>
<path fill="none" stroke="black" d="M84.88,-71.7C84.88,-64.41 84.88,-55.73 84.88,-47.54"/>
<polygon fill="black" stroke="black" points="88.38,-47.62 84.88,-37.62 81.38,-47.62 88.38,-47.62"/>
</g>
<!-- silicon -->
<g id="node23" class="node">
<title>silicon</title>
<g id="a_node23"><a xlink:href="https://github.com/conda-forge/silicon-feedstock" xlink:title="silicon">
<ellipse fill="#35b779" stroke="black" cx="84.88" cy="-134" rx="43.32" ry="18"/>
<text text-anchor="middle" x="84.88" y="-129.32" font-family="Times,serif" font-size="14.00">silicon</text>
</a>
</g>
</g>
<!-- mapserver&#45;&gt;silicon -->
<!-- qt&#45;main -->
<g id="node21" class="node">
<title>qt&#45;main</title>
<g id="a_node21"><a xlink:href="https://github.com/conda-forge/qt-main-feedstock/pull/276" xlink:title="qt main ❎">
<ellipse fill="#31688e" stroke="black" cx="810.88" cy="-386" rx="64.89" ry="18"/>
<text text-anchor="middle" x="810.88" y="-381.32" font-family="Times,serif" font-size="14.00" fill="white">qt main ❎</text>
</a>
</g>
</g>
<!-- qt&#45;main&#45;&gt;opencv -->
<g id="edge21" class="edge">
<title>qt&#45;main&#45;&gt;opencv</title>
<path fill="none" stroke="black" d="M786.56,-368.94C771.88,-359.25 753,-346.78 737.09,-336.27"/>
<polygon fill="black" stroke="black" points="739.17,-333.45 728.9,-330.86 735.31,-339.29 739.17,-333.45"/>
</g>
<!-- qt&#45;webengine -->
<g id="node22" class="node">
<title>qt&#45;webengine</title>
<g id="a_node22"><a xlink:href="https://github.com/conda-forge/qt-webengine-feedstock" xlink:title="qt webengine">
<ellipse fill="#fde725" stroke="black" cx="848.88" cy="-314" rx="79.09" ry="18"/>
<text text-anchor="middle" x="848.88" y="-309.32" font-family="Times,serif" font-size="14.00">qt webengine</text>
</a>
</g>
</g>
<!-- qt&#45;main&#45;&gt;qt&#45;webengine -->
<g id="edge22" class="edge">
<title>qt&#45;main&#45;&gt;qt&#45;webengine</title>
<path fill="none" stroke="black" d="M820.27,-367.7C824.46,-359.98 829.49,-350.71 834.16,-342.11"/>
<polygon fill="black" stroke="black" points="837.18,-343.89 838.87,-333.43 831.03,-340.55 837.18,-343.89"/>
</g>
</g>
</svg>
