<?xml version="1.0" encoding="UTF-8" standalone="no"?>
<!DOCTYPE svg PUBLIC "-//W3C//DTD SVG 1.1//EN"
 "http://www.w3.org/Graphics/SVG/1.1/DTD/svg11.dtd">
<!-- Generated by graphviz version 11.0.0 (20240519.1550)
 -->
<!-- Pages: 1 -->
<svg width="936pt" height="592pt"
 viewBox="0.00 0.00 936.25 592.00" xmlns="http://www.w3.org/2000/svg" xmlns:xlink="http://www.w3.org/1999/xlink">
<g id="graph0" class="graph" transform="scale(1 1) rotate(0) translate(4 588)">
<polygon fill="white" stroke="none" points="-4,4 -4,-588 932.25,-588 932.25,4 -4,4"/>
<!-- emacs -->
<g id="node1" class="node">
<title>emacs</title>
<g id="a_node1"><a xlink:href="https://github.com/conda-forge/emacs-feedstock" xlink:title="emacs">
<ellipse fill="#fde725" stroke="black" cx="372.88" cy="-242" rx="42.79" ry="18"/>
<text text-anchor="middle" x="372.88" y="-237.32" font-family="Times,serif" font-size="14.00">emacs</text>
</a>
</g>
</g>
<!-- ffmpeg -->
<g id="node2" class="node">
<title>ffmpeg</title>
<g id="a_node2"><a xlink:href="https://github.com/conda-forge/ffmpeg-feedstock" xlink:title="ffmpeg">
<ellipse fill="#35b779" stroke="black" cx="813.88" cy="-386" rx="45.95" ry="18"/>
<text text-anchor="middle" x="813.88" y="-381.32" font-family="Times,serif" font-size="14.00">ffmpeg</text>
</a>
</g>
</g>
<!-- opencv -->
<g id="node3" class="node">
<title>opencv</title>
<g id="a_node3"><a xlink:href="https://github.com/conda-forge/opencv-feedstock" xlink:title="opencv">
<ellipse fill="#fde725" stroke="black" cx="754.88" cy="-314" rx="46.47" ry="18"/>
<text text-anchor="middle" x="754.88" y="-309.32" font-family="Times,serif" font-size="14.00">opencv</text>
</a>
</g>
</g>
<!-- ffmpeg&#45;&gt;opencv -->
<g id="edge1" class="edge">
<title>ffmpeg&#45;&gt;opencv</title>
<path fill="none" stroke="black" d="M799.9,-368.41C792.77,-359.95 783.95,-349.49 776.02,-340.08"/>
<polygon fill="black" stroke="black" points="778.86,-338.02 769.74,-332.63 773.51,-342.53 778.86,-338.02"/>
</g>
<!-- panda3d -->
<g id="node4" class="node">
<title>panda3d</title>
<g id="a_node4"><a xlink:href="https://github.com/conda-forge/panda3d-feedstock" xlink:title="panda3d">
<ellipse fill="#fde725" stroke="black" cx="873.88" cy="-314" rx="54.36" ry="18"/>
<text text-anchor="middle" x="873.88" y="-309.32" font-family="Times,serif" font-size="14.00">panda3d</text>
</a>
</g>
</g>
<!-- ffmpeg&#45;&gt;panda3d -->
<g id="edge2" class="edge">
<title>ffmpeg&#45;&gt;panda3d</title>
<path fill="none" stroke="black" d="M828.1,-368.41C835.35,-359.95 844.31,-349.49 852.39,-340.08"/>
<polygon fill="black" stroke="black" points="854.93,-342.49 858.78,-332.62 849.61,-337.93 854.93,-342.49"/>
</g>
<!-- librsvg -->
<g id="node5" class="node">
<title>librsvg</title>
<g id="a_node5"><a xlink:href="https://github.com/conda-forge/librsvg-feedstock" xlink:title="librsvg">
<ellipse fill="#fde725" stroke="black" cx="347.88" cy="-386" rx="45.95" ry="18"/>
<text text-anchor="middle" x="347.88" y="-381.32" font-family="Times,serif" font-size="14.00">librsvg</text>
</a>
</g>
</g>
<!-- librsvg&#45;&gt;emacs -->
<g id="edge3" class="edge">
<title>librsvg&#45;&gt;emacs</title>
<path fill="none" stroke="black" d="M350.02,-367.54C352.33,-349.55 356.28,-320.72 360.88,-296 362.39,-287.9 364.26,-279.16 366.08,-271.15"/>
<polygon fill="black" stroke="black" points="369.45,-272.12 368.31,-261.59 362.63,-270.54 369.45,-272.12"/>
</g>
<!-- kitty -->
<g id="node6" class="node">
<title>kitty</title>
<g id="a_node6"><a xlink:href="https://github.com/conda-forge/kitty-feedstock" xlink:title="kitty">
<ellipse fill="#fde725" stroke="black" cx="273.88" cy="-314" rx="34.37" ry="18"/>
<text text-anchor="middle" x="273.88" y="-309.32" font-family="Times,serif" font-size="14.00">kitty</text>
</a>
</g>
</g>
<!-- librsvg&#45;&gt;kitty -->
<g id="edge4" class="edge">
<title>librsvg&#45;&gt;kitty</title>
<path fill="none" stroke="black" d="M331.09,-369.12C321.4,-359.95 309.04,-348.26 298.29,-338.09"/>
<polygon fill="black" stroke="black" points="300.87,-335.71 291.2,-331.38 296.06,-340.79 300.87,-335.71"/>
</g>
<!-- gtk3 -->
<g id="node7" class="node">
<title>gtk3</title>
<g id="a_node7"><a xlink:href="https://github.com/conda-forge/gtk3-feedstock" xlink:title="gtk3">
<ellipse fill="#fde725" stroke="black" cx="403.88" cy="-314" rx="33.85" ry="18"/>
<text text-anchor="middle" x="403.88" y="-309.32" font-family="Times,serif" font-size="14.00">gtk3</text>
</a>
</g>
</g>
<!-- librsvg&#45;&gt;gtk3 -->
<g id="edge5" class="edge">
<title>librsvg&#45;&gt;gtk3</title>
<path fill="none" stroke="black" d="M361.15,-368.41C367.94,-359.92 376.35,-349.41 383.91,-339.96"/>
<polygon fill="black" stroke="black" points="386.63,-342.17 390.14,-332.17 381.16,-337.79 386.63,-342.17"/>
</g>
<!-- gtk3&#45;&gt;emacs -->
<g id="edge6" class="edge">
<title>gtk3&#45;&gt;emacs</title>
<path fill="none" stroke="black" d="M396.38,-296.05C392.95,-288.32 388.8,-278.96 384.96,-270.27"/>
<polygon fill="black" stroke="black" points="388.18,-268.9 380.93,-261.17 381.78,-271.73 388.18,-268.9"/>
</g>
<!-- openjdk -->
<g id="node8" class="node">
<title>openjdk</title>
<g id="a_node8"><a xlink:href="https://github.com/conda-forge/openjdk-feedstock/pull/163" xlink:title="openjdk ❎">
<ellipse fill="#31688e" stroke="black" cx="84.88" cy="-566" rx="65.94" ry="18"/>
<text text-anchor="middle" x="84.88" y="-561.33" font-family="Times,serif" font-size="14.00" fill="white">openjdk ❎</text>
</a>
</g>
</g>
<!-- r&#45;cairo -->
<g id="node9" class="node">
<title>r&#45;cairo</title>
<g id="a_node9"><a xlink:href="https://github.com/conda-forge/r-cairo-feedstock" xlink:title="r cairo">
<ellipse fill="#35b779" stroke="black" cx="84.88" cy="-494" rx="43.84" ry="18"/>
<text text-anchor="middle" x="84.88" y="-489.32" font-family="Times,serif" font-size="14.00">r cairo</text>
</a>
</g>
</g>
<!-- openjdk&#45;&gt;r&#45;cairo -->
<!-- tectonic -->
<g id="node13" class="node">
<title>tectonic</title>
<g id="a_node13"><a xlink:href="https://github.com/conda-forge/tectonic-feedstock" xlink:title="tectonic">
<ellipse fill="#35b779" stroke="black" cx="84.88" cy="-422" rx="51.21" ry="18"/>
<text text-anchor="middle" x="84.88" y="-417.32" font-family="Times,serif" font-size="14.00">tectonic</text>
</a>
</g>
</g>
<!-- r&#45;cairo&#45;&gt;tectonic -->
<!-- pango -->
<g id="node10" class="node">
<title>pango</title>
<g id="a_node10"><a xlink:href="https://github.com/conda-forge/pango-feedstock/pull/74" xlink:title="pango ✓">
<ellipse fill="#31688e" stroke="black" cx="347.88" cy="-458" rx="49.63" ry="18"/>
<text text-anchor="middle" x="347.88" y="-453.32" font-family="Times,serif" font-size="14.00" fill="white">pango ✓</text>
</a>
</g>
</g>
<!-- pango&#45;&gt;librsvg -->
<g id="edge8" class="edge">
<title>pango&#45;&gt;librsvg</title>
<path fill="none" stroke="black" d="M347.88,-439.7C347.88,-432.41 347.88,-423.73 347.88,-415.54"/>
<polygon fill="black" stroke="black" points="351.38,-415.62 347.88,-405.62 344.38,-415.62 351.38,-415.62"/>
</g>
<!-- pango&#45;&gt;kitty -->
<g id="edge9" class="edge">
<title>pango&#45;&gt;kitty</title>
<path fill="none" stroke="black" d="M326.29,-441.4C314.66,-431.88 301.06,-418.72 292.88,-404 282.61,-385.51 277.88,-362.01 275.71,-343.81"/>
<polygon fill="black" stroke="black" points="279.21,-343.56 274.75,-333.95 272.24,-344.25 279.21,-343.56"/>
</g>
<!-- pango&#45;&gt;gtk3 -->
<g id="edge10" class="edge">
<title>pango&#45;&gt;gtk3</title>
<path fill="none" stroke="black" d="M370.9,-441.75C382.83,-432.42 396.26,-419.34 402.88,-404 411.08,-385.01 410.98,-361.53 409.01,-343.47"/>
<polygon fill="black" stroke="black" points="412.5,-343.14 407.68,-333.71 405.57,-344.09 412.5,-343.14"/>
</g>
<!-- gtk2 -->
<g id="node11" class="node">
<title>gtk2</title>
<g id="a_node11"><a xlink:href="https://github.com/conda-forge/gtk2-feedstock" xlink:title="gtk2">
<ellipse fill="#fde725" stroke="black" cx="211.88" cy="-386" rx="33.85" ry="18"/>
<text text-anchor="middle" x="211.88" y="-381.32" font-family="Times,serif" font-size="14.00">gtk2</text>
</a>
</g>
</g>
<!-- pango&#45;&gt;gtk2 -->
<g id="edge11" class="edge">
<title>pango&#45;&gt;gtk2</title>
<path fill="none" stroke="black" d="M320.03,-442.67C298.47,-431.57 268.51,-416.15 245.59,-404.35"/>
<polygon fill="black" stroke="black" points="247.45,-401.37 236.95,-399.91 244.24,-407.59 247.45,-401.37"/>
</g>
<!-- gtk4 -->
<g id="node12" class="node">
<title>gtk4</title>
<g id="a_node12"><a xlink:href="https://github.com/conda-forge/gtk4-feedstock" xlink:title="gtk4">
<ellipse fill="#fde725" stroke="black" cx="489.88" cy="-314" rx="33.85" ry="18"/>
<text text-anchor="middle" x="489.88" y="-309.32" font-family="Times,serif" font-size="14.00">gtk4</text>
</a>
</g>
</g>
<!-- pango&#45;&gt;gtk4 -->
<g id="edge12" class="edge">
<title>pango&#45;&gt;gtk4</title>
<path fill="none" stroke="black" d="M371.84,-441.77C386.48,-431.9 405.16,-418.25 419.88,-404 439.87,-384.64 459.16,-359.48 472.4,-340.85"/>
<polygon fill="black" stroke="black" points="475.2,-342.95 478.07,-332.75 469.47,-338.94 475.2,-342.95"/>
</g>
<!-- gtk2&#45;&gt;kitty -->
<g id="edge13" class="edge">
<title>gtk2&#45;&gt;kitty</title>
<path fill="none" stroke="black" d="M225.64,-369.46C233.59,-360.49 243.75,-349.02 252.7,-338.92"/>
<polygon fill="black" stroke="black" points="255.15,-341.43 259.16,-331.62 249.91,-336.79 255.15,-341.43"/>
</g>
<!-- texlive&#45;core -->
<g id="node14" class="node">
<title>texlive&#45;core</title>
<g id="a_node14"><a xlink:href="https://github.com/conda-forge/texlive-core-feedstock/pull/93" xlink:title="texlive core ❎">
<ellipse fill="#31688e" stroke="black" cx="84.88" cy="-350" rx="84.88" ry="18"/>
<text text-anchor="middle" x="84.88" y="-345.32" font-family="Times,serif" font-size="14.00" fill="white">texlive core ❎</text>
</a>
</g>
</g>
<!-- tectonic&#45;&gt;texlive&#45;core -->
<!-- r&#45;textshaping -->
<g id="node15" class="node">
<title>r&#45;textshaping</title>
<g id="a_node15"><a xlink:href="https://github.com/conda-forge/r-textshaping-feedstock" xlink:title="r textshaping">
<ellipse fill="#35b779" stroke="black" cx="84.88" cy="-278" rx="78.57" ry="18"/>
<text text-anchor="middle" x="84.88" y="-273.32" font-family="Times,serif" font-size="14.00">r textshaping</text>
</a>
</g>
</g>
<!-- texlive&#45;core&#45;&gt;r&#45;textshaping -->
<!-- mapserver -->
<g id="node18" class="node">
<title>mapserver</title>
<g id="a_node18"><a xlink:href="https://github.com/conda-forge/mapserver-feedstock" xlink:title="mapserver">
<ellipse fill="#35b779" stroke="black" cx="84.88" cy="-206" rx="64.89" ry="18"/>
<text text-anchor="middle" x="84.88" y="-201.33" font-family="Times,serif" font-size="14.00">mapserver</text>
</a>
</g>
</g>
<!-- r&#45;textshaping&#45;&gt;mapserver -->
<!-- mupdf -->
<g id="node16" class="node">
<title>mupdf</title>
<g id="a_node16"><a xlink:href="https://github.com/conda-forge/mupdf-feedstock" xlink:title="mupdf">
<ellipse fill="#35b779" stroke="black" cx="84.88" cy="-90" rx="43.32" ry="18"/>
<text text-anchor="middle" x="84.88" y="-85.33" font-family="Times,serif" font-size="14.00">mupdf</text>
</a>
</g>
</g>
<!-- pymupdf -->
<g id="node17" class="node">
<title>pymupdf</title>
<g id="a_node17"><a xlink:href="https://github.com/conda-forge/pymupdf-feedstock" xlink:title="pymupdf">
<ellipse fill="#fde725" stroke="black" cx="84.88" cy="-18" rx="55.42" ry="18"/>
<text text-anchor="middle" x="84.88" y="-13.32" font-family="Times,serif" font-size="14.00">pymupdf</text>
</a>
</g>
</g>
<!-- mupdf&#45;&gt;pymupdf -->
<g id="edge17" class="edge">
<title>mupdf&#45;&gt;pymupdf</title>
<path fill="none" stroke="black" d="M84.88,-71.7C84.88,-64.41 84.88,-55.73 84.88,-47.54"/>
<polygon fill="black" stroke="black" points="88.38,-47.62 84.88,-37.62 81.38,-47.62 88.38,-47.62"/>
</g>
<!-- silicon -->
<g id="node21" class="node">
<title>silicon</title>
<g id="a_node21"><a xlink:href="https://github.com/conda-forge/silicon-feedstock" xlink:title="silicon">
<ellipse fill="#35b779" stroke="black" cx="84.88" cy="-134" rx="43.32" ry="18"/>
<text text-anchor="middle" x="84.88" y="-129.32" font-family="Times,serif" font-size="14.00">silicon</text>
</a>
</g>
</g>
<!-- mapserver&#45;&gt;silicon -->
<!-- qt&#45;main -->
<g id="node19" class="node">
<title>qt&#45;main</title>
<g id="a_node19"><a xlink:href="https://github.com/conda-forge/qt-main-feedstock/pull/276" xlink:title="qt main ❎">
<ellipse fill="#31688e" stroke="black" cx="677.88" cy="-386" rx="64.89" ry="18"/>
<text text-anchor="middle" x="677.88" y="-381.32" font-family="Times,serif" font-size="14.00" fill="white">qt main ❎</text>
</a>
</g>
</g>
<!-- qt&#45;main&#45;&gt;opencv -->
<g id="edge19" class="edge">
<title>qt&#45;main&#45;&gt;opencv</title>
<path fill="none" stroke="black" d="M696.13,-368.41C705.95,-359.48 718.24,-348.31 729.03,-338.5"/>
<polygon fill="black" stroke="black" points="731.13,-341.32 736.17,-332.01 726.42,-336.14 731.13,-341.32"/>
</g>
<!-- qt&#45;webengine -->
<g id="node20" class="node">
<title>qt&#45;webengine</title>
<g id="a_node20"><a xlink:href="https://github.com/conda-forge/qt-webengine-feedstock" xlink:title="qt webengine">
<ellipse fill="#fde725" stroke="black" cx="610.88" cy="-314" rx="79.09" ry="18"/>
<text text-anchor="middle" x="610.88" y="-309.32" font-family="Times,serif" font-size="14.00">qt webengine</text>
</a>
</g>
</g>
<!-- qt&#45;main&#45;&gt;qt&#45;webengine -->
<g id="edge20" class="edge">
<title>qt&#45;main&#45;&gt;qt&#45;webengine</title>
<path fill="none" stroke="black" d="M662,-368.41C653.94,-359.99 643.98,-349.58 635,-340.2"/>
<polygon fill="black" stroke="black" points="637.6,-337.85 628.16,-333.05 632.54,-342.69 637.6,-337.85"/>
</g>
</g>
</svg>
