<?xml version="1.0" encoding="UTF-8" standalone="no"?>
<!DOCTYPE svg PUBLIC "-//W3C//DTD SVG 1.1//EN"
 "http://www.w3.org/Graphics/SVG/1.1/DTD/svg11.dtd">
<!-- Generated by graphviz version 11.0.0 (20240519.1550)
 -->
<!-- Pages: 1 -->
<svg width="739pt" height="404pt"
 viewBox="0.00 0.00 738.94 404.00" xmlns="http://www.w3.org/2000/svg" xmlns:xlink="http://www.w3.org/1999/xlink">
<g id="graph0" class="graph" transform="scale(1 1) rotate(0) translate(4 400)">
<polygon fill="white" stroke="none" points="-4,4 -4,-400 734.94,-400 734.94,4 -4,4"/>
<!-- emacs -->
<g id="node1" class="node">
<title>emacs</title>
<g id="a_node1"><a xlink:href="https://github.com/conda-forge/emacs-feedstock" xlink:title="emacs">
<ellipse fill="#fde725" stroke="black" cx="194.85" cy="-90" rx="42.79" ry="18"/>
<text text-anchor="middle" x="194.85" y="-85.33" font-family="Times,serif" font-size="14.00">emacs</text>
</a>
</g>
</g>
<!-- librsvg -->
<g id="node2" class="node">
<title>librsvg</title>
<g id="a_node2"><a xlink:href="https://github.com/conda-forge/librsvg-feedstock" xlink:title="librsvg">
<ellipse fill="#fde725" stroke="black" cx="169.85" cy="-234" rx="45.95" ry="18"/>
<text text-anchor="middle" x="169.85" y="-229.32" font-family="Times,serif" font-size="14.00">librsvg</text>
</a>
</g>
</g>
<!-- librsvg&#45;&gt;emacs -->
<g id="edge1" class="edge">
<title>librsvg&#45;&gt;emacs</title>
<path fill="none" stroke="black" d="M171.99,-215.54C174.29,-197.55 178.25,-168.72 182.85,-144 184.35,-135.9 186.23,-127.16 188.05,-119.15"/>
<polygon fill="black" stroke="black" points="191.41,-120.12 190.27,-109.59 184.6,-118.54 191.41,-120.12"/>
</g>
<!-- kitty -->
<g id="node3" class="node">
<title>kitty</title>
<g id="a_node3"><a xlink:href="https://github.com/conda-forge/kitty-feedstock" xlink:title="kitty">
<ellipse fill="#fde725" stroke="black" cx="95.85" cy="-162" rx="34.37" ry="18"/>
<text text-anchor="middle" x="95.85" y="-157.32" font-family="Times,serif" font-size="14.00">kitty</text>
</a>
</g>
</g>
<!-- librsvg&#45;&gt;kitty -->
<g id="edge2" class="edge">
<title>librsvg&#45;&gt;kitty</title>
<path fill="none" stroke="black" d="M153.05,-217.12C143.36,-207.95 131.01,-196.26 120.26,-186.09"/>
<polygon fill="black" stroke="black" points="122.83,-183.71 113.16,-179.38 118.02,-188.79 122.83,-183.71"/>
</g>
<!-- gtk3 -->
<g id="node4" class="node">
<title>gtk3</title>
<g id="a_node4"><a xlink:href="https://github.com/conda-forge/gtk3-feedstock" xlink:title="gtk3">
<ellipse fill="#fde725" stroke="black" cx="225.85" cy="-162" rx="33.85" ry="18"/>
<text text-anchor="middle" x="225.85" y="-157.32" font-family="Times,serif" font-size="14.00">gtk3</text>
</a>
</g>
</g>
<!-- librsvg&#45;&gt;gtk3 -->
<g id="edge3" class="edge">
<title>librsvg&#45;&gt;gtk3</title>
<path fill="none" stroke="black" d="M183.12,-216.41C189.91,-207.92 198.32,-197.41 205.88,-187.96"/>
<polygon fill="black" stroke="black" points="208.6,-190.17 212.11,-180.17 203.13,-185.79 208.6,-190.17"/>
</g>
<!-- gtk3&#45;&gt;emacs -->
<g id="edge4" class="edge">
<title>gtk3&#45;&gt;emacs</title>
<path fill="none" stroke="black" d="M218.34,-144.05C214.92,-136.32 210.77,-126.96 206.92,-118.27"/>
<polygon fill="black" stroke="black" points="210.14,-116.9 202.89,-109.17 203.74,-119.73 210.14,-116.9"/>
</g>
<!-- opencv -->
<g id="node5" class="node">
<title>opencv</title>
<g id="a_node5"><a xlink:href="https://github.com/conda-forge/opencv-feedstock" xlink:title="opencv">
<ellipse fill="#fde725" stroke="black" cx="577.85" cy="-198" rx="46.47" ry="18"/>
<text text-anchor="middle" x="577.85" y="-193.32" font-family="Times,serif" font-size="14.00">opencv</text>
</a>
</g>
</g>
<!-- openjdk -->
<g id="node6" class="node">
<title>openjdk</title>
<g id="a_node6"><a xlink:href="https://github.com/conda-forge/openjdk-feedstock/pull/163" xlink:title="openjdk ❎">
<ellipse fill="#31688e" stroke="black" cx="438.85" cy="-378" rx="65.94" ry="18"/>
<text text-anchor="middle" x="438.85" y="-373.32" font-family="Times,serif" font-size="14.00" fill="white">openjdk ❎</text>
</a>
</g>
</g>
<!-- r&#45;cairo -->
<g id="node7" class="node">
<title>r&#45;cairo</title>
<g id="a_node7"><a xlink:href="https://github.com/conda-forge/r-cairo-feedstock" xlink:title="r cairo">
<ellipse fill="#ff8c00" stroke="black" cx="438.85" cy="-306" rx="43.84" ry="18"/>
<text text-anchor="middle" x="438.85" y="-301.32" font-family="Times,serif" font-size="14.00">r cairo</text>
</a>
</g>
</g>
<!-- openjdk&#45;&gt;r&#45;cairo -->
<!-- tectonic -->
<g id="node11" class="node">
<title>tectonic</title>
<g id="a_node11"><a xlink:href="https://github.com/conda-forge/tectonic-feedstock/pull/71" xlink:title="tectonic ❎">
<ellipse fill="#31688e" stroke="black" cx="438.85" cy="-234" rx="66.47" ry="18"/>
<text text-anchor="middle" x="438.85" y="-229.32" font-family="Times,serif" font-size="14.00" fill="white">tectonic ❎</text>
</a>
</g>
</g>
<!-- r&#45;cairo&#45;&gt;tectonic -->
<!-- pango -->
<g id="node8" class="node">
<title>pango</title>
<g id="a_node8"><a xlink:href="https://github.com/conda-forge/pango-feedstock/pull/74" xlink:title="pango ✓">
<ellipse fill="#31688e" stroke="black" cx="169.85" cy="-306" rx="49.63" ry="18"/>
<text text-anchor="middle" x="169.85" y="-301.32" font-family="Times,serif" font-size="14.00" fill="white">pango ✓</text>
</a>
</g>
</g>
<!-- pango&#45;&gt;librsvg -->
<g id="edge6" class="edge">
<title>pango&#45;&gt;librsvg</title>
<path fill="none" stroke="black" d="M169.85,-287.7C169.85,-280.41 169.85,-271.73 169.85,-263.54"/>
<polygon fill="black" stroke="black" points="173.35,-263.62 169.85,-253.62 166.35,-263.62 173.35,-263.62"/>
</g>
<!-- pango&#45;&gt;kitty -->
<g id="edge7" class="edge">
<title>pango&#45;&gt;kitty</title>
<path fill="none" stroke="black" d="M148.25,-289.4C136.63,-279.88 123.03,-266.72 114.85,-252 104.57,-233.51 99.85,-210.01 97.68,-191.81"/>
<polygon fill="black" stroke="black" points="101.17,-191.56 96.72,-181.95 94.2,-192.25 101.17,-191.56"/>
</g>
<!-- pango&#45;&gt;gtk3 -->
<g id="edge8" class="edge">
<title>pango&#45;&gt;gtk3</title>
<path fill="none" stroke="black" d="M192.87,-289.75C204.8,-280.42 218.22,-267.34 224.85,-252 233.05,-233.01 232.94,-209.53 230.98,-191.47"/>
<polygon fill="black" stroke="black" points="234.47,-191.14 229.65,-181.71 227.53,-192.09 234.47,-191.14"/>
</g>
<!-- gtk2 -->
<g id="node9" class="node">
<title>gtk2</title>
<g id="a_node9"><a xlink:href="https://github.com/conda-forge/gtk2-feedstock" xlink:title="gtk2">
<ellipse fill="#fde725" stroke="black" cx="33.85" cy="-234" rx="33.85" ry="18"/>
<text text-anchor="middle" x="33.85" y="-229.32" font-family="Times,serif" font-size="14.00">gtk2</text>
</a>
</g>
</g>
<!-- pango&#45;&gt;gtk2 -->
<g id="edge9" class="edge">
<title>pango&#45;&gt;gtk2</title>
<path fill="none" stroke="black" d="M142,-290.67C120.43,-279.57 90.47,-264.15 67.55,-252.35"/>
<polygon fill="black" stroke="black" points="69.41,-249.37 58.92,-247.91 66.21,-255.59 69.41,-249.37"/>
</g>
<!-- gtk4 -->
<g id="node10" class="node">
<title>gtk4</title>
<g id="a_node10"><a xlink:href="https://github.com/conda-forge/gtk4-feedstock" xlink:title="gtk4">
<ellipse fill="#fde725" stroke="black" cx="311.85" cy="-162" rx="33.85" ry="18"/>
<text text-anchor="middle" x="311.85" y="-157.32" font-family="Times,serif" font-size="14.00">gtk4</text>
</a>
</g>
</g>
<!-- pango&#45;&gt;gtk4 -->
<g id="edge10" class="edge">
<title>pango&#45;&gt;gtk4</title>
<path fill="none" stroke="black" d="M193.8,-289.77C208.45,-279.9 227.13,-266.25 241.85,-252 261.83,-232.64 281.12,-207.48 294.37,-188.85"/>
<polygon fill="black" stroke="black" points="297.17,-190.95 300.03,-180.75 291.43,-186.94 297.17,-190.95"/>
</g>
<!-- gtk2&#45;&gt;kitty -->
<g id="edge11" class="edge">
<title>gtk2&#45;&gt;kitty</title>
<path fill="none" stroke="black" d="M47.61,-217.46C55.55,-208.49 65.72,-197.02 74.66,-186.92"/>
<polygon fill="black" stroke="black" points="77.11,-189.43 81.12,-179.62 71.87,-184.79 77.11,-189.43"/>
</g>
<!-- texlive&#45;core -->
<g id="node12" class="node">
<title>texlive&#45;core</title>
<g id="a_node12"><a xlink:href="https://github.com/conda-forge/texlive-core-feedstock/pull/93" xlink:title="texlive core ❎">
<ellipse fill="#31688e" stroke="black" cx="438.85" cy="-162" rx="84.88" ry="18"/>
<text text-anchor="middle" x="438.85" y="-157.32" font-family="Times,serif" font-size="14.00" fill="white">texlive core ❎</text>
</a>
</g>
</g>
<!-- tectonic&#45;&gt;texlive&#45;core -->
<!-- r&#45;textshaping -->
<g id="node13" class="node">
<title>r&#45;textshaping</title>
<g id="a_node13"><a xlink:href="https://github.com/conda-forge/r-textshaping-feedstock" xlink:title="r textshaping">
<ellipse fill="#ff8c00" stroke="black" cx="438.85" cy="-90" rx="78.57" ry="18"/>
<text text-anchor="middle" x="438.85" y="-85.33" font-family="Times,serif" font-size="14.00">r textshaping</text>
</a>
</g>
</g>
<!-- texlive&#45;core&#45;&gt;r&#45;textshaping -->
<!-- panda3d -->
<g id="node14" class="node">
<title>panda3d</title>
<g id="a_node14"><a xlink:href="https://github.com/conda-forge/panda3d-feedstock" xlink:title="panda3d">
<ellipse fill="#35b779" stroke="black" cx="438.85" cy="-18" rx="54.36" ry="18"/>
<text text-anchor="middle" x="438.85" y="-13.32" font-family="Times,serif" font-size="14.00">panda3d</text>
</a>
</g>
</g>
<!-- r&#45;textshaping&#45;&gt;panda3d -->
<!-- qt&#45;main -->
<g id="node15" class="node">
<title>qt&#45;main</title>
<g id="a_node15"><a xlink:href="https://github.com/conda-forge/qt-main-feedstock/pull/276" xlink:title="qt main ❎">
<ellipse fill="#31688e" stroke="black" cx="614.85" cy="-270" rx="64.89" ry="18"/>
<text text-anchor="middle" x="614.85" y="-265.32" font-family="Times,serif" font-size="14.00" fill="white">qt main ❎</text>
</a>
</g>
</g>
<!-- qt&#45;main&#45;&gt;opencv -->
<g id="edge16" class="edge">
<title>qt&#45;main&#45;&gt;opencv</title>
<path fill="none" stroke="black" d="M605.7,-251.7C601.62,-243.98 596.72,-234.71 592.18,-226.11"/>
<polygon fill="black" stroke="black" points="595.36,-224.65 587.59,-217.44 589.17,-227.92 595.36,-224.65"/>
</g>
<!-- qt&#45;webengine -->
<g id="node16" class="node">
<title>qt&#45;webengine</title>
<g id="a_node16"><a xlink:href="https://github.com/conda-forge/qt-webengine-feedstock" xlink:title="qt webengine">
<ellipse fill="#fde725" stroke="black" cx="651.85" cy="-126" rx="79.09" ry="18"/>
<text text-anchor="middle" x="651.85" y="-121.33" font-family="Times,serif" font-size="14.00">qt webengine</text>
</a>
</g>
</g>
<!-- qt&#45;main&#45;&gt;qt&#45;webengine -->
<g id="edge17" class="edge">
<title>qt&#45;main&#45;&gt;qt&#45;webengine</title>
<path fill="none" stroke="black" d="M621.2,-251.97C624.9,-241.66 629.49,-228.18 632.85,-216 638.37,-195.95 643.24,-172.99 646.66,-155.41"/>
<polygon fill="black" stroke="black" points="650.08,-156.17 648.51,-145.69 643.2,-154.86 650.08,-156.17"/>
</g>
</g>
</svg>
