<?xml version="1.0" encoding="UTF-8" standalone="no"?>
<!DOCTYPE svg PUBLIC "-//W3C//DTD SVG 1.1//EN"
 "http://www.w3.org/Graphics/SVG/1.1/DTD/svg11.dtd">
<!-- Generated by graphviz version 11.0.0 (20240519.1550)
 -->
<!-- Pages: 1 -->
<svg width="1349pt" height="692pt"
 viewBox="0.00 0.00 1349.48 692.00" xmlns="http://www.w3.org/2000/svg" xmlns:xlink="http://www.w3.org/1999/xlink">
<g id="graph0" class="graph" transform="scale(1 1) rotate(0) translate(4 688)">
<polygon fill="white" stroke="none" points="-4,4 -4,-688 1345.48,-688 1345.48,4 -4,4"/>
<!-- boost -->
<g id="node1" class="node">
<title>boost</title>
<g id="a_node1"><a xlink:href="https://github.com/conda-forge/boost-feedstock/pull/209" xlink:title="boost ❎">
<ellipse fill="#31688e" stroke="black" cx="1107.84" cy="-486" rx="53.84" ry="18"/>
<text text-anchor="middle" x="1107.84" y="-481.32" font-family="Times,serif" font-size="14.00" fill="white">boost ❎</text>
</a>
</g>
</g>
<!-- paraview -->
<g id="node2" class="node">
<title>paraview</title>
<g id="a_node2"><a xlink:href="https://github.com/conda-forge/paraview-feedstock" xlink:title="paraview">
<ellipse fill="#fde725" stroke="black" cx="930.84" cy="-414" rx="57" ry="18"/>
<text text-anchor="middle" x="930.84" y="-409.32" font-family="Times,serif" font-size="14.00">paraview</text>
</a>
</g>
</g>
<!-- boost&#45;&gt;paraview -->
<g id="edge1" class="edge">
<title>boost&#45;&gt;paraview</title>
<path fill="none" stroke="black" d="M1074.13,-471.67C1046.23,-460.63 1006.34,-444.86 975.74,-432.75"/>
<polygon fill="black" stroke="black" points="977.33,-429.62 966.74,-429.2 974.75,-436.13 977.33,-429.62"/>
</g>
<!-- clickhouse&#45;odbc -->
<g id="node3" class="node">
<title>clickhouse&#45;odbc</title>
<g id="a_node3"><a xlink:href="https://github.com/conda-forge/clickhouse-odbc-feedstock" xlink:title="clickhouse odbc">
<ellipse fill="#fde725" stroke="black" cx="1107.84" cy="-342" rx="90.14" ry="18"/>
<text text-anchor="middle" x="1107.84" y="-337.32" font-family="Times,serif" font-size="14.00">clickhouse odbc</text>
</a>
</g>
</g>
<!-- boost&#45;&gt;clickhouse&#45;odbc -->
<g id="edge2" class="edge">
<title>boost&#45;&gt;clickhouse&#45;odbc</title>
<path fill="none" stroke="black" d="M1107.84,-467.59C1107.84,-443.61 1107.84,-400.14 1107.84,-371.42"/>
<polygon fill="black" stroke="black" points="1111.34,-371.62 1107.84,-361.62 1104.34,-371.62 1111.34,-371.62"/>
</g>
<!-- mongodb -->
<g id="node4" class="node">
<title>mongodb</title>
<g id="a_node4"><a xlink:href="https://github.com/conda-forge/mongodb-feedstock" xlink:title="mongodb">
<ellipse fill="#fde725" stroke="black" cx="1225.84" cy="-270" rx="57.52" ry="18"/>
<text text-anchor="middle" x="1225.84" y="-265.32" font-family="Times,serif" font-size="14.00">mongodb</text>
</a>
</g>
</g>
<!-- boost&#45;&gt;mongodb -->
<g id="edge3" class="edge">
<title>boost&#45;&gt;mongodb</title>
<path fill="none" stroke="black" d="M1125.11,-468.54C1147.52,-446.15 1186.2,-403.83 1206.84,-360 1215.8,-340.98 1220.58,-317.68 1223.1,-299.7"/>
<polygon fill="black" stroke="black" points="1226.55,-300.33 1224.3,-289.98 1219.6,-299.48 1226.55,-300.33"/>
</g>
<!-- topologytoolkit -->
<g id="node5" class="node">
<title>topologytoolkit</title>
<g id="a_node5"><a xlink:href="https://github.com/conda-forge/topologytoolkit-feedstock" xlink:title="topologytoolkit">
<ellipse fill="#fde725" stroke="black" cx="912.84" cy="-342" rx="86.46" ry="18"/>
<text text-anchor="middle" x="912.84" y="-337.32" font-family="Times,serif" font-size="14.00">topologytoolkit</text>
</a>
</g>
</g>
<!-- boost&#45;&gt;topologytoolkit -->
<g id="edge4" class="edge">
<title>boost&#45;&gt;topologytoolkit</title>
<path fill="none" stroke="black" d="M1089.1,-468.89C1067.43,-450.52 1030.43,-419.95 996.84,-396 982.01,-385.43 965.12,-374.56 950.39,-365.43"/>
<polygon fill="black" stroke="black" points="952.24,-362.46 941.88,-360.21 948.58,-368.43 952.24,-362.46"/>
</g>
<!-- odil -->
<g id="node6" class="node">
<title>odil</title>
<g id="a_node6"><a xlink:href="https://github.com/conda-forge/odil-feedstock" xlink:title="odil">
<ellipse fill="#fde725" stroke="black" cx="1311.84" cy="-198" rx="29.64" ry="18"/>
<text text-anchor="middle" x="1311.84" y="-193.32" font-family="Times,serif" font-size="14.00">odil</text>
</a>
</g>
</g>
<!-- boost&#45;&gt;odil -->
<g id="edge5" class="edge">
<title>boost&#45;&gt;odil</title>
<path fill="none" stroke="black" d="M1134.4,-470.05C1150.3,-460.37 1170.36,-446.84 1185.84,-432 1243.4,-376.82 1259.99,-360.65 1292.84,-288 1301.51,-268.84 1306.3,-245.55 1308.9,-227.6"/>
<polygon fill="black" stroke="black" points="1312.34,-228.28 1310.15,-217.91 1305.4,-227.38 1312.34,-228.28"/>
</g>
<!-- paraview&#45;&gt;topologytoolkit -->
<g id="edge6" class="edge">
<title>paraview&#45;&gt;topologytoolkit</title>
<path fill="none" stroke="black" d="M926.39,-395.7C924.5,-388.32 922.23,-379.52 920.11,-371.25"/>
<polygon fill="black" stroke="black" points="923.5,-370.38 917.62,-361.57 916.72,-372.13 923.5,-370.38"/>
</g>
<!-- harfbuzz -->
<g id="node7" class="node">
<title>harfbuzz</title>
<g id="a_node7"><a xlink:href="https://github.com/conda-forge/harfbuzz-feedstock/pull/115" xlink:title="harfbuzz ✓">
<ellipse fill="#31688e" stroke="black" cx="419.84" cy="-486" rx="62.78" ry="18"/>
<text text-anchor="middle" x="419.84" y="-481.32" font-family="Times,serif" font-size="14.00" fill="white">harfbuzz ✓</text>
</a>
</g>
</g>
<!-- r&#45;base -->
<g id="node8" class="node">
<title>r&#45;base</title>
<g id="a_node8"><a xlink:href="https://github.com/conda-forge/r-base-feedstock" xlink:title="r base">
<ellipse fill="#fde725" stroke="black" cx="346.84" cy="-414" rx="42.26" ry="18"/>
<text text-anchor="middle" x="346.84" y="-409.32" font-family="Times,serif" font-size="14.00">r base</text>
</a>
</g>
</g>
<!-- harfbuzz&#45;&gt;r&#45;base -->
<g id="edge7" class="edge">
<title>harfbuzz&#45;&gt;r&#45;base</title>
<path fill="none" stroke="black" d="M402.54,-468.41C393.32,-459.57 381.81,-448.53 371.65,-438.79"/>
<polygon fill="black" stroke="black" points="374.25,-436.43 364.61,-432.04 369.4,-441.48 374.25,-436.43"/>
</g>
<!-- r&#45;cairo -->
<g id="node9" class="node">
<title>r&#45;cairo</title>
<g id="a_node9"><a xlink:href="https://github.com/conda-forge/r-cairo-feedstock" xlink:title="r cairo">
<ellipse fill="#fde725" stroke="black" cx="448.84" cy="-342" rx="43.84" ry="18"/>
<text text-anchor="middle" x="448.84" y="-337.32" font-family="Times,serif" font-size="14.00">r cairo</text>
</a>
</g>
</g>
<!-- harfbuzz&#45;&gt;r&#45;cairo -->
<g id="edge8" class="edge">
<title>harfbuzz&#45;&gt;r&#45;cairo</title>
<path fill="none" stroke="black" d="M423.4,-467.59C428.32,-443.5 437.25,-399.75 443.12,-371.03"/>
<polygon fill="black" stroke="black" points="446.47,-372.09 445.05,-361.59 439.61,-370.69 446.47,-372.09"/>
</g>
<!-- tectonic -->
<g id="node10" class="node">
<title>tectonic</title>
<g id="a_node10"><a xlink:href="https://github.com/conda-forge/tectonic-feedstock" xlink:title="tectonic">
<ellipse fill="#fde725" stroke="black" cx="498.84" cy="-414" rx="51.21" ry="18"/>
<text text-anchor="middle" x="498.84" y="-409.32" font-family="Times,serif" font-size="14.00">tectonic</text>
</a>
</g>
</g>
<!-- harfbuzz&#45;&gt;tectonic -->
<g id="edge9" class="edge">
<title>harfbuzz&#45;&gt;tectonic</title>
<path fill="none" stroke="black" d="M438.56,-468.41C448.57,-459.54 461.07,-448.47 472.09,-438.71"/>
<polygon fill="black" stroke="black" points="474.23,-441.48 479.39,-432.23 469.59,-436.24 474.23,-441.48"/>
</g>
<!-- texlive&#45;core -->
<g id="node11" class="node">
<title>texlive&#45;core</title>
<g id="a_node11"><a xlink:href="https://github.com/conda-forge/texlive-core-feedstock" xlink:title="texlive core">
<ellipse fill="#fde725" stroke="black" cx="579.84" cy="-342" rx="69.62" ry="18"/>
<text text-anchor="middle" x="579.84" y="-337.32" font-family="Times,serif" font-size="14.00">texlive core</text>
</a>
</g>
</g>
<!-- harfbuzz&#45;&gt;texlive&#45;core -->
<g id="edge10" class="edge">
<title>harfbuzz&#45;&gt;texlive&#45;core</title>
<path fill="none" stroke="black" d="M474.39,-476.82C503.4,-469.71 537.41,-456.48 558.84,-432 573.32,-415.46 578.28,-390.77 579.78,-371.59"/>
<polygon fill="black" stroke="black" points="583.27,-371.87 580.26,-361.72 576.28,-371.54 583.27,-371.87"/>
</g>
<!-- qt&#45;main -->
<g id="node12" class="node">
<title>qt&#45;main</title>
<g id="a_node12"><a xlink:href="https://github.com/conda-forge/qt-main-feedstock" xlink:title="qt main">
<ellipse fill="#fde725" stroke="black" cx="115.84" cy="-414" rx="49.63" ry="18"/>
<text text-anchor="middle" x="115.84" y="-409.32" font-family="Times,serif" font-size="14.00">qt main</text>
</a>
</g>
</g>
<!-- harfbuzz&#45;&gt;qt&#45;main -->
<g id="edge11" class="edge">
<title>harfbuzz&#45;&gt;qt&#45;main</title>
<path fill="none" stroke="black" d="M368.93,-475.03C319.22,-465.05 241.52,-448.8 174.84,-432 171.33,-431.11 167.71,-430.16 164.07,-429.18"/>
<polygon fill="black" stroke="black" points="165.22,-425.87 154.65,-426.58 163.36,-432.62 165.22,-425.87"/>
</g>
<!-- r&#45;base&#45;&gt;r&#45;cairo -->
<g id="edge12" class="edge">
<title>r&#45;base&#45;&gt;r&#45;cairo</title>
<path fill="none" stroke="black" d="M368.47,-398.15C382.71,-388.38 401.58,-375.43 417.46,-364.54"/>
<polygon fill="black" stroke="black" points="419.38,-367.47 425.64,-358.92 415.42,-361.69 419.38,-367.47"/>
</g>
<!-- r&#45;stringi -->
<g id="node13" class="node">
<title>r&#45;stringi</title>
<g id="a_node13"><a xlink:href="https://github.com/conda-forge/r-stringi-feedstock" xlink:title="r stringi">
<ellipse fill="#fde725" stroke="black" cx="334.84" cy="-342" rx="52.26" ry="18"/>
<text text-anchor="middle" x="334.84" y="-337.32" font-family="Times,serif" font-size="14.00">r stringi</text>
</a>
</g>
</g>
<!-- r&#45;base&#45;&gt;r&#45;stringi -->
<g id="edge13" class="edge">
<title>r&#45;base&#45;&gt;r&#45;stringi</title>
<path fill="none" stroke="black" d="M343.88,-395.7C342.61,-388.32 341.1,-379.52 339.69,-371.25"/>
<polygon fill="black" stroke="black" points="343.17,-370.86 338.03,-361.6 336.27,-372.04 343.17,-370.86"/>
</g>
<!-- r&#45;v8 -->
<g id="node14" class="node">
<title>r&#45;v8</title>
<g id="a_node14"><a xlink:href="https://github.com/conda-forge/r-v8-feedstock" xlink:title="r v8">
<ellipse fill="#fde725" stroke="black" cx="233.84" cy="-342" rx="31.22" ry="18"/>
<text text-anchor="middle" x="233.84" y="-337.32" font-family="Times,serif" font-size="14.00">r v8</text>
</a>
</g>
</g>
<!-- r&#45;base&#45;&gt;r&#45;v8 -->
<g id="edge14" class="edge">
<title>r&#45;base&#45;&gt;r&#45;v8</title>
<path fill="none" stroke="black" d="M323.7,-398.67C306.52,-388.02 282.91,-373.4 264.21,-361.81"/>
<polygon fill="black" stroke="black" points="266.3,-358.99 255.95,-356.7 262.61,-364.94 266.3,-358.99"/>
</g>
<!-- octave -->
<g id="node15" class="node">
<title>octave</title>
<g id="a_node15"><a xlink:href="https://github.com/conda-forge/octave-feedstock" xlink:title="octave">
<ellipse fill="#fde725" stroke="black" cx="43.84" cy="-342" rx="43.84" ry="18"/>
<text text-anchor="middle" x="43.84" y="-337.32" font-family="Times,serif" font-size="14.00">octave</text>
</a>
</g>
</g>
<!-- qt&#45;main&#45;&gt;octave -->
<g id="edge15" class="edge">
<title>qt&#45;main&#45;&gt;octave</title>
<path fill="none" stroke="black" d="M99.14,-396.76C90.06,-387.93 78.64,-376.83 68.54,-367.01"/>
<polygon fill="black" stroke="black" points="71.15,-364.66 61.54,-360.2 66.27,-369.68 71.15,-364.66"/>
</g>
<!-- qgis -->
<g id="node16" class="node">
<title>qgis</title>
<g id="a_node16"><a xlink:href="https://github.com/conda-forge/qgis-feedstock" xlink:title="qgis">
<ellipse fill="#fde725" stroke="black" cx="156.84" cy="-198" rx="32.27" ry="18"/>
<text text-anchor="middle" x="156.84" y="-193.32" font-family="Times,serif" font-size="14.00">qgis</text>
</a>
</g>
</g>
<!-- qt&#45;main&#45;&gt;qgis -->
<g id="edge16" class="edge">
<title>qt&#45;main&#45;&gt;qgis</title>
<path fill="none" stroke="black" d="M116.32,-395.79C117.49,-366.03 121.47,-303.2 134.84,-252 137.09,-243.38 140.45,-234.33 143.87,-226.18"/>
<polygon fill="black" stroke="black" points="147.02,-227.72 147.87,-217.16 140.62,-224.89 147.02,-227.72"/>
</g>
<!-- qtwebkit -->
<g id="node17" class="node">
<title>qtwebkit</title>
<g id="a_node17"><a xlink:href="https://github.com/conda-forge/qtwebkit-feedstock" xlink:title="qtwebkit">
<ellipse fill="#fde725" stroke="black" cx="198.84" cy="-270" rx="55.42" ry="18"/>
<text text-anchor="middle" x="198.84" y="-265.32" font-family="Times,serif" font-size="14.00">qtwebkit</text>
</a>
</g>
</g>
<!-- qt&#45;main&#45;&gt;qtwebkit -->
<g id="edge17" class="edge">
<title>qt&#45;main&#45;&gt;qtwebkit</title>
<path fill="none" stroke="black" d="M125.69,-396.15C139.92,-371.81 166.36,-326.57 183.26,-297.67"/>
<polygon fill="black" stroke="black" points="186.22,-299.53 188.24,-289.13 180.18,-296 186.22,-299.53"/>
</g>
<!-- qtwebkit&#45;&gt;qgis -->
<g id="edge23" class="edge">
<title>qtwebkit&#45;&gt;qgis</title>
<path fill="none" stroke="black" d="M188.68,-252.05C183.81,-243.94 177.87,-234.04 172.45,-225.01"/>
<polygon fill="black" stroke="black" points="175.55,-223.38 167.41,-216.6 169.55,-226.98 175.55,-223.38"/>
</g>
<!-- kaldi -->
<g id="node18" class="node">
<title>kaldi</title>
<g id="a_node18"><a xlink:href="https://github.com/conda-forge/kaldi-feedstock" xlink:title="kaldi">
<ellipse fill="#ff8c00" stroke="black" cx="737.84" cy="-666" rx="35.42" ry="18"/>
<text text-anchor="middle" x="737.84" y="-661.33" font-family="Times,serif" font-size="14.00">kaldi</text>
</a>
</g>
</g>
<!-- libgd -->
<g id="node19" class="node">
<title>libgd</title>
<g id="a_node19"><a xlink:href="https://github.com/conda-forge/libgd-feedstock/pull/54" xlink:title="libgd ✓">
<ellipse fill="#31688e" stroke="black" cx="737.84" cy="-594" rx="44.37" ry="18"/>
<text text-anchor="middle" x="737.84" y="-589.33" font-family="Times,serif" font-size="14.00" fill="white">libgd ✓</text>
</a>
</g>
</g>
<!-- kaldi&#45;&gt;libgd -->
<!-- nodejs -->
<g id="node20" class="node">
<title>nodejs</title>
<g id="a_node20"><a xlink:href="https://github.com/conda-forge/nodejs-feedstock" xlink:title="nodejs">
<ellipse fill="#fde725" stroke="black" cx="737.84" cy="-522" rx="43.84" ry="18"/>
<text text-anchor="middle" x="737.84" y="-517.33" font-family="Times,serif" font-size="14.00">nodejs</text>
</a>
</g>
</g>
<!-- libgd&#45;&gt;nodejs -->
<!-- uwsgi -->
<g id="node22" class="node">
<title>uwsgi</title>
<g id="a_node22"><a xlink:href="https://github.com/conda-forge/uwsgi-feedstock/pull/83" xlink:title="uwsgi ❎">
<ellipse fill="#31688e" stroke="black" cx="737.84" cy="-450" rx="55.94" ry="18"/>
<text text-anchor="middle" x="737.84" y="-445.32" font-family="Times,serif" font-size="14.00" fill="white">uwsgi ❎</text>
</a>
</g>
</g>
<!-- nodejs&#45;&gt;uwsgi -->
<!-- mysql -->
<g id="node21" class="node">
<title>mysql</title>
<g id="a_node21"><a xlink:href="https://github.com/conda-forge/mysql-feedstock/pull/99" xlink:title="mysql ❎">
<ellipse fill="#31688e" stroke="black" cx="115.84" cy="-486" rx="56.47" ry="18"/>
<text text-anchor="middle" x="115.84" y="-481.32" font-family="Times,serif" font-size="14.00" fill="white">mysql ❎</text>
</a>
</g>
</g>
<!-- mysql&#45;&gt;qt&#45;main -->
<g id="edge20" class="edge">
<title>mysql&#45;&gt;qt&#45;main</title>
<path fill="none" stroke="black" d="M115.84,-467.7C115.84,-460.41 115.84,-451.73 115.84,-443.54"/>
<polygon fill="black" stroke="black" points="119.34,-443.62 115.84,-433.62 112.34,-443.62 119.34,-443.62"/>
</g>
<!-- tensorflow -->
<g id="node23" class="node">
<title>tensorflow</title>
<g id="a_node23"><a xlink:href="https://github.com/conda-forge/tensorflow-feedstock/pull/397" xlink:title="tensorflow ❎">
<ellipse fill="#31688e" stroke="black" cx="737.84" cy="-378" rx="79.09" ry="18"/>
<text text-anchor="middle" x="737.84" y="-373.32" font-family="Times,serif" font-size="14.00" fill="white">tensorflow ❎</text>
</a>
</g>
</g>
<!-- uwsgi&#45;&gt;tensorflow -->
<!-- ticcutils -->
<g id="node24" class="node">
<title>ticcutils</title>
<g id="a_node24"><a xlink:href="https://github.com/conda-forge/ticcutils-feedstock/pull/34" xlink:title="ticcutils ❎">
<ellipse fill="#31688e" stroke="black" cx="737.84" cy="-306" rx="66.47" ry="18"/>
<text text-anchor="middle" x="737.84" y="-301.32" font-family="Times,serif" font-size="14.00" fill="white">ticcutils ❎</text>
</a>
</g>
</g>
<!-- tensorflow&#45;&gt;ticcutils -->
<!-- scilab -->
<g id="node25" class="node">
<title>scilab</title>
<g id="a_node25"><a xlink:href="https://github.com/conda-forge/scilab-feedstock" xlink:title="scilab">
<ellipse fill="#000000" stroke="black" cx="737.84" cy="-234" rx="40.16" ry="18"/>
<text text-anchor="middle" x="737.84" y="-229.32" font-family="Times,serif" font-size="14.00" fill="white">scilab</text>
</a>
</g>
</g>
<!-- ticcutils&#45;&gt;scilab -->
<!-- libical -->
<g id="node26" class="node">
<title>libical</title>
<g id="a_node26"><a xlink:href="https://github.com/conda-forge/libical-feedstock/pull/27" xlink:title="libical ❎">
<ellipse fill="#31688e" stroke="black" cx="737.84" cy="-162" rx="56.47" ry="18"/>
<text text-anchor="middle" x="737.84" y="-157.32" font-family="Times,serif" font-size="14.00" fill="white">libical ❎</text>
</a>
</g>
</g>
<!-- scilab&#45;&gt;libical -->
<!-- libxmlsec1 -->
<g id="node27" class="node">
<title>libxmlsec1</title>
<g id="a_node27"><a xlink:href="https://github.com/conda-forge/libxmlsec1-feedstock/pull/34" xlink:title="libxmlsec1 ❎">
<ellipse fill="#31688e" stroke="black" cx="737.84" cy="-90" rx="80.14" ry="18"/>
<text text-anchor="middle" x="737.84" y="-85.33" font-family="Times,serif" font-size="14.00" fill="white">libxmlsec1 ❎</text>
</a>
</g>
</g>
<!-- libical&#45;&gt;libxmlsec1 -->
<!-- couchdb -->
<g id="node29" class="node">
<title>couchdb</title>
<g id="a_node29"><a xlink:href="https://github.com/conda-forge/couchdb-feedstock" xlink:title="couchdb">
<ellipse fill="#ff8c00" stroke="black" cx="737.84" cy="-18" rx="52.79" ry="18"/>
<text text-anchor="middle" x="737.84" y="-13.32" font-family="Times,serif" font-size="14.00">couchdb</text>
</a>
</g>
</g>
<!-- libxmlsec1&#45;&gt;couchdb -->
<!-- libv8 -->
<g id="node28" class="node">
<title>libv8</title>
<g id="a_node28"><a xlink:href="https://github.com/conda-forge/libv8-feedstock/pull/85" xlink:title="libv8 ❎">
<ellipse fill="#31688e" stroke="black" cx="234.84" cy="-414" rx="51.21" ry="18"/>
<text text-anchor="middle" x="234.84" y="-409.32" font-family="Times,serif" font-size="14.00" fill="white">libv8 ❎</text>
</a>
</g>
</g>
<!-- libv8&#45;&gt;r&#45;v8 -->
<g id="edge28" class="edge">
<title>libv8&#45;&gt;r&#45;v8</title>
<path fill="none" stroke="black" d="M234.6,-395.7C234.49,-388.41 234.37,-379.73 234.25,-371.54"/>
<polygon fill="black" stroke="black" points="237.75,-371.57 234.11,-361.62 230.75,-371.67 237.75,-371.57"/>
</g>
</g>
</svg>
