<?xml version="1.0" encoding="UTF-8" standalone="no"?>
<!DOCTYPE svg PUBLIC "-//W3C//DTD SVG 1.1//EN"
 "http://www.w3.org/Graphics/SVG/1.1/DTD/svg11.dtd">
<!-- Generated by graphviz version 11.0.0 (20240519.1550)
 -->
<!-- Pages: 1 -->
<svg width="864pt" height="764pt"
 viewBox="0.00 0.00 864.31 764.00" xmlns="http://www.w3.org/2000/svg" xmlns:xlink="http://www.w3.org/1999/xlink">
<g id="graph0" class="graph" transform="scale(1 1) rotate(0) translate(4 760)">
<polygon fill="white" stroke="none" points="-4,4 -4,-760 860.31,-760 860.31,4 -4,4"/>
<!-- boost -->
<g id="node1" class="node">
<title>boost</title>
<g id="a_node1"><a xlink:href="https://github.com/conda-forge/boost-feedstock/pull/209" xlink:title="boost ❎">
<ellipse fill="#31688e" stroke="black" cx="231.42" cy="-378" rx="53.84" ry="18"/>
<text text-anchor="middle" x="231.42" y="-373.32" font-family="Times,serif" font-size="14.00" fill="white">boost ❎</text>
</a>
</g>
</g>
<!-- paraview -->
<g id="node2" class="node">
<title>paraview</title>
<g id="a_node2"><a xlink:href="https://github.com/conda-forge/paraview-feedstock" xlink:title="paraview">
<ellipse fill="#fde725" stroke="black" cx="226.42" cy="-306" rx="57" ry="18"/>
<text text-anchor="middle" x="226.42" y="-301.32" font-family="Times,serif" font-size="14.00">paraview</text>
</a>
</g>
</g>
<!-- boost&#45;&gt;paraview -->
<g id="edge1" class="edge">
<title>boost&#45;&gt;paraview</title>
<path fill="none" stroke="black" d="M230.18,-359.7C229.66,-352.41 229.04,-343.73 228.46,-335.54"/>
<polygon fill="black" stroke="black" points="231.95,-335.34 227.75,-325.61 224.97,-335.84 231.95,-335.34"/>
</g>
<!-- qgis -->
<g id="node3" class="node">
<title>qgis</title>
<g id="a_node3"><a xlink:href="https://github.com/conda-forge/qgis-feedstock" xlink:title="qgis">
<ellipse fill="#fde725" stroke="black" cx="65.42" cy="-306" rx="32.27" ry="18"/>
<text text-anchor="middle" x="65.42" y="-301.32" font-family="Times,serif" font-size="14.00">qgis</text>
</a>
</g>
</g>
<!-- boost&#45;&gt;qgis -->
<g id="edge2" class="edge">
<title>boost&#45;&gt;qgis</title>
<path fill="none" stroke="black" d="M199.02,-363.34C170.91,-351.48 130.27,-334.35 101.21,-322.09"/>
<polygon fill="black" stroke="black" points="102.66,-318.9 92.08,-318.24 99.94,-325.35 102.66,-318.9"/>
</g>
<!-- clickhouse&#45;odbc -->
<g id="node4" class="node">
<title>clickhouse&#45;odbc</title>
<g id="a_node4"><a xlink:href="https://github.com/conda-forge/clickhouse-odbc-feedstock" xlink:title="clickhouse odbc">
<ellipse fill="#fde725" stroke="black" cx="471.42" cy="-234" rx="90.14" ry="18"/>
<text text-anchor="middle" x="471.42" y="-229.32" font-family="Times,serif" font-size="14.00">clickhouse odbc</text>
</a>
</g>
</g>
<!-- boost&#45;&gt;clickhouse&#45;odbc -->
<g id="edge3" class="edge">
<title>boost&#45;&gt;clickhouse&#45;odbc</title>
<path fill="none" stroke="black" d="M271.14,-365.45C299.16,-356.37 336.98,-342.23 367.42,-324 397.39,-306.05 427.23,-279.37 447.21,-259.9"/>
<polygon fill="black" stroke="black" points="449.42,-262.64 454.07,-253.11 444.5,-257.66 449.42,-262.64"/>
</g>
<!-- mongodb -->
<g id="node5" class="node">
<title>mongodb</title>
<g id="a_node5"><a xlink:href="https://github.com/conda-forge/mongodb-feedstock" xlink:title="mongodb">
<ellipse fill="#fde725" stroke="black" cx="125.42" cy="-162" rx="57.52" ry="18"/>
<text text-anchor="middle" x="125.42" y="-157.32" font-family="Times,serif" font-size="14.00">mongodb</text>
</a>
</g>
</g>
<!-- boost&#45;&gt;mongodb -->
<g id="edge4" class="edge">
<title>boost&#45;&gt;mongodb</title>
<path fill="none" stroke="black" d="M203.23,-362.47C188.31,-353.37 170.94,-340.27 160.42,-324 134.13,-283.36 127.3,-226.1 125.7,-191.95"/>
<polygon fill="black" stroke="black" points="129.19,-191.88 125.36,-182 122.2,-192.11 129.19,-191.88"/>
</g>
<!-- topologytoolkit -->
<g id="node6" class="node">
<title>topologytoolkit</title>
<g id="a_node6"><a xlink:href="https://github.com/conda-forge/topologytoolkit-feedstock" xlink:title="topologytoolkit">
<ellipse fill="#fde725" stroke="black" cx="239.42" cy="-234" rx="86.46" ry="18"/>
<text text-anchor="middle" x="239.42" y="-229.32" font-family="Times,serif" font-size="14.00">topologytoolkit</text>
</a>
</g>
</g>
<!-- boost&#45;&gt;topologytoolkit -->
<g id="edge5" class="edge">
<title>boost&#45;&gt;topologytoolkit</title>
<path fill="none" stroke="black" d="M257.59,-361.88C270.67,-352.76 285.2,-339.83 292.42,-324 299.06,-309.44 298.54,-302.78 292.42,-288 287.94,-277.18 280.06,-267.42 271.72,-259.31"/>
<polygon fill="black" stroke="black" points="274.24,-256.87 264.47,-252.78 269.56,-262.07 274.24,-256.87"/>
</g>
<!-- odil -->
<g id="node7" class="node">
<title>odil</title>
<g id="a_node7"><a xlink:href="https://github.com/conda-forge/odil-feedstock" xlink:title="odil">
<ellipse fill="#fde725" stroke="black" cx="353.42" cy="-90" rx="29.64" ry="18"/>
<text text-anchor="middle" x="353.42" y="-85.33" font-family="Times,serif" font-size="14.00">odil</text>
</a>
</g>
</g>
<!-- boost&#45;&gt;odil -->
<g id="edge6" class="edge">
<title>boost&#45;&gt;odil</title>
<path fill="none" stroke="black" d="M260.78,-362.62C276.78,-353.49 295.83,-340.32 308.42,-324 355.42,-263.09 357.8,-167.06 355.64,-119.56"/>
<polygon fill="black" stroke="black" points="359.15,-119.61 355.09,-109.82 352.16,-120.01 359.15,-119.61"/>
</g>
<!-- paraview&#45;&gt;topologytoolkit -->
<g id="edge7" class="edge">
<title>paraview&#45;&gt;topologytoolkit</title>
<path fill="none" stroke="black" d="M229.63,-287.7C231,-280.32 232.64,-271.52 234.17,-263.25"/>
<polygon fill="black" stroke="black" points="237.58,-264.06 235.97,-253.59 230.7,-262.79 237.58,-264.06"/>
</g>
<!-- cairo -->
<g id="node8" class="node">
<title>cairo</title>
<g id="a_node8"><a xlink:href="https://github.com/conda-forge/cairo-feedstock/pull/77" xlink:title="cairo ✓">
<ellipse fill="#31688e" stroke="black" cx="503.42" cy="-666" rx="43.84" ry="18"/>
<text text-anchor="middle" x="503.42" y="-661.33" font-family="Times,serif" font-size="14.00" fill="white">cairo ✓</text>
</a>
</g>
</g>
<!-- harfbuzz -->
<g id="node9" class="node">
<title>harfbuzz</title>
<g id="a_node9"><a xlink:href="https://github.com/conda-forge/harfbuzz-feedstock" xlink:title="harfbuzz">
<ellipse fill="#fde725" stroke="black" cx="438.42" cy="-594" rx="54.89" ry="18"/>
<text text-anchor="middle" x="438.42" y="-589.33" font-family="Times,serif" font-size="14.00">harfbuzz</text>
</a>
</g>
</g>
<!-- cairo&#45;&gt;harfbuzz -->
<g id="edge8" class="edge">
<title>cairo&#45;&gt;harfbuzz</title>
<path fill="none" stroke="black" d="M488.34,-648.76C480.42,-640.23 470.53,-629.58 461.65,-620.02"/>
<polygon fill="black" stroke="black" points="464.26,-617.69 454.89,-612.74 459.13,-622.45 464.26,-617.69"/>
</g>
<!-- r&#45;base -->
<g id="node10" class="node">
<title>r&#45;base</title>
<g id="a_node10"><a xlink:href="https://github.com/conda-forge/r-base-feedstock" xlink:title="r base">
<ellipse fill="#fde725" stroke="black" cx="304.42" cy="-522" rx="42.26" ry="18"/>
<text text-anchor="middle" x="304.42" y="-517.33" font-family="Times,serif" font-size="14.00">r base</text>
</a>
</g>
</g>
<!-- cairo&#45;&gt;r&#45;base -->
<g id="edge9" class="edge">
<title>cairo&#45;&gt;r&#45;base</title>
<path fill="none" stroke="black" d="M466.92,-655.51C439.58,-647.16 402.24,-633.02 374.42,-612 351.85,-594.94 332.53,-568.94 319.94,-549.44"/>
<polygon fill="black" stroke="black" points="323.06,-547.82 314.8,-541.19 317.13,-551.53 323.06,-547.82"/>
</g>
<!-- r&#45;cairo -->
<g id="node11" class="node">
<title>r&#45;cairo</title>
<g id="a_node11"><a xlink:href="https://github.com/conda-forge/r-cairo-feedstock" xlink:title="r cairo">
<ellipse fill="#fde725" stroke="black" cx="494.42" cy="-450" rx="43.84" ry="18"/>
<text text-anchor="middle" x="494.42" y="-445.32" font-family="Times,serif" font-size="14.00">r cairo</text>
</a>
</g>
</g>
<!-- cairo&#45;&gt;r&#45;cairo -->
<g id="edge10" class="edge">
<title>cairo&#45;&gt;r&#45;cairo</title>
<path fill="none" stroke="black" d="M534.57,-653.08C595.1,-628.15 718.7,-567.51 671.42,-504 656.33,-483.74 592.8,-468.34 546.15,-459.5"/>
<polygon fill="black" stroke="black" points="546.95,-456.09 536.49,-457.72 545.69,-462.97 546.95,-456.09"/>
</g>
<!-- texlive&#45;core -->
<g id="node12" class="node">
<title>texlive&#45;core</title>
<g id="a_node12"><a xlink:href="https://github.com/conda-forge/texlive-core-feedstock" xlink:title="texlive core">
<ellipse fill="#fde725" stroke="black" cx="592.42" cy="-522" rx="69.62" ry="18"/>
<text text-anchor="middle" x="592.42" y="-517.33" font-family="Times,serif" font-size="14.00">texlive core</text>
</a>
</g>
</g>
<!-- cairo&#45;&gt;texlive&#45;core -->
<g id="edge11" class="edge">
<title>cairo&#45;&gt;texlive&#45;core</title>
<path fill="none" stroke="black" d="M513.98,-648.15C529.22,-623.84 557.53,-578.66 575.65,-549.75"/>
<polygon fill="black" stroke="black" points="578.45,-551.88 580.79,-541.55 572.52,-548.16 578.45,-551.88"/>
</g>
<!-- harfbuzz&#45;&gt;r&#45;base -->
<g id="edge12" class="edge">
<title>harfbuzz&#45;&gt;r&#45;base</title>
<path fill="none" stroke="black" d="M410,-578.15C389.8,-567.6 362.5,-553.34 340.72,-541.96"/>
<polygon fill="black" stroke="black" points="342.35,-538.87 331.86,-537.34 339.11,-545.07 342.35,-538.87"/>
</g>
<!-- harfbuzz&#45;&gt;r&#45;cairo -->
<g id="edge13" class="edge">
<title>harfbuzz&#45;&gt;r&#45;cairo</title>
<path fill="none" stroke="black" d="M452.63,-576.38C460.44,-566.42 469.69,-553.17 475.42,-540 483.8,-520.72 488.6,-497.43 491.28,-479.52"/>
<polygon fill="black" stroke="black" points="494.71,-480.23 492.58,-469.85 487.78,-479.3 494.71,-480.23"/>
</g>
<!-- harfbuzz&#45;&gt;texlive&#45;core -->
<g id="edge14" class="edge">
<title>harfbuzz&#45;&gt;texlive&#45;core</title>
<path fill="none" stroke="black" d="M469.58,-578.83C492.27,-568.52 523.3,-554.42 548.5,-542.96"/>
<polygon fill="black" stroke="black" points="549.87,-546.19 557.52,-538.86 546.97,-539.81 549.87,-546.19"/>
</g>
<!-- tectonic -->
<g id="node13" class="node">
<title>tectonic</title>
<g id="a_node13"><a xlink:href="https://github.com/conda-forge/tectonic-feedstock" xlink:title="tectonic">
<ellipse fill="#fde725" stroke="black" cx="415.42" cy="-522" rx="51.21" ry="18"/>
<text text-anchor="middle" x="415.42" y="-517.33" font-family="Times,serif" font-size="14.00">tectonic</text>
</a>
</g>
</g>
<!-- harfbuzz&#45;&gt;tectonic -->
<g id="edge15" class="edge">
<title>harfbuzz&#45;&gt;tectonic</title>
<path fill="none" stroke="black" d="M432.73,-575.7C430.28,-568.24 427.35,-559.32 424.61,-550.97"/>
<polygon fill="black" stroke="black" points="427.96,-549.95 421.51,-541.54 421.31,-552.14 427.96,-549.95"/>
</g>
<!-- qt&#45;main -->
<g id="node14" class="node">
<title>qt&#45;main</title>
<g id="a_node14"><a xlink:href="https://github.com/conda-forge/qt-main-feedstock" xlink:title="qt main">
<ellipse fill="#fde725" stroke="black" cx="74.42" cy="-522" rx="49.63" ry="18"/>
<text text-anchor="middle" x="74.42" y="-517.33" font-family="Times,serif" font-size="14.00">qt main</text>
</a>
</g>
</g>
<!-- harfbuzz&#45;&gt;qt&#45;main -->
<g id="edge16" class="edge">
<title>harfbuzz&#45;&gt;qt&#45;main</title>
<path fill="none" stroke="black" d="M388.7,-586.05C328.05,-577.19 222.59,-560.53 133.42,-540 129.83,-539.17 126.15,-538.26 122.44,-537.3"/>
<polygon fill="black" stroke="black" points="123.42,-533.94 112.86,-534.71 121.6,-540.7 123.42,-533.94"/>
</g>
<!-- r&#45;base&#45;&gt;r&#45;cairo -->
<g id="edge17" class="edge">
<title>r&#45;base&#45;&gt;r&#45;cairo</title>
<path fill="none" stroke="black" d="M335.79,-509.44C367.6,-497.72 417.02,-479.51 452.24,-466.54"/>
<polygon fill="black" stroke="black" points="453.09,-469.96 461.26,-463.22 450.67,-463.39 453.09,-469.96"/>
</g>
<!-- r&#45;stringi -->
<g id="node15" class="node">
<title>r&#45;stringi</title>
<g id="a_node15"><a xlink:href="https://github.com/conda-forge/r-stringi-feedstock" xlink:title="r stringi">
<ellipse fill="#fde725" stroke="black" cx="305.42" cy="-450" rx="52.26" ry="18"/>
<text text-anchor="middle" x="305.42" y="-445.32" font-family="Times,serif" font-size="14.00">r stringi</text>
</a>
</g>
</g>
<!-- r&#45;base&#45;&gt;r&#45;stringi -->
<g id="edge18" class="edge">
<title>r&#45;base&#45;&gt;r&#45;stringi</title>
<path fill="none" stroke="black" d="M304.67,-503.7C304.77,-496.41 304.89,-487.73 305.01,-479.54"/>
<polygon fill="black" stroke="black" points="308.51,-479.67 305.15,-469.62 301.51,-479.57 308.51,-479.67"/>
</g>
<!-- r&#45;v8 -->
<g id="node16" class="node">
<title>r&#45;v8</title>
<g id="a_node16"><a xlink:href="https://github.com/conda-forge/r-v8-feedstock" xlink:title="r v8">
<ellipse fill="#fde725" stroke="black" cx="204.42" cy="-450" rx="31.22" ry="18"/>
<text text-anchor="middle" x="204.42" y="-445.32" font-family="Times,serif" font-size="14.00">r v8</text>
</a>
</g>
</g>
<!-- r&#45;base&#45;&gt;r&#45;v8 -->
<g id="edge19" class="edge">
<title>r&#45;base&#45;&gt;r&#45;v8</title>
<path fill="none" stroke="black" d="M283.21,-506.15C268.59,-495.92 248.98,-482.19 232.98,-471"/>
<polygon fill="black" stroke="black" points="235.01,-468.14 224.81,-465.27 230.99,-473.87 235.01,-468.14"/>
</g>
<!-- qt&#45;main&#45;&gt;qgis -->
<g id="edge20" class="edge">
<title>qt&#45;main&#45;&gt;qgis</title>
<path fill="none" stroke="black" d="M96.27,-505.51C107.58,-496.11 120.27,-483.04 126.42,-468 132.47,-453.19 127.19,-447.98 126.42,-432 124.86,-399.89 133.28,-389.01 119.42,-360 113.56,-347.75 103.63,-336.75 93.87,-327.99"/>
<polygon fill="black" stroke="black" points="96.15,-325.33 86.24,-321.58 91.65,-330.69 96.15,-325.33"/>
</g>
<!-- octave -->
<g id="node17" class="node">
<title>octave</title>
<g id="a_node17"><a xlink:href="https://github.com/conda-forge/octave-feedstock" xlink:title="octave">
<ellipse fill="#fde725" stroke="black" cx="73.42" cy="-450" rx="43.84" ry="18"/>
<text text-anchor="middle" x="73.42" y="-445.32" font-family="Times,serif" font-size="14.00">octave</text>
</a>
</g>
</g>
<!-- qt&#45;main&#45;&gt;octave -->
<g id="edge21" class="edge">
<title>qt&#45;main&#45;&gt;octave</title>
<path fill="none" stroke="black" d="M74.17,-503.7C74.07,-496.41 73.94,-487.73 73.83,-479.54"/>
<polygon fill="black" stroke="black" points="77.33,-479.57 73.68,-469.62 70.33,-479.67 77.33,-479.57"/>
</g>
<!-- qtwebkit -->
<g id="node18" class="node">
<title>qtwebkit</title>
<g id="a_node18"><a xlink:href="https://github.com/conda-forge/qtwebkit-feedstock" xlink:title="qtwebkit">
<ellipse fill="#fde725" stroke="black" cx="55.42" cy="-378" rx="55.42" ry="18"/>
<text text-anchor="middle" x="55.42" y="-373.32" font-family="Times,serif" font-size="14.00">qtwebkit</text>
</a>
</g>
</g>
<!-- qt&#45;main&#45;&gt;qtwebkit -->
<g id="edge22" class="edge">
<title>qt&#45;main&#45;&gt;qtwebkit</title>
<path fill="none" stroke="black" d="M51.74,-505.69C40.01,-496.34 26.82,-483.26 20.42,-468 14.23,-453.25 15.82,-447.32 20.42,-432 23.26,-422.54 28.4,-413.21 33.88,-405.08"/>
<polygon fill="black" stroke="black" points="36.66,-407.2 39.71,-397.05 31,-403.08 36.66,-407.2"/>
</g>
<!-- qtwebkit&#45;&gt;qgis -->
<g id="edge28" class="edge">
<title>qtwebkit&#45;&gt;qgis</title>
<path fill="none" stroke="black" d="M57.89,-359.7C58.94,-352.32 60.2,-343.52 61.38,-335.25"/>
<polygon fill="black" stroke="black" points="64.81,-336 62.76,-325.6 57.88,-335.01 64.81,-336"/>
</g>
<!-- kaldi -->
<g id="node19" class="node">
<title>kaldi</title>
<g id="a_node19"><a xlink:href="https://github.com/conda-forge/kaldi-feedstock" xlink:title="kaldi">
<ellipse fill="#35b779" stroke="black" cx="791.42" cy="-738" rx="35.42" ry="18"/>
<text text-anchor="middle" x="791.42" y="-733.33" font-family="Times,serif" font-size="14.00">kaldi</text>
</a>
</g>
</g>
<!-- libgd -->
<g id="node20" class="node">
<title>libgd</title>
<g id="a_node20"><a xlink:href="https://github.com/conda-forge/libgd-feedstock/pull/54" xlink:title="libgd ✓">
<ellipse fill="#31688e" stroke="black" cx="791.42" cy="-666" rx="44.37" ry="18"/>
<text text-anchor="middle" x="791.42" y="-661.33" font-family="Times,serif" font-size="14.00" fill="white">libgd ✓</text>
</a>
</g>
</g>
<!-- kaldi&#45;&gt;libgd -->
<!-- nodejs -->
<g id="node21" class="node">
<title>nodejs</title>
<g id="a_node21"><a xlink:href="https://github.com/conda-forge/nodejs-feedstock" xlink:title="nodejs">
<ellipse fill="#35b779" stroke="black" cx="791.42" cy="-594" rx="43.84" ry="18"/>
<text text-anchor="middle" x="791.42" y="-589.33" font-family="Times,serif" font-size="14.00">nodejs</text>
</a>
</g>
</g>
<!-- libgd&#45;&gt;nodejs -->
<!-- uwsgi -->
<g id="node23" class="node">
<title>uwsgi</title>
<g id="a_node23"><a xlink:href="https://github.com/conda-forge/uwsgi-feedstock" xlink:title="uwsgi">
<ellipse fill="#35b779" stroke="black" cx="791.42" cy="-522" rx="40.69" ry="18"/>
<text text-anchor="middle" x="791.42" y="-517.33" font-family="Times,serif" font-size="14.00">uwsgi</text>
</a>
</g>
</g>
<!-- nodejs&#45;&gt;uwsgi -->
<!-- mysql -->
<g id="node22" class="node">
<title>mysql</title>
<g id="a_node22"><a xlink:href="https://github.com/conda-forge/mysql-feedstock/pull/99" xlink:title="mysql ❎">
<ellipse fill="#31688e" stroke="black" cx="74.42" cy="-594" rx="56.47" ry="18"/>
<text text-anchor="middle" x="74.42" y="-589.33" font-family="Times,serif" font-size="14.00" fill="white">mysql ❎</text>
</a>
</g>
</g>
<!-- mysql&#45;&gt;qt&#45;main -->
<g id="edge25" class="edge">
<title>mysql&#45;&gt;qt&#45;main</title>
<path fill="none" stroke="black" d="M74.42,-575.7C74.42,-568.41 74.42,-559.73 74.42,-551.54"/>
<polygon fill="black" stroke="black" points="77.92,-551.62 74.42,-541.62 70.92,-551.62 77.92,-551.62"/>
</g>
<!-- pyicu -->
<g id="node24" class="node">
<title>pyicu</title>
<g id="a_node24"><a xlink:href="https://github.com/conda-forge/pyicu-feedstock/pull/61" xlink:title="pyicu ❎">
<ellipse fill="#31688e" stroke="black" cx="791.42" cy="-450" rx="53.31" ry="18"/>
<text text-anchor="middle" x="791.42" y="-445.32" font-family="Times,serif" font-size="14.00" fill="white">pyicu ❎</text>
</a>
</g>
</g>
<!-- uwsgi&#45;&gt;pyicu -->
<!-- tensorflow -->
<g id="node25" class="node">
<title>tensorflow</title>
<g id="a_node25"><a xlink:href="https://github.com/conda-forge/tensorflow-feedstock" xlink:title="tensorflow">
<ellipse fill="#35b779" stroke="black" cx="791.42" cy="-378" rx="63.84" ry="18"/>
<text text-anchor="middle" x="791.42" y="-373.32" font-family="Times,serif" font-size="14.00">tensorflow</text>
</a>
</g>
</g>
<!-- pyicu&#45;&gt;tensorflow -->
<!-- ticcutils -->
<g id="node26" class="node">
<title>ticcutils</title>
<g id="a_node26"><a xlink:href="https://github.com/conda-forge/ticcutils-feedstock" xlink:title="ticcutils">
<ellipse fill="#35b779" stroke="black" cx="791.42" cy="-306" rx="51.21" ry="18"/>
<text text-anchor="middle" x="791.42" y="-301.32" font-family="Times,serif" font-size="14.00">ticcutils</text>
</a>
</g>
</g>
<!-- tensorflow&#45;&gt;ticcutils -->
<!-- scilab -->
<g id="node27" class="node">
<title>scilab</title>
<g id="a_node27"><a xlink:href="https://github.com/conda-forge/scilab-feedstock" xlink:title="scilab">
<ellipse fill="#35b779" stroke="black" cx="791.42" cy="-234" rx="40.16" ry="18"/>
<text text-anchor="middle" x="791.42" y="-229.32" font-family="Times,serif" font-size="14.00">scilab</text>
</a>
</g>
</g>
<!-- ticcutils&#45;&gt;scilab -->
<!-- libical -->
<g id="node28" class="node">
<title>libical</title>
<g id="a_node28"><a xlink:href="https://github.com/conda-forge/libical-feedstock" xlink:title="libical">
<ellipse fill="#35b779" stroke="black" cx="791.42" cy="-162" rx="41.21" ry="18"/>
<text text-anchor="middle" x="791.42" y="-157.32" font-family="Times,serif" font-size="14.00">libical</text>
</a>
</g>
</g>
<!-- scilab&#45;&gt;libical -->
<!-- libxmlsec1 -->
<g id="node29" class="node">
<title>libxmlsec1</title>
<g id="a_node29"><a xlink:href="https://github.com/conda-forge/libxmlsec1-feedstock" xlink:title="libxmlsec1">
<ellipse fill="#35b779" stroke="black" cx="791.42" cy="-90" rx="64.89" ry="18"/>
<text text-anchor="middle" x="791.42" y="-85.33" font-family="Times,serif" font-size="14.00">libxmlsec1</text>
</a>
</g>
</g>
<!-- libical&#45;&gt;libxmlsec1 -->
<!-- couchdb -->
<g id="node31" class="node">
<title>couchdb</title>
<g id="a_node31"><a xlink:href="https://github.com/conda-forge/couchdb-feedstock" xlink:title="couchdb">
<ellipse fill="#ff8c00" stroke="black" cx="791.42" cy="-18" rx="52.79" ry="18"/>
<text text-anchor="middle" x="791.42" y="-13.32" font-family="Times,serif" font-size="14.00">couchdb</text>
</a>
</g>
</g>
<!-- libxmlsec1&#45;&gt;couchdb -->
<!-- libv8 -->
<g id="node30" class="node">
<title>libv8</title>
<g id="a_node30"><a xlink:href="https://github.com/conda-forge/libv8-feedstock/pull/85" xlink:title="libv8 ❎">
<ellipse fill="#31688e" stroke="black" cx="193.42" cy="-522" rx="51.21" ry="18"/>
<text text-anchor="middle" x="193.42" y="-517.33" font-family="Times,serif" font-size="14.00" fill="white">libv8 ❎</text>
</a>
</g>
</g>
<!-- libv8&#45;&gt;r&#45;v8 -->
<g id="edge34" class="edge">
<title>libv8&#45;&gt;r&#45;v8</title>
<path fill="none" stroke="black" d="M196.14,-503.7C197.3,-496.32 198.68,-487.52 199.98,-479.25"/>
<polygon fill="black" stroke="black" points="203.4,-480.02 201.5,-469.6 196.49,-478.93 203.4,-480.02"/>
</g>
</g>
</svg>
