<?xml version="1.0" encoding="UTF-8" standalone="no"?>
<!DOCTYPE svg PUBLIC "-//W3C//DTD SVG 1.1//EN"
 "http://www.w3.org/Graphics/SVG/1.1/DTD/svg11.dtd">
<!-- Generated by graphviz version 11.0.0 (20240519.1550)
 -->
<!-- Pages: 1 -->
<svg width="954pt" height="952pt"
 viewBox="0.00 0.00 953.56 952.00" xmlns="http://www.w3.org/2000/svg" xmlns:xlink="http://www.w3.org/1999/xlink">
<g id="graph0" class="graph" transform="scale(1 1) rotate(0) translate(4 948)">
<polygon fill="white" stroke="none" points="-4,4 -4,-948 949.56,-948 949.56,4 -4,4"/>
<!-- boost -->
<g id="node1" class="node">
<title>boost</title>
<g id="a_node1"><a xlink:href="https://github.com/conda-forge/boost-feedstock/pull/209" xlink:title="boost ✓">
<ellipse fill="#31688e" stroke="black" cx="449.14" cy="-710" rx="46.47" ry="18"/>
<text text-anchor="middle" x="449.14" y="-705.33" font-family="Times,serif" font-size="14.00" fill="white">boost ✓</text>
</a>
</g>
</g>
<!-- paraview -->
<g id="node2" class="node">
<title>paraview</title>
<g id="a_node2"><a xlink:href="https://github.com/conda-forge/paraview-feedstock" xlink:title="paraview">
<ellipse fill="#fde725" stroke="black" cx="272.14" cy="-638" rx="57" ry="18"/>
<text text-anchor="middle" x="272.14" y="-633.33" font-family="Times,serif" font-size="14.00">paraview</text>
</a>
</g>
</g>
<!-- boost&#45;&gt;paraview -->
<g id="edge1" class="edge">
<title>boost&#45;&gt;paraview</title>
<path fill="none" stroke="black" d="M417.5,-696.49C389.66,-685.47 348.8,-669.32 317.49,-656.93"/>
<polygon fill="black" stroke="black" points="318.84,-653.7 308.25,-653.28 316.26,-660.21 318.84,-653.7"/>
</g>
<!-- clickhouse&#45;odbc -->
<g id="node3" class="node">
<title>clickhouse&#45;odbc</title>
<g id="a_node3"><a xlink:href="https://github.com/conda-forge/clickhouse-odbc-feedstock" xlink:title="clickhouse odbc">
<ellipse fill="#fde725" stroke="black" cx="449.14" cy="-566" rx="90.14" ry="18"/>
<text text-anchor="middle" x="449.14" y="-561.33" font-family="Times,serif" font-size="14.00">clickhouse odbc</text>
</a>
</g>
</g>
<!-- boost&#45;&gt;clickhouse&#45;odbc -->
<g id="edge2" class="edge">
<title>boost&#45;&gt;clickhouse&#45;odbc</title>
<path fill="none" stroke="black" d="M449.14,-691.59C449.14,-667.61 449.14,-624.14 449.14,-595.42"/>
<polygon fill="black" stroke="black" points="452.64,-595.62 449.14,-585.62 445.64,-595.62 452.64,-595.62"/>
</g>
<!-- mongodb -->
<g id="node4" class="node">
<title>mongodb</title>
<g id="a_node4"><a xlink:href="https://github.com/conda-forge/mongodb-feedstock" xlink:title="mongodb">
<ellipse fill="#fde725" stroke="black" cx="567.14" cy="-494" rx="57.52" ry="18"/>
<text text-anchor="middle" x="567.14" y="-489.32" font-family="Times,serif" font-size="14.00">mongodb</text>
</a>
</g>
</g>
<!-- boost&#45;&gt;mongodb -->
<g id="edge3" class="edge">
<title>boost&#45;&gt;mongodb</title>
<path fill="none" stroke="black" d="M466.02,-692.92C488.38,-670.63 527.39,-628.08 548.14,-584 557.1,-564.98 561.88,-541.68 564.4,-523.7"/>
<polygon fill="black" stroke="black" points="567.85,-524.33 565.6,-513.98 560.91,-523.48 567.85,-524.33"/>
</g>
<!-- topologytoolkit -->
<g id="node5" class="node">
<title>topologytoolkit</title>
<g id="a_node5"><a xlink:href="https://github.com/conda-forge/topologytoolkit-feedstock" xlink:title="topologytoolkit">
<ellipse fill="#fde725" stroke="black" cx="254.14" cy="-566" rx="86.46" ry="18"/>
<text text-anchor="middle" x="254.14" y="-561.33" font-family="Times,serif" font-size="14.00">topologytoolkit</text>
</a>
</g>
</g>
<!-- boost&#45;&gt;topologytoolkit -->
<g id="edge4" class="edge">
<title>boost&#45;&gt;topologytoolkit</title>
<path fill="none" stroke="black" d="M430.79,-693.22C409.18,-674.89 371.93,-644.09 338.14,-620 323.31,-609.43 306.42,-598.56 291.69,-589.43"/>
<polygon fill="black" stroke="black" points="293.54,-586.46 283.18,-584.21 289.88,-592.43 293.54,-586.46"/>
</g>
<!-- odil -->
<g id="node6" class="node">
<title>odil</title>
<g id="a_node6"><a xlink:href="https://github.com/conda-forge/odil-feedstock" xlink:title="odil">
<ellipse fill="#fde725" stroke="black" cx="653.14" cy="-422" rx="29.64" ry="18"/>
<text text-anchor="middle" x="653.14" y="-417.32" font-family="Times,serif" font-size="14.00">odil</text>
</a>
</g>
</g>
<!-- boost&#45;&gt;odil -->
<g id="edge5" class="edge">
<title>boost&#45;&gt;odil</title>
<path fill="none" stroke="black" d="M474.61,-694.71C490.68,-684.99 511.31,-671.18 527.14,-656 584.7,-600.82 601.29,-584.65 634.14,-512 642.81,-492.84 647.6,-469.55 650.2,-451.6"/>
<polygon fill="black" stroke="black" points="653.64,-452.28 651.45,-441.91 646.7,-451.38 653.64,-452.28"/>
</g>
<!-- paraview&#45;&gt;topologytoolkit -->
<g id="edge6" class="edge">
<title>paraview&#45;&gt;topologytoolkit</title>
<path fill="none" stroke="black" d="M267.69,-619.7C265.8,-612.32 263.54,-603.52 261.41,-595.25"/>
<polygon fill="black" stroke="black" points="264.8,-594.38 258.92,-585.57 258.02,-596.13 264.8,-594.38"/>
</g>
<!-- kaldi -->
<g id="node7" class="node">
<title>kaldi</title>
<g id="a_node7"><a xlink:href="https://github.com/conda-forge/kaldi-feedstock" xlink:title="kaldi">
<ellipse fill="#ff8c00" stroke="black" cx="80.14" cy="-926" rx="35.42" ry="18"/>
<text text-anchor="middle" x="80.14" y="-921.33" font-family="Times,serif" font-size="14.00">kaldi</text>
</a>
</g>
</g>
<!-- libgd -->
<g id="node8" class="node">
<title>libgd</title>
<g id="a_node8"><a xlink:href="https://github.com/conda-forge/libgd-feedstock/pull/54" xlink:title="libgd ✓">
<ellipse fill="#31688e" stroke="black" cx="80.14" cy="-854" rx="44.37" ry="18"/>
<text text-anchor="middle" x="80.14" y="-849.33" font-family="Times,serif" font-size="14.00" fill="white">libgd ✓</text>
</a>
</g>
</g>
<!-- kaldi&#45;&gt;libgd -->
<!-- nodejs -->
<g id="node9" class="node">
<title>nodejs</title>
<g id="a_node9"><a xlink:href="https://github.com/conda-forge/nodejs-feedstock" xlink:title="nodejs">
<ellipse fill="#fde725" stroke="black" cx="80.14" cy="-782" rx="43.84" ry="18"/>
<text text-anchor="middle" x="80.14" y="-777.33" font-family="Times,serif" font-size="14.00">nodejs</text>
</a>
</g>
</g>
<!-- libgd&#45;&gt;nodejs -->
<!-- r&#45;cairo -->
<g id="node15" class="node">
<title>r&#45;cairo</title>
<g id="a_node15"><a xlink:href="https://github.com/conda-forge/r-cairo-feedstock" xlink:title="r cairo">
<ellipse fill="#ff8c00" stroke="black" cx="80.14" cy="-710" rx="43.84" ry="18"/>
<text text-anchor="middle" x="80.14" y="-705.33" font-family="Times,serif" font-size="14.00">r cairo</text>
</a>
</g>
</g>
<!-- nodejs&#45;&gt;r&#45;cairo -->
<!-- mysql -->
<g id="node10" class="node">
<title>mysql</title>
<g id="a_node10"><a xlink:href="https://github.com/conda-forge/mysql-feedstock/pull/99" xlink:title="mysql ✓">
<ellipse fill="#31688e" stroke="black" cx="807.14" cy="-710" rx="49.1" ry="18"/>
<text text-anchor="middle" x="807.14" y="-705.33" font-family="Times,serif" font-size="14.00" fill="white">mysql ✓</text>
</a>
</g>
</g>
<!-- qt&#45;main -->
<g id="node11" class="node">
<title>qt&#45;main</title>
<g id="a_node11"><a xlink:href="https://github.com/conda-forge/qt-main-feedstock" xlink:title="qt main">
<ellipse fill="#fde725" stroke="black" cx="807.14" cy="-638" rx="49.63" ry="18"/>
<text text-anchor="middle" x="807.14" y="-633.33" font-family="Times,serif" font-size="14.00">qt main</text>
</a>
</g>
</g>
<!-- mysql&#45;&gt;qt&#45;main -->
<g id="edge9" class="edge">
<title>mysql&#45;&gt;qt&#45;main</title>
<path fill="none" stroke="black" d="M807.14,-691.7C807.14,-684.41 807.14,-675.73 807.14,-667.54"/>
<polygon fill="black" stroke="black" points="810.64,-667.62 807.14,-657.62 803.64,-667.62 810.64,-667.62"/>
</g>
<!-- octave -->
<g id="node12" class="node">
<title>octave</title>
<g id="a_node12"><a xlink:href="https://github.com/conda-forge/octave-feedstock" xlink:title="octave">
<ellipse fill="#fde725" stroke="black" cx="735.14" cy="-566" rx="43.84" ry="18"/>
<text text-anchor="middle" x="735.14" y="-561.33" font-family="Times,serif" font-size="14.00">octave</text>
</a>
</g>
</g>
<!-- qt&#45;main&#45;&gt;octave -->
<g id="edge10" class="edge">
<title>qt&#45;main&#45;&gt;octave</title>
<path fill="none" stroke="black" d="M790.44,-620.76C781.36,-611.93 769.94,-600.83 759.84,-591.01"/>
<polygon fill="black" stroke="black" points="762.45,-588.66 752.84,-584.2 757.57,-593.68 762.45,-588.66"/>
</g>
<!-- qgis -->
<g id="node13" class="node">
<title>qgis</title>
<g id="a_node13"><a xlink:href="https://github.com/conda-forge/qgis-feedstock" xlink:title="qgis">
<ellipse fill="#fde725" stroke="black" cx="848.14" cy="-422" rx="32.27" ry="18"/>
<text text-anchor="middle" x="848.14" y="-417.32" font-family="Times,serif" font-size="14.00">qgis</text>
</a>
</g>
</g>
<!-- qt&#45;main&#45;&gt;qgis -->
<g id="edge11" class="edge">
<title>qt&#45;main&#45;&gt;qgis</title>
<path fill="none" stroke="black" d="M807.62,-619.79C808.79,-590.03 812.77,-527.2 826.14,-476 828.39,-467.38 831.75,-458.33 835.18,-450.18"/>
<polygon fill="black" stroke="black" points="838.32,-451.72 839.17,-441.16 831.92,-448.89 838.32,-451.72"/>
</g>
<!-- qtwebkit -->
<g id="node14" class="node">
<title>qtwebkit</title>
<g id="a_node14"><a xlink:href="https://github.com/conda-forge/qtwebkit-feedstock" xlink:title="qtwebkit">
<ellipse fill="#fde725" stroke="black" cx="890.14" cy="-494" rx="55.42" ry="18"/>
<text text-anchor="middle" x="890.14" y="-489.32" font-family="Times,serif" font-size="14.00">qtwebkit</text>
</a>
</g>
</g>
<!-- qt&#45;main&#45;&gt;qtwebkit -->
<g id="edge12" class="edge">
<title>qt&#45;main&#45;&gt;qtwebkit</title>
<path fill="none" stroke="black" d="M816.99,-620.15C831.22,-595.81 857.66,-550.57 874.56,-521.67"/>
<polygon fill="black" stroke="black" points="877.52,-523.53 879.55,-513.13 871.48,-520 877.52,-523.53"/>
</g>
<!-- qtwebkit&#45;&gt;qgis -->
<g id="edge19" class="edge">
<title>qtwebkit&#45;&gt;qgis</title>
<path fill="none" stroke="black" d="M879.98,-476.05C875.11,-467.94 869.17,-458.04 863.75,-449.01"/>
<polygon fill="black" stroke="black" points="866.85,-447.38 858.71,-440.6 860.85,-450.98 866.85,-447.38"/>
</g>
<!-- r&#45;stringi -->
<g id="node16" class="node">
<title>r&#45;stringi</title>
<g id="a_node16"><a xlink:href="https://github.com/conda-forge/r-stringi-feedstock/pull/62" xlink:title="r stringi ✓">
<ellipse fill="#31688e" stroke="black" cx="80.14" cy="-638" rx="60.15" ry="18"/>
<text text-anchor="middle" x="80.14" y="-633.33" font-family="Times,serif" font-size="14.00" fill="white">r stringi ✓</text>
</a>
</g>
</g>
<!-- r&#45;cairo&#45;&gt;r&#45;stringi -->
<!-- tectonic -->
<g id="node17" class="node">
<title>tectonic</title>
<g id="a_node17"><a xlink:href="https://github.com/conda-forge/tectonic-feedstock" xlink:title="tectonic">
<ellipse fill="#ff8c00" stroke="black" cx="80.14" cy="-566" rx="51.21" ry="18"/>
<text text-anchor="middle" x="80.14" y="-561.33" font-family="Times,serif" font-size="14.00">tectonic</text>
</a>
</g>
</g>
<!-- r&#45;stringi&#45;&gt;tectonic -->
<!-- texlive&#45;core -->
<g id="node18" class="node">
<title>texlive&#45;core</title>
<g id="a_node18"><a xlink:href="https://github.com/conda-forge/texlive-core-feedstock/pull/95" xlink:title="texlive core ✓">
<ellipse fill="#31688e" stroke="black" cx="80.14" cy="-494" rx="77.52" ry="18"/>
<text text-anchor="middle" x="80.14" y="-489.32" font-family="Times,serif" font-size="14.00" fill="white">texlive core ✓</text>
</a>
</g>
</g>
<!-- tectonic&#45;&gt;texlive&#45;core -->
<!-- uwsgi -->
<g id="node19" class="node">
<title>uwsgi</title>
<g id="a_node19"><a xlink:href="https://github.com/conda-forge/uwsgi-feedstock/pull/83" xlink:title="uwsgi ❎">
<ellipse fill="#31688e" stroke="black" cx="80.14" cy="-422" rx="55.94" ry="18"/>
<text text-anchor="middle" x="80.14" y="-417.32" font-family="Times,serif" font-size="14.00" fill="white">uwsgi ❎</text>
</a>
</g>
</g>
<!-- texlive&#45;core&#45;&gt;uwsgi -->
<!-- tensorflow -->
<g id="node20" class="node">
<title>tensorflow</title>
<g id="a_node20"><a xlink:href="https://github.com/conda-forge/tensorflow-feedstock/pull/397" xlink:title="tensorflow ❎">
<ellipse fill="#31688e" stroke="black" cx="80.14" cy="-350" rx="79.09" ry="18"/>
<text text-anchor="middle" x="80.14" y="-345.32" font-family="Times,serif" font-size="14.00" fill="white">tensorflow ❎</text>
</a>
</g>
</g>
<!-- uwsgi&#45;&gt;tensorflow -->
<!-- ticcutils -->
<g id="node21" class="node">
<title>ticcutils</title>
<g id="a_node21"><a xlink:href="https://github.com/conda-forge/ticcutils-feedstock/pull/34" xlink:title="ticcutils ❎">
<ellipse fill="#31688e" stroke="black" cx="80.14" cy="-278" rx="66.47" ry="18"/>
<text text-anchor="middle" x="80.14" y="-273.32" font-family="Times,serif" font-size="14.00" fill="white">ticcutils ❎</text>
</a>
</g>
</g>
<!-- tensorflow&#45;&gt;ticcutils -->
<!-- scilab -->
<g id="node22" class="node">
<title>scilab</title>
<g id="a_node22"><a xlink:href="https://github.com/conda-forge/scilab-feedstock" xlink:title="scilab">
<ellipse fill="#000000" stroke="black" cx="80.14" cy="-206" rx="40.16" ry="18"/>
<text text-anchor="middle" x="80.14" y="-201.32" font-family="Times,serif" font-size="14.00" fill="white">scilab</text>
</a>
</g>
</g>
<!-- ticcutils&#45;&gt;scilab -->
<!-- libical -->
<g id="node23" class="node">
<title>libical</title>
<g id="a_node23"><a xlink:href="https://github.com/conda-forge/libical-feedstock/pull/27" xlink:title="libical ❎">
<ellipse fill="#31688e" stroke="black" cx="80.14" cy="-162" rx="56.47" ry="18"/>
<text text-anchor="middle" x="80.14" y="-157.32" font-family="Times,serif" font-size="14.00" fill="white">libical ❎</text>
</a>
</g>
</g>
<!-- libxmlsec1 -->
<g id="node24" class="node">
<title>libxmlsec1</title>
<g id="a_node24"><a xlink:href="https://github.com/conda-forge/libxmlsec1-feedstock/pull/34" xlink:title="libxmlsec1 ❎">
<ellipse fill="#31688e" stroke="black" cx="80.14" cy="-90" rx="80.14" ry="18"/>
<text text-anchor="middle" x="80.14" y="-85.33" font-family="Times,serif" font-size="14.00" fill="white">libxmlsec1 ❎</text>
</a>
</g>
</g>
<!-- libical&#45;&gt;libxmlsec1 -->
<!-- couchdb -->
<g id="node27" class="node">
<title>couchdb</title>
<g id="a_node27"><a xlink:href="https://github.com/conda-forge/couchdb-feedstock" xlink:title="couchdb">
<ellipse fill="#ff8c00" stroke="black" cx="80.14" cy="-18" rx="52.79" ry="18"/>
<text text-anchor="middle" x="80.14" y="-13.32" font-family="Times,serif" font-size="14.00">couchdb</text>
</a>
</g>
</g>
<!-- libxmlsec1&#45;&gt;couchdb -->
<!-- libv8 -->
<g id="node25" class="node">
<title>libv8</title>
<g id="a_node25"><a xlink:href="https://github.com/conda-forge/libv8-feedstock/pull/85" xlink:title="libv8 ❎">
<ellipse fill="#31688e" stroke="black" cx="425.14" cy="-126" rx="51.21" ry="18"/>
<text text-anchor="middle" x="425.14" y="-121.33" font-family="Times,serif" font-size="14.00" fill="white">libv8 ❎</text>
</a>
</g>
</g>
<!-- r&#45;v8 -->
<g id="node26" class="node">
<title>r&#45;v8</title>
<g id="a_node26"><a xlink:href="https://github.com/conda-forge/r-v8-feedstock" xlink:title="r v8">
<ellipse fill="#fde725" stroke="black" cx="425.14" cy="-54" rx="31.22" ry="18"/>
<text text-anchor="middle" x="425.14" y="-49.33" font-family="Times,serif" font-size="14.00">r v8</text>
</a>
</g>
</g>
<!-- libv8&#45;&gt;r&#45;v8 -->
<g id="edge23" class="edge">
<title>libv8&#45;&gt;r&#45;v8</title>
<path fill="none" stroke="black" d="M425.14,-107.7C425.14,-100.41 425.14,-91.73 425.14,-83.54"/>
<polygon fill="black" stroke="black" points="428.64,-83.62 425.14,-73.62 421.64,-83.62 428.64,-83.62"/>
</g>
</g>
</svg>
