<?xml version="1.0" encoding="UTF-8" standalone="no"?>
<!DOCTYPE svg PUBLIC "-//W3C//DTD SVG 1.1//EN"
 "http://www.w3.org/Graphics/SVG/1.1/DTD/svg11.dtd">
<!-- Generated by graphviz version 11.0.0 (20240519.1550)
 -->
<!-- Pages: 1 -->
<svg width="954pt" height="880pt"
 viewBox="0.00 0.00 953.56 880.00" xmlns="http://www.w3.org/2000/svg" xmlns:xlink="http://www.w3.org/1999/xlink">
<g id="graph0" class="graph" transform="scale(1 1) rotate(0) translate(4 876)">
<polygon fill="white" stroke="none" points="-4,4 -4,-876 949.56,-876 949.56,4 -4,4"/>
<!-- boost -->
<g id="node1" class="node">
<title>boost</title>
<g id="a_node1"><a xlink:href="https://github.com/conda-forge/boost-feedstock/pull/209" xlink:title="boost ✓">
<ellipse fill="#31688e" stroke="black" cx="449.14" cy="-638" rx="46.47" ry="18"/>
<text text-anchor="middle" x="449.14" y="-633.33" font-family="Times,serif" font-size="14.00" fill="white">boost ✓</text>
</a>
</g>
</g>
<!-- paraview -->
<g id="node2" class="node">
<title>paraview</title>
<g id="a_node2"><a xlink:href="https://github.com/conda-forge/paraview-feedstock" xlink:title="paraview">
<ellipse fill="#fde725" stroke="black" cx="272.14" cy="-566" rx="57" ry="18"/>
<text text-anchor="middle" x="272.14" y="-561.33" font-family="Times,serif" font-size="14.00">paraview</text>
</a>
</g>
</g>
<!-- boost&#45;&gt;paraview -->
<g id="edge1" class="edge">
<title>boost&#45;&gt;paraview</title>
<path fill="none" stroke="black" d="M417.5,-624.49C389.66,-613.47 348.8,-597.32 317.49,-584.93"/>
<polygon fill="black" stroke="black" points="318.84,-581.7 308.25,-581.28 316.26,-588.21 318.84,-581.7"/>
</g>
<!-- clickhouse&#45;odbc -->
<g id="node3" class="node">
<title>clickhouse&#45;odbc</title>
<g id="a_node3"><a xlink:href="https://github.com/conda-forge/clickhouse-odbc-feedstock" xlink:title="clickhouse odbc">
<ellipse fill="#fde725" stroke="black" cx="449.14" cy="-494" rx="90.14" ry="18"/>
<text text-anchor="middle" x="449.14" y="-489.32" font-family="Times,serif" font-size="14.00">clickhouse odbc</text>
</a>
</g>
</g>
<!-- boost&#45;&gt;clickhouse&#45;odbc -->
<g id="edge2" class="edge">
<title>boost&#45;&gt;clickhouse&#45;odbc</title>
<path fill="none" stroke="black" d="M449.14,-619.59C449.14,-595.61 449.14,-552.14 449.14,-523.42"/>
<polygon fill="black" stroke="black" points="452.64,-523.62 449.14,-513.62 445.64,-523.62 452.64,-523.62"/>
</g>
<!-- mongodb -->
<g id="node4" class="node">
<title>mongodb</title>
<g id="a_node4"><a xlink:href="https://github.com/conda-forge/mongodb-feedstock" xlink:title="mongodb">
<ellipse fill="#fde725" stroke="black" cx="567.14" cy="-422" rx="57.52" ry="18"/>
<text text-anchor="middle" x="567.14" y="-417.32" font-family="Times,serif" font-size="14.00">mongodb</text>
</a>
</g>
</g>
<!-- boost&#45;&gt;mongodb -->
<g id="edge3" class="edge">
<title>boost&#45;&gt;mongodb</title>
<path fill="none" stroke="black" d="M466.02,-620.92C488.38,-598.63 527.39,-556.08 548.14,-512 557.1,-492.98 561.88,-469.68 564.4,-451.7"/>
<polygon fill="black" stroke="black" points="567.85,-452.33 565.6,-441.98 560.91,-451.48 567.85,-452.33"/>
</g>
<!-- topologytoolkit -->
<g id="node5" class="node">
<title>topologytoolkit</title>
<g id="a_node5"><a xlink:href="https://github.com/conda-forge/topologytoolkit-feedstock" xlink:title="topologytoolkit">
<ellipse fill="#fde725" stroke="black" cx="254.14" cy="-494" rx="86.46" ry="18"/>
<text text-anchor="middle" x="254.14" y="-489.32" font-family="Times,serif" font-size="14.00">topologytoolkit</text>
</a>
</g>
</g>
<!-- boost&#45;&gt;topologytoolkit -->
<g id="edge4" class="edge">
<title>boost&#45;&gt;topologytoolkit</title>
<path fill="none" stroke="black" d="M430.79,-621.22C409.18,-602.89 371.93,-572.09 338.14,-548 323.31,-537.43 306.42,-526.56 291.69,-517.43"/>
<polygon fill="black" stroke="black" points="293.54,-514.46 283.18,-512.21 289.88,-520.43 293.54,-514.46"/>
</g>
<!-- odil -->
<g id="node6" class="node">
<title>odil</title>
<g id="a_node6"><a xlink:href="https://github.com/conda-forge/odil-feedstock" xlink:title="odil">
<ellipse fill="#fde725" stroke="black" cx="653.14" cy="-350" rx="29.64" ry="18"/>
<text text-anchor="middle" x="653.14" y="-345.32" font-family="Times,serif" font-size="14.00">odil</text>
</a>
</g>
</g>
<!-- boost&#45;&gt;odil -->
<g id="edge5" class="edge">
<title>boost&#45;&gt;odil</title>
<path fill="none" stroke="black" d="M474.61,-622.71C490.68,-612.99 511.31,-599.18 527.14,-584 584.7,-528.82 601.29,-512.65 634.14,-440 642.81,-420.84 647.6,-397.55 650.2,-379.6"/>
<polygon fill="black" stroke="black" points="653.64,-380.28 651.45,-369.91 646.7,-379.38 653.64,-380.28"/>
</g>
<!-- paraview&#45;&gt;topologytoolkit -->
<g id="edge6" class="edge">
<title>paraview&#45;&gt;topologytoolkit</title>
<path fill="none" stroke="black" d="M267.69,-547.7C265.8,-540.32 263.54,-531.52 261.41,-523.25"/>
<polygon fill="black" stroke="black" points="264.8,-522.38 258.92,-513.57 258.02,-524.13 264.8,-522.38"/>
</g>
<!-- kaldi -->
<g id="node7" class="node">
<title>kaldi</title>
<g id="a_node7"><a xlink:href="https://github.com/conda-forge/kaldi-feedstock" xlink:title="kaldi">
<ellipse fill="#ff8c00" stroke="black" cx="80.14" cy="-854" rx="35.42" ry="18"/>
<text text-anchor="middle" x="80.14" y="-849.33" font-family="Times,serif" font-size="14.00">kaldi</text>
</a>
</g>
</g>
<!-- libgd -->
<g id="node8" class="node">
<title>libgd</title>
<g id="a_node8"><a xlink:href="https://github.com/conda-forge/libgd-feedstock/pull/54" xlink:title="libgd ✓">
<ellipse fill="#31688e" stroke="black" cx="80.14" cy="-782" rx="44.37" ry="18"/>
<text text-anchor="middle" x="80.14" y="-777.33" font-family="Times,serif" font-size="14.00" fill="white">libgd ✓</text>
</a>
</g>
</g>
<!-- kaldi&#45;&gt;libgd -->
<!-- nodejs -->
<g id="node9" class="node">
<title>nodejs</title>
<g id="a_node9"><a xlink:href="https://github.com/conda-forge/nodejs-feedstock" xlink:title="nodejs">
<ellipse fill="#fde725" stroke="black" cx="80.14" cy="-710" rx="43.84" ry="18"/>
<text text-anchor="middle" x="80.14" y="-705.33" font-family="Times,serif" font-size="14.00">nodejs</text>
</a>
</g>
</g>
<!-- libgd&#45;&gt;nodejs -->
<!-- r&#45;cairo -->
<g id="node15" class="node">
<title>r&#45;cairo</title>
<g id="a_node15"><a xlink:href="https://github.com/conda-forge/r-cairo-feedstock" xlink:title="r cairo">
<ellipse fill="#ff8c00" stroke="black" cx="80.14" cy="-638" rx="43.84" ry="18"/>
<text text-anchor="middle" x="80.14" y="-633.33" font-family="Times,serif" font-size="14.00">r cairo</text>
</a>
</g>
</g>
<!-- nodejs&#45;&gt;r&#45;cairo -->
<!-- mysql -->
<g id="node10" class="node">
<title>mysql</title>
<g id="a_node10"><a xlink:href="https://github.com/conda-forge/mysql-feedstock/pull/99" xlink:title="mysql ✓">
<ellipse fill="#31688e" stroke="black" cx="807.14" cy="-638" rx="49.1" ry="18"/>
<text text-anchor="middle" x="807.14" y="-633.33" font-family="Times,serif" font-size="14.00" fill="white">mysql ✓</text>
</a>
</g>
</g>
<!-- qt&#45;main -->
<g id="node11" class="node">
<title>qt&#45;main</title>
<g id="a_node11"><a xlink:href="https://github.com/conda-forge/qt-main-feedstock" xlink:title="qt main">
<ellipse fill="#fde725" stroke="black" cx="807.14" cy="-566" rx="49.63" ry="18"/>
<text text-anchor="middle" x="807.14" y="-561.33" font-family="Times,serif" font-size="14.00">qt main</text>
</a>
</g>
</g>
<!-- mysql&#45;&gt;qt&#45;main -->
<g id="edge9" class="edge">
<title>mysql&#45;&gt;qt&#45;main</title>
<path fill="none" stroke="black" d="M807.14,-619.7C807.14,-612.41 807.14,-603.73 807.14,-595.54"/>
<polygon fill="black" stroke="black" points="810.64,-595.62 807.14,-585.62 803.64,-595.62 810.64,-595.62"/>
</g>
<!-- octave -->
<g id="node12" class="node">
<title>octave</title>
<g id="a_node12"><a xlink:href="https://github.com/conda-forge/octave-feedstock" xlink:title="octave">
<ellipse fill="#fde725" stroke="black" cx="735.14" cy="-494" rx="43.84" ry="18"/>
<text text-anchor="middle" x="735.14" y="-489.32" font-family="Times,serif" font-size="14.00">octave</text>
</a>
</g>
</g>
<!-- qt&#45;main&#45;&gt;octave -->
<g id="edge10" class="edge">
<title>qt&#45;main&#45;&gt;octave</title>
<path fill="none" stroke="black" d="M790.44,-548.76C781.36,-539.93 769.94,-528.83 759.84,-519.01"/>
<polygon fill="black" stroke="black" points="762.45,-516.66 752.84,-512.2 757.57,-521.68 762.45,-516.66"/>
</g>
<!-- qgis -->
<g id="node13" class="node">
<title>qgis</title>
<g id="a_node13"><a xlink:href="https://github.com/conda-forge/qgis-feedstock" xlink:title="qgis">
<ellipse fill="#fde725" stroke="black" cx="848.14" cy="-350" rx="32.27" ry="18"/>
<text text-anchor="middle" x="848.14" y="-345.32" font-family="Times,serif" font-size="14.00">qgis</text>
</a>
</g>
</g>
<!-- qt&#45;main&#45;&gt;qgis -->
<g id="edge11" class="edge">
<title>qt&#45;main&#45;&gt;qgis</title>
<path fill="none" stroke="black" d="M807.62,-547.79C808.79,-518.03 812.77,-455.2 826.14,-404 828.39,-395.38 831.75,-386.33 835.18,-378.18"/>
<polygon fill="black" stroke="black" points="838.32,-379.72 839.17,-369.16 831.92,-376.89 838.32,-379.72"/>
</g>
<!-- qtwebkit -->
<g id="node14" class="node">
<title>qtwebkit</title>
<g id="a_node14"><a xlink:href="https://github.com/conda-forge/qtwebkit-feedstock" xlink:title="qtwebkit">
<ellipse fill="#fde725" stroke="black" cx="890.14" cy="-422" rx="55.42" ry="18"/>
<text text-anchor="middle" x="890.14" y="-417.32" font-family="Times,serif" font-size="14.00">qtwebkit</text>
</a>
</g>
</g>
<!-- qt&#45;main&#45;&gt;qtwebkit -->
<g id="edge12" class="edge">
<title>qt&#45;main&#45;&gt;qtwebkit</title>
<path fill="none" stroke="black" d="M816.99,-548.15C831.22,-523.81 857.66,-478.57 874.56,-449.67"/>
<polygon fill="black" stroke="black" points="877.52,-451.53 879.55,-441.13 871.48,-448 877.52,-451.53"/>
</g>
<!-- qtwebkit&#45;&gt;qgis -->
<g id="edge18" class="edge">
<title>qtwebkit&#45;&gt;qgis</title>
<path fill="none" stroke="black" d="M879.98,-404.05C875.11,-395.94 869.17,-386.04 863.75,-377.01"/>
<polygon fill="black" stroke="black" points="866.85,-375.38 858.71,-368.6 860.85,-378.98 866.85,-375.38"/>
</g>
<!-- tectonic -->
<g id="node16" class="node">
<title>tectonic</title>
<g id="a_node16"><a xlink:href="https://github.com/conda-forge/tectonic-feedstock" xlink:title="tectonic">
<ellipse fill="#ff8c00" stroke="black" cx="80.14" cy="-566" rx="51.21" ry="18"/>
<text text-anchor="middle" x="80.14" y="-561.33" font-family="Times,serif" font-size="14.00">tectonic</text>
</a>
</g>
</g>
<!-- r&#45;cairo&#45;&gt;tectonic -->
<!-- texlive&#45;core -->
<g id="node17" class="node">
<title>texlive&#45;core</title>
<g id="a_node17"><a xlink:href="https://github.com/conda-forge/texlive-core-feedstock/pull/95" xlink:title="texlive core ✓">
<ellipse fill="#31688e" stroke="black" cx="80.14" cy="-494" rx="77.52" ry="18"/>
<text text-anchor="middle" x="80.14" y="-489.32" font-family="Times,serif" font-size="14.00" fill="white">texlive core ✓</text>
</a>
</g>
</g>
<!-- tectonic&#45;&gt;texlive&#45;core -->
<!-- uwsgi -->
<g id="node18" class="node">
<title>uwsgi</title>
<g id="a_node18"><a xlink:href="https://github.com/conda-forge/uwsgi-feedstock/pull/83" xlink:title="uwsgi ❎">
<ellipse fill="#31688e" stroke="black" cx="80.14" cy="-422" rx="55.94" ry="18"/>
<text text-anchor="middle" x="80.14" y="-417.32" font-family="Times,serif" font-size="14.00" fill="white">uwsgi ❎</text>
</a>
</g>
</g>
<!-- texlive&#45;core&#45;&gt;uwsgi -->
<!-- tensorflow -->
<g id="node19" class="node">
<title>tensorflow</title>
<g id="a_node19"><a xlink:href="https://github.com/conda-forge/tensorflow-feedstock/pull/397" xlink:title="tensorflow ❎">
<ellipse fill="#31688e" stroke="black" cx="80.14" cy="-350" rx="79.09" ry="18"/>
<text text-anchor="middle" x="80.14" y="-345.32" font-family="Times,serif" font-size="14.00" fill="white">tensorflow ❎</text>
</a>
</g>
</g>
<!-- uwsgi&#45;&gt;tensorflow -->
<!-- ticcutils -->
<g id="node20" class="node">
<title>ticcutils</title>
<g id="a_node20"><a xlink:href="https://github.com/conda-forge/ticcutils-feedstock/pull/34" xlink:title="ticcutils ❎">
<ellipse fill="#31688e" stroke="black" cx="80.14" cy="-278" rx="66.47" ry="18"/>
<text text-anchor="middle" x="80.14" y="-273.32" font-family="Times,serif" font-size="14.00" fill="white">ticcutils ❎</text>
</a>
</g>
</g>
<!-- tensorflow&#45;&gt;ticcutils -->
<!-- scilab -->
<g id="node21" class="node">
<title>scilab</title>
<g id="a_node21"><a xlink:href="https://github.com/conda-forge/scilab-feedstock" xlink:title="scilab">
<ellipse fill="#000000" stroke="black" cx="80.14" cy="-206" rx="40.16" ry="18"/>
<text text-anchor="middle" x="80.14" y="-201.33" font-family="Times,serif" font-size="14.00" fill="white">scilab</text>
</a>
</g>
</g>
<!-- ticcutils&#45;&gt;scilab -->
<!-- libical -->
<g id="node22" class="node">
<title>libical</title>
<g id="a_node22"><a xlink:href="https://github.com/conda-forge/libical-feedstock/pull/27" xlink:title="libical ❎">
<ellipse fill="#31688e" stroke="black" cx="80.14" cy="-134" rx="56.47" ry="18"/>
<text text-anchor="middle" x="80.14" y="-129.32" font-family="Times,serif" font-size="14.00" fill="white">libical ❎</text>
</a>
</g>
</g>
<!-- scilab&#45;&gt;libical -->
<!-- libv8 -->
<g id="node23" class="node">
<title>libv8</title>
<g id="a_node23"><a xlink:href="https://github.com/conda-forge/libv8-feedstock/pull/85" xlink:title="libv8 ❎">
<ellipse fill="#31688e" stroke="black" cx="425.14" cy="-90" rx="51.21" ry="18"/>
<text text-anchor="middle" x="425.14" y="-85.33" font-family="Times,serif" font-size="14.00" fill="white">libv8 ❎</text>
</a>
</g>
</g>
<!-- r&#45;v8 -->
<g id="node24" class="node">
<title>r&#45;v8</title>
<g id="a_node24"><a xlink:href="https://github.com/conda-forge/r-v8-feedstock" xlink:title="r v8">
<ellipse fill="#fde725" stroke="black" cx="425.14" cy="-18" rx="31.22" ry="18"/>
<text text-anchor="middle" x="425.14" y="-13.32" font-family="Times,serif" font-size="14.00">r v8</text>
</a>
</g>
</g>
<!-- libv8&#45;&gt;r&#45;v8 -->
<g id="edge22" class="edge">
<title>libv8&#45;&gt;r&#45;v8</title>
<path fill="none" stroke="black" d="M425.14,-71.7C425.14,-64.41 425.14,-55.73 425.14,-47.54"/>
<polygon fill="black" stroke="black" points="428.64,-47.62 425.14,-37.62 421.64,-47.62 428.64,-47.62"/>
</g>
<!-- libxmlsec1 -->
<g id="node25" class="node">
<title>libxmlsec1</title>
<g id="a_node25"><a xlink:href="https://github.com/conda-forge/libxmlsec1-feedstock/pull/34" xlink:title="libxmlsec1 ❎">
<ellipse fill="#31688e" stroke="black" cx="80.14" cy="-90" rx="80.14" ry="18"/>
<text text-anchor="middle" x="80.14" y="-85.33" font-family="Times,serif" font-size="14.00" fill="white">libxmlsec1 ❎</text>
</a>
</g>
</g>
<!-- couchdb -->
<g id="node26" class="node">
<title>couchdb</title>
<g id="a_node26"><a xlink:href="https://github.com/conda-forge/couchdb-feedstock" xlink:title="couchdb">
<ellipse fill="#ff8c00" stroke="black" cx="80.14" cy="-18" rx="52.79" ry="18"/>
<text text-anchor="middle" x="80.14" y="-13.32" font-family="Times,serif" font-size="14.00">couchdb</text>
</a>
</g>
</g>
<!-- libxmlsec1&#45;&gt;couchdb -->
</g>
</svg>
