<?xml version="1.0" encoding="UTF-8" standalone="no"?>
<!DOCTYPE svg PUBLIC "-//W3C//DTD SVG 1.1//EN"
 "http://www.w3.org/Graphics/SVG/1.1/DTD/svg11.dtd">
<!-- Generated by graphviz version 11.0.0 (20240519.1550)
 -->
<!-- Pages: 1 -->
<svg width="838pt" height="764pt"
 viewBox="0.00 0.00 837.60 764.00" xmlns="http://www.w3.org/2000/svg" xmlns:xlink="http://www.w3.org/1999/xlink">
<g id="graph0" class="graph" transform="scale(1 1) rotate(0) translate(4 760)">
<polygon fill="white" stroke="none" points="-4,4 -4,-760 833.6,-760 833.6,4 -4,4"/>
<!-- boost -->
<g id="node1" class="node">
<title>boost</title>
<g id="a_node1"><a xlink:href="https://github.com/conda-forge/boost-feedstock/pull/209" xlink:title="boost ❎">
<ellipse fill="#31688e" stroke="black" cx="273.46" cy="-414" rx="53.84" ry="18"/>
<text text-anchor="middle" x="273.46" y="-409.32" font-family="Times,serif" font-size="14.00" fill="white">boost ❎</text>
</a>
</g>
</g>
<!-- paraview -->
<g id="node2" class="node">
<title>paraview</title>
<g id="a_node2"><a xlink:href="https://github.com/conda-forge/paraview-feedstock" xlink:title="paraview">
<ellipse fill="#fde725" stroke="black" cx="158.46" cy="-342" rx="57" ry="18"/>
<text text-anchor="middle" x="158.46" y="-337.32" font-family="Times,serif" font-size="14.00">paraview</text>
</a>
</g>
</g>
<!-- boost&#45;&gt;paraview -->
<g id="edge1" class="edge">
<title>boost&#45;&gt;paraview</title>
<path fill="none" stroke="black" d="M248.22,-397.64C232.15,-387.86 211.12,-375.05 193.45,-364.3"/>
<polygon fill="black" stroke="black" points="195.69,-361.56 185.33,-359.35 192.05,-367.54 195.69,-361.56"/>
</g>
<!-- qgis -->
<g id="node3" class="node">
<title>qgis</title>
<g id="a_node3"><a xlink:href="https://github.com/conda-forge/qgis-feedstock" xlink:title="qgis">
<ellipse fill="#fde725" stroke="black" cx="51.46" cy="-342" rx="32.27" ry="18"/>
<text text-anchor="middle" x="51.46" y="-337.32" font-family="Times,serif" font-size="14.00">qgis</text>
</a>
</g>
</g>
<!-- boost&#45;&gt;qgis -->
<g id="edge2" class="edge">
<title>boost&#45;&gt;qgis</title>
<path fill="none" stroke="black" d="M231.72,-402.16C194.77,-392.23 139.55,-376.6 92.46,-360 90.66,-359.37 88.82,-358.7 86.98,-358"/>
<polygon fill="black" stroke="black" points="88.44,-354.82 77.85,-354.42 85.88,-361.33 88.44,-354.82"/>
</g>
<!-- clickhouse&#45;odbc -->
<g id="node4" class="node">
<title>clickhouse&#45;odbc</title>
<g id="a_node4"><a xlink:href="https://github.com/conda-forge/clickhouse-odbc-feedstock" xlink:title="clickhouse odbc">
<ellipse fill="#fde725" stroke="black" cx="281.46" cy="-270" rx="90.14" ry="18"/>
<text text-anchor="middle" x="281.46" y="-265.32" font-family="Times,serif" font-size="14.00">clickhouse odbc</text>
</a>
</g>
</g>
<!-- boost&#45;&gt;clickhouse&#45;odbc -->
<g id="edge3" class="edge">
<title>boost&#45;&gt;clickhouse&#45;odbc</title>
<path fill="none" stroke="black" d="M274.44,-395.59C275.79,-371.61 278.24,-328.14 279.86,-299.42"/>
<polygon fill="black" stroke="black" points="283.34,-299.8 280.41,-289.62 276.35,-299.41 283.34,-299.8"/>
</g>
<!-- mongodb -->
<g id="node5" class="node">
<title>mongodb</title>
<g id="a_node5"><a xlink:href="https://github.com/conda-forge/mongodb-feedstock" xlink:title="mongodb">
<ellipse fill="#fde725" stroke="black" cx="399.46" cy="-198" rx="57.52" ry="18"/>
<text text-anchor="middle" x="399.46" y="-193.32" font-family="Times,serif" font-size="14.00">mongodb</text>
</a>
</g>
</g>
<!-- boost&#45;&gt;mongodb -->
<g id="edge4" class="edge">
<title>boost&#45;&gt;mongodb</title>
<path fill="none" stroke="black" d="M292.16,-396.84C316.44,-374.77 358.3,-332.81 380.46,-288 389.83,-269.04 394.6,-245.56 397.01,-227.49"/>
<polygon fill="black" stroke="black" points="400.47,-228.06 398.14,-217.73 393.51,-227.26 400.47,-228.06"/>
</g>
<!-- topologytoolkit -->
<g id="node6" class="node">
<title>topologytoolkit</title>
<g id="a_node6"><a xlink:href="https://github.com/conda-forge/topologytoolkit-feedstock" xlink:title="topologytoolkit">
<ellipse fill="#fde725" stroke="black" cx="86.46" cy="-270" rx="86.46" ry="18"/>
<text text-anchor="middle" x="86.46" y="-265.32" font-family="Times,serif" font-size="14.00">topologytoolkit</text>
</a>
</g>
</g>
<!-- boost&#45;&gt;topologytoolkit -->
<g id="edge5" class="edge">
<title>boost&#45;&gt;topologytoolkit</title>
<path fill="none" stroke="black" d="M268.11,-395.94C261.08,-376.1 246.92,-343.59 224.46,-324 205,-307.03 179.52,-295.22 155.77,-287.12"/>
<polygon fill="black" stroke="black" points="157.03,-283.85 146.44,-284.12 154.89,-290.52 157.03,-283.85"/>
</g>
<!-- odil -->
<g id="node7" class="node">
<title>odil</title>
<g id="a_node7"><a xlink:href="https://github.com/conda-forge/odil-feedstock" xlink:title="odil">
<ellipse fill="#fde725" stroke="black" cx="485.46" cy="-126" rx="29.64" ry="18"/>
<text text-anchor="middle" x="485.46" y="-121.33" font-family="Times,serif" font-size="14.00">odil</text>
</a>
</g>
</g>
<!-- boost&#45;&gt;odil -->
<g id="edge6" class="edge">
<title>boost&#45;&gt;odil</title>
<path fill="none" stroke="black" d="M302.08,-398.36C319.21,-388.8 340.82,-375.28 357.46,-360 416.58,-305.71 433.06,-288.99 466.46,-216 475.21,-196.88 479.99,-173.59 482.57,-155.63"/>
<polygon fill="black" stroke="black" points="486.02,-156.29 483.81,-145.93 479.07,-155.41 486.02,-156.29"/>
</g>
<!-- paraview&#45;&gt;topologytoolkit -->
<g id="edge7" class="edge">
<title>paraview&#45;&gt;topologytoolkit</title>
<path fill="none" stroke="black" d="M141.39,-324.41C132.65,-315.91 121.81,-305.37 112.08,-295.91"/>
<polygon fill="black" stroke="black" points="114.59,-293.47 104.98,-289.01 109.71,-298.49 114.59,-293.47"/>
</g>
<!-- harfbuzz -->
<g id="node8" class="node">
<title>harfbuzz</title>
<g id="a_node8"><a xlink:href="https://github.com/conda-forge/harfbuzz-feedstock" xlink:title="harfbuzz">
<ellipse fill="#35b779" stroke="black" cx="431.46" cy="-630" rx="54.89" ry="18"/>
<text text-anchor="middle" x="431.46" y="-625.33" font-family="Times,serif" font-size="14.00">harfbuzz</text>
</a>
</g>
</g>
<!-- r&#45;base -->
<g id="node9" class="node">
<title>r&#45;base</title>
<g id="a_node9"><a xlink:href="https://github.com/conda-forge/r-base-feedstock" xlink:title="r base">
<ellipse fill="#fde725" stroke="black" cx="358.46" cy="-558" rx="42.26" ry="18"/>
<text text-anchor="middle" x="358.46" y="-553.33" font-family="Times,serif" font-size="14.00">r base</text>
</a>
</g>
</g>
<!-- harfbuzz&#45;&gt;r&#45;base -->
<g id="edge8" class="edge">
<title>harfbuzz&#45;&gt;r&#45;base</title>
<path fill="none" stroke="black" d="M414.53,-612.76C405.25,-603.87 393.57,-592.67 383.28,-582.8"/>
<polygon fill="black" stroke="black" points="385.78,-580.35 376.14,-575.95 380.93,-585.4 385.78,-580.35"/>
</g>
<!-- r&#45;cairo -->
<g id="node10" class="node">
<title>r&#45;cairo</title>
<g id="a_node10"><a xlink:href="https://github.com/conda-forge/r-cairo-feedstock" xlink:title="r cairo">
<ellipse fill="#fde725" stroke="black" cx="460.46" cy="-486" rx="43.84" ry="18"/>
<text text-anchor="middle" x="460.46" y="-481.32" font-family="Times,serif" font-size="14.00">r cairo</text>
</a>
</g>
</g>
<!-- harfbuzz&#45;&gt;r&#45;cairo -->
<g id="edge9" class="edge">
<title>harfbuzz&#45;&gt;r&#45;cairo</title>
<path fill="none" stroke="black" d="M435.01,-611.59C439.93,-587.5 448.87,-543.75 454.73,-515.03"/>
<polygon fill="black" stroke="black" points="458.09,-516.09 456.66,-505.59 451.23,-514.69 458.09,-516.09"/>
</g>
<!-- tectonic -->
<g id="node11" class="node">
<title>tectonic</title>
<g id="a_node11"><a xlink:href="https://github.com/conda-forge/tectonic-feedstock" xlink:title="tectonic">
<ellipse fill="#fde725" stroke="black" cx="510.46" cy="-558" rx="51.21" ry="18"/>
<text text-anchor="middle" x="510.46" y="-553.33" font-family="Times,serif" font-size="14.00">tectonic</text>
</a>
</g>
</g>
<!-- harfbuzz&#45;&gt;tectonic -->
<g id="edge10" class="edge">
<title>harfbuzz&#45;&gt;tectonic</title>
<path fill="none" stroke="black" d="M449.78,-612.76C459.85,-603.84 472.53,-592.61 483.69,-582.72"/>
<polygon fill="black" stroke="black" points="485.94,-585.4 491.1,-576.15 481.3,-580.16 485.94,-585.4"/>
</g>
<!-- texlive&#45;core -->
<g id="node12" class="node">
<title>texlive&#45;core</title>
<g id="a_node12"><a xlink:href="https://github.com/conda-forge/texlive-core-feedstock" xlink:title="texlive core">
<ellipse fill="#fde725" stroke="black" cx="591.46" cy="-486" rx="69.62" ry="18"/>
<text text-anchor="middle" x="591.46" y="-481.32" font-family="Times,serif" font-size="14.00">texlive core</text>
</a>
</g>
</g>
<!-- harfbuzz&#45;&gt;texlive&#45;core -->
<g id="edge11" class="edge">
<title>harfbuzz&#45;&gt;texlive&#45;core</title>
<path fill="none" stroke="black" d="M481.22,-621.95C511.2,-615.14 547.83,-601.84 570.46,-576 584.94,-559.46 589.9,-534.77 591.4,-515.59"/>
<polygon fill="black" stroke="black" points="594.89,-515.87 591.87,-505.72 587.9,-515.54 594.89,-515.87"/>
</g>
<!-- qt&#45;main -->
<g id="node13" class="node">
<title>qt&#45;main</title>
<g id="a_node13"><a xlink:href="https://github.com/conda-forge/qt-main-feedstock" xlink:title="qt main">
<ellipse fill="#fde725" stroke="black" cx="120.46" cy="-558" rx="49.63" ry="18"/>
<text text-anchor="middle" x="120.46" y="-553.33" font-family="Times,serif" font-size="14.00">qt main</text>
</a>
</g>
</g>
<!-- harfbuzz&#45;&gt;qt&#45;main -->
<g id="edge12" class="edge">
<title>harfbuzz&#45;&gt;qt&#45;main</title>
<path fill="none" stroke="black" d="M385.53,-619.73C336.01,-609.59 254.94,-592.56 185.46,-576 180.6,-574.84 175.56,-573.6 170.52,-572.33"/>
<polygon fill="black" stroke="black" points="171.59,-568.99 161.04,-569.9 169.86,-575.77 171.59,-568.99"/>
</g>
<!-- r&#45;base&#45;&gt;r&#45;cairo -->
<g id="edge13" class="edge">
<title>r&#45;base&#45;&gt;r&#45;cairo</title>
<path fill="none" stroke="black" d="M380.09,-542.15C394.33,-532.38 413.2,-519.43 429.07,-508.54"/>
<polygon fill="black" stroke="black" points="430.99,-511.47 437.26,-502.92 427.03,-505.69 430.99,-511.47"/>
</g>
<!-- r&#45;stringi -->
<g id="node14" class="node">
<title>r&#45;stringi</title>
<g id="a_node14"><a xlink:href="https://github.com/conda-forge/r-stringi-feedstock" xlink:title="r stringi">
<ellipse fill="#fde725" stroke="black" cx="346.46" cy="-486" rx="52.26" ry="18"/>
<text text-anchor="middle" x="346.46" y="-481.32" font-family="Times,serif" font-size="14.00">r stringi</text>
</a>
</g>
</g>
<!-- r&#45;base&#45;&gt;r&#45;stringi -->
<g id="edge14" class="edge">
<title>r&#45;base&#45;&gt;r&#45;stringi</title>
<path fill="none" stroke="black" d="M355.49,-539.7C354.23,-532.32 352.72,-523.52 351.3,-515.25"/>
<polygon fill="black" stroke="black" points="354.78,-514.86 349.65,-505.6 347.89,-516.04 354.78,-514.86"/>
</g>
<!-- r&#45;v8 -->
<g id="node15" class="node">
<title>r&#45;v8</title>
<g id="a_node15"><a xlink:href="https://github.com/conda-forge/r-v8-feedstock" xlink:title="r v8">
<ellipse fill="#fde725" stroke="black" cx="245.46" cy="-486" rx="31.22" ry="18"/>
<text text-anchor="middle" x="245.46" y="-481.32" font-family="Times,serif" font-size="14.00">r v8</text>
</a>
</g>
</g>
<!-- r&#45;base&#45;&gt;r&#45;v8 -->
<g id="edge15" class="edge">
<title>r&#45;base&#45;&gt;r&#45;v8</title>
<path fill="none" stroke="black" d="M335.32,-542.67C318.13,-532.02 294.53,-517.4 275.83,-505.81"/>
<polygon fill="black" stroke="black" points="277.91,-502.99 267.57,-500.7 274.23,-508.94 277.91,-502.99"/>
</g>
<!-- qt&#45;main&#45;&gt;qgis -->
<g id="edge16" class="edge">
<title>qt&#45;main&#45;&gt;qgis</title>
<path fill="none" stroke="black" d="M96.11,-541.96C83.42,-532.7 69.01,-519.62 61.46,-504 40.82,-461.34 43.1,-404.73 47.01,-371.25"/>
<polygon fill="black" stroke="black" points="50.46,-371.91 48.29,-361.53 43.52,-370.99 50.46,-371.91"/>
</g>
<!-- octave -->
<g id="node16" class="node">
<title>octave</title>
<g id="a_node16"><a xlink:href="https://github.com/conda-forge/octave-feedstock" xlink:title="octave">
<ellipse fill="#fde725" stroke="black" cx="114.46" cy="-486" rx="43.84" ry="18"/>
<text text-anchor="middle" x="114.46" y="-481.32" font-family="Times,serif" font-size="14.00">octave</text>
</a>
</g>
</g>
<!-- qt&#45;main&#45;&gt;octave -->
<g id="edge17" class="edge">
<title>qt&#45;main&#45;&gt;octave</title>
<path fill="none" stroke="black" d="M118.97,-539.7C118.35,-532.41 117.61,-523.73 116.9,-515.54"/>
<polygon fill="black" stroke="black" points="120.39,-515.28 116.05,-505.61 113.42,-515.87 120.39,-515.28"/>
</g>
<!-- qtwebkit -->
<g id="node17" class="node">
<title>qtwebkit</title>
<g id="a_node17"><a xlink:href="https://github.com/conda-forge/qtwebkit-feedstock" xlink:title="qtwebkit">
<ellipse fill="#fde725" stroke="black" cx="139.46" cy="-414" rx="55.42" ry="18"/>
<text text-anchor="middle" x="139.46" y="-409.32" font-family="Times,serif" font-size="14.00">qtwebkit</text>
</a>
</g>
</g>
<!-- qt&#45;main&#45;&gt;qtwebkit -->
<g id="edge18" class="edge">
<title>qt&#45;main&#45;&gt;qtwebkit</title>
<path fill="none" stroke="black" d="M140.25,-541.09C150.49,-531.55 161.96,-518.49 167.46,-504 175.29,-483.37 166.85,-459.48 157.24,-441.66"/>
<polygon fill="black" stroke="black" points="160.39,-440.11 152.33,-433.24 154.35,-443.64 160.39,-440.11"/>
</g>
<!-- qtwebkit&#45;&gt;qgis -->
<g id="edge24" class="edge">
<title>qtwebkit&#45;&gt;qgis</title>
<path fill="none" stroke="black" d="M119.49,-397.12C107.29,-387.41 91.54,-374.89 78.27,-364.33"/>
<polygon fill="black" stroke="black" points="80.74,-361.82 70.74,-358.33 76.38,-367.3 80.74,-361.82"/>
</g>
<!-- kaldi -->
<g id="node18" class="node">
<title>kaldi</title>
<g id="a_node18"><a xlink:href="https://github.com/conda-forge/kaldi-feedstock" xlink:title="kaldi">
<ellipse fill="#ff8c00" stroke="black" cx="749.46" cy="-738" rx="35.42" ry="18"/>
<text text-anchor="middle" x="749.46" y="-733.33" font-family="Times,serif" font-size="14.00">kaldi</text>
</a>
</g>
</g>
<!-- libgd -->
<g id="node19" class="node">
<title>libgd</title>
<g id="a_node19"><a xlink:href="https://github.com/conda-forge/libgd-feedstock/pull/54" xlink:title="libgd ✓">
<ellipse fill="#31688e" stroke="black" cx="749.46" cy="-666" rx="44.37" ry="18"/>
<text text-anchor="middle" x="749.46" y="-661.33" font-family="Times,serif" font-size="14.00" fill="white">libgd ✓</text>
</a>
</g>
</g>
<!-- kaldi&#45;&gt;libgd -->
<!-- nodejs -->
<g id="node20" class="node">
<title>nodejs</title>
<g id="a_node20"><a xlink:href="https://github.com/conda-forge/nodejs-feedstock" xlink:title="nodejs">
<ellipse fill="#fde725" stroke="black" cx="749.46" cy="-594" rx="43.84" ry="18"/>
<text text-anchor="middle" x="749.46" y="-589.33" font-family="Times,serif" font-size="14.00">nodejs</text>
</a>
</g>
</g>
<!-- libgd&#45;&gt;nodejs -->
<!-- uwsgi -->
<g id="node22" class="node">
<title>uwsgi</title>
<g id="a_node22"><a xlink:href="https://github.com/conda-forge/uwsgi-feedstock/pull/83" xlink:title="uwsgi ❎">
<ellipse fill="#31688e" stroke="black" cx="749.46" cy="-522" rx="55.94" ry="18"/>
<text text-anchor="middle" x="749.46" y="-517.33" font-family="Times,serif" font-size="14.00" fill="white">uwsgi ❎</text>
</a>
</g>
</g>
<!-- nodejs&#45;&gt;uwsgi -->
<!-- mysql -->
<g id="node21" class="node">
<title>mysql</title>
<g id="a_node21"><a xlink:href="https://github.com/conda-forge/mysql-feedstock/pull/99" xlink:title="mysql ❎">
<ellipse fill="#31688e" stroke="black" cx="120.46" cy="-630" rx="56.47" ry="18"/>
<text text-anchor="middle" x="120.46" y="-625.33" font-family="Times,serif" font-size="14.00" fill="white">mysql ❎</text>
</a>
</g>
</g>
<!-- mysql&#45;&gt;qt&#45;main -->
<g id="edge21" class="edge">
<title>mysql&#45;&gt;qt&#45;main</title>
<path fill="none" stroke="black" d="M120.46,-611.7C120.46,-604.41 120.46,-595.73 120.46,-587.54"/>
<polygon fill="black" stroke="black" points="123.96,-587.62 120.46,-577.62 116.96,-587.62 123.96,-587.62"/>
</g>
<!-- pyicu -->
<g id="node23" class="node">
<title>pyicu</title>
<g id="a_node23"><a xlink:href="https://github.com/conda-forge/pyicu-feedstock/pull/61" xlink:title="pyicu ✓">
<ellipse fill="#31688e" stroke="black" cx="749.46" cy="-450" rx="45.95" ry="18"/>
<text text-anchor="middle" x="749.46" y="-445.32" font-family="Times,serif" font-size="14.00" fill="white">pyicu ✓</text>
</a>
</g>
</g>
<!-- uwsgi&#45;&gt;pyicu -->
<!-- tensorflow -->
<g id="node24" class="node">
<title>tensorflow</title>
<g id="a_node24"><a xlink:href="https://github.com/conda-forge/tensorflow-feedstock/pull/397" xlink:title="tensorflow ❎">
<ellipse fill="#31688e" stroke="black" cx="749.46" cy="-378" rx="79.09" ry="18"/>
<text text-anchor="middle" x="749.46" y="-373.32" font-family="Times,serif" font-size="14.00" fill="white">tensorflow ❎</text>
</a>
</g>
</g>
<!-- pyicu&#45;&gt;tensorflow -->
<!-- ticcutils -->
<g id="node25" class="node">
<title>ticcutils</title>
<g id="a_node25"><a xlink:href="https://github.com/conda-forge/ticcutils-feedstock/pull/34" xlink:title="ticcutils ❎">
<ellipse fill="#31688e" stroke="black" cx="749.46" cy="-306" rx="66.47" ry="18"/>
<text text-anchor="middle" x="749.46" y="-301.32" font-family="Times,serif" font-size="14.00" fill="white">ticcutils ❎</text>
</a>
</g>
</g>
<!-- tensorflow&#45;&gt;ticcutils -->
<!-- scilab -->
<g id="node26" class="node">
<title>scilab</title>
<g id="a_node26"><a xlink:href="https://github.com/conda-forge/scilab-feedstock" xlink:title="scilab">
<ellipse fill="#000000" stroke="black" cx="749.46" cy="-234" rx="40.16" ry="18"/>
<text text-anchor="middle" x="749.46" y="-229.32" font-family="Times,serif" font-size="14.00" fill="white">scilab</text>
</a>
</g>
</g>
<!-- ticcutils&#45;&gt;scilab -->
<!-- libical -->
<g id="node27" class="node">
<title>libical</title>
<g id="a_node27"><a xlink:href="https://github.com/conda-forge/libical-feedstock/pull/27" xlink:title="libical ❎">
<ellipse fill="#31688e" stroke="black" cx="749.46" cy="-162" rx="56.47" ry="18"/>
<text text-anchor="middle" x="749.46" y="-157.32" font-family="Times,serif" font-size="14.00" fill="white">libical ❎</text>
</a>
</g>
</g>
<!-- scilab&#45;&gt;libical -->
<!-- libxmlsec1 -->
<g id="node28" class="node">
<title>libxmlsec1</title>
<g id="a_node28"><a xlink:href="https://github.com/conda-forge/libxmlsec1-feedstock/pull/34" xlink:title="libxmlsec1 ❎">
<ellipse fill="#31688e" stroke="black" cx="749.46" cy="-90" rx="80.14" ry="18"/>
<text text-anchor="middle" x="749.46" y="-85.33" font-family="Times,serif" font-size="14.00" fill="white">libxmlsec1 ❎</text>
</a>
</g>
</g>
<!-- libical&#45;&gt;libxmlsec1 -->
<!-- couchdb -->
<g id="node30" class="node">
<title>couchdb</title>
<g id="a_node30"><a xlink:href="https://github.com/conda-forge/couchdb-feedstock" xlink:title="couchdb">
<ellipse fill="#ff8c00" stroke="black" cx="749.46" cy="-18" rx="52.79" ry="18"/>
<text text-anchor="middle" x="749.46" y="-13.32" font-family="Times,serif" font-size="14.00">couchdb</text>
</a>
</g>
</g>
<!-- libxmlsec1&#45;&gt;couchdb -->
<!-- libv8 -->
<g id="node29" class="node">
<title>libv8</title>
<g id="a_node29"><a xlink:href="https://github.com/conda-forge/libv8-feedstock/pull/85" xlink:title="libv8 ❎">
<ellipse fill="#31688e" stroke="black" cx="245.46" cy="-558" rx="51.21" ry="18"/>
<text text-anchor="middle" x="245.46" y="-553.33" font-family="Times,serif" font-size="14.00" fill="white">libv8 ❎</text>
</a>
</g>
</g>
<!-- libv8&#45;&gt;r&#45;v8 -->
<g id="edge30" class="edge">
<title>libv8&#45;&gt;r&#45;v8</title>
<path fill="none" stroke="black" d="M245.46,-539.7C245.46,-532.41 245.46,-523.73 245.46,-515.54"/>
<polygon fill="black" stroke="black" points="248.96,-515.62 245.46,-505.62 241.96,-515.62 248.96,-515.62"/>
</g>
</g>
</svg>
