<?xml version="1.0" encoding="UTF-8" standalone="no"?>
<!DOCTYPE svg PUBLIC "-//W3C//DTD SVG 1.1//EN"
 "http://www.w3.org/Graphics/SVG/1.1/DTD/svg11.dtd">
<!-- Generated by graphviz version 11.0.0 (20240519.1550)
 -->
<!-- Pages: 1 -->
<svg width="1081pt" height="952pt"
 viewBox="0.00 0.00 1080.63 952.00" xmlns="http://www.w3.org/2000/svg" xmlns:xlink="http://www.w3.org/1999/xlink">
<g id="graph0" class="graph" transform="scale(1 1) rotate(0) translate(4 948)">
<polygon fill="white" stroke="none" points="-4,4 -4,-948 1076.63,-948 1076.63,4 -4,4"/>
<!-- boost -->
<g id="node1" class="node">
<title>boost</title>
<g id="a_node1"><a xlink:href="https://github.com/conda-forge/boost-feedstock/pull/209" xlink:title="boost ❎">
<ellipse fill="#31688e" stroke="black" cx="576.21" cy="-710" rx="53.84" ry="18"/>
<text text-anchor="middle" x="576.21" y="-705.33" font-family="Times,serif" font-size="14.00" fill="white">boost ❎</text>
</a>
</g>
</g>
<!-- paraview -->
<g id="node2" class="node">
<title>paraview</title>
<g id="a_node2"><a xlink:href="https://github.com/conda-forge/paraview-feedstock" xlink:title="paraview">
<ellipse fill="#fde725" stroke="black" cx="399.21" cy="-638" rx="57" ry="18"/>
<text text-anchor="middle" x="399.21" y="-633.33" font-family="Times,serif" font-size="14.00">paraview</text>
</a>
</g>
</g>
<!-- boost&#45;&gt;paraview -->
<g id="edge1" class="edge">
<title>boost&#45;&gt;paraview</title>
<path fill="none" stroke="black" d="M542.5,-695.67C514.59,-684.63 474.71,-668.86 444.1,-656.75"/>
<polygon fill="black" stroke="black" points="445.69,-653.62 435.1,-653.2 443.12,-660.13 445.69,-653.62"/>
</g>
<!-- clickhouse&#45;odbc -->
<g id="node3" class="node">
<title>clickhouse&#45;odbc</title>
<g id="a_node3"><a xlink:href="https://github.com/conda-forge/clickhouse-odbc-feedstock" xlink:title="clickhouse odbc">
<ellipse fill="#fde725" stroke="black" cx="576.21" cy="-566" rx="90.14" ry="18"/>
<text text-anchor="middle" x="576.21" y="-561.33" font-family="Times,serif" font-size="14.00">clickhouse odbc</text>
</a>
</g>
</g>
<!-- boost&#45;&gt;clickhouse&#45;odbc -->
<g id="edge2" class="edge">
<title>boost&#45;&gt;clickhouse&#45;odbc</title>
<path fill="none" stroke="black" d="M576.21,-691.59C576.21,-667.61 576.21,-624.14 576.21,-595.42"/>
<polygon fill="black" stroke="black" points="579.71,-595.62 576.21,-585.62 572.71,-595.62 579.71,-595.62"/>
</g>
<!-- mongodb -->
<g id="node4" class="node">
<title>mongodb</title>
<g id="a_node4"><a xlink:href="https://github.com/conda-forge/mongodb-feedstock" xlink:title="mongodb">
<ellipse fill="#fde725" stroke="black" cx="694.21" cy="-494" rx="57.52" ry="18"/>
<text text-anchor="middle" x="694.21" y="-489.32" font-family="Times,serif" font-size="14.00">mongodb</text>
</a>
</g>
</g>
<!-- boost&#45;&gt;mongodb -->
<g id="edge3" class="edge">
<title>boost&#45;&gt;mongodb</title>
<path fill="none" stroke="black" d="M593.47,-692.54C615.88,-670.15 654.57,-627.83 675.21,-584 684.17,-564.98 688.94,-541.68 691.47,-523.7"/>
<polygon fill="black" stroke="black" points="694.92,-524.33 692.67,-513.98 687.97,-523.48 694.92,-524.33"/>
</g>
<!-- topologytoolkit -->
<g id="node5" class="node">
<title>topologytoolkit</title>
<g id="a_node5"><a xlink:href="https://github.com/conda-forge/topologytoolkit-feedstock" xlink:title="topologytoolkit">
<ellipse fill="#fde725" stroke="black" cx="381.21" cy="-566" rx="86.46" ry="18"/>
<text text-anchor="middle" x="381.21" y="-561.33" font-family="Times,serif" font-size="14.00">topologytoolkit</text>
</a>
</g>
</g>
<!-- boost&#45;&gt;topologytoolkit -->
<g id="edge4" class="edge">
<title>boost&#45;&gt;topologytoolkit</title>
<path fill="none" stroke="black" d="M557.47,-692.89C535.8,-674.52 498.8,-643.95 465.21,-620 450.38,-609.43 433.49,-598.56 418.76,-589.43"/>
<polygon fill="black" stroke="black" points="420.6,-586.46 410.25,-584.21 416.94,-592.43 420.6,-586.46"/>
</g>
<!-- odil -->
<g id="node6" class="node">
<title>odil</title>
<g id="a_node6"><a xlink:href="https://github.com/conda-forge/odil-feedstock" xlink:title="odil">
<ellipse fill="#fde725" stroke="black" cx="780.21" cy="-422" rx="29.64" ry="18"/>
<text text-anchor="middle" x="780.21" y="-417.32" font-family="Times,serif" font-size="14.00">odil</text>
</a>
</g>
</g>
<!-- boost&#45;&gt;odil -->
<g id="edge5" class="edge">
<title>boost&#45;&gt;odil</title>
<path fill="none" stroke="black" d="M602.76,-694.05C618.66,-684.37 638.73,-670.84 654.21,-656 711.77,-600.82 728.35,-584.65 761.21,-512 769.87,-492.84 774.66,-469.55 777.27,-451.6"/>
<polygon fill="black" stroke="black" points="780.71,-452.28 778.51,-441.91 773.76,-451.38 780.71,-452.28"/>
</g>
<!-- paraview&#45;&gt;topologytoolkit -->
<g id="edge6" class="edge">
<title>paraview&#45;&gt;topologytoolkit</title>
<path fill="none" stroke="black" d="M394.76,-619.7C392.86,-612.32 390.6,-603.52 388.47,-595.25"/>
<polygon fill="black" stroke="black" points="391.86,-594.38 385.98,-585.57 385.08,-596.13 391.86,-594.38"/>
</g>
<!-- kaldi -->
<g id="node7" class="node">
<title>kaldi</title>
<g id="a_node7"><a xlink:href="https://github.com/conda-forge/kaldi-feedstock" xlink:title="kaldi">
<ellipse fill="#ff8c00" stroke="black" cx="143.21" cy="-926" rx="35.42" ry="18"/>
<text text-anchor="middle" x="143.21" y="-921.33" font-family="Times,serif" font-size="14.00">kaldi</text>
</a>
</g>
</g>
<!-- libgd -->
<g id="node8" class="node">
<title>libgd</title>
<g id="a_node8"><a xlink:href="https://github.com/conda-forge/libgd-feedstock/pull/54" xlink:title="libgd ✓">
<ellipse fill="#31688e" stroke="black" cx="143.21" cy="-854" rx="44.37" ry="18"/>
<text text-anchor="middle" x="143.21" y="-849.33" font-family="Times,serif" font-size="14.00" fill="white">libgd ✓</text>
</a>
</g>
</g>
<!-- kaldi&#45;&gt;libgd -->
<!-- nodejs -->
<g id="node9" class="node">
<title>nodejs</title>
<g id="a_node9"><a xlink:href="https://github.com/conda-forge/nodejs-feedstock" xlink:title="nodejs">
<ellipse fill="#35b779" stroke="black" cx="143.21" cy="-782" rx="43.84" ry="18"/>
<text text-anchor="middle" x="143.21" y="-777.33" font-family="Times,serif" font-size="14.00">nodejs</text>
</a>
</g>
</g>
<!-- libgd&#45;&gt;nodejs -->
<!-- tectonic -->
<g id="node15" class="node">
<title>tectonic</title>
<g id="a_node15"><a xlink:href="https://github.com/conda-forge/tectonic-feedstock" xlink:title="tectonic">
<ellipse fill="#ff8c00" stroke="black" cx="143.21" cy="-710" rx="51.21" ry="18"/>
<text text-anchor="middle" x="143.21" y="-705.33" font-family="Times,serif" font-size="14.00">tectonic</text>
</a>
</g>
</g>
<!-- nodejs&#45;&gt;tectonic -->
<!-- mysql -->
<g id="node10" class="node">
<title>mysql</title>
<g id="a_node10"><a xlink:href="https://github.com/conda-forge/mysql-feedstock/pull/99" xlink:title="mysql ❎">
<ellipse fill="#31688e" stroke="black" cx="934.21" cy="-710" rx="56.47" ry="18"/>
<text text-anchor="middle" x="934.21" y="-705.33" font-family="Times,serif" font-size="14.00" fill="white">mysql ❎</text>
</a>
</g>
</g>
<!-- qt&#45;main -->
<g id="node11" class="node">
<title>qt&#45;main</title>
<g id="a_node11"><a xlink:href="https://github.com/conda-forge/qt-main-feedstock" xlink:title="qt main">
<ellipse fill="#fde725" stroke="black" cx="934.21" cy="-638" rx="49.63" ry="18"/>
<text text-anchor="middle" x="934.21" y="-633.33" font-family="Times,serif" font-size="14.00">qt main</text>
</a>
</g>
</g>
<!-- mysql&#45;&gt;qt&#45;main -->
<g id="edge9" class="edge">
<title>mysql&#45;&gt;qt&#45;main</title>
<path fill="none" stroke="black" d="M934.21,-691.7C934.21,-684.41 934.21,-675.73 934.21,-667.54"/>
<polygon fill="black" stroke="black" points="937.71,-667.62 934.21,-657.62 930.71,-667.62 937.71,-667.62"/>
</g>
<!-- octave -->
<g id="node12" class="node">
<title>octave</title>
<g id="a_node12"><a xlink:href="https://github.com/conda-forge/octave-feedstock" xlink:title="octave">
<ellipse fill="#fde725" stroke="black" cx="862.21" cy="-566" rx="43.84" ry="18"/>
<text text-anchor="middle" x="862.21" y="-561.33" font-family="Times,serif" font-size="14.00">octave</text>
</a>
</g>
</g>
<!-- qt&#45;main&#45;&gt;octave -->
<g id="edge10" class="edge">
<title>qt&#45;main&#45;&gt;octave</title>
<path fill="none" stroke="black" d="M917.51,-620.76C908.42,-611.93 897,-600.83 886.91,-591.01"/>
<polygon fill="black" stroke="black" points="889.51,-588.66 879.9,-584.2 884.63,-593.68 889.51,-588.66"/>
</g>
<!-- qgis -->
<g id="node13" class="node">
<title>qgis</title>
<g id="a_node13"><a xlink:href="https://github.com/conda-forge/qgis-feedstock" xlink:title="qgis">
<ellipse fill="#fde725" stroke="black" cx="975.21" cy="-422" rx="32.27" ry="18"/>
<text text-anchor="middle" x="975.21" y="-417.32" font-family="Times,serif" font-size="14.00">qgis</text>
</a>
</g>
</g>
<!-- qt&#45;main&#45;&gt;qgis -->
<g id="edge11" class="edge">
<title>qt&#45;main&#45;&gt;qgis</title>
<path fill="none" stroke="black" d="M934.69,-619.79C935.86,-590.03 939.84,-527.2 953.21,-476 955.46,-467.38 958.82,-458.33 962.24,-450.18"/>
<polygon fill="black" stroke="black" points="965.39,-451.72 966.23,-441.16 958.99,-448.89 965.39,-451.72"/>
</g>
<!-- qtwebkit -->
<g id="node14" class="node">
<title>qtwebkit</title>
<g id="a_node14"><a xlink:href="https://github.com/conda-forge/qtwebkit-feedstock" xlink:title="qtwebkit">
<ellipse fill="#fde725" stroke="black" cx="1017.21" cy="-494" rx="55.42" ry="18"/>
<text text-anchor="middle" x="1017.21" y="-489.32" font-family="Times,serif" font-size="14.00">qtwebkit</text>
</a>
</g>
</g>
<!-- qt&#45;main&#45;&gt;qtwebkit -->
<g id="edge12" class="edge">
<title>qt&#45;main&#45;&gt;qtwebkit</title>
<path fill="none" stroke="black" d="M944.06,-620.15C958.28,-595.81 984.73,-550.57 1001.62,-521.67"/>
<polygon fill="black" stroke="black" points="1004.59,-523.53 1006.61,-513.13 998.54,-520 1004.59,-523.53"/>
</g>
<!-- qtwebkit&#45;&gt;qgis -->
<g id="edge20" class="edge">
<title>qtwebkit&#45;&gt;qgis</title>
<path fill="none" stroke="black" d="M1007.04,-476.05C1002.17,-467.94 996.23,-458.04 990.81,-449.01"/>
<polygon fill="black" stroke="black" points="993.92,-447.38 985.77,-440.6 987.91,-450.98 993.92,-447.38"/>
</g>
<!-- texlive&#45;core -->
<g id="node20" class="node">
<title>texlive&#45;core</title>
<g id="a_node20"><a xlink:href="https://github.com/conda-forge/texlive-core-feedstock/pull/95" xlink:title="texlive core ❎">
<ellipse fill="#31688e" stroke="black" cx="143.21" cy="-638" rx="84.88" ry="18"/>
<text text-anchor="middle" x="143.21" y="-633.33" font-family="Times,serif" font-size="14.00" fill="white">texlive core ❎</text>
</a>
</g>
</g>
<!-- tectonic&#45;&gt;texlive&#45;core -->
<!-- r&#45;base -->
<g id="node16" class="node">
<title>r&#45;base</title>
<g id="a_node16"><a xlink:href="https://github.com/conda-forge/r-base-feedstock/pull/334" xlink:title="r base ✓">
<ellipse fill="#31688e" stroke="black" cx="170.21" cy="-162" rx="50.16" ry="18"/>
<text text-anchor="middle" x="170.21" y="-157.32" font-family="Times,serif" font-size="14.00" fill="white">r base ✓</text>
</a>
</g>
</g>
<!-- r&#45;cairo -->
<g id="node17" class="node">
<title>r&#45;cairo</title>
<g id="a_node17"><a xlink:href="https://github.com/conda-forge/r-cairo-feedstock" xlink:title="r cairo">
<ellipse fill="#fde725" stroke="black" cx="163.21" cy="-90" rx="43.84" ry="18"/>
<text text-anchor="middle" x="163.21" y="-85.33" font-family="Times,serif" font-size="14.00">r cairo</text>
</a>
</g>
</g>
<!-- r&#45;base&#45;&gt;r&#45;cairo -->
<g id="edge14" class="edge">
<title>r&#45;base&#45;&gt;r&#45;cairo</title>
<path fill="none" stroke="black" d="M168.48,-143.7C167.75,-136.41 166.88,-127.73 166.06,-119.54"/>
<polygon fill="black" stroke="black" points="169.55,-119.21 165.07,-109.61 162.58,-119.91 169.55,-119.21"/>
</g>
<!-- r&#45;stringi -->
<g id="node18" class="node">
<title>r&#45;stringi</title>
<g id="a_node18"><a xlink:href="https://github.com/conda-forge/r-stringi-feedstock" xlink:title="r stringi">
<ellipse fill="#fde725" stroke="black" cx="235.21" cy="-18" rx="52.26" ry="18"/>
<text text-anchor="middle" x="235.21" y="-13.32" font-family="Times,serif" font-size="14.00">r stringi</text>
</a>
</g>
</g>
<!-- r&#45;base&#45;&gt;r&#45;stringi -->
<g id="edge15" class="edge">
<title>r&#45;base&#45;&gt;r&#45;stringi</title>
<path fill="none" stroke="black" d="M187.99,-144.97C197.75,-135.21 209.25,-121.96 216.21,-108 225.65,-89.07 230.41,-65.6 232.81,-47.51"/>
<polygon fill="black" stroke="black" points="236.26,-48.07 233.92,-37.74 229.31,-47.28 236.26,-48.07"/>
</g>
<!-- r&#45;v8 -->
<g id="node19" class="node">
<title>r&#45;v8</title>
<g id="a_node19"><a xlink:href="https://github.com/conda-forge/r-v8-feedstock" xlink:title="r v8">
<ellipse fill="#fde725" stroke="black" cx="64.21" cy="-90" rx="31.22" ry="18"/>
<text text-anchor="middle" x="64.21" y="-85.33" font-family="Times,serif" font-size="14.00">r v8</text>
</a>
</g>
</g>
<!-- r&#45;base&#45;&gt;r&#45;v8 -->
<g id="edge16" class="edge">
<title>r&#45;base&#45;&gt;r&#45;v8</title>
<path fill="none" stroke="black" d="M146.95,-145.64C131.25,-135.28 110.42,-121.52 93.59,-110.4"/>
<polygon fill="black" stroke="black" points="95.74,-107.63 85.47,-105.04 91.89,-113.47 95.74,-107.63"/>
</g>
<!-- uwsgi -->
<g id="node21" class="node">
<title>uwsgi</title>
<g id="a_node21"><a xlink:href="https://github.com/conda-forge/uwsgi-feedstock/pull/83" xlink:title="uwsgi ❎">
<ellipse fill="#31688e" stroke="black" cx="143.21" cy="-566" rx="55.94" ry="18"/>
<text text-anchor="middle" x="143.21" y="-561.33" font-family="Times,serif" font-size="14.00" fill="white">uwsgi ❎</text>
</a>
</g>
</g>
<!-- texlive&#45;core&#45;&gt;uwsgi -->
<!-- tensorflow -->
<g id="node22" class="node">
<title>tensorflow</title>
<g id="a_node22"><a xlink:href="https://github.com/conda-forge/tensorflow-feedstock/pull/397" xlink:title="tensorflow ❎">
<ellipse fill="#31688e" stroke="black" cx="143.21" cy="-494" rx="79.09" ry="18"/>
<text text-anchor="middle" x="143.21" y="-489.32" font-family="Times,serif" font-size="14.00" fill="white">tensorflow ❎</text>
</a>
</g>
</g>
<!-- uwsgi&#45;&gt;tensorflow -->
<!-- ticcutils -->
<g id="node23" class="node">
<title>ticcutils</title>
<g id="a_node23"><a xlink:href="https://github.com/conda-forge/ticcutils-feedstock/pull/34" xlink:title="ticcutils ❎">
<ellipse fill="#31688e" stroke="black" cx="143.21" cy="-422" rx="66.47" ry="18"/>
<text text-anchor="middle" x="143.21" y="-417.32" font-family="Times,serif" font-size="14.00" fill="white">ticcutils ❎</text>
</a>
</g>
</g>
<!-- tensorflow&#45;&gt;ticcutils -->
<!-- scilab -->
<g id="node24" class="node">
<title>scilab</title>
<g id="a_node24"><a xlink:href="https://github.com/conda-forge/scilab-feedstock" xlink:title="scilab">
<ellipse fill="#000000" stroke="black" cx="143.21" cy="-350" rx="40.16" ry="18"/>
<text text-anchor="middle" x="143.21" y="-345.32" font-family="Times,serif" font-size="14.00" fill="white">scilab</text>
</a>
</g>
</g>
<!-- ticcutils&#45;&gt;scilab -->
<!-- libical -->
<g id="node25" class="node">
<title>libical</title>
<g id="a_node25"><a xlink:href="https://github.com/conda-forge/libical-feedstock/pull/27" xlink:title="libical ❎">
<ellipse fill="#31688e" stroke="black" cx="143.21" cy="-278" rx="56.47" ry="18"/>
<text text-anchor="middle" x="143.21" y="-273.32" font-family="Times,serif" font-size="14.00" fill="white">libical ❎</text>
</a>
</g>
</g>
<!-- scilab&#45;&gt;libical -->
<!-- libxmlsec1 -->
<g id="node26" class="node">
<title>libxmlsec1</title>
<g id="a_node26"><a xlink:href="https://github.com/conda-forge/libxmlsec1-feedstock/pull/34" xlink:title="libxmlsec1 ❎">
<ellipse fill="#31688e" stroke="black" cx="143.21" cy="-206" rx="80.14" ry="18"/>
<text text-anchor="middle" x="143.21" y="-201.32" font-family="Times,serif" font-size="14.00" fill="white">libxmlsec1 ❎</text>
</a>
</g>
</g>
<!-- libical&#45;&gt;libxmlsec1 -->
<!-- libv8 -->
<g id="node27" class="node">
<title>libv8</title>
<g id="a_node27"><a xlink:href="https://github.com/conda-forge/libv8-feedstock/pull/85" xlink:title="libv8 ❎">
<ellipse fill="#31688e" stroke="black" cx="51.21" cy="-162" rx="51.21" ry="18"/>
<text text-anchor="middle" x="51.21" y="-157.32" font-family="Times,serif" font-size="14.00" fill="white">libv8 ❎</text>
</a>
</g>
</g>
<!-- libv8&#45;&gt;r&#45;v8 -->
<g id="edge25" class="edge">
<title>libv8&#45;&gt;r&#45;v8</title>
<path fill="none" stroke="black" d="M54.42,-143.7C55.79,-136.32 57.42,-127.52 58.96,-119.25"/>
<polygon fill="black" stroke="black" points="62.37,-120.06 60.76,-109.59 55.49,-118.79 62.37,-120.06"/>
</g>
<!-- couchdb -->
<g id="node28" class="node">
<title>couchdb</title>
<g id="a_node28"><a xlink:href="https://github.com/conda-forge/couchdb-feedstock" xlink:title="couchdb">
<ellipse fill="#ff8c00" stroke="black" cx="553.21" cy="-90" rx="52.79" ry="18"/>
<text text-anchor="middle" x="553.21" y="-85.33" font-family="Times,serif" font-size="14.00">couchdb</text>
</a>
</g>
</g>
</g>
</svg>
