<?xml version="1.0" encoding="UTF-8" standalone="no"?>
<!DOCTYPE svg PUBLIC "-//W3C//DTD SVG 1.1//EN"
 "http://www.w3.org/Graphics/SVG/1.1/DTD/svg11.dtd">
<!-- Generated by graphviz version 11.0.0 (20240519.1550)
 -->
<!-- Pages: 1 -->
<svg width="2065pt" height="476pt"
 viewBox="0.00 0.00 2064.67 476.00" xmlns="http://www.w3.org/2000/svg" xmlns:xlink="http://www.w3.org/1999/xlink">
<g id="graph0" class="graph" transform="scale(1 1) rotate(0) translate(4 472)">
<polygon fill="white" stroke="none" points="-4,4 -4,-472 2060.67,-472 2060.67,4 -4,4"/>
<!-- boost -->
<g id="node1" class="node">
<title>boost</title>
<g id="a_node1"><a xlink:href="https://github.com/conda-forge/boost-feedstock/pull/209" xlink:title="boost ❎">
<ellipse fill="#31688e" stroke="black" cx="1455.95" cy="-378" rx="53.84" ry="18"/>
<text text-anchor="middle" x="1455.95" y="-373.32" font-family="Times,serif" font-size="14.00" fill="white">boost ❎</text>
</a>
</g>
</g>
<!-- paraview -->
<g id="node2" class="node">
<title>paraview</title>
<g id="a_node2"><a xlink:href="https://github.com/conda-forge/paraview-feedstock" xlink:title="paraview">
<ellipse fill="#fde725" stroke="black" cx="1313.95" cy="-306" rx="57" ry="18"/>
<text text-anchor="middle" x="1313.95" y="-301.32" font-family="Times,serif" font-size="14.00">paraview</text>
</a>
</g>
</g>
<!-- boost&#45;&gt;paraview -->
<g id="edge1" class="edge">
<title>boost&#45;&gt;paraview</title>
<path fill="none" stroke="black" d="M1426.53,-362.5C1405.54,-352.15 1377.05,-338.11 1353.99,-326.74"/>
<polygon fill="black" stroke="black" points="1355.7,-323.68 1345.18,-322.4 1352.6,-329.96 1355.7,-323.68"/>
</g>
<!-- qgis -->
<g id="node3" class="node">
<title>qgis</title>
<g id="a_node3"><a xlink:href="https://github.com/conda-forge/qgis-feedstock" xlink:title="qgis">
<ellipse fill="#fde725" stroke="black" cx="787.95" cy="-162" rx="32.27" ry="18"/>
<text text-anchor="middle" x="787.95" y="-157.32" font-family="Times,serif" font-size="14.00">qgis</text>
</a>
</g>
</g>
<!-- boost&#45;&gt;qgis -->
<g id="edge2" class="edge">
<title>boost&#45;&gt;qgis</title>
<path fill="none" stroke="black" d="M1456.71,-359.54C1457.12,-325.79 1452.66,-251.78 1408.95,-216 1408.95,-216 972.1,-178.72 831.2,-166.69"/>
<polygon fill="black" stroke="black" points="831.8,-163.23 821.54,-165.87 831.21,-170.2 831.8,-163.23"/>
</g>
<!-- clickhouse&#45;odbc -->
<g id="node4" class="node">
<title>clickhouse&#45;odbc</title>
<g id="a_node4"><a xlink:href="https://github.com/conda-forge/clickhouse-odbc-feedstock" xlink:title="clickhouse odbc">
<ellipse fill="#fde725" stroke="black" cx="1592.95" cy="-306" rx="90.14" ry="18"/>
<text text-anchor="middle" x="1592.95" y="-301.32" font-family="Times,serif" font-size="14.00">clickhouse odbc</text>
</a>
</g>
</g>
<!-- boost&#45;&gt;clickhouse&#45;odbc -->
<g id="edge3" class="edge">
<title>boost&#45;&gt;clickhouse&#45;odbc</title>
<path fill="none" stroke="black" d="M1484.67,-362.33C1503.96,-352.47 1529.68,-339.33 1551.21,-328.33"/>
<polygon fill="black" stroke="black" points="1552.74,-331.48 1560.05,-323.81 1549.56,-325.24 1552.74,-331.48"/>
</g>
<!-- mongodb -->
<g id="node5" class="node">
<title>mongodb</title>
<g id="a_node5"><a xlink:href="https://github.com/conda-forge/mongodb-feedstock" xlink:title="mongodb">
<ellipse fill="#fde725" stroke="black" cx="1522.95" cy="-234" rx="57.52" ry="18"/>
<text text-anchor="middle" x="1522.95" y="-229.32" font-family="Times,serif" font-size="14.00">mongodb</text>
</a>
</g>
</g>
<!-- boost&#45;&gt;mongodb -->
<g id="edge4" class="edge">
<title>boost&#45;&gt;mongodb</title>
<path fill="none" stroke="black" d="M1462.75,-359.72C1470,-341.62 1482.06,-312.48 1493.95,-288 1498.14,-279.38 1503.03,-270.15 1507.6,-261.86"/>
<polygon fill="black" stroke="black" points="1510.56,-263.72 1512.38,-253.29 1504.45,-260.31 1510.56,-263.72"/>
</g>
<!-- topologytoolkit -->
<g id="node6" class="node">
<title>topologytoolkit</title>
<g id="a_node6"><a xlink:href="https://github.com/conda-forge/topologytoolkit-feedstock" xlink:title="topologytoolkit">
<ellipse fill="#fde725" stroke="black" cx="1313.95" cy="-234" rx="86.46" ry="18"/>
<text text-anchor="middle" x="1313.95" y="-229.32" font-family="Times,serif" font-size="14.00">topologytoolkit</text>
</a>
</g>
</g>
<!-- boost&#45;&gt;topologytoolkit -->
<g id="edge5" class="edge">
<title>boost&#45;&gt;topologytoolkit</title>
<path fill="none" stroke="black" d="M1443.09,-360.11C1428.63,-341.57 1404.01,-311.35 1379.95,-288 1369.4,-277.77 1357.03,-267.44 1345.86,-258.66"/>
<polygon fill="black" stroke="black" points="1348.08,-255.95 1338.02,-252.6 1343.79,-261.49 1348.08,-255.95"/>
</g>
<!-- odil -->
<g id="node7" class="node">
<title>odil</title>
<g id="a_node7"><a xlink:href="https://github.com/conda-forge/odil-feedstock" xlink:title="odil">
<ellipse fill="#fde725" stroke="black" cx="1710.95" cy="-162" rx="29.64" ry="18"/>
<text text-anchor="middle" x="1710.95" y="-157.32" font-family="Times,serif" font-size="14.00">odil</text>
</a>
</g>
</g>
<!-- boost&#45;&gt;odil -->
<g id="edge6" class="edge">
<title>boost&#45;&gt;odil</title>
<path fill="none" stroke="black" d="M1507.42,-372.32C1569.26,-365.57 1667.73,-350.86 1691.95,-324 1724.63,-287.75 1721.76,-226.74 1716.5,-191.15"/>
<polygon fill="black" stroke="black" points="1720.01,-190.91 1714.92,-181.62 1713.1,-192.05 1720.01,-190.91"/>
</g>
<!-- paraview&#45;&gt;topologytoolkit -->
<g id="edge7" class="edge">
<title>paraview&#45;&gt;topologytoolkit</title>
<path fill="none" stroke="black" d="M1313.95,-287.7C1313.95,-280.41 1313.95,-271.73 1313.95,-263.54"/>
<polygon fill="black" stroke="black" points="1317.45,-263.62 1313.95,-253.62 1310.45,-263.62 1317.45,-263.62"/>
</g>
<!-- cairo -->
<g id="node8" class="node">
<title>cairo</title>
<g id="a_node8"><a xlink:href="https://github.com/conda-forge/cairo-feedstock/pull/77" xlink:title="cairo ✓">
<ellipse fill="#31688e" stroke="black" cx="267.95" cy="-450" rx="43.84" ry="18"/>
<text text-anchor="middle" x="267.95" y="-445.32" font-family="Times,serif" font-size="14.00" fill="white">cairo ✓</text>
</a>
</g>
</g>
<!-- harfbuzz -->
<g id="node9" class="node">
<title>harfbuzz</title>
<g id="a_node9"><a xlink:href="https://github.com/conda-forge/harfbuzz-feedstock" xlink:title="harfbuzz">
<ellipse fill="#fde725" stroke="black" cx="322.95" cy="-378" rx="54.89" ry="18"/>
<text text-anchor="middle" x="322.95" y="-373.32" font-family="Times,serif" font-size="14.00">harfbuzz</text>
</a>
</g>
</g>
<!-- cairo&#45;&gt;harfbuzz -->
<g id="edge8" class="edge">
<title>cairo&#45;&gt;harfbuzz</title>
<path fill="none" stroke="black" d="M280.99,-432.41C287.47,-424.16 295.44,-414.01 302.7,-404.78"/>
<polygon fill="black" stroke="black" points="305.27,-407.17 308.69,-397.15 299.76,-402.85 305.27,-407.17"/>
</g>
<!-- r&#45;base -->
<g id="node10" class="node">
<title>r&#45;base</title>
<g id="a_node10"><a xlink:href="https://github.com/conda-forge/r-base-feedstock" xlink:title="r base">
<ellipse fill="#fde725" stroke="black" cx="485.95" cy="-306" rx="42.26" ry="18"/>
<text text-anchor="middle" x="485.95" y="-301.32" font-family="Times,serif" font-size="14.00">r base</text>
</a>
</g>
</g>
<!-- cairo&#45;&gt;r&#45;base -->
<g id="edge9" class="edge">
<title>cairo&#45;&gt;r&#45;base</title>
<path fill="none" stroke="black" d="M300.67,-437.62C325.39,-428.28 359.63,-413.73 386.95,-396 415.66,-377.37 444.28,-350.51 463.31,-331.18"/>
<polygon fill="black" stroke="black" points="465.6,-333.85 470.05,-324.23 460.57,-328.98 465.6,-333.85"/>
</g>
<!-- r&#45;cairo -->
<g id="node11" class="node">
<title>r&#45;cairo</title>
<g id="a_node11"><a xlink:href="https://github.com/conda-forge/r-cairo-feedstock" xlink:title="r cairo">
<ellipse fill="#fde725" stroke="black" cx="295.95" cy="-234" rx="43.84" ry="18"/>
<text text-anchor="middle" x="295.95" y="-229.32" font-family="Times,serif" font-size="14.00">r cairo</text>
</a>
</g>
</g>
<!-- cairo&#45;&gt;r&#45;cairo -->
<g id="edge10" class="edge">
<title>cairo&#45;&gt;r&#45;cairo</title>
<path fill="none" stroke="black" d="M239.05,-436.08C184.27,-409.8 74.6,-347.57 118.95,-288 134.04,-267.74 197.57,-252.34 244.21,-243.5"/>
<polygon fill="black" stroke="black" points="244.68,-246.97 253.88,-241.72 243.42,-240.09 244.68,-246.97"/>
</g>
<!-- texlive&#45;core -->
<g id="node12" class="node">
<title>texlive&#45;core</title>
<g id="a_node12"><a xlink:href="https://github.com/conda-forge/texlive-core-feedstock" xlink:title="texlive core">
<ellipse fill="#fde725" stroke="black" cx="197.95" cy="-306" rx="69.62" ry="18"/>
<text text-anchor="middle" x="197.95" y="-301.32" font-family="Times,serif" font-size="14.00">texlive core</text>
</a>
</g>
</g>
<!-- cairo&#45;&gt;texlive&#45;core -->
<g id="edge11" class="edge">
<title>cairo&#45;&gt;texlive&#45;core</title>
<path fill="none" stroke="black" d="M259.51,-431.87C247.58,-407.67 225.66,-363.21 211.45,-334.39"/>
<polygon fill="black" stroke="black" points="214.65,-332.97 207.09,-325.55 208.38,-336.06 214.65,-332.97"/>
</g>
<!-- harfbuzz&#45;&gt;r&#45;base -->
<g id="edge12" class="edge">
<title>harfbuzz&#45;&gt;r&#45;base</title>
<path fill="none" stroke="black" d="M355.15,-363.17C381.4,-351.9 418.57,-335.94 446.58,-323.91"/>
<polygon fill="black" stroke="black" points="447.62,-327.27 455.43,-320.11 444.86,-320.84 447.62,-327.27"/>
</g>
<!-- harfbuzz&#45;&gt;r&#45;cairo -->
<g id="edge13" class="edge">
<title>harfbuzz&#45;&gt;r&#45;cairo</title>
<path fill="none" stroke="black" d="M319.64,-359.59C315.08,-335.61 306.82,-292.14 301.35,-263.42"/>
<polygon fill="black" stroke="black" points="304.79,-262.77 299.49,-253.6 297.92,-264.08 304.79,-262.77"/>
</g>
<!-- harfbuzz&#45;&gt;texlive&#45;core -->
<g id="edge14" class="edge">
<title>harfbuzz&#45;&gt;texlive&#45;core</title>
<path fill="none" stroke="black" d="M296.14,-361.98C278.54,-352.13 255.28,-339.1 235.81,-328.2"/>
<polygon fill="black" stroke="black" points="237.78,-325.29 227.34,-323.46 234.36,-331.4 237.78,-325.29"/>
</g>
<!-- tectonic -->
<g id="node13" class="node">
<title>tectonic</title>
<g id="a_node13"><a xlink:href="https://github.com/conda-forge/tectonic-feedstock" xlink:title="tectonic">
<ellipse fill="#fde725" stroke="black" cx="374.95" cy="-306" rx="51.21" ry="18"/>
<text text-anchor="middle" x="374.95" y="-301.32" font-family="Times,serif" font-size="14.00">tectonic</text>
</a>
</g>
</g>
<!-- harfbuzz&#45;&gt;tectonic -->
<g id="edge15" class="edge">
<title>harfbuzz&#45;&gt;tectonic</title>
<path fill="none" stroke="black" d="M335.54,-360.05C341.61,-351.89 349.02,-341.91 355.77,-332.82"/>
<polygon fill="black" stroke="black" points="358.42,-335.12 361.58,-325 352.8,-330.94 358.42,-335.12"/>
</g>
<!-- qt&#45;main -->
<g id="node14" class="node">
<title>qt&#45;main</title>
<g id="a_node14"><a xlink:href="https://github.com/conda-forge/qt-main-feedstock" xlink:title="qt main">
<ellipse fill="#fde725" stroke="black" cx="595.95" cy="-306" rx="49.63" ry="18"/>
<text text-anchor="middle" x="595.95" y="-301.32" font-family="Times,serif" font-size="14.00">qt main</text>
</a>
</g>
</g>
<!-- harfbuzz&#45;&gt;qt&#45;main -->
<g id="edge16" class="edge">
<title>harfbuzz&#45;&gt;qt&#45;main</title>
<path fill="none" stroke="black" d="M366.52,-366.72C409.85,-356.38 478.16,-339.74 536.95,-324 540.29,-323.11 543.74,-322.16 547.2,-321.2"/>
<polygon fill="black" stroke="black" points="548.11,-324.58 556.78,-318.51 546.21,-317.85 548.11,-324.58"/>
</g>
<!-- r&#45;base&#45;&gt;r&#45;cairo -->
<g id="edge17" class="edge">
<title>r&#45;base&#45;&gt;r&#45;cairo</title>
<path fill="none" stroke="black" d="M454.58,-293.44C422.77,-281.72 373.35,-263.51 338.13,-250.54"/>
<polygon fill="black" stroke="black" points="339.7,-247.39 329.11,-247.22 337.28,-253.96 339.7,-247.39"/>
</g>
<!-- r&#45;stringi -->
<g id="node15" class="node">
<title>r&#45;stringi</title>
<g id="a_node15"><a xlink:href="https://github.com/conda-forge/r-stringi-feedstock" xlink:title="r stringi">
<ellipse fill="#fde725" stroke="black" cx="476.95" cy="-234" rx="52.26" ry="18"/>
<text text-anchor="middle" x="476.95" y="-229.32" font-family="Times,serif" font-size="14.00">r stringi</text>
</a>
</g>
</g>
<!-- r&#45;base&#45;&gt;r&#45;stringi -->
<g id="edge18" class="edge">
<title>r&#45;base&#45;&gt;r&#45;stringi</title>
<path fill="none" stroke="black" d="M483.73,-287.7C482.78,-280.32 481.65,-271.52 480.58,-263.25"/>
<polygon fill="black" stroke="black" points="484.09,-263.08 479.34,-253.61 477.15,-263.97 484.09,-263.08"/>
</g>
<!-- r&#45;v8 -->
<g id="node16" class="node">
<title>r&#45;v8</title>
<g id="a_node16"><a xlink:href="https://github.com/conda-forge/r-v8-feedstock" xlink:title="r v8">
<ellipse fill="#fde725" stroke="black" cx="119.95" cy="-234" rx="31.22" ry="18"/>
<text text-anchor="middle" x="119.95" y="-229.32" font-family="Times,serif" font-size="14.00">r v8</text>
</a>
</g>
</g>
<!-- r&#45;base&#45;&gt;r&#45;v8 -->
<g id="edge19" class="edge">
<title>r&#45;base&#45;&gt;r&#45;v8</title>
<path fill="none" stroke="black" d="M454.34,-293.62C447.98,-291.57 441.29,-289.58 434.95,-288 383.68,-275.22 234.21,-252.1 161.13,-241.12"/>
<polygon fill="black" stroke="black" points="161.99,-237.71 151.58,-239.68 160.95,-244.63 161.99,-237.71"/>
</g>
<!-- qt&#45;main&#45;&gt;qgis -->
<g id="edge20" class="edge">
<title>qt&#45;main&#45;&gt;qgis</title>
<path fill="none" stroke="black" d="M584.68,-288.11C573.31,-268.75 559.58,-236.97 575.95,-216 596.49,-189.69 688.98,-174.51 744.78,-167.59"/>
<polygon fill="black" stroke="black" points="745.08,-171.07 754.59,-166.41 744.25,-164.12 745.08,-171.07"/>
</g>
<!-- octave -->
<g id="node17" class="node">
<title>octave</title>
<g id="a_node17"><a xlink:href="https://github.com/conda-forge/octave-feedstock" xlink:title="octave">
<ellipse fill="#fde725" stroke="black" cx="628.95" cy="-234" rx="43.84" ry="18"/>
<text text-anchor="middle" x="628.95" y="-229.32" font-family="Times,serif" font-size="14.00">octave</text>
</a>
</g>
</g>
<!-- qt&#45;main&#45;&gt;octave -->
<g id="edge21" class="edge">
<title>qt&#45;main&#45;&gt;octave</title>
<path fill="none" stroke="black" d="M603.94,-288.05C607.63,-280.23 612.1,-270.75 616.23,-261.98"/>
<polygon fill="black" stroke="black" points="619.29,-263.7 620.39,-253.16 612.96,-260.71 619.29,-263.7"/>
</g>
<!-- qtwebkit -->
<g id="node18" class="node">
<title>qtwebkit</title>
<g id="a_node18"><a xlink:href="https://github.com/conda-forge/qtwebkit-feedstock" xlink:title="qtwebkit">
<ellipse fill="#fde725" stroke="black" cx="745.95" cy="-234" rx="55.42" ry="18"/>
<text text-anchor="middle" x="745.95" y="-229.32" font-family="Times,serif" font-size="14.00">qtwebkit</text>
</a>
</g>
</g>
<!-- qt&#45;main&#45;&gt;qtwebkit -->
<g id="edge22" class="edge">
<title>qt&#45;main&#45;&gt;qtwebkit</title>
<path fill="none" stroke="black" d="M625.59,-291.17C648.22,-280.61 679.69,-265.92 704.77,-254.22"/>
<polygon fill="black" stroke="black" points="706.13,-257.44 713.72,-250.04 703.17,-251.1 706.13,-257.44"/>
</g>
<!-- qtwebkit&#45;&gt;qgis -->
<g id="edge38" class="edge">
<title>qtwebkit&#45;&gt;qgis</title>
<path fill="none" stroke="black" d="M756.12,-216.05C760.99,-207.94 766.92,-198.04 772.35,-189.01"/>
<polygon fill="black" stroke="black" points="775.24,-190.98 777.39,-180.6 769.24,-187.38 775.24,-190.98"/>
</g>
<!-- kaldi -->
<g id="node19" class="node">
<title>kaldi</title>
<g id="a_node19"><a xlink:href="https://github.com/conda-forge/kaldi-feedstock" xlink:title="kaldi">
<ellipse fill="#fde725" stroke="black" cx="774.95" cy="-306" rx="35.42" ry="18"/>
<text text-anchor="middle" x="774.95" y="-301.32" font-family="Times,serif" font-size="14.00">kaldi</text>
</a>
</g>
</g>
<!-- libgd -->
<g id="node20" class="node">
<title>libgd</title>
<g id="a_node20"><a xlink:href="https://github.com/conda-forge/libgd-feedstock" xlink:title="libgd">
<ellipse fill="#35b779" stroke="black" cx="1816.95" cy="-414" rx="36.48" ry="18"/>
<text text-anchor="middle" x="1816.95" y="-409.32" font-family="Times,serif" font-size="14.00">libgd</text>
</a>
</g>
</g>
<!-- nodejs -->
<g id="node21" class="node">
<title>nodejs</title>
<g id="a_node21"><a xlink:href="https://github.com/conda-forge/nodejs-feedstock" xlink:title="nodejs">
<ellipse fill="#35b779" stroke="black" cx="1816.95" cy="-342" rx="43.84" ry="18"/>
<text text-anchor="middle" x="1816.95" y="-337.32" font-family="Times,serif" font-size="14.00">nodejs</text>
</a>
</g>
</g>
<!-- libgd&#45;&gt;nodejs -->
<!-- xerces&#45;c -->
<g id="node30" class="node">
<title>xerces&#45;c</title>
<g id="a_node30"><a xlink:href="https://github.com/conda-forge/xerces-c-feedstock" xlink:title="xerces c">
<ellipse fill="#35b779" stroke="black" cx="1816.95" cy="-270" rx="52.26" ry="18"/>
<text text-anchor="middle" x="1816.95" y="-265.32" font-family="Times,serif" font-size="14.00">xerces c</text>
</a>
</g>
</g>
<!-- nodejs&#45;&gt;xerces&#45;c -->
<!-- libxml2 -->
<g id="node22" class="node">
<title>libxml2</title>
<g id="a_node22"><a xlink:href="https://github.com/conda-forge/libxml2-feedstock/pull/130" xlink:title="libxml2 ✓">
<ellipse fill="#31688e" stroke="black" cx="940.95" cy="-378" rx="56.47" ry="18"/>
<text text-anchor="middle" x="940.95" y="-373.32" font-family="Times,serif" font-size="14.00" fill="white">libxml2 ✓</text>
</a>
</g>
</g>
<!-- libxml2&#45;&gt;paraview -->
<g id="edge24" class="edge">
<title>libxml2&#45;&gt;paraview</title>
<path fill="none" stroke="black" d="M990.83,-369.21C1050.85,-359.61 1154.6,-342.31 1242.95,-324 1248.18,-322.92 1253.62,-321.73 1259.04,-320.5"/>
<polygon fill="black" stroke="black" points="1259.68,-323.94 1268.64,-318.28 1258.1,-317.12 1259.68,-323.94"/>
</g>
<!-- libxml2&#45;&gt;qgis -->
<g id="edge25" class="edge">
<title>libxml2&#45;&gt;qgis</title>
<path fill="none" stroke="black" d="M909.29,-362.88C891.95,-353.83 871.17,-340.66 856.95,-324 854.63,-321.28 818.48,-235.67 799.46,-190.42"/>
<polygon fill="black" stroke="black" points="802.71,-189.12 795.61,-181.26 796.26,-191.84 802.71,-189.12"/>
</g>
<!-- libxml2&#45;&gt;topologytoolkit -->
<g id="edge26" class="edge">
<title>libxml2&#45;&gt;topologytoolkit</title>
<path fill="none" stroke="black" d="M996.29,-373.86C1051.52,-368.94 1137.63,-356.32 1204.95,-324 1227.42,-313.21 1228.68,-303.8 1247.95,-288 1259.7,-278.37 1272.72,-267.87 1284.07,-258.78"/>
<polygon fill="black" stroke="black" points="1285.95,-261.76 1291.58,-252.78 1281.58,-256.29 1285.95,-261.76"/>
</g>
<!-- libxml2&#45;&gt;r&#45;base -->
<g id="edge27" class="edge">
<title>libxml2&#45;&gt;r&#45;base</title>
<path fill="none" stroke="black" d="M886.13,-373.15C807.87,-366.91 660.01,-352.31 536.95,-324 534.02,-323.33 531.03,-322.55 528.03,-321.72"/>
<polygon fill="black" stroke="black" points="529.27,-318.44 518.69,-318.91 527.26,-325.14 529.27,-318.44"/>
</g>
<!-- libxml2&#45;&gt;qt&#45;main -->
<g id="edge28" class="edge">
<title>libxml2&#45;&gt;qt&#45;main</title>
<path fill="none" stroke="black" d="M891.74,-368.84C835.47,-359.25 740.68,-342.31 659.95,-324 655.15,-322.91 650.17,-321.71 645.2,-320.47"/>
<polygon fill="black" stroke="black" points="646.44,-317.17 635.89,-318.08 644.7,-323.96 646.44,-317.17"/>
</g>
<!-- libxml2&#45;&gt;octave -->
<g id="edge30" class="edge">
<title>libxml2&#45;&gt;octave</title>
<path fill="none" stroke="black" d="M886.87,-372.35C839.99,-366.45 771.6,-353.25 718.95,-324 690.43,-308.15 664.71,-280.75 648.15,-260.52"/>
<polygon fill="black" stroke="black" points="650.9,-258.36 641.93,-252.71 645.42,-262.72 650.9,-258.36"/>
</g>
<!-- libxml2&#45;&gt;qtwebkit -->
<g id="edge32" class="edge">
<title>libxml2&#45;&gt;qtwebkit</title>
<path fill="none" stroke="black" d="M888.19,-371.05C832.49,-363.55 750.1,-348.58 730.95,-324 717.36,-306.56 723.31,-281.31 731.39,-262.15"/>
<polygon fill="black" stroke="black" points="734.45,-263.87 735.48,-253.33 728.1,-260.93 734.45,-263.87"/>
</g>
<!-- libxml2&#45;&gt;kaldi -->
<g id="edge29" class="edge">
<title>libxml2&#45;&gt;kaldi</title>
<path fill="none" stroke="black" d="M907.76,-363C880.07,-351.33 840.65,-334.71 811.95,-322.6"/>
<polygon fill="black" stroke="black" points="813.5,-319.46 802.92,-318.8 810.78,-325.91 813.5,-319.46"/>
</g>
<!-- uwsgi -->
<g id="node23" class="node">
<title>uwsgi</title>
<g id="a_node23"><a xlink:href="https://github.com/conda-forge/uwsgi-feedstock" xlink:title="uwsgi">
<ellipse fill="#fde725" stroke="black" cx="897.95" cy="-234" rx="40.69" ry="18"/>
<text text-anchor="middle" x="897.95" y="-229.32" font-family="Times,serif" font-size="14.00">uwsgi</text>
</a>
</g>
</g>
<!-- libxml2&#45;&gt;uwsgi -->
<g id="edge31" class="edge">
<title>libxml2&#45;&gt;uwsgi</title>
<path fill="none" stroke="black" d="M949.73,-359.89C957.92,-341.43 967.44,-311.51 956.95,-288 951.31,-275.36 941,-264.47 930.56,-255.91"/>
<polygon fill="black" stroke="black" points="932.75,-253.17 922.67,-249.91 928.51,-258.75 932.75,-253.17"/>
</g>
<!-- tensorflow -->
<g id="node24" class="node">
<title>tensorflow</title>
<g id="a_node24"><a xlink:href="https://github.com/conda-forge/tensorflow-feedstock" xlink:title="tensorflow">
<ellipse fill="#fde725" stroke="black" cx="1060.95" cy="-162" rx="63.84" ry="18"/>
<text text-anchor="middle" x="1060.95" y="-157.32" font-family="Times,serif" font-size="14.00">tensorflow</text>
</a>
</g>
</g>
<!-- libxml2&#45;&gt;tensorflow -->
<g id="edge33" class="edge">
<title>libxml2&#45;&gt;tensorflow</title>
<path fill="none" stroke="black" d="M972.1,-362.62C1009.5,-343.41 1070.37,-305.49 1095.95,-252 1105.86,-231.27 1094.83,-206.95 1082.61,-188.97"/>
<polygon fill="black" stroke="black" points="1085.44,-186.92 1076.71,-180.92 1079.79,-191.06 1085.44,-186.92"/>
</g>
<!-- ticcutils -->
<g id="node25" class="node">
<title>ticcutils</title>
<g id="a_node25"><a xlink:href="https://github.com/conda-forge/ticcutils-feedstock" xlink:title="ticcutils">
<ellipse fill="#fde725" stroke="black" cx="1111.95" cy="-90" rx="51.21" ry="18"/>
<text text-anchor="middle" x="1111.95" y="-85.33" font-family="Times,serif" font-size="14.00">ticcutils</text>
</a>
</g>
</g>
<!-- libxml2&#45;&gt;ticcutils -->
<g id="edge34" class="edge">
<title>libxml2&#45;&gt;ticcutils</title>
<path fill="none" stroke="black" d="M984.21,-366.03C1010.34,-357.76 1043.1,-344.3 1066.95,-324 1095.69,-299.54 1096.3,-286.34 1111.95,-252 1132.26,-207.42 1143.53,-192.04 1133.95,-144 1132.24,-135.4 1129.1,-126.45 1125.73,-118.41"/>
<polygon fill="black" stroke="black" points="1129.01,-117.17 1121.7,-109.5 1122.63,-120.05 1129.01,-117.17"/>
</g>
<!-- scilab -->
<g id="node26" class="node">
<title>scilab</title>
<g id="a_node26"><a xlink:href="https://github.com/conda-forge/scilab-feedstock" xlink:title="scilab">
<ellipse fill="#fde725" stroke="black" cx="1190.95" cy="-18" rx="40.16" ry="18"/>
<text text-anchor="middle" x="1190.95" y="-13.32" font-family="Times,serif" font-size="14.00">scilab</text>
</a>
</g>
</g>
<!-- libxml2&#45;&gt;scilab -->
<g id="edge35" class="edge">
<title>libxml2&#45;&gt;scilab</title>
<path fill="none" stroke="black" d="M993.05,-370.79C1066.32,-358.83 1190.95,-325.22 1190.95,-235 1190.95,-235 1190.95,-235 1190.95,-161 1190.95,-121.74 1190.95,-76.38 1190.95,-47.69"/>
<polygon fill="black" stroke="black" points="1194.45,-48 1190.95,-38 1187.45,-48 1194.45,-48"/>
</g>
<!-- libical -->
<g id="node27" class="node">
<title>libical</title>
<g id="a_node27"><a xlink:href="https://github.com/conda-forge/libical-feedstock" xlink:title="libical">
<ellipse fill="#fde725" stroke="black" cx="906.95" cy="-306" rx="41.21" ry="18"/>
<text text-anchor="middle" x="906.95" y="-301.32" font-family="Times,serif" font-size="14.00">libical</text>
</a>
</g>
</g>
<!-- libxml2&#45;&gt;libical -->
<g id="edge36" class="edge">
<title>libxml2&#45;&gt;libical</title>
<path fill="none" stroke="black" d="M932.72,-360.05C928.92,-352.23 924.31,-342.75 920.05,-333.98"/>
<polygon fill="black" stroke="black" points="923.28,-332.62 915.77,-325.15 916.99,-335.67 923.28,-332.62"/>
</g>
<!-- libxmlsec1 -->
<g id="node28" class="node">
<title>libxmlsec1</title>
<g id="a_node28"><a xlink:href="https://github.com/conda-forge/libxmlsec1-feedstock" xlink:title="libxmlsec1">
<ellipse fill="#fde725" stroke="black" cx="1021.95" cy="-234" rx="64.89" ry="18"/>
<text text-anchor="middle" x="1021.95" y="-229.32" font-family="Times,serif" font-size="14.00">libxmlsec1</text>
</a>
</g>
</g>
<!-- libxml2&#45;&gt;libxmlsec1 -->
<g id="edge37" class="edge">
<title>libxml2&#45;&gt;libxmlsec1</title>
<path fill="none" stroke="black" d="M951.92,-359.98C958.48,-349.66 966.88,-336.19 973.95,-324 985.88,-303.44 998.62,-279.72 1007.98,-261.95"/>
<polygon fill="black" stroke="black" points="1010.82,-264.06 1012.36,-253.58 1004.62,-260.81 1010.82,-264.06"/>
</g>
<!-- mysql -->
<g id="node29" class="node">
<title>mysql</title>
<g id="a_node29"><a xlink:href="https://github.com/conda-forge/mysql-feedstock/pull/99" xlink:title="mysql ❎">
<ellipse fill="#31688e" stroke="black" cx="595.95" cy="-378" rx="56.47" ry="18"/>
<text text-anchor="middle" x="595.95" y="-373.32" font-family="Times,serif" font-size="14.00" fill="white">mysql ❎</text>
</a>
</g>
</g>
<!-- mysql&#45;&gt;qt&#45;main -->
<g id="edge39" class="edge">
<title>mysql&#45;&gt;qt&#45;main</title>
<path fill="none" stroke="black" d="M595.95,-359.7C595.95,-352.41 595.95,-343.73 595.95,-335.54"/>
<polygon fill="black" stroke="black" points="599.45,-335.62 595.95,-325.62 592.45,-335.62 599.45,-335.62"/>
</g>
<!-- pyicu -->
<g id="node31" class="node">
<title>pyicu</title>
<g id="a_node31"><a xlink:href="https://github.com/conda-forge/pyicu-feedstock" xlink:title="pyicu">
<ellipse fill="#35b779" stroke="black" cx="1816.95" cy="-198" rx="38.06" ry="18"/>
<text text-anchor="middle" x="1816.95" y="-193.32" font-family="Times,serif" font-size="14.00">pyicu</text>
</a>
</g>
</g>
<!-- xerces&#45;c&#45;&gt;pyicu -->
<!-- baumwelch -->
<g id="node32" class="node">
<title>baumwelch</title>
<g id="a_node32"><a xlink:href="https://github.com/conda-forge/baumwelch-feedstock" xlink:title="baumwelch">
<ellipse fill="#35b779" stroke="black" cx="1816.95" cy="-126" rx="68.04" ry="18"/>
<text text-anchor="middle" x="1816.95" y="-121.33" font-family="Times,serif" font-size="14.00">baumwelch</text>
</a>
</g>
</g>
<!-- pyicu&#45;&gt;baumwelch -->
<!-- libmongoc -->
<g id="node34" class="node">
<title>libmongoc</title>
<g id="a_node34"><a xlink:href="https://github.com/conda-forge/libmongoc-feedstock" xlink:title="libmongoc">
<ellipse fill="#35b779" stroke="black" cx="1816.95" cy="-54" rx="62.78" ry="18"/>
<text text-anchor="middle" x="1816.95" y="-49.33" font-family="Times,serif" font-size="14.00">libmongoc</text>
</a>
</g>
</g>
<!-- baumwelch&#45;&gt;libmongoc -->
<!-- libv8 -->
<g id="node33" class="node">
<title>libv8</title>
<g id="a_node33"><a xlink:href="https://github.com/conda-forge/libv8-feedstock" xlink:title="libv8">
<ellipse fill="#35b779" stroke="black" cx="35.95" cy="-306" rx="35.95" ry="18"/>
<text text-anchor="middle" x="35.95" y="-301.32" font-family="Times,serif" font-size="14.00">libv8</text>
</a>
</g>
</g>
<!-- libv8&#45;&gt;r&#45;v8 -->
<g id="edge43" class="edge">
<title>libv8&#45;&gt;r&#45;v8</title>
<path fill="none" stroke="black" d="M53.77,-290.15C65.5,-280.37 81.07,-267.4 94.15,-256.5"/>
<polygon fill="black" stroke="black" points="96.13,-259.4 101.57,-250.31 91.65,-254.03 96.13,-259.4"/>
</g>
<!-- spidermonkey -->
<g id="node35" class="node">
<title>spidermonkey</title>
<g id="a_node35"><a xlink:href="https://github.com/conda-forge/spidermonkey-feedstock" xlink:title="spidermonkey">
<ellipse fill="#35b779" stroke="black" cx="1974.95" cy="-270" rx="81.72" ry="18"/>
<text text-anchor="middle" x="1974.95" y="-265.32" font-family="Times,serif" font-size="14.00">spidermonkey</text>
</a>
</g>
</g>
<!-- couchdb -->
<g id="node36" class="node">
<title>couchdb</title>
<g id="a_node36"><a xlink:href="https://github.com/conda-forge/couchdb-feedstock" xlink:title="couchdb">
<ellipse fill="#fde725" stroke="black" cx="1974.95" cy="-198" rx="52.79" ry="18"/>
<text text-anchor="middle" x="1974.95" y="-193.32" font-family="Times,serif" font-size="14.00">couchdb</text>
</a>
</g>
</g>
<!-- spidermonkey&#45;&gt;couchdb -->
<g id="edge45" class="edge">
<title>spidermonkey&#45;&gt;couchdb</title>
<path fill="none" stroke="black" d="M1974.95,-251.7C1974.95,-244.41 1974.95,-235.73 1974.95,-227.54"/>
<polygon fill="black" stroke="black" points="1978.45,-227.62 1974.95,-217.62 1971.45,-227.62 1978.45,-227.62"/>
</g>
</g>
</svg>
