<?xml version="1.0" encoding="UTF-8" standalone="no"?>
<!DOCTYPE svg PUBLIC "-//W3C//DTD SVG 1.1//EN"
 "http://www.w3.org/Graphics/SVG/1.1/DTD/svg11.dtd">
<!-- Generated by graphviz version 11.0.0 (20240519.1550)
 -->
<!-- Pages: 1 -->
<svg width="963pt" height="952pt"
 viewBox="0.00 0.00 963.30 952.00" xmlns="http://www.w3.org/2000/svg" xmlns:xlink="http://www.w3.org/1999/xlink">
<g id="graph0" class="graph" transform="scale(1 1) rotate(0) translate(4 948)">
<polygon fill="white" stroke="none" points="-4,4 -4,-948 959.3,-948 959.3,4 -4,4"/>
<!-- boost -->
<g id="node1" class="node">
<title>boost</title>
<g id="a_node1"><a xlink:href="https://github.com/conda-forge/boost-feedstock/pull/209" xlink:title="boost ❎">
<ellipse fill="#31688e" stroke="black" cx="459.88" cy="-710" rx="53.84" ry="18"/>
<text text-anchor="middle" x="459.88" y="-705.33" font-family="Times,serif" font-size="14.00" fill="white">boost ❎</text>
</a>
</g>
</g>
<!-- paraview -->
<g id="node2" class="node">
<title>paraview</title>
<g id="a_node2"><a xlink:href="https://github.com/conda-forge/paraview-feedstock" xlink:title="paraview">
<ellipse fill="#fde725" stroke="black" cx="282.88" cy="-638" rx="57" ry="18"/>
<text text-anchor="middle" x="282.88" y="-633.33" font-family="Times,serif" font-size="14.00">paraview</text>
</a>
</g>
</g>
<!-- boost&#45;&gt;paraview -->
<g id="edge1" class="edge">
<title>boost&#45;&gt;paraview</title>
<path fill="none" stroke="black" d="M426.17,-695.67C398.27,-684.63 358.38,-668.86 327.77,-656.75"/>
<polygon fill="black" stroke="black" points="329.36,-653.62 318.78,-653.2 326.79,-660.13 329.36,-653.62"/>
</g>
<!-- clickhouse&#45;odbc -->
<g id="node3" class="node">
<title>clickhouse&#45;odbc</title>
<g id="a_node3"><a xlink:href="https://github.com/conda-forge/clickhouse-odbc-feedstock" xlink:title="clickhouse odbc">
<ellipse fill="#fde725" stroke="black" cx="459.88" cy="-566" rx="90.14" ry="18"/>
<text text-anchor="middle" x="459.88" y="-561.33" font-family="Times,serif" font-size="14.00">clickhouse odbc</text>
</a>
</g>
</g>
<!-- boost&#45;&gt;clickhouse&#45;odbc -->
<g id="edge2" class="edge">
<title>boost&#45;&gt;clickhouse&#45;odbc</title>
<path fill="none" stroke="black" d="M459.88,-691.59C459.88,-667.61 459.88,-624.14 459.88,-595.42"/>
<polygon fill="black" stroke="black" points="463.38,-595.62 459.88,-585.62 456.38,-595.62 463.38,-595.62"/>
</g>
<!-- mongodb -->
<g id="node4" class="node">
<title>mongodb</title>
<g id="a_node4"><a xlink:href="https://github.com/conda-forge/mongodb-feedstock" xlink:title="mongodb">
<ellipse fill="#fde725" stroke="black" cx="577.88" cy="-494" rx="57.52" ry="18"/>
<text text-anchor="middle" x="577.88" y="-489.32" font-family="Times,serif" font-size="14.00">mongodb</text>
</a>
</g>
</g>
<!-- boost&#45;&gt;mongodb -->
<g id="edge3" class="edge">
<title>boost&#45;&gt;mongodb</title>
<path fill="none" stroke="black" d="M477.14,-692.54C499.56,-670.15 538.24,-627.83 558.88,-584 567.84,-564.98 572.62,-541.68 575.14,-523.7"/>
<polygon fill="black" stroke="black" points="578.59,-524.33 576.34,-513.98 571.64,-523.48 578.59,-524.33"/>
</g>
<!-- topologytoolkit -->
<g id="node5" class="node">
<title>topologytoolkit</title>
<g id="a_node5"><a xlink:href="https://github.com/conda-forge/topologytoolkit-feedstock" xlink:title="topologytoolkit">
<ellipse fill="#fde725" stroke="black" cx="264.88" cy="-566" rx="86.46" ry="18"/>
<text text-anchor="middle" x="264.88" y="-561.33" font-family="Times,serif" font-size="14.00">topologytoolkit</text>
</a>
</g>
</g>
<!-- boost&#45;&gt;topologytoolkit -->
<g id="edge4" class="edge">
<title>boost&#45;&gt;topologytoolkit</title>
<path fill="none" stroke="black" d="M441.14,-692.89C419.47,-674.52 382.47,-643.95 348.88,-620 334.05,-609.43 317.16,-598.56 302.43,-589.43"/>
<polygon fill="black" stroke="black" points="304.28,-586.46 293.92,-584.21 300.61,-592.43 304.28,-586.46"/>
</g>
<!-- odil -->
<g id="node6" class="node">
<title>odil</title>
<g id="a_node6"><a xlink:href="https://github.com/conda-forge/odil-feedstock" xlink:title="odil">
<ellipse fill="#fde725" stroke="black" cx="663.88" cy="-422" rx="29.64" ry="18"/>
<text text-anchor="middle" x="663.88" y="-417.32" font-family="Times,serif" font-size="14.00">odil</text>
</a>
</g>
</g>
<!-- boost&#45;&gt;odil -->
<g id="edge5" class="edge">
<title>boost&#45;&gt;odil</title>
<path fill="none" stroke="black" d="M486.44,-694.05C502.34,-684.37 522.4,-670.84 537.88,-656 595.44,-600.82 612.03,-584.65 644.88,-512 653.54,-492.84 658.33,-469.55 660.94,-451.6"/>
<polygon fill="black" stroke="black" points="664.38,-452.28 662.19,-441.91 657.44,-451.38 664.38,-452.28"/>
</g>
<!-- paraview&#45;&gt;topologytoolkit -->
<g id="edge6" class="edge">
<title>paraview&#45;&gt;topologytoolkit</title>
<path fill="none" stroke="black" d="M278.43,-619.7C276.53,-612.32 274.27,-603.52 272.15,-595.25"/>
<polygon fill="black" stroke="black" points="275.54,-594.38 269.66,-585.57 268.76,-596.13 275.54,-594.38"/>
</g>
<!-- kaldi -->
<g id="node7" class="node">
<title>kaldi</title>
<g id="a_node7"><a xlink:href="https://github.com/conda-forge/kaldi-feedstock" xlink:title="kaldi">
<ellipse fill="#ff8c00" stroke="black" cx="84.88" cy="-926" rx="35.42" ry="18"/>
<text text-anchor="middle" x="84.88" y="-921.33" font-family="Times,serif" font-size="14.00">kaldi</text>
</a>
</g>
</g>
<!-- libgd -->
<g id="node8" class="node">
<title>libgd</title>
<g id="a_node8"><a xlink:href="https://github.com/conda-forge/libgd-feedstock/pull/54" xlink:title="libgd ✓">
<ellipse fill="#31688e" stroke="black" cx="84.88" cy="-854" rx="44.37" ry="18"/>
<text text-anchor="middle" x="84.88" y="-849.33" font-family="Times,serif" font-size="14.00" fill="white">libgd ✓</text>
</a>
</g>
</g>
<!-- kaldi&#45;&gt;libgd -->
<!-- nodejs -->
<g id="node9" class="node">
<title>nodejs</title>
<g id="a_node9"><a xlink:href="https://github.com/conda-forge/nodejs-feedstock" xlink:title="nodejs">
<ellipse fill="#35b779" stroke="black" cx="84.88" cy="-782" rx="43.84" ry="18"/>
<text text-anchor="middle" x="84.88" y="-777.33" font-family="Times,serif" font-size="14.00">nodejs</text>
</a>
</g>
</g>
<!-- libgd&#45;&gt;nodejs -->
<!-- r&#45;cairo -->
<g id="node15" class="node">
<title>r&#45;cairo</title>
<g id="a_node15"><a xlink:href="https://github.com/conda-forge/r-cairo-feedstock" xlink:title="r cairo">
<ellipse fill="#35b779" stroke="black" cx="84.88" cy="-710" rx="43.84" ry="18"/>
<text text-anchor="middle" x="84.88" y="-705.33" font-family="Times,serif" font-size="14.00">r cairo</text>
</a>
</g>
</g>
<!-- nodejs&#45;&gt;r&#45;cairo -->
<!-- mysql -->
<g id="node10" class="node">
<title>mysql</title>
<g id="a_node10"><a xlink:href="https://github.com/conda-forge/mysql-feedstock/pull/99" xlink:title="mysql ❎">
<ellipse fill="#31688e" stroke="black" cx="816.88" cy="-710" rx="56.47" ry="18"/>
<text text-anchor="middle" x="816.88" y="-705.33" font-family="Times,serif" font-size="14.00" fill="white">mysql ❎</text>
</a>
</g>
</g>
<!-- qt&#45;main -->
<g id="node11" class="node">
<title>qt&#45;main</title>
<g id="a_node11"><a xlink:href="https://github.com/conda-forge/qt-main-feedstock" xlink:title="qt main">
<ellipse fill="#fde725" stroke="black" cx="816.88" cy="-638" rx="49.63" ry="18"/>
<text text-anchor="middle" x="816.88" y="-633.33" font-family="Times,serif" font-size="14.00">qt main</text>
</a>
</g>
</g>
<!-- mysql&#45;&gt;qt&#45;main -->
<g id="edge9" class="edge">
<title>mysql&#45;&gt;qt&#45;main</title>
<path fill="none" stroke="black" d="M816.88,-691.7C816.88,-684.41 816.88,-675.73 816.88,-667.54"/>
<polygon fill="black" stroke="black" points="820.38,-667.62 816.88,-657.62 813.38,-667.62 820.38,-667.62"/>
</g>
<!-- octave -->
<g id="node12" class="node">
<title>octave</title>
<g id="a_node12"><a xlink:href="https://github.com/conda-forge/octave-feedstock" xlink:title="octave">
<ellipse fill="#fde725" stroke="black" cx="744.88" cy="-566" rx="43.84" ry="18"/>
<text text-anchor="middle" x="744.88" y="-561.33" font-family="Times,serif" font-size="14.00">octave</text>
</a>
</g>
</g>
<!-- qt&#45;main&#45;&gt;octave -->
<g id="edge10" class="edge">
<title>qt&#45;main&#45;&gt;octave</title>
<path fill="none" stroke="black" d="M800.18,-620.76C791.09,-611.93 779.68,-600.83 769.58,-591.01"/>
<polygon fill="black" stroke="black" points="772.18,-588.66 762.57,-584.2 767.3,-593.68 772.18,-588.66"/>
</g>
<!-- qgis -->
<g id="node13" class="node">
<title>qgis</title>
<g id="a_node13"><a xlink:href="https://github.com/conda-forge/qgis-feedstock" xlink:title="qgis">
<ellipse fill="#fde725" stroke="black" cx="857.88" cy="-422" rx="32.27" ry="18"/>
<text text-anchor="middle" x="857.88" y="-417.32" font-family="Times,serif" font-size="14.00">qgis</text>
</a>
</g>
</g>
<!-- qt&#45;main&#45;&gt;qgis -->
<g id="edge11" class="edge">
<title>qt&#45;main&#45;&gt;qgis</title>
<path fill="none" stroke="black" d="M817.36,-619.79C818.53,-590.03 822.51,-527.2 835.88,-476 838.13,-467.38 841.49,-458.33 844.91,-450.18"/>
<polygon fill="black" stroke="black" points="848.06,-451.72 848.9,-441.16 841.66,-448.89 848.06,-451.72"/>
</g>
<!-- qtwebkit -->
<g id="node14" class="node">
<title>qtwebkit</title>
<g id="a_node14"><a xlink:href="https://github.com/conda-forge/qtwebkit-feedstock" xlink:title="qtwebkit">
<ellipse fill="#fde725" stroke="black" cx="899.88" cy="-494" rx="55.42" ry="18"/>
<text text-anchor="middle" x="899.88" y="-489.32" font-family="Times,serif" font-size="14.00">qtwebkit</text>
</a>
</g>
</g>
<!-- qt&#45;main&#45;&gt;qtwebkit -->
<g id="edge12" class="edge">
<title>qt&#45;main&#45;&gt;qtwebkit</title>
<path fill="none" stroke="black" d="M826.73,-620.15C840.95,-595.81 867.4,-550.57 884.29,-521.67"/>
<polygon fill="black" stroke="black" points="887.26,-523.53 889.28,-513.13 881.21,-520 887.26,-523.53"/>
</g>
<!-- qtwebkit&#45;&gt;qgis -->
<g id="edge19" class="edge">
<title>qtwebkit&#45;&gt;qgis</title>
<path fill="none" stroke="black" d="M889.71,-476.05C884.85,-467.94 878.91,-458.04 873.48,-449.01"/>
<polygon fill="black" stroke="black" points="876.59,-447.38 868.44,-440.6 870.59,-450.98 876.59,-447.38"/>
</g>
<!-- r&#45;stringi -->
<g id="node16" class="node">
<title>r&#45;stringi</title>
<g id="a_node16"><a xlink:href="https://github.com/conda-forge/r-stringi-feedstock" xlink:title="r stringi">
<ellipse fill="#35b779" stroke="black" cx="84.88" cy="-638" rx="52.26" ry="18"/>
<text text-anchor="middle" x="84.88" y="-633.33" font-family="Times,serif" font-size="14.00">r stringi</text>
</a>
</g>
</g>
<!-- r&#45;cairo&#45;&gt;r&#45;stringi -->
<!-- tectonic -->
<g id="node17" class="node">
<title>tectonic</title>
<g id="a_node17"><a xlink:href="https://github.com/conda-forge/tectonic-feedstock" xlink:title="tectonic">
<ellipse fill="#ff8c00" stroke="black" cx="84.88" cy="-566" rx="51.21" ry="18"/>
<text text-anchor="middle" x="84.88" y="-561.33" font-family="Times,serif" font-size="14.00">tectonic</text>
</a>
</g>
</g>
<!-- r&#45;stringi&#45;&gt;tectonic -->
<!-- texlive&#45;core -->
<g id="node18" class="node">
<title>texlive&#45;core</title>
<g id="a_node18"><a xlink:href="https://github.com/conda-forge/texlive-core-feedstock/pull/95" xlink:title="texlive core ❎">
<ellipse fill="#31688e" stroke="black" cx="84.88" cy="-494" rx="84.88" ry="18"/>
<text text-anchor="middle" x="84.88" y="-489.32" font-family="Times,serif" font-size="14.00" fill="white">texlive core ❎</text>
</a>
</g>
</g>
<!-- tectonic&#45;&gt;texlive&#45;core -->
<!-- uwsgi -->
<g id="node19" class="node">
<title>uwsgi</title>
<g id="a_node19"><a xlink:href="https://github.com/conda-forge/uwsgi-feedstock/pull/83" xlink:title="uwsgi ❎">
<ellipse fill="#31688e" stroke="black" cx="84.88" cy="-422" rx="55.94" ry="18"/>
<text text-anchor="middle" x="84.88" y="-417.32" font-family="Times,serif" font-size="14.00" fill="white">uwsgi ❎</text>
</a>
</g>
</g>
<!-- texlive&#45;core&#45;&gt;uwsgi -->
<!-- tensorflow -->
<g id="node20" class="node">
<title>tensorflow</title>
<g id="a_node20"><a xlink:href="https://github.com/conda-forge/tensorflow-feedstock/pull/397" xlink:title="tensorflow ❎">
<ellipse fill="#31688e" stroke="black" cx="84.88" cy="-350" rx="79.09" ry="18"/>
<text text-anchor="middle" x="84.88" y="-345.32" font-family="Times,serif" font-size="14.00" fill="white">tensorflow ❎</text>
</a>
</g>
</g>
<!-- uwsgi&#45;&gt;tensorflow -->
<!-- ticcutils -->
<g id="node21" class="node">
<title>ticcutils</title>
<g id="a_node21"><a xlink:href="https://github.com/conda-forge/ticcutils-feedstock/pull/34" xlink:title="ticcutils ❎">
<ellipse fill="#31688e" stroke="black" cx="84.88" cy="-278" rx="66.47" ry="18"/>
<text text-anchor="middle" x="84.88" y="-273.32" font-family="Times,serif" font-size="14.00" fill="white">ticcutils ❎</text>
</a>
</g>
</g>
<!-- tensorflow&#45;&gt;ticcutils -->
<!-- scilab -->
<g id="node22" class="node">
<title>scilab</title>
<g id="a_node22"><a xlink:href="https://github.com/conda-forge/scilab-feedstock" xlink:title="scilab">
<ellipse fill="#000000" stroke="black" cx="84.88" cy="-206" rx="40.16" ry="18"/>
<text text-anchor="middle" x="84.88" y="-201.32" font-family="Times,serif" font-size="14.00" fill="white">scilab</text>
</a>
</g>
</g>
<!-- ticcutils&#45;&gt;scilab -->
<!-- libical -->
<g id="node23" class="node">
<title>libical</title>
<g id="a_node23"><a xlink:href="https://github.com/conda-forge/libical-feedstock/pull/27" xlink:title="libical ❎">
<ellipse fill="#31688e" stroke="black" cx="84.88" cy="-162" rx="56.47" ry="18"/>
<text text-anchor="middle" x="84.88" y="-157.32" font-family="Times,serif" font-size="14.00" fill="white">libical ❎</text>
</a>
</g>
</g>
<!-- libxmlsec1 -->
<g id="node24" class="node">
<title>libxmlsec1</title>
<g id="a_node24"><a xlink:href="https://github.com/conda-forge/libxmlsec1-feedstock/pull/34" xlink:title="libxmlsec1 ❎">
<ellipse fill="#31688e" stroke="black" cx="84.88" cy="-90" rx="80.14" ry="18"/>
<text text-anchor="middle" x="84.88" y="-85.33" font-family="Times,serif" font-size="14.00" fill="white">libxmlsec1 ❎</text>
</a>
</g>
</g>
<!-- libical&#45;&gt;libxmlsec1 -->
<!-- couchdb -->
<g id="node27" class="node">
<title>couchdb</title>
<g id="a_node27"><a xlink:href="https://github.com/conda-forge/couchdb-feedstock" xlink:title="couchdb">
<ellipse fill="#ff8c00" stroke="black" cx="84.88" cy="-18" rx="52.79" ry="18"/>
<text text-anchor="middle" x="84.88" y="-13.32" font-family="Times,serif" font-size="14.00">couchdb</text>
</a>
</g>
</g>
<!-- libxmlsec1&#45;&gt;couchdb -->
<!-- libv8 -->
<g id="node25" class="node">
<title>libv8</title>
<g id="a_node25"><a xlink:href="https://github.com/conda-forge/libv8-feedstock/pull/85" xlink:title="libv8 ❎">
<ellipse fill="#31688e" stroke="black" cx="435.88" cy="-126" rx="51.21" ry="18"/>
<text text-anchor="middle" x="435.88" y="-121.33" font-family="Times,serif" font-size="14.00" fill="white">libv8 ❎</text>
</a>
</g>
</g>
<!-- r&#45;v8 -->
<g id="node26" class="node">
<title>r&#45;v8</title>
<g id="a_node26"><a xlink:href="https://github.com/conda-forge/r-v8-feedstock" xlink:title="r v8">
<ellipse fill="#fde725" stroke="black" cx="435.88" cy="-54" rx="31.22" ry="18"/>
<text text-anchor="middle" x="435.88" y="-49.33" font-family="Times,serif" font-size="14.00">r v8</text>
</a>
</g>
</g>
<!-- libv8&#45;&gt;r&#45;v8 -->
<g id="edge23" class="edge">
<title>libv8&#45;&gt;r&#45;v8</title>
<path fill="none" stroke="black" d="M435.88,-107.7C435.88,-100.41 435.88,-91.73 435.88,-83.54"/>
<polygon fill="black" stroke="black" points="439.38,-83.62 435.88,-73.62 432.38,-83.62 439.38,-83.62"/>
</g>
</g>
</svg>
