<?xml version="1.0" encoding="UTF-8" standalone="no"?>
<!DOCTYPE svg PUBLIC "-//W3C//DTD SVG 1.1//EN"
 "http://www.w3.org/Graphics/SVG/1.1/DTD/svg11.dtd">
<!-- Generated by graphviz version 11.0.0 (20240519.1550)
 -->
<!-- Pages: 1 -->
<svg width="2125pt" height="476pt"
 viewBox="0.00 0.00 2124.93 476.00" xmlns="http://www.w3.org/2000/svg" xmlns:xlink="http://www.w3.org/1999/xlink">
<g id="graph0" class="graph" transform="scale(1 1) rotate(0) translate(4 472)">
<polygon fill="white" stroke="none" points="-4,4 -4,-472 2120.93,-472 2120.93,4 -4,4"/>
<!-- boost -->
<g id="node1" class="node">
<title>boost</title>
<g id="a_node1"><a xlink:href="https://github.com/conda-forge/boost-feedstock/pull/209" xlink:title="boost ❎">
<ellipse fill="#31688e" stroke="black" cx="1486.21" cy="-378" rx="53.84" ry="18"/>
<text text-anchor="middle" x="1486.21" y="-373.32" font-family="Times,serif" font-size="14.00" fill="white">boost ❎</text>
</a>
</g>
</g>
<!-- paraview -->
<g id="node2" class="node">
<title>paraview</title>
<g id="a_node2"><a xlink:href="https://github.com/conda-forge/paraview-feedstock" xlink:title="paraview">
<ellipse fill="#fde725" stroke="black" cx="1344.21" cy="-306" rx="57" ry="18"/>
<text text-anchor="middle" x="1344.21" y="-301.32" font-family="Times,serif" font-size="14.00">paraview</text>
</a>
</g>
</g>
<!-- boost&#45;&gt;paraview -->
<g id="edge1" class="edge">
<title>boost&#45;&gt;paraview</title>
<path fill="none" stroke="black" d="M1456.79,-362.5C1435.79,-352.15 1407.31,-338.11 1384.25,-326.74"/>
<polygon fill="black" stroke="black" points="1385.96,-323.68 1375.44,-322.4 1382.86,-329.96 1385.96,-323.68"/>
</g>
<!-- qgis -->
<g id="node3" class="node">
<title>qgis</title>
<g id="a_node3"><a xlink:href="https://github.com/conda-forge/qgis-feedstock" xlink:title="qgis">
<ellipse fill="#fde725" stroke="black" cx="818.21" cy="-162" rx="32.27" ry="18"/>
<text text-anchor="middle" x="818.21" y="-157.32" font-family="Times,serif" font-size="14.00">qgis</text>
</a>
</g>
</g>
<!-- boost&#45;&gt;qgis -->
<g id="edge2" class="edge">
<title>boost&#45;&gt;qgis</title>
<path fill="none" stroke="black" d="M1486.96,-359.54C1487.37,-325.79 1482.92,-251.78 1439.21,-216 1439.21,-216 1002.36,-178.72 861.45,-166.69"/>
<polygon fill="black" stroke="black" points="862.06,-163.23 851.8,-165.87 861.46,-170.2 862.06,-163.23"/>
</g>
<!-- clickhouse&#45;odbc -->
<g id="node4" class="node">
<title>clickhouse&#45;odbc</title>
<g id="a_node4"><a xlink:href="https://github.com/conda-forge/clickhouse-odbc-feedstock" xlink:title="clickhouse odbc">
<ellipse fill="#fde725" stroke="black" cx="1623.21" cy="-306" rx="90.14" ry="18"/>
<text text-anchor="middle" x="1623.21" y="-301.32" font-family="Times,serif" font-size="14.00">clickhouse odbc</text>
</a>
</g>
</g>
<!-- boost&#45;&gt;clickhouse&#45;odbc -->
<g id="edge3" class="edge">
<title>boost&#45;&gt;clickhouse&#45;odbc</title>
<path fill="none" stroke="black" d="M1514.93,-362.33C1534.21,-352.47 1559.93,-339.33 1581.47,-328.33"/>
<polygon fill="black" stroke="black" points="1583,-331.48 1590.31,-323.81 1579.81,-325.24 1583,-331.48"/>
</g>
<!-- mongodb -->
<g id="node5" class="node">
<title>mongodb</title>
<g id="a_node5"><a xlink:href="https://github.com/conda-forge/mongodb-feedstock" xlink:title="mongodb">
<ellipse fill="#fde725" stroke="black" cx="1553.21" cy="-234" rx="57.52" ry="18"/>
<text text-anchor="middle" x="1553.21" y="-229.32" font-family="Times,serif" font-size="14.00">mongodb</text>
</a>
</g>
</g>
<!-- boost&#45;&gt;mongodb -->
<g id="edge4" class="edge">
<title>boost&#45;&gt;mongodb</title>
<path fill="none" stroke="black" d="M1493.01,-359.72C1500.26,-341.62 1512.32,-312.48 1524.21,-288 1528.4,-279.38 1533.29,-270.15 1537.85,-261.86"/>
<polygon fill="black" stroke="black" points="1540.82,-263.72 1542.64,-253.29 1534.71,-260.31 1540.82,-263.72"/>
</g>
<!-- topologytoolkit -->
<g id="node6" class="node">
<title>topologytoolkit</title>
<g id="a_node6"><a xlink:href="https://github.com/conda-forge/topologytoolkit-feedstock" xlink:title="topologytoolkit">
<ellipse fill="#fde725" stroke="black" cx="1344.21" cy="-234" rx="86.46" ry="18"/>
<text text-anchor="middle" x="1344.21" y="-229.32" font-family="Times,serif" font-size="14.00">topologytoolkit</text>
</a>
</g>
</g>
<!-- boost&#45;&gt;topologytoolkit -->
<g id="edge5" class="edge">
<title>boost&#45;&gt;topologytoolkit</title>
<path fill="none" stroke="black" d="M1473.35,-360.11C1458.89,-341.57 1434.27,-311.35 1410.21,-288 1399.66,-277.77 1387.28,-267.44 1376.11,-258.66"/>
<polygon fill="black" stroke="black" points="1378.33,-255.95 1368.28,-252.6 1374.05,-261.49 1378.33,-255.95"/>
</g>
<!-- odil -->
<g id="node7" class="node">
<title>odil</title>
<g id="a_node7"><a xlink:href="https://github.com/conda-forge/odil-feedstock" xlink:title="odil">
<ellipse fill="#fde725" stroke="black" cx="1741.21" cy="-162" rx="29.64" ry="18"/>
<text text-anchor="middle" x="1741.21" y="-157.32" font-family="Times,serif" font-size="14.00">odil</text>
</a>
</g>
</g>
<!-- boost&#45;&gt;odil -->
<g id="edge6" class="edge">
<title>boost&#45;&gt;odil</title>
<path fill="none" stroke="black" d="M1537.68,-372.32C1599.52,-365.57 1697.99,-350.86 1722.21,-324 1754.89,-287.75 1752.01,-226.74 1746.76,-191.15"/>
<polygon fill="black" stroke="black" points="1750.27,-190.91 1745.18,-181.62 1743.36,-192.05 1750.27,-190.91"/>
</g>
<!-- paraview&#45;&gt;topologytoolkit -->
<g id="edge7" class="edge">
<title>paraview&#45;&gt;topologytoolkit</title>
<path fill="none" stroke="black" d="M1344.21,-287.7C1344.21,-280.41 1344.21,-271.73 1344.21,-263.54"/>
<polygon fill="black" stroke="black" points="1347.71,-263.62 1344.21,-253.62 1340.71,-263.62 1347.71,-263.62"/>
</g>
<!-- cairo -->
<g id="node8" class="node">
<title>cairo</title>
<g id="a_node8"><a xlink:href="https://github.com/conda-forge/cairo-feedstock/pull/77" xlink:title="cairo ✓">
<ellipse fill="#31688e" stroke="black" cx="298.21" cy="-450" rx="43.84" ry="18"/>
<text text-anchor="middle" x="298.21" y="-445.32" font-family="Times,serif" font-size="14.00" fill="white">cairo ✓</text>
</a>
</g>
</g>
<!-- harfbuzz -->
<g id="node9" class="node">
<title>harfbuzz</title>
<g id="a_node9"><a xlink:href="https://github.com/conda-forge/harfbuzz-feedstock" xlink:title="harfbuzz">
<ellipse fill="#fde725" stroke="black" cx="353.21" cy="-378" rx="54.89" ry="18"/>
<text text-anchor="middle" x="353.21" y="-373.32" font-family="Times,serif" font-size="14.00">harfbuzz</text>
</a>
</g>
</g>
<!-- cairo&#45;&gt;harfbuzz -->
<g id="edge8" class="edge">
<title>cairo&#45;&gt;harfbuzz</title>
<path fill="none" stroke="black" d="M311.24,-432.41C317.72,-424.16 325.7,-414.01 332.96,-404.78"/>
<polygon fill="black" stroke="black" points="335.52,-407.17 338.95,-397.15 330.02,-402.85 335.52,-407.17"/>
</g>
<!-- r&#45;base -->
<g id="node10" class="node">
<title>r&#45;base</title>
<g id="a_node10"><a xlink:href="https://github.com/conda-forge/r-base-feedstock" xlink:title="r base">
<ellipse fill="#fde725" stroke="black" cx="516.21" cy="-306" rx="42.26" ry="18"/>
<text text-anchor="middle" x="516.21" y="-301.32" font-family="Times,serif" font-size="14.00">r base</text>
</a>
</g>
</g>
<!-- cairo&#45;&gt;r&#45;base -->
<g id="edge9" class="edge">
<title>cairo&#45;&gt;r&#45;base</title>
<path fill="none" stroke="black" d="M330.92,-437.62C355.65,-428.28 389.89,-413.73 417.21,-396 445.92,-377.37 474.54,-350.51 493.57,-331.18"/>
<polygon fill="black" stroke="black" points="495.86,-333.85 500.3,-324.23 490.83,-328.98 495.86,-333.85"/>
</g>
<!-- r&#45;cairo -->
<g id="node11" class="node">
<title>r&#45;cairo</title>
<g id="a_node11"><a xlink:href="https://github.com/conda-forge/r-cairo-feedstock" xlink:title="r cairo">
<ellipse fill="#fde725" stroke="black" cx="326.21" cy="-234" rx="43.84" ry="18"/>
<text text-anchor="middle" x="326.21" y="-229.32" font-family="Times,serif" font-size="14.00">r cairo</text>
</a>
</g>
</g>
<!-- cairo&#45;&gt;r&#45;cairo -->
<g id="edge10" class="edge">
<title>cairo&#45;&gt;r&#45;cairo</title>
<path fill="none" stroke="black" d="M269.31,-436.08C214.53,-409.8 104.86,-347.57 149.21,-288 164.29,-267.74 227.82,-252.34 274.47,-243.5"/>
<polygon fill="black" stroke="black" points="274.94,-246.97 284.14,-241.72 273.67,-240.09 274.94,-246.97"/>
</g>
<!-- texlive&#45;core -->
<g id="node12" class="node">
<title>texlive&#45;core</title>
<g id="a_node12"><a xlink:href="https://github.com/conda-forge/texlive-core-feedstock" xlink:title="texlive core">
<ellipse fill="#fde725" stroke="black" cx="228.21" cy="-306" rx="69.62" ry="18"/>
<text text-anchor="middle" x="228.21" y="-301.32" font-family="Times,serif" font-size="14.00">texlive core</text>
</a>
</g>
</g>
<!-- cairo&#45;&gt;texlive&#45;core -->
<g id="edge11" class="edge">
<title>cairo&#45;&gt;texlive&#45;core</title>
<path fill="none" stroke="black" d="M289.76,-431.87C277.83,-407.67 255.92,-363.21 241.71,-334.39"/>
<polygon fill="black" stroke="black" points="244.91,-332.97 237.35,-325.55 238.63,-336.06 244.91,-332.97"/>
</g>
<!-- harfbuzz&#45;&gt;r&#45;base -->
<g id="edge12" class="edge">
<title>harfbuzz&#45;&gt;r&#45;base</title>
<path fill="none" stroke="black" d="M385.41,-363.17C411.66,-351.9 448.82,-335.94 476.83,-323.91"/>
<polygon fill="black" stroke="black" points="477.88,-327.27 485.69,-320.11 475.12,-320.84 477.88,-327.27"/>
</g>
<!-- harfbuzz&#45;&gt;r&#45;cairo -->
<g id="edge13" class="edge">
<title>harfbuzz&#45;&gt;r&#45;cairo</title>
<path fill="none" stroke="black" d="M349.9,-359.59C345.34,-335.61 337.07,-292.14 331.61,-263.42"/>
<polygon fill="black" stroke="black" points="335.05,-262.77 329.74,-253.6 328.17,-264.08 335.05,-262.77"/>
</g>
<!-- harfbuzz&#45;&gt;texlive&#45;core -->
<g id="edge14" class="edge">
<title>harfbuzz&#45;&gt;texlive&#45;core</title>
<path fill="none" stroke="black" d="M326.39,-361.98C308.8,-352.13 285.53,-339.1 266.06,-328.2"/>
<polygon fill="black" stroke="black" points="268.04,-325.29 257.6,-323.46 264.62,-331.4 268.04,-325.29"/>
</g>
<!-- tectonic -->
<g id="node13" class="node">
<title>tectonic</title>
<g id="a_node13"><a xlink:href="https://github.com/conda-forge/tectonic-feedstock" xlink:title="tectonic">
<ellipse fill="#fde725" stroke="black" cx="405.21" cy="-306" rx="51.21" ry="18"/>
<text text-anchor="middle" x="405.21" y="-301.32" font-family="Times,serif" font-size="14.00">tectonic</text>
</a>
</g>
</g>
<!-- harfbuzz&#45;&gt;tectonic -->
<g id="edge15" class="edge">
<title>harfbuzz&#45;&gt;tectonic</title>
<path fill="none" stroke="black" d="M365.8,-360.05C371.86,-351.89 379.27,-341.91 386.02,-332.82"/>
<polygon fill="black" stroke="black" points="388.68,-335.12 391.83,-325 383.06,-330.94 388.68,-335.12"/>
</g>
<!-- qt&#45;main -->
<g id="node14" class="node">
<title>qt&#45;main</title>
<g id="a_node14"><a xlink:href="https://github.com/conda-forge/qt-main-feedstock" xlink:title="qt main">
<ellipse fill="#fde725" stroke="black" cx="626.21" cy="-306" rx="49.63" ry="18"/>
<text text-anchor="middle" x="626.21" y="-301.32" font-family="Times,serif" font-size="14.00">qt main</text>
</a>
</g>
</g>
<!-- harfbuzz&#45;&gt;qt&#45;main -->
<g id="edge16" class="edge">
<title>harfbuzz&#45;&gt;qt&#45;main</title>
<path fill="none" stroke="black" d="M396.78,-366.72C440.11,-356.38 508.42,-339.74 567.21,-324 570.55,-323.11 573.99,-322.16 577.46,-321.2"/>
<polygon fill="black" stroke="black" points="578.36,-324.58 587.04,-318.51 576.47,-317.85 578.36,-324.58"/>
</g>
<!-- r&#45;base&#45;&gt;r&#45;cairo -->
<g id="edge17" class="edge">
<title>r&#45;base&#45;&gt;r&#45;cairo</title>
<path fill="none" stroke="black" d="M484.83,-293.44C453.03,-281.72 403.61,-263.51 368.39,-250.54"/>
<polygon fill="black" stroke="black" points="369.96,-247.39 359.37,-247.22 367.54,-253.96 369.96,-247.39"/>
</g>
<!-- r&#45;stringi -->
<g id="node15" class="node">
<title>r&#45;stringi</title>
<g id="a_node15"><a xlink:href="https://github.com/conda-forge/r-stringi-feedstock" xlink:title="r stringi">
<ellipse fill="#fde725" stroke="black" cx="507.21" cy="-234" rx="52.26" ry="18"/>
<text text-anchor="middle" x="507.21" y="-229.32" font-family="Times,serif" font-size="14.00">r stringi</text>
</a>
</g>
</g>
<!-- r&#45;base&#45;&gt;r&#45;stringi -->
<g id="edge18" class="edge">
<title>r&#45;base&#45;&gt;r&#45;stringi</title>
<path fill="none" stroke="black" d="M513.98,-287.7C513.04,-280.32 511.9,-271.52 510.84,-263.25"/>
<polygon fill="black" stroke="black" points="514.35,-263.08 509.6,-253.61 507.4,-263.97 514.35,-263.08"/>
</g>
<!-- r&#45;v8 -->
<g id="node16" class="node">
<title>r&#45;v8</title>
<g id="a_node16"><a xlink:href="https://github.com/conda-forge/r-v8-feedstock" xlink:title="r v8">
<ellipse fill="#fde725" stroke="black" cx="142.21" cy="-234" rx="31.22" ry="18"/>
<text text-anchor="middle" x="142.21" y="-229.32" font-family="Times,serif" font-size="14.00">r v8</text>
</a>
</g>
</g>
<!-- r&#45;base&#45;&gt;r&#45;v8 -->
<g id="edge19" class="edge">
<title>r&#45;base&#45;&gt;r&#45;v8</title>
<path fill="none" stroke="black" d="M484.61,-293.6C478.24,-291.55 471.55,-289.57 465.21,-288 412.45,-274.97 258.22,-251.82 183.6,-240.95"/>
<polygon fill="black" stroke="black" points="184.23,-237.51 173.83,-239.53 183.23,-244.43 184.23,-237.51"/>
</g>
<!-- qt&#45;main&#45;&gt;qgis -->
<g id="edge20" class="edge">
<title>qt&#45;main&#45;&gt;qgis</title>
<path fill="none" stroke="black" d="M614.94,-288.11C603.56,-268.75 589.83,-236.97 606.21,-216 626.75,-189.69 719.23,-174.51 775.04,-167.59"/>
<polygon fill="black" stroke="black" points="775.34,-171.07 784.85,-166.41 774.51,-164.12 775.34,-171.07"/>
</g>
<!-- octave -->
<g id="node17" class="node">
<title>octave</title>
<g id="a_node17"><a xlink:href="https://github.com/conda-forge/octave-feedstock" xlink:title="octave">
<ellipse fill="#fde725" stroke="black" cx="659.21" cy="-234" rx="43.84" ry="18"/>
<text text-anchor="middle" x="659.21" y="-229.32" font-family="Times,serif" font-size="14.00">octave</text>
</a>
</g>
</g>
<!-- qt&#45;main&#45;&gt;octave -->
<g id="edge21" class="edge">
<title>qt&#45;main&#45;&gt;octave</title>
<path fill="none" stroke="black" d="M634.2,-288.05C637.89,-280.23 642.36,-270.75 646.49,-261.98"/>
<polygon fill="black" stroke="black" points="649.55,-263.7 650.65,-253.16 643.22,-260.71 649.55,-263.7"/>
</g>
<!-- qtwebkit -->
<g id="node18" class="node">
<title>qtwebkit</title>
<g id="a_node18"><a xlink:href="https://github.com/conda-forge/qtwebkit-feedstock" xlink:title="qtwebkit">
<ellipse fill="#fde725" stroke="black" cx="776.21" cy="-234" rx="55.42" ry="18"/>
<text text-anchor="middle" x="776.21" y="-229.32" font-family="Times,serif" font-size="14.00">qtwebkit</text>
</a>
</g>
</g>
<!-- qt&#45;main&#45;&gt;qtwebkit -->
<g id="edge22" class="edge">
<title>qt&#45;main&#45;&gt;qtwebkit</title>
<path fill="none" stroke="black" d="M655.84,-291.17C678.48,-280.61 709.95,-265.92 735.03,-254.22"/>
<polygon fill="black" stroke="black" points="736.39,-257.44 743.97,-250.04 733.43,-251.1 736.39,-257.44"/>
</g>
<!-- qtwebkit&#45;&gt;qgis -->
<g id="edge38" class="edge">
<title>qtwebkit&#45;&gt;qgis</title>
<path fill="none" stroke="black" d="M786.38,-216.05C791.24,-207.94 797.18,-198.04 802.6,-189.01"/>
<polygon fill="black" stroke="black" points="805.5,-190.98 807.65,-180.6 799.5,-187.38 805.5,-190.98"/>
</g>
<!-- kaldi -->
<g id="node19" class="node">
<title>kaldi</title>
<g id="a_node19"><a xlink:href="https://github.com/conda-forge/kaldi-feedstock" xlink:title="kaldi">
<ellipse fill="#fde725" stroke="black" cx="805.21" cy="-306" rx="35.42" ry="18"/>
<text text-anchor="middle" x="805.21" y="-301.32" font-family="Times,serif" font-size="14.00">kaldi</text>
</a>
</g>
</g>
<!-- libgd -->
<g id="node20" class="node">
<title>libgd</title>
<g id="a_node20"><a xlink:href="https://github.com/conda-forge/libgd-feedstock/pull/54" xlink:title="libgd ✓">
<ellipse fill="#31688e" stroke="black" cx="1862.21" cy="-414" rx="44.37" ry="18"/>
<text text-anchor="middle" x="1862.21" y="-409.32" font-family="Times,serif" font-size="14.00" fill="white">libgd ✓</text>
</a>
</g>
</g>
<!-- nodejs -->
<g id="node21" class="node">
<title>nodejs</title>
<g id="a_node21"><a xlink:href="https://github.com/conda-forge/nodejs-feedstock" xlink:title="nodejs">
<ellipse fill="#fde725" stroke="black" cx="1862.21" cy="-342" rx="43.84" ry="18"/>
<text text-anchor="middle" x="1862.21" y="-337.32" font-family="Times,serif" font-size="14.00">nodejs</text>
</a>
</g>
</g>
<!-- libgd&#45;&gt;nodejs -->
<!-- xerces&#45;c -->
<g id="node30" class="node">
<title>xerces&#45;c</title>
<g id="a_node30"><a xlink:href="https://github.com/conda-forge/xerces-c-feedstock/pull/39" xlink:title="xerces c ✓">
<ellipse fill="#31688e" stroke="black" cx="1862.21" cy="-270" rx="60.15" ry="18"/>
<text text-anchor="middle" x="1862.21" y="-265.32" font-family="Times,serif" font-size="14.00" fill="white">xerces c ✓</text>
</a>
</g>
</g>
<!-- nodejs&#45;&gt;xerces&#45;c -->
<!-- libxml2 -->
<g id="node22" class="node">
<title>libxml2</title>
<g id="a_node22"><a xlink:href="https://github.com/conda-forge/libxml2-feedstock/pull/130" xlink:title="libxml2 ✓">
<ellipse fill="#31688e" stroke="black" cx="971.21" cy="-378" rx="56.47" ry="18"/>
<text text-anchor="middle" x="971.21" y="-373.32" font-family="Times,serif" font-size="14.00" fill="white">libxml2 ✓</text>
</a>
</g>
</g>
<!-- libxml2&#45;&gt;paraview -->
<g id="edge24" class="edge">
<title>libxml2&#45;&gt;paraview</title>
<path fill="none" stroke="black" d="M1021.08,-369.21C1081.11,-359.61 1184.86,-342.31 1273.21,-324 1278.44,-322.92 1283.87,-321.73 1289.3,-320.5"/>
<polygon fill="black" stroke="black" points="1289.94,-323.94 1298.89,-318.28 1288.36,-317.12 1289.94,-323.94"/>
</g>
<!-- libxml2&#45;&gt;qgis -->
<g id="edge25" class="edge">
<title>libxml2&#45;&gt;qgis</title>
<path fill="none" stroke="black" d="M939.54,-362.88C922.21,-353.83 901.42,-340.66 887.21,-324 884.89,-321.28 848.74,-235.67 829.72,-190.42"/>
<polygon fill="black" stroke="black" points="832.97,-189.12 825.87,-181.26 826.51,-191.84 832.97,-189.12"/>
</g>
<!-- libxml2&#45;&gt;topologytoolkit -->
<g id="edge26" class="edge">
<title>libxml2&#45;&gt;topologytoolkit</title>
<path fill="none" stroke="black" d="M1026.55,-373.86C1081.78,-368.94 1167.88,-356.32 1235.21,-324 1257.68,-313.21 1258.93,-303.8 1278.21,-288 1289.95,-278.37 1302.98,-267.87 1314.33,-258.78"/>
<polygon fill="black" stroke="black" points="1316.21,-261.76 1321.83,-252.78 1311.84,-256.29 1316.21,-261.76"/>
</g>
<!-- libxml2&#45;&gt;r&#45;base -->
<g id="edge27" class="edge">
<title>libxml2&#45;&gt;r&#45;base</title>
<path fill="none" stroke="black" d="M916.38,-373.15C838.13,-366.91 690.26,-352.31 567.21,-324 564.28,-323.33 561.29,-322.55 558.28,-321.72"/>
<polygon fill="black" stroke="black" points="559.53,-318.44 548.95,-318.91 557.52,-325.14 559.53,-318.44"/>
</g>
<!-- libxml2&#45;&gt;qt&#45;main -->
<g id="edge28" class="edge">
<title>libxml2&#45;&gt;qt&#45;main</title>
<path fill="none" stroke="black" d="M922,-368.84C865.72,-359.25 770.94,-342.31 690.21,-324 685.41,-322.91 680.43,-321.71 675.46,-320.47"/>
<polygon fill="black" stroke="black" points="676.7,-317.17 666.14,-318.08 674.96,-323.96 676.7,-317.17"/>
</g>
<!-- libxml2&#45;&gt;octave -->
<g id="edge30" class="edge">
<title>libxml2&#45;&gt;octave</title>
<path fill="none" stroke="black" d="M917.13,-372.35C870.25,-366.45 801.86,-353.25 749.21,-324 720.68,-308.15 694.97,-280.75 678.4,-260.52"/>
<polygon fill="black" stroke="black" points="681.16,-258.36 672.19,-252.71 675.68,-262.72 681.16,-258.36"/>
</g>
<!-- libxml2&#45;&gt;qtwebkit -->
<g id="edge32" class="edge">
<title>libxml2&#45;&gt;qtwebkit</title>
<path fill="none" stroke="black" d="M918.45,-371.05C862.74,-363.55 780.36,-348.58 761.21,-324 747.62,-306.56 753.57,-281.31 761.64,-262.15"/>
<polygon fill="black" stroke="black" points="764.7,-263.87 765.74,-253.33 758.35,-260.93 764.7,-263.87"/>
</g>
<!-- libxml2&#45;&gt;kaldi -->
<g id="edge29" class="edge">
<title>libxml2&#45;&gt;kaldi</title>
<path fill="none" stroke="black" d="M938.01,-363C910.33,-351.33 870.91,-334.71 842.21,-322.6"/>
<polygon fill="black" stroke="black" points="843.75,-319.46 833.18,-318.8 841.03,-325.91 843.75,-319.46"/>
</g>
<!-- uwsgi -->
<g id="node23" class="node">
<title>uwsgi</title>
<g id="a_node23"><a xlink:href="https://github.com/conda-forge/uwsgi-feedstock" xlink:title="uwsgi">
<ellipse fill="#fde725" stroke="black" cx="928.21" cy="-234" rx="40.69" ry="18"/>
<text text-anchor="middle" x="928.21" y="-229.32" font-family="Times,serif" font-size="14.00">uwsgi</text>
</a>
</g>
</g>
<!-- libxml2&#45;&gt;uwsgi -->
<g id="edge31" class="edge">
<title>libxml2&#45;&gt;uwsgi</title>
<path fill="none" stroke="black" d="M979.98,-359.89C988.18,-341.43 997.69,-311.51 987.21,-288 981.57,-275.36 971.26,-264.47 960.82,-255.91"/>
<polygon fill="black" stroke="black" points="963,-253.17 952.92,-249.91 958.77,-258.75 963,-253.17"/>
</g>
<!-- tensorflow -->
<g id="node24" class="node">
<title>tensorflow</title>
<g id="a_node24"><a xlink:href="https://github.com/conda-forge/tensorflow-feedstock" xlink:title="tensorflow">
<ellipse fill="#fde725" stroke="black" cx="1091.21" cy="-162" rx="63.84" ry="18"/>
<text text-anchor="middle" x="1091.21" y="-157.32" font-family="Times,serif" font-size="14.00">tensorflow</text>
</a>
</g>
</g>
<!-- libxml2&#45;&gt;tensorflow -->
<g id="edge33" class="edge">
<title>libxml2&#45;&gt;tensorflow</title>
<path fill="none" stroke="black" d="M1002.36,-362.62C1039.76,-343.41 1100.63,-305.49 1126.21,-252 1136.12,-231.27 1125.09,-206.95 1112.86,-188.97"/>
<polygon fill="black" stroke="black" points="1115.7,-186.92 1106.97,-180.92 1110.05,-191.06 1115.7,-186.92"/>
</g>
<!-- ticcutils -->
<g id="node25" class="node">
<title>ticcutils</title>
<g id="a_node25"><a xlink:href="https://github.com/conda-forge/ticcutils-feedstock" xlink:title="ticcutils">
<ellipse fill="#fde725" stroke="black" cx="1142.21" cy="-90" rx="51.21" ry="18"/>
<text text-anchor="middle" x="1142.21" y="-85.33" font-family="Times,serif" font-size="14.00">ticcutils</text>
</a>
</g>
</g>
<!-- libxml2&#45;&gt;ticcutils -->
<g id="edge34" class="edge">
<title>libxml2&#45;&gt;ticcutils</title>
<path fill="none" stroke="black" d="M1014.47,-366.03C1040.6,-357.76 1073.35,-344.3 1097.21,-324 1125.94,-299.54 1126.56,-286.34 1142.21,-252 1162.52,-207.42 1173.78,-192.04 1164.21,-144 1162.49,-135.4 1159.36,-126.45 1155.98,-118.41"/>
<polygon fill="black" stroke="black" points="1159.27,-117.17 1151.96,-109.5 1152.89,-120.05 1159.27,-117.17"/>
</g>
<!-- scilab -->
<g id="node26" class="node">
<title>scilab</title>
<g id="a_node26"><a xlink:href="https://github.com/conda-forge/scilab-feedstock" xlink:title="scilab">
<ellipse fill="#fde725" stroke="black" cx="1221.21" cy="-18" rx="40.16" ry="18"/>
<text text-anchor="middle" x="1221.21" y="-13.32" font-family="Times,serif" font-size="14.00">scilab</text>
</a>
</g>
</g>
<!-- libxml2&#45;&gt;scilab -->
<g id="edge35" class="edge">
<title>libxml2&#45;&gt;scilab</title>
<path fill="none" stroke="black" d="M1023.31,-370.79C1096.58,-358.83 1221.21,-325.22 1221.21,-235 1221.21,-235 1221.21,-235 1221.21,-161 1221.21,-121.74 1221.21,-76.38 1221.21,-47.69"/>
<polygon fill="black" stroke="black" points="1224.71,-48 1221.21,-38 1217.71,-48 1224.71,-48"/>
</g>
<!-- libical -->
<g id="node27" class="node">
<title>libical</title>
<g id="a_node27"><a xlink:href="https://github.com/conda-forge/libical-feedstock" xlink:title="libical">
<ellipse fill="#fde725" stroke="black" cx="937.21" cy="-306" rx="41.21" ry="18"/>
<text text-anchor="middle" x="937.21" y="-301.32" font-family="Times,serif" font-size="14.00">libical</text>
</a>
</g>
</g>
<!-- libxml2&#45;&gt;libical -->
<g id="edge36" class="edge">
<title>libxml2&#45;&gt;libical</title>
<path fill="none" stroke="black" d="M962.98,-360.05C959.18,-352.23 954.57,-342.75 950.31,-333.98"/>
<polygon fill="black" stroke="black" points="953.54,-332.62 946.02,-325.15 947.24,-335.67 953.54,-332.62"/>
</g>
<!-- libxmlsec1 -->
<g id="node28" class="node">
<title>libxmlsec1</title>
<g id="a_node28"><a xlink:href="https://github.com/conda-forge/libxmlsec1-feedstock" xlink:title="libxmlsec1">
<ellipse fill="#fde725" stroke="black" cx="1052.21" cy="-234" rx="64.89" ry="18"/>
<text text-anchor="middle" x="1052.21" y="-229.32" font-family="Times,serif" font-size="14.00">libxmlsec1</text>
</a>
</g>
</g>
<!-- libxml2&#45;&gt;libxmlsec1 -->
<g id="edge37" class="edge">
<title>libxml2&#45;&gt;libxmlsec1</title>
<path fill="none" stroke="black" d="M982.18,-359.98C988.74,-349.66 997.14,-336.19 1004.21,-324 1016.14,-303.44 1028.88,-279.72 1038.23,-261.95"/>
<polygon fill="black" stroke="black" points="1041.08,-264.06 1042.62,-253.58 1034.88,-260.81 1041.08,-264.06"/>
</g>
<!-- mysql -->
<g id="node29" class="node">
<title>mysql</title>
<g id="a_node29"><a xlink:href="https://github.com/conda-forge/mysql-feedstock/pull/99" xlink:title="mysql ❎">
<ellipse fill="#31688e" stroke="black" cx="626.21" cy="-378" rx="56.47" ry="18"/>
<text text-anchor="middle" x="626.21" y="-373.32" font-family="Times,serif" font-size="14.00" fill="white">mysql ❎</text>
</a>
</g>
</g>
<!-- mysql&#45;&gt;qt&#45;main -->
<g id="edge39" class="edge">
<title>mysql&#45;&gt;qt&#45;main</title>
<path fill="none" stroke="black" d="M626.21,-359.7C626.21,-352.41 626.21,-343.73 626.21,-335.54"/>
<polygon fill="black" stroke="black" points="629.71,-335.62 626.21,-325.62 622.71,-335.62 629.71,-335.62"/>
</g>
<!-- pyicu -->
<g id="node31" class="node">
<title>pyicu</title>
<g id="a_node31"><a xlink:href="https://github.com/conda-forge/pyicu-feedstock" xlink:title="pyicu">
<ellipse fill="#ff8c00" stroke="black" cx="1862.21" cy="-198" rx="38.06" ry="18"/>
<text text-anchor="middle" x="1862.21" y="-193.32" font-family="Times,serif" font-size="14.00">pyicu</text>
</a>
</g>
</g>
<!-- xerces&#45;c&#45;&gt;pyicu -->
<!-- baumwelch -->
<g id="node32" class="node">
<title>baumwelch</title>
<g id="a_node32"><a xlink:href="https://github.com/conda-forge/baumwelch-feedstock/pull/21" xlink:title="baumwelch ❎">
<ellipse fill="#31688e" stroke="black" cx="1862.21" cy="-126" rx="83.3" ry="18"/>
<text text-anchor="middle" x="1862.21" y="-121.33" font-family="Times,serif" font-size="14.00" fill="white">baumwelch ❎</text>
</a>
</g>
</g>
<!-- pyicu&#45;&gt;baumwelch -->
<!-- libmongoc -->
<g id="node34" class="node">
<title>libmongoc</title>
<g id="a_node34"><a xlink:href="https://github.com/conda-forge/libmongoc-feedstock/pull/27" xlink:title="libmongoc ❎">
<ellipse fill="#31688e" stroke="black" cx="1862.21" cy="-54" rx="78.04" ry="18"/>
<text text-anchor="middle" x="1862.21" y="-49.33" font-family="Times,serif" font-size="14.00" fill="white">libmongoc ❎</text>
</a>
</g>
</g>
<!-- baumwelch&#45;&gt;libmongoc -->
<!-- libv8 -->
<g id="node33" class="node">
<title>libv8</title>
<g id="a_node33"><a xlink:href="https://github.com/conda-forge/libv8-feedstock/pull/85" xlink:title="libv8 ❎">
<ellipse fill="#31688e" stroke="black" cx="51.21" cy="-306" rx="51.21" ry="18"/>
<text text-anchor="middle" x="51.21" y="-301.32" font-family="Times,serif" font-size="14.00" fill="white">libv8 ❎</text>
</a>
</g>
</g>
<!-- libv8&#45;&gt;r&#45;v8 -->
<g id="edge43" class="edge">
<title>libv8&#45;&gt;r&#45;v8</title>
<path fill="none" stroke="black" d="M71.86,-289.12C84.64,-279.28 101.2,-266.55 115.04,-255.9"/>
<polygon fill="black" stroke="black" points="117.11,-258.72 122.9,-249.85 112.84,-253.17 117.11,-258.72"/>
</g>
<!-- spidermonkey -->
<g id="node35" class="node">
<title>spidermonkey</title>
<g id="a_node35"><a xlink:href="https://github.com/conda-forge/spidermonkey-feedstock" xlink:title="spidermonkey">
<ellipse fill="#35b779" stroke="black" cx="2035.21" cy="-270" rx="81.72" ry="18"/>
<text text-anchor="middle" x="2035.21" y="-265.32" font-family="Times,serif" font-size="14.00">spidermonkey</text>
</a>
</g>
</g>
<!-- couchdb -->
<g id="node36" class="node">
<title>couchdb</title>
<g id="a_node36"><a xlink:href="https://github.com/conda-forge/couchdb-feedstock" xlink:title="couchdb">
<ellipse fill="#fde725" stroke="black" cx="2035.21" cy="-198" rx="52.79" ry="18"/>
<text text-anchor="middle" x="2035.21" y="-193.32" font-family="Times,serif" font-size="14.00">couchdb</text>
</a>
</g>
</g>
<!-- spidermonkey&#45;&gt;couchdb -->
<g id="edge45" class="edge">
<title>spidermonkey&#45;&gt;couchdb</title>
<path fill="none" stroke="black" d="M2035.21,-251.7C2035.21,-244.41 2035.21,-235.73 2035.21,-227.54"/>
<polygon fill="black" stroke="black" points="2038.71,-227.62 2035.21,-217.62 2031.71,-227.62 2038.71,-227.62"/>
</g>
</g>
</svg>
