<?xml version="1.0" encoding="UTF-8" standalone="no"?>
<!DOCTYPE svg PUBLIC "-//W3C//DTD SVG 1.1//EN"
 "http://www.w3.org/Graphics/SVG/1.1/DTD/svg11.dtd">
<!-- Generated by graphviz version 11.0.0 (20240519.1550)
 -->
<!-- Pages: 1 -->
<svg width="2146pt" height="476pt"
 viewBox="0.00 0.00 2146.36 476.00" xmlns="http://www.w3.org/2000/svg" xmlns:xlink="http://www.w3.org/1999/xlink">
<g id="graph0" class="graph" transform="scale(1 1) rotate(0) translate(4 472)">
<polygon fill="white" stroke="none" points="-4,4 -4,-472 2142.36,-472 2142.36,4 -4,4"/>
<!-- boost -->
<g id="node1" class="node">
<title>boost</title>
<g id="a_node1"><a xlink:href="https://github.com/conda-forge/boost-feedstock" xlink:title="boost">
<ellipse fill="#35b779" stroke="black" cx="292.64" cy="-378" rx="38.58" ry="18"/>
<text text-anchor="middle" x="292.64" y="-373.32" font-family="Times,serif" font-size="14.00">boost</text>
</a>
</g>
</g>
<!-- paraview -->
<g id="node2" class="node">
<title>paraview</title>
<g id="a_node2"><a xlink:href="https://github.com/conda-forge/paraview-feedstock" xlink:title="paraview">
<ellipse fill="#fde725" stroke="black" cx="474.64" cy="-306" rx="57" ry="18"/>
<text text-anchor="middle" x="474.64" y="-301.32" font-family="Times,serif" font-size="14.00">paraview</text>
</a>
</g>
</g>
<!-- boost&#45;&gt;paraview -->
<g id="edge1" class="edge">
<title>boost&#45;&gt;paraview</title>
<path fill="none" stroke="black" d="M321.88,-365.75C350.8,-354.63 395.49,-337.44 429.07,-324.53"/>
<polygon fill="black" stroke="black" points="430.06,-327.9 438.14,-321.04 427.55,-321.36 430.06,-327.9"/>
</g>
<!-- qgis -->
<g id="node3" class="node">
<title>qgis</title>
<g id="a_node3"><a xlink:href="https://github.com/conda-forge/qgis-feedstock" xlink:title="qgis">
<ellipse fill="#fde725" stroke="black" cx="1089.64" cy="-162" rx="32.27" ry="18"/>
<text text-anchor="middle" x="1089.64" y="-157.32" font-family="Times,serif" font-size="14.00">qgis</text>
</a>
</g>
</g>
<!-- boost&#45;&gt;qgis -->
<g id="edge2" class="edge">
<title>boost&#45;&gt;qgis</title>
<path fill="none" stroke="black" d="M306.3,-360.99C314.57,-350.82 324.96,-337.14 332.64,-324 359.03,-278.79 336.64,-245.86 379.64,-216 440.78,-173.54 976.05,-196.49 1048.64,-180 1050.78,-179.51 1052.95,-178.92 1055.12,-178.26"/>
<polygon fill="black" stroke="black" points="1056.12,-181.62 1064.38,-174.98 1053.78,-175.02 1056.12,-181.62"/>
</g>
<!-- clickhouse&#45;odbc -->
<g id="node4" class="node">
<title>clickhouse&#45;odbc</title>
<g id="a_node4"><a xlink:href="https://github.com/conda-forge/clickhouse-odbc-feedstock" xlink:title="clickhouse odbc">
<ellipse fill="#fde725" stroke="black" cx="233.64" cy="-306" rx="90.14" ry="18"/>
<text text-anchor="middle" x="233.64" y="-301.32" font-family="Times,serif" font-size="14.00">clickhouse odbc</text>
</a>
</g>
</g>
<!-- boost&#45;&gt;clickhouse&#45;odbc -->
<g id="edge3" class="edge">
<title>boost&#45;&gt;clickhouse&#45;odbc</title>
<path fill="none" stroke="black" d="M278.95,-360.76C271.94,-352.44 263.22,-342.1 255.32,-332.73"/>
<polygon fill="black" stroke="black" points="258.17,-330.67 249.05,-325.28 252.81,-335.18 258.17,-330.67"/>
</g>
<!-- mongodb -->
<g id="node5" class="node">
<title>mongodb</title>
<g id="a_node5"><a xlink:href="https://github.com/conda-forge/mongodb-feedstock" xlink:title="mongodb">
<ellipse fill="#fde725" stroke="black" cx="115.64" cy="-234" rx="57.52" ry="18"/>
<text text-anchor="middle" x="115.64" y="-229.32" font-family="Times,serif" font-size="14.00">mongodb</text>
</a>
</g>
</g>
<!-- boost&#45;&gt;mongodb -->
<g id="edge4" class="edge">
<title>boost&#45;&gt;mongodb</title>
<path fill="none" stroke="black" d="M254.29,-374.64C218.13,-370.3 165.08,-358.1 134.64,-324 120.07,-307.68 115.7,-282.98 114.76,-263.73"/>
<polygon fill="black" stroke="black" points="118.26,-263.75 114.59,-253.81 111.26,-263.87 118.26,-263.75"/>
</g>
<!-- topologytoolkit -->
<g id="node6" class="node">
<title>topologytoolkit</title>
<g id="a_node6"><a xlink:href="https://github.com/conda-forge/topologytoolkit-feedstock" xlink:title="topologytoolkit">
<ellipse fill="#fde725" stroke="black" cx="474.64" cy="-234" rx="86.46" ry="18"/>
<text text-anchor="middle" x="474.64" y="-229.32" font-family="Times,serif" font-size="14.00">topologytoolkit</text>
</a>
</g>
</g>
<!-- boost&#45;&gt;topologytoolkit -->
<g id="edge5" class="edge">
<title>boost&#45;&gt;topologytoolkit</title>
<path fill="none" stroke="black" d="M313.37,-362.52C328.14,-352.07 348.35,-337.49 365.64,-324 385.29,-308.67 389.36,-303.8 408.64,-288 420.38,-278.37 433.4,-267.87 444.76,-258.78"/>
<polygon fill="black" stroke="black" points="446.64,-261.76 452.26,-252.78 442.27,-256.29 446.64,-261.76"/>
</g>
<!-- odil -->
<g id="node7" class="node">
<title>odil</title>
<g id="a_node7"><a xlink:href="https://github.com/conda-forge/odil-feedstock" xlink:title="odil">
<ellipse fill="#fde725" stroke="black" cx="29.64" cy="-162" rx="29.64" ry="18"/>
<text text-anchor="middle" x="29.64" y="-157.32" font-family="Times,serif" font-size="14.00">odil</text>
</a>
</g>
</g>
<!-- boost&#45;&gt;odil -->
<g id="edge6" class="edge">
<title>boost&#45;&gt;odil</title>
<path fill="none" stroke="black" d="M255.93,-372.13C217.94,-365.78 158.06,-351.99 113.64,-324 77.16,-301.02 68.25,-290.39 48.64,-252 39.01,-233.16 34.26,-209.68 31.91,-191.57"/>
<polygon fill="black" stroke="black" points="35.41,-191.34 30.83,-181.79 28.45,-192.11 35.41,-191.34"/>
</g>
<!-- paraview&#45;&gt;topologytoolkit -->
<g id="edge7" class="edge">
<title>paraview&#45;&gt;topologytoolkit</title>
<path fill="none" stroke="black" d="M474.64,-287.7C474.64,-280.41 474.64,-271.73 474.64,-263.54"/>
<polygon fill="black" stroke="black" points="478.14,-263.62 474.64,-253.62 471.14,-263.62 478.14,-263.62"/>
</g>
<!-- cairo -->
<g id="node8" class="node">
<title>cairo</title>
<g id="a_node8"><a xlink:href="https://github.com/conda-forge/cairo-feedstock/pull/77" xlink:title="cairo ✓">
<ellipse fill="#31688e" stroke="black" cx="1592.64" cy="-450" rx="43.84" ry="18"/>
<text text-anchor="middle" x="1592.64" y="-445.32" font-family="Times,serif" font-size="14.00" fill="white">cairo ✓</text>
</a>
</g>
</g>
<!-- harfbuzz -->
<g id="node9" class="node">
<title>harfbuzz</title>
<g id="a_node9"><a xlink:href="https://github.com/conda-forge/harfbuzz-feedstock" xlink:title="harfbuzz">
<ellipse fill="#fde725" stroke="black" cx="1537.64" cy="-378" rx="54.89" ry="18"/>
<text text-anchor="middle" x="1537.64" y="-373.32" font-family="Times,serif" font-size="14.00">harfbuzz</text>
</a>
</g>
</g>
<!-- cairo&#45;&gt;harfbuzz -->
<g id="edge8" class="edge">
<title>cairo&#45;&gt;harfbuzz</title>
<path fill="none" stroke="black" d="M1579.6,-432.41C1573.12,-424.16 1565.14,-414.01 1557.89,-404.78"/>
<polygon fill="black" stroke="black" points="1560.83,-402.85 1551.9,-397.15 1555.32,-407.17 1560.83,-402.85"/>
</g>
<!-- r&#45;base -->
<g id="node10" class="node">
<title>r&#45;base</title>
<g id="a_node10"><a xlink:href="https://github.com/conda-forge/r-base-feedstock" xlink:title="r base">
<ellipse fill="#fde725" stroke="black" cx="1404.64" cy="-306" rx="42.26" ry="18"/>
<text text-anchor="middle" x="1404.64" y="-301.32" font-family="Times,serif" font-size="14.00">r base</text>
</a>
</g>
</g>
<!-- cairo&#45;&gt;r&#45;base -->
<g id="edge9" class="edge">
<title>cairo&#45;&gt;r&#45;base</title>
<path fill="none" stroke="black" d="M1557.89,-438.62C1532.76,-429.96 1498.91,-415.82 1473.64,-396 1451.6,-378.71 1432.62,-352.9 1420.18,-333.52"/>
<polygon fill="black" stroke="black" points="1423.17,-331.71 1414.92,-325.07 1417.23,-335.41 1423.17,-331.71"/>
</g>
<!-- r&#45;cairo -->
<g id="node11" class="node">
<title>r&#45;cairo</title>
<g id="a_node11"><a xlink:href="https://github.com/conda-forge/r-cairo-feedstock" xlink:title="r cairo">
<ellipse fill="#fde725" stroke="black" cx="1537.64" cy="-234" rx="43.84" ry="18"/>
<text text-anchor="middle" x="1537.64" y="-229.32" font-family="Times,serif" font-size="14.00">r cairo</text>
</a>
</g>
</g>
<!-- cairo&#45;&gt;r&#45;cairo -->
<g id="edge10" class="edge">
<title>cairo&#45;&gt;r&#45;cairo</title>
<path fill="none" stroke="black" d="M1624.97,-437.54C1689.33,-412.99 1823.03,-352.33 1771.64,-288 1749.55,-260.35 1653.69,-246.05 1591.72,-239.57"/>
<polygon fill="black" stroke="black" points="1592.38,-236.12 1582.08,-238.6 1591.67,-243.08 1592.38,-236.12"/>
</g>
<!-- texlive&#45;core -->
<g id="node12" class="node">
<title>texlive&#45;core</title>
<g id="a_node12"><a xlink:href="https://github.com/conda-forge/texlive-core-feedstock" xlink:title="texlive core">
<ellipse fill="#fde725" stroke="black" cx="1692.64" cy="-306" rx="69.62" ry="18"/>
<text text-anchor="middle" x="1692.64" y="-301.32" font-family="Times,serif" font-size="14.00">texlive core</text>
</a>
</g>
</g>
<!-- cairo&#45;&gt;texlive&#45;core -->
<g id="edge11" class="edge">
<title>cairo&#45;&gt;texlive&#45;core</title>
<path fill="none" stroke="black" d="M1604.3,-432.43C1621.52,-407.98 1653.9,-362 1674.31,-333.02"/>
<polygon fill="black" stroke="black" points="1676.97,-335.33 1679.86,-325.14 1671.24,-331.3 1676.97,-335.33"/>
</g>
<!-- harfbuzz&#45;&gt;r&#45;base -->
<g id="edge12" class="edge">
<title>harfbuzz&#45;&gt;r&#45;base</title>
<path fill="none" stroke="black" d="M1509.43,-362.15C1489.38,-351.6 1462.28,-337.34 1440.66,-325.96"/>
<polygon fill="black" stroke="black" points="1442.37,-322.9 1431.89,-321.34 1439.11,-329.1 1442.37,-322.9"/>
</g>
<!-- harfbuzz&#45;&gt;r&#45;cairo -->
<g id="edge13" class="edge">
<title>harfbuzz&#45;&gt;r&#45;cairo</title>
<path fill="none" stroke="black" d="M1519.08,-360.84C1509.49,-351.23 1498.75,-338.17 1493.64,-324 1488.2,-308.95 1488.2,-303.05 1493.64,-288 1497.5,-277.31 1504.55,-267.26 1511.9,-258.84"/>
<polygon fill="black" stroke="black" points="1514.21,-261.49 1518.5,-251.81 1509.1,-256.7 1514.21,-261.49"/>
</g>
<!-- harfbuzz&#45;&gt;texlive&#45;core -->
<g id="edge14" class="edge">
<title>harfbuzz&#45;&gt;texlive&#45;core</title>
<path fill="none" stroke="black" d="M1569,-362.83C1591.92,-352.49 1623.28,-338.32 1648.69,-326.85"/>
<polygon fill="black" stroke="black" points="1650.12,-330.04 1657.79,-322.74 1647.24,-323.66 1650.12,-330.04"/>
</g>
<!-- tectonic -->
<g id="node13" class="node">
<title>tectonic</title>
<g id="a_node13"><a xlink:href="https://github.com/conda-forge/tectonic-feedstock" xlink:title="tectonic">
<ellipse fill="#fde725" stroke="black" cx="1553.64" cy="-306" rx="51.21" ry="18"/>
<text text-anchor="middle" x="1553.64" y="-301.32" font-family="Times,serif" font-size="14.00">tectonic</text>
</a>
</g>
</g>
<!-- harfbuzz&#45;&gt;tectonic -->
<g id="edge15" class="edge">
<title>harfbuzz&#45;&gt;tectonic</title>
<path fill="none" stroke="black" d="M1541.59,-359.7C1543.28,-352.32 1545.29,-343.52 1547.18,-335.25"/>
<polygon fill="black" stroke="black" points="1550.57,-336.11 1549.39,-325.58 1543.75,-334.55 1550.57,-336.11"/>
</g>
<!-- qt&#45;main -->
<g id="node14" class="node">
<title>qt&#45;main</title>
<g id="a_node14"><a xlink:href="https://github.com/conda-forge/qt-main-feedstock" xlink:title="qt main">
<ellipse fill="#fde725" stroke="black" cx="1191.64" cy="-306" rx="49.63" ry="18"/>
<text text-anchor="middle" x="1191.64" y="-301.32" font-family="Times,serif" font-size="14.00">qt main</text>
</a>
</g>
</g>
<!-- harfbuzz&#45;&gt;qt&#45;main -->
<g id="edge16" class="edge">
<title>harfbuzz&#45;&gt;qt&#45;main</title>
<path fill="none" stroke="black" d="M1490.49,-368.48C1435.8,-358.47 1342.99,-341.03 1263.64,-324 1256.88,-322.55 1249.78,-320.96 1242.79,-319.35"/>
<polygon fill="black" stroke="black" points="1243.94,-316.02 1233.41,-317.16 1242.36,-322.84 1243.94,-316.02"/>
</g>
<!-- r&#45;base&#45;&gt;r&#45;cairo -->
<g id="edge17" class="edge">
<title>r&#45;base&#45;&gt;r&#45;cairo</title>
<path fill="none" stroke="black" d="M1430.6,-291.34C1450.7,-280.76 1478.79,-265.97 1501.15,-254.2"/>
<polygon fill="black" stroke="black" points="1502.73,-257.33 1509.95,-249.57 1499.47,-251.13 1502.73,-257.33"/>
</g>
<!-- r&#45;stringi -->
<g id="node15" class="node">
<title>r&#45;stringi</title>
<g id="a_node15"><a xlink:href="https://github.com/conda-forge/r-stringi-feedstock" xlink:title="r stringi">
<ellipse fill="#fde725" stroke="black" cx="1423.64" cy="-234" rx="52.26" ry="18"/>
<text text-anchor="middle" x="1423.64" y="-229.32" font-family="Times,serif" font-size="14.00">r stringi</text>
</a>
</g>
</g>
<!-- r&#45;base&#45;&gt;r&#45;stringi -->
<g id="edge18" class="edge">
<title>r&#45;base&#45;&gt;r&#45;stringi</title>
<path fill="none" stroke="black" d="M1409.33,-287.7C1411.36,-280.24 1413.78,-271.32 1416.05,-262.97"/>
<polygon fill="black" stroke="black" points="1419.36,-264.13 1418.6,-253.57 1412.6,-262.3 1419.36,-264.13"/>
</g>
<!-- r&#45;v8 -->
<g id="node16" class="node">
<title>r&#45;v8</title>
<g id="a_node16"><a xlink:href="https://github.com/conda-forge/r-v8-feedstock" xlink:title="r v8">
<ellipse fill="#fde725" stroke="black" cx="1322.64" cy="-234" rx="31.22" ry="18"/>
<text text-anchor="middle" x="1322.64" y="-229.32" font-family="Times,serif" font-size="14.00">r v8</text>
</a>
</g>
</g>
<!-- r&#45;base&#45;&gt;r&#45;v8 -->
<g id="edge19" class="edge">
<title>r&#45;base&#45;&gt;r&#45;v8</title>
<path fill="none" stroke="black" d="M1386.44,-289.46C1375.2,-279.87 1360.61,-267.42 1348.22,-256.84"/>
<polygon fill="black" stroke="black" points="1350.69,-254.35 1340.82,-250.52 1346.15,-259.67 1350.69,-254.35"/>
</g>
<!-- qt&#45;main&#45;&gt;qgis -->
<g id="edge20" class="edge">
<title>qt&#45;main&#45;&gt;qgis</title>
<path fill="none" stroke="black" d="M1212.35,-289.39C1233.89,-271.23 1262.21,-240.58 1244.64,-216 1219.56,-180.93 1169.83,-168.81 1133.44,-164.76"/>
<polygon fill="black" stroke="black" points="1133.93,-161.29 1123.65,-163.84 1133.28,-168.26 1133.93,-161.29"/>
</g>
<!-- octave -->
<g id="node17" class="node">
<title>octave</title>
<g id="a_node17"><a xlink:href="https://github.com/conda-forge/octave-feedstock" xlink:title="octave">
<ellipse fill="#fde725" stroke="black" cx="1191.64" cy="-234" rx="43.84" ry="18"/>
<text text-anchor="middle" x="1191.64" y="-229.32" font-family="Times,serif" font-size="14.00">octave</text>
</a>
</g>
</g>
<!-- qt&#45;main&#45;&gt;octave -->
<g id="edge21" class="edge">
<title>qt&#45;main&#45;&gt;octave</title>
<path fill="none" stroke="black" d="M1191.64,-287.7C1191.64,-280.41 1191.64,-271.73 1191.64,-263.54"/>
<polygon fill="black" stroke="black" points="1195.14,-263.62 1191.64,-253.62 1188.14,-263.62 1195.14,-263.62"/>
</g>
<!-- qtwebkit -->
<g id="node18" class="node">
<title>qtwebkit</title>
<g id="a_node18"><a xlink:href="https://github.com/conda-forge/qtwebkit-feedstock" xlink:title="qtwebkit">
<ellipse fill="#fde725" stroke="black" cx="1074.64" cy="-234" rx="55.42" ry="18"/>
<text text-anchor="middle" x="1074.64" y="-229.32" font-family="Times,serif" font-size="14.00">qtwebkit</text>
</a>
</g>
</g>
<!-- qt&#45;main&#45;&gt;qtwebkit -->
<g id="edge22" class="edge">
<title>qt&#45;main&#45;&gt;qtwebkit</title>
<path fill="none" stroke="black" d="M1166.82,-290.15C1150.3,-280.27 1128.33,-267.12 1109.99,-256.15"/>
<polygon fill="black" stroke="black" points="1111.9,-253.22 1101.52,-251.08 1108.31,-259.22 1111.9,-253.22"/>
</g>
<!-- qtwebkit&#45;&gt;qgis -->
<g id="edge38" class="edge">
<title>qtwebkit&#45;&gt;qgis</title>
<path fill="none" stroke="black" d="M1078.35,-215.7C1079.93,-208.32 1081.81,-199.52 1083.58,-191.25"/>
<polygon fill="black" stroke="black" points="1086.98,-192.1 1085.66,-181.58 1080.14,-190.63 1086.98,-192.1"/>
</g>
<!-- kaldi -->
<g id="node19" class="node">
<title>kaldi</title>
<g id="a_node19"><a xlink:href="https://github.com/conda-forge/kaldi-feedstock" xlink:title="kaldi">
<ellipse fill="#fde725" stroke="black" cx="751.64" cy="-306" rx="35.42" ry="18"/>
<text text-anchor="middle" x="751.64" y="-301.32" font-family="Times,serif" font-size="14.00">kaldi</text>
</a>
</g>
</g>
<!-- libgd -->
<g id="node20" class="node">
<title>libgd</title>
<g id="a_node20"><a xlink:href="https://github.com/conda-forge/libgd-feedstock" xlink:title="libgd">
<ellipse fill="#35b779" stroke="black" cx="1899.64" cy="-414" rx="36.48" ry="18"/>
<text text-anchor="middle" x="1899.64" y="-409.32" font-family="Times,serif" font-size="14.00">libgd</text>
</a>
</g>
</g>
<!-- nodejs -->
<g id="node21" class="node">
<title>nodejs</title>
<g id="a_node21"><a xlink:href="https://github.com/conda-forge/nodejs-feedstock" xlink:title="nodejs">
<ellipse fill="#35b779" stroke="black" cx="1899.64" cy="-342" rx="43.84" ry="18"/>
<text text-anchor="middle" x="1899.64" y="-337.32" font-family="Times,serif" font-size="14.00">nodejs</text>
</a>
</g>
</g>
<!-- libgd&#45;&gt;nodejs -->
<!-- xerces&#45;c -->
<g id="node30" class="node">
<title>xerces&#45;c</title>
<g id="a_node30"><a xlink:href="https://github.com/conda-forge/xerces-c-feedstock" xlink:title="xerces c">
<ellipse fill="#35b779" stroke="black" cx="1899.64" cy="-270" rx="52.26" ry="18"/>
<text text-anchor="middle" x="1899.64" y="-265.32" font-family="Times,serif" font-size="14.00">xerces c</text>
</a>
</g>
</g>
<!-- nodejs&#45;&gt;xerces&#45;c -->
<!-- libxml2 -->
<g id="node22" class="node">
<title>libxml2</title>
<g id="a_node22"><a xlink:href="https://github.com/conda-forge/libxml2-feedstock/pull/130" xlink:title="libxml2 ✓">
<ellipse fill="#31688e" stroke="black" cx="881.64" cy="-378" rx="56.47" ry="18"/>
<text text-anchor="middle" x="881.64" y="-373.32" font-family="Times,serif" font-size="14.00" fill="white">libxml2 ✓</text>
</a>
</g>
</g>
<!-- libxml2&#45;&gt;paraview -->
<g id="edge24" class="edge">
<title>libxml2&#45;&gt;paraview</title>
<path fill="none" stroke="black" d="M830.18,-370.16C764.06,-361.09 645.85,-343.87 545.64,-324 540.32,-322.95 534.8,-321.77 529.29,-320.54"/>
<polygon fill="black" stroke="black" points="530.08,-317.13 519.55,-318.31 528.52,-323.95 530.08,-317.13"/>
</g>
<!-- libxml2&#45;&gt;qgis -->
<g id="edge25" class="edge">
<title>libxml2&#45;&gt;qgis</title>
<path fill="none" stroke="black" d="M907.08,-361.58C921.4,-352.03 938.9,-338.78 951.64,-324 987.35,-282.57 973.76,-256.39 1010.64,-216 1023.7,-201.69 1041.38,-189.37 1056.7,-180.21"/>
<polygon fill="black" stroke="black" points="1058.12,-183.44 1065.04,-175.42 1054.63,-177.37 1058.12,-183.44"/>
</g>
<!-- libxml2&#45;&gt;topologytoolkit -->
<g id="edge26" class="edge">
<title>libxml2&#45;&gt;topologytoolkit</title>
<path fill="none" stroke="black" d="M825.23,-375.57C763.29,-372.08 662.21,-360.66 583.64,-324 561.05,-313.46 559.91,-303.8 540.64,-288 528.89,-278.37 515.87,-267.87 504.52,-258.78"/>
<polygon fill="black" stroke="black" points="507.01,-256.29 497.01,-252.78 502.64,-261.76 507.01,-256.29"/>
</g>
<!-- libxml2&#45;&gt;r&#45;base -->
<g id="edge27" class="edge">
<title>libxml2&#45;&gt;r&#45;base</title>
<path fill="none" stroke="black" d="M935.48,-372.39C1041.76,-363.05 1275.02,-341.32 1353.64,-324 1356.57,-323.35 1359.57,-322.6 1362.58,-321.78"/>
<polygon fill="black" stroke="black" points="1363.33,-325.21 1371.92,-319 1361.34,-318.5 1363.33,-325.21"/>
</g>
<!-- libxml2&#45;&gt;qt&#45;main -->
<g id="edge28" class="edge">
<title>libxml2&#45;&gt;qt&#45;main</title>
<path fill="none" stroke="black" d="M926.71,-366.82C983.19,-354.07 1079.78,-332.26 1139.42,-318.79"/>
<polygon fill="black" stroke="black" points="1140.01,-322.25 1148.99,-316.63 1138.47,-315.42 1140.01,-322.25"/>
</g>
<!-- libxml2&#45;&gt;octave -->
<g id="edge30" class="edge">
<title>libxml2&#45;&gt;octave</title>
<path fill="none" stroke="black" d="M922.6,-365.35C954.34,-355.76 999.07,-341.02 1036.64,-324 1080.89,-303.95 1128.99,-275.14 1159.67,-255.78"/>
<polygon fill="black" stroke="black" points="1161.16,-258.98 1167.72,-250.66 1157.41,-253.08 1161.16,-258.98"/>
</g>
<!-- libxml2&#45;&gt;qtwebkit -->
<g id="edge32" class="edge">
<title>libxml2&#45;&gt;qtwebkit</title>
<path fill="none" stroke="black" d="M922.65,-365.33C948.24,-356.7 980.9,-343.1 1005.64,-324 1027.67,-306.98 1046.54,-281.36 1058.95,-261.97"/>
<polygon fill="black" stroke="black" points="1061.91,-263.83 1064.2,-253.49 1055.96,-260.15 1061.91,-263.83"/>
</g>
<!-- libxml2&#45;&gt;kaldi -->
<g id="edge29" class="edge">
<title>libxml2&#45;&gt;kaldi</title>
<path fill="none" stroke="black" d="M853.75,-361.98C833.62,-351.14 806.34,-336.46 785.05,-324.99"/>
<polygon fill="black" stroke="black" points="786.93,-322.03 776.46,-320.37 783.61,-328.19 786.93,-322.03"/>
</g>
<!-- uwsgi -->
<g id="node23" class="node">
<title>uwsgi</title>
<g id="a_node23"><a xlink:href="https://github.com/conda-forge/uwsgi-feedstock" xlink:title="uwsgi">
<ellipse fill="#fde725" stroke="black" cx="662.64" cy="-234" rx="40.69" ry="18"/>
<text text-anchor="middle" x="662.64" y="-229.32" font-family="Times,serif" font-size="14.00">uwsgi</text>
</a>
</g>
</g>
<!-- libxml2&#45;&gt;uwsgi -->
<g id="edge31" class="edge">
<title>libxml2&#45;&gt;uwsgi</title>
<path fill="none" stroke="black" d="M826.32,-374.07C785.81,-369.14 731.96,-356.41 696.64,-324 679.5,-308.28 670.93,-282.97 666.69,-263.36"/>
<polygon fill="black" stroke="black" points="670.18,-262.97 664.89,-253.79 663.3,-264.26 670.18,-262.97"/>
</g>
<!-- tensorflow -->
<g id="node24" class="node">
<title>tensorflow</title>
<g id="a_node24"><a xlink:href="https://github.com/conda-forge/tensorflow-feedstock" xlink:title="tensorflow">
<ellipse fill="#fde725" stroke="black" cx="975.64" cy="-162" rx="63.84" ry="18"/>
<text text-anchor="middle" x="975.64" y="-157.32" font-family="Times,serif" font-size="14.00">tensorflow</text>
</a>
</g>
</g>
<!-- libxml2&#45;&gt;tensorflow -->
<g id="edge33" class="edge">
<title>libxml2&#45;&gt;tensorflow</title>
<path fill="none" stroke="black" d="M899.85,-360.92C909.92,-351.14 921.92,-337.89 929.64,-324 953.4,-281.23 965.8,-225.09 971.51,-191.66"/>
<polygon fill="black" stroke="black" points="974.94,-192.37 973.08,-181.94 968.03,-191.25 974.94,-192.37"/>
</g>
<!-- ticcutils -->
<g id="node25" class="node">
<title>ticcutils</title>
<g id="a_node25"><a xlink:href="https://github.com/conda-forge/ticcutils-feedstock" xlink:title="ticcutils">
<ellipse fill="#fde725" stroke="black" cx="883.64" cy="-90" rx="51.21" ry="18"/>
<text text-anchor="middle" x="883.64" y="-85.33" font-family="Times,serif" font-size="14.00">ticcutils</text>
</a>
</g>
</g>
<!-- libxml2&#45;&gt;ticcutils -->
<g id="edge34" class="edge">
<title>libxml2&#45;&gt;ticcutils</title>
<path fill="none" stroke="black" d="M887.72,-360.07C891.09,-349.79 894.93,-336.31 896.64,-324 906.79,-250.82 895.88,-163.67 888.77,-119.58"/>
<polygon fill="black" stroke="black" points="892.24,-119.12 887.13,-109.83 885.33,-120.27 892.24,-119.12"/>
</g>
<!-- scilab -->
<g id="node26" class="node">
<title>scilab</title>
<g id="a_node26"><a xlink:href="https://github.com/conda-forge/scilab-feedstock" xlink:title="scilab">
<ellipse fill="#fde725" stroke="black" cx="593.64" cy="-18" rx="40.16" ry="18"/>
<text text-anchor="middle" x="593.64" y="-13.32" font-family="Times,serif" font-size="14.00">scilab</text>
</a>
</g>
</g>
<!-- libxml2&#45;&gt;scilab -->
<g id="edge35" class="edge">
<title>libxml2&#45;&gt;scilab</title>
<path fill="none" stroke="black" d="M826.84,-373.08C781.59,-367.66 717.29,-354.75 669.64,-324 577.67,-264.65 583.16,-111.08 589.85,-47.36"/>
<polygon fill="black" stroke="black" points="593.29,-48.04 590.96,-37.71 586.34,-47.24 593.29,-48.04"/>
</g>
<!-- libical -->
<g id="node27" class="node">
<title>libical</title>
<g id="a_node27"><a xlink:href="https://github.com/conda-forge/libical-feedstock" xlink:title="libical">
<ellipse fill="#fde725" stroke="black" cx="846.64" cy="-306" rx="41.21" ry="18"/>
<text text-anchor="middle" x="846.64" y="-301.32" font-family="Times,serif" font-size="14.00">libical</text>
</a>
</g>
</g>
<!-- libxml2&#45;&gt;libical -->
<g id="edge36" class="edge">
<title>libxml2&#45;&gt;libical</title>
<path fill="none" stroke="black" d="M873.17,-360.05C869.25,-352.23 864.51,-342.75 860.13,-333.98"/>
<polygon fill="black" stroke="black" points="863.31,-332.52 855.71,-325.14 857.05,-335.65 863.31,-332.52"/>
</g>
<!-- libxmlsec1 -->
<g id="node28" class="node">
<title>libxmlsec1</title>
<g id="a_node28"><a xlink:href="https://github.com/conda-forge/libxmlsec1-feedstock" xlink:title="libxmlsec1">
<ellipse fill="#fde725" stroke="black" cx="786.64" cy="-234" rx="64.89" ry="18"/>
<text text-anchor="middle" x="786.64" y="-229.32" font-family="Times,serif" font-size="14.00">libxmlsec1</text>
</a>
</g>
</g>
<!-- libxml2&#45;&gt;libxmlsec1 -->
<g id="edge37" class="edge">
<title>libxml2&#45;&gt;libxmlsec1</title>
<path fill="none" stroke="black" d="M825.15,-376.31C785.3,-372.49 734.42,-360.16 707.64,-324 698.11,-311.14 700.11,-302.12 707.64,-288 715.08,-274.05 728.01,-263.11 741.28,-254.9"/>
<polygon fill="black" stroke="black" points="742.66,-258.14 749.61,-250.14 739.19,-252.06 742.66,-258.14"/>
</g>
<!-- mysql -->
<g id="node29" class="node">
<title>mysql</title>
<g id="a_node29"><a xlink:href="https://github.com/conda-forge/mysql-feedstock/pull/99" xlink:title="mysql ❎">
<ellipse fill="#31688e" stroke="black" cx="1149.64" cy="-378" rx="56.47" ry="18"/>
<text text-anchor="middle" x="1149.64" y="-373.32" font-family="Times,serif" font-size="14.00" fill="white">mysql ❎</text>
</a>
</g>
</g>
<!-- mysql&#45;&gt;qt&#45;main -->
<g id="edge39" class="edge">
<title>mysql&#45;&gt;qt&#45;main</title>
<path fill="none" stroke="black" d="M1159.8,-360.05C1164.6,-352.06 1170.44,-342.33 1175.8,-333.4"/>
<polygon fill="black" stroke="black" points="1178.64,-335.46 1180.79,-325.09 1172.64,-331.86 1178.64,-335.46"/>
</g>
<!-- pyicu -->
<g id="node31" class="node">
<title>pyicu</title>
<g id="a_node31"><a xlink:href="https://github.com/conda-forge/pyicu-feedstock" xlink:title="pyicu">
<ellipse fill="#35b779" stroke="black" cx="1899.64" cy="-198" rx="38.06" ry="18"/>
<text text-anchor="middle" x="1899.64" y="-193.32" font-family="Times,serif" font-size="14.00">pyicu</text>
</a>
</g>
</g>
<!-- xerces&#45;c&#45;&gt;pyicu -->
<!-- baumwelch -->
<g id="node32" class="node">
<title>baumwelch</title>
<g id="a_node32"><a xlink:href="https://github.com/conda-forge/baumwelch-feedstock" xlink:title="baumwelch">
<ellipse fill="#35b779" stroke="black" cx="1899.64" cy="-126" rx="68.04" ry="18"/>
<text text-anchor="middle" x="1899.64" y="-121.33" font-family="Times,serif" font-size="14.00">baumwelch</text>
</a>
</g>
</g>
<!-- pyicu&#45;&gt;baumwelch -->
<!-- libmongoc -->
<g id="node34" class="node">
<title>libmongoc</title>
<g id="a_node34"><a xlink:href="https://github.com/conda-forge/libmongoc-feedstock" xlink:title="libmongoc">
<ellipse fill="#35b779" stroke="black" cx="1899.64" cy="-54" rx="62.78" ry="18"/>
<text text-anchor="middle" x="1899.64" y="-49.33" font-family="Times,serif" font-size="14.00">libmongoc</text>
</a>
</g>
</g>
<!-- baumwelch&#45;&gt;libmongoc -->
<!-- libv8 -->
<g id="node33" class="node">
<title>libv8</title>
<g id="a_node33"><a xlink:href="https://github.com/conda-forge/libv8-feedstock" xlink:title="libv8">
<ellipse fill="#35b779" stroke="black" cx="1308.64" cy="-306" rx="35.95" ry="18"/>
<text text-anchor="middle" x="1308.64" y="-301.32" font-family="Times,serif" font-size="14.00">libv8</text>
</a>
</g>
</g>
<!-- libv8&#45;&gt;r&#45;v8 -->
<g id="edge43" class="edge">
<title>libv8&#45;&gt;r&#45;v8</title>
<path fill="none" stroke="black" d="M1312.1,-287.7C1313.57,-280.32 1315.33,-271.52 1316.99,-263.25"/>
<polygon fill="black" stroke="black" points="1320.39,-264.08 1318.92,-253.59 1313.53,-262.71 1320.39,-264.08"/>
</g>
<!-- libpsl -->
<g id="node35" class="node">
<title>libpsl</title>
<g id="a_node35"><a xlink:href="https://github.com/conda-forge/libpsl-feedstock/pull/14" xlink:title="libpsl ❎">
<ellipse fill="#31688e" stroke="black" cx="1233.64" cy="-450" rx="53.84" ry="18"/>
<text text-anchor="middle" x="1233.64" y="-445.32" font-family="Times,serif" font-size="14.00" fill="white">libpsl ❎</text>
</a>
</g>
</g>
<!-- libpsl&#45;&gt;qt&#45;main -->
<g id="edge45" class="edge">
<title>libpsl&#45;&gt;qt&#45;main</title>
<path fill="none" stroke="black" d="M1230.99,-431.67C1227.98,-413.54 1222.44,-384.38 1214.64,-360 1211.9,-351.46 1208.28,-342.43 1204.71,-334.28"/>
<polygon fill="black" stroke="black" points="1207.92,-332.89 1200.6,-325.23 1201.55,-335.78 1207.92,-332.89"/>
</g>
<!-- spidermonkey -->
<g id="node36" class="node">
<title>spidermonkey</title>
<g id="a_node36"><a xlink:href="https://github.com/conda-forge/spidermonkey-feedstock" xlink:title="spidermonkey">
<ellipse fill="#35b779" stroke="black" cx="2056.64" cy="-270" rx="81.72" ry="18"/>
<text text-anchor="middle" x="2056.64" y="-265.32" font-family="Times,serif" font-size="14.00">spidermonkey</text>
</a>
</g>
</g>
<!-- couchdb -->
<g id="node37" class="node">
<title>couchdb</title>
<g id="a_node37"><a xlink:href="https://github.com/conda-forge/couchdb-feedstock" xlink:title="couchdb">
<ellipse fill="#fde725" stroke="black" cx="2056.64" cy="-198" rx="52.79" ry="18"/>
<text text-anchor="middle" x="2056.64" y="-193.32" font-family="Times,serif" font-size="14.00">couchdb</text>
</a>
</g>
</g>
<!-- spidermonkey&#45;&gt;couchdb -->
<g id="edge46" class="edge">
<title>spidermonkey&#45;&gt;couchdb</title>
<path fill="none" stroke="black" d="M2056.64,-251.7C2056.64,-244.41 2056.64,-235.73 2056.64,-227.54"/>
<polygon fill="black" stroke="black" points="2060.14,-227.62 2056.64,-217.62 2053.14,-227.62 2060.14,-227.62"/>
</g>
</g>
</svg>
