<?xml version="1.0" encoding="UTF-8" standalone="no"?>
<!DOCTYPE svg PUBLIC "-//W3C//DTD SVG 1.1//EN"
 "http://www.w3.org/Graphics/SVG/1.1/DTD/svg11.dtd">
<!-- Generated by graphviz version 9.0.0 (20231125.0833)
 -->
<!-- Pages: 1 -->
<svg width="383pt" height="116pt"
 viewBox="0.00 0.00 383.26 116.00" xmlns="http://www.w3.org/2000/svg" xmlns:xlink="http://www.w3.org/1999/xlink">
<g id="graph0" class="graph" transform="scale(1 1) rotate(0) translate(4 112)">
<polygon fill="white" stroke="none" points="-4,4 -4,-112 379.26,-112 379.26,4 -4,4"/>
<!-- gdal -->
<g id="node1" class="node">
<title>gdal</title>
<g id="a_node1"><a xlink:href="https://github.com/conda-forge/gdal-feedstock" xlink:title="gdal">
<ellipse fill="#fde725" stroke="black" cx="32.79" cy="-18" rx="32.79" ry="18"/>
<text text-anchor="middle" x="32.79" y="-13.32" font-family="Times,serif" font-size="14.00">gdal</text>
</a>
</g>
</g>
<!-- libtiff -->
<g id="node2" class="node">
<title>libtiff</title>
<g id="a_node2"><a xlink:href="https://github.com/conda-forge/libtiff-feedstock/pull/103" xlink:title="libtiff ❎">
<ellipse fill="#31688e" stroke="black" cx="95.79" cy="-90" rx="53.31" ry="18"/>
<text text-anchor="middle" x="95.79" y="-85.33" font-family="Times,serif" font-size="14.00" fill="white">libtiff ❎</text>
</a>
</g>
</g>
<!-- libtiff&#45;&gt;gdal -->
<g id="edge1" class="edge">
<title>libtiff&#45;&gt;gdal</title>
<path fill="none" stroke="black" d="M80.86,-72.41C72.95,-63.62 63.09,-52.66 54.36,-42.96"/>
<polygon fill="black" stroke="black" points="57.06,-40.73 47.77,-35.64 51.85,-45.41 57.06,-40.73"/>
</g>
<!-- imagecodecs -->
<g id="node4" class="node">
<title>imagecodecs</title>
<g id="a_node4"><a xlink:href="https://github.com/conda-forge/imagecodecs-feedstock" xlink:title="imagecodecs">
<ellipse fill="#fde725" stroke="black" cx="158.79" cy="-18" rx="75.41" ry="18"/>
<text text-anchor="middle" x="158.79" y="-13.32" font-family="Times,serif" font-size="14.00">imagecodecs</text>
</a>
</g>
</g>
<!-- libtiff&#45;&gt;imagecodecs -->
<g id="edge2" class="edge">
<title>libtiff&#45;&gt;imagecodecs</title>
<path fill="none" stroke="black" d="M110.72,-72.41C118.22,-64.08 127.48,-53.8 135.85,-44.49"/>
<polygon fill="black" stroke="black" points="138.43,-46.86 142.52,-37.08 133.23,-42.17 138.43,-46.86"/>
</g>
<!-- lighttpd -->
<g id="node3" class="node">
<title>lighttpd</title>
<g id="a_node3"><a xlink:href="https://github.com/conda-forge/lighttpd-feedstock/pull/35" xlink:title="lighttpd ❎">
<ellipse fill="#31688e" stroke="black" cx="308.79" cy="-54" rx="66.47" ry="18"/>
<text text-anchor="middle" x="308.79" y="-49.33" font-family="Times,serif" font-size="14.00" fill="white">lighttpd ❎</text>
</a>
</g>
</g>
</g>
</svg>
