<?xml version="1.0" encoding="UTF-8" standalone="no"?>
<!DOCTYPE svg PUBLIC "-//W3C//DTD SVG 1.1//EN"
 "http://www.w3.org/Graphics/SVG/1.1/DTD/svg11.dtd">
<!-- Generated by graphviz version 9.0.0 (20231125.0833)
 -->
<!-- Pages: 1 -->
<svg width="353pt" height="116pt"
 viewBox="0.00 0.00 353.00 116.00" xmlns="http://www.w3.org/2000/svg" xmlns:xlink="http://www.w3.org/1999/xlink">
<g id="graph0" class="graph" transform="scale(1 1) rotate(0) translate(4 112)">
<polygon fill="white" stroke="none" points="-4,4 -4,-112 349,-112 349,4 -4,4"/>
<!-- gdal -->
<g id="node1" class="node">
<title>gdal</title>
<g id="a_node1"><a xlink:href="https://github.com/conda-forge/gdal-feedstock" xlink:title="gdal">
<ellipse fill="#fde725" stroke="black" cx="32.79" cy="-18" rx="32.79" ry="18"/>
<text text-anchor="middle" x="32.79" y="-13.32" font-family="Times,serif" font-size="14.00">gdal</text>
</a>
</g>
</g>
<!-- libtiff -->
<g id="node2" class="node">
<title>libtiff</title>
<g id="a_node2"><a xlink:href="https://github.com/conda-forge/libtiff-feedstock" xlink:title="libtiff">
<ellipse fill="#35b779" stroke="black" cx="95.79" cy="-90" rx="38.06" ry="18"/>
<text text-anchor="middle" x="95.79" y="-85.33" font-family="Times,serif" font-size="14.00">libtiff</text>
</a>
</g>
</g>
<!-- libtiff&#45;&gt;gdal -->
<g id="edge1" class="edge">
<title>libtiff&#45;&gt;gdal</title>
<path fill="none" stroke="black" d="M81.5,-73.12C73.41,-64.13 63.14,-52.72 54.12,-42.7"/>
<polygon fill="black" stroke="black" points="56.9,-40.56 47.61,-35.47 51.7,-45.24 56.9,-40.56"/>
</g>
<!-- imagecodecs -->
<g id="node4" class="node">
<title>imagecodecs</title>
<g id="a_node4"><a xlink:href="https://github.com/conda-forge/imagecodecs-feedstock" xlink:title="imagecodecs">
<ellipse fill="#fde725" stroke="black" cx="158.79" cy="-18" rx="75.41" ry="18"/>
<text text-anchor="middle" x="158.79" y="-13.32" font-family="Times,serif" font-size="14.00">imagecodecs</text>
</a>
</g>
</g>
<!-- libtiff&#45;&gt;imagecodecs -->
<g id="edge2" class="edge">
<title>libtiff&#45;&gt;imagecodecs</title>
<path fill="none" stroke="black" d="M110.09,-73.12C117.76,-64.59 127.4,-53.89 136.07,-44.25"/>
<polygon fill="black" stroke="black" points="138.58,-46.7 142.66,-36.92 133.37,-42.01 138.58,-46.7"/>
</g>
<!-- lighttpd -->
<g id="node3" class="node">
<title>lighttpd</title>
<g id="a_node3"><a xlink:href="https://github.com/conda-forge/lighttpd-feedstock" xlink:title="lighttpd">
<ellipse fill="#35b779" stroke="black" cx="293.79" cy="-54" rx="51.21" ry="18"/>
<text text-anchor="middle" x="293.79" y="-49.33" font-family="Times,serif" font-size="14.00">lighttpd</text>
</a>
</g>
</g>
</g>
</svg>
