<?xml version="1.0" encoding="UTF-8" standalone="no"?>
<!DOCTYPE svg PUBLIC "-//W3C//DTD SVG 1.1//EN"
 "http://www.w3.org/Graphics/SVG/1.1/DTD/svg11.dtd">
<!-- Generated by graphviz version 11.0.0 (20240519.1550)
 -->
<!-- Pages: 1 -->
<svg width="405pt" height="232pt"
 viewBox="0.00 0.00 405.16 232.00" xmlns="http://www.w3.org/2000/svg" xmlns:xlink="http://www.w3.org/1999/xlink">
<g id="graph0" class="graph" transform="scale(1 1) rotate(0) translate(4 228)">
<polygon fill="white" stroke="none" points="-4,4 -4,-228 401.16,-228 401.16,4 -4,4"/>
<!-- openmpi -->
<g id="node1" class="node">
<title>openmpi</title>
<g id="a_node1"><a xlink:href="https://github.com/conda-forge/openmpi-feedstock" xlink:title="openmpi">
<ellipse fill="#35b779" stroke="black" cx="116.84" cy="-206" rx="54.36" ry="18"/>
<text text-anchor="middle" x="116.84" y="-201.32" font-family="Times,serif" font-size="14.00">openmpi</text>
</a>
</g>
</g>
<!-- gromacs -->
<g id="node4" class="node">
<title>gromacs</title>
<g id="a_node4"><a xlink:href="https://github.com/conda-forge/gromacs-feedstock" xlink:title="gromacs">
<ellipse fill="#fde725" stroke="black" cx="53.84" cy="-134" rx="53.84" ry="18"/>
<text text-anchor="middle" x="53.84" y="-129.32" font-family="Times,serif" font-size="14.00">gromacs</text>
</a>
</g>
</g>
<!-- openmpi&#45;&gt;gromacs -->
<g id="edge2" class="edge">
<title>openmpi&#45;&gt;gromacs</title>
<path fill="none" stroke="black" d="M101.91,-188.41C94.22,-179.87 84.69,-169.28 76.15,-159.79"/>
<polygon fill="black" stroke="black" points="78.97,-157.69 69.67,-152.59 73.76,-162.37 78.97,-157.69"/>
</g>
<!-- flux&#45;core -->
<g id="node6" class="node">
<title>flux&#45;core</title>
<g id="a_node6"><a xlink:href="https://github.com/conda-forge/flux-core-feedstock" xlink:title="flux core">
<ellipse fill="#fde725" stroke="black" cx="179.84" cy="-134" rx="54.36" ry="18"/>
<text text-anchor="middle" x="179.84" y="-129.32" font-family="Times,serif" font-size="14.00">flux core</text>
</a>
</g>
</g>
<!-- openmpi&#45;&gt;flux&#45;core -->
<g id="edge1" class="edge">
<title>openmpi&#45;&gt;flux&#45;core</title>
<path fill="none" stroke="black" d="M131.77,-188.41C139.46,-179.87 148.99,-169.28 157.53,-159.79"/>
<polygon fill="black" stroke="black" points="159.91,-162.37 164,-152.59 154.71,-157.69 159.91,-162.37"/>
</g>
<!-- pocl -->
<g id="node2" class="node">
<title>pocl</title>
<g id="a_node2"><a xlink:href="https://github.com/conda-forge/pocl-feedstock" xlink:title="pocl">
<ellipse fill="#35b779" stroke="black" cx="120.84" cy="-18" rx="31.74" ry="18"/>
<text text-anchor="middle" x="120.84" y="-13.32" font-family="Times,serif" font-size="14.00">pocl</text>
</a>
</g>
</g>
<!-- tbb -->
<g id="node3" class="node">
<title>tbb</title>
<g id="a_node3"><a xlink:href="https://github.com/conda-forge/tbb-feedstock" xlink:title="tbb">
<ellipse fill="#35b779" stroke="black" cx="286.84" cy="-170" rx="28.06" ry="18"/>
<text text-anchor="middle" x="286.84" y="-165.33" font-family="Times,serif" font-size="14.00">tbb</text>
</a>
</g>
</g>
<!-- spral -->
<g id="node8" class="node">
<title>spral</title>
<g id="a_node8"><a xlink:href="https://github.com/conda-forge/spral-feedstock" xlink:title="spral">
<ellipse fill="#fde725" stroke="black" cx="286.84" cy="-98" rx="36.48" ry="18"/>
<text text-anchor="middle" x="286.84" y="-93.33" font-family="Times,serif" font-size="14.00">spral</text>
</a>
</g>
</g>
<!-- tbb&#45;&gt;spral -->
<g id="edge3" class="edge">
<title>tbb&#45;&gt;spral</title>
<path fill="none" stroke="black" d="M286.84,-151.7C286.84,-144.41 286.84,-135.73 286.84,-127.54"/>
<polygon fill="black" stroke="black" points="290.34,-127.62 286.84,-117.62 283.34,-127.62 290.34,-127.62"/>
</g>
<!-- hpx -->
<g id="node5" class="node">
<title>hpx</title>
<g id="a_node5"><a xlink:href="https://github.com/conda-forge/hpx-feedstock" xlink:title="hpx">
<ellipse fill="#35b779" stroke="black" cx="286.84" cy="-18" rx="29.64" ry="18"/>
<text text-anchor="middle" x="286.84" y="-13.32" font-family="Times,serif" font-size="14.00">hpx</text>
</a>
</g>
</g>
<!-- flux&#45;sched -->
<g id="node7" class="node">
<title>flux&#45;sched</title>
<g id="a_node7"><a xlink:href="https://github.com/conda-forge/flux-sched-feedstock" xlink:title="flux sched">
<ellipse fill="#fde725" stroke="black" cx="179.84" cy="-62" rx="61.73" ry="18"/>
<text text-anchor="middle" x="179.84" y="-57.33" font-family="Times,serif" font-size="14.00">flux sched</text>
</a>
</g>
</g>
<!-- flux&#45;core&#45;&gt;flux&#45;sched -->
<g id="edge4" class="edge">
<title>flux&#45;core&#45;&gt;flux&#45;sched</title>
<path fill="none" stroke="black" d="M179.84,-115.7C179.84,-108.41 179.84,-99.73 179.84,-91.54"/>
<polygon fill="black" stroke="black" points="183.34,-91.62 179.84,-81.62 176.34,-91.62 183.34,-91.62"/>
</g>
<!-- tblis -->
<g id="node9" class="node">
<title>tblis</title>
<g id="a_node9"><a xlink:href="https://github.com/conda-forge/tblis-feedstock" xlink:title="tblis">
<ellipse fill="#35b779" stroke="black" cx="363.84" cy="-134" rx="33.32" ry="18"/>
<text text-anchor="middle" x="363.84" y="-129.32" font-family="Times,serif" font-size="14.00">tblis</text>
</a>
</g>
</g>
</g>
</svg>
