<?xml version="1.0" encoding="UTF-8" standalone="no"?>
<!DOCTYPE svg PUBLIC "-//W3C//DTD SVG 1.1//EN"
 "http://www.w3.org/Graphics/SVG/1.1/DTD/svg11.dtd">
<!-- Generated by graphviz version 11.0.0 (20240519.1550)
 -->
<!-- Pages: 1 -->
<svg width="359pt" height="116pt"
 viewBox="0.00 0.00 358.83 116.00" xmlns="http://www.w3.org/2000/svg" xmlns:xlink="http://www.w3.org/1999/xlink">
<g id="graph0" class="graph" transform="scale(1 1) rotate(0) translate(4 112)">
<polygon fill="white" stroke="none" points="-4,4 -4,-112 354.83,-112 354.83,4 -4,4"/>
<!-- tbb -->
<g id="node1" class="node">
<title>tbb</title>
<g id="a_node1"><a xlink:href="https://github.com/conda-forge/tbb-feedstock/pull/129" xlink:title="tbb ✓">
<ellipse fill="#31688e" stroke="black" cx="167.73" cy="-90" rx="35.95" ry="18"/>
<text text-anchor="middle" x="167.73" y="-85.33" font-family="Times,serif" font-size="14.00" fill="white">tbb ✓</text>
</a>
</g>
</g>
<!-- spral -->
<g id="node5" class="node">
<title>spral</title>
<g id="a_node5"><a xlink:href="https://github.com/conda-forge/spral-feedstock" xlink:title="spral">
<ellipse fill="#fde725" stroke="black" cx="167.73" cy="-18" rx="36.48" ry="18"/>
<text text-anchor="middle" x="167.73" y="-13.32" font-family="Times,serif" font-size="14.00">spral</text>
</a>
</g>
</g>
<!-- tbb&#45;&gt;spral -->
<g id="edge1" class="edge">
<title>tbb&#45;&gt;spral</title>
<path fill="none" stroke="black" d="M167.73,-71.7C167.73,-64.41 167.73,-55.73 167.73,-47.54"/>
<polygon fill="black" stroke="black" points="171.23,-47.62 167.73,-37.62 164.23,-47.62 171.23,-47.62"/>
</g>
<!-- gromacs -->
<g id="node2" class="node">
<title>gromacs</title>
<g id="a_node2"><a xlink:href="https://github.com/conda-forge/gromacs-feedstock/pull/59" xlink:title="gromacs ❎">
<ellipse fill="#31688e" stroke="black" cx="281.73" cy="-54" rx="69.1" ry="18"/>
<text text-anchor="middle" x="281.73" y="-49.33" font-family="Times,serif" font-size="14.00" fill="white">gromacs ❎</text>
</a>
</g>
</g>
<!-- flux&#45;core -->
<g id="node3" class="node">
<title>flux&#45;core</title>
<g id="a_node3"><a xlink:href="https://github.com/conda-forge/flux-core-feedstock" xlink:title="flux core">
<ellipse fill="#35b779" stroke="black" cx="61.73" cy="-90" rx="54.36" ry="18"/>
<text text-anchor="middle" x="61.73" y="-85.33" font-family="Times,serif" font-size="14.00">flux core</text>
</a>
</g>
</g>
<!-- flux&#45;sched -->
<g id="node4" class="node">
<title>flux&#45;sched</title>
<g id="a_node4"><a xlink:href="https://github.com/conda-forge/flux-sched-feedstock" xlink:title="flux sched">
<ellipse fill="#fde725" stroke="black" cx="61.73" cy="-18" rx="61.73" ry="18"/>
<text text-anchor="middle" x="61.73" y="-13.32" font-family="Times,serif" font-size="14.00">flux sched</text>
</a>
</g>
</g>
<!-- flux&#45;core&#45;&gt;flux&#45;sched -->
<g id="edge2" class="edge">
<title>flux&#45;core&#45;&gt;flux&#45;sched</title>
<path fill="none" stroke="black" d="M61.73,-71.7C61.73,-64.41 61.73,-55.73 61.73,-47.54"/>
<polygon fill="black" stroke="black" points="65.23,-47.62 61.73,-37.62 58.23,-47.62 65.23,-47.62"/>
</g>
</g>
</svg>
