<?xml version="1.0" encoding="UTF-8" standalone="no"?>
<!DOCTYPE svg PUBLIC "-//W3C//DTD SVG 1.1//EN"
 "http://www.w3.org/Graphics/SVG/1.1/DTD/svg11.dtd">
<!-- Generated by graphviz version 11.0.0 (20240519.1550)
 -->
<!-- Pages: 1 -->
<svg width="418pt" height="188pt"
 viewBox="0.00 0.00 418.47 188.00" xmlns="http://www.w3.org/2000/svg" xmlns:xlink="http://www.w3.org/1999/xlink">
<g id="graph0" class="graph" transform="scale(1 1) rotate(0) translate(4 184)">
<polygon fill="white" stroke="none" points="-4,4 -4,-184 414.47,-184 414.47,4 -4,4"/>
<!-- openmpi -->
<g id="node1" class="node">
<title>openmpi</title>
<g id="a_node1"><a xlink:href="https://github.com/conda-forge/openmpi-feedstock/pull/166" xlink:title="openmpi ✓">
<ellipse fill="#31688e" stroke="black" cx="116.84" cy="-162" rx="62.26" ry="18"/>
<text text-anchor="middle" x="116.84" y="-157.32" font-family="Times,serif" font-size="14.00" fill="white">openmpi ✓</text>
</a>
</g>
</g>
<!-- gromacs -->
<g id="node4" class="node">
<title>gromacs</title>
<g id="a_node4"><a xlink:href="https://github.com/conda-forge/gromacs-feedstock" xlink:title="gromacs">
<ellipse fill="#fde725" stroke="black" cx="53.84" cy="-90" rx="53.84" ry="18"/>
<text text-anchor="middle" x="53.84" y="-85.33" font-family="Times,serif" font-size="14.00">gromacs</text>
</a>
</g>
</g>
<!-- openmpi&#45;&gt;gromacs -->
<g id="edge2" class="edge">
<title>openmpi&#45;&gt;gromacs</title>
<path fill="none" stroke="black" d="M101.59,-144.05C93.97,-135.59 84.61,-125.19 76.2,-115.84"/>
<polygon fill="black" stroke="black" points="78.82,-113.52 69.53,-108.43 73.62,-118.21 78.82,-113.52"/>
</g>
<!-- flux&#45;core -->
<g id="node5" class="node">
<title>flux&#45;core</title>
<g id="a_node5"><a xlink:href="https://github.com/conda-forge/flux-core-feedstock" xlink:title="flux core">
<ellipse fill="#fde725" stroke="black" cx="179.84" cy="-90" rx="54.36" ry="18"/>
<text text-anchor="middle" x="179.84" y="-85.33" font-family="Times,serif" font-size="14.00">flux core</text>
</a>
</g>
</g>
<!-- openmpi&#45;&gt;flux&#45;core -->
<g id="edge1" class="edge">
<title>openmpi&#45;&gt;flux&#45;core</title>
<path fill="none" stroke="black" d="M132.09,-144.05C139.71,-135.59 149.07,-125.19 157.48,-115.84"/>
<polygon fill="black" stroke="black" points="160.06,-118.21 164.15,-108.43 154.86,-113.52 160.06,-118.21"/>
</g>
<!-- pocl -->
<g id="node2" class="node">
<title>pocl</title>
<g id="a_node2"><a xlink:href="https://github.com/conda-forge/pocl-feedstock/pull/105" xlink:title="pocl ✓">
<ellipse fill="#31688e" stroke="black" cx="370.84" cy="-90" rx="39.63" ry="18"/>
<text text-anchor="middle" x="370.84" y="-85.33" font-family="Times,serif" font-size="14.00" fill="white">pocl ✓</text>
</a>
</g>
</g>
<!-- tbb -->
<g id="node3" class="node">
<title>tbb</title>
<g id="a_node3"><a xlink:href="https://github.com/conda-forge/tbb-feedstock/pull/129" xlink:title="tbb ✓">
<ellipse fill="#31688e" stroke="black" cx="286.84" cy="-126" rx="35.95" ry="18"/>
<text text-anchor="middle" x="286.84" y="-121.33" font-family="Times,serif" font-size="14.00" fill="white">tbb ✓</text>
</a>
</g>
</g>
<!-- spral -->
<g id="node7" class="node">
<title>spral</title>
<g id="a_node7"><a xlink:href="https://github.com/conda-forge/spral-feedstock" xlink:title="spral">
<ellipse fill="#fde725" stroke="black" cx="286.84" cy="-54" rx="36.48" ry="18"/>
<text text-anchor="middle" x="286.84" y="-49.33" font-family="Times,serif" font-size="14.00">spral</text>
</a>
</g>
</g>
<!-- tbb&#45;&gt;spral -->
<g id="edge3" class="edge">
<title>tbb&#45;&gt;spral</title>
<path fill="none" stroke="black" d="M286.84,-107.7C286.84,-100.41 286.84,-91.73 286.84,-83.54"/>
<polygon fill="black" stroke="black" points="290.34,-83.62 286.84,-73.62 283.34,-83.62 290.34,-83.62"/>
</g>
<!-- flux&#45;sched -->
<g id="node6" class="node">
<title>flux&#45;sched</title>
<g id="a_node6"><a xlink:href="https://github.com/conda-forge/flux-sched-feedstock" xlink:title="flux sched">
<ellipse fill="#fde725" stroke="black" cx="179.84" cy="-18" rx="61.73" ry="18"/>
<text text-anchor="middle" x="179.84" y="-13.32" font-family="Times,serif" font-size="14.00">flux sched</text>
</a>
</g>
</g>
<!-- flux&#45;core&#45;&gt;flux&#45;sched -->
<g id="edge4" class="edge">
<title>flux&#45;core&#45;&gt;flux&#45;sched</title>
<path fill="none" stroke="black" d="M179.84,-71.7C179.84,-64.41 179.84,-55.73 179.84,-47.54"/>
<polygon fill="black" stroke="black" points="183.34,-47.62 179.84,-37.62 176.34,-47.62 183.34,-47.62"/>
</g>
</g>
</svg>
