<?xml version="1.0" encoding="UTF-8" standalone="no"?>
<!DOCTYPE svg PUBLIC "-//W3C//DTD SVG 1.1//EN"
 "http://www.w3.org/Graphics/SVG/1.1/DTD/svg11.dtd">
<!-- Generated by graphviz version 9.0.0 (20231125.0833)
 -->
<!-- Pages: 1 -->
<svg width="451pt" height="188pt"
 viewBox="0.00 0.00 450.52 188.00" xmlns="http://www.w3.org/2000/svg" xmlns:xlink="http://www.w3.org/1999/xlink">
<g id="graph0" class="graph" transform="scale(1 1) rotate(0) translate(4 184)">
<polygon fill="white" stroke="none" points="-4,4 -4,-184 446.52,-184 446.52,4 -4,4"/>
<!-- openmpi -->
<g id="node1" class="node">
<title>openmpi</title>
<g id="a_node1"><a xlink:href="https://github.com/conda-forge/openmpi-feedstock" xlink:title="openmpi">
<ellipse fill="#ff8c00" stroke="black" cx="129.78" cy="-162" rx="54.36" ry="18"/>
<text text-anchor="middle" x="129.78" y="-157.32" font-family="Times,serif" font-size="14.00">openmpi</text>
</a>
</g>
</g>
<!-- paraprobe -->
<g id="node3" class="node">
<title>paraprobe</title>
<g id="a_node3"><a xlink:href="https://github.com/conda-forge/paraprobe-feedstock" xlink:title="paraprobe">
<ellipse fill="#fde725" stroke="black" cx="62.78" cy="-90" rx="62.78" ry="18"/>
<text text-anchor="middle" x="62.78" y="-85.33" font-family="Times,serif" font-size="14.00">paraprobe</text>
</a>
</g>
</g>
<!-- openmpi&#45;&gt;paraprobe -->
<g id="edge2" class="edge">
<title>openmpi&#45;&gt;paraprobe</title>
<path fill="none" stroke="black" d="M113.9,-144.41C105.73,-135.87 95.59,-125.28 86.51,-115.79"/>
<polygon fill="black" stroke="black" points="89.04,-113.37 79.59,-108.56 83.98,-118.21 89.04,-113.37"/>
</g>
<!-- flux&#45;core -->
<g id="node4" class="node">
<title>flux&#45;core</title>
<g id="a_node4"><a xlink:href="https://github.com/conda-forge/flux-core-feedstock" xlink:title="flux core">
<ellipse fill="#fde725" stroke="black" cx="197.78" cy="-90" rx="54.36" ry="18"/>
<text text-anchor="middle" x="197.78" y="-85.33" font-family="Times,serif" font-size="14.00">flux core</text>
</a>
</g>
</g>
<!-- openmpi&#45;&gt;flux&#45;core -->
<g id="edge1" class="edge">
<title>openmpi&#45;&gt;flux&#45;core</title>
<path fill="none" stroke="black" d="M145.9,-144.41C154.28,-135.78 164.69,-125.06 173.99,-115.5"/>
<polygon fill="black" stroke="black" points="176.27,-118.17 180.73,-108.56 171.25,-113.29 176.27,-118.17"/>
</g>
<!-- pocl -->
<g id="node2" class="node">
<title>pocl</title>
<g id="a_node2"><a xlink:href="https://github.com/conda-forge/pocl-feedstock" xlink:title="pocl">
<ellipse fill="#ff8c00" stroke="black" cx="410.78" cy="-90" rx="31.74" ry="18"/>
<text text-anchor="middle" x="410.78" y="-85.33" font-family="Times,serif" font-size="14.00">pocl</text>
</a>
</g>
</g>
<!-- flux&#45;sched -->
<g id="node5" class="node">
<title>flux&#45;sched</title>
<g id="a_node5"><a xlink:href="https://github.com/conda-forge/flux-sched-feedstock" xlink:title="flux sched">
<ellipse fill="#fde725" stroke="black" cx="197.78" cy="-18" rx="61.73" ry="18"/>
<text text-anchor="middle" x="197.78" y="-13.32" font-family="Times,serif" font-size="14.00">flux sched</text>
</a>
</g>
</g>
<!-- flux&#45;core&#45;&gt;flux&#45;sched -->
<g id="edge3" class="edge">
<title>flux&#45;core&#45;&gt;flux&#45;sched</title>
<path fill="none" stroke="black" d="M197.78,-71.7C197.78,-64.41 197.78,-55.73 197.78,-47.54"/>
<polygon fill="black" stroke="black" points="201.28,-47.62 197.78,-37.62 194.28,-47.62 201.28,-47.62"/>
</g>
<!-- spral -->
<g id="node6" class="node">
<title>spral</title>
<g id="a_node6"><a xlink:href="https://github.com/conda-forge/spral-feedstock/pull/13" xlink:title="spral ❎">
<ellipse fill="#31688e" stroke="black" cx="319.78" cy="-90" rx="51.73" ry="18"/>
<text text-anchor="middle" x="319.78" y="-85.33" font-family="Times,serif" font-size="14.00" fill="white">spral ❎</text>
</a>
</g>
</g>
</g>
</svg>
