<?xml version="1.0" encoding="UTF-8" standalone="no"?>
<!DOCTYPE svg PUBLIC "-//W3C//DTD SVG 1.1//EN"
 "http://www.w3.org/Graphics/SVG/1.1/DTD/svg11.dtd">
<!-- Generated by graphviz version 11.0.0 (20240519.1550)
 -->
<!-- Pages: 1 -->
<svg width="359pt" height="116pt"
 viewBox="0.00 0.00 359.35 116.00" xmlns="http://www.w3.org/2000/svg" xmlns:xlink="http://www.w3.org/1999/xlink">
<g id="graph0" class="graph" transform="scale(1 1) rotate(0) translate(4 112)">
<polygon fill="white" stroke="none" points="-4,4 -4,-112 355.35,-112 355.35,4 -4,4"/>
<!-- tbb -->
<g id="node1" class="node">
<title>tbb</title>
<g id="a_node1"><a xlink:href="https://github.com/conda-forge/tbb-feedstock/pull/129" xlink:title="tbb ✓">
<ellipse fill="#31688e" stroke="black" cx="183.62" cy="-90" rx="35.95" ry="18"/>
<text text-anchor="middle" x="183.62" y="-85.33" font-family="Times,serif" font-size="14.00" fill="white">tbb ✓</text>
</a>
</g>
</g>
<!-- spral -->
<g id="node5" class="node">
<title>spral</title>
<g id="a_node5"><a xlink:href="https://github.com/conda-forge/spral-feedstock" xlink:title="spral">
<ellipse fill="#fde725" stroke="black" cx="183.62" cy="-18" rx="36.48" ry="18"/>
<text text-anchor="middle" x="183.62" y="-13.32" font-family="Times,serif" font-size="14.00">spral</text>
</a>
</g>
</g>
<!-- tbb&#45;&gt;spral -->
<g id="edge1" class="edge">
<title>tbb&#45;&gt;spral</title>
<path fill="none" stroke="black" d="M183.62,-71.7C183.62,-64.41 183.62,-55.73 183.62,-47.54"/>
<polygon fill="black" stroke="black" points="187.12,-47.62 183.62,-37.62 180.12,-47.62 187.12,-47.62"/>
</g>
<!-- gromacs -->
<g id="node2" class="node">
<title>gromacs</title>
<g id="a_node2"><a xlink:href="https://github.com/conda-forge/gromacs-feedstock/pull/59" xlink:title="gromacs ✓">
<ellipse fill="#31688e" stroke="black" cx="289.62" cy="-54" rx="61.73" ry="18"/>
<text text-anchor="middle" x="289.62" y="-49.33" font-family="Times,serif" font-size="14.00" fill="white">gromacs ✓</text>
</a>
</g>
</g>
<!-- flux&#45;core -->
<g id="node3" class="node">
<title>flux&#45;core</title>
<g id="a_node3"><a xlink:href="https://github.com/conda-forge/flux-core-feedstock/pull/52" xlink:title="flux core ❎">
<ellipse fill="#31688e" stroke="black" cx="69.62" cy="-90" rx="69.62" ry="18"/>
<text text-anchor="middle" x="69.62" y="-85.33" font-family="Times,serif" font-size="14.00" fill="white">flux core ❎</text>
</a>
</g>
</g>
<!-- flux&#45;sched -->
<g id="node4" class="node">
<title>flux&#45;sched</title>
<g id="a_node4"><a xlink:href="https://github.com/conda-forge/flux-sched-feedstock" xlink:title="flux sched">
<ellipse fill="#fde725" stroke="black" cx="69.62" cy="-18" rx="61.73" ry="18"/>
<text text-anchor="middle" x="69.62" y="-13.32" font-family="Times,serif" font-size="14.00">flux sched</text>
</a>
</g>
</g>
<!-- flux&#45;core&#45;&gt;flux&#45;sched -->
<g id="edge2" class="edge">
<title>flux&#45;core&#45;&gt;flux&#45;sched</title>
<path fill="none" stroke="black" d="M69.62,-71.7C69.62,-64.41 69.62,-55.73 69.62,-47.54"/>
<polygon fill="black" stroke="black" points="73.12,-47.62 69.62,-37.62 66.12,-47.62 73.12,-47.62"/>
</g>
</g>
</svg>
