<?xml version="1.0" encoding="UTF-8" standalone="no"?>
<!DOCTYPE svg PUBLIC "-//W3C//DTD SVG 1.1//EN"
 "http://www.w3.org/Graphics/SVG/1.1/DTD/svg11.dtd">
<!-- Generated by graphviz version 9.0.0 (20231125.0833)
 -->
<!-- Pages: 1 -->
<svg width="483pt" height="188pt"
 viewBox="0.00 0.00 482.78 188.00" xmlns="http://www.w3.org/2000/svg" xmlns:xlink="http://www.w3.org/1999/xlink">
<g id="graph0" class="graph" transform="scale(1 1) rotate(0) translate(4 184)">
<polygon fill="white" stroke="none" points="-4,4 -4,-184 478.78,-184 478.78,4 -4,4"/>
<!-- openmpi -->
<g id="node1" class="node">
<title>openmpi</title>
<g id="a_node1"><a xlink:href="https://github.com/conda-forge/openmpi-feedstock/pull/155" xlink:title="openmpi ❎">
<ellipse fill="#31688e" stroke="black" cx="191.78" cy="-162" rx="69.62" ry="18"/>
<text text-anchor="middle" x="191.78" y="-157.32" font-family="Times,serif" font-size="14.00" fill="white">openmpi ❎</text>
</a>
</g>
</g>
<!-- paraprobe -->
<g id="node4" class="node">
<title>paraprobe</title>
<g id="a_node4"><a xlink:href="https://github.com/conda-forge/paraprobe-feedstock" xlink:title="paraprobe">
<ellipse fill="#fde725" stroke="black" cx="62.78" cy="-90" rx="62.78" ry="18"/>
<text text-anchor="middle" x="62.78" y="-85.33" font-family="Times,serif" font-size="14.00">paraprobe</text>
</a>
</g>
</g>
<!-- openmpi&#45;&gt;paraprobe -->
<g id="edge2" class="edge">
<title>openmpi&#45;&gt;paraprobe</title>
<path fill="none" stroke="black" d="M162.83,-145.29C144.61,-135.4 120.89,-122.53 101.12,-111.8"/>
<polygon fill="black" stroke="black" points="102.98,-108.83 92.52,-107.14 99.64,-114.98 102.98,-108.83"/>
</g>
<!-- flux&#45;core -->
<g id="node5" class="node">
<title>flux&#45;core</title>
<g id="a_node5"><a xlink:href="https://github.com/conda-forge/flux-core-feedstock" xlink:title="flux core">
<ellipse fill="#fde725" stroke="black" cx="197.78" cy="-90" rx="54.36" ry="18"/>
<text text-anchor="middle" x="197.78" y="-85.33" font-family="Times,serif" font-size="14.00">flux core</text>
</a>
</g>
</g>
<!-- openmpi&#45;&gt;flux&#45;core -->
<g id="edge1" class="edge">
<title>openmpi&#45;&gt;flux&#45;core</title>
<path fill="none" stroke="black" d="M193.27,-143.7C193.89,-136.41 194.63,-127.73 195.34,-119.54"/>
<polygon fill="black" stroke="black" points="198.82,-119.87 196.19,-109.61 191.85,-119.28 198.82,-119.87"/>
</g>
<!-- pocl -->
<g id="node2" class="node">
<title>pocl</title>
<g id="a_node2"><a xlink:href="https://github.com/conda-forge/pocl-feedstock/pull/98" xlink:title="pocl ❎">
<ellipse fill="#31688e" stroke="black" cx="427.78" cy="-90" rx="47" ry="18"/>
<text text-anchor="middle" x="427.78" y="-85.33" font-family="Times,serif" font-size="14.00" fill="white">pocl ❎</text>
</a>
</g>
</g>
<!-- tbb -->
<g id="node3" class="node">
<title>tbb</title>
<g id="a_node3"><a xlink:href="https://github.com/conda-forge/tbb-feedstock/pull/125" xlink:title="tbb ✓">
<ellipse fill="#31688e" stroke="black" cx="62.78" cy="-162" rx="35.95" ry="18"/>
<text text-anchor="middle" x="62.78" y="-157.32" font-family="Times,serif" font-size="14.00" fill="white">tbb ✓</text>
</a>
</g>
</g>
<!-- tbb&#45;&gt;paraprobe -->
<g id="edge3" class="edge">
<title>tbb&#45;&gt;paraprobe</title>
<path fill="none" stroke="black" d="M62.78,-143.7C62.78,-136.41 62.78,-127.73 62.78,-119.54"/>
<polygon fill="black" stroke="black" points="66.28,-119.62 62.78,-109.62 59.28,-119.62 66.28,-119.62"/>
</g>
<!-- flux&#45;sched -->
<g id="node6" class="node">
<title>flux&#45;sched</title>
<g id="a_node6"><a xlink:href="https://github.com/conda-forge/flux-sched-feedstock" xlink:title="flux sched">
<ellipse fill="#fde725" stroke="black" cx="197.78" cy="-18" rx="61.73" ry="18"/>
<text text-anchor="middle" x="197.78" y="-13.32" font-family="Times,serif" font-size="14.00">flux sched</text>
</a>
</g>
</g>
<!-- flux&#45;core&#45;&gt;flux&#45;sched -->
<g id="edge4" class="edge">
<title>flux&#45;core&#45;&gt;flux&#45;sched</title>
<path fill="none" stroke="black" d="M197.78,-71.7C197.78,-64.41 197.78,-55.73 197.78,-47.54"/>
<polygon fill="black" stroke="black" points="201.28,-47.62 197.78,-37.62 194.28,-47.62 201.28,-47.62"/>
</g>
<!-- spral -->
<g id="node7" class="node">
<title>spral</title>
<g id="a_node7"><a xlink:href="https://github.com/conda-forge/spral-feedstock/pull/13" xlink:title="spral ❎">
<ellipse fill="#31688e" stroke="black" cx="321.78" cy="-90" rx="51.73" ry="18"/>
<text text-anchor="middle" x="321.78" y="-85.33" font-family="Times,serif" font-size="14.00" fill="white">spral ❎</text>
</a>
</g>
</g>
</g>
</svg>
