<?xml version="1.0" encoding="UTF-8" standalone="no"?>
<!DOCTYPE svg PUBLIC "-//W3C//DTD SVG 1.1//EN"
 "http://www.w3.org/Graphics/SVG/1.1/DTD/svg11.dtd">
<!-- Generated by graphviz version 11.0.0 (20240519.1550)
 -->
<!-- Pages: 1 -->
<svg width="2180pt" height="404pt"
 viewBox="0.00 0.00 2180.30 404.00" xmlns="http://www.w3.org/2000/svg" xmlns:xlink="http://www.w3.org/1999/xlink">
<g id="graph0" class="graph" transform="scale(1 1) rotate(0) translate(4 400)">
<polygon fill="white" stroke="none" points="-4,4 -4,-400 2176.3,-400 2176.3,4 -4,4"/>
<!-- cairo -->
<g id="node1" class="node">
<title>cairo</title>
<g id="a_node1"><a xlink:href="https://github.com/conda-forge/cairo-feedstock" xlink:title="cairo">
<ellipse fill="#fde725" stroke="black" cx="1349.05" cy="-306" rx="35.95" ry="18"/>
<text text-anchor="middle" x="1349.05" y="-301.32" font-family="Times,serif" font-size="14.00">cairo</text>
</a>
</g>
</g>
<!-- ffmpeg -->
<g id="node2" class="node">
<title>ffmpeg</title>
<g id="a_node2"><a xlink:href="https://github.com/conda-forge/ffmpeg-feedstock" xlink:title="ffmpeg">
<ellipse fill="#fde725" stroke="black" cx="88.05" cy="-162" rx="45.95" ry="18"/>
<text text-anchor="middle" x="88.05" y="-157.32" font-family="Times,serif" font-size="14.00">ffmpeg</text>
</a>
</g>
</g>
<!-- cairo&#45;&gt;ffmpeg -->
<g id="edge1" class="edge">
<title>cairo&#45;&gt;ffmpeg</title>
<path fill="none" stroke="black" d="M1322.25,-293.69C1269.58,-271.68 1154.06,-224.47 1112.05,-216 706.13,-134.16 592.65,-225.34 181.05,-180 167.28,-178.48 152.49,-176.12 138.84,-173.63"/>
<polygon fill="black" stroke="black" points="139.65,-170.22 129.18,-171.81 138.36,-177.1 139.65,-170.22"/>
</g>
<!-- gnuplot -->
<g id="node3" class="node">
<title>gnuplot</title>
<g id="a_node3"><a xlink:href="https://github.com/conda-forge/gnuplot-feedstock" xlink:title="gnuplot">
<ellipse fill="#fde725" stroke="black" cx="886.05" cy="-162" rx="49.63" ry="18"/>
<text text-anchor="middle" x="886.05" y="-157.32" font-family="Times,serif" font-size="14.00">gnuplot</text>
</a>
</g>
</g>
<!-- cairo&#45;&gt;gnuplot -->
<g id="edge2" class="edge">
<title>cairo&#45;&gt;gnuplot</title>
<path fill="none" stroke="black" d="M1350.85,-287.66C1351.91,-267.24 1350.12,-233.85 1330.05,-216 1265.84,-158.9 1029.48,-195.97 945.05,-180 941.21,-179.27 937.27,-178.41 933.33,-177.46"/>
<polygon fill="black" stroke="black" points="934.32,-174.1 923.77,-174.98 932.57,-180.88 934.32,-174.1"/>
</g>
<!-- lyx -->
<g id="node4" class="node">
<title>lyx</title>
<g id="a_node4"><a xlink:href="https://github.com/conda-forge/lyx-feedstock" xlink:title="lyx">
<ellipse fill="#fde725" stroke="black" cx="981.05" cy="-162" rx="27" ry="18"/>
<text text-anchor="middle" x="981.05" y="-157.32" font-family="Times,serif" font-size="14.00">lyx</text>
</a>
</g>
</g>
<!-- cairo&#45;&gt;lyx -->
<g id="edge3" class="edge">
<title>cairo&#45;&gt;lyx</title>
<path fill="none" stroke="black" d="M1358.76,-288.3C1368.84,-268.52 1380.85,-235.75 1363.05,-216 1311.29,-158.58 1091.5,-200.8 1017.05,-180 1015.43,-179.55 1013.79,-179.03 1012.15,-178.45"/>
<polygon fill="black" stroke="black" points="1013.51,-175.23 1002.93,-174.69 1010.87,-181.71 1013.51,-175.23"/>
</g>
<!-- qt&#45;main -->
<g id="node5" class="node">
<title>qt&#45;main</title>
<g id="a_node5"><a xlink:href="https://github.com/conda-forge/qt-main-feedstock" xlink:title="qt main">
<ellipse fill="#fde725" stroke="black" cx="1541.05" cy="-234" rx="49.63" ry="18"/>
<text text-anchor="middle" x="1541.05" y="-229.32" font-family="Times,serif" font-size="14.00">qt main</text>
</a>
</g>
</g>
<!-- cairo&#45;&gt;qt&#45;main -->
<g id="edge4" class="edge">
<title>cairo&#45;&gt;qt&#45;main</title>
<path fill="none" stroke="black" d="M1377.38,-294.67C1408.81,-283.21 1459.91,-264.58 1496.66,-251.18"/>
<polygon fill="black" stroke="black" points="1497.48,-254.61 1505.67,-247.9 1495.08,-248.04 1497.48,-254.61"/>
</g>
<!-- qt&#45;webengine -->
<g id="node6" class="node">
<title>qt&#45;webengine</title>
<g id="a_node6"><a xlink:href="https://github.com/conda-forge/qt-webengine-feedstock" xlink:title="qt webengine">
<ellipse fill="#fde725" stroke="black" cx="1105.05" cy="-162" rx="79.09" ry="18"/>
<text text-anchor="middle" x="1105.05" y="-157.32" font-family="Times,serif" font-size="14.00">qt webengine</text>
</a>
</g>
</g>
<!-- cairo&#45;&gt;qt&#45;webengine -->
<g id="edge5" class="edge">
<title>cairo&#45;&gt;qt&#45;webengine</title>
<path fill="none" stroke="black" d="M1368.18,-290.48C1390.2,-272.03 1420.94,-239.73 1401.05,-216 1371.62,-180.89 1243.14,-188.12 1198.05,-180 1190.97,-178.73 1183.59,-177.39 1176.22,-176.05"/>
<polygon fill="black" stroke="black" points="1177.03,-172.64 1166.56,-174.29 1175.77,-179.53 1177.03,-172.64"/>
</g>
<!-- silicon -->
<g id="node7" class="node">
<title>silicon</title>
<g id="a_node7"><a xlink:href="https://github.com/conda-forge/silicon-feedstock" xlink:title="silicon">
<ellipse fill="#fde725" stroke="black" cx="1278.05" cy="-234" rx="43.32" ry="18"/>
<text text-anchor="middle" x="1278.05" y="-229.32" font-family="Times,serif" font-size="14.00">silicon</text>
</a>
</g>
</g>
<!-- cairo&#45;&gt;silicon -->
<g id="edge6" class="edge">
<title>cairo&#45;&gt;silicon</title>
<path fill="none" stroke="black" d="M1333.29,-289.46C1324.23,-280.53 1312.65,-269.11 1302.43,-259.04"/>
<polygon fill="black" stroke="black" points="1304.91,-256.57 1295.33,-252.04 1300,-261.55 1304.91,-256.57"/>
</g>
<!-- vtk -->
<g id="node8" class="node">
<title>vtk</title>
<g id="a_node8"><a xlink:href="https://github.com/conda-forge/vtk-feedstock" xlink:title="vtk">
<ellipse fill="#fde725" stroke="black" cx="51.05" cy="-90" rx="27.01" ry="18"/>
<text text-anchor="middle" x="51.05" y="-85.33" font-family="Times,serif" font-size="14.00">vtk</text>
</a>
</g>
</g>
<!-- ffmpeg&#45;&gt;vtk -->
<g id="edge7" class="edge">
<title>ffmpeg&#45;&gt;vtk</title>
<path fill="none" stroke="black" d="M79.09,-144.05C74.85,-136.03 69.69,-126.26 64.95,-117.3"/>
<polygon fill="black" stroke="black" points="68.14,-115.85 60.38,-108.65 61.95,-119.12 68.14,-115.85"/>
</g>
<!-- gazebo -->
<g id="node9" class="node">
<title>gazebo</title>
<g id="a_node9"><a xlink:href="https://github.com/conda-forge/gazebo-feedstock" xlink:title="gazebo">
<ellipse fill="#fde725" stroke="black" cx="391.05" cy="-90" rx="46.47" ry="18"/>
<text text-anchor="middle" x="391.05" y="-85.33" font-family="Times,serif" font-size="14.00">gazebo</text>
</a>
</g>
</g>
<!-- ffmpeg&#45;&gt;gazebo -->
<g id="edge8" class="edge">
<title>ffmpeg&#45;&gt;gazebo</title>
<path fill="none" stroke="black" d="M127.04,-151.99C181.55,-139.4 280.57,-116.52 340.62,-102.65"/>
<polygon fill="black" stroke="black" points="341.3,-106.09 350.25,-100.42 339.72,-99.27 341.3,-106.09"/>
</g>
<!-- qt&#45;main&#45;&gt;gnuplot -->
<g id="edge9" class="edge">
<title>qt&#45;main&#45;&gt;gnuplot</title>
<path fill="none" stroke="black" d="M1493.46,-228.33C1457.62,-224.85 1407.26,-220.01 1363.05,-216 1177.35,-199.14 1128.39,-213.97 945.05,-180 941.21,-179.29 937.27,-178.43 933.32,-177.49"/>
<polygon fill="black" stroke="black" points="934.32,-174.13 923.76,-175.02 932.57,-180.91 934.32,-174.13"/>
</g>
<!-- qt&#45;main&#45;&gt;lyx -->
<g id="edge10" class="edge">
<title>qt&#45;main&#45;&gt;lyx</title>
<path fill="none" stroke="black" d="M1494.74,-227.05C1467.48,-223.64 1432.33,-219.36 1401.05,-216 1230.62,-197.67 1182.38,-225.28 1017.05,-180 1015.42,-179.55 1013.78,-179.04 1012.14,-178.47"/>
<polygon fill="black" stroke="black" points="1013.5,-175.25 1002.92,-174.73 1010.87,-181.74 1013.5,-175.25"/>
</g>
<!-- qt&#45;main&#45;&gt;qt&#45;webengine -->
<g id="edge11" class="edge">
<title>qt&#45;main&#45;&gt;qt&#45;webengine</title>
<path fill="none" stroke="black" d="M1503,-222.01C1494.51,-219.81 1485.51,-217.66 1477.05,-216 1354.37,-191.9 1321.59,-199.25 1198.05,-180 1190.64,-178.85 1182.91,-177.56 1175.22,-176.23"/>
<polygon fill="black" stroke="black" points="1175.95,-172.81 1165.5,-174.52 1174.74,-179.7 1175.95,-172.81"/>
</g>
<!-- qt&#45;main&#45;&gt;gazebo -->
<g id="edge12" class="edge">
<title>qt&#45;main&#45;&gt;gazebo</title>
<path fill="none" stroke="black" d="M1502.98,-222.12C1494.49,-219.91 1485.5,-217.73 1477.05,-216 1368.81,-193.78 1330.46,-228.25 1231.05,-180 1210.12,-169.84 1214.41,-153.22 1193.05,-144 1062.46,-87.66 695.82,-119.38 554.05,-108 518.18,-105.12 477.97,-100.94 446.46,-97.44"/>
<polygon fill="black" stroke="black" points="447.1,-93.99 436.78,-96.36 446.33,-100.95 447.1,-93.99"/>
</g>
<!-- colmap -->
<g id="node10" class="node">
<title>colmap</title>
<g id="a_node10"><a xlink:href="https://github.com/conda-forge/colmap-feedstock" xlink:title="colmap">
<ellipse fill="#fde725" stroke="black" cx="237.05" cy="-162" rx="47" ry="18"/>
<text text-anchor="middle" x="237.05" y="-157.32" font-family="Times,serif" font-size="14.00">colmap</text>
</a>
</g>
</g>
<!-- qt&#45;main&#45;&gt;colmap -->
<g id="edge13" class="edge">
<title>qt&#45;main&#45;&gt;colmap</title>
<path fill="none" stroke="black" d="M1493.33,-228.55C1450.59,-224.7 1386.18,-219.27 1330.05,-216 886.51,-190.15 772.77,-227.66 331.05,-180 317.27,-178.51 302.46,-176.18 288.77,-173.72"/>
<polygon fill="black" stroke="black" points="289.54,-170.31 279.07,-171.92 288.26,-177.19 289.54,-170.31"/>
</g>
<!-- kwindowsystem -->
<g id="node11" class="node">
<title>kwindowsystem</title>
<g id="a_node11"><a xlink:href="https://github.com/conda-forge/kwindowsystem-feedstock" xlink:title="kwindowsystem">
<ellipse fill="#fde725" stroke="black" cx="1723.05" cy="-90" rx="91.19" ry="18"/>
<text text-anchor="middle" x="1723.05" y="-85.33" font-family="Times,serif" font-size="14.00">kwindowsystem</text>
</a>
</g>
</g>
<!-- qt&#45;main&#45;&gt;kwindowsystem -->
<g id="edge14" class="edge">
<title>qt&#45;main&#45;&gt;kwindowsystem</title>
<path fill="none" stroke="black" d="M1572.06,-219.64C1592.41,-210.12 1619.04,-196.17 1640.05,-180 1664.08,-161.51 1687.25,-135.78 1702.98,-116.74"/>
<polygon fill="black" stroke="black" points="1705.54,-119.14 1709.12,-109.16 1700.1,-114.73 1705.54,-119.14"/>
</g>
<!-- kglobalaccel -->
<g id="node12" class="node">
<title>kglobalaccel</title>
<g id="a_node12"><a xlink:href="https://github.com/conda-forge/kglobalaccel-feedstock" xlink:title="kglobalaccel">
<ellipse fill="#fde725" stroke="black" cx="1604.05" cy="-18" rx="72.78" ry="18"/>
<text text-anchor="middle" x="1604.05" y="-13.32" font-family="Times,serif" font-size="14.00">kglobalaccel</text>
</a>
</g>
</g>
<!-- qt&#45;main&#45;&gt;kglobalaccel -->
<g id="edge15" class="edge">
<title>qt&#45;main&#45;&gt;kglobalaccel</title>
<path fill="none" stroke="black" d="M1558.09,-216.97C1567.36,-207.2 1578.11,-193.95 1584.05,-180 1602.63,-136.38 1605.42,-80.51 1605.16,-47.37"/>
<polygon fill="black" stroke="black" points="1608.66,-47.69 1604.97,-37.76 1601.66,-47.83 1608.66,-47.69"/>
</g>
<!-- qt6&#45;advanced&#45;docking&#45;system -->
<g id="node13" class="node">
<title>qt6&#45;advanced&#45;docking&#45;system</title>
<g id="a_node13"><a xlink:href="https://github.com/conda-forge/qt6-advanced-docking-system-feedstock" xlink:title="qt6 advanced docking system">
<ellipse fill="#fde725" stroke="black" cx="1400.05" cy="-162" rx="159.59" ry="18"/>
<text text-anchor="middle" x="1400.05" y="-157.32" font-family="Times,serif" font-size="14.00">qt6 advanced docking system</text>
</a>
</g>
</g>
<!-- qt&#45;main&#45;&gt;qt6&#45;advanced&#45;docking&#45;system -->
<g id="edge16" class="edge">
<title>qt&#45;main&#45;&gt;qt6&#45;advanced&#45;docking&#45;system</title>
<path fill="none" stroke="black" d="M1512.52,-218.83C1493,-209.14 1466.73,-196.1 1444.48,-185.06"/>
<polygon fill="black" stroke="black" points="1446.13,-181.97 1435.62,-180.66 1443.02,-188.24 1446.13,-181.97"/>
</g>
<!-- adwaita&#45;qt -->
<g id="node14" class="node">
<title>adwaita&#45;qt</title>
<g id="a_node14"><a xlink:href="https://github.com/conda-forge/adwaita-qt-feedstock" xlink:title="adwaita qt">
<ellipse fill="#fde725" stroke="black" cx="1512.05" cy="-90" rx="64.36" ry="18"/>
<text text-anchor="middle" x="1512.05" y="-85.33" font-family="Times,serif" font-size="14.00">adwaita qt</text>
</a>
</g>
</g>
<!-- qt&#45;main&#45;&gt;adwaita&#45;qt -->
<g id="edge17" class="edge">
<title>qt&#45;main&#45;&gt;adwaita&#45;qt</title>
<path fill="none" stroke="black" d="M1553.41,-216.21C1565.18,-198.03 1579.66,-168.35 1569.05,-144 1564.06,-132.55 1555.24,-122.45 1546.01,-114.23"/>
<polygon fill="black" stroke="black" points="1548.26,-111.55 1538.31,-107.9 1543.81,-116.96 1548.26,-111.55"/>
</g>
<!-- qt&#45;webengine&#45;&gt;kwindowsystem -->
<g id="edge18" class="edge">
<title>qt&#45;webengine&#45;&gt;kwindowsystem</title>
<path fill="none" stroke="black" d="M1171.04,-151.68C1190.37,-149.07 1211.54,-146.31 1231.05,-144 1388.1,-125.42 1427.89,-125.67 1585.05,-108 1601.78,-106.12 1619.63,-104 1636.75,-101.92"/>
<polygon fill="black" stroke="black" points="1636.88,-105.43 1646.38,-100.74 1636.03,-98.48 1636.88,-105.43"/>
</g>
<!-- qt&#45;webengine&#45;&gt;kglobalaccel -->
<g id="edge19" class="edge">
<title>qt&#45;webengine&#45;&gt;kglobalaccel</title>
<path fill="none" stroke="black" d="M1152.9,-147.38C1245.09,-121.15 1447,-63.69 1546.41,-35.4"/>
<polygon fill="black" stroke="black" points="1547.32,-38.78 1555.98,-32.68 1545.41,-32.05 1547.32,-38.78"/>
</g>
<!-- kwindowsystem&#45;&gt;kglobalaccel -->
<g id="edge54" class="edge">
<title>kwindowsystem&#45;&gt;kglobalaccel</title>
<path fill="none" stroke="black" d="M1694.85,-72.41C1678.76,-62.95 1658.41,-50.97 1641.05,-40.76"/>
<polygon fill="black" stroke="black" points="1642.93,-37.81 1632.53,-35.76 1639.38,-43.84 1642.93,-37.81"/>
</g>
<!-- gstreamer -->
<g id="node15" class="node">
<title>gstreamer</title>
<g id="a_node15"><a xlink:href="https://github.com/conda-forge/gstreamer-feedstock" xlink:title="gstreamer">
<ellipse fill="#fde725" stroke="black" cx="1196.05" cy="-306" rx="63.31" ry="18"/>
<text text-anchor="middle" x="1196.05" y="-301.32" font-family="Times,serif" font-size="14.00">gstreamer</text>
</a>
</g>
</g>
<!-- gstreamer&#45;&gt;qt&#45;main -->
<g id="edge20" class="edge">
<title>gstreamer&#45;&gt;qt&#45;main</title>
<path fill="none" stroke="black" d="M1246.58,-294.75C1310.99,-281.68 1421.82,-259.19 1487.59,-245.85"/>
<polygon fill="black" stroke="black" points="1487.95,-249.35 1497.05,-243.93 1486.56,-242.48 1487.95,-249.35"/>
</g>
<!-- gstreamer&#45;&gt;qt&#45;webengine -->
<g id="edge21" class="edge">
<title>gstreamer&#45;&gt;qt&#45;webengine</title>
<path fill="none" stroke="black" d="M1187.08,-287.89C1177.34,-269.68 1161.04,-240.23 1145.05,-216 1139.05,-206.91 1132.03,-197.32 1125.57,-188.82"/>
<polygon fill="black" stroke="black" points="1128.39,-186.76 1119.51,-180.99 1122.85,-191.04 1128.39,-186.76"/>
</g>
<!-- gst&#45;plugins&#45;ugly -->
<g id="node16" class="node">
<title>gst&#45;plugins&#45;ugly</title>
<g id="a_node16"><a xlink:href="https://github.com/conda-forge/gst-plugins-ugly-feedstock" xlink:title="gst plugins ugly">
<ellipse fill="#fde725" stroke="black" cx="816.05" cy="-234" rx="91.72" ry="18"/>
<text text-anchor="middle" x="816.05" y="-229.32" font-family="Times,serif" font-size="14.00">gst plugins ugly</text>
</a>
</g>
</g>
<!-- gstreamer&#45;&gt;gst&#45;plugins&#45;ugly -->
<g id="edge22" class="edge">
<title>gstreamer&#45;&gt;gst&#45;plugins&#45;ugly</title>
<path fill="none" stroke="black" d="M1144.01,-295.41C1078.95,-283.43 967.07,-262.82 892.33,-249.05"/>
<polygon fill="black" stroke="black" points="893.08,-245.63 882.61,-247.26 891.81,-252.52 893.08,-245.63"/>
</g>
<!-- gst&#45;plugins&#45;bad -->
<g id="node17" class="node">
<title>gst&#45;plugins&#45;bad</title>
<g id="a_node17"><a xlink:href="https://github.com/conda-forge/gst-plugins-bad-feedstock" xlink:title="gst plugins bad">
<ellipse fill="#fde725" stroke="black" cx="1014.05" cy="-234" rx="88.56" ry="18"/>
<text text-anchor="middle" x="1014.05" y="-229.32" font-family="Times,serif" font-size="14.00">gst plugins bad</text>
</a>
</g>
</g>
<!-- gstreamer&#45;&gt;gst&#45;plugins&#45;bad -->
<g id="edge23" class="edge">
<title>gstreamer&#45;&gt;gst&#45;plugins&#45;bad</title>
<path fill="none" stroke="black" d="M1159.66,-291C1132.49,-280.56 1095.03,-266.15 1064.91,-254.56"/>
<polygon fill="black" stroke="black" points="1066.18,-251.3 1055.59,-250.98 1063.66,-257.83 1066.18,-251.3"/>
</g>
<!-- libglu -->
<g id="node18" class="node">
<title>libglu</title>
<g id="a_node18"><a xlink:href="https://github.com/conda-forge/libglu-feedstock" xlink:title="libglu">
<ellipse fill="#fde725" stroke="black" cx="351.05" cy="-234" rx="39.63" ry="18"/>
<text text-anchor="middle" x="351.05" y="-229.32" font-family="Times,serif" font-size="14.00">libglu</text>
</a>
</g>
</g>
<!-- libglu&#45;&gt;vtk -->
<g id="edge24" class="edge">
<title>libglu&#45;&gt;vtk</title>
<path fill="none" stroke="black" d="M314.59,-226.65C278.76,-219.29 223.45,-204.86 181.05,-180 160.98,-168.23 161.7,-157.9 143.05,-144 124.02,-129.82 100.87,-116.5 82.55,-106.76"/>
<polygon fill="black" stroke="black" points="84.21,-103.68 73.73,-102.16 80.98,-109.89 84.21,-103.68"/>
</g>
<!-- libglu&#45;&gt;gazebo -->
<g id="edge25" class="edge">
<title>libglu&#45;&gt;gazebo</title>
<path fill="none" stroke="black" d="M341.19,-216.29C331.72,-197.91 320.31,-167.82 331.05,-144 336.66,-131.55 346.8,-120.86 357.17,-112.4"/>
<polygon fill="black" stroke="black" points="359.15,-115.29 365.02,-106.47 354.93,-109.7 359.15,-115.29"/>
</g>
<!-- libglu&#45;&gt;colmap -->
<g id="edge28" class="edge">
<title>libglu&#45;&gt;colmap</title>
<path fill="none" stroke="black" d="M328.25,-219C311.73,-208.86 289.12,-194.97 270.55,-183.57"/>
<polygon fill="black" stroke="black" points="272.63,-180.74 262.27,-178.49 268.96,-186.7 272.63,-180.74"/>
</g>
<!-- freeglut -->
<g id="node19" class="node">
<title>freeglut</title>
<g id="a_node19"><a xlink:href="https://github.com/conda-forge/freeglut-feedstock" xlink:title="freeglut">
<ellipse fill="#fde725" stroke="black" cx="391.05" cy="-162" rx="51.21" ry="18"/>
<text text-anchor="middle" x="391.05" y="-157.32" font-family="Times,serif" font-size="14.00">freeglut</text>
</a>
</g>
</g>
<!-- libglu&#45;&gt;freeglut -->
<g id="edge26" class="edge">
<title>libglu&#45;&gt;freeglut</title>
<path fill="none" stroke="black" d="M360.73,-216.05C365.25,-208.14 370.74,-198.54 375.8,-189.69"/>
<polygon fill="black" stroke="black" points="378.78,-191.52 380.7,-181.1 372.7,-188.05 378.78,-191.52"/>
</g>
<!-- fltk -->
<g id="node20" class="node">
<title>fltk</title>
<g id="a_node20"><a xlink:href="https://github.com/conda-forge/fltk-feedstock" xlink:title="fltk">
<ellipse fill="#fde725" stroke="black" cx="488.05" cy="-162" rx="27.53" ry="18"/>
<text text-anchor="middle" x="488.05" y="-157.32" font-family="Times,serif" font-size="14.00">fltk</text>
</a>
</g>
</g>
<!-- libglu&#45;&gt;fltk -->
<g id="edge27" class="edge">
<title>libglu&#45;&gt;fltk</title>
<path fill="none" stroke="black" d="M376.82,-219.83C399.5,-208.24 432.6,-191.33 456.79,-178.97"/>
<polygon fill="black" stroke="black" points="458.23,-182.17 465.54,-174.5 455.04,-175.93 458.23,-182.17"/>
</g>
<!-- freeglut&#45;&gt;gazebo -->
<g id="edge29" class="edge">
<title>freeglut&#45;&gt;gazebo</title>
<path fill="none" stroke="black" d="M391.05,-143.7C391.05,-136.41 391.05,-127.73 391.05,-119.54"/>
<polygon fill="black" stroke="black" points="394.55,-119.62 391.05,-109.62 387.55,-119.62 394.55,-119.62"/>
</g>
<!-- mesalib -->
<g id="node21" class="node">
<title>mesalib</title>
<g id="a_node21"><a xlink:href="https://github.com/conda-forge/mesalib-feedstock" xlink:title="mesalib">
<ellipse fill="#fde725" stroke="black" cx="85.05" cy="-306" rx="50.16" ry="18"/>
<text text-anchor="middle" x="85.05" y="-301.32" font-family="Times,serif" font-size="14.00">mesalib</text>
</a>
</g>
</g>
<!-- mesalib&#45;&gt;vtk -->
<g id="edge30" class="edge">
<title>mesalib&#45;&gt;vtk</title>
<path fill="none" stroke="black" d="M75.36,-287.89C62.69,-264.44 41.15,-220.57 33.05,-180 29.92,-164.31 30.44,-159.79 33.05,-144 34.45,-135.53 37.03,-126.59 39.8,-118.52"/>
<polygon fill="black" stroke="black" points="43.05,-119.83 43.23,-109.24 36.48,-117.41 43.05,-119.83"/>
</g>
<!-- xorg&#45;libx11 -->
<g id="node22" class="node">
<title>xorg&#45;libx11</title>
<g id="a_node22"><a xlink:href="https://github.com/conda-forge/xorg-libx11-feedstock/pull/39" xlink:title="xorg libx11 ✓">
<ellipse fill="#31688e" stroke="black" cx="639.05" cy="-378" rx="75.94" ry="18"/>
<text text-anchor="middle" x="639.05" y="-373.32" font-family="Times,serif" font-size="14.00" fill="white">xorg libx11 ✓</text>
</a>
</g>
</g>
<!-- xorg&#45;libx11&#45;&gt;cairo -->
<g id="edge31" class="edge">
<title>xorg&#45;libx11&#45;&gt;cairo</title>
<path fill="none" stroke="black" d="M712.98,-373.72C830.88,-367.82 1068.54,-353.23 1268.05,-324 1280.33,-322.2 1293.55,-319.68 1305.67,-317.13"/>
<polygon fill="black" stroke="black" points="1306.38,-320.56 1315.41,-315.02 1304.9,-313.72 1306.38,-320.56"/>
</g>
<!-- xorg&#45;libx11&#45;&gt;ffmpeg -->
<g id="edge32" class="edge">
<title>xorg&#45;libx11&#45;&gt;ffmpeg</title>
<path fill="none" stroke="black" d="M564.83,-373.7C498.97,-368.68 401.2,-356 322.05,-324 299.8,-315.01 176.09,-226.6 118.08,-184.75"/>
<polygon fill="black" stroke="black" points="120.42,-182.12 110.26,-179.1 116.32,-187.79 120.42,-182.12"/>
</g>
<!-- xorg&#45;libx11&#45;&gt;gnuplot -->
<g id="edge33" class="edge">
<title>xorg&#45;libx11&#45;&gt;gnuplot</title>
<path fill="none" stroke="black" d="M650.86,-359.79C657.54,-349.63 665.79,-336.38 672.05,-324 695.35,-277.89 677.11,-251.07 715.05,-216 724.16,-207.58 788.45,-189.04 835.53,-176.28"/>
<polygon fill="black" stroke="black" points="836.27,-179.71 845.02,-173.73 834.45,-172.95 836.27,-179.71"/>
</g>
<!-- xorg&#45;libx11&#45;&gt;lyx -->
<g id="edge34" class="edge">
<title>xorg&#45;libx11&#45;&gt;lyx</title>
<path fill="none" stroke="black" d="M705.95,-369.29C824.27,-354.14 1062.67,-316.22 1112.05,-252 1121.8,-239.32 1121.14,-229.17 1112.05,-216 1086.4,-178.84 1058.61,-197.65 1017.05,-180 1015.54,-179.36 1014,-178.69 1012.45,-178"/>
<polygon fill="black" stroke="black" points="1014.17,-174.94 1003.62,-173.98 1011.27,-181.31 1014.17,-174.94"/>
</g>
<!-- xorg&#45;libx11&#45;&gt;qt&#45;main -->
<g id="edge35" class="edge">
<title>xorg&#45;libx11&#45;&gt;qt&#45;main</title>
<path fill="none" stroke="black" d="M714.95,-375.88C908.76,-372.51 1411.36,-360.34 1477.05,-324 1501.58,-310.43 1519.07,-283 1529.5,-262.16"/>
<polygon fill="black" stroke="black" points="1532.56,-263.88 1533.67,-253.34 1526.23,-260.89 1532.56,-263.88"/>
</g>
<!-- xorg&#45;libx11&#45;&gt;qt&#45;webengine -->
<g id="edge36" class="edge">
<title>xorg&#45;libx11&#45;&gt;qt&#45;webengine</title>
<path fill="none" stroke="black" d="M714.95,-376.39C895.84,-374.28 1341.25,-364.94 1394.05,-324 1432.91,-293.87 1450,-253.37 1418.05,-216 1384.57,-176.85 1239.75,-189.11 1189.05,-180 1183.83,-179.06 1178.44,-178.06 1173.02,-177.02"/>
<polygon fill="black" stroke="black" points="1173.89,-173.62 1163.4,-175.15 1172.55,-180.49 1173.89,-173.62"/>
</g>
<!-- xorg&#45;libx11&#45;&gt;vtk -->
<g id="edge37" class="edge">
<title>xorg&#45;libx11&#45;&gt;vtk</title>
<path fill="none" stroke="black" d="M563.23,-376.05C407.19,-373.31 61.7,-362.87 26.05,-324 -26.38,-266.84 13.15,-165.59 36.74,-117.62"/>
<polygon fill="black" stroke="black" points="39.83,-119.28 41.23,-108.78 33.59,-116.11 39.83,-119.28"/>
</g>
<!-- xorg&#45;libx11&#45;&gt;gazebo -->
<g id="edge38" class="edge">
<title>xorg&#45;libx11&#45;&gt;gazebo</title>
<path fill="none" stroke="black" d="M626.2,-359.86C618.91,-349.73 609.91,-336.48 603.05,-324 561.04,-247.6 587.69,-204.65 525.05,-144 502.78,-122.43 470.67,-109.33 443.46,-101.54"/>
<polygon fill="black" stroke="black" points="444.56,-98.22 434,-99.01 442.75,-104.98 444.56,-98.22"/>
</g>
<!-- xorg&#45;libx11&#45;&gt;colmap -->
<g id="edge45" class="edge">
<title>xorg&#45;libx11&#45;&gt;colmap</title>
<path fill="none" stroke="black" d="M564.44,-374.28C508.26,-369.47 430.95,-356.8 371.05,-324 314.29,-292.92 271.7,-227.27 251,-190.11"/>
<polygon fill="black" stroke="black" points="254.08,-188.46 246.24,-181.34 247.93,-191.79 254.08,-188.46"/>
</g>
<!-- xorg&#45;libx11&#45;&gt;kwindowsystem -->
<g id="edge48" class="edge">
<title>xorg&#45;libx11&#45;&gt;kwindowsystem</title>
<path fill="none" stroke="black" d="M714.43,-374.99C912.22,-369.36 1435.9,-351.96 1509.05,-324 1599.34,-289.49 1613.33,-256.79 1672.05,-180 1686.81,-160.7 1700.33,-136.69 1709.73,-118.47"/>
<polygon fill="black" stroke="black" points="1712.83,-120.09 1714.22,-109.58 1706.58,-116.93 1712.83,-120.09"/>
</g>
<!-- xorg&#45;libx11&#45;&gt;kglobalaccel -->
<g id="edge49" class="edge">
<title>xorg&#45;libx11&#45;&gt;kglobalaccel</title>
<path fill="none" stroke="black" d="M642.39,-359.52C649.8,-322.41 668.48,-237.4 688.05,-216 716.85,-184.52 739.69,-200.61 777.05,-180 801.02,-166.77 801.74,-154.46 827.05,-144 1065.04,-45.68 1373.73,-24.38 1520.04,-19.98"/>
<polygon fill="black" stroke="black" points="1519.73,-23.49 1529.63,-19.71 1519.54,-16.49 1519.73,-23.49"/>
</g>
<!-- xorg&#45;libx11&#45;&gt;gstreamer -->
<g id="edge39" class="edge">
<title>xorg&#45;libx11&#45;&gt;gstreamer</title>
<path fill="none" stroke="black" d="M710.54,-371.52C804.61,-363.75 974.91,-347.8 1119.05,-324 1125.04,-323.01 1131.27,-321.85 1137.48,-320.62"/>
<polygon fill="black" stroke="black" points="1137.99,-324.08 1147.08,-318.63 1136.57,-317.23 1137.99,-324.08"/>
</g>
<!-- xorg&#45;libx11&#45;&gt;gst&#45;plugins&#45;ugly -->
<g id="edge40" class="edge">
<title>xorg&#45;libx11&#45;&gt;gst&#45;plugins&#45;ugly</title>
<path fill="none" stroke="black" d="M662,-360.38C676.03,-350.1 694.25,-336.51 710.05,-324 736.92,-302.72 766.75,-277.53 787.9,-259.39"/>
<polygon fill="black" stroke="black" points="789.96,-262.24 795.25,-253.06 785.39,-256.93 789.96,-262.24"/>
</g>
<!-- xorg&#45;libx11&#45;&gt;gst&#45;plugins&#45;bad -->
<g id="edge41" class="edge">
<title>xorg&#45;libx11&#45;&gt;gst&#45;plugins&#45;bad</title>
<path fill="none" stroke="black" d="M678.12,-362.21C746.24,-336.41 886.72,-283.22 962.65,-254.46"/>
<polygon fill="black" stroke="black" points="963.84,-257.76 971.95,-250.94 961.36,-251.21 963.84,-257.76"/>
</g>
<!-- xorg&#45;libx11&#45;&gt;libglu -->
<g id="edge42" class="edge">
<title>xorg&#45;libx11&#45;&gt;libglu</title>
<path fill="none" stroke="black" d="M563.98,-374.63C515.07,-369.76 452.04,-356.86 406.05,-324 384.73,-308.76 369.97,-282.43 361.15,-262.35"/>
<polygon fill="black" stroke="black" points="364.48,-261.25 357.43,-253.35 358.01,-263.93 364.48,-261.25"/>
</g>
<!-- xorg&#45;libx11&#45;&gt;freeglut -->
<g id="edge43" class="edge">
<title>xorg&#45;libx11&#45;&gt;freeglut</title>
<path fill="none" stroke="black" d="M587.72,-364.34C561.13,-355.98 529.25,-343 505.05,-324 457.93,-287.01 421.98,-225.41 403.94,-190.09"/>
<polygon fill="black" stroke="black" points="407.19,-188.78 399.59,-181.39 400.93,-191.9 407.19,-188.78"/>
</g>
<!-- xorg&#45;libx11&#45;&gt;fltk -->
<g id="edge44" class="edge">
<title>xorg&#45;libx11&#45;&gt;fltk</title>
<path fill="none" stroke="black" d="M590.79,-363.72C569.36,-355.53 545.52,-342.88 530.05,-324 498.68,-285.73 490.48,-226.59 488.5,-191.64"/>
<polygon fill="black" stroke="black" points="492,-191.72 488.09,-181.88 485.01,-192.01 492,-191.72"/>
</g>
<!-- xorg&#45;libx11&#45;&gt;mesalib -->
<g id="edge46" class="edge">
<title>xorg&#45;libx11&#45;&gt;mesalib</title>
<path fill="none" stroke="black" d="M568.8,-370.79C477.21,-362.3 312.17,-345.61 172.05,-324 161.21,-322.33 149.67,-320.27 138.65,-318.17"/>
<polygon fill="black" stroke="black" points="139.38,-314.75 128.9,-316.27 138.04,-321.62 139.38,-314.75"/>
</g>
<!-- libva -->
<g id="node23" class="node">
<title>libva</title>
<g id="a_node23"><a xlink:href="https://github.com/conda-forge/libva-feedstock" xlink:title="libva">
<ellipse fill="#fde725" stroke="black" cx="116.05" cy="-234" rx="35.42" ry="18"/>
<text text-anchor="middle" x="116.05" y="-229.32" font-family="Times,serif" font-size="14.00">libva</text>
</a>
</g>
</g>
<!-- xorg&#45;libx11&#45;&gt;libva -->
<g id="edge47" class="edge">
<title>xorg&#45;libx11&#45;&gt;libva</title>
<path fill="none" stroke="black" d="M566.1,-372.69C463.43,-365.79 282.14,-350.29 222.05,-324 188.34,-309.25 157.03,-280.3 137.31,-259.42"/>
<polygon fill="black" stroke="black" points="139.97,-257.14 130.62,-252.14 134.81,-261.87 139.97,-257.14"/>
</g>
<!-- vulkan&#45;loader -->
<g id="node24" class="node">
<title>vulkan&#45;loader</title>
<g id="a_node24"><a xlink:href="https://github.com/conda-forge/vulkan-loader-feedstock" xlink:title="vulkan loader">
<ellipse fill="#fde725" stroke="black" cx="689.05" cy="-162" rx="79.09" ry="18"/>
<text text-anchor="middle" x="689.05" y="-157.32" font-family="Times,serif" font-size="14.00">vulkan loader</text>
</a>
</g>
</g>
<!-- xorg&#45;libx11&#45;&gt;vulkan&#45;loader -->
<g id="edge50" class="edge">
<title>xorg&#45;libx11&#45;&gt;vulkan&#45;loader</title>
<path fill="none" stroke="black" d="M636,-359.82C631.38,-329.57 625.06,-265.32 644.05,-216 648,-205.74 654.83,-196.08 662,-187.88"/>
<polygon fill="black" stroke="black" points="664.45,-190.39 668.75,-180.7 659.35,-185.59 664.45,-190.39"/>
</g>
<!-- vulkan&#45;tools -->
<g id="node25" class="node">
<title>vulkan&#45;tools</title>
<g id="a_node25"><a xlink:href="https://github.com/conda-forge/vulkan-tools-feedstock" xlink:title="vulkan tools">
<ellipse fill="#fde725" stroke="black" cx="635.05" cy="-90" rx="71.73" ry="18"/>
<text text-anchor="middle" x="635.05" y="-85.33" font-family="Times,serif" font-size="14.00">vulkan tools</text>
</a>
</g>
</g>
<!-- xorg&#45;libx11&#45;&gt;vulkan&#45;tools -->
<g id="edge51" class="edge">
<title>xorg&#45;libx11&#45;&gt;vulkan&#45;tools</title>
<path fill="none" stroke="black" d="M631.08,-359.72C614.15,-320.63 577.99,-222.66 601.05,-144 603.8,-134.6 608.79,-125.29 614.12,-117.16"/>
<polygon fill="black" stroke="black" points="616.88,-119.32 619.78,-109.13 611.15,-115.29 616.88,-119.32"/>
</g>
<!-- nsight&#45;compute -->
<g id="node26" class="node">
<title>nsight&#45;compute</title>
<g id="a_node26"><a xlink:href="https://github.com/conda-forge/nsight-compute-feedstock" xlink:title="nsight compute">
<ellipse fill="#fde725" stroke="black" cx="1959.05" cy="-234" rx="89.09" ry="18"/>
<text text-anchor="middle" x="1959.05" y="-229.32" font-family="Times,serif" font-size="14.00">nsight compute</text>
</a>
</g>
</g>
<!-- xorg&#45;libx11&#45;&gt;nsight&#45;compute -->
<g id="edge52" class="edge">
<title>xorg&#45;libx11&#45;&gt;nsight&#45;compute</title>
<path fill="none" stroke="black" d="M715.3,-377.04C967.89,-376.71 1767.23,-371.88 1872.05,-324 1892.07,-314.86 1890.71,-303.78 1906.05,-288 1914.98,-278.81 1924.89,-268.84 1933.7,-260.06"/>
<polygon fill="black" stroke="black" points="1936.04,-262.66 1940.67,-253.13 1931.11,-257.7 1936.04,-262.66"/>
</g>
<!-- libva&#45;&gt;ffmpeg -->
<g id="edge53" class="edge">
<title>libva&#45;&gt;ffmpeg</title>
<path fill="none" stroke="black" d="M109.27,-216.05C106.26,-208.52 102.62,-199.44 99.22,-190.94"/>
<polygon fill="black" stroke="black" points="102.49,-189.67 95.52,-181.68 95.99,-192.27 102.49,-189.67"/>
</g>
<!-- vulkan&#45;loader&#45;&gt;vulkan&#45;tools -->
<g id="edge55" class="edge">
<title>vulkan&#45;loader&#45;&gt;vulkan&#45;tools</title>
<path fill="none" stroke="black" d="M675.98,-144.05C669.68,-135.89 661.98,-125.91 654.97,-116.82"/>
<polygon fill="black" stroke="black" points="657.8,-114.77 648.93,-108.99 652.26,-119.04 657.8,-114.77"/>
</g>
<!-- xcb&#45;util&#45;keysyms -->
<g id="node27" class="node">
<title>xcb&#45;util&#45;keysyms</title>
<g id="a_node27"><a xlink:href="https://github.com/conda-forge/xcb-util-keysyms-feedstock/pull/5" xlink:title="xcb util keysyms ✓">
<ellipse fill="#31688e" stroke="black" cx="1760.05" cy="-306" rx="102.77" ry="18"/>
<text text-anchor="middle" x="1760.05" y="-301.32" font-family="Times,serif" font-size="14.00" fill="white">xcb util keysyms ✓</text>
</a>
</g>
</g>
<!-- xcb&#45;util&#45;keysyms&#45;&gt;qt&#45;main -->
<g id="edge56" class="edge">
<title>xcb&#45;util&#45;keysyms&#45;&gt;qt&#45;main</title>
<path fill="none" stroke="black" d="M1711.99,-289.64C1675.25,-277.89 1624.86,-261.79 1588.32,-250.11"/>
<polygon fill="black" stroke="black" points="1589.48,-246.81 1578.89,-247.1 1587.35,-253.47 1589.48,-246.81"/>
</g>
<!-- xcb&#45;util&#45;keysyms&#45;&gt;kwindowsystem -->
<g id="edge57" class="edge">
<title>xcb&#45;util&#45;keysyms&#45;&gt;kwindowsystem</title>
<path fill="none" stroke="black" d="M1757.08,-287.85C1750.74,-251.14 1735.79,-164.66 1727.98,-119.53"/>
<polygon fill="black" stroke="black" points="1731.44,-118.98 1726.29,-109.72 1724.54,-120.17 1731.44,-118.98"/>
</g>
<!-- xcb&#45;util&#45;keysyms&#45;&gt;kglobalaccel -->
<g id="edge58" class="edge">
<title>xcb&#45;util&#45;keysyms&#45;&gt;kglobalaccel</title>
<path fill="none" stroke="black" d="M1773.8,-287.77C1805.22,-246.19 1875.65,-138.85 1823.05,-72 1805.43,-49.6 1736.91,-35.53 1681.15,-27.56"/>
<polygon fill="black" stroke="black" points="1681.72,-24.11 1671.33,-26.21 1680.76,-31.04 1681.72,-24.11"/>
</g>
<!-- xcb&#45;util&#45;keysyms&#45;&gt;nsight&#45;compute -->
<g id="edge59" class="edge">
<title>xcb&#45;util&#45;keysyms&#45;&gt;nsight&#45;compute</title>
<path fill="none" stroke="black" d="M1804.21,-289.46C1834.02,-278.98 1873.54,-265.08 1905.19,-253.94"/>
<polygon fill="black" stroke="black" points="1906.33,-257.25 1914.61,-250.63 1904.01,-250.65 1906.33,-257.25"/>
</g>
<!-- xcb&#45;util&#45;image -->
<g id="node28" class="node">
<title>xcb&#45;util&#45;image</title>
<g id="a_node28"><a xlink:href="https://github.com/conda-forge/xcb-util-image-feedstock" xlink:title="xcb util image">
<ellipse fill="#35b779" stroke="black" cx="2090.05" cy="-378" rx="82.25" ry="18"/>
<text text-anchor="middle" x="2090.05" y="-373.32" font-family="Times,serif" font-size="14.00">xcb util image</text>
</a>
</g>
</g>
<!-- xcb&#45;util&#45;image&#45;&gt;qt&#45;main -->
<g id="edge60" class="edge">
<title>xcb&#45;util&#45;image&#45;&gt;qt&#45;main</title>
<path fill="none" stroke="black" d="M2030.94,-365.23C2020.34,-363.32 2009.39,-361.49 1999.05,-360 1843.84,-337.58 1790.99,-388.49 1648.05,-324 1626.55,-314.3 1627.03,-303.26 1609.05,-288 1596.77,-277.58 1582.81,-266.56 1570.74,-257.28"/>
<polygon fill="black" stroke="black" points="1573.21,-254.77 1563.14,-251.48 1568.97,-260.33 1573.21,-254.77"/>
</g>
<!-- xcb&#45;util&#45;image&#45;&gt;nsight&#45;compute -->
<g id="edge61" class="edge">
<title>xcb&#45;util&#45;image&#45;&gt;nsight&#45;compute</title>
<path fill="none" stroke="black" d="M2108.86,-360.25C2127.54,-341.58 2151.1,-310.98 2134.05,-288 2115.43,-262.91 2085.27,-249.28 2055.18,-242"/>
<polygon fill="black" stroke="black" points="2056.12,-238.63 2045.6,-239.92 2054.63,-245.47 2056.12,-238.63"/>
</g>
<!-- xcb&#45;util&#45;cursor -->
<g id="node29" class="node">
<title>xcb&#45;util&#45;cursor</title>
<g id="a_node29"><a xlink:href="https://github.com/conda-forge/xcb-util-cursor-feedstock" xlink:title="xcb util cursor">
<ellipse fill="#fde725" stroke="black" cx="2041.05" cy="-306" rx="83.83" ry="18"/>
<text text-anchor="middle" x="2041.05" y="-301.32" font-family="Times,serif" font-size="14.00">xcb util cursor</text>
</a>
</g>
</g>
<!-- xcb&#45;util&#45;image&#45;&gt;xcb&#45;util&#45;cursor -->
<g id="edge62" class="edge">
<title>xcb&#45;util&#45;image&#45;&gt;xcb&#45;util&#45;cursor</title>
<path fill="none" stroke="black" d="M2078.19,-360.05C2072.61,-352.09 2065.84,-342.41 2059.61,-333.51"/>
<polygon fill="black" stroke="black" points="2062.61,-331.7 2054.01,-325.52 2056.88,-335.71 2062.61,-331.7"/>
</g>
<!-- xcb&#45;util&#45;cursor&#45;&gt;nsight&#45;compute -->
<g id="edge63" class="edge">
<title>xcb&#45;util&#45;cursor&#45;&gt;nsight&#45;compute</title>
<path fill="none" stroke="black" d="M2021.2,-288.05C2011.1,-279.43 1998.65,-268.8 1987.54,-259.32"/>
<polygon fill="black" stroke="black" points="1990.03,-256.84 1980.15,-253.01 1985.49,-262.17 1990.03,-256.84"/>
</g>
<!-- xcb&#45;util&#45;renderutil -->
<g id="node30" class="node">
<title>xcb&#45;util&#45;renderutil</title>
<g id="a_node30"><a xlink:href="https://github.com/conda-forge/xcb-util-renderutil-feedstock/pull/6" xlink:title="xcb util renderutil ✓">
<ellipse fill="#31688e" stroke="black" cx="1880.05" cy="-378" rx="110.13" ry="18"/>
<text text-anchor="middle" x="1880.05" y="-373.32" font-family="Times,serif" font-size="14.00" fill="white">xcb util renderutil ✓</text>
</a>
</g>
</g>
<!-- xcb&#45;util&#45;renderutil&#45;&gt;qt&#45;main -->
<g id="edge64" class="edge">
<title>xcb&#45;util&#45;renderutil&#45;&gt;qt&#45;main</title>
<path fill="none" stroke="black" d="M1775.13,-372.3C1723.9,-366.09 1663.12,-352.64 1615.05,-324 1589.8,-308.96 1569.24,-282.04 1556.26,-261.74"/>
<polygon fill="black" stroke="black" points="1559.35,-260.08 1551.13,-253.39 1553.38,-263.75 1559.35,-260.08"/>
</g>
<!-- xcb&#45;util&#45;renderutil&#45;&gt;nsight&#45;compute -->
<g id="edge65" class="edge">
<title>xcb&#45;util&#45;renderutil&#45;&gt;nsight&#45;compute</title>
<path fill="none" stroke="black" d="M1889.74,-359.59C1903.31,-335.18 1928.13,-290.58 1944.09,-261.89"/>
<polygon fill="black" stroke="black" points="1946.99,-263.87 1948.79,-253.43 1940.87,-260.47 1946.99,-263.87"/>
</g>
<!-- xcb&#45;util&#45;renderutil&#45;&gt;xcb&#45;util&#45;cursor -->
<g id="edge66" class="edge">
<title>xcb&#45;util&#45;renderutil&#45;&gt;xcb&#45;util&#45;cursor</title>
<path fill="none" stroke="black" d="M1917.39,-360.76C1940.37,-350.77 1970.01,-337.88 1994.52,-327.23"/>
<polygon fill="black" stroke="black" points="1995.85,-330.47 2003.63,-323.27 1993.06,-324.05 1995.85,-330.47"/>
</g>
</g>
</svg>
