<?xml version="1.0" encoding="UTF-8" standalone="no"?>
<!DOCTYPE svg PUBLIC "-//W3C//DTD SVG 1.1//EN"
 "http://www.w3.org/Graphics/SVG/1.1/DTD/svg11.dtd">
<!-- Generated by graphviz version 11.0.0 (20240519.1550)
 -->
<!-- Pages: 1 -->
<svg width="2703pt" height="404pt"
 viewBox="0.00 0.00 2703.49 404.00" xmlns="http://www.w3.org/2000/svg" xmlns:xlink="http://www.w3.org/1999/xlink">
<g id="graph0" class="graph" transform="scale(1 1) rotate(0) translate(4 400)">
<polygon fill="white" stroke="none" points="-4,4 -4,-400 2699.49,-400 2699.49,4 -4,4"/>
<!-- cairo -->
<g id="node1" class="node">
<title>cairo</title>
<g id="a_node1"><a xlink:href="https://github.com/conda-forge/cairo-feedstock" xlink:title="cairo">
<ellipse fill="#fde725" stroke="black" cx="1699.28" cy="-306" rx="35.95" ry="18"/>
<text text-anchor="middle" x="1699.28" y="-301.32" font-family="Times,serif" font-size="14.00">cairo</text>
</a>
</g>
</g>
<!-- ffmpeg -->
<g id="node2" class="node">
<title>ffmpeg</title>
<g id="a_node2"><a xlink:href="https://github.com/conda-forge/ffmpeg-feedstock" xlink:title="ffmpeg">
<ellipse fill="#fde725" stroke="black" cx="1887.28" cy="-162" rx="45.95" ry="18"/>
<text text-anchor="middle" x="1887.28" y="-157.32" font-family="Times,serif" font-size="14.00">ffmpeg</text>
</a>
</g>
</g>
<!-- cairo&#45;&gt;ffmpeg -->
<g id="edge1" class="edge">
<title>cairo&#45;&gt;ffmpeg</title>
<path fill="none" stroke="black" d="M1718.34,-290.6C1751.27,-265.73 1819,-214.57 1857.96,-185.14"/>
<polygon fill="black" stroke="black" points="1859.67,-188.24 1865.54,-179.42 1855.45,-182.66 1859.67,-188.24"/>
</g>
<!-- gnuplot -->
<g id="node3" class="node">
<title>gnuplot</title>
<g id="a_node3"><a xlink:href="https://github.com/conda-forge/gnuplot-feedstock" xlink:title="gnuplot">
<ellipse fill="#fde725" stroke="black" cx="1735.28" cy="-162" rx="49.63" ry="18"/>
<text text-anchor="middle" x="1735.28" y="-157.32" font-family="Times,serif" font-size="14.00">gnuplot</text>
</a>
</g>
</g>
<!-- cairo&#45;&gt;gnuplot -->
<g id="edge2" class="edge">
<title>cairo&#45;&gt;gnuplot</title>
<path fill="none" stroke="black" d="M1703.89,-287.83C1706.65,-277.47 1710.21,-263.99 1713.28,-252 1718.44,-231.83 1724.07,-209.03 1728.34,-191.56"/>
<polygon fill="black" stroke="black" points="1731.73,-192.43 1730.7,-181.89 1724.93,-190.77 1731.73,-192.43"/>
</g>
<!-- lyx -->
<g id="node4" class="node">
<title>lyx</title>
<g id="a_node4"><a xlink:href="https://github.com/conda-forge/lyx-feedstock" xlink:title="lyx">
<ellipse fill="#fde725" stroke="black" cx="1557.28" cy="-162" rx="27" ry="18"/>
<text text-anchor="middle" x="1557.28" y="-157.32" font-family="Times,serif" font-size="14.00">lyx</text>
</a>
</g>
</g>
<!-- cairo&#45;&gt;lyx -->
<g id="edge3" class="edge">
<title>cairo&#45;&gt;lyx</title>
<path fill="none" stroke="black" d="M1700.06,-287.6C1700,-268.06 1697.02,-236.4 1680.28,-216 1658.89,-189.93 1622.26,-176.39 1594.53,-169.55"/>
<polygon fill="black" stroke="black" points="1595.63,-166.21 1585.11,-167.42 1594.09,-173.04 1595.63,-166.21"/>
</g>
<!-- qt&#45;main -->
<g id="node5" class="node">
<title>qt&#45;main</title>
<g id="a_node5"><a xlink:href="https://github.com/conda-forge/qt-main-feedstock" xlink:title="qt main">
<ellipse fill="#fde725" stroke="black" cx="1007.28" cy="-234" rx="49.63" ry="18"/>
<text text-anchor="middle" x="1007.28" y="-229.32" font-family="Times,serif" font-size="14.00">qt main</text>
</a>
</g>
</g>
<!-- cairo&#45;&gt;qt&#45;main -->
<g id="edge4" class="edge">
<title>cairo&#45;&gt;qt&#45;main</title>
<path fill="none" stroke="black" d="M1663.19,-304.52C1565.85,-302.69 1290.05,-293.89 1065.28,-252 1061.67,-251.33 1057.96,-250.52 1054.25,-249.63"/>
<polygon fill="black" stroke="black" points="1055.23,-246.27 1044.67,-247.13 1053.46,-253.04 1055.23,-246.27"/>
</g>
<!-- qt&#45;webengine -->
<g id="node6" class="node">
<title>qt&#45;webengine</title>
<g id="a_node6"><a xlink:href="https://github.com/conda-forge/qt-webengine-feedstock" xlink:title="qt webengine">
<ellipse fill="#fde725" stroke="black" cx="884.28" cy="-162" rx="79.09" ry="18"/>
<text text-anchor="middle" x="884.28" y="-157.32" font-family="Times,serif" font-size="14.00">qt webengine</text>
</a>
</g>
</g>
<!-- cairo&#45;&gt;qt&#45;webengine -->
<g id="edge5" class="edge">
<title>cairo&#45;&gt;qt&#45;webengine</title>
<path fill="none" stroke="black" d="M1672.45,-293.84C1619.72,-272.08 1504.1,-225.32 1462.28,-216 1265.58,-172.15 1210.66,-201.48 1010.28,-180 994.23,-178.28 977.07,-176.15 960.74,-174"/>
<polygon fill="black" stroke="black" points="961.47,-170.56 951.09,-172.7 960.54,-177.5 961.47,-170.56"/>
</g>
<!-- silicon -->
<g id="node7" class="node">
<title>silicon</title>
<g id="a_node7"><a xlink:href="https://github.com/conda-forge/silicon-feedstock" xlink:title="silicon">
<ellipse fill="#fde725" stroke="black" cx="1628.28" cy="-234" rx="43.32" ry="18"/>
<text text-anchor="middle" x="1628.28" y="-229.32" font-family="Times,serif" font-size="14.00">silicon</text>
</a>
</g>
</g>
<!-- cairo&#45;&gt;silicon -->
<g id="edge6" class="edge">
<title>cairo&#45;&gt;silicon</title>
<path fill="none" stroke="black" d="M1683.52,-289.46C1674.46,-280.53 1662.87,-269.11 1652.66,-259.04"/>
<polygon fill="black" stroke="black" points="1655.14,-256.57 1645.56,-252.04 1650.23,-261.55 1655.14,-256.57"/>
</g>
<!-- vtk -->
<g id="node8" class="node">
<title>vtk</title>
<g id="a_node8"><a xlink:href="https://github.com/conda-forge/vtk-feedstock" xlink:title="vtk">
<ellipse fill="#fde725" stroke="black" cx="2175.28" cy="-90" rx="27.01" ry="18"/>
<text text-anchor="middle" x="2175.28" y="-85.33" font-family="Times,serif" font-size="14.00">vtk</text>
</a>
</g>
</g>
<!-- ffmpeg&#45;&gt;vtk -->
<g id="edge7" class="edge">
<title>ffmpeg&#45;&gt;vtk</title>
<path fill="none" stroke="black" d="M1922.08,-149.81C1928.76,-147.78 1935.71,-145.76 1942.28,-144 2011.03,-125.58 2092.28,-108.05 2138.4,-98.48"/>
<polygon fill="black" stroke="black" points="2139.04,-101.92 2148.13,-96.48 2137.63,-95.07 2139.04,-101.92"/>
</g>
<!-- gazebo -->
<g id="node9" class="node">
<title>gazebo</title>
<g id="a_node9"><a xlink:href="https://github.com/conda-forge/gazebo-feedstock" xlink:title="gazebo">
<ellipse fill="#fde725" stroke="black" cx="1887.28" cy="-90" rx="46.47" ry="18"/>
<text text-anchor="middle" x="1887.28" y="-85.33" font-family="Times,serif" font-size="14.00">gazebo</text>
</a>
</g>
</g>
<!-- ffmpeg&#45;&gt;gazebo -->
<g id="edge8" class="edge">
<title>ffmpeg&#45;&gt;gazebo</title>
<path fill="none" stroke="black" d="M1887.28,-143.7C1887.28,-136.41 1887.28,-127.73 1887.28,-119.54"/>
<polygon fill="black" stroke="black" points="1890.78,-119.62 1887.28,-109.62 1883.78,-119.62 1890.78,-119.62"/>
</g>
<!-- qt&#45;main&#45;&gt;gnuplot -->
<g id="edge9" class="edge">
<title>qt&#45;main&#45;&gt;gnuplot</title>
<path fill="none" stroke="black" d="M1043.19,-221.16C1050.44,-219.15 1058.05,-217.29 1065.28,-216 1296.83,-174.68 1359.1,-201.99 1593.28,-180 1621.27,-177.37 1652.29,-173.74 1678.17,-170.51"/>
<polygon fill="black" stroke="black" points="1678.31,-174.02 1687.8,-169.3 1677.44,-167.08 1678.31,-174.02"/>
</g>
<!-- qt&#45;main&#45;&gt;lyx -->
<g id="edge10" class="edge">
<title>qt&#45;main&#45;&gt;lyx</title>
<path fill="none" stroke="black" d="M1043.21,-221.3C1050.46,-219.27 1058.06,-217.38 1065.28,-216 1237.14,-183.24 1283.8,-202.68 1457.28,-180 1478.25,-177.26 1501.55,-173.35 1520.38,-169.97"/>
<polygon fill="black" stroke="black" points="1520.76,-173.46 1529.97,-168.22 1519.51,-166.57 1520.76,-173.46"/>
</g>
<!-- qt&#45;main&#45;&gt;qt&#45;webengine -->
<g id="edge11" class="edge">
<title>qt&#45;main&#45;&gt;qt&#45;webengine</title>
<path fill="none" stroke="black" d="M981.49,-218.33C964.42,-208.61 941.72,-195.69 922.55,-184.78"/>
<polygon fill="black" stroke="black" points="924.34,-181.77 913.92,-179.87 920.88,-187.86 924.34,-181.77"/>
</g>
<!-- qt&#45;main&#45;&gt;gazebo -->
<g id="edge12" class="edge">
<title>qt&#45;main&#45;&gt;gazebo</title>
<path fill="none" stroke="black" d="M1043.54,-221.26C1050.68,-219.27 1058.17,-217.39 1065.28,-216 1220.48,-185.63 1264.96,-214.56 1419.28,-180 1466.19,-169.49 1474.6,-155.5 1521.28,-144 1629.13,-117.43 1758.35,-102.57 1830.81,-95.72"/>
<polygon fill="black" stroke="black" points="1830.8,-99.24 1840.43,-94.83 1830.15,-92.27 1830.8,-99.24"/>
</g>
<!-- colmap -->
<g id="node10" class="node">
<title>colmap</title>
<g id="a_node10"><a xlink:href="https://github.com/conda-forge/colmap-feedstock" xlink:title="colmap">
<ellipse fill="#fde725" stroke="black" cx="2156.28" cy="-162" rx="47" ry="18"/>
<text text-anchor="middle" x="2156.28" y="-157.32" font-family="Times,serif" font-size="14.00">colmap</text>
</a>
</g>
</g>
<!-- qt&#45;main&#45;&gt;colmap -->
<g id="edge13" class="edge">
<title>qt&#45;main&#45;&gt;colmap</title>
<path fill="none" stroke="black" d="M1042.85,-221.06C1050.19,-219.03 1057.92,-217.19 1065.28,-216 1502.97,-145.09 1621.44,-227.58 2062.28,-180 2076.06,-178.51 2090.87,-176.18 2104.56,-173.72"/>
<polygon fill="black" stroke="black" points="2105.07,-177.19 2114.26,-171.92 2103.79,-170.31 2105.07,-177.19"/>
</g>
<!-- kwindowsystem -->
<g id="node11" class="node">
<title>kwindowsystem</title>
<g id="a_node11"><a xlink:href="https://github.com/conda-forge/kwindowsystem-feedstock" xlink:title="kwindowsystem">
<ellipse fill="#fde725" stroke="black" cx="771.28" cy="-90" rx="91.19" ry="18"/>
<text text-anchor="middle" x="771.28" y="-85.33" font-family="Times,serif" font-size="14.00">kwindowsystem</text>
</a>
</g>
</g>
<!-- qt&#45;main&#45;&gt;kwindowsystem -->
<g id="edge14" class="edge">
<title>qt&#45;main&#45;&gt;kwindowsystem</title>
<path fill="none" stroke="black" d="M1005.16,-215.61C1001.78,-195.46 993.24,-162.65 972.28,-144 943.87,-118.73 904.8,-105.28 868.66,-98.21"/>
<polygon fill="black" stroke="black" points="869.51,-94.8 859.04,-96.48 868.27,-101.69 869.51,-94.8"/>
</g>
<!-- kglobalaccel -->
<g id="node12" class="node">
<title>kglobalaccel</title>
<g id="a_node12"><a xlink:href="https://github.com/conda-forge/kglobalaccel-feedstock" xlink:title="kglobalaccel">
<ellipse fill="#fde725" stroke="black" cx="890.28" cy="-18" rx="72.78" ry="18"/>
<text text-anchor="middle" x="890.28" y="-13.32" font-family="Times,serif" font-size="14.00">kglobalaccel</text>
</a>
</g>
</g>
<!-- qt&#45;main&#45;&gt;kglobalaccel -->
<g id="edge15" class="edge">
<title>qt&#45;main&#45;&gt;kglobalaccel</title>
<path fill="none" stroke="black" d="M1043.56,-221.37C1050.7,-219.36 1058.19,-217.45 1065.28,-216 1131.06,-202.51 1314.06,-223.42 1365.28,-180 1402.58,-148.38 1418.97,-108.37 1386.28,-72 1359.24,-41.92 1107.56,-27.52 973.47,-21.93"/>
<polygon fill="black" stroke="black" points="973.71,-18.44 963.57,-21.53 973.42,-25.43 973.71,-18.44"/>
</g>
<!-- qt6&#45;advanced&#45;docking&#45;system -->
<g id="node13" class="node">
<title>qt6&#45;advanced&#45;docking&#45;system</title>
<g id="a_node13"><a xlink:href="https://github.com/conda-forge/qt6-advanced-docking-system-feedstock" xlink:title="qt6 advanced docking system">
<ellipse fill="#fde725" stroke="black" cx="1179.28" cy="-162" rx="159.59" ry="18"/>
<text text-anchor="middle" x="1179.28" y="-157.32" font-family="Times,serif" font-size="14.00">qt6 advanced docking system</text>
</a>
</g>
</g>
<!-- qt&#45;main&#45;&gt;qt6&#45;advanced&#45;docking&#45;system -->
<g id="edge16" class="edge">
<title>qt&#45;main&#45;&gt;qt6&#45;advanced&#45;docking&#45;system</title>
<path fill="none" stroke="black" d="M1039.23,-220C1064.06,-209.89 1099,-195.67 1127.77,-183.96"/>
<polygon fill="black" stroke="black" points="1128.72,-187.36 1136.66,-180.34 1126.08,-180.87 1128.72,-187.36"/>
</g>
<!-- adwaita&#45;qt -->
<g id="node14" class="node">
<title>adwaita&#45;qt</title>
<g id="a_node14"><a xlink:href="https://github.com/conda-forge/adwaita-qt-feedstock" xlink:title="adwaita qt">
<ellipse fill="#fde725" stroke="black" cx="1313.28" cy="-90" rx="64.36" ry="18"/>
<text text-anchor="middle" x="1313.28" y="-85.33" font-family="Times,serif" font-size="14.00">adwaita qt</text>
</a>
</g>
</g>
<!-- qt&#45;main&#45;&gt;adwaita&#45;qt -->
<g id="edge17" class="edge">
<title>qt&#45;main&#45;&gt;adwaita&#45;qt</title>
<path fill="none" stroke="black" d="M1043.56,-221.41C1050.71,-219.4 1058.19,-217.48 1065.28,-216 1127.34,-203.04 1306.38,-227.57 1348.28,-180 1364.12,-162.01 1350.96,-136.01 1336.48,-116.75"/>
<polygon fill="black" stroke="black" points="1339.31,-114.69 1330.33,-109.08 1333.85,-119.07 1339.31,-114.69"/>
</g>
<!-- qt&#45;webengine&#45;&gt;kwindowsystem -->
<g id="edge18" class="edge">
<title>qt&#45;webengine&#45;&gt;kwindowsystem</title>
<path fill="none" stroke="black" d="M857.79,-144.59C842.88,-135.35 824.04,-123.68 807.75,-113.59"/>
<polygon fill="black" stroke="black" points="809.63,-110.64 799.28,-108.35 805.94,-116.59 809.63,-110.64"/>
</g>
<!-- qt&#45;webengine&#45;&gt;kglobalaccel -->
<g id="edge19" class="edge">
<title>qt&#45;webengine&#45;&gt;kglobalaccel</title>
<path fill="none" stroke="black" d="M885.01,-143.59C886.03,-119.61 887.86,-76.14 889.08,-47.42"/>
<polygon fill="black" stroke="black" points="892.57,-47.76 889.49,-37.62 885.57,-47.47 892.57,-47.76"/>
</g>
<!-- kwindowsystem&#45;&gt;kglobalaccel -->
<g id="edge54" class="edge">
<title>kwindowsystem&#45;&gt;kglobalaccel</title>
<path fill="none" stroke="black" d="M799.48,-72.41C815.57,-62.95 835.92,-50.97 853.28,-40.76"/>
<polygon fill="black" stroke="black" points="854.95,-43.84 861.79,-35.76 851.4,-37.81 854.95,-43.84"/>
</g>
<!-- gstreamer -->
<g id="node15" class="node">
<title>gstreamer</title>
<g id="a_node15"><a xlink:href="https://github.com/conda-forge/gstreamer-feedstock" xlink:title="gstreamer">
<ellipse fill="#fde725" stroke="black" cx="1244.28" cy="-306" rx="63.31" ry="18"/>
<text text-anchor="middle" x="1244.28" y="-301.32" font-family="Times,serif" font-size="14.00">gstreamer</text>
</a>
</g>
</g>
<!-- gstreamer&#45;&gt;qt&#45;main -->
<g id="edge20" class="edge">
<title>gstreamer&#45;&gt;qt&#45;main</title>
<path fill="none" stroke="black" d="M1201.36,-292.32C1160.34,-280.21 1098.58,-261.97 1055.79,-249.33"/>
<polygon fill="black" stroke="black" points="1056.84,-245.99 1046.26,-246.51 1054.86,-252.7 1056.84,-245.99"/>
</g>
<!-- gstreamer&#45;&gt;qt&#45;webengine -->
<g id="edge21" class="edge">
<title>gstreamer&#45;&gt;qt&#45;webengine</title>
<path fill="none" stroke="black" d="M1189.95,-296.35C1107.31,-283.05 958.45,-258.41 948.28,-252 924.94,-237.29 907.51,-210.71 896.78,-190.41"/>
<polygon fill="black" stroke="black" points="899.94,-188.9 892.33,-181.53 893.69,-192.04 899.94,-188.9"/>
</g>
<!-- gst&#45;plugins&#45;ugly -->
<g id="node16" class="node">
<title>gst&#45;plugins&#45;ugly</title>
<g id="a_node16"><a xlink:href="https://github.com/conda-forge/gst-plugins-ugly-feedstock" xlink:title="gst plugins ugly">
<ellipse fill="#fde725" stroke="black" cx="1361.28" cy="-234" rx="91.72" ry="18"/>
<text text-anchor="middle" x="1361.28" y="-229.32" font-family="Times,serif" font-size="14.00">gst plugins ugly</text>
</a>
</g>
</g>
<!-- gstreamer&#45;&gt;gst&#45;plugins&#45;ugly -->
<g id="edge22" class="edge">
<title>gstreamer&#45;&gt;gst&#45;plugins&#45;ugly</title>
<path fill="none" stroke="black" d="M1270.54,-289.29C1286.19,-279.92 1306.33,-267.87 1323.66,-257.51"/>
<polygon fill="black" stroke="black" points="1325.4,-260.55 1332.18,-252.41 1321.8,-254.54 1325.4,-260.55"/>
</g>
<!-- gst&#45;plugins&#45;bad -->
<g id="node17" class="node">
<title>gst&#45;plugins&#45;bad</title>
<g id="a_node17"><a xlink:href="https://github.com/conda-forge/gst-plugins-bad-feedstock" xlink:title="gst plugins bad">
<ellipse fill="#fde725" stroke="black" cx="1163.28" cy="-234" rx="88.56" ry="18"/>
<text text-anchor="middle" x="1163.28" y="-229.32" font-family="Times,serif" font-size="14.00">gst plugins bad</text>
</a>
</g>
</g>
<!-- gstreamer&#45;&gt;gst&#45;plugins&#45;bad -->
<g id="edge23" class="edge">
<title>gstreamer&#45;&gt;gst&#45;plugins&#45;bad</title>
<path fill="none" stroke="black" d="M1225.08,-288.41C1215.04,-279.73 1202.56,-268.95 1191.45,-259.34"/>
<polygon fill="black" stroke="black" points="1193.9,-256.84 1184.04,-252.95 1189.32,-262.13 1193.9,-256.84"/>
</g>
<!-- libglu -->
<g id="node18" class="node">
<title>libglu</title>
<g id="a_node18"><a xlink:href="https://github.com/conda-forge/libglu-feedstock" xlink:title="libglu">
<ellipse fill="#fde725" stroke="black" cx="2239.28" cy="-234" rx="39.63" ry="18"/>
<text text-anchor="middle" x="2239.28" y="-229.32" font-family="Times,serif" font-size="14.00">libglu</text>
</a>
</g>
</g>
<!-- libglu&#45;&gt;vtk -->
<g id="edge24" class="edge">
<title>libglu&#45;&gt;vtk</title>
<path fill="none" stroke="black" d="M2245.33,-215.93C2250.87,-197.24 2256.65,-166.88 2245.28,-144 2237.23,-127.81 2221.61,-115.24 2207.16,-106.42"/>
<polygon fill="black" stroke="black" points="2209.2,-103.55 2198.77,-101.66 2205.74,-109.64 2209.2,-103.55"/>
</g>
<!-- libglu&#45;&gt;gazebo -->
<g id="edge25" class="edge">
<title>libglu&#45;&gt;gazebo</title>
<path fill="none" stroke="black" d="M2239.18,-215.74C2238.06,-195.39 2232.93,-162.08 2212.28,-144 2173.44,-110.01 2027.71,-97.6 1945.19,-93.24"/>
<polygon fill="black" stroke="black" points="1945.42,-89.75 1935.25,-92.74 1945.06,-96.74 1945.42,-89.75"/>
</g>
<!-- libglu&#45;&gt;colmap -->
<g id="edge28" class="edge">
<title>libglu&#45;&gt;colmap</title>
<path fill="none" stroke="black" d="M2221.27,-217.81C2210.3,-208.56 2196.06,-196.55 2183.71,-186.13"/>
<polygon fill="black" stroke="black" points="2186.18,-183.64 2176.27,-179.86 2181.66,-188.99 2186.18,-183.64"/>
</g>
<!-- freeglut -->
<g id="node19" class="node">
<title>freeglut</title>
<g id="a_node19"><a xlink:href="https://github.com/conda-forge/freeglut-feedstock" xlink:title="freeglut">
<ellipse fill="#fde725" stroke="black" cx="2002.28" cy="-162" rx="51.21" ry="18"/>
<text text-anchor="middle" x="2002.28" y="-157.32" font-family="Times,serif" font-size="14.00">freeglut</text>
</a>
</g>
</g>
<!-- libglu&#45;&gt;freeglut -->
<g id="edge26" class="edge">
<title>libglu&#45;&gt;freeglut</title>
<path fill="none" stroke="black" d="M2206.82,-223.41C2166.68,-211.56 2097.97,-191.26 2051.37,-177.5"/>
<polygon fill="black" stroke="black" points="2052.65,-174.23 2042.07,-174.75 2050.66,-180.94 2052.65,-174.23"/>
</g>
<!-- fltk -->
<g id="node20" class="node">
<title>fltk</title>
<g id="a_node20"><a xlink:href="https://github.com/conda-forge/fltk-feedstock" xlink:title="fltk">
<ellipse fill="#fde725" stroke="black" cx="2325.28" cy="-162" rx="27.53" ry="18"/>
<text text-anchor="middle" x="2325.28" y="-157.32" font-family="Times,serif" font-size="14.00">fltk</text>
</a>
</g>
</g>
<!-- libglu&#45;&gt;fltk -->
<g id="edge27" class="edge">
<title>libglu&#45;&gt;fltk</title>
<path fill="none" stroke="black" d="M2257.94,-217.81C2270.14,-207.88 2286.24,-194.77 2299.64,-183.87"/>
<polygon fill="black" stroke="black" points="2301.68,-186.72 2307.23,-177.69 2297.26,-181.29 2301.68,-186.72"/>
</g>
<!-- freeglut&#45;&gt;gazebo -->
<g id="edge29" class="edge">
<title>freeglut&#45;&gt;gazebo</title>
<path fill="none" stroke="black" d="M1977.33,-145.81C1960.9,-135.82 1939.2,-122.6 1921.22,-111.66"/>
<polygon fill="black" stroke="black" points="1923.05,-108.68 1912.69,-106.47 1919.41,-114.66 1923.05,-108.68"/>
</g>
<!-- mesalib -->
<g id="node21" class="node">
<title>mesalib</title>
<g id="a_node21"><a xlink:href="https://github.com/conda-forge/mesalib-feedstock" xlink:title="mesalib">
<ellipse fill="#fde725" stroke="black" cx="2093.28" cy="-234" rx="50.16" ry="18"/>
<text text-anchor="middle" x="2093.28" y="-229.32" font-family="Times,serif" font-size="14.00">mesalib</text>
</a>
</g>
</g>
<!-- mesalib&#45;&gt;vtk -->
<g id="edge30" class="edge">
<title>mesalib&#45;&gt;vtk</title>
<path fill="none" stroke="black" d="M2090.51,-215.68C2088.38,-196.78 2087.64,-166.23 2100.28,-144 2109.85,-127.17 2127.21,-114.39 2142.82,-105.59"/>
<polygon fill="black" stroke="black" points="2144.16,-108.84 2151.38,-101.09 2140.9,-102.64 2144.16,-108.84"/>
</g>
<!-- pillow -->
<g id="node22" class="node">
<title>pillow</title>
<g id="a_node22"><a xlink:href="https://github.com/conda-forge/pillow-feedstock" xlink:title="pillow">
<ellipse fill="#35b779" stroke="black" cx="2654.28" cy="-198" rx="41.21" ry="18"/>
<text text-anchor="middle" x="2654.28" y="-193.32" font-family="Times,serif" font-size="14.00">pillow</text>
</a>
</g>
</g>
<!-- xorg&#45;libx11 -->
<g id="node23" class="node">
<title>xorg&#45;libx11</title>
<g id="a_node23"><a xlink:href="https://github.com/conda-forge/xorg-libx11-feedstock/pull/39" xlink:title="xorg libx11 ✓">
<ellipse fill="#31688e" stroke="black" cx="1794.28" cy="-378" rx="75.94" ry="18"/>
<text text-anchor="middle" x="1794.28" y="-373.32" font-family="Times,serif" font-size="14.00" fill="white">xorg libx11 ✓</text>
</a>
</g>
</g>
<!-- xorg&#45;libx11&#45;&gt;cairo -->
<g id="edge31" class="edge">
<title>xorg&#45;libx11&#45;&gt;cairo</title>
<path fill="none" stroke="black" d="M1771.77,-360.41C1758.66,-350.75 1742,-338.48 1727.96,-328.14"/>
<polygon fill="black" stroke="black" points="1730.08,-325.35 1719.96,-322.24 1725.93,-330.99 1730.08,-325.35"/>
</g>
<!-- xorg&#45;libx11&#45;&gt;ffmpeg -->
<g id="edge32" class="edge">
<title>xorg&#45;libx11&#45;&gt;ffmpeg</title>
<path fill="none" stroke="black" d="M1806.19,-359.84C1812.91,-349.7 1821.16,-336.45 1827.28,-324 1849.43,-278.94 1868.39,-223.53 1878.78,-190.86"/>
<polygon fill="black" stroke="black" points="1882.11,-191.95 1881.76,-181.36 1875.43,-189.85 1882.11,-191.95"/>
</g>
<!-- xorg&#45;libx11&#45;&gt;gnuplot -->
<g id="edge33" class="edge">
<title>xorg&#45;libx11&#45;&gt;gnuplot</title>
<path fill="none" stroke="black" d="M1789.55,-359.85C1779.41,-323.07 1755.49,-236.29 1743.07,-191.24"/>
<polygon fill="black" stroke="black" points="1746.46,-190.4 1740.43,-181.69 1739.72,-192.26 1746.46,-190.4"/>
</g>
<!-- xorg&#45;libx11&#45;&gt;lyx -->
<g id="edge34" class="edge">
<title>xorg&#45;libx11&#45;&gt;lyx</title>
<path fill="none" stroke="black" d="M1743.77,-364.26C1691.2,-347.98 1611.7,-314.17 1576.28,-252 1565.74,-233.51 1561.03,-209.83 1558.94,-191.55"/>
<polygon fill="black" stroke="black" points="1562.43,-191.3 1558.02,-181.66 1555.46,-191.94 1562.43,-191.3"/>
</g>
<!-- xorg&#45;libx11&#45;&gt;qt&#45;main -->
<g id="edge35" class="edge">
<title>xorg&#45;libx11&#45;&gt;qt&#45;main</title>
<path fill="none" stroke="black" d="M1718.22,-376.21C1574.58,-373.78 1269.16,-363.94 1172.28,-324 1149.24,-314.5 1150.48,-301.1 1129.28,-288 1105.26,-273.16 1076.35,-260.4 1052.71,-251.13"/>
<polygon fill="black" stroke="black" points="1054.25,-247.97 1043.66,-247.66 1051.74,-254.51 1054.25,-247.97"/>
</g>
<!-- xorg&#45;libx11&#45;&gt;qt&#45;webengine -->
<g id="edge36" class="edge">
<title>xorg&#45;libx11&#45;&gt;qt&#45;webengine</title>
<path fill="none" stroke="black" d="M1719.25,-374.68C1569.46,-369.45 1238.39,-354.72 1129.28,-324 1095.22,-314.41 1091.48,-300.24 1058.28,-288 994.36,-264.44 958.33,-299.28 909.28,-252 893.11,-236.41 887.15,-211.27 885.06,-191.68"/>
<polygon fill="black" stroke="black" points="888.56,-191.55 884.33,-181.84 881.58,-192.07 888.56,-191.55"/>
</g>
<!-- xorg&#45;libx11&#45;&gt;vtk -->
<g id="edge37" class="edge">
<title>xorg&#45;libx11&#45;&gt;vtk</title>
<path fill="none" stroke="black" d="M1869.55,-375.07C1982.14,-371.07 2188.08,-359.05 2252.28,-324 2334.57,-279.07 2418.82,-218.79 2362.28,-144 2344.29,-120.2 2261.93,-103.99 2212.71,-96.24"/>
<polygon fill="black" stroke="black" points="2213.47,-92.82 2203.06,-94.77 2212.42,-99.74 2213.47,-92.82"/>
</g>
<!-- xorg&#45;libx11&#45;&gt;gazebo -->
<g id="edge38" class="edge">
<title>xorg&#45;libx11&#45;&gt;gazebo</title>
<path fill="none" stroke="black" d="M1793.5,-359.76C1792.41,-319.5 1793.94,-217.15 1832.28,-144 1838.31,-132.49 1847.79,-122.03 1857.18,-113.49"/>
<polygon fill="black" stroke="black" points="1859.21,-116.36 1864.54,-107.21 1854.66,-111.04 1859.21,-116.36"/>
</g>
<!-- xorg&#45;libx11&#45;&gt;colmap -->
<g id="edge45" class="edge">
<title>xorg&#45;libx11&#45;&gt;colmap</title>
<path fill="none" stroke="black" d="M1866.23,-371.78C1921.4,-365.66 1998.33,-352.44 2060.28,-324 2107.47,-302.34 2128.49,-298.15 2152.28,-252 2161.82,-233.48 2162.43,-209.81 2160.86,-191.53"/>
<polygon fill="black" stroke="black" points="2164.35,-191.18 2159.73,-181.65 2157.39,-191.98 2164.35,-191.18"/>
</g>
<!-- xorg&#45;libx11&#45;&gt;kwindowsystem -->
<g id="edge48" class="edge">
<title>xorg&#45;libx11&#45;&gt;kwindowsystem</title>
<path fill="none" stroke="black" d="M1718.07,-377.28C1507.01,-377.41 925.83,-373.26 856.28,-324 789.41,-276.64 774.99,-170.93 771.99,-119.8"/>
<polygon fill="black" stroke="black" points="775.49,-119.67 771.53,-109.84 768.49,-119.99 775.49,-119.67"/>
</g>
<!-- xorg&#45;libx11&#45;&gt;kglobalaccel -->
<g id="edge49" class="edge">
<title>xorg&#45;libx11&#45;&gt;kglobalaccel</title>
<path fill="none" stroke="black" d="M1719.31,-374.65C1626.71,-367.28 1481.28,-339.13 1481.28,-235 1481.28,-235 1481.28,-235 1481.28,-161 1481.28,-109.84 1453.35,-96.21 1408.28,-72 1335.32,-32.81 1101.46,-22.57 974.38,-19.91"/>
<polygon fill="black" stroke="black" points="974.76,-16.42 964.69,-19.72 974.62,-23.42 974.76,-16.42"/>
</g>
<!-- xorg&#45;libx11&#45;&gt;gstreamer -->
<g id="edge39" class="edge">
<title>xorg&#45;libx11&#45;&gt;gstreamer</title>
<path fill="none" stroke="black" d="M1725.12,-370.27C1635.79,-361.28 1475.58,-344.12 1339.28,-324 1328.82,-322.46 1317.75,-320.64 1307,-318.78"/>
<polygon fill="black" stroke="black" points="1307.9,-315.39 1297.45,-317.1 1306.69,-322.28 1307.9,-315.39"/>
</g>
<!-- xorg&#45;libx11&#45;&gt;gst&#45;plugins&#45;ugly -->
<g id="edge40" class="edge">
<title>xorg&#45;libx11&#45;&gt;gst&#45;plugins&#45;ugly</title>
<path fill="none" stroke="black" d="M1718.59,-376.05C1650.11,-372.61 1547.93,-360.95 1467.28,-324 1434.4,-308.94 1403.54,-280.83 1383.7,-260.21"/>
<polygon fill="black" stroke="black" points="1386.32,-257.9 1376.93,-253 1381.22,-262.69 1386.32,-257.9"/>
</g>
<!-- xorg&#45;libx11&#45;&gt;gst&#45;plugins&#45;bad -->
<g id="edge41" class="edge">
<title>xorg&#45;libx11&#45;&gt;gst&#45;plugins&#45;bad</title>
<path fill="none" stroke="black" d="M1722,-372.09C1643.89,-365.62 1516.24,-351.66 1409.28,-324 1366.37,-312.9 1357.89,-303.26 1316.28,-288 1284.1,-276.2 1247.87,-263.62 1218.74,-253.68"/>
<polygon fill="black" stroke="black" points="1219.98,-250.4 1209.38,-250.49 1217.72,-257.03 1219.98,-250.4"/>
</g>
<!-- xorg&#45;libx11&#45;&gt;libglu -->
<g id="edge42" class="edge">
<title>xorg&#45;libx11&#45;&gt;libglu</title>
<path fill="none" stroke="black" d="M1868.93,-374.45C1967.54,-369.81 2134.64,-357.18 2185.28,-324 2207.09,-309.71 2221.47,-283.26 2229.86,-262.89"/>
<polygon fill="black" stroke="black" points="2233.06,-264.32 2233.38,-253.73 2226.53,-261.81 2233.06,-264.32"/>
</g>
<!-- xorg&#45;libx11&#45;&gt;freeglut -->
<g id="edge43" class="edge">
<title>xorg&#45;libx11&#45;&gt;freeglut</title>
<path fill="none" stroke="black" d="M1843.17,-363.93C1870.31,-355.26 1903.83,-342.11 1930.28,-324 1966.1,-299.48 1979.19,-291.9 1996.28,-252 2004.44,-232.94 2005.71,-209.47 2005.06,-191.42"/>
<polygon fill="black" stroke="black" points="2008.57,-191.46 2004.48,-181.69 2001.58,-191.88 2008.57,-191.46"/>
</g>
<!-- xorg&#45;libx11&#45;&gt;fltk -->
<g id="edge44" class="edge">
<title>xorg&#45;libx11&#45;&gt;fltk</title>
<path fill="none" stroke="black" d="M1868.02,-373.32C1971.76,-367.2 2154.76,-352.65 2214.28,-324 2255.63,-304.1 2262.5,-289.96 2288.28,-252 2301.06,-233.17 2310.71,-209.23 2316.94,-190.92"/>
<polygon fill="black" stroke="black" points="2320.23,-192.12 2319.99,-181.52 2313.57,-189.95 2320.23,-192.12"/>
</g>
<!-- xorg&#45;libx11&#45;&gt;mesalib -->
<g id="edge46" class="edge">
<title>xorg&#45;libx11&#45;&gt;mesalib</title>
<path fill="none" stroke="black" d="M1868.43,-373.79C1917.55,-368.58 1981.5,-355.62 2029.28,-324 2052.28,-308.78 2069.76,-282.26 2080.58,-262.12"/>
<polygon fill="black" stroke="black" points="2083.64,-263.82 2085.08,-253.33 2077.41,-260.63 2083.64,-263.82"/>
</g>
<!-- libva -->
<g id="node24" class="node">
<title>libva</title>
<g id="a_node24"><a xlink:href="https://github.com/conda-forge/libva-feedstock" xlink:title="libva">
<ellipse fill="#fde725" stroke="black" cx="1952.28" cy="-234" rx="35.42" ry="18"/>
<text text-anchor="middle" x="1952.28" y="-229.32" font-family="Times,serif" font-size="14.00">libva</text>
</a>
</g>
</g>
<!-- xorg&#45;libx11&#45;&gt;libva -->
<g id="edge47" class="edge">
<title>xorg&#45;libx11&#45;&gt;libva</title>
<path fill="none" stroke="black" d="M1838.12,-362.86C1859.67,-354.24 1884.9,-341.47 1903.28,-324 1921.23,-306.93 1934.23,-281.81 1942.31,-262.6"/>
<polygon fill="black" stroke="black" points="1945.5,-264.07 1945.94,-253.49 1938.99,-261.48 1945.5,-264.07"/>
</g>
<!-- vulkan&#45;loader -->
<g id="node25" class="node">
<title>vulkan&#45;loader</title>
<g id="a_node25"><a xlink:href="https://github.com/conda-forge/vulkan-loader-feedstock" xlink:title="vulkan loader">
<ellipse fill="#fde725" stroke="black" cx="2526.28" cy="-162" rx="79.09" ry="18"/>
<text text-anchor="middle" x="2526.28" y="-157.32" font-family="Times,serif" font-size="14.00">vulkan loader</text>
</a>
</g>
</g>
<!-- xorg&#45;libx11&#45;&gt;vulkan&#45;loader -->
<g id="edge50" class="edge">
<title>xorg&#45;libx11&#45;&gt;vulkan&#45;loader</title>
<path fill="none" stroke="black" d="M1869.45,-374.66C2028.13,-369.15 2386.62,-353.57 2433.28,-324 2481.46,-293.46 2507.44,-228.37 2518.91,-190.97"/>
<polygon fill="black" stroke="black" points="2522.15,-192.36 2521.59,-181.78 2515.43,-190.4 2522.15,-192.36"/>
</g>
<!-- vulkan&#45;tools -->
<g id="node26" class="node">
<title>vulkan&#45;tools</title>
<g id="a_node26"><a xlink:href="https://github.com/conda-forge/vulkan-tools-feedstock" xlink:title="vulkan tools">
<ellipse fill="#fde725" stroke="black" cx="2472.28" cy="-90" rx="71.73" ry="18"/>
<text text-anchor="middle" x="2472.28" y="-85.33" font-family="Times,serif" font-size="14.00">vulkan tools</text>
</a>
</g>
</g>
<!-- xorg&#45;libx11&#45;&gt;vulkan&#45;tools -->
<g id="edge51" class="edge">
<title>xorg&#45;libx11&#45;&gt;vulkan&#45;tools</title>
<path fill="none" stroke="black" d="M1868.93,-374.52C1989.33,-369.62 2220.48,-356.24 2295.28,-324 2389.11,-283.55 2386.17,-231.89 2438.28,-144 2443.43,-135.31 2449.3,-125.99 2454.69,-117.62"/>
<polygon fill="black" stroke="black" points="2457.6,-119.55 2460.12,-109.26 2451.73,-115.74 2457.6,-119.55"/>
</g>
<!-- nsight&#45;compute -->
<g id="node27" class="node">
<title>nsight&#45;compute</title>
<g id="a_node27"><a xlink:href="https://github.com/conda-forge/nsight-compute-feedstock" xlink:title="nsight compute">
<ellipse fill="#fde725" stroke="black" cx="594.28" cy="-162" rx="89.09" ry="18"/>
<text text-anchor="middle" x="594.28" y="-157.32" font-family="Times,serif" font-size="14.00">nsight compute</text>
</a>
</g>
</g>
<!-- xorg&#45;libx11&#45;&gt;nsight&#45;compute -->
<g id="edge52" class="edge">
<title>xorg&#45;libx11&#45;&gt;nsight&#45;compute</title>
<path fill="none" stroke="black" d="M1718.81,-375.69C1472.21,-371.12 703.52,-354.49 660.28,-324 616.84,-293.37 601.94,-228.78 596.86,-191.39"/>
<polygon fill="black" stroke="black" points="600.38,-191.3 595.71,-181.79 593.42,-192.13 600.38,-191.3"/>
</g>
<!-- libva&#45;&gt;ffmpeg -->
<g id="edge53" class="edge">
<title>libva&#45;&gt;ffmpeg</title>
<path fill="none" stroke="black" d="M1937.85,-217.46C1929.75,-208.74 1919.46,-197.65 1910.27,-187.76"/>
<polygon fill="black" stroke="black" points="1912.97,-185.52 1903.6,-180.58 1907.84,-190.29 1912.97,-185.52"/>
</g>
<!-- vulkan&#45;loader&#45;&gt;vulkan&#45;tools -->
<g id="edge55" class="edge">
<title>vulkan&#45;loader&#45;&gt;vulkan&#45;tools</title>
<path fill="none" stroke="black" d="M2513.21,-144.05C2506.91,-135.89 2499.21,-125.91 2492.2,-116.82"/>
<polygon fill="black" stroke="black" points="2495.03,-114.77 2486.16,-108.99 2489.49,-119.04 2495.03,-114.77"/>
</g>
<!-- libxkbcommon -->
<g id="node28" class="node">
<title>libxkbcommon</title>
<g id="a_node28"><a xlink:href="https://github.com/conda-forge/libxkbcommon-feedstock/pull/28" xlink:title="libxkbcommon ✓">
<ellipse fill="#31688e" stroke="black" cx="957.28" cy="-306" rx="91.72" ry="18"/>
<text text-anchor="middle" x="957.28" y="-301.32" font-family="Times,serif" font-size="14.00" fill="white">libxkbcommon ✓</text>
</a>
</g>
</g>
<!-- libxkbcommon&#45;&gt;qt&#45;main -->
<g id="edge56" class="edge">
<title>libxkbcommon&#45;&gt;qt&#45;main</title>
<path fill="none" stroke="black" d="M969.64,-287.7C975.42,-279.61 982.41,-269.81 988.8,-260.87"/>
<polygon fill="black" stroke="black" points="991.56,-263.03 994.53,-252.85 985.87,-258.96 991.56,-263.03"/>
</g>
<!-- libxkbcommon&#45;&gt;qt&#45;webengine -->
<g id="edge57" class="edge">
<title>libxkbcommon&#45;&gt;qt&#45;webengine</title>
<path fill="none" stroke="black" d="M918.62,-289.39C902.82,-280.86 886.19,-268.59 877.28,-252 867.31,-233.43 869.9,-209.47 874.53,-191.09"/>
<polygon fill="black" stroke="black" points="877.85,-192.23 877.25,-181.66 871.12,-190.3 877.85,-192.23"/>
</g>
<!-- libxkbcommon&#45;&gt;nsight&#45;compute -->
<g id="edge58" class="edge">
<title>libxkbcommon&#45;&gt;nsight&#45;compute</title>
<path fill="none" stroke="black" d="M917.39,-289.4C850.78,-263.34 717.02,-211.01 644.24,-182.54"/>
<polygon fill="black" stroke="black" points="645.95,-179.46 635.36,-179.07 643.4,-185.97 645.95,-179.46"/>
</g>
<!-- xcb&#45;util&#45;keysyms -->
<g id="node29" class="node">
<title>xcb&#45;util&#45;keysyms</title>
<g id="a_node29"><a xlink:href="https://github.com/conda-forge/xcb-util-keysyms-feedstock" xlink:title="xcb util keysyms">
<ellipse fill="#35b779" stroke="black" cx="114.28" cy="-306" rx="94.88" ry="18"/>
<text text-anchor="middle" x="114.28" y="-301.32" font-family="Times,serif" font-size="14.00">xcb util keysyms</text>
</a>
</g>
</g>
<!-- xcb&#45;util&#45;keysyms&#45;&gt;qt&#45;main -->
<g id="edge59" class="edge">
<title>xcb&#45;util&#45;keysyms&#45;&gt;qt&#45;main</title>
<path fill="none" stroke="black" d="M181.84,-293C193.95,-291.12 206.47,-289.36 218.28,-288 488.69,-256.89 813.5,-242.18 946.25,-237.12"/>
<polygon fill="black" stroke="black" points="946.37,-240.62 956.23,-236.75 946.1,-233.63 946.37,-240.62"/>
</g>
<!-- xcb&#45;util&#45;keysyms&#45;&gt;kwindowsystem -->
<g id="edge60" class="edge">
<title>xcb&#45;util&#45;keysyms&#45;&gt;kwindowsystem</title>
<path fill="none" stroke="black" d="M133.29,-288.23C156.7,-268.37 198.42,-235.53 239.28,-216 384.58,-146.54 571.08,-114.24 680.27,-100.35"/>
<polygon fill="black" stroke="black" points="680.58,-103.84 690.07,-99.13 679.71,-96.9 680.58,-103.84"/>
</g>
<!-- xcb&#45;util&#45;keysyms&#45;&gt;kglobalaccel -->
<g id="edge61" class="edge">
<title>xcb&#45;util&#45;keysyms&#45;&gt;kglobalaccel</title>
<path fill="none" stroke="black" d="M123.1,-287.64C133.73,-268.12 153.2,-236.49 177.28,-216 232.68,-168.85 255.61,-168.01 324.28,-144 496.07,-83.93 707.61,-46.35 817,-29.46"/>
<polygon fill="black" stroke="black" points="817.37,-32.94 826.73,-27.97 816.32,-26.02 817.37,-32.94"/>
</g>
<!-- xcb&#45;util&#45;keysyms&#45;&gt;nsight&#45;compute -->
<g id="edge62" class="edge">
<title>xcb&#45;util&#45;keysyms&#45;&gt;nsight&#45;compute</title>
<path fill="none" stroke="black" d="M150.63,-289.02C195.8,-269.64 275.56,-236.98 346.28,-216 402.47,-199.33 467.29,-185.66 516.56,-176.39"/>
<polygon fill="black" stroke="black" points="517.1,-179.85 526.3,-174.58 515.82,-172.96 517.1,-179.85"/>
</g>
<!-- xcb&#45;util -->
<g id="node30" class="node">
<title>xcb&#45;util</title>
<g id="a_node30"><a xlink:href="https://github.com/conda-forge/xcb-util-feedstock" xlink:title="xcb util">
<ellipse fill="#35b779" stroke="black" cx="309.28" cy="-378" rx="48.58" ry="18"/>
<text text-anchor="middle" x="309.28" y="-373.32" font-family="Times,serif" font-size="14.00">xcb util</text>
</a>
</g>
</g>
<!-- xcb&#45;util&#45;&gt;qt&#45;main -->
<g id="edge63" class="edge">
<title>xcb&#45;util&#45;&gt;qt&#45;main</title>
<path fill="none" stroke="black" d="M358.19,-377.31C516.99,-377.79 1010.62,-375.15 1058.28,-324 1076.34,-304.62 1056.19,-277.71 1036.14,-258.57"/>
<polygon fill="black" stroke="black" points="1038.55,-256.03 1028.79,-251.9 1033.84,-261.21 1038.55,-256.03"/>
</g>
<!-- xcb&#45;util&#45;&gt;kwindowsystem -->
<g id="edge64" class="edge">
<title>xcb&#45;util&#45;&gt;kwindowsystem</title>
<path fill="none" stroke="black" d="M260.89,-375.68C184.57,-372.47 41.69,-361.47 10.28,-324 0,-311.74 1.64,-301.47 10.28,-288 93.18,-158.78 176.48,-185.54 324.28,-144 440.19,-111.42 578.5,-98.86 670.25,-94.02"/>
<polygon fill="black" stroke="black" points="670.16,-97.53 679.97,-93.53 669.81,-90.54 670.16,-97.53"/>
</g>
<!-- xcb&#45;util&#45;image -->
<g id="node31" class="node">
<title>xcb&#45;util&#45;image</title>
<g id="a_node31"><a xlink:href="https://github.com/conda-forge/xcb-util-image-feedstock" xlink:title="xcb util image">
<ellipse fill="#fde725" stroke="black" cx="309.28" cy="-306" rx="82.25" ry="18"/>
<text text-anchor="middle" x="309.28" y="-301.32" font-family="Times,serif" font-size="14.00">xcb util image</text>
</a>
</g>
</g>
<!-- xcb&#45;util&#45;&gt;xcb&#45;util&#45;image -->
<g id="edge65" class="edge">
<title>xcb&#45;util&#45;&gt;xcb&#45;util&#45;image</title>
<path fill="none" stroke="black" d="M309.28,-359.7C309.28,-352.41 309.28,-343.73 309.28,-335.54"/>
<polygon fill="black" stroke="black" points="312.78,-335.62 309.28,-325.62 305.78,-335.62 312.78,-335.62"/>
</g>
<!-- xcb&#45;util&#45;image&#45;&gt;qt&#45;main -->
<g id="edge66" class="edge">
<title>xcb&#45;util&#45;image&#45;&gt;qt&#45;main</title>
<path fill="none" stroke="black" d="M368.37,-293.09C378.97,-291.21 389.93,-289.42 400.28,-288 599.49,-260.76 837.51,-244.75 946.88,-238.32"/>
<polygon fill="black" stroke="black" points="947.03,-241.81 956.81,-237.74 946.62,-234.82 947.03,-241.81"/>
</g>
<!-- xcb&#45;util&#45;image&#45;&gt;nsight&#45;compute -->
<g id="edge67" class="edge">
<title>xcb&#45;util&#45;image&#45;&gt;nsight&#45;compute</title>
<path fill="none" stroke="black" d="M320.08,-287.82C333.72,-267.57 359.09,-234.33 389.28,-216 424.88,-194.38 469.13,-181.51 507.4,-173.89"/>
<polygon fill="black" stroke="black" points="507.88,-177.36 517.05,-172.06 506.58,-170.48 507.88,-177.36"/>
</g>
<!-- xcb&#45;util&#45;cursor -->
<g id="node32" class="node">
<title>xcb&#45;util&#45;cursor</title>
<g id="a_node32"><a xlink:href="https://github.com/conda-forge/xcb-util-cursor-feedstock" xlink:title="xcb util cursor">
<ellipse fill="#fde725" stroke="black" cx="482.28" cy="-234" rx="83.83" ry="18"/>
<text text-anchor="middle" x="482.28" y="-229.32" font-family="Times,serif" font-size="14.00">xcb util cursor</text>
</a>
</g>
</g>
<!-- xcb&#45;util&#45;image&#45;&gt;xcb&#45;util&#45;cursor -->
<g id="edge68" class="edge">
<title>xcb&#45;util&#45;image&#45;&gt;xcb&#45;util&#45;cursor</title>
<path fill="none" stroke="black" d="M347.24,-289.64C372.62,-279.37 406.24,-265.77 433.58,-254.7"/>
<polygon fill="black" stroke="black" points="434.74,-258.01 442.7,-251.01 432.12,-251.52 434.74,-258.01"/>
</g>
<!-- xcb&#45;util&#45;cursor&#45;&gt;nsight&#45;compute -->
<g id="edge72" class="edge">
<title>xcb&#45;util&#45;cursor&#45;&gt;nsight&#45;compute</title>
<path fill="none" stroke="black" d="M508.54,-216.59C523.32,-207.35 541.99,-195.68 558.13,-185.59"/>
<polygon fill="black" stroke="black" points="559.89,-188.62 566.51,-180.35 556.18,-182.69 559.89,-188.62"/>
</g>
<!-- xcb&#45;util&#45;wm -->
<g id="node33" class="node">
<title>xcb&#45;util&#45;wm</title>
<g id="a_node33"><a xlink:href="https://github.com/conda-forge/xcb-util-wm-feedstock" xlink:title="xcb util wm">
<ellipse fill="#35b779" stroke="black" cx="739.28" cy="-306" rx="69.62" ry="18"/>
<text text-anchor="middle" x="739.28" y="-301.32" font-family="Times,serif" font-size="14.00">xcb util wm</text>
</a>
</g>
</g>
<!-- xcb&#45;util&#45;wm&#45;&gt;qt&#45;main -->
<g id="edge69" class="edge">
<title>xcb&#45;util&#45;wm&#45;&gt;qt&#45;main</title>
<path fill="none" stroke="black" d="M786.88,-292.57C834.75,-280.06 908.25,-260.87 957.03,-248.12"/>
<polygon fill="black" stroke="black" points="957.7,-251.57 966.49,-245.65 955.93,-244.79 957.7,-251.57"/>
</g>
<!-- xcb&#45;util&#45;wm&#45;&gt;kwindowsystem -->
<g id="edge70" class="edge">
<title>xcb&#45;util&#45;wm&#45;&gt;kwindowsystem</title>
<path fill="none" stroke="black" d="M741.86,-287.61C746.25,-258.08 755.44,-196.26 763.28,-144 764.47,-136.06 765.77,-127.44 766.97,-119.51"/>
<polygon fill="black" stroke="black" points="770.42,-120.09 768.45,-109.68 763.5,-119.05 770.42,-120.09"/>
</g>
<!-- xcb&#45;util&#45;wm&#45;&gt;nsight&#45;compute -->
<g id="edge71" class="edge">
<title>xcb&#45;util&#45;wm&#45;&gt;nsight&#45;compute</title>
<path fill="none" stroke="black" d="M724.27,-288.13C707.82,-269.87 680.42,-240.13 655.28,-216 645.18,-206.31 633.69,-196.12 623.42,-187.3"/>
<polygon fill="black" stroke="black" points="625.82,-184.74 615.93,-180.92 621.28,-190.07 625.82,-184.74"/>
</g>
<!-- xcb&#45;util&#45;renderutil -->
<g id="node34" class="node">
<title>xcb&#45;util&#45;renderutil</title>
<g id="a_node34"><a xlink:href="https://github.com/conda-forge/xcb-util-renderutil-feedstock" xlink:title="xcb util renderutil">
<ellipse fill="#35b779" stroke="black" cx="511.28" cy="-306" rx="102.24" ry="18"/>
<text text-anchor="middle" x="511.28" y="-301.32" font-family="Times,serif" font-size="14.00">xcb util renderutil</text>
</a>
</g>
</g>
<!-- xcb&#45;util&#45;renderutil&#45;&gt;qt&#45;main -->
<g id="edge73" class="edge">
<title>xcb&#45;util&#45;renderutil&#45;&gt;qt&#45;main</title>
<path fill="none" stroke="black" d="M589.32,-293.99C689.69,-279.82 861.6,-255.56 950.43,-243.02"/>
<polygon fill="black" stroke="black" points="950.7,-246.52 960.12,-241.66 949.73,-239.59 950.7,-246.52"/>
</g>
<!-- xcb&#45;util&#45;renderutil&#45;&gt;nsight&#45;compute -->
<g id="edge74" class="edge">
<title>xcb&#45;util&#45;renderutil&#45;&gt;nsight&#45;compute</title>
<path fill="none" stroke="black" d="M539.01,-288.32C551.93,-279.17 566.38,-266.68 575.28,-252 586.31,-233.8 590.99,-210.11 592.95,-191.75"/>
<polygon fill="black" stroke="black" points="596.44,-192.05 593.78,-181.8 589.46,-191.47 596.44,-192.05"/>
</g>
<!-- xcb&#45;util&#45;renderutil&#45;&gt;xcb&#45;util&#45;cursor -->
<g id="edge75" class="edge">
<title>xcb&#45;util&#45;renderutil&#45;&gt;xcb&#45;util&#45;cursor</title>
<path fill="none" stroke="black" d="M504.11,-287.7C500.99,-280.15 497.24,-271.12 493.75,-262.68"/>
<polygon fill="black" stroke="black" points="497.01,-261.4 489.94,-253.5 490.54,-264.08 497.01,-261.4"/>
</g>
</g>
</svg>
