<?xml version="1.0" encoding="UTF-8" standalone="no"?>
<!DOCTYPE svg PUBLIC "-//W3C//DTD SVG 1.1//EN"
 "http://www.w3.org/Graphics/SVG/1.1/DTD/svg11.dtd">
<!-- Generated by graphviz version 11.0.0 (20240519.1550)
 -->
<!-- Pages: 1 -->
<svg width="2706pt" height="404pt"
 viewBox="0.00 0.00 2706.10 404.00" xmlns="http://www.w3.org/2000/svg" xmlns:xlink="http://www.w3.org/1999/xlink">
<g id="graph0" class="graph" transform="scale(1 1) rotate(0) translate(4 400)">
<polygon fill="white" stroke="none" points="-4,4 -4,-400 2702.1,-400 2702.1,4 -4,4"/>
<!-- cairo -->
<g id="node1" class="node">
<title>cairo</title>
<g id="a_node1"><a xlink:href="https://github.com/conda-forge/cairo-feedstock" xlink:title="cairo">
<ellipse fill="#fde725" stroke="black" cx="1246" cy="-306" rx="35.95" ry="18"/>
<text text-anchor="middle" x="1246" y="-301.32" font-family="Times,serif" font-size="14.00">cairo</text>
</a>
</g>
</g>
<!-- ffmpeg -->
<g id="node2" class="node">
<title>ffmpeg</title>
<g id="a_node2"><a xlink:href="https://github.com/conda-forge/ffmpeg-feedstock" xlink:title="ffmpeg">
<ellipse fill="#fde725" stroke="black" cx="2190" cy="-162" rx="45.95" ry="18"/>
<text text-anchor="middle" x="2190" y="-157.32" font-family="Times,serif" font-size="14.00">ffmpeg</text>
</a>
</g>
</g>
<!-- cairo&#45;&gt;ffmpeg -->
<g id="edge1" class="edge">
<title>cairo&#45;&gt;ffmpeg</title>
<path fill="none" stroke="black" d="M1272.55,-293.71C1328.37,-270.01 1453.17,-217.11 1458,-216 1752.13,-148.6 1839.06,-233.73 2136,-180 2139.22,-179.42 2142.51,-178.7 2145.81,-177.89"/>
<polygon fill="black" stroke="black" points="2146.73,-181.27 2155.46,-175.25 2144.89,-174.51 2146.73,-181.27"/>
</g>
<!-- gnuplot -->
<g id="node3" class="node">
<title>gnuplot</title>
<g id="a_node3"><a xlink:href="https://github.com/conda-forge/gnuplot-feedstock" xlink:title="gnuplot">
<ellipse fill="#fde725" stroke="black" cx="1519" cy="-162" rx="49.63" ry="18"/>
<text text-anchor="middle" x="1519" y="-157.32" font-family="Times,serif" font-size="14.00">gnuplot</text>
</a>
</g>
</g>
<!-- cairo&#45;&gt;gnuplot -->
<g id="edge2" class="edge">
<title>cairo&#45;&gt;gnuplot</title>
<path fill="none" stroke="black" d="M1265.87,-290.83C1292.56,-272.18 1341.89,-239.05 1387,-216 1414.9,-201.74 1447.57,-188.6 1473.42,-178.97"/>
<polygon fill="black" stroke="black" points="1474.45,-182.32 1482.63,-175.58 1472.04,-175.75 1474.45,-182.32"/>
</g>
<!-- lyx -->
<g id="node4" class="node">
<title>lyx</title>
<g id="a_node4"><a xlink:href="https://github.com/conda-forge/lyx-feedstock" xlink:title="lyx">
<ellipse fill="#fde725" stroke="black" cx="1248" cy="-162" rx="27" ry="18"/>
<text text-anchor="middle" x="1248" y="-157.32" font-family="Times,serif" font-size="14.00">lyx</text>
</a>
</g>
</g>
<!-- cairo&#45;&gt;lyx -->
<g id="edge3" class="edge">
<title>cairo&#45;&gt;lyx</title>
<path fill="none" stroke="black" d="M1254.9,-288.35C1259.83,-278.17 1265.47,-264.7 1268,-252 1271.13,-236.31 1270.87,-231.74 1268,-216 1266.4,-207.22 1263.42,-198 1260.24,-189.77"/>
<polygon fill="black" stroke="black" points="1263.53,-188.57 1256.47,-180.67 1257.06,-191.25 1263.53,-188.57"/>
</g>
<!-- qt&#45;main -->
<g id="node5" class="node">
<title>qt&#45;main</title>
<g id="a_node5"><a xlink:href="https://github.com/conda-forge/qt-main-feedstock" xlink:title="qt main">
<ellipse fill="#fde725" stroke="black" cx="991" cy="-234" rx="49.63" ry="18"/>
<text text-anchor="middle" x="991" y="-229.32" font-family="Times,serif" font-size="14.00">qt main</text>
</a>
</g>
</g>
<!-- cairo&#45;&gt;qt&#45;main -->
<g id="edge4" class="edge">
<title>cairo&#45;&gt;qt&#45;main</title>
<path fill="none" stroke="black" d="M1214.99,-296.49C1171.58,-284.57 1092.25,-262.8 1040.59,-248.61"/>
<polygon fill="black" stroke="black" points="1041.72,-245.29 1031.15,-246.02 1039.87,-252.05 1041.72,-245.29"/>
</g>
<!-- qt&#45;webengine -->
<g id="node6" class="node">
<title>qt&#45;webengine</title>
<g id="a_node6"><a xlink:href="https://github.com/conda-forge/qt-webengine-feedstock" xlink:title="qt webengine">
<ellipse fill="#fde725" stroke="black" cx="1372" cy="-162" rx="79.09" ry="18"/>
<text text-anchor="middle" x="1372" y="-157.32" font-family="Times,serif" font-size="14.00">qt webengine</text>
</a>
</g>
</g>
<!-- cairo&#45;&gt;qt&#45;webengine -->
<g id="edge5" class="edge">
<title>cairo&#45;&gt;qt&#45;webengine</title>
<path fill="none" stroke="black" d="M1217.33,-294.88C1198.47,-286.54 1175.27,-272.69 1164,-252 1156.35,-237.95 1154.18,-228.63 1164,-216 1172.71,-204.79 1244.71,-188.16 1301.59,-176.52"/>
<polygon fill="black" stroke="black" points="1302.16,-179.98 1311.26,-174.56 1300.77,-173.12 1302.16,-179.98"/>
</g>
<!-- silicon -->
<g id="node7" class="node">
<title>silicon</title>
<g id="a_node7"><a xlink:href="https://github.com/conda-forge/silicon-feedstock" xlink:title="silicon">
<ellipse fill="#fde725" stroke="black" cx="1216" cy="-234" rx="43.32" ry="18"/>
<text text-anchor="middle" x="1216" y="-229.32" font-family="Times,serif" font-size="14.00">silicon</text>
</a>
</g>
</g>
<!-- cairo&#45;&gt;silicon -->
<g id="edge6" class="edge">
<title>cairo&#45;&gt;silicon</title>
<path fill="none" stroke="black" d="M1238.74,-288.05C1235.42,-280.32 1231.41,-270.96 1227.69,-262.27"/>
<polygon fill="black" stroke="black" points="1230.95,-260.99 1223.79,-253.18 1224.51,-263.75 1230.95,-260.99"/>
</g>
<!-- vtk -->
<g id="node8" class="node">
<title>vtk</title>
<g id="a_node8"><a xlink:href="https://github.com/conda-forge/vtk-feedstock" xlink:title="vtk">
<ellipse fill="#fde725" stroke="black" cx="2227" cy="-90" rx="27.01" ry="18"/>
<text text-anchor="middle" x="2227" y="-85.33" font-family="Times,serif" font-size="14.00">vtk</text>
</a>
</g>
</g>
<!-- ffmpeg&#45;&gt;vtk -->
<g id="edge7" class="edge">
<title>ffmpeg&#45;&gt;vtk</title>
<path fill="none" stroke="black" d="M2198.96,-144.05C2203.2,-136.03 2208.36,-126.26 2213.1,-117.3"/>
<polygon fill="black" stroke="black" points="2216.09,-119.12 2217.67,-108.65 2209.91,-115.85 2216.09,-119.12"/>
</g>
<!-- gazebo -->
<g id="node9" class="node">
<title>gazebo</title>
<g id="a_node9"><a xlink:href="https://github.com/conda-forge/gazebo-feedstock" xlink:title="gazebo">
<ellipse fill="#fde725" stroke="black" cx="1926" cy="-90" rx="46.47" ry="18"/>
<text text-anchor="middle" x="1926" y="-85.33" font-family="Times,serif" font-size="14.00">gazebo</text>
</a>
</g>
</g>
<!-- ffmpeg&#45;&gt;gazebo -->
<g id="edge8" class="edge">
<title>ffmpeg&#45;&gt;gazebo</title>
<path fill="none" stroke="black" d="M2155.52,-149.82C2149.05,-147.82 2142.34,-145.8 2136,-144 2081.54,-128.57 2018.51,-112.96 1975.82,-102.71"/>
<polygon fill="black" stroke="black" points="1976.9,-99.37 1966.36,-100.45 1975.27,-106.18 1976.9,-99.37"/>
</g>
<!-- qt&#45;main&#45;&gt;gnuplot -->
<g id="edge9" class="edge">
<title>qt&#45;main&#45;&gt;gnuplot</title>
<path fill="none" stroke="black" d="M1038.15,-228.13C1148.87,-216.62 1419.27,-188.11 1460,-180 1463.77,-179.25 1467.66,-178.37 1471.54,-177.42"/>
<polygon fill="black" stroke="black" points="1472.16,-180.87 1480.95,-174.96 1470.39,-174.1 1472.16,-180.87"/>
</g>
<!-- qt&#45;main&#45;&gt;lyx -->
<g id="edge10" class="edge">
<title>qt&#45;main&#45;&gt;lyx</title>
<path fill="none" stroke="black" d="M1029.88,-222.49C1038.16,-220.31 1046.86,-218.04 1055,-216 1122.33,-199.09 1140.94,-201.36 1207,-180 1209.76,-179.11 1212.59,-178.11 1215.42,-177.06"/>
<polygon fill="black" stroke="black" points="1216.69,-180.32 1224.71,-173.39 1214.12,-173.81 1216.69,-180.32"/>
</g>
<!-- qt&#45;main&#45;&gt;qt&#45;webengine -->
<g id="edge11" class="edge">
<title>qt&#45;main&#45;&gt;qt&#45;webengine</title>
<path fill="none" stroke="black" d="M1034.71,-225.26C1092,-215.08 1195.59,-196.54 1284,-180 1289.93,-178.89 1296.08,-177.73 1302.24,-176.55"/>
<polygon fill="black" stroke="black" points="1302.67,-180.04 1311.84,-174.72 1301.36,-173.16 1302.67,-180.04"/>
</g>
<!-- qt&#45;main&#45;&gt;gazebo -->
<g id="edge12" class="edge">
<title>qt&#45;main&#45;&gt;gazebo</title>
<path fill="none" stroke="black" d="M1029.87,-222.33C1078.41,-208.87 1156.61,-186.66 1169,-180 1190.95,-168.2 1188.91,-153.37 1212,-144 1330.45,-95.93 1719.46,-90.89 1867.81,-90.77"/>
<polygon fill="black" stroke="black" points="1867.81,-94.27 1877.81,-90.77 1867.81,-87.27 1867.81,-94.27"/>
</g>
<!-- colmap -->
<g id="node10" class="node">
<title>colmap</title>
<g id="a_node10"><a xlink:href="https://github.com/conda-forge/colmap-feedstock" xlink:title="colmap">
<ellipse fill="#fde725" stroke="black" cx="1810" cy="-162" rx="47" ry="18"/>
<text text-anchor="middle" x="1810" y="-157.32" font-family="Times,serif" font-size="14.00">colmap</text>
</a>
</g>
</g>
<!-- qt&#45;main&#45;&gt;colmap -->
<g id="edge13" class="edge">
<title>qt&#45;main&#45;&gt;colmap</title>
<path fill="none" stroke="black" d="M1038.34,-228.14C1073.1,-224.62 1121.47,-219.83 1164,-216 1381.3,-196.41 1640,-176.09 1752.75,-167.39"/>
<polygon fill="black" stroke="black" points="1752.95,-170.88 1762.65,-166.62 1752.41,-163.9 1752.95,-170.88"/>
</g>
<!-- kwindowsystem -->
<g id="node11" class="node">
<title>kwindowsystem</title>
<g id="a_node11"><a xlink:href="https://github.com/conda-forge/kwindowsystem-feedstock" xlink:title="kwindowsystem">
<ellipse fill="#fde725" stroke="black" cx="686" cy="-90" rx="91.19" ry="18"/>
<text text-anchor="middle" x="686" y="-85.33" font-family="Times,serif" font-size="14.00">kwindowsystem</text>
</a>
</g>
</g>
<!-- qt&#45;main&#45;&gt;kwindowsystem -->
<g id="edge14" class="edge">
<title>qt&#45;main&#45;&gt;kwindowsystem</title>
<path fill="none" stroke="black" d="M942.03,-230.82C892.77,-226.64 816.25,-214.59 760,-180 735.11,-164.69 714.62,-138.05 701.56,-117.9"/>
<polygon fill="black" stroke="black" points="704.65,-116.25 696.39,-109.61 698.71,-119.95 704.65,-116.25"/>
</g>
<!-- kglobalaccel -->
<g id="node12" class="node">
<title>kglobalaccel</title>
<g id="a_node12"><a xlink:href="https://github.com/conda-forge/kglobalaccel-feedstock" xlink:title="kglobalaccel">
<ellipse fill="#fde725" stroke="black" cx="686" cy="-18" rx="72.78" ry="18"/>
<text text-anchor="middle" x="686" y="-13.32" font-family="Times,serif" font-size="14.00">kglobalaccel</text>
</a>
</g>
</g>
<!-- qt&#45;main&#45;&gt;kglobalaccel -->
<g id="edge15" class="edge">
<title>qt&#45;main&#45;&gt;kglobalaccel</title>
<path fill="none" stroke="black" d="M1027.1,-221.24C1058.87,-210.24 1101.9,-193.51 1114,-180 1146.68,-143.51 1168.55,-108.61 1136,-72 1112.05,-45.06 891.74,-29.53 768.51,-22.88"/>
<polygon fill="black" stroke="black" points="768.94,-19.4 758.77,-22.36 768.57,-26.39 768.94,-19.4"/>
</g>
<!-- qt6&#45;advanced&#45;docking&#45;system -->
<g id="node13" class="node">
<title>qt6&#45;advanced&#45;docking&#45;system</title>
<g id="a_node13"><a xlink:href="https://github.com/conda-forge/qt6-advanced-docking-system-feedstock" xlink:title="qt6 advanced docking system">
<ellipse fill="#fde725" stroke="black" cx="929" cy="-162" rx="159.59" ry="18"/>
<text text-anchor="middle" x="929" y="-157.32" font-family="Times,serif" font-size="14.00">qt6 advanced docking system</text>
</a>
</g>
</g>
<!-- qt&#45;main&#45;&gt;qt6&#45;advanced&#45;docking&#45;system -->
<g id="edge16" class="edge">
<title>qt&#45;main&#45;&gt;qt6&#45;advanced&#45;docking&#45;system</title>
<path fill="none" stroke="black" d="M976.31,-216.41C968.93,-208.08 959.82,-197.8 951.58,-188.49"/>
<polygon fill="black" stroke="black" points="954.27,-186.25 945.02,-181.09 949.03,-190.9 954.27,-186.25"/>
</g>
<!-- adwaita&#45;qt -->
<g id="node14" class="node">
<title>adwaita&#45;qt</title>
<g id="a_node14"><a xlink:href="https://github.com/conda-forge/adwaita-qt-feedstock" xlink:title="adwaita qt">
<ellipse fill="#fde725" stroke="black" cx="1063" cy="-90" rx="64.36" ry="18"/>
<text text-anchor="middle" x="1063" y="-85.33" font-family="Times,serif" font-size="14.00">adwaita qt</text>
</a>
</g>
</g>
<!-- qt&#45;main&#45;&gt;adwaita&#45;qt -->
<g id="edge17" class="edge">
<title>qt&#45;main&#45;&gt;adwaita&#45;qt</title>
<path fill="none" stroke="black" d="M1032.65,-223.85C1056.21,-216.31 1083.73,-202.99 1098,-180 1110.3,-160.18 1098.56,-135.3 1085.45,-116.9"/>
<polygon fill="black" stroke="black" points="1088.37,-114.95 1079.52,-109.12 1082.81,-119.19 1088.37,-114.95"/>
</g>
<!-- qt&#45;webengine&#45;&gt;kwindowsystem -->
<g id="edge18" class="edge">
<title>qt&#45;webengine&#45;&gt;kwindowsystem</title>
<path fill="none" stroke="black" d="M1315.34,-149.17C1304.94,-147.25 1294.17,-145.43 1284,-144 1108.52,-119.34 902.37,-104.06 783.68,-96.58"/>
<polygon fill="black" stroke="black" points="784.18,-93.1 773.98,-95.97 783.74,-100.09 784.18,-93.1"/>
</g>
<!-- qt&#45;webengine&#45;&gt;kglobalaccel -->
<g id="edge19" class="edge">
<title>qt&#45;webengine&#45;&gt;kglobalaccel</title>
<path fill="none" stroke="black" d="M1343.1,-144.96C1304.63,-124.4 1233.87,-89.34 1169,-72 1032.21,-35.43 867.15,-24.03 769.7,-20.52"/>
<polygon fill="black" stroke="black" points="770.08,-17.03 759.96,-20.19 769.84,-24.02 770.08,-17.03"/>
</g>
<!-- kwindowsystem&#45;&gt;kglobalaccel -->
<g id="edge54" class="edge">
<title>kwindowsystem&#45;&gt;kglobalaccel</title>
<path fill="none" stroke="black" d="M686,-71.7C686,-64.41 686,-55.73 686,-47.54"/>
<polygon fill="black" stroke="black" points="689.5,-47.62 686,-37.62 682.5,-47.62 689.5,-47.62"/>
</g>
<!-- gstreamer -->
<g id="node15" class="node">
<title>gstreamer</title>
<g id="a_node15"><a xlink:href="https://github.com/conda-forge/gstreamer-feedstock" xlink:title="gstreamer">
<ellipse fill="#fde725" stroke="black" cx="1363" cy="-306" rx="63.31" ry="18"/>
<text text-anchor="middle" x="1363" y="-301.32" font-family="Times,serif" font-size="14.00">gstreamer</text>
</a>
</g>
</g>
<!-- gstreamer&#45;&gt;qt&#45;main -->
<g id="edge20" class="edge">
<title>gstreamer&#45;&gt;qt&#45;main</title>
<path fill="none" stroke="black" d="M1316.22,-293.55C1307.84,-291.61 1299.18,-289.69 1291,-288 1206.33,-270.54 1107.47,-253.77 1047.06,-243.92"/>
<polygon fill="black" stroke="black" points="1047.8,-240.5 1037.37,-242.35 1046.68,-247.41 1047.8,-240.5"/>
</g>
<!-- gstreamer&#45;&gt;qt&#45;webengine -->
<g id="edge21" class="edge">
<title>gstreamer&#45;&gt;qt&#45;webengine</title>
<path fill="none" stroke="black" d="M1364.1,-287.59C1365.62,-263.61 1368.38,-220.14 1370.2,-191.42"/>
<polygon fill="black" stroke="black" points="1373.68,-191.82 1370.82,-181.62 1366.69,-191.38 1373.68,-191.82"/>
</g>
<!-- gst&#45;plugins&#45;ugly -->
<g id="node16" class="node">
<title>gst&#45;plugins&#45;ugly</title>
<g id="a_node16"><a xlink:href="https://github.com/conda-forge/gst-plugins-ugly-feedstock" xlink:title="gst plugins ugly">
<ellipse fill="#fde725" stroke="black" cx="1754" cy="-234" rx="91.72" ry="18"/>
<text text-anchor="middle" x="1754" y="-229.32" font-family="Times,serif" font-size="14.00">gst plugins ugly</text>
</a>
</g>
</g>
<!-- gstreamer&#45;&gt;gst&#45;plugins&#45;ugly -->
<g id="edge22" class="edge">
<title>gstreamer&#45;&gt;gst&#45;plugins&#45;ugly</title>
<path fill="none" stroke="black" d="M1415.33,-295.63C1482.46,-283.61 1599.47,-262.67 1676.84,-248.81"/>
<polygon fill="black" stroke="black" points="1677.24,-252.3 1686.46,-247.09 1676,-245.41 1677.24,-252.3"/>
</g>
<!-- gst&#45;plugins&#45;bad -->
<g id="node17" class="node">
<title>gst&#45;plugins&#45;bad</title>
<g id="a_node17"><a xlink:href="https://github.com/conda-forge/gst-plugins-bad-feedstock" xlink:title="gst plugins bad">
<ellipse fill="#fde725" stroke="black" cx="1556" cy="-234" rx="88.56" ry="18"/>
<text text-anchor="middle" x="1556" y="-229.32" font-family="Times,serif" font-size="14.00">gst plugins bad</text>
</a>
</g>
</g>
<!-- gstreamer&#45;&gt;gst&#45;plugins&#45;bad -->
<g id="edge23" class="edge">
<title>gstreamer&#45;&gt;gst&#45;plugins&#45;bad</title>
<path fill="none" stroke="black" d="M1401.13,-291.17C1430.35,-280.57 1470.99,-265.83 1503.31,-254.11"/>
<polygon fill="black" stroke="black" points="1504.3,-257.48 1512.51,-250.78 1501.91,-250.89 1504.3,-257.48"/>
</g>
<!-- libglu -->
<g id="node18" class="node">
<title>libglu</title>
<g id="a_node18"><a xlink:href="https://github.com/conda-forge/libglu-feedstock" xlink:title="libglu">
<ellipse fill="#fde725" stroke="black" cx="2018" cy="-234" rx="39.63" ry="18"/>
<text text-anchor="middle" x="2018" y="-229.32" font-family="Times,serif" font-size="14.00">libglu</text>
</a>
</g>
</g>
<!-- libglu&#45;&gt;vtk -->
<g id="edge24" class="edge">
<title>libglu&#45;&gt;vtk</title>
<path fill="none" stroke="black" d="M2022.15,-215.74C2027.83,-195.71 2039.93,-163.01 2062,-144 2098.1,-112.9 2152.67,-99.99 2189.05,-94.68"/>
<polygon fill="black" stroke="black" points="2189.23,-98.18 2198.68,-93.4 2188.31,-91.24 2189.23,-98.18"/>
</g>
<!-- libglu&#45;&gt;gazebo -->
<g id="edge25" class="edge">
<title>libglu&#45;&gt;gazebo</title>
<path fill="none" stroke="black" d="M2014.51,-215.76C2010.11,-196.91 2001.21,-166.42 1986,-144 1978.21,-132.53 1967.38,-121.94 1957.06,-113.3"/>
<polygon fill="black" stroke="black" points="1959.4,-110.69 1949.4,-107.18 1955.03,-116.16 1959.4,-110.69"/>
</g>
<!-- libglu&#45;&gt;colmap -->
<g id="edge28" class="edge">
<title>libglu&#45;&gt;colmap</title>
<path fill="none" stroke="black" d="M1986.86,-222.52C1951.95,-210.77 1895.03,-191.62 1855.22,-178.22"/>
<polygon fill="black" stroke="black" points="1856.5,-174.96 1845.91,-175.09 1854.27,-181.59 1856.5,-174.96"/>
</g>
<!-- freeglut -->
<g id="node19" class="node">
<title>freeglut</title>
<g id="a_node19"><a xlink:href="https://github.com/conda-forge/freeglut-feedstock" xlink:title="freeglut">
<ellipse fill="#fde725" stroke="black" cx="1926" cy="-162" rx="51.21" ry="18"/>
<text text-anchor="middle" x="1926" y="-157.32" font-family="Times,serif" font-size="14.00">freeglut</text>
</a>
</g>
</g>
<!-- libglu&#45;&gt;freeglut -->
<g id="edge26" class="edge">
<title>libglu&#45;&gt;freeglut</title>
<path fill="none" stroke="black" d="M1998.49,-218.15C1986.03,-208.67 1969.63,-196.2 1955.59,-185.51"/>
<polygon fill="black" stroke="black" points="1958.04,-182.98 1947.97,-179.71 1953.8,-188.55 1958.04,-182.98"/>
</g>
<!-- fltk -->
<g id="node20" class="node">
<title>fltk</title>
<g id="a_node20"><a xlink:href="https://github.com/conda-forge/fltk-feedstock" xlink:title="fltk">
<ellipse fill="#fde725" stroke="black" cx="2099" cy="-162" rx="27.53" ry="18"/>
<text text-anchor="middle" x="2099" y="-157.32" font-family="Times,serif" font-size="14.00">fltk</text>
</a>
</g>
</g>
<!-- libglu&#45;&gt;fltk -->
<g id="edge27" class="edge">
<title>libglu&#45;&gt;fltk</title>
<path fill="none" stroke="black" d="M2035.98,-217.46C2047.3,-207.68 2062.08,-194.91 2074.47,-184.2"/>
<polygon fill="black" stroke="black" points="2076.57,-187.01 2081.85,-177.82 2071.99,-181.71 2076.57,-187.01"/>
</g>
<!-- freeglut&#45;&gt;gazebo -->
<g id="edge29" class="edge">
<title>freeglut&#45;&gt;gazebo</title>
<path fill="none" stroke="black" d="M1926,-143.7C1926,-136.41 1926,-127.73 1926,-119.54"/>
<polygon fill="black" stroke="black" points="1929.5,-119.62 1926,-109.62 1922.5,-119.62 1929.5,-119.62"/>
</g>
<!-- mesalib -->
<g id="node21" class="node">
<title>mesalib</title>
<g id="a_node21"><a xlink:href="https://github.com/conda-forge/mesalib-feedstock" xlink:title="mesalib">
<ellipse fill="#fde725" stroke="black" cx="2328" cy="-306" rx="50.16" ry="18"/>
<text text-anchor="middle" x="2328" y="-301.32" font-family="Times,serif" font-size="14.00">mesalib</text>
</a>
</g>
</g>
<!-- mesalib&#45;&gt;vtk -->
<g id="edge30" class="edge">
<title>mesalib&#45;&gt;vtk</title>
<path fill="none" stroke="black" d="M2325.38,-287.96C2320.13,-257.37 2306.29,-191.88 2278,-144 2271.04,-132.22 2260.96,-121.01 2251.61,-111.96"/>
<polygon fill="black" stroke="black" points="2254.15,-109.55 2244.43,-105.33 2249.4,-114.69 2254.15,-109.55"/>
</g>
<!-- pillow -->
<g id="node22" class="node">
<title>pillow</title>
<g id="a_node22"><a xlink:href="https://github.com/conda-forge/pillow-feedstock/pull/154" xlink:title="pillow ✓">
<ellipse fill="#31688e" stroke="black" cx="2649" cy="-198" rx="49.1" ry="18"/>
<text text-anchor="middle" x="2649" y="-193.32" font-family="Times,serif" font-size="14.00" fill="white">pillow ✓</text>
</a>
</g>
</g>
<!-- xorg&#45;libx11 -->
<g id="node23" class="node">
<title>xorg&#45;libx11</title>
<g id="a_node23"><a xlink:href="https://github.com/conda-forge/xorg-libx11-feedstock/pull/39" xlink:title="xorg libx11 ✓">
<ellipse fill="#31688e" stroke="black" cx="1834" cy="-378" rx="75.94" ry="18"/>
<text text-anchor="middle" x="1834" y="-373.32" font-family="Times,serif" font-size="14.00" fill="white">xorg libx11 ✓</text>
</a>
</g>
</g>
<!-- xorg&#45;libx11&#45;&gt;cairo -->
<g id="edge31" class="edge">
<title>xorg&#45;libx11&#45;&gt;cairo</title>
<path fill="none" stroke="black" d="M1758.33,-375.88C1652.46,-372.91 1454.73,-362.21 1291,-324 1288.56,-323.43 1286.06,-322.76 1283.57,-322.02"/>
<polygon fill="black" stroke="black" points="1284.8,-318.74 1274.2,-318.91 1282.59,-325.38 1284.8,-318.74"/>
</g>
<!-- xorg&#45;libx11&#45;&gt;ffmpeg -->
<g id="edge32" class="edge">
<title>xorg&#45;libx11&#45;&gt;ffmpeg</title>
<path fill="none" stroke="black" d="M1910.06,-376.63C1972.24,-373.3 2060.57,-361.49 2128,-324 2165.68,-303.05 2177.52,-292.24 2193,-252 2200.39,-232.8 2199.28,-209.51 2196.52,-191.57"/>
<polygon fill="black" stroke="black" points="2199.99,-191.09 2194.75,-181.88 2193.1,-192.35 2199.99,-191.09"/>
</g>
<!-- xorg&#45;libx11&#45;&gt;gnuplot -->
<g id="edge33" class="edge">
<title>xorg&#45;libx11&#45;&gt;gnuplot</title>
<path fill="none" stroke="black" d="M1757.95,-376.57C1668.94,-371.44 1525.17,-347.73 1458,-252 1448.81,-238.9 1451.36,-230.56 1458,-216 1463.67,-203.56 1473.86,-192.91 1484.31,-184.49"/>
<polygon fill="black" stroke="black" points="1486.32,-187.36 1492.24,-178.58 1482.13,-181.75 1486.32,-187.36"/>
</g>
<!-- xorg&#45;libx11&#45;&gt;lyx -->
<g id="edge34" class="edge">
<title>xorg&#45;libx11&#45;&gt;lyx</title>
<path fill="none" stroke="black" d="M1758.22,-376.06C1590.3,-373.28 1198.14,-362.67 1153,-324 1116.1,-292.39 1110.01,-257.05 1136,-216 1140.62,-208.7 1183.51,-189.71 1214.84,-176.56"/>
<polygon fill="black" stroke="black" points="1216.07,-179.84 1223.96,-172.77 1213.38,-173.38 1216.07,-179.84"/>
</g>
<!-- xorg&#45;libx11&#45;&gt;qt&#45;main -->
<g id="edge35" class="edge">
<title>xorg&#45;libx11&#45;&gt;qt&#45;main</title>
<path fill="none" stroke="black" d="M1758.45,-375.5C1574.78,-371.33 1115.45,-357.63 1055,-324 1030.64,-310.45 1013.2,-283.27 1002.74,-262.49"/>
<polygon fill="black" stroke="black" points="1006.01,-261.22 998.56,-253.69 999.69,-264.22 1006.01,-261.22"/>
</g>
<!-- xorg&#45;libx11&#45;&gt;qt&#45;webengine -->
<g id="edge36" class="edge">
<title>xorg&#45;libx11&#45;&gt;qt&#45;webengine</title>
<path fill="none" stroke="black" d="M1759.08,-374.37C1601.86,-368.32 1248.07,-351.78 1201,-324 1155.76,-297.3 1120.52,-257.28 1153,-216 1157.83,-209.86 1241.82,-190.77 1304.35,-177.26"/>
<polygon fill="black" stroke="black" points="1304.84,-180.74 1313.88,-175.21 1303.37,-173.89 1304.84,-180.74"/>
</g>
<!-- xorg&#45;libx11&#45;&gt;vtk -->
<g id="edge37" class="edge">
<title>xorg&#45;libx11&#45;&gt;vtk</title>
<path fill="none" stroke="black" d="M1906.68,-372.43C1991.04,-365.92 2123.85,-351.58 2165,-324 2225.82,-283.24 2228.18,-251.25 2245,-180 2249.87,-159.36 2244.65,-135.83 2238.6,-118.16"/>
<polygon fill="black" stroke="black" points="2241.92,-117.03 2235.14,-108.89 2235.36,-119.48 2241.92,-117.03"/>
</g>
<!-- xorg&#45;libx11&#45;&gt;gazebo -->
<g id="edge38" class="edge">
<title>xorg&#45;libx11&#45;&gt;gazebo</title>
<path fill="none" stroke="black" d="M1843.37,-359.64C1859.07,-327.97 1886.03,-260 1855,-216 1827.54,-177.05 1781.46,-218.95 1754,-180 1744.78,-166.92 1744.5,-156.87 1754,-144 1780.01,-108.77 1829.1,-96.23 1868.2,-92.09"/>
<polygon fill="black" stroke="black" points="1868.29,-95.6 1877.95,-91.23 1867.68,-88.62 1868.29,-95.6"/>
</g>
<!-- xorg&#45;libx11&#45;&gt;colmap -->
<g id="edge45" class="edge">
<title>xorg&#45;libx11&#45;&gt;colmap</title>
<path fill="none" stroke="black" d="M1858.08,-360.56C1869.45,-351.3 1881.85,-338.66 1888,-324 1906.58,-279.74 1910.46,-258.42 1888,-216 1880.03,-200.95 1865.66,-189.38 1851.41,-180.95"/>
<polygon fill="black" stroke="black" points="1853.43,-178.06 1842.97,-176.34 1850.07,-184.2 1853.43,-178.06"/>
</g>
<!-- xorg&#45;libx11&#45;&gt;kwindowsystem -->
<g id="edge48" class="edge">
<title>xorg&#45;libx11&#45;&gt;kwindowsystem</title>
<path fill="none" stroke="black" d="M1758.21,-375.82C1582.79,-372.49 1153.23,-360.74 1014,-324 978.54,-314.64 741.38,-207.4 717,-180 702.03,-163.18 694.19,-138.71 690.15,-119.69"/>
<polygon fill="black" stroke="black" points="693.59,-119.07 688.33,-109.88 686.71,-120.35 693.59,-119.07"/>
</g>
<!-- xorg&#45;libx11&#45;&gt;kglobalaccel -->
<g id="edge49" class="edge">
<title>xorg&#45;libx11&#45;&gt;kglobalaccel</title>
<path fill="none" stroke="black" d="M1757.87,-376.7C1427.59,-375.17 131.94,-366.46 57,-324 16.13,-300.84 0,-281.97 0,-235 0,-235 0,-235 0,-161 0,-39.48 418.03,-21.15 601.44,-18.96"/>
<polygon fill="black" stroke="black" points="601.43,-22.46 611.4,-18.85 601.36,-15.46 601.43,-22.46"/>
</g>
<!-- xorg&#45;libx11&#45;&gt;gstreamer -->
<g id="edge39" class="edge">
<title>xorg&#45;libx11&#45;&gt;gstreamer</title>
<path fill="none" stroke="black" d="M1766.11,-369.61C1687.38,-360.65 1553.83,-344.19 1440,-324 1434.02,-322.94 1427.8,-321.74 1421.6,-320.47"/>
<polygon fill="black" stroke="black" points="1422.51,-317.09 1412,-318.45 1421.07,-323.94 1422.51,-317.09"/>
</g>
<!-- xorg&#45;libx11&#45;&gt;gst&#45;plugins&#45;ugly -->
<g id="edge40" class="edge">
<title>xorg&#45;libx11&#45;&gt;gst&#45;plugins&#45;ugly</title>
<path fill="none" stroke="black" d="M1824.35,-359.87C1810.66,-335.56 1785.45,-290.82 1769.22,-262.01"/>
<polygon fill="black" stroke="black" points="1772.38,-260.5 1764.43,-253.51 1766.29,-263.94 1772.38,-260.5"/>
</g>
<!-- xorg&#45;libx11&#45;&gt;gst&#45;plugins&#45;bad -->
<g id="edge41" class="edge">
<title>xorg&#45;libx11&#45;&gt;gst&#45;plugins&#45;bad</title>
<path fill="none" stroke="black" d="M1802.92,-361.12C1752.77,-335.51 1653.94,-285.03 1597.72,-256.31"/>
<polygon fill="black" stroke="black" points="1599.58,-253.33 1589.08,-251.9 1596.39,-259.56 1599.58,-253.33"/>
</g>
<!-- xorg&#45;libx11&#45;&gt;libglu -->
<g id="edge42" class="edge">
<title>xorg&#45;libx11&#45;&gt;libglu</title>
<path fill="none" stroke="black" d="M1885.29,-364.4C1911.04,-356.13 1941.47,-343.22 1964,-324 1983.52,-307.35 1997.99,-281.81 2007.01,-262.35"/>
<polygon fill="black" stroke="black" points="2010.14,-263.93 2010.97,-253.37 2003.74,-261.11 2010.14,-263.93"/>
</g>
<!-- xorg&#45;libx11&#45;&gt;freeglut -->
<g id="edge43" class="edge">
<title>xorg&#45;libx11&#45;&gt;freeglut</title>
<path fill="none" stroke="black" d="M1867.11,-361.42C1882.11,-352.6 1898.57,-340.09 1908,-324 1932.07,-282.94 1932.19,-225.82 1929.5,-191.81"/>
<polygon fill="black" stroke="black" points="1932.99,-191.53 1928.56,-181.9 1926.02,-192.19 1932.99,-191.53"/>
</g>
<!-- xorg&#45;libx11&#45;&gt;fltk -->
<g id="edge44" class="edge">
<title>xorg&#45;libx11&#45;&gt;fltk</title>
<path fill="none" stroke="black" d="M1888.5,-365.08C1920.2,-356.63 1960.07,-343.33 1992,-324 2031.53,-300.07 2041.85,-290.76 2067,-252 2079.1,-233.36 2087.35,-209.55 2092.44,-191.25"/>
<polygon fill="black" stroke="black" points="2095.82,-192.15 2094.95,-181.59 2089.04,-190.39 2095.82,-192.15"/>
</g>
<!-- xorg&#45;libx11&#45;&gt;mesalib -->
<g id="edge46" class="edge">
<title>xorg&#45;libx11&#45;&gt;mesalib</title>
<path fill="none" stroke="black" d="M1904.85,-371.27C1990.47,-363.65 2138.64,-348.26 2264,-324 2268.89,-323.05 2273.97,-321.94 2279.02,-320.74"/>
<polygon fill="black" stroke="black" points="2279.63,-324.2 2288.49,-318.39 2277.94,-317.4 2279.63,-324.2"/>
</g>
<!-- libva -->
<g id="node24" class="node">
<title>libva</title>
<g id="a_node24"><a xlink:href="https://github.com/conda-forge/libva-feedstock" xlink:title="libva">
<ellipse fill="#fde725" stroke="black" cx="2149" cy="-234" rx="35.42" ry="18"/>
<text text-anchor="middle" x="2149" y="-229.32" font-family="Times,serif" font-size="14.00">libva</text>
</a>
</g>
</g>
<!-- xorg&#45;libx11&#45;&gt;libva -->
<g id="edge47" class="edge">
<title>xorg&#45;libx11&#45;&gt;libva</title>
<path fill="none" stroke="black" d="M1902.49,-369.96C1970.58,-361.82 2069.18,-346.57 2100,-324 2120.44,-309.03 2133.36,-282.85 2140.78,-262.74"/>
<polygon fill="black" stroke="black" points="2144.03,-264.05 2143.94,-253.46 2137.4,-261.8 2144.03,-264.05"/>
</g>
<!-- vulkan&#45;loader -->
<g id="node25" class="node">
<title>vulkan&#45;loader</title>
<g id="a_node25"><a xlink:href="https://github.com/conda-forge/vulkan-loader-feedstock" xlink:title="vulkan loader">
<ellipse fill="#fde725" stroke="black" cx="2513" cy="-162" rx="79.09" ry="18"/>
<text text-anchor="middle" x="2513" y="-157.32" font-family="Times,serif" font-size="14.00">vulkan loader</text>
</a>
</g>
</g>
<!-- xorg&#45;libx11&#45;&gt;vulkan&#45;loader -->
<g id="edge50" class="edge">
<title>xorg&#45;libx11&#45;&gt;vulkan&#45;loader</title>
<path fill="none" stroke="black" d="M1908.53,-374.07C2056.73,-367.7 2377.82,-350.95 2420,-324 2468.07,-293.29 2494.09,-228.26 2505.6,-190.92"/>
<polygon fill="black" stroke="black" points="2508.83,-192.33 2508.28,-181.75 2502.11,-190.36 2508.83,-192.33"/>
</g>
<!-- vulkan&#45;tools -->
<g id="node26" class="node">
<title>vulkan&#45;tools</title>
<g id="a_node26"><a xlink:href="https://github.com/conda-forge/vulkan-tools-feedstock" xlink:title="vulkan tools">
<ellipse fill="#fde725" stroke="black" cx="2459" cy="-90" rx="71.73" ry="18"/>
<text text-anchor="middle" x="2459" y="-85.33" font-family="Times,serif" font-size="14.00">vulkan tools</text>
</a>
</g>
</g>
<!-- xorg&#45;libx11&#45;&gt;vulkan&#45;tools -->
<g id="edge51" class="edge">
<title>xorg&#45;libx11&#45;&gt;vulkan&#45;tools</title>
<path fill="none" stroke="black" d="M1909.18,-374.67C2052.14,-369.55 2352.09,-355.18 2387,-324 2447.97,-269.53 2393.97,-219.65 2425,-144 2428.77,-134.8 2434.16,-125.44 2439.54,-117.2"/>
<polygon fill="black" stroke="black" points="2442.36,-119.27 2445.13,-109.04 2436.59,-115.31 2442.36,-119.27"/>
</g>
<!-- nsight&#45;compute -->
<g id="node27" class="node">
<title>nsight&#45;compute</title>
<g id="a_node27"><a xlink:href="https://github.com/conda-forge/nsight-compute-feedstock" xlink:title="nsight compute">
<ellipse fill="#fde725" stroke="black" cx="434" cy="-162" rx="89.09" ry="18"/>
<text text-anchor="middle" x="434" y="-157.32" font-family="Times,serif" font-size="14.00">nsight compute</text>
</a>
</g>
</g>
<!-- xorg&#45;libx11&#45;&gt;nsight&#45;compute -->
<g id="edge52" class="edge">
<title>xorg&#45;libx11&#45;&gt;nsight&#45;compute</title>
<path fill="none" stroke="black" d="M1758.44,-376.07C1486.01,-372.46 567.47,-357.81 515,-324 468.72,-294.18 447.79,-229.29 439.23,-191.63"/>
<polygon fill="black" stroke="black" points="442.67,-190.98 437.18,-181.92 435.82,-192.43 442.67,-190.98"/>
</g>
<!-- libva&#45;&gt;ffmpeg -->
<g id="edge53" class="edge">
<title>libva&#45;&gt;ffmpeg</title>
<path fill="none" stroke="black" d="M2158.72,-216.41C2163.4,-208.42 2169.12,-198.64 2174.39,-189.64"/>
<polygon fill="black" stroke="black" points="2177.27,-191.66 2179.3,-181.26 2171.23,-188.12 2177.27,-191.66"/>
</g>
<!-- vulkan&#45;loader&#45;&gt;vulkan&#45;tools -->
<g id="edge55" class="edge">
<title>vulkan&#45;loader&#45;&gt;vulkan&#45;tools</title>
<path fill="none" stroke="black" d="M2499.93,-144.05C2493.63,-135.89 2485.93,-125.91 2478.92,-116.82"/>
<polygon fill="black" stroke="black" points="2481.76,-114.77 2472.88,-108.99 2476.21,-119.04 2481.76,-114.77"/>
</g>
<!-- xcb&#45;util&#45;keysyms -->
<g id="node28" class="node">
<title>xcb&#45;util&#45;keysyms</title>
<g id="a_node28"><a xlink:href="https://github.com/conda-forge/xcb-util-keysyms-feedstock/pull/5" xlink:title="xcb util keysyms ✓">
<ellipse fill="#31688e" stroke="black" cx="627" cy="-306" rx="102.77" ry="18"/>
<text text-anchor="middle" x="627" y="-301.32" font-family="Times,serif" font-size="14.00" fill="white">xcb util keysyms ✓</text>
</a>
</g>
</g>
<!-- xcb&#45;util&#45;keysyms&#45;&gt;qt&#45;main -->
<g id="edge56" class="edge">
<title>xcb&#45;util&#45;keysyms&#45;&gt;qt&#45;main</title>
<path fill="none" stroke="black" d="M694.19,-292.08C764.05,-278.64 872.05,-257.87 936.71,-245.44"/>
<polygon fill="black" stroke="black" points="937.22,-248.91 946.38,-243.58 935.9,-242.03 937.22,-248.91"/>
</g>
<!-- xcb&#45;util&#45;keysyms&#45;&gt;kwindowsystem -->
<g id="edge57" class="edge">
<title>xcb&#45;util&#45;keysyms&#45;&gt;kwindowsystem</title>
<path fill="none" stroke="black" d="M627.15,-287.94C627.92,-257.86 631.89,-193.88 651,-144 654.53,-134.78 659.88,-125.52 665.34,-117.38"/>
<polygon fill="black" stroke="black" points="668.12,-119.5 671.06,-109.32 662.42,-115.45 668.12,-119.5"/>
</g>
<!-- xcb&#45;util&#45;keysyms&#45;&gt;kglobalaccel -->
<g id="edge58" class="edge">
<title>xcb&#45;util&#45;keysyms&#45;&gt;kglobalaccel</title>
<path fill="none" stroke="black" d="M616.59,-287.76C593.48,-247.06 543.22,-143.09 586,-72 595.61,-56.04 611.82,-44.63 628.42,-36.59"/>
<polygon fill="black" stroke="black" points="629.64,-39.87 637.37,-32.62 626.81,-33.47 629.64,-39.87"/>
</g>
<!-- xcb&#45;util&#45;keysyms&#45;&gt;nsight&#45;compute -->
<g id="edge59" class="edge">
<title>xcb&#45;util&#45;keysyms&#45;&gt;nsight&#45;compute</title>
<path fill="none" stroke="black" d="M595.73,-288.42C578.01,-278.57 555.71,-265.43 537,-252 509.4,-232.2 480.33,-206.58 460.13,-187.91"/>
<polygon fill="black" stroke="black" points="462.59,-185.42 452.89,-181.16 457.81,-190.54 462.59,-185.42"/>
</g>
<!-- xcb&#45;util -->
<g id="node29" class="node">
<title>xcb&#45;util</title>
<g id="a_node29"><a xlink:href="https://github.com/conda-forge/xcb-util-feedstock/pull/3" xlink:title="xcb util ✓">
<ellipse fill="#31688e" stroke="black" cx="148" cy="-378" rx="56.47" ry="18"/>
<text text-anchor="middle" x="148" y="-373.32" font-family="Times,serif" font-size="14.00" fill="white">xcb util ✓</text>
</a>
</g>
</g>
<!-- xcb&#45;util&#45;&gt;qt&#45;main -->
<g id="edge60" class="edge">
<title>xcb&#45;util&#45;&gt;qt&#45;main</title>
<path fill="none" stroke="black" d="M204.39,-375.54C370.29,-370.91 849.03,-354.97 912,-324 939.56,-310.44 961.76,-282.62 975.52,-261.67"/>
<polygon fill="black" stroke="black" points="978.42,-263.63 980.78,-253.31 972.49,-259.91 978.42,-263.63"/>
</g>
<!-- xcb&#45;util&#45;&gt;kwindowsystem -->
<g id="edge61" class="edge">
<title>xcb&#45;util&#45;&gt;kwindowsystem</title>
<path fill="none" stroke="black" d="M108.91,-364.73C89.65,-356.49 68.21,-343.5 57,-324 49.03,-310.13 48.9,-301.8 57,-288 90.24,-231.38 127.71,-246.22 186,-216 251.65,-181.96 265.33,-165.78 336,-144 419.62,-118.23 518.5,-104.73 589.79,-97.83"/>
<polygon fill="black" stroke="black" points="589.85,-101.34 599.48,-96.91 589.19,-94.37 589.85,-101.34"/>
</g>
<!-- xcb&#45;util&#45;image -->
<g id="node30" class="node">
<title>xcb&#45;util&#45;image</title>
<g id="a_node30"><a xlink:href="https://github.com/conda-forge/xcb-util-image-feedstock" xlink:title="xcb util image">
<ellipse fill="#fde725" stroke="black" cx="148" cy="-306" rx="82.25" ry="18"/>
<text text-anchor="middle" x="148" y="-301.32" font-family="Times,serif" font-size="14.00">xcb util image</text>
</a>
</g>
</g>
<!-- xcb&#45;util&#45;&gt;xcb&#45;util&#45;image -->
<g id="edge62" class="edge">
<title>xcb&#45;util&#45;&gt;xcb&#45;util&#45;image</title>
<path fill="none" stroke="black" d="M148,-359.7C148,-352.41 148,-343.73 148,-335.54"/>
<polygon fill="black" stroke="black" points="151.5,-335.62 148,-325.62 144.5,-335.62 151.5,-335.62"/>
</g>
<!-- xcb&#45;util&#45;image&#45;&gt;qt&#45;main -->
<g id="edge63" class="edge">
<title>xcb&#45;util&#45;image&#45;&gt;qt&#45;main</title>
<path fill="none" stroke="black" d="M206.59,-293.04C217.33,-291.13 228.48,-289.35 239,-288 494.55,-255.23 801.74,-241.52 930.05,-236.93"/>
<polygon fill="black" stroke="black" points="930.15,-240.43 940.02,-236.58 929.91,-233.44 930.15,-240.43"/>
</g>
<!-- xcb&#45;util&#45;image&#45;&gt;nsight&#45;compute -->
<g id="edge64" class="edge">
<title>xcb&#45;util&#45;image&#45;&gt;nsight&#45;compute</title>
<path fill="none" stroke="black" d="M158.98,-287.83C172.85,-267.57 198.59,-234.34 229,-216 264.67,-194.49 308.93,-181.63 347.18,-173.99"/>
<polygon fill="black" stroke="black" points="347.66,-177.46 356.83,-172.16 346.36,-170.59 347.66,-177.46"/>
</g>
<!-- xcb&#45;util&#45;cursor -->
<g id="node31" class="node">
<title>xcb&#45;util&#45;cursor</title>
<g id="a_node31"><a xlink:href="https://github.com/conda-forge/xcb-util-cursor-feedstock" xlink:title="xcb util cursor">
<ellipse fill="#fde725" stroke="black" cx="322" cy="-234" rx="83.83" ry="18"/>
<text text-anchor="middle" x="322" y="-229.32" font-family="Times,serif" font-size="14.00">xcb util cursor</text>
</a>
</g>
</g>
<!-- xcb&#45;util&#45;image&#45;&gt;xcb&#45;util&#45;cursor -->
<g id="edge65" class="edge">
<title>xcb&#45;util&#45;image&#45;&gt;xcb&#45;util&#45;cursor</title>
<path fill="none" stroke="black" d="M186.19,-289.64C211.71,-279.37 245.52,-265.77 273.02,-254.7"/>
<polygon fill="black" stroke="black" points="274.23,-257.99 282.2,-251.01 271.62,-251.5 274.23,-257.99"/>
</g>
<!-- xcb&#45;util&#45;cursor&#45;&gt;nsight&#45;compute -->
<g id="edge69" class="edge">
<title>xcb&#45;util&#45;cursor&#45;&gt;nsight&#45;compute</title>
<path fill="none" stroke="black" d="M348.26,-216.59C363.04,-207.35 381.71,-195.68 397.85,-185.59"/>
<polygon fill="black" stroke="black" points="399.61,-188.62 406.23,-180.35 395.9,-182.69 399.61,-188.62"/>
</g>
<!-- xcb&#45;util&#45;wm -->
<g id="node32" class="node">
<title>xcb&#45;util&#45;wm</title>
<g id="a_node32"><a xlink:href="https://github.com/conda-forge/xcb-util-wm-feedstock/pull/3" xlink:title="xcb util wm ✓">
<ellipse fill="#31688e" stroke="black" cx="825" cy="-306" rx="77.52" ry="18"/>
<text text-anchor="middle" x="825" y="-301.32" font-family="Times,serif" font-size="14.00" fill="white">xcb util wm ✓</text>
</a>
</g>
</g>
<!-- xcb&#45;util&#45;wm&#45;&gt;qt&#45;main -->
<g id="edge66" class="edge">
<title>xcb&#45;util&#45;wm&#45;&gt;qt&#45;main</title>
<path fill="none" stroke="black" d="M861.02,-289.81C886.95,-278.88 921.99,-264.1 949.16,-252.64"/>
<polygon fill="black" stroke="black" points="950.28,-255.97 958.13,-248.86 947.56,-249.52 950.28,-255.97"/>
</g>
<!-- xcb&#45;util&#45;wm&#45;&gt;kwindowsystem -->
<g id="edge67" class="edge">
<title>xcb&#45;util&#45;wm&#45;&gt;kwindowsystem</title>
<path fill="none" stroke="black" d="M796.97,-288.93C764.26,-268.41 711.76,-229.54 689,-180 680.36,-161.19 679.94,-137.71 681.5,-119.59"/>
<polygon fill="black" stroke="black" points="684.96,-120.13 682.61,-109.8 678,-119.34 684.96,-120.13"/>
</g>
<!-- xcb&#45;util&#45;wm&#45;&gt;nsight&#45;compute -->
<g id="edge68" class="edge">
<title>xcb&#45;util&#45;wm&#45;&gt;nsight&#45;compute</title>
<path fill="none" stroke="black" d="M776.6,-291.57C741.47,-281.51 692.94,-266.95 651,-252 591.24,-230.7 523.85,-202.36 480.25,-183.44"/>
<polygon fill="black" stroke="black" points="481.65,-180.23 471.08,-179.45 478.85,-186.65 481.65,-180.23"/>
</g>
<!-- xcb&#45;util&#45;renderutil -->
<g id="node33" class="node">
<title>xcb&#45;util&#45;renderutil</title>
<g id="a_node33"><a xlink:href="https://github.com/conda-forge/xcb-util-renderutil-feedstock/pull/6" xlink:title="xcb util renderutil ✓">
<ellipse fill="#31688e" stroke="black" cx="358" cy="-306" rx="110.13" ry="18"/>
<text text-anchor="middle" x="358" y="-301.32" font-family="Times,serif" font-size="14.00" fill="white">xcb util renderutil ✓</text>
</a>
</g>
</g>
<!-- xcb&#45;util&#45;renderutil&#45;&gt;qt&#45;main -->
<g id="edge70" class="edge">
<title>xcb&#45;util&#45;renderutil&#45;&gt;qt&#45;main</title>
<path fill="none" stroke="black" d="M447.35,-295.12C579.01,-280.56 821.5,-253.74 932.62,-241.46"/>
<polygon fill="black" stroke="black" points="932.85,-244.95 942.4,-240.37 932.08,-237.99 932.85,-244.95"/>
</g>
<!-- xcb&#45;util&#45;renderutil&#45;&gt;nsight&#45;compute -->
<g id="edge71" class="edge">
<title>xcb&#45;util&#45;renderutil&#45;&gt;nsight&#45;compute</title>
<path fill="none" stroke="black" d="M382.39,-287.96C393.97,-278.63 407,-266.1 415,-252 425.44,-233.6 430.16,-210.1 432.28,-191.87"/>
<polygon fill="black" stroke="black" points="435.76,-192.28 433.21,-182 428.79,-191.62 435.76,-192.28"/>
</g>
<!-- xcb&#45;util&#45;renderutil&#45;&gt;xcb&#45;util&#45;cursor -->
<g id="edge72" class="edge">
<title>xcb&#45;util&#45;renderutil&#45;&gt;xcb&#45;util&#45;cursor</title>
<path fill="none" stroke="black" d="M349.1,-287.7C345.13,-279.98 340.37,-270.71 335.94,-262.11"/>
<polygon fill="black" stroke="black" points="339.17,-260.74 331.49,-253.45 332.95,-263.94 339.17,-260.74"/>
</g>
</g>
</svg>
