<?xml version="1.0" encoding="UTF-8" standalone="no"?>
<!DOCTYPE svg PUBLIC "-//W3C//DTD SVG 1.1//EN"
 "http://www.w3.org/Graphics/SVG/1.1/DTD/svg11.dtd">
<!-- Generated by graphviz version 11.0.0 (20240519.1550)
 -->
<!-- Pages: 1 -->
<svg width="2318pt" height="404pt"
 viewBox="0.00 0.00 2318.21 404.00" xmlns="http://www.w3.org/2000/svg" xmlns:xlink="http://www.w3.org/1999/xlink">
<g id="graph0" class="graph" transform="scale(1 1) rotate(0) translate(4 400)">
<polygon fill="white" stroke="none" points="-4,4 -4,-400 2314.21,-400 2314.21,4 -4,4"/>
<!-- cairo -->
<g id="node1" class="node">
<title>cairo</title>
<g id="a_node1"><a xlink:href="https://github.com/conda-forge/cairo-feedstock" xlink:title="cairo">
<ellipse fill="#fde725" stroke="black" cx="1063" cy="-306" rx="35.95" ry="18"/>
<text text-anchor="middle" x="1063" y="-301.32" font-family="Times,serif" font-size="14.00">cairo</text>
</a>
</g>
</g>
<!-- ffmpeg -->
<g id="node2" class="node">
<title>ffmpeg</title>
<g id="a_node2"><a xlink:href="https://github.com/conda-forge/ffmpeg-feedstock" xlink:title="ffmpeg">
<ellipse fill="#fde725" stroke="black" cx="150" cy="-162" rx="45.95" ry="18"/>
<text text-anchor="middle" x="150" y="-157.32" font-family="Times,serif" font-size="14.00">ffmpeg</text>
</a>
</g>
</g>
<!-- cairo&#45;&gt;ffmpeg -->
<g id="edge1" class="edge">
<title>cairo&#45;&gt;ffmpeg</title>
<path fill="none" stroke="black" d="M1028.3,-300.84C996.12,-297.08 946.88,-291.61 904,-288 774.66,-277.1 446.07,-286.72 321,-252 293.35,-244.33 226.03,-207 184.58,-183.19"/>
<polygon fill="black" stroke="black" points="186.36,-180.18 175.95,-178.21 182.86,-186.24 186.36,-180.18"/>
</g>
<!-- gnuplot -->
<g id="node3" class="node">
<title>gnuplot</title>
<g id="a_node3"><a xlink:href="https://github.com/conda-forge/gnuplot-feedstock" xlink:title="gnuplot">
<ellipse fill="#fde725" stroke="black" cx="1158" cy="-162" rx="49.63" ry="18"/>
<text text-anchor="middle" x="1158" y="-157.32" font-family="Times,serif" font-size="14.00">gnuplot</text>
</a>
</g>
</g>
<!-- cairo&#45;&gt;gnuplot -->
<g id="edge2" class="edge">
<title>cairo&#45;&gt;gnuplot</title>
<path fill="none" stroke="black" d="M1073.25,-288.43C1084.47,-270.43 1103.11,-240.91 1120,-216 1126.09,-207.01 1132.96,-197.32 1139.15,-188.71"/>
<polygon fill="black" stroke="black" points="1141.87,-190.93 1144.91,-180.78 1136.2,-186.82 1141.87,-190.93"/>
</g>
<!-- lyx -->
<g id="node4" class="node">
<title>lyx</title>
<g id="a_node4"><a xlink:href="https://github.com/conda-forge/lyx-feedstock" xlink:title="lyx">
<ellipse fill="#fde725" stroke="black" cx="1063" cy="-162" rx="27" ry="18"/>
<text text-anchor="middle" x="1063" y="-157.32" font-family="Times,serif" font-size="14.00">lyx</text>
</a>
</g>
</g>
<!-- cairo&#45;&gt;lyx -->
<g id="edge3" class="edge">
<title>cairo&#45;&gt;lyx</title>
<path fill="none" stroke="black" d="M1063,-287.59C1063,-263.61 1063,-220.14 1063,-191.42"/>
<polygon fill="black" stroke="black" points="1066.5,-191.62 1063,-181.62 1059.5,-191.62 1066.5,-191.62"/>
</g>
<!-- qt&#45;main -->
<g id="node5" class="node">
<title>qt&#45;main</title>
<g id="a_node5"><a xlink:href="https://github.com/conda-forge/qt-main-feedstock" xlink:title="qt main">
<ellipse fill="#fde725" stroke="black" cx="1359" cy="-234" rx="49.63" ry="18"/>
<text text-anchor="middle" x="1359" y="-229.32" font-family="Times,serif" font-size="14.00">qt main</text>
</a>
</g>
</g>
<!-- cairo&#45;&gt;qt&#45;main -->
<g id="edge4" class="edge">
<title>cairo&#45;&gt;qt&#45;main</title>
<path fill="none" stroke="black" d="M1095.24,-297.38C1146.3,-285.3 1246.24,-261.67 1307.37,-247.21"/>
<polygon fill="black" stroke="black" points="1307.92,-250.68 1316.84,-244.97 1306.31,-243.87 1307.92,-250.68"/>
</g>
<!-- qt&#45;webengine -->
<g id="node6" class="node">
<title>qt&#45;webengine</title>
<g id="a_node6"><a xlink:href="https://github.com/conda-forge/qt-webengine-feedstock" xlink:title="qt webengine">
<ellipse fill="#fde725" stroke="black" cx="939" cy="-162" rx="79.09" ry="18"/>
<text text-anchor="middle" x="939" y="-157.32" font-family="Times,serif" font-size="14.00">qt webengine</text>
</a>
</g>
</g>
<!-- cairo&#45;&gt;qt&#45;webengine -->
<g id="edge5" class="edge">
<title>cairo&#45;&gt;qt&#45;webengine</title>
<path fill="none" stroke="black" d="M1053.18,-288.32C1041.82,-269.71 1021.98,-239.17 1001,-216 991.66,-205.69 980.36,-195.49 969.98,-186.83"/>
<polygon fill="black" stroke="black" points="972.31,-184.21 962.34,-180.61 967.89,-189.64 972.31,-184.21"/>
</g>
<!-- silicon -->
<g id="node7" class="node">
<title>silicon</title>
<g id="a_node7"><a xlink:href="https://github.com/conda-forge/silicon-feedstock" xlink:title="silicon">
<ellipse fill="#fde725" stroke="black" cx="1172" cy="-234" rx="43.32" ry="18"/>
<text text-anchor="middle" x="1172" y="-229.32" font-family="Times,serif" font-size="14.00">silicon</text>
</a>
</g>
</g>
<!-- cairo&#45;&gt;silicon -->
<g id="edge6" class="edge">
<title>cairo&#45;&gt;silicon</title>
<path fill="none" stroke="black" d="M1084.53,-291.17C1100.34,-281.02 1122.08,-267.06 1139.93,-255.6"/>
<polygon fill="black" stroke="black" points="1141.59,-258.69 1148.11,-250.34 1137.8,-252.8 1141.59,-258.69"/>
</g>
<!-- vtk -->
<g id="node8" class="node">
<title>vtk</title>
<g id="a_node8"><a xlink:href="https://github.com/conda-forge/vtk-feedstock" xlink:title="vtk">
<ellipse fill="#fde725" stroke="black" cx="113" cy="-90" rx="27.01" ry="18"/>
<text text-anchor="middle" x="113" y="-85.33" font-family="Times,serif" font-size="14.00">vtk</text>
</a>
</g>
</g>
<!-- ffmpeg&#45;&gt;vtk -->
<g id="edge7" class="edge">
<title>ffmpeg&#45;&gt;vtk</title>
<path fill="none" stroke="black" d="M141.04,-144.05C136.8,-136.03 131.64,-126.26 126.9,-117.3"/>
<polygon fill="black" stroke="black" points="130.09,-115.85 122.33,-108.65 123.91,-119.12 130.09,-115.85"/>
</g>
<!-- gazebo -->
<g id="node9" class="node">
<title>gazebo</title>
<g id="a_node9"><a xlink:href="https://github.com/conda-forge/gazebo-feedstock" xlink:title="gazebo">
<ellipse fill="#fde725" stroke="black" cx="382" cy="-90" rx="46.47" ry="18"/>
<text text-anchor="middle" x="382" y="-85.33" font-family="Times,serif" font-size="14.00">gazebo</text>
</a>
</g>
</g>
<!-- ffmpeg&#45;&gt;gazebo -->
<g id="edge8" class="edge">
<title>ffmpeg&#45;&gt;gazebo</title>
<path fill="none" stroke="black" d="M185.74,-150.22C225.85,-138.11 291.06,-118.44 335.2,-105.12"/>
<polygon fill="black" stroke="black" points="336.21,-108.47 344.77,-102.23 334.18,-101.77 336.21,-108.47"/>
</g>
<!-- qt&#45;main&#45;&gt;gnuplot -->
<g id="edge9" class="edge">
<title>qt&#45;main&#45;&gt;gnuplot</title>
<path fill="none" stroke="black" d="M1323.99,-220.81C1290.66,-209.2 1240.3,-191.66 1203.8,-178.95"/>
<polygon fill="black" stroke="black" points="1204.97,-175.65 1194.38,-175.67 1202.67,-182.26 1204.97,-175.65"/>
</g>
<!-- qt&#45;main&#45;&gt;lyx -->
<g id="edge10" class="edge">
<title>qt&#45;main&#45;&gt;lyx</title>
<path fill="none" stroke="black" d="M1314.79,-225.31C1251.52,-214.09 1138.45,-193.12 1099,-180 1097.44,-179.48 1095.86,-178.91 1094.28,-178.31"/>
<polygon fill="black" stroke="black" points="1095.94,-175.21 1085.37,-174.53 1093.21,-181.65 1095.94,-175.21"/>
</g>
<!-- qt&#45;main&#45;&gt;qt&#45;webengine -->
<g id="edge11" class="edge">
<title>qt&#45;main&#45;&gt;qt&#45;webengine</title>
<path fill="none" stroke="black" d="M1313.54,-226.22C1249.52,-216.57 1129.17,-198.02 1027,-180 1020.97,-178.94 1014.71,-177.8 1008.43,-176.63"/>
<polygon fill="black" stroke="black" points="1009.14,-173.2 998.66,-174.79 1007.84,-180.08 1009.14,-173.2"/>
</g>
<!-- qt&#45;main&#45;&gt;gazebo -->
<g id="edge12" class="edge">
<title>qt&#45;main&#45;&gt;gazebo</title>
<path fill="none" stroke="black" d="M1325.22,-220.46C1302.7,-211.2 1273.11,-197.23 1250,-180 1232.6,-167.03 1236.58,-153.37 1217,-144 1147.39,-110.71 618.12,-96.17 440.16,-92.19"/>
<polygon fill="black" stroke="black" points="440.3,-88.69 430.22,-91.97 440.14,-95.69 440.3,-88.69"/>
</g>
<!-- colmap -->
<g id="node10" class="node">
<title>colmap</title>
<g id="a_node10"><a xlink:href="https://github.com/conda-forge/colmap-feedstock" xlink:title="colmap">
<ellipse fill="#fde725" stroke="black" cx="531" cy="-162" rx="47" ry="18"/>
<text text-anchor="middle" x="531" y="-157.32" font-family="Times,serif" font-size="14.00">colmap</text>
</a>
</g>
</g>
<!-- qt&#45;main&#45;&gt;colmap -->
<g id="edge13" class="edge">
<title>qt&#45;main&#45;&gt;colmap</title>
<path fill="none" stroke="black" d="M1313.14,-226.66C1287.04,-223.19 1253.73,-219.01 1224,-216 988.73,-192.2 707.55,-173.78 588.63,-166.45"/>
<polygon fill="black" stroke="black" points="589,-162.97 578.81,-165.85 588.57,-169.95 589,-162.97"/>
</g>
<!-- kwindowsystem -->
<g id="node11" class="node">
<title>kwindowsystem</title>
<g id="a_node11"><a xlink:href="https://github.com/conda-forge/kwindowsystem-feedstock" xlink:title="kwindowsystem">
<ellipse fill="#fde725" stroke="black" cx="1159" cy="-90" rx="91.19" ry="18"/>
<text text-anchor="middle" x="1159" y="-85.33" font-family="Times,serif" font-size="14.00">kwindowsystem</text>
</a>
</g>
</g>
<!-- qt&#45;main&#45;&gt;kwindowsystem -->
<g id="edge14" class="edge">
<title>qt&#45;main&#45;&gt;kwindowsystem</title>
<path fill="none" stroke="black" d="M1341.17,-216.97C1320.13,-198.4 1283.73,-167.38 1250,-144 1233.95,-132.87 1215.45,-121.8 1199.33,-112.68"/>
<polygon fill="black" stroke="black" points="1201.41,-109.83 1190.98,-108.01 1198,-115.94 1201.41,-109.83"/>
</g>
<!-- kglobalaccel -->
<g id="node12" class="node">
<title>kglobalaccel</title>
<g id="a_node12"><a xlink:href="https://github.com/conda-forge/kglobalaccel-feedstock" xlink:title="kglobalaccel">
<ellipse fill="#fde725" stroke="black" cx="1032" cy="-18" rx="72.78" ry="18"/>
<text text-anchor="middle" x="1032" y="-13.32" font-family="Times,serif" font-size="14.00">kglobalaccel</text>
</a>
</g>
</g>
<!-- qt&#45;main&#45;&gt;kglobalaccel -->
<g id="edge15" class="edge">
<title>qt&#45;main&#45;&gt;kglobalaccel</title>
<path fill="none" stroke="black" d="M1349.5,-216.12C1327.23,-176.8 1272.54,-81.71 1259,-72 1217.15,-41.98 1160.81,-28.71 1114.74,-22.96"/>
<polygon fill="black" stroke="black" points="1115.4,-19.51 1105.06,-21.85 1114.6,-26.47 1115.4,-19.51"/>
</g>
<!-- qt6&#45;advanced&#45;docking&#45;system -->
<g id="node13" class="node">
<title>qt6&#45;advanced&#45;docking&#45;system</title>
<g id="a_node13"><a xlink:href="https://github.com/conda-forge/qt6-advanced-docking-system-feedstock" xlink:title="qt6 advanced docking system">
<ellipse fill="#fde725" stroke="black" cx="1500" cy="-162" rx="159.59" ry="18"/>
<text text-anchor="middle" x="1500" y="-157.32" font-family="Times,serif" font-size="14.00">qt6 advanced docking system</text>
</a>
</g>
</g>
<!-- qt&#45;main&#45;&gt;qt6&#45;advanced&#45;docking&#45;system -->
<g id="edge16" class="edge">
<title>qt&#45;main&#45;&gt;qt6&#45;advanced&#45;docking&#45;system</title>
<path fill="none" stroke="black" d="M1387.53,-218.83C1407.05,-209.14 1433.32,-196.1 1455.57,-185.06"/>
<polygon fill="black" stroke="black" points="1457.03,-188.24 1464.43,-180.66 1453.92,-181.97 1457.03,-188.24"/>
</g>
<!-- adwaita&#45;qt -->
<g id="node14" class="node">
<title>adwaita&#45;qt</title>
<g id="a_node14"><a xlink:href="https://github.com/conda-forge/adwaita-qt-feedstock" xlink:title="adwaita qt">
<ellipse fill="#fde725" stroke="black" cx="1726" cy="-90" rx="64.36" ry="18"/>
<text text-anchor="middle" x="1726" y="-85.33" font-family="Times,serif" font-size="14.00">adwaita qt</text>
</a>
</g>
</g>
<!-- qt&#45;main&#45;&gt;adwaita&#45;qt -->
<g id="edge17" class="edge">
<title>qt&#45;main&#45;&gt;adwaita&#45;qt</title>
<path fill="none" stroke="black" d="M1407.59,-229.47C1483.76,-223.15 1626.9,-207.9 1669,-180 1691.07,-165.38 1706.37,-138.97 1715.52,-118.7"/>
<polygon fill="black" stroke="black" points="1718.7,-120.15 1719.38,-109.58 1712.26,-117.42 1718.7,-120.15"/>
</g>
<!-- qt&#45;webengine&#45;&gt;kwindowsystem -->
<g id="edge18" class="edge">
<title>qt&#45;webengine&#45;&gt;kwindowsystem</title>
<path fill="none" stroke="black" d="M983.79,-146.75C1017.86,-135.91 1065,-120.91 1101.81,-109.2"/>
<polygon fill="black" stroke="black" points="1102.47,-112.66 1110.94,-106.29 1100.35,-105.99 1102.47,-112.66"/>
</g>
<!-- qt&#45;webengine&#45;&gt;kglobalaccel -->
<g id="edge19" class="edge">
<title>qt&#45;webengine&#45;&gt;kglobalaccel</title>
<path fill="none" stroke="black" d="M950.22,-143.87C966.21,-119.46 995.7,-74.43 1014.56,-45.64"/>
<polygon fill="black" stroke="black" points="1017.36,-47.74 1019.91,-37.46 1011.51,-43.9 1017.36,-47.74"/>
</g>
<!-- kwindowsystem&#45;&gt;kglobalaccel -->
<g id="edge54" class="edge">
<title>kwindowsystem&#45;&gt;kglobalaccel</title>
<path fill="none" stroke="black" d="M1129.22,-72.59C1111.78,-62.97 1089.55,-50.72 1070.75,-40.36"/>
<polygon fill="black" stroke="black" points="1072.49,-37.32 1062.04,-35.56 1069.11,-43.45 1072.49,-37.32"/>
</g>
<!-- gstreamer -->
<g id="node15" class="node">
<title>gstreamer</title>
<g id="a_node15"><a xlink:href="https://github.com/conda-forge/gstreamer-feedstock" xlink:title="gstreamer">
<ellipse fill="#fde725" stroke="black" cx="832" cy="-306" rx="63.31" ry="18"/>
<text text-anchor="middle" x="832" y="-301.32" font-family="Times,serif" font-size="14.00">gstreamer</text>
</a>
</g>
</g>
<!-- gstreamer&#45;&gt;qt&#45;main -->
<g id="edge20" class="edge">
<title>gstreamer&#45;&gt;qt&#45;main</title>
<path fill="none" stroke="black" d="M888.4,-297.51C989.39,-284.09 1200.03,-256.12 1301.68,-242.61"/>
<polygon fill="black" stroke="black" points="1301.99,-246.1 1311.44,-241.32 1301.06,-239.16 1301.99,-246.1"/>
</g>
<!-- gstreamer&#45;&gt;qt&#45;webengine -->
<g id="edge21" class="edge">
<title>gstreamer&#45;&gt;qt&#45;webengine</title>
<path fill="none" stroke="black" d="M874.69,-292.37C894.79,-284.17 917.13,-271.31 930,-252 941.73,-234.4 943.53,-210.34 942.64,-191.68"/>
<polygon fill="black" stroke="black" points="946.14,-191.52 941.87,-181.82 939.16,-192.06 946.14,-191.52"/>
</g>
<!-- gst&#45;plugins&#45;ugly -->
<g id="node16" class="node">
<title>gst&#45;plugins&#45;ugly</title>
<g id="a_node16"><a xlink:href="https://github.com/conda-forge/gst-plugins-ugly-feedstock" xlink:title="gst plugins ugly">
<ellipse fill="#fde725" stroke="black" cx="634" cy="-234" rx="91.72" ry="18"/>
<text text-anchor="middle" x="634" y="-229.32" font-family="Times,serif" font-size="14.00">gst plugins ugly</text>
</a>
</g>
</g>
<!-- gstreamer&#45;&gt;gst&#45;plugins&#45;ugly -->
<g id="edge22" class="edge">
<title>gstreamer&#45;&gt;gst&#45;plugins&#45;ugly</title>
<path fill="none" stroke="black" d="M793.35,-291.34C763.19,-280.67 720.95,-265.74 687.53,-253.92"/>
<polygon fill="black" stroke="black" points="689.04,-250.75 678.44,-250.71 686.71,-257.35 689.04,-250.75"/>
</g>
<!-- gst&#45;plugins&#45;bad -->
<g id="node17" class="node">
<title>gst&#45;plugins&#45;bad</title>
<g id="a_node17"><a xlink:href="https://github.com/conda-forge/gst-plugins-bad-feedstock" xlink:title="gst plugins bad">
<ellipse fill="#fde725" stroke="black" cx="832" cy="-234" rx="88.56" ry="18"/>
<text text-anchor="middle" x="832" y="-229.32" font-family="Times,serif" font-size="14.00">gst plugins bad</text>
</a>
</g>
</g>
<!-- gstreamer&#45;&gt;gst&#45;plugins&#45;bad -->
<g id="edge23" class="edge">
<title>gstreamer&#45;&gt;gst&#45;plugins&#45;bad</title>
<path fill="none" stroke="black" d="M832,-287.7C832,-280.41 832,-271.73 832,-263.54"/>
<polygon fill="black" stroke="black" points="835.5,-263.62 832,-253.62 828.5,-263.62 835.5,-263.62"/>
</g>
<!-- libglu -->
<g id="node18" class="node">
<title>libglu</title>
<g id="a_node18"><a xlink:href="https://github.com/conda-forge/libglu-feedstock" xlink:title="libglu">
<ellipse fill="#fde725" stroke="black" cx="370" cy="-234" rx="39.63" ry="18"/>
<text text-anchor="middle" x="370" y="-229.32" font-family="Times,serif" font-size="14.00">libglu</text>
</a>
</g>
</g>
<!-- libglu&#45;&gt;vtk -->
<g id="edge24" class="edge">
<title>libglu&#45;&gt;vtk</title>
<path fill="none" stroke="black" d="M337.62,-223.14C310.97,-214.18 272.84,-199.42 243,-180 223.5,-167.31 223.65,-157.9 205,-144 185.97,-129.82 162.82,-116.5 144.5,-106.76"/>
<polygon fill="black" stroke="black" points="146.16,-103.68 135.68,-102.16 142.93,-109.89 146.16,-103.68"/>
</g>
<!-- libglu&#45;&gt;gazebo -->
<g id="edge25" class="edge">
<title>libglu&#45;&gt;gazebo</title>
<path fill="none" stroke="black" d="M371.47,-215.59C373.5,-191.61 377.17,-148.14 379.6,-119.42"/>
<polygon fill="black" stroke="black" points="383.07,-119.88 380.43,-109.62 376.1,-119.29 383.07,-119.88"/>
</g>
<!-- libglu&#45;&gt;colmap -->
<g id="edge28" class="edge">
<title>libglu&#45;&gt;colmap</title>
<path fill="none" stroke="black" d="M398.04,-220.81C423.53,-209.73 461.43,-193.25 490.26,-180.71"/>
<polygon fill="black" stroke="black" points="491.65,-183.92 499.43,-176.73 488.86,-177.5 491.65,-183.92"/>
</g>
<!-- freeglut -->
<g id="node19" class="node">
<title>freeglut</title>
<g id="a_node19"><a xlink:href="https://github.com/conda-forge/freeglut-feedstock" xlink:title="freeglut">
<ellipse fill="#fde725" stroke="black" cx="303" cy="-162" rx="51.21" ry="18"/>
<text text-anchor="middle" x="303" y="-157.32" font-family="Times,serif" font-size="14.00">freeglut</text>
</a>
</g>
</g>
<!-- libglu&#45;&gt;freeglut -->
<g id="edge26" class="edge">
<title>libglu&#45;&gt;freeglut</title>
<path fill="none" stroke="black" d="M354.8,-217.12C346.44,-208.38 335.88,-197.35 326.48,-187.54"/>
<polygon fill="black" stroke="black" points="329.1,-185.2 319.65,-180.4 324.04,-190.04 329.1,-185.2"/>
</g>
<!-- fltk -->
<g id="node20" class="node">
<title>fltk</title>
<g id="a_node20"><a xlink:href="https://github.com/conda-forge/fltk-feedstock" xlink:title="fltk">
<ellipse fill="#fde725" stroke="black" cx="438" cy="-162" rx="27.53" ry="18"/>
<text text-anchor="middle" x="438" y="-157.32" font-family="Times,serif" font-size="14.00">fltk</text>
</a>
</g>
</g>
<!-- libglu&#45;&gt;fltk -->
<g id="edge27" class="edge">
<title>libglu&#45;&gt;fltk</title>
<path fill="none" stroke="black" d="M385.43,-217.12C394.49,-207.79 406.09,-195.85 416.09,-185.56"/>
<polygon fill="black" stroke="black" points="418.51,-188.09 422.96,-178.48 413.49,-183.21 418.51,-188.09"/>
</g>
<!-- freeglut&#45;&gt;gazebo -->
<g id="edge29" class="edge">
<title>freeglut&#45;&gt;gazebo</title>
<path fill="none" stroke="black" d="M321.32,-144.76C331.47,-135.78 344.25,-124.45 355.47,-114.51"/>
<polygon fill="black" stroke="black" points="357.75,-117.16 362.92,-107.91 353.11,-111.92 357.75,-117.16"/>
</g>
<!-- mesalib -->
<g id="node21" class="node">
<title>mesalib</title>
<g id="a_node21"><a xlink:href="https://github.com/conda-forge/mesalib-feedstock" xlink:title="mesalib">
<ellipse fill="#fde725" stroke="black" cx="116" cy="-306" rx="50.16" ry="18"/>
<text text-anchor="middle" x="116" y="-301.32" font-family="Times,serif" font-size="14.00">mesalib</text>
</a>
</g>
</g>
<!-- mesalib&#45;&gt;vtk -->
<g id="edge30" class="edge">
<title>mesalib&#45;&gt;vtk</title>
<path fill="none" stroke="black" d="M110.51,-288.02C101.74,-258.6 86.36,-196.29 95,-144 96.4,-135.53 98.98,-126.59 101.75,-118.52"/>
<polygon fill="black" stroke="black" points="105,-119.83 105.18,-109.24 98.43,-117.41 105,-119.83"/>
</g>
<!-- xorg&#45;libx11 -->
<g id="node22" class="node">
<title>xorg&#45;libx11</title>
<g id="a_node22"><a xlink:href="https://github.com/conda-forge/xorg-libx11-feedstock/pull/39" xlink:title="xorg libx11 ✓">
<ellipse fill="#31688e" stroke="black" cx="700" cy="-378" rx="75.94" ry="18"/>
<text text-anchor="middle" x="700" y="-373.32" font-family="Times,serif" font-size="14.00" fill="white">xorg libx11 ✓</text>
</a>
</g>
</g>
<!-- xorg&#45;libx11&#45;&gt;cairo -->
<g id="edge31" class="edge">
<title>xorg&#45;libx11&#45;&gt;cairo</title>
<path fill="none" stroke="black" d="M763.18,-367.63C824.32,-358.16 919.46,-342.32 1001,-324 1007.79,-322.48 1014.95,-320.68 1021.9,-318.85"/>
<polygon fill="black" stroke="black" points="1022.36,-322.35 1031.09,-316.35 1020.52,-315.59 1022.36,-322.35"/>
</g>
<!-- xorg&#45;libx11&#45;&gt;ffmpeg -->
<g id="edge32" class="edge">
<title>xorg&#45;libx11&#45;&gt;ffmpeg</title>
<path fill="none" stroke="black" d="M623.79,-376.72C548.64,-373.97 431.88,-362.96 339,-324 301.44,-308.25 216.34,-228.02 174.36,-187.09"/>
<polygon fill="black" stroke="black" points="177,-184.77 167.4,-180.28 172.1,-189.78 177,-184.77"/>
</g>
<!-- xorg&#45;libx11&#45;&gt;gnuplot -->
<g id="edge33" class="edge">
<title>xorg&#45;libx11&#45;&gt;gnuplot</title>
<path fill="none" stroke="black" d="M774.69,-374.3C888.27,-369.22 1098.38,-355.76 1166,-324 1218.89,-299.16 1269.08,-267.25 1241,-216 1232.44,-200.38 1217.1,-188.7 1201.92,-180.33"/>
<polygon fill="black" stroke="black" points="1203.89,-177.4 1193.39,-175.99 1200.71,-183.64 1203.89,-177.4"/>
</g>
<!-- xorg&#45;libx11&#45;&gt;lyx -->
<g id="edge34" class="edge">
<title>xorg&#45;libx11&#45;&gt;lyx</title>
<path fill="none" stroke="black" d="M775.93,-376.67C859.58,-374.14 996.98,-363.56 1108,-324 1165.16,-303.63 1194.5,-305.03 1224,-252 1231.78,-238.02 1233.62,-228.78 1224,-216 1189.23,-169.81 1153.09,-200.41 1099,-180 1097.46,-179.42 1095.9,-178.8 1094.34,-178.16"/>
<polygon fill="black" stroke="black" points="1096.02,-175.08 1085.46,-174.25 1093.21,-181.48 1096.02,-175.08"/>
</g>
<!-- xorg&#45;libx11&#45;&gt;qt&#45;main -->
<g id="edge35" class="edge">
<title>xorg&#45;libx11&#45;&gt;qt&#45;main</title>
<path fill="none" stroke="black" d="M776.2,-377.96C916.31,-378.48 1208.39,-373.37 1295,-324 1319.22,-310.2 1336.67,-283.05 1347.18,-262.35"/>
<polygon fill="black" stroke="black" points="1350.21,-264.12 1351.38,-253.59 1343.9,-261.09 1350.21,-264.12"/>
</g>
<!-- xorg&#45;libx11&#45;&gt;qt&#45;webengine -->
<g id="edge36" class="edge">
<title>xorg&#45;libx11&#45;&gt;qt&#45;webengine</title>
<path fill="none" stroke="black" d="M771.16,-371.51C813.11,-365.29 865.36,-352.07 904,-324 934.72,-301.68 939.35,-288.45 950,-252 955.77,-232.24 952.65,-209.14 948.27,-191.43"/>
<polygon fill="black" stroke="black" points="951.66,-190.56 945.62,-181.85 944.92,-192.42 951.66,-190.56"/>
</g>
<!-- xorg&#45;libx11&#45;&gt;vtk -->
<g id="edge37" class="edge">
<title>xorg&#45;libx11&#45;&gt;vtk</title>
<path fill="none" stroke="black" d="M623.87,-376.38C461.89,-374.27 94.73,-364.96 57,-324 2.53,-264.86 62.21,-162.23 94.74,-115.47"/>
<polygon fill="black" stroke="black" points="97.39,-117.79 100.34,-107.61 91.69,-113.73 97.39,-117.79"/>
</g>
<!-- xorg&#45;libx11&#45;&gt;gazebo -->
<g id="edge38" class="edge">
<title>xorg&#45;libx11&#45;&gt;gazebo</title>
<path fill="none" stroke="black" d="M663.3,-361.79C622.89,-342.8 560.07,-306.08 533,-252 525.84,-237.69 525.45,-230.11 533,-216 546.61,-190.57 573.39,-205.43 587,-180 594.55,-165.89 596.8,-156.65 587,-144 568.77,-120.46 491.54,-105.49 437.27,-97.67"/>
<polygon fill="black" stroke="black" points="437.95,-94.23 427.56,-96.32 436.99,-101.16 437.95,-94.23"/>
</g>
<!-- xorg&#45;libx11&#45;&gt;colmap -->
<g id="edge45" class="edge">
<title>xorg&#45;libx11&#45;&gt;colmap</title>
<path fill="none" stroke="black" d="M634.75,-368.37C582.93,-360.02 516.51,-345.46 500,-324 470.73,-285.96 487.45,-262.33 500,-216 502.51,-206.74 507.09,-197.44 511.97,-189.27"/>
<polygon fill="black" stroke="black" points="514.89,-191.2 517.36,-180.9 509,-187.41 514.89,-191.2"/>
</g>
<!-- xorg&#45;libx11&#45;&gt;kwindowsystem -->
<g id="edge48" class="edge">
<title>xorg&#45;libx11&#45;&gt;kwindowsystem</title>
<path fill="none" stroke="black" d="M774.01,-373.64C916.34,-366.69 1223.19,-349.26 1326,-324 1486.56,-284.54 1577.47,-317.69 1669,-180 1677.86,-166.68 1679.71,-155.88 1669,-144 1642.16,-114.23 1400.61,-100.11 1259.78,-94.36"/>
<polygon fill="black" stroke="black" points="1260.21,-90.88 1250.08,-93.97 1259.93,-97.87 1260.21,-90.88"/>
</g>
<!-- xorg&#45;libx11&#45;&gt;kglobalaccel -->
<g id="edge49" class="edge">
<title>xorg&#45;libx11&#45;&gt;kglobalaccel</title>
<path fill="none" stroke="black" d="M624.52,-375.44C460.29,-371.4 81.47,-358.44 35,-324 0.85,-298.69 0,-277.5 0,-235 0,-235 0,-235 0,-161 0,-108.7 30.05,-95.06 77,-72 154.01,-34.18 729.13,-22.88 947.89,-19.93"/>
<polygon fill="black" stroke="black" points="947.81,-23.43 957.77,-19.8 947.72,-16.43 947.81,-23.43"/>
</g>
<!-- xorg&#45;libx11&#45;&gt;gstreamer -->
<g id="edge39" class="edge">
<title>xorg&#45;libx11&#45;&gt;gstreamer</title>
<path fill="none" stroke="black" d="M729.95,-361.12C748.61,-351.22 772.81,-338.39 792.96,-327.71"/>
<polygon fill="black" stroke="black" points="794.54,-330.83 801.74,-323.05 791.26,-324.64 794.54,-330.83"/>
</g>
<!-- xorg&#45;libx11&#45;&gt;gst&#45;plugins&#45;ugly -->
<g id="edge40" class="edge">
<title>xorg&#45;libx11&#45;&gt;gst&#45;plugins&#45;ugly</title>
<path fill="none" stroke="black" d="M692.04,-359.87C680.79,-335.67 660.13,-291.21 646.73,-262.39"/>
<polygon fill="black" stroke="black" points="650.02,-261.15 642.63,-253.56 643.67,-264.11 650.02,-261.15"/>
</g>
<!-- xorg&#45;libx11&#45;&gt;gst&#45;plugins&#45;bad -->
<g id="edge41" class="edge">
<title>xorg&#45;libx11&#45;&gt;gst&#45;plugins&#45;bad</title>
<path fill="none" stroke="black" d="M709.29,-359.67C719.94,-340.75 738.71,-310.19 760,-288 770.6,-276.95 783.72,-266.55 795.84,-257.94"/>
<polygon fill="black" stroke="black" points="797.79,-260.85 804.04,-252.29 793.82,-255.08 797.79,-260.85"/>
</g>
<!-- xorg&#45;libx11&#45;&gt;libglu -->
<g id="edge42" class="edge">
<title>xorg&#45;libx11&#45;&gt;libglu</title>
<path fill="none" stroke="black" d="M631.09,-370.2C560.56,-362.12 456.8,-346.81 424,-324 402.59,-309.11 388.16,-282.74 379.64,-262.55"/>
<polygon fill="black" stroke="black" points="383,-261.51 376.07,-253.49 376.49,-264.08 383,-261.51"/>
</g>
<!-- xorg&#45;libx11&#45;&gt;freeglut -->
<g id="edge43" class="edge">
<title>xorg&#45;libx11&#45;&gt;freeglut</title>
<path fill="none" stroke="black" d="M630.8,-370.36C552.27,-361.94 429.81,-345.84 389,-324 350.19,-303.23 341.26,-291.08 321,-252 311.29,-233.26 306.81,-209.78 304.75,-191.64"/>
<polygon fill="black" stroke="black" points="308.25,-191.47 303.83,-181.84 301.28,-192.12 308.25,-191.47"/>
</g>
<!-- xorg&#45;libx11&#45;&gt;fltk -->
<g id="edge44" class="edge">
<title>xorg&#45;libx11&#45;&gt;fltk</title>
<path fill="none" stroke="black" d="M634.49,-368.61C578.15,-360.1 502.65,-345.15 481,-324 445.11,-288.95 438.11,-227.51 437.33,-191.52"/>
<polygon fill="black" stroke="black" points="440.83,-191.86 437.28,-181.88 433.83,-191.9 440.83,-191.86"/>
</g>
<!-- xorg&#45;libx11&#45;&gt;mesalib -->
<g id="edge46" class="edge">
<title>xorg&#45;libx11&#45;&gt;mesalib</title>
<path fill="none" stroke="black" d="M626.29,-373.16C525.04,-367.06 337.56,-352.77 180,-324 175.1,-323.1 170.02,-322.02 164.96,-320.85"/>
<polygon fill="black" stroke="black" points="166.04,-317.51 155.49,-318.52 164.36,-324.31 166.04,-317.51"/>
</g>
<!-- libva -->
<g id="node23" class="node">
<title>libva</title>
<g id="a_node23"><a xlink:href="https://github.com/conda-forge/libva-feedstock" xlink:title="libva">
<ellipse fill="#fde725" stroke="black" cx="156" cy="-234" rx="35.42" ry="18"/>
<text text-anchor="middle" x="156" y="-229.32" font-family="Times,serif" font-size="14.00">libva</text>
</a>
</g>
</g>
<!-- xorg&#45;libx11&#45;&gt;libva -->
<g id="edge47" class="edge">
<title>xorg&#45;libx11&#45;&gt;libva</title>
<path fill="none" stroke="black" d="M624.31,-376.2C506.25,-373.71 284.86,-363.71 218,-324 194.39,-309.98 177.57,-283.06 167.45,-262.48"/>
<polygon fill="black" stroke="black" points="170.67,-261.09 163.29,-253.49 164.31,-264.03 170.67,-261.09"/>
</g>
<!-- vulkan&#45;loader -->
<g id="node24" class="node">
<title>vulkan&#45;loader</title>
<g id="a_node24"><a xlink:href="https://github.com/conda-forge/vulkan-loader-feedstock" xlink:title="vulkan loader">
<ellipse fill="#fde725" stroke="black" cx="1833" cy="-162" rx="79.09" ry="18"/>
<text text-anchor="middle" x="1833" y="-157.32" font-family="Times,serif" font-size="14.00">vulkan loader</text>
</a>
</g>
</g>
<!-- xorg&#45;libx11&#45;&gt;vulkan&#45;loader -->
<g id="edge50" class="edge">
<title>xorg&#45;libx11&#45;&gt;vulkan&#45;loader</title>
<path fill="none" stroke="black" d="M775.96,-376.51C995.48,-374.6 1620.28,-365.54 1702,-324 1759.4,-294.82 1800.5,-227.93 1820.08,-190.19"/>
<polygon fill="black" stroke="black" points="1822.97,-192.23 1824.35,-181.73 1816.72,-189.08 1822.97,-192.23"/>
</g>
<!-- vulkan&#45;tools -->
<g id="node25" class="node">
<title>vulkan&#45;tools</title>
<g id="a_node25"><a xlink:href="https://github.com/conda-forge/vulkan-tools-feedstock" xlink:title="vulkan tools">
<ellipse fill="#fde725" stroke="black" cx="1910" cy="-90" rx="71.73" ry="18"/>
<text text-anchor="middle" x="1910" y="-85.33" font-family="Times,serif" font-size="14.00">vulkan tools</text>
</a>
</g>
</g>
<!-- xorg&#45;libx11&#45;&gt;vulkan&#45;tools -->
<g id="edge51" class="edge">
<title>xorg&#45;libx11&#45;&gt;vulkan&#45;tools</title>
<path fill="none" stroke="black" d="M775.64,-375.81C999.82,-371.91 1650.64,-357.79 1740,-324 1836.15,-287.64 1876.34,-272.59 1921,-180 1930.14,-161.04 1926.56,-137.29 1921.15,-119.1"/>
<polygon fill="black" stroke="black" points="1924.51,-118.12 1918.02,-109.75 1917.87,-120.34 1924.51,-118.12"/>
</g>
<!-- nsight&#45;compute -->
<g id="node26" class="node">
<title>nsight&#45;compute</title>
<g id="a_node26"><a xlink:href="https://github.com/conda-forge/nsight-compute-feedstock" xlink:title="nsight compute">
<ellipse fill="#fde725" stroke="black" cx="2120" cy="-162" rx="89.09" ry="18"/>
<text text-anchor="middle" x="2120" y="-157.32" font-family="Times,serif" font-size="14.00">nsight compute</text>
</a>
</g>
</g>
<!-- xorg&#45;libx11&#45;&gt;nsight&#45;compute -->
<g id="edge52" class="edge">
<title>xorg&#45;libx11&#45;&gt;nsight&#45;compute</title>
<path fill="none" stroke="black" d="M776.24,-377.38C1086.8,-378.55 2242.63,-379.17 2296,-324 2347.97,-270.28 2239.18,-212.28 2170.47,-182.74"/>
<polygon fill="black" stroke="black" points="2172.21,-179.67 2161.63,-179.01 2169.48,-186.12 2172.21,-179.67"/>
</g>
<!-- libva&#45;&gt;ffmpeg -->
<g id="edge53" class="edge">
<title>libva&#45;&gt;ffmpeg</title>
<path fill="none" stroke="black" d="M154.52,-215.7C153.89,-208.41 153.15,-199.73 152.45,-191.54"/>
<polygon fill="black" stroke="black" points="155.94,-191.28 151.6,-181.61 148.96,-191.87 155.94,-191.28"/>
</g>
<!-- vulkan&#45;loader&#45;&gt;vulkan&#45;tools -->
<g id="edge55" class="edge">
<title>vulkan&#45;loader&#45;&gt;vulkan&#45;tools</title>
<path fill="none" stroke="black" d="M1851.64,-144.05C1861.1,-135.46 1872.76,-124.86 1883.16,-115.4"/>
<polygon fill="black" stroke="black" points="1885.37,-118.12 1890.41,-108.81 1880.66,-112.94 1885.37,-118.12"/>
</g>
<!-- xcb&#45;util&#45;image -->
<g id="node27" class="node">
<title>xcb&#45;util&#45;image</title>
<g id="a_node27"><a xlink:href="https://github.com/conda-forge/xcb-util-image-feedstock" xlink:title="xcb util image">
<ellipse fill="#35b779" stroke="black" cx="1952" cy="-306" rx="82.25" ry="18"/>
<text text-anchor="middle" x="1952" y="-301.32" font-family="Times,serif" font-size="14.00">xcb util image</text>
</a>
</g>
</g>
<!-- xcb&#45;util&#45;image&#45;&gt;qt&#45;main -->
<g id="edge56" class="edge">
<title>xcb&#45;util&#45;image&#45;&gt;qt&#45;main</title>
<path fill="none" stroke="black" d="M1880.77,-296.59C1762.15,-282.59 1526.41,-254.76 1417.13,-241.86"/>
<polygon fill="black" stroke="black" points="1417.54,-238.39 1407.2,-240.69 1416.72,-245.34 1417.54,-238.39"/>
</g>
<!-- xcb&#45;util&#45;image&#45;&gt;nsight&#45;compute -->
<g id="edge57" class="edge">
<title>xcb&#45;util&#45;image&#45;&gt;nsight&#45;compute</title>
<path fill="none" stroke="black" d="M1950.99,-287.76C1950.79,-268.05 1953.5,-235.96 1971,-216 1988.18,-196.4 2013.12,-184.04 2037.69,-176.26"/>
<polygon fill="black" stroke="black" points="2038.47,-179.68 2047.09,-173.52 2036.51,-172.96 2038.47,-179.68"/>
</g>
<!-- xcb&#45;util&#45;cursor -->
<g id="node28" class="node">
<title>xcb&#45;util&#45;cursor</title>
<g id="a_node28"><a xlink:href="https://github.com/conda-forge/xcb-util-cursor-feedstock" xlink:title="xcb util cursor">
<ellipse fill="#fde725" stroke="black" cx="2064" cy="-234" rx="83.83" ry="18"/>
<text text-anchor="middle" x="2064" y="-229.32" font-family="Times,serif" font-size="14.00">xcb util cursor</text>
</a>
</g>
</g>
<!-- xcb&#45;util&#45;image&#45;&gt;xcb&#45;util&#45;cursor -->
<g id="edge58" class="edge">
<title>xcb&#45;util&#45;image&#45;&gt;xcb&#45;util&#45;cursor</title>
<path fill="none" stroke="black" d="M1978.26,-288.59C1993.04,-279.35 2011.71,-267.68 2027.85,-257.59"/>
<polygon fill="black" stroke="black" points="2029.61,-260.62 2036.23,-252.35 2025.9,-254.69 2029.61,-260.62"/>
</g>
<!-- xcb&#45;util&#45;cursor&#45;&gt;nsight&#45;compute -->
<g id="edge59" class="edge">
<title>xcb&#45;util&#45;cursor&#45;&gt;nsight&#45;compute</title>
<path fill="none" stroke="black" d="M2077.56,-216.05C2083.99,-208.01 2091.84,-198.2 2099.02,-189.23"/>
<polygon fill="black" stroke="black" points="2101.72,-191.45 2105.23,-181.46 2096.25,-187.08 2101.72,-191.45"/>
</g>
<!-- xcb&#45;util&#45;renderutil -->
<g id="node29" class="node">
<title>xcb&#45;util&#45;renderutil</title>
<g id="a_node29"><a xlink:href="https://github.com/conda-forge/xcb-util-renderutil-feedstock/pull/6" xlink:title="xcb util renderutil ❎">
<ellipse fill="#31688e" stroke="black" cx="2170" cy="-306" rx="117.5" ry="18"/>
<text text-anchor="middle" x="2170" y="-301.32" font-family="Times,serif" font-size="14.00" fill="white">xcb util renderutil ❎</text>
</a>
</g>
</g>
<!-- xcb&#45;util&#45;renderutil&#45;&gt;qt&#45;main -->
<g id="edge60" class="edge">
<title>xcb&#45;util&#45;renderutil&#45;&gt;qt&#45;main</title>
<path fill="none" stroke="black" d="M2086.05,-293.09C2071.71,-291.25 2056.94,-289.47 2043,-288 1813.17,-263.73 1538.78,-245.8 1419.42,-238.55"/>
<polygon fill="black" stroke="black" points="1419.72,-235.06 1409.53,-237.95 1419.3,-242.05 1419.72,-235.06"/>
</g>
<!-- xcb&#45;util&#45;renderutil&#45;&gt;nsight&#45;compute -->
<g id="edge61" class="edge">
<title>xcb&#45;util&#45;renderutil&#45;&gt;nsight&#45;compute</title>
<path fill="none" stroke="black" d="M2169.81,-287.67C2169.08,-269.27 2166.38,-239.66 2157,-216 2153.26,-206.55 2147.53,-197.16 2141.69,-188.96"/>
<polygon fill="black" stroke="black" points="2144.63,-187.04 2135.82,-181.16 2139.04,-191.25 2144.63,-187.04"/>
</g>
<!-- xcb&#45;util&#45;renderutil&#45;&gt;xcb&#45;util&#45;cursor -->
<g id="edge62" class="edge">
<title>xcb&#45;util&#45;renderutil&#45;&gt;xcb&#45;util&#45;cursor</title>
<path fill="none" stroke="black" d="M2144.34,-288.05C2130.57,-278.96 2113.41,-267.63 2098.48,-257.77"/>
<polygon fill="black" stroke="black" points="2100.59,-254.97 2090.32,-252.38 2096.74,-260.81 2100.59,-254.97"/>
</g>
</g>
</svg>
