<?xml version="1.0" encoding="UTF-8" standalone="no"?>
<!DOCTYPE svg PUBLIC "-//W3C//DTD SVG 1.1//EN"
 "http://www.w3.org/Graphics/SVG/1.1/DTD/svg11.dtd">
<!-- Generated by graphviz version 11.0.0 (20240519.1550)
 -->
<!-- Pages: 1 -->
<svg width="2535pt" height="404pt"
 viewBox="0.00 0.00 2534.68 404.00" xmlns="http://www.w3.org/2000/svg" xmlns:xlink="http://www.w3.org/1999/xlink">
<g id="graph0" class="graph" transform="scale(1 1) rotate(0) translate(4 400)">
<polygon fill="white" stroke="none" points="-4,4 -4,-400 2530.68,-400 2530.68,4 -4,4"/>
<!-- cairo -->
<g id="node1" class="node">
<title>cairo</title>
<g id="a_node1"><a xlink:href="https://github.com/conda-forge/cairo-feedstock" xlink:title="cairo">
<ellipse fill="#fde725" stroke="black" cx="1294.18" cy="-306" rx="35.95" ry="18"/>
<text text-anchor="middle" x="1294.18" y="-301.32" font-family="Times,serif" font-size="14.00">cairo</text>
</a>
</g>
</g>
<!-- ffmpeg -->
<g id="node2" class="node">
<title>ffmpeg</title>
<g id="a_node2"><a xlink:href="https://github.com/conda-forge/ffmpeg-feedstock" xlink:title="ffmpeg">
<ellipse fill="#fde725" stroke="black" cx="453.18" cy="-162" rx="45.95" ry="18"/>
<text text-anchor="middle" x="453.18" y="-157.32" font-family="Times,serif" font-size="14.00">ffmpeg</text>
</a>
</g>
</g>
<!-- cairo&#45;&gt;ffmpeg -->
<g id="edge1" class="edge">
<title>cairo&#45;&gt;ffmpeg</title>
<path fill="none" stroke="black" d="M1285.86,-288.33C1273.82,-264.96 1251.43,-224.35 1237.18,-216 1178.12,-181.41 690.42,-185.43 622.18,-180 584.06,-176.97 541.18,-172.64 508.16,-169.12"/>
<polygon fill="black" stroke="black" points="508.73,-165.66 498.41,-168.07 507.98,-172.62 508.73,-165.66"/>
</g>
<!-- gnuplot -->
<g id="node3" class="node">
<title>gnuplot</title>
<g id="a_node3"><a xlink:href="https://github.com/conda-forge/gnuplot-feedstock" xlink:title="gnuplot">
<ellipse fill="#fde725" stroke="black" cx="1296.18" cy="-162" rx="49.63" ry="18"/>
<text text-anchor="middle" x="1296.18" y="-157.32" font-family="Times,serif" font-size="14.00">gnuplot</text>
</a>
</g>
</g>
<!-- cairo&#45;&gt;gnuplot -->
<g id="edge2" class="edge">
<title>cairo&#45;&gt;gnuplot</title>
<path fill="none" stroke="black" d="M1299.86,-288.04C1303.01,-277.74 1306.59,-264.27 1308.18,-252 1310.24,-236.13 1309.96,-231.9 1308.18,-216 1307.27,-207.81 1305.58,-199.04 1303.75,-191.04"/>
<polygon fill="black" stroke="black" points="1307.19,-190.37 1301.41,-181.49 1300.4,-192.04 1307.19,-190.37"/>
</g>
<!-- lyx -->
<g id="node4" class="node">
<title>lyx</title>
<g id="a_node4"><a xlink:href="https://github.com/conda-forge/lyx-feedstock" xlink:title="lyx">
<ellipse fill="#fde725" stroke="black" cx="1391.18" cy="-162" rx="27" ry="18"/>
<text text-anchor="middle" x="1391.18" y="-157.32" font-family="Times,serif" font-size="14.00">lyx</text>
</a>
</g>
</g>
<!-- cairo&#45;&gt;lyx -->
<g id="edge3" class="edge">
<title>cairo&#45;&gt;lyx</title>
<path fill="none" stroke="black" d="M1305.5,-288.43C1322.4,-263.7 1354.35,-216.92 1374.1,-188.01"/>
<polygon fill="black" stroke="black" points="1376.93,-190.08 1379.68,-179.85 1371.15,-186.13 1376.93,-190.08"/>
</g>
<!-- qt&#45;main -->
<g id="node5" class="node">
<title>qt&#45;main</title>
<g id="a_node5"><a xlink:href="https://github.com/conda-forge/qt-main-feedstock" xlink:title="qt main">
<ellipse fill="#fde725" stroke="black" cx="1562.18" cy="-234" rx="49.63" ry="18"/>
<text text-anchor="middle" x="1562.18" y="-229.32" font-family="Times,serif" font-size="14.00">qt main</text>
</a>
</g>
</g>
<!-- cairo&#45;&gt;qt&#45;main -->
<g id="edge4" class="edge">
<title>cairo&#45;&gt;qt&#45;main</title>
<path fill="none" stroke="black" d="M1325.72,-296.76C1371.67,-284.76 1457.51,-262.34 1512.15,-248.07"/>
<polygon fill="black" stroke="black" points="1512.72,-251.54 1521.51,-245.62 1510.95,-244.77 1512.72,-251.54"/>
</g>
<!-- qt&#45;webengine -->
<g id="node6" class="node">
<title>qt&#45;webengine</title>
<g id="a_node6"><a xlink:href="https://github.com/conda-forge/qt-webengine-feedstock" xlink:title="qt webengine">
<ellipse fill="#fde725" stroke="black" cx="1149.18" cy="-162" rx="79.09" ry="18"/>
<text text-anchor="middle" x="1149.18" y="-157.32" font-family="Times,serif" font-size="14.00">qt webengine</text>
</a>
</g>
</g>
<!-- cairo&#45;&gt;qt&#45;webengine -->
<g id="edge5" class="edge">
<title>cairo&#45;&gt;qt&#45;webengine</title>
<path fill="none" stroke="black" d="M1293.82,-287.55C1292.52,-267.96 1287.62,-236.26 1270.18,-216 1255.6,-199.05 1234.57,-187.33 1214.12,-179.3"/>
<polygon fill="black" stroke="black" points="1215.54,-176.09 1204.94,-175.95 1213.14,-182.67 1215.54,-176.09"/>
</g>
<!-- silicon -->
<g id="node7" class="node">
<title>silicon</title>
<g id="a_node7"><a xlink:href="https://github.com/conda-forge/silicon-feedstock" xlink:title="silicon">
<ellipse fill="#fde725" stroke="black" cx="1185.18" cy="-234" rx="43.32" ry="18"/>
<text text-anchor="middle" x="1185.18" y="-229.32" font-family="Times,serif" font-size="14.00">silicon</text>
</a>
</g>
</g>
<!-- cairo&#45;&gt;silicon -->
<g id="edge6" class="edge">
<title>cairo&#45;&gt;silicon</title>
<path fill="none" stroke="black" d="M1272.65,-291.17C1256.84,-281.02 1235.1,-267.06 1217.25,-255.6"/>
<polygon fill="black" stroke="black" points="1219.38,-252.8 1209.07,-250.34 1215.6,-258.69 1219.38,-252.8"/>
</g>
<!-- vtk -->
<g id="node8" class="node">
<title>vtk</title>
<g id="a_node8"><a xlink:href="https://github.com/conda-forge/vtk-feedstock" xlink:title="vtk">
<ellipse fill="#fde725" stroke="black" cx="490.18" cy="-90" rx="27.01" ry="18"/>
<text text-anchor="middle" x="490.18" y="-85.33" font-family="Times,serif" font-size="14.00">vtk</text>
</a>
</g>
</g>
<!-- ffmpeg&#45;&gt;vtk -->
<g id="edge7" class="edge">
<title>ffmpeg&#45;&gt;vtk</title>
<path fill="none" stroke="black" d="M462.14,-144.05C466.38,-136.03 471.55,-126.26 476.28,-117.3"/>
<polygon fill="black" stroke="black" points="479.28,-119.12 480.86,-108.65 473.09,-115.85 479.28,-119.12"/>
</g>
<!-- gazebo -->
<g id="node9" class="node">
<title>gazebo</title>
<g id="a_node9"><a xlink:href="https://github.com/conda-forge/gazebo-feedstock" xlink:title="gazebo">
<ellipse fill="#fde725" stroke="black" cx="155.18" cy="-90" rx="46.47" ry="18"/>
<text text-anchor="middle" x="155.18" y="-85.33" font-family="Times,serif" font-size="14.00">gazebo</text>
</a>
</g>
</g>
<!-- ffmpeg&#45;&gt;gazebo -->
<g id="edge8" class="edge">
<title>ffmpeg&#45;&gt;gazebo</title>
<path fill="none" stroke="black" d="M418.4,-149.76C411.72,-147.74 404.76,-145.73 398.18,-144 332.91,-126.83 256.74,-110.86 207.33,-101.04"/>
<polygon fill="black" stroke="black" points="208.26,-97.65 197.77,-99.15 206.9,-104.52 208.26,-97.65"/>
</g>
<!-- qt&#45;main&#45;&gt;gnuplot -->
<g id="edge9" class="edge">
<title>qt&#45;main&#45;&gt;gnuplot</title>
<path fill="none" stroke="black" d="M1522.02,-223.09C1480.25,-212.7 1412.99,-195.73 1355.18,-180 1351.85,-179.09 1348.41,-178.14 1344.94,-177.17"/>
<polygon fill="black" stroke="black" points="1345.94,-173.82 1335.36,-174.46 1344.03,-180.55 1345.94,-173.82"/>
</g>
<!-- qt&#45;main&#45;&gt;lyx -->
<g id="edge10" class="edge">
<title>qt&#45;main&#45;&gt;lyx</title>
<path fill="none" stroke="black" d="M1529.84,-219.88C1503.52,-209.18 1465.43,-193.67 1432.18,-180 1429.57,-178.92 1426.85,-177.81 1424.13,-176.68"/>
<polygon fill="black" stroke="black" points="1425.71,-173.55 1415.13,-172.96 1423.03,-180.01 1425.71,-173.55"/>
</g>
<!-- qt&#45;main&#45;&gt;qt&#45;webengine -->
<g id="edge11" class="edge">
<title>qt&#45;main&#45;&gt;qt&#45;webengine</title>
<path fill="none" stroke="black" d="M1517.16,-226.08C1454.36,-216.34 1336.95,-197.77 1237.18,-180 1231.15,-178.93 1224.89,-177.78 1218.62,-176.61"/>
<polygon fill="black" stroke="black" points="1219.33,-173.18 1208.85,-174.77 1218.03,-180.06 1219.33,-173.18"/>
</g>
<!-- qt&#45;main&#45;&gt;gazebo -->
<g id="edge12" class="edge">
<title>qt&#45;main&#45;&gt;gazebo</title>
<path fill="none" stroke="black" d="M1544.66,-216.77C1520.4,-195.48 1474.24,-159.07 1427.18,-144 1324.15,-111.01 562.25,-113.07 454.18,-108 369.9,-104.04 272.31,-98.27 212.16,-94.58"/>
<polygon fill="black" stroke="black" points="212.72,-91.1 202.52,-93.98 212.29,-98.09 212.72,-91.1"/>
</g>
<!-- colmap -->
<g id="node10" class="node">
<title>colmap</title>
<g id="a_node10"><a xlink:href="https://github.com/conda-forge/colmap-feedstock" xlink:title="colmap">
<ellipse fill="#fde725" stroke="black" cx="342.18" cy="-162" rx="47" ry="18"/>
<text text-anchor="middle" x="342.18" y="-157.32" font-family="Times,serif" font-size="14.00">colmap</text>
</a>
</g>
</g>
<!-- qt&#45;main&#45;&gt;colmap -->
<g id="edge13" class="edge">
<title>qt&#45;main&#45;&gt;colmap</title>
<path fill="none" stroke="black" d="M1513.19,-230.29C1449.58,-226.81 1335.1,-220.66 1237.18,-216 864.37,-198.25 766.11,-242.71 398.18,-180 394.58,-179.39 390.88,-178.61 387.18,-177.72"/>
<polygon fill="black" stroke="black" points="388.24,-174.38 377.67,-175.21 386.44,-181.15 388.24,-174.38"/>
</g>
<!-- kwindowsystem -->
<g id="node11" class="node">
<title>kwindowsystem</title>
<g id="a_node11"><a xlink:href="https://github.com/conda-forge/kwindowsystem-feedstock" xlink:title="kwindowsystem">
<ellipse fill="#fde725" stroke="black" cx="2093.18" cy="-90" rx="91.19" ry="18"/>
<text text-anchor="middle" x="2093.18" y="-85.33" font-family="Times,serif" font-size="14.00">kwindowsystem</text>
</a>
</g>
</g>
<!-- qt&#45;main&#45;&gt;kwindowsystem -->
<g id="edge14" class="edge">
<title>qt&#45;main&#45;&gt;kwindowsystem</title>
<path fill="none" stroke="black" d="M1559.98,-215.74C1558.45,-195.39 1559.48,-162.08 1579.18,-144 1609.01,-116.63 1852.27,-101.51 1993.19,-94.97"/>
<polygon fill="black" stroke="black" points="1993.06,-98.48 2002.89,-94.53 1992.74,-91.49 1993.06,-98.48"/>
</g>
<!-- kglobalaccel -->
<g id="node12" class="node">
<title>kglobalaccel</title>
<g id="a_node12"><a xlink:href="https://github.com/conda-forge/kglobalaccel-feedstock" xlink:title="kglobalaccel">
<ellipse fill="#fde725" stroke="black" cx="1936.18" cy="-18" rx="72.78" ry="18"/>
<text text-anchor="middle" x="1936.18" y="-13.32" font-family="Times,serif" font-size="14.00">kglobalaccel</text>
</a>
</g>
</g>
<!-- qt&#45;main&#45;&gt;kglobalaccel -->
<g id="edge15" class="edge">
<title>qt&#45;main&#45;&gt;kglobalaccel</title>
<path fill="none" stroke="black" d="M1611.9,-232.74C1699.46,-231.15 1875.86,-222.61 1917.18,-180 1951.16,-144.96 1947.83,-83.53 1942.14,-47.53"/>
<polygon fill="black" stroke="black" points="1945.62,-47.1 1940.43,-37.86 1938.72,-48.31 1945.62,-47.1"/>
</g>
<!-- qt6&#45;advanced&#45;docking&#45;system -->
<g id="node13" class="node">
<title>qt6&#45;advanced&#45;docking&#45;system</title>
<g id="a_node13"><a xlink:href="https://github.com/conda-forge/qt6-advanced-docking-system-feedstock" xlink:title="qt6 advanced docking system">
<ellipse fill="#fde725" stroke="black" cx="1748.18" cy="-162" rx="159.59" ry="18"/>
<text text-anchor="middle" x="1748.18" y="-157.32" font-family="Times,serif" font-size="14.00">qt6 advanced docking system</text>
</a>
</g>
</g>
<!-- qt&#45;main&#45;&gt;qt6&#45;advanced&#45;docking&#45;system -->
<g id="edge16" class="edge">
<title>qt&#45;main&#45;&gt;qt6&#45;advanced&#45;docking&#45;system</title>
<path fill="none" stroke="black" d="M1595.87,-220.32C1623.05,-210.09 1661.83,-195.5 1693.46,-183.59"/>
<polygon fill="black" stroke="black" points="1694.35,-187 1702.47,-180.2 1691.88,-180.45 1694.35,-187"/>
</g>
<!-- adwaita&#45;qt -->
<g id="node14" class="node">
<title>adwaita&#45;qt</title>
<g id="a_node14"><a xlink:href="https://github.com/conda-forge/adwaita-qt-feedstock" xlink:title="adwaita qt">
<ellipse fill="#fde725" stroke="black" cx="1576.18" cy="-90" rx="64.36" ry="18"/>
<text text-anchor="middle" x="1576.18" y="-85.33" font-family="Times,serif" font-size="14.00">adwaita qt</text>
</a>
</g>
</g>
<!-- qt&#45;main&#45;&gt;adwaita&#45;qt -->
<g id="edge17" class="edge">
<title>qt&#45;main&#45;&gt;adwaita&#45;qt</title>
<path fill="none" stroke="black" d="M1554.68,-215.76C1547.83,-197.7 1539.71,-168.59 1546.18,-144 1548.61,-134.8 1553.04,-125.52 1557.76,-117.35"/>
<polygon fill="black" stroke="black" points="1560.66,-119.31 1562.97,-108.97 1554.72,-115.61 1560.66,-119.31"/>
</g>
<!-- qt&#45;webengine&#45;&gt;kwindowsystem -->
<g id="edge18" class="edge">
<title>qt&#45;webengine&#45;&gt;kwindowsystem</title>
<path fill="none" stroke="black" d="M1205.34,-149.03C1215.89,-147.1 1226.84,-145.31 1237.18,-144 1380.92,-125.74 1800.85,-104.61 1993.95,-95.53"/>
<polygon fill="black" stroke="black" points="1993.88,-99.04 2003.71,-95.07 1993.55,-92.05 1993.88,-99.04"/>
</g>
<!-- qt&#45;webengine&#45;&gt;kglobalaccel -->
<g id="edge19" class="edge">
<title>qt&#45;webengine&#45;&gt;kglobalaccel</title>
<path fill="none" stroke="black" d="M1192.8,-146.55C1254.07,-126.79 1369.42,-91.57 1470.18,-72 1603.89,-46.03 1761.82,-31.37 1855.24,-24.33"/>
<polygon fill="black" stroke="black" points="1855.36,-27.83 1865.07,-23.6 1854.84,-20.85 1855.36,-27.83"/>
</g>
<!-- kwindowsystem&#45;&gt;kglobalaccel -->
<g id="edge54" class="edge">
<title>kwindowsystem&#45;&gt;kglobalaccel</title>
<path fill="none" stroke="black" d="M2057.56,-73.12C2034.78,-62.96 2005.06,-49.71 1980.73,-38.86"/>
<polygon fill="black" stroke="black" points="1982.26,-35.71 1971.7,-34.84 1979.41,-42.11 1982.26,-35.71"/>
</g>
<!-- gstreamer -->
<g id="node15" class="node">
<title>gstreamer</title>
<g id="a_node15"><a xlink:href="https://github.com/conda-forge/gstreamer-feedstock" xlink:title="gstreamer">
<ellipse fill="#fde725" stroke="black" cx="994.18" cy="-306" rx="63.31" ry="18"/>
<text text-anchor="middle" x="994.18" y="-301.32" font-family="Times,serif" font-size="14.00">gstreamer</text>
</a>
</g>
</g>
<!-- gstreamer&#45;&gt;qt&#45;main -->
<g id="edge20" class="edge">
<title>gstreamer&#45;&gt;qt&#45;main</title>
<path fill="none" stroke="black" d="M1051.51,-297.94C1160.22,-284.54 1395.2,-255.58 1504.33,-242.13"/>
<polygon fill="black" stroke="black" points="1504.74,-245.61 1514.24,-240.91 1503.88,-238.66 1504.74,-245.61"/>
</g>
<!-- gstreamer&#45;&gt;qt&#45;webengine -->
<g id="edge21" class="edge">
<title>gstreamer&#45;&gt;qt&#45;webengine</title>
<path fill="none" stroke="black" d="M1031.8,-291.1C1052.25,-282.19 1077,-269.09 1095.18,-252 1113.66,-234.64 1128.1,-209.59 1137.38,-190.48"/>
<polygon fill="black" stroke="black" points="1140.43,-192.21 1141.48,-181.67 1134.09,-189.26 1140.43,-192.21"/>
</g>
<!-- gst&#45;plugins&#45;ugly -->
<g id="node16" class="node">
<title>gst&#45;plugins&#45;ugly</title>
<g id="a_node16"><a xlink:href="https://github.com/conda-forge/gst-plugins-ugly-feedstock" xlink:title="gst plugins ugly">
<ellipse fill="#fde725" stroke="black" cx="994.18" cy="-234" rx="91.72" ry="18"/>
<text text-anchor="middle" x="994.18" y="-229.32" font-family="Times,serif" font-size="14.00">gst plugins ugly</text>
</a>
</g>
</g>
<!-- gstreamer&#45;&gt;gst&#45;plugins&#45;ugly -->
<g id="edge22" class="edge">
<title>gstreamer&#45;&gt;gst&#45;plugins&#45;ugly</title>
<path fill="none" stroke="black" d="M994.18,-287.7C994.18,-280.41 994.18,-271.73 994.18,-263.54"/>
<polygon fill="black" stroke="black" points="997.68,-263.62 994.18,-253.62 990.68,-263.62 997.68,-263.62"/>
</g>
<!-- gst&#45;plugins&#45;bad -->
<g id="node17" class="node">
<title>gst&#45;plugins&#45;bad</title>
<g id="a_node17"><a xlink:href="https://github.com/conda-forge/gst-plugins-bad-feedstock" xlink:title="gst plugins bad">
<ellipse fill="#fde725" stroke="black" cx="796.18" cy="-234" rx="88.56" ry="18"/>
<text text-anchor="middle" x="796.18" y="-229.32" font-family="Times,serif" font-size="14.00">gst plugins bad</text>
</a>
</g>
</g>
<!-- gstreamer&#45;&gt;gst&#45;plugins&#45;bad -->
<g id="edge23" class="edge">
<title>gstreamer&#45;&gt;gst&#45;plugins&#45;bad</title>
<path fill="none" stroke="black" d="M955.54,-291.34C925.28,-280.64 882.85,-265.64 849.38,-253.81"/>
<polygon fill="black" stroke="black" points="850.87,-250.62 840.28,-250.59 848.54,-257.22 850.87,-250.62"/>
</g>
<!-- libglu -->
<g id="node18" class="node">
<title>libglu</title>
<g id="a_node18"><a xlink:href="https://github.com/conda-forge/libglu-feedstock" xlink:title="libglu">
<ellipse fill="#fde725" stroke="black" cx="201.18" cy="-234" rx="39.63" ry="18"/>
<text text-anchor="middle" x="201.18" y="-229.32" font-family="Times,serif" font-size="14.00">libglu</text>
</a>
</g>
</g>
<!-- libglu&#45;&gt;vtk -->
<g id="edge24" class="edge">
<title>libglu&#45;&gt;vtk</title>
<path fill="none" stroke="black" d="M197.9,-215.8C195.16,-195.84 194.2,-163.2 212.18,-144 244.33,-109.68 383.84,-97.05 452.18,-92.86"/>
<polygon fill="black" stroke="black" points="452,-96.38 461.78,-92.31 451.59,-89.39 452,-96.38"/>
</g>
<!-- libglu&#45;&gt;gazebo -->
<g id="edge25" class="edge">
<title>libglu&#45;&gt;gazebo</title>
<path fill="none" stroke="black" d="M193.48,-216.03C188.97,-205.73 183.36,-192.26 179.18,-180 172.36,-159.97 166.18,-136.88 161.8,-119.24"/>
<polygon fill="black" stroke="black" points="165.25,-118.62 159.49,-109.73 158.45,-120.28 165.25,-118.62"/>
</g>
<!-- libglu&#45;&gt;colmap -->
<g id="edge28" class="edge">
<title>libglu&#45;&gt;colmap</title>
<path fill="none" stroke="black" d="M227.37,-220C248.88,-209.32 279.64,-194.05 303.91,-182"/>
<polygon fill="black" stroke="black" points="305.45,-185.15 312.85,-177.56 302.33,-178.88 305.45,-185.15"/>
</g>
<!-- freeglut -->
<g id="node19" class="node">
<title>freeglut</title>
<g id="a_node19"><a xlink:href="https://github.com/conda-forge/freeglut-feedstock" xlink:title="freeglut">
<ellipse fill="#fde725" stroke="black" cx="76.18" cy="-162" rx="51.21" ry="18"/>
<text text-anchor="middle" x="76.18" y="-157.32" font-family="Times,serif" font-size="14.00">freeglut</text>
</a>
</g>
</g>
<!-- libglu&#45;&gt;freeglut -->
<g id="edge26" class="edge">
<title>libglu&#45;&gt;freeglut</title>
<path fill="none" stroke="black" d="M176.79,-219.34C158.55,-209.13 133.32,-195 112.69,-183.44"/>
<polygon fill="black" stroke="black" points="114.44,-180.41 104,-178.58 111.02,-186.52 114.44,-180.41"/>
</g>
<!-- fltk -->
<g id="node20" class="node">
<title>fltk</title>
<g id="a_node20"><a xlink:href="https://github.com/conda-forge/fltk-feedstock" xlink:title="fltk">
<ellipse fill="#fde725" stroke="black" cx="249.18" cy="-162" rx="27.53" ry="18"/>
<text text-anchor="middle" x="249.18" y="-157.32" font-family="Times,serif" font-size="14.00">fltk</text>
</a>
</g>
</g>
<!-- libglu&#45;&gt;fltk -->
<g id="edge27" class="edge">
<title>libglu&#45;&gt;fltk</title>
<path fill="none" stroke="black" d="M212.56,-216.41C218.32,-208.01 225.44,-197.63 231.86,-188.26"/>
<polygon fill="black" stroke="black" points="234.6,-190.46 237.36,-180.24 228.82,-186.5 234.6,-190.46"/>
</g>
<!-- freeglut&#45;&gt;gazebo -->
<g id="edge29" class="edge">
<title>freeglut&#45;&gt;gazebo</title>
<path fill="none" stroke="black" d="M94.51,-144.76C104.65,-135.78 117.44,-124.45 128.65,-114.51"/>
<polygon fill="black" stroke="black" points="130.94,-117.16 136.1,-107.91 126.29,-111.92 130.94,-117.16"/>
</g>
<!-- mesalib -->
<g id="node21" class="node">
<title>mesalib</title>
<g id="a_node21"><a xlink:href="https://github.com/conda-forge/mesalib-feedstock" xlink:title="mesalib">
<ellipse fill="#fde725" stroke="black" cx="487.18" cy="-306" rx="50.16" ry="18"/>
<text text-anchor="middle" x="487.18" y="-301.32" font-family="Times,serif" font-size="14.00">mesalib</text>
</a>
</g>
</g>
<!-- mesalib&#45;&gt;vtk -->
<g id="edge30" class="edge">
<title>mesalib&#45;&gt;vtk</title>
<path fill="none" stroke="black" d="M492.67,-288.02C501.45,-258.6 516.82,-196.29 508.18,-144 506.78,-135.53 504.21,-126.59 501.43,-118.52"/>
<polygon fill="black" stroke="black" points="504.75,-117.41 498,-109.24 498.19,-119.83 504.75,-117.41"/>
</g>
<!-- xorg&#45;libx11 -->
<g id="node22" class="node">
<title>xorg&#45;libx11</title>
<g id="a_node22"><a xlink:href="https://github.com/conda-forge/xorg-libx11-feedstock/pull/39" xlink:title="xorg libx11 ✓">
<ellipse fill="#31688e" stroke="black" cx="660.18" cy="-378" rx="75.94" ry="18"/>
<text text-anchor="middle" x="660.18" y="-373.32" font-family="Times,serif" font-size="14.00" fill="white">xorg libx11 ✓</text>
</a>
</g>
</g>
<!-- xorg&#45;libx11&#45;&gt;cairo -->
<g id="edge31" class="edge">
<title>xorg&#45;libx11&#45;&gt;cairo</title>
<path fill="none" stroke="black" d="M728.03,-369.51C857.64,-355.2 1137.34,-324.32 1247.88,-312.11"/>
<polygon fill="black" stroke="black" points="1248.21,-315.6 1257.77,-311.02 1247.44,-308.64 1248.21,-315.6"/>
</g>
<!-- xorg&#45;libx11&#45;&gt;ffmpeg -->
<g id="edge32" class="edge">
<title>xorg&#45;libx11&#45;&gt;ffmpeg</title>
<path fill="none" stroke="black" d="M590.96,-370.27C527.71,-362.68 440.46,-348.16 416.18,-324 381.79,-289.77 381.61,-260.83 400.18,-216 404.98,-204.43 413.66,-194.07 422.62,-185.64"/>
<polygon fill="black" stroke="black" points="424.81,-188.38 430.05,-179.17 420.21,-183.1 424.81,-188.38"/>
</g>
<!-- xorg&#45;libx11&#45;&gt;gnuplot -->
<g id="edge33" class="edge">
<title>xorg&#45;libx11&#45;&gt;gnuplot</title>
<path fill="none" stroke="black" d="M736.41,-376.74C905.23,-375.38 1298.94,-367.51 1339.18,-324 1374.02,-286.34 1339.96,-223.6 1315.74,-188.6"/>
<polygon fill="black" stroke="black" points="1318.78,-186.83 1310.12,-180.74 1313.09,-190.91 1318.78,-186.83"/>
</g>
<!-- xorg&#45;libx11&#45;&gt;lyx -->
<g id="edge34" class="edge">
<title>xorg&#45;libx11&#45;&gt;lyx</title>
<path fill="none" stroke="black" d="M736.26,-376.36C908,-374.21 1314.41,-364.8 1360.18,-324 1397.22,-290.99 1398.19,-228.29 1395.04,-191.64"/>
<polygon fill="black" stroke="black" points="1398.54,-191.38 1394.02,-181.8 1391.57,-192.1 1398.54,-191.38"/>
</g>
<!-- xorg&#45;libx11&#45;&gt;qt&#45;main -->
<g id="edge35" class="edge">
<title>xorg&#45;libx11&#45;&gt;qt&#45;main</title>
<path fill="none" stroke="black" d="M736.08,-375.88C929.9,-372.51 1432.49,-360.34 1498.18,-324 1522.72,-310.43 1540.21,-283 1550.64,-262.16"/>
<polygon fill="black" stroke="black" points="1553.7,-263.88 1554.8,-253.34 1547.37,-260.89 1553.7,-263.88"/>
</g>
<!-- xorg&#45;libx11&#45;&gt;qt&#45;webengine -->
<g id="edge36" class="edge">
<title>xorg&#45;libx11&#45;&gt;qt&#45;webengine</title>
<path fill="none" stroke="black" d="M661.8,-359.72C665.67,-322.19 676.8,-235.06 698.18,-216 724.76,-192.31 938.32,-175.67 1061.8,-167.92"/>
<polygon fill="black" stroke="black" points="1061.82,-171.43 1071.58,-167.31 1061.38,-164.44 1061.82,-171.43"/>
</g>
<!-- xorg&#45;libx11&#45;&gt;vtk -->
<g id="edge37" class="edge">
<title>xorg&#45;libx11&#45;&gt;vtk</title>
<path fill="none" stroke="black" d="M647.71,-360.13C640.31,-349.86 630.89,-336.39 623.18,-324 574.98,-246.46 570.86,-222.47 524.18,-144 518.72,-134.82 512.47,-124.92 506.84,-116.19"/>
<polygon fill="black" stroke="black" points="509.8,-114.33 501.41,-107.86 503.94,-118.15 509.8,-114.33"/>
</g>
<!-- xorg&#45;libx11&#45;&gt;gazebo -->
<g id="edge38" class="edge">
<title>xorg&#45;libx11&#45;&gt;gazebo</title>
<path fill="none" stroke="black" d="M585.12,-374.52C467.26,-369.68 244.84,-356.46 173.18,-324 76.49,-280.2 -44.04,-231.42 16.18,-144 34.76,-117.03 69.04,-103.78 98.9,-97.27"/>
<polygon fill="black" stroke="black" points="99.46,-100.72 108.61,-95.38 98.12,-93.85 99.46,-100.72"/>
</g>
<!-- xorg&#45;libx11&#45;&gt;colmap -->
<g id="edge45" class="edge">
<title>xorg&#45;libx11&#45;&gt;colmap</title>
<path fill="none" stroke="black" d="M588.71,-371.47C518.19,-364.57 416.9,-350.35 388.18,-324 350.95,-289.83 343.07,-227.82 341.85,-191.54"/>
<polygon fill="black" stroke="black" points="345.36,-191.76 341.69,-181.82 338.36,-191.87 345.36,-191.76"/>
</g>
<!-- xorg&#45;libx11&#45;&gt;kwindowsystem -->
<g id="edge48" class="edge">
<title>xorg&#45;libx11&#45;&gt;kwindowsystem</title>
<path fill="none" stroke="black" d="M735.94,-375.74C1005.79,-371.01 1907.04,-353.09 1961.18,-324 2001.6,-302.29 2058.14,-175.59 2081.93,-118.67"/>
<polygon fill="black" stroke="black" points="2085.07,-120.25 2085.66,-109.67 2078.6,-117.57 2085.07,-120.25"/>
</g>
<!-- xorg&#45;libx11&#45;&gt;kglobalaccel -->
<g id="edge49" class="edge">
<title>xorg&#45;libx11&#45;&gt;kglobalaccel</title>
<path fill="none" stroke="black" d="M736.47,-377.66C898.38,-378.07 1270.98,-373.4 1386.18,-324 1440.26,-300.81 1484.18,-293.84 1484.18,-235 1484.18,-235 1484.18,-235 1484.18,-161 1484.18,-120.55 1473.35,-99.31 1503.18,-72 1552.61,-26.77 1740.53,-18.74 1851.91,-18.1"/>
<polygon fill="black" stroke="black" points="1851.61,-21.6 1861.59,-18.06 1851.58,-14.6 1851.61,-21.6"/>
</g>
<!-- xorg&#45;libx11&#45;&gt;gstreamer -->
<g id="edge39" class="edge">
<title>xorg&#45;libx11&#45;&gt;gstreamer</title>
<path fill="none" stroke="black" d="M715.71,-365.36C775.7,-352.79 870.99,-332.82 933.07,-319.81"/>
<polygon fill="black" stroke="black" points="933.71,-323.25 942.78,-317.77 932.27,-316.4 933.71,-323.25"/>
</g>
<!-- xorg&#45;libx11&#45;&gt;gst&#45;plugins&#45;ugly -->
<g id="edge40" class="edge">
<title>xorg&#45;libx11&#45;&gt;gst&#45;plugins&#45;ugly</title>
<path fill="none" stroke="black" d="M695.93,-361.8C756.39,-336.1 878.86,-284.03 946.54,-255.25"/>
<polygon fill="black" stroke="black" points="947.69,-258.57 955.53,-251.44 944.95,-252.13 947.69,-258.57"/>
</g>
<!-- xorg&#45;libx11&#45;&gt;gst&#45;plugins&#45;bad -->
<g id="edge41" class="edge">
<title>xorg&#45;libx11&#45;&gt;gst&#45;plugins&#45;bad</title>
<path fill="none" stroke="black" d="M676.32,-360.15C700.14,-335.28 744.87,-288.57 772.44,-259.79"/>
<polygon fill="black" stroke="black" points="774.63,-262.56 779.02,-252.92 769.58,-257.72 774.63,-262.56"/>
</g>
<!-- xorg&#45;libx11&#45;&gt;libglu -->
<g id="edge42" class="edge">
<title>xorg&#45;libx11&#45;&gt;libglu</title>
<path fill="none" stroke="black" d="M586.26,-373.41C489.02,-367.6 324.35,-353.63 272.18,-324 246.9,-309.64 227.22,-282.38 215.06,-261.8"/>
<polygon fill="black" stroke="black" points="218.26,-260.34 210.3,-253.35 212.16,-263.78 218.26,-260.34"/>
</g>
<!-- xorg&#45;libx11&#45;&gt;freeglut -->
<g id="edge43" class="edge">
<title>xorg&#45;libx11&#45;&gt;freeglut</title>
<path fill="none" stroke="black" d="M586.55,-373.36C480.8,-367.23 291.86,-352.59 230.18,-324 167.04,-294.73 116.59,-227.08 92.17,-189.45"/>
<polygon fill="black" stroke="black" points="95.39,-187.98 87.07,-181.41 89.47,-191.73 95.39,-187.98"/>
</g>
<!-- xorg&#45;libx11&#45;&gt;fltk -->
<g id="edge44" class="edge">
<title>xorg&#45;libx11&#45;&gt;fltk</title>
<path fill="none" stroke="black" d="M589.75,-370.86C513.34,-363.11 397.28,-347.83 360.18,-324 309.71,-291.57 276.02,-227.19 260,-190.43"/>
<polygon fill="black" stroke="black" points="263.29,-189.22 256.19,-181.37 256.84,-191.94 263.29,-189.22"/>
</g>
<!-- xorg&#45;libx11&#45;&gt;mesalib -->
<g id="edge46" class="edge">
<title>xorg&#45;libx11&#45;&gt;mesalib</title>
<path fill="none" stroke="black" d="M623.07,-361.98C595.78,-350.94 558.62,-335.91 530.06,-324.35"/>
<polygon fill="black" stroke="black" points="531.56,-321.18 520.98,-320.67 528.94,-327.67 531.56,-321.18"/>
</g>
<!-- libva -->
<g id="node23" class="node">
<title>libva</title>
<g id="a_node23"><a xlink:href="https://github.com/conda-forge/libva-feedstock" xlink:title="libva">
<ellipse fill="#fde725" stroke="black" cx="444.18" cy="-234" rx="35.42" ry="18"/>
<text text-anchor="middle" x="444.18" y="-229.32" font-family="Times,serif" font-size="14.00">libva</text>
</a>
</g>
</g>
<!-- xorg&#45;libx11&#45;&gt;libva -->
<g id="edge47" class="edge">
<title>xorg&#45;libx11&#45;&gt;libva</title>
<path fill="none" stroke="black" d="M590.54,-370.56C529.77,-363.32 448.24,-349.16 428.18,-324 414.29,-306.58 420.72,-281.12 429.21,-261.89"/>
<polygon fill="black" stroke="black" points="432.29,-263.55 433.51,-253.02 426,-260.5 432.29,-263.55"/>
</g>
<!-- vulkan&#45;loader -->
<g id="node24" class="node">
<title>vulkan&#45;loader</title>
<g id="a_node24"><a xlink:href="https://github.com/conda-forge/vulkan-loader-feedstock" xlink:title="vulkan loader">
<ellipse fill="#fde725" stroke="black" cx="710.18" cy="-162" rx="79.09" ry="18"/>
<text text-anchor="middle" x="710.18" y="-157.32" font-family="Times,serif" font-size="14.00">vulkan loader</text>
</a>
</g>
</g>
<!-- xorg&#45;libx11&#45;&gt;vulkan&#45;loader -->
<g id="edge50" class="edge">
<title>xorg&#45;libx11&#45;&gt;vulkan&#45;loader</title>
<path fill="none" stroke="black" d="M657.13,-359.82C652.52,-329.57 646.19,-265.32 665.18,-216 669.13,-205.74 675.97,-196.08 683.13,-187.88"/>
<polygon fill="black" stroke="black" points="685.58,-190.39 689.88,-180.7 680.48,-185.59 685.58,-190.39"/>
</g>
<!-- vulkan&#45;tools -->
<g id="node25" class="node">
<title>vulkan&#45;tools</title>
<g id="a_node25"><a xlink:href="https://github.com/conda-forge/vulkan-tools-feedstock" xlink:title="vulkan tools">
<ellipse fill="#fde725" stroke="black" cx="659.18" cy="-90" rx="71.73" ry="18"/>
<text text-anchor="middle" x="659.18" y="-85.33" font-family="Times,serif" font-size="14.00">vulkan tools</text>
</a>
</g>
</g>
<!-- xorg&#45;libx11&#45;&gt;vulkan&#45;tools -->
<g id="edge51" class="edge">
<title>xorg&#45;libx11&#45;&gt;vulkan&#45;tools</title>
<path fill="none" stroke="black" d="M651.99,-359.65C634.62,-320.42 597.59,-222.2 622.18,-144 625.23,-134.31 630.76,-124.84 636.62,-116.65"/>
<polygon fill="black" stroke="black" points="639.27,-118.94 642.61,-108.88 633.73,-114.67 639.27,-118.94"/>
</g>
<!-- nsight&#45;compute -->
<g id="node26" class="node">
<title>nsight&#45;compute</title>
<g id="a_node26"><a xlink:href="https://github.com/conda-forge/nsight-compute-feedstock" xlink:title="nsight compute">
<ellipse fill="#fde725" stroke="black" cx="2227.18" cy="-234" rx="89.09" ry="18"/>
<text text-anchor="middle" x="2227.18" y="-229.32" font-family="Times,serif" font-size="14.00">nsight compute</text>
</a>
</g>
</g>
<!-- xorg&#45;libx11&#45;&gt;nsight&#45;compute -->
<g id="edge52" class="edge">
<title>xorg&#45;libx11&#45;&gt;nsight&#45;compute</title>
<path fill="none" stroke="black" d="M736.38,-376.58C1036.87,-374.63 2126.48,-364.78 2187.18,-324 2207.5,-310.35 2217.62,-283.77 2222.59,-263.19"/>
<polygon fill="black" stroke="black" points="2225.95,-264.2 2224.59,-253.69 2219.1,-262.76 2225.95,-264.2"/>
</g>
<!-- libva&#45;&gt;ffmpeg -->
<g id="edge53" class="edge">
<title>libva&#45;&gt;ffmpeg</title>
<path fill="none" stroke="black" d="M446.41,-215.7C447.36,-208.32 448.49,-199.52 449.55,-191.25"/>
<polygon fill="black" stroke="black" points="452.99,-191.97 450.79,-181.61 446.05,-191.08 452.99,-191.97"/>
</g>
<!-- vulkan&#45;loader&#45;&gt;vulkan&#45;tools -->
<g id="edge55" class="edge">
<title>vulkan&#45;loader&#45;&gt;vulkan&#45;tools</title>
<path fill="none" stroke="black" d="M697.84,-144.05C691.89,-135.89 684.62,-125.91 678,-116.82"/>
<polygon fill="black" stroke="black" points="681.02,-115.03 672.31,-109.01 675.37,-119.16 681.02,-115.03"/>
</g>
<!-- xcb&#45;util&#45;keysyms -->
<g id="node27" class="node">
<title>xcb&#45;util&#45;keysyms</title>
<g id="a_node27"><a xlink:href="https://github.com/conda-forge/xcb-util-keysyms-feedstock/pull/5" xlink:title="xcb util keysyms ✓">
<ellipse fill="#31688e" stroke="black" cx="1849.18" cy="-306" rx="102.77" ry="18"/>
<text text-anchor="middle" x="1849.18" y="-301.32" font-family="Times,serif" font-size="14.00" fill="white">xcb util keysyms ✓</text>
</a>
</g>
</g>
<!-- xcb&#45;util&#45;keysyms&#45;&gt;qt&#45;main -->
<g id="edge56" class="edge">
<title>xcb&#45;util&#45;keysyms&#45;&gt;qt&#45;main</title>
<path fill="none" stroke="black" d="M1790.76,-290.75C1738.76,-278.07 1663.43,-259.69 1613.65,-247.55"/>
<polygon fill="black" stroke="black" points="1614.52,-244.16 1603.98,-245.19 1612.87,-250.96 1614.52,-244.16"/>
</g>
<!-- xcb&#45;util&#45;keysyms&#45;&gt;kwindowsystem -->
<g id="edge57" class="edge">
<title>xcb&#45;util&#45;keysyms&#45;&gt;kwindowsystem</title>
<path fill="none" stroke="black" d="M1914.18,-291.69C1939.77,-283.73 1967.84,-271.27 1988.18,-252 2026.31,-215.87 2005.66,-186.75 2036.18,-144 2043.56,-133.67 2053.2,-123.78 2062.45,-115.4"/>
<polygon fill="black" stroke="black" points="2064.72,-118.06 2069.97,-108.86 2060.13,-112.78 2064.72,-118.06"/>
</g>
<!-- xcb&#45;util&#45;keysyms&#45;&gt;kglobalaccel -->
<g id="edge58" class="edge">
<title>xcb&#45;util&#45;keysyms&#45;&gt;kglobalaccel</title>
<path fill="none" stroke="black" d="M1865.31,-287.8C1885.9,-264.93 1921.23,-222.42 1941.18,-180 1961.9,-135.97 1969.08,-119.65 1959.18,-72 1957.39,-63.36 1954.11,-54.39 1950.58,-46.35"/>
<polygon fill="black" stroke="black" points="1953.81,-44.99 1946.37,-37.44 1947.48,-47.98 1953.81,-44.99"/>
</g>
<!-- xcb&#45;util&#45;keysyms&#45;&gt;nsight&#45;compute -->
<g id="edge59" class="edge">
<title>xcb&#45;util&#45;keysyms&#45;&gt;nsight&#45;compute</title>
<path fill="none" stroke="black" d="M1918.08,-292.24C1984.24,-279.99 2083.93,-261.53 2152.1,-248.91"/>
<polygon fill="black" stroke="black" points="2152.49,-252.39 2161.69,-247.13 2151.22,-245.51 2152.49,-252.39"/>
</g>
<!-- xcb&#45;util&#45;wm -->
<g id="node28" class="node">
<title>xcb&#45;util&#45;wm</title>
<g id="a_node28"><a xlink:href="https://github.com/conda-forge/xcb-util-wm-feedstock/pull/3" xlink:title="xcb util wm ❎">
<ellipse fill="#31688e" stroke="black" cx="2093.18" cy="-306" rx="84.88" ry="18"/>
<text text-anchor="middle" x="2093.18" y="-301.32" font-family="Times,serif" font-size="14.00" fill="white">xcb util wm ❎</text>
</a>
</g>
</g>
<!-- xcb&#45;util&#45;wm&#45;&gt;qt&#45;main -->
<g id="edge60" class="edge">
<title>xcb&#45;util&#45;wm&#45;&gt;qt&#45;main</title>
<path fill="none" stroke="black" d="M2022.4,-295.67C1916.06,-281.65 1717.18,-255.43 1619.42,-242.54"/>
<polygon fill="black" stroke="black" points="1620.16,-239.11 1609.79,-241.28 1619.25,-246.05 1620.16,-239.11"/>
</g>
<!-- xcb&#45;util&#45;wm&#45;&gt;kwindowsystem -->
<g id="edge61" class="edge">
<title>xcb&#45;util&#45;wm&#45;&gt;kwindowsystem</title>
<path fill="none" stroke="black" d="M2093.18,-287.85C2093.18,-251.14 2093.18,-164.66 2093.18,-119.53"/>
<polygon fill="black" stroke="black" points="2096.68,-119.75 2093.18,-109.75 2089.68,-119.75 2096.68,-119.75"/>
</g>
<!-- xcb&#45;util&#45;wm&#45;&gt;nsight&#45;compute -->
<g id="edge62" class="edge">
<title>xcb&#45;util&#45;wm&#45;&gt;nsight&#45;compute</title>
<path fill="none" stroke="black" d="M2123.93,-288.94C2142.35,-279.32 2166.01,-266.96 2186.03,-256.5"/>
<polygon fill="black" stroke="black" points="2187.54,-259.66 2194.78,-251.93 2184.3,-253.46 2187.54,-259.66"/>
</g>
<!-- xcb&#45;util&#45;image -->
<g id="node29" class="node">
<title>xcb&#45;util&#45;image</title>
<g id="a_node29"><a xlink:href="https://github.com/conda-forge/xcb-util-image-feedstock" xlink:title="xcb util image">
<ellipse fill="#35b779" stroke="black" cx="2191.18" cy="-378" rx="82.25" ry="18"/>
<text text-anchor="middle" x="2191.18" y="-373.32" font-family="Times,serif" font-size="14.00">xcb util image</text>
</a>
</g>
</g>
<!-- xcb&#45;util&#45;image&#45;&gt;qt&#45;main -->
<g id="edge63" class="edge">
<title>xcb&#45;util&#45;image&#45;&gt;qt&#45;main</title>
<path fill="none" stroke="black" d="M2109.12,-376.08C1977.19,-373.43 1724.66,-363.23 1645.18,-324 1616.89,-310.03 1593.36,-282.07 1578.67,-261.2"/>
<polygon fill="black" stroke="black" points="1581.72,-259.47 1573.21,-253.15 1575.92,-263.39 1581.72,-259.47"/>
</g>
<!-- xcb&#45;util&#45;image&#45;&gt;nsight&#45;compute -->
<g id="edge64" class="edge">
<title>xcb&#45;util&#45;image&#45;&gt;nsight&#45;compute</title>
<path fill="none" stroke="black" d="M2202.81,-360.15C2209.1,-350.12 2216.35,-336.87 2220.18,-324 2226.01,-304.45 2227.7,-281.47 2227.96,-263.77"/>
<polygon fill="black" stroke="black" points="2231.46,-263.96 2227.95,-253.97 2224.46,-263.97 2231.46,-263.96"/>
</g>
<!-- xcb&#45;util&#45;cursor -->
<g id="node30" class="node">
<title>xcb&#45;util&#45;cursor</title>
<g id="a_node30"><a xlink:href="https://github.com/conda-forge/xcb-util-cursor-feedstock" xlink:title="xcb util cursor">
<ellipse fill="#fde725" stroke="black" cx="2356.18" cy="-306" rx="83.83" ry="18"/>
<text text-anchor="middle" x="2356.18" y="-301.32" font-family="Times,serif" font-size="14.00">xcb util cursor</text>
</a>
</g>
</g>
<!-- xcb&#45;util&#45;image&#45;&gt;xcb&#45;util&#45;cursor -->
<g id="edge65" class="edge">
<title>xcb&#45;util&#45;image&#45;&gt;xcb&#45;util&#45;cursor</title>
<path fill="none" stroke="black" d="M2227.8,-361.46C2251.75,-351.3 2283.26,-337.94 2309.07,-326.99"/>
<polygon fill="black" stroke="black" points="2310.15,-330.33 2317.99,-323.2 2307.42,-323.89 2310.15,-330.33"/>
</g>
<!-- xcb&#45;util&#45;cursor&#45;&gt;nsight&#45;compute -->
<g id="edge66" class="edge">
<title>xcb&#45;util&#45;cursor&#45;&gt;nsight&#45;compute</title>
<path fill="none" stroke="black" d="M2326.26,-288.76C2308.73,-279.25 2286.34,-267.1 2267.29,-256.76"/>
<polygon fill="black" stroke="black" points="2269.18,-253.8 2258.72,-252.11 2265.84,-259.96 2269.18,-253.8"/>
</g>
<!-- xcb&#45;util&#45;renderutil -->
<g id="node31" class="node">
<title>xcb&#45;util&#45;renderutil</title>
<g id="a_node31"><a xlink:href="https://github.com/conda-forge/xcb-util-renderutil-feedstock/pull/6" xlink:title="xcb util renderutil ❎">
<ellipse fill="#31688e" stroke="black" cx="2409.18" cy="-378" rx="117.5" ry="18"/>
<text text-anchor="middle" x="2409.18" y="-373.32" font-family="Times,serif" font-size="14.00" fill="white">xcb util renderutil ❎</text>
</a>
</g>
</g>
<!-- xcb&#45;util&#45;renderutil&#45;&gt;qt&#45;main -->
<g id="edge67" class="edge">
<title>xcb&#45;util&#45;renderutil&#45;&gt;qt&#45;main</title>
<path fill="none" stroke="black" d="M2325.59,-365C2311.14,-363.16 2296.24,-361.4 2282.18,-360 2040.64,-335.88 1971.25,-388.33 1737.18,-324 1684.09,-309.41 1628.31,-277.79 1594.39,-256.44"/>
<polygon fill="black" stroke="black" points="1596.59,-253.7 1586.28,-251.27 1592.82,-259.6 1596.59,-253.7"/>
</g>
<!-- xcb&#45;util&#45;renderutil&#45;&gt;nsight&#45;compute -->
<g id="edge68" class="edge">
<title>xcb&#45;util&#45;renderutil&#45;&gt;nsight&#45;compute</title>
<path fill="none" stroke="black" d="M2427,-359.92C2444.62,-340.94 2466.61,-310.07 2449.18,-288 2432.36,-266.69 2369.92,-253 2315.53,-244.89"/>
<polygon fill="black" stroke="black" points="2316.31,-241.47 2305.91,-243.51 2315.31,-248.39 2316.31,-241.47"/>
</g>
<!-- xcb&#45;util&#45;renderutil&#45;&gt;xcb&#45;util&#45;cursor -->
<g id="edge69" class="edge">
<title>xcb&#45;util&#45;renderutil&#45;&gt;xcb&#45;util&#45;cursor</title>
<path fill="none" stroke="black" d="M2396.08,-359.7C2390.05,-351.73 2382.76,-342.1 2376.07,-333.26"/>
<polygon fill="black" stroke="black" points="2378.88,-331.17 2370.05,-325.31 2373.29,-335.4 2378.88,-331.17"/>
</g>
</g>
</svg>
