<?xml version="1.0" encoding="UTF-8" standalone="no"?>
<!DOCTYPE svg PUBLIC "-//W3C//DTD SVG 1.1//EN"
 "http://www.w3.org/Graphics/SVG/1.1/DTD/svg11.dtd">
<!-- Generated by graphviz version 11.0.0 (20240519.1550)
 -->
<!-- Pages: 1 -->
<svg width="1139pt" height="404pt"
 viewBox="0.00 0.00 1139.19 404.00" xmlns="http://www.w3.org/2000/svg" xmlns:xlink="http://www.w3.org/1999/xlink">
<g id="graph0" class="graph" transform="scale(1 1) rotate(0) translate(4 400)">
<polygon fill="white" stroke="none" points="-4,4 -4,-400 1135.19,-400 1135.19,4 -4,4"/>
<!-- gnuplot -->
<g id="node1" class="node">
<title>gnuplot</title>
<g id="a_node1"><a xlink:href="https://github.com/conda-forge/gnuplot-feedstock" xlink:title="gnuplot">
<ellipse fill="#fde725" stroke="black" cx="654.1" cy="-306" rx="49.63" ry="18"/>
<text text-anchor="middle" x="654.1" y="-301.32" font-family="Times,serif" font-size="14.00">gnuplot</text>
</a>
</g>
</g>
<!-- freeglut -->
<g id="node2" class="node">
<title>freeglut</title>
<g id="a_node2"><a xlink:href="https://github.com/conda-forge/freeglut-feedstock/pull/38" xlink:title="freeglut ✓">
<ellipse fill="#31688e" stroke="black" cx="59.1" cy="-378" rx="59.1" ry="18"/>
<text text-anchor="middle" x="59.1" y="-373.32" font-family="Times,serif" font-size="14.00" fill="white">freeglut ✓</text>
</a>
</g>
</g>
<!-- gazebo -->
<g id="node3" class="node">
<title>gazebo</title>
<g id="a_node3"><a xlink:href="https://github.com/conda-forge/gazebo-feedstock" xlink:title="gazebo">
<ellipse fill="#fde725" stroke="black" cx="59.1" cy="-306" rx="46.47" ry="18"/>
<text text-anchor="middle" x="59.1" y="-301.32" font-family="Times,serif" font-size="14.00">gazebo</text>
</a>
</g>
</g>
<!-- freeglut&#45;&gt;gazebo -->
<g id="edge1" class="edge">
<title>freeglut&#45;&gt;gazebo</title>
<path fill="none" stroke="black" d="M59.1,-359.7C59.1,-352.41 59.1,-343.73 59.1,-335.54"/>
<polygon fill="black" stroke="black" points="62.6,-335.62 59.1,-325.62 55.6,-335.62 62.6,-335.62"/>
</g>
<!-- vtk -->
<g id="node4" class="node">
<title>vtk</title>
<g id="a_node4"><a xlink:href="https://github.com/conda-forge/vtk-feedstock" xlink:title="vtk">
<ellipse fill="#fde725" stroke="black" cx="818.1" cy="-342" rx="27.01" ry="18"/>
<text text-anchor="middle" x="818.1" y="-337.32" font-family="Times,serif" font-size="14.00">vtk</text>
</a>
</g>
</g>
<!-- fltk -->
<g id="node5" class="node">
<title>fltk</title>
<g id="a_node5"><a xlink:href="https://github.com/conda-forge/fltk-feedstock/pull/26" xlink:title="fltk ❎">
<ellipse fill="#31688e" stroke="black" cx="818.1" cy="-270" rx="42.79" ry="18"/>
<text text-anchor="middle" x="818.1" y="-265.32" font-family="Times,serif" font-size="14.00" fill="white">fltk ❎</text>
</a>
</g>
</g>
<!-- vtk&#45;&gt;fltk -->
<!-- gst&#45;plugins&#45;ugly -->
<g id="node6" class="node">
<title>gst&#45;plugins&#45;ugly</title>
<g id="a_node6"><a xlink:href="https://github.com/conda-forge/gst-plugins-ugly-feedstock/pull/47" xlink:title="gst plugins ugly ❎">
<ellipse fill="#31688e" stroke="black" cx="818.1" cy="-198" rx="106.98" ry="18"/>
<text text-anchor="middle" x="818.1" y="-193.32" font-family="Times,serif" font-size="14.00" fill="white">gst plugins ugly ❎</text>
</a>
</g>
</g>
<!-- fltk&#45;&gt;gst&#45;plugins&#45;ugly -->
<!-- gst&#45;plugins&#45;bad -->
<g id="node10" class="node">
<title>gst&#45;plugins&#45;bad</title>
<g id="a_node10"><a xlink:href="https://github.com/conda-forge/gst-plugins-bad-feedstock" xlink:title="gst plugins bad">
<ellipse fill="#35b779" stroke="black" cx="818.1" cy="-126" rx="88.56" ry="18"/>
<text text-anchor="middle" x="818.1" y="-121.33" font-family="Times,serif" font-size="14.00">gst plugins bad</text>
</a>
</g>
</g>
<!-- gst&#45;plugins&#45;ugly&#45;&gt;gst&#45;plugins&#45;bad -->
<!-- kwindowsystem -->
<g id="node7" class="node">
<title>kwindowsystem</title>
<g id="a_node7"><a xlink:href="https://github.com/conda-forge/kwindowsystem-feedstock" xlink:title="kwindowsystem">
<ellipse fill="#fde725" stroke="black" cx="133.1" cy="-234" rx="91.19" ry="18"/>
<text text-anchor="middle" x="133.1" y="-229.32" font-family="Times,serif" font-size="14.00">kwindowsystem</text>
</a>
</g>
</g>
<!-- kglobalaccel -->
<g id="node8" class="node">
<title>kglobalaccel</title>
<g id="a_node8"><a xlink:href="https://github.com/conda-forge/kglobalaccel-feedstock" xlink:title="kglobalaccel">
<ellipse fill="#fde725" stroke="black" cx="250.1" cy="-162" rx="72.78" ry="18"/>
<text text-anchor="middle" x="250.1" y="-157.32" font-family="Times,serif" font-size="14.00">kglobalaccel</text>
</a>
</g>
</g>
<!-- kwindowsystem&#45;&gt;kglobalaccel -->
<g id="edge4" class="edge">
<title>kwindowsystem&#45;&gt;kglobalaccel</title>
<path fill="none" stroke="black" d="M160.83,-216.41C176.65,-206.95 196.66,-194.97 213.72,-184.76"/>
<polygon fill="black" stroke="black" points="215.29,-187.9 222.08,-179.77 211.7,-181.9 215.29,-187.9"/>
</g>
<!-- lyx -->
<g id="node9" class="node">
<title>lyx</title>
<g id="a_node9"><a xlink:href="https://github.com/conda-forge/lyx-feedstock" xlink:title="lyx">
<ellipse fill="#fde725" stroke="black" cx="330.1" cy="-234" rx="27" ry="18"/>
<text text-anchor="middle" x="330.1" y="-229.32" font-family="Times,serif" font-size="14.00">lyx</text>
</a>
</g>
</g>
<!-- silicon -->
<g id="node11" class="node">
<title>silicon</title>
<g id="a_node11"><a xlink:href="https://github.com/conda-forge/silicon-feedstock" xlink:title="silicon">
<ellipse fill="#35b779" stroke="black" cx="818.1" cy="-54" rx="43.32" ry="18"/>
<text text-anchor="middle" x="818.1" y="-49.33" font-family="Times,serif" font-size="14.00">silicon</text>
</a>
</g>
</g>
<!-- gst&#45;plugins&#45;bad&#45;&gt;silicon -->
<!-- colmap -->
<g id="node12" class="node">
<title>colmap</title>
<g id="a_node12"><a xlink:href="https://github.com/conda-forge/colmap-feedstock" xlink:title="colmap">
<ellipse fill="#fde725" stroke="black" cx="388.1" cy="-162" rx="47" ry="18"/>
<text text-anchor="middle" x="388.1" y="-157.32" font-family="Times,serif" font-size="14.00">colmap</text>
</a>
</g>
</g>
<!-- qt&#45;main -->
<g id="node13" class="node">
<title>qt&#45;main</title>
<g id="a_node13"><a xlink:href="https://github.com/conda-forge/qt-main-feedstock/pull/269" xlink:title="qt main ❎">
<ellipse fill="#31688e" stroke="black" cx="385.1" cy="-378" rx="64.89" ry="18"/>
<text text-anchor="middle" x="385.1" y="-373.32" font-family="Times,serif" font-size="14.00" fill="white">qt main ❎</text>
</a>
</g>
</g>
<!-- qt&#45;main&#45;&gt;gnuplot -->
<g id="edge7" class="edge">
<title>qt&#45;main&#45;&gt;gnuplot</title>
<path fill="none" stroke="black" d="M431.53,-365.09C473.1,-354.4 535.7,-338.26 590.1,-324 594.61,-322.82 599.29,-321.59 603.97,-320.35"/>
<polygon fill="black" stroke="black" points="604.62,-323.8 613.39,-317.86 602.82,-317.03 604.62,-323.8"/>
</g>
<!-- qt&#45;main&#45;&gt;gazebo -->
<g id="edge8" class="edge">
<title>qt&#45;main&#45;&gt;gazebo</title>
<path fill="none" stroke="black" d="M331.33,-367.58C277.41,-357.83 192.12,-341.59 119.1,-324 114.84,-322.97 110.43,-321.85 106.02,-320.68"/>
<polygon fill="black" stroke="black" points="107.18,-317.37 96.61,-318.11 105.34,-324.12 107.18,-317.37"/>
</g>
<!-- qt&#45;main&#45;&gt;kwindowsystem -->
<g id="edge9" class="edge">
<title>qt&#45;main&#45;&gt;kwindowsystem</title>
<path fill="none" stroke="black" d="M325.15,-370.7C264.36,-363.06 175.92,-348.14 152.1,-324 136.57,-308.26 132.34,-283.13 131.7,-263.58"/>
<polygon fill="black" stroke="black" points="135.2,-263.78 131.7,-253.78 128.2,-263.78 135.2,-263.78"/>
</g>
<!-- qt&#45;main&#45;&gt;kglobalaccel -->
<g id="edge10" class="edge">
<title>qt&#45;main&#45;&gt;kglobalaccel</title>
<path fill="none" stroke="black" d="M388.17,-359.53C392.76,-327.68 397.77,-259.44 366.1,-216 353.33,-198.48 333.36,-186.61 313.57,-178.63"/>
<polygon fill="black" stroke="black" points="314.97,-175.42 304.38,-175.22 312.54,-181.98 314.97,-175.42"/>
</g>
<!-- qt&#45;main&#45;&gt;lyx -->
<g id="edge11" class="edge">
<title>qt&#45;main&#45;&gt;lyx</title>
<path fill="none" stroke="black" d="M378.47,-359.87C369.08,-335.65 351.84,-291.12 340.68,-262.31"/>
<polygon fill="black" stroke="black" points="344.01,-261.22 337.13,-253.16 337.48,-263.75 344.01,-261.22"/>
</g>
<!-- qt&#45;main&#45;&gt;colmap -->
<g id="edge12" class="edge">
<title>qt&#45;main&#45;&gt;colmap</title>
<path fill="none" stroke="black" d="M390.78,-360.04C393.92,-349.74 397.51,-336.27 399.1,-324 405.28,-276.4 404,-263.75 399.1,-216 398.26,-207.83 396.72,-199.07 395.04,-191.07"/>
<polygon fill="black" stroke="black" points="398.5,-190.51 392.9,-181.52 391.67,-192.05 398.5,-190.51"/>
</g>
<!-- qt&#45;webengine -->
<g id="node14" class="node">
<title>qt&#45;webengine</title>
<g id="a_node14"><a xlink:href="https://github.com/conda-forge/qt-webengine-feedstock" xlink:title="qt webengine">
<ellipse fill="#fde725" stroke="black" cx="240.1" cy="-306" rx="79.09" ry="18"/>
<text text-anchor="middle" x="240.1" y="-301.32" font-family="Times,serif" font-size="14.00">qt webengine</text>
</a>
</g>
</g>
<!-- qt&#45;main&#45;&gt;qt&#45;webengine -->
<g id="edge13" class="edge">
<title>qt&#45;main&#45;&gt;qt&#45;webengine</title>
<path fill="none" stroke="black" d="M353.64,-361.81C333,-351.85 305.75,-338.69 283.12,-327.77"/>
<polygon fill="black" stroke="black" points="284.65,-324.62 274.12,-323.42 281.61,-330.92 284.65,-324.62"/>
</g>
<!-- qt6&#45;advanced&#45;docking&#45;system -->
<g id="node15" class="node">
<title>qt6&#45;advanced&#45;docking&#45;system</title>
<g id="a_node15"><a xlink:href="https://github.com/conda-forge/qt6-advanced-docking-system-feedstock" xlink:title="qt6 advanced docking system">
<ellipse fill="#fde725" stroke="black" cx="388.1" cy="-90" rx="159.59" ry="18"/>
<text text-anchor="middle" x="388.1" y="-85.33" font-family="Times,serif" font-size="14.00">qt6 advanced docking system</text>
</a>
</g>
</g>
<!-- qt&#45;main&#45;&gt;qt6&#45;advanced&#45;docking&#45;system -->
<g id="edge14" class="edge">
<title>qt&#45;main&#45;&gt;qt6&#45;advanced&#45;docking&#45;system</title>
<path fill="none" stroke="black" d="M396.69,-360.02C421.98,-320.74 477.26,-221.04 444.1,-144 439.46,-133.21 431.42,-123.59 422.86,-115.61"/>
<polygon fill="black" stroke="black" points="425.24,-113.04 415.37,-109.17 420.67,-118.35 425.24,-113.04"/>
</g>
<!-- adwaita&#45;qt -->
<g id="node16" class="node">
<title>adwaita&#45;qt</title>
<g id="a_node16"><a xlink:href="https://github.com/conda-forge/adwaita-qt-feedstock" xlink:title="adwaita qt">
<ellipse fill="#fde725" stroke="black" cx="576.1" cy="-18" rx="64.36" ry="18"/>
<text text-anchor="middle" x="576.1" y="-13.32" font-family="Times,serif" font-size="14.00">adwaita qt</text>
</a>
</g>
</g>
<!-- qt&#45;main&#45;&gt;adwaita&#45;qt -->
<g id="edge15" class="edge">
<title>qt&#45;main&#45;&gt;adwaita&#45;qt</title>
<path fill="none" stroke="black" d="M430.85,-364.91C487.36,-346.89 576.1,-307.1 576.1,-235 576.1,-235 576.1,-235 576.1,-161 576.1,-121.74 576.1,-76.38 576.1,-47.69"/>
<polygon fill="black" stroke="black" points="579.6,-48 576.1,-38 572.6,-48 579.6,-48"/>
</g>
<!-- qt&#45;webengine&#45;&gt;kwindowsystem -->
<g id="edge16" class="edge">
<title>qt&#45;webengine&#45;&gt;kwindowsystem</title>
<path fill="none" stroke="black" d="M215.01,-288.59C200.9,-279.35 183.06,-267.68 167.64,-257.59"/>
<polygon fill="black" stroke="black" points="169.95,-254.93 159.67,-252.38 166.12,-260.78 169.95,-254.93"/>
</g>
<!-- qt&#45;webengine&#45;&gt;kglobalaccel -->
<g id="edge17" class="edge">
<title>qt&#45;webengine&#45;&gt;kglobalaccel</title>
<path fill="none" stroke="black" d="M241.33,-287.59C243.02,-263.61 246.08,-220.14 248.1,-191.42"/>
<polygon fill="black" stroke="black" points="251.58,-191.84 248.79,-181.62 244.6,-191.35 251.58,-191.84"/>
</g>
<!-- xcb&#45;util&#45;cursor -->
<g id="node17" class="node">
<title>xcb&#45;util&#45;cursor</title>
<g id="a_node17"><a xlink:href="https://github.com/conda-forge/xcb-util-cursor-feedstock/pull/5" xlink:title="xcb util cursor ❎">
<ellipse fill="#31688e" stroke="black" cx="1032.1" cy="-234" rx="99.08" ry="18"/>
<text text-anchor="middle" x="1032.1" y="-229.32" font-family="Times,serif" font-size="14.00" fill="white">xcb util cursor ❎</text>
</a>
</g>
</g>
<!-- nsight&#45;compute -->
<g id="node18" class="node">
<title>nsight&#45;compute</title>
<g id="a_node18"><a xlink:href="https://github.com/conda-forge/nsight-compute-feedstock" xlink:title="nsight compute">
<ellipse fill="#fde725" stroke="black" cx="1032.1" cy="-162" rx="89.09" ry="18"/>
<text text-anchor="middle" x="1032.1" y="-157.32" font-family="Times,serif" font-size="14.00">nsight compute</text>
</a>
</g>
</g>
<!-- xcb&#45;util&#45;cursor&#45;&gt;nsight&#45;compute -->
<g id="edge18" class="edge">
<title>xcb&#45;util&#45;cursor&#45;&gt;nsight&#45;compute</title>
<path fill="none" stroke="black" d="M1032.1,-215.7C1032.1,-208.41 1032.1,-199.73 1032.1,-191.54"/>
<polygon fill="black" stroke="black" points="1035.6,-191.62 1032.1,-181.62 1028.6,-191.62 1035.6,-191.62"/>
</g>
</g>
</svg>
