<?xml version="1.0" encoding="UTF-8" standalone="no"?>
<!DOCTYPE svg PUBLIC "-//W3C//DTD SVG 1.1//EN"
 "http://www.w3.org/Graphics/SVG/1.1/DTD/svg11.dtd">
<!-- Generated by graphviz version 11.0.0 (20240519.1550)
 -->
<!-- Pages: 1 -->
<svg width="2508pt" height="404pt"
 viewBox="0.00 0.00 2507.71 404.00" xmlns="http://www.w3.org/2000/svg" xmlns:xlink="http://www.w3.org/1999/xlink">
<g id="graph0" class="graph" transform="scale(1 1) rotate(0) translate(4 400)">
<polygon fill="white" stroke="none" points="-4,4 -4,-400 2503.71,-400 2503.71,4 -4,4"/>
<!-- cairo -->
<g id="node1" class="node">
<title>cairo</title>
<g id="a_node1"><a xlink:href="https://github.com/conda-forge/cairo-feedstock" xlink:title="cairo">
<ellipse fill="#fde725" stroke="black" cx="1294.31" cy="-306" rx="35.95" ry="18"/>
<text text-anchor="middle" x="1294.31" y="-301.32" font-family="Times,serif" font-size="14.00">cairo</text>
</a>
</g>
</g>
<!-- ffmpeg -->
<g id="node2" class="node">
<title>ffmpeg</title>
<g id="a_node2"><a xlink:href="https://github.com/conda-forge/ffmpeg-feedstock" xlink:title="ffmpeg">
<ellipse fill="#fde725" stroke="black" cx="99.31" cy="-162" rx="45.95" ry="18"/>
<text text-anchor="middle" x="99.31" y="-157.32" font-family="Times,serif" font-size="14.00">ffmpeg</text>
</a>
</g>
</g>
<!-- cairo&#45;&gt;ffmpeg -->
<g id="edge1" class="edge">
<title>cairo&#45;&gt;ffmpeg</title>
<path fill="none" stroke="black" d="M1267.36,-293.77C1246.34,-284.32 1217.01,-269.55 1194.31,-252 1177.14,-238.72 1181.01,-225.11 1161.31,-216 1063.51,-170.79 299.41,-191.72 192.31,-180 178.55,-178.49 163.75,-176.13 150.1,-173.65"/>
<polygon fill="black" stroke="black" points="150.92,-170.24 140.44,-171.82 149.62,-177.12 150.92,-170.24"/>
</g>
<!-- gnuplot -->
<g id="node3" class="node">
<title>gnuplot</title>
<g id="a_node3"><a xlink:href="https://github.com/conda-forge/gnuplot-feedstock" xlink:title="gnuplot">
<ellipse fill="#fde725" stroke="black" cx="958.31" cy="-162" rx="49.63" ry="18"/>
<text text-anchor="middle" x="958.31" y="-157.32" font-family="Times,serif" font-size="14.00">gnuplot</text>
</a>
</g>
</g>
<!-- cairo&#45;&gt;gnuplot -->
<g id="edge2" class="edge">
<title>cairo&#45;&gt;gnuplot</title>
<path fill="none" stroke="black" d="M1281.24,-289.03C1263.68,-268.71 1230.48,-234.1 1194.31,-216 1122.52,-180.08 1095.28,-199.13 1017.31,-180 1013.79,-179.14 1010.17,-178.2 1006.52,-177.23"/>
<polygon fill="black" stroke="black" points="1007.67,-173.92 997.1,-174.65 1005.82,-180.67 1007.67,-173.92"/>
</g>
<!-- lyx -->
<g id="node4" class="node">
<title>lyx</title>
<g id="a_node4"><a xlink:href="https://github.com/conda-forge/lyx-feedstock" xlink:title="lyx">
<ellipse fill="#fde725" stroke="black" cx="1053.31" cy="-162" rx="27" ry="18"/>
<text text-anchor="middle" x="1053.31" y="-157.32" font-family="Times,serif" font-size="14.00">lyx</text>
</a>
</g>
</g>
<!-- cairo&#45;&gt;lyx -->
<g id="edge3" class="edge">
<title>cairo&#45;&gt;lyx</title>
<path fill="none" stroke="black" d="M1294.72,-287.55C1294.2,-267.34 1290.07,-234.47 1270.31,-216 1210.4,-159.98 1167.2,-205.7 1089.31,-180 1087.75,-179.49 1086.17,-178.92 1084.59,-178.32"/>
<polygon fill="black" stroke="black" points="1086.25,-175.22 1075.67,-174.54 1083.52,-181.66 1086.25,-175.22"/>
</g>
<!-- qt&#45;main -->
<g id="node5" class="node">
<title>qt&#45;main</title>
<g id="a_node5"><a xlink:href="https://github.com/conda-forge/qt-main-feedstock" xlink:title="qt main">
<ellipse fill="#fde725" stroke="black" cx="1552.31" cy="-234" rx="49.63" ry="18"/>
<text text-anchor="middle" x="1552.31" y="-229.32" font-family="Times,serif" font-size="14.00">qt main</text>
</a>
</g>
</g>
<!-- cairo&#45;&gt;qt&#45;main -->
<g id="edge4" class="edge">
<title>cairo&#45;&gt;qt&#45;main</title>
<path fill="none" stroke="black" d="M1325.43,-296.56C1369.38,-284.63 1450.11,-262.73 1502.47,-248.52"/>
<polygon fill="black" stroke="black" points="1503.32,-251.92 1512.05,-245.92 1501.48,-245.16 1503.32,-251.92"/>
</g>
<!-- qt&#45;webengine -->
<g id="node6" class="node">
<title>qt&#45;webengine</title>
<g id="a_node6"><a xlink:href="https://github.com/conda-forge/qt-webengine-feedstock" xlink:title="qt webengine">
<ellipse fill="#fde725" stroke="black" cx="1177.31" cy="-162" rx="79.09" ry="18"/>
<text text-anchor="middle" x="1177.31" y="-157.32" font-family="Times,serif" font-size="14.00">qt webengine</text>
</a>
</g>
</g>
<!-- cairo&#45;&gt;qt&#45;webengine -->
<g id="edge5" class="edge">
<title>cairo&#45;&gt;qt&#45;webengine</title>
<path fill="none" stroke="black" d="M1329.1,-300.48C1358.16,-294.67 1397.88,-281.53 1417.31,-252 1426.11,-238.63 1427.33,-228.47 1417.31,-216 1411.89,-209.25 1316.97,-189.78 1248.16,-176.41"/>
<polygon fill="black" stroke="black" points="1248.89,-172.99 1238.41,-174.53 1247.56,-179.86 1248.89,-172.99"/>
</g>
<!-- silicon -->
<g id="node7" class="node">
<title>silicon</title>
<g id="a_node7"><a xlink:href="https://github.com/conda-forge/silicon-feedstock" xlink:title="silicon">
<ellipse fill="#fde725" stroke="black" cx="1365.31" cy="-234" rx="43.32" ry="18"/>
<text text-anchor="middle" x="1365.31" y="-229.32" font-family="Times,serif" font-size="14.00">silicon</text>
</a>
</g>
</g>
<!-- cairo&#45;&gt;silicon -->
<g id="edge6" class="edge">
<title>cairo&#45;&gt;silicon</title>
<path fill="none" stroke="black" d="M1310.07,-289.46C1319.13,-280.53 1330.72,-269.11 1340.93,-259.04"/>
<polygon fill="black" stroke="black" points="1343.36,-261.55 1348.03,-252.04 1338.45,-256.57 1343.36,-261.55"/>
</g>
<!-- vtk -->
<g id="node8" class="node">
<title>vtk</title>
<g id="a_node8"><a xlink:href="https://github.com/conda-forge/vtk-feedstock" xlink:title="vtk">
<ellipse fill="#fde725" stroke="black" cx="62.31" cy="-90" rx="27.01" ry="18"/>
<text text-anchor="middle" x="62.31" y="-85.33" font-family="Times,serif" font-size="14.00">vtk</text>
</a>
</g>
</g>
<!-- ffmpeg&#45;&gt;vtk -->
<g id="edge7" class="edge">
<title>ffmpeg&#45;&gt;vtk</title>
<path fill="none" stroke="black" d="M90.36,-144.05C86.11,-136.03 80.95,-126.26 76.21,-117.3"/>
<polygon fill="black" stroke="black" points="79.41,-115.85 71.64,-108.65 73.22,-119.12 79.41,-115.85"/>
</g>
<!-- gazebo -->
<g id="node9" class="node">
<title>gazebo</title>
<g id="a_node9"><a xlink:href="https://github.com/conda-forge/gazebo-feedstock" xlink:title="gazebo">
<ellipse fill="#fde725" stroke="black" cx="402.31" cy="-90" rx="46.47" ry="18"/>
<text text-anchor="middle" x="402.31" y="-85.33" font-family="Times,serif" font-size="14.00">gazebo</text>
</a>
</g>
</g>
<!-- ffmpeg&#45;&gt;gazebo -->
<g id="edge8" class="edge">
<title>ffmpeg&#45;&gt;gazebo</title>
<path fill="none" stroke="black" d="M138.3,-151.99C192.81,-139.4 291.83,-116.52 351.89,-102.65"/>
<polygon fill="black" stroke="black" points="352.56,-106.09 361.52,-100.42 350.98,-99.27 352.56,-106.09"/>
</g>
<!-- qt&#45;main&#45;&gt;gnuplot -->
<g id="edge9" class="edge">
<title>qt&#45;main&#45;&gt;gnuplot</title>
<path fill="none" stroke="black" d="M1506.43,-226.81C1480.33,-223.4 1447.02,-219.21 1417.31,-216 1239.85,-196.85 1192.76,-212.86 1017.31,-180 1013.48,-179.28 1009.53,-178.42 1005.59,-177.47"/>
<polygon fill="black" stroke="black" points="1006.58,-174.12 996.02,-175 1004.83,-180.89 1006.58,-174.12"/>
</g>
<!-- qt&#45;main&#45;&gt;lyx -->
<g id="edge10" class="edge">
<title>qt&#45;main&#45;&gt;lyx</title>
<path fill="none" stroke="black" d="M1506.1,-227C1480.04,-223.66 1446.87,-219.48 1417.31,-216 1271.67,-198.84 1230.44,-219.86 1089.31,-180 1087.69,-179.54 1086.05,-179.02 1084.41,-178.44"/>
<polygon fill="black" stroke="black" points="1085.78,-175.22 1075.2,-174.67 1083.13,-181.7 1085.78,-175.22"/>
</g>
<!-- qt&#45;main&#45;&gt;qt&#45;webengine -->
<g id="edge11" class="edge">
<title>qt&#45;main&#45;&gt;qt&#45;webengine</title>
<path fill="none" stroke="black" d="M1513.87,-222.15C1505.49,-219.96 1496.63,-217.79 1488.31,-216 1392.3,-195.37 1367.06,-196.83 1270.31,-180 1263.22,-178.77 1255.84,-177.46 1248.46,-176.14"/>
<polygon fill="black" stroke="black" points="1249.27,-172.72 1238.81,-174.39 1248.03,-179.61 1249.27,-172.72"/>
</g>
<!-- qt&#45;main&#45;&gt;gazebo -->
<g id="edge12" class="edge">
<title>qt&#45;main&#45;&gt;gazebo</title>
<path fill="none" stroke="black" d="M1513.47,-222.35C1505.19,-220.17 1496.47,-217.95 1488.31,-216 1413.62,-198.14 1390.08,-209.83 1319.31,-180 1292.73,-168.8 1292.68,-153.11 1265.31,-144 1125.52,-97.49 750.29,-118.21 603.31,-108 554.5,-104.61 499.1,-99.86 458.84,-96.24"/>
<polygon fill="black" stroke="black" points="459.17,-92.75 448.89,-95.34 458.54,-99.72 459.17,-92.75"/>
</g>
<!-- colmap -->
<g id="node10" class="node">
<title>colmap</title>
<g id="a_node10"><a xlink:href="https://github.com/conda-forge/colmap-feedstock" xlink:title="colmap">
<ellipse fill="#fde725" stroke="black" cx="248.31" cy="-162" rx="47" ry="18"/>
<text text-anchor="middle" x="248.31" y="-157.32" font-family="Times,serif" font-size="14.00">colmap</text>
</a>
</g>
</g>
<!-- qt&#45;main&#45;&gt;colmap -->
<g id="edge13" class="edge">
<title>qt&#45;main&#45;&gt;colmap</title>
<path fill="none" stroke="black" d="M1507.11,-226.26C1480.94,-222.61 1447.34,-218.39 1417.31,-216 940.77,-178.1 817.66,-230.67 342.31,-180 328.4,-178.52 313.44,-176.16 299.65,-173.68"/>
<polygon fill="black" stroke="black" points="300.34,-170.25 289.87,-171.85 299.05,-177.13 300.34,-170.25"/>
</g>
<!-- kwindowsystem -->
<g id="node11" class="node">
<title>kwindowsystem</title>
<g id="a_node11"><a xlink:href="https://github.com/conda-forge/kwindowsystem-feedstock" xlink:title="kwindowsystem">
<ellipse fill="#fde725" stroke="black" cx="1874.31" cy="-90" rx="91.19" ry="18"/>
<text text-anchor="middle" x="1874.31" y="-85.33" font-family="Times,serif" font-size="14.00">kwindowsystem</text>
</a>
</g>
</g>
<!-- qt&#45;main&#45;&gt;kwindowsystem -->
<g id="edge14" class="edge">
<title>qt&#45;main&#45;&gt;kwindowsystem</title>
<path fill="none" stroke="black" d="M1590.87,-222.38C1623.74,-212.82 1671.94,-197.6 1712.31,-180 1757.1,-160.47 1805.91,-132.69 1838.12,-113.38"/>
<polygon fill="black" stroke="black" points="1839.52,-116.63 1846.27,-108.46 1835.9,-110.64 1839.52,-116.63"/>
</g>
<!-- kglobalaccel -->
<g id="node12" class="node">
<title>kglobalaccel</title>
<g id="a_node12"><a xlink:href="https://github.com/conda-forge/kglobalaccel-feedstock" xlink:title="kglobalaccel">
<ellipse fill="#fde725" stroke="black" cx="1698.31" cy="-18" rx="72.78" ry="18"/>
<text text-anchor="middle" x="1698.31" y="-13.32" font-family="Times,serif" font-size="14.00">kglobalaccel</text>
</a>
</g>
</g>
<!-- qt&#45;main&#45;&gt;kglobalaccel -->
<g id="edge15" class="edge">
<title>qt&#45;main&#45;&gt;kglobalaccel</title>
<path fill="none" stroke="black" d="M1597.28,-226C1625.37,-219.18 1659.81,-205.84 1679.31,-180 1708.35,-141.51 1707.04,-82.44 1702.99,-47.57"/>
<polygon fill="black" stroke="black" points="1706.48,-47.27 1701.68,-37.82 1699.54,-48.19 1706.48,-47.27"/>
</g>
<!-- qt6&#45;advanced&#45;docking&#45;system -->
<g id="node13" class="node">
<title>qt6&#45;advanced&#45;docking&#45;system</title>
<g id="a_node13"><a xlink:href="https://github.com/conda-forge/qt6-advanced-docking-system-feedstock" xlink:title="qt6 advanced docking system">
<ellipse fill="#fde725" stroke="black" cx="1510.31" cy="-162" rx="159.59" ry="18"/>
<text text-anchor="middle" x="1510.31" y="-157.32" font-family="Times,serif" font-size="14.00">qt6 advanced docking system</text>
</a>
</g>
</g>
<!-- qt&#45;main&#45;&gt;qt6&#45;advanced&#45;docking&#45;system -->
<g id="edge16" class="edge">
<title>qt&#45;main&#45;&gt;qt6&#45;advanced&#45;docking&#45;system</title>
<path fill="none" stroke="black" d="M1542.14,-216.05C1537.47,-208.26 1531.8,-198.82 1526.56,-190.08"/>
<polygon fill="black" stroke="black" points="1529.6,-188.35 1521.46,-181.57 1523.6,-191.95 1529.6,-188.35"/>
</g>
<!-- adwaita&#45;qt -->
<g id="node14" class="node">
<title>adwaita&#45;qt</title>
<g id="a_node14"><a xlink:href="https://github.com/conda-forge/adwaita-qt-feedstock" xlink:title="adwaita qt">
<ellipse fill="#fde725" stroke="black" cx="1322.31" cy="-90" rx="64.36" ry="18"/>
<text text-anchor="middle" x="1322.31" y="-85.33" font-family="Times,serif" font-size="14.00">adwaita qt</text>
</a>
</g>
</g>
<!-- qt&#45;main&#45;&gt;adwaita&#45;qt -->
<g id="edge17" class="edge">
<title>qt&#45;main&#45;&gt;adwaita&#45;qt</title>
<path fill="none" stroke="black" d="M1513.42,-222.54C1505.14,-220.35 1496.44,-218.08 1488.31,-216 1423.14,-199.37 1388.16,-228.27 1341.31,-180 1325.91,-164.13 1321.67,-139.02 1320.99,-119.5"/>
<polygon fill="black" stroke="black" points="1324.49,-119.72 1320.96,-109.73 1317.49,-119.73 1324.49,-119.72"/>
</g>
<!-- qt&#45;webengine&#45;&gt;kwindowsystem -->
<g id="edge18" class="edge">
<title>qt&#45;webengine&#45;&gt;kwindowsystem</title>
<path fill="none" stroke="black" d="M1247.94,-153.61C1276.88,-150.6 1310.7,-147.11 1341.31,-144 1496.18,-128.27 1676.42,-110.45 1782.63,-100"/>
<polygon fill="black" stroke="black" points="1782.82,-103.5 1792.43,-99.04 1782.13,-96.53 1782.82,-103.5"/>
</g>
<!-- qt&#45;webengine&#45;&gt;kglobalaccel -->
<g id="edge19" class="edge">
<title>qt&#45;webengine&#45;&gt;kglobalaccel</title>
<path fill="none" stroke="black" d="M1185.81,-143.87C1197.17,-123.01 1219.38,-88.51 1249.31,-72 1310.36,-38.33 1502.9,-25.87 1615.04,-21.39"/>
<polygon fill="black" stroke="black" points="1614.93,-24.9 1624.78,-21.02 1614.66,-17.9 1614.93,-24.9"/>
</g>
<!-- kwindowsystem&#45;&gt;kglobalaccel -->
<g id="edge54" class="edge">
<title>kwindowsystem&#45;&gt;kglobalaccel</title>
<path fill="none" stroke="black" d="M1835.25,-73.46C1808.94,-63 1774.07,-49.13 1746.1,-38.01"/>
<polygon fill="black" stroke="black" points="1747.75,-34.89 1737.16,-34.45 1745.16,-41.4 1747.75,-34.89"/>
</g>
<!-- gstreamer -->
<g id="node15" class="node">
<title>gstreamer</title>
<g id="a_node15"><a xlink:href="https://github.com/conda-forge/gstreamer-feedstock" xlink:title="gstreamer">
<ellipse fill="#fde725" stroke="black" cx="1063.31" cy="-306" rx="63.31" ry="18"/>
<text text-anchor="middle" x="1063.31" y="-301.32" font-family="Times,serif" font-size="14.00">gstreamer</text>
</a>
</g>
</g>
<!-- gstreamer&#45;&gt;qt&#45;main -->
<g id="edge20" class="edge">
<title>gstreamer&#45;&gt;qt&#45;main</title>
<path fill="none" stroke="black" d="M1118.93,-297.04C1212.65,-283.62 1401.03,-256.66 1495.53,-243.13"/>
<polygon fill="black" stroke="black" points="1495.95,-246.6 1505.35,-241.72 1494.95,-239.68 1495.95,-246.6"/>
</g>
<!-- gstreamer&#45;&gt;qt&#45;webengine -->
<g id="edge21" class="edge">
<title>gstreamer&#45;&gt;qt&#45;webengine</title>
<path fill="none" stroke="black" d="M1104.88,-292.15C1124.95,-283.84 1147.59,-270.96 1161.31,-252 1173.84,-234.68 1177.57,-210.61 1178.31,-191.86"/>
<polygon fill="black" stroke="black" points="1181.81,-191.99 1178.42,-181.95 1174.81,-191.91 1181.81,-191.99"/>
</g>
<!-- gst&#45;plugins&#45;ugly -->
<g id="node16" class="node">
<title>gst&#45;plugins&#45;ugly</title>
<g id="a_node16"><a xlink:href="https://github.com/conda-forge/gst-plugins-ugly-feedstock" xlink:title="gst plugins ugly">
<ellipse fill="#fde725" stroke="black" cx="865.31" cy="-234" rx="91.72" ry="18"/>
<text text-anchor="middle" x="865.31" y="-229.32" font-family="Times,serif" font-size="14.00">gst plugins ugly</text>
</a>
</g>
</g>
<!-- gstreamer&#45;&gt;gst&#45;plugins&#45;ugly -->
<g id="edge22" class="edge">
<title>gstreamer&#45;&gt;gst&#45;plugins&#45;ugly</title>
<path fill="none" stroke="black" d="M1024.67,-291.34C994.5,-280.67 952.26,-265.74 918.84,-253.92"/>
<polygon fill="black" stroke="black" points="920.35,-250.75 909.76,-250.71 918.02,-257.35 920.35,-250.75"/>
</g>
<!-- gst&#45;plugins&#45;bad -->
<g id="node17" class="node">
<title>gst&#45;plugins&#45;bad</title>
<g id="a_node17"><a xlink:href="https://github.com/conda-forge/gst-plugins-bad-feedstock" xlink:title="gst plugins bad">
<ellipse fill="#fde725" stroke="black" cx="1063.31" cy="-234" rx="88.56" ry="18"/>
<text text-anchor="middle" x="1063.31" y="-229.32" font-family="Times,serif" font-size="14.00">gst plugins bad</text>
</a>
</g>
</g>
<!-- gstreamer&#45;&gt;gst&#45;plugins&#45;bad -->
<g id="edge23" class="edge">
<title>gstreamer&#45;&gt;gst&#45;plugins&#45;bad</title>
<path fill="none" stroke="black" d="M1063.31,-287.7C1063.31,-280.41 1063.31,-271.73 1063.31,-263.54"/>
<polygon fill="black" stroke="black" points="1066.81,-263.62 1063.31,-253.62 1059.81,-263.62 1066.81,-263.62"/>
</g>
<!-- libglu -->
<g id="node18" class="node">
<title>libglu</title>
<g id="a_node18"><a xlink:href="https://github.com/conda-forge/libglu-feedstock" xlink:title="libglu">
<ellipse fill="#fde725" stroke="black" cx="328.31" cy="-234" rx="39.63" ry="18"/>
<text text-anchor="middle" x="328.31" y="-229.32" font-family="Times,serif" font-size="14.00">libglu</text>
</a>
</g>
</g>
<!-- libglu&#45;&gt;vtk -->
<g id="edge24" class="edge">
<title>libglu&#45;&gt;vtk</title>
<path fill="none" stroke="black" d="M294.75,-223.91C266.14,-215.25 224.63,-200.49 192.31,-180 172.66,-167.54 172.96,-157.9 154.31,-144 135.29,-129.82 112.13,-116.5 93.81,-106.76"/>
<polygon fill="black" stroke="black" points="95.48,-103.68 84.99,-102.16 92.24,-109.89 95.48,-103.68"/>
</g>
<!-- libglu&#45;&gt;gazebo -->
<g id="edge25" class="edge">
<title>libglu&#45;&gt;gazebo</title>
<path fill="none" stroke="black" d="M327.66,-215.84C327.67,-197.06 329.9,-166.63 342.31,-144 348.93,-131.94 359.4,-121.28 369.76,-112.74"/>
<polygon fill="black" stroke="black" points="371.76,-115.61 377.53,-106.73 367.48,-110.08 371.76,-115.61"/>
</g>
<!-- libglu&#45;&gt;colmap -->
<g id="edge28" class="edge">
<title>libglu&#45;&gt;colmap</title>
<path fill="none" stroke="black" d="M310.56,-217.46C300.14,-208.35 286.77,-196.65 275.09,-186.43"/>
<polygon fill="black" stroke="black" points="277.54,-183.92 267.71,-179.97 272.93,-189.19 277.54,-183.92"/>
</g>
<!-- freeglut -->
<g id="node19" class="node">
<title>freeglut</title>
<g id="a_node19"><a xlink:href="https://github.com/conda-forge/freeglut-feedstock" xlink:title="freeglut">
<ellipse fill="#fde725" stroke="black" cx="402.31" cy="-162" rx="51.21" ry="18"/>
<text text-anchor="middle" x="402.31" y="-157.32" font-family="Times,serif" font-size="14.00">freeglut</text>
</a>
</g>
</g>
<!-- libglu&#45;&gt;freeglut -->
<g id="edge26" class="edge">
<title>libglu&#45;&gt;freeglut</title>
<path fill="none" stroke="black" d="M344.73,-217.46C354.21,-208.5 366.32,-197.04 376.99,-186.95"/>
<polygon fill="black" stroke="black" points="379.2,-189.68 384.06,-180.26 374.39,-184.59 379.2,-189.68"/>
</g>
<!-- fltk -->
<g id="node20" class="node">
<title>fltk</title>
<g id="a_node20"><a xlink:href="https://github.com/conda-forge/fltk-feedstock" xlink:title="fltk">
<ellipse fill="#fde725" stroke="black" cx="499.31" cy="-162" rx="27.53" ry="18"/>
<text text-anchor="middle" x="499.31" y="-157.32" font-family="Times,serif" font-size="14.00">fltk</text>
</a>
</g>
</g>
<!-- libglu&#45;&gt;fltk -->
<g id="edge27" class="edge">
<title>libglu&#45;&gt;fltk</title>
<path fill="none" stroke="black" d="M358.04,-221.77C385.32,-211.34 426.77,-195.18 462.31,-180 463.86,-179.34 465.43,-178.66 467.02,-177.96"/>
<polygon fill="black" stroke="black" points="468.41,-181.17 476.11,-173.88 465.55,-174.78 468.41,-181.17"/>
</g>
<!-- freeglut&#45;&gt;gazebo -->
<g id="edge29" class="edge">
<title>freeglut&#45;&gt;gazebo</title>
<path fill="none" stroke="black" d="M402.31,-143.7C402.31,-136.41 402.31,-127.73 402.31,-119.54"/>
<polygon fill="black" stroke="black" points="405.81,-119.62 402.31,-109.62 398.81,-119.62 405.81,-119.62"/>
</g>
<!-- mesalib -->
<g id="node21" class="node">
<title>mesalib</title>
<g id="a_node21"><a xlink:href="https://github.com/conda-forge/mesalib-feedstock" xlink:title="mesalib">
<ellipse fill="#fde725" stroke="black" cx="83.31" cy="-306" rx="50.16" ry="18"/>
<text text-anchor="middle" x="83.31" y="-301.32" font-family="Times,serif" font-size="14.00">mesalib</text>
</a>
</g>
</g>
<!-- mesalib&#45;&gt;vtk -->
<g id="edge30" class="edge">
<title>mesalib&#45;&gt;vtk</title>
<path fill="none" stroke="black" d="M74.65,-288.25C60.66,-259.17 35.5,-197.35 44.31,-144 45.71,-135.53 48.29,-126.59 51.06,-118.52"/>
<polygon fill="black" stroke="black" points="54.31,-119.83 54.49,-109.24 47.74,-117.41 54.31,-119.83"/>
</g>
<!-- xorg&#45;libx11 -->
<g id="node22" class="node">
<title>xorg&#45;libx11</title>
<g id="a_node22"><a xlink:href="https://github.com/conda-forge/xorg-libx11-feedstock/pull/39" xlink:title="xorg libx11 ❎">
<ellipse fill="#31688e" stroke="black" cx="650.31" cy="-378" rx="83.3" ry="18"/>
<text text-anchor="middle" x="650.31" y="-373.32" font-family="Times,serif" font-size="14.00" fill="white">xorg libx11 ❎</text>
</a>
</g>
</g>
<!-- xorg&#45;libx11&#45;&gt;cairo -->
<g id="edge31" class="edge">
<title>xorg&#45;libx11&#45;&gt;cairo</title>
<path fill="none" stroke="black" d="M723.56,-369.04C857.31,-354.5 1137.48,-324.05 1248.03,-312.03"/>
<polygon fill="black" stroke="black" points="1248.36,-315.52 1257.92,-310.96 1247.6,-308.56 1248.36,-315.52"/>
</g>
<!-- xorg&#45;libx11&#45;&gt;ffmpeg -->
<g id="edge32" class="edge">
<title>xorg&#45;libx11&#45;&gt;ffmpeg</title>
<path fill="none" stroke="black" d="M567.16,-376.18C495.12,-372.72 389.52,-360.96 305.31,-324 234.95,-293.12 231.11,-262.99 170.31,-216 157.02,-205.73 142.16,-194.58 129.48,-185.17"/>
<polygon fill="black" stroke="black" points="131.6,-182.39 121.48,-179.26 127.44,-188.02 131.6,-182.39"/>
</g>
<!-- xorg&#45;libx11&#45;&gt;gnuplot -->
<g id="edge33" class="edge">
<title>xorg&#45;libx11&#45;&gt;gnuplot</title>
<path fill="none" stroke="black" d="M661.94,-359.69C668.56,-349.51 676.81,-336.26 683.31,-324 707.92,-277.59 690.83,-249.47 731.31,-216 756.82,-194.9 842.43,-179.13 900.91,-170.49"/>
<polygon fill="black" stroke="black" points="901.32,-173.96 910.72,-169.07 900.32,-167.03 901.32,-173.96"/>
</g>
<!-- xorg&#45;libx11&#45;&gt;lyx -->
<g id="edge34" class="edge">
<title>xorg&#45;libx11&#45;&gt;lyx</title>
<path fill="none" stroke="black" d="M670.19,-360.07C681.04,-350.21 694.28,-337.17 704.31,-324 737.58,-280.32 719.07,-247.12 764.31,-216 857.89,-151.63 908.52,-212.61 1017.31,-180 1018.93,-179.52 1020.56,-178.97 1022.19,-178.38"/>
<polygon fill="black" stroke="black" points="1023.5,-181.63 1031.39,-174.56 1020.82,-175.16 1023.5,-181.63"/>
</g>
<!-- xorg&#45;libx11&#45;&gt;qt&#45;main -->
<g id="edge35" class="edge">
<title>xorg&#45;libx11&#45;&gt;qt&#45;main</title>
<path fill="none" stroke="black" d="M733.4,-375.76C932.16,-372.21 1423.41,-359.9 1488.31,-324 1512.85,-310.43 1530.34,-283 1540.77,-262.16"/>
<polygon fill="black" stroke="black" points="1543.83,-263.88 1544.93,-253.34 1537.5,-260.89 1543.83,-263.88"/>
</g>
<!-- xorg&#45;libx11&#45;&gt;qt&#45;webengine -->
<g id="edge36" class="edge">
<title>xorg&#45;libx11&#45;&gt;qt&#45;webengine</title>
<path fill="none" stroke="black" d="M733.75,-376.43C892.24,-374.4 1230.72,-365.2 1339.31,-324 1388.84,-305.21 1410.74,-299.44 1434.31,-252 1441.43,-237.67 1444.42,-228.4 1434.31,-216 1433.55,-215.07 1321.87,-192.28 1246,-176.9"/>
<polygon fill="black" stroke="black" points="1247.06,-173.54 1236.57,-174.98 1245.67,-180.4 1247.06,-173.54"/>
</g>
<!-- xorg&#45;libx11&#45;&gt;vtk -->
<g id="edge37" class="edge">
<title>xorg&#45;libx11&#45;&gt;vtk</title>
<path fill="none" stroke="black" d="M567.06,-376.08C405.11,-373.42 60.31,-363.18 24.31,-324 -28.8,-266.2 18.82,-164.48 46.18,-116.9"/>
<polygon fill="black" stroke="black" points="49.14,-118.77 51.22,-108.38 43.12,-115.21 49.14,-118.77"/>
</g>
<!-- xorg&#45;libx11&#45;&gt;gazebo -->
<g id="edge38" class="edge">
<title>xorg&#45;libx11&#45;&gt;gazebo</title>
<path fill="none" stroke="black" d="M633.28,-360C624.09,-350.13 613.07,-337.08 605.31,-324 561.63,-250.3 596.57,-204.9 536.31,-144 514.51,-121.96 482.41,-108.84 455.1,-101.17"/>
<polygon fill="black" stroke="black" points="456.14,-97.82 445.58,-98.68 454.37,-104.6 456.14,-97.82"/>
</g>
<!-- xorg&#45;libx11&#45;&gt;colmap -->
<g id="edge45" class="edge">
<title>xorg&#45;libx11&#45;&gt;colmap</title>
<path fill="none" stroke="black" d="M570.55,-372.49C512.26,-366.74 432.52,-353.68 368.31,-324 322.13,-302.65 308.58,-293.62 279.31,-252 266.51,-233.8 258.56,-209.82 253.92,-191.34"/>
<polygon fill="black" stroke="black" points="257.39,-190.8 251.73,-181.85 250.57,-192.38 257.39,-190.8"/>
</g>
<!-- xorg&#45;libx11&#45;&gt;kwindowsystem -->
<g id="edge48" class="edge">
<title>xorg&#45;libx11&#45;&gt;kwindowsystem</title>
<path fill="none" stroke="black" d="M733.16,-375.7C989.01,-371.34 1751.98,-355.73 1794.31,-324 1859.28,-275.3 1871.89,-170.69 1874.06,-119.88"/>
<polygon fill="black" stroke="black" points="1877.56,-120.09 1874.36,-109.98 1870.56,-119.87 1877.56,-120.09"/>
</g>
<!-- xorg&#45;libx11&#45;&gt;kglobalaccel -->
<g id="edge49" class="edge">
<title>xorg&#45;libx11&#45;&gt;kglobalaccel</title>
<path fill="none" stroke="black" d="M651.07,-359.97C653.4,-327.61 662.99,-256.84 702.31,-216 734.64,-182.42 854.66,-157.36 899.31,-144 1033.16,-103.95 1067.59,-95.51 1205.31,-72 1349.58,-47.37 1519.67,-32.08 1617.65,-24.58"/>
<polygon fill="black" stroke="black" points="1617.73,-28.09 1627.44,-23.85 1617.2,-21.11 1617.73,-28.09"/>
</g>
<!-- xorg&#45;libx11&#45;&gt;gstreamer -->
<g id="edge39" class="edge">
<title>xorg&#45;libx11&#45;&gt;gstreamer</title>
<path fill="none" stroke="black" d="M714.39,-366.14C791.81,-353.02 921.3,-331.07 998.88,-317.92"/>
<polygon fill="black" stroke="black" points="999.17,-321.42 1008.44,-316.3 998,-314.52 999.17,-321.42"/>
</g>
<!-- xorg&#45;libx11&#45;&gt;gst&#45;plugins&#45;ugly -->
<g id="edge40" class="edge">
<title>xorg&#45;libx11&#45;&gt;gst&#45;plugins&#45;ugly</title>
<path fill="none" stroke="black" d="M687.87,-361.49C709.47,-351.91 736.72,-338.66 759.31,-324 788.77,-304.89 819.13,-278.6 839.77,-259.55"/>
<polygon fill="black" stroke="black" points="841.97,-262.29 846.89,-252.91 837.19,-257.17 841.97,-262.29"/>
</g>
<!-- xorg&#45;libx11&#45;&gt;gst&#45;plugins&#45;bad -->
<g id="edge41" class="edge">
<title>xorg&#45;libx11&#45;&gt;gst&#45;plugins&#45;bad</title>
<path fill="none" stroke="black" d="M693.34,-362.21C768.97,-336.2 925.58,-282.36 1008.71,-253.77"/>
<polygon fill="black" stroke="black" points="1009.7,-257.14 1018.01,-250.57 1007.42,-250.52 1009.7,-257.14"/>
</g>
<!-- xorg&#45;libx11&#45;&gt;libglu -->
<g id="edge42" class="edge">
<title>xorg&#45;libx11&#45;&gt;libglu</title>
<path fill="none" stroke="black" d="M573.82,-370.49C526.39,-363.88 465.52,-350.62 417.31,-324 388.91,-308.32 363.51,-280.88 347.19,-260.61"/>
<polygon fill="black" stroke="black" points="349.99,-258.51 341.07,-252.78 344.47,-262.82 349.99,-258.51"/>
</g>
<!-- xorg&#45;libx11&#45;&gt;freeglut -->
<g id="edge43" class="edge">
<title>xorg&#45;libx11&#45;&gt;freeglut</title>
<path fill="none" stroke="black" d="M597.36,-363.82C571.1,-355.45 540.02,-342.62 516.31,-324 469.2,-287.01 433.25,-225.41 415.2,-190.09"/>
<polygon fill="black" stroke="black" points="418.45,-188.78 410.86,-181.39 412.19,-191.9 418.45,-188.78"/>
</g>
<!-- xorg&#45;libx11&#45;&gt;fltk -->
<g id="edge44" class="edge">
<title>xorg&#45;libx11&#45;&gt;fltk</title>
<path fill="none" stroke="black" d="M600.67,-363.18C579.59,-354.98 556.45,-342.47 541.31,-324 509.94,-285.73 501.75,-226.59 499.76,-191.64"/>
<polygon fill="black" stroke="black" points="503.27,-191.72 499.35,-181.88 496.27,-192.01 503.27,-191.72"/>
</g>
<!-- xorg&#45;libx11&#45;&gt;mesalib -->
<g id="edge46" class="edge">
<title>xorg&#45;libx11&#45;&gt;mesalib</title>
<path fill="none" stroke="black" d="M571.88,-371.65C473.92,-364.27 301.42,-348.97 155.31,-324 148.42,-322.82 141.2,-321.37 134.1,-319.83"/>
<polygon fill="black" stroke="black" points="135.12,-316.47 124.59,-317.67 133.57,-323.3 135.12,-316.47"/>
</g>
<!-- libva -->
<g id="node23" class="node">
<title>libva</title>
<g id="a_node23"><a xlink:href="https://github.com/conda-forge/libva-feedstock" xlink:title="libva">
<ellipse fill="#fde725" stroke="black" cx="126.31" cy="-234" rx="35.42" ry="18"/>
<text text-anchor="middle" x="126.31" y="-229.32" font-family="Times,serif" font-size="14.00">libva</text>
</a>
</g>
</g>
<!-- xorg&#45;libx11&#45;&gt;libva -->
<g id="edge47" class="edge">
<title>xorg&#45;libx11&#45;&gt;libva</title>
<path fill="none" stroke="black" d="M568.48,-374.41C456.9,-369.68 263.87,-356.91 202.31,-324 175.79,-309.82 154.54,-282.29 141.32,-261.59"/>
<polygon fill="black" stroke="black" points="144.31,-259.77 136.11,-253.07 138.34,-263.42 144.31,-259.77"/>
</g>
<!-- vulkan&#45;loader -->
<g id="node24" class="node">
<title>vulkan&#45;loader</title>
<g id="a_node24"><a xlink:href="https://github.com/conda-forge/vulkan-loader-feedstock" xlink:title="vulkan loader">
<ellipse fill="#fde725" stroke="black" cx="662.31" cy="-162" rx="79.09" ry="18"/>
<text text-anchor="middle" x="662.31" y="-157.32" font-family="Times,serif" font-size="14.00">vulkan loader</text>
</a>
</g>
</g>
<!-- xorg&#45;libx11&#45;&gt;vulkan&#45;loader -->
<g id="edge50" class="edge">
<title>xorg&#45;libx11&#45;&gt;vulkan&#45;loader</title>
<path fill="none" stroke="black" d="M636.33,-360.04C629.12,-350.18 621.07,-337.13 617.31,-324 604.12,-277.85 600.76,-261.06 617.31,-216 621.1,-205.68 627.89,-196 635.06,-187.8"/>
<polygon fill="black" stroke="black" points="637.51,-190.31 641.83,-180.64 632.42,-185.5 637.51,-190.31"/>
</g>
<!-- vulkan&#45;tools -->
<g id="node25" class="node">
<title>vulkan&#45;tools</title>
<g id="a_node25"><a xlink:href="https://github.com/conda-forge/vulkan-tools-feedstock" xlink:title="vulkan tools">
<ellipse fill="#fde725" stroke="black" cx="684.31" cy="-90" rx="71.73" ry="18"/>
<text text-anchor="middle" x="684.31" y="-85.33" font-family="Times,serif" font-size="14.00">vulkan tools</text>
</a>
</g>
</g>
<!-- xorg&#45;libx11&#45;&gt;vulkan&#45;tools -->
<g id="edge51" class="edge">
<title>xorg&#45;libx11&#45;&gt;vulkan&#45;tools</title>
<path fill="none" stroke="black" d="M645.11,-359.54C636.77,-327.7 624.29,-259.48 655.31,-216 681.54,-179.25 724.66,-217.16 750.31,-180 759.4,-166.83 757.23,-158.43 750.31,-144 744.46,-131.8 734.29,-121.53 723.66,-113.37"/>
<polygon fill="black" stroke="black" points="725.71,-110.53 715.53,-107.62 721.67,-116.25 725.71,-110.53"/>
</g>
<!-- nsight&#45;compute -->
<g id="node26" class="node">
<title>nsight&#45;compute</title>
<g id="a_node26"><a xlink:href="https://github.com/conda-forge/nsight-compute-feedstock" xlink:title="nsight compute">
<ellipse fill="#fde725" stroke="black" cx="2060.31" cy="-162" rx="89.09" ry="18"/>
<text text-anchor="middle" x="2060.31" y="-157.32" font-family="Times,serif" font-size="14.00">nsight compute</text>
</a>
</g>
</g>
<!-- xorg&#45;libx11&#45;&gt;nsight&#45;compute -->
<g id="edge52" class="edge">
<title>xorg&#45;libx11&#45;&gt;nsight&#45;compute</title>
<path fill="none" stroke="black" d="M733.77,-376.51C1023.41,-374.47 1970.3,-364.69 2020.31,-324 2059.35,-292.24 2063.73,-228.82 2062.58,-191.76"/>
<polygon fill="black" stroke="black" points="2066.08,-191.62 2062.09,-181.8 2059.09,-191.96 2066.08,-191.62"/>
</g>
<!-- libva&#45;&gt;ffmpeg -->
<g id="edge53" class="edge">
<title>libva&#45;&gt;ffmpeg</title>
<path fill="none" stroke="black" d="M119.78,-216.05C116.87,-208.52 113.37,-199.44 110.09,-190.94"/>
<polygon fill="black" stroke="black" points="113.38,-189.76 106.52,-181.69 106.85,-192.28 113.38,-189.76"/>
</g>
<!-- vulkan&#45;loader&#45;&gt;vulkan&#45;tools -->
<g id="edge55" class="edge">
<title>vulkan&#45;loader&#45;&gt;vulkan&#45;tools</title>
<path fill="none" stroke="black" d="M667.75,-143.7C670.09,-136.24 672.9,-127.32 675.52,-118.97"/>
<polygon fill="black" stroke="black" points="678.82,-120.14 678.48,-109.55 672.14,-118.04 678.82,-120.14"/>
</g>
<!-- xcb&#45;util&#45;keysyms -->
<g id="node27" class="node">
<title>xcb&#45;util&#45;keysyms</title>
<g id="a_node27"><a xlink:href="https://github.com/conda-forge/xcb-util-keysyms-feedstock/pull/5" xlink:title="xcb util keysyms ✓">
<ellipse fill="#31688e" stroke="black" cx="1682.31" cy="-306" rx="102.77" ry="18"/>
<text text-anchor="middle" x="1682.31" y="-301.32" font-family="Times,serif" font-size="14.00" fill="white">xcb util keysyms ✓</text>
</a>
</g>
</g>
<!-- xcb&#45;util&#45;keysyms&#45;&gt;qt&#45;main -->
<g id="edge56" class="edge">
<title>xcb&#45;util&#45;keysyms&#45;&gt;qt&#45;main</title>
<path fill="none" stroke="black" d="M1651.5,-288.41C1632.92,-278.4 1609.12,-265.59 1589.49,-255.02"/>
<polygon fill="black" stroke="black" points="1591.17,-251.95 1580.7,-250.29 1587.85,-258.11 1591.17,-251.95"/>
</g>
<!-- xcb&#45;util&#45;keysyms&#45;&gt;kwindowsystem -->
<g id="edge57" class="edge">
<title>xcb&#45;util&#45;keysyms&#45;&gt;kwindowsystem</title>
<path fill="none" stroke="black" d="M1729.55,-289.6C1749.71,-281.11 1772.25,-268.81 1788.31,-252 1824.6,-214.02 1810.21,-189.58 1836.31,-144 1841.49,-134.96 1847.85,-125.57 1853.88,-117.26"/>
<polygon fill="black" stroke="black" points="1856.65,-119.4 1859.81,-109.28 1851.03,-115.22 1856.65,-119.4"/>
</g>
<!-- xcb&#45;util&#45;keysyms&#45;&gt;kglobalaccel -->
<g id="edge58" class="edge">
<title>xcb&#45;util&#45;keysyms&#45;&gt;kglobalaccel</title>
<path fill="none" stroke="black" d="M1688.94,-287.7C1702.92,-248.96 1732.96,-152.33 1718.31,-72 1716.78,-63.58 1713.97,-54.77 1710.94,-46.79"/>
<polygon fill="black" stroke="black" points="1714.22,-45.54 1707.19,-37.61 1707.74,-48.19 1714.22,-45.54"/>
</g>
<!-- xcb&#45;util&#45;keysyms&#45;&gt;nsight&#45;compute -->
<g id="edge59" class="edge">
<title>xcb&#45;util&#45;keysyms&#45;&gt;nsight&#45;compute</title>
<path fill="none" stroke="black" d="M1725.52,-289.23C1754.14,-278.76 1792.5,-264.65 1826.31,-252 1889.57,-228.33 1962.25,-200.6 2009.61,-182.47"/>
<polygon fill="black" stroke="black" points="2010.7,-185.8 2018.78,-178.95 2008.19,-179.26 2010.7,-185.8"/>
</g>
<!-- xcb&#45;util -->
<g id="node28" class="node">
<title>xcb&#45;util</title>
<g id="a_node28"><a xlink:href="https://github.com/conda-forge/xcb-util-feedstock/pull/3" xlink:title="xcb util ❎">
<ellipse fill="#31688e" stroke="black" cx="2402.31" cy="-378" rx="63.84" ry="18"/>
<text text-anchor="middle" x="2402.31" y="-373.32" font-family="Times,serif" font-size="14.00" fill="white">xcb util ❎</text>
</a>
</g>
</g>
<!-- xcb&#45;util&#45;&gt;qt&#45;main -->
<g id="edge60" class="edge">
<title>xcb&#45;util&#45;&gt;qt&#45;main</title>
<path fill="none" stroke="black" d="M2338.25,-377.32C2153.25,-377.64 1627.7,-374.08 1570.31,-324 1553.51,-309.34 1549.78,-283.71 1549.81,-263.71"/>
<polygon fill="black" stroke="black" points="1553.3,-264.05 1550.15,-253.93 1546.3,-263.8 1553.3,-264.05"/>
</g>
<!-- xcb&#45;util&#45;&gt;kwindowsystem -->
<g id="edge61" class="edge">
<title>xcb&#45;util&#45;&gt;kwindowsystem</title>
<path fill="none" stroke="black" d="M2443.29,-363.92C2462.04,-355.64 2482.47,-342.86 2493.31,-324 2501.29,-310.13 2502.11,-301.36 2493.31,-288 2404.17,-152.66 2313.36,-191.15 2158.31,-144 2093.42,-124.26 2017.83,-110.59 1960.96,-102.08"/>
<polygon fill="black" stroke="black" points="1961.75,-98.66 1951.34,-100.67 1960.73,-105.58 1961.75,-98.66"/>
</g>
<!-- xcb&#45;util&#45;image -->
<g id="node29" class="node">
<title>xcb&#45;util&#45;image</title>
<g id="a_node29"><a xlink:href="https://github.com/conda-forge/xcb-util-image-feedstock" xlink:title="xcb util image">
<ellipse fill="#fde725" stroke="black" cx="2402.31" cy="-306" rx="82.25" ry="18"/>
<text text-anchor="middle" x="2402.31" y="-301.32" font-family="Times,serif" font-size="14.00">xcb util image</text>
</a>
</g>
</g>
<!-- xcb&#45;util&#45;&gt;xcb&#45;util&#45;image -->
<g id="edge62" class="edge">
<title>xcb&#45;util&#45;&gt;xcb&#45;util&#45;image</title>
<path fill="none" stroke="black" d="M2402.31,-359.7C2402.31,-352.41 2402.31,-343.73 2402.31,-335.54"/>
<polygon fill="black" stroke="black" points="2405.81,-335.62 2402.31,-325.62 2398.81,-335.62 2405.81,-335.62"/>
</g>
<!-- xcb&#45;util&#45;image&#45;&gt;qt&#45;main -->
<g id="edge63" class="edge">
<title>xcb&#45;util&#45;image&#45;&gt;qt&#45;main</title>
<path fill="none" stroke="black" d="M2343.57,-293.12C2332.55,-291.19 2321.11,-289.37 2310.31,-288 2052.11,-255.22 1741.68,-241.49 1612.88,-236.91"/>
<polygon fill="black" stroke="black" points="1613.35,-233.43 1603.23,-236.58 1613.1,-240.42 1613.35,-233.43"/>
</g>
<!-- xcb&#45;util&#45;image&#45;&gt;nsight&#45;compute -->
<g id="edge64" class="edge">
<title>xcb&#45;util&#45;image&#45;&gt;nsight&#45;compute</title>
<path fill="none" stroke="black" d="M2384.7,-288.28C2362.55,-268.16 2322.51,-234.74 2282.31,-216 2238.88,-195.75 2186.93,-182.8 2144.22,-174.78"/>
<polygon fill="black" stroke="black" points="2144.95,-171.36 2134.49,-173.02 2143.7,-178.25 2144.95,-171.36"/>
</g>
<!-- xcb&#45;util&#45;cursor -->
<g id="node30" class="node">
<title>xcb&#45;util&#45;cursor</title>
<g id="a_node30"><a xlink:href="https://github.com/conda-forge/xcb-util-cursor-feedstock" xlink:title="xcb util cursor">
<ellipse fill="#fde725" stroke="black" cx="2189.31" cy="-234" rx="83.83" ry="18"/>
<text text-anchor="middle" x="2189.31" y="-229.32" font-family="Times,serif" font-size="14.00">xcb util cursor</text>
</a>
</g>
</g>
<!-- xcb&#45;util&#45;image&#45;&gt;xcb&#45;util&#45;cursor -->
<g id="edge65" class="edge">
<title>xcb&#45;util&#45;image&#45;&gt;xcb&#45;util&#45;cursor</title>
<path fill="none" stroke="black" d="M2357.92,-290.41C2324.88,-279.55 2279.59,-264.67 2244.26,-253.06"/>
<polygon fill="black" stroke="black" points="2245.68,-249.84 2235.08,-250.04 2243.49,-256.49 2245.68,-249.84"/>
</g>
<!-- xcb&#45;util&#45;cursor&#45;&gt;nsight&#45;compute -->
<g id="edge69" class="edge">
<title>xcb&#45;util&#45;cursor&#45;&gt;nsight&#45;compute</title>
<path fill="none" stroke="black" d="M2159.39,-216.76C2141.85,-207.25 2119.47,-195.1 2100.42,-184.76"/>
<polygon fill="black" stroke="black" points="2102.3,-181.8 2091.85,-180.11 2098.97,-187.96 2102.3,-181.8"/>
</g>
<!-- xcb&#45;util&#45;wm -->
<g id="node31" class="node">
<title>xcb&#45;util&#45;wm</title>
<g id="a_node31"><a xlink:href="https://github.com/conda-forge/xcb-util-wm-feedstock/pull/3" xlink:title="xcb util wm ❎">
<ellipse fill="#31688e" stroke="black" cx="1926.31" cy="-306" rx="84.88" ry="18"/>
<text text-anchor="middle" x="1926.31" y="-301.32" font-family="Times,serif" font-size="14.00" fill="white">xcb util wm ❎</text>
</a>
</g>
</g>
<!-- xcb&#45;util&#45;wm&#45;&gt;qt&#45;main -->
<g id="edge66" class="edge">
<title>xcb&#45;util&#45;wm&#45;&gt;qt&#45;main</title>
<path fill="none" stroke="black" d="M1864.13,-293.36C1792.22,-279.9 1674.98,-257.96 1606.59,-245.16"/>
<polygon fill="black" stroke="black" points="1607.6,-241.79 1597.13,-243.39 1606.32,-248.67 1607.6,-241.79"/>
</g>
<!-- xcb&#45;util&#45;wm&#45;&gt;kwindowsystem -->
<g id="edge67" class="edge">
<title>xcb&#45;util&#45;wm&#45;&gt;kwindowsystem</title>
<path fill="none" stroke="black" d="M1922.14,-287.85C1913.21,-251.07 1892.12,-164.29 1881.17,-119.24"/>
<polygon fill="black" stroke="black" points="1884.62,-118.59 1878.86,-109.7 1877.82,-120.25 1884.62,-118.59"/>
</g>
<!-- xcb&#45;util&#45;wm&#45;&gt;nsight&#45;compute -->
<g id="edge68" class="edge">
<title>xcb&#45;util&#45;wm&#45;&gt;nsight&#45;compute</title>
<path fill="none" stroke="black" d="M1942.48,-287.87C1965.82,-263.14 2009.13,-217.24 2036.24,-188.51"/>
<polygon fill="black" stroke="black" points="2038.73,-190.97 2043.05,-181.29 2033.64,-186.16 2038.73,-190.97"/>
</g>
<!-- xcb&#45;util&#45;renderutil -->
<g id="node32" class="node">
<title>xcb&#45;util&#45;renderutil</title>
<g id="a_node32"><a xlink:href="https://github.com/conda-forge/xcb-util-renderutil-feedstock/pull/6" xlink:title="xcb util renderutil ❎">
<ellipse fill="#31688e" stroke="black" cx="2184.31" cy="-306" rx="117.5" ry="18"/>
<text text-anchor="middle" x="2184.31" y="-301.32" font-family="Times,serif" font-size="14.00" fill="white">xcb util renderutil ❎</text>
</a>
</g>
</g>
<!-- xcb&#45;util&#45;renderutil&#45;&gt;qt&#45;main -->
<g id="edge70" class="edge">
<title>xcb&#45;util&#45;renderutil&#45;&gt;qt&#45;main</title>
<path fill="none" stroke="black" d="M2091.06,-294.67C1958.74,-280.02 1720.4,-253.62 1610.6,-241.46"/>
<polygon fill="black" stroke="black" points="1611.26,-238.01 1600.94,-240.39 1610.49,-244.97 1611.26,-238.01"/>
</g>
<!-- xcb&#45;util&#45;renderutil&#45;&gt;nsight&#45;compute -->
<g id="edge71" class="edge">
<title>xcb&#45;util&#45;renderutil&#45;&gt;nsight&#45;compute</title>
<path fill="none" stroke="black" d="M2145.75,-288.67C2128.74,-279.88 2109.63,-267.6 2096.31,-252 2081.44,-234.57 2072.16,-210.2 2066.75,-191.36"/>
<polygon fill="black" stroke="black" points="2070.2,-190.7 2064.26,-181.93 2063.43,-192.49 2070.2,-190.7"/>
</g>
<!-- xcb&#45;util&#45;renderutil&#45;&gt;xcb&#45;util&#45;cursor -->
<g id="edge72" class="edge">
<title>xcb&#45;util&#45;renderutil&#45;&gt;xcb&#45;util&#45;cursor</title>
<path fill="none" stroke="black" d="M2185.55,-287.7C2186.07,-280.41 2186.69,-271.73 2187.27,-263.54"/>
<polygon fill="black" stroke="black" points="2190.76,-263.84 2187.98,-253.61 2183.78,-263.34 2190.76,-263.84"/>
</g>
</g>
</svg>
