<?xml version="1.0" encoding="UTF-8" standalone="no"?>
<!DOCTYPE svg PUBLIC "-//W3C//DTD SVG 1.1//EN"
 "http://www.w3.org/Graphics/SVG/1.1/DTD/svg11.dtd">
<!-- Generated by graphviz version 11.0.0 (20240519.1550)
 -->
<!-- Pages: 1 -->
<svg width="924pt" height="404pt"
 viewBox="0.00 0.00 923.61 404.00" xmlns="http://www.w3.org/2000/svg" xmlns:xlink="http://www.w3.org/1999/xlink">
<g id="graph0" class="graph" transform="scale(1 1) rotate(0) translate(4 400)">
<polygon fill="white" stroke="none" points="-4,4 -4,-400 919.61,-400 919.61,4 -4,4"/>
<!-- gnuplot -->
<g id="node1" class="node">
<title>gnuplot</title>
<g id="a_node1"><a xlink:href="https://github.com/conda-forge/gnuplot-feedstock" xlink:title="gnuplot">
<ellipse fill="#fde725" stroke="black" cx="49.63" cy="-306" rx="49.63" ry="18"/>
<text text-anchor="middle" x="49.63" y="-301.32" font-family="Times,serif" font-size="14.00">gnuplot</text>
</a>
</g>
</g>
<!-- vtk -->
<g id="node2" class="node">
<title>vtk</title>
<g id="a_node2"><a xlink:href="https://github.com/conda-forge/vtk-feedstock" xlink:title="vtk">
<ellipse fill="#000000" stroke="black" cx="818.63" cy="-270" rx="27.01" ry="18"/>
<text text-anchor="middle" x="818.63" y="-265.32" font-family="Times,serif" font-size="14.00" fill="white">vtk</text>
</a>
</g>
</g>
<!-- fltk -->
<g id="node3" class="node">
<title>fltk</title>
<g id="a_node3"><a xlink:href="https://github.com/conda-forge/fltk-feedstock/pull/26" xlink:title="fltk ✓">
<ellipse fill="#31688e" stroke="black" cx="818.63" cy="-198" rx="35.42" ry="18"/>
<text text-anchor="middle" x="818.63" y="-193.32" font-family="Times,serif" font-size="14.00" fill="white">fltk ✓</text>
</a>
</g>
</g>
<!-- vtk&#45;&gt;fltk -->
<!-- nsight&#45;compute -->
<g id="node4" class="node">
<title>nsight&#45;compute</title>
<g id="a_node4"><a xlink:href="https://github.com/conda-forge/nsight-compute-feedstock/pull/27" xlink:title="nsight compute ✓">
<ellipse fill="#31688e" stroke="black" cx="818.63" cy="-126" rx="96.98" ry="18"/>
<text text-anchor="middle" x="818.63" y="-121.33" font-family="Times,serif" font-size="14.00" fill="white">nsight compute ✓</text>
</a>
</g>
</g>
<!-- fltk&#45;&gt;nsight&#45;compute -->
<!-- gazebo -->
<g id="node5" class="node">
<title>gazebo</title>
<g id="a_node5"><a xlink:href="https://github.com/conda-forge/gazebo-feedstock" xlink:title="gazebo">
<ellipse fill="#fde725" stroke="black" cx="109.63" cy="-234" rx="46.47" ry="18"/>
<text text-anchor="middle" x="109.63" y="-229.32" font-family="Times,serif" font-size="14.00">gazebo</text>
</a>
</g>
</g>
<!-- kwindowsystem -->
<g id="node6" class="node">
<title>kwindowsystem</title>
<g id="a_node6"><a xlink:href="https://github.com/conda-forge/kwindowsystem-feedstock" xlink:title="kwindowsystem">
<ellipse fill="#fde725" stroke="black" cx="302.63" cy="-234" rx="91.19" ry="18"/>
<text text-anchor="middle" x="302.63" y="-229.32" font-family="Times,serif" font-size="14.00">kwindowsystem</text>
</a>
</g>
</g>
<!-- kglobalaccel -->
<g id="node7" class="node">
<title>kglobalaccel</title>
<g id="a_node7"><a xlink:href="https://github.com/conda-forge/kglobalaccel-feedstock" xlink:title="kglobalaccel">
<ellipse fill="#fde725" stroke="black" cx="396.63" cy="-162" rx="72.78" ry="18"/>
<text text-anchor="middle" x="396.63" y="-157.32" font-family="Times,serif" font-size="14.00">kglobalaccel</text>
</a>
</g>
</g>
<!-- kwindowsystem&#45;&gt;kglobalaccel -->
<g id="edge3" class="edge">
<title>kwindowsystem&#45;&gt;kglobalaccel</title>
<path fill="none" stroke="black" d="M324.91,-216.41C336.96,-207.43 352.06,-196.19 365.28,-186.34"/>
<polygon fill="black" stroke="black" points="367.37,-189.15 373.3,-180.37 363.19,-183.54 367.37,-189.15"/>
</g>
<!-- lyx -->
<g id="node8" class="node">
<title>lyx</title>
<g id="a_node8"><a xlink:href="https://github.com/conda-forge/lyx-feedstock" xlink:title="lyx">
<ellipse fill="#fde725" stroke="black" cx="183.63" cy="-162" rx="27" ry="18"/>
<text text-anchor="middle" x="183.63" y="-157.32" font-family="Times,serif" font-size="14.00">lyx</text>
</a>
</g>
</g>
<!-- colmap -->
<g id="node9" class="node">
<title>colmap</title>
<g id="a_node9"><a xlink:href="https://github.com/conda-forge/colmap-feedstock" xlink:title="colmap">
<ellipse fill="#fde725" stroke="black" cx="478.63" cy="-90" rx="47" ry="18"/>
<text text-anchor="middle" x="478.63" y="-85.33" font-family="Times,serif" font-size="14.00">colmap</text>
</a>
</g>
</g>
<!-- qt&#45;main -->
<g id="node10" class="node">
<title>qt&#45;main</title>
<g id="a_node10"><a xlink:href="https://github.com/conda-forge/qt-main-feedstock/pull/269" xlink:title="qt main ❎">
<ellipse fill="#31688e" stroke="black" cx="352.63" cy="-378" rx="64.89" ry="18"/>
<text text-anchor="middle" x="352.63" y="-373.32" font-family="Times,serif" font-size="14.00" fill="white">qt main ❎</text>
</a>
</g>
</g>
<!-- qt&#45;main&#45;&gt;gnuplot -->
<g id="edge4" class="edge">
<title>qt&#45;main&#45;&gt;gnuplot</title>
<path fill="none" stroke="black" d="M302.13,-366.44C253.66,-356.15 178.46,-339.79 113.63,-324 109.04,-322.88 104.28,-321.69 99.52,-320.47"/>
<polygon fill="black" stroke="black" points="100.51,-317.11 89.95,-317.98 98.75,-323.88 100.51,-317.11"/>
</g>
<!-- qt&#45;main&#45;&gt;gazebo -->
<g id="edge5" class="edge">
<title>qt&#45;main&#45;&gt;gazebo</title>
<path fill="none" stroke="black" d="M293.24,-370.37C255,-363.7 205.85,-350.4 169.63,-324 148.03,-308.26 131.8,-282.22 121.7,-262.36"/>
<polygon fill="black" stroke="black" points="124.89,-260.91 117.38,-253.43 118.58,-263.96 124.89,-260.91"/>
</g>
<!-- qt&#45;main&#45;&gt;kwindowsystem -->
<g id="edge6" class="edge">
<title>qt&#45;main&#45;&gt;kwindowsystem</title>
<path fill="none" stroke="black" d="M312.97,-363.58C294.82,-355.23 275.07,-342.48 264.63,-324 253.09,-303.57 265.45,-278.95 279.07,-260.78"/>
<polygon fill="black" stroke="black" points="281.7,-263.09 285.23,-253.11 276.24,-258.71 281.7,-263.09"/>
</g>
<!-- qt&#45;main&#45;&gt;kglobalaccel -->
<g id="edge7" class="edge">
<title>qt&#45;main&#45;&gt;kglobalaccel</title>
<path fill="none" stroke="black" d="M392.29,-363.58C410.44,-355.23 430.19,-342.48 440.63,-324 465.18,-280.56 436.8,-222.72 415.58,-189.5"/>
<polygon fill="black" stroke="black" points="418.58,-187.69 410.13,-181.29 412.75,-191.56 418.58,-187.69"/>
</g>
<!-- qt&#45;main&#45;&gt;lyx -->
<g id="edge8" class="edge">
<title>qt&#45;main&#45;&gt;lyx</title>
<path fill="none" stroke="black" d="M317.54,-362.41C298,-353.21 273.98,-340.04 255.63,-324 225.71,-297.85 218.92,-288.24 202.63,-252 194.01,-232.82 189.22,-209.53 186.6,-191.59"/>
<polygon fill="black" stroke="black" points="190.1,-191.37 185.34,-181.9 183.16,-192.27 190.1,-191.37"/>
</g>
<!-- qt&#45;main&#45;&gt;colmap -->
<g id="edge9" class="edge">
<title>qt&#45;main&#45;&gt;colmap</title>
<path fill="none" stroke="black" d="M398.67,-364.9C420.24,-356.85 444.29,-343.97 458.63,-324 502.84,-262.41 493.19,-166.69 484.74,-119.41"/>
<polygon fill="black" stroke="black" points="488.2,-118.86 482.88,-109.7 481.32,-120.18 488.2,-118.86"/>
</g>
<!-- qt&#45;webengine -->
<g id="node11" class="node">
<title>qt&#45;webengine</title>
<g id="a_node11"><a xlink:href="https://github.com/conda-forge/qt-webengine-feedstock" xlink:title="qt webengine">
<ellipse fill="#fde725" stroke="black" cx="352.63" cy="-306" rx="79.09" ry="18"/>
<text text-anchor="middle" x="352.63" y="-301.32" font-family="Times,serif" font-size="14.00">qt webengine</text>
</a>
</g>
</g>
<!-- qt&#45;main&#45;&gt;qt&#45;webengine -->
<g id="edge10" class="edge">
<title>qt&#45;main&#45;&gt;qt&#45;webengine</title>
<path fill="none" stroke="black" d="M352.63,-359.7C352.63,-352.41 352.63,-343.73 352.63,-335.54"/>
<polygon fill="black" stroke="black" points="356.13,-335.62 352.63,-325.62 349.13,-335.62 356.13,-335.62"/>
</g>
<!-- qt6&#45;advanced&#45;docking&#45;system -->
<g id="node12" class="node">
<title>qt6&#45;advanced&#45;docking&#45;system</title>
<g id="a_node12"><a xlink:href="https://github.com/conda-forge/qt6-advanced-docking-system-feedstock" xlink:title="qt6 advanced docking system">
<ellipse fill="#fde725" stroke="black" cx="553.63" cy="-18" rx="159.59" ry="18"/>
<text text-anchor="middle" x="553.63" y="-13.32" font-family="Times,serif" font-size="14.00">qt6 advanced docking system</text>
</a>
</g>
</g>
<!-- qt&#45;main&#45;&gt;qt6&#45;advanced&#45;docking&#45;system -->
<g id="edge11" class="edge">
<title>qt&#45;main&#45;&gt;qt6&#45;advanced&#45;docking&#45;system</title>
<path fill="none" stroke="black" d="M401.03,-365.58C460.51,-348.34 553.63,-309.45 553.63,-235 553.63,-235 553.63,-235 553.63,-161 553.63,-121.74 553.63,-76.38 553.63,-47.69"/>
<polygon fill="black" stroke="black" points="557.13,-48 553.63,-38 550.13,-48 557.13,-48"/>
</g>
<!-- adwaita&#45;qt -->
<g id="node13" class="node">
<title>adwaita&#45;qt</title>
<g id="a_node13"><a xlink:href="https://github.com/conda-forge/adwaita-qt-feedstock" xlink:title="adwaita qt">
<ellipse fill="#fde725" stroke="black" cx="645.63" cy="-306" rx="64.36" ry="18"/>
<text text-anchor="middle" x="645.63" y="-301.32" font-family="Times,serif" font-size="14.00">adwaita qt</text>
</a>
</g>
</g>
<!-- qt&#45;main&#45;&gt;adwaita&#45;qt -->
<g id="edge12" class="edge">
<title>qt&#45;main&#45;&gt;adwaita&#45;qt</title>
<path fill="none" stroke="black" d="M400.68,-365.52C451.72,-353.33 532.42,-334.05 587.12,-320.98"/>
<polygon fill="black" stroke="black" points="587.65,-324.45 596.56,-318.72 586.02,-317.64 587.65,-324.45"/>
</g>
<!-- qt&#45;webengine&#45;&gt;kwindowsystem -->
<g id="edge13" class="edge">
<title>qt&#45;webengine&#45;&gt;kwindowsystem</title>
<path fill="none" stroke="black" d="M340.53,-288.05C334.84,-280.09 327.92,-270.41 321.57,-261.51"/>
<polygon fill="black" stroke="black" points="324.51,-259.61 315.85,-253.51 318.81,-263.68 324.51,-259.61"/>
</g>
<!-- qt&#45;webengine&#45;&gt;kglobalaccel -->
<g id="edge14" class="edge">
<title>qt&#45;webengine&#45;&gt;kglobalaccel</title>
<path fill="none" stroke="black" d="M374.7,-288.43C385.31,-279.05 396.93,-266.34 402.63,-252 410.24,-232.85 408.32,-209.56 404.71,-191.61"/>
<polygon fill="black" stroke="black" points="408.13,-190.84 402.46,-181.89 401.31,-192.42 408.13,-190.84"/>
</g>
</g>
</svg>
