<?xml version="1.0" encoding="UTF-8" standalone="no"?>
<!DOCTYPE svg PUBLIC "-//W3C//DTD SVG 1.1//EN"
 "http://www.w3.org/Graphics/SVG/1.1/DTD/svg11.dtd">
<!-- Generated by graphviz version 11.0.0 (20240519.1550)
 -->
<!-- Pages: 1 -->
<svg width="1962pt" height="332pt"
 viewBox="0.00 0.00 1961.82 332.00" xmlns="http://www.w3.org/2000/svg" xmlns:xlink="http://www.w3.org/1999/xlink">
<g id="graph0" class="graph" transform="scale(1 1) rotate(0) translate(4 328)">
<polygon fill="white" stroke="none" points="-4,4 -4,-328 1957.82,-328 1957.82,4 -4,4"/>
<!-- cairo -->
<g id="node1" class="node">
<title>cairo</title>
<g id="a_node1"><a xlink:href="https://github.com/conda-forge/cairo-feedstock/pull/75" xlink:title="cairo ✓">
<ellipse fill="#31688e" stroke="black" cx="1132.09" cy="-306" rx="43.84" ry="18"/>
<text text-anchor="middle" x="1132.09" y="-301.32" font-family="Times,serif" font-size="14.00" fill="white">cairo ✓</text>
</a>
</g>
</g>
<!-- ffmpeg -->
<g id="node2" class="node">
<title>ffmpeg</title>
<g id="a_node2"><a xlink:href="https://github.com/conda-forge/ffmpeg-feedstock" xlink:title="ffmpeg">
<ellipse fill="#fde725" stroke="black" cx="1409.09" cy="-234" rx="45.95" ry="18"/>
<text text-anchor="middle" x="1409.09" y="-229.32" font-family="Times,serif" font-size="14.00">ffmpeg</text>
</a>
</g>
</g>
<!-- cairo&#45;&gt;ffmpeg -->
<g id="edge1" class="edge">
<title>cairo&#45;&gt;ffmpeg</title>
<path fill="none" stroke="black" d="M1168.87,-295.7C1218.06,-283.27 1305.39,-261.2 1360.11,-247.38"/>
<polygon fill="black" stroke="black" points="1360.96,-250.77 1369.8,-244.93 1359.24,-243.99 1360.96,-250.77"/>
</g>
<!-- gnuplot -->
<g id="node3" class="node">
<title>gnuplot</title>
<g id="a_node3"><a xlink:href="https://github.com/conda-forge/gnuplot-feedstock" xlink:title="gnuplot">
<ellipse fill="#fde725" stroke="black" cx="1111.09" cy="-162" rx="49.63" ry="18"/>
<text text-anchor="middle" x="1111.09" y="-157.32" font-family="Times,serif" font-size="14.00">gnuplot</text>
</a>
</g>
</g>
<!-- cairo&#45;&gt;gnuplot -->
<g id="edge2" class="edge">
<title>cairo&#45;&gt;gnuplot</title>
<path fill="none" stroke="black" d="M1140.3,-287.96C1147.9,-269.82 1156.94,-240.41 1149.09,-216 1145.87,-205.98 1139.97,-196.24 1133.77,-187.91"/>
<polygon fill="black" stroke="black" points="1136.69,-185.95 1127.71,-180.33 1131.22,-190.33 1136.69,-185.95"/>
</g>
<!-- lyx -->
<g id="node4" class="node">
<title>lyx</title>
<g id="a_node4"><a xlink:href="https://github.com/conda-forge/lyx-feedstock" xlink:title="lyx">
<ellipse fill="#fde725" stroke="black" cx="1206.09" cy="-162" rx="27" ry="18"/>
<text text-anchor="middle" x="1206.09" y="-157.32" font-family="Times,serif" font-size="14.00">lyx</text>
</a>
</g>
</g>
<!-- cairo&#45;&gt;lyx -->
<g id="edge3" class="edge">
<title>cairo&#45;&gt;lyx</title>
<path fill="none" stroke="black" d="M1142.92,-288.07C1149.34,-277.79 1157.49,-264.32 1164.09,-252 1175,-231.65 1186.1,-207.97 1194.14,-190.16"/>
<polygon fill="black" stroke="black" points="1197.34,-191.59 1198.23,-181.03 1190.95,-188.73 1197.34,-191.59"/>
</g>
<!-- qt&#45;main -->
<g id="node5" class="node">
<title>qt&#45;main</title>
<g id="a_node5"><a xlink:href="https://github.com/conda-forge/qt-main-feedstock" xlink:title="qt main">
<ellipse fill="#fde725" stroke="black" cx="986.09" cy="-234" rx="49.63" ry="18"/>
<text text-anchor="middle" x="986.09" y="-229.32" font-family="Times,serif" font-size="14.00">qt main</text>
</a>
</g>
</g>
<!-- cairo&#45;&gt;qt&#45;main -->
<g id="edge4" class="edge">
<title>cairo&#45;&gt;qt&#45;main</title>
<path fill="none" stroke="black" d="M1104.28,-291.67C1081.99,-280.98 1050.42,-265.84 1025.51,-253.9"/>
<polygon fill="black" stroke="black" points="1027.19,-250.82 1016.66,-249.66 1024.16,-257.13 1027.19,-250.82"/>
</g>
<!-- qt&#45;webengine -->
<g id="node6" class="node">
<title>qt&#45;webengine</title>
<g id="a_node6"><a xlink:href="https://github.com/conda-forge/qt-webengine-feedstock" xlink:title="qt webengine">
<ellipse fill="#fde725" stroke="black" cx="512.09" cy="-162" rx="79.09" ry="18"/>
<text text-anchor="middle" x="512.09" y="-157.32" font-family="Times,serif" font-size="14.00">qt webengine</text>
</a>
</g>
</g>
<!-- cairo&#45;&gt;qt&#45;webengine -->
<g id="edge5" class="edge">
<title>cairo&#45;&gt;qt&#45;webengine</title>
<path fill="none" stroke="black" d="M1094.7,-296.44C992.31,-272.99 706.39,-207.5 577.08,-177.88"/>
<polygon fill="black" stroke="black" points="578.18,-174.55 567.65,-175.73 576.62,-181.37 578.18,-174.55"/>
</g>
<!-- silicon -->
<g id="node7" class="node">
<title>silicon</title>
<g id="a_node7"><a xlink:href="https://github.com/conda-forge/silicon-feedstock" xlink:title="silicon">
<ellipse fill="#fde725" stroke="black" cx="1097.09" cy="-234" rx="43.32" ry="18"/>
<text text-anchor="middle" x="1097.09" y="-229.32" font-family="Times,serif" font-size="14.00">silicon</text>
</a>
</g>
</g>
<!-- cairo&#45;&gt;silicon -->
<g id="edge6" class="edge">
<title>cairo&#45;&gt;silicon</title>
<path fill="none" stroke="black" d="M1123.62,-288.05C1119.7,-280.23 1114.96,-270.75 1110.58,-261.98"/>
<polygon fill="black" stroke="black" points="1113.76,-260.52 1106.16,-253.14 1107.5,-263.65 1113.76,-260.52"/>
</g>
<!-- vtk -->
<g id="node8" class="node">
<title>vtk</title>
<g id="a_node8"><a xlink:href="https://github.com/conda-forge/vtk-feedstock" xlink:title="vtk">
<ellipse fill="#fde725" stroke="black" cx="1651.09" cy="-162" rx="27.01" ry="18"/>
<text text-anchor="middle" x="1651.09" y="-157.32" font-family="Times,serif" font-size="14.00">vtk</text>
</a>
</g>
</g>
<!-- ffmpeg&#45;&gt;vtk -->
<g id="edge7" class="edge">
<title>ffmpeg&#45;&gt;vtk</title>
<path fill="none" stroke="black" d="M1444.26,-221.99C1450.84,-219.97 1457.67,-217.9 1464.09,-216 1516.57,-200.45 1577.63,-183.33 1615.32,-172.87"/>
<polygon fill="black" stroke="black" points="1616.07,-176.29 1624.77,-170.25 1614.2,-169.55 1616.07,-176.29"/>
</g>
<!-- gazebo -->
<g id="node9" class="node">
<title>gazebo</title>
<g id="a_node9"><a xlink:href="https://github.com/conda-forge/gazebo-feedstock" xlink:title="gazebo">
<ellipse fill="#fde725" stroke="black" cx="1409.09" cy="-162" rx="46.47" ry="18"/>
<text text-anchor="middle" x="1409.09" y="-157.32" font-family="Times,serif" font-size="14.00">gazebo</text>
</a>
</g>
</g>
<!-- ffmpeg&#45;&gt;gazebo -->
<g id="edge8" class="edge">
<title>ffmpeg&#45;&gt;gazebo</title>
<path fill="none" stroke="black" d="M1409.09,-215.7C1409.09,-208.41 1409.09,-199.73 1409.09,-191.54"/>
<polygon fill="black" stroke="black" points="1412.59,-191.62 1409.09,-181.62 1405.59,-191.62 1412.59,-191.62"/>
</g>
<!-- qt&#45;main&#45;&gt;gnuplot -->
<g id="edge9" class="edge">
<title>qt&#45;main&#45;&gt;gnuplot</title>
<path fill="none" stroke="black" d="M1012.29,-218.33C1030.46,-208.15 1054.89,-194.47 1074.91,-183.26"/>
<polygon fill="black" stroke="black" points="1076.58,-186.33 1083.6,-178.39 1073.16,-180.23 1076.58,-186.33"/>
</g>
<!-- qt&#45;main&#45;&gt;lyx -->
<g id="edge10" class="edge">
<title>qt&#45;main&#45;&gt;lyx</title>
<path fill="none" stroke="black" d="M1024.21,-222.02C1078.11,-206.49 1170.09,-180 1170.09,-180 1171.63,-179.42 1173.19,-178.8 1174.75,-178.16"/>
<polygon fill="black" stroke="black" points="1175.88,-181.48 1183.63,-174.25 1173.06,-175.08 1175.88,-181.48"/>
</g>
<!-- qt&#45;main&#45;&gt;qt&#45;webengine -->
<g id="edge11" class="edge">
<title>qt&#45;main&#45;&gt;qt&#45;webengine</title>
<path fill="none" stroke="black" d="M939.32,-227.41C866.59,-218.53 722.05,-200.14 600.09,-180 593.79,-178.96 587.26,-177.82 580.72,-176.63"/>
<polygon fill="black" stroke="black" points="581.72,-173.26 571.25,-174.88 580.44,-180.14 581.72,-173.26"/>
</g>
<!-- qt&#45;main&#45;&gt;gazebo -->
<g id="edge12" class="edge">
<title>qt&#45;main&#45;&gt;gazebo</title>
<path fill="none" stroke="black" d="M1022.68,-221.45C1030.05,-219.41 1037.77,-217.47 1045.09,-216 1180.64,-188.77 1218.8,-208.54 1354.09,-180 1357.4,-179.3 1360.81,-178.49 1364.21,-177.61"/>
<polygon fill="black" stroke="black" points="1364.87,-181.06 1373.56,-175 1362.99,-174.31 1364.87,-181.06"/>
</g>
<!-- colmap -->
<g id="node10" class="node">
<title>colmap</title>
<g id="a_node10"><a xlink:href="https://github.com/conda-forge/colmap-feedstock" xlink:title="colmap">
<ellipse fill="#fde725" stroke="black" cx="1298.09" cy="-162" rx="47" ry="18"/>
<text text-anchor="middle" x="1298.09" y="-157.32" font-family="Times,serif" font-size="14.00">colmap</text>
</a>
</g>
</g>
<!-- qt&#45;main&#45;&gt;colmap -->
<g id="edge13" class="edge">
<title>qt&#45;main&#45;&gt;colmap</title>
<path fill="none" stroke="black" d="M1023.08,-221.73C1030.34,-219.69 1037.93,-217.68 1045.09,-216 1131.74,-195.65 1155.59,-200.96 1242.09,-180 1245.39,-179.2 1248.78,-178.32 1252.19,-177.39"/>
<polygon fill="black" stroke="black" points="1252.89,-180.83 1261.55,-174.73 1250.98,-174.1 1252.89,-180.83"/>
</g>
<!-- kwindowsystem -->
<g id="node11" class="node">
<title>kwindowsystem</title>
<g id="a_node11"><a xlink:href="https://github.com/conda-forge/kwindowsystem-feedstock" xlink:title="kwindowsystem">
<ellipse fill="#fde725" stroke="black" cx="815.09" cy="-90" rx="91.19" ry="18"/>
<text text-anchor="middle" x="815.09" y="-85.33" font-family="Times,serif" font-size="14.00">kwindowsystem</text>
</a>
</g>
</g>
<!-- qt&#45;main&#45;&gt;kwindowsystem -->
<g id="edge14" class="edge">
<title>qt&#45;main&#45;&gt;kwindowsystem</title>
<path fill="none" stroke="black" d="M980.68,-215.74C973.71,-196.02 959.84,-163.92 938.09,-144 921.3,-128.62 899.35,-117.25 878.66,-109.08"/>
<polygon fill="black" stroke="black" points="879.99,-105.84 869.4,-105.62 877.54,-112.4 879.99,-105.84"/>
</g>
<!-- kglobalaccel -->
<g id="node12" class="node">
<title>kglobalaccel</title>
<g id="a_node12"><a xlink:href="https://github.com/conda-forge/kglobalaccel-feedstock" xlink:title="kglobalaccel">
<ellipse fill="#fde725" stroke="black" cx="815.09" cy="-18" rx="72.78" ry="18"/>
<text text-anchor="middle" x="815.09" y="-13.32" font-family="Times,serif" font-size="14.00">kglobalaccel</text>
</a>
</g>
</g>
<!-- qt&#45;main&#45;&gt;kglobalaccel -->
<g id="edge15" class="edge">
<title>qt&#45;main&#45;&gt;kglobalaccel</title>
<path fill="none" stroke="black" d="M983.96,-215.65C981.26,-197.25 975.63,-167.64 965.09,-144 949.23,-108.42 944.24,-97.85 915.09,-72 899.85,-58.48 880.56,-47.23 862.99,-38.61"/>
<polygon fill="black" stroke="black" points="864.8,-35.59 854.26,-34.49 861.81,-41.92 864.8,-35.59"/>
</g>
<!-- qt6&#45;advanced&#45;docking&#45;system -->
<g id="node13" class="node">
<title>qt6&#45;advanced&#45;docking&#45;system</title>
<g id="a_node13"><a xlink:href="https://github.com/conda-forge/qt6-advanced-docking-system-feedstock" xlink:title="qt6 advanced docking system">
<ellipse fill="#fde725" stroke="black" cx="769.09" cy="-162" rx="159.59" ry="18"/>
<text text-anchor="middle" x="769.09" y="-157.32" font-family="Times,serif" font-size="14.00">qt6 advanced docking system</text>
</a>
</g>
</g>
<!-- qt&#45;main&#45;&gt;qt6&#45;advanced&#45;docking&#45;system -->
<g id="edge16" class="edge">
<title>qt&#45;main&#45;&gt;qt6&#45;advanced&#45;docking&#45;system</title>
<path fill="none" stroke="black" d="M949.77,-221.28C917.34,-210.82 869.18,-195.29 830.73,-182.89"/>
<polygon fill="black" stroke="black" points="832.2,-179.68 821.61,-179.94 830.05,-186.34 832.2,-179.68"/>
</g>
<!-- adwaita&#45;qt -->
<g id="node14" class="node">
<title>adwaita&#45;qt</title>
<g id="a_node14"><a xlink:href="https://github.com/conda-forge/adwaita-qt-feedstock" xlink:title="adwaita qt">
<ellipse fill="#fde725" stroke="black" cx="1087.09" cy="-90" rx="64.36" ry="18"/>
<text text-anchor="middle" x="1087.09" y="-85.33" font-family="Times,serif" font-size="14.00">adwaita qt</text>
</a>
</g>
</g>
<!-- qt&#45;main&#45;&gt;adwaita&#45;qt -->
<g id="edge17" class="edge">
<title>qt&#45;main&#45;&gt;adwaita&#45;qt</title>
<path fill="none" stroke="black" d="M998.07,-216.15C1015.54,-191.6 1048.13,-145.77 1068.66,-116.91"/>
<polygon fill="black" stroke="black" points="1071.3,-119.24 1074.24,-109.06 1065.6,-115.18 1071.3,-119.24"/>
</g>
<!-- qt&#45;webengine&#45;&gt;kwindowsystem -->
<g id="edge18" class="edge">
<title>qt&#45;webengine&#45;&gt;kwindowsystem</title>
<path fill="none" stroke="black" d="M566.26,-148.49C616.66,-136.84 691.99,-119.44 746.56,-106.83"/>
<polygon fill="black" stroke="black" points="747.09,-110.3 756.05,-104.64 745.52,-103.48 747.09,-110.3"/>
</g>
<!-- qt&#45;webengine&#45;&gt;kglobalaccel -->
<g id="edge19" class="edge">
<title>qt&#45;webengine&#45;&gt;kglobalaccel</title>
<path fill="none" stroke="black" d="M545.67,-145.26C601.02,-119.32 711.32,-67.63 772.22,-39.09"/>
<polygon fill="black" stroke="black" points="773.34,-42.43 780.91,-35.02 770.37,-36.09 773.34,-42.43"/>
</g>
<!-- kwindowsystem&#45;&gt;kglobalaccel -->
<g id="edge31" class="edge">
<title>kwindowsystem&#45;&gt;kglobalaccel</title>
<path fill="none" stroke="black" d="M815.09,-71.7C815.09,-64.41 815.09,-55.73 815.09,-47.54"/>
<polygon fill="black" stroke="black" points="818.59,-47.62 815.09,-37.62 811.59,-47.62 818.59,-47.62"/>
</g>
<!-- gstreamer -->
<g id="node15" class="node">
<title>gstreamer</title>
<g id="a_node15"><a xlink:href="https://github.com/conda-forge/gstreamer-feedstock/pull/133" xlink:title="gstreamer ✓">
<ellipse fill="#31688e" stroke="black" cx="493.09" cy="-306" rx="71.2" ry="18"/>
<text text-anchor="middle" x="493.09" y="-301.32" font-family="Times,serif" font-size="14.00" fill="white">gstreamer ✓</text>
</a>
</g>
</g>
<!-- gstreamer&#45;&gt;qt&#45;main -->
<g id="edge20" class="edge">
<title>gstreamer&#45;&gt;qt&#45;main</title>
<path fill="none" stroke="black" d="M554.04,-296.35C650.11,-282.7 835.46,-256.39 929.05,-243.1"/>
<polygon fill="black" stroke="black" points="929.36,-246.59 938.77,-241.72 928.38,-239.66 929.36,-246.59"/>
</g>
<!-- gstreamer&#45;&gt;qt&#45;webengine -->
<g id="edge21" class="edge">
<title>gstreamer&#45;&gt;qt&#45;webengine</title>
<path fill="none" stroke="black" d="M495.42,-287.59C498.63,-263.61 504.44,-220.14 508.29,-191.42"/>
<polygon fill="black" stroke="black" points="511.74,-191.99 509.6,-181.61 504.8,-191.06 511.74,-191.99"/>
</g>
<!-- gst&#45;plugins&#45;ugly -->
<g id="node16" class="node">
<title>gst&#45;plugins&#45;ugly</title>
<g id="a_node16"><a xlink:href="https://github.com/conda-forge/gst-plugins-ugly-feedstock" xlink:title="gst plugins ugly">
<ellipse fill="#fde725" stroke="black" cx="354.09" cy="-234" rx="91.72" ry="18"/>
<text text-anchor="middle" x="354.09" y="-229.32" font-family="Times,serif" font-size="14.00">gst plugins ugly</text>
</a>
</g>
</g>
<!-- gstreamer&#45;&gt;gst&#45;plugins&#45;ugly -->
<g id="edge22" class="edge">
<title>gstreamer&#45;&gt;gst&#45;plugins&#45;ugly</title>
<path fill="none" stroke="black" d="M462.24,-289.46C442.86,-279.7 417.59,-266.98 396.36,-256.29"/>
<polygon fill="black" stroke="black" points="398.16,-253.27 387.65,-251.9 395.01,-259.53 398.16,-253.27"/>
</g>
<!-- gst&#45;plugins&#45;bad -->
<g id="node17" class="node">
<title>gst&#45;plugins&#45;bad</title>
<g id="a_node17"><a xlink:href="https://github.com/conda-forge/gst-plugins-bad-feedstock" xlink:title="gst plugins bad">
<ellipse fill="#fde725" stroke="black" cx="326.09" cy="-162" rx="88.56" ry="18"/>
<text text-anchor="middle" x="326.09" y="-157.32" font-family="Times,serif" font-size="14.00">gst plugins bad</text>
</a>
</g>
</g>
<!-- gstreamer&#45;&gt;gst&#45;plugins&#45;bad -->
<g id="edge23" class="edge">
<title>gstreamer&#45;&gt;gst&#45;plugins&#45;bad</title>
<path fill="none" stroke="black" d="M489.83,-287.71C485.27,-267.96 475.18,-235.82 455.09,-216 438.35,-199.49 415.75,-187.88 394.15,-179.83"/>
<polygon fill="black" stroke="black" points="395.34,-176.54 384.74,-176.54 393.03,-183.15 395.34,-176.54"/>
</g>
<!-- libglu -->
<g id="node18" class="node">
<title>libglu</title>
<g id="a_node18"><a xlink:href="https://github.com/conda-forge/libglu-feedstock/pull/24" xlink:title="libglu ✓">
<ellipse fill="#31688e" stroke="black" cx="1524.09" cy="-306" rx="47.53" ry="18"/>
<text text-anchor="middle" x="1524.09" y="-301.32" font-family="Times,serif" font-size="14.00" fill="white">libglu ✓</text>
</a>
</g>
</g>
<!-- libglu&#45;&gt;vtk -->
<g id="edge24" class="edge">
<title>libglu&#45;&gt;vtk</title>
<path fill="none" stroke="black" d="M1568.51,-299.13C1619.97,-291.31 1700.03,-275.66 1718.09,-252 1727.8,-239.28 1725.06,-230.4 1718.09,-216 1710.55,-200.42 1695.97,-188.04 1682.32,-179.17"/>
<polygon fill="black" stroke="black" points="1684.33,-176.29 1673.97,-174.12 1680.71,-182.28 1684.33,-176.29"/>
</g>
<!-- libglu&#45;&gt;gazebo -->
<g id="edge25" class="edge">
<title>libglu&#45;&gt;gazebo</title>
<path fill="none" stroke="black" d="M1476.5,-304.61C1436.65,-301.44 1381.94,-289.85 1354.09,-252 1338.17,-230.36 1359,-204.03 1379.42,-185.64"/>
<polygon fill="black" stroke="black" points="1381.56,-188.42 1386.9,-179.27 1377.02,-183.09 1381.56,-188.42"/>
</g>
<!-- libglu&#45;&gt;colmap -->
<g id="edge28" class="edge">
<title>libglu&#45;&gt;colmap</title>
<path fill="none" stroke="black" d="M1477.62,-301.42C1438.2,-296.21 1382.15,-283.42 1344.09,-252 1325.14,-236.36 1313.1,-210.88 1306.11,-191.18"/>
<polygon fill="black" stroke="black" points="1309.47,-190.22 1303.03,-181.81 1302.82,-192.4 1309.47,-190.22"/>
</g>
<!-- freeglut -->
<g id="node19" class="node">
<title>freeglut</title>
<g id="a_node19"><a xlink:href="https://github.com/conda-forge/freeglut-feedstock" xlink:title="freeglut">
<ellipse fill="#fde725" stroke="black" cx="1524.09" cy="-234" rx="51.21" ry="18"/>
<text text-anchor="middle" x="1524.09" y="-229.32" font-family="Times,serif" font-size="14.00">freeglut</text>
</a>
</g>
</g>
<!-- libglu&#45;&gt;freeglut -->
<g id="edge26" class="edge">
<title>libglu&#45;&gt;freeglut</title>
<path fill="none" stroke="black" d="M1524.09,-287.7C1524.09,-280.41 1524.09,-271.73 1524.09,-263.54"/>
<polygon fill="black" stroke="black" points="1527.59,-263.62 1524.09,-253.62 1520.59,-263.62 1527.59,-263.62"/>
</g>
<!-- fltk -->
<g id="node20" class="node">
<title>fltk</title>
<g id="a_node20"><a xlink:href="https://github.com/conda-forge/fltk-feedstock" xlink:title="fltk">
<ellipse fill="#fde725" stroke="black" cx="1775.09" cy="-162" rx="27.53" ry="18"/>
<text text-anchor="middle" x="1775.09" y="-157.32" font-family="Times,serif" font-size="14.00">fltk</text>
</a>
</g>
</g>
<!-- libglu&#45;&gt;fltk -->
<g id="edge27" class="edge">
<title>libglu&#45;&gt;fltk</title>
<path fill="none" stroke="black" d="M1571.74,-304.57C1618.36,-301.74 1688.91,-290.68 1735.09,-252 1753.46,-236.61 1763.74,-211.06 1769.26,-191.27"/>
<polygon fill="black" stroke="black" points="1772.65,-192.14 1771.69,-181.59 1765.86,-190.44 1772.65,-192.14"/>
</g>
<!-- freeglut&#45;&gt;gazebo -->
<g id="edge29" class="edge">
<title>freeglut&#45;&gt;gazebo</title>
<path fill="none" stroke="black" d="M1499.14,-217.81C1482.71,-207.82 1461.01,-194.6 1443.03,-183.66"/>
<polygon fill="black" stroke="black" points="1444.86,-180.68 1434.5,-178.47 1441.22,-186.66 1444.86,-180.68"/>
</g>
<!-- mesalib -->
<g id="node21" class="node">
<title>mesalib</title>
<g id="a_node21"><a xlink:href="https://github.com/conda-forge/mesalib-feedstock/pull/81" xlink:title="mesalib ✓">
<ellipse fill="#31688e" stroke="black" cx="1651.09" cy="-234" rx="58.05" ry="18"/>
<text text-anchor="middle" x="1651.09" y="-229.32" font-family="Times,serif" font-size="14.00" fill="white">mesalib ✓</text>
</a>
</g>
</g>
<!-- mesalib&#45;&gt;vtk -->
<g id="edge30" class="edge">
<title>mesalib&#45;&gt;vtk</title>
<path fill="none" stroke="black" d="M1651.09,-215.7C1651.09,-208.41 1651.09,-199.73 1651.09,-191.54"/>
<polygon fill="black" stroke="black" points="1654.59,-191.62 1651.09,-181.62 1647.59,-191.62 1654.59,-191.62"/>
</g>
<!-- xcb&#45;util&#45;image -->
<g id="node22" class="node">
<title>xcb&#45;util&#45;image</title>
<g id="a_node22"><a xlink:href="https://github.com/conda-forge/xcb-util-image-feedstock/pull/5" xlink:title="xcb util image ✓">
<ellipse fill="#31688e" stroke="black" cx="160.09" cy="-306" rx="90.14" ry="18"/>
<text text-anchor="middle" x="160.09" y="-301.32" font-family="Times,serif" font-size="14.00" fill="white">xcb util image ✓</text>
</a>
</g>
</g>
<!-- xcb&#45;util&#45;image&#45;&gt;qt&#45;main -->
<g id="edge32" class="edge">
<title>xcb&#45;util&#45;image&#45;&gt;qt&#45;main</title>
<path fill="none" stroke="black" d="M241.93,-298.06C408.18,-283.98 781.94,-252.3 926.98,-240.01"/>
<polygon fill="black" stroke="black" points="927.08,-243.51 936.75,-239.18 926.49,-236.54 927.08,-243.51"/>
</g>
<!-- xcb&#45;util&#45;cursor -->
<g id="node23" class="node">
<title>xcb&#45;util&#45;cursor</title>
<g id="a_node23"><a xlink:href="https://github.com/conda-forge/xcb-util-cursor-feedstock" xlink:title="xcb util cursor">
<ellipse fill="#fde725" stroke="black" cx="160.09" cy="-234" rx="83.83" ry="18"/>
<text text-anchor="middle" x="160.09" y="-229.32" font-family="Times,serif" font-size="14.00">xcb util cursor</text>
</a>
</g>
</g>
<!-- xcb&#45;util&#45;image&#45;&gt;xcb&#45;util&#45;cursor -->
<g id="edge33" class="edge">
<title>xcb&#45;util&#45;image&#45;&gt;xcb&#45;util&#45;cursor</title>
<path fill="none" stroke="black" d="M160.09,-287.7C160.09,-280.41 160.09,-271.73 160.09,-263.54"/>
<polygon fill="black" stroke="black" points="163.59,-263.62 160.09,-253.62 156.59,-263.62 163.59,-263.62"/>
</g>
<!-- nsight&#45;compute -->
<g id="node24" class="node">
<title>nsight&#45;compute</title>
<g id="a_node24"><a xlink:href="https://github.com/conda-forge/nsight-compute-feedstock" xlink:title="nsight compute">
<ellipse fill="#fde725" stroke="black" cx="89.09" cy="-162" rx="89.09" ry="18"/>
<text text-anchor="middle" x="89.09" y="-157.32" font-family="Times,serif" font-size="14.00">nsight compute</text>
</a>
</g>
</g>
<!-- xcb&#45;util&#45;image&#45;&gt;nsight&#45;compute -->
<g id="edge34" class="edge">
<title>xcb&#45;util&#45;image&#45;&gt;nsight&#45;compute</title>
<path fill="none" stroke="black" d="M113.87,-290.19C95.97,-281.95 77.36,-269.67 67.09,-252 56.06,-233.02 63.3,-208.66 72.33,-190.22"/>
<polygon fill="black" stroke="black" points="75.38,-191.94 77.01,-181.47 69.21,-188.64 75.38,-191.94"/>
</g>
<!-- xcb&#45;util&#45;cursor&#45;&gt;nsight&#45;compute -->
<g id="edge35" class="edge">
<title>xcb&#45;util&#45;cursor&#45;&gt;nsight&#45;compute</title>
<path fill="none" stroke="black" d="M142.9,-216.05C134.27,-207.54 123.64,-197.07 114.12,-187.68"/>
<polygon fill="black" stroke="black" points="116.77,-185.38 107.2,-180.85 111.86,-190.36 116.77,-185.38"/>
</g>
<!-- vulkan&#45;tools -->
<g id="node25" class="node">
<title>vulkan&#45;tools</title>
<g id="a_node25"><a xlink:href="https://github.com/conda-forge/vulkan-tools-feedstock" xlink:title="vulkan tools">
<ellipse fill="#35b779" stroke="black" cx="1882.09" cy="-162" rx="71.73" ry="18"/>
<text text-anchor="middle" x="1882.09" y="-157.32" font-family="Times,serif" font-size="14.00">vulkan tools</text>
</a>
</g>
</g>
</g>
</svg>
