<?xml version="1.0" encoding="UTF-8" standalone="no"?>
<!DOCTYPE svg PUBLIC "-//W3C//DTD SVG 1.1//EN"
 "http://www.w3.org/Graphics/SVG/1.1/DTD/svg11.dtd">
<!-- Generated by graphviz version 11.0.0 (20240519.1550)
 -->
<!-- Pages: 1 -->
<svg width="1602pt" height="332pt"
 viewBox="0.00 0.00 1601.81 332.00" xmlns="http://www.w3.org/2000/svg" xmlns:xlink="http://www.w3.org/1999/xlink">
<g id="graph0" class="graph" transform="scale(1 1) rotate(0) translate(4 328)">
<polygon fill="white" stroke="none" points="-4,4 -4,-328 1597.81,-328 1597.81,4 -4,4"/>
<!-- cairo -->
<g id="node1" class="node">
<title>cairo</title>
<g id="a_node1"><a xlink:href="https://github.com/conda-forge/cairo-feedstock/pull/75" xlink:title="cairo ✓">
<ellipse fill="#31688e" stroke="black" cx="870.09" cy="-306" rx="43.84" ry="18"/>
<text text-anchor="middle" x="870.09" y="-301.32" font-family="Times,serif" font-size="14.00" fill="white">cairo ✓</text>
</a>
</g>
</g>
<!-- ffmpeg -->
<g id="node2" class="node">
<title>ffmpeg</title>
<g id="a_node2"><a xlink:href="https://github.com/conda-forge/ffmpeg-feedstock" xlink:title="ffmpeg">
<ellipse fill="#fde725" stroke="black" cx="1263.09" cy="-234" rx="45.95" ry="18"/>
<text text-anchor="middle" x="1263.09" y="-229.32" font-family="Times,serif" font-size="14.00">ffmpeg</text>
</a>
</g>
</g>
<!-- cairo&#45;&gt;ffmpeg -->
<g id="edge1" class="edge">
<title>cairo&#45;&gt;ffmpeg</title>
<path fill="none" stroke="black" d="M909.89,-298.05C967.36,-287.99 1076.91,-268.75 1170.09,-252 1183.47,-249.6 1197.92,-246.97 1211.36,-244.51"/>
<polygon fill="black" stroke="black" points="1211.66,-248.02 1220.87,-242.77 1210.4,-241.13 1211.66,-248.02"/>
</g>
<!-- gnuplot -->
<g id="node3" class="node">
<title>gnuplot</title>
<g id="a_node3"><a xlink:href="https://github.com/conda-forge/gnuplot-feedstock" xlink:title="gnuplot">
<ellipse fill="#fde725" stroke="black" cx="946.09" cy="-162" rx="49.63" ry="18"/>
<text text-anchor="middle" x="946.09" y="-157.32" font-family="Times,serif" font-size="14.00">gnuplot</text>
</a>
</g>
</g>
<!-- cairo&#45;&gt;gnuplot -->
<g id="edge2" class="edge">
<title>cairo&#45;&gt;gnuplot</title>
<path fill="none" stroke="black" d="M876.17,-287.74C882.92,-269.42 894.65,-239.86 908.09,-216 913.34,-206.68 919.88,-197.02 926.06,-188.55"/>
<polygon fill="black" stroke="black" points="928.69,-190.87 931.88,-180.77 923.08,-186.68 928.69,-190.87"/>
</g>
<!-- lyx -->
<g id="node4" class="node">
<title>lyx</title>
<g id="a_node4"><a xlink:href="https://github.com/conda-forge/lyx-feedstock" xlink:title="lyx">
<ellipse fill="#fde725" stroke="black" cx="851.09" cy="-162" rx="27" ry="18"/>
<text text-anchor="middle" x="851.09" y="-157.32" font-family="Times,serif" font-size="14.00">lyx</text>
</a>
</g>
</g>
<!-- cairo&#45;&gt;lyx -->
<g id="edge3" class="edge">
<title>cairo&#45;&gt;lyx</title>
<path fill="none" stroke="black" d="M867.76,-287.59C864.55,-263.61 858.74,-220.14 854.89,-191.42"/>
<polygon fill="black" stroke="black" points="858.37,-191.06 853.58,-181.61 851.44,-191.99 858.37,-191.06"/>
</g>
<!-- qt&#45;main -->
<g id="node5" class="node">
<title>qt&#45;main</title>
<g id="a_node5"><a xlink:href="https://github.com/conda-forge/qt-main-feedstock" xlink:title="qt main">
<ellipse fill="#fde725" stroke="black" cx="773.09" cy="-234" rx="49.63" ry="18"/>
<text text-anchor="middle" x="773.09" y="-229.32" font-family="Times,serif" font-size="14.00">qt main</text>
</a>
</g>
</g>
<!-- cairo&#45;&gt;qt&#45;main -->
<g id="edge4" class="edge">
<title>cairo&#45;&gt;qt&#45;main</title>
<path fill="none" stroke="black" d="M849.04,-289.81C835.88,-280.31 818.69,-267.91 804,-257.3"/>
<polygon fill="black" stroke="black" points="806.15,-254.54 795.99,-251.53 802.06,-260.22 806.15,-254.54"/>
</g>
<!-- qt&#45;webengine -->
<g id="node6" class="node">
<title>qt&#45;webengine</title>
<g id="a_node6"><a xlink:href="https://github.com/conda-forge/qt-webengine-feedstock" xlink:title="qt webengine">
<ellipse fill="#fde725" stroke="black" cx="313.09" cy="-162" rx="79.09" ry="18"/>
<text text-anchor="middle" x="313.09" y="-157.32" font-family="Times,serif" font-size="14.00">qt webengine</text>
</a>
</g>
</g>
<!-- cairo&#45;&gt;qt&#45;webengine -->
<g id="edge5" class="edge">
<title>cairo&#45;&gt;qt&#45;webengine</title>
<path fill="none" stroke="black" d="M833.54,-295.68C740.11,-271.86 491.69,-208.53 375.12,-178.81"/>
<polygon fill="black" stroke="black" points="376.28,-175.5 365.73,-176.42 374.55,-182.28 376.28,-175.5"/>
</g>
<!-- silicon -->
<g id="node7" class="node">
<title>silicon</title>
<g id="a_node7"><a xlink:href="https://github.com/conda-forge/silicon-feedstock" xlink:title="silicon">
<ellipse fill="#fde725" stroke="black" cx="960.09" cy="-234" rx="43.32" ry="18"/>
<text text-anchor="middle" x="960.09" y="-229.32" font-family="Times,serif" font-size="14.00">silicon</text>
</a>
</g>
</g>
<!-- cairo&#45;&gt;silicon -->
<g id="edge6" class="edge">
<title>cairo&#45;&gt;silicon</title>
<path fill="none" stroke="black" d="M889.62,-289.81C901.8,-280.34 917.69,-267.97 931.3,-257.39"/>
<polygon fill="black" stroke="black" points="933.35,-260.23 939.09,-251.33 929.05,-254.71 933.35,-260.23"/>
</g>
<!-- vtk -->
<g id="node8" class="node">
<title>vtk</title>
<g id="a_node8"><a xlink:href="https://github.com/conda-forge/vtk-feedstock" xlink:title="vtk">
<ellipse fill="#fde725" stroke="black" cx="1291.09" cy="-162" rx="27.01" ry="18"/>
<text text-anchor="middle" x="1291.09" y="-157.32" font-family="Times,serif" font-size="14.00">vtk</text>
</a>
</g>
</g>
<!-- ffmpeg&#45;&gt;vtk -->
<g id="edge7" class="edge">
<title>ffmpeg&#45;&gt;vtk</title>
<path fill="none" stroke="black" d="M1269.87,-216.05C1272.96,-208.32 1276.71,-198.96 1280.18,-190.27"/>
<polygon fill="black" stroke="black" points="1283.35,-191.78 1283.81,-181.19 1276.85,-189.18 1283.35,-191.78"/>
</g>
<!-- gazebo -->
<g id="node9" class="node">
<title>gazebo</title>
<g id="a_node9"><a xlink:href="https://github.com/conda-forge/gazebo-feedstock" xlink:title="gazebo">
<ellipse fill="#fde725" stroke="black" cx="1181.09" cy="-162" rx="46.47" ry="18"/>
<text text-anchor="middle" x="1181.09" y="-157.32" font-family="Times,serif" font-size="14.00">gazebo</text>
</a>
</g>
</g>
<!-- ffmpeg&#45;&gt;gazebo -->
<g id="edge8" class="edge">
<title>ffmpeg&#45;&gt;gazebo</title>
<path fill="none" stroke="black" d="M1244.48,-217.12C1233.79,-207.99 1220.16,-196.36 1208.29,-186.22"/>
<polygon fill="black" stroke="black" points="1210.65,-183.63 1200.77,-179.8 1206.11,-188.96 1210.65,-183.63"/>
</g>
<!-- qt&#45;main&#45;&gt;gnuplot -->
<g id="edge9" class="edge">
<title>qt&#45;main&#45;&gt;gnuplot</title>
<path fill="none" stroke="black" d="M805.22,-220C832.93,-208.79 873.16,-192.51 903.54,-180.22"/>
<polygon fill="black" stroke="black" points="904.47,-183.61 912.43,-176.62 901.85,-177.13 904.47,-183.61"/>
</g>
<!-- qt&#45;main&#45;&gt;lyx -->
<g id="edge10" class="edge">
<title>qt&#45;main&#45;&gt;lyx</title>
<path fill="none" stroke="black" d="M791.18,-216.76C801.87,-207.17 815.53,-194.91 827.11,-184.52"/>
<polygon fill="black" stroke="black" points="829.24,-187.31 834.34,-178.03 824.56,-182.1 829.24,-187.31"/>
</g>
<!-- qt&#45;main&#45;&gt;qt&#45;webengine -->
<g id="edge11" class="edge">
<title>qt&#45;main&#45;&gt;qt&#45;webengine</title>
<path fill="none" stroke="black" d="M726.94,-226.9C657.3,-217.57 521.24,-198.83 406.09,-180 398.88,-178.82 391.37,-177.54 383.88,-176.22"/>
<polygon fill="black" stroke="black" points="384.52,-172.78 374.06,-174.48 383.29,-179.67 384.52,-172.78"/>
</g>
<!-- qt&#45;main&#45;&gt;gazebo -->
<g id="edge12" class="edge">
<title>qt&#45;main&#45;&gt;gazebo</title>
<path fill="none" stroke="black" d="M819.83,-227.41C886.27,-219.09 1011.66,-202.06 1117.09,-180 1122.37,-178.9 1127.86,-177.63 1133.31,-176.29"/>
<polygon fill="black" stroke="black" points="1134.07,-179.71 1142.89,-173.85 1132.34,-172.92 1134.07,-179.71"/>
</g>
<!-- colmap -->
<g id="node10" class="node">
<title>colmap</title>
<g id="a_node10"><a xlink:href="https://github.com/conda-forge/colmap-feedstock" xlink:title="colmap">
<ellipse fill="#fde725" stroke="black" cx="1061.09" cy="-162" rx="47" ry="18"/>
<text text-anchor="middle" x="1061.09" y="-157.32" font-family="Times,serif" font-size="14.00">colmap</text>
</a>
</g>
</g>
<!-- qt&#45;main&#45;&gt;colmap -->
<g id="edge13" class="edge">
<title>qt&#45;main&#45;&gt;colmap</title>
<path fill="none" stroke="black" d="M815.22,-224.31C861.87,-214.46 939.2,-197.5 1005.09,-180 1008.22,-179.17 1011.44,-178.28 1014.67,-177.36"/>
<polygon fill="black" stroke="black" points="1015.57,-180.75 1024.19,-174.59 1013.61,-174.03 1015.57,-180.75"/>
</g>
<!-- kwindowsystem -->
<g id="node11" class="node">
<title>kwindowsystem</title>
<g id="a_node11"><a xlink:href="https://github.com/conda-forge/kwindowsystem-feedstock" xlink:title="kwindowsystem">
<ellipse fill="#fde725" stroke="black" cx="208.09" cy="-90" rx="91.19" ry="18"/>
<text text-anchor="middle" x="208.09" y="-85.33" font-family="Times,serif" font-size="14.00">kwindowsystem</text>
</a>
</g>
</g>
<!-- qt&#45;main&#45;&gt;kwindowsystem -->
<g id="edge14" class="edge">
<title>qt&#45;main&#45;&gt;kwindowsystem</title>
<path fill="none" stroke="black" d="M723.64,-231.55C595.76,-227.34 261.55,-213.24 225.09,-180 208.65,-165.01 205.18,-139.41 205.38,-119.51"/>
<polygon fill="black" stroke="black" points="208.86,-119.94 205.8,-109.8 201.87,-119.63 208.86,-119.94"/>
</g>
<!-- kglobalaccel -->
<g id="node12" class="node">
<title>kglobalaccel</title>
<g id="a_node12"><a xlink:href="https://github.com/conda-forge/kglobalaccel-feedstock" xlink:title="kglobalaccel">
<ellipse fill="#fde725" stroke="black" cx="327.09" cy="-18" rx="72.78" ry="18"/>
<text text-anchor="middle" x="327.09" y="-13.32" font-family="Times,serif" font-size="14.00">kglobalaccel</text>
</a>
</g>
</g>
<!-- qt&#45;main&#45;&gt;kglobalaccel -->
<g id="edge15" class="edge">
<title>qt&#45;main&#45;&gt;kglobalaccel</title>
<path fill="none" stroke="black" d="M779.76,-216.01C786.18,-196.55 792.81,-164.69 777.09,-144 731.74,-84.34 517.27,-45.66 401.55,-28.78"/>
<polygon fill="black" stroke="black" points="402.22,-25.34 391.83,-27.38 401.22,-32.26 402.22,-25.34"/>
</g>
<!-- qt6&#45;advanced&#45;docking&#45;system -->
<g id="node13" class="node">
<title>qt6&#45;advanced&#45;docking&#45;system</title>
<g id="a_node13"><a xlink:href="https://github.com/conda-forge/qt6-advanced-docking-system-feedstock" xlink:title="qt6 advanced docking system">
<ellipse fill="#fde725" stroke="black" cx="608.09" cy="-162" rx="159.59" ry="18"/>
<text text-anchor="middle" x="608.09" y="-157.32" font-family="Times,serif" font-size="14.00">qt6 advanced docking system</text>
</a>
</g>
</g>
<!-- qt&#45;main&#45;&gt;qt6&#45;advanced&#45;docking&#45;system -->
<g id="edge16" class="edge">
<title>qt&#45;main&#45;&gt;qt6&#45;advanced&#45;docking&#45;system</title>
<path fill="none" stroke="black" d="M741.67,-219.67C718.14,-209.69 685.48,-195.83 658.34,-184.32"/>
<polygon fill="black" stroke="black" points="659.83,-181.15 649.26,-180.46 657.09,-187.59 659.83,-181.15"/>
</g>
<!-- adwaita&#45;qt -->
<g id="node14" class="node">
<title>adwaita&#45;qt</title>
<g id="a_node14"><a xlink:href="https://github.com/conda-forge/adwaita-qt-feedstock" xlink:title="adwaita qt">
<ellipse fill="#fde725" stroke="black" cx="420.09" cy="-90" rx="64.36" ry="18"/>
<text text-anchor="middle" x="420.09" y="-85.33" font-family="Times,serif" font-size="14.00">adwaita qt</text>
</a>
</g>
</g>
<!-- qt&#45;main&#45;&gt;adwaita&#45;qt -->
<g id="edge17" class="edge">
<title>qt&#45;main&#45;&gt;adwaita&#45;qt</title>
<path fill="none" stroke="black" d="M723.39,-231.81C640.49,-228.76 479.13,-217.98 439.09,-180 423.05,-164.78 418.86,-139.61 418.37,-119.9"/>
<polygon fill="black" stroke="black" points="421.87,-120.03 418.46,-110 414.87,-119.97 421.87,-120.03"/>
</g>
<!-- qt&#45;webengine&#45;&gt;kwindowsystem -->
<g id="edge18" class="edge">
<title>qt&#45;webengine&#45;&gt;kwindowsystem</title>
<path fill="none" stroke="black" d="M288.47,-144.59C274.75,-135.44 257.44,-123.9 242.41,-113.88"/>
<polygon fill="black" stroke="black" points="244.44,-111.03 234.18,-108.39 240.56,-116.85 244.44,-111.03"/>
</g>
<!-- qt&#45;webengine&#45;&gt;kglobalaccel -->
<g id="edge19" class="edge">
<title>qt&#45;webengine&#45;&gt;kglobalaccel</title>
<path fill="none" stroke="black" d="M314.81,-143.59C317.17,-119.61 321.46,-76.14 324.29,-47.42"/>
<polygon fill="black" stroke="black" points="327.76,-47.91 325.25,-37.62 320.79,-47.23 327.76,-47.91"/>
</g>
<!-- kwindowsystem&#45;&gt;kglobalaccel -->
<g id="edge26" class="edge">
<title>kwindowsystem&#45;&gt;kglobalaccel</title>
<path fill="none" stroke="black" d="M236.29,-72.41C252.38,-62.95 272.73,-50.97 290.09,-40.76"/>
<polygon fill="black" stroke="black" points="291.76,-43.84 298.6,-35.76 288.21,-37.81 291.76,-43.84"/>
</g>
<!-- libglu -->
<g id="node15" class="node">
<title>libglu</title>
<g id="a_node15"><a xlink:href="https://github.com/conda-forge/libglu-feedstock/pull/24" xlink:title="libglu ✓">
<ellipse fill="#31688e" stroke="black" cx="1189.09" cy="-306" rx="47.53" ry="18"/>
<text text-anchor="middle" x="1189.09" y="-301.32" font-family="Times,serif" font-size="14.00" fill="white">libglu ✓</text>
</a>
</g>
</g>
<!-- libglu&#45;&gt;vtk -->
<g id="edge20" class="edge">
<title>libglu&#45;&gt;vtk</title>
<path fill="none" stroke="black" d="M1233.87,-299.36C1263.19,-293.08 1299.42,-279.86 1318.09,-252 1331.12,-232.56 1320.74,-206.6 1309.28,-187.74"/>
<polygon fill="black" stroke="black" points="1312.36,-186.05 1303.96,-179.6 1306.5,-189.88 1312.36,-186.05"/>
</g>
<!-- libglu&#45;&gt;gazebo -->
<g id="edge21" class="edge">
<title>libglu&#45;&gt;gazebo</title>
<path fill="none" stroke="black" d="M1188.11,-287.59C1186.76,-263.61 1184.31,-220.14 1182.69,-191.42"/>
<polygon fill="black" stroke="black" points="1186.2,-191.41 1182.14,-181.62 1179.21,-191.8 1186.2,-191.41"/>
</g>
<!-- libglu&#45;&gt;colmap -->
<g id="edge24" class="edge">
<title>libglu&#45;&gt;colmap</title>
<path fill="none" stroke="black" d="M1143.32,-300.8C1111.39,-295.2 1070.9,-282.2 1050.09,-252 1037.82,-234.19 1042.11,-209.49 1048.6,-190.63"/>
<polygon fill="black" stroke="black" points="1051.81,-192.03 1052.13,-181.44 1045.27,-189.52 1051.81,-192.03"/>
</g>
<!-- freeglut -->
<g id="node16" class="node">
<title>freeglut</title>
<g id="a_node16"><a xlink:href="https://github.com/conda-forge/freeglut-feedstock" xlink:title="freeglut">
<ellipse fill="#fde725" stroke="black" cx="1110.09" cy="-234" rx="51.21" ry="18"/>
<text text-anchor="middle" x="1110.09" y="-229.32" font-family="Times,serif" font-size="14.00">freeglut</text>
</a>
</g>
</g>
<!-- libglu&#45;&gt;freeglut -->
<g id="edge22" class="edge">
<title>libglu&#45;&gt;freeglut</title>
<path fill="none" stroke="black" d="M1171.16,-289.12C1160.93,-280.05 1147.92,-268.52 1136.53,-258.43"/>
<polygon fill="black" stroke="black" points="1139.16,-256.08 1129.35,-252.07 1134.51,-261.32 1139.16,-256.08"/>
</g>
<!-- fltk -->
<g id="node17" class="node">
<title>fltk</title>
<g id="a_node17"><a xlink:href="https://github.com/conda-forge/fltk-feedstock" xlink:title="fltk">
<ellipse fill="#fde725" stroke="black" cx="1375.09" cy="-162" rx="27.53" ry="18"/>
<text text-anchor="middle" x="1375.09" y="-157.32" font-family="Times,serif" font-size="14.00">fltk</text>
</a>
</g>
</g>
<!-- libglu&#45;&gt;fltk -->
<g id="edge23" class="edge">
<title>libglu&#45;&gt;fltk</title>
<path fill="none" stroke="black" d="M1232.8,-298.47C1264.59,-291.7 1306.83,-278.24 1335.09,-252 1352.55,-235.79 1362.89,-210.54 1368.67,-191.07"/>
<polygon fill="black" stroke="black" points="1372.01,-192.13 1371.24,-181.56 1365.26,-190.3 1372.01,-192.13"/>
</g>
<!-- freeglut&#45;&gt;gazebo -->
<g id="edge25" class="edge">
<title>freeglut&#45;&gt;gazebo</title>
<path fill="none" stroke="black" d="M1126.56,-216.76C1135.52,-207.93 1146.78,-196.83 1156.73,-187.01"/>
<polygon fill="black" stroke="black" points="1158.97,-189.72 1163.63,-180.21 1154.06,-184.74 1158.97,-189.72"/>
</g>
<!-- gst&#45;plugins&#45;ugly -->
<g id="node18" class="node">
<title>gst&#45;plugins&#45;ugly</title>
<g id="a_node18"><a xlink:href="https://github.com/conda-forge/gst-plugins-ugly-feedstock" xlink:title="gst plugins ugly">
<ellipse fill="#35b779" stroke="black" cx="1502.09" cy="-234" rx="91.72" ry="18"/>
<text text-anchor="middle" x="1502.09" y="-229.32" font-family="Times,serif" font-size="14.00">gst plugins ugly</text>
</a>
</g>
</g>
<!-- gst&#45;plugins&#45;bad -->
<g id="node19" class="node">
<title>gst&#45;plugins&#45;bad</title>
<g id="a_node19"><a xlink:href="https://github.com/conda-forge/gst-plugins-bad-feedstock" xlink:title="gst plugins bad">
<ellipse fill="#35b779" stroke="black" cx="1502.09" cy="-162" rx="88.56" ry="18"/>
<text text-anchor="middle" x="1502.09" y="-157.32" font-family="Times,serif" font-size="14.00">gst plugins bad</text>
</a>
</g>
</g>
<!-- gst&#45;plugins&#45;ugly&#45;&gt;gst&#45;plugins&#45;bad -->
<!-- vulkan&#45;tools -->
<g id="node20" class="node">
<title>vulkan&#45;tools</title>
<g id="a_node20"><a xlink:href="https://github.com/conda-forge/vulkan-tools-feedstock" xlink:title="vulkan tools">
<ellipse fill="#35b779" stroke="black" cx="1502.09" cy="-90" rx="71.73" ry="18"/>
<text text-anchor="middle" x="1502.09" y="-85.33" font-family="Times,serif" font-size="14.00">vulkan tools</text>
</a>
</g>
</g>
<!-- gst&#45;plugins&#45;bad&#45;&gt;vulkan&#45;tools -->
<!-- xcb&#45;util&#45;image -->
<g id="node21" class="node">
<title>xcb&#45;util&#45;image</title>
<g id="a_node21"><a xlink:href="https://github.com/conda-forge/xcb-util-image-feedstock/pull/5" xlink:title="xcb util image ✓">
<ellipse fill="#31688e" stroke="black" cx="201.09" cy="-306" rx="90.14" ry="18"/>
<text text-anchor="middle" x="201.09" y="-301.32" font-family="Times,serif" font-size="14.00" fill="white">xcb util image ✓</text>
</a>
</g>
</g>
<!-- xcb&#45;util&#45;image&#45;&gt;qt&#45;main -->
<g id="edge29" class="edge">
<title>xcb&#45;util&#45;image&#45;&gt;qt&#45;main</title>
<path fill="none" stroke="black" d="M276.46,-295.78C392.25,-281.61 611.4,-254.79 715.46,-242.05"/>
<polygon fill="black" stroke="black" points="715.66,-245.55 725.16,-240.87 714.81,-238.61 715.66,-245.55"/>
</g>
<!-- xcb&#45;util&#45;cursor -->
<g id="node22" class="node">
<title>xcb&#45;util&#45;cursor</title>
<g id="a_node22"><a xlink:href="https://github.com/conda-forge/xcb-util-cursor-feedstock" xlink:title="xcb util cursor">
<ellipse fill="#fde725" stroke="black" cx="201.09" cy="-234" rx="83.83" ry="18"/>
<text text-anchor="middle" x="201.09" y="-229.32" font-family="Times,serif" font-size="14.00">xcb util cursor</text>
</a>
</g>
</g>
<!-- xcb&#45;util&#45;image&#45;&gt;xcb&#45;util&#45;cursor -->
<g id="edge30" class="edge">
<title>xcb&#45;util&#45;image&#45;&gt;xcb&#45;util&#45;cursor</title>
<path fill="none" stroke="black" d="M201.09,-287.7C201.09,-280.41 201.09,-271.73 201.09,-263.54"/>
<polygon fill="black" stroke="black" points="204.59,-263.62 201.09,-253.62 197.59,-263.62 204.59,-263.62"/>
</g>
<!-- nsight&#45;compute -->
<g id="node23" class="node">
<title>nsight&#45;compute</title>
<g id="a_node23"><a xlink:href="https://github.com/conda-forge/nsight-compute-feedstock" xlink:title="nsight compute">
<ellipse fill="#fde725" stroke="black" cx="89.09" cy="-162" rx="89.09" ry="18"/>
<text text-anchor="middle" x="89.09" y="-157.32" font-family="Times,serif" font-size="14.00">nsight compute</text>
</a>
</g>
</g>
<!-- xcb&#45;util&#45;image&#45;&gt;nsight&#45;compute -->
<g id="edge31" class="edge">
<title>xcb&#45;util&#45;image&#45;&gt;nsight&#45;compute</title>
<path fill="none" stroke="black" d="M158.06,-289.73C140.06,-281.26 120.49,-268.95 108.09,-252 95.39,-234.64 90.82,-210.56 89.33,-191.83"/>
<polygon fill="black" stroke="black" points="92.83,-191.73 88.82,-181.93 85.84,-192.1 92.83,-191.73"/>
</g>
<!-- xcb&#45;util&#45;cursor&#45;&gt;nsight&#45;compute -->
<g id="edge32" class="edge">
<title>xcb&#45;util&#45;cursor&#45;&gt;nsight&#45;compute</title>
<path fill="none" stroke="black" d="M174.83,-216.59C160.05,-207.35 141.38,-195.68 125.24,-185.59"/>
<polygon fill="black" stroke="black" points="127.19,-182.69 116.86,-180.35 123.48,-188.62 127.19,-182.69"/>
</g>
</g>
</svg>
