<?xml version="1.0" encoding="UTF-8" standalone="no"?>
<!DOCTYPE svg PUBLIC "-//W3C//DTD SVG 1.1//EN"
 "http://www.w3.org/Graphics/SVG/1.1/DTD/svg11.dtd">
<!-- Generated by graphviz version 11.0.0 (20240519.1550)
 -->
<!-- Pages: 1 -->
<svg width="2529pt" height="404pt"
 viewBox="0.00 0.00 2528.76 404.00" xmlns="http://www.w3.org/2000/svg" xmlns:xlink="http://www.w3.org/1999/xlink">
<g id="graph0" class="graph" transform="scale(1 1) rotate(0) translate(4 400)">
<polygon fill="white" stroke="none" points="-4,4 -4,-400 2524.76,-400 2524.76,4 -4,4"/>
<!-- cairo -->
<g id="node1" class="node">
<title>cairo</title>
<g id="a_node1"><a xlink:href="https://github.com/conda-forge/cairo-feedstock" xlink:title="cairo">
<ellipse fill="#fde725" stroke="black" cx="1301.36" cy="-306" rx="35.95" ry="18"/>
<text text-anchor="middle" x="1301.36" y="-301.32" font-family="Times,serif" font-size="14.00">cairo</text>
</a>
</g>
</g>
<!-- ffmpeg -->
<g id="node2" class="node">
<title>ffmpeg</title>
<g id="a_node2"><a xlink:href="https://github.com/conda-forge/ffmpeg-feedstock" xlink:title="ffmpeg">
<ellipse fill="#fde725" stroke="black" cx="106.36" cy="-162" rx="45.95" ry="18"/>
<text text-anchor="middle" x="106.36" y="-157.32" font-family="Times,serif" font-size="14.00">ffmpeg</text>
</a>
</g>
</g>
<!-- cairo&#45;&gt;ffmpeg -->
<g id="edge1" class="edge">
<title>cairo&#45;&gt;ffmpeg</title>
<path fill="none" stroke="black" d="M1274.41,-293.77C1253.39,-284.32 1224.06,-269.55 1201.36,-252 1184.19,-238.72 1188.07,-225.11 1168.36,-216 1070.57,-170.79 306.47,-191.72 199.36,-180 185.6,-178.49 170.8,-176.13 157.15,-173.65"/>
<polygon fill="black" stroke="black" points="157.97,-170.24 147.49,-171.82 156.67,-177.12 157.97,-170.24"/>
</g>
<!-- gnuplot -->
<g id="node3" class="node">
<title>gnuplot</title>
<g id="a_node3"><a xlink:href="https://github.com/conda-forge/gnuplot-feedstock" xlink:title="gnuplot">
<ellipse fill="#fde725" stroke="black" cx="979.36" cy="-162" rx="49.63" ry="18"/>
<text text-anchor="middle" x="979.36" y="-157.32" font-family="Times,serif" font-size="14.00">gnuplot</text>
</a>
</g>
</g>
<!-- cairo&#45;&gt;gnuplot -->
<g id="edge2" class="edge">
<title>cairo&#45;&gt;gnuplot</title>
<path fill="none" stroke="black" d="M1288.24,-289.12C1270.63,-268.9 1237.38,-234.4 1201.36,-216 1135.3,-182.25 1110.27,-198.28 1038.36,-180 1034.85,-179.11 1031.23,-178.15 1027.59,-177.17"/>
<polygon fill="black" stroke="black" points="1028.75,-173.85 1018.18,-174.55 1026.88,-180.6 1028.75,-173.85"/>
</g>
<!-- lyx -->
<g id="node4" class="node">
<title>lyx</title>
<g id="a_node4"><a xlink:href="https://github.com/conda-forge/lyx-feedstock" xlink:title="lyx">
<ellipse fill="#fde725" stroke="black" cx="1074.36" cy="-162" rx="27" ry="18"/>
<text text-anchor="middle" x="1074.36" y="-157.32" font-family="Times,serif" font-size="14.00">lyx</text>
</a>
</g>
</g>
<!-- cairo&#45;&gt;lyx -->
<g id="edge3" class="edge">
<title>cairo&#45;&gt;lyx</title>
<path fill="none" stroke="black" d="M1301.73,-287.6C1301.15,-267.45 1296.97,-234.63 1277.36,-216 1222.32,-163.7 1182.27,-204.37 1110.36,-180 1108.81,-179.47 1107.23,-178.9 1105.65,-178.29"/>
<polygon fill="black" stroke="black" points="1107.31,-175.19 1096.74,-174.49 1104.57,-181.63 1107.31,-175.19"/>
</g>
<!-- qt&#45;main -->
<g id="node5" class="node">
<title>qt&#45;main</title>
<g id="a_node5"><a xlink:href="https://github.com/conda-forge/qt-main-feedstock" xlink:title="qt main">
<ellipse fill="#fde725" stroke="black" cx="1559.36" cy="-234" rx="49.63" ry="18"/>
<text text-anchor="middle" x="1559.36" y="-229.32" font-family="Times,serif" font-size="14.00">qt main</text>
</a>
</g>
</g>
<!-- cairo&#45;&gt;qt&#45;main -->
<g id="edge4" class="edge">
<title>cairo&#45;&gt;qt&#45;main</title>
<path fill="none" stroke="black" d="M1332.49,-296.56C1376.44,-284.63 1457.16,-262.73 1509.52,-248.52"/>
<polygon fill="black" stroke="black" points="1510.37,-251.92 1519.1,-245.92 1508.54,-245.16 1510.37,-251.92"/>
</g>
<!-- qt&#45;webengine -->
<g id="node6" class="node">
<title>qt&#45;webengine</title>
<g id="a_node6"><a xlink:href="https://github.com/conda-forge/qt-webengine-feedstock" xlink:title="qt webengine">
<ellipse fill="#fde725" stroke="black" cx="1198.36" cy="-162" rx="79.09" ry="18"/>
<text text-anchor="middle" x="1198.36" y="-157.32" font-family="Times,serif" font-size="14.00">qt webengine</text>
</a>
</g>
</g>
<!-- cairo&#45;&gt;qt&#45;webengine -->
<g id="edge5" class="edge">
<title>cairo&#45;&gt;qt&#45;webengine</title>
<path fill="none" stroke="black" d="M1336.15,-300.48C1365.22,-294.67 1404.94,-281.53 1424.36,-252 1433.16,-238.63 1434.3,-228.54 1424.36,-216 1419.34,-209.66 1331.56,-190.39 1266.91,-176.93"/>
<polygon fill="black" stroke="black" points="1267.93,-173.56 1257.42,-174.96 1266.51,-180.42 1267.93,-173.56"/>
</g>
<!-- silicon -->
<g id="node7" class="node">
<title>silicon</title>
<g id="a_node7"><a xlink:href="https://github.com/conda-forge/silicon-feedstock" xlink:title="silicon">
<ellipse fill="#fde725" stroke="black" cx="1372.36" cy="-234" rx="43.32" ry="18"/>
<text text-anchor="middle" x="1372.36" y="-229.32" font-family="Times,serif" font-size="14.00">silicon</text>
</a>
</g>
</g>
<!-- cairo&#45;&gt;silicon -->
<g id="edge6" class="edge">
<title>cairo&#45;&gt;silicon</title>
<path fill="none" stroke="black" d="M1317.12,-289.46C1326.19,-280.53 1337.77,-269.11 1347.98,-259.04"/>
<polygon fill="black" stroke="black" points="1350.42,-261.55 1355.08,-252.04 1345.5,-256.57 1350.42,-261.55"/>
</g>
<!-- vtk -->
<g id="node8" class="node">
<title>vtk</title>
<g id="a_node8"><a xlink:href="https://github.com/conda-forge/vtk-feedstock" xlink:title="vtk">
<ellipse fill="#fde725" stroke="black" cx="69.36" cy="-90" rx="27.01" ry="18"/>
<text text-anchor="middle" x="69.36" y="-85.33" font-family="Times,serif" font-size="14.00">vtk</text>
</a>
</g>
</g>
<!-- ffmpeg&#45;&gt;vtk -->
<g id="edge7" class="edge">
<title>ffmpeg&#45;&gt;vtk</title>
<path fill="none" stroke="black" d="M97.41,-144.05C93.17,-136.03 88,-126.26 83.26,-117.3"/>
<polygon fill="black" stroke="black" points="86.46,-115.85 78.69,-108.65 80.27,-119.12 86.46,-115.85"/>
</g>
<!-- gazebo -->
<g id="node9" class="node">
<title>gazebo</title>
<g id="a_node9"><a xlink:href="https://github.com/conda-forge/gazebo-feedstock" xlink:title="gazebo">
<ellipse fill="#fde725" stroke="black" cx="409.36" cy="-90" rx="46.47" ry="18"/>
<text text-anchor="middle" x="409.36" y="-85.33" font-family="Times,serif" font-size="14.00">gazebo</text>
</a>
</g>
</g>
<!-- ffmpeg&#45;&gt;gazebo -->
<g id="edge8" class="edge">
<title>ffmpeg&#45;&gt;gazebo</title>
<path fill="none" stroke="black" d="M145.36,-151.99C199.86,-139.4 298.88,-116.52 358.94,-102.65"/>
<polygon fill="black" stroke="black" points="359.61,-106.09 368.57,-100.42 358.04,-99.27 359.61,-106.09"/>
</g>
<!-- qt&#45;main&#45;&gt;gnuplot -->
<g id="edge9" class="edge">
<title>qt&#45;main&#45;&gt;gnuplot</title>
<path fill="none" stroke="black" d="M1513.48,-226.85C1487.38,-223.44 1454.07,-219.25 1424.36,-216 1253.09,-197.23 1207.67,-211.99 1038.36,-180 1034.53,-179.28 1030.59,-178.41 1026.64,-177.46"/>
<polygon fill="black" stroke="black" points="1027.64,-174.1 1017.08,-174.98 1025.88,-180.88 1027.64,-174.1"/>
</g>
<!-- qt&#45;main&#45;&gt;lyx -->
<g id="edge10" class="edge">
<title>qt&#45;main&#45;&gt;lyx</title>
<path fill="none" stroke="black" d="M1513.14,-227.05C1487.08,-223.73 1453.92,-219.55 1424.36,-216 1284.9,-199.22 1245.45,-218.5 1110.36,-180 1108.74,-179.54 1107.11,-179.01 1105.47,-178.43"/>
<polygon fill="black" stroke="black" points="1106.84,-175.21 1096.26,-174.66 1104.18,-181.69 1106.84,-175.21"/>
</g>
<!-- qt&#45;main&#45;&gt;qt&#45;webengine -->
<g id="edge11" class="edge">
<title>qt&#45;main&#45;&gt;qt&#45;webengine</title>
<path fill="none" stroke="black" d="M1520.91,-222.22C1512.52,-220.03 1503.67,-217.83 1495.36,-216 1405.46,-196.16 1381.98,-196.28 1291.36,-180 1284.28,-178.73 1276.9,-177.39 1269.53,-176.05"/>
<polygon fill="black" stroke="black" points="1270.34,-172.65 1259.88,-174.3 1269.09,-179.53 1270.34,-172.65"/>
</g>
<!-- qt&#45;main&#45;&gt;gazebo -->
<g id="edge12" class="edge">
<title>qt&#45;main&#45;&gt;gazebo</title>
<path fill="none" stroke="black" d="M1520.49,-222.47C1512.21,-220.29 1503.51,-218.03 1495.36,-216 1427.17,-198.98 1405.98,-207.67 1341.36,-180 1314.51,-168.5 1314.13,-153.09 1286.36,-144 1143.4,-97.19 760.44,-118.34 610.36,-108 561.39,-104.63 505.79,-99.85 465.5,-96.22"/>
<polygon fill="black" stroke="black" points="465.82,-92.73 455.55,-95.32 465.19,-99.71 465.82,-92.73"/>
</g>
<!-- colmap -->
<g id="node10" class="node">
<title>colmap</title>
<g id="a_node10"><a xlink:href="https://github.com/conda-forge/colmap-feedstock" xlink:title="colmap">
<ellipse fill="#fde725" stroke="black" cx="255.36" cy="-162" rx="47" ry="18"/>
<text text-anchor="middle" x="255.36" y="-157.32" font-family="Times,serif" font-size="14.00">colmap</text>
</a>
</g>
</g>
<!-- qt&#45;main&#45;&gt;colmap -->
<g id="edge13" class="edge">
<title>qt&#45;main&#45;&gt;colmap</title>
<path fill="none" stroke="black" d="M1514.16,-226.26C1487.99,-222.61 1454.39,-218.39 1424.36,-216 947.82,-178.1 824.72,-230.67 349.36,-180 335.45,-178.52 320.5,-176.16 306.7,-173.68"/>
<polygon fill="black" stroke="black" points="307.39,-170.25 296.92,-171.85 306.11,-177.13 307.39,-170.25"/>
</g>
<!-- kwindowsystem -->
<g id="node11" class="node">
<title>kwindowsystem</title>
<g id="a_node11"><a xlink:href="https://github.com/conda-forge/kwindowsystem-feedstock" xlink:title="kwindowsystem">
<ellipse fill="#fde725" stroke="black" cx="1895.36" cy="-90" rx="91.19" ry="18"/>
<text text-anchor="middle" x="1895.36" y="-85.33" font-family="Times,serif" font-size="14.00">kwindowsystem</text>
</a>
</g>
</g>
<!-- qt&#45;main&#45;&gt;kwindowsystem -->
<g id="edge14" class="edge">
<title>qt&#45;main&#45;&gt;kwindowsystem</title>
<path fill="none" stroke="black" d="M1599.93,-223.19C1635.74,-213.94 1688.99,-198.71 1733.36,-180 1778.46,-160.99 1827.31,-133.05 1859.45,-113.56"/>
<polygon fill="black" stroke="black" points="1861.27,-116.54 1867.97,-108.34 1857.62,-110.57 1861.27,-116.54"/>
</g>
<!-- kglobalaccel -->
<g id="node12" class="node">
<title>kglobalaccel</title>
<g id="a_node12"><a xlink:href="https://github.com/conda-forge/kglobalaccel-feedstock" xlink:title="kglobalaccel">
<ellipse fill="#fde725" stroke="black" cx="1719.36" cy="-18" rx="72.78" ry="18"/>
<text text-anchor="middle" x="1719.36" y="-13.32" font-family="Times,serif" font-size="14.00">kglobalaccel</text>
</a>
</g>
</g>
<!-- qt&#45;main&#45;&gt;kglobalaccel -->
<g id="edge15" class="edge">
<title>qt&#45;main&#45;&gt;kglobalaccel</title>
<path fill="none" stroke="black" d="M1606.41,-227.91C1638.02,-221.88 1677.87,-208.72 1700.36,-180 1730.09,-142.04 1728.54,-82.79 1724.26,-47.74"/>
<polygon fill="black" stroke="black" points="1727.74,-47.35 1722.89,-37.93 1720.81,-48.32 1727.74,-47.35"/>
</g>
<!-- qt6&#45;advanced&#45;docking&#45;system -->
<g id="node13" class="node">
<title>qt6&#45;advanced&#45;docking&#45;system</title>
<g id="a_node13"><a xlink:href="https://github.com/conda-forge/qt6-advanced-docking-system-feedstock" xlink:title="qt6 advanced docking system">
<ellipse fill="#fde725" stroke="black" cx="1531.36" cy="-162" rx="159.59" ry="18"/>
<text text-anchor="middle" x="1531.36" y="-157.32" font-family="Times,serif" font-size="14.00">qt6 advanced docking system</text>
</a>
</g>
</g>
<!-- qt&#45;main&#45;&gt;qt6&#45;advanced&#45;docking&#45;system -->
<g id="edge16" class="edge">
<title>qt&#45;main&#45;&gt;qt6&#45;advanced&#45;docking&#45;system</title>
<path fill="none" stroke="black" d="M1552.44,-215.7C1549.43,-208.15 1545.81,-199.12 1542.44,-190.68"/>
<polygon fill="black" stroke="black" points="1545.73,-189.49 1538.77,-181.51 1539.23,-192.09 1545.73,-189.49"/>
</g>
<!-- adwaita&#45;qt -->
<g id="node14" class="node">
<title>adwaita&#45;qt</title>
<g id="a_node14"><a xlink:href="https://github.com/conda-forge/adwaita-qt-feedstock" xlink:title="adwaita qt">
<ellipse fill="#fde725" stroke="black" cx="1343.36" cy="-90" rx="64.36" ry="18"/>
<text text-anchor="middle" x="1343.36" y="-85.33" font-family="Times,serif" font-size="14.00">adwaita qt</text>
</a>
</g>
</g>
<!-- qt&#45;main&#45;&gt;adwaita&#45;qt -->
<g id="edge17" class="edge">
<title>qt&#45;main&#45;&gt;adwaita&#45;qt</title>
<path fill="none" stroke="black" d="M1520.14,-222.58C1462.88,-207.36 1363.06,-180.73 1362.36,-180 1347.23,-164.05 1342.94,-139.15 1342.17,-119.74"/>
<polygon fill="black" stroke="black" points="1345.67,-119.98 1342.09,-110.01 1338.67,-120.03 1345.67,-119.98"/>
</g>
<!-- qt&#45;webengine&#45;&gt;kwindowsystem -->
<g id="edge18" class="edge">
<title>qt&#45;webengine&#45;&gt;kwindowsystem</title>
<path fill="none" stroke="black" d="M1268.99,-153.61C1297.93,-150.6 1331.75,-147.11 1362.36,-144 1517.24,-128.27 1697.47,-110.45 1803.68,-100"/>
<polygon fill="black" stroke="black" points="1803.87,-103.5 1813.48,-99.04 1803.19,-96.53 1803.87,-103.5"/>
</g>
<!-- qt&#45;webengine&#45;&gt;kglobalaccel -->
<g id="edge19" class="edge">
<title>qt&#45;webengine&#45;&gt;kglobalaccel</title>
<path fill="none" stroke="black" d="M1206.86,-143.87C1218.22,-123.01 1240.43,-88.51 1270.36,-72 1331.41,-38.33 1523.95,-25.87 1636.09,-21.39"/>
<polygon fill="black" stroke="black" points="1635.98,-24.9 1645.84,-21.02 1635.71,-17.9 1635.98,-24.9"/>
</g>
<!-- kwindowsystem&#45;&gt;kglobalaccel -->
<g id="edge54" class="edge">
<title>kwindowsystem&#45;&gt;kglobalaccel</title>
<path fill="none" stroke="black" d="M1856.3,-73.46C1829.99,-63 1795.12,-49.13 1767.16,-38.01"/>
<polygon fill="black" stroke="black" points="1768.8,-34.89 1758.21,-34.45 1766.21,-41.4 1768.8,-34.89"/>
</g>
<!-- gstreamer -->
<g id="node15" class="node">
<title>gstreamer</title>
<g id="a_node15"><a xlink:href="https://github.com/conda-forge/gstreamer-feedstock" xlink:title="gstreamer">
<ellipse fill="#fde725" stroke="black" cx="1070.36" cy="-306" rx="63.31" ry="18"/>
<text text-anchor="middle" x="1070.36" y="-301.32" font-family="Times,serif" font-size="14.00">gstreamer</text>
</a>
</g>
</g>
<!-- gstreamer&#45;&gt;qt&#45;main -->
<g id="edge20" class="edge">
<title>gstreamer&#45;&gt;qt&#45;main</title>
<path fill="none" stroke="black" d="M1125.98,-297.04C1219.7,-283.62 1408.08,-256.66 1502.58,-243.13"/>
<polygon fill="black" stroke="black" points="1503,-246.6 1512.4,-241.72 1502.01,-239.68 1503,-246.6"/>
</g>
<!-- gstreamer&#45;&gt;qt&#45;webengine -->
<g id="edge21" class="edge">
<title>gstreamer&#45;&gt;qt&#45;webengine</title>
<path fill="none" stroke="black" d="M1109.82,-291.68C1129.81,-283.14 1153.04,-270.2 1168.36,-252 1182.82,-234.84 1190.41,-210.4 1194.33,-191.47"/>
<polygon fill="black" stroke="black" points="1197.76,-192.19 1196.1,-181.73 1190.87,-190.94 1197.76,-192.19"/>
</g>
<!-- gst&#45;plugins&#45;ugly -->
<g id="node16" class="node">
<title>gst&#45;plugins&#45;ugly</title>
<g id="a_node16"><a xlink:href="https://github.com/conda-forge/gst-plugins-ugly-feedstock" xlink:title="gst plugins ugly">
<ellipse fill="#fde725" stroke="black" cx="872.36" cy="-234" rx="91.72" ry="18"/>
<text text-anchor="middle" x="872.36" y="-229.32" font-family="Times,serif" font-size="14.00">gst plugins ugly</text>
</a>
</g>
</g>
<!-- gstreamer&#45;&gt;gst&#45;plugins&#45;ugly -->
<g id="edge22" class="edge">
<title>gstreamer&#45;&gt;gst&#45;plugins&#45;ugly</title>
<path fill="none" stroke="black" d="M1031.72,-291.34C1001.56,-280.67 959.31,-265.74 925.89,-253.92"/>
<polygon fill="black" stroke="black" points="927.4,-250.75 916.81,-250.71 925.07,-257.35 927.4,-250.75"/>
</g>
<!-- gst&#45;plugins&#45;bad -->
<g id="node17" class="node">
<title>gst&#45;plugins&#45;bad</title>
<g id="a_node17"><a xlink:href="https://github.com/conda-forge/gst-plugins-bad-feedstock" xlink:title="gst plugins bad">
<ellipse fill="#fde725" stroke="black" cx="1070.36" cy="-234" rx="88.56" ry="18"/>
<text text-anchor="middle" x="1070.36" y="-229.32" font-family="Times,serif" font-size="14.00">gst plugins bad</text>
</a>
</g>
</g>
<!-- gstreamer&#45;&gt;gst&#45;plugins&#45;bad -->
<g id="edge23" class="edge">
<title>gstreamer&#45;&gt;gst&#45;plugins&#45;bad</title>
<path fill="none" stroke="black" d="M1070.36,-287.7C1070.36,-280.41 1070.36,-271.73 1070.36,-263.54"/>
<polygon fill="black" stroke="black" points="1073.86,-263.62 1070.36,-253.62 1066.86,-263.62 1073.86,-263.62"/>
</g>
<!-- libglu -->
<g id="node18" class="node">
<title>libglu</title>
<g id="a_node18"><a xlink:href="https://github.com/conda-forge/libglu-feedstock" xlink:title="libglu">
<ellipse fill="#fde725" stroke="black" cx="335.36" cy="-234" rx="39.63" ry="18"/>
<text text-anchor="middle" x="335.36" y="-229.32" font-family="Times,serif" font-size="14.00">libglu</text>
</a>
</g>
</g>
<!-- libglu&#45;&gt;vtk -->
<g id="edge24" class="edge">
<title>libglu&#45;&gt;vtk</title>
<path fill="none" stroke="black" d="M301.81,-223.91C273.19,-215.25 231.68,-200.49 199.36,-180 179.72,-167.54 180.02,-157.9 161.36,-144 142.34,-129.82 119.18,-116.5 100.86,-106.76"/>
<polygon fill="black" stroke="black" points="102.53,-103.68 92.04,-102.16 99.29,-109.89 102.53,-103.68"/>
</g>
<!-- libglu&#45;&gt;gazebo -->
<g id="edge25" class="edge">
<title>libglu&#45;&gt;gazebo</title>
<path fill="none" stroke="black" d="M334.71,-215.84C334.73,-197.06 336.95,-166.63 349.36,-144 355.98,-131.94 366.45,-121.28 376.81,-112.74"/>
<polygon fill="black" stroke="black" points="378.81,-115.61 384.58,-106.73 374.53,-110.08 378.81,-115.61"/>
</g>
<!-- libglu&#45;&gt;colmap -->
<g id="edge28" class="edge">
<title>libglu&#45;&gt;colmap</title>
<path fill="none" stroke="black" d="M317.61,-217.46C307.19,-208.35 293.82,-196.65 282.15,-186.43"/>
<polygon fill="black" stroke="black" points="284.59,-183.92 274.76,-179.97 279.98,-189.19 284.59,-183.92"/>
</g>
<!-- freeglut -->
<g id="node19" class="node">
<title>freeglut</title>
<g id="a_node19"><a xlink:href="https://github.com/conda-forge/freeglut-feedstock" xlink:title="freeglut">
<ellipse fill="#fde725" stroke="black" cx="409.36" cy="-162" rx="51.21" ry="18"/>
<text text-anchor="middle" x="409.36" y="-157.32" font-family="Times,serif" font-size="14.00">freeglut</text>
</a>
</g>
</g>
<!-- libglu&#45;&gt;freeglut -->
<g id="edge26" class="edge">
<title>libglu&#45;&gt;freeglut</title>
<path fill="none" stroke="black" d="M351.79,-217.46C361.26,-208.5 373.38,-197.04 384.05,-186.95"/>
<polygon fill="black" stroke="black" points="386.26,-189.68 391.12,-180.26 381.45,-184.59 386.26,-189.68"/>
</g>
<!-- fltk -->
<g id="node20" class="node">
<title>fltk</title>
<g id="a_node20"><a xlink:href="https://github.com/conda-forge/fltk-feedstock" xlink:title="fltk">
<ellipse fill="#fde725" stroke="black" cx="506.36" cy="-162" rx="27.53" ry="18"/>
<text text-anchor="middle" x="506.36" y="-157.32" font-family="Times,serif" font-size="14.00">fltk</text>
</a>
</g>
</g>
<!-- libglu&#45;&gt;fltk -->
<g id="edge27" class="edge">
<title>libglu&#45;&gt;fltk</title>
<path fill="none" stroke="black" d="M365.09,-221.77C392.37,-211.34 433.82,-195.18 469.36,-180 470.91,-179.34 472.48,-178.66 474.07,-177.96"/>
<polygon fill="black" stroke="black" points="475.47,-181.17 483.16,-173.88 472.6,-174.78 475.47,-181.17"/>
</g>
<!-- freeglut&#45;&gt;gazebo -->
<g id="edge29" class="edge">
<title>freeglut&#45;&gt;gazebo</title>
<path fill="none" stroke="black" d="M409.36,-143.7C409.36,-136.41 409.36,-127.73 409.36,-119.54"/>
<polygon fill="black" stroke="black" points="412.86,-119.62 409.36,-109.62 405.86,-119.62 412.86,-119.62"/>
</g>
<!-- mesalib -->
<g id="node21" class="node">
<title>mesalib</title>
<g id="a_node21"><a xlink:href="https://github.com/conda-forge/mesalib-feedstock" xlink:title="mesalib">
<ellipse fill="#fde725" stroke="black" cx="82.36" cy="-306" rx="50.16" ry="18"/>
<text text-anchor="middle" x="82.36" y="-301.32" font-family="Times,serif" font-size="14.00">mesalib</text>
</a>
</g>
</g>
<!-- mesalib&#45;&gt;vtk -->
<g id="edge30" class="edge">
<title>mesalib&#45;&gt;vtk</title>
<path fill="none" stroke="black" d="M75.12,-288.13C63.45,-258.88 42.64,-196.8 51.36,-144 52.76,-135.53 55.34,-126.59 58.12,-118.52"/>
<polygon fill="black" stroke="black" points="61.36,-119.83 61.55,-109.24 54.8,-117.41 61.36,-119.83"/>
</g>
<!-- xorg&#45;libx11 -->
<g id="node22" class="node">
<title>xorg&#45;libx11</title>
<g id="a_node22"><a xlink:href="https://github.com/conda-forge/xorg-libx11-feedstock/pull/39" xlink:title="xorg libx11 ❎">
<ellipse fill="#31688e" stroke="black" cx="657.36" cy="-378" rx="83.3" ry="18"/>
<text text-anchor="middle" x="657.36" y="-373.32" font-family="Times,serif" font-size="14.00" fill="white">xorg libx11 ❎</text>
</a>
</g>
</g>
<!-- xorg&#45;libx11&#45;&gt;cairo -->
<g id="edge31" class="edge">
<title>xorg&#45;libx11&#45;&gt;cairo</title>
<path fill="none" stroke="black" d="M730.61,-369.04C864.37,-354.5 1144.53,-324.05 1255.08,-312.03"/>
<polygon fill="black" stroke="black" points="1255.41,-315.52 1264.97,-310.96 1254.65,-308.56 1255.41,-315.52"/>
</g>
<!-- xorg&#45;libx11&#45;&gt;ffmpeg -->
<g id="edge32" class="edge">
<title>xorg&#45;libx11&#45;&gt;ffmpeg</title>
<path fill="none" stroke="black" d="M574.32,-375.94C502.34,-372.33 396.78,-360.48 312.36,-324 302.22,-319.62 188.31,-228.74 134.37,-185.5"/>
<polygon fill="black" stroke="black" points="136.81,-182.97 126.82,-179.44 132.43,-188.43 136.81,-182.97"/>
</g>
<!-- xorg&#45;libx11&#45;&gt;gnuplot -->
<g id="edge33" class="edge">
<title>xorg&#45;libx11&#45;&gt;gnuplot</title>
<path fill="none" stroke="black" d="M668.99,-359.69C675.61,-349.51 683.86,-336.26 690.36,-324 714.97,-277.59 697.67,-249.21 738.36,-216 765.9,-193.53 858.98,-177.92 921.08,-169.72"/>
<polygon fill="black" stroke="black" points="921.32,-173.22 930.79,-168.47 920.42,-166.28 921.32,-173.22"/>
</g>
<!-- xorg&#45;libx11&#45;&gt;lyx -->
<g id="edge34" class="edge">
<title>xorg&#45;libx11&#45;&gt;lyx</title>
<path fill="none" stroke="black" d="M677.24,-360.07C688.1,-350.21 701.34,-337.17 711.36,-324 744.64,-280.32 726.01,-246.95 771.36,-216 870.27,-148.5 923.54,-213.96 1038.36,-180 1039.98,-179.52 1041.61,-178.98 1043.25,-178.39"/>
<polygon fill="black" stroke="black" points="1044.55,-181.64 1052.45,-174.59 1041.87,-175.17 1044.55,-181.64"/>
</g>
<!-- xorg&#45;libx11&#45;&gt;qt&#45;main -->
<g id="edge35" class="edge">
<title>xorg&#45;libx11&#45;&gt;qt&#45;main</title>
<path fill="none" stroke="black" d="M740.45,-375.76C939.21,-372.21 1430.47,-359.9 1495.36,-324 1519.9,-310.43 1537.39,-283 1547.82,-262.16"/>
<polygon fill="black" stroke="black" points="1550.88,-263.88 1551.98,-253.34 1544.55,-260.89 1550.88,-263.88"/>
</g>
<!-- xorg&#45;libx11&#45;&gt;qt&#45;webengine -->
<g id="edge36" class="edge">
<title>xorg&#45;libx11&#45;&gt;qt&#45;webengine</title>
<path fill="none" stroke="black" d="M740.8,-376.43C899.3,-374.4 1237.77,-365.2 1346.36,-324 1395.9,-305.21 1417.79,-299.44 1441.36,-252 1448.48,-237.67 1451.4,-228.46 1441.36,-216 1438.56,-212.52 1337.94,-191.41 1267.07,-176.91"/>
<polygon fill="black" stroke="black" points="1267.96,-173.52 1257.46,-174.94 1266.56,-180.38 1267.96,-173.52"/>
</g>
<!-- xorg&#45;libx11&#45;&gt;vtk -->
<g id="edge37" class="edge">
<title>xorg&#45;libx11&#45;&gt;vtk</title>
<path fill="none" stroke="black" d="M574,-376.18C410.38,-373.69 59.91,-363.73 23.36,-324 -30.34,-265.62 22.65,-163.4 52.31,-116.2"/>
<polygon fill="black" stroke="black" points="55.11,-118.31 57.58,-108.01 49.22,-114.52 55.11,-118.31"/>
</g>
<!-- xorg&#45;libx11&#45;&gt;gazebo -->
<g id="edge38" class="edge">
<title>xorg&#45;libx11&#45;&gt;gazebo</title>
<path fill="none" stroke="black" d="M640.34,-360C631.14,-350.13 620.12,-337.08 612.36,-324 568.68,-250.3 603.63,-204.9 543.36,-144 521.56,-121.96 489.46,-108.84 462.15,-101.17"/>
<polygon fill="black" stroke="black" points="463.2,-97.82 452.64,-98.68 461.43,-104.6 463.2,-97.82"/>
</g>
<!-- xorg&#45;libx11&#45;&gt;colmap -->
<g id="edge45" class="edge">
<title>xorg&#45;libx11&#45;&gt;colmap</title>
<path fill="none" stroke="black" d="M577.6,-372.49C519.32,-366.74 439.57,-353.68 375.36,-324 329.18,-302.65 315.63,-293.62 286.36,-252 273.56,-233.8 265.62,-209.82 260.98,-191.34"/>
<polygon fill="black" stroke="black" points="264.44,-190.8 258.78,-181.85 257.62,-192.38 264.44,-190.8"/>
</g>
<!-- xorg&#45;libx11&#45;&gt;kwindowsystem -->
<g id="edge48" class="edge">
<title>xorg&#45;libx11&#45;&gt;kwindowsystem</title>
<path fill="none" stroke="black" d="M740.32,-375.74C998.39,-371.5 1772.45,-356.14 1815.36,-324 1880.35,-275.32 1892.95,-170.7 1895.12,-119.88"/>
<polygon fill="black" stroke="black" points="1898.61,-120.09 1895.42,-109.99 1891.62,-119.87 1898.61,-120.09"/>
</g>
<!-- xorg&#45;libx11&#45;&gt;kglobalaccel -->
<g id="edge49" class="edge">
<title>xorg&#45;libx11&#45;&gt;kglobalaccel</title>
<path fill="none" stroke="black" d="M658.06,-359.64C660.29,-327.03 669.71,-256.31 709.36,-216 744.11,-180.68 872.75,-157.69 920.36,-144 1054.64,-105.39 1088.64,-95.51 1226.36,-72 1370.63,-47.37 1540.72,-32.08 1638.71,-24.58"/>
<polygon fill="black" stroke="black" points="1638.78,-28.09 1648.49,-23.85 1638.25,-21.11 1638.78,-28.09"/>
</g>
<!-- xorg&#45;libx11&#45;&gt;gstreamer -->
<g id="edge39" class="edge">
<title>xorg&#45;libx11&#45;&gt;gstreamer</title>
<path fill="none" stroke="black" d="M721.44,-366.14C798.86,-353.02 928.35,-331.07 1005.93,-317.92"/>
<polygon fill="black" stroke="black" points="1006.22,-321.42 1015.49,-316.3 1005.05,-314.52 1006.22,-321.42"/>
</g>
<!-- xorg&#45;libx11&#45;&gt;gst&#45;plugins&#45;ugly -->
<g id="edge40" class="edge">
<title>xorg&#45;libx11&#45;&gt;gst&#45;plugins&#45;ugly</title>
<path fill="none" stroke="black" d="M694.92,-361.49C716.52,-351.91 743.77,-338.66 766.36,-324 795.82,-304.89 826.19,-278.6 846.83,-259.55"/>
<polygon fill="black" stroke="black" points="849.02,-262.29 853.94,-252.91 844.24,-257.17 849.02,-262.29"/>
</g>
<!-- xorg&#45;libx11&#45;&gt;gst&#45;plugins&#45;bad -->
<g id="edge41" class="edge">
<title>xorg&#45;libx11&#45;&gt;gst&#45;plugins&#45;bad</title>
<path fill="none" stroke="black" d="M700.39,-362.21C776.02,-336.2 932.63,-282.36 1015.76,-253.77"/>
<polygon fill="black" stroke="black" points="1016.75,-257.14 1025.07,-250.57 1014.47,-250.52 1016.75,-257.14"/>
</g>
<!-- xorg&#45;libx11&#45;&gt;libglu -->
<g id="edge42" class="edge">
<title>xorg&#45;libx11&#45;&gt;libglu</title>
<path fill="none" stroke="black" d="M580.87,-370.49C533.44,-363.88 472.57,-350.62 424.36,-324 395.96,-308.32 370.57,-280.88 354.24,-260.61"/>
<polygon fill="black" stroke="black" points="357.04,-258.51 348.13,-252.78 351.53,-262.82 357.04,-258.51"/>
</g>
<!-- xorg&#45;libx11&#45;&gt;freeglut -->
<g id="edge43" class="edge">
<title>xorg&#45;libx11&#45;&gt;freeglut</title>
<path fill="none" stroke="black" d="M604.41,-363.82C578.15,-355.45 547.07,-342.62 523.36,-324 476.25,-287.01 440.3,-225.41 422.25,-190.09"/>
<polygon fill="black" stroke="black" points="425.51,-188.78 417.91,-181.39 419.24,-191.9 425.51,-188.78"/>
</g>
<!-- xorg&#45;libx11&#45;&gt;fltk -->
<g id="edge44" class="edge">
<title>xorg&#45;libx11&#45;&gt;fltk</title>
<path fill="none" stroke="black" d="M607.72,-363.18C586.65,-354.98 563.51,-342.47 548.36,-324 516.99,-285.73 508.8,-226.59 506.81,-191.64"/>
<polygon fill="black" stroke="black" points="510.32,-191.72 506.4,-181.88 503.32,-192.01 510.32,-191.72"/>
</g>
<!-- xorg&#45;libx11&#45;&gt;mesalib -->
<g id="edge46" class="edge">
<title>xorg&#45;libx11&#45;&gt;mesalib</title>
<path fill="none" stroke="black" d="M579.54,-371.33C481.41,-363.57 307.7,-347.84 160.36,-324 151.9,-322.63 142.97,-320.93 134.29,-319.14"/>
<polygon fill="black" stroke="black" points="135.08,-315.73 124.57,-317.06 133.62,-322.57 135.08,-315.73"/>
</g>
<!-- libva -->
<g id="node23" class="node">
<title>libva</title>
<g id="a_node23"><a xlink:href="https://github.com/conda-forge/libva-feedstock" xlink:title="libva">
<ellipse fill="#fde725" stroke="black" cx="128.36" cy="-234" rx="35.42" ry="18"/>
<text text-anchor="middle" x="128.36" y="-229.32" font-family="Times,serif" font-size="14.00">libva</text>
</a>
</g>
</g>
<!-- xorg&#45;libx11&#45;&gt;libva -->
<g id="edge47" class="edge">
<title>xorg&#45;libx11&#45;&gt;libva</title>
<path fill="none" stroke="black" d="M575.3,-374.44C462.85,-369.75 267.68,-357.01 205.36,-324 178.52,-309.78 156.89,-282.06 143.46,-261.32"/>
<polygon fill="black" stroke="black" points="146.59,-259.72 138.35,-253.07 140.65,-263.41 146.59,-259.72"/>
</g>
<!-- vulkan&#45;loader -->
<g id="node24" class="node">
<title>vulkan&#45;loader</title>
<g id="a_node24"><a xlink:href="https://github.com/conda-forge/vulkan-loader-feedstock" xlink:title="vulkan loader">
<ellipse fill="#fde725" stroke="black" cx="669.36" cy="-162" rx="79.09" ry="18"/>
<text text-anchor="middle" x="669.36" y="-157.32" font-family="Times,serif" font-size="14.00">vulkan loader</text>
</a>
</g>
</g>
<!-- xorg&#45;libx11&#45;&gt;vulkan&#45;loader -->
<g id="edge50" class="edge">
<title>xorg&#45;libx11&#45;&gt;vulkan&#45;loader</title>
<path fill="none" stroke="black" d="M643.38,-360.04C636.17,-350.18 628.12,-337.13 624.36,-324 611.17,-277.85 607.82,-261.06 624.36,-216 628.15,-205.68 634.94,-196 642.11,-187.8"/>
<polygon fill="black" stroke="black" points="644.56,-190.31 648.89,-180.64 639.47,-185.5 644.56,-190.31"/>
</g>
<!-- vulkan&#45;tools -->
<g id="node25" class="node">
<title>vulkan&#45;tools</title>
<g id="a_node25"><a xlink:href="https://github.com/conda-forge/vulkan-tools-feedstock" xlink:title="vulkan tools">
<ellipse fill="#fde725" stroke="black" cx="691.36" cy="-90" rx="71.73" ry="18"/>
<text text-anchor="middle" x="691.36" y="-85.33" font-family="Times,serif" font-size="14.00">vulkan tools</text>
</a>
</g>
</g>
<!-- xorg&#45;libx11&#45;&gt;vulkan&#45;tools -->
<g id="edge51" class="edge">
<title>xorg&#45;libx11&#45;&gt;vulkan&#45;tools</title>
<path fill="none" stroke="black" d="M652.17,-359.54C643.83,-327.7 631.34,-259.48 662.36,-216 688.59,-179.25 731.71,-217.16 757.36,-180 766.46,-166.83 764.28,-158.43 757.36,-144 751.52,-131.8 741.34,-121.53 730.71,-113.37"/>
<polygon fill="black" stroke="black" points="732.76,-110.53 722.58,-107.62 728.72,-116.25 732.76,-110.53"/>
</g>
<!-- nsight&#45;compute -->
<g id="node26" class="node">
<title>nsight&#45;compute</title>
<g id="a_node26"><a xlink:href="https://github.com/conda-forge/nsight-compute-feedstock" xlink:title="nsight compute">
<ellipse fill="#fde725" stroke="black" cx="2081.36" cy="-162" rx="89.09" ry="18"/>
<text text-anchor="middle" x="2081.36" y="-157.32" font-family="Times,serif" font-size="14.00">nsight compute</text>
</a>
</g>
</g>
<!-- xorg&#45;libx11&#45;&gt;nsight&#45;compute -->
<g id="edge52" class="edge">
<title>xorg&#45;libx11&#45;&gt;nsight&#45;compute</title>
<path fill="none" stroke="black" d="M740.67,-376.55C1032.07,-374.61 1990.78,-365.14 2041.36,-324 2080.41,-292.24 2084.79,-228.82 2083.63,-191.77"/>
<polygon fill="black" stroke="black" points="2087.13,-191.62 2083.15,-181.8 2080.14,-191.96 2087.13,-191.62"/>
</g>
<!-- libva&#45;&gt;ffmpeg -->
<g id="edge53" class="edge">
<title>libva&#45;&gt;ffmpeg</title>
<path fill="none" stroke="black" d="M123.04,-216.05C120.7,-208.6 117.88,-199.64 115.23,-191.22"/>
<polygon fill="black" stroke="black" points="118.58,-190.21 112.25,-181.72 111.91,-192.31 118.58,-190.21"/>
</g>
<!-- vulkan&#45;loader&#45;&gt;vulkan&#45;tools -->
<g id="edge55" class="edge">
<title>vulkan&#45;loader&#45;&gt;vulkan&#45;tools</title>
<path fill="none" stroke="black" d="M674.8,-143.7C677.15,-136.24 679.95,-127.32 682.58,-118.97"/>
<polygon fill="black" stroke="black" points="685.88,-120.14 685.54,-109.55 679.2,-118.04 685.88,-120.14"/>
</g>
<!-- xcb&#45;util&#45;keysyms -->
<g id="node27" class="node">
<title>xcb&#45;util&#45;keysyms</title>
<g id="a_node27"><a xlink:href="https://github.com/conda-forge/xcb-util-keysyms-feedstock/pull/5" xlink:title="xcb util keysyms ❎">
<ellipse fill="#31688e" stroke="black" cx="1696.36" cy="-306" rx="110.13" ry="18"/>
<text text-anchor="middle" x="1696.36" y="-301.32" font-family="Times,serif" font-size="14.00" fill="white">xcb util keysyms ❎</text>
</a>
</g>
</g>
<!-- xcb&#45;util&#45;keysyms&#45;&gt;qt&#45;main -->
<g id="edge56" class="edge">
<title>xcb&#45;util&#45;keysyms&#45;&gt;qt&#45;main</title>
<path fill="none" stroke="black" d="M1663.9,-288.41C1643.86,-278.17 1618.07,-265 1597.13,-254.29"/>
<polygon fill="black" stroke="black" points="1598.82,-251.23 1588.32,-249.8 1595.64,-257.46 1598.82,-251.23"/>
</g>
<!-- xcb&#45;util&#45;keysyms&#45;&gt;kwindowsystem -->
<g id="edge57" class="edge">
<title>xcb&#45;util&#45;keysyms&#45;&gt;kwindowsystem</title>
<path fill="none" stroke="black" d="M1748.14,-289.67C1769.26,-281.32 1792.61,-269.1 1809.36,-252 1846.13,-214.48 1831.26,-189.58 1857.36,-144 1862.54,-134.96 1868.9,-125.57 1874.93,-117.26"/>
<polygon fill="black" stroke="black" points="1877.7,-119.4 1880.86,-109.28 1872.09,-115.22 1877.7,-119.4"/>
</g>
<!-- xcb&#45;util&#45;keysyms&#45;&gt;kglobalaccel -->
<g id="edge58" class="edge">
<title>xcb&#45;util&#45;keysyms&#45;&gt;kglobalaccel</title>
<path fill="none" stroke="black" d="M1703.88,-287.76C1719.75,-249.14 1754.09,-152.73 1739.36,-72 1737.83,-63.58 1735.03,-54.77 1732,-46.79"/>
<polygon fill="black" stroke="black" points="1735.27,-45.54 1728.24,-37.61 1728.79,-48.19 1735.27,-45.54"/>
</g>
<!-- xcb&#45;util&#45;keysyms&#45;&gt;nsight&#45;compute -->
<g id="edge59" class="edge">
<title>xcb&#45;util&#45;keysyms&#45;&gt;nsight&#45;compute</title>
<path fill="none" stroke="black" d="M1742.4,-289.19C1772.37,-278.81 1812.27,-264.83 1847.36,-252 1910.99,-228.74 1983.88,-200.81 2031.17,-182.52"/>
<polygon fill="black" stroke="black" points="2032.26,-185.85 2040.32,-178.98 2029.73,-179.32 2032.26,-185.85"/>
</g>
<!-- xcb&#45;util -->
<g id="node28" class="node">
<title>xcb&#45;util</title>
<g id="a_node28"><a xlink:href="https://github.com/conda-forge/xcb-util-feedstock/pull/3" xlink:title="xcb util ❎">
<ellipse fill="#31688e" stroke="black" cx="2423.36" cy="-378" rx="63.84" ry="18"/>
<text text-anchor="middle" x="2423.36" y="-373.32" font-family="Times,serif" font-size="14.00" fill="white">xcb util ❎</text>
</a>
</g>
</g>
<!-- xcb&#45;util&#45;&gt;qt&#45;main -->
<g id="edge60" class="edge">
<title>xcb&#45;util&#45;&gt;qt&#45;main</title>
<path fill="none" stroke="black" d="M2359.22,-377.39C2172.02,-377.93 1635.85,-374.98 1577.36,-324 1560.56,-309.35 1556.83,-283.72 1556.85,-263.71"/>
<polygon fill="black" stroke="black" points="1560.34,-264.05 1557.2,-253.93 1553.35,-263.8 1560.34,-264.05"/>
</g>
<!-- xcb&#45;util&#45;&gt;kwindowsystem -->
<g id="edge61" class="edge">
<title>xcb&#45;util&#45;&gt;kwindowsystem</title>
<path fill="none" stroke="black" d="M2464.34,-363.92C2483.1,-355.64 2503.52,-342.86 2514.36,-324 2522.34,-310.13 2523.17,-301.36 2514.36,-288 2425.22,-152.66 2334.41,-191.15 2179.36,-144 2114.47,-124.26 2038.89,-110.59 1982.01,-102.08"/>
<polygon fill="black" stroke="black" points="1982.8,-98.66 1972.4,-100.67 1981.78,-105.58 1982.8,-98.66"/>
</g>
<!-- xcb&#45;util&#45;image -->
<g id="node29" class="node">
<title>xcb&#45;util&#45;image</title>
<g id="a_node29"><a xlink:href="https://github.com/conda-forge/xcb-util-image-feedstock" xlink:title="xcb util image">
<ellipse fill="#fde725" stroke="black" cx="2423.36" cy="-306" rx="82.25" ry="18"/>
<text text-anchor="middle" x="2423.36" y="-301.32" font-family="Times,serif" font-size="14.00">xcb util image</text>
</a>
</g>
</g>
<!-- xcb&#45;util&#45;&gt;xcb&#45;util&#45;image -->
<g id="edge62" class="edge">
<title>xcb&#45;util&#45;&gt;xcb&#45;util&#45;image</title>
<path fill="none" stroke="black" d="M2423.36,-359.7C2423.36,-352.41 2423.36,-343.73 2423.36,-335.54"/>
<polygon fill="black" stroke="black" points="2426.86,-335.62 2423.36,-325.62 2419.86,-335.62 2426.86,-335.62"/>
</g>
<!-- xcb&#45;util&#45;image&#45;&gt;qt&#45;main -->
<g id="edge63" class="edge">
<title>xcb&#45;util&#45;image&#45;&gt;qt&#45;main</title>
<path fill="none" stroke="black" d="M2364.63,-293.11C2353.61,-291.18 2342.16,-289.36 2331.36,-288 2067.75,-254.71 1750.67,-241.22 1620.08,-236.81"/>
<polygon fill="black" stroke="black" points="1620.4,-233.32 1610.29,-236.49 1620.17,-240.32 1620.4,-233.32"/>
</g>
<!-- xcb&#45;util&#45;image&#45;&gt;nsight&#45;compute -->
<g id="edge64" class="edge">
<title>xcb&#45;util&#45;image&#45;&gt;nsight&#45;compute</title>
<path fill="none" stroke="black" d="M2405.76,-288.28C2383.6,-268.16 2343.56,-234.74 2303.36,-216 2259.93,-195.75 2207.99,-182.8 2165.27,-174.78"/>
<polygon fill="black" stroke="black" points="2166,-171.36 2155.54,-173.02 2164.75,-178.25 2166,-171.36"/>
</g>
<!-- xcb&#45;util&#45;cursor -->
<g id="node30" class="node">
<title>xcb&#45;util&#45;cursor</title>
<g id="a_node30"><a xlink:href="https://github.com/conda-forge/xcb-util-cursor-feedstock" xlink:title="xcb util cursor">
<ellipse fill="#fde725" stroke="black" cx="2210.36" cy="-234" rx="83.83" ry="18"/>
<text text-anchor="middle" x="2210.36" y="-229.32" font-family="Times,serif" font-size="14.00">xcb util cursor</text>
</a>
</g>
</g>
<!-- xcb&#45;util&#45;image&#45;&gt;xcb&#45;util&#45;cursor -->
<g id="edge65" class="edge">
<title>xcb&#45;util&#45;image&#45;&gt;xcb&#45;util&#45;cursor</title>
<path fill="none" stroke="black" d="M2378.97,-290.41C2345.93,-279.55 2300.64,-264.67 2265.32,-253.06"/>
<polygon fill="black" stroke="black" points="2266.73,-249.84 2256.14,-250.04 2264.55,-256.49 2266.73,-249.84"/>
</g>
<!-- xcb&#45;util&#45;cursor&#45;&gt;nsight&#45;compute -->
<g id="edge69" class="edge">
<title>xcb&#45;util&#45;cursor&#45;&gt;nsight&#45;compute</title>
<path fill="none" stroke="black" d="M2180.45,-216.76C2162.91,-207.25 2140.52,-195.1 2121.47,-184.76"/>
<polygon fill="black" stroke="black" points="2123.36,-181.8 2112.9,-180.11 2120.02,-187.96 2123.36,-181.8"/>
</g>
<!-- xcb&#45;util&#45;wm -->
<g id="node31" class="node">
<title>xcb&#45;util&#45;wm</title>
<g id="a_node31"><a xlink:href="https://github.com/conda-forge/xcb-util-wm-feedstock/pull/3" xlink:title="xcb util wm ❎">
<ellipse fill="#31688e" stroke="black" cx="1947.36" cy="-306" rx="84.88" ry="18"/>
<text text-anchor="middle" x="1947.36" y="-301.32" font-family="Times,serif" font-size="14.00" fill="white">xcb util wm ❎</text>
</a>
</g>
</g>
<!-- xcb&#45;util&#45;wm&#45;&gt;qt&#45;main -->
<g id="edge66" class="edge">
<title>xcb&#45;util&#45;wm&#45;&gt;qt&#45;main</title>
<path fill="none" stroke="black" d="M1884.16,-293.6C1809.15,-280.06 1685.31,-257.72 1614.18,-244.89"/>
<polygon fill="black" stroke="black" points="1615.19,-241.51 1604.73,-243.18 1613.95,-248.4 1615.19,-241.51"/>
</g>
<!-- xcb&#45;util&#45;wm&#45;&gt;kwindowsystem -->
<g id="edge67" class="edge">
<title>xcb&#45;util&#45;wm&#45;&gt;kwindowsystem</title>
<path fill="none" stroke="black" d="M1943.2,-287.85C1934.26,-251.07 1913.17,-164.29 1902.23,-119.24"/>
<polygon fill="black" stroke="black" points="1905.67,-118.59 1899.91,-109.7 1898.87,-120.25 1905.67,-118.59"/>
</g>
<!-- xcb&#45;util&#45;wm&#45;&gt;nsight&#45;compute -->
<g id="edge68" class="edge">
<title>xcb&#45;util&#45;wm&#45;&gt;nsight&#45;compute</title>
<path fill="none" stroke="black" d="M1963.53,-287.87C1986.87,-263.14 2030.18,-217.24 2057.29,-188.51"/>
<polygon fill="black" stroke="black" points="2059.79,-190.97 2064.1,-181.29 2054.7,-186.16 2059.79,-190.97"/>
</g>
<!-- xcb&#45;util&#45;renderutil -->
<g id="node32" class="node">
<title>xcb&#45;util&#45;renderutil</title>
<g id="a_node32"><a xlink:href="https://github.com/conda-forge/xcb-util-renderutil-feedstock/pull/6" xlink:title="xcb util renderutil ❎">
<ellipse fill="#31688e" stroke="black" cx="2205.36" cy="-306" rx="117.5" ry="18"/>
<text text-anchor="middle" x="2205.36" y="-301.32" font-family="Times,serif" font-size="14.00" fill="white">xcb util renderutil ❎</text>
</a>
</g>
</g>
<!-- xcb&#45;util&#45;renderutil&#45;&gt;qt&#45;main -->
<g id="edge70" class="edge">
<title>xcb&#45;util&#45;renderutil&#45;&gt;qt&#45;main</title>
<path fill="none" stroke="black" d="M2111.43,-294.82C1976.07,-280.15 1730.14,-253.5 1617.96,-241.35"/>
<polygon fill="black" stroke="black" points="1618.39,-237.88 1608.07,-240.28 1617.64,-244.83 1618.39,-237.88"/>
</g>
<!-- xcb&#45;util&#45;renderutil&#45;&gt;nsight&#45;compute -->
<g id="edge71" class="edge">
<title>xcb&#45;util&#45;renderutil&#45;&gt;nsight&#45;compute</title>
<path fill="none" stroke="black" d="M2166.8,-288.67C2149.79,-279.88 2130.68,-267.6 2117.36,-252 2102.49,-234.57 2093.21,-210.2 2087.8,-191.36"/>
<polygon fill="black" stroke="black" points="2091.25,-190.7 2085.31,-181.93 2084.48,-192.49 2091.25,-190.7"/>
</g>
<!-- xcb&#45;util&#45;renderutil&#45;&gt;xcb&#45;util&#45;cursor -->
<g id="edge72" class="edge">
<title>xcb&#45;util&#45;renderutil&#45;&gt;xcb&#45;util&#45;cursor</title>
<path fill="none" stroke="black" d="M2206.6,-287.7C2207.12,-280.41 2207.74,-271.73 2208.33,-263.54"/>
<polygon fill="black" stroke="black" points="2211.81,-263.84 2209.03,-253.61 2204.83,-263.34 2211.81,-263.84"/>
</g>
</g>
</svg>
