<?xml version="1.0" encoding="UTF-8" standalone="no"?>
<!DOCTYPE svg PUBLIC "-//W3C//DTD SVG 1.1//EN"
 "http://www.w3.org/Graphics/SVG/1.1/DTD/svg11.dtd">
<!-- Generated by graphviz version 11.0.0 (20240519.1550)
 -->
<!-- Pages: 1 -->
<svg width="2667pt" height="404pt"
 viewBox="0.00 0.00 2667.21 404.00" xmlns="http://www.w3.org/2000/svg" xmlns:xlink="http://www.w3.org/1999/xlink">
<g id="graph0" class="graph" transform="scale(1 1) rotate(0) translate(4 400)">
<polygon fill="white" stroke="none" points="-4,4 -4,-400 2663.21,-400 2663.21,4 -4,4"/>
<!-- cairo -->
<g id="node1" class="node">
<title>cairo</title>
<g id="a_node1"><a xlink:href="https://github.com/conda-forge/cairo-feedstock" xlink:title="cairo">
<ellipse fill="#fde725" stroke="black" cx="1223" cy="-306" rx="35.95" ry="18"/>
<text text-anchor="middle" x="1223" y="-301.32" font-family="Times,serif" font-size="14.00">cairo</text>
</a>
</g>
</g>
<!-- ffmpeg -->
<g id="node2" class="node">
<title>ffmpeg</title>
<g id="a_node2"><a xlink:href="https://github.com/conda-forge/ffmpeg-feedstock" xlink:title="ffmpeg">
<ellipse fill="#fde725" stroke="black" cx="2167" cy="-162" rx="45.95" ry="18"/>
<text text-anchor="middle" x="2167" y="-157.32" font-family="Times,serif" font-size="14.00">ffmpeg</text>
</a>
</g>
</g>
<!-- cairo&#45;&gt;ffmpeg -->
<g id="edge1" class="edge">
<title>cairo&#45;&gt;ffmpeg</title>
<path fill="none" stroke="black" d="M1249.65,-293.53C1304.43,-269.98 1425.39,-218.2 1435,-216 1729.13,-148.6 1816.06,-233.73 2113,-180 2116.22,-179.42 2119.51,-178.7 2122.81,-177.89"/>
<polygon fill="black" stroke="black" points="2123.73,-181.27 2132.46,-175.25 2121.89,-174.51 2123.73,-181.27"/>
</g>
<!-- gnuplot -->
<g id="node3" class="node">
<title>gnuplot</title>
<g id="a_node3"><a xlink:href="https://github.com/conda-forge/gnuplot-feedstock" xlink:title="gnuplot">
<ellipse fill="#fde725" stroke="black" cx="1511" cy="-162" rx="49.63" ry="18"/>
<text text-anchor="middle" x="1511" y="-157.32" font-family="Times,serif" font-size="14.00">gnuplot</text>
</a>
</g>
</g>
<!-- cairo&#45;&gt;gnuplot -->
<g id="edge2" class="edge">
<title>cairo&#45;&gt;gnuplot</title>
<path fill="none" stroke="black" d="M1242.75,-290.59C1269.31,-271.66 1318.49,-238.24 1364,-216 1395.77,-200.47 1433.3,-187.02 1462.48,-177.55"/>
<polygon fill="black" stroke="black" points="1463.33,-180.95 1471.79,-174.58 1461.2,-174.29 1463.33,-180.95"/>
</g>
<!-- lyx -->
<g id="node4" class="node">
<title>lyx</title>
<g id="a_node4"><a xlink:href="https://github.com/conda-forge/lyx-feedstock" xlink:title="lyx">
<ellipse fill="#fde725" stroke="black" cx="1240" cy="-162" rx="27" ry="18"/>
<text text-anchor="middle" x="1240" y="-157.32" font-family="Times,serif" font-size="14.00">lyx</text>
</a>
</g>
</g>
<!-- cairo&#45;&gt;lyx -->
<g id="edge3" class="edge">
<title>cairo&#45;&gt;lyx</title>
<path fill="none" stroke="black" d="M1231.9,-288.35C1236.83,-278.17 1242.47,-264.7 1245,-252 1248.98,-232.02 1247.55,-209.06 1245.21,-191.46"/>
<polygon fill="black" stroke="black" points="1248.7,-191.1 1243.74,-181.74 1241.78,-192.15 1248.7,-191.1"/>
</g>
<!-- qt&#45;main -->
<g id="node5" class="node">
<title>qt&#45;main</title>
<g id="a_node5"><a xlink:href="https://github.com/conda-forge/qt-main-feedstock" xlink:title="qt main">
<ellipse fill="#fde725" stroke="black" cx="968" cy="-234" rx="49.63" ry="18"/>
<text text-anchor="middle" x="968" y="-229.32" font-family="Times,serif" font-size="14.00">qt main</text>
</a>
</g>
</g>
<!-- cairo&#45;&gt;qt&#45;main -->
<g id="edge4" class="edge">
<title>cairo&#45;&gt;qt&#45;main</title>
<path fill="none" stroke="black" d="M1191.99,-296.49C1148.58,-284.57 1069.25,-262.8 1017.59,-248.61"/>
<polygon fill="black" stroke="black" points="1018.72,-245.29 1008.15,-246.02 1016.87,-252.05 1018.72,-245.29"/>
</g>
<!-- qt&#45;webengine -->
<g id="node6" class="node">
<title>qt&#45;webengine</title>
<g id="a_node6"><a xlink:href="https://github.com/conda-forge/qt-webengine-feedstock" xlink:title="qt webengine">
<ellipse fill="#fde725" stroke="black" cx="1364" cy="-162" rx="79.09" ry="18"/>
<text text-anchor="middle" x="1364" y="-157.32" font-family="Times,serif" font-size="14.00">qt webengine</text>
</a>
</g>
</g>
<!-- cairo&#45;&gt;qt&#45;webengine -->
<g id="edge5" class="edge">
<title>cairo&#45;&gt;qt&#45;webengine</title>
<path fill="none" stroke="black" d="M1194.33,-294.88C1175.47,-286.54 1152.27,-272.69 1141,-252 1133.35,-237.95 1131.08,-228.55 1141,-216 1145.93,-209.76 1231.7,-190.64 1295.4,-177.16"/>
<polygon fill="black" stroke="black" points="1296.07,-180.6 1305.13,-175.11 1294.63,-173.75 1296.07,-180.6"/>
</g>
<!-- silicon -->
<g id="node7" class="node">
<title>silicon</title>
<g id="a_node7"><a xlink:href="https://github.com/conda-forge/silicon-feedstock" xlink:title="silicon">
<ellipse fill="#fde725" stroke="black" cx="1193" cy="-234" rx="43.32" ry="18"/>
<text text-anchor="middle" x="1193" y="-229.32" font-family="Times,serif" font-size="14.00">silicon</text>
</a>
</g>
</g>
<!-- cairo&#45;&gt;silicon -->
<g id="edge6" class="edge">
<title>cairo&#45;&gt;silicon</title>
<path fill="none" stroke="black" d="M1215.74,-288.05C1212.42,-280.32 1208.41,-270.96 1204.69,-262.27"/>
<polygon fill="black" stroke="black" points="1207.95,-260.99 1200.79,-253.18 1201.51,-263.75 1207.95,-260.99"/>
</g>
<!-- vtk -->
<g id="node8" class="node">
<title>vtk</title>
<g id="a_node8"><a xlink:href="https://github.com/conda-forge/vtk-feedstock" xlink:title="vtk">
<ellipse fill="#fde725" stroke="black" cx="2204" cy="-90" rx="27.01" ry="18"/>
<text text-anchor="middle" x="2204" y="-85.33" font-family="Times,serif" font-size="14.00">vtk</text>
</a>
</g>
</g>
<!-- ffmpeg&#45;&gt;vtk -->
<g id="edge7" class="edge">
<title>ffmpeg&#45;&gt;vtk</title>
<path fill="none" stroke="black" d="M2175.96,-144.05C2180.2,-136.03 2185.36,-126.26 2190.1,-117.3"/>
<polygon fill="black" stroke="black" points="2193.09,-119.12 2194.67,-108.65 2186.91,-115.85 2193.09,-119.12"/>
</g>
<!-- gazebo -->
<g id="node9" class="node">
<title>gazebo</title>
<g id="a_node9"><a xlink:href="https://github.com/conda-forge/gazebo-feedstock" xlink:title="gazebo">
<ellipse fill="#fde725" stroke="black" cx="1903" cy="-90" rx="46.47" ry="18"/>
<text text-anchor="middle" x="1903" y="-85.33" font-family="Times,serif" font-size="14.00">gazebo</text>
</a>
</g>
</g>
<!-- ffmpeg&#45;&gt;gazebo -->
<g id="edge8" class="edge">
<title>ffmpeg&#45;&gt;gazebo</title>
<path fill="none" stroke="black" d="M2132.52,-149.82C2126.05,-147.82 2119.34,-145.8 2113,-144 2058.54,-128.57 1995.51,-112.96 1952.82,-102.71"/>
<polygon fill="black" stroke="black" points="1953.9,-99.37 1943.36,-100.45 1952.27,-106.18 1953.9,-99.37"/>
</g>
<!-- qt&#45;main&#45;&gt;gnuplot -->
<g id="edge9" class="edge">
<title>qt&#45;main&#45;&gt;gnuplot</title>
<path fill="none" stroke="black" d="M1015.39,-228.28C1128.86,-216.91 1409.81,-188.32 1452,-180 1455.77,-179.26 1459.66,-178.38 1463.54,-177.43"/>
<polygon fill="black" stroke="black" points="1464.16,-180.89 1472.95,-174.98 1462.39,-174.12 1464.16,-180.89"/>
</g>
<!-- qt&#45;main&#45;&gt;lyx -->
<g id="edge10" class="edge">
<title>qt&#45;main&#45;&gt;lyx</title>
<path fill="none" stroke="black" d="M1006.85,-222.37C1015.13,-220.19 1023.84,-217.96 1032,-216 1105.82,-198.25 1126.52,-202.63 1199,-180 1201.77,-179.14 1204.61,-178.16 1207.44,-177.12"/>
<polygon fill="black" stroke="black" points="1208.7,-180.38 1216.73,-173.47 1206.14,-173.87 1208.7,-180.38"/>
</g>
<!-- qt&#45;main&#45;&gt;qt&#45;webengine -->
<g id="edge11" class="edge">
<title>qt&#45;main&#45;&gt;qt&#45;webengine</title>
<path fill="none" stroke="black" d="M1012.42,-225.65C1072.34,-215.67 1182.33,-197.11 1276,-180 1282.03,-178.9 1288.28,-177.74 1294.55,-176.55"/>
<polygon fill="black" stroke="black" points="1295.15,-180 1304.32,-174.7 1293.84,-173.12 1295.15,-180"/>
</g>
<!-- qt&#45;main&#45;&gt;gazebo -->
<g id="edge12" class="edge">
<title>qt&#45;main&#45;&gt;gazebo</title>
<path fill="none" stroke="black" d="M1007.09,-222.49C1062.48,-207.56 1157.52,-181.82 1161,-180 1183.08,-168.43 1180.91,-153.39 1204,-144 1319.66,-96.95 1698.99,-91.27 1845,-90.87"/>
<polygon fill="black" stroke="black" points="1844.83,-94.37 1854.82,-90.86 1844.82,-87.37 1844.83,-94.37"/>
</g>
<!-- colmap -->
<g id="node10" class="node">
<title>colmap</title>
<g id="a_node10"><a xlink:href="https://github.com/conda-forge/colmap-feedstock" xlink:title="colmap">
<ellipse fill="#fde725" stroke="black" cx="1787" cy="-162" rx="47" ry="18"/>
<text text-anchor="middle" x="1787" y="-157.32" font-family="Times,serif" font-size="14.00">colmap</text>
</a>
</g>
</g>
<!-- qt&#45;main&#45;&gt;colmap -->
<g id="edge13" class="edge">
<title>qt&#45;main&#45;&gt;colmap</title>
<path fill="none" stroke="black" d="M1015.34,-228.14C1050.1,-224.62 1098.47,-219.83 1141,-216 1254.67,-205.75 1593.77,-178.47 1729.7,-167.58"/>
<polygon fill="black" stroke="black" points="1729.86,-171.08 1739.55,-166.79 1729.3,-164.1 1729.86,-171.08"/>
</g>
<!-- kwindowsystem -->
<g id="node11" class="node">
<title>kwindowsystem</title>
<g id="a_node11"><a xlink:href="https://github.com/conda-forge/kwindowsystem-feedstock" xlink:title="kwindowsystem">
<ellipse fill="#fde725" stroke="black" cx="678" cy="-90" rx="91.19" ry="18"/>
<text text-anchor="middle" x="678" y="-85.33" font-family="Times,serif" font-size="14.00">kwindowsystem</text>
</a>
</g>
</g>
<!-- qt&#45;main&#45;&gt;kwindowsystem -->
<g id="edge14" class="edge">
<title>qt&#45;main&#45;&gt;kwindowsystem</title>
<path fill="none" stroke="black" d="M919.57,-229.82C873.44,-224.88 803.56,-212.25 752,-180 727.22,-164.5 706.72,-137.89 693.62,-117.79"/>
<polygon fill="black" stroke="black" points="696.72,-116.15 688.44,-109.53 690.79,-119.86 696.72,-116.15"/>
</g>
<!-- kglobalaccel -->
<g id="node12" class="node">
<title>kglobalaccel</title>
<g id="a_node12"><a xlink:href="https://github.com/conda-forge/kglobalaccel-feedstock" xlink:title="kglobalaccel">
<ellipse fill="#fde725" stroke="black" cx="678" cy="-18" rx="72.78" ry="18"/>
<text text-anchor="middle" x="678" y="-13.32" font-family="Times,serif" font-size="14.00">kglobalaccel</text>
</a>
</g>
</g>
<!-- qt&#45;main&#45;&gt;kglobalaccel -->
<g id="edge15" class="edge">
<title>qt&#45;main&#45;&gt;kglobalaccel</title>
<path fill="none" stroke="black" d="M1006.43,-222.37C1042.22,-211.75 1092.09,-194.92 1106,-180 1139.4,-144.17 1160.55,-108.61 1128,-72 1104.05,-45.06 883.74,-29.53 760.51,-22.88"/>
<polygon fill="black" stroke="black" points="760.94,-19.4 750.77,-22.36 760.57,-26.39 760.94,-19.4"/>
</g>
<!-- qt6&#45;advanced&#45;docking&#45;system -->
<g id="node13" class="node">
<title>qt6&#45;advanced&#45;docking&#45;system</title>
<g id="a_node13"><a xlink:href="https://github.com/conda-forge/qt6-advanced-docking-system-feedstock" xlink:title="qt6 advanced docking system">
<ellipse fill="#fde725" stroke="black" cx="921" cy="-162" rx="159.59" ry="18"/>
<text text-anchor="middle" x="921" y="-157.32" font-family="Times,serif" font-size="14.00">qt6 advanced docking system</text>
</a>
</g>
</g>
<!-- qt&#45;main&#45;&gt;qt6&#45;advanced&#45;docking&#45;system -->
<g id="edge16" class="edge">
<title>qt&#45;main&#45;&gt;qt6&#45;advanced&#45;docking&#45;system</title>
<path fill="none" stroke="black" d="M956.62,-216.05C951.33,-208.18 944.91,-198.62 938.99,-189.79"/>
<polygon fill="black" stroke="black" points="941.92,-187.88 933.44,-181.53 936.11,-191.79 941.92,-187.88"/>
</g>
<!-- adwaita&#45;qt -->
<g id="node14" class="node">
<title>adwaita&#45;qt</title>
<g id="a_node14"><a xlink:href="https://github.com/conda-forge/adwaita-qt-feedstock" xlink:title="adwaita qt">
<ellipse fill="#fde725" stroke="black" cx="1055" cy="-90" rx="64.36" ry="18"/>
<text text-anchor="middle" x="1055" y="-85.33" font-family="Times,serif" font-size="14.00">adwaita qt</text>
</a>
</g>
</g>
<!-- qt&#45;main&#45;&gt;adwaita&#45;qt -->
<g id="edge17" class="edge">
<title>qt&#45;main&#45;&gt;adwaita&#45;qt</title>
<path fill="none" stroke="black" d="M1005.4,-221.75C1037.53,-211.24 1080.18,-194.97 1090,-180 1102.87,-160.37 1090.86,-135.29 1077.51,-116.75"/>
<polygon fill="black" stroke="black" points="1080.35,-114.69 1071.47,-108.92 1074.81,-118.97 1080.35,-114.69"/>
</g>
<!-- qt&#45;webengine&#45;&gt;kwindowsystem -->
<g id="edge18" class="edge">
<title>qt&#45;webengine&#45;&gt;kwindowsystem</title>
<path fill="none" stroke="black" d="M1307.34,-149.17C1296.94,-147.25 1286.17,-145.43 1276,-144 1100.52,-119.34 894.37,-104.06 775.68,-96.58"/>
<polygon fill="black" stroke="black" points="776.18,-93.1 765.98,-95.97 775.74,-100.09 776.18,-93.1"/>
</g>
<!-- qt&#45;webengine&#45;&gt;kglobalaccel -->
<g id="edge19" class="edge">
<title>qt&#45;webengine&#45;&gt;kglobalaccel</title>
<path fill="none" stroke="black" d="M1335.1,-144.96C1296.63,-124.4 1225.87,-89.34 1161,-72 1024.21,-35.43 859.15,-24.03 761.7,-20.52"/>
<polygon fill="black" stroke="black" points="762.08,-17.03 751.96,-20.19 761.84,-24.02 762.08,-17.03"/>
</g>
<!-- kwindowsystem&#45;&gt;kglobalaccel -->
<g id="edge54" class="edge">
<title>kwindowsystem&#45;&gt;kglobalaccel</title>
<path fill="none" stroke="black" d="M678,-71.7C678,-64.41 678,-55.73 678,-47.54"/>
<polygon fill="black" stroke="black" points="681.5,-47.62 678,-37.62 674.5,-47.62 681.5,-47.62"/>
</g>
<!-- gstreamer -->
<g id="node15" class="node">
<title>gstreamer</title>
<g id="a_node15"><a xlink:href="https://github.com/conda-forge/gstreamer-feedstock" xlink:title="gstreamer">
<ellipse fill="#fde725" stroke="black" cx="1340" cy="-306" rx="63.31" ry="18"/>
<text text-anchor="middle" x="1340" y="-301.32" font-family="Times,serif" font-size="14.00">gstreamer</text>
</a>
</g>
</g>
<!-- gstreamer&#45;&gt;qt&#45;main -->
<g id="edge20" class="edge">
<title>gstreamer&#45;&gt;qt&#45;main</title>
<path fill="none" stroke="black" d="M1293.22,-293.55C1284.84,-291.61 1276.18,-289.69 1268,-288 1183.33,-270.54 1084.47,-253.77 1024.06,-243.92"/>
<polygon fill="black" stroke="black" points="1024.8,-240.5 1014.37,-242.35 1023.68,-247.41 1024.8,-240.5"/>
</g>
<!-- gstreamer&#45;&gt;qt&#45;webengine -->
<g id="edge21" class="edge">
<title>gstreamer&#45;&gt;qt&#45;webengine</title>
<path fill="none" stroke="black" d="M1342.94,-287.59C1347,-263.61 1354.34,-220.14 1359.2,-191.42"/>
<polygon fill="black" stroke="black" points="1362.64,-192.05 1360.86,-181.6 1355.74,-190.88 1362.64,-192.05"/>
</g>
<!-- gst&#45;plugins&#45;ugly -->
<g id="node16" class="node">
<title>gst&#45;plugins&#45;ugly</title>
<g id="a_node16"><a xlink:href="https://github.com/conda-forge/gst-plugins-ugly-feedstock" xlink:title="gst plugins ugly">
<ellipse fill="#fde725" stroke="black" cx="1731" cy="-234" rx="91.72" ry="18"/>
<text text-anchor="middle" x="1731" y="-229.32" font-family="Times,serif" font-size="14.00">gst plugins ugly</text>
</a>
</g>
</g>
<!-- gstreamer&#45;&gt;gst&#45;plugins&#45;ugly -->
<g id="edge22" class="edge">
<title>gstreamer&#45;&gt;gst&#45;plugins&#45;ugly</title>
<path fill="none" stroke="black" d="M1392.33,-295.63C1459.46,-283.61 1576.47,-262.67 1653.84,-248.81"/>
<polygon fill="black" stroke="black" points="1654.24,-252.3 1663.46,-247.09 1653,-245.41 1654.24,-252.3"/>
</g>
<!-- gst&#45;plugins&#45;bad -->
<g id="node17" class="node">
<title>gst&#45;plugins&#45;bad</title>
<g id="a_node17"><a xlink:href="https://github.com/conda-forge/gst-plugins-bad-feedstock" xlink:title="gst plugins bad">
<ellipse fill="#fde725" stroke="black" cx="1533" cy="-234" rx="88.56" ry="18"/>
<text text-anchor="middle" x="1533" y="-229.32" font-family="Times,serif" font-size="14.00">gst plugins bad</text>
</a>
</g>
</g>
<!-- gstreamer&#45;&gt;gst&#45;plugins&#45;bad -->
<g id="edge23" class="edge">
<title>gstreamer&#45;&gt;gst&#45;plugins&#45;bad</title>
<path fill="none" stroke="black" d="M1378.13,-291.17C1407.35,-280.57 1447.99,-265.83 1480.31,-254.11"/>
<polygon fill="black" stroke="black" points="1481.3,-257.48 1489.51,-250.78 1478.91,-250.89 1481.3,-257.48"/>
</g>
<!-- libglu -->
<g id="node18" class="node">
<title>libglu</title>
<g id="a_node18"><a xlink:href="https://github.com/conda-forge/libglu-feedstock" xlink:title="libglu">
<ellipse fill="#fde725" stroke="black" cx="1995" cy="-234" rx="39.63" ry="18"/>
<text text-anchor="middle" x="1995" y="-229.32" font-family="Times,serif" font-size="14.00">libglu</text>
</a>
</g>
</g>
<!-- libglu&#45;&gt;vtk -->
<g id="edge24" class="edge">
<title>libglu&#45;&gt;vtk</title>
<path fill="none" stroke="black" d="M1999.15,-215.74C2004.83,-195.71 2016.93,-163.01 2039,-144 2075.1,-112.9 2129.67,-99.99 2166.05,-94.68"/>
<polygon fill="black" stroke="black" points="2166.23,-98.18 2175.68,-93.4 2165.31,-91.24 2166.23,-98.18"/>
</g>
<!-- libglu&#45;&gt;gazebo -->
<g id="edge25" class="edge">
<title>libglu&#45;&gt;gazebo</title>
<path fill="none" stroke="black" d="M1991.51,-215.76C1987.11,-196.91 1978.21,-166.42 1963,-144 1955.21,-132.53 1944.38,-121.94 1934.06,-113.3"/>
<polygon fill="black" stroke="black" points="1936.4,-110.69 1926.4,-107.18 1932.03,-116.16 1936.4,-110.69"/>
</g>
<!-- libglu&#45;&gt;colmap -->
<g id="edge28" class="edge">
<title>libglu&#45;&gt;colmap</title>
<path fill="none" stroke="black" d="M1963.86,-222.52C1928.95,-210.77 1872.03,-191.62 1832.22,-178.22"/>
<polygon fill="black" stroke="black" points="1833.5,-174.96 1822.91,-175.09 1831.27,-181.59 1833.5,-174.96"/>
</g>
<!-- freeglut -->
<g id="node19" class="node">
<title>freeglut</title>
<g id="a_node19"><a xlink:href="https://github.com/conda-forge/freeglut-feedstock" xlink:title="freeglut">
<ellipse fill="#fde725" stroke="black" cx="1903" cy="-162" rx="51.21" ry="18"/>
<text text-anchor="middle" x="1903" y="-157.32" font-family="Times,serif" font-size="14.00">freeglut</text>
</a>
</g>
</g>
<!-- libglu&#45;&gt;freeglut -->
<g id="edge26" class="edge">
<title>libglu&#45;&gt;freeglut</title>
<path fill="none" stroke="black" d="M1975.49,-218.15C1963.03,-208.67 1946.63,-196.2 1932.59,-185.51"/>
<polygon fill="black" stroke="black" points="1935.04,-182.98 1924.97,-179.71 1930.8,-188.55 1935.04,-182.98"/>
</g>
<!-- fltk -->
<g id="node20" class="node">
<title>fltk</title>
<g id="a_node20"><a xlink:href="https://github.com/conda-forge/fltk-feedstock" xlink:title="fltk">
<ellipse fill="#fde725" stroke="black" cx="2076" cy="-162" rx="27.53" ry="18"/>
<text text-anchor="middle" x="2076" y="-157.32" font-family="Times,serif" font-size="14.00">fltk</text>
</a>
</g>
</g>
<!-- libglu&#45;&gt;fltk -->
<g id="edge27" class="edge">
<title>libglu&#45;&gt;fltk</title>
<path fill="none" stroke="black" d="M2012.98,-217.46C2024.3,-207.68 2039.08,-194.91 2051.47,-184.2"/>
<polygon fill="black" stroke="black" points="2053.57,-187.01 2058.85,-177.82 2048.99,-181.71 2053.57,-187.01"/>
</g>
<!-- freeglut&#45;&gt;gazebo -->
<g id="edge29" class="edge">
<title>freeglut&#45;&gt;gazebo</title>
<path fill="none" stroke="black" d="M1903,-143.7C1903,-136.41 1903,-127.73 1903,-119.54"/>
<polygon fill="black" stroke="black" points="1906.5,-119.62 1903,-109.62 1899.5,-119.62 1906.5,-119.62"/>
</g>
<!-- mesalib -->
<g id="node21" class="node">
<title>mesalib</title>
<g id="a_node21"><a xlink:href="https://github.com/conda-forge/mesalib-feedstock" xlink:title="mesalib">
<ellipse fill="#fde725" stroke="black" cx="2305" cy="-306" rx="50.16" ry="18"/>
<text text-anchor="middle" x="2305" y="-301.32" font-family="Times,serif" font-size="14.00">mesalib</text>
</a>
</g>
</g>
<!-- mesalib&#45;&gt;vtk -->
<g id="edge30" class="edge">
<title>mesalib&#45;&gt;vtk</title>
<path fill="none" stroke="black" d="M2302.38,-287.96C2297.13,-257.37 2283.29,-191.88 2255,-144 2248.04,-132.22 2237.96,-121.01 2228.61,-111.96"/>
<polygon fill="black" stroke="black" points="2231.15,-109.55 2221.43,-105.33 2226.4,-114.69 2231.15,-109.55"/>
</g>
<!-- pillow -->
<g id="node22" class="node">
<title>pillow</title>
<g id="a_node22"><a xlink:href="https://github.com/conda-forge/pillow-feedstock" xlink:title="pillow">
<ellipse fill="#35b779" stroke="black" cx="2618" cy="-198" rx="41.21" ry="18"/>
<text text-anchor="middle" x="2618" y="-193.32" font-family="Times,serif" font-size="14.00">pillow</text>
</a>
</g>
</g>
<!-- xorg&#45;libx11 -->
<g id="node23" class="node">
<title>xorg&#45;libx11</title>
<g id="a_node23"><a xlink:href="https://github.com/conda-forge/xorg-libx11-feedstock/pull/39" xlink:title="xorg libx11 ✓">
<ellipse fill="#31688e" stroke="black" cx="1821" cy="-378" rx="75.94" ry="18"/>
<text text-anchor="middle" x="1821" y="-373.32" font-family="Times,serif" font-size="14.00" fill="white">xorg libx11 ✓</text>
</a>
</g>
</g>
<!-- xorg&#45;libx11&#45;&gt;cairo -->
<g id="edge31" class="edge">
<title>xorg&#45;libx11&#45;&gt;cairo</title>
<path fill="none" stroke="black" d="M1745.29,-376.07C1637.82,-373.34 1435.45,-362.92 1268,-324 1265.55,-323.43 1263.06,-322.76 1260.57,-322.02"/>
<polygon fill="black" stroke="black" points="1261.8,-318.74 1251.2,-318.92 1259.59,-325.39 1261.8,-318.74"/>
</g>
<!-- xorg&#45;libx11&#45;&gt;ffmpeg -->
<g id="edge32" class="edge">
<title>xorg&#45;libx11&#45;&gt;ffmpeg</title>
<path fill="none" stroke="black" d="M1896.93,-375.93C1956.86,-372.11 2040.78,-359.96 2105,-324 2142.62,-302.94 2154.52,-292.24 2170,-252 2177.39,-232.8 2176.28,-209.51 2173.52,-191.57"/>
<polygon fill="black" stroke="black" points="2176.99,-191.09 2171.75,-181.88 2170.1,-192.35 2176.99,-191.09"/>
</g>
<!-- xorg&#45;libx11&#45;&gt;gnuplot -->
<g id="edge33" class="edge">
<title>xorg&#45;libx11&#45;&gt;gnuplot</title>
<path fill="none" stroke="black" d="M1761.06,-366.53C1662.46,-347.92 1473.1,-305.94 1435,-252 1425.77,-238.93 1427.6,-230.19 1435,-216 1442.54,-201.54 1456.03,-190.22 1469.58,-181.82"/>
<polygon fill="black" stroke="black" points="1471.11,-184.98 1478.05,-176.97 1467.63,-178.9 1471.11,-184.98"/>
</g>
<!-- xorg&#45;libx11&#45;&gt;lyx -->
<g id="edge34" class="edge">
<title>xorg&#45;libx11&#45;&gt;lyx</title>
<path fill="none" stroke="black" d="M1745.06,-376.15C1575.22,-373.55 1175.91,-363.28 1130,-324 1093.08,-292.41 1086.06,-256.44 1113,-216 1115.79,-211.82 1169.85,-190.21 1206.53,-175.91"/>
<polygon fill="black" stroke="black" points="1207.36,-179.34 1215.41,-172.46 1204.82,-172.82 1207.36,-179.34"/>
</g>
<!-- xorg&#45;libx11&#45;&gt;qt&#45;main -->
<g id="edge35" class="edge">
<title>xorg&#45;libx11&#45;&gt;qt&#45;main</title>
<path fill="none" stroke="black" d="M1745.5,-375.57C1560.17,-371.54 1093.35,-358.09 1032,-324 1007.63,-310.46 990.2,-283.28 979.74,-262.5"/>
<polygon fill="black" stroke="black" points="983.01,-261.22 975.56,-253.69 976.69,-264.22 983.01,-261.22"/>
</g>
<!-- xorg&#45;libx11&#45;&gt;qt&#45;webengine -->
<g id="edge36" class="edge">
<title>xorg&#45;libx11&#45;&gt;qt&#45;webengine</title>
<path fill="none" stroke="black" d="M1746.1,-374.47C1587.01,-368.58 1225.95,-352.26 1178,-324 1132.75,-297.33 1097.22,-257.04 1130,-216 1135.26,-209.42 1227.28,-190 1294.33,-176.59"/>
<polygon fill="black" stroke="black" points="1294.67,-180.09 1303.8,-174.7 1293.31,-173.22 1294.67,-180.09"/>
</g>
<!-- xorg&#45;libx11&#45;&gt;vtk -->
<g id="edge37" class="edge">
<title>xorg&#45;libx11&#45;&gt;vtk</title>
<path fill="none" stroke="black" d="M1893.31,-372.04C1975.2,-365.23 2102.42,-350.67 2142,-324 2202.72,-283.09 2205.18,-251.25 2222,-180 2226.87,-159.36 2221.65,-135.83 2215.6,-118.16"/>
<polygon fill="black" stroke="black" points="2218.92,-117.03 2212.14,-108.89 2212.36,-119.48 2218.92,-117.03"/>
</g>
<!-- xorg&#45;libx11&#45;&gt;gazebo -->
<g id="edge38" class="edge">
<title>xorg&#45;libx11&#45;&gt;gazebo</title>
<path fill="none" stroke="black" d="M1828.63,-359.84C1841.43,-328.19 1862.92,-259.85 1832,-216 1804.54,-177.05 1758.46,-218.95 1731,-180 1721.78,-166.92 1721.5,-156.87 1731,-144 1757.01,-108.77 1806.1,-96.23 1845.2,-92.09"/>
<polygon fill="black" stroke="black" points="1845.29,-95.6 1854.95,-91.23 1844.68,-88.62 1845.29,-95.6"/>
</g>
<!-- xorg&#45;libx11&#45;&gt;colmap -->
<g id="edge45" class="edge">
<title>xorg&#45;libx11&#45;&gt;colmap</title>
<path fill="none" stroke="black" d="M1840.01,-360.38C1849.48,-350.82 1859.96,-337.95 1865,-324 1881.3,-278.85 1887.46,-258.42 1865,-216 1857.03,-200.95 1842.66,-189.38 1828.41,-180.95"/>
<polygon fill="black" stroke="black" points="1830.43,-178.06 1819.97,-176.34 1827.07,-184.2 1830.43,-178.06"/>
</g>
<!-- xorg&#45;libx11&#45;&gt;kwindowsystem -->
<g id="edge48" class="edge">
<title>xorg&#45;libx11&#45;&gt;kwindowsystem</title>
<path fill="none" stroke="black" d="M1745.22,-376.08C1568.18,-373.31 1131.8,-362.66 991,-324 923.15,-305.37 755.23,-233.04 709,-180 694.2,-163.02 686.36,-138.57 682.26,-119.59"/>
<polygon fill="black" stroke="black" points="685.71,-118.98 680.41,-109.81 678.83,-120.29 685.71,-118.98"/>
</g>
<!-- xorg&#45;libx11&#45;&gt;kglobalaccel -->
<g id="edge49" class="edge">
<title>xorg&#45;libx11&#45;&gt;kglobalaccel</title>
<path fill="none" stroke="black" d="M1744.88,-376.69C1416.13,-375.08 131.34,-366.13 57,-324 16.13,-300.84 0,-281.97 0,-235 0,-235 0,-235 0,-161 0,-40.98 412.14,-21.79 593.76,-19.16"/>
<polygon fill="black" stroke="black" points="593.65,-22.67 603.61,-19.04 593.56,-15.67 593.65,-22.67"/>
</g>
<!-- xorg&#45;libx11&#45;&gt;gstreamer -->
<g id="edge39" class="edge">
<title>xorg&#45;libx11&#45;&gt;gstreamer</title>
<path fill="none" stroke="black" d="M1752.46,-369.84C1671.87,-361.01 1534.23,-344.59 1417,-324 1411.02,-322.95 1404.79,-321.75 1398.59,-320.49"/>
<polygon fill="black" stroke="black" points="1399.51,-317.11 1389,-318.48 1398.07,-323.96 1399.51,-317.11"/>
</g>
<!-- xorg&#45;libx11&#45;&gt;gst&#45;plugins&#45;ugly -->
<g id="edge40" class="edge">
<title>xorg&#45;libx11&#45;&gt;gst&#45;plugins&#45;ugly</title>
<path fill="none" stroke="black" d="M1810.14,-359.87C1794.67,-335.46 1766.13,-290.43 1747.88,-261.64"/>
<polygon fill="black" stroke="black" points="1751.01,-260.04 1742.7,-253.47 1745.1,-263.79 1751.01,-260.04"/>
</g>
<!-- xorg&#45;libx11&#45;&gt;gst&#45;plugins&#45;bad -->
<g id="edge41" class="edge">
<title>xorg&#45;libx11&#45;&gt;gst&#45;plugins&#45;bad</title>
<path fill="none" stroke="black" d="M1789.08,-361.26C1736.99,-335.58 1633.71,-284.66 1575.49,-255.95"/>
<polygon fill="black" stroke="black" points="1577.38,-252.98 1566.86,-251.7 1574.28,-259.26 1577.38,-252.98"/>
</g>
<!-- xorg&#45;libx11&#45;&gt;libglu -->
<g id="edge42" class="edge">
<title>xorg&#45;libx11&#45;&gt;libglu</title>
<path fill="none" stroke="black" d="M1868.35,-363.6C1892.12,-355.13 1920.21,-342.26 1941,-324 1960.16,-307.17 1974.6,-281.86 1983.71,-262.53"/>
<polygon fill="black" stroke="black" points="1986.81,-264.15 1987.71,-253.6 1980.43,-261.29 1986.81,-264.15"/>
</g>
<!-- xorg&#45;libx11&#45;&gt;freeglut -->
<g id="edge43" class="edge">
<title>xorg&#45;libx11&#45;&gt;freeglut</title>
<path fill="none" stroke="black" d="M1848.56,-360.8C1861.51,-351.69 1875.86,-339.1 1884,-324 1906.6,-282.08 1907.62,-225.23 1905.72,-191.51"/>
<polygon fill="black" stroke="black" points="1909.23,-191.44 1905.03,-181.71 1902.24,-191.93 1909.23,-191.44"/>
</g>
<!-- xorg&#45;libx11&#45;&gt;fltk -->
<g id="edge44" class="edge">
<title>xorg&#45;libx11&#45;&gt;fltk</title>
<path fill="none" stroke="black" d="M1872.38,-364.39C1902.01,-355.75 1939.18,-342.46 1969,-324 2008.29,-299.67 2018.85,-290.76 2044,-252 2056.1,-233.36 2064.35,-209.55 2069.44,-191.25"/>
<polygon fill="black" stroke="black" points="2072.82,-192.15 2071.95,-181.59 2066.04,-190.39 2072.82,-192.15"/>
</g>
<!-- xorg&#45;libx11&#45;&gt;mesalib -->
<g id="edge46" class="edge">
<title>xorg&#45;libx11&#45;&gt;mesalib</title>
<path fill="none" stroke="black" d="M1891.68,-371C1975.53,-363.21 2119.27,-347.74 2241,-324 2245.89,-323.05 2250.96,-321.93 2256.01,-320.73"/>
<polygon fill="black" stroke="black" points="2256.63,-324.18 2265.48,-318.37 2254.93,-317.39 2256.63,-324.18"/>
</g>
<!-- libva -->
<g id="node24" class="node">
<title>libva</title>
<g id="a_node24"><a xlink:href="https://github.com/conda-forge/libva-feedstock" xlink:title="libva">
<ellipse fill="#fde725" stroke="black" cx="2126" cy="-234" rx="35.42" ry="18"/>
<text text-anchor="middle" x="2126" y="-229.32" font-family="Times,serif" font-size="14.00">libva</text>
</a>
</g>
</g>
<!-- xorg&#45;libx11&#45;&gt;libva -->
<g id="edge47" class="edge">
<title>xorg&#45;libx11&#45;&gt;libva</title>
<path fill="none" stroke="black" d="M1888.76,-369.45C1954.22,-361.02 2047.65,-345.66 2077,-324 2097.38,-308.96 2110.32,-282.78 2117.74,-262.7"/>
<polygon fill="black" stroke="black" points="2120.99,-264.02 2120.92,-253.43 2114.37,-261.76 2120.99,-264.02"/>
</g>
<!-- vulkan&#45;loader -->
<g id="node25" class="node">
<title>vulkan&#45;loader</title>
<g id="a_node25"><a xlink:href="https://github.com/conda-forge/vulkan-loader-feedstock" xlink:title="vulkan loader">
<ellipse fill="#fde725" stroke="black" cx="2490" cy="-162" rx="79.09" ry="18"/>
<text text-anchor="middle" x="2490" y="-157.32" font-family="Times,serif" font-size="14.00">vulkan loader</text>
</a>
</g>
</g>
<!-- xorg&#45;libx11&#45;&gt;vulkan&#45;loader -->
<g id="edge50" class="edge">
<title>xorg&#45;libx11&#45;&gt;vulkan&#45;loader</title>
<path fill="none" stroke="black" d="M1895.38,-373.95C2041.54,-367.42 2355.66,-350.46 2397,-324 2445.04,-293.25 2471.08,-228.23 2482.59,-190.91"/>
<polygon fill="black" stroke="black" points="2485.82,-192.32 2485.28,-181.74 2479.11,-190.35 2485.82,-192.32"/>
</g>
<!-- vulkan&#45;tools -->
<g id="node26" class="node">
<title>vulkan&#45;tools</title>
<g id="a_node26"><a xlink:href="https://github.com/conda-forge/vulkan-tools-feedstock" xlink:title="vulkan tools">
<ellipse fill="#fde725" stroke="black" cx="2436" cy="-90" rx="71.73" ry="18"/>
<text text-anchor="middle" x="2436" y="-85.33" font-family="Times,serif" font-size="14.00">vulkan tools</text>
</a>
</g>
</g>
<!-- xorg&#45;libx11&#45;&gt;vulkan&#45;tools -->
<g id="edge51" class="edge">
<title>xorg&#45;libx11&#45;&gt;vulkan&#45;tools</title>
<path fill="none" stroke="black" d="M1895.91,-374.54C2036.72,-369.22 2329.83,-354.58 2364,-324 2424.93,-269.47 2370.97,-219.65 2402,-144 2405.77,-134.8 2411.16,-125.44 2416.54,-117.2"/>
<polygon fill="black" stroke="black" points="2419.36,-119.27 2422.13,-109.04 2413.59,-115.31 2419.36,-119.27"/>
</g>
<!-- nsight&#45;compute -->
<g id="node27" class="node">
<title>nsight&#45;compute</title>
<g id="a_node27"><a xlink:href="https://github.com/conda-forge/nsight-compute-feedstock" xlink:title="nsight compute">
<ellipse fill="#fde725" stroke="black" cx="426" cy="-162" rx="89.09" ry="18"/>
<text text-anchor="middle" x="426" y="-157.32" font-family="Times,serif" font-size="14.00">nsight compute</text>
</a>
</g>
</g>
<!-- xorg&#45;libx11&#45;&gt;nsight&#45;compute -->
<g id="edge52" class="edge">
<title>xorg&#45;libx11&#45;&gt;nsight&#45;compute</title>
<path fill="none" stroke="black" d="M1745.3,-375.97C1474.55,-372.02 567.52,-356.43 515,-324 490.11,-308.63 455.26,-232.8 437.46,-190.92"/>
<polygon fill="black" stroke="black" points="440.7,-189.59 433.6,-181.73 434.24,-192.3 440.7,-189.59"/>
</g>
<!-- libva&#45;&gt;ffmpeg -->
<g id="edge53" class="edge">
<title>libva&#45;&gt;ffmpeg</title>
<path fill="none" stroke="black" d="M2135.72,-216.41C2140.4,-208.42 2146.12,-198.64 2151.39,-189.64"/>
<polygon fill="black" stroke="black" points="2154.27,-191.66 2156.3,-181.26 2148.23,-188.12 2154.27,-191.66"/>
</g>
<!-- vulkan&#45;loader&#45;&gt;vulkan&#45;tools -->
<g id="edge55" class="edge">
<title>vulkan&#45;loader&#45;&gt;vulkan&#45;tools</title>
<path fill="none" stroke="black" d="M2476.93,-144.05C2470.63,-135.89 2462.93,-125.91 2455.92,-116.82"/>
<polygon fill="black" stroke="black" points="2458.76,-114.77 2449.88,-108.99 2453.21,-119.04 2458.76,-114.77"/>
</g>
<!-- xcb&#45;util&#45;keysyms -->
<g id="node28" class="node">
<title>xcb&#45;util&#45;keysyms</title>
<g id="a_node28"><a xlink:href="https://github.com/conda-forge/xcb-util-keysyms-feedstock" xlink:title="xcb util keysyms">
<ellipse fill="#35b779" stroke="black" cx="619" cy="-306" rx="94.88" ry="18"/>
<text text-anchor="middle" x="619" y="-301.32" font-family="Times,serif" font-size="14.00">xcb util keysyms</text>
</a>
</g>
</g>
<!-- xcb&#45;util&#45;keysyms&#45;&gt;qt&#45;main -->
<g id="edge56" class="edge">
<title>xcb&#45;util&#45;keysyms&#45;&gt;qt&#45;main</title>
<path fill="none" stroke="black" d="M682.61,-292.24C748.87,-278.95 851.55,-258.36 914,-245.83"/>
<polygon fill="black" stroke="black" points="914.58,-249.29 923.69,-243.89 913.2,-242.42 914.58,-249.29"/>
</g>
<!-- xcb&#45;util&#45;keysyms&#45;&gt;kwindowsystem -->
<g id="edge57" class="edge">
<title>xcb&#45;util&#45;keysyms&#45;&gt;kwindowsystem</title>
<path fill="none" stroke="black" d="M619.15,-287.94C619.92,-257.86 623.89,-193.88 643,-144 646.53,-134.78 651.88,-125.52 657.34,-117.38"/>
<polygon fill="black" stroke="black" points="660.12,-119.5 663.06,-109.32 654.42,-115.45 660.12,-119.5"/>
</g>
<!-- xcb&#45;util&#45;keysyms&#45;&gt;kglobalaccel -->
<g id="edge58" class="edge">
<title>xcb&#45;util&#45;keysyms&#45;&gt;kglobalaccel</title>
<path fill="none" stroke="black" d="M608.59,-287.76C585.48,-247.06 535.22,-143.09 578,-72 587.61,-56.04 603.82,-44.63 620.42,-36.59"/>
<polygon fill="black" stroke="black" points="621.64,-39.87 629.37,-32.62 618.81,-33.47 621.64,-39.87"/>
</g>
<!-- xcb&#45;util&#45;keysyms&#45;&gt;nsight&#45;compute -->
<g id="edge59" class="edge">
<title>xcb&#45;util&#45;keysyms&#45;&gt;nsight&#45;compute</title>
<path fill="none" stroke="black" d="M588.14,-288.65C570.36,-278.78 547.86,-265.53 529,-252 501.4,-232.2 472.33,-206.58 452.13,-187.91"/>
<polygon fill="black" stroke="black" points="454.59,-185.42 444.89,-181.16 449.81,-190.54 454.59,-185.42"/>
</g>
<!-- xcb&#45;util -->
<g id="node29" class="node">
<title>xcb&#45;util</title>
<g id="a_node29"><a xlink:href="https://github.com/conda-forge/xcb-util-feedstock/pull/3" xlink:title="xcb util ✓">
<ellipse fill="#31688e" stroke="black" cx="148" cy="-378" rx="56.47" ry="18"/>
<text text-anchor="middle" x="148" y="-373.32" font-family="Times,serif" font-size="14.00" fill="white">xcb util ✓</text>
</a>
</g>
</g>
<!-- xcb&#45;util&#45;&gt;qt&#45;main -->
<g id="edge60" class="edge">
<title>xcb&#45;util&#45;&gt;qt&#45;main</title>
<path fill="none" stroke="black" d="M204.24,-375.2C365.05,-369.74 819.21,-352 880,-324 909.61,-310.36 934.74,-282.14 950.47,-261.12"/>
<polygon fill="black" stroke="black" points="953.12,-263.43 956.13,-253.27 947.44,-259.33 953.12,-263.43"/>
</g>
<!-- xcb&#45;util&#45;&gt;kwindowsystem -->
<g id="edge61" class="edge">
<title>xcb&#45;util&#45;&gt;kwindowsystem</title>
<path fill="none" stroke="black" d="M108.91,-364.73C89.65,-356.49 68.21,-343.5 57,-324 49.03,-310.13 49.02,-301.87 57,-288 88.8,-232.77 124.79,-246.03 181,-216 245.16,-181.71 258.56,-165.7 328,-144 411.38,-117.94 510.08,-104.48 581.37,-97.66"/>
<polygon fill="black" stroke="black" points="581.43,-101.17 591.06,-96.77 580.78,-94.2 581.43,-101.17"/>
</g>
<!-- xcb&#45;util&#45;image -->
<g id="node30" class="node">
<title>xcb&#45;util&#45;image</title>
<g id="a_node30"><a xlink:href="https://github.com/conda-forge/xcb-util-image-feedstock" xlink:title="xcb util image">
<ellipse fill="#fde725" stroke="black" cx="148" cy="-306" rx="82.25" ry="18"/>
<text text-anchor="middle" x="148" y="-301.32" font-family="Times,serif" font-size="14.00">xcb util image</text>
</a>
</g>
</g>
<!-- xcb&#45;util&#45;&gt;xcb&#45;util&#45;image -->
<g id="edge62" class="edge">
<title>xcb&#45;util&#45;&gt;xcb&#45;util&#45;image</title>
<path fill="none" stroke="black" d="M148,-359.7C148,-352.41 148,-343.73 148,-335.54"/>
<polygon fill="black" stroke="black" points="151.5,-335.62 148,-325.62 144.5,-335.62 151.5,-335.62"/>
</g>
<!-- xcb&#45;util&#45;image&#45;&gt;qt&#45;main -->
<g id="edge63" class="edge">
<title>xcb&#45;util&#45;image&#45;&gt;qt&#45;main</title>
<path fill="none" stroke="black" d="M206.59,-293.06C217.34,-291.15 228.48,-289.36 239,-288 485.82,-256.08 782.33,-241.96 907.53,-237.1"/>
<polygon fill="black" stroke="black" points="907.37,-240.61 917.23,-236.73 907.11,-233.62 907.37,-240.61"/>
</g>
<!-- xcb&#45;util&#45;image&#45;&gt;nsight&#45;compute -->
<g id="edge64" class="edge">
<title>xcb&#45;util&#45;image&#45;&gt;nsight&#45;compute</title>
<path fill="none" stroke="black" d="M157.49,-287.81C169.57,-267.53 192.37,-234.29 221,-216 255.82,-193.76 299.59,-180.83 337.73,-173.32"/>
<polygon fill="black" stroke="black" points="338.17,-176.8 347.36,-171.53 336.89,-169.92 338.17,-176.8"/>
</g>
<!-- xcb&#45;util&#45;cursor -->
<g id="node31" class="node">
<title>xcb&#45;util&#45;cursor</title>
<g id="a_node31"><a xlink:href="https://github.com/conda-forge/xcb-util-cursor-feedstock" xlink:title="xcb util cursor">
<ellipse fill="#fde725" stroke="black" cx="314" cy="-234" rx="83.83" ry="18"/>
<text text-anchor="middle" x="314" y="-229.32" font-family="Times,serif" font-size="14.00">xcb util cursor</text>
</a>
</g>
</g>
<!-- xcb&#45;util&#45;image&#45;&gt;xcb&#45;util&#45;cursor -->
<g id="edge65" class="edge">
<title>xcb&#45;util&#45;image&#45;&gt;xcb&#45;util&#45;cursor</title>
<path fill="none" stroke="black" d="M184.84,-289.46C208.93,-279.3 240.64,-265.94 266.6,-254.99"/>
<polygon fill="black" stroke="black" points="267.73,-258.31 275.58,-251.2 265.01,-251.86 267.73,-258.31"/>
</g>
<!-- xcb&#45;util&#45;cursor&#45;&gt;nsight&#45;compute -->
<g id="edge69" class="edge">
<title>xcb&#45;util&#45;cursor&#45;&gt;nsight&#45;compute</title>
<path fill="none" stroke="black" d="M340.26,-216.59C355.04,-207.35 373.71,-195.68 389.85,-185.59"/>
<polygon fill="black" stroke="black" points="391.61,-188.62 398.23,-180.35 387.9,-182.69 391.61,-188.62"/>
</g>
<!-- xcb&#45;util&#45;wm -->
<g id="node32" class="node">
<title>xcb&#45;util&#45;wm</title>
<g id="a_node32"><a xlink:href="https://github.com/conda-forge/xcb-util-wm-feedstock" xlink:title="xcb util wm">
<ellipse fill="#35b779" stroke="black" cx="801" cy="-306" rx="69.62" ry="18"/>
<text text-anchor="middle" x="801" y="-301.32" font-family="Times,serif" font-size="14.00">xcb util wm</text>
</a>
</g>
</g>
<!-- xcb&#45;util&#45;wm&#45;&gt;qt&#45;main -->
<g id="edge66" class="edge">
<title>xcb&#45;util&#45;wm&#45;&gt;qt&#45;main</title>
<path fill="none" stroke="black" d="M836.42,-290.15C862.53,-279.21 898.17,-264.27 925.77,-252.7"/>
<polygon fill="black" stroke="black" points="927.03,-255.97 934.9,-248.87 924.33,-249.51 927.03,-255.97"/>
</g>
<!-- xcb&#45;util&#45;wm&#45;&gt;kwindowsystem -->
<g id="edge67" class="edge">
<title>xcb&#45;util&#45;wm&#45;&gt;kwindowsystem</title>
<path fill="none" stroke="black" d="M776.97,-288.67C748.1,-267.48 701.06,-227.53 681,-180 672.95,-160.93 672.5,-137.46 673.9,-119.41"/>
<polygon fill="black" stroke="black" points="677.36,-119.98 674.91,-109.68 670.4,-119.26 677.36,-119.98"/>
</g>
<!-- xcb&#45;util&#45;wm&#45;&gt;nsight&#45;compute -->
<g id="edge68" class="edge">
<title>xcb&#45;util&#45;wm&#45;&gt;nsight&#45;compute</title>
<path fill="none" stroke="black" d="M758.15,-291.47C726.22,-281.18 681.64,-266.39 643,-252 583.77,-229.95 516.6,-201.92 472.89,-183.27"/>
<polygon fill="black" stroke="black" points="474.53,-180.17 463.96,-179.45 471.78,-186.6 474.53,-180.17"/>
</g>
<!-- xcb&#45;util&#45;renderutil -->
<g id="node33" class="node">
<title>xcb&#45;util&#45;renderutil</title>
<g id="a_node33"><a xlink:href="https://github.com/conda-forge/xcb-util-renderutil-feedstock/pull/6" xlink:title="xcb util renderutil ✓">
<ellipse fill="#31688e" stroke="black" cx="358" cy="-306" rx="110.13" ry="18"/>
<text text-anchor="middle" x="358" y="-301.32" font-family="Times,serif" font-size="14.00" fill="white">xcb util renderutil ✓</text>
</a>
</g>
</g>
<!-- xcb&#45;util&#45;renderutil&#45;&gt;qt&#45;main -->
<g id="edge70" class="edge">
<title>xcb&#45;util&#45;renderutil&#45;&gt;qt&#45;main</title>
<path fill="none" stroke="black" d="M446.05,-294.9C572.59,-280.38 802.42,-254 909.8,-241.68"/>
<polygon fill="black" stroke="black" points="910,-245.18 919.54,-240.56 909.2,-238.22 910,-245.18"/>
</g>
<!-- xcb&#45;util&#45;renderutil&#45;&gt;nsight&#45;compute -->
<g id="edge71" class="edge">
<title>xcb&#45;util&#45;renderutil&#45;&gt;nsight&#45;compute</title>
<path fill="none" stroke="black" d="M377.94,-288.26C388.13,-278.66 399.85,-265.8 407,-252 416.74,-233.22 421.49,-209.74 423.8,-191.61"/>
<polygon fill="black" stroke="black" points="427.26,-192.13 424.86,-181.81 420.31,-191.38 427.26,-192.13"/>
</g>
<!-- xcb&#45;util&#45;renderutil&#45;&gt;xcb&#45;util&#45;cursor -->
<g id="edge72" class="edge">
<title>xcb&#45;util&#45;renderutil&#45;&gt;xcb&#45;util&#45;cursor</title>
<path fill="none" stroke="black" d="M347.12,-287.7C342.22,-279.9 336.32,-270.51 330.86,-261.83"/>
<polygon fill="black" stroke="black" points="333.84,-259.99 325.56,-253.39 327.92,-263.71 333.84,-259.99"/>
</g>
</g>
</svg>
