<?xml version="1.0" encoding="UTF-8" standalone="no"?>
<!DOCTYPE svg PUBLIC "-//W3C//DTD SVG 1.1//EN"
 "http://www.w3.org/Graphics/SVG/1.1/DTD/svg11.dtd">
<!-- Generated by graphviz version 11.0.0 (20240519.1550)
 -->
<!-- Pages: 1 -->
<svg width="2488pt" height="404pt"
 viewBox="0.00 0.00 2488.40 404.00" xmlns="http://www.w3.org/2000/svg" xmlns:xlink="http://www.w3.org/1999/xlink">
<g id="graph0" class="graph" transform="scale(1 1) rotate(0) translate(4 400)">
<polygon fill="white" stroke="none" points="-4,4 -4,-400 2484.4,-400 2484.4,4 -4,4"/>
<!-- cairo -->
<g id="node1" class="node">
<title>cairo</title>
<g id="a_node1"><a xlink:href="https://github.com/conda-forge/cairo-feedstock" xlink:title="cairo">
<ellipse fill="#fde725" stroke="black" cx="1304.08" cy="-306" rx="35.95" ry="18"/>
<text text-anchor="middle" x="1304.08" y="-301.32" font-family="Times,serif" font-size="14.00">cairo</text>
</a>
</g>
</g>
<!-- ffmpeg -->
<g id="node2" class="node">
<title>ffmpeg</title>
<g id="a_node2"><a xlink:href="https://github.com/conda-forge/ffmpeg-feedstock" xlink:title="ffmpeg">
<ellipse fill="#fde725" stroke="black" cx="109.08" cy="-162" rx="45.95" ry="18"/>
<text text-anchor="middle" x="109.08" y="-157.32" font-family="Times,serif" font-size="14.00">ffmpeg</text>
</a>
</g>
</g>
<!-- cairo&#45;&gt;ffmpeg -->
<g id="edge1" class="edge">
<title>cairo&#45;&gt;ffmpeg</title>
<path fill="none" stroke="black" d="M1277.13,-293.77C1256.11,-284.32 1226.78,-269.55 1204.08,-252 1186.91,-238.72 1190.78,-225.11 1171.08,-216 1073.28,-170.79 309.18,-191.72 202.08,-180 188.31,-178.49 173.52,-176.13 159.87,-173.65"/>
<polygon fill="black" stroke="black" points="160.68,-170.24 150.21,-171.82 159.39,-177.12 160.68,-170.24"/>
</g>
<!-- gnuplot -->
<g id="node3" class="node">
<title>gnuplot</title>
<g id="a_node3"><a xlink:href="https://github.com/conda-forge/gnuplot-feedstock" xlink:title="gnuplot">
<ellipse fill="#fde725" stroke="black" cx="961.08" cy="-162" rx="49.63" ry="18"/>
<text text-anchor="middle" x="961.08" y="-157.32" font-family="Times,serif" font-size="14.00">gnuplot</text>
</a>
</g>
</g>
<!-- cairo&#45;&gt;gnuplot -->
<g id="edge2" class="edge">
<title>cairo&#45;&gt;gnuplot</title>
<path fill="none" stroke="black" d="M1291.02,-288.98C1273.49,-268.62 1240.31,-233.96 1204.08,-216 1129.42,-178.99 1101.08,-199.55 1020.08,-180 1016.56,-179.15 1012.93,-178.23 1009.29,-177.26"/>
<polygon fill="black" stroke="black" points="1010.43,-173.95 999.86,-174.69 1008.59,-180.7 1010.43,-173.95"/>
</g>
<!-- lyx -->
<g id="node4" class="node">
<title>lyx</title>
<g id="a_node4"><a xlink:href="https://github.com/conda-forge/lyx-feedstock" xlink:title="lyx">
<ellipse fill="#fde725" stroke="black" cx="1056.08" cy="-162" rx="27" ry="18"/>
<text text-anchor="middle" x="1056.08" y="-157.32" font-family="Times,serif" font-size="14.00">lyx</text>
</a>
</g>
</g>
<!-- cairo&#45;&gt;lyx -->
<g id="edge3" class="edge">
<title>cairo&#45;&gt;lyx</title>
<path fill="none" stroke="black" d="M1304.52,-287.53C1304.01,-267.29 1299.9,-234.4 1280.08,-216 1217.73,-158.12 1172.96,-206.37 1092.08,-180 1090.48,-179.48 1088.85,-178.9 1087.23,-178.28"/>
<polygon fill="black" stroke="black" points="1088.62,-175.07 1078.05,-174.39 1085.89,-181.52 1088.62,-175.07"/>
</g>
<!-- qt&#45;main -->
<g id="node5" class="node">
<title>qt&#45;main</title>
<g id="a_node5"><a xlink:href="https://github.com/conda-forge/qt-main-feedstock" xlink:title="qt main">
<ellipse fill="#fde725" stroke="black" cx="1562.08" cy="-234" rx="49.63" ry="18"/>
<text text-anchor="middle" x="1562.08" y="-229.32" font-family="Times,serif" font-size="14.00">qt main</text>
</a>
</g>
</g>
<!-- cairo&#45;&gt;qt&#45;main -->
<g id="edge4" class="edge">
<title>cairo&#45;&gt;qt&#45;main</title>
<path fill="none" stroke="black" d="M1335.2,-296.56C1379.15,-284.63 1459.88,-262.73 1512.24,-248.52"/>
<polygon fill="black" stroke="black" points="1513.08,-251.92 1521.82,-245.92 1511.25,-245.16 1513.08,-251.92"/>
</g>
<!-- qt&#45;webengine -->
<g id="node6" class="node">
<title>qt&#45;webengine</title>
<g id="a_node6"><a xlink:href="https://github.com/conda-forge/qt-webengine-feedstock" xlink:title="qt webengine">
<ellipse fill="#fde725" stroke="black" cx="1180.08" cy="-162" rx="79.09" ry="18"/>
<text text-anchor="middle" x="1180.08" y="-157.32" font-family="Times,serif" font-size="14.00">qt webengine</text>
</a>
</g>
</g>
<!-- cairo&#45;&gt;qt&#45;webengine -->
<g id="edge5" class="edge">
<title>cairo&#45;&gt;qt&#45;webengine</title>
<path fill="none" stroke="black" d="M1338.87,-300.48C1367.93,-294.67 1407.65,-281.53 1427.08,-252 1435.87,-238.63 1437.14,-228.44 1427.08,-216 1421.45,-209.04 1322.54,-189.4 1251.62,-176.09"/>
<polygon fill="black" stroke="black" points="1252.45,-172.68 1241.98,-174.28 1251.17,-179.56 1252.45,-172.68"/>
</g>
<!-- silicon -->
<g id="node7" class="node">
<title>silicon</title>
<g id="a_node7"><a xlink:href="https://github.com/conda-forge/silicon-feedstock" xlink:title="silicon">
<ellipse fill="#fde725" stroke="black" cx="1375.08" cy="-234" rx="43.32" ry="18"/>
<text text-anchor="middle" x="1375.08" y="-229.32" font-family="Times,serif" font-size="14.00">silicon</text>
</a>
</g>
</g>
<!-- cairo&#45;&gt;silicon -->
<g id="edge6" class="edge">
<title>cairo&#45;&gt;silicon</title>
<path fill="none" stroke="black" d="M1319.84,-289.46C1328.9,-280.53 1340.48,-269.11 1350.7,-259.04"/>
<polygon fill="black" stroke="black" points="1353.13,-261.55 1357.8,-252.04 1348.22,-256.57 1353.13,-261.55"/>
</g>
<!-- vtk -->
<g id="node8" class="node">
<title>vtk</title>
<g id="a_node8"><a xlink:href="https://github.com/conda-forge/vtk-feedstock" xlink:title="vtk">
<ellipse fill="#fde725" stroke="black" cx="72.08" cy="-90" rx="27.01" ry="18"/>
<text text-anchor="middle" x="72.08" y="-85.33" font-family="Times,serif" font-size="14.00">vtk</text>
</a>
</g>
</g>
<!-- ffmpeg&#45;&gt;vtk -->
<g id="edge7" class="edge">
<title>ffmpeg&#45;&gt;vtk</title>
<path fill="none" stroke="black" d="M100.12,-144.05C95.88,-136.03 90.72,-126.26 85.98,-117.3"/>
<polygon fill="black" stroke="black" points="89.17,-115.85 81.41,-108.65 82.99,-119.12 89.17,-115.85"/>
</g>
<!-- gazebo -->
<g id="node9" class="node">
<title>gazebo</title>
<g id="a_node9"><a xlink:href="https://github.com/conda-forge/gazebo-feedstock" xlink:title="gazebo">
<ellipse fill="#fde725" stroke="black" cx="412.08" cy="-90" rx="46.47" ry="18"/>
<text text-anchor="middle" x="412.08" y="-85.33" font-family="Times,serif" font-size="14.00">gazebo</text>
</a>
</g>
</g>
<!-- ffmpeg&#45;&gt;gazebo -->
<g id="edge8" class="edge">
<title>ffmpeg&#45;&gt;gazebo</title>
<path fill="none" stroke="black" d="M148.07,-151.99C202.58,-139.4 301.6,-116.52 361.65,-102.65"/>
<polygon fill="black" stroke="black" points="362.33,-106.09 371.28,-100.42 360.75,-99.27 362.33,-106.09"/>
</g>
<!-- qt&#45;main&#45;&gt;gnuplot -->
<g id="edge9" class="edge">
<title>qt&#45;main&#45;&gt;gnuplot</title>
<path fill="none" stroke="black" d="M1516.2,-226.79C1490.1,-223.37 1456.79,-219.18 1427.08,-216 1246.52,-196.65 1198.6,-213.29 1020.08,-180 1016.24,-179.28 1012.3,-178.43 1008.35,-177.48"/>
<polygon fill="black" stroke="black" points="1009.35,-174.12 998.79,-175.01 1007.6,-180.9 1009.35,-174.12"/>
</g>
<!-- qt&#45;main&#45;&gt;lyx -->
<g id="edge10" class="edge">
<title>qt&#45;main&#45;&gt;lyx</title>
<path fill="none" stroke="black" d="M1515.87,-226.97C1489.81,-223.62 1456.64,-219.45 1427.08,-216 1278.34,-198.64 1236.24,-220.54 1092.08,-180 1090.46,-179.54 1088.82,-179.02 1087.18,-178.45"/>
<polygon fill="black" stroke="black" points="1088.55,-175.22 1077.96,-174.68 1085.9,-181.7 1088.55,-175.22"/>
</g>
<!-- qt&#45;main&#45;&gt;qt&#45;webengine -->
<g id="edge11" class="edge">
<title>qt&#45;main&#45;&gt;qt&#45;webengine</title>
<path fill="none" stroke="black" d="M1523.99,-222.21C1515.5,-219.99 1506.51,-217.79 1498.08,-216 1399.01,-194.97 1372.9,-197.11 1273.08,-180 1265.88,-178.77 1258.38,-177.45 1250.89,-176.11"/>
<polygon fill="black" stroke="black" points="1251.53,-172.67 1241.07,-174.35 1250.29,-179.56 1251.53,-172.67"/>
</g>
<!-- qt&#45;main&#45;&gt;gazebo -->
<g id="edge12" class="edge">
<title>qt&#45;main&#45;&gt;gazebo</title>
<path fill="none" stroke="black" d="M1523.25,-222.3C1514.96,-220.13 1506.25,-217.92 1498.08,-216 1420.35,-197.74 1395.78,-210.72 1322.08,-180 1295.46,-168.9 1295.45,-153.11 1268.08,-144 1129.77,-97.94 758.5,-118.14 613.08,-108 564.27,-104.6 508.87,-99.84 468.61,-96.23"/>
<polygon fill="black" stroke="black" points="468.94,-92.74 458.66,-95.33 468.31,-99.72 468.94,-92.74"/>
</g>
<!-- colmap -->
<g id="node10" class="node">
<title>colmap</title>
<g id="a_node10"><a xlink:href="https://github.com/conda-forge/colmap-feedstock" xlink:title="colmap">
<ellipse fill="#fde725" stroke="black" cx="258.08" cy="-162" rx="47" ry="18"/>
<text text-anchor="middle" x="258.08" y="-157.32" font-family="Times,serif" font-size="14.00">colmap</text>
</a>
</g>
</g>
<!-- qt&#45;main&#45;&gt;colmap -->
<g id="edge13" class="edge">
<title>qt&#45;main&#45;&gt;colmap</title>
<path fill="none" stroke="black" d="M1516.88,-226.26C1490.71,-222.61 1457.1,-218.39 1427.08,-216 950.54,-178.1 827.43,-230.67 352.08,-180 338.17,-178.52 323.21,-176.16 309.42,-173.68"/>
<polygon fill="black" stroke="black" points="310.11,-170.25 299.64,-171.85 308.82,-177.13 310.11,-170.25"/>
</g>
<!-- kwindowsystem -->
<g id="node11" class="node">
<title>kwindowsystem</title>
<g id="a_node11"><a xlink:href="https://github.com/conda-forge/kwindowsystem-feedstock" xlink:title="kwindowsystem">
<ellipse fill="#fde725" stroke="black" cx="1877.08" cy="-90" rx="91.19" ry="18"/>
<text text-anchor="middle" x="1877.08" y="-85.33" font-family="Times,serif" font-size="14.00">kwindowsystem</text>
</a>
</g>
</g>
<!-- qt&#45;main&#45;&gt;kwindowsystem -->
<g id="edge14" class="edge">
<title>qt&#45;main&#45;&gt;kwindowsystem</title>
<path fill="none" stroke="black" d="M1599.86,-221.87C1631.25,-212.16 1676.8,-197 1715.08,-180 1759.54,-160.26 1808.15,-132.69 1840.41,-113.48"/>
<polygon fill="black" stroke="black" points="1842.2,-116.49 1848.98,-108.34 1838.6,-110.48 1842.2,-116.49"/>
</g>
<!-- kglobalaccel -->
<g id="node12" class="node">
<title>kglobalaccel</title>
<g id="a_node12"><a xlink:href="https://github.com/conda-forge/kglobalaccel-feedstock" xlink:title="kglobalaccel">
<ellipse fill="#fde725" stroke="black" cx="1701.08" cy="-18" rx="72.78" ry="18"/>
<text text-anchor="middle" x="1701.08" y="-13.32" font-family="Times,serif" font-size="14.00">kglobalaccel</text>
</a>
</g>
</g>
<!-- qt&#45;main&#45;&gt;kglobalaccel -->
<g id="edge15" class="edge">
<title>qt&#45;main&#45;&gt;kglobalaccel</title>
<path fill="none" stroke="black" d="M1605.81,-225.01C1632.16,-217.82 1664.02,-204.46 1682.08,-180 1710.72,-141.22 1709.54,-82.25 1705.62,-47.47"/>
<polygon fill="black" stroke="black" points="1709.12,-47.22 1704.36,-37.76 1702.18,-48.12 1709.12,-47.22"/>
</g>
<!-- qt6&#45;advanced&#45;docking&#45;system -->
<g id="node13" class="node">
<title>qt6&#45;advanced&#45;docking&#45;system</title>
<g id="a_node13"><a xlink:href="https://github.com/conda-forge/qt6-advanced-docking-system-feedstock" xlink:title="qt6 advanced docking system">
<ellipse fill="#fde725" stroke="black" cx="1513.08" cy="-162" rx="159.59" ry="18"/>
<text text-anchor="middle" x="1513.08" y="-157.32" font-family="Times,serif" font-size="14.00">qt6 advanced docking system</text>
</a>
</g>
</g>
<!-- qt&#45;main&#45;&gt;qt6&#45;advanced&#45;docking&#45;system -->
<g id="edge16" class="edge">
<title>qt&#45;main&#45;&gt;qt6&#45;advanced&#45;docking&#45;system</title>
<path fill="none" stroke="black" d="M1550.22,-216.05C1544.64,-208.09 1537.87,-198.41 1531.64,-189.51"/>
<polygon fill="black" stroke="black" points="1534.64,-187.7 1526.04,-181.52 1528.91,-191.71 1534.64,-187.7"/>
</g>
<!-- adwaita&#45;qt -->
<g id="node14" class="node">
<title>adwaita&#45;qt</title>
<g id="a_node14"><a xlink:href="https://github.com/conda-forge/adwaita-qt-feedstock" xlink:title="adwaita qt">
<ellipse fill="#fde725" stroke="black" cx="1325.08" cy="-90" rx="64.36" ry="18"/>
<text text-anchor="middle" x="1325.08" y="-85.33" font-family="Times,serif" font-size="14.00">adwaita qt</text>
</a>
</g>
</g>
<!-- qt&#45;main&#45;&gt;adwaita&#45;qt -->
<g id="edge17" class="edge">
<title>qt&#45;main&#45;&gt;adwaita&#45;qt</title>
<path fill="none" stroke="black" d="M1523.21,-222.47C1514.93,-220.29 1506.22,-218.03 1498.08,-216 1429.88,-198.98 1393.3,-230.18 1344.08,-180 1328.6,-164.21 1324.36,-139.09 1323.71,-119.55"/>
<polygon fill="black" stroke="black" points="1327.21,-119.75 1323.7,-109.76 1320.21,-119.76 1327.21,-119.75"/>
</g>
<!-- qt&#45;webengine&#45;&gt;kwindowsystem -->
<g id="edge18" class="edge">
<title>qt&#45;webengine&#45;&gt;kwindowsystem</title>
<path fill="none" stroke="black" d="M1250.71,-153.61C1279.64,-150.6 1313.47,-147.11 1344.08,-144 1498.95,-128.27 1679.19,-110.45 1785.39,-100"/>
<polygon fill="black" stroke="black" points="1785.59,-103.5 1795.2,-99.04 1784.9,-96.53 1785.59,-103.5"/>
</g>
<!-- qt&#45;webengine&#45;&gt;kglobalaccel -->
<g id="edge19" class="edge">
<title>qt&#45;webengine&#45;&gt;kglobalaccel</title>
<path fill="none" stroke="black" d="M1188.58,-143.87C1199.93,-123.01 1222.15,-88.51 1252.08,-72 1313.13,-38.33 1505.67,-25.87 1617.8,-21.39"/>
<polygon fill="black" stroke="black" points="1617.69,-24.9 1627.55,-21.02 1617.43,-17.9 1617.69,-24.9"/>
</g>
<!-- kwindowsystem&#45;&gt;kglobalaccel -->
<g id="edge54" class="edge">
<title>kwindowsystem&#45;&gt;kglobalaccel</title>
<path fill="none" stroke="black" d="M1838.02,-73.46C1811.71,-63 1776.84,-49.13 1748.87,-38.01"/>
<polygon fill="black" stroke="black" points="1750.51,-34.89 1739.93,-34.45 1747.93,-41.4 1750.51,-34.89"/>
</g>
<!-- gstreamer -->
<g id="node15" class="node">
<title>gstreamer</title>
<g id="a_node15"><a xlink:href="https://github.com/conda-forge/gstreamer-feedstock" xlink:title="gstreamer">
<ellipse fill="#fde725" stroke="black" cx="1073.08" cy="-306" rx="63.31" ry="18"/>
<text text-anchor="middle" x="1073.08" y="-301.32" font-family="Times,serif" font-size="14.00">gstreamer</text>
</a>
</g>
</g>
<!-- gstreamer&#45;&gt;qt&#45;main -->
<g id="edge20" class="edge">
<title>gstreamer&#45;&gt;qt&#45;main</title>
<path fill="none" stroke="black" d="M1128.7,-297.04C1222.42,-283.62 1410.8,-256.66 1505.3,-243.13"/>
<polygon fill="black" stroke="black" points="1505.71,-246.6 1515.12,-241.72 1504.72,-239.68 1505.71,-246.6"/>
</g>
<!-- gstreamer&#45;&gt;qt&#45;webengine -->
<g id="edge21" class="edge">
<title>gstreamer&#45;&gt;qt&#45;webengine</title>
<path fill="none" stroke="black" d="M1115.77,-292.37C1135.87,-284.17 1158.21,-271.31 1171.08,-252 1182.81,-234.4 1184.61,-210.34 1183.72,-191.68"/>
<polygon fill="black" stroke="black" points="1187.22,-191.52 1182.94,-181.82 1180.24,-192.06 1187.22,-191.52"/>
</g>
<!-- gst&#45;plugins&#45;ugly -->
<g id="node16" class="node">
<title>gst&#45;plugins&#45;ugly</title>
<g id="a_node16"><a xlink:href="https://github.com/conda-forge/gst-plugins-ugly-feedstock" xlink:title="gst plugins ugly">
<ellipse fill="#fde725" stroke="black" cx="875.08" cy="-234" rx="91.72" ry="18"/>
<text text-anchor="middle" x="875.08" y="-229.32" font-family="Times,serif" font-size="14.00">gst plugins ugly</text>
</a>
</g>
</g>
<!-- gstreamer&#45;&gt;gst&#45;plugins&#45;ugly -->
<g id="edge22" class="edge">
<title>gstreamer&#45;&gt;gst&#45;plugins&#45;ugly</title>
<path fill="none" stroke="black" d="M1034.43,-291.34C1004.27,-280.67 962.03,-265.74 928.61,-253.92"/>
<polygon fill="black" stroke="black" points="930.12,-250.75 919.52,-250.71 927.79,-257.35 930.12,-250.75"/>
</g>
<!-- gst&#45;plugins&#45;bad -->
<g id="node17" class="node">
<title>gst&#45;plugins&#45;bad</title>
<g id="a_node17"><a xlink:href="https://github.com/conda-forge/gst-plugins-bad-feedstock" xlink:title="gst plugins bad">
<ellipse fill="#fde725" stroke="black" cx="1073.08" cy="-234" rx="88.56" ry="18"/>
<text text-anchor="middle" x="1073.08" y="-229.32" font-family="Times,serif" font-size="14.00">gst plugins bad</text>
</a>
</g>
</g>
<!-- gstreamer&#45;&gt;gst&#45;plugins&#45;bad -->
<g id="edge23" class="edge">
<title>gstreamer&#45;&gt;gst&#45;plugins&#45;bad</title>
<path fill="none" stroke="black" d="M1073.08,-287.7C1073.08,-280.41 1073.08,-271.73 1073.08,-263.54"/>
<polygon fill="black" stroke="black" points="1076.58,-263.62 1073.08,-253.62 1069.58,-263.62 1076.58,-263.62"/>
</g>
<!-- libglu -->
<g id="node18" class="node">
<title>libglu</title>
<g id="a_node18"><a xlink:href="https://github.com/conda-forge/libglu-feedstock" xlink:title="libglu">
<ellipse fill="#fde725" stroke="black" cx="338.08" cy="-234" rx="39.63" ry="18"/>
<text text-anchor="middle" x="338.08" y="-229.32" font-family="Times,serif" font-size="14.00">libglu</text>
</a>
</g>
</g>
<!-- libglu&#45;&gt;vtk -->
<g id="edge24" class="edge">
<title>libglu&#45;&gt;vtk</title>
<path fill="none" stroke="black" d="M304.52,-223.91C275.91,-215.25 234.4,-200.49 202.08,-180 182.43,-167.54 182.73,-157.9 164.08,-144 145.05,-129.82 121.9,-116.5 103.58,-106.76"/>
<polygon fill="black" stroke="black" points="105.24,-103.68 94.76,-102.16 102.01,-109.89 105.24,-103.68"/>
</g>
<!-- libglu&#45;&gt;gazebo -->
<g id="edge25" class="edge">
<title>libglu&#45;&gt;gazebo</title>
<path fill="none" stroke="black" d="M337.42,-215.84C337.44,-197.06 339.67,-166.63 352.08,-144 358.7,-131.94 369.17,-121.28 379.52,-112.74"/>
<polygon fill="black" stroke="black" points="381.53,-115.61 387.3,-106.73 377.25,-110.08 381.53,-115.61"/>
</g>
<!-- libglu&#45;&gt;colmap -->
<g id="edge28" class="edge">
<title>libglu&#45;&gt;colmap</title>
<path fill="none" stroke="black" d="M320.33,-217.46C309.91,-208.35 296.54,-196.65 284.86,-186.43"/>
<polygon fill="black" stroke="black" points="287.31,-183.92 277.48,-179.97 282.7,-189.19 287.31,-183.92"/>
</g>
<!-- freeglut -->
<g id="node19" class="node">
<title>freeglut</title>
<g id="a_node19"><a xlink:href="https://github.com/conda-forge/freeglut-feedstock" xlink:title="freeglut">
<ellipse fill="#fde725" stroke="black" cx="412.08" cy="-162" rx="51.21" ry="18"/>
<text text-anchor="middle" x="412.08" y="-157.32" font-family="Times,serif" font-size="14.00">freeglut</text>
</a>
</g>
</g>
<!-- libglu&#45;&gt;freeglut -->
<g id="edge26" class="edge">
<title>libglu&#45;&gt;freeglut</title>
<path fill="none" stroke="black" d="M354.5,-217.46C363.98,-208.5 376.09,-197.04 386.76,-186.95"/>
<polygon fill="black" stroke="black" points="388.97,-189.68 393.83,-180.26 384.16,-184.59 388.97,-189.68"/>
</g>
<!-- fltk -->
<g id="node20" class="node">
<title>fltk</title>
<g id="a_node20"><a xlink:href="https://github.com/conda-forge/fltk-feedstock" xlink:title="fltk">
<ellipse fill="#fde725" stroke="black" cx="509.08" cy="-162" rx="27.53" ry="18"/>
<text text-anchor="middle" x="509.08" y="-157.32" font-family="Times,serif" font-size="14.00">fltk</text>
</a>
</g>
</g>
<!-- libglu&#45;&gt;fltk -->
<g id="edge27" class="edge">
<title>libglu&#45;&gt;fltk</title>
<path fill="none" stroke="black" d="M367.81,-221.77C395.09,-211.34 436.53,-195.18 472.08,-180 473.62,-179.34 475.2,-178.66 476.79,-177.96"/>
<polygon fill="black" stroke="black" points="478.18,-181.17 485.87,-173.88 475.32,-174.78 478.18,-181.17"/>
</g>
<!-- freeglut&#45;&gt;gazebo -->
<g id="edge29" class="edge">
<title>freeglut&#45;&gt;gazebo</title>
<path fill="none" stroke="black" d="M412.08,-143.7C412.08,-136.41 412.08,-127.73 412.08,-119.54"/>
<polygon fill="black" stroke="black" points="415.58,-119.62 412.08,-109.62 408.58,-119.62 415.58,-119.62"/>
</g>
<!-- mesalib -->
<g id="node21" class="node">
<title>mesalib</title>
<g id="a_node21"><a xlink:href="https://github.com/conda-forge/mesalib-feedstock" xlink:title="mesalib">
<ellipse fill="#fde725" stroke="black" cx="82.08" cy="-306" rx="50.16" ry="18"/>
<text text-anchor="middle" x="82.08" y="-301.32" font-family="Times,serif" font-size="14.00">mesalib</text>
</a>
</g>
</g>
<!-- mesalib&#45;&gt;vtk -->
<g id="edge30" class="edge">
<title>mesalib&#45;&gt;vtk</title>
<path fill="none" stroke="black" d="M75.36,-288.09C64.56,-258.79 45.39,-196.62 54.08,-144 55.48,-135.53 58.06,-126.59 60.83,-118.52"/>
<polygon fill="black" stroke="black" points="64.08,-119.83 64.26,-109.24 57.51,-117.41 64.08,-119.83"/>
</g>
<!-- xorg&#45;libx11 -->
<g id="node22" class="node">
<title>xorg&#45;libx11</title>
<g id="a_node22"><a xlink:href="https://github.com/conda-forge/xorg-libx11-feedstock/pull/39" xlink:title="xorg libx11 ✓">
<ellipse fill="#31688e" stroke="black" cx="660.08" cy="-378" rx="75.94" ry="18"/>
<text text-anchor="middle" x="660.08" y="-373.32" font-family="Times,serif" font-size="14.00" fill="white">xorg libx11 ✓</text>
</a>
</g>
</g>
<!-- xorg&#45;libx11&#45;&gt;cairo -->
<g id="edge31" class="edge">
<title>xorg&#45;libx11&#45;&gt;cairo</title>
<path fill="none" stroke="black" d="M728.09,-369.61C859.71,-355.3 1146.16,-324.16 1258.02,-312.01"/>
<polygon fill="black" stroke="black" points="1258.16,-315.51 1267.72,-310.95 1257.4,-308.55 1258.16,-315.51"/>
</g>
<!-- xorg&#45;libx11&#45;&gt;ffmpeg -->
<g id="edge32" class="edge">
<title>xorg&#45;libx11&#45;&gt;ffmpeg</title>
<path fill="none" stroke="black" d="M584.04,-376.27C512.04,-373.09 402.27,-361.68 315.08,-324 310,-321.8 192.89,-229.34 137.55,-185.55"/>
<polygon fill="black" stroke="black" points="139.8,-182.87 129.79,-179.41 135.46,-188.36 139.8,-182.87"/>
</g>
<!-- xorg&#45;libx11&#45;&gt;gnuplot -->
<g id="edge33" class="edge">
<title>xorg&#45;libx11&#45;&gt;gnuplot</title>
<path fill="none" stroke="black" d="M671.4,-360.17C678.07,-349.92 686.48,-336.45 693.08,-324 717.69,-277.59 700.72,-249.62 741.08,-216 765.58,-195.59 847.46,-179.76 904.1,-170.9"/>
<polygon fill="black" stroke="black" points="904.57,-174.37 913.92,-169.4 903.51,-167.45 904.57,-174.37"/>
</g>
<!-- xorg&#45;libx11&#45;&gt;lyx -->
<g id="edge34" class="edge">
<title>xorg&#45;libx11&#45;&gt;lyx</title>
<path fill="none" stroke="black" d="M679.7,-360.3C690.6,-350.42 703.97,-337.27 714.08,-324 747.35,-280.32 728.9,-247.21 774.08,-216 865,-153.2 914.3,-211.94 1020.08,-180 1021.69,-179.51 1023.32,-178.96 1024.96,-178.37"/>
<polygon fill="black" stroke="black" points="1026.27,-181.62 1034.16,-174.55 1023.58,-175.15 1026.27,-181.62"/>
</g>
<!-- xorg&#45;libx11&#45;&gt;qt&#45;main -->
<g id="edge35" class="edge">
<title>xorg&#45;libx11&#45;&gt;qt&#45;main</title>
<path fill="none" stroke="black" d="M735.98,-375.88C929.79,-372.51 1432.39,-360.34 1498.08,-324 1522.61,-310.43 1540.11,-283 1550.53,-262.16"/>
<polygon fill="black" stroke="black" points="1553.59,-263.88 1554.7,-253.34 1547.26,-260.89 1553.59,-263.88"/>
</g>
<!-- xorg&#45;libx11&#45;&gt;qt&#45;webengine -->
<g id="edge36" class="edge">
<title>xorg&#45;libx11&#45;&gt;qt&#45;webengine</title>
<path fill="none" stroke="black" d="M735.99,-376.53C891.03,-374.69 1238.73,-365.87 1349.08,-324 1398.61,-305.21 1420.51,-299.44 1444.08,-252 1451.2,-237.67 1454.22,-228.37 1444.08,-216 1392.36,-152.91 1344.06,-196.09 1264.08,-180 1258.97,-178.97 1253.69,-177.91 1248.37,-176.83"/>
<polygon fill="black" stroke="black" points="1249.44,-173.48 1238.95,-174.93 1248.05,-180.34 1249.44,-173.48"/>
</g>
<!-- xorg&#45;libx11&#45;&gt;vtk -->
<g id="edge37" class="edge">
<title>xorg&#45;libx11&#45;&gt;vtk</title>
<path fill="none" stroke="black" d="M584.05,-376.32C423.27,-374.08 60.39,-364.55 23.08,-324 -30.77,-265.48 23.99,-163.33 54.53,-116.17"/>
<polygon fill="black" stroke="black" points="57.35,-118.25 59.97,-107.98 51.52,-114.37 57.35,-118.25"/>
</g>
<!-- xorg&#45;libx11&#45;&gt;gazebo -->
<g id="edge38" class="edge">
<title>xorg&#45;libx11&#45;&gt;gazebo</title>
<path fill="none" stroke="black" d="M643.05,-360C633.86,-350.13 622.83,-337.08 615.08,-324 571.4,-250.3 606.34,-204.9 546.08,-144 524.27,-121.96 492.18,-108.84 464.87,-101.17"/>
<polygon fill="black" stroke="black" points="465.91,-97.82 455.35,-98.68 464.14,-104.6 465.91,-97.82"/>
</g>
<!-- xorg&#45;libx11&#45;&gt;colmap -->
<g id="edge45" class="edge">
<title>xorg&#45;libx11&#45;&gt;colmap</title>
<path fill="none" stroke="black" d="M586.69,-373.1C527.95,-367.68 444.66,-354.78 378.08,-324 331.9,-302.65 318.35,-293.62 289.08,-252 276.28,-233.8 268.33,-209.82 263.69,-191.34"/>
<polygon fill="black" stroke="black" points="267.16,-190.8 261.5,-181.85 260.34,-192.38 267.16,-190.8"/>
</g>
<!-- xorg&#45;libx11&#45;&gt;kwindowsystem -->
<g id="edge48" class="edge">
<title>xorg&#45;libx11&#45;&gt;kwindowsystem</title>
<path fill="none" stroke="black" d="M735.89,-375.86C984.52,-371.81 1761.79,-356.6 1804.08,-324 1867.82,-274.87 1877.17,-170.47 1877.74,-119.79"/>
<polygon fill="black" stroke="black" points="1881.24,-119.92 1877.73,-109.93 1874.24,-119.93 1881.24,-119.92"/>
</g>
<!-- xorg&#45;libx11&#45;&gt;kglobalaccel -->
<g id="edge49" class="edge">
<title>xorg&#45;libx11&#45;&gt;kglobalaccel</title>
<path fill="none" stroke="black" d="M660.92,-359.5C663.39,-326.99 673.21,-256.86 712.08,-216 743.2,-183.29 858.9,-157.2 902.08,-144 1035.69,-103.16 1070.36,-95.51 1208.08,-72 1352.35,-47.37 1522.44,-32.08 1620.42,-24.58"/>
<polygon fill="black" stroke="black" points="1620.5,-28.09 1630.2,-23.85 1619.97,-21.11 1620.5,-28.09"/>
</g>
<!-- xorg&#45;libx11&#45;&gt;gstreamer -->
<g id="edge39" class="edge">
<title>xorg&#45;libx11&#45;&gt;gstreamer</title>
<path fill="none" stroke="black" d="M720.58,-366.75C797.45,-353.72 929.61,-331.32 1008.42,-317.96"/>
<polygon fill="black" stroke="black" points="1008.88,-321.43 1018.16,-316.31 1007.71,-314.53 1008.88,-321.43"/>
</g>
<!-- xorg&#45;libx11&#45;&gt;gst&#45;plugins&#45;ugly -->
<g id="edge40" class="edge">
<title>xorg&#45;libx11&#45;&gt;gst&#45;plugins&#45;ugly</title>
<path fill="none" stroke="black" d="M696.88,-361.83C718.6,-352.22 746.22,-338.83 769.08,-324 798.54,-304.89 828.9,-278.6 849.54,-259.55"/>
<polygon fill="black" stroke="black" points="851.74,-262.29 856.65,-252.91 846.96,-257.17 851.74,-262.29"/>
</g>
<!-- xorg&#45;libx11&#45;&gt;gst&#45;plugins&#45;bad -->
<g id="edge41" class="edge">
<title>xorg&#45;libx11&#45;&gt;gst&#45;plugins&#45;bad</title>
<path fill="none" stroke="black" d="M701.95,-362.6C777.12,-336.76 934.87,-282.52 1018.44,-253.79"/>
<polygon fill="black" stroke="black" points="1019.48,-257.13 1027.8,-250.57 1017.21,-250.51 1019.48,-257.13"/>
</g>
<!-- xorg&#45;libx11&#45;&gt;libglu -->
<g id="edge42" class="edge">
<title>xorg&#45;libx11&#45;&gt;libglu</title>
<path fill="none" stroke="black" d="M589.15,-371.24C540.99,-364.91 477.2,-351.67 427.08,-324 398.68,-308.32 373.28,-280.88 356.96,-260.61"/>
<polygon fill="black" stroke="black" points="359.76,-258.51 350.84,-252.78 354.24,-262.82 359.76,-258.51"/>
</g>
<!-- xorg&#45;libx11&#45;&gt;freeglut -->
<g id="edge43" class="edge">
<title>xorg&#45;libx11&#45;&gt;freeglut</title>
<path fill="none" stroke="black" d="M608.75,-364.34C582.16,-355.98 550.28,-343 526.08,-324 478.96,-287.01 443.02,-225.41 424.97,-190.09"/>
<polygon fill="black" stroke="black" points="428.22,-188.78 420.62,-181.39 421.96,-191.9 428.22,-188.78"/>
</g>
<!-- xorg&#45;libx11&#45;&gt;fltk -->
<g id="edge44" class="edge">
<title>xorg&#45;libx11&#45;&gt;fltk</title>
<path fill="none" stroke="black" d="M611.82,-363.72C590.39,-355.53 566.55,-342.88 551.08,-324 519.71,-285.73 511.51,-226.59 509.53,-191.64"/>
<polygon fill="black" stroke="black" points="513.03,-191.72 509.12,-181.88 506.04,-192.01 513.03,-191.72"/>
</g>
<!-- xorg&#45;libx11&#45;&gt;mesalib -->
<g id="edge46" class="edge">
<title>xorg&#45;libx11&#45;&gt;mesalib</title>
<path fill="none" stroke="black" d="M588.13,-371.85C490.69,-364.31 311.53,-348.46 160.08,-324 151.61,-322.63 142.68,-320.93 134,-319.14"/>
<polygon fill="black" stroke="black" points="134.8,-315.73 124.29,-317.07 133.34,-322.58 134.8,-315.73"/>
</g>
<!-- libva -->
<g id="node23" class="node">
<title>libva</title>
<g id="a_node23"><a xlink:href="https://github.com/conda-forge/libva-feedstock" xlink:title="libva">
<ellipse fill="#fde725" stroke="black" cx="132.08" cy="-234" rx="35.42" ry="18"/>
<text text-anchor="middle" x="132.08" y="-229.32" font-family="Times,serif" font-size="14.00">libva</text>
</a>
</g>
</g>
<!-- xorg&#45;libx11&#45;&gt;libva -->
<g id="edge47" class="edge">
<title>xorg&#45;libx11&#45;&gt;libva</title>
<path fill="none" stroke="black" d="M584.85,-375C472.89,-370.91 268.77,-358.79 205.08,-324 179.12,-309.82 158.78,-282.29 146.24,-261.59"/>
<polygon fill="black" stroke="black" points="149.35,-259.99 141.31,-253.08 143.29,-263.49 149.35,-259.99"/>
</g>
<!-- vulkan&#45;loader -->
<g id="node24" class="node">
<title>vulkan&#45;loader</title>
<g id="a_node24"><a xlink:href="https://github.com/conda-forge/vulkan-loader-feedstock" xlink:title="vulkan loader">
<ellipse fill="#fde725" stroke="black" cx="672.08" cy="-162" rx="79.09" ry="18"/>
<text text-anchor="middle" x="672.08" y="-157.32" font-family="Times,serif" font-size="14.00">vulkan loader</text>
</a>
</g>
</g>
<!-- xorg&#45;libx11&#45;&gt;vulkan&#45;loader -->
<g id="edge50" class="edge">
<title>xorg&#45;libx11&#45;&gt;vulkan&#45;loader</title>
<path fill="none" stroke="black" d="M646.1,-360.04C638.89,-350.18 630.83,-337.13 627.08,-324 613.89,-277.85 610.53,-261.06 627.08,-216 630.87,-205.68 637.66,-196 644.83,-187.8"/>
<polygon fill="black" stroke="black" points="647.28,-190.31 651.6,-180.64 642.19,-185.5 647.28,-190.31"/>
</g>
<!-- vulkan&#45;tools -->
<g id="node25" class="node">
<title>vulkan&#45;tools</title>
<g id="a_node25"><a xlink:href="https://github.com/conda-forge/vulkan-tools-feedstock" xlink:title="vulkan tools">
<ellipse fill="#fde725" stroke="black" cx="694.08" cy="-90" rx="71.73" ry="18"/>
<text text-anchor="middle" x="694.08" y="-85.33" font-family="Times,serif" font-size="14.00">vulkan tools</text>
</a>
</g>
</g>
<!-- xorg&#45;libx11&#45;&gt;vulkan&#45;tools -->
<g id="edge51" class="edge">
<title>xorg&#45;libx11&#45;&gt;vulkan&#45;tools</title>
<path fill="none" stroke="black" d="M654.95,-359.79C646.61,-328.06 633.97,-259.59 665.08,-216 691.31,-179.25 734.43,-217.16 760.08,-180 769.17,-166.83 767,-158.43 760.08,-144 754.23,-131.8 744.06,-121.53 733.42,-113.37"/>
<polygon fill="black" stroke="black" points="735.48,-110.53 725.29,-107.62 731.44,-116.25 735.48,-110.53"/>
</g>
<!-- nsight&#45;compute -->
<g id="node26" class="node">
<title>nsight&#45;compute</title>
<g id="a_node26"><a xlink:href="https://github.com/conda-forge/nsight-compute-feedstock" xlink:title="nsight compute">
<ellipse fill="#fde725" stroke="black" cx="2060.08" cy="-162" rx="89.09" ry="18"/>
<text text-anchor="middle" x="2060.08" y="-157.32" font-family="Times,serif" font-size="14.00">nsight compute</text>
</a>
</g>
</g>
<!-- xorg&#45;libx11&#45;&gt;nsight&#45;compute -->
<g id="edge52" class="edge">
<title>xorg&#45;libx11&#45;&gt;nsight&#45;compute</title>
<path fill="none" stroke="black" d="M736.08,-376.49C1014.58,-374.33 1965.73,-364.01 2016.08,-324 2055.72,-292.5 2061.74,-228.98 2061.58,-191.84"/>
<polygon fill="black" stroke="black" points="2065.08,-191.77 2061.35,-181.85 2058.08,-191.93 2065.08,-191.77"/>
</g>
<!-- libva&#45;&gt;ffmpeg -->
<g id="edge53" class="edge">
<title>libva&#45;&gt;ffmpeg</title>
<path fill="none" stroke="black" d="M126.51,-216.05C124.03,-208.52 121.05,-199.44 118.26,-190.94"/>
<polygon fill="black" stroke="black" points="121.68,-190.12 115.23,-181.71 115.02,-192.31 121.68,-190.12"/>
</g>
<!-- vulkan&#45;loader&#45;&gt;vulkan&#45;tools -->
<g id="edge55" class="edge">
<title>vulkan&#45;loader&#45;&gt;vulkan&#45;tools</title>
<path fill="none" stroke="black" d="M677.52,-143.7C679.86,-136.24 682.66,-127.32 685.29,-118.97"/>
<polygon fill="black" stroke="black" points="688.59,-120.14 688.25,-109.55 681.91,-118.04 688.59,-120.14"/>
</g>
<!-- xcb&#45;util&#45;keysyms -->
<g id="node27" class="node">
<title>xcb&#45;util&#45;keysyms</title>
<g id="a_node27"><a xlink:href="https://github.com/conda-forge/xcb-util-keysyms-feedstock/pull/5" xlink:title="xcb util keysyms ✓">
<ellipse fill="#31688e" stroke="black" cx="1692.08" cy="-306" rx="102.77" ry="18"/>
<text text-anchor="middle" x="1692.08" y="-301.32" font-family="Times,serif" font-size="14.00" fill="white">xcb util keysyms ✓</text>
</a>
</g>
</g>
<!-- xcb&#45;util&#45;keysyms&#45;&gt;qt&#45;main -->
<g id="edge56" class="edge">
<title>xcb&#45;util&#45;keysyms&#45;&gt;qt&#45;main</title>
<path fill="none" stroke="black" d="M1661.27,-288.41C1642.69,-278.4 1618.89,-265.59 1599.26,-255.02"/>
<polygon fill="black" stroke="black" points="1600.94,-251.95 1590.47,-250.29 1597.62,-258.11 1600.94,-251.95"/>
</g>
<!-- xcb&#45;util&#45;keysyms&#45;&gt;kwindowsystem -->
<g id="edge57" class="edge">
<title>xcb&#45;util&#45;keysyms&#45;&gt;kwindowsystem</title>
<path fill="none" stroke="black" d="M1735.21,-289.42C1754.29,-280.79 1775.82,-268.42 1791.08,-252 1826.84,-213.52 1812.97,-189.58 1839.08,-144 1844.26,-134.96 1850.62,-125.57 1856.65,-117.26"/>
<polygon fill="black" stroke="black" points="1859.42,-119.4 1862.58,-109.28 1853.8,-115.22 1859.42,-119.4"/>
</g>
<!-- xcb&#45;util&#45;keysyms&#45;&gt;kglobalaccel -->
<g id="edge58" class="edge">
<title>xcb&#45;util&#45;keysyms&#45;&gt;kglobalaccel</title>
<path fill="none" stroke="black" d="M1697.83,-287.65C1709.91,-248.82 1735.67,-152 1721.08,-72 1719.54,-63.58 1716.74,-54.77 1713.71,-46.79"/>
<polygon fill="black" stroke="black" points="1716.98,-45.54 1709.96,-37.61 1710.5,-48.19 1716.98,-45.54"/>
</g>
<!-- xcb&#45;util&#45;keysyms&#45;&gt;nsight&#45;compute -->
<g id="edge59" class="edge">
<title>xcb&#45;util&#45;keysyms&#45;&gt;nsight&#45;compute</title>
<path fill="none" stroke="black" d="M1733.22,-289.12C1801.06,-262.95 1936.18,-210.81 2009.66,-182.45"/>
<polygon fill="black" stroke="black" points="2010.56,-185.86 2018.63,-179 2008.04,-179.33 2010.56,-185.86"/>
</g>
<!-- xcb&#45;util -->
<g id="node28" class="node">
<title>xcb&#45;util</title>
<g id="a_node28"><a xlink:href="https://github.com/conda-forge/xcb-util-feedstock/pull/3" xlink:title="xcb util ✓">
<ellipse fill="#31688e" stroke="black" cx="2383.08" cy="-378" rx="56.47" ry="18"/>
<text text-anchor="middle" x="2383.08" y="-373.32" font-family="Times,serif" font-size="14.00" fill="white">xcb util ✓</text>
</a>
</g>
</g>
<!-- xcb&#45;util&#45;&gt;qt&#45;main -->
<g id="edge60" class="edge">
<title>xcb&#45;util&#45;&gt;qt&#45;main</title>
<path fill="none" stroke="black" d="M2326.24,-377.16C2152.36,-377.12 1635.95,-372.86 1580.08,-324 1563.3,-309.32 1559.56,-283.69 1559.58,-263.7"/>
<polygon fill="black" stroke="black" points="1563.07,-264.04 1559.93,-253.92 1556.08,-263.79 1563.07,-264.04"/>
</g>
<!-- xcb&#45;util&#45;&gt;kwindowsystem -->
<g id="edge61" class="edge">
<title>xcb&#45;util&#45;&gt;kwindowsystem</title>
<path fill="none" stroke="black" d="M2422.17,-364.73C2441.43,-356.49 2462.87,-343.5 2474.08,-324 2482.05,-310.13 2482.74,-301.46 2474.08,-288 2390.58,-158.2 2305.2,-190.64 2158.08,-144 2094.66,-123.89 2020.63,-110.31 1964.48,-101.94"/>
<polygon fill="black" stroke="black" points="1965.04,-98.48 1954.64,-100.5 1964.03,-105.41 1965.04,-98.48"/>
</g>
<!-- xcb&#45;util&#45;image -->
<g id="node29" class="node">
<title>xcb&#45;util&#45;image</title>
<g id="a_node29"><a xlink:href="https://github.com/conda-forge/xcb-util-image-feedstock" xlink:title="xcb util image">
<ellipse fill="#fde725" stroke="black" cx="2383.08" cy="-306" rx="82.25" ry="18"/>
<text text-anchor="middle" x="2383.08" y="-301.32" font-family="Times,serif" font-size="14.00">xcb util image</text>
</a>
</g>
</g>
<!-- xcb&#45;util&#45;&gt;xcb&#45;util&#45;image -->
<g id="edge62" class="edge">
<title>xcb&#45;util&#45;&gt;xcb&#45;util&#45;image</title>
<path fill="none" stroke="black" d="M2383.08,-359.7C2383.08,-352.41 2383.08,-343.73 2383.08,-335.54"/>
<polygon fill="black" stroke="black" points="2386.58,-335.62 2383.08,-325.62 2379.58,-335.62 2386.58,-335.62"/>
</g>
<!-- xcb&#45;util&#45;image&#45;&gt;qt&#45;main -->
<g id="edge63" class="edge">
<title>xcb&#45;util&#45;image&#45;&gt;qt&#45;main</title>
<path fill="none" stroke="black" d="M2324.49,-293.05C2313.74,-291.15 2302.6,-289.36 2292.08,-288 2044.92,-256.04 1748,-241.94 1622.63,-237.1"/>
<polygon fill="black" stroke="black" points="1623.04,-233.61 1612.91,-236.73 1622.77,-240.61 1623.04,-233.61"/>
</g>
<!-- xcb&#45;util&#45;image&#45;&gt;nsight&#45;compute -->
<g id="edge64" class="edge">
<title>xcb&#45;util&#45;image&#45;&gt;nsight&#45;compute</title>
<path fill="none" stroke="black" d="M2367.75,-287.86C2348.71,-267.63 2314.28,-234.43 2278.08,-216 2236.9,-195.04 2187.08,-182.13 2145.46,-174.3"/>
<polygon fill="black" stroke="black" points="2146.19,-170.88 2135.72,-172.54 2144.94,-177.76 2146.19,-170.88"/>
</g>
<!-- xcb&#45;util&#45;cursor -->
<g id="node30" class="node">
<title>xcb&#45;util&#45;cursor</title>
<g id="a_node30"><a xlink:href="https://github.com/conda-forge/xcb-util-cursor-feedstock" xlink:title="xcb util cursor">
<ellipse fill="#fde725" stroke="black" cx="2185.08" cy="-234" rx="83.83" ry="18"/>
<text text-anchor="middle" x="2185.08" y="-229.32" font-family="Times,serif" font-size="14.00">xcb util cursor</text>
</a>
</g>
</g>
<!-- xcb&#45;util&#45;image&#45;&gt;xcb&#45;util&#45;cursor -->
<g id="edge65" class="edge">
<title>xcb&#45;util&#45;image&#45;&gt;xcb&#45;util&#45;cursor</title>
<path fill="none" stroke="black" d="M2341.09,-290.15C2311,-279.52 2270.26,-265.11 2237.96,-253.69"/>
<polygon fill="black" stroke="black" points="2239.37,-250.48 2228.78,-250.45 2237.04,-257.08 2239.37,-250.48"/>
</g>
<!-- xcb&#45;util&#45;cursor&#45;&gt;nsight&#45;compute -->
<g id="edge69" class="edge">
<title>xcb&#45;util&#45;cursor&#45;&gt;nsight&#45;compute</title>
<path fill="none" stroke="black" d="M2156.09,-216.76C2139.17,-207.29 2117.6,-195.21 2099.2,-184.91"/>
<polygon fill="black" stroke="black" points="2101.1,-181.96 2090.67,-180.13 2097.68,-188.07 2101.1,-181.96"/>
</g>
<!-- xcb&#45;util&#45;wm -->
<g id="node31" class="node">
<title>xcb&#45;util&#45;wm</title>
<g id="a_node31"><a xlink:href="https://github.com/conda-forge/xcb-util-wm-feedstock/pull/3" xlink:title="xcb util wm ✓">
<ellipse fill="#31688e" stroke="black" cx="1929.08" cy="-306" rx="77.52" ry="18"/>
<text text-anchor="middle" x="1929.08" y="-301.32" font-family="Times,serif" font-size="14.00" fill="white">xcb util wm ✓</text>
</a>
</g>
</g>
<!-- xcb&#45;util&#45;wm&#45;&gt;qt&#45;main -->
<g id="edge66" class="edge">
<title>xcb&#45;util&#45;wm&#45;&gt;qt&#45;main</title>
<path fill="none" stroke="black" d="M1870.52,-293.83C1800.46,-280.47 1684.11,-258.27 1616.11,-245.31"/>
<polygon fill="black" stroke="black" points="1617.18,-241.95 1606.71,-243.51 1615.87,-248.82 1617.18,-241.95"/>
</g>
<!-- xcb&#45;util&#45;wm&#45;&gt;kwindowsystem -->
<g id="edge67" class="edge">
<title>xcb&#45;util&#45;wm&#45;&gt;kwindowsystem</title>
<path fill="none" stroke="black" d="M1924.91,-287.85C1915.97,-251.07 1894.89,-164.29 1883.94,-119.24"/>
<polygon fill="black" stroke="black" points="1887.39,-118.59 1881.62,-109.7 1880.58,-120.25 1887.39,-118.59"/>
</g>
<!-- xcb&#45;util&#45;wm&#45;&gt;nsight&#45;compute -->
<g id="edge68" class="edge">
<title>xcb&#45;util&#45;wm&#45;&gt;nsight&#45;compute</title>
<path fill="none" stroke="black" d="M1944.62,-288.15C1967.47,-263.39 2010.29,-216.97 2036.87,-188.16"/>
<polygon fill="black" stroke="black" points="2039.32,-190.66 2043.53,-180.94 2034.18,-185.91 2039.32,-190.66"/>
</g>
<!-- xcb&#45;util&#45;renderutil -->
<g id="node32" class="node">
<title>xcb&#45;util&#45;renderutil</title>
<g id="a_node32"><a xlink:href="https://github.com/conda-forge/xcb-util-renderutil-feedstock/pull/6" xlink:title="xcb util renderutil ✓">
<ellipse fill="#31688e" stroke="black" cx="2173.08" cy="-306" rx="110.13" ry="18"/>
<text text-anchor="middle" x="2173.08" y="-301.32" font-family="Times,serif" font-size="14.00" fill="white">xcb util renderutil ✓</text>
</a>
</g>
</g>
<!-- xcb&#45;util&#45;renderutil&#45;&gt;qt&#45;main -->
<g id="edge70" class="edge">
<title>xcb&#45;util&#45;renderutil&#45;&gt;qt&#45;main</title>
<path fill="none" stroke="black" d="M2084.89,-294.9C1958.14,-280.38 1727.93,-254 1620.37,-241.68"/>
<polygon fill="black" stroke="black" points="1620.95,-238.22 1610.62,-240.56 1620.16,-245.18 1620.95,-238.22"/>
</g>
<!-- xcb&#45;util&#45;renderutil&#45;&gt;nsight&#45;compute -->
<g id="edge71" class="edge">
<title>xcb&#45;util&#45;renderutil&#45;&gt;nsight&#45;compute</title>
<path fill="none" stroke="black" d="M2137.74,-288.51C2121.92,-279.62 2104.16,-267.3 2092.08,-252 2078.16,-234.37 2069.98,-210.16 2065.38,-191.44"/>
<polygon fill="black" stroke="black" points="2068.82,-190.81 2063.23,-181.81 2061.99,-192.33 2068.82,-190.81"/>
</g>
<!-- xcb&#45;util&#45;renderutil&#45;&gt;xcb&#45;util&#45;cursor -->
<g id="edge72" class="edge">
<title>xcb&#45;util&#45;renderutil&#45;&gt;xcb&#45;util&#45;cursor</title>
<path fill="none" stroke="black" d="M2176.05,-287.7C2177.31,-280.32 2178.82,-271.52 2180.24,-263.25"/>
<polygon fill="black" stroke="black" points="2183.65,-264.04 2181.89,-253.6 2176.75,-262.86 2183.65,-264.04"/>
</g>
</g>
</svg>
