<?xml version="1.0" encoding="UTF-8" standalone="no"?>
<!DOCTYPE svg PUBLIC "-//W3C//DTD SVG 1.1//EN"
 "http://www.w3.org/Graphics/SVG/1.1/DTD/svg11.dtd">
<!-- Generated by graphviz version 11.0.0 (20240519.1550)
 -->
<!-- Pages: 1 -->
<svg width="1427pt" height="332pt"
 viewBox="0.00 0.00 1427.03 332.00" xmlns="http://www.w3.org/2000/svg" xmlns:xlink="http://www.w3.org/1999/xlink">
<g id="graph0" class="graph" transform="scale(1 1) rotate(0) translate(4 328)">
<polygon fill="white" stroke="none" points="-4,4 -4,-328 1423.03,-328 1423.03,4 -4,4"/>
<!-- cairo -->
<g id="node1" class="node">
<title>cairo</title>
<g id="a_node1"><a xlink:href="https://github.com/conda-forge/cairo-feedstock/pull/75" xlink:title="cairo ✓">
<ellipse fill="#31688e" stroke="black" cx="677.94" cy="-306" rx="43.84" ry="18"/>
<text text-anchor="middle" x="677.94" y="-301.32" font-family="Times,serif" font-size="14.00" fill="white">cairo ✓</text>
</a>
</g>
</g>
<!-- ffmpeg -->
<g id="node2" class="node">
<title>ffmpeg</title>
<g id="a_node2"><a xlink:href="https://github.com/conda-forge/ffmpeg-feedstock" xlink:title="ffmpeg">
<ellipse fill="#fde725" stroke="black" cx="890.94" cy="-234" rx="45.95" ry="18"/>
<text text-anchor="middle" x="890.94" y="-229.32" font-family="Times,serif" font-size="14.00">ffmpeg</text>
</a>
</g>
</g>
<!-- cairo&#45;&gt;ffmpeg -->
<g id="edge1" class="edge">
<title>cairo&#45;&gt;ffmpeg</title>
<path fill="none" stroke="black" d="M711.23,-294.06C747.37,-282.18 805.34,-263.13 845.62,-249.89"/>
<polygon fill="black" stroke="black" points="846.64,-253.24 855.05,-246.8 844.45,-246.59 846.64,-253.24"/>
</g>
<!-- gnuplot -->
<g id="node3" class="node">
<title>gnuplot</title>
<g id="a_node3"><a xlink:href="https://github.com/conda-forge/gnuplot-feedstock" xlink:title="gnuplot">
<ellipse fill="#fde725" stroke="black" cx="753.94" cy="-162" rx="49.63" ry="18"/>
<text text-anchor="middle" x="753.94" y="-157.32" font-family="Times,serif" font-size="14.00">gnuplot</text>
</a>
</g>
</g>
<!-- cairo&#45;&gt;gnuplot -->
<g id="edge2" class="edge">
<title>cairo&#45;&gt;gnuplot</title>
<path fill="none" stroke="black" d="M684.03,-287.74C690.78,-269.42 702.51,-239.86 715.94,-216 721.19,-206.68 727.74,-197.02 733.91,-188.55"/>
<polygon fill="black" stroke="black" points="736.54,-190.87 739.73,-180.77 730.94,-186.68 736.54,-190.87"/>
</g>
<!-- lyx -->
<g id="node4" class="node">
<title>lyx</title>
<g id="a_node4"><a xlink:href="https://github.com/conda-forge/lyx-feedstock" xlink:title="lyx">
<ellipse fill="#fde725" stroke="black" cx="658.94" cy="-162" rx="27" ry="18"/>
<text text-anchor="middle" x="658.94" y="-157.32" font-family="Times,serif" font-size="14.00">lyx</text>
</a>
</g>
</g>
<!-- cairo&#45;&gt;lyx -->
<g id="edge3" class="edge">
<title>cairo&#45;&gt;lyx</title>
<path fill="none" stroke="black" d="M675.61,-287.59C672.41,-263.61 666.59,-220.14 662.75,-191.42"/>
<polygon fill="black" stroke="black" points="666.23,-191.06 661.43,-181.61 659.29,-191.99 666.23,-191.06"/>
</g>
<!-- qt&#45;main -->
<g id="node5" class="node">
<title>qt&#45;main</title>
<g id="a_node5"><a xlink:href="https://github.com/conda-forge/qt-main-feedstock" xlink:title="qt main">
<ellipse fill="#fde725" stroke="black" cx="572.94" cy="-234" rx="49.63" ry="18"/>
<text text-anchor="middle" x="572.94" y="-229.32" font-family="Times,serif" font-size="14.00">qt main</text>
</a>
</g>
</g>
<!-- cairo&#45;&gt;qt&#45;main -->
<g id="edge4" class="edge">
<title>cairo&#45;&gt;qt&#45;main</title>
<path fill="none" stroke="black" d="M655.68,-290.15C640.98,-280.36 621.49,-267.37 605.12,-256.45"/>
<polygon fill="black" stroke="black" points="607.43,-253.78 597.16,-251.15 603.54,-259.61 607.43,-253.78"/>
</g>
<!-- qt&#45;webengine -->
<g id="node6" class="node">
<title>qt&#45;webengine</title>
<g id="a_node6"><a xlink:href="https://github.com/conda-forge/qt-webengine-feedstock" xlink:title="qt webengine">
<ellipse fill="#fde725" stroke="black" cx="139.94" cy="-162" rx="79.09" ry="18"/>
<text text-anchor="middle" x="139.94" y="-157.32" font-family="Times,serif" font-size="14.00">qt webengine</text>
</a>
</g>
</g>
<!-- cairo&#45;&gt;qt&#45;webengine -->
<g id="edge5" class="edge">
<title>cairo&#45;&gt;qt&#45;webengine</title>
<path fill="none" stroke="black" d="M641.81,-295.46C551.29,-271.57 314.02,-208.95 201.22,-179.17"/>
<polygon fill="black" stroke="black" points="202.4,-175.86 191.83,-176.7 200.61,-182.63 202.4,-175.86"/>
</g>
<!-- silicon -->
<g id="node7" class="node">
<title>silicon</title>
<g id="a_node7"><a xlink:href="https://github.com/conda-forge/silicon-feedstock" xlink:title="silicon">
<ellipse fill="#fde725" stroke="black" cx="997.94" cy="-234" rx="43.32" ry="18"/>
<text text-anchor="middle" x="997.94" y="-229.32" font-family="Times,serif" font-size="14.00">silicon</text>
</a>
</g>
</g>
<!-- cairo&#45;&gt;silicon -->
<g id="edge6" class="edge">
<title>cairo&#45;&gt;silicon</title>
<path fill="none" stroke="black" d="M718.24,-298.59C770.98,-289.85 866.1,-272.87 945.94,-252 948.72,-251.28 951.56,-250.48 954.42,-249.65"/>
<polygon fill="black" stroke="black" points="955.4,-253.01 963.94,-246.75 953.36,-246.32 955.4,-253.01"/>
</g>
<!-- vtk -->
<g id="node8" class="node">
<title>vtk</title>
<g id="a_node8"><a xlink:href="https://github.com/conda-forge/vtk-feedstock" xlink:title="vtk">
<ellipse fill="#fde725" stroke="black" cx="958.94" cy="-162" rx="27.01" ry="18"/>
<text text-anchor="middle" x="958.94" y="-157.32" font-family="Times,serif" font-size="14.00">vtk</text>
</a>
</g>
</g>
<!-- ffmpeg&#45;&gt;vtk -->
<g id="edge7" class="edge">
<title>ffmpeg&#45;&gt;vtk</title>
<path fill="none" stroke="black" d="M906.72,-216.76C915.67,-207.55 927.01,-195.87 936.84,-185.76"/>
<polygon fill="black" stroke="black" points="939.14,-188.41 943.59,-178.8 934.11,-183.54 939.14,-188.41"/>
</g>
<!-- gazebo -->
<g id="node9" class="node">
<title>gazebo</title>
<g id="a_node9"><a xlink:href="https://github.com/conda-forge/gazebo-feedstock" xlink:title="gazebo">
<ellipse fill="#fde725" stroke="black" cx="867.94" cy="-162" rx="46.47" ry="18"/>
<text text-anchor="middle" x="867.94" y="-157.32" font-family="Times,serif" font-size="14.00">gazebo</text>
</a>
</g>
</g>
<!-- ffmpeg&#45;&gt;gazebo -->
<g id="edge8" class="edge">
<title>ffmpeg&#45;&gt;gazebo</title>
<path fill="none" stroke="black" d="M885.26,-215.7C882.81,-208.24 879.88,-199.32 877.13,-190.97"/>
<polygon fill="black" stroke="black" points="880.48,-189.95 874.04,-181.54 873.83,-192.14 880.48,-189.95"/>
</g>
<!-- qt&#45;main&#45;&gt;gnuplot -->
<g id="edge9" class="edge">
<title>qt&#45;main&#45;&gt;gnuplot</title>
<path fill="none" stroke="black" d="M606.14,-220.16C635.48,-208.81 678.48,-192.19 710.54,-179.79"/>
<polygon fill="black" stroke="black" points="711.48,-183.18 719.54,-176.3 708.96,-176.65 711.48,-183.18"/>
</g>
<!-- qt&#45;main&#45;&gt;lyx -->
<g id="edge10" class="edge">
<title>qt&#45;main&#45;&gt;lyx</title>
<path fill="none" stroke="black" d="M592.46,-217.12C604.7,-207.15 620.6,-194.21 633.79,-183.48"/>
<polygon fill="black" stroke="black" points="635.68,-186.45 641.23,-177.42 631.26,-181.02 635.68,-186.45"/>
</g>
<!-- qt&#45;main&#45;&gt;qt&#45;webengine -->
<g id="edge11" class="edge">
<title>qt&#45;main&#45;&gt;qt&#45;webengine</title>
<path fill="none" stroke="black" d="M528.24,-225.77C454.05,-213.78 304.77,-189.65 214.46,-175.05"/>
<polygon fill="black" stroke="black" points="215.13,-171.61 204.7,-173.47 214.01,-178.52 215.13,-171.61"/>
</g>
<!-- qt&#45;main&#45;&gt;gazebo -->
<g id="edge12" class="edge">
<title>qt&#45;main&#45;&gt;gazebo</title>
<path fill="none" stroke="black" d="M615.69,-224.67C663.88,-215.02 744.47,-198.11 812.94,-180 816.02,-179.19 819.19,-178.31 822.37,-177.4"/>
<polygon fill="black" stroke="black" points="823.1,-180.84 831.7,-174.65 821.12,-174.12 823.1,-180.84"/>
</g>
<!-- kwindowsystem -->
<g id="node10" class="node">
<title>kwindowsystem</title>
<g id="a_node10"><a xlink:href="https://github.com/conda-forge/kwindowsystem-feedstock" xlink:title="kwindowsystem">
<ellipse fill="#fde725" stroke="black" cx="108.94" cy="-90" rx="91.19" ry="18"/>
<text text-anchor="middle" x="108.94" y="-85.33" font-family="Times,serif" font-size="14.00">kwindowsystem</text>
</a>
</g>
</g>
<!-- qt&#45;main&#45;&gt;kwindowsystem -->
<g id="edge13" class="edge">
<title>qt&#45;main&#45;&gt;kwindowsystem</title>
<path fill="none" stroke="black" d="M535.76,-221.62C455.31,-197 264.58,-138.63 167.66,-108.97"/>
<polygon fill="black" stroke="black" points="168.91,-105.69 158.33,-106.11 166.87,-112.39 168.91,-105.69"/>
</g>
<!-- kglobalaccel -->
<g id="node11" class="node">
<title>kglobalaccel</title>
<g id="a_node11"><a xlink:href="https://github.com/conda-forge/kglobalaccel-feedstock" xlink:title="kglobalaccel">
<ellipse fill="#fde725" stroke="black" cx="108.94" cy="-18" rx="72.78" ry="18"/>
<text text-anchor="middle" x="108.94" y="-13.32" font-family="Times,serif" font-size="14.00">kglobalaccel</text>
</a>
</g>
</g>
<!-- qt&#45;main&#45;&gt;kglobalaccel -->
<g id="edge14" class="edge">
<title>qt&#45;main&#45;&gt;kglobalaccel</title>
<path fill="none" stroke="black" d="M576.11,-215.69C581.09,-182.52 586.45,-109.96 546.94,-72 521.77,-47.8 310.19,-31.18 190.56,-23.63"/>
<polygon fill="black" stroke="black" points="190.99,-20.15 180.79,-23.02 190.55,-27.13 190.99,-20.15"/>
</g>
<!-- colmap -->
<g id="node12" class="node">
<title>colmap</title>
<g id="a_node12"><a xlink:href="https://github.com/conda-forge/colmap-feedstock" xlink:title="colmap">
<ellipse fill="#fde725" stroke="black" cx="490.94" cy="-162" rx="47" ry="18"/>
<text text-anchor="middle" x="490.94" y="-157.32" font-family="Times,serif" font-size="14.00">colmap</text>
</a>
</g>
</g>
<!-- qt&#45;main&#45;&gt;colmap -->
<g id="edge15" class="edge">
<title>qt&#45;main&#45;&gt;colmap</title>
<path fill="none" stroke="black" d="M554.34,-217.12C543.64,-207.99 530.02,-196.36 518.14,-186.22"/>
<polygon fill="black" stroke="black" points="520.51,-183.63 510.63,-179.8 515.96,-188.96 520.51,-183.63"/>
</g>
<!-- qt6&#45;advanced&#45;docking&#45;system -->
<g id="node13" class="node">
<title>qt6&#45;advanced&#45;docking&#45;system</title>
<g id="a_node13"><a xlink:href="https://github.com/conda-forge/qt6-advanced-docking-system-feedstock" xlink:title="qt6 advanced docking system">
<ellipse fill="#fde725" stroke="black" cx="377.94" cy="-90" rx="159.59" ry="18"/>
<text text-anchor="middle" x="377.94" y="-85.33" font-family="Times,serif" font-size="14.00">qt6 advanced docking system</text>
</a>
</g>
</g>
<!-- qt&#45;main&#45;&gt;qt6&#45;advanced&#45;docking&#45;system -->
<g id="edge16" class="edge">
<title>qt&#45;main&#45;&gt;qt6&#45;advanced&#45;docking&#45;system</title>
<path fill="none" stroke="black" d="M530.77,-224.2C501.45,-216.42 462.79,-202.7 434.94,-180 414.88,-163.64 399.62,-138.28 389.96,-118.81"/>
<polygon fill="black" stroke="black" points="393.13,-117.33 385.7,-109.78 386.8,-120.32 393.13,-117.33"/>
</g>
<!-- adwaita&#45;qt -->
<g id="node14" class="node">
<title>adwaita&#45;qt</title>
<g id="a_node14"><a xlink:href="https://github.com/conda-forge/adwaita-qt-feedstock" xlink:title="adwaita qt">
<ellipse fill="#fde725" stroke="black" cx="603.94" cy="-18" rx="64.36" ry="18"/>
<text text-anchor="middle" x="603.94" y="-13.32" font-family="Times,serif" font-size="14.00">adwaita qt</text>
</a>
</g>
</g>
<!-- qt&#45;main&#45;&gt;adwaita&#45;qt -->
<g id="edge17" class="edge">
<title>qt&#45;main&#45;&gt;adwaita&#45;qt</title>
<path fill="none" stroke="black" d="M575.43,-215.85C580.75,-179.14 593.27,-92.66 599.81,-47.53"/>
<polygon fill="black" stroke="black" points="603.26,-48.13 601.23,-37.73 596.33,-47.13 603.26,-48.13"/>
</g>
<!-- qt&#45;webengine&#45;&gt;kwindowsystem -->
<g id="edge18" class="edge">
<title>qt&#45;webengine&#45;&gt;kwindowsystem</title>
<path fill="none" stroke="black" d="M132.28,-143.7C128.9,-136.07 124.85,-126.92 121.08,-118.4"/>
<polygon fill="black" stroke="black" points="124.38,-117.21 117.13,-109.49 117.98,-120.05 124.38,-117.21"/>
</g>
<!-- qt&#45;webengine&#45;&gt;kglobalaccel -->
<g id="edge19" class="edge">
<title>qt&#45;webengine&#45;&gt;kglobalaccel</title>
<path fill="none" stroke="black" d="M76.12,-150.98C50.82,-143.54 24.17,-130.58 8.94,-108 0,-94.73 0.69,-85.71 8.94,-72 18.55,-56.04 34.76,-44.63 51.36,-36.59"/>
<polygon fill="black" stroke="black" points="52.59,-39.87 60.31,-32.62 49.75,-33.47 52.59,-39.87"/>
</g>
<!-- kwindowsystem&#45;&gt;kglobalaccel -->
<g id="edge22" class="edge">
<title>kwindowsystem&#45;&gt;kglobalaccel</title>
<path fill="none" stroke="black" d="M108.94,-71.7C108.94,-64.41 108.94,-55.73 108.94,-47.54"/>
<polygon fill="black" stroke="black" points="112.44,-47.62 108.94,-37.62 105.44,-47.62 112.44,-47.62"/>
</g>
<!-- freeglut -->
<g id="node15" class="node">
<title>freeglut</title>
<g id="a_node15"><a xlink:href="https://github.com/conda-forge/freeglut-feedstock" xlink:title="freeglut">
<ellipse fill="#35b779" stroke="black" cx="775.94" cy="-234" rx="51.21" ry="18"/>
<text text-anchor="middle" x="775.94" y="-229.32" font-family="Times,serif" font-size="14.00">freeglut</text>
</a>
</g>
</g>
<!-- freeglut&#45;&gt;gazebo -->
<g id="edge20" class="edge">
<title>freeglut&#45;&gt;gazebo</title>
<path fill="none" stroke="black" d="M796.82,-217.12C809.14,-207.74 824.93,-195.73 838.5,-185.41"/>
<polygon fill="black" stroke="black" points="840.42,-188.34 846.26,-179.5 836.19,-182.77 840.42,-188.34"/>
</g>
<!-- fltk -->
<g id="node16" class="node">
<title>fltk</title>
<g id="a_node16"><a xlink:href="https://github.com/conda-forge/fltk-feedstock" xlink:title="fltk">
<ellipse fill="#35b779" stroke="black" cx="1140.94" cy="-270" rx="27.53" ry="18"/>
<text text-anchor="middle" x="1140.94" y="-265.32" font-family="Times,serif" font-size="14.00">fltk</text>
</a>
</g>
</g>
<!-- gst&#45;plugins&#45;ugly -->
<g id="node17" class="node">
<title>gst&#45;plugins&#45;ugly</title>
<g id="a_node17"><a xlink:href="https://github.com/conda-forge/gst-plugins-ugly-feedstock" xlink:title="gst plugins ugly">
<ellipse fill="#35b779" stroke="black" cx="1140.94" cy="-198" rx="91.72" ry="18"/>
<text text-anchor="middle" x="1140.94" y="-193.32" font-family="Times,serif" font-size="14.00">gst plugins ugly</text>
</a>
</g>
</g>
<!-- fltk&#45;&gt;gst&#45;plugins&#45;ugly -->
<!-- gst&#45;plugins&#45;bad -->
<g id="node18" class="node">
<title>gst&#45;plugins&#45;bad</title>
<g id="a_node18"><a xlink:href="https://github.com/conda-forge/gst-plugins-bad-feedstock" xlink:title="gst plugins bad">
<ellipse fill="#35b779" stroke="black" cx="1140.94" cy="-126" rx="88.56" ry="18"/>
<text text-anchor="middle" x="1140.94" y="-121.33" font-family="Times,serif" font-size="14.00">gst plugins bad</text>
</a>
</g>
</g>
<!-- gst&#45;plugins&#45;ugly&#45;&gt;gst&#45;plugins&#45;bad -->
<!-- vulkan&#45;tools -->
<g id="node19" class="node">
<title>vulkan&#45;tools</title>
<g id="a_node19"><a xlink:href="https://github.com/conda-forge/vulkan-tools-feedstock" xlink:title="vulkan tools">
<ellipse fill="#35b779" stroke="black" cx="1140.94" cy="-54" rx="71.73" ry="18"/>
<text text-anchor="middle" x="1140.94" y="-49.33" font-family="Times,serif" font-size="14.00">vulkan tools</text>
</a>
</g>
</g>
<!-- gst&#45;plugins&#45;bad&#45;&gt;vulkan&#45;tools -->
<!-- xcb&#45;util&#45;cursor -->
<g id="node20" class="node">
<title>xcb&#45;util&#45;cursor</title>
<g id="a_node20"><a xlink:href="https://github.com/conda-forge/xcb-util-cursor-feedstock" xlink:title="xcb util cursor">
<ellipse fill="#35b779" stroke="black" cx="1329.94" cy="-198" rx="83.83" ry="18"/>
<text text-anchor="middle" x="1329.94" y="-193.32" font-family="Times,serif" font-size="14.00">xcb util cursor</text>
</a>
</g>
</g>
<!-- nsight&#45;compute -->
<g id="node21" class="node">
<title>nsight&#45;compute</title>
<g id="a_node21"><a xlink:href="https://github.com/conda-forge/nsight-compute-feedstock" xlink:title="nsight compute">
<ellipse fill="#fde725" stroke="black" cx="1329.94" cy="-126" rx="89.09" ry="18"/>
<text text-anchor="middle" x="1329.94" y="-121.33" font-family="Times,serif" font-size="14.00">nsight compute</text>
</a>
</g>
</g>
<!-- xcb&#45;util&#45;cursor&#45;&gt;nsight&#45;compute -->
<g id="edge25" class="edge">
<title>xcb&#45;util&#45;cursor&#45;&gt;nsight&#45;compute</title>
<path fill="none" stroke="black" d="M1329.94,-179.7C1329.94,-172.41 1329.94,-163.73 1329.94,-155.54"/>
<polygon fill="black" stroke="black" points="1333.44,-155.62 1329.94,-145.62 1326.44,-155.62 1333.44,-155.62"/>
</g>
</g>
</svg>
