<?xml version="1.0" encoding="UTF-8" standalone="no"?>
<!DOCTYPE svg PUBLIC "-//W3C//DTD SVG 1.1//EN"
 "http://www.w3.org/Graphics/SVG/1.1/DTD/svg11.dtd">
<!-- Generated by graphviz version 11.0.0 (20240519.1550)
 -->
<!-- Pages: 1 -->
<svg width="2719pt" height="404pt"
 viewBox="0.00 0.00 2719.49 404.00" xmlns="http://www.w3.org/2000/svg" xmlns:xlink="http://www.w3.org/1999/xlink">
<g id="graph0" class="graph" transform="scale(1 1) rotate(0) translate(4 400)">
<polygon fill="white" stroke="none" points="-4,4 -4,-400 2715.49,-400 2715.49,4 -4,4"/>
<!-- cairo -->
<g id="node1" class="node">
<title>cairo</title>
<g id="a_node1"><a xlink:href="https://github.com/conda-forge/cairo-feedstock" xlink:title="cairo">
<ellipse fill="#fde725" stroke="black" cx="1715.28" cy="-306" rx="35.95" ry="18"/>
<text text-anchor="middle" x="1715.28" y="-301.32" font-family="Times,serif" font-size="14.00">cairo</text>
</a>
</g>
</g>
<!-- ffmpeg -->
<g id="node2" class="node">
<title>ffmpeg</title>
<g id="a_node2"><a xlink:href="https://github.com/conda-forge/ffmpeg-feedstock" xlink:title="ffmpeg">
<ellipse fill="#fde725" stroke="black" cx="1903.28" cy="-162" rx="45.95" ry="18"/>
<text text-anchor="middle" x="1903.28" y="-157.32" font-family="Times,serif" font-size="14.00">ffmpeg</text>
</a>
</g>
</g>
<!-- cairo&#45;&gt;ffmpeg -->
<g id="edge1" class="edge">
<title>cairo&#45;&gt;ffmpeg</title>
<path fill="none" stroke="black" d="M1734.34,-290.6C1767.27,-265.73 1835,-214.57 1873.96,-185.14"/>
<polygon fill="black" stroke="black" points="1875.67,-188.24 1881.54,-179.42 1871.45,-182.66 1875.67,-188.24"/>
</g>
<!-- gnuplot -->
<g id="node3" class="node">
<title>gnuplot</title>
<g id="a_node3"><a xlink:href="https://github.com/conda-forge/gnuplot-feedstock" xlink:title="gnuplot">
<ellipse fill="#fde725" stroke="black" cx="1751.28" cy="-162" rx="49.63" ry="18"/>
<text text-anchor="middle" x="1751.28" y="-157.32" font-family="Times,serif" font-size="14.00">gnuplot</text>
</a>
</g>
</g>
<!-- cairo&#45;&gt;gnuplot -->
<g id="edge2" class="edge">
<title>cairo&#45;&gt;gnuplot</title>
<path fill="none" stroke="black" d="M1719.89,-287.83C1722.65,-277.47 1726.21,-263.99 1729.28,-252 1734.44,-231.83 1740.07,-209.03 1744.34,-191.56"/>
<polygon fill="black" stroke="black" points="1747.73,-192.43 1746.7,-181.89 1740.93,-190.77 1747.73,-192.43"/>
</g>
<!-- lyx -->
<g id="node4" class="node">
<title>lyx</title>
<g id="a_node4"><a xlink:href="https://github.com/conda-forge/lyx-feedstock" xlink:title="lyx">
<ellipse fill="#fde725" stroke="black" cx="1573.28" cy="-162" rx="27" ry="18"/>
<text text-anchor="middle" x="1573.28" y="-157.32" font-family="Times,serif" font-size="14.00">lyx</text>
</a>
</g>
</g>
<!-- cairo&#45;&gt;lyx -->
<g id="edge3" class="edge">
<title>cairo&#45;&gt;lyx</title>
<path fill="none" stroke="black" d="M1716.06,-287.6C1716,-268.06 1713.02,-236.4 1696.28,-216 1674.89,-189.93 1638.26,-176.39 1610.53,-169.55"/>
<polygon fill="black" stroke="black" points="1611.63,-166.21 1601.11,-167.42 1610.09,-173.04 1611.63,-166.21"/>
</g>
<!-- qt&#45;main -->
<g id="node5" class="node">
<title>qt&#45;main</title>
<g id="a_node5"><a xlink:href="https://github.com/conda-forge/qt-main-feedstock" xlink:title="qt main">
<ellipse fill="#fde725" stroke="black" cx="1023.28" cy="-234" rx="49.63" ry="18"/>
<text text-anchor="middle" x="1023.28" y="-229.32" font-family="Times,serif" font-size="14.00">qt main</text>
</a>
</g>
</g>
<!-- cairo&#45;&gt;qt&#45;main -->
<g id="edge4" class="edge">
<title>cairo&#45;&gt;qt&#45;main</title>
<path fill="none" stroke="black" d="M1679.19,-304.52C1581.85,-302.69 1306.05,-293.89 1081.28,-252 1077.67,-251.33 1073.96,-250.52 1070.25,-249.63"/>
<polygon fill="black" stroke="black" points="1071.23,-246.27 1060.67,-247.13 1069.46,-253.04 1071.23,-246.27"/>
</g>
<!-- qt&#45;webengine -->
<g id="node6" class="node">
<title>qt&#45;webengine</title>
<g id="a_node6"><a xlink:href="https://github.com/conda-forge/qt-webengine-feedstock" xlink:title="qt webengine">
<ellipse fill="#fde725" stroke="black" cx="900.28" cy="-162" rx="79.09" ry="18"/>
<text text-anchor="middle" x="900.28" y="-157.32" font-family="Times,serif" font-size="14.00">qt webengine</text>
</a>
</g>
</g>
<!-- cairo&#45;&gt;qt&#45;webengine -->
<g id="edge5" class="edge">
<title>cairo&#45;&gt;qt&#45;webengine</title>
<path fill="none" stroke="black" d="M1688.45,-293.84C1635.72,-272.08 1520.1,-225.32 1478.28,-216 1281.58,-172.15 1226.66,-201.48 1026.28,-180 1010.23,-178.28 993.07,-176.15 976.74,-174"/>
<polygon fill="black" stroke="black" points="977.47,-170.56 967.09,-172.7 976.54,-177.5 977.47,-170.56"/>
</g>
<!-- silicon -->
<g id="node7" class="node">
<title>silicon</title>
<g id="a_node7"><a xlink:href="https://github.com/conda-forge/silicon-feedstock" xlink:title="silicon">
<ellipse fill="#fde725" stroke="black" cx="1644.28" cy="-234" rx="43.32" ry="18"/>
<text text-anchor="middle" x="1644.28" y="-229.32" font-family="Times,serif" font-size="14.00">silicon</text>
</a>
</g>
</g>
<!-- cairo&#45;&gt;silicon -->
<g id="edge6" class="edge">
<title>cairo&#45;&gt;silicon</title>
<path fill="none" stroke="black" d="M1699.52,-289.46C1690.46,-280.53 1678.87,-269.11 1668.66,-259.04"/>
<polygon fill="black" stroke="black" points="1671.14,-256.57 1661.56,-252.04 1666.23,-261.55 1671.14,-256.57"/>
</g>
<!-- vtk -->
<g id="node8" class="node">
<title>vtk</title>
<g id="a_node8"><a xlink:href="https://github.com/conda-forge/vtk-feedstock" xlink:title="vtk">
<ellipse fill="#fde725" stroke="black" cx="2191.28" cy="-90" rx="27.01" ry="18"/>
<text text-anchor="middle" x="2191.28" y="-85.33" font-family="Times,serif" font-size="14.00">vtk</text>
</a>
</g>
</g>
<!-- ffmpeg&#45;&gt;vtk -->
<g id="edge7" class="edge">
<title>ffmpeg&#45;&gt;vtk</title>
<path fill="none" stroke="black" d="M1938.08,-149.81C1944.76,-147.78 1951.71,-145.76 1958.28,-144 2027.03,-125.58 2108.28,-108.05 2154.4,-98.48"/>
<polygon fill="black" stroke="black" points="2155.04,-101.92 2164.13,-96.48 2153.63,-95.07 2155.04,-101.92"/>
</g>
<!-- gazebo -->
<g id="node9" class="node">
<title>gazebo</title>
<g id="a_node9"><a xlink:href="https://github.com/conda-forge/gazebo-feedstock" xlink:title="gazebo">
<ellipse fill="#fde725" stroke="black" cx="1903.28" cy="-90" rx="46.47" ry="18"/>
<text text-anchor="middle" x="1903.28" y="-85.33" font-family="Times,serif" font-size="14.00">gazebo</text>
</a>
</g>
</g>
<!-- ffmpeg&#45;&gt;gazebo -->
<g id="edge8" class="edge">
<title>ffmpeg&#45;&gt;gazebo</title>
<path fill="none" stroke="black" d="M1903.28,-143.7C1903.28,-136.41 1903.28,-127.73 1903.28,-119.54"/>
<polygon fill="black" stroke="black" points="1906.78,-119.62 1903.28,-109.62 1899.78,-119.62 1906.78,-119.62"/>
</g>
<!-- qt&#45;main&#45;&gt;gnuplot -->
<g id="edge9" class="edge">
<title>qt&#45;main&#45;&gt;gnuplot</title>
<path fill="none" stroke="black" d="M1059.19,-221.16C1066.44,-219.15 1074.05,-217.29 1081.28,-216 1312.83,-174.68 1375.1,-201.99 1609.28,-180 1637.27,-177.37 1668.29,-173.74 1694.17,-170.51"/>
<polygon fill="black" stroke="black" points="1694.31,-174.02 1703.8,-169.3 1693.44,-167.08 1694.31,-174.02"/>
</g>
<!-- qt&#45;main&#45;&gt;lyx -->
<g id="edge10" class="edge">
<title>qt&#45;main&#45;&gt;lyx</title>
<path fill="none" stroke="black" d="M1059.21,-221.3C1066.46,-219.27 1074.06,-217.38 1081.28,-216 1253.14,-183.24 1299.8,-202.68 1473.28,-180 1494.25,-177.26 1517.55,-173.35 1536.38,-169.97"/>
<polygon fill="black" stroke="black" points="1536.76,-173.46 1545.97,-168.22 1535.51,-166.57 1536.76,-173.46"/>
</g>
<!-- qt&#45;main&#45;&gt;qt&#45;webengine -->
<g id="edge11" class="edge">
<title>qt&#45;main&#45;&gt;qt&#45;webengine</title>
<path fill="none" stroke="black" d="M997.49,-218.33C980.42,-208.61 957.72,-195.69 938.55,-184.78"/>
<polygon fill="black" stroke="black" points="940.34,-181.77 929.92,-179.87 936.88,-187.86 940.34,-181.77"/>
</g>
<!-- qt&#45;main&#45;&gt;gazebo -->
<g id="edge12" class="edge">
<title>qt&#45;main&#45;&gt;gazebo</title>
<path fill="none" stroke="black" d="M1059.54,-221.26C1066.68,-219.27 1074.17,-217.39 1081.28,-216 1236.48,-185.63 1280.96,-214.56 1435.28,-180 1482.19,-169.49 1490.6,-155.5 1537.28,-144 1645.13,-117.43 1774.35,-102.57 1846.81,-95.72"/>
<polygon fill="black" stroke="black" points="1846.8,-99.24 1856.43,-94.83 1846.15,-92.27 1846.8,-99.24"/>
</g>
<!-- colmap -->
<g id="node10" class="node">
<title>colmap</title>
<g id="a_node10"><a xlink:href="https://github.com/conda-forge/colmap-feedstock" xlink:title="colmap">
<ellipse fill="#fde725" stroke="black" cx="2172.28" cy="-162" rx="47" ry="18"/>
<text text-anchor="middle" x="2172.28" y="-157.32" font-family="Times,serif" font-size="14.00">colmap</text>
</a>
</g>
</g>
<!-- qt&#45;main&#45;&gt;colmap -->
<g id="edge13" class="edge">
<title>qt&#45;main&#45;&gt;colmap</title>
<path fill="none" stroke="black" d="M1058.85,-221.06C1066.19,-219.03 1073.92,-217.19 1081.28,-216 1518.97,-145.09 1637.44,-227.58 2078.28,-180 2092.06,-178.51 2106.87,-176.18 2120.56,-173.72"/>
<polygon fill="black" stroke="black" points="2121.07,-177.19 2130.26,-171.92 2119.79,-170.31 2121.07,-177.19"/>
</g>
<!-- kwindowsystem -->
<g id="node11" class="node">
<title>kwindowsystem</title>
<g id="a_node11"><a xlink:href="https://github.com/conda-forge/kwindowsystem-feedstock" xlink:title="kwindowsystem">
<ellipse fill="#fde725" stroke="black" cx="787.28" cy="-90" rx="91.19" ry="18"/>
<text text-anchor="middle" x="787.28" y="-85.33" font-family="Times,serif" font-size="14.00">kwindowsystem</text>
</a>
</g>
</g>
<!-- qt&#45;main&#45;&gt;kwindowsystem -->
<g id="edge14" class="edge">
<title>qt&#45;main&#45;&gt;kwindowsystem</title>
<path fill="none" stroke="black" d="M1021.16,-215.61C1017.78,-195.46 1009.24,-162.65 988.28,-144 959.87,-118.73 920.8,-105.28 884.66,-98.21"/>
<polygon fill="black" stroke="black" points="885.51,-94.8 875.04,-96.48 884.27,-101.69 885.51,-94.8"/>
</g>
<!-- kglobalaccel -->
<g id="node12" class="node">
<title>kglobalaccel</title>
<g id="a_node12"><a xlink:href="https://github.com/conda-forge/kglobalaccel-feedstock" xlink:title="kglobalaccel">
<ellipse fill="#fde725" stroke="black" cx="906.28" cy="-18" rx="72.78" ry="18"/>
<text text-anchor="middle" x="906.28" y="-13.32" font-family="Times,serif" font-size="14.00">kglobalaccel</text>
</a>
</g>
</g>
<!-- qt&#45;main&#45;&gt;kglobalaccel -->
<g id="edge15" class="edge">
<title>qt&#45;main&#45;&gt;kglobalaccel</title>
<path fill="none" stroke="black" d="M1059.56,-221.37C1066.7,-219.36 1074.19,-217.45 1081.28,-216 1147.06,-202.51 1330.06,-223.42 1381.28,-180 1418.58,-148.38 1434.97,-108.37 1402.28,-72 1375.24,-41.92 1123.56,-27.52 989.47,-21.93"/>
<polygon fill="black" stroke="black" points="989.71,-18.44 979.57,-21.53 989.42,-25.43 989.71,-18.44"/>
</g>
<!-- qt6&#45;advanced&#45;docking&#45;system -->
<g id="node13" class="node">
<title>qt6&#45;advanced&#45;docking&#45;system</title>
<g id="a_node13"><a xlink:href="https://github.com/conda-forge/qt6-advanced-docking-system-feedstock" xlink:title="qt6 advanced docking system">
<ellipse fill="#fde725" stroke="black" cx="1195.28" cy="-162" rx="159.59" ry="18"/>
<text text-anchor="middle" x="1195.28" y="-157.32" font-family="Times,serif" font-size="14.00">qt6 advanced docking system</text>
</a>
</g>
</g>
<!-- qt&#45;main&#45;&gt;qt6&#45;advanced&#45;docking&#45;system -->
<g id="edge16" class="edge">
<title>qt&#45;main&#45;&gt;qt6&#45;advanced&#45;docking&#45;system</title>
<path fill="none" stroke="black" d="M1055.23,-220C1080.06,-209.89 1115,-195.67 1143.77,-183.96"/>
<polygon fill="black" stroke="black" points="1144.72,-187.36 1152.66,-180.34 1142.08,-180.87 1144.72,-187.36"/>
</g>
<!-- adwaita&#45;qt -->
<g id="node14" class="node">
<title>adwaita&#45;qt</title>
<g id="a_node14"><a xlink:href="https://github.com/conda-forge/adwaita-qt-feedstock" xlink:title="adwaita qt">
<ellipse fill="#fde725" stroke="black" cx="1329.28" cy="-90" rx="64.36" ry="18"/>
<text text-anchor="middle" x="1329.28" y="-85.33" font-family="Times,serif" font-size="14.00">adwaita qt</text>
</a>
</g>
</g>
<!-- qt&#45;main&#45;&gt;adwaita&#45;qt -->
<g id="edge17" class="edge">
<title>qt&#45;main&#45;&gt;adwaita&#45;qt</title>
<path fill="none" stroke="black" d="M1059.56,-221.41C1066.71,-219.4 1074.19,-217.48 1081.28,-216 1143.34,-203.04 1322.38,-227.57 1364.28,-180 1380.12,-162.01 1366.96,-136.01 1352.48,-116.75"/>
<polygon fill="black" stroke="black" points="1355.31,-114.69 1346.33,-109.08 1349.85,-119.07 1355.31,-114.69"/>
</g>
<!-- qt&#45;webengine&#45;&gt;kwindowsystem -->
<g id="edge18" class="edge">
<title>qt&#45;webengine&#45;&gt;kwindowsystem</title>
<path fill="none" stroke="black" d="M873.79,-144.59C858.88,-135.35 840.04,-123.68 823.75,-113.59"/>
<polygon fill="black" stroke="black" points="825.63,-110.64 815.28,-108.35 821.94,-116.59 825.63,-110.64"/>
</g>
<!-- qt&#45;webengine&#45;&gt;kglobalaccel -->
<g id="edge19" class="edge">
<title>qt&#45;webengine&#45;&gt;kglobalaccel</title>
<path fill="none" stroke="black" d="M901.01,-143.59C902.03,-119.61 903.86,-76.14 905.08,-47.42"/>
<polygon fill="black" stroke="black" points="908.57,-47.76 905.49,-37.62 901.57,-47.47 908.57,-47.76"/>
</g>
<!-- kwindowsystem&#45;&gt;kglobalaccel -->
<g id="edge54" class="edge">
<title>kwindowsystem&#45;&gt;kglobalaccel</title>
<path fill="none" stroke="black" d="M815.48,-72.41C831.57,-62.95 851.92,-50.97 869.28,-40.76"/>
<polygon fill="black" stroke="black" points="870.95,-43.84 877.79,-35.76 867.4,-37.81 870.95,-43.84"/>
</g>
<!-- gstreamer -->
<g id="node15" class="node">
<title>gstreamer</title>
<g id="a_node15"><a xlink:href="https://github.com/conda-forge/gstreamer-feedstock" xlink:title="gstreamer">
<ellipse fill="#fde725" stroke="black" cx="1260.28" cy="-306" rx="63.31" ry="18"/>
<text text-anchor="middle" x="1260.28" y="-301.32" font-family="Times,serif" font-size="14.00">gstreamer</text>
</a>
</g>
</g>
<!-- gstreamer&#45;&gt;qt&#45;main -->
<g id="edge20" class="edge">
<title>gstreamer&#45;&gt;qt&#45;main</title>
<path fill="none" stroke="black" d="M1217.36,-292.32C1176.34,-280.21 1114.58,-261.97 1071.79,-249.33"/>
<polygon fill="black" stroke="black" points="1072.84,-245.99 1062.26,-246.51 1070.86,-252.7 1072.84,-245.99"/>
</g>
<!-- gstreamer&#45;&gt;qt&#45;webengine -->
<g id="edge21" class="edge">
<title>gstreamer&#45;&gt;qt&#45;webengine</title>
<path fill="none" stroke="black" d="M1205.95,-296.35C1123.31,-283.05 974.45,-258.41 964.28,-252 940.94,-237.29 923.51,-210.71 912.78,-190.41"/>
<polygon fill="black" stroke="black" points="915.94,-188.9 908.33,-181.53 909.69,-192.04 915.94,-188.9"/>
</g>
<!-- gst&#45;plugins&#45;ugly -->
<g id="node16" class="node">
<title>gst&#45;plugins&#45;ugly</title>
<g id="a_node16"><a xlink:href="https://github.com/conda-forge/gst-plugins-ugly-feedstock" xlink:title="gst plugins ugly">
<ellipse fill="#fde725" stroke="black" cx="1377.28" cy="-234" rx="91.72" ry="18"/>
<text text-anchor="middle" x="1377.28" y="-229.32" font-family="Times,serif" font-size="14.00">gst plugins ugly</text>
</a>
</g>
</g>
<!-- gstreamer&#45;&gt;gst&#45;plugins&#45;ugly -->
<g id="edge22" class="edge">
<title>gstreamer&#45;&gt;gst&#45;plugins&#45;ugly</title>
<path fill="none" stroke="black" d="M1286.54,-289.29C1302.19,-279.92 1322.33,-267.87 1339.66,-257.51"/>
<polygon fill="black" stroke="black" points="1341.4,-260.55 1348.18,-252.41 1337.8,-254.54 1341.4,-260.55"/>
</g>
<!-- gst&#45;plugins&#45;bad -->
<g id="node17" class="node">
<title>gst&#45;plugins&#45;bad</title>
<g id="a_node17"><a xlink:href="https://github.com/conda-forge/gst-plugins-bad-feedstock" xlink:title="gst plugins bad">
<ellipse fill="#fde725" stroke="black" cx="1179.28" cy="-234" rx="88.56" ry="18"/>
<text text-anchor="middle" x="1179.28" y="-229.32" font-family="Times,serif" font-size="14.00">gst plugins bad</text>
</a>
</g>
</g>
<!-- gstreamer&#45;&gt;gst&#45;plugins&#45;bad -->
<g id="edge23" class="edge">
<title>gstreamer&#45;&gt;gst&#45;plugins&#45;bad</title>
<path fill="none" stroke="black" d="M1241.08,-288.41C1231.04,-279.73 1218.56,-268.95 1207.45,-259.34"/>
<polygon fill="black" stroke="black" points="1209.9,-256.84 1200.04,-252.95 1205.32,-262.13 1209.9,-256.84"/>
</g>
<!-- libglu -->
<g id="node18" class="node">
<title>libglu</title>
<g id="a_node18"><a xlink:href="https://github.com/conda-forge/libglu-feedstock" xlink:title="libglu">
<ellipse fill="#fde725" stroke="black" cx="2255.28" cy="-234" rx="39.63" ry="18"/>
<text text-anchor="middle" x="2255.28" y="-229.32" font-family="Times,serif" font-size="14.00">libglu</text>
</a>
</g>
</g>
<!-- libglu&#45;&gt;vtk -->
<g id="edge24" class="edge">
<title>libglu&#45;&gt;vtk</title>
<path fill="none" stroke="black" d="M2261.33,-215.93C2266.87,-197.24 2272.65,-166.88 2261.28,-144 2253.23,-127.81 2237.61,-115.24 2223.16,-106.42"/>
<polygon fill="black" stroke="black" points="2225.2,-103.55 2214.77,-101.66 2221.74,-109.64 2225.2,-103.55"/>
</g>
<!-- libglu&#45;&gt;gazebo -->
<g id="edge25" class="edge">
<title>libglu&#45;&gt;gazebo</title>
<path fill="none" stroke="black" d="M2255.18,-215.74C2254.06,-195.39 2248.93,-162.08 2228.28,-144 2189.44,-110.01 2043.71,-97.6 1961.19,-93.24"/>
<polygon fill="black" stroke="black" points="1961.42,-89.75 1951.25,-92.74 1961.06,-96.74 1961.42,-89.75"/>
</g>
<!-- libglu&#45;&gt;colmap -->
<g id="edge28" class="edge">
<title>libglu&#45;&gt;colmap</title>
<path fill="none" stroke="black" d="M2237.27,-217.81C2226.3,-208.56 2212.06,-196.55 2199.71,-186.13"/>
<polygon fill="black" stroke="black" points="2202.18,-183.64 2192.27,-179.86 2197.66,-188.99 2202.18,-183.64"/>
</g>
<!-- freeglut -->
<g id="node19" class="node">
<title>freeglut</title>
<g id="a_node19"><a xlink:href="https://github.com/conda-forge/freeglut-feedstock" xlink:title="freeglut">
<ellipse fill="#fde725" stroke="black" cx="2018.28" cy="-162" rx="51.21" ry="18"/>
<text text-anchor="middle" x="2018.28" y="-157.32" font-family="Times,serif" font-size="14.00">freeglut</text>
</a>
</g>
</g>
<!-- libglu&#45;&gt;freeglut -->
<g id="edge26" class="edge">
<title>libglu&#45;&gt;freeglut</title>
<path fill="none" stroke="black" d="M2222.82,-223.41C2182.68,-211.56 2113.97,-191.26 2067.37,-177.5"/>
<polygon fill="black" stroke="black" points="2068.65,-174.23 2058.07,-174.75 2066.66,-180.94 2068.65,-174.23"/>
</g>
<!-- fltk -->
<g id="node20" class="node">
<title>fltk</title>
<g id="a_node20"><a xlink:href="https://github.com/conda-forge/fltk-feedstock" xlink:title="fltk">
<ellipse fill="#fde725" stroke="black" cx="2341.28" cy="-162" rx="27.53" ry="18"/>
<text text-anchor="middle" x="2341.28" y="-157.32" font-family="Times,serif" font-size="14.00">fltk</text>
</a>
</g>
</g>
<!-- libglu&#45;&gt;fltk -->
<g id="edge27" class="edge">
<title>libglu&#45;&gt;fltk</title>
<path fill="none" stroke="black" d="M2273.94,-217.81C2286.14,-207.88 2302.24,-194.77 2315.64,-183.87"/>
<polygon fill="black" stroke="black" points="2317.68,-186.72 2323.23,-177.69 2313.26,-181.29 2317.68,-186.72"/>
</g>
<!-- freeglut&#45;&gt;gazebo -->
<g id="edge29" class="edge">
<title>freeglut&#45;&gt;gazebo</title>
<path fill="none" stroke="black" d="M1993.33,-145.81C1976.9,-135.82 1955.2,-122.6 1937.22,-111.66"/>
<polygon fill="black" stroke="black" points="1939.05,-108.68 1928.69,-106.47 1935.41,-114.66 1939.05,-108.68"/>
</g>
<!-- mesalib -->
<g id="node21" class="node">
<title>mesalib</title>
<g id="a_node21"><a xlink:href="https://github.com/conda-forge/mesalib-feedstock" xlink:title="mesalib">
<ellipse fill="#fde725" stroke="black" cx="2109.28" cy="-234" rx="50.16" ry="18"/>
<text text-anchor="middle" x="2109.28" y="-229.32" font-family="Times,serif" font-size="14.00">mesalib</text>
</a>
</g>
</g>
<!-- mesalib&#45;&gt;vtk -->
<g id="edge30" class="edge">
<title>mesalib&#45;&gt;vtk</title>
<path fill="none" stroke="black" d="M2106.51,-215.68C2104.38,-196.78 2103.64,-166.23 2116.28,-144 2125.85,-127.17 2143.21,-114.39 2158.82,-105.59"/>
<polygon fill="black" stroke="black" points="2160.16,-108.84 2167.38,-101.09 2156.9,-102.64 2160.16,-108.84"/>
</g>
<!-- pillow -->
<g id="node22" class="node">
<title>pillow</title>
<g id="a_node22"><a xlink:href="https://github.com/conda-forge/pillow-feedstock" xlink:title="pillow">
<ellipse fill="#35b779" stroke="black" cx="2670.28" cy="-198" rx="41.21" ry="18"/>
<text text-anchor="middle" x="2670.28" y="-193.32" font-family="Times,serif" font-size="14.00">pillow</text>
</a>
</g>
</g>
<!-- xorg&#45;libx11 -->
<g id="node23" class="node">
<title>xorg&#45;libx11</title>
<g id="a_node23"><a xlink:href="https://github.com/conda-forge/xorg-libx11-feedstock/pull/39" xlink:title="xorg libx11 ✓">
<ellipse fill="#31688e" stroke="black" cx="1810.28" cy="-378" rx="75.94" ry="18"/>
<text text-anchor="middle" x="1810.28" y="-373.32" font-family="Times,serif" font-size="14.00" fill="white">xorg libx11 ✓</text>
</a>
</g>
</g>
<!-- xorg&#45;libx11&#45;&gt;cairo -->
<g id="edge31" class="edge">
<title>xorg&#45;libx11&#45;&gt;cairo</title>
<path fill="none" stroke="black" d="M1787.77,-360.41C1774.66,-350.75 1758,-338.48 1743.96,-328.14"/>
<polygon fill="black" stroke="black" points="1746.08,-325.35 1735.96,-322.24 1741.93,-330.99 1746.08,-325.35"/>
</g>
<!-- xorg&#45;libx11&#45;&gt;ffmpeg -->
<g id="edge32" class="edge">
<title>xorg&#45;libx11&#45;&gt;ffmpeg</title>
<path fill="none" stroke="black" d="M1822.19,-359.84C1828.91,-349.7 1837.16,-336.45 1843.28,-324 1865.43,-278.94 1884.39,-223.53 1894.78,-190.86"/>
<polygon fill="black" stroke="black" points="1898.11,-191.95 1897.76,-181.36 1891.43,-189.85 1898.11,-191.95"/>
</g>
<!-- xorg&#45;libx11&#45;&gt;gnuplot -->
<g id="edge33" class="edge">
<title>xorg&#45;libx11&#45;&gt;gnuplot</title>
<path fill="none" stroke="black" d="M1805.55,-359.85C1795.41,-323.07 1771.49,-236.29 1759.07,-191.24"/>
<polygon fill="black" stroke="black" points="1762.46,-190.4 1756.43,-181.69 1755.72,-192.26 1762.46,-190.4"/>
</g>
<!-- xorg&#45;libx11&#45;&gt;lyx -->
<g id="edge34" class="edge">
<title>xorg&#45;libx11&#45;&gt;lyx</title>
<path fill="none" stroke="black" d="M1759.77,-364.26C1707.2,-347.98 1627.7,-314.17 1592.28,-252 1581.74,-233.51 1577.03,-209.83 1574.94,-191.55"/>
<polygon fill="black" stroke="black" points="1578.43,-191.3 1574.02,-181.66 1571.46,-191.94 1578.43,-191.3"/>
</g>
<!-- xorg&#45;libx11&#45;&gt;qt&#45;main -->
<g id="edge35" class="edge">
<title>xorg&#45;libx11&#45;&gt;qt&#45;main</title>
<path fill="none" stroke="black" d="M1734.22,-376.21C1590.58,-373.78 1285.16,-363.94 1188.28,-324 1165.24,-314.5 1166.48,-301.1 1145.28,-288 1121.26,-273.16 1092.35,-260.4 1068.71,-251.13"/>
<polygon fill="black" stroke="black" points="1070.25,-247.97 1059.66,-247.66 1067.74,-254.51 1070.25,-247.97"/>
</g>
<!-- xorg&#45;libx11&#45;&gt;qt&#45;webengine -->
<g id="edge36" class="edge">
<title>xorg&#45;libx11&#45;&gt;qt&#45;webengine</title>
<path fill="none" stroke="black" d="M1735.25,-374.68C1585.46,-369.45 1254.39,-354.72 1145.28,-324 1111.22,-314.41 1107.48,-300.24 1074.28,-288 1010.36,-264.44 974.33,-299.28 925.28,-252 909.11,-236.41 903.15,-211.27 901.06,-191.68"/>
<polygon fill="black" stroke="black" points="904.56,-191.55 900.33,-181.84 897.58,-192.07 904.56,-191.55"/>
</g>
<!-- xorg&#45;libx11&#45;&gt;vtk -->
<g id="edge37" class="edge">
<title>xorg&#45;libx11&#45;&gt;vtk</title>
<path fill="none" stroke="black" d="M1885.55,-375.07C1998.14,-371.07 2204.08,-359.05 2268.28,-324 2350.57,-279.07 2434.82,-218.79 2378.28,-144 2360.29,-120.2 2277.93,-103.99 2228.71,-96.24"/>
<polygon fill="black" stroke="black" points="2229.47,-92.82 2219.06,-94.77 2228.42,-99.74 2229.47,-92.82"/>
</g>
<!-- xorg&#45;libx11&#45;&gt;gazebo -->
<g id="edge38" class="edge">
<title>xorg&#45;libx11&#45;&gt;gazebo</title>
<path fill="none" stroke="black" d="M1809.5,-359.76C1808.41,-319.5 1809.94,-217.15 1848.28,-144 1854.31,-132.49 1863.79,-122.03 1873.18,-113.49"/>
<polygon fill="black" stroke="black" points="1875.21,-116.36 1880.54,-107.21 1870.66,-111.04 1875.21,-116.36"/>
</g>
<!-- xorg&#45;libx11&#45;&gt;colmap -->
<g id="edge45" class="edge">
<title>xorg&#45;libx11&#45;&gt;colmap</title>
<path fill="none" stroke="black" d="M1882.23,-371.78C1937.4,-365.66 2014.33,-352.44 2076.28,-324 2123.47,-302.34 2144.49,-298.15 2168.28,-252 2177.82,-233.48 2178.43,-209.81 2176.86,-191.53"/>
<polygon fill="black" stroke="black" points="2180.35,-191.18 2175.73,-181.65 2173.39,-191.98 2180.35,-191.18"/>
</g>
<!-- xorg&#45;libx11&#45;&gt;kwindowsystem -->
<g id="edge48" class="edge">
<title>xorg&#45;libx11&#45;&gt;kwindowsystem</title>
<path fill="none" stroke="black" d="M1734.07,-377.28C1523.01,-377.41 941.83,-373.26 872.28,-324 805.41,-276.64 790.99,-170.93 787.99,-119.8"/>
<polygon fill="black" stroke="black" points="791.49,-119.67 787.53,-109.84 784.49,-119.99 791.49,-119.67"/>
</g>
<!-- xorg&#45;libx11&#45;&gt;kglobalaccel -->
<g id="edge49" class="edge">
<title>xorg&#45;libx11&#45;&gt;kglobalaccel</title>
<path fill="none" stroke="black" d="M1735.31,-374.65C1642.71,-367.28 1497.28,-339.13 1497.28,-235 1497.28,-235 1497.28,-235 1497.28,-161 1497.28,-109.84 1469.35,-96.21 1424.28,-72 1351.32,-32.81 1117.46,-22.57 990.38,-19.91"/>
<polygon fill="black" stroke="black" points="990.76,-16.42 980.69,-19.72 990.62,-23.42 990.76,-16.42"/>
</g>
<!-- xorg&#45;libx11&#45;&gt;gstreamer -->
<g id="edge39" class="edge">
<title>xorg&#45;libx11&#45;&gt;gstreamer</title>
<path fill="none" stroke="black" d="M1741.12,-370.27C1651.79,-361.28 1491.58,-344.12 1355.28,-324 1344.82,-322.46 1333.75,-320.64 1323,-318.78"/>
<polygon fill="black" stroke="black" points="1323.9,-315.39 1313.45,-317.1 1322.69,-322.28 1323.9,-315.39"/>
</g>
<!-- xorg&#45;libx11&#45;&gt;gst&#45;plugins&#45;ugly -->
<g id="edge40" class="edge">
<title>xorg&#45;libx11&#45;&gt;gst&#45;plugins&#45;ugly</title>
<path fill="none" stroke="black" d="M1734.59,-376.05C1666.11,-372.61 1563.93,-360.95 1483.28,-324 1450.4,-308.94 1419.54,-280.83 1399.7,-260.21"/>
<polygon fill="black" stroke="black" points="1402.32,-257.9 1392.93,-253 1397.22,-262.69 1402.32,-257.9"/>
</g>
<!-- xorg&#45;libx11&#45;&gt;gst&#45;plugins&#45;bad -->
<g id="edge41" class="edge">
<title>xorg&#45;libx11&#45;&gt;gst&#45;plugins&#45;bad</title>
<path fill="none" stroke="black" d="M1738,-372.09C1659.89,-365.62 1532.24,-351.66 1425.28,-324 1382.37,-312.9 1373.89,-303.26 1332.28,-288 1300.1,-276.2 1263.87,-263.62 1234.74,-253.68"/>
<polygon fill="black" stroke="black" points="1235.98,-250.4 1225.38,-250.49 1233.72,-257.03 1235.98,-250.4"/>
</g>
<!-- xorg&#45;libx11&#45;&gt;libglu -->
<g id="edge42" class="edge">
<title>xorg&#45;libx11&#45;&gt;libglu</title>
<path fill="none" stroke="black" d="M1884.93,-374.45C1983.54,-369.81 2150.64,-357.18 2201.28,-324 2223.09,-309.71 2237.47,-283.26 2245.86,-262.89"/>
<polygon fill="black" stroke="black" points="2249.06,-264.32 2249.38,-253.73 2242.53,-261.81 2249.06,-264.32"/>
</g>
<!-- xorg&#45;libx11&#45;&gt;freeglut -->
<g id="edge43" class="edge">
<title>xorg&#45;libx11&#45;&gt;freeglut</title>
<path fill="none" stroke="black" d="M1859.17,-363.93C1886.31,-355.26 1919.83,-342.11 1946.28,-324 1982.1,-299.48 1995.19,-291.9 2012.28,-252 2020.44,-232.94 2021.71,-209.47 2021.06,-191.42"/>
<polygon fill="black" stroke="black" points="2024.57,-191.46 2020.48,-181.69 2017.58,-191.88 2024.57,-191.46"/>
</g>
<!-- xorg&#45;libx11&#45;&gt;fltk -->
<g id="edge44" class="edge">
<title>xorg&#45;libx11&#45;&gt;fltk</title>
<path fill="none" stroke="black" d="M1884.02,-373.32C1987.76,-367.2 2170.76,-352.65 2230.28,-324 2271.63,-304.1 2278.5,-289.96 2304.28,-252 2317.06,-233.17 2326.71,-209.23 2332.94,-190.92"/>
<polygon fill="black" stroke="black" points="2336.23,-192.12 2335.99,-181.52 2329.57,-189.95 2336.23,-192.12"/>
</g>
<!-- xorg&#45;libx11&#45;&gt;mesalib -->
<g id="edge46" class="edge">
<title>xorg&#45;libx11&#45;&gt;mesalib</title>
<path fill="none" stroke="black" d="M1884.43,-373.79C1933.55,-368.58 1997.5,-355.62 2045.28,-324 2068.28,-308.78 2085.76,-282.26 2096.58,-262.12"/>
<polygon fill="black" stroke="black" points="2099.64,-263.82 2101.08,-253.33 2093.41,-260.63 2099.64,-263.82"/>
</g>
<!-- libva -->
<g id="node24" class="node">
<title>libva</title>
<g id="a_node24"><a xlink:href="https://github.com/conda-forge/libva-feedstock" xlink:title="libva">
<ellipse fill="#fde725" stroke="black" cx="1968.28" cy="-234" rx="35.42" ry="18"/>
<text text-anchor="middle" x="1968.28" y="-229.32" font-family="Times,serif" font-size="14.00">libva</text>
</a>
</g>
</g>
<!-- xorg&#45;libx11&#45;&gt;libva -->
<g id="edge47" class="edge">
<title>xorg&#45;libx11&#45;&gt;libva</title>
<path fill="none" stroke="black" d="M1854.12,-362.86C1875.67,-354.24 1900.9,-341.47 1919.28,-324 1937.23,-306.93 1950.23,-281.81 1958.31,-262.6"/>
<polygon fill="black" stroke="black" points="1961.5,-264.07 1961.94,-253.49 1954.99,-261.48 1961.5,-264.07"/>
</g>
<!-- vulkan&#45;loader -->
<g id="node25" class="node">
<title>vulkan&#45;loader</title>
<g id="a_node25"><a xlink:href="https://github.com/conda-forge/vulkan-loader-feedstock" xlink:title="vulkan loader">
<ellipse fill="#fde725" stroke="black" cx="2542.28" cy="-162" rx="79.09" ry="18"/>
<text text-anchor="middle" x="2542.28" y="-157.32" font-family="Times,serif" font-size="14.00">vulkan loader</text>
</a>
</g>
</g>
<!-- xorg&#45;libx11&#45;&gt;vulkan&#45;loader -->
<g id="edge50" class="edge">
<title>xorg&#45;libx11&#45;&gt;vulkan&#45;loader</title>
<path fill="none" stroke="black" d="M1885.45,-374.66C2044.13,-369.15 2402.62,-353.57 2449.28,-324 2497.46,-293.46 2523.44,-228.37 2534.91,-190.97"/>
<polygon fill="black" stroke="black" points="2538.15,-192.36 2537.59,-181.78 2531.43,-190.4 2538.15,-192.36"/>
</g>
<!-- vulkan&#45;tools -->
<g id="node26" class="node">
<title>vulkan&#45;tools</title>
<g id="a_node26"><a xlink:href="https://github.com/conda-forge/vulkan-tools-feedstock" xlink:title="vulkan tools">
<ellipse fill="#fde725" stroke="black" cx="2488.28" cy="-90" rx="71.73" ry="18"/>
<text text-anchor="middle" x="2488.28" y="-85.33" font-family="Times,serif" font-size="14.00">vulkan tools</text>
</a>
</g>
</g>
<!-- xorg&#45;libx11&#45;&gt;vulkan&#45;tools -->
<g id="edge51" class="edge">
<title>xorg&#45;libx11&#45;&gt;vulkan&#45;tools</title>
<path fill="none" stroke="black" d="M1884.93,-374.52C2005.33,-369.62 2236.48,-356.24 2311.28,-324 2405.11,-283.55 2402.17,-231.89 2454.28,-144 2459.43,-135.31 2465.3,-125.99 2470.69,-117.62"/>
<polygon fill="black" stroke="black" points="2473.6,-119.55 2476.12,-109.26 2467.73,-115.74 2473.6,-119.55"/>
</g>
<!-- nsight&#45;compute -->
<g id="node27" class="node">
<title>nsight&#45;compute</title>
<g id="a_node27"><a xlink:href="https://github.com/conda-forge/nsight-compute-feedstock" xlink:title="nsight compute">
<ellipse fill="#fde725" stroke="black" cx="609.28" cy="-162" rx="89.09" ry="18"/>
<text text-anchor="middle" x="609.28" y="-157.32" font-family="Times,serif" font-size="14.00">nsight compute</text>
</a>
</g>
</g>
<!-- xorg&#45;libx11&#45;&gt;nsight&#45;compute -->
<g id="edge52" class="edge">
<title>xorg&#45;libx11&#45;&gt;nsight&#45;compute</title>
<path fill="none" stroke="black" d="M1734.81,-375.68C1488.23,-371.09 719.6,-354.38 676.28,-324 632.66,-293.41 617.35,-228.81 612.04,-191.41"/>
<polygon fill="black" stroke="black" points="615.55,-191.28 610.83,-181.8 608.61,-192.15 615.55,-191.28"/>
</g>
<!-- libva&#45;&gt;ffmpeg -->
<g id="edge53" class="edge">
<title>libva&#45;&gt;ffmpeg</title>
<path fill="none" stroke="black" d="M1953.85,-217.46C1945.75,-208.74 1935.46,-197.65 1926.27,-187.76"/>
<polygon fill="black" stroke="black" points="1928.97,-185.52 1919.6,-180.58 1923.84,-190.29 1928.97,-185.52"/>
</g>
<!-- vulkan&#45;loader&#45;&gt;vulkan&#45;tools -->
<g id="edge55" class="edge">
<title>vulkan&#45;loader&#45;&gt;vulkan&#45;tools</title>
<path fill="none" stroke="black" d="M2529.21,-144.05C2522.91,-135.89 2515.21,-125.91 2508.2,-116.82"/>
<polygon fill="black" stroke="black" points="2511.03,-114.77 2502.16,-108.99 2505.49,-119.04 2511.03,-114.77"/>
</g>
<!-- libxkbcommon -->
<g id="node28" class="node">
<title>libxkbcommon</title>
<g id="a_node28"><a xlink:href="https://github.com/conda-forge/libxkbcommon-feedstock/pull/28" xlink:title="libxkbcommon ✓">
<ellipse fill="#31688e" stroke="black" cx="973.28" cy="-306" rx="91.72" ry="18"/>
<text text-anchor="middle" x="973.28" y="-301.32" font-family="Times,serif" font-size="14.00" fill="white">libxkbcommon ✓</text>
</a>
</g>
</g>
<!-- libxkbcommon&#45;&gt;qt&#45;main -->
<g id="edge56" class="edge">
<title>libxkbcommon&#45;&gt;qt&#45;main</title>
<path fill="none" stroke="black" d="M985.64,-287.7C991.42,-279.61 998.41,-269.81 1004.8,-260.87"/>
<polygon fill="black" stroke="black" points="1007.56,-263.03 1010.53,-252.85 1001.87,-258.96 1007.56,-263.03"/>
</g>
<!-- libxkbcommon&#45;&gt;qt&#45;webengine -->
<g id="edge57" class="edge">
<title>libxkbcommon&#45;&gt;qt&#45;webengine</title>
<path fill="none" stroke="black" d="M934.62,-289.39C918.82,-280.86 902.19,-268.59 893.28,-252 883.31,-233.43 885.9,-209.47 890.53,-191.09"/>
<polygon fill="black" stroke="black" points="893.85,-192.23 893.25,-181.66 887.12,-190.3 893.85,-192.23"/>
</g>
<!-- libxkbcommon&#45;&gt;nsight&#45;compute -->
<g id="edge58" class="edge">
<title>libxkbcommon&#45;&gt;nsight&#45;compute</title>
<path fill="none" stroke="black" d="M933.28,-289.4C866.48,-263.34 732.36,-211.01 659.37,-182.54"/>
<polygon fill="black" stroke="black" points="661.06,-179.44 650.47,-179.07 658.52,-185.97 661.06,-179.44"/>
</g>
<!-- xcb&#45;util&#45;keysyms -->
<g id="node29" class="node">
<title>xcb&#45;util&#45;keysyms</title>
<g id="a_node29"><a xlink:href="https://github.com/conda-forge/xcb-util-keysyms-feedstock" xlink:title="xcb util keysyms">
<ellipse fill="#35b779" stroke="black" cx="114.28" cy="-306" rx="94.88" ry="18"/>
<text text-anchor="middle" x="114.28" y="-301.32" font-family="Times,serif" font-size="14.00">xcb util keysyms</text>
</a>
</g>
</g>
<!-- xcb&#45;util&#45;keysyms&#45;&gt;qt&#45;main -->
<g id="edge59" class="edge">
<title>xcb&#45;util&#45;keysyms&#45;&gt;qt&#45;main</title>
<path fill="none" stroke="black" d="M181.84,-292.99C193.94,-291.11 206.46,-289.35 218.28,-288 495.12,-256.33 827.86,-241.88 962.41,-237.01"/>
<polygon fill="black" stroke="black" points="962.28,-240.51 972.15,-236.66 962.03,-233.52 962.28,-240.51"/>
</g>
<!-- xcb&#45;util&#45;keysyms&#45;&gt;kwindowsystem -->
<g id="edge60" class="edge">
<title>xcb&#45;util&#45;keysyms&#45;&gt;kwindowsystem</title>
<path fill="none" stroke="black" d="M134.32,-288.22C158.97,-268.35 202.8,-235.51 245.28,-216 395.02,-147.22 585.95,-114.6 696.63,-100.49"/>
<polygon fill="black" stroke="black" points="696.75,-104 706.24,-99.28 695.89,-97.05 696.75,-104"/>
</g>
<!-- xcb&#45;util&#45;keysyms&#45;&gt;kglobalaccel -->
<g id="edge61" class="edge">
<title>xcb&#45;util&#45;keysyms&#45;&gt;kglobalaccel</title>
<path fill="none" stroke="black" d="M123.37,-287.84C134.52,-268.22 155.06,-236.21 180.28,-216 241.77,-166.74 267.44,-168.65 342.28,-144 515.25,-87.03 726.58,-47.99 834.84,-30.11"/>
<polygon fill="black" stroke="black" points="835.15,-33.6 844.45,-28.53 834.02,-26.7 835.15,-33.6"/>
</g>
<!-- xcb&#45;util&#45;keysyms&#45;&gt;nsight&#45;compute -->
<g id="edge62" class="edge">
<title>xcb&#45;util&#45;keysyms&#45;&gt;nsight&#45;compute</title>
<path fill="none" stroke="black" d="M152.1,-289.04C199.07,-269.69 281.97,-237.06 355.28,-216 413.34,-199.32 480.28,-185.57 530.85,-176.26"/>
<polygon fill="black" stroke="black" points="531.34,-179.73 540.55,-174.5 530.08,-172.84 531.34,-179.73"/>
</g>
<!-- xcb&#45;util -->
<g id="node30" class="node">
<title>xcb&#45;util</title>
<g id="a_node30"><a xlink:href="https://github.com/conda-forge/xcb-util-feedstock/pull/3" xlink:title="xcb util ✓">
<ellipse fill="#31688e" stroke="black" cx="309.28" cy="-378" rx="56.47" ry="18"/>
<text text-anchor="middle" x="309.28" y="-373.32" font-family="Times,serif" font-size="14.00" fill="white">xcb util ✓</text>
</a>
</g>
</g>
<!-- xcb&#45;util&#45;&gt;qt&#45;main -->
<g id="edge63" class="edge">
<title>xcb&#45;util&#45;&gt;qt&#45;main</title>
<path fill="none" stroke="black" d="M365.94,-377.42C534.84,-378.07 1026.23,-375.5 1074.28,-324 1092.35,-304.63 1072.2,-277.72 1052.15,-258.58"/>
<polygon fill="black" stroke="black" points="1054.55,-256.03 1044.79,-251.91 1049.85,-261.22 1054.55,-256.03"/>
</g>
<!-- xcb&#45;util&#45;&gt;kwindowsystem -->
<g id="edge64" class="edge">
<title>xcb&#45;util&#45;&gt;kwindowsystem</title>
<path fill="none" stroke="black" d="M252.95,-375.33C175.07,-371.7 40.63,-360.21 10.28,-324 0,-311.74 1.5,-301.38 10.28,-288 98.53,-153.53 187.01,-185.95 342.28,-144 457.89,-112.76 595.34,-99.93 686.58,-94.66"/>
<polygon fill="black" stroke="black" points="686.73,-98.16 696.52,-94.11 686.34,-91.17 686.73,-98.16"/>
</g>
<!-- xcb&#45;util&#45;image -->
<g id="node31" class="node">
<title>xcb&#45;util&#45;image</title>
<g id="a_node31"><a xlink:href="https://github.com/conda-forge/xcb-util-image-feedstock" xlink:title="xcb util image">
<ellipse fill="#fde725" stroke="black" cx="309.28" cy="-306" rx="82.25" ry="18"/>
<text text-anchor="middle" x="309.28" y="-301.32" font-family="Times,serif" font-size="14.00">xcb util image</text>
</a>
</g>
</g>
<!-- xcb&#45;util&#45;&gt;xcb&#45;util&#45;image -->
<g id="edge65" class="edge">
<title>xcb&#45;util&#45;&gt;xcb&#45;util&#45;image</title>
<path fill="none" stroke="black" d="M309.28,-359.7C309.28,-352.41 309.28,-343.73 309.28,-335.54"/>
<polygon fill="black" stroke="black" points="312.78,-335.62 309.28,-325.62 305.78,-335.62 312.78,-335.62"/>
</g>
<!-- xcb&#45;util&#45;image&#45;&gt;qt&#45;main -->
<g id="edge66" class="edge">
<title>xcb&#45;util&#45;image&#45;&gt;qt&#45;main</title>
<path fill="none" stroke="black" d="M368.37,-293.08C378.97,-291.19 389.93,-289.4 400.28,-288 605.72,-260.14 851.38,-244.35 962.9,-238.13"/>
<polygon fill="black" stroke="black" points="962.93,-241.63 972.72,-237.59 962.54,-234.64 962.93,-241.63"/>
</g>
<!-- xcb&#45;util&#45;image&#45;&gt;nsight&#45;compute -->
<g id="edge67" class="edge">
<title>xcb&#45;util&#45;image&#45;&gt;nsight&#45;compute</title>
<path fill="none" stroke="black" d="M322.84,-287.89C339.77,-267.69 370.62,-234.52 404.28,-216 441.51,-195.52 486.91,-182.73 525.52,-174.86"/>
<polygon fill="black" stroke="black" points="526.11,-178.31 535.25,-172.96 524.77,-171.44 526.11,-178.31"/>
</g>
<!-- xcb&#45;util&#45;cursor -->
<g id="node32" class="node">
<title>xcb&#45;util&#45;cursor</title>
<g id="a_node32"><a xlink:href="https://github.com/conda-forge/xcb-util-cursor-feedstock" xlink:title="xcb util cursor">
<ellipse fill="#fde725" stroke="black" cx="497.28" cy="-234" rx="83.83" ry="18"/>
<text text-anchor="middle" x="497.28" y="-229.32" font-family="Times,serif" font-size="14.00">xcb util cursor</text>
</a>
</g>
</g>
<!-- xcb&#45;util&#45;image&#45;&gt;xcb&#45;util&#45;cursor -->
<g id="edge68" class="edge">
<title>xcb&#45;util&#45;image&#45;&gt;xcb&#45;util&#45;cursor</title>
<path fill="none" stroke="black" d="M349.61,-289.98C377.89,-279.45 415.91,-265.3 446.29,-253.98"/>
<polygon fill="black" stroke="black" points="447.12,-257.41 455.27,-250.64 444.68,-250.85 447.12,-257.41"/>
</g>
<!-- xcb&#45;util&#45;cursor&#45;&gt;nsight&#45;compute -->
<g id="edge72" class="edge">
<title>xcb&#45;util&#45;cursor&#45;&gt;nsight&#45;compute</title>
<path fill="none" stroke="black" d="M523.54,-216.59C538.32,-207.35 556.99,-195.68 573.13,-185.59"/>
<polygon fill="black" stroke="black" points="574.89,-188.62 581.51,-180.35 571.18,-182.69 574.89,-188.62"/>
</g>
<!-- xcb&#45;util&#45;wm -->
<g id="node33" class="node">
<title>xcb&#45;util&#45;wm</title>
<g id="a_node33"><a xlink:href="https://github.com/conda-forge/xcb-util-wm-feedstock" xlink:title="xcb util wm">
<ellipse fill="#35b779" stroke="black" cx="755.28" cy="-306" rx="69.62" ry="18"/>
<text text-anchor="middle" x="755.28" y="-301.32" font-family="Times,serif" font-size="14.00">xcb util wm</text>
</a>
</g>
</g>
<!-- xcb&#45;util&#45;wm&#45;&gt;qt&#45;main -->
<g id="edge69" class="edge">
<title>xcb&#45;util&#45;wm&#45;&gt;qt&#45;main</title>
<path fill="none" stroke="black" d="M802.88,-292.57C850.75,-280.06 924.25,-260.87 973.03,-248.12"/>
<polygon fill="black" stroke="black" points="973.7,-251.57 982.49,-245.65 971.93,-244.79 973.7,-251.57"/>
</g>
<!-- xcb&#45;util&#45;wm&#45;&gt;kwindowsystem -->
<g id="edge70" class="edge">
<title>xcb&#45;util&#45;wm&#45;&gt;kwindowsystem</title>
<path fill="none" stroke="black" d="M757.86,-287.61C762.25,-258.08 771.44,-196.26 779.28,-144 780.47,-136.06 781.77,-127.44 782.97,-119.51"/>
<polygon fill="black" stroke="black" points="786.42,-120.09 784.45,-109.68 779.5,-119.05 786.42,-120.09"/>
</g>
<!-- xcb&#45;util&#45;wm&#45;&gt;nsight&#45;compute -->
<g id="edge71" class="edge">
<title>xcb&#45;util&#45;wm&#45;&gt;nsight&#45;compute</title>
<path fill="none" stroke="black" d="M740.31,-288.09C723.89,-269.79 696.52,-240.03 671.28,-216 661.05,-206.26 649.37,-196.06 638.93,-187.24"/>
<polygon fill="black" stroke="black" points="641.22,-184.59 631.31,-180.86 636.73,-189.96 641.22,-184.59"/>
</g>
<!-- xcb&#45;util&#45;renderutil -->
<g id="node34" class="node">
<title>xcb&#45;util&#45;renderutil</title>
<g id="a_node34"><a xlink:href="https://github.com/conda-forge/xcb-util-renderutil-feedstock/pull/6" xlink:title="xcb util renderutil ✓">
<ellipse fill="#31688e" stroke="black" cx="519.28" cy="-306" rx="110.13" ry="18"/>
<text text-anchor="middle" x="519.28" y="-301.32" font-family="Times,serif" font-size="14.00" fill="white">xcb util renderutil ✓</text>
</a>
</g>
</g>
<!-- xcb&#45;util&#45;renderutil&#45;&gt;qt&#45;main -->
<g id="edge73" class="edge">
<title>xcb&#45;util&#45;renderutil&#45;&gt;qt&#45;main</title>
<path fill="none" stroke="black" d="M601.1,-293.64C703.65,-279.39 876.78,-255.35 966.13,-242.94"/>
<polygon fill="black" stroke="black" points="966.46,-246.42 975.89,-241.58 965.5,-239.49 966.46,-246.42"/>
</g>
<!-- xcb&#45;util&#45;renderutil&#45;&gt;nsight&#45;compute -->
<g id="edge74" class="edge">
<title>xcb&#45;util&#45;renderutil&#45;&gt;nsight&#45;compute</title>
<path fill="none" stroke="black" d="M550.76,-288.49C564.9,-279.52 580.57,-267.15 590.28,-252 601.82,-234 606.47,-210.15 608.29,-191.67"/>
<polygon fill="black" stroke="black" points="611.76,-192.16 609,-181.93 604.78,-191.65 611.76,-192.16"/>
</g>
<!-- xcb&#45;util&#45;renderutil&#45;&gt;xcb&#45;util&#45;cursor -->
<g id="edge75" class="edge">
<title>xcb&#45;util&#45;renderutil&#45;&gt;xcb&#45;util&#45;cursor</title>
<path fill="none" stroke="black" d="M513.84,-287.7C511.5,-280.24 508.69,-271.32 506.07,-262.97"/>
<polygon fill="black" stroke="black" points="509.45,-262.04 503.11,-253.55 502.77,-264.14 509.45,-262.04"/>
</g>
</g>
</svg>
