<?xml version="1.0" encoding="UTF-8" standalone="no"?>
<!DOCTYPE svg PUBLIC "-//W3C//DTD SVG 1.1//EN"
 "http://www.w3.org/Graphics/SVG/1.1/DTD/svg11.dtd">
<!-- Generated by graphviz version 11.0.0 (20240519.1550)
 -->
<!-- Pages: 1 -->
<svg width="1955pt" height="332pt"
 viewBox="0.00 0.00 1955.18 332.00" xmlns="http://www.w3.org/2000/svg" xmlns:xlink="http://www.w3.org/1999/xlink">
<g id="graph0" class="graph" transform="scale(1 1) rotate(0) translate(4 328)">
<polygon fill="white" stroke="none" points="-4,4 -4,-328 1951.18,-328 1951.18,4 -4,4"/>
<!-- cairo -->
<g id="node1" class="node">
<title>cairo</title>
<g id="a_node1"><a xlink:href="https://github.com/conda-forge/cairo-feedstock" xlink:title="cairo">
<ellipse fill="#35b779" stroke="black" cx="1132.09" cy="-306" rx="35.95" ry="18"/>
<text text-anchor="middle" x="1132.09" y="-301.32" font-family="Times,serif" font-size="14.00">cairo</text>
</a>
</g>
</g>
<!-- ffmpeg -->
<g id="node2" class="node">
<title>ffmpeg</title>
<g id="a_node2"><a xlink:href="https://github.com/conda-forge/ffmpeg-feedstock" xlink:title="ffmpeg">
<ellipse fill="#fde725" stroke="black" cx="1524.09" cy="-234" rx="45.95" ry="18"/>
<text text-anchor="middle" x="1524.09" y="-229.32" font-family="Times,serif" font-size="14.00">ffmpeg</text>
</a>
</g>
</g>
<!-- cairo&#45;&gt;ffmpeg -->
<g id="edge1" class="edge">
<title>cairo&#45;&gt;ffmpeg</title>
<path fill="none" stroke="black" d="M1166.85,-301.21C1228.33,-294.13 1360.05,-277.29 1469.09,-252 1472.39,-251.23 1475.78,-250.37 1479.18,-249.46"/>
<polygon fill="black" stroke="black" points="1479.86,-252.9 1488.51,-246.79 1477.94,-246.17 1479.86,-252.9"/>
</g>
<!-- gnuplot -->
<g id="node3" class="node">
<title>gnuplot</title>
<g id="a_node3"><a xlink:href="https://github.com/conda-forge/gnuplot-feedstock" xlink:title="gnuplot">
<ellipse fill="#fde725" stroke="black" cx="1111.09" cy="-162" rx="49.63" ry="18"/>
<text text-anchor="middle" x="1111.09" y="-157.32" font-family="Times,serif" font-size="14.00">gnuplot</text>
</a>
</g>
</g>
<!-- cairo&#45;&gt;gnuplot -->
<g id="edge2" class="edge">
<title>cairo&#45;&gt;gnuplot</title>
<path fill="none" stroke="black" d="M1140.16,-288.29C1147.79,-270.18 1156.98,-240.56 1149.09,-216 1145.87,-205.98 1139.97,-196.24 1133.77,-187.91"/>
<polygon fill="black" stroke="black" points="1136.69,-185.95 1127.71,-180.33 1131.22,-190.33 1136.69,-185.95"/>
</g>
<!-- lyx -->
<g id="node4" class="node">
<title>lyx</title>
<g id="a_node4"><a xlink:href="https://github.com/conda-forge/lyx-feedstock" xlink:title="lyx">
<ellipse fill="#fde725" stroke="black" cx="1206.09" cy="-162" rx="27" ry="18"/>
<text text-anchor="middle" x="1206.09" y="-157.32" font-family="Times,serif" font-size="14.00">lyx</text>
</a>
</g>
</g>
<!-- cairo&#45;&gt;lyx -->
<g id="edge3" class="edge">
<title>cairo&#45;&gt;lyx</title>
<path fill="none" stroke="black" d="M1142.62,-288.54C1149.09,-278.21 1157.39,-264.5 1164.09,-252 1175,-231.65 1186.1,-207.97 1194.14,-190.16"/>
<polygon fill="black" stroke="black" points="1197.34,-191.59 1198.23,-181.03 1190.95,-188.73 1197.34,-191.59"/>
</g>
<!-- qt&#45;main -->
<g id="node5" class="node">
<title>qt&#45;main</title>
<g id="a_node5"><a xlink:href="https://github.com/conda-forge/qt-main-feedstock" xlink:title="qt main">
<ellipse fill="#fde725" stroke="black" cx="986.09" cy="-234" rx="49.63" ry="18"/>
<text text-anchor="middle" x="986.09" y="-229.32" font-family="Times,serif" font-size="14.00">qt main</text>
</a>
</g>
</g>
<!-- cairo&#45;&gt;qt&#45;main -->
<g id="edge4" class="edge">
<title>cairo&#45;&gt;qt&#45;main</title>
<path fill="none" stroke="black" d="M1106.66,-292.81C1084.25,-282.07 1051.26,-266.25 1025.45,-253.87"/>
<polygon fill="black" stroke="black" points="1027.13,-250.8 1016.6,-249.63 1024.11,-257.11 1027.13,-250.8"/>
</g>
<!-- qt&#45;webengine -->
<g id="node6" class="node">
<title>qt&#45;webengine</title>
<g id="a_node6"><a xlink:href="https://github.com/conda-forge/qt-webengine-feedstock" xlink:title="qt webengine">
<ellipse fill="#fde725" stroke="black" cx="512.09" cy="-162" rx="79.09" ry="18"/>
<text text-anchor="middle" x="512.09" y="-157.32" font-family="Times,serif" font-size="14.00">qt webengine</text>
</a>
</g>
</g>
<!-- cairo&#45;&gt;qt&#45;webengine -->
<g id="edge5" class="edge">
<title>cairo&#45;&gt;qt&#45;webengine</title>
<path fill="none" stroke="black" d="M1100.06,-297.66C1002.72,-275.37 709,-208.1 577.26,-177.93"/>
<polygon fill="black" stroke="black" points="578.17,-174.54 567.64,-175.72 576.61,-181.37 578.17,-174.54"/>
</g>
<!-- silicon -->
<g id="node7" class="node">
<title>silicon</title>
<g id="a_node7"><a xlink:href="https://github.com/conda-forge/silicon-feedstock" xlink:title="silicon">
<ellipse fill="#fde725" stroke="black" cx="1097.09" cy="-234" rx="43.32" ry="18"/>
<text text-anchor="middle" x="1097.09" y="-229.32" font-family="Times,serif" font-size="14.00">silicon</text>
</a>
</g>
</g>
<!-- cairo&#45;&gt;silicon -->
<g id="edge6" class="edge">
<title>cairo&#45;&gt;silicon</title>
<path fill="none" stroke="black" d="M1123.62,-288.05C1119.7,-280.23 1114.96,-270.75 1110.58,-261.98"/>
<polygon fill="black" stroke="black" points="1113.76,-260.52 1106.16,-253.14 1107.5,-263.65 1113.76,-260.52"/>
</g>
<!-- vtk -->
<g id="node8" class="node">
<title>vtk</title>
<g id="a_node8"><a xlink:href="https://github.com/conda-forge/vtk-feedstock" xlink:title="vtk">
<ellipse fill="#fde725" stroke="black" cx="1638.09" cy="-162" rx="27.01" ry="18"/>
<text text-anchor="middle" x="1638.09" y="-157.32" font-family="Times,serif" font-size="14.00">vtk</text>
</a>
</g>
</g>
<!-- ffmpeg&#45;&gt;vtk -->
<g id="edge7" class="edge">
<title>ffmpeg&#45;&gt;vtk</title>
<path fill="none" stroke="black" d="M1547.99,-218.33C1565.81,-207.38 1590.23,-192.38 1609.16,-180.76"/>
<polygon fill="black" stroke="black" points="1610.78,-183.88 1617.47,-175.66 1607.12,-177.91 1610.78,-183.88"/>
</g>
<!-- gazebo -->
<g id="node9" class="node">
<title>gazebo</title>
<g id="a_node9"><a xlink:href="https://github.com/conda-forge/gazebo-feedstock" xlink:title="gazebo">
<ellipse fill="#fde725" stroke="black" cx="1409.09" cy="-162" rx="46.47" ry="18"/>
<text text-anchor="middle" x="1409.09" y="-157.32" font-family="Times,serif" font-size="14.00">gazebo</text>
</a>
</g>
</g>
<!-- ffmpeg&#45;&gt;gazebo -->
<g id="edge8" class="edge">
<title>ffmpeg&#45;&gt;gazebo</title>
<path fill="none" stroke="black" d="M1499.98,-218.33C1483.42,-208.25 1461.21,-194.72 1442.88,-183.57"/>
<polygon fill="black" stroke="black" points="1444.82,-180.65 1434.46,-178.44 1441.18,-186.63 1444.82,-180.65"/>
</g>
<!-- qt&#45;main&#45;&gt;gnuplot -->
<g id="edge9" class="edge">
<title>qt&#45;main&#45;&gt;gnuplot</title>
<path fill="none" stroke="black" d="M1012.29,-218.33C1030.46,-208.15 1054.89,-194.47 1074.91,-183.26"/>
<polygon fill="black" stroke="black" points="1076.58,-186.33 1083.6,-178.39 1073.16,-180.23 1076.58,-186.33"/>
</g>
<!-- qt&#45;main&#45;&gt;lyx -->
<g id="edge10" class="edge">
<title>qt&#45;main&#45;&gt;lyx</title>
<path fill="none" stroke="black" d="M1024.21,-222.02C1078.11,-206.49 1170.09,-180 1170.09,-180 1171.63,-179.42 1173.19,-178.8 1174.75,-178.16"/>
<polygon fill="black" stroke="black" points="1175.88,-181.48 1183.63,-174.25 1173.06,-175.08 1175.88,-181.48"/>
</g>
<!-- qt&#45;main&#45;&gt;qt&#45;webengine -->
<g id="edge11" class="edge">
<title>qt&#45;main&#45;&gt;qt&#45;webengine</title>
<path fill="none" stroke="black" d="M939.32,-227.41C866.59,-218.53 722.05,-200.14 600.09,-180 593.79,-178.96 587.26,-177.82 580.72,-176.63"/>
<polygon fill="black" stroke="black" points="581.72,-173.26 571.25,-174.88 580.44,-180.14 581.72,-173.26"/>
</g>
<!-- qt&#45;main&#45;&gt;gazebo -->
<g id="edge12" class="edge">
<title>qt&#45;main&#45;&gt;gazebo</title>
<path fill="none" stroke="black" d="M1022.68,-221.45C1030.05,-219.41 1037.77,-217.47 1045.09,-216 1180.64,-188.77 1218.8,-208.54 1354.09,-180 1357.4,-179.3 1360.81,-178.49 1364.21,-177.61"/>
<polygon fill="black" stroke="black" points="1364.87,-181.06 1373.56,-175 1362.99,-174.31 1364.87,-181.06"/>
</g>
<!-- colmap -->
<g id="node10" class="node">
<title>colmap</title>
<g id="a_node10"><a xlink:href="https://github.com/conda-forge/colmap-feedstock" xlink:title="colmap">
<ellipse fill="#fde725" stroke="black" cx="1298.09" cy="-162" rx="47" ry="18"/>
<text text-anchor="middle" x="1298.09" y="-157.32" font-family="Times,serif" font-size="14.00">colmap</text>
</a>
</g>
</g>
<!-- qt&#45;main&#45;&gt;colmap -->
<g id="edge13" class="edge">
<title>qt&#45;main&#45;&gt;colmap</title>
<path fill="none" stroke="black" d="M1023.08,-221.73C1030.34,-219.69 1037.93,-217.68 1045.09,-216 1131.74,-195.65 1155.59,-200.96 1242.09,-180 1245.39,-179.2 1248.78,-178.32 1252.19,-177.39"/>
<polygon fill="black" stroke="black" points="1252.89,-180.83 1261.55,-174.73 1250.98,-174.1 1252.89,-180.83"/>
</g>
<!-- kwindowsystem -->
<g id="node11" class="node">
<title>kwindowsystem</title>
<g id="a_node11"><a xlink:href="https://github.com/conda-forge/kwindowsystem-feedstock" xlink:title="kwindowsystem">
<ellipse fill="#fde725" stroke="black" cx="815.09" cy="-90" rx="91.19" ry="18"/>
<text text-anchor="middle" x="815.09" y="-85.33" font-family="Times,serif" font-size="14.00">kwindowsystem</text>
</a>
</g>
</g>
<!-- qt&#45;main&#45;&gt;kwindowsystem -->
<g id="edge14" class="edge">
<title>qt&#45;main&#45;&gt;kwindowsystem</title>
<path fill="none" stroke="black" d="M980.68,-215.74C973.71,-196.02 959.84,-163.92 938.09,-144 921.3,-128.62 899.35,-117.25 878.66,-109.08"/>
<polygon fill="black" stroke="black" points="879.99,-105.84 869.4,-105.62 877.54,-112.4 879.99,-105.84"/>
</g>
<!-- kglobalaccel -->
<g id="node12" class="node">
<title>kglobalaccel</title>
<g id="a_node12"><a xlink:href="https://github.com/conda-forge/kglobalaccel-feedstock" xlink:title="kglobalaccel">
<ellipse fill="#fde725" stroke="black" cx="815.09" cy="-18" rx="72.78" ry="18"/>
<text text-anchor="middle" x="815.09" y="-13.32" font-family="Times,serif" font-size="14.00">kglobalaccel</text>
</a>
</g>
</g>
<!-- qt&#45;main&#45;&gt;kglobalaccel -->
<g id="edge15" class="edge">
<title>qt&#45;main&#45;&gt;kglobalaccel</title>
<path fill="none" stroke="black" d="M984.24,-215.63C981.82,-197.22 976.58,-167.58 966.09,-144 950.15,-108.17 944.55,-97.88 915.09,-72 899.67,-58.45 880.17,-47.13 862.5,-38.48"/>
<polygon fill="black" stroke="black" points="864.26,-35.44 853.72,-34.34 861.28,-41.77 864.26,-35.44"/>
</g>
<!-- qt6&#45;advanced&#45;docking&#45;system -->
<g id="node13" class="node">
<title>qt6&#45;advanced&#45;docking&#45;system</title>
<g id="a_node13"><a xlink:href="https://github.com/conda-forge/qt6-advanced-docking-system-feedstock" xlink:title="qt6 advanced docking system">
<ellipse fill="#fde725" stroke="black" cx="769.09" cy="-162" rx="159.59" ry="18"/>
<text text-anchor="middle" x="769.09" y="-157.32" font-family="Times,serif" font-size="14.00">qt6 advanced docking system</text>
</a>
</g>
</g>
<!-- qt&#45;main&#45;&gt;qt6&#45;advanced&#45;docking&#45;system -->
<g id="edge16" class="edge">
<title>qt&#45;main&#45;&gt;qt6&#45;advanced&#45;docking&#45;system</title>
<path fill="none" stroke="black" d="M949.77,-221.28C917.34,-210.82 869.18,-195.29 830.73,-182.89"/>
<polygon fill="black" stroke="black" points="832.2,-179.68 821.61,-179.94 830.05,-186.34 832.2,-179.68"/>
</g>
<!-- adwaita&#45;qt -->
<g id="node14" class="node">
<title>adwaita&#45;qt</title>
<g id="a_node14"><a xlink:href="https://github.com/conda-forge/adwaita-qt-feedstock" xlink:title="adwaita qt">
<ellipse fill="#fde725" stroke="black" cx="1087.09" cy="-90" rx="64.36" ry="18"/>
<text text-anchor="middle" x="1087.09" y="-85.33" font-family="Times,serif" font-size="14.00">adwaita qt</text>
</a>
</g>
</g>
<!-- qt&#45;main&#45;&gt;adwaita&#45;qt -->
<g id="edge17" class="edge">
<title>qt&#45;main&#45;&gt;adwaita&#45;qt</title>
<path fill="none" stroke="black" d="M998.07,-216.15C1015.54,-191.6 1048.13,-145.77 1068.66,-116.91"/>
<polygon fill="black" stroke="black" points="1071.3,-119.24 1074.24,-109.06 1065.6,-115.18 1071.3,-119.24"/>
</g>
<!-- qt&#45;webengine&#45;&gt;kwindowsystem -->
<g id="edge18" class="edge">
<title>qt&#45;webengine&#45;&gt;kwindowsystem</title>
<path fill="none" stroke="black" d="M566.26,-148.49C616.66,-136.84 691.99,-119.44 746.56,-106.83"/>
<polygon fill="black" stroke="black" points="747.09,-110.3 756.05,-104.64 745.52,-103.48 747.09,-110.3"/>
</g>
<!-- qt&#45;webengine&#45;&gt;kglobalaccel -->
<g id="edge19" class="edge">
<title>qt&#45;webengine&#45;&gt;kglobalaccel</title>
<path fill="none" stroke="black" d="M545.67,-145.26C601.02,-119.32 711.32,-67.63 772.22,-39.09"/>
<polygon fill="black" stroke="black" points="773.34,-42.43 780.91,-35.02 770.37,-36.09 773.34,-42.43"/>
</g>
<!-- kwindowsystem&#45;&gt;kglobalaccel -->
<g id="edge32" class="edge">
<title>kwindowsystem&#45;&gt;kglobalaccel</title>
<path fill="none" stroke="black" d="M815.09,-71.7C815.09,-64.41 815.09,-55.73 815.09,-47.54"/>
<polygon fill="black" stroke="black" points="818.59,-47.62 815.09,-37.62 811.59,-47.62 818.59,-47.62"/>
</g>
<!-- gstreamer -->
<g id="node15" class="node">
<title>gstreamer</title>
<g id="a_node15"><a xlink:href="https://github.com/conda-forge/gstreamer-feedstock" xlink:title="gstreamer">
<ellipse fill="#35b779" stroke="black" cx="493.09" cy="-306" rx="63.31" ry="18"/>
<text text-anchor="middle" x="493.09" y="-301.32" font-family="Times,serif" font-size="14.00">gstreamer</text>
</a>
</g>
</g>
<!-- gstreamer&#45;&gt;qt&#45;main -->
<g id="edge20" class="edge">
<title>gstreamer&#45;&gt;qt&#45;main</title>
<path fill="none" stroke="black" d="M548.68,-297.11C643.18,-283.69 834.11,-256.58 929.37,-243.05"/>
<polygon fill="black" stroke="black" points="929.59,-246.56 939,-241.69 928.61,-239.63 929.59,-246.56"/>
</g>
<!-- gstreamer&#45;&gt;qt&#45;webengine -->
<g id="edge21" class="edge">
<title>gstreamer&#45;&gt;qt&#45;webengine</title>
<path fill="none" stroke="black" d="M495.42,-287.59C498.63,-263.61 504.44,-220.14 508.29,-191.42"/>
<polygon fill="black" stroke="black" points="511.74,-191.99 509.6,-181.61 504.8,-191.06 511.74,-191.99"/>
</g>
<!-- gst&#45;plugins&#45;ugly -->
<g id="node16" class="node">
<title>gst&#45;plugins&#45;ugly</title>
<g id="a_node16"><a xlink:href="https://github.com/conda-forge/gst-plugins-ugly-feedstock" xlink:title="gst plugins ugly">
<ellipse fill="#fde725" stroke="black" cx="354.09" cy="-234" rx="91.72" ry="18"/>
<text text-anchor="middle" x="354.09" y="-229.32" font-family="Times,serif" font-size="14.00">gst plugins ugly</text>
</a>
</g>
</g>
<!-- gstreamer&#45;&gt;gst&#45;plugins&#45;ugly -->
<g id="edge22" class="edge">
<title>gstreamer&#45;&gt;gst&#45;plugins&#45;ugly</title>
<path fill="none" stroke="black" d="M462.93,-289.81C443.44,-280 417.8,-267.09 396.3,-256.26"/>
<polygon fill="black" stroke="black" points="397.98,-253.19 387.48,-251.81 394.83,-259.44 397.98,-253.19"/>
</g>
<!-- gst&#45;plugins&#45;bad -->
<g id="node17" class="node">
<title>gst&#45;plugins&#45;bad</title>
<g id="a_node17"><a xlink:href="https://github.com/conda-forge/gst-plugins-bad-feedstock" xlink:title="gst plugins bad">
<ellipse fill="#fde725" stroke="black" cx="326.09" cy="-162" rx="88.56" ry="18"/>
<text text-anchor="middle" x="326.09" y="-157.32" font-family="Times,serif" font-size="14.00">gst plugins bad</text>
</a>
</g>
</g>
<!-- gstreamer&#45;&gt;gst&#45;plugins&#45;bad -->
<g id="edge23" class="edge">
<title>gstreamer&#45;&gt;gst&#45;plugins&#45;bad</title>
<path fill="none" stroke="black" d="M489.83,-287.71C485.27,-267.96 475.18,-235.82 455.09,-216 438.35,-199.49 415.75,-187.88 394.15,-179.83"/>
<polygon fill="black" stroke="black" points="395.34,-176.54 384.74,-176.54 393.03,-183.15 395.34,-176.54"/>
</g>
<!-- libglu -->
<g id="node18" class="node">
<title>libglu</title>
<g id="a_node18"><a xlink:href="https://github.com/conda-forge/libglu-feedstock" xlink:title="libglu">
<ellipse fill="#35b779" stroke="black" cx="1409.09" cy="-306" rx="39.63" ry="18"/>
<text text-anchor="middle" x="1409.09" y="-301.32" font-family="Times,serif" font-size="14.00">libglu</text>
</a>
</g>
</g>
<!-- libglu&#45;&gt;vtk -->
<g id="edge24" class="edge">
<title>libglu&#45;&gt;vtk</title>
<path fill="none" stroke="black" d="M1442.93,-296.38C1454.66,-293.53 1467.91,-290.46 1480.09,-288 1528,-278.3 1665.48,-289.29 1697.09,-252 1716.03,-229.65 1689.11,-200.98 1665.72,-182.31"/>
<polygon fill="black" stroke="black" points="1667.99,-179.64 1657.92,-176.36 1663.75,-185.21 1667.99,-179.64"/>
</g>
<!-- libglu&#45;&gt;gazebo -->
<g id="edge25" class="edge">
<title>libglu&#45;&gt;gazebo</title>
<path fill="none" stroke="black" d="M1385.5,-291.3C1372.11,-282.09 1356.57,-268.6 1349.09,-252 1342.51,-237.41 1342.51,-230.59 1349.09,-216 1354.7,-203.55 1364.84,-192.86 1375.21,-184.4"/>
<polygon fill="black" stroke="black" points="1377.19,-187.29 1383.06,-178.47 1372.97,-181.7 1377.19,-187.29"/>
</g>
<!-- libglu&#45;&gt;colmap -->
<g id="edge28" class="edge">
<title>libglu&#45;&gt;colmap</title>
<path fill="none" stroke="black" d="M1385.67,-291.1C1371.1,-281.54 1352.79,-267.76 1340.09,-252 1325.35,-233.71 1314.33,-209.4 1307.28,-190.81"/>
<polygon fill="black" stroke="black" points="1310.61,-189.72 1303.93,-181.5 1304.03,-192.1 1310.61,-189.72"/>
</g>
<!-- freeglut -->
<g id="node19" class="node">
<title>freeglut</title>
<g id="a_node19"><a xlink:href="https://github.com/conda-forge/freeglut-feedstock" xlink:title="freeglut">
<ellipse fill="#fde725" stroke="black" cx="1409.09" cy="-234" rx="51.21" ry="18"/>
<text text-anchor="middle" x="1409.09" y="-229.32" font-family="Times,serif" font-size="14.00">freeglut</text>
</a>
</g>
</g>
<!-- libglu&#45;&gt;freeglut -->
<g id="edge26" class="edge">
<title>libglu&#45;&gt;freeglut</title>
<path fill="none" stroke="black" d="M1409.09,-287.7C1409.09,-280.41 1409.09,-271.73 1409.09,-263.54"/>
<polygon fill="black" stroke="black" points="1412.59,-263.62 1409.09,-253.62 1405.59,-263.62 1412.59,-263.62"/>
</g>
<!-- fltk -->
<g id="node20" class="node">
<title>fltk</title>
<g id="a_node20"><a xlink:href="https://github.com/conda-forge/fltk-feedstock" xlink:title="fltk">
<ellipse fill="#fde725" stroke="black" cx="1754.09" cy="-162" rx="27.53" ry="18"/>
<text text-anchor="middle" x="1754.09" y="-157.32" font-family="Times,serif" font-size="14.00">fltk</text>
</a>
</g>
</g>
<!-- libglu&#45;&gt;fltk -->
<g id="edge27" class="edge">
<title>libglu&#45;&gt;fltk</title>
<path fill="none" stroke="black" d="M1442.91,-296.3C1454.64,-293.44 1467.9,-290.39 1480.09,-288 1583.34,-267.73 1630.36,-315.72 1714.09,-252 1733.36,-237.34 1743.58,-211.3 1748.85,-191.16"/>
<polygon fill="black" stroke="black" points="1752.22,-192.12 1751.07,-181.59 1745.4,-190.54 1752.22,-192.12"/>
</g>
<!-- freeglut&#45;&gt;gazebo -->
<g id="edge29" class="edge">
<title>freeglut&#45;&gt;gazebo</title>
<path fill="none" stroke="black" d="M1409.09,-215.7C1409.09,-208.41 1409.09,-199.73 1409.09,-191.54"/>
<polygon fill="black" stroke="black" points="1412.59,-191.62 1409.09,-181.62 1405.59,-191.62 1412.59,-191.62"/>
</g>
<!-- mesalib -->
<g id="node21" class="node">
<title>mesalib</title>
<g id="a_node21"><a xlink:href="https://github.com/conda-forge/mesalib-feedstock" xlink:title="mesalib">
<ellipse fill="#35b779" stroke="black" cx="1638.09" cy="-234" rx="50.16" ry="18"/>
<text text-anchor="middle" x="1638.09" y="-229.32" font-family="Times,serif" font-size="14.00">mesalib</text>
</a>
</g>
</g>
<!-- mesalib&#45;&gt;vtk -->
<g id="edge30" class="edge">
<title>mesalib&#45;&gt;vtk</title>
<path fill="none" stroke="black" d="M1638.09,-215.7C1638.09,-208.41 1638.09,-199.73 1638.09,-191.54"/>
<polygon fill="black" stroke="black" points="1641.59,-191.62 1638.09,-181.62 1634.59,-191.62 1641.59,-191.62"/>
</g>
<!-- libva -->
<g id="node22" class="node">
<title>libva</title>
<g id="a_node22"><a xlink:href="https://github.com/conda-forge/libva-feedstock" xlink:title="libva">
<ellipse fill="#35b779" stroke="black" cx="1524.09" cy="-306" rx="35.42" ry="18"/>
<text text-anchor="middle" x="1524.09" y="-301.32" font-family="Times,serif" font-size="14.00">libva</text>
</a>
</g>
</g>
<!-- libva&#45;&gt;ffmpeg -->
<g id="edge31" class="edge">
<title>libva&#45;&gt;ffmpeg</title>
<path fill="none" stroke="black" d="M1524.09,-287.7C1524.09,-280.41 1524.09,-271.73 1524.09,-263.54"/>
<polygon fill="black" stroke="black" points="1527.59,-263.62 1524.09,-253.62 1520.59,-263.62 1527.59,-263.62"/>
</g>
<!-- xcb&#45;util&#45;image -->
<g id="node23" class="node">
<title>xcb&#45;util&#45;image</title>
<g id="a_node23"><a xlink:href="https://github.com/conda-forge/xcb-util-image-feedstock" xlink:title="xcb util image">
<ellipse fill="#35b779" stroke="black" cx="160.09" cy="-306" rx="82.25" ry="18"/>
<text text-anchor="middle" x="160.09" y="-301.32" font-family="Times,serif" font-size="14.00">xcb util image</text>
</a>
</g>
</g>
<!-- xcb&#45;util&#45;image&#45;&gt;qt&#45;main -->
<g id="edge33" class="edge">
<title>xcb&#45;util&#45;image&#45;&gt;qt&#45;main</title>
<path fill="none" stroke="black" d="M235.58,-298.6C398.44,-284.8 779.9,-252.47 926.89,-240.02"/>
<polygon fill="black" stroke="black" points="927.13,-243.51 936.8,-239.18 926.54,-236.53 927.13,-243.51"/>
</g>
<!-- xcb&#45;util&#45;cursor -->
<g id="node24" class="node">
<title>xcb&#45;util&#45;cursor</title>
<g id="a_node24"><a xlink:href="https://github.com/conda-forge/xcb-util-cursor-feedstock" xlink:title="xcb util cursor">
<ellipse fill="#fde725" stroke="black" cx="160.09" cy="-234" rx="83.83" ry="18"/>
<text text-anchor="middle" x="160.09" y="-229.32" font-family="Times,serif" font-size="14.00">xcb util cursor</text>
</a>
</g>
</g>
<!-- xcb&#45;util&#45;image&#45;&gt;xcb&#45;util&#45;cursor -->
<g id="edge34" class="edge">
<title>xcb&#45;util&#45;image&#45;&gt;xcb&#45;util&#45;cursor</title>
<path fill="none" stroke="black" d="M160.09,-287.7C160.09,-280.41 160.09,-271.73 160.09,-263.54"/>
<polygon fill="black" stroke="black" points="163.59,-263.62 160.09,-253.62 156.59,-263.62 163.59,-263.62"/>
</g>
<!-- nsight&#45;compute -->
<g id="node25" class="node">
<title>nsight&#45;compute</title>
<g id="a_node25"><a xlink:href="https://github.com/conda-forge/nsight-compute-feedstock" xlink:title="nsight compute">
<ellipse fill="#fde725" stroke="black" cx="89.09" cy="-162" rx="89.09" ry="18"/>
<text text-anchor="middle" x="89.09" y="-157.32" font-family="Times,serif" font-size="14.00">nsight compute</text>
</a>
</g>
</g>
<!-- xcb&#45;util&#45;image&#45;&gt;nsight&#45;compute -->
<g id="edge35" class="edge">
<title>xcb&#45;util&#45;image&#45;&gt;nsight&#45;compute</title>
<path fill="none" stroke="black" d="M114.84,-290.64C96.65,-282.39 77.55,-270 67.09,-252 56.06,-233.02 63.3,-208.66 72.33,-190.22"/>
<polygon fill="black" stroke="black" points="75.38,-191.94 77.01,-181.47 69.21,-188.64 75.38,-191.94"/>
</g>
<!-- xcb&#45;util&#45;cursor&#45;&gt;nsight&#45;compute -->
<g id="edge36" class="edge">
<title>xcb&#45;util&#45;cursor&#45;&gt;nsight&#45;compute</title>
<path fill="none" stroke="black" d="M142.9,-216.05C134.27,-207.54 123.64,-197.07 114.12,-187.68"/>
<polygon fill="black" stroke="black" points="116.77,-185.38 107.2,-180.85 111.86,-190.36 116.77,-185.38"/>
</g>
<!-- vulkan&#45;loader -->
<g id="node26" class="node">
<title>vulkan&#45;loader</title>
<g id="a_node26"><a xlink:href="https://github.com/conda-forge/vulkan-loader-feedstock" xlink:title="vulkan loader">
<ellipse fill="#35b779" stroke="black" cx="1868.09" cy="-198" rx="79.09" ry="18"/>
<text text-anchor="middle" x="1868.09" y="-193.32" font-family="Times,serif" font-size="14.00">vulkan loader</text>
</a>
</g>
</g>
<!-- vulkan&#45;tools -->
<g id="node27" class="node">
<title>vulkan&#45;tools</title>
<g id="a_node27"><a xlink:href="https://github.com/conda-forge/vulkan-tools-feedstock" xlink:title="vulkan tools">
<ellipse fill="#fde725" stroke="black" cx="1868.09" cy="-126" rx="71.73" ry="18"/>
<text text-anchor="middle" x="1868.09" y="-121.33" font-family="Times,serif" font-size="14.00">vulkan tools</text>
</a>
</g>
</g>
<!-- vulkan&#45;loader&#45;&gt;vulkan&#45;tools -->
<g id="edge37" class="edge">
<title>vulkan&#45;loader&#45;&gt;vulkan&#45;tools</title>
<path fill="none" stroke="black" d="M1868.09,-179.7C1868.09,-172.41 1868.09,-163.73 1868.09,-155.54"/>
<polygon fill="black" stroke="black" points="1871.59,-155.62 1868.09,-145.62 1864.59,-155.62 1871.59,-155.62"/>
</g>
</g>
</svg>
