<?xml version="1.0" encoding="UTF-8" standalone="no"?>
<!DOCTYPE svg PUBLIC "-//W3C//DTD SVG 1.1//EN"
 "http://www.w3.org/Graphics/SVG/1.1/DTD/svg11.dtd">
<!-- Generated by graphviz version 11.0.0 (20240519.1550)
 -->
<!-- Pages: 1 -->
<svg width="2715pt" height="404pt"
 viewBox="0.00 0.00 2715.10 404.00" xmlns="http://www.w3.org/2000/svg" xmlns:xlink="http://www.w3.org/1999/xlink">
<g id="graph0" class="graph" transform="scale(1 1) rotate(0) translate(4 400)">
<polygon fill="white" stroke="none" points="-4,4 -4,-400 2711.1,-400 2711.1,4 -4,4"/>
<!-- cairo -->
<g id="node1" class="node">
<title>cairo</title>
<g id="a_node1"><a xlink:href="https://github.com/conda-forge/cairo-feedstock" xlink:title="cairo">
<ellipse fill="#fde725" stroke="black" cx="1255" cy="-306" rx="35.95" ry="18"/>
<text text-anchor="middle" x="1255" y="-301.32" font-family="Times,serif" font-size="14.00">cairo</text>
</a>
</g>
</g>
<!-- ffmpeg -->
<g id="node2" class="node">
<title>ffmpeg</title>
<g id="a_node2"><a xlink:href="https://github.com/conda-forge/ffmpeg-feedstock" xlink:title="ffmpeg">
<ellipse fill="#fde725" stroke="black" cx="2202" cy="-162" rx="45.95" ry="18"/>
<text text-anchor="middle" x="2202" y="-157.32" font-family="Times,serif" font-size="14.00">ffmpeg</text>
</a>
</g>
</g>
<!-- cairo&#45;&gt;ffmpeg -->
<g id="edge1" class="edge">
<title>cairo&#45;&gt;ffmpeg</title>
<path fill="none" stroke="black" d="M1281.55,-293.71C1337.37,-270.01 1462.17,-217.11 1467,-216 1762.44,-148.34 1849.75,-233.93 2148,-180 2151.22,-179.42 2154.51,-178.7 2157.81,-177.89"/>
<polygon fill="black" stroke="black" points="2158.73,-181.27 2167.46,-175.26 2156.89,-174.52 2158.73,-181.27"/>
</g>
<!-- gnuplot -->
<g id="node3" class="node">
<title>gnuplot</title>
<g id="a_node3"><a xlink:href="https://github.com/conda-forge/gnuplot-feedstock" xlink:title="gnuplot">
<ellipse fill="#fde725" stroke="black" cx="1526" cy="-162" rx="49.63" ry="18"/>
<text text-anchor="middle" x="1526" y="-157.32" font-family="Times,serif" font-size="14.00">gnuplot</text>
</a>
</g>
</g>
<!-- cairo&#45;&gt;gnuplot -->
<g id="edge2" class="edge">
<title>cairo&#45;&gt;gnuplot</title>
<path fill="none" stroke="black" d="M1274.89,-290.87C1301.6,-272.25 1350.95,-239.17 1396,-216 1423.4,-201.9 1455.45,-188.8 1480.87,-179.15"/>
<polygon fill="black" stroke="black" points="1481.77,-182.55 1489.9,-175.77 1479.31,-176 1481.77,-182.55"/>
</g>
<!-- lyx -->
<g id="node4" class="node">
<title>lyx</title>
<g id="a_node4"><a xlink:href="https://github.com/conda-forge/lyx-feedstock" xlink:title="lyx">
<ellipse fill="#fde725" stroke="black" cx="1255" cy="-162" rx="27" ry="18"/>
<text text-anchor="middle" x="1255" y="-157.32" font-family="Times,serif" font-size="14.00">lyx</text>
</a>
</g>
</g>
<!-- cairo&#45;&gt;lyx -->
<g id="edge3" class="edge">
<title>cairo&#45;&gt;lyx</title>
<path fill="none" stroke="black" d="M1263.9,-288.35C1268.83,-278.17 1274.47,-264.7 1277,-252 1280.13,-236.31 1280.13,-231.69 1277,-216 1275.21,-207.03 1271.88,-197.68 1268.34,-189.38"/>
<polygon fill="black" stroke="black" points="1271.65,-188.2 1264.3,-180.56 1265.28,-191.11 1271.65,-188.2"/>
</g>
<!-- qt&#45;main -->
<g id="node5" class="node">
<title>qt&#45;main</title>
<g id="a_node5"><a xlink:href="https://github.com/conda-forge/qt-main-feedstock" xlink:title="qt main">
<ellipse fill="#fde725" stroke="black" cx="1000" cy="-234" rx="49.63" ry="18"/>
<text text-anchor="middle" x="1000" y="-229.32" font-family="Times,serif" font-size="14.00">qt main</text>
</a>
</g>
</g>
<!-- cairo&#45;&gt;qt&#45;main -->
<g id="edge4" class="edge">
<title>cairo&#45;&gt;qt&#45;main</title>
<path fill="none" stroke="black" d="M1223.99,-296.49C1180.58,-284.57 1101.25,-262.8 1049.59,-248.61"/>
<polygon fill="black" stroke="black" points="1050.72,-245.29 1040.15,-246.02 1048.87,-252.05 1050.72,-245.29"/>
</g>
<!-- qt&#45;webengine -->
<g id="node6" class="node">
<title>qt&#45;webengine</title>
<g id="a_node6"><a xlink:href="https://github.com/conda-forge/qt-webengine-feedstock" xlink:title="qt webengine">
<ellipse fill="#fde725" stroke="black" cx="1379" cy="-162" rx="79.09" ry="18"/>
<text text-anchor="middle" x="1379" y="-157.32" font-family="Times,serif" font-size="14.00">qt webengine</text>
</a>
</g>
</g>
<!-- cairo&#45;&gt;qt&#45;webengine -->
<g id="edge5" class="edge">
<title>cairo&#45;&gt;qt&#45;webengine</title>
<path fill="none" stroke="black" d="M1226.33,-294.88C1207.47,-286.54 1184.27,-272.69 1173,-252 1165.35,-237.95 1163.2,-228.64 1173,-216 1181.6,-204.9 1252.71,-188.28 1309.01,-176.62"/>
<polygon fill="black" stroke="black" points="1309.47,-180.1 1318.56,-174.66 1308.06,-173.24 1309.47,-180.1"/>
</g>
<!-- silicon -->
<g id="node7" class="node">
<title>silicon</title>
<g id="a_node7"><a xlink:href="https://github.com/conda-forge/silicon-feedstock" xlink:title="silicon">
<ellipse fill="#fde725" stroke="black" cx="1225" cy="-234" rx="43.32" ry="18"/>
<text text-anchor="middle" x="1225" y="-229.32" font-family="Times,serif" font-size="14.00">silicon</text>
</a>
</g>
</g>
<!-- cairo&#45;&gt;silicon -->
<g id="edge6" class="edge">
<title>cairo&#45;&gt;silicon</title>
<path fill="none" stroke="black" d="M1247.74,-288.05C1244.42,-280.32 1240.41,-270.96 1236.69,-262.27"/>
<polygon fill="black" stroke="black" points="1239.95,-260.99 1232.79,-253.18 1233.51,-263.75 1239.95,-260.99"/>
</g>
<!-- vtk -->
<g id="node8" class="node">
<title>vtk</title>
<g id="a_node8"><a xlink:href="https://github.com/conda-forge/vtk-feedstock" xlink:title="vtk">
<ellipse fill="#fde725" stroke="black" cx="2239" cy="-90" rx="27.01" ry="18"/>
<text text-anchor="middle" x="2239" y="-85.33" font-family="Times,serif" font-size="14.00">vtk</text>
</a>
</g>
</g>
<!-- ffmpeg&#45;&gt;vtk -->
<g id="edge7" class="edge">
<title>ffmpeg&#45;&gt;vtk</title>
<path fill="none" stroke="black" d="M2210.96,-144.05C2215.2,-136.03 2220.36,-126.26 2225.1,-117.3"/>
<polygon fill="black" stroke="black" points="2228.09,-119.12 2229.67,-108.65 2221.91,-115.85 2228.09,-119.12"/>
</g>
<!-- gazebo -->
<g id="node9" class="node">
<title>gazebo</title>
<g id="a_node9"><a xlink:href="https://github.com/conda-forge/gazebo-feedstock" xlink:title="gazebo">
<ellipse fill="#fde725" stroke="black" cx="1938" cy="-90" rx="46.47" ry="18"/>
<text text-anchor="middle" x="1938" y="-85.33" font-family="Times,serif" font-size="14.00">gazebo</text>
</a>
</g>
</g>
<!-- ffmpeg&#45;&gt;gazebo -->
<g id="edge8" class="edge">
<title>ffmpeg&#45;&gt;gazebo</title>
<path fill="none" stroke="black" d="M2167.52,-149.82C2161.05,-147.82 2154.34,-145.8 2148,-144 2093.54,-128.57 2030.51,-112.96 1987.82,-102.71"/>
<polygon fill="black" stroke="black" points="1988.9,-99.37 1978.36,-100.45 1987.27,-106.18 1988.9,-99.37"/>
</g>
<!-- qt&#45;main&#45;&gt;gnuplot -->
<g id="edge9" class="edge">
<title>qt&#45;main&#45;&gt;gnuplot</title>
<path fill="none" stroke="black" d="M1047.36,-228.08C1157.86,-216.54 1426.49,-188.08 1467,-180 1470.77,-179.25 1474.66,-178.37 1478.54,-177.42"/>
<polygon fill="black" stroke="black" points="1479.16,-180.87 1487.95,-174.95 1477.39,-174.1 1479.16,-180.87"/>
</g>
<!-- qt&#45;main&#45;&gt;lyx -->
<g id="edge10" class="edge">
<title>qt&#45;main&#45;&gt;lyx</title>
<path fill="none" stroke="black" d="M1038.88,-222.51C1047.16,-220.32 1055.86,-218.06 1064,-216 1130.47,-199.2 1148.8,-201.2 1214,-180 1216.76,-179.1 1219.59,-178.1 1222.42,-177.05"/>
<polygon fill="black" stroke="black" points="1223.69,-180.31 1231.7,-173.38 1221.12,-173.8 1223.69,-180.31"/>
</g>
<!-- qt&#45;main&#45;&gt;qt&#45;webengine -->
<g id="edge11" class="edge">
<title>qt&#45;main&#45;&gt;qt&#45;webengine</title>
<path fill="none" stroke="black" d="M1043.9,-225.15C1100.9,-214.94 1203.43,-196.43 1291,-180 1296.93,-178.89 1303.07,-177.72 1309.24,-176.55"/>
<polygon fill="black" stroke="black" points="1309.67,-180.03 1318.83,-174.71 1308.35,-173.15 1309.67,-180.03"/>
</g>
<!-- qt&#45;main&#45;&gt;gazebo -->
<g id="edge12" class="edge">
<title>qt&#45;main&#45;&gt;gazebo</title>
<path fill="none" stroke="black" d="M1038.43,-222.32C1086.42,-208.83 1163.75,-186.61 1176,-180 1197.94,-168.17 1195.9,-153.37 1219,-144 1338.54,-95.52 1731.73,-90.75 1880.38,-90.73"/>
<polygon fill="black" stroke="black" points="1879.98,-94.23 1889.98,-90.74 1879.98,-87.23 1879.98,-94.23"/>
</g>
<!-- colmap -->
<g id="node10" class="node">
<title>colmap</title>
<g id="a_node10"><a xlink:href="https://github.com/conda-forge/colmap-feedstock" xlink:title="colmap">
<ellipse fill="#fde725" stroke="black" cx="1822" cy="-162" rx="47" ry="18"/>
<text text-anchor="middle" x="1822" y="-157.32" font-family="Times,serif" font-size="14.00">colmap</text>
</a>
</g>
</g>
<!-- qt&#45;main&#45;&gt;colmap -->
<g id="edge13" class="edge">
<title>qt&#45;main&#45;&gt;colmap</title>
<path fill="none" stroke="black" d="M1047.34,-228.14C1082.1,-224.62 1130.47,-219.83 1173,-216 1391.31,-196.36 1651.21,-176.07 1764.48,-167.38"/>
<polygon fill="black" stroke="black" points="1764.73,-170.87 1774.44,-166.61 1764.2,-163.89 1764.73,-170.87"/>
</g>
<!-- kwindowsystem -->
<g id="node11" class="node">
<title>kwindowsystem</title>
<g id="a_node11"><a xlink:href="https://github.com/conda-forge/kwindowsystem-feedstock" xlink:title="kwindowsystem">
<ellipse fill="#fde725" stroke="black" cx="693" cy="-90" rx="91.19" ry="18"/>
<text text-anchor="middle" x="693" y="-85.33" font-family="Times,serif" font-size="14.00">kwindowsystem</text>
</a>
</g>
</g>
<!-- qt&#45;main&#45;&gt;kwindowsystem -->
<g id="edge14" class="edge">
<title>qt&#45;main&#45;&gt;kwindowsystem</title>
<path fill="none" stroke="black" d="M950.61,-230.92C900.93,-226.82 823.75,-214.83 767,-180 742.09,-164.71 721.6,-138.07 708.55,-117.91"/>
<polygon fill="black" stroke="black" points="711.64,-116.26 703.39,-109.62 705.7,-119.96 711.64,-116.26"/>
</g>
<!-- kglobalaccel -->
<g id="node12" class="node">
<title>kglobalaccel</title>
<g id="a_node12"><a xlink:href="https://github.com/conda-forge/kglobalaccel-feedstock" xlink:title="kglobalaccel">
<ellipse fill="#fde725" stroke="black" cx="693" cy="-18" rx="72.78" ry="18"/>
<text text-anchor="middle" x="693" y="-13.32" font-family="Times,serif" font-size="14.00">kglobalaccel</text>
</a>
</g>
</g>
<!-- qt&#45;main&#45;&gt;kglobalaccel -->
<g id="edge15" class="edge">
<title>qt&#45;main&#45;&gt;kglobalaccel</title>
<path fill="none" stroke="black" d="M1035.82,-221.07C1067.05,-210.01 1109.15,-193.32 1121,-180 1153.57,-143.41 1175.55,-108.61 1143,-72 1119.05,-45.06 898.74,-29.53 775.51,-22.88"/>
<polygon fill="black" stroke="black" points="775.94,-19.4 765.77,-22.36 775.57,-26.39 775.94,-19.4"/>
</g>
<!-- qt6&#45;advanced&#45;docking&#45;system -->
<g id="node13" class="node">
<title>qt6&#45;advanced&#45;docking&#45;system</title>
<g id="a_node13"><a xlink:href="https://github.com/conda-forge/qt6-advanced-docking-system-feedstock" xlink:title="qt6 advanced docking system">
<ellipse fill="#fde725" stroke="black" cx="936" cy="-162" rx="159.59" ry="18"/>
<text text-anchor="middle" x="936" y="-157.32" font-family="Times,serif" font-size="14.00">qt6 advanced docking system</text>
</a>
</g>
</g>
<!-- qt&#45;main&#45;&gt;qt6&#45;advanced&#45;docking&#45;system -->
<g id="edge16" class="edge">
<title>qt&#45;main&#45;&gt;qt6&#45;advanced&#45;docking&#45;system</title>
<path fill="none" stroke="black" d="M984.83,-216.41C977.14,-207.99 967.62,-197.58 959.04,-188.2"/>
<polygon fill="black" stroke="black" points="961.85,-186.09 952.52,-181.07 956.69,-190.82 961.85,-186.09"/>
</g>
<!-- adwaita&#45;qt -->
<g id="node14" class="node">
<title>adwaita&#45;qt</title>
<g id="a_node14"><a xlink:href="https://github.com/conda-forge/adwaita-qt-feedstock" xlink:title="adwaita qt">
<ellipse fill="#fde725" stroke="black" cx="1070" cy="-90" rx="64.36" ry="18"/>
<text text-anchor="middle" x="1070" y="-85.33" font-family="Times,serif" font-size="14.00">adwaita qt</text>
</a>
</g>
</g>
<!-- qt&#45;main&#45;&gt;adwaita&#45;qt -->
<g id="edge17" class="edge">
<title>qt&#45;main&#45;&gt;adwaita&#45;qt</title>
<path fill="none" stroke="black" d="M1041.16,-223.55C1064.23,-215.92 1091.09,-202.61 1105,-180 1117.23,-160.13 1105.49,-135.26 1092.41,-116.87"/>
<polygon fill="black" stroke="black" points="1095.33,-114.93 1086.48,-109.1 1089.77,-119.17 1095.33,-114.93"/>
</g>
<!-- qt&#45;webengine&#45;&gt;kwindowsystem -->
<g id="edge18" class="edge">
<title>qt&#45;webengine&#45;&gt;kwindowsystem</title>
<path fill="none" stroke="black" d="M1322.34,-149.17C1311.94,-147.25 1301.17,-145.43 1291,-144 1115.52,-119.34 909.37,-104.06 790.68,-96.58"/>
<polygon fill="black" stroke="black" points="791.18,-93.1 780.98,-95.97 790.74,-100.09 791.18,-93.1"/>
</g>
<!-- qt&#45;webengine&#45;&gt;kglobalaccel -->
<g id="edge19" class="edge">
<title>qt&#45;webengine&#45;&gt;kglobalaccel</title>
<path fill="none" stroke="black" d="M1350.1,-144.96C1311.63,-124.4 1240.87,-89.34 1176,-72 1039.21,-35.43 874.15,-24.03 776.7,-20.52"/>
<polygon fill="black" stroke="black" points="777.08,-17.03 766.96,-20.19 776.84,-24.02 777.08,-17.03"/>
</g>
<!-- kwindowsystem&#45;&gt;kglobalaccel -->
<g id="edge54" class="edge">
<title>kwindowsystem&#45;&gt;kglobalaccel</title>
<path fill="none" stroke="black" d="M693,-71.7C693,-64.41 693,-55.73 693,-47.54"/>
<polygon fill="black" stroke="black" points="696.5,-47.62 693,-37.62 689.5,-47.62 696.5,-47.62"/>
</g>
<!-- gstreamer -->
<g id="node15" class="node">
<title>gstreamer</title>
<g id="a_node15"><a xlink:href="https://github.com/conda-forge/gstreamer-feedstock" xlink:title="gstreamer">
<ellipse fill="#fde725" stroke="black" cx="1372" cy="-306" rx="63.31" ry="18"/>
<text text-anchor="middle" x="1372" y="-301.32" font-family="Times,serif" font-size="14.00">gstreamer</text>
</a>
</g>
</g>
<!-- gstreamer&#45;&gt;qt&#45;main -->
<g id="edge20" class="edge">
<title>gstreamer&#45;&gt;qt&#45;main</title>
<path fill="none" stroke="black" d="M1325.22,-293.55C1316.84,-291.61 1308.18,-289.69 1300,-288 1215.33,-270.54 1116.47,-253.77 1056.06,-243.92"/>
<polygon fill="black" stroke="black" points="1056.8,-240.5 1046.37,-242.35 1055.68,-247.41 1056.8,-240.5"/>
</g>
<!-- gstreamer&#45;&gt;qt&#45;webengine -->
<g id="edge21" class="edge">
<title>gstreamer&#45;&gt;qt&#45;webengine</title>
<path fill="none" stroke="black" d="M1372.86,-287.59C1374.04,-263.61 1376.18,-220.14 1377.6,-191.42"/>
<polygon fill="black" stroke="black" points="1381.09,-191.78 1378.08,-181.62 1374.09,-191.44 1381.09,-191.78"/>
</g>
<!-- gst&#45;plugins&#45;ugly -->
<g id="node16" class="node">
<title>gst&#45;plugins&#45;ugly</title>
<g id="a_node16"><a xlink:href="https://github.com/conda-forge/gst-plugins-ugly-feedstock" xlink:title="gst plugins ugly">
<ellipse fill="#fde725" stroke="black" cx="1763" cy="-234" rx="91.72" ry="18"/>
<text text-anchor="middle" x="1763" y="-229.32" font-family="Times,serif" font-size="14.00">gst plugins ugly</text>
</a>
</g>
</g>
<!-- gstreamer&#45;&gt;gst&#45;plugins&#45;ugly -->
<g id="edge22" class="edge">
<title>gstreamer&#45;&gt;gst&#45;plugins&#45;ugly</title>
<path fill="none" stroke="black" d="M1424.33,-295.63C1491.46,-283.61 1608.47,-262.67 1685.84,-248.81"/>
<polygon fill="black" stroke="black" points="1686.24,-252.3 1695.46,-247.09 1685,-245.41 1686.24,-252.3"/>
</g>
<!-- gst&#45;plugins&#45;bad -->
<g id="node17" class="node">
<title>gst&#45;plugins&#45;bad</title>
<g id="a_node17"><a xlink:href="https://github.com/conda-forge/gst-plugins-bad-feedstock" xlink:title="gst plugins bad">
<ellipse fill="#fde725" stroke="black" cx="1565" cy="-234" rx="88.56" ry="18"/>
<text text-anchor="middle" x="1565" y="-229.32" font-family="Times,serif" font-size="14.00">gst plugins bad</text>
</a>
</g>
</g>
<!-- gstreamer&#45;&gt;gst&#45;plugins&#45;bad -->
<g id="edge23" class="edge">
<title>gstreamer&#45;&gt;gst&#45;plugins&#45;bad</title>
<path fill="none" stroke="black" d="M1410.13,-291.17C1439.35,-280.57 1479.99,-265.83 1512.31,-254.11"/>
<polygon fill="black" stroke="black" points="1513.3,-257.48 1521.51,-250.78 1510.91,-250.89 1513.3,-257.48"/>
</g>
<!-- libglu -->
<g id="node18" class="node">
<title>libglu</title>
<g id="a_node18"><a xlink:href="https://github.com/conda-forge/libglu-feedstock" xlink:title="libglu">
<ellipse fill="#fde725" stroke="black" cx="2027" cy="-234" rx="39.63" ry="18"/>
<text text-anchor="middle" x="2027" y="-229.32" font-family="Times,serif" font-size="14.00">libglu</text>
</a>
</g>
</g>
<!-- libglu&#45;&gt;vtk -->
<g id="edge24" class="edge">
<title>libglu&#45;&gt;vtk</title>
<path fill="none" stroke="black" d="M2031.76,-215.72C2038.14,-195.68 2051.37,-162.98 2074,-144 2110.4,-113.47 2164.68,-100.44 2200.92,-94.93"/>
<polygon fill="black" stroke="black" points="2201.09,-98.44 2210.51,-93.61 2200.13,-91.51 2201.09,-98.44"/>
</g>
<!-- libglu&#45;&gt;gazebo -->
<g id="edge25" class="edge">
<title>libglu&#45;&gt;gazebo</title>
<path fill="none" stroke="black" d="M2024.19,-215.75C2020.51,-196.91 2012.72,-166.41 1998,-144 1990.39,-132.41 1979.59,-121.8 1969.26,-113.17"/>
<polygon fill="black" stroke="black" points="1971.57,-110.54 1961.57,-107.07 1967.22,-116.03 1971.57,-110.54"/>
</g>
<!-- libglu&#45;&gt;colmap -->
<g id="edge28" class="edge">
<title>libglu&#45;&gt;colmap</title>
<path fill="none" stroke="black" d="M1995.86,-222.37C1961.54,-210.65 1906.01,-191.69 1866.96,-178.35"/>
<polygon fill="black" stroke="black" points="1868.2,-175.08 1857.6,-175.16 1865.93,-181.7 1868.2,-175.08"/>
</g>
<!-- freeglut -->
<g id="node19" class="node">
<title>freeglut</title>
<g id="a_node19"><a xlink:href="https://github.com/conda-forge/freeglut-feedstock" xlink:title="freeglut">
<ellipse fill="#fde725" stroke="black" cx="1938" cy="-162" rx="51.21" ry="18"/>
<text text-anchor="middle" x="1938" y="-157.32" font-family="Times,serif" font-size="14.00">freeglut</text>
</a>
</g>
</g>
<!-- libglu&#45;&gt;freeglut -->
<g id="edge26" class="edge">
<title>libglu&#45;&gt;freeglut</title>
<path fill="none" stroke="black" d="M2007.69,-217.81C1995.81,-208.47 1980.36,-196.31 1967.02,-185.83"/>
<polygon fill="black" stroke="black" points="1969.41,-183.25 1959.39,-179.82 1965.09,-188.76 1969.41,-183.25"/>
</g>
<!-- fltk -->
<g id="node20" class="node">
<title>fltk</title>
<g id="a_node20"><a xlink:href="https://github.com/conda-forge/fltk-feedstock" xlink:title="fltk">
<ellipse fill="#fde725" stroke="black" cx="2111" cy="-162" rx="27.53" ry="18"/>
<text text-anchor="middle" x="2111" y="-157.32" font-family="Times,serif" font-size="14.00">fltk</text>
</a>
</g>
</g>
<!-- libglu&#45;&gt;fltk -->
<g id="edge27" class="edge">
<title>libglu&#45;&gt;fltk</title>
<path fill="none" stroke="black" d="M2045.23,-217.81C2057.15,-207.88 2072.87,-194.77 2085.96,-183.87"/>
<polygon fill="black" stroke="black" points="2087.91,-186.8 2093.35,-177.7 2083.43,-181.42 2087.91,-186.8"/>
</g>
<!-- freeglut&#45;&gt;gazebo -->
<g id="edge29" class="edge">
<title>freeglut&#45;&gt;gazebo</title>
<path fill="none" stroke="black" d="M1938,-143.7C1938,-136.41 1938,-127.73 1938,-119.54"/>
<polygon fill="black" stroke="black" points="1941.5,-119.62 1938,-109.62 1934.5,-119.62 1941.5,-119.62"/>
</g>
<!-- mesalib -->
<g id="node21" class="node">
<title>mesalib</title>
<g id="a_node21"><a xlink:href="https://github.com/conda-forge/mesalib-feedstock" xlink:title="mesalib">
<ellipse fill="#fde725" stroke="black" cx="2337" cy="-306" rx="50.16" ry="18"/>
<text text-anchor="middle" x="2337" y="-301.32" font-family="Times,serif" font-size="14.00">mesalib</text>
</a>
</g>
</g>
<!-- mesalib&#45;&gt;vtk -->
<g id="edge30" class="edge">
<title>mesalib&#45;&gt;vtk</title>
<path fill="none" stroke="black" d="M2334.77,-287.96C2330.19,-257.37 2317.73,-191.87 2290,-144 2283.14,-132.16 2273.08,-120.94 2263.71,-111.9"/>
<polygon fill="black" stroke="black" points="2266.25,-109.48 2256.52,-105.28 2261.5,-114.63 2266.25,-109.48"/>
</g>
<!-- pillow -->
<g id="node22" class="node">
<title>pillow</title>
<g id="a_node22"><a xlink:href="https://github.com/conda-forge/pillow-feedstock/pull/154" xlink:title="pillow ✓">
<ellipse fill="#31688e" stroke="black" cx="2658" cy="-198" rx="49.1" ry="18"/>
<text text-anchor="middle" x="2658" y="-193.32" font-family="Times,serif" font-size="14.00" fill="white">pillow ✓</text>
</a>
</g>
</g>
<!-- xorg&#45;libx11 -->
<g id="node23" class="node">
<title>xorg&#45;libx11</title>
<g id="a_node23"><a xlink:href="https://github.com/conda-forge/xorg-libx11-feedstock/pull/39" xlink:title="xorg libx11 ✓">
<ellipse fill="#31688e" stroke="black" cx="1843" cy="-378" rx="75.94" ry="18"/>
<text text-anchor="middle" x="1843" y="-373.32" font-family="Times,serif" font-size="14.00" fill="white">xorg libx11 ✓</text>
</a>
</g>
</g>
<!-- xorg&#45;libx11&#45;&gt;cairo -->
<g id="edge31" class="edge">
<title>xorg&#45;libx11&#45;&gt;cairo</title>
<path fill="none" stroke="black" d="M1767.33,-375.88C1661.46,-372.91 1463.73,-362.21 1300,-324 1297.56,-323.43 1295.06,-322.76 1292.57,-322.02"/>
<polygon fill="black" stroke="black" points="1293.8,-318.74 1283.2,-318.91 1291.59,-325.38 1293.8,-318.74"/>
</g>
<!-- xorg&#45;libx11&#45;&gt;ffmpeg -->
<g id="edge32" class="edge">
<title>xorg&#45;libx11&#45;&gt;ffmpeg</title>
<path fill="none" stroke="black" d="M1919.06,-376.63C1981.24,-373.3 2069.57,-361.49 2137,-324 2174.68,-303.05 2186.52,-292.24 2202,-252 2209.38,-232.81 2209.09,-209.52 2207.11,-191.58"/>
<polygon fill="black" stroke="black" points="2210.6,-191.33 2205.78,-181.9 2203.67,-192.28 2210.6,-191.33"/>
</g>
<!-- xorg&#45;libx11&#45;&gt;gnuplot -->
<g id="edge33" class="edge">
<title>xorg&#45;libx11&#45;&gt;gnuplot</title>
<path fill="none" stroke="black" d="M1766.95,-376.57C1677.94,-371.44 1534.17,-347.73 1467,-252 1457.81,-238.9 1460.48,-230.61 1467,-216 1472.46,-203.74 1482.32,-193.14 1492.43,-184.7"/>
<polygon fill="black" stroke="black" points="1494.31,-187.68 1500.08,-178.79 1490.03,-182.14 1494.31,-187.68"/>
</g>
<!-- xorg&#45;libx11&#45;&gt;lyx -->
<g id="edge34" class="edge">
<title>xorg&#45;libx11&#45;&gt;lyx</title>
<path fill="none" stroke="black" d="M1767.22,-376.06C1599.3,-373.28 1207.14,-362.67 1162,-324 1125.1,-292.39 1119.15,-257.15 1145,-216 1149.51,-208.81 1191.42,-189.88 1222.17,-176.71"/>
<polygon fill="black" stroke="black" points="1223.27,-180.04 1231.11,-172.91 1220.54,-173.6 1223.27,-180.04"/>
</g>
<!-- xorg&#45;libx11&#45;&gt;qt&#45;main -->
<g id="edge35" class="edge">
<title>xorg&#45;libx11&#45;&gt;qt&#45;main</title>
<path fill="none" stroke="black" d="M1767.45,-375.5C1583.78,-371.33 1124.45,-357.63 1064,-324 1039.64,-310.45 1022.2,-283.27 1011.74,-262.49"/>
<polygon fill="black" stroke="black" points="1015.01,-261.22 1007.56,-253.69 1008.69,-264.22 1015.01,-261.22"/>
</g>
<!-- xorg&#45;libx11&#45;&gt;qt&#45;webengine -->
<g id="edge36" class="edge">
<title>xorg&#45;libx11&#45;&gt;qt&#45;webengine</title>
<path fill="none" stroke="black" d="M1768.08,-374.37C1610.86,-368.32 1257.07,-351.78 1210,-324 1164.76,-297.3 1129.56,-257.31 1162,-216 1166.77,-209.92 1249.76,-190.86 1311.69,-177.34"/>
<polygon fill="black" stroke="black" points="1312.09,-180.84 1321.12,-175.29 1310.61,-174 1312.09,-180.84"/>
</g>
<!-- xorg&#45;libx11&#45;&gt;vtk -->
<g id="edge37" class="edge">
<title>xorg&#45;libx11&#45;&gt;vtk</title>
<path fill="none" stroke="black" d="M1915.64,-372.36C1999.95,-365.78 2132.71,-351.38 2174,-324 2235.57,-283.18 2239.24,-251.7 2257,-180 2262.1,-159.41 2256.87,-135.89 2250.76,-118.19"/>
<polygon fill="black" stroke="black" points="2254.06,-117.03 2247.25,-108.91 2247.51,-119.51 2254.06,-117.03"/>
</g>
<!-- xorg&#45;libx11&#45;&gt;gazebo -->
<g id="edge38" class="edge">
<title>xorg&#45;libx11&#45;&gt;gazebo</title>
<path fill="none" stroke="black" d="M1852.33,-359.67C1867.96,-328.04 1894.82,-260.15 1864,-216 1837.44,-177.95 1792.56,-218.05 1766,-180 1756.84,-166.88 1756.5,-156.87 1766,-144 1792.01,-108.77 1841.1,-96.23 1880.2,-92.09"/>
<polygon fill="black" stroke="black" points="1880.29,-95.6 1889.95,-91.23 1879.68,-88.62 1880.29,-95.6"/>
</g>
<!-- xorg&#45;libx11&#45;&gt;colmap -->
<g id="edge45" class="edge">
<title>xorg&#45;libx11&#45;&gt;colmap</title>
<path fill="none" stroke="black" d="M1867.08,-360.56C1878.45,-351.3 1890.85,-338.66 1897,-324 1915.58,-279.74 1919.07,-258.62 1897,-216 1889.45,-201.42 1875.83,-189.99 1862.25,-181.54"/>
<polygon fill="black" stroke="black" points="1864.19,-178.61 1853.77,-176.66 1860.7,-184.68 1864.19,-178.61"/>
</g>
<!-- xorg&#45;libx11&#45;&gt;kwindowsystem -->
<g id="edge48" class="edge">
<title>xorg&#45;libx11&#45;&gt;kwindowsystem</title>
<path fill="none" stroke="black" d="M1767.21,-375.8C1591.81,-372.42 1162.28,-360.56 1023,-324 987.33,-314.64 748.55,-207.51 724,-180 709.01,-163.2 701.17,-138.73 697.14,-119.7"/>
<polygon fill="black" stroke="black" points="700.58,-119.08 695.31,-109.89 693.7,-120.36 700.58,-119.08"/>
</g>
<!-- xorg&#45;libx11&#45;&gt;kglobalaccel -->
<g id="edge49" class="edge">
<title>xorg&#45;libx11&#45;&gt;kglobalaccel</title>
<path fill="none" stroke="black" d="M1766.77,-376.72C1435.27,-375.23 132.34,-366.68 57,-324 16.13,-300.85 0,-281.97 0,-235 0,-235 0,-235 0,-161 0,-38.07 423.75,-20.57 608.53,-18.78"/>
<polygon fill="black" stroke="black" points="608.34,-22.28 618.31,-18.7 608.28,-15.28 608.34,-22.28"/>
</g>
<!-- xorg&#45;libx11&#45;&gt;gstreamer -->
<g id="edge39" class="edge">
<title>xorg&#45;libx11&#45;&gt;gstreamer</title>
<path fill="none" stroke="black" d="M1775.11,-369.61C1696.38,-360.65 1562.83,-344.19 1449,-324 1443.02,-322.94 1436.8,-321.74 1430.6,-320.47"/>
<polygon fill="black" stroke="black" points="1431.51,-317.09 1421,-318.45 1430.07,-323.94 1431.51,-317.09"/>
</g>
<!-- xorg&#45;libx11&#45;&gt;gst&#45;plugins&#45;ugly -->
<g id="edge40" class="edge">
<title>xorg&#45;libx11&#45;&gt;gst&#45;plugins&#45;ugly</title>
<path fill="none" stroke="black" d="M1833.35,-359.87C1819.66,-335.56 1794.45,-290.82 1778.22,-262.01"/>
<polygon fill="black" stroke="black" points="1781.38,-260.5 1773.43,-253.51 1775.29,-263.94 1781.38,-260.5"/>
</g>
<!-- xorg&#45;libx11&#45;&gt;gst&#45;plugins&#45;bad -->
<g id="edge41" class="edge">
<title>xorg&#45;libx11&#45;&gt;gst&#45;plugins&#45;bad</title>
<path fill="none" stroke="black" d="M1811.92,-361.12C1761.77,-335.51 1662.94,-285.03 1606.72,-256.31"/>
<polygon fill="black" stroke="black" points="1608.58,-253.33 1598.08,-251.9 1605.39,-259.56 1608.58,-253.33"/>
</g>
<!-- xorg&#45;libx11&#45;&gt;libglu -->
<g id="edge42" class="edge">
<title>xorg&#45;libx11&#45;&gt;libglu</title>
<path fill="none" stroke="black" d="M1894.29,-364.4C1920.04,-356.13 1950.47,-343.22 1973,-324 1992.52,-307.35 2006.99,-281.81 2016.01,-262.35"/>
<polygon fill="black" stroke="black" points="2019.14,-263.93 2019.97,-253.37 2012.74,-261.11 2019.14,-263.93"/>
</g>
<!-- xorg&#45;libx11&#45;&gt;freeglut -->
<g id="edge43" class="edge">
<title>xorg&#45;libx11&#45;&gt;freeglut</title>
<path fill="none" stroke="black" d="M1875.98,-361.35C1890.95,-352.51 1907.42,-340 1917,-324 1941.5,-283.08 1942.79,-225.91 1940.84,-191.85"/>
<polygon fill="black" stroke="black" points="1944.34,-191.65 1940.13,-181.93 1937.36,-192.16 1944.34,-191.65"/>
</g>
<!-- xorg&#45;libx11&#45;&gt;fltk -->
<g id="edge44" class="edge">
<title>xorg&#45;libx11&#45;&gt;fltk</title>
<path fill="none" stroke="black" d="M1897.5,-365.08C1929.2,-356.63 1969.07,-343.33 2001,-324 2040.53,-300.07 2050.28,-290.39 2076,-252 2088.57,-233.24 2097.66,-209.3 2103.42,-190.97"/>
<polygon fill="black" stroke="black" points="2106.72,-192.15 2106.22,-181.57 2100.01,-190.15 2106.72,-192.15"/>
</g>
<!-- xorg&#45;libx11&#45;&gt;mesalib -->
<g id="edge46" class="edge">
<title>xorg&#45;libx11&#45;&gt;mesalib</title>
<path fill="none" stroke="black" d="M1913.85,-371.27C1999.47,-363.65 2147.64,-348.26 2273,-324 2277.89,-323.05 2282.97,-321.94 2288.02,-320.74"/>
<polygon fill="black" stroke="black" points="2288.63,-324.2 2297.49,-318.39 2286.94,-317.4 2288.63,-324.2"/>
</g>
<!-- libva -->
<g id="node24" class="node">
<title>libva</title>
<g id="a_node24"><a xlink:href="https://github.com/conda-forge/libva-feedstock" xlink:title="libva">
<ellipse fill="#fde725" stroke="black" cx="2158" cy="-234" rx="35.42" ry="18"/>
<text text-anchor="middle" x="2158" y="-229.32" font-family="Times,serif" font-size="14.00">libva</text>
</a>
</g>
</g>
<!-- xorg&#45;libx11&#45;&gt;libva -->
<g id="edge47" class="edge">
<title>xorg&#45;libx11&#45;&gt;libva</title>
<path fill="none" stroke="black" d="M1911.49,-369.96C1979.58,-361.82 2078.18,-346.57 2109,-324 2129.44,-309.03 2142.36,-282.85 2149.78,-262.74"/>
<polygon fill="black" stroke="black" points="2153.03,-264.05 2152.94,-253.46 2146.4,-261.8 2153.03,-264.05"/>
</g>
<!-- vulkan&#45;loader -->
<g id="node25" class="node">
<title>vulkan&#45;loader</title>
<g id="a_node25"><a xlink:href="https://github.com/conda-forge/vulkan-loader-feedstock" xlink:title="vulkan loader">
<ellipse fill="#fde725" stroke="black" cx="2522" cy="-162" rx="79.09" ry="18"/>
<text text-anchor="middle" x="2522" y="-157.32" font-family="Times,serif" font-size="14.00">vulkan loader</text>
</a>
</g>
</g>
<!-- xorg&#45;libx11&#45;&gt;vulkan&#45;loader -->
<g id="edge50" class="edge">
<title>xorg&#45;libx11&#45;&gt;vulkan&#45;loader</title>
<path fill="none" stroke="black" d="M1917.53,-374.07C2065.73,-367.7 2386.82,-350.95 2429,-324 2477.07,-293.29 2503.09,-228.26 2514.6,-190.92"/>
<polygon fill="black" stroke="black" points="2517.83,-192.33 2517.28,-181.75 2511.11,-190.36 2517.83,-192.33"/>
</g>
<!-- vulkan&#45;tools -->
<g id="node26" class="node">
<title>vulkan&#45;tools</title>
<g id="a_node26"><a xlink:href="https://github.com/conda-forge/vulkan-tools-feedstock" xlink:title="vulkan tools">
<ellipse fill="#fde725" stroke="black" cx="2468" cy="-90" rx="71.73" ry="18"/>
<text text-anchor="middle" x="2468" y="-85.33" font-family="Times,serif" font-size="14.00">vulkan tools</text>
</a>
</g>
</g>
<!-- xorg&#45;libx11&#45;&gt;vulkan&#45;tools -->
<g id="edge51" class="edge">
<title>xorg&#45;libx11&#45;&gt;vulkan&#45;tools</title>
<path fill="none" stroke="black" d="M1918.18,-374.67C2061.14,-369.55 2361.09,-355.18 2396,-324 2456.97,-269.53 2402.97,-219.65 2434,-144 2437.77,-134.8 2443.16,-125.44 2448.54,-117.2"/>
<polygon fill="black" stroke="black" points="2451.36,-119.27 2454.13,-109.04 2445.59,-115.31 2451.36,-119.27"/>
</g>
<!-- nsight&#45;compute -->
<g id="node27" class="node">
<title>nsight&#45;compute</title>
<g id="a_node27"><a xlink:href="https://github.com/conda-forge/nsight-compute-feedstock" xlink:title="nsight compute">
<ellipse fill="#fde725" stroke="black" cx="441" cy="-162" rx="89.09" ry="18"/>
<text text-anchor="middle" x="441" y="-157.32" font-family="Times,serif" font-size="14.00">nsight compute</text>
</a>
</g>
</g>
<!-- xorg&#45;libx11&#45;&gt;nsight&#45;compute -->
<g id="edge52" class="edge">
<title>xorg&#45;libx11&#45;&gt;nsight&#45;compute</title>
<path fill="none" stroke="black" d="M1767.36,-376.16C1493.52,-372.82 567.25,-358.98 515,-324 470.02,-293.89 451.91,-229.11 444.99,-191.54"/>
<polygon fill="black" stroke="black" points="448.47,-191.16 443.36,-181.88 441.57,-192.32 448.47,-191.16"/>
</g>
<!-- libva&#45;&gt;ffmpeg -->
<g id="edge53" class="edge">
<title>libva&#45;&gt;ffmpeg</title>
<path fill="none" stroke="black" d="M2168.43,-216.41C2173.45,-208.42 2179.6,-198.64 2185.25,-189.64"/>
<polygon fill="black" stroke="black" points="2188.18,-191.57 2190.54,-181.24 2182.25,-187.84 2188.18,-191.57"/>
</g>
<!-- vulkan&#45;loader&#45;&gt;vulkan&#45;tools -->
<g id="edge55" class="edge">
<title>vulkan&#45;loader&#45;&gt;vulkan&#45;tools</title>
<path fill="none" stroke="black" d="M2508.93,-144.05C2502.63,-135.89 2494.93,-125.91 2487.92,-116.82"/>
<polygon fill="black" stroke="black" points="2490.76,-114.77 2481.88,-108.99 2485.21,-119.04 2490.76,-114.77"/>
</g>
<!-- xcb&#45;util&#45;keysyms -->
<g id="node28" class="node">
<title>xcb&#45;util&#45;keysyms</title>
<g id="a_node28"><a xlink:href="https://github.com/conda-forge/xcb-util-keysyms-feedstock/pull/5" xlink:title="xcb util keysyms ❎">
<ellipse fill="#31688e" stroke="black" cx="634" cy="-306" rx="110.13" ry="18"/>
<text text-anchor="middle" x="634" y="-301.32" font-family="Times,serif" font-size="14.00" fill="white">xcb util keysyms ❎</text>
</a>
</g>
</g>
<!-- xcb&#45;util&#45;keysyms&#45;&gt;qt&#45;main -->
<g id="edge56" class="edge">
<title>xcb&#45;util&#45;keysyms&#45;&gt;qt&#45;main</title>
<path fill="none" stroke="black" d="M703.7,-291.67C774.14,-278.2 881.5,-257.66 945.8,-245.37"/>
<polygon fill="black" stroke="black" points="946.25,-248.84 955.42,-243.53 944.94,-241.97 946.25,-248.84"/>
</g>
<!-- xcb&#45;util&#45;keysyms&#45;&gt;kwindowsystem -->
<g id="edge57" class="edge">
<title>xcb&#45;util&#45;keysyms&#45;&gt;kwindowsystem</title>
<path fill="none" stroke="black" d="M634.15,-287.94C634.92,-257.86 638.89,-193.88 658,-144 661.53,-134.78 666.88,-125.52 672.34,-117.38"/>
<polygon fill="black" stroke="black" points="675.12,-119.5 678.06,-109.32 669.42,-115.45 675.12,-119.5"/>
</g>
<!-- xcb&#45;util&#45;keysyms&#45;&gt;kglobalaccel -->
<g id="edge58" class="edge">
<title>xcb&#45;util&#45;keysyms&#45;&gt;kglobalaccel</title>
<path fill="none" stroke="black" d="M623.59,-287.76C600.48,-247.06 550.22,-143.09 593,-72 602.61,-56.04 618.82,-44.63 635.42,-36.59"/>
<polygon fill="black" stroke="black" points="636.64,-39.87 644.37,-32.62 633.81,-33.47 636.64,-39.87"/>
</g>
<!-- xcb&#45;util&#45;keysyms&#45;&gt;nsight&#45;compute -->
<g id="edge59" class="edge">
<title>xcb&#45;util&#45;keysyms&#45;&gt;nsight&#45;compute</title>
<path fill="none" stroke="black" d="M602.73,-288.42C585.01,-278.57 562.71,-265.43 544,-252 516.4,-232.2 487.33,-206.58 467.13,-187.91"/>
<polygon fill="black" stroke="black" points="469.59,-185.42 459.89,-181.16 464.81,-190.54 469.59,-185.42"/>
</g>
<!-- xcb&#45;util -->
<g id="node29" class="node">
<title>xcb&#45;util</title>
<g id="a_node29"><a xlink:href="https://github.com/conda-forge/xcb-util-feedstock/pull/3" xlink:title="xcb util ✓">
<ellipse fill="#31688e" stroke="black" cx="148" cy="-378" rx="56.47" ry="18"/>
<text text-anchor="middle" x="148" y="-373.32" font-family="Times,serif" font-size="14.00" fill="white">xcb util ✓</text>
</a>
</g>
</g>
<!-- xcb&#45;util&#45;&gt;qt&#45;main -->
<g id="edge60" class="edge">
<title>xcb&#45;util&#45;&gt;qt&#45;main</title>
<path fill="none" stroke="black" d="M204.36,-375.74C372.56,-371.61 863.25,-356.86 927,-324 953.29,-310.45 973.58,-282.82 986.02,-261.92"/>
<polygon fill="black" stroke="black" points="989.01,-263.75 990.9,-253.32 982.92,-260.29 989.01,-263.75"/>
</g>
<!-- xcb&#45;util&#45;&gt;kwindowsystem -->
<g id="edge61" class="edge">
<title>xcb&#45;util&#45;&gt;kwindowsystem</title>
<path fill="none" stroke="black" d="M108.91,-364.73C89.65,-356.49 68.21,-343.5 57,-324 49.03,-310.13 48.81,-301.75 57,-288 91.4,-230.25 130.01,-246.32 190,-216 257.07,-182.1 271.09,-165.85 343,-144 426.72,-118.55 525.58,-105.02 596.84,-98.02"/>
<polygon fill="black" stroke="black" points="596.91,-101.53 606.53,-97.09 596.24,-94.56 596.91,-101.53"/>
</g>
<!-- xcb&#45;util&#45;image -->
<g id="node30" class="node">
<title>xcb&#45;util&#45;image</title>
<g id="a_node30"><a xlink:href="https://github.com/conda-forge/xcb-util-image-feedstock" xlink:title="xcb util image">
<ellipse fill="#fde725" stroke="black" cx="148" cy="-306" rx="82.25" ry="18"/>
<text text-anchor="middle" x="148" y="-301.32" font-family="Times,serif" font-size="14.00">xcb util image</text>
</a>
</g>
</g>
<!-- xcb&#45;util&#45;&gt;xcb&#45;util&#45;image -->
<g id="edge62" class="edge">
<title>xcb&#45;util&#45;&gt;xcb&#45;util&#45;image</title>
<path fill="none" stroke="black" d="M148,-359.7C148,-352.41 148,-343.73 148,-335.54"/>
<polygon fill="black" stroke="black" points="151.5,-335.62 148,-325.62 144.5,-335.62 151.5,-335.62"/>
</g>
<!-- xcb&#45;util&#45;image&#45;&gt;qt&#45;main -->
<g id="edge63" class="edge">
<title>xcb&#45;util&#45;image&#45;&gt;qt&#45;main</title>
<path fill="none" stroke="black" d="M206.59,-293.03C217.33,-291.13 228.48,-289.34 239,-288 498.19,-254.88 809.87,-241.33 939.19,-236.86"/>
<polygon fill="black" stroke="black" points="939.01,-240.37 948.88,-236.53 938.77,-233.37 939.01,-240.37"/>
</g>
<!-- xcb&#45;util&#45;image&#45;&gt;nsight&#45;compute -->
<g id="edge64" class="edge">
<title>xcb&#45;util&#45;image&#45;&gt;nsight&#45;compute</title>
<path fill="none" stroke="black" d="M160.28,-287.85C175.68,-267.62 203.98,-234.42 236,-216 272.54,-194.98 317.48,-182.16 355.97,-174.4"/>
<polygon fill="black" stroke="black" points="356.51,-177.86 365.67,-172.54 355.19,-170.99 356.51,-177.86"/>
</g>
<!-- xcb&#45;util&#45;cursor -->
<g id="node31" class="node">
<title>xcb&#45;util&#45;cursor</title>
<g id="a_node31"><a xlink:href="https://github.com/conda-forge/xcb-util-cursor-feedstock" xlink:title="xcb util cursor">
<ellipse fill="#fde725" stroke="black" cx="329" cy="-234" rx="83.83" ry="18"/>
<text text-anchor="middle" x="329" y="-229.32" font-family="Times,serif" font-size="14.00">xcb util cursor</text>
</a>
</g>
</g>
<!-- xcb&#45;util&#45;image&#45;&gt;xcb&#45;util&#45;cursor -->
<g id="edge65" class="edge">
<title>xcb&#45;util&#45;image&#45;&gt;xcb&#45;util&#45;cursor</title>
<path fill="none" stroke="black" d="M187.27,-289.81C214.1,-279.44 249.89,-265.6 278.78,-254.42"/>
<polygon fill="black" stroke="black" points="280.01,-257.7 288.08,-250.83 277.49,-251.17 280.01,-257.7"/>
</g>
<!-- xcb&#45;util&#45;cursor&#45;&gt;nsight&#45;compute -->
<g id="edge69" class="edge">
<title>xcb&#45;util&#45;cursor&#45;&gt;nsight&#45;compute</title>
<path fill="none" stroke="black" d="M355.26,-216.59C370.04,-207.35 388.71,-195.68 404.85,-185.59"/>
<polygon fill="black" stroke="black" points="406.61,-188.62 413.23,-180.35 402.9,-182.69 406.61,-188.62"/>
</g>
<!-- xcb&#45;util&#45;wm -->
<g id="node32" class="node">
<title>xcb&#45;util&#45;wm</title>
<g id="a_node32"><a xlink:href="https://github.com/conda-forge/xcb-util-wm-feedstock/pull/3" xlink:title="xcb util wm ✓">
<ellipse fill="#31688e" stroke="black" cx="840" cy="-306" rx="77.52" ry="18"/>
<text text-anchor="middle" x="840" y="-301.32" font-family="Times,serif" font-size="14.00" fill="white">xcb util wm ✓</text>
</a>
</g>
</g>
<!-- xcb&#45;util&#45;wm&#45;&gt;qt&#45;main -->
<g id="edge66" class="edge">
<title>xcb&#45;util&#45;wm&#45;&gt;qt&#45;main</title>
<path fill="none" stroke="black" d="M875.11,-289.64C899.85,-278.81 933.06,-264.29 959.01,-252.93"/>
<polygon fill="black" stroke="black" points="960.14,-256.26 967.9,-249.04 957.34,-249.84 960.14,-256.26"/>
</g>
<!-- xcb&#45;util&#45;wm&#45;&gt;kwindowsystem -->
<g id="edge67" class="edge">
<title>xcb&#45;util&#45;wm&#45;&gt;kwindowsystem</title>
<path fill="none" stroke="black" d="M809.75,-289C775.12,-268.8 720.07,-230.5 696,-180 687.09,-161.31 686.68,-137.83 688.32,-119.68"/>
<polygon fill="black" stroke="black" points="691.78,-120.2 689.48,-109.86 684.83,-119.38 691.78,-120.2"/>
</g>
<!-- xcb&#45;util&#45;wm&#45;&gt;nsight&#45;compute -->
<g id="edge68" class="edge">
<title>xcb&#45;util&#45;wm&#45;&gt;nsight&#45;compute</title>
<path fill="none" stroke="black" d="M789.72,-291.9C752.93,-281.94 701.96,-267.37 658,-252 597.94,-231 530.35,-202.48 486.8,-183.44"/>
<polygon fill="black" stroke="black" points="488.22,-180.24 477.65,-179.42 485.4,-186.65 488.22,-180.24"/>
</g>
<!-- xcb&#45;util&#45;renderutil -->
<g id="node33" class="node">
<title>xcb&#45;util&#45;renderutil</title>
<g id="a_node33"><a xlink:href="https://github.com/conda-forge/xcb-util-renderutil-feedstock/pull/6" xlink:title="xcb util renderutil ✓">
<ellipse fill="#31688e" stroke="black" cx="358" cy="-306" rx="110.13" ry="18"/>
<text text-anchor="middle" x="358" y="-301.32" font-family="Times,serif" font-size="14.00" fill="white">xcb util renderutil ✓</text>
</a>
</g>
</g>
<!-- xcb&#45;util&#45;renderutil&#45;&gt;qt&#45;main -->
<g id="edge70" class="edge">
<title>xcb&#45;util&#45;renderutil&#45;&gt;qt&#45;main</title>
<path fill="none" stroke="black" d="M447.61,-295.23C581.15,-280.67 828.74,-253.67 941.42,-241.39"/>
<polygon fill="black" stroke="black" points="941.8,-244.87 951.36,-240.3 941.04,-237.91 941.8,-244.87"/>
</g>
<!-- xcb&#45;util&#45;renderutil&#45;&gt;nsight&#45;compute -->
<g id="edge71" class="edge">
<title>xcb&#45;util&#45;renderutil&#45;&gt;nsight&#45;compute</title>
<path fill="none" stroke="black" d="M385.73,-288.32C398.65,-279.17 413.1,-266.68 422,-252 433.03,-233.8 437.71,-210.11 439.67,-191.75"/>
<polygon fill="black" stroke="black" points="443.16,-192.05 440.5,-181.8 436.18,-191.47 443.16,-192.05"/>
</g>
<!-- xcb&#45;util&#45;renderutil&#45;&gt;xcb&#45;util&#45;cursor -->
<g id="edge72" class="edge">
<title>xcb&#45;util&#45;renderutil&#45;&gt;xcb&#45;util&#45;cursor</title>
<path fill="none" stroke="black" d="M350.83,-287.7C347.71,-280.15 343.96,-271.12 340.47,-262.68"/>
<polygon fill="black" stroke="black" points="343.73,-261.4 336.67,-253.5 337.26,-264.08 343.73,-261.4"/>
</g>
</g>
</svg>
