<?xml version="1.0" encoding="UTF-8" standalone="no"?>
<!DOCTYPE svg PUBLIC "-//W3C//DTD SVG 1.1//EN"
 "http://www.w3.org/Graphics/SVG/1.1/DTD/svg11.dtd">
<!-- Generated by graphviz version 11.0.0 (20240519.1550)
 -->
<!-- Pages: 1 -->
<svg width="1947pt" height="332pt"
 viewBox="0.00 0.00 1947.34 332.00" xmlns="http://www.w3.org/2000/svg" xmlns:xlink="http://www.w3.org/1999/xlink">
<g id="graph0" class="graph" transform="scale(1 1) rotate(0) translate(4 328)">
<polygon fill="white" stroke="none" points="-4,4 -4,-328 1943.34,-328 1943.34,4 -4,4"/>
<!-- cairo -->
<g id="node1" class="node">
<title>cairo</title>
<g id="a_node1"><a xlink:href="https://github.com/conda-forge/cairo-feedstock" xlink:title="cairo">
<ellipse fill="#35b779" stroke="black" cx="1096.25" cy="-306" rx="35.95" ry="18"/>
<text text-anchor="middle" x="1096.25" y="-301.32" font-family="Times,serif" font-size="14.00">cairo</text>
</a>
</g>
</g>
<!-- ffmpeg -->
<g id="node2" class="node">
<title>ffmpeg</title>
<g id="a_node2"><a xlink:href="https://github.com/conda-forge/ffmpeg-feedstock" xlink:title="ffmpeg">
<ellipse fill="#fde725" stroke="black" cx="1516.25" cy="-234" rx="45.95" ry="18"/>
<text text-anchor="middle" x="1516.25" y="-229.32" font-family="Times,serif" font-size="14.00">ffmpeg</text>
</a>
</g>
</g>
<!-- cairo&#45;&gt;ffmpeg -->
<g id="edge1" class="edge">
<title>cairo&#45;&gt;ffmpeg</title>
<path fill="none" stroke="black" d="M1131.56,-301.72C1197.11,-295.22 1341.79,-278.96 1461.25,-252 1464.55,-251.25 1467.95,-250.41 1471.35,-249.5"/>
<polygon fill="black" stroke="black" points="1472.02,-252.95 1480.69,-246.86 1470.11,-246.21 1472.02,-252.95"/>
</g>
<!-- gnuplot -->
<g id="node3" class="node">
<title>gnuplot</title>
<g id="a_node3"><a xlink:href="https://github.com/conda-forge/gnuplot-feedstock" xlink:title="gnuplot">
<ellipse fill="#fde725" stroke="black" cx="1175.25" cy="-162" rx="49.63" ry="18"/>
<text text-anchor="middle" x="1175.25" y="-157.32" font-family="Times,serif" font-size="14.00">gnuplot</text>
</a>
</g>
</g>
<!-- cairo&#45;&gt;gnuplot -->
<g id="edge2" class="edge">
<title>cairo&#45;&gt;gnuplot</title>
<path fill="none" stroke="black" d="M1106.58,-288.44C1112.98,-278.06 1121.27,-264.35 1128.25,-252 1139.86,-231.47 1152.29,-207.84 1161.45,-190.1"/>
<polygon fill="black" stroke="black" points="1164.55,-191.73 1166.01,-181.23 1158.32,-188.53 1164.55,-191.73"/>
</g>
<!-- lyx -->
<g id="node4" class="node">
<title>lyx</title>
<g id="a_node4"><a xlink:href="https://github.com/conda-forge/lyx-feedstock" xlink:title="lyx">
<ellipse fill="#fde725" stroke="black" cx="1080.25" cy="-162" rx="27" ry="18"/>
<text text-anchor="middle" x="1080.25" y="-157.32" font-family="Times,serif" font-size="14.00">lyx</text>
</a>
</g>
</g>
<!-- cairo&#45;&gt;lyx -->
<g id="edge3" class="edge">
<title>cairo&#45;&gt;lyx</title>
<path fill="none" stroke="black" d="M1104.14,-288.06C1111.48,-269.99 1120.3,-240.65 1113.25,-216 1110.38,-205.96 1105,-195.98 1099.4,-187.42"/>
<polygon fill="black" stroke="black" points="1102.35,-185.53 1093.74,-179.36 1096.62,-189.56 1102.35,-185.53"/>
</g>
<!-- qt&#45;main -->
<g id="node5" class="node">
<title>qt&#45;main</title>
<g id="a_node5"><a xlink:href="https://github.com/conda-forge/qt-main-feedstock" xlink:title="qt main">
<ellipse fill="#fde725" stroke="black" cx="950.25" cy="-234" rx="49.63" ry="18"/>
<text text-anchor="middle" x="950.25" y="-229.32" font-family="Times,serif" font-size="14.00">qt main</text>
</a>
</g>
</g>
<!-- cairo&#45;&gt;qt&#45;main -->
<g id="edge4" class="edge">
<title>cairo&#45;&gt;qt&#45;main</title>
<path fill="none" stroke="black" d="M1070.82,-292.81C1048.41,-282.07 1015.42,-266.25 989.61,-253.87"/>
<polygon fill="black" stroke="black" points="991.29,-250.8 980.76,-249.63 988.27,-257.11 991.29,-250.8"/>
</g>
<!-- qt&#45;webengine -->
<g id="node6" class="node">
<title>qt&#45;webengine</title>
<g id="a_node6"><a xlink:href="https://github.com/conda-forge/qt-webengine-feedstock" xlink:title="qt webengine">
<ellipse fill="#fde725" stroke="black" cx="309.25" cy="-162" rx="79.09" ry="18"/>
<text text-anchor="middle" x="309.25" y="-157.32" font-family="Times,serif" font-size="14.00">qt webengine</text>
</a>
</g>
</g>
<!-- cairo&#45;&gt;qt&#45;webengine -->
<g id="edge5" class="edge">
<title>cairo&#45;&gt;qt&#45;webengine</title>
<path fill="none" stroke="black" d="M1062.75,-299.18C962.01,-281.64 652.98,-227.57 397.25,-180 391.32,-178.9 385.17,-177.74 379,-176.57"/>
<polygon fill="black" stroke="black" points="379.89,-173.17 369.41,-174.74 378.58,-180.05 379.89,-173.17"/>
</g>
<!-- silicon -->
<g id="node7" class="node">
<title>silicon</title>
<g id="a_node7"><a xlink:href="https://github.com/conda-forge/silicon-feedstock" xlink:title="silicon">
<ellipse fill="#fde725" stroke="black" cx="1061.25" cy="-234" rx="43.32" ry="18"/>
<text text-anchor="middle" x="1061.25" y="-229.32" font-family="Times,serif" font-size="14.00">silicon</text>
</a>
</g>
</g>
<!-- cairo&#45;&gt;silicon -->
<g id="edge6" class="edge">
<title>cairo&#45;&gt;silicon</title>
<path fill="none" stroke="black" d="M1087.78,-288.05C1083.86,-280.23 1079.12,-270.75 1074.74,-261.98"/>
<polygon fill="black" stroke="black" points="1077.92,-260.52 1070.32,-253.14 1071.66,-263.65 1077.92,-260.52"/>
</g>
<!-- vtk -->
<g id="node8" class="node">
<title>vtk</title>
<g id="a_node8"><a xlink:href="https://github.com/conda-forge/vtk-feedstock" xlink:title="vtk">
<ellipse fill="#fde725" stroke="black" cx="1590.25" cy="-162" rx="27.01" ry="18"/>
<text text-anchor="middle" x="1590.25" y="-157.32" font-family="Times,serif" font-size="14.00">vtk</text>
</a>
</g>
</g>
<!-- ffmpeg&#45;&gt;vtk -->
<g id="edge7" class="edge">
<title>ffmpeg&#45;&gt;vtk</title>
<path fill="none" stroke="black" d="M1533.04,-217.12C1543,-207.69 1555.78,-195.61 1566.73,-185.25"/>
<polygon fill="black" stroke="black" points="1569.08,-187.85 1573.93,-178.43 1564.26,-182.76 1569.08,-187.85"/>
</g>
<!-- gazebo -->
<g id="node9" class="node">
<title>gazebo</title>
<g id="a_node9"><a xlink:href="https://github.com/conda-forge/gazebo-feedstock" xlink:title="gazebo">
<ellipse fill="#fde725" stroke="black" cx="1401.25" cy="-162" rx="46.47" ry="18"/>
<text text-anchor="middle" x="1401.25" y="-157.32" font-family="Times,serif" font-size="14.00">gazebo</text>
</a>
</g>
</g>
<!-- ffmpeg&#45;&gt;gazebo -->
<g id="edge8" class="edge">
<title>ffmpeg&#45;&gt;gazebo</title>
<path fill="none" stroke="black" d="M1492.14,-218.33C1475.58,-208.25 1453.37,-194.72 1435.04,-183.57"/>
<polygon fill="black" stroke="black" points="1436.98,-180.65 1426.62,-178.44 1433.34,-186.63 1436.98,-180.65"/>
</g>
<!-- qt&#45;main&#45;&gt;gnuplot -->
<g id="edge9" class="edge">
<title>qt&#45;main&#45;&gt;gnuplot</title>
<path fill="none" stroke="black" d="M987.15,-221.52C1025.49,-209.59 1085.63,-190.88 1127.55,-177.84"/>
<polygon fill="black" stroke="black" points="1128.37,-181.25 1136.88,-174.94 1126.29,-174.57 1128.37,-181.25"/>
</g>
<!-- qt&#45;main&#45;&gt;lyx -->
<g id="edge10" class="edge">
<title>qt&#45;main&#45;&gt;lyx</title>
<path fill="none" stroke="black" d="M977.19,-218.5C998.28,-207.14 1027.62,-191.34 1049.61,-179.5"/>
<polygon fill="black" stroke="black" points="1051.26,-182.58 1058.41,-174.76 1047.95,-176.42 1051.26,-182.58"/>
</g>
<!-- qt&#45;main&#45;&gt;qt&#45;webengine -->
<g id="edge11" class="edge">
<title>qt&#45;main&#45;&gt;qt&#45;webengine</title>
<path fill="none" stroke="black" d="M901.61,-229.9C805.1,-223.41 582.68,-206.73 397.25,-180 390.84,-179.08 384.18,-178 377.53,-176.85"/>
<polygon fill="black" stroke="black" points="378.34,-173.44 367.88,-175.13 377.11,-180.33 378.34,-173.44"/>
</g>
<!-- qt&#45;main&#45;&gt;gazebo -->
<g id="edge12" class="edge">
<title>qt&#45;main&#45;&gt;gazebo</title>
<path fill="none" stroke="black" d="M986.83,-221.39C994.2,-219.36 1001.93,-217.43 1009.25,-216 1157.07,-187.04 1198.72,-210.38 1346.25,-180 1349.57,-179.32 1352.97,-178.52 1356.38,-177.64"/>
<polygon fill="black" stroke="black" points="1357.03,-181.09 1365.73,-175.05 1355.16,-174.35 1357.03,-181.09"/>
</g>
<!-- colmap -->
<g id="node10" class="node">
<title>colmap</title>
<g id="a_node10"><a xlink:href="https://github.com/conda-forge/colmap-feedstock" xlink:title="colmap">
<ellipse fill="#fde725" stroke="black" cx="1290.25" cy="-162" rx="47" ry="18"/>
<text text-anchor="middle" x="1290.25" y="-157.32" font-family="Times,serif" font-size="14.00">colmap</text>
</a>
</g>
</g>
<!-- qt&#45;main&#45;&gt;colmap -->
<g id="edge13" class="edge">
<title>qt&#45;main&#45;&gt;colmap</title>
<path fill="none" stroke="black" d="M987.21,-221.6C994.48,-219.58 1002.07,-217.6 1009.25,-216 1108.09,-193.94 1135.57,-202.76 1234.25,-180 1237.56,-179.24 1240.96,-178.38 1244.37,-177.48"/>
<polygon fill="black" stroke="black" points="1245.06,-180.92 1253.74,-174.85 1243.17,-174.18 1245.06,-180.92"/>
</g>
<!-- kwindowsystem -->
<g id="node11" class="node">
<title>kwindowsystem</title>
<g id="a_node11"><a xlink:href="https://github.com/conda-forge/kwindowsystem-feedstock" xlink:title="kwindowsystem">
<ellipse fill="#fde725" stroke="black" cx="676.25" cy="-90" rx="91.19" ry="18"/>
<text text-anchor="middle" x="676.25" y="-85.33" font-family="Times,serif" font-size="14.00">kwindowsystem</text>
</a>
</g>
</g>
<!-- qt&#45;main&#45;&gt;kwindowsystem -->
<g id="edge14" class="edge">
<title>qt&#45;main&#45;&gt;kwindowsystem</title>
<path fill="none" stroke="black" d="M951.5,-215.66C951.93,-195.55 949.32,-162.78 930.25,-144 907.43,-121.53 831.58,-107.66 768.66,-99.78"/>
<polygon fill="black" stroke="black" points="769.33,-96.34 758.98,-98.61 768.49,-103.29 769.33,-96.34"/>
</g>
<!-- kglobalaccel -->
<g id="node12" class="node">
<title>kglobalaccel</title>
<g id="a_node12"><a xlink:href="https://github.com/conda-forge/kglobalaccel-feedstock" xlink:title="kglobalaccel">
<ellipse fill="#fde725" stroke="black" cx="676.25" cy="-18" rx="72.78" ry="18"/>
<text text-anchor="middle" x="676.25" y="-13.32" font-family="Times,serif" font-size="14.00">kglobalaccel</text>
</a>
</g>
</g>
<!-- qt&#45;main&#45;&gt;kglobalaccel -->
<g id="edge15" class="edge">
<title>qt&#45;main&#45;&gt;kglobalaccel</title>
<path fill="none" stroke="black" d="M965.49,-216.45C992.65,-184.9 1043.3,-115.47 1006.25,-72 975.23,-35.6 847.32,-24.1 760.17,-20.53"/>
<polygon fill="black" stroke="black" points="760.33,-17.03 750.2,-20.15 760.06,-24.03 760.33,-17.03"/>
</g>
<!-- qt6&#45;advanced&#45;docking&#45;system -->
<g id="node13" class="node">
<title>qt6&#45;advanced&#45;docking&#45;system</title>
<g id="a_node13"><a xlink:href="https://github.com/conda-forge/qt6-advanced-docking-system-feedstock" xlink:title="qt6 advanced docking system">
<ellipse fill="#fde725" stroke="black" cx="761.25" cy="-162" rx="159.59" ry="18"/>
<text text-anchor="middle" x="761.25" y="-157.32" font-family="Times,serif" font-size="14.00">qt6 advanced docking system</text>
</a>
</g>
</g>
<!-- qt&#45;main&#45;&gt;qt6&#45;advanced&#45;docking&#45;system -->
<g id="edge16" class="edge">
<title>qt&#45;main&#45;&gt;qt6&#45;advanced&#45;docking&#45;system</title>
<path fill="none" stroke="black" d="M916.46,-220.49C888.8,-210.24 849.09,-195.53 816.77,-183.56"/>
<polygon fill="black" stroke="black" points="818.13,-180.33 807.54,-180.14 815.7,-186.9 818.13,-180.33"/>
</g>
<!-- adwaita&#45;qt -->
<g id="node14" class="node">
<title>adwaita&#45;qt</title>
<g id="a_node14"><a xlink:href="https://github.com/conda-forge/adwaita-qt-feedstock" xlink:title="adwaita qt">
<ellipse fill="#fde725" stroke="black" cx="933.25" cy="-90" rx="64.36" ry="18"/>
<text text-anchor="middle" x="933.25" y="-85.33" font-family="Times,serif" font-size="14.00">adwaita qt</text>
</a>
</g>
</g>
<!-- qt&#45;main&#45;&gt;adwaita&#45;qt -->
<g id="edge17" class="edge">
<title>qt&#45;main&#45;&gt;adwaita&#45;qt</title>
<path fill="none" stroke="black" d="M956.83,-215.71C962.77,-197.6 969.69,-168.46 963.25,-144 960.83,-134.8 956.4,-125.52 951.68,-117.35"/>
<polygon fill="black" stroke="black" points="954.72,-115.61 946.46,-108.97 948.77,-119.31 954.72,-115.61"/>
</g>
<!-- qt&#45;webengine&#45;&gt;kwindowsystem -->
<g id="edge18" class="edge">
<title>qt&#45;webengine&#45;&gt;kwindowsystem</title>
<path fill="none" stroke="black" d="M367.94,-149.64C377.73,-147.75 387.77,-145.82 397.25,-144 466.11,-130.81 544.56,-115.92 600.69,-105.29"/>
<polygon fill="black" stroke="black" points="601.3,-108.73 610.48,-103.43 600,-101.86 601.3,-108.73"/>
</g>
<!-- qt&#45;webengine&#45;&gt;kglobalaccel -->
<g id="edge19" class="edge">
<title>qt&#45;webengine&#45;&gt;kglobalaccel</title>
<path fill="none" stroke="black" d="M348.18,-145.94C415.7,-119.81 554.33,-66.17 627.9,-37.71"/>
<polygon fill="black" stroke="black" points="628.8,-41.11 636.86,-34.24 626.27,-34.59 628.8,-41.11"/>
</g>
<!-- kwindowsystem&#45;&gt;kglobalaccel -->
<g id="edge32" class="edge">
<title>kwindowsystem&#45;&gt;kglobalaccel</title>
<path fill="none" stroke="black" d="M676.25,-71.7C676.25,-64.41 676.25,-55.73 676.25,-47.54"/>
<polygon fill="black" stroke="black" points="679.75,-47.62 676.25,-37.62 672.75,-47.62 679.75,-47.62"/>
</g>
<!-- gstreamer -->
<g id="node15" class="node">
<title>gstreamer</title>
<g id="a_node15"><a xlink:href="https://github.com/conda-forge/gstreamer-feedstock" xlink:title="gstreamer">
<ellipse fill="#35b779" stroke="black" cx="529.25" cy="-306" rx="63.31" ry="18"/>
<text text-anchor="middle" x="529.25" y="-301.32" font-family="Times,serif" font-size="14.00">gstreamer</text>
</a>
</g>
</g>
<!-- gstreamer&#45;&gt;qt&#45;main -->
<g id="edge20" class="edge">
<title>gstreamer&#45;&gt;qt&#45;main</title>
<path fill="none" stroke="black" d="M583,-296.06C663.24,-282.72 813.58,-257.72 894.8,-244.22"/>
<polygon fill="black" stroke="black" points="895,-247.73 904.29,-242.64 893.86,-240.83 895,-247.73"/>
</g>
<!-- gstreamer&#45;&gt;qt&#45;webengine -->
<g id="edge21" class="edge">
<title>gstreamer&#45;&gt;qt&#45;webengine</title>
<path fill="none" stroke="black" d="M479.03,-294.62C423,-282.6 338.77,-263.03 328.25,-252 312.99,-236 308.74,-210.89 308.02,-191.42"/>
<polygon fill="black" stroke="black" points="311.52,-191.65 307.96,-181.67 304.52,-191.69 311.52,-191.65"/>
</g>
<!-- gst&#45;plugins&#45;ugly -->
<g id="node16" class="node">
<title>gst&#45;plugins&#45;ugly</title>
<g id="a_node16"><a xlink:href="https://github.com/conda-forge/gst-plugins-ugly-feedstock" xlink:title="gst plugins ugly">
<ellipse fill="#fde725" stroke="black" cx="429.25" cy="-234" rx="91.72" ry="18"/>
<text text-anchor="middle" x="429.25" y="-229.32" font-family="Times,serif" font-size="14.00">gst plugins ugly</text>
</a>
</g>
</g>
<!-- gstreamer&#45;&gt;gst&#45;plugins&#45;ugly -->
<g id="edge22" class="edge">
<title>gstreamer&#45;&gt;gst&#45;plugins&#45;ugly</title>
<path fill="none" stroke="black" d="M506.56,-289.12C493.51,-279.98 476.89,-268.35 462.4,-258.2"/>
<polygon fill="black" stroke="black" points="464.68,-255.53 454.49,-252.67 460.67,-261.27 464.68,-255.53"/>
</g>
<!-- gst&#45;plugins&#45;bad -->
<g id="node17" class="node">
<title>gst&#45;plugins&#45;bad</title>
<g id="a_node17"><a xlink:href="https://github.com/conda-forge/gst-plugins-bad-feedstock" xlink:title="gst plugins bad">
<ellipse fill="#fde725" stroke="black" cx="495.25" cy="-162" rx="88.56" ry="18"/>
<text text-anchor="middle" x="495.25" y="-157.32" font-family="Times,serif" font-size="14.00">gst plugins bad</text>
</a>
</g>
</g>
<!-- gstreamer&#45;&gt;gst&#45;plugins&#45;bad -->
<g id="edge23" class="edge">
<title>gstreamer&#45;&gt;gst&#45;plugins&#45;bad</title>
<path fill="none" stroke="black" d="M532.42,-287.85C535.11,-269.61 537.5,-240.12 530.25,-216 527.41,-206.54 522.27,-197.21 516.79,-189.08"/>
<polygon fill="black" stroke="black" points="519.67,-187.08 510.96,-181.05 514,-191.2 519.67,-187.08"/>
</g>
<!-- libglu -->
<g id="node18" class="node">
<title>libglu</title>
<g id="a_node18"><a xlink:href="https://github.com/conda-forge/libglu-feedstock" xlink:title="libglu">
<ellipse fill="#35b779" stroke="black" cx="1401.25" cy="-306" rx="39.63" ry="18"/>
<text text-anchor="middle" x="1401.25" y="-301.32" font-family="Times,serif" font-size="14.00">libglu</text>
</a>
</g>
</g>
<!-- libglu&#45;&gt;vtk -->
<g id="edge24" class="edge">
<title>libglu&#45;&gt;vtk</title>
<path fill="none" stroke="black" d="M1435.21,-296.38C1482.08,-284.18 1561.9,-262.25 1571.25,-252 1585.99,-235.84 1590.35,-211.12 1591.23,-191.83"/>
<polygon fill="black" stroke="black" points="1594.73,-191.93 1591.38,-181.88 1587.73,-191.83 1594.73,-191.93"/>
</g>
<!-- libglu&#45;&gt;gazebo -->
<g id="edge25" class="edge">
<title>libglu&#45;&gt;gazebo</title>
<path fill="none" stroke="black" d="M1377.66,-291.3C1364.27,-282.09 1348.73,-268.6 1341.25,-252 1334.67,-237.41 1334.67,-230.59 1341.25,-216 1346.86,-203.55 1357,-192.86 1367.37,-184.4"/>
<polygon fill="black" stroke="black" points="1369.35,-187.29 1375.22,-178.47 1365.13,-181.7 1369.35,-187.29"/>
</g>
<!-- libglu&#45;&gt;colmap -->
<g id="edge28" class="edge">
<title>libglu&#45;&gt;colmap</title>
<path fill="none" stroke="black" d="M1377.83,-291.1C1363.26,-281.54 1344.95,-267.76 1332.25,-252 1317.51,-233.71 1306.49,-209.4 1299.44,-190.81"/>
<polygon fill="black" stroke="black" points="1302.77,-189.72 1296.09,-181.5 1296.19,-192.1 1302.77,-189.72"/>
</g>
<!-- freeglut -->
<g id="node19" class="node">
<title>freeglut</title>
<g id="a_node19"><a xlink:href="https://github.com/conda-forge/freeglut-feedstock" xlink:title="freeglut">
<ellipse fill="#fde725" stroke="black" cx="1401.25" cy="-234" rx="51.21" ry="18"/>
<text text-anchor="middle" x="1401.25" y="-229.32" font-family="Times,serif" font-size="14.00">freeglut</text>
</a>
</g>
</g>
<!-- libglu&#45;&gt;freeglut -->
<g id="edge26" class="edge">
<title>libglu&#45;&gt;freeglut</title>
<path fill="none" stroke="black" d="M1401.25,-287.7C1401.25,-280.41 1401.25,-271.73 1401.25,-263.54"/>
<polygon fill="black" stroke="black" points="1404.75,-263.62 1401.25,-253.62 1397.75,-263.62 1404.75,-263.62"/>
</g>
<!-- fltk -->
<g id="node20" class="node">
<title>fltk</title>
<g id="a_node20"><a xlink:href="https://github.com/conda-forge/fltk-feedstock" xlink:title="fltk">
<ellipse fill="#fde725" stroke="black" cx="1746.25" cy="-162" rx="27.53" ry="18"/>
<text text-anchor="middle" x="1746.25" y="-157.32" font-family="Times,serif" font-size="14.00">fltk</text>
</a>
</g>
</g>
<!-- libglu&#45;&gt;fltk -->
<g id="edge27" class="edge">
<title>libglu&#45;&gt;fltk</title>
<path fill="none" stroke="black" d="M1435.06,-296.21C1446.78,-293.35 1460.05,-290.32 1472.25,-288 1528.47,-277.33 1685.39,-291.02 1727.25,-252 1743.52,-236.83 1747.64,-211.43 1748.05,-191.64"/>
<polygon fill="black" stroke="black" points="1751.55,-191.65 1747.93,-181.7 1744.56,-191.74 1751.55,-191.65"/>
</g>
<!-- freeglut&#45;&gt;gazebo -->
<g id="edge29" class="edge">
<title>freeglut&#45;&gt;gazebo</title>
<path fill="none" stroke="black" d="M1401.25,-215.7C1401.25,-208.41 1401.25,-199.73 1401.25,-191.54"/>
<polygon fill="black" stroke="black" points="1404.75,-191.62 1401.25,-181.62 1397.75,-191.62 1404.75,-191.62"/>
</g>
<!-- mesalib -->
<g id="node21" class="node">
<title>mesalib</title>
<g id="a_node21"><a xlink:href="https://github.com/conda-forge/mesalib-feedstock" xlink:title="mesalib">
<ellipse fill="#35b779" stroke="black" cx="1668.25" cy="-234" rx="50.16" ry="18"/>
<text text-anchor="middle" x="1668.25" y="-229.32" font-family="Times,serif" font-size="14.00">mesalib</text>
</a>
</g>
</g>
<!-- mesalib&#45;&gt;vtk -->
<g id="edge30" class="edge">
<title>mesalib&#45;&gt;vtk</title>
<path fill="none" stroke="black" d="M1650.16,-216.76C1639.47,-207.17 1625.81,-194.91 1614.23,-184.52"/>
<polygon fill="black" stroke="black" points="1616.78,-182.1 1607,-178.03 1612.1,-187.31 1616.78,-182.1"/>
</g>
<!-- libva -->
<g id="node22" class="node">
<title>libva</title>
<g id="a_node22"><a xlink:href="https://github.com/conda-forge/libva-feedstock" xlink:title="libva">
<ellipse fill="#35b779" stroke="black" cx="1516.25" cy="-306" rx="35.42" ry="18"/>
<text text-anchor="middle" x="1516.25" y="-301.32" font-family="Times,serif" font-size="14.00">libva</text>
</a>
</g>
</g>
<!-- libva&#45;&gt;ffmpeg -->
<g id="edge31" class="edge">
<title>libva&#45;&gt;ffmpeg</title>
<path fill="none" stroke="black" d="M1516.25,-287.7C1516.25,-280.41 1516.25,-271.73 1516.25,-263.54"/>
<polygon fill="black" stroke="black" points="1519.75,-263.62 1516.25,-253.62 1512.75,-263.62 1519.75,-263.62"/>
</g>
<!-- xcb&#45;util&#45;image -->
<g id="node23" class="node">
<title>xcb&#45;util&#45;image</title>
<g id="a_node23"><a xlink:href="https://github.com/conda-forge/xcb-util-image-feedstock" xlink:title="xcb util image">
<ellipse fill="#35b779" stroke="black" cx="82.25" cy="-306" rx="82.25" ry="18"/>
<text text-anchor="middle" x="82.25" y="-301.32" font-family="Times,serif" font-size="14.00">xcb util image</text>
</a>
</g>
</g>
<!-- xcb&#45;util&#45;image&#45;&gt;qt&#45;main -->
<g id="edge33" class="edge">
<title>xcb&#45;util&#45;image&#45;&gt;qt&#45;main</title>
<path fill="none" stroke="black" d="M140.99,-293.11C152.01,-291.18 163.45,-289.36 174.25,-288 439.23,-254.58 757.95,-241.17 889.21,-236.79"/>
<polygon fill="black" stroke="black" points="889.19,-240.29 899.07,-236.47 888.96,-233.3 889.19,-240.29"/>
</g>
<!-- xcb&#45;util&#45;cursor -->
<g id="node24" class="node">
<title>xcb&#45;util&#45;cursor</title>
<g id="a_node24"><a xlink:href="https://github.com/conda-forge/xcb-util-cursor-feedstock" xlink:title="xcb util cursor">
<ellipse fill="#fde725" stroke="black" cx="159.25" cy="-234" rx="83.83" ry="18"/>
<text text-anchor="middle" x="159.25" y="-229.32" font-family="Times,serif" font-size="14.00">xcb util cursor</text>
</a>
</g>
</g>
<!-- xcb&#45;util&#45;image&#45;&gt;xcb&#45;util&#45;cursor -->
<g id="edge34" class="edge">
<title>xcb&#45;util&#45;image&#45;&gt;xcb&#45;util&#45;cursor</title>
<path fill="none" stroke="black" d="M100.89,-288.05C110.28,-279.52 121.84,-269.01 132.18,-259.61"/>
<polygon fill="black" stroke="black" points="134.35,-262.37 139.39,-253.05 129.64,-257.19 134.35,-262.37"/>
</g>
<!-- nsight&#45;compute -->
<g id="node25" class="node">
<title>nsight&#45;compute</title>
<g id="a_node25"><a xlink:href="https://github.com/conda-forge/nsight-compute-feedstock" xlink:title="nsight compute">
<ellipse fill="#fde725" stroke="black" cx="123.25" cy="-162" rx="89.09" ry="18"/>
<text text-anchor="middle" x="123.25" y="-157.32" font-family="Times,serif" font-size="14.00">nsight compute</text>
</a>
</g>
</g>
<!-- xcb&#45;util&#45;image&#45;&gt;nsight&#45;compute -->
<g id="edge35" class="edge">
<title>xcb&#45;util&#45;image&#45;&gt;nsight&#45;compute</title>
<path fill="none" stroke="black" d="M73.55,-287.92C65.42,-269.49 55.97,-239.6 66.25,-216 71.12,-204.83 79.63,-194.95 88.61,-186.84"/>
<polygon fill="black" stroke="black" points="90.67,-189.69 96.1,-180.59 86.18,-184.31 90.67,-189.69"/>
</g>
<!-- xcb&#45;util&#45;cursor&#45;&gt;nsight&#45;compute -->
<g id="edge36" class="edge">
<title>xcb&#45;util&#45;cursor&#45;&gt;nsight&#45;compute</title>
<path fill="none" stroke="black" d="M150.35,-215.7C146.38,-207.98 141.62,-198.71 137.19,-190.11"/>
<polygon fill="black" stroke="black" points="140.42,-188.74 132.74,-181.45 134.2,-191.94 140.42,-188.74"/>
</g>
<!-- xcb&#45;util&#45;renderutil -->
<g id="node26" class="node">
<title>xcb&#45;util&#45;renderutil</title>
<g id="a_node26"><a xlink:href="https://github.com/conda-forge/xcb-util-renderutil-feedstock/pull/6" xlink:title="xcb util renderutil ❎">
<ellipse fill="#31688e" stroke="black" cx="300.25" cy="-306" rx="117.5" ry="18"/>
<text text-anchor="middle" x="300.25" y="-301.32" font-family="Times,serif" font-size="14.00" fill="white">xcb util renderutil ❎</text>
</a>
</g>
</g>
<!-- xcb&#45;util&#45;renderutil&#45;&gt;qt&#45;main -->
<g id="edge37" class="edge">
<title>xcb&#45;util&#45;renderutil&#45;&gt;qt&#45;main</title>
<path fill="none" stroke="black" d="M394.06,-294.83C414.87,-292.58 436.81,-290.21 457.25,-288 614.22,-271.06 799.32,-251.19 891.67,-241.28"/>
<polygon fill="black" stroke="black" points="891.93,-244.78 901.5,-240.23 891.18,-237.82 891.93,-244.78"/>
</g>
<!-- xcb&#45;util&#45;renderutil&#45;&gt;xcb&#45;util&#45;cursor -->
<g id="edge38" class="edge">
<title>xcb&#45;util&#45;renderutil&#45;&gt;xcb&#45;util&#45;cursor</title>
<path fill="none" stroke="black" d="M266.83,-288.41C247.33,-278.73 222.53,-266.41 201.65,-256.05"/>
<polygon fill="black" stroke="black" points="203.32,-252.97 192.81,-251.66 200.21,-259.24 203.32,-252.97"/>
</g>
<!-- xcb&#45;util&#45;renderutil&#45;&gt;nsight&#45;compute -->
<g id="edge39" class="edge">
<title>xcb&#45;util&#45;renderutil&#45;&gt;nsight&#45;compute</title>
<path fill="none" stroke="black" d="M294.9,-287.68C287.99,-267.9 274.17,-235.73 252.25,-216 234.39,-199.92 210.99,-188.34 189.02,-180.19"/>
<polygon fill="black" stroke="black" points="190.41,-176.97 179.82,-176.96 188.09,-183.57 190.41,-176.97"/>
</g>
<!-- vulkan&#45;loader -->
<g id="node27" class="node">
<title>vulkan&#45;loader</title>
<g id="a_node27"><a xlink:href="https://github.com/conda-forge/vulkan-loader-feedstock" xlink:title="vulkan loader">
<ellipse fill="#35b779" stroke="black" cx="1860.25" cy="-198" rx="79.09" ry="18"/>
<text text-anchor="middle" x="1860.25" y="-193.32" font-family="Times,serif" font-size="14.00">vulkan loader</text>
</a>
</g>
</g>
<!-- vulkan&#45;tools -->
<g id="node28" class="node">
<title>vulkan&#45;tools</title>
<g id="a_node28"><a xlink:href="https://github.com/conda-forge/vulkan-tools-feedstock" xlink:title="vulkan tools">
<ellipse fill="#fde725" stroke="black" cx="1860.25" cy="-126" rx="71.73" ry="18"/>
<text text-anchor="middle" x="1860.25" y="-121.33" font-family="Times,serif" font-size="14.00">vulkan tools</text>
</a>
</g>
</g>
<!-- vulkan&#45;loader&#45;&gt;vulkan&#45;tools -->
<g id="edge40" class="edge">
<title>vulkan&#45;loader&#45;&gt;vulkan&#45;tools</title>
<path fill="none" stroke="black" d="M1860.25,-179.7C1860.25,-172.41 1860.25,-163.73 1860.25,-155.54"/>
<polygon fill="black" stroke="black" points="1863.75,-155.62 1860.25,-145.62 1856.75,-155.62 1863.75,-155.62"/>
</g>
</g>
</svg>
