<?xml version="1.0" encoding="UTF-8" standalone="no"?>
<!DOCTYPE svg PUBLIC "-//W3C//DTD SVG 1.1//EN"
 "http://www.w3.org/Graphics/SVG/1.1/DTD/svg11.dtd">
<!-- Generated by graphviz version 11.0.0 (20240519.1550)
 -->
<!-- Pages: 1 -->
<svg width="1193pt" height="404pt"
 viewBox="0.00 0.00 1192.72 404.00" xmlns="http://www.w3.org/2000/svg" xmlns:xlink="http://www.w3.org/1999/xlink">
<g id="graph0" class="graph" transform="scale(1 1) rotate(0) translate(4 400)">
<polygon fill="white" stroke="none" points="-4,4 -4,-400 1188.72,-400 1188.72,4 -4,4"/>
<!-- ffmpeg -->
<g id="node1" class="node">
<title>ffmpeg</title>
<g id="a_node1"><a xlink:href="https://github.com/conda-forge/ffmpeg-feedstock/pull/258" xlink:title="ffmpeg ❎">
<ellipse fill="#31688e" stroke="black" cx="745.63" cy="-378" rx="61.2" ry="18"/>
<text text-anchor="middle" x="745.63" y="-373.32" font-family="Times,serif" font-size="14.00" fill="white">ffmpeg ❎</text>
</a>
</g>
</g>
<!-- vtk -->
<g id="node2" class="node">
<title>vtk</title>
<g id="a_node2"><a xlink:href="https://github.com/conda-forge/vtk-feedstock" xlink:title="vtk">
<ellipse fill="#fde725" stroke="black" cx="745.63" cy="-306" rx="27.01" ry="18"/>
<text text-anchor="middle" x="745.63" y="-301.32" font-family="Times,serif" font-size="14.00">vtk</text>
</a>
</g>
</g>
<!-- ffmpeg&#45;&gt;vtk -->
<g id="edge1" class="edge">
<title>ffmpeg&#45;&gt;vtk</title>
<path fill="none" stroke="black" d="M745.63,-359.7C745.63,-352.41 745.63,-343.73 745.63,-335.54"/>
<polygon fill="black" stroke="black" points="749.13,-335.62 745.63,-325.62 742.13,-335.62 749.13,-335.62"/>
</g>
<!-- gazebo -->
<g id="node3" class="node">
<title>gazebo</title>
<g id="a_node3"><a xlink:href="https://github.com/conda-forge/gazebo-feedstock" xlink:title="gazebo">
<ellipse fill="#fde725" stroke="black" cx="647.63" cy="-306" rx="46.47" ry="18"/>
<text text-anchor="middle" x="647.63" y="-301.32" font-family="Times,serif" font-size="14.00">gazebo</text>
</a>
</g>
</g>
<!-- ffmpeg&#45;&gt;gazebo -->
<g id="edge2" class="edge">
<title>ffmpeg&#45;&gt;gazebo</title>
<path fill="none" stroke="black" d="M723.39,-361.12C710.05,-351.59 692.89,-339.33 678.28,-328.89"/>
<polygon fill="black" stroke="black" points="680.51,-326.18 670.34,-323.22 676.44,-331.88 680.51,-326.18"/>
</g>
<!-- gnuplot -->
<g id="node4" class="node">
<title>gnuplot</title>
<g id="a_node4"><a xlink:href="https://github.com/conda-forge/gnuplot-feedstock" xlink:title="gnuplot">
<ellipse fill="#fde725" stroke="black" cx="49.63" cy="-306" rx="49.63" ry="18"/>
<text text-anchor="middle" x="49.63" y="-301.32" font-family="Times,serif" font-size="14.00">gnuplot</text>
</a>
</g>
</g>
<!-- freeglut -->
<g id="node5" class="node">
<title>freeglut</title>
<g id="a_node5"><a xlink:href="https://github.com/conda-forge/freeglut-feedstock/pull/38" xlink:title="freeglut ❎">
<ellipse fill="#31688e" stroke="black" cx="599.63" cy="-378" rx="66.47" ry="18"/>
<text text-anchor="middle" x="599.63" y="-373.32" font-family="Times,serif" font-size="14.00" fill="white">freeglut ❎</text>
</a>
</g>
</g>
<!-- freeglut&#45;&gt;gazebo -->
<g id="edge3" class="edge">
<title>freeglut&#45;&gt;gazebo</title>
<path fill="none" stroke="black" d="M611.25,-360.05C616.79,-351.97 623.55,-342.12 629.72,-333.11"/>
<polygon fill="black" stroke="black" points="632.49,-335.26 635.26,-325.04 626.72,-331.31 632.49,-335.26"/>
</g>
<!-- fltk -->
<g id="node6" class="node">
<title>fltk</title>
<g id="a_node6"><a xlink:href="https://github.com/conda-forge/fltk-feedstock" xlink:title="fltk">
<ellipse fill="#35b779" stroke="black" cx="906.63" cy="-306" rx="27.53" ry="18"/>
<text text-anchor="middle" x="906.63" y="-301.32" font-family="Times,serif" font-size="14.00">fltk</text>
</a>
</g>
</g>
<!-- gst&#45;plugins&#45;ugly -->
<g id="node7" class="node">
<title>gst&#45;plugins&#45;ugly</title>
<g id="a_node7"><a xlink:href="https://github.com/conda-forge/gst-plugins-ugly-feedstock" xlink:title="gst plugins ugly">
<ellipse fill="#35b779" stroke="black" cx="906.63" cy="-234" rx="91.72" ry="18"/>
<text text-anchor="middle" x="906.63" y="-229.32" font-family="Times,serif" font-size="14.00">gst plugins ugly</text>
</a>
</g>
</g>
<!-- fltk&#45;&gt;gst&#45;plugins&#45;ugly -->
<!-- gst&#45;plugins&#45;bad -->
<g id="node11" class="node">
<title>gst&#45;plugins&#45;bad</title>
<g id="a_node11"><a xlink:href="https://github.com/conda-forge/gst-plugins-bad-feedstock" xlink:title="gst plugins bad">
<ellipse fill="#35b779" stroke="black" cx="906.63" cy="-162" rx="88.56" ry="18"/>
<text text-anchor="middle" x="906.63" y="-157.32" font-family="Times,serif" font-size="14.00">gst plugins bad</text>
</a>
</g>
</g>
<!-- gst&#45;plugins&#45;ugly&#45;&gt;gst&#45;plugins&#45;bad -->
<!-- kwindowsystem -->
<g id="node8" class="node">
<title>kwindowsystem</title>
<g id="a_node8"><a xlink:href="https://github.com/conda-forge/kwindowsystem-feedstock" xlink:title="kwindowsystem">
<ellipse fill="#fde725" stroke="black" cx="127.63" cy="-234" rx="91.19" ry="18"/>
<text text-anchor="middle" x="127.63" y="-229.32" font-family="Times,serif" font-size="14.00">kwindowsystem</text>
</a>
</g>
</g>
<!-- kglobalaccel -->
<g id="node9" class="node">
<title>kglobalaccel</title>
<g id="a_node9"><a xlink:href="https://github.com/conda-forge/kglobalaccel-feedstock" xlink:title="kglobalaccel">
<ellipse fill="#fde725" stroke="black" cx="244.63" cy="-162" rx="72.78" ry="18"/>
<text text-anchor="middle" x="244.63" y="-157.32" font-family="Times,serif" font-size="14.00">kglobalaccel</text>
</a>
</g>
</g>
<!-- kwindowsystem&#45;&gt;kglobalaccel -->
<g id="edge5" class="edge">
<title>kwindowsystem&#45;&gt;kglobalaccel</title>
<path fill="none" stroke="black" d="M155.36,-216.41C171.17,-206.95 191.19,-194.97 208.25,-184.76"/>
<polygon fill="black" stroke="black" points="209.82,-187.9 216.61,-179.77 206.23,-181.9 209.82,-187.9"/>
</g>
<!-- lyx -->
<g id="node10" class="node">
<title>lyx</title>
<g id="a_node10"><a xlink:href="https://github.com/conda-forge/lyx-feedstock" xlink:title="lyx">
<ellipse fill="#fde725" stroke="black" cx="324.63" cy="-234" rx="27" ry="18"/>
<text text-anchor="middle" x="324.63" y="-229.32" font-family="Times,serif" font-size="14.00">lyx</text>
</a>
</g>
</g>
<!-- silicon -->
<g id="node12" class="node">
<title>silicon</title>
<g id="a_node12"><a xlink:href="https://github.com/conda-forge/silicon-feedstock" xlink:title="silicon">
<ellipse fill="#35b779" stroke="black" cx="906.63" cy="-90" rx="43.32" ry="18"/>
<text text-anchor="middle" x="906.63" y="-85.33" font-family="Times,serif" font-size="14.00">silicon</text>
</a>
</g>
</g>
<!-- gst&#45;plugins&#45;bad&#45;&gt;silicon -->
<!-- colmap -->
<g id="node13" class="node">
<title>colmap</title>
<g id="a_node13"><a xlink:href="https://github.com/conda-forge/colmap-feedstock" xlink:title="colmap">
<ellipse fill="#fde725" stroke="black" cx="382.63" cy="-162" rx="47" ry="18"/>
<text text-anchor="middle" x="382.63" y="-157.32" font-family="Times,serif" font-size="14.00">colmap</text>
</a>
</g>
</g>
<!-- qt&#45;main -->
<g id="node14" class="node">
<title>qt&#45;main</title>
<g id="a_node14"><a xlink:href="https://github.com/conda-forge/qt-main-feedstock/pull/269" xlink:title="qt main ❎">
<ellipse fill="#31688e" stroke="black" cx="379.63" cy="-378" rx="64.89" ry="18"/>
<text text-anchor="middle" x="379.63" y="-373.32" font-family="Times,serif" font-size="14.00" fill="white">qt main ❎</text>
</a>
</g>
</g>
<!-- qt&#45;main&#45;&gt;gazebo -->
<g id="edge8" class="edge">
<title>qt&#45;main&#45;&gt;gazebo</title>
<path fill="none" stroke="black" d="M426.81,-365.36C469.03,-354.85 532.57,-338.81 587.63,-324 591.68,-322.91 595.89,-321.76 600.1,-320.59"/>
<polygon fill="black" stroke="black" points="601.04,-323.96 609.73,-317.9 599.15,-317.22 601.04,-323.96"/>
</g>
<!-- qt&#45;main&#45;&gt;gnuplot -->
<g id="edge9" class="edge">
<title>qt&#45;main&#45;&gt;gnuplot</title>
<path fill="none" stroke="black" d="M326.17,-367.37C272.31,-357.43 186.9,-341.01 113.63,-324 108.84,-322.89 103.86,-321.67 98.89,-320.42"/>
<polygon fill="black" stroke="black" points="100.14,-317.12 89.58,-318.02 98.39,-323.9 100.14,-317.12"/>
</g>
<!-- qt&#45;main&#45;&gt;kwindowsystem -->
<g id="edge10" class="edge">
<title>qt&#45;main&#45;&gt;kwindowsystem</title>
<path fill="none" stroke="black" d="M319.68,-370.7C258.88,-363.06 170.45,-348.14 146.63,-324 131.1,-308.26 126.87,-283.13 126.23,-263.58"/>
<polygon fill="black" stroke="black" points="129.73,-263.78 126.22,-253.78 122.73,-263.78 129.73,-263.78"/>
</g>
<!-- qt&#45;main&#45;&gt;kglobalaccel -->
<g id="edge11" class="edge">
<title>qt&#45;main&#45;&gt;kglobalaccel</title>
<path fill="none" stroke="black" d="M382.7,-359.53C387.29,-327.68 392.29,-259.44 360.63,-216 347.86,-198.48 327.89,-186.61 308.1,-178.63"/>
<polygon fill="black" stroke="black" points="309.5,-175.42 298.91,-175.22 307.06,-181.98 309.5,-175.42"/>
</g>
<!-- qt&#45;main&#45;&gt;lyx -->
<g id="edge12" class="edge">
<title>qt&#45;main&#45;&gt;lyx</title>
<path fill="none" stroke="black" d="M373,-359.87C363.61,-335.65 346.37,-291.12 335.21,-262.31"/>
<polygon fill="black" stroke="black" points="338.54,-261.22 331.66,-253.16 332.01,-263.75 338.54,-261.22"/>
</g>
<!-- qt&#45;main&#45;&gt;colmap -->
<g id="edge13" class="edge">
<title>qt&#45;main&#45;&gt;colmap</title>
<path fill="none" stroke="black" d="M385.31,-360.04C388.45,-349.74 392.04,-336.27 393.63,-324 399.81,-276.4 398.53,-263.75 393.63,-216 392.79,-207.83 391.24,-199.07 389.57,-191.07"/>
<polygon fill="black" stroke="black" points="393.03,-190.51 387.43,-181.52 386.2,-192.05 393.03,-190.51"/>
</g>
<!-- qt&#45;webengine -->
<g id="node15" class="node">
<title>qt&#45;webengine</title>
<g id="a_node15"><a xlink:href="https://github.com/conda-forge/qt-webengine-feedstock" xlink:title="qt webengine">
<ellipse fill="#fde725" stroke="black" cx="234.63" cy="-306" rx="79.09" ry="18"/>
<text text-anchor="middle" x="234.63" y="-301.32" font-family="Times,serif" font-size="14.00">qt webengine</text>
</a>
</g>
</g>
<!-- qt&#45;main&#45;&gt;qt&#45;webengine -->
<g id="edge14" class="edge">
<title>qt&#45;main&#45;&gt;qt&#45;webengine</title>
<path fill="none" stroke="black" d="M348.17,-361.81C327.53,-351.85 300.28,-338.69 277.65,-327.77"/>
<polygon fill="black" stroke="black" points="279.18,-324.62 268.65,-323.42 276.13,-330.92 279.18,-324.62"/>
</g>
<!-- qt6&#45;advanced&#45;docking&#45;system -->
<g id="node16" class="node">
<title>qt6&#45;advanced&#45;docking&#45;system</title>
<g id="a_node16"><a xlink:href="https://github.com/conda-forge/qt6-advanced-docking-system-feedstock" xlink:title="qt6 advanced docking system">
<ellipse fill="#fde725" stroke="black" cx="385.63" cy="-90" rx="159.59" ry="18"/>
<text text-anchor="middle" x="385.63" y="-85.33" font-family="Times,serif" font-size="14.00">qt6 advanced docking system</text>
</a>
</g>
</g>
<!-- qt&#45;main&#45;&gt;qt6&#45;advanced&#45;docking&#45;system -->
<g id="edge15" class="edge">
<title>qt&#45;main&#45;&gt;qt6&#45;advanced&#45;docking&#45;system</title>
<path fill="none" stroke="black" d="M390.65,-359.95C396.74,-349.85 403.99,-336.6 408.63,-324 431.23,-262.66 431.93,-245.03 438.63,-180 440.27,-164.08 444.75,-158.78 438.63,-144 434.27,-133.47 426.69,-123.94 418.6,-115.96"/>
<polygon fill="black" stroke="black" points="420.98,-113.39 411.23,-109.25 416.27,-118.57 420.98,-113.39"/>
</g>
<!-- adwaita&#45;qt -->
<g id="node17" class="node">
<title>adwaita&#45;qt</title>
<g id="a_node17"><a xlink:href="https://github.com/conda-forge/adwaita-qt-feedstock" xlink:title="adwaita qt">
<ellipse fill="#fde725" stroke="black" cx="573.63" cy="-18" rx="64.36" ry="18"/>
<text text-anchor="middle" x="573.63" y="-13.32" font-family="Times,serif" font-size="14.00">adwaita qt</text>
</a>
</g>
</g>
<!-- qt&#45;main&#45;&gt;adwaita&#45;qt -->
<g id="edge16" class="edge">
<title>qt&#45;main&#45;&gt;adwaita&#45;qt</title>
<path fill="none" stroke="black" d="M426.1,-365.13C483.49,-347.35 573.63,-307.83 573.63,-235 573.63,-235 573.63,-235 573.63,-161 573.63,-121.74 573.63,-76.38 573.63,-47.69"/>
<polygon fill="black" stroke="black" points="577.13,-48 573.63,-38 570.13,-48 577.13,-48"/>
</g>
<!-- qt&#45;webengine&#45;&gt;kwindowsystem -->
<g id="edge17" class="edge">
<title>qt&#45;webengine&#45;&gt;kwindowsystem</title>
<path fill="none" stroke="black" d="M209.54,-288.59C195.42,-279.35 177.59,-267.68 162.17,-257.59"/>
<polygon fill="black" stroke="black" points="164.48,-254.93 154.2,-252.38 160.65,-260.78 164.48,-254.93"/>
</g>
<!-- qt&#45;webengine&#45;&gt;kglobalaccel -->
<g id="edge18" class="edge">
<title>qt&#45;webengine&#45;&gt;kglobalaccel</title>
<path fill="none" stroke="black" d="M235.86,-287.59C237.54,-263.61 240.61,-220.14 242.63,-191.42"/>
<polygon fill="black" stroke="black" points="246.11,-191.84 243.32,-181.62 239.12,-191.35 246.11,-191.84"/>
</g>
<!-- xcb&#45;util&#45;cursor -->
<g id="node18" class="node">
<title>xcb&#45;util&#45;cursor</title>
<g id="a_node18"><a xlink:href="https://github.com/conda-forge/xcb-util-cursor-feedstock" xlink:title="xcb util cursor">
<ellipse fill="#35b779" stroke="black" cx="1095.63" cy="-234" rx="83.83" ry="18"/>
<text text-anchor="middle" x="1095.63" y="-229.32" font-family="Times,serif" font-size="14.00">xcb util cursor</text>
</a>
</g>
</g>
<!-- nsight&#45;compute -->
<g id="node19" class="node">
<title>nsight&#45;compute</title>
<g id="a_node19"><a xlink:href="https://github.com/conda-forge/nsight-compute-feedstock" xlink:title="nsight compute">
<ellipse fill="#fde725" stroke="black" cx="1095.63" cy="-162" rx="89.09" ry="18"/>
<text text-anchor="middle" x="1095.63" y="-157.32" font-family="Times,serif" font-size="14.00">nsight compute</text>
</a>
</g>
</g>
<!-- xcb&#45;util&#45;cursor&#45;&gt;nsight&#45;compute -->
<g id="edge19" class="edge">
<title>xcb&#45;util&#45;cursor&#45;&gt;nsight&#45;compute</title>
<path fill="none" stroke="black" d="M1095.63,-215.7C1095.63,-208.41 1095.63,-199.73 1095.63,-191.54"/>
<polygon fill="black" stroke="black" points="1099.13,-191.62 1095.63,-181.62 1092.13,-191.62 1099.13,-191.62"/>
</g>
</g>
</svg>
