<?xml version="1.0" encoding="UTF-8" standalone="no"?>
<!DOCTYPE svg PUBLIC "-//W3C//DTD SVG 1.1//EN"
 "http://www.w3.org/Graphics/SVG/1.1/DTD/svg11.dtd">
<!-- Generated by graphviz version 11.0.0 (20240519.1550)
 -->
<!-- Pages: 1 -->
<svg width="1761pt" height="332pt"
 viewBox="0.00 0.00 1760.81 332.00" xmlns="http://www.w3.org/2000/svg" xmlns:xlink="http://www.w3.org/1999/xlink">
<g id="graph0" class="graph" transform="scale(1 1) rotate(0) translate(4 328)">
<polygon fill="white" stroke="none" points="-4,4 -4,-328 1756.81,-328 1756.81,4 -4,4"/>
<!-- cairo -->
<g id="node1" class="node">
<title>cairo</title>
<g id="a_node1"><a xlink:href="https://github.com/conda-forge/cairo-feedstock/pull/75" xlink:title="cairo ✓">
<ellipse fill="#31688e" stroke="black" cx="895.09" cy="-306" rx="43.84" ry="18"/>
<text text-anchor="middle" x="895.09" y="-301.32" font-family="Times,serif" font-size="14.00" fill="white">cairo ✓</text>
</a>
</g>
</g>
<!-- ffmpeg -->
<g id="node2" class="node">
<title>ffmpeg</title>
<g id="a_node2"><a xlink:href="https://github.com/conda-forge/ffmpeg-feedstock" xlink:title="ffmpeg">
<ellipse fill="#fde725" stroke="black" cx="1264.09" cy="-234" rx="45.95" ry="18"/>
<text text-anchor="middle" x="1264.09" y="-229.32" font-family="Times,serif" font-size="14.00">ffmpeg</text>
</a>
</g>
</g>
<!-- cairo&#45;&gt;ffmpeg -->
<g id="edge1" class="edge">
<title>cairo&#45;&gt;ffmpeg</title>
<path fill="none" stroke="black" d="M936.59,-299.78C997.01,-291.78 1112.55,-274.96 1209.09,-252 1212.23,-251.25 1215.46,-250.42 1218.7,-249.54"/>
<polygon fill="black" stroke="black" points="1219.55,-252.94 1228.21,-246.82 1217.63,-246.21 1219.55,-252.94"/>
</g>
<!-- gnuplot -->
<g id="node3" class="node">
<title>gnuplot</title>
<g id="a_node3"><a xlink:href="https://github.com/conda-forge/gnuplot-feedstock" xlink:title="gnuplot">
<ellipse fill="#fde725" stroke="black" cx="973.09" cy="-162" rx="49.63" ry="18"/>
<text text-anchor="middle" x="973.09" y="-157.32" font-family="Times,serif" font-size="14.00">gnuplot</text>
</a>
</g>
</g>
<!-- cairo&#45;&gt;gnuplot -->
<g id="edge2" class="edge">
<title>cairo&#45;&gt;gnuplot</title>
<path fill="none" stroke="black" d="M901.06,-287.68C907.71,-269.3 919.36,-239.7 933.09,-216 938.55,-206.58 945.42,-196.89 951.93,-188.42"/>
<polygon fill="black" stroke="black" points="954.62,-190.66 958.08,-180.64 949.13,-186.32 954.62,-190.66"/>
</g>
<!-- lyx -->
<g id="node4" class="node">
<title>lyx</title>
<g id="a_node4"><a xlink:href="https://github.com/conda-forge/lyx-feedstock" xlink:title="lyx">
<ellipse fill="#fde725" stroke="black" cx="878.09" cy="-162" rx="27" ry="18"/>
<text text-anchor="middle" x="878.09" y="-157.32" font-family="Times,serif" font-size="14.00">lyx</text>
</a>
</g>
</g>
<!-- cairo&#45;&gt;lyx -->
<g id="edge3" class="edge">
<title>cairo&#45;&gt;lyx</title>
<path fill="none" stroke="black" d="M893,-287.59C890.13,-263.61 884.93,-220.14 881.49,-191.42"/>
<polygon fill="black" stroke="black" points="884.98,-191.13 880.32,-181.61 878.03,-191.96 884.98,-191.13"/>
</g>
<!-- qt&#45;main -->
<g id="node5" class="node">
<title>qt&#45;main</title>
<g id="a_node5"><a xlink:href="https://github.com/conda-forge/qt-main-feedstock" xlink:title="qt main">
<ellipse fill="#fde725" stroke="black" cx="754.09" cy="-234" rx="49.63" ry="18"/>
<text text-anchor="middle" x="754.09" y="-229.32" font-family="Times,serif" font-size="14.00">qt main</text>
</a>
</g>
</g>
<!-- cairo&#45;&gt;qt&#45;main -->
<g id="edge4" class="edge">
<title>cairo&#45;&gt;qt&#45;main</title>
<path fill="none" stroke="black" d="M867.9,-291.5C846.57,-280.91 816.6,-266.04 792.77,-254.2"/>
<polygon fill="black" stroke="black" points="794.51,-251.16 784,-249.85 791.4,-257.43 794.51,-251.16"/>
</g>
<!-- qt&#45;webengine -->
<g id="node6" class="node">
<title>qt&#45;webengine</title>
<g id="a_node6"><a xlink:href="https://github.com/conda-forge/qt-webengine-feedstock" xlink:title="qt webengine">
<ellipse fill="#fde725" stroke="black" cx="754.09" cy="-162" rx="79.09" ry="18"/>
<text text-anchor="middle" x="754.09" y="-157.32" font-family="Times,serif" font-size="14.00">qt webengine</text>
</a>
</g>
</g>
<!-- cairo&#45;&gt;qt&#45;webengine -->
<g id="edge5" class="edge">
<title>cairo&#45;&gt;qt&#45;webengine</title>
<path fill="none" stroke="black" d="M881.01,-288.82C865.02,-270.65 837.91,-240.51 813.09,-216 803.24,-206.27 792.02,-196.01 782.04,-187.13"/>
<polygon fill="black" stroke="black" points="784.59,-184.72 774.78,-180.74 779.97,-189.98 784.59,-184.72"/>
</g>
<!-- silicon -->
<g id="node7" class="node">
<title>silicon</title>
<g id="a_node7"><a xlink:href="https://github.com/conda-forge/silicon-feedstock" xlink:title="silicon">
<ellipse fill="#fde725" stroke="black" cx="985.09" cy="-234" rx="43.32" ry="18"/>
<text text-anchor="middle" x="985.09" y="-229.32" font-family="Times,serif" font-size="14.00">silicon</text>
</a>
</g>
</g>
<!-- cairo&#45;&gt;silicon -->
<g id="edge6" class="edge">
<title>cairo&#45;&gt;silicon</title>
<path fill="none" stroke="black" d="M914.62,-289.81C926.8,-280.34 942.69,-267.97 956.3,-257.39"/>
<polygon fill="black" stroke="black" points="958.35,-260.23 964.09,-251.33 954.05,-254.71 958.35,-260.23"/>
</g>
<!-- vtk -->
<g id="node8" class="node">
<title>vtk</title>
<g id="a_node8"><a xlink:href="https://github.com/conda-forge/vtk-feedstock" xlink:title="vtk">
<ellipse fill="#fde725" stroke="black" cx="1264.09" cy="-162" rx="27.01" ry="18"/>
<text text-anchor="middle" x="1264.09" y="-157.32" font-family="Times,serif" font-size="14.00">vtk</text>
</a>
</g>
</g>
<!-- ffmpeg&#45;&gt;vtk -->
<g id="edge7" class="edge">
<title>ffmpeg&#45;&gt;vtk</title>
<path fill="none" stroke="black" d="M1264.09,-215.7C1264.09,-208.41 1264.09,-199.73 1264.09,-191.54"/>
<polygon fill="black" stroke="black" points="1267.59,-191.62 1264.09,-181.62 1260.59,-191.62 1267.59,-191.62"/>
</g>
<!-- gazebo -->
<g id="node9" class="node">
<title>gazebo</title>
<g id="a_node9"><a xlink:href="https://github.com/conda-forge/gazebo-feedstock" xlink:title="gazebo">
<ellipse fill="#fde725" stroke="black" cx="1366.09" cy="-162" rx="46.47" ry="18"/>
<text text-anchor="middle" x="1366.09" y="-157.32" font-family="Times,serif" font-size="14.00">gazebo</text>
</a>
</g>
</g>
<!-- ffmpeg&#45;&gt;gazebo -->
<g id="edge8" class="edge">
<title>ffmpeg&#45;&gt;gazebo</title>
<path fill="none" stroke="black" d="M1286.22,-217.81C1300.39,-208.09 1318.99,-195.32 1334.68,-184.56"/>
<polygon fill="black" stroke="black" points="1336.49,-187.56 1342.75,-179.02 1332.53,-181.79 1336.49,-187.56"/>
</g>
<!-- qt&#45;main&#45;&gt;gnuplot -->
<g id="edge9" class="edge">
<title>qt&#45;main&#45;&gt;gnuplot</title>
<path fill="none" stroke="black" d="M790.25,-221.44C827.42,-209.56 885.46,-191.01 926.15,-178"/>
<polygon fill="black" stroke="black" points="926.97,-181.42 935.43,-175.04 924.84,-174.75 926.97,-181.42"/>
</g>
<!-- qt&#45;main&#45;&gt;lyx -->
<g id="edge10" class="edge">
<title>qt&#45;main&#45;&gt;lyx</title>
<path fill="none" stroke="black" d="M780.08,-218.33C799.89,-207.15 827.2,-191.73 847.96,-180.01"/>
<polygon fill="black" stroke="black" points="849.54,-183.13 856.53,-175.17 846.1,-177.04 849.54,-183.13"/>
</g>
<!-- qt&#45;main&#45;&gt;qt&#45;webengine -->
<g id="edge11" class="edge">
<title>qt&#45;main&#45;&gt;qt&#45;webengine</title>
<path fill="none" stroke="black" d="M754.09,-215.7C754.09,-208.41 754.09,-199.73 754.09,-191.54"/>
<polygon fill="black" stroke="black" points="757.59,-191.62 754.09,-181.62 750.59,-191.62 757.59,-191.62"/>
</g>
<!-- qt&#45;main&#45;&gt;gazebo -->
<g id="edge12" class="edge">
<title>qt&#45;main&#45;&gt;gazebo</title>
<path fill="none" stroke="black" d="M801.77,-228.47C932.52,-216.04 1287.85,-182.16 1300.09,-180 1306.13,-178.93 1312.44,-177.6 1318.65,-176.16"/>
<polygon fill="black" stroke="black" points="1319.3,-179.6 1328.18,-173.82 1317.64,-172.8 1319.3,-179.6"/>
</g>
<!-- colmap -->
<g id="node10" class="node">
<title>colmap</title>
<g id="a_node10"><a xlink:href="https://github.com/conda-forge/colmap-feedstock" xlink:title="colmap">
<ellipse fill="#fde725" stroke="black" cx="1088.09" cy="-162" rx="47" ry="18"/>
<text text-anchor="middle" x="1088.09" y="-157.32" font-family="Times,serif" font-size="14.00">colmap</text>
</a>
</g>
</g>
<!-- qt&#45;main&#45;&gt;colmap -->
<g id="edge13" class="edge">
<title>qt&#45;main&#45;&gt;colmap</title>
<path fill="none" stroke="black" d="M798.7,-226C853.88,-216.99 950.51,-200.1 1032.09,-180 1035.39,-179.19 1038.78,-178.3 1042.18,-177.36"/>
<polygon fill="black" stroke="black" points="1042.89,-180.8 1051.54,-174.69 1040.97,-174.07 1042.89,-180.8"/>
</g>
<!-- kwindowsystem -->
<g id="node11" class="node">
<title>kwindowsystem</title>
<g id="a_node11"><a xlink:href="https://github.com/conda-forge/kwindowsystem-feedstock" xlink:title="kwindowsystem">
<ellipse fill="#fde725" stroke="black" cx="641.09" cy="-90" rx="91.19" ry="18"/>
<text text-anchor="middle" x="641.09" y="-85.33" font-family="Times,serif" font-size="14.00">kwindowsystem</text>
</a>
</g>
</g>
<!-- qt&#45;main&#45;&gt;kwindowsystem -->
<g id="edge14" class="edge">
<title>qt&#45;main&#45;&gt;kwindowsystem</title>
<path fill="none" stroke="black" d="M720.9,-220.32C702.27,-211.61 680.04,-198.3 666.09,-180 652.84,-162.62 646.61,-138.55 643.69,-119.82"/>
<polygon fill="black" stroke="black" points="647.16,-119.37 642.39,-109.91 640.22,-120.28 647.16,-119.37"/>
</g>
<!-- kglobalaccel -->
<g id="node12" class="node">
<title>kglobalaccel</title>
<g id="a_node12"><a xlink:href="https://github.com/conda-forge/kglobalaccel-feedstock" xlink:title="kglobalaccel">
<ellipse fill="#fde725" stroke="black" cx="641.09" cy="-18" rx="72.78" ry="18"/>
<text text-anchor="middle" x="641.09" y="-13.32" font-family="Times,serif" font-size="14.00">kglobalaccel</text>
</a>
</g>
</g>
<!-- qt&#45;main&#45;&gt;kglobalaccel -->
<g id="edge15" class="edge">
<title>qt&#45;main&#45;&gt;kglobalaccel</title>
<path fill="none" stroke="black" d="M704.92,-231.02C591.16,-225.93 317.38,-210.59 290.09,-180 205.93,-85.68 436.17,-42.96 563.32,-26.99"/>
<polygon fill="black" stroke="black" points="563.54,-30.49 573.04,-25.81 562.69,-23.55 563.54,-30.49"/>
</g>
<!-- qt6&#45;advanced&#45;docking&#45;system -->
<g id="node13" class="node">
<title>qt6&#45;advanced&#45;docking&#45;system</title>
<g id="a_node13"><a xlink:href="https://github.com/conda-forge/qt6-advanced-docking-system-feedstock" xlink:title="qt6 advanced docking system">
<ellipse fill="#fde725" stroke="black" cx="459.09" cy="-162" rx="159.59" ry="18"/>
<text text-anchor="middle" x="459.09" y="-157.32" font-family="Times,serif" font-size="14.00">qt6 advanced docking system</text>
</a>
</g>
</g>
<!-- qt&#45;main&#45;&gt;qt6&#45;advanced&#45;docking&#45;system -->
<g id="edge16" class="edge">
<title>qt&#45;main&#45;&gt;qt6&#45;advanced&#45;docking&#45;system</title>
<path fill="none" stroke="black" d="M713.38,-223.34C667.96,-212.56 593.43,-194.88 536.77,-181.43"/>
<polygon fill="black" stroke="black" points="537.7,-178.06 527.16,-179.15 536.08,-184.87 537.7,-178.06"/>
</g>
<!-- adwaita&#45;qt -->
<g id="node14" class="node">
<title>adwaita&#45;qt</title>
<g id="a_node14"><a xlink:href="https://github.com/conda-forge/adwaita-qt-feedstock" xlink:title="adwaita qt">
<ellipse fill="#fde725" stroke="black" cx="179.09" cy="-90" rx="64.36" ry="18"/>
<text text-anchor="middle" x="179.09" y="-85.33" font-family="Times,serif" font-size="14.00">adwaita qt</text>
</a>
</g>
</g>
<!-- qt&#45;main&#45;&gt;adwaita&#45;qt -->
<g id="edge17" class="edge">
<title>qt&#45;main&#45;&gt;adwaita&#45;qt</title>
<path fill="none" stroke="black" d="M704.2,-232.24C594.13,-229.84 334.11,-219.97 257.09,-180 230.13,-166.01 208.3,-138.51 194.66,-117.76"/>
<polygon fill="black" stroke="black" points="197.74,-116.07 189.45,-109.48 191.82,-119.81 197.74,-116.07"/>
</g>
<!-- qt&#45;webengine&#45;&gt;kwindowsystem -->
<g id="edge18" class="edge">
<title>qt&#45;webengine&#45;&gt;kwindowsystem</title>
<path fill="none" stroke="black" d="M727.6,-144.59C712.69,-135.35 693.85,-123.68 677.56,-113.59"/>
<polygon fill="black" stroke="black" points="679.44,-110.64 669.09,-108.35 675.75,-116.59 679.44,-110.64"/>
</g>
<!-- qt&#45;webengine&#45;&gt;kglobalaccel -->
<g id="edge19" class="edge">
<title>qt&#45;webengine&#45;&gt;kglobalaccel</title>
<path fill="none" stroke="black" d="M755.94,-143.59C757.06,-124.32 756.03,-93.18 741.09,-72 730.21,-56.58 713.42,-45.26 696.68,-37.15"/>
<polygon fill="black" stroke="black" points="698.25,-34.02 687.69,-33.12 695.39,-40.41 698.25,-34.02"/>
</g>
<!-- kwindowsystem&#45;&gt;kglobalaccel -->
<g id="edge27" class="edge">
<title>kwindowsystem&#45;&gt;kglobalaccel</title>
<path fill="none" stroke="black" d="M641.09,-71.7C641.09,-64.41 641.09,-55.73 641.09,-47.54"/>
<polygon fill="black" stroke="black" points="644.59,-47.62 641.09,-37.62 637.59,-47.62 644.59,-47.62"/>
</g>
<!-- libglu -->
<g id="node15" class="node">
<title>libglu</title>
<g id="a_node15"><a xlink:href="https://github.com/conda-forge/libglu-feedstock/pull/24" xlink:title="libglu ✓">
<ellipse fill="#31688e" stroke="black" cx="1376.09" cy="-306" rx="47.53" ry="18"/>
<text text-anchor="middle" x="1376.09" y="-301.32" font-family="Times,serif" font-size="14.00" fill="white">libglu ✓</text>
</a>
</g>
</g>
<!-- libglu&#45;&gt;vtk -->
<g id="edge20" class="edge">
<title>libglu&#45;&gt;vtk</title>
<path fill="none" stroke="black" d="M1366.88,-288.13C1356.42,-269.62 1338.29,-239.41 1319.09,-216 1309.86,-204.74 1298.42,-193.38 1288.37,-184.09"/>
<polygon fill="black" stroke="black" points="1290.88,-181.64 1281.12,-177.52 1286.18,-186.83 1290.88,-181.64"/>
</g>
<!-- libglu&#45;&gt;gazebo -->
<g id="edge21" class="edge">
<title>libglu&#45;&gt;gazebo</title>
<path fill="none" stroke="black" d="M1374.86,-287.59C1373.17,-263.61 1370.11,-220.14 1368.09,-191.42"/>
<polygon fill="black" stroke="black" points="1371.59,-191.35 1367.4,-181.62 1364.61,-191.84 1371.59,-191.35"/>
</g>
<!-- libglu&#45;&gt;colmap -->
<g id="edge24" class="edge">
<title>libglu&#45;&gt;colmap</title>
<path fill="none" stroke="black" d="M1328.61,-303.78C1252.11,-300.71 1106.9,-289.9 1075.09,-252 1060.84,-235.02 1066.39,-209.51 1074.16,-190.15"/>
<polygon fill="black" stroke="black" points="1077.26,-191.79 1078.11,-181.23 1070.86,-188.95 1077.26,-191.79"/>
</g>
<!-- freeglut -->
<g id="node16" class="node">
<title>freeglut</title>
<g id="a_node16"><a xlink:href="https://github.com/conda-forge/freeglut-feedstock" xlink:title="freeglut">
<ellipse fill="#fde725" stroke="black" cx="1455.09" cy="-234" rx="51.21" ry="18"/>
<text text-anchor="middle" x="1455.09" y="-229.32" font-family="Times,serif" font-size="14.00">freeglut</text>
</a>
</g>
</g>
<!-- libglu&#45;&gt;freeglut -->
<g id="edge22" class="edge">
<title>libglu&#45;&gt;freeglut</title>
<path fill="none" stroke="black" d="M1394.02,-289.12C1404.25,-280.05 1417.26,-268.52 1428.65,-258.43"/>
<polygon fill="black" stroke="black" points="1430.66,-261.32 1435.83,-252.07 1426.02,-256.08 1430.66,-261.32"/>
</g>
<!-- fltk -->
<g id="node17" class="node">
<title>fltk</title>
<g id="a_node17"><a xlink:href="https://github.com/conda-forge/fltk-feedstock" xlink:title="fltk">
<ellipse fill="#fde725" stroke="black" cx="1534.09" cy="-162" rx="27.53" ry="18"/>
<text text-anchor="middle" x="1534.09" y="-157.32" font-family="Times,serif" font-size="14.00">fltk</text>
</a>
</g>
</g>
<!-- libglu&#45;&gt;fltk -->
<g id="edge23" class="edge">
<title>libglu&#45;&gt;fltk</title>
<path fill="none" stroke="black" d="M1420.69,-299.26C1451.64,-292.92 1491.4,-279.65 1515.09,-252 1529.32,-235.39 1533.72,-210.71 1534.75,-191.55"/>
<polygon fill="black" stroke="black" points="1538.25,-191.77 1534.98,-181.69 1531.25,-191.6 1538.25,-191.77"/>
</g>
<!-- freeglut&#45;&gt;gazebo -->
<g id="edge25" class="edge">
<title>freeglut&#45;&gt;gazebo</title>
<path fill="none" stroke="black" d="M1434.89,-217.12C1422.98,-207.74 1407.7,-195.73 1394.58,-185.41"/>
<polygon fill="black" stroke="black" points="1397.11,-182.95 1387.09,-179.52 1392.78,-188.45 1397.11,-182.95"/>
</g>
<!-- mesalib -->
<g id="node18" class="node">
<title>mesalib</title>
<g id="a_node18"><a xlink:href="https://github.com/conda-forge/mesalib-feedstock/pull/81" xlink:title="mesalib ✓">
<ellipse fill="#31688e" stroke="black" cx="1142.09" cy="-234" rx="58.05" ry="18"/>
<text text-anchor="middle" x="1142.09" y="-229.32" font-family="Times,serif" font-size="14.00" fill="white">mesalib ✓</text>
</a>
</g>
</g>
<!-- mesalib&#45;&gt;vtk -->
<g id="edge26" class="edge">
<title>mesalib&#45;&gt;vtk</title>
<path fill="none" stroke="black" d="M1168.86,-217.64C1188.22,-206.53 1214.36,-191.53 1234.36,-180.06"/>
<polygon fill="black" stroke="black" points="1235.95,-183.18 1242.88,-175.17 1232.46,-177.11 1235.95,-183.18"/>
</g>
<!-- gst&#45;plugins&#45;ugly -->
<g id="node19" class="node">
<title>gst&#45;plugins&#45;ugly</title>
<g id="a_node19"><a xlink:href="https://github.com/conda-forge/gst-plugins-ugly-feedstock" xlink:title="gst plugins ugly">
<ellipse fill="#35b779" stroke="black" cx="1661.09" cy="-234" rx="91.72" ry="18"/>
<text text-anchor="middle" x="1661.09" y="-229.32" font-family="Times,serif" font-size="14.00">gst plugins ugly</text>
</a>
</g>
</g>
<!-- gst&#45;plugins&#45;bad -->
<g id="node20" class="node">
<title>gst&#45;plugins&#45;bad</title>
<g id="a_node20"><a xlink:href="https://github.com/conda-forge/gst-plugins-bad-feedstock" xlink:title="gst plugins bad">
<ellipse fill="#35b779" stroke="black" cx="1661.09" cy="-162" rx="88.56" ry="18"/>
<text text-anchor="middle" x="1661.09" y="-157.32" font-family="Times,serif" font-size="14.00">gst plugins bad</text>
</a>
</g>
</g>
<!-- gst&#45;plugins&#45;ugly&#45;&gt;gst&#45;plugins&#45;bad -->
<!-- vulkan&#45;tools -->
<g id="node21" class="node">
<title>vulkan&#45;tools</title>
<g id="a_node21"><a xlink:href="https://github.com/conda-forge/vulkan-tools-feedstock" xlink:title="vulkan tools">
<ellipse fill="#35b779" stroke="black" cx="1661.09" cy="-90" rx="71.73" ry="18"/>
<text text-anchor="middle" x="1661.09" y="-85.33" font-family="Times,serif" font-size="14.00">vulkan tools</text>
</a>
</g>
</g>
<!-- gst&#45;plugins&#45;bad&#45;&gt;vulkan&#45;tools -->
<!-- xcb&#45;util&#45;image -->
<g id="node22" class="node">
<title>xcb&#45;util&#45;image</title>
<g id="a_node22"><a xlink:href="https://github.com/conda-forge/xcb-util-image-feedstock/pull/5" xlink:title="xcb util image ✓">
<ellipse fill="#31688e" stroke="black" cx="201.09" cy="-306" rx="90.14" ry="18"/>
<text text-anchor="middle" x="201.09" y="-301.32" font-family="Times,serif" font-size="14.00" fill="white">xcb util image ✓</text>
</a>
</g>
</g>
<!-- xcb&#45;util&#45;image&#45;&gt;qt&#45;main -->
<g id="edge30" class="edge">
<title>xcb&#45;util&#45;image&#45;&gt;qt&#45;main</title>
<path fill="none" stroke="black" d="M275.67,-295.56C387.37,-281.42 595.75,-255.04 696.55,-242.28"/>
<polygon fill="black" stroke="black" points="696.73,-245.79 706.21,-241.06 695.85,-238.84 696.73,-245.79"/>
</g>
<!-- xcb&#45;util&#45;cursor -->
<g id="node23" class="node">
<title>xcb&#45;util&#45;cursor</title>
<g id="a_node23"><a xlink:href="https://github.com/conda-forge/xcb-util-cursor-feedstock" xlink:title="xcb util cursor">
<ellipse fill="#fde725" stroke="black" cx="201.09" cy="-234" rx="83.83" ry="18"/>
<text text-anchor="middle" x="201.09" y="-229.32" font-family="Times,serif" font-size="14.00">xcb util cursor</text>
</a>
</g>
</g>
<!-- xcb&#45;util&#45;image&#45;&gt;xcb&#45;util&#45;cursor -->
<g id="edge31" class="edge">
<title>xcb&#45;util&#45;image&#45;&gt;xcb&#45;util&#45;cursor</title>
<path fill="none" stroke="black" d="M201.09,-287.7C201.09,-280.41 201.09,-271.73 201.09,-263.54"/>
<polygon fill="black" stroke="black" points="204.59,-263.62 201.09,-253.62 197.59,-263.62 204.59,-263.62"/>
</g>
<!-- nsight&#45;compute -->
<g id="node24" class="node">
<title>nsight&#45;compute</title>
<g id="a_node24"><a xlink:href="https://github.com/conda-forge/nsight-compute-feedstock" xlink:title="nsight compute">
<ellipse fill="#fde725" stroke="black" cx="89.09" cy="-162" rx="89.09" ry="18"/>
<text text-anchor="middle" x="89.09" y="-157.32" font-family="Times,serif" font-size="14.00">nsight compute</text>
</a>
</g>
</g>
<!-- xcb&#45;util&#45;image&#45;&gt;nsight&#45;compute -->
<g id="edge32" class="edge">
<title>xcb&#45;util&#45;image&#45;&gt;nsight&#45;compute</title>
<path fill="none" stroke="black" d="M158.06,-289.73C140.06,-281.26 120.49,-268.95 108.09,-252 95.39,-234.64 90.82,-210.56 89.33,-191.83"/>
<polygon fill="black" stroke="black" points="92.83,-191.73 88.82,-181.93 85.84,-192.1 92.83,-191.73"/>
</g>
<!-- xcb&#45;util&#45;cursor&#45;&gt;nsight&#45;compute -->
<g id="edge33" class="edge">
<title>xcb&#45;util&#45;cursor&#45;&gt;nsight&#45;compute</title>
<path fill="none" stroke="black" d="M174.83,-216.59C160.05,-207.35 141.38,-195.68 125.24,-185.59"/>
<polygon fill="black" stroke="black" points="127.19,-182.69 116.86,-180.35 123.48,-188.62 127.19,-182.69"/>
</g>
</g>
</svg>
