<?xml version="1.0" encoding="UTF-8" standalone="no"?>
<!DOCTYPE svg PUBLIC "-//W3C//DTD SVG 1.1//EN"
 "http://www.w3.org/Graphics/SVG/1.1/DTD/svg11.dtd">
<!-- Generated by graphviz version 11.0.0 (20240519.1550)
 -->
<!-- Pages: 1 -->
<svg width="2733pt" height="404pt"
 viewBox="0.00 0.00 2733.47 404.00" xmlns="http://www.w3.org/2000/svg" xmlns:xlink="http://www.w3.org/1999/xlink">
<g id="graph0" class="graph" transform="scale(1 1) rotate(0) translate(4 400)">
<polygon fill="white" stroke="none" points="-4,4 -4,-400 2729.47,-400 2729.47,4 -4,4"/>
<!-- cairo -->
<g id="node1" class="node">
<title>cairo</title>
<g id="a_node1"><a xlink:href="https://github.com/conda-forge/cairo-feedstock" xlink:title="cairo">
<ellipse fill="#fde725" stroke="black" cx="1259" cy="-306" rx="35.95" ry="18"/>
<text text-anchor="middle" x="1259" y="-301.32" font-family="Times,serif" font-size="14.00">cairo</text>
</a>
</g>
</g>
<!-- ffmpeg -->
<g id="node2" class="node">
<title>ffmpeg</title>
<g id="a_node2"><a xlink:href="https://github.com/conda-forge/ffmpeg-feedstock" xlink:title="ffmpeg">
<ellipse fill="#fde725" stroke="black" cx="2206" cy="-162" rx="45.95" ry="18"/>
<text text-anchor="middle" x="2206" y="-157.32" font-family="Times,serif" font-size="14.00">ffmpeg</text>
</a>
</g>
</g>
<!-- cairo&#45;&gt;ffmpeg -->
<g id="edge1" class="edge">
<title>cairo&#45;&gt;ffmpeg</title>
<path fill="none" stroke="black" d="M1285.55,-293.71C1341.37,-270.01 1466.17,-217.11 1471,-216 1766.44,-148.34 1853.75,-233.93 2152,-180 2155.22,-179.42 2158.51,-178.7 2161.81,-177.89"/>
<polygon fill="black" stroke="black" points="2162.73,-181.27 2171.46,-175.26 2160.89,-174.52 2162.73,-181.27"/>
</g>
<!-- gnuplot -->
<g id="node3" class="node">
<title>gnuplot</title>
<g id="a_node3"><a xlink:href="https://github.com/conda-forge/gnuplot-feedstock" xlink:title="gnuplot">
<ellipse fill="#fde725" stroke="black" cx="1526" cy="-162" rx="49.63" ry="18"/>
<text text-anchor="middle" x="1526" y="-157.32" font-family="Times,serif" font-size="14.00">gnuplot</text>
</a>
</g>
</g>
<!-- cairo&#45;&gt;gnuplot -->
<g id="edge2" class="edge">
<title>cairo&#45;&gt;gnuplot</title>
<path fill="none" stroke="black" d="M1278.92,-290.94C1305.68,-272.41 1355.08,-239.42 1400,-216 1426.4,-202.24 1457.18,-189.24 1481.71,-179.56"/>
<polygon fill="black" stroke="black" points="1482.69,-182.93 1490.74,-176.03 1480.15,-176.41 1482.69,-182.93"/>
</g>
<!-- lyx -->
<g id="node4" class="node">
<title>lyx</title>
<g id="a_node4"><a xlink:href="https://github.com/conda-forge/lyx-feedstock" xlink:title="lyx">
<ellipse fill="#fde725" stroke="black" cx="1255" cy="-162" rx="27" ry="18"/>
<text text-anchor="middle" x="1255" y="-157.32" font-family="Times,serif" font-size="14.00">lyx</text>
</a>
</g>
</g>
<!-- cairo&#45;&gt;lyx -->
<g id="edge3" class="edge">
<title>cairo&#45;&gt;lyx</title>
<path fill="none" stroke="black" d="M1267.9,-288.35C1272.83,-278.17 1278.47,-264.7 1281,-252 1284.13,-236.31 1284.62,-231.59 1281,-216 1278.85,-206.73 1274.84,-197.22 1270.6,-188.86"/>
<polygon fill="black" stroke="black" points="1273.81,-187.43 1265.96,-180.31 1267.66,-190.77 1273.81,-187.43"/>
</g>
<!-- qt&#45;main -->
<g id="node5" class="node">
<title>qt&#45;main</title>
<g id="a_node5"><a xlink:href="https://github.com/conda-forge/qt-main-feedstock" xlink:title="qt main">
<ellipse fill="#fde725" stroke="black" cx="1004" cy="-234" rx="49.63" ry="18"/>
<text text-anchor="middle" x="1004" y="-229.32" font-family="Times,serif" font-size="14.00">qt main</text>
</a>
</g>
</g>
<!-- cairo&#45;&gt;qt&#45;main -->
<g id="edge4" class="edge">
<title>cairo&#45;&gt;qt&#45;main</title>
<path fill="none" stroke="black" d="M1227.99,-296.49C1184.58,-284.57 1105.25,-262.8 1053.59,-248.61"/>
<polygon fill="black" stroke="black" points="1054.72,-245.29 1044.15,-246.02 1052.87,-252.05 1054.72,-245.29"/>
</g>
<!-- qt&#45;webengine -->
<g id="node6" class="node">
<title>qt&#45;webengine</title>
<g id="a_node6"><a xlink:href="https://github.com/conda-forge/qt-webengine-feedstock" xlink:title="qt webengine">
<ellipse fill="#fde725" stroke="black" cx="1379" cy="-162" rx="79.09" ry="18"/>
<text text-anchor="middle" x="1379" y="-157.32" font-family="Times,serif" font-size="14.00">qt webengine</text>
</a>
</g>
</g>
<!-- cairo&#45;&gt;qt&#45;webengine -->
<g id="edge5" class="edge">
<title>cairo&#45;&gt;qt&#45;webengine</title>
<path fill="none" stroke="black" d="M1230.33,-294.88C1211.47,-286.54 1188.27,-272.69 1177,-252 1169.35,-237.95 1167.23,-228.67 1177,-216 1185.38,-205.14 1254.43,-188.6 1309.5,-176.89"/>
<polygon fill="black" stroke="black" points="1310.12,-180.34 1319.18,-174.85 1308.67,-173.49 1310.12,-180.34"/>
</g>
<!-- silicon -->
<g id="node7" class="node">
<title>silicon</title>
<g id="a_node7"><a xlink:href="https://github.com/conda-forge/silicon-feedstock" xlink:title="silicon">
<ellipse fill="#fde725" stroke="black" cx="1229" cy="-234" rx="43.32" ry="18"/>
<text text-anchor="middle" x="1229" y="-229.32" font-family="Times,serif" font-size="14.00">silicon</text>
</a>
</g>
</g>
<!-- cairo&#45;&gt;silicon -->
<g id="edge6" class="edge">
<title>cairo&#45;&gt;silicon</title>
<path fill="none" stroke="black" d="M1251.74,-288.05C1248.42,-280.32 1244.41,-270.96 1240.69,-262.27"/>
<polygon fill="black" stroke="black" points="1243.95,-260.99 1236.79,-253.18 1237.51,-263.75 1243.95,-260.99"/>
</g>
<!-- vtk -->
<g id="node8" class="node">
<title>vtk</title>
<g id="a_node8"><a xlink:href="https://github.com/conda-forge/vtk-feedstock" xlink:title="vtk">
<ellipse fill="#fde725" stroke="black" cx="2243" cy="-90" rx="27.01" ry="18"/>
<text text-anchor="middle" x="2243" y="-85.33" font-family="Times,serif" font-size="14.00">vtk</text>
</a>
</g>
</g>
<!-- ffmpeg&#45;&gt;vtk -->
<g id="edge7" class="edge">
<title>ffmpeg&#45;&gt;vtk</title>
<path fill="none" stroke="black" d="M2214.96,-144.05C2219.2,-136.03 2224.36,-126.26 2229.1,-117.3"/>
<polygon fill="black" stroke="black" points="2232.09,-119.12 2233.67,-108.65 2225.91,-115.85 2232.09,-119.12"/>
</g>
<!-- gazebo -->
<g id="node9" class="node">
<title>gazebo</title>
<g id="a_node9"><a xlink:href="https://github.com/conda-forge/gazebo-feedstock" xlink:title="gazebo">
<ellipse fill="#fde725" stroke="black" cx="1942" cy="-90" rx="46.47" ry="18"/>
<text text-anchor="middle" x="1942" y="-85.33" font-family="Times,serif" font-size="14.00">gazebo</text>
</a>
</g>
</g>
<!-- ffmpeg&#45;&gt;gazebo -->
<g id="edge8" class="edge">
<title>ffmpeg&#45;&gt;gazebo</title>
<path fill="none" stroke="black" d="M2171.52,-149.82C2165.05,-147.82 2158.34,-145.8 2152,-144 2097.54,-128.57 2034.51,-112.96 1991.82,-102.71"/>
<polygon fill="black" stroke="black" points="1992.9,-99.37 1982.36,-100.45 1991.27,-106.18 1992.9,-99.37"/>
</g>
<!-- qt&#45;main&#45;&gt;gnuplot -->
<g id="edge9" class="edge">
<title>qt&#45;main&#45;&gt;gnuplot</title>
<path fill="none" stroke="black" d="M1051.36,-228.03C1161.17,-216.45 1426.88,-188.02 1467,-180 1470.77,-179.25 1474.65,-178.37 1478.54,-177.41"/>
<polygon fill="black" stroke="black" points="1479.16,-180.87 1487.95,-174.95 1477.38,-174.1 1479.16,-180.87"/>
</g>
<!-- qt&#45;main&#45;&gt;lyx -->
<g id="edge10" class="edge">
<title>qt&#45;main&#45;&gt;lyx</title>
<path fill="none" stroke="black" d="M1042.89,-222.55C1051.17,-220.36 1059.87,-218.08 1068,-216 1132.74,-199.42 1150.51,-200.86 1214,-180 1216.75,-179.1 1219.58,-178.09 1222.41,-177.03"/>
<polygon fill="black" stroke="black" points="1223.69,-180.29 1231.69,-173.35 1221.11,-173.78 1223.69,-180.29"/>
</g>
<!-- qt&#45;main&#45;&gt;qt&#45;webengine -->
<g id="edge11" class="edge">
<title>qt&#45;main&#45;&gt;qt&#45;webengine</title>
<path fill="none" stroke="black" d="M1047.78,-225.03C1104.08,-214.76 1204.87,-196.27 1291,-180 1296.92,-178.88 1303.07,-177.71 1309.24,-176.53"/>
<polygon fill="black" stroke="black" points="1309.67,-180.01 1318.83,-174.69 1308.35,-173.14 1309.67,-180.01"/>
</g>
<!-- qt&#45;main&#45;&gt;gazebo -->
<g id="edge12" class="edge">
<title>qt&#45;main&#45;&gt;gazebo</title>
<path fill="none" stroke="black" d="M1041.96,-222.17C1088.89,-208.64 1164.06,-186.49 1176,-180 1197.9,-168.1 1195.9,-153.36 1219,-144 1339.21,-95.27 1734.59,-90.65 1884.06,-90.7"/>
<polygon fill="black" stroke="black" points="1883.72,-94.2 1893.72,-90.71 1883.73,-87.2 1883.72,-94.2"/>
</g>
<!-- colmap -->
<g id="node10" class="node">
<title>colmap</title>
<g id="a_node10"><a xlink:href="https://github.com/conda-forge/colmap-feedstock" xlink:title="colmap">
<ellipse fill="#fde725" stroke="black" cx="1826" cy="-162" rx="47" ry="18"/>
<text text-anchor="middle" x="1826" y="-157.32" font-family="Times,serif" font-size="14.00">colmap</text>
</a>
</g>
</g>
<!-- qt&#45;main&#45;&gt;colmap -->
<g id="edge13" class="edge">
<title>qt&#45;main&#45;&gt;colmap</title>
<path fill="none" stroke="black" d="M1051.34,-228.14C1086.1,-224.62 1134.47,-219.83 1177,-216 1395.31,-196.36 1655.21,-176.07 1768.48,-167.38"/>
<polygon fill="black" stroke="black" points="1768.73,-170.87 1778.44,-166.61 1768.2,-163.89 1768.73,-170.87"/>
</g>
<!-- kwindowsystem -->
<g id="node11" class="node">
<title>kwindowsystem</title>
<g id="a_node11"><a xlink:href="https://github.com/conda-forge/kwindowsystem-feedstock" xlink:title="kwindowsystem">
<ellipse fill="#fde725" stroke="black" cx="693" cy="-90" rx="91.19" ry="18"/>
<text text-anchor="middle" x="693" y="-85.33" font-family="Times,serif" font-size="14.00">kwindowsystem</text>
</a>
</g>
</g>
<!-- qt&#45;main&#45;&gt;kwindowsystem -->
<g id="edge14" class="edge">
<title>qt&#45;main&#45;&gt;kwindowsystem</title>
<path fill="none" stroke="black" d="M954.71,-231.18C904.22,-227.31 825.1,-215.51 767,-180 742.06,-164.76 721.58,-138.11 708.53,-117.94"/>
<polygon fill="black" stroke="black" points="711.63,-116.28 703.37,-109.64 705.68,-119.98 711.63,-116.28"/>
</g>
<!-- kglobalaccel -->
<g id="node12" class="node">
<title>kglobalaccel</title>
<g id="a_node12"><a xlink:href="https://github.com/conda-forge/kglobalaccel-feedstock" xlink:title="kglobalaccel">
<ellipse fill="#fde725" stroke="black" cx="693" cy="-18" rx="72.78" ry="18"/>
<text text-anchor="middle" x="693" y="-13.32" font-family="Times,serif" font-size="14.00">kglobalaccel</text>
</a>
</g>
</g>
<!-- qt&#45;main&#45;&gt;kglobalaccel -->
<g id="edge15" class="edge">
<title>qt&#45;main&#45;&gt;kglobalaccel</title>
<path fill="none" stroke="black" d="M1045.23,-223.57C1070.37,-215.81 1101.35,-202.36 1121,-180 1153.34,-143.2 1175.55,-108.61 1143,-72 1119.05,-45.06 898.74,-29.53 775.51,-22.88"/>
<polygon fill="black" stroke="black" points="775.94,-19.4 765.77,-22.36 775.57,-26.39 775.94,-19.4"/>
</g>
<!-- qt6&#45;advanced&#45;docking&#45;system -->
<g id="node13" class="node">
<title>qt6&#45;advanced&#45;docking&#45;system</title>
<g id="a_node13"><a xlink:href="https://github.com/conda-forge/qt6-advanced-docking-system-feedstock" xlink:title="qt6 advanced docking system">
<ellipse fill="#fde725" stroke="black" cx="936" cy="-162" rx="159.59" ry="18"/>
<text text-anchor="middle" x="936" y="-157.32" font-family="Times,serif" font-size="14.00">qt6 advanced docking system</text>
</a>
</g>
</g>
<!-- qt&#45;main&#45;&gt;qt6&#45;advanced&#45;docking&#45;system -->
<g id="edge16" class="edge">
<title>qt&#45;main&#45;&gt;qt6&#45;advanced&#45;docking&#45;system</title>
<path fill="none" stroke="black" d="M988.23,-216.76C979.97,-208.27 969.69,-197.68 960.43,-188.15"/>
<polygon fill="black" stroke="black" points="963.17,-185.94 953.69,-181.21 958.15,-190.82 963.17,-185.94"/>
</g>
<!-- adwaita&#45;qt -->
<g id="node14" class="node">
<title>adwaita&#45;qt</title>
<g id="a_node14"><a xlink:href="https://github.com/conda-forge/adwaita-qt-feedstock" xlink:title="adwaita qt">
<ellipse fill="#fde725" stroke="black" cx="1070" cy="-90" rx="64.36" ry="18"/>
<text text-anchor="middle" x="1070" y="-85.33" font-family="Times,serif" font-size="14.00">adwaita qt</text>
</a>
</g>
</g>
<!-- qt&#45;main&#45;&gt;adwaita&#45;qt -->
<g id="edge17" class="edge">
<title>qt&#45;main&#45;&gt;adwaita&#45;qt</title>
<path fill="none" stroke="black" d="M1044.15,-222.95C1066.24,-215.15 1091.78,-201.86 1105,-180 1117.07,-160.04 1105.35,-135.18 1092.31,-116.81"/>
<polygon fill="black" stroke="black" points="1095.26,-114.9 1086.41,-109.06 1089.69,-119.14 1095.26,-114.9"/>
</g>
<!-- qt&#45;webengine&#45;&gt;kwindowsystem -->
<g id="edge18" class="edge">
<title>qt&#45;webengine&#45;&gt;kwindowsystem</title>
<path fill="none" stroke="black" d="M1322.34,-149.17C1311.94,-147.25 1301.17,-145.43 1291,-144 1115.52,-119.34 909.37,-104.06 790.68,-96.58"/>
<polygon fill="black" stroke="black" points="791.18,-93.1 780.98,-95.97 790.74,-100.09 791.18,-93.1"/>
</g>
<!-- qt&#45;webengine&#45;&gt;kglobalaccel -->
<g id="edge19" class="edge">
<title>qt&#45;webengine&#45;&gt;kglobalaccel</title>
<path fill="none" stroke="black" d="M1350.1,-144.96C1311.63,-124.4 1240.87,-89.34 1176,-72 1039.21,-35.43 874.15,-24.03 776.7,-20.52"/>
<polygon fill="black" stroke="black" points="777.08,-17.03 766.96,-20.19 776.84,-24.02 777.08,-17.03"/>
</g>
<!-- kwindowsystem&#45;&gt;kglobalaccel -->
<g id="edge54" class="edge">
<title>kwindowsystem&#45;&gt;kglobalaccel</title>
<path fill="none" stroke="black" d="M693,-71.7C693,-64.41 693,-55.73 693,-47.54"/>
<polygon fill="black" stroke="black" points="696.5,-47.62 693,-37.62 689.5,-47.62 696.5,-47.62"/>
</g>
<!-- gstreamer -->
<g id="node15" class="node">
<title>gstreamer</title>
<g id="a_node15"><a xlink:href="https://github.com/conda-forge/gstreamer-feedstock" xlink:title="gstreamer">
<ellipse fill="#fde725" stroke="black" cx="1376" cy="-306" rx="63.31" ry="18"/>
<text text-anchor="middle" x="1376" y="-301.32" font-family="Times,serif" font-size="14.00">gstreamer</text>
</a>
</g>
</g>
<!-- gstreamer&#45;&gt;qt&#45;main -->
<g id="edge20" class="edge">
<title>gstreamer&#45;&gt;qt&#45;main</title>
<path fill="none" stroke="black" d="M1329.22,-293.55C1320.84,-291.61 1312.18,-289.69 1304,-288 1219.33,-270.54 1120.47,-253.77 1060.06,-243.92"/>
<polygon fill="black" stroke="black" points="1060.8,-240.5 1050.37,-242.35 1059.68,-247.41 1060.8,-240.5"/>
</g>
<!-- gstreamer&#45;&gt;qt&#45;webengine -->
<g id="edge21" class="edge">
<title>gstreamer&#45;&gt;qt&#45;webengine</title>
<path fill="none" stroke="black" d="M1376.37,-287.59C1376.87,-263.61 1377.79,-220.14 1378.4,-191.42"/>
<polygon fill="black" stroke="black" points="1381.89,-191.7 1378.61,-181.62 1374.9,-191.55 1381.89,-191.7"/>
</g>
<!-- gst&#45;plugins&#45;ugly -->
<g id="node16" class="node">
<title>gst&#45;plugins&#45;ugly</title>
<g id="a_node16"><a xlink:href="https://github.com/conda-forge/gst-plugins-ugly-feedstock" xlink:title="gst plugins ugly">
<ellipse fill="#fde725" stroke="black" cx="1767" cy="-234" rx="91.72" ry="18"/>
<text text-anchor="middle" x="1767" y="-229.32" font-family="Times,serif" font-size="14.00">gst plugins ugly</text>
</a>
</g>
</g>
<!-- gstreamer&#45;&gt;gst&#45;plugins&#45;ugly -->
<g id="edge22" class="edge">
<title>gstreamer&#45;&gt;gst&#45;plugins&#45;ugly</title>
<path fill="none" stroke="black" d="M1428.33,-295.63C1495.46,-283.61 1612.47,-262.67 1689.84,-248.81"/>
<polygon fill="black" stroke="black" points="1690.24,-252.3 1699.46,-247.09 1689,-245.41 1690.24,-252.3"/>
</g>
<!-- gst&#45;plugins&#45;bad -->
<g id="node17" class="node">
<title>gst&#45;plugins&#45;bad</title>
<g id="a_node17"><a xlink:href="https://github.com/conda-forge/gst-plugins-bad-feedstock" xlink:title="gst plugins bad">
<ellipse fill="#fde725" stroke="black" cx="1569" cy="-234" rx="88.56" ry="18"/>
<text text-anchor="middle" x="1569" y="-229.32" font-family="Times,serif" font-size="14.00">gst plugins bad</text>
</a>
</g>
</g>
<!-- gstreamer&#45;&gt;gst&#45;plugins&#45;bad -->
<g id="edge23" class="edge">
<title>gstreamer&#45;&gt;gst&#45;plugins&#45;bad</title>
<path fill="none" stroke="black" d="M1414.13,-291.17C1443.35,-280.57 1483.99,-265.83 1516.31,-254.11"/>
<polygon fill="black" stroke="black" points="1517.3,-257.48 1525.51,-250.78 1514.91,-250.89 1517.3,-257.48"/>
</g>
<!-- libglu -->
<g id="node18" class="node">
<title>libglu</title>
<g id="a_node18"><a xlink:href="https://github.com/conda-forge/libglu-feedstock" xlink:title="libglu">
<ellipse fill="#fde725" stroke="black" cx="2031" cy="-234" rx="39.63" ry="18"/>
<text text-anchor="middle" x="2031" y="-229.32" font-family="Times,serif" font-size="14.00">libglu</text>
</a>
</g>
</g>
<!-- libglu&#45;&gt;vtk -->
<g id="edge24" class="edge">
<title>libglu&#45;&gt;vtk</title>
<path fill="none" stroke="black" d="M2035.76,-215.72C2042.14,-195.68 2055.37,-162.98 2078,-144 2114.4,-113.47 2168.68,-100.44 2204.92,-94.93"/>
<polygon fill="black" stroke="black" points="2205.09,-98.44 2214.51,-93.61 2204.13,-91.51 2205.09,-98.44"/>
</g>
<!-- libglu&#45;&gt;gazebo -->
<g id="edge25" class="edge">
<title>libglu&#45;&gt;gazebo</title>
<path fill="none" stroke="black" d="M2028.19,-215.75C2024.51,-196.91 2016.72,-166.41 2002,-144 1994.39,-132.41 1983.59,-121.8 1973.26,-113.17"/>
<polygon fill="black" stroke="black" points="1975.57,-110.54 1965.57,-107.07 1971.22,-116.03 1975.57,-110.54"/>
</g>
<!-- libglu&#45;&gt;colmap -->
<g id="edge28" class="edge">
<title>libglu&#45;&gt;colmap</title>
<path fill="none" stroke="black" d="M1999.86,-222.37C1965.54,-210.65 1910.01,-191.69 1870.96,-178.35"/>
<polygon fill="black" stroke="black" points="1872.2,-175.08 1861.6,-175.16 1869.93,-181.7 1872.2,-175.08"/>
</g>
<!-- freeglut -->
<g id="node19" class="node">
<title>freeglut</title>
<g id="a_node19"><a xlink:href="https://github.com/conda-forge/freeglut-feedstock" xlink:title="freeglut">
<ellipse fill="#fde725" stroke="black" cx="1942" cy="-162" rx="51.21" ry="18"/>
<text text-anchor="middle" x="1942" y="-157.32" font-family="Times,serif" font-size="14.00">freeglut</text>
</a>
</g>
</g>
<!-- libglu&#45;&gt;freeglut -->
<g id="edge26" class="edge">
<title>libglu&#45;&gt;freeglut</title>
<path fill="none" stroke="black" d="M2011.69,-217.81C1999.81,-208.47 1984.36,-196.31 1971.02,-185.83"/>
<polygon fill="black" stroke="black" points="1973.41,-183.25 1963.39,-179.82 1969.09,-188.76 1973.41,-183.25"/>
</g>
<!-- fltk -->
<g id="node20" class="node">
<title>fltk</title>
<g id="a_node20"><a xlink:href="https://github.com/conda-forge/fltk-feedstock" xlink:title="fltk">
<ellipse fill="#fde725" stroke="black" cx="2115" cy="-162" rx="27.53" ry="18"/>
<text text-anchor="middle" x="2115" y="-157.32" font-family="Times,serif" font-size="14.00">fltk</text>
</a>
</g>
</g>
<!-- libglu&#45;&gt;fltk -->
<g id="edge27" class="edge">
<title>libglu&#45;&gt;fltk</title>
<path fill="none" stroke="black" d="M2049.23,-217.81C2061.15,-207.88 2076.87,-194.77 2089.96,-183.87"/>
<polygon fill="black" stroke="black" points="2091.91,-186.8 2097.35,-177.7 2087.43,-181.42 2091.91,-186.8"/>
</g>
<!-- freeglut&#45;&gt;gazebo -->
<g id="edge29" class="edge">
<title>freeglut&#45;&gt;gazebo</title>
<path fill="none" stroke="black" d="M1942,-143.7C1942,-136.41 1942,-127.73 1942,-119.54"/>
<polygon fill="black" stroke="black" points="1945.5,-119.62 1942,-109.62 1938.5,-119.62 1945.5,-119.62"/>
</g>
<!-- mesalib -->
<g id="node21" class="node">
<title>mesalib</title>
<g id="a_node21"><a xlink:href="https://github.com/conda-forge/mesalib-feedstock" xlink:title="mesalib">
<ellipse fill="#fde725" stroke="black" cx="2341" cy="-306" rx="50.16" ry="18"/>
<text text-anchor="middle" x="2341" y="-301.32" font-family="Times,serif" font-size="14.00">mesalib</text>
</a>
</g>
</g>
<!-- mesalib&#45;&gt;vtk -->
<g id="edge30" class="edge">
<title>mesalib&#45;&gt;vtk</title>
<path fill="none" stroke="black" d="M2338.77,-287.96C2334.19,-257.37 2321.73,-191.87 2294,-144 2287.14,-132.16 2277.08,-120.94 2267.71,-111.9"/>
<polygon fill="black" stroke="black" points="2270.25,-109.48 2260.52,-105.28 2265.5,-114.63 2270.25,-109.48"/>
</g>
<!-- pillow -->
<g id="node22" class="node">
<title>pillow</title>
<g id="a_node22"><a xlink:href="https://github.com/conda-forge/pillow-feedstock/pull/154" xlink:title="pillow ❎">
<ellipse fill="#31688e" stroke="black" cx="2669" cy="-198" rx="56.47" ry="18"/>
<text text-anchor="middle" x="2669" y="-193.32" font-family="Times,serif" font-size="14.00" fill="white">pillow ❎</text>
</a>
</g>
</g>
<!-- xorg&#45;libx11 -->
<g id="node23" class="node">
<title>xorg&#45;libx11</title>
<g id="a_node23"><a xlink:href="https://github.com/conda-forge/xorg-libx11-feedstock/pull/39" xlink:title="xorg libx11 ✓">
<ellipse fill="#31688e" stroke="black" cx="1847" cy="-378" rx="75.94" ry="18"/>
<text text-anchor="middle" x="1847" y="-373.32" font-family="Times,serif" font-size="14.00" fill="white">xorg libx11 ✓</text>
</a>
</g>
</g>
<!-- xorg&#45;libx11&#45;&gt;cairo -->
<g id="edge31" class="edge">
<title>xorg&#45;libx11&#45;&gt;cairo</title>
<path fill="none" stroke="black" d="M1771.33,-375.88C1665.46,-372.91 1467.73,-362.21 1304,-324 1301.56,-323.43 1299.06,-322.76 1296.57,-322.02"/>
<polygon fill="black" stroke="black" points="1297.8,-318.74 1287.2,-318.91 1295.59,-325.38 1297.8,-318.74"/>
</g>
<!-- xorg&#45;libx11&#45;&gt;ffmpeg -->
<g id="edge32" class="edge">
<title>xorg&#45;libx11&#45;&gt;ffmpeg</title>
<path fill="none" stroke="black" d="M1923.06,-376.63C1985.24,-373.3 2073.57,-361.49 2141,-324 2178.68,-303.05 2190.52,-292.24 2206,-252 2213.38,-232.81 2213.09,-209.52 2211.11,-191.58"/>
<polygon fill="black" stroke="black" points="2214.6,-191.33 2209.78,-181.9 2207.67,-192.28 2214.6,-191.33"/>
</g>
<!-- xorg&#45;libx11&#45;&gt;gnuplot -->
<g id="edge33" class="edge">
<title>xorg&#45;libx11&#45;&gt;gnuplot</title>
<path fill="none" stroke="black" d="M1770.95,-376.57C1681.94,-371.44 1538.17,-347.73 1471,-252 1461.81,-238.9 1464.74,-230.72 1471,-216 1476,-204.23 1485.05,-193.8 1494.37,-185.38"/>
<polygon fill="black" stroke="black" points="1496.33,-188.3 1501.75,-179.2 1491.84,-182.94 1496.33,-188.3"/>
</g>
<!-- xorg&#45;libx11&#45;&gt;lyx -->
<g id="edge34" class="edge">
<title>xorg&#45;libx11&#45;&gt;lyx</title>
<path fill="none" stroke="black" d="M1771.22,-376.06C1603.3,-373.28 1211.14,-362.67 1166,-324 1129.1,-292.39 1123.45,-257.33 1149,-216 1153.29,-209.06 1192.91,-190.39 1222.47,-177.18"/>
<polygon fill="black" stroke="black" points="1223.71,-180.46 1231.43,-173.21 1220.87,-174.06 1223.71,-180.46"/>
</g>
<!-- xorg&#45;libx11&#45;&gt;qt&#45;main -->
<g id="edge35" class="edge">
<title>xorg&#45;libx11&#45;&gt;qt&#45;main</title>
<path fill="none" stroke="black" d="M1771.45,-375.5C1587.78,-371.33 1128.45,-357.63 1068,-324 1043.64,-310.45 1026.2,-283.27 1015.74,-262.49"/>
<polygon fill="black" stroke="black" points="1019.01,-261.22 1011.56,-253.69 1012.69,-264.22 1019.01,-261.22"/>
</g>
<!-- xorg&#45;libx11&#45;&gt;qt&#45;webengine -->
<g id="edge36" class="edge">
<title>xorg&#45;libx11&#45;&gt;qt&#45;webengine</title>
<path fill="none" stroke="black" d="M1772.08,-374.37C1614.86,-368.32 1261.07,-351.78 1214,-324 1168.76,-297.3 1133.65,-257.38 1166,-216 1170.65,-210.05 1251.32,-191.12 1312.01,-177.59"/>
<polygon fill="black" stroke="black" points="1312.61,-181.04 1321.61,-175.45 1311.09,-174.21 1312.61,-181.04"/>
</g>
<!-- xorg&#45;libx11&#45;&gt;vtk -->
<g id="edge37" class="edge">
<title>xorg&#45;libx11&#45;&gt;vtk</title>
<path fill="none" stroke="black" d="M1919.64,-372.36C2003.95,-365.78 2136.71,-351.38 2178,-324 2239.57,-283.18 2243.24,-251.7 2261,-180 2266.1,-159.41 2260.87,-135.89 2254.76,-118.19"/>
<polygon fill="black" stroke="black" points="2258.06,-117.03 2251.25,-108.91 2251.51,-119.51 2258.06,-117.03"/>
</g>
<!-- xorg&#45;libx11&#45;&gt;gazebo -->
<g id="edge38" class="edge">
<title>xorg&#45;libx11&#45;&gt;gazebo</title>
<path fill="none" stroke="black" d="M1856.33,-359.67C1871.96,-328.04 1898.82,-260.15 1868,-216 1841.44,-177.95 1796.56,-218.05 1770,-180 1760.84,-166.88 1760.5,-156.87 1770,-144 1796.01,-108.77 1845.1,-96.23 1884.2,-92.09"/>
<polygon fill="black" stroke="black" points="1884.29,-95.6 1893.95,-91.23 1883.68,-88.62 1884.29,-95.6"/>
</g>
<!-- xorg&#45;libx11&#45;&gt;colmap -->
<g id="edge45" class="edge">
<title>xorg&#45;libx11&#45;&gt;colmap</title>
<path fill="none" stroke="black" d="M1871.08,-360.56C1882.45,-351.3 1894.85,-338.66 1901,-324 1919.58,-279.74 1923.07,-258.62 1901,-216 1893.45,-201.42 1879.83,-189.99 1866.25,-181.54"/>
<polygon fill="black" stroke="black" points="1868.19,-178.61 1857.77,-176.66 1864.7,-184.68 1868.19,-178.61"/>
</g>
<!-- xorg&#45;libx11&#45;&gt;kwindowsystem -->
<g id="edge48" class="edge">
<title>xorg&#45;libx11&#45;&gt;kwindowsystem</title>
<path fill="none" stroke="black" d="M1771.23,-375.75C1595.85,-372.26 1166.37,-360.2 1027,-324 1008.96,-319.32 736.44,-193.87 724,-180 708.96,-163.24 701.13,-138.77 697.11,-119.73"/>
<polygon fill="black" stroke="black" points="700.55,-119.1 695.29,-109.9 693.67,-120.37 700.55,-119.1"/>
</g>
<!-- xorg&#45;libx11&#45;&gt;kglobalaccel -->
<g id="edge49" class="edge">
<title>xorg&#45;libx11&#45;&gt;kglobalaccel</title>
<path fill="none" stroke="black" d="M1770.87,-376.72C1439.08,-375.26 132.53,-366.79 57,-324 16.13,-300.85 0,-281.97 0,-235 0,-235 0,-235 0,-161 0,-38.07 423.75,-20.57 608.53,-18.78"/>
<polygon fill="black" stroke="black" points="608.34,-22.28 618.31,-18.7 608.28,-15.28 608.34,-22.28"/>
</g>
<!-- xorg&#45;libx11&#45;&gt;gstreamer -->
<g id="edge39" class="edge">
<title>xorg&#45;libx11&#45;&gt;gstreamer</title>
<path fill="none" stroke="black" d="M1779.11,-369.61C1700.38,-360.65 1566.83,-344.19 1453,-324 1447.02,-322.94 1440.8,-321.74 1434.6,-320.47"/>
<polygon fill="black" stroke="black" points="1435.51,-317.09 1425,-318.45 1434.07,-323.94 1435.51,-317.09"/>
</g>
<!-- xorg&#45;libx11&#45;&gt;gst&#45;plugins&#45;ugly -->
<g id="edge40" class="edge">
<title>xorg&#45;libx11&#45;&gt;gst&#45;plugins&#45;ugly</title>
<path fill="none" stroke="black" d="M1837.35,-359.87C1823.66,-335.56 1798.45,-290.82 1782.22,-262.01"/>
<polygon fill="black" stroke="black" points="1785.38,-260.5 1777.43,-253.51 1779.29,-263.94 1785.38,-260.5"/>
</g>
<!-- xorg&#45;libx11&#45;&gt;gst&#45;plugins&#45;bad -->
<g id="edge41" class="edge">
<title>xorg&#45;libx11&#45;&gt;gst&#45;plugins&#45;bad</title>
<path fill="none" stroke="black" d="M1815.92,-361.12C1765.77,-335.51 1666.94,-285.03 1610.72,-256.31"/>
<polygon fill="black" stroke="black" points="1612.58,-253.33 1602.08,-251.9 1609.39,-259.56 1612.58,-253.33"/>
</g>
<!-- xorg&#45;libx11&#45;&gt;libglu -->
<g id="edge42" class="edge">
<title>xorg&#45;libx11&#45;&gt;libglu</title>
<path fill="none" stroke="black" d="M1898.29,-364.4C1924.04,-356.13 1954.47,-343.22 1977,-324 1996.52,-307.35 2010.99,-281.81 2020.01,-262.35"/>
<polygon fill="black" stroke="black" points="2023.14,-263.93 2023.97,-253.37 2016.74,-261.11 2023.14,-263.93"/>
</g>
<!-- xorg&#45;libx11&#45;&gt;freeglut -->
<g id="edge43" class="edge">
<title>xorg&#45;libx11&#45;&gt;freeglut</title>
<path fill="none" stroke="black" d="M1879.98,-361.35C1894.95,-352.51 1911.42,-340 1921,-324 1945.5,-283.08 1946.79,-225.91 1944.84,-191.85"/>
<polygon fill="black" stroke="black" points="1948.34,-191.65 1944.13,-181.93 1941.36,-192.16 1948.34,-191.65"/>
</g>
<!-- xorg&#45;libx11&#45;&gt;fltk -->
<g id="edge44" class="edge">
<title>xorg&#45;libx11&#45;&gt;fltk</title>
<path fill="none" stroke="black" d="M1901.5,-365.08C1933.2,-356.63 1973.07,-343.33 2005,-324 2044.53,-300.07 2054.28,-290.39 2080,-252 2092.57,-233.24 2101.66,-209.3 2107.42,-190.97"/>
<polygon fill="black" stroke="black" points="2110.72,-192.15 2110.22,-181.57 2104.01,-190.15 2110.72,-192.15"/>
</g>
<!-- xorg&#45;libx11&#45;&gt;mesalib -->
<g id="edge46" class="edge">
<title>xorg&#45;libx11&#45;&gt;mesalib</title>
<path fill="none" stroke="black" d="M1917.85,-371.27C2003.47,-363.65 2151.64,-348.26 2277,-324 2281.89,-323.05 2286.97,-321.94 2292.02,-320.74"/>
<polygon fill="black" stroke="black" points="2292.63,-324.2 2301.49,-318.39 2290.94,-317.4 2292.63,-324.2"/>
</g>
<!-- libva -->
<g id="node24" class="node">
<title>libva</title>
<g id="a_node24"><a xlink:href="https://github.com/conda-forge/libva-feedstock" xlink:title="libva">
<ellipse fill="#fde725" stroke="black" cx="2162" cy="-234" rx="35.42" ry="18"/>
<text text-anchor="middle" x="2162" y="-229.32" font-family="Times,serif" font-size="14.00">libva</text>
</a>
</g>
</g>
<!-- xorg&#45;libx11&#45;&gt;libva -->
<g id="edge47" class="edge">
<title>xorg&#45;libx11&#45;&gt;libva</title>
<path fill="none" stroke="black" d="M1915.49,-369.96C1983.58,-361.82 2082.18,-346.57 2113,-324 2133.44,-309.03 2146.36,-282.85 2153.78,-262.74"/>
<polygon fill="black" stroke="black" points="2157.03,-264.05 2156.94,-253.46 2150.4,-261.8 2157.03,-264.05"/>
</g>
<!-- vulkan&#45;loader -->
<g id="node25" class="node">
<title>vulkan&#45;loader</title>
<g id="a_node25"><a xlink:href="https://github.com/conda-forge/vulkan-loader-feedstock" xlink:title="vulkan loader">
<ellipse fill="#fde725" stroke="black" cx="2526" cy="-162" rx="79.09" ry="18"/>
<text text-anchor="middle" x="2526" y="-157.32" font-family="Times,serif" font-size="14.00">vulkan loader</text>
</a>
</g>
</g>
<!-- xorg&#45;libx11&#45;&gt;vulkan&#45;loader -->
<g id="edge50" class="edge">
<title>xorg&#45;libx11&#45;&gt;vulkan&#45;loader</title>
<path fill="none" stroke="black" d="M1921.53,-374.07C2069.73,-367.7 2390.82,-350.95 2433,-324 2481.07,-293.29 2507.09,-228.26 2518.6,-190.92"/>
<polygon fill="black" stroke="black" points="2521.83,-192.33 2521.28,-181.75 2515.11,-190.36 2521.83,-192.33"/>
</g>
<!-- vulkan&#45;tools -->
<g id="node26" class="node">
<title>vulkan&#45;tools</title>
<g id="a_node26"><a xlink:href="https://github.com/conda-forge/vulkan-tools-feedstock" xlink:title="vulkan tools">
<ellipse fill="#fde725" stroke="black" cx="2472" cy="-90" rx="71.73" ry="18"/>
<text text-anchor="middle" x="2472" y="-85.33" font-family="Times,serif" font-size="14.00">vulkan tools</text>
</a>
</g>
</g>
<!-- xorg&#45;libx11&#45;&gt;vulkan&#45;tools -->
<g id="edge51" class="edge">
<title>xorg&#45;libx11&#45;&gt;vulkan&#45;tools</title>
<path fill="none" stroke="black" d="M1922.18,-374.67C2065.14,-369.55 2365.09,-355.18 2400,-324 2460.97,-269.53 2406.97,-219.65 2438,-144 2441.77,-134.8 2447.16,-125.44 2452.54,-117.2"/>
<polygon fill="black" stroke="black" points="2455.36,-119.27 2458.13,-109.04 2449.59,-115.31 2455.36,-119.27"/>
</g>
<!-- nsight&#45;compute -->
<g id="node27" class="node">
<title>nsight&#45;compute</title>
<g id="a_node27"><a xlink:href="https://github.com/conda-forge/nsight-compute-feedstock" xlink:title="nsight compute">
<ellipse fill="#fde725" stroke="black" cx="441" cy="-162" rx="89.09" ry="18"/>
<text text-anchor="middle" x="441" y="-157.32" font-family="Times,serif" font-size="14.00">nsight compute</text>
</a>
</g>
</g>
<!-- xorg&#45;libx11&#45;&gt;nsight&#45;compute -->
<g id="edge52" class="edge">
<title>xorg&#45;libx11&#45;&gt;nsight&#45;compute</title>
<path fill="none" stroke="black" d="M1771.13,-376.16C1496.47,-372.85 567.41,-359.08 515,-324 470.02,-293.89 451.91,-229.11 444.99,-191.55"/>
<polygon fill="black" stroke="black" points="448.47,-191.16 443.36,-181.88 441.57,-192.32 448.47,-191.16"/>
</g>
<!-- libva&#45;&gt;ffmpeg -->
<g id="edge53" class="edge">
<title>libva&#45;&gt;ffmpeg</title>
<path fill="none" stroke="black" d="M2172.43,-216.41C2177.45,-208.42 2183.6,-198.64 2189.25,-189.64"/>
<polygon fill="black" stroke="black" points="2192.18,-191.57 2194.54,-181.24 2186.25,-187.84 2192.18,-191.57"/>
</g>
<!-- vulkan&#45;loader&#45;&gt;vulkan&#45;tools -->
<g id="edge55" class="edge">
<title>vulkan&#45;loader&#45;&gt;vulkan&#45;tools</title>
<path fill="none" stroke="black" d="M2512.93,-144.05C2506.63,-135.89 2498.93,-125.91 2491.92,-116.82"/>
<polygon fill="black" stroke="black" points="2494.76,-114.77 2485.88,-108.99 2489.21,-119.04 2494.76,-114.77"/>
</g>
<!-- xcb&#45;util&#45;keysyms -->
<g id="node28" class="node">
<title>xcb&#45;util&#45;keysyms</title>
<g id="a_node28"><a xlink:href="https://github.com/conda-forge/xcb-util-keysyms-feedstock/pull/5" xlink:title="xcb util keysyms ❎">
<ellipse fill="#31688e" stroke="black" cx="634" cy="-306" rx="110.13" ry="18"/>
<text text-anchor="middle" x="634" y="-301.32" font-family="Times,serif" font-size="14.00" fill="white">xcb util keysyms ❎</text>
</a>
</g>
</g>
<!-- xcb&#45;util&#45;keysyms&#45;&gt;qt&#45;main -->
<g id="edge56" class="edge">
<title>xcb&#45;util&#45;keysyms&#45;&gt;qt&#45;main</title>
<path fill="none" stroke="black" d="M704.03,-291.75C775.28,-278.27 884.22,-257.66 949.35,-245.34"/>
<polygon fill="black" stroke="black" points="949.93,-248.79 959.1,-243.49 948.63,-241.91 949.93,-248.79"/>
</g>
<!-- xcb&#45;util&#45;keysyms&#45;&gt;kwindowsystem -->
<g id="edge57" class="edge">
<title>xcb&#45;util&#45;keysyms&#45;&gt;kwindowsystem</title>
<path fill="none" stroke="black" d="M634.15,-287.94C634.92,-257.86 638.89,-193.88 658,-144 661.53,-134.78 666.88,-125.52 672.34,-117.38"/>
<polygon fill="black" stroke="black" points="675.12,-119.5 678.06,-109.32 669.42,-115.45 675.12,-119.5"/>
</g>
<!-- xcb&#45;util&#45;keysyms&#45;&gt;kglobalaccel -->
<g id="edge58" class="edge">
<title>xcb&#45;util&#45;keysyms&#45;&gt;kglobalaccel</title>
<path fill="none" stroke="black" d="M623.59,-287.76C600.48,-247.06 550.22,-143.09 593,-72 602.61,-56.04 618.82,-44.63 635.42,-36.59"/>
<polygon fill="black" stroke="black" points="636.64,-39.87 644.37,-32.62 633.81,-33.47 636.64,-39.87"/>
</g>
<!-- xcb&#45;util&#45;keysyms&#45;&gt;nsight&#45;compute -->
<g id="edge59" class="edge">
<title>xcb&#45;util&#45;keysyms&#45;&gt;nsight&#45;compute</title>
<path fill="none" stroke="black" d="M602.73,-288.42C585.01,-278.57 562.71,-265.43 544,-252 516.4,-232.2 487.33,-206.58 467.13,-187.91"/>
<polygon fill="black" stroke="black" points="469.59,-185.42 459.89,-181.16 464.81,-190.54 469.59,-185.42"/>
</g>
<!-- xcb&#45;util -->
<g id="node29" class="node">
<title>xcb&#45;util</title>
<g id="a_node29"><a xlink:href="https://github.com/conda-forge/xcb-util-feedstock/pull/3" xlink:title="xcb util ✓">
<ellipse fill="#31688e" stroke="black" cx="148" cy="-378" rx="56.47" ry="18"/>
<text text-anchor="middle" x="148" y="-373.32" font-family="Times,serif" font-size="14.00" fill="white">xcb util ✓</text>
</a>
</g>
</g>
<!-- xcb&#45;util&#45;&gt;qt&#45;main -->
<g id="edge60" class="edge">
<title>xcb&#45;util&#45;&gt;qt&#45;main</title>
<path fill="none" stroke="black" d="M204.57,-376.01C375.24,-372.64 877.2,-359.75 941,-324 965.19,-310.45 982.32,-283.27 992.55,-262.49"/>
<polygon fill="black" stroke="black" points="995.6,-264.23 996.64,-253.69 989.25,-261.29 995.6,-264.23"/>
</g>
<!-- xcb&#45;util&#45;&gt;kwindowsystem -->
<g id="edge61" class="edge">
<title>xcb&#45;util&#45;&gt;kwindowsystem</title>
<path fill="none" stroke="black" d="M108.91,-364.73C89.65,-356.49 68.21,-343.5 57,-324 49.03,-310.13 48.81,-301.75 57,-288 91.4,-230.25 130.01,-246.32 190,-216 257.07,-182.1 271.09,-165.85 343,-144 426.72,-118.55 525.58,-105.02 596.84,-98.02"/>
<polygon fill="black" stroke="black" points="596.91,-101.53 606.53,-97.09 596.24,-94.56 596.91,-101.53"/>
</g>
<!-- xcb&#45;util&#45;image -->
<g id="node30" class="node">
<title>xcb&#45;util&#45;image</title>
<g id="a_node30"><a xlink:href="https://github.com/conda-forge/xcb-util-image-feedstock" xlink:title="xcb util image">
<ellipse fill="#fde725" stroke="black" cx="148" cy="-306" rx="82.25" ry="18"/>
<text text-anchor="middle" x="148" y="-301.32" font-family="Times,serif" font-size="14.00">xcb util image</text>
</a>
</g>
</g>
<!-- xcb&#45;util&#45;&gt;xcb&#45;util&#45;image -->
<g id="edge62" class="edge">
<title>xcb&#45;util&#45;&gt;xcb&#45;util&#45;image</title>
<path fill="none" stroke="black" d="M148,-359.7C148,-352.41 148,-343.73 148,-335.54"/>
<polygon fill="black" stroke="black" points="151.5,-335.62 148,-325.62 144.5,-335.62 151.5,-335.62"/>
</g>
<!-- xcb&#45;util&#45;image&#45;&gt;qt&#45;main -->
<g id="edge63" class="edge">
<title>xcb&#45;util&#45;image&#45;&gt;qt&#45;main</title>
<path fill="none" stroke="black" d="M206.59,-293.03C217.33,-291.12 228.48,-289.34 239,-288 499.87,-254.71 813.64,-241.24 943.35,-236.82"/>
<polygon fill="black" stroke="black" points="943.19,-240.33 953.07,-236.5 942.96,-233.33 943.19,-240.33"/>
</g>
<!-- xcb&#45;util&#45;image&#45;&gt;nsight&#45;compute -->
<g id="edge64" class="edge">
<title>xcb&#45;util&#45;image&#45;&gt;nsight&#45;compute</title>
<path fill="none" stroke="black" d="M160.28,-287.85C175.68,-267.62 203.98,-234.42 236,-216 272.54,-194.98 317.48,-182.16 355.97,-174.4"/>
<polygon fill="black" stroke="black" points="356.51,-177.86 365.67,-172.54 355.19,-170.99 356.51,-177.86"/>
</g>
<!-- xcb&#45;util&#45;cursor -->
<g id="node31" class="node">
<title>xcb&#45;util&#45;cursor</title>
<g id="a_node31"><a xlink:href="https://github.com/conda-forge/xcb-util-cursor-feedstock" xlink:title="xcb util cursor">
<ellipse fill="#fde725" stroke="black" cx="329" cy="-234" rx="83.83" ry="18"/>
<text text-anchor="middle" x="329" y="-229.32" font-family="Times,serif" font-size="14.00">xcb util cursor</text>
</a>
</g>
</g>
<!-- xcb&#45;util&#45;image&#45;&gt;xcb&#45;util&#45;cursor -->
<g id="edge65" class="edge">
<title>xcb&#45;util&#45;image&#45;&gt;xcb&#45;util&#45;cursor</title>
<path fill="none" stroke="black" d="M187.27,-289.81C214.1,-279.44 249.89,-265.6 278.78,-254.42"/>
<polygon fill="black" stroke="black" points="280.01,-257.7 288.08,-250.83 277.49,-251.17 280.01,-257.7"/>
</g>
<!-- xcb&#45;util&#45;cursor&#45;&gt;nsight&#45;compute -->
<g id="edge69" class="edge">
<title>xcb&#45;util&#45;cursor&#45;&gt;nsight&#45;compute</title>
<path fill="none" stroke="black" d="M355.26,-216.59C370.04,-207.35 388.71,-195.68 404.85,-185.59"/>
<polygon fill="black" stroke="black" points="406.61,-188.62 413.23,-180.35 402.9,-182.69 406.61,-188.62"/>
</g>
<!-- xcb&#45;util&#45;wm -->
<g id="node32" class="node">
<title>xcb&#45;util&#45;wm</title>
<g id="a_node32"><a xlink:href="https://github.com/conda-forge/xcb-util-wm-feedstock/pull/3" xlink:title="xcb util wm ❎">
<ellipse fill="#31688e" stroke="black" cx="847" cy="-306" rx="84.88" ry="18"/>
<text text-anchor="middle" x="847" y="-301.32" font-family="Times,serif" font-size="14.00" fill="white">xcb util wm ❎</text>
</a>
</g>
</g>
<!-- xcb&#45;util&#45;wm&#45;&gt;qt&#45;main -->
<g id="edge66" class="edge">
<title>xcb&#45;util&#45;wm&#45;&gt;qt&#45;main</title>
<path fill="none" stroke="black" d="M882.23,-289.29C906.2,-278.6 938,-264.43 963.09,-253.24"/>
<polygon fill="black" stroke="black" points="964.3,-256.53 972.01,-249.26 961.45,-250.14 964.3,-256.53"/>
</g>
<!-- xcb&#45;util&#45;wm&#45;&gt;kwindowsystem -->
<g id="edge67" class="edge">
<title>xcb&#45;util&#45;wm&#45;&gt;kwindowsystem</title>
<path fill="none" stroke="black" d="M814.67,-289.04C778.36,-269.12 721.2,-231.32 696,-180 686.88,-161.42 686.47,-137.93 688.17,-119.75"/>
<polygon fill="black" stroke="black" points="691.63,-120.26 689.37,-109.91 684.68,-119.41 691.63,-120.26"/>
</g>
<!-- xcb&#45;util&#45;wm&#45;&gt;nsight&#45;compute -->
<g id="edge68" class="edge">
<title>xcb&#45;util&#45;wm&#45;&gt;nsight&#45;compute</title>
<path fill="none" stroke="black" d="M793.13,-291.67C755.04,-281.81 702.95,-267.46 658,-252 597.83,-231.3 530.27,-202.71 486.75,-183.58"/>
<polygon fill="black" stroke="black" points="488.17,-180.38 477.61,-179.54 485.34,-186.78 488.17,-180.38"/>
</g>
<!-- xcb&#45;util&#45;renderutil -->
<g id="node33" class="node">
<title>xcb&#45;util&#45;renderutil</title>
<g id="a_node33"><a xlink:href="https://github.com/conda-forge/xcb-util-renderutil-feedstock/pull/6" xlink:title="xcb util renderutil ✓">
<ellipse fill="#31688e" stroke="black" cx="358" cy="-306" rx="110.13" ry="18"/>
<text text-anchor="middle" x="358" y="-301.32" font-family="Times,serif" font-size="14.00" fill="white">xcb util renderutil ✓</text>
</a>
</g>
</g>
<!-- xcb&#45;util&#45;renderutil&#45;&gt;qt&#45;main -->
<g id="edge70" class="edge">
<title>xcb&#45;util&#45;renderutil&#45;&gt;qt&#45;main</title>
<path fill="none" stroke="black" d="M447.82,-295.27C582.4,-280.68 832.6,-253.57 945.75,-241.31"/>
<polygon fill="black" stroke="black" points="945.85,-244.82 955.41,-240.27 945.09,-237.86 945.85,-244.82"/>
</g>
<!-- xcb&#45;util&#45;renderutil&#45;&gt;nsight&#45;compute -->
<g id="edge71" class="edge">
<title>xcb&#45;util&#45;renderutil&#45;&gt;nsight&#45;compute</title>
<path fill="none" stroke="black" d="M385.73,-288.32C398.65,-279.17 413.1,-266.68 422,-252 433.03,-233.8 437.71,-210.11 439.67,-191.75"/>
<polygon fill="black" stroke="black" points="443.16,-192.05 440.5,-181.8 436.18,-191.47 443.16,-192.05"/>
</g>
<!-- xcb&#45;util&#45;renderutil&#45;&gt;xcb&#45;util&#45;cursor -->
<g id="edge72" class="edge">
<title>xcb&#45;util&#45;renderutil&#45;&gt;xcb&#45;util&#45;cursor</title>
<path fill="none" stroke="black" d="M350.83,-287.7C347.71,-280.15 343.96,-271.12 340.47,-262.68"/>
<polygon fill="black" stroke="black" points="343.73,-261.4 336.67,-253.5 337.26,-264.08 343.73,-261.4"/>
</g>
</g>
</svg>
