<?xml version="1.0" encoding="UTF-8" standalone="no"?>
<!DOCTYPE svg PUBLIC "-//W3C//DTD SVG 1.1//EN"
 "http://www.w3.org/Graphics/SVG/1.1/DTD/svg11.dtd">
<!-- Generated by graphviz version 11.0.0 (20240519.1550)
 -->
<!-- Pages: 1 -->
<svg width="2925pt" height="476pt"
 viewBox="0.00 0.00 2925.15 476.00" xmlns="http://www.w3.org/2000/svg" xmlns:xlink="http://www.w3.org/1999/xlink">
<g id="graph0" class="graph" transform="scale(1 1) rotate(0) translate(4 472)">
<polygon fill="white" stroke="none" points="-4,4 -4,-472 2921.15,-472 2921.15,4 -4,4"/>
<!-- arb -->
<g id="node1" class="node">
<title>arb</title>
<g id="a_node1"><a xlink:href="https://github.com/conda-forge/arb-feedstock" xlink:title="arb">
<ellipse fill="#ff8c00" stroke="black" cx="550" cy="-234" rx="28.06" ry="18"/>
<text text-anchor="middle" x="550" y="-229.32" font-family="Times,serif" font-size="14.00">arb</text>
</a>
</g>
</g>
<!-- mppp -->
<g id="node2" class="node">
<title>mppp</title>
<g id="a_node2"><a xlink:href="https://github.com/conda-forge/mppp-feedstock" xlink:title="mppp">
<ellipse fill="#ff8c00" stroke="black" cx="550" cy="-162" rx="39.63" ry="18"/>
<text text-anchor="middle" x="550" y="-157.32" font-family="Times,serif" font-size="14.00">mppp</text>
</a>
</g>
</g>
<!-- arb&#45;&gt;mppp -->
<g id="edge1" class="edge">
<title>arb&#45;&gt;mppp</title>
<path fill="none" stroke="black" d="M550,-215.7C550,-208.41 550,-199.73 550,-191.54"/>
<polygon fill="black" stroke="black" points="553.5,-191.62 550,-181.62 546.5,-191.62 553.5,-191.62"/>
</g>
<!-- heyoka.py -->
<g id="node3" class="node">
<title>heyoka.py</title>
<g id="a_node3"><a xlink:href="https://github.com/conda-forge/heyoka.py-feedstock" xlink:title="heyoka py">
<ellipse fill="#35b779" stroke="black" cx="476" cy="-18" rx="61.73" ry="18"/>
<text text-anchor="middle" x="476" y="-13.32" font-family="Times,serif" font-size="14.00">heyoka py</text>
</a>
</g>
</g>
<!-- mppp&#45;&gt;heyoka.py -->
<g id="edge2" class="edge">
<title>mppp&#45;&gt;heyoka.py</title>
<path fill="none" stroke="black" d="M529.5,-146.29C517.64,-136.71 503.44,-123.19 495,-108 484.73,-89.51 480,-66.01 477.83,-47.81"/>
<polygon fill="black" stroke="black" points="481.33,-47.56 476.87,-37.95 474.36,-48.25 481.33,-47.56"/>
</g>
<!-- heyoka -->
<g id="node4" class="node">
<title>heyoka</title>
<g id="a_node4"><a xlink:href="https://github.com/conda-forge/heyoka-feedstock" xlink:title="heyoka">
<ellipse fill="#35b779" stroke="black" cx="550" cy="-90" rx="46.47" ry="18"/>
<text text-anchor="middle" x="550" y="-85.33" font-family="Times,serif" font-size="14.00">heyoka</text>
</a>
</g>
</g>
<!-- mppp&#45;&gt;heyoka -->
<g id="edge3" class="edge">
<title>mppp&#45;&gt;heyoka</title>
<path fill="none" stroke="black" d="M550,-143.7C550,-136.41 550,-127.73 550,-119.54"/>
<polygon fill="black" stroke="black" points="553.5,-119.62 550,-109.62 546.5,-119.62 553.5,-119.62"/>
</g>
<!-- heyoka&#45;&gt;heyoka.py -->
<g id="edge64" class="edge">
<title>heyoka&#45;&gt;heyoka.py</title>
<path fill="none" stroke="black" d="M533.21,-73.12C523.95,-64.36 512.25,-53.29 501.85,-43.45"/>
<polygon fill="black" stroke="black" points="504.27,-40.92 494.6,-36.59 499.46,-46.01 504.27,-40.92"/>
</g>
<!-- cgal -->
<g id="node5" class="node">
<title>cgal</title>
<g id="a_node5"><a xlink:href="https://github.com/conda-forge/cgal-feedstock" xlink:title="cgal">
<ellipse fill="#ff8c00" stroke="black" cx="598" cy="-306" rx="31.74" ry="18"/>
<text text-anchor="middle" x="598" y="-301.32" font-family="Times,serif" font-size="14.00">cgal</text>
</a>
</g>
</g>
<!-- gmpy2 -->
<g id="node6" class="node">
<title>gmpy2</title>
<g id="a_node6"><a xlink:href="https://github.com/conda-forge/gmpy2-feedstock" xlink:title="gmpy2">
<ellipse fill="#ff8c00" stroke="black" cx="207" cy="-306" rx="45.42" ry="18"/>
<text text-anchor="middle" x="207" y="-301.32" font-family="Times,serif" font-size="14.00">gmpy2</text>
</a>
</g>
</g>
<!-- gmpy2&#45;&gt;heyoka.py -->
<g id="edge5" class="edge">
<title>gmpy2&#45;&gt;heyoka.py</title>
<path fill="none" stroke="black" d="M166.56,-297.28C141.28,-290.13 110.65,-276.72 95,-252 86.44,-238.48 86.68,-229.67 95,-216 164.62,-101.63 324.4,-50.73 413.34,-30.57"/>
<polygon fill="black" stroke="black" points="413.86,-34.04 422.88,-28.47 412.36,-27.2 413.86,-34.04"/>
</g>
<!-- python&#45;symengine -->
<g id="node7" class="node">
<title>python&#45;symengine</title>
<g id="a_node7"><a xlink:href="https://github.com/conda-forge/python-symengine-feedstock" xlink:title="python symengine">
<ellipse fill="#35b779" stroke="black" cx="207" cy="-234" rx="103.29" ry="18"/>
<text text-anchor="middle" x="207" y="-229.32" font-family="Times,serif" font-size="14.00">python symengine</text>
</a>
</g>
</g>
<!-- gmpy2&#45;&gt;python&#45;symengine -->
<g id="edge4" class="edge">
<title>gmpy2&#45;&gt;python&#45;symengine</title>
<path fill="none" stroke="black" d="M207,-287.7C207,-280.41 207,-271.73 207,-263.54"/>
<polygon fill="black" stroke="black" points="210.5,-263.62 207,-253.62 203.5,-263.62 210.5,-263.62"/>
</g>
<!-- igraph -->
<g id="node8" class="node">
<title>igraph</title>
<g id="a_node8"><a xlink:href="https://github.com/conda-forge/igraph-feedstock/pull/73" xlink:title="igraph ❎">
<ellipse fill="#31688e" stroke="black" cx="707" cy="-306" rx="59.1" ry="18"/>
<text text-anchor="middle" x="707" y="-301.32" font-family="Times,serif" font-size="14.00" fill="white">igraph ❎</text>
</a>
</g>
</g>
<!-- libflint -->
<g id="node9" class="node">
<title>libflint</title>
<g id="a_node9"><a xlink:href="https://github.com/conda-forge/libflint-feedstock" xlink:title="libflint">
<ellipse fill="#ff8c00" stroke="black" cx="352" cy="-306" rx="43.84" ry="18"/>
<text text-anchor="middle" x="352" y="-301.32" font-family="Times,serif" font-size="14.00">libflint</text>
</a>
</g>
</g>
<!-- libflint&#45;&gt;arb -->
<g id="edge6" class="edge">
<title>libflint&#45;&gt;arb</title>
<path fill="none" stroke="black" d="M386.95,-294.74C419.83,-284.8 470.27,-268.79 513,-252 514.52,-251.4 516.07,-250.77 517.63,-250.12"/>
<polygon fill="black" stroke="black" points="518.72,-253.47 526.48,-246.26 515.92,-247.05 518.72,-253.47"/>
</g>
<!-- libflint&#45;&gt;mppp -->
<g id="edge7" class="edge">
<title>libflint&#45;&gt;mppp</title>
<path fill="none" stroke="black" d="M347.57,-287.85C343.61,-268.23 340.66,-236.23 357,-216 375.02,-193.7 450,-178.13 501.02,-169.87"/>
<polygon fill="black" stroke="black" points="501.32,-173.37 510.66,-168.36 500.24,-166.45 501.32,-173.37"/>
</g>
<!-- libflint&#45;&gt;python&#45;symengine -->
<g id="edge8" class="edge">
<title>libflint&#45;&gt;python&#45;symengine</title>
<path fill="none" stroke="black" d="M324.39,-291.67C303.7,-281.68 274.98,-267.82 251.12,-256.3"/>
<polygon fill="black" stroke="black" points="252.78,-253.22 242.26,-252.02 249.74,-259.52 252.78,-253.22"/>
</g>
<!-- python&#45;flint -->
<g id="node10" class="node">
<title>python&#45;flint</title>
<g id="a_node10"><a xlink:href="https://github.com/conda-forge/python-flint-feedstock" xlink:title="python flint">
<ellipse fill="#35b779" stroke="black" cx="435" cy="-234" rx="69.1" ry="18"/>
<text text-anchor="middle" x="435" y="-229.32" font-family="Times,serif" font-size="14.00">python flint</text>
</a>
</g>
</g>
<!-- libflint&#45;&gt;python&#45;flint -->
<g id="edge9" class="edge">
<title>libflint&#45;&gt;python&#45;flint</title>
<path fill="none" stroke="black" d="M370.42,-289.46C381,-280.54 394.51,-269.14 406.44,-259.08"/>
<polygon fill="black" stroke="black" points="408.64,-261.81 414.03,-252.69 404.12,-256.46 408.64,-261.81"/>
</g>
<!-- normaliz -->
<g id="node11" class="node">
<title>normaliz</title>
<g id="a_node11"><a xlink:href="https://github.com/conda-forge/normaliz-feedstock" xlink:title="normaliz">
<ellipse fill="#35b779" stroke="black" cx="651" cy="-234" rx="54.89" ry="18"/>
<text text-anchor="middle" x="651" y="-229.32" font-family="Times,serif" font-size="14.00">normaliz</text>
</a>
</g>
</g>
<!-- libflint&#45;&gt;normaliz -->
<g id="edge10" class="edge">
<title>libflint&#45;&gt;normaliz</title>
<path fill="none" stroke="black" d="M390.37,-296.81C436.98,-286.76 517.95,-268.95 587,-252 590.8,-251.07 594.72,-250.08 598.66,-249.07"/>
<polygon fill="black" stroke="black" points="599.48,-252.48 608.28,-246.58 597.72,-245.7 599.48,-252.48"/>
</g>
<!-- antic -->
<g id="node12" class="node">
<title>antic</title>
<g id="a_node12"><a xlink:href="https://github.com/conda-forge/antic-feedstock" xlink:title="antic">
<ellipse fill="#35b779" stroke="black" cx="760" cy="-234" rx="35.95" ry="18"/>
<text text-anchor="middle" x="760" y="-229.32" font-family="Times,serif" font-size="14.00">antic</text>
</a>
</g>
</g>
<!-- libflint&#45;&gt;antic -->
<g id="edge11" class="edge">
<title>libflint&#45;&gt;antic</title>
<path fill="none" stroke="black" d="M393.41,-299.47C481.99,-287.56 684.32,-259.93 715,-252 717.43,-251.37 719.91,-250.66 722.4,-249.88"/>
<polygon fill="black" stroke="black" points="723.41,-253.24 731.75,-246.7 721.15,-246.61 723.41,-253.24"/>
</g>
<!-- mpc -->
<g id="node13" class="node">
<title>mpc</title>
<g id="a_node13"><a xlink:href="https://github.com/conda-forge/mpc-feedstock" xlink:title="mpc">
<ellipse fill="#ff8c00" stroke="black" cx="1241" cy="-450" rx="32.27" ry="18"/>
<text text-anchor="middle" x="1241" y="-445.32" font-family="Times,serif" font-size="14.00">mpc</text>
</a>
</g>
</g>
<!-- mpc&#45;&gt;arb -->
<g id="edge12" class="edge">
<title>mpc&#45;&gt;arb</title>
<path fill="none" stroke="black" d="M1208.62,-449.26C1070.57,-450.03 535.9,-449.52 486,-396 453.27,-360.89 465.57,-331.44 486,-288 493,-273.12 506.44,-260.99 519.22,-252.1"/>
<polygon fill="black" stroke="black" points="520.96,-255.14 527.46,-246.77 517.16,-249.26 520.96,-255.14"/>
</g>
<!-- mpc&#45;&gt;mppp -->
<g id="edge13" class="edge">
<title>mpc&#45;&gt;mppp</title>
<path fill="none" stroke="black" d="M1208.68,-448.77C1083.29,-447.1 632.16,-433.47 557,-324 547.94,-310.81 546.53,-300.1 557,-288 629.88,-203.78 732.12,-336.22 805,-252 815.47,-239.9 815.1,-228.41 805,-216 779.71,-184.91 667.2,-171.47 600.37,-166.14"/>
<polygon fill="black" stroke="black" points="601,-162.67 590.76,-165.4 600.47,-169.65 601,-162.67"/>
</g>
<!-- mpc&#45;&gt;heyoka.py -->
<g id="edge17" class="edge">
<title>mpc&#45;&gt;heyoka.py</title>
<path fill="none" stroke="black" d="M1208.34,-449.28C1028.3,-450.62 161.45,-454 59,-396 17.7,-372.62 0,-354.46 0,-307 0,-307 0,-307 0,-161 0,-77.2 274.3,-38.8 406.45,-25.16"/>
<polygon fill="black" stroke="black" points="406.53,-28.67 416.13,-24.18 405.83,-21.71 406.53,-28.67"/>
</g>
<!-- mpc&#45;&gt;heyoka -->
<g id="edge32" class="edge">
<title>mpc&#45;&gt;heyoka</title>
<path fill="none" stroke="black" d="M1208.43,-448.43C1039.87,-445.34 270.57,-429.48 170,-396 102.87,-373.65 38,-377.76 38,-307 38,-307 38,-307 38,-233 38,-139.45 359.43,-105 492.93,-94.72"/>
<polygon fill="black" stroke="black" points="492.89,-98.24 502.6,-94 492.37,-91.26 492.89,-98.24"/>
</g>
<!-- mpc&#45;&gt;cgal -->
<g id="edge14" class="edge">
<title>mpc&#45;&gt;cgal</title>
<path fill="none" stroke="black" d="M1209.21,-445.78C1146.52,-439.09 1002.72,-422.12 884,-396 773.16,-371.61 746.02,-361.79 639,-324 637.07,-323.32 635.09,-322.59 633.11,-321.84"/>
<polygon fill="black" stroke="black" points="634.55,-318.65 623.96,-318.24 631.98,-325.16 634.55,-318.65"/>
</g>
<!-- mpc&#45;&gt;gmpy2 -->
<g id="edge15" class="edge">
<title>mpc&#45;&gt;gmpy2</title>
<path fill="none" stroke="black" d="M1208.46,-448.95C1048.44,-448.48 349.31,-443.68 266,-396 242.54,-382.57 226.67,-355.57 217.35,-334.81"/>
<polygon fill="black" stroke="black" points="220.63,-333.6 213.54,-325.74 214.18,-336.31 220.63,-333.6"/>
</g>
<!-- mpc&#45;&gt;python&#45;symengine -->
<g id="edge16" class="edge">
<title>mpc&#45;&gt;python&#45;symengine</title>
<path fill="none" stroke="black" d="M1208.48,-448.64C1045.27,-446.67 319.71,-435.71 228,-396 185.6,-377.64 171.12,-366.51 153,-324 146.73,-309.28 146.81,-302.75 153,-288 157.54,-277.19 165.47,-267.48 173.89,-259.41"/>
<polygon fill="black" stroke="black" points="176.06,-262.16 181.22,-252.91 171.42,-256.92 176.06,-262.16"/>
</g>
<!-- mpc&#45;&gt;igraph -->
<g id="edge18" class="edge">
<title>mpc&#45;&gt;igraph</title>
<path fill="none" stroke="black" d="M1211.27,-442.53C1167.94,-433 1084.99,-414.31 1015,-396 924.26,-372.27 819.52,-341.21 758.54,-322.76"/>
<polygon fill="black" stroke="black" points="759.7,-319.46 749.12,-319.91 757.67,-326.16 759.7,-319.46"/>
</g>
<!-- mpc&#45;&gt;libflint -->
<g id="edge19" class="edge">
<title>mpc&#45;&gt;libflint</title>
<path fill="none" stroke="black" d="M1208.57,-448.64C1063.71,-446.78 479.91,-436.82 410,-396 386.78,-382.44 371.2,-355.46 362.08,-334.74"/>
<polygon fill="black" stroke="black" points="365.4,-333.61 358.36,-325.69 358.93,-336.27 365.4,-333.61"/>
</g>
<!-- mpc&#45;&gt;python&#45;flint -->
<g id="edge20" class="edge">
<title>mpc&#45;&gt;python&#45;flint</title>
<path fill="none" stroke="black" d="M1208.82,-448.36C1060.96,-445.23 450.58,-430.31 373,-396 319.78,-372.47 266.16,-336.04 299,-288 313.82,-266.31 338.94,-253.5 363.59,-245.93"/>
<polygon fill="black" stroke="black" points="364.31,-249.36 373,-243.31 362.43,-242.62 364.31,-249.36"/>
</g>
<!-- mpc&#45;&gt;normaliz -->
<g id="edge21" class="edge">
<title>mpc&#45;&gt;normaliz</title>
<path fill="none" stroke="black" d="M1208.72,-449.22C1072.32,-449.8 547.95,-448.58 499,-396 488.82,-385.06 481.19,-314.15 500,-288 506.18,-279.41 558.51,-262.27 599.85,-249.8"/>
<polygon fill="black" stroke="black" points="600.6,-253.23 609.18,-247.01 598.6,-246.52 600.6,-253.23"/>
</g>
<!-- mpc&#45;&gt;antic -->
<g id="edge22" class="edge">
<title>mpc&#45;&gt;antic</title>
<path fill="none" stroke="black" d="M1208.46,-449.13C1074.58,-449.33 571.09,-446.7 524,-396 491.33,-360.83 493.36,-324.95 524,-288 579.14,-221.5 631.83,-275.35 715,-252 717.26,-251.37 719.57,-250.66 721.89,-249.92"/>
<polygon fill="black" stroke="black" points="722.91,-253.27 731.22,-246.7 720.62,-246.65 722.91,-253.27"/>
</g>
<!-- mpfr -->
<g id="node14" class="node">
<title>mpfr</title>
<g id="a_node14"><a xlink:href="https://github.com/conda-forge/mpfr-feedstock/pull/46" xlink:title="mpfr ❎">
<ellipse fill="#31688e" stroke="black" cx="1241" cy="-378" rx="50.68" ry="18"/>
<text text-anchor="middle" x="1241" y="-373.32" font-family="Times,serif" font-size="14.00" fill="white">mpfr ❎</text>
</a>
</g>
</g>
<!-- mpc&#45;&gt;mpfr -->
<g id="edge23" class="edge">
<title>mpc&#45;&gt;mpfr</title>
<path fill="none" stroke="black" d="M1235.12,-432.05C1234.34,-424.68 1234.08,-415.84 1234.35,-407.51"/>
<polygon fill="black" stroke="black" points="1237.83,-407.99 1234.99,-397.79 1230.84,-407.54 1237.83,-407.99"/>
</g>
<!-- python&#45;igraph -->
<g id="node15" class="node">
<title>python&#45;igraph</title>
<g id="a_node15"><a xlink:href="https://github.com/conda-forge/python-igraph-feedstock/pull/90" xlink:title="python igraph ❎">
<ellipse fill="#31688e" stroke="black" cx="881" cy="-306" rx="96.98" ry="18"/>
<text text-anchor="middle" x="881" y="-301.32" font-family="Times,serif" font-size="14.00" fill="white">python igraph ❎</text>
</a>
</g>
</g>
<!-- mpc&#45;&gt;python&#45;igraph -->
<g id="edge24" class="edge">
<title>mpc&#45;&gt;python&#45;igraph</title>
<path fill="none" stroke="black" d="M1215.11,-438.79C1155.83,-415.4 1009.37,-357.64 931.53,-326.93"/>
<polygon fill="black" stroke="black" points="933.01,-323.75 922.42,-323.34 930.44,-330.26 933.01,-323.75"/>
</g>
<!-- gudhi -->
<g id="node16" class="node">
<title>gudhi</title>
<g id="a_node16"><a xlink:href="https://github.com/conda-forge/gudhi-feedstock" xlink:title="gudhi">
<ellipse fill="#35b779" stroke="black" cx="1340" cy="-306" rx="39.63" ry="18"/>
<text text-anchor="middle" x="1340" y="-301.32" font-family="Times,serif" font-size="14.00">gudhi</text>
</a>
</g>
</g>
<!-- mpc&#45;&gt;gudhi -->
<g id="edge25" class="edge">
<title>mpc&#45;&gt;gudhi</title>
<path fill="none" stroke="black" d="M1260.57,-435.26C1273.39,-425.48 1289.78,-411.38 1301,-396 1314.52,-377.46 1324.68,-353.51 1331.24,-335.12"/>
<polygon fill="black" stroke="black" points="1334.55,-336.24 1334.45,-325.65 1327.92,-333.99 1334.55,-336.24"/>
</g>
<!-- wildmeshing -->
<g id="node17" class="node">
<title>wildmeshing</title>
<g id="a_node17"><a xlink:href="https://github.com/conda-forge/wildmeshing-feedstock" xlink:title="wildmeshing">
<ellipse fill="#35b779" stroke="black" cx="1473" cy="-306" rx="74.88" ry="18"/>
<text text-anchor="middle" x="1473" y="-301.32" font-family="Times,serif" font-size="14.00">wildmeshing</text>
</a>
</g>
</g>
<!-- mpc&#45;&gt;wildmeshing -->
<g id="edge26" class="edge">
<title>mpc&#45;&gt;wildmeshing</title>
<path fill="none" stroke="black" d="M1262,-436.15C1301.65,-411.88 1387.97,-359.05 1437.03,-329.02"/>
<polygon fill="black" stroke="black" points="1438.62,-332.15 1445.32,-323.94 1434.96,-326.18 1438.62,-332.15"/>
</g>
<!-- ifcopenshell -->
<g id="node18" class="node">
<title>ifcopenshell</title>
<g id="a_node18"><a xlink:href="https://github.com/conda-forge/ifcopenshell-feedstock" xlink:title="ifcopenshell">
<ellipse fill="#35b779" stroke="black" cx="1637" cy="-306" rx="71.2" ry="18"/>
<text text-anchor="middle" x="1637" y="-301.32" font-family="Times,serif" font-size="14.00">ifcopenshell</text>
</a>
</g>
</g>
<!-- mpc&#45;&gt;ifcopenshell -->
<g id="edge27" class="edge">
<title>mpc&#45;&gt;ifcopenshell</title>
<path fill="none" stroke="black" d="M1267.6,-439.46C1332.8,-416.08 1501.47,-355.6 1586.47,-325.12"/>
<polygon fill="black" stroke="black" points="1587.49,-328.47 1595.72,-321.8 1585.13,-321.88 1587.49,-328.47"/>
</g>
<!-- gnuradio -->
<g id="node19" class="node">
<title>gnuradio</title>
<g id="a_node19"><a xlink:href="https://github.com/conda-forge/gnuradio-feedstock" xlink:title="gnuradio">
<ellipse fill="#35b779" stroke="black" cx="1782" cy="-306" rx="55.94" ry="18"/>
<text text-anchor="middle" x="1782" y="-301.32" font-family="Times,serif" font-size="14.00">gnuradio</text>
</a>
</g>
</g>
<!-- mpc&#45;&gt;gnuradio -->
<g id="edge28" class="edge">
<title>mpc&#45;&gt;gnuradio</title>
<path fill="none" stroke="black" d="M1270.19,-441.89C1311.11,-431.88 1387.83,-412.96 1453,-396 1550.98,-370.5 1664.96,-339.33 1729.78,-321.46"/>
<polygon fill="black" stroke="black" points="1730.35,-324.93 1739.06,-318.9 1728.49,-318.18 1730.35,-324.93"/>
</g>
<!-- scikit&#45;geometry -->
<g id="node20" class="node">
<title>scikit&#45;geometry</title>
<g id="a_node20"><a xlink:href="https://github.com/conda-forge/scikit-geometry-feedstock" xlink:title="scikit geometry">
<ellipse fill="#35b779" stroke="black" cx="1945" cy="-306" rx="89.09" ry="18"/>
<text text-anchor="middle" x="1945" y="-301.32" font-family="Times,serif" font-size="14.00">scikit geometry</text>
</a>
</g>
</g>
<!-- mpc&#45;&gt;scikit&#45;geometry -->
<g id="edge29" class="edge">
<title>mpc&#45;&gt;scikit&#45;geometry</title>
<path fill="none" stroke="black" d="M1271.54,-443.74C1324.47,-434.55 1436.63,-414.76 1531,-396 1652.72,-371.8 1793.93,-340.82 1876,-322.52"/>
<polygon fill="black" stroke="black" points="1876.71,-325.95 1885.7,-320.35 1875.18,-319.11 1876.71,-325.95"/>
</g>
<!-- pygalmesh -->
<g id="node21" class="node">
<title>pygalmesh</title>
<g id="a_node21"><a xlink:href="https://github.com/conda-forge/pygalmesh-feedstock" xlink:title="pygalmesh">
<ellipse fill="#35b779" stroke="black" cx="2118" cy="-306" rx="65.41" ry="18"/>
<text text-anchor="middle" x="2118" y="-301.32" font-family="Times,serif" font-size="14.00">pygalmesh</text>
</a>
</g>
</g>
<!-- mpc&#45;&gt;pygalmesh -->
<g id="edge30" class="edge">
<title>mpc&#45;&gt;pygalmesh</title>
<path fill="none" stroke="black" d="M1272.4,-445.14C1338.74,-436.91 1497.98,-416.65 1631,-396 1814.69,-367.48 1860.74,-360.56 2043,-324 2047.92,-323.01 2053.01,-321.95 2058.12,-320.85"/>
<polygon fill="black" stroke="black" points="2058.76,-324.3 2067.78,-318.74 2057.26,-317.46 2058.76,-324.3"/>
</g>
<!-- compas_cgal -->
<g id="node22" class="node">
<title>compas_cgal</title>
<g id="a_node22"><a xlink:href="https://github.com/conda-forge/compas_cgal-feedstock" xlink:title="compas_cgal">
<ellipse fill="#35b779" stroke="black" cx="2276" cy="-306" rx="74.36" ry="18"/>
<text text-anchor="middle" x="2276" y="-301.32" font-family="Times,serif" font-size="14.00">compas_cgal</text>
</a>
</g>
</g>
<!-- mpc&#45;&gt;compas_cgal -->
<g id="edge31" class="edge">
<title>mpc&#45;&gt;compas_cgal</title>
<path fill="none" stroke="black" d="M1273.02,-446.39C1354.06,-439.64 1573.82,-420.39 1756,-396 1950.66,-369.93 1998.83,-359.48 2192,-324 2197.85,-322.92 2203.93,-321.77 2210.01,-320.59"/>
<polygon fill="black" stroke="black" points="2210.31,-324.1 2219.44,-318.73 2208.96,-317.23 2210.31,-324.1"/>
</g>
<!-- imp -->
<g id="node23" class="node">
<title>imp</title>
<g id="a_node23"><a xlink:href="https://github.com/conda-forge/imp-feedstock" xlink:title="imp">
<ellipse fill="#35b779" stroke="black" cx="2399" cy="-306" rx="30.16" ry="18"/>
<text text-anchor="middle" x="2399" y="-301.32" font-family="Times,serif" font-size="14.00">imp</text>
</a>
</g>
</g>
<!-- mpc&#45;&gt;imp -->
<g id="edge33" class="edge">
<title>mpc&#45;&gt;imp</title>
<path fill="none" stroke="black" d="M1273.29,-447.14C1367.75,-441.52 1651.65,-423.43 1886,-396 2097.2,-371.28 2154.43,-382.04 2359,-324 2361.12,-323.4 2363.28,-322.71 2365.44,-321.97"/>
<polygon fill="black" stroke="black" points="2366.59,-325.28 2374.68,-318.44 2364.09,-318.74 2366.59,-325.28"/>
</g>
<!-- gmpxxll -->
<g id="node24" class="node">
<title>gmpxxll</title>
<g id="a_node24"><a xlink:href="https://github.com/conda-forge/gmpxxll-feedstock" xlink:title="gmpxxll">
<ellipse fill="#35b779" stroke="black" cx="2498" cy="-306" rx="51.21" ry="18"/>
<text text-anchor="middle" x="2498" y="-301.32" font-family="Times,serif" font-size="14.00">gmpxxll</text>
</a>
</g>
</g>
<!-- mpc&#45;&gt;gmpxxll -->
<g id="edge34" class="edge">
<title>mpc&#45;&gt;gmpxxll</title>
<path fill="none" stroke="black" d="M1273.52,-448.34C1384.12,-445.78 1755.75,-434.67 2060,-396 2229.66,-374.44 2271.57,-363.35 2438,-324 2441.53,-323.17 2445.16,-322.26 2448.81,-321.31"/>
<polygon fill="black" stroke="black" points="2449.51,-324.75 2458.26,-318.78 2447.69,-317.99 2449.51,-324.75"/>
</g>
<!-- spam -->
<g id="node25" class="node">
<title>spam</title>
<g id="a_node25"><a xlink:href="https://github.com/conda-forge/spam-feedstock" xlink:title="spam">
<ellipse fill="#35b779" stroke="black" cx="2605" cy="-306" rx="38.06" ry="18"/>
<text text-anchor="middle" x="2605" y="-301.32" font-family="Times,serif" font-size="14.00">spam</text>
</a>
</g>
</g>
<!-- mpc&#45;&gt;spam -->
<g id="edge35" class="edge">
<title>mpc&#45;&gt;spam</title>
<path fill="none" stroke="black" d="M1273.3,-448.75C1393.86,-447.49 1828.84,-439.97 2184,-396 2351.99,-375.2 2394.8,-368.93 2558,-324 2560.41,-323.34 2562.88,-322.61 2565.36,-321.83"/>
<polygon fill="black" stroke="black" points="2566.33,-325.2 2574.71,-318.72 2564.12,-318.56 2566.33,-325.2"/>
</g>
<!-- pycolmap -->
<g id="node26" class="node">
<title>pycolmap</title>
<g id="a_node26"><a xlink:href="https://github.com/conda-forge/pycolmap-feedstock" xlink:title="pycolmap">
<ellipse fill="#35b779" stroke="black" cx="2720" cy="-306" rx="59.1" ry="18"/>
<text text-anchor="middle" x="2720" y="-301.32" font-family="Times,serif" font-size="14.00">pycolmap</text>
</a>
</g>
</g>
<!-- mpc&#45;&gt;pycolmap -->
<g id="edge36" class="edge">
<title>mpc&#45;&gt;pycolmap</title>
<path fill="none" stroke="black" d="M1273.56,-449.26C1404.38,-449.93 1904.28,-448.67 2311,-396 2440.13,-379.28 2588.88,-342.36 2666.51,-321.71"/>
<polygon fill="black" stroke="black" points="2667.22,-325.15 2675.97,-319.18 2665.41,-318.38 2667.22,-325.15"/>
</g>
<!-- pygplates -->
<g id="node27" class="node">
<title>pygplates</title>
<g id="a_node27"><a xlink:href="https://github.com/conda-forge/pygplates-feedstock" xlink:title="pygplates">
<ellipse fill="#35b779" stroke="black" cx="2857" cy="-306" rx="60.15" ry="18"/>
<text text-anchor="middle" x="2857" y="-301.32" font-family="Times,serif" font-size="14.00">pygplates</text>
</a>
</g>
</g>
<!-- mpc&#45;&gt;pygplates -->
<g id="edge37" class="edge">
<title>mpc&#45;&gt;pygplates</title>
<path fill="none" stroke="black" d="M1273.5,-449.3C1412.16,-450.21 1967.85,-450.09 2420,-396 2558.77,-379.4 2719.11,-341.96 2801.61,-321.32"/>
<polygon fill="black" stroke="black" points="2802.41,-324.73 2811.26,-318.9 2800.71,-317.94 2802.41,-324.73"/>
</g>
<!-- mpfr&#45;&gt;arb -->
<g id="edge38" class="edge">
<title>mpfr&#45;&gt;arb</title>
<path fill="none" stroke="black" d="M1200.23,-366.93C1170.01,-358.35 1128.59,-344.18 1096,-324 1076.22,-311.75 1079.27,-297.43 1058,-288 866.07,-202.91 790.23,-304.65 587,-252 585.25,-251.55 583.48,-251.01 581.71,-250.42"/>
<polygon fill="black" stroke="black" points="583.04,-247.19 572.45,-246.78 580.48,-253.7 583.04,-247.19"/>
</g>
<!-- mpfr&#45;&gt;mppp -->
<g id="edge39" class="edge">
<title>mpfr&#45;&gt;mppp</title>
<path fill="none" stroke="black" d="M1232.21,-359.98C1220.75,-339.55 1198.72,-305.82 1170,-288 1073.55,-228.14 728.47,-183.43 599.28,-168.45"/>
<polygon fill="black" stroke="black" points="600.03,-165.01 589.69,-167.35 599.23,-171.97 600.03,-165.01"/>
</g>
<!-- mpfr&#45;&gt;heyoka.py -->
<g id="edge43" class="edge">
<title>mpfr&#45;&gt;heyoka.py</title>
<path fill="none" stroke="black" d="M1247.27,-359.78C1256.33,-333.32 1272,-280.92 1272,-235 1272,-235 1272,-235 1272,-161 1272,-87.67 741.64,-39.44 546.74,-24.19"/>
<polygon fill="black" stroke="black" points="547.25,-20.72 537.01,-23.44 546.71,-27.7 547.25,-20.72"/>
</g>
<!-- mpfr&#45;&gt;heyoka -->
<g id="edge58" class="edge">
<title>mpfr&#45;&gt;heyoka</title>
<path fill="none" stroke="black" d="M1237.84,-359.6C1233.38,-339.75 1223.38,-307.52 1203,-288 1033,-125.17 733.26,-96.43 607.78,-91.72"/>
<polygon fill="black" stroke="black" points="608.17,-88.23 598.06,-91.4 607.94,-95.23 608.17,-88.23"/>
</g>
<!-- mpfr&#45;&gt;cgal -->
<g id="edge40" class="edge">
<title>mpfr&#45;&gt;cgal</title>
<path fill="none" stroke="black" d="M1190.21,-377.7C1085.5,-378.02 838.72,-372.97 639,-324 636.87,-323.48 634.7,-322.86 632.54,-322.18"/>
<polygon fill="black" stroke="black" points="633.89,-318.94 623.29,-318.84 631.51,-325.53 633.89,-318.94"/>
</g>
<!-- mpfr&#45;&gt;gmpy2 -->
<g id="edge41" class="edge">
<title>mpfr&#45;&gt;gmpy2</title>
<path fill="none" stroke="black" d="M1190.26,-376.4C1048.71,-374.24 637.68,-364.65 299,-324 285.39,-322.37 270.76,-319.96 257.26,-317.47"/>
<polygon fill="black" stroke="black" points="258.19,-314.09 247.72,-315.66 256.89,-320.97 258.19,-314.09"/>
</g>
<!-- mpfr&#45;&gt;python&#45;symengine -->
<g id="edge42" class="edge">
<title>mpfr&#45;&gt;python&#45;symengine</title>
<path fill="none" stroke="black" d="M1191.81,-373.5C1144.86,-368.32 1073.55,-355.53 1020,-324 1001.3,-312.99 1006.61,-297.3 987,-288 923.65,-257.95 426.86,-257.95 357,-252 338.75,-250.45 319.28,-248.47 300.63,-246.43"/>
<polygon fill="black" stroke="black" points="301.27,-242.98 290.95,-245.35 300.5,-249.93 301.27,-242.98"/>
</g>
<!-- mpfr&#45;&gt;igraph -->
<g id="edge44" class="edge">
<title>mpfr&#45;&gt;igraph</title>
<path fill="none" stroke="black" d="M1191.37,-373.51C1105.86,-367.03 925.43,-351.24 775,-324 770.42,-323.17 765.69,-322.21 760.96,-321.17"/>
<polygon fill="black" stroke="black" points="761.99,-317.82 751.46,-318.99 760.42,-324.64 761.99,-317.82"/>
</g>
<!-- mpfr&#45;&gt;libflint -->
<g id="edge45" class="edge">
<title>mpfr&#45;&gt;libflint</title>
<path fill="none" stroke="black" d="M1191.64,-373.27C1079.07,-364.73 794.75,-343.07 557,-324 505.86,-319.9 447.56,-315.05 406.24,-311.58"/>
<polygon fill="black" stroke="black" points="406.56,-308.09 396.3,-310.74 405.97,-315.07 406.56,-308.09"/>
</g>
<!-- mpfr&#45;&gt;python&#45;flint -->
<g id="edge46" class="edge">
<title>mpfr&#45;&gt;python&#45;flint</title>
<path fill="none" stroke="black" d="M1195,-369.95C1156.48,-362.62 1101.05,-348.66 1058,-324 1037.81,-312.44 1041.29,-297.37 1020,-288 916.62,-242.5 624.8,-268.07 513,-252 507.32,-251.18 501.43,-250.19 495.55,-249.09"/>
<polygon fill="black" stroke="black" points="496.29,-245.67 485.81,-247.16 494.94,-252.53 496.29,-245.67"/>
</g>
<!-- mpfr&#45;&gt;normaliz -->
<g id="edge47" class="edge">
<title>mpfr&#45;&gt;normaliz</title>
<path fill="none" stroke="black" d="M1208.23,-363.82C1186.3,-354.29 1157.29,-340.25 1134,-324 1114.92,-310.69 1117.18,-297.62 1096,-288 941.13,-217.67 882.43,-281.93 715,-252 710.73,-251.24 706.33,-250.33 701.93,-249.34"/>
<polygon fill="black" stroke="black" points="703.07,-246.01 692.53,-247.08 701.44,-252.82 703.07,-246.01"/>
</g>
<!-- mpfr&#45;&gt;antic -->
<g id="edge48" class="edge">
<title>mpfr&#45;&gt;antic</title>
<path fill="none" stroke="black" d="M1222.78,-360.91C1194.99,-336.51 1144.16,-292.5 1134,-288 1076.32,-262.43 894.08,-245.36 807.09,-238.45"/>
<polygon fill="black" stroke="black" points="807.48,-234.97 797.23,-237.68 806.93,-241.95 807.48,-234.97"/>
</g>
<!-- mpfr&#45;&gt;mpc -->
<g id="edge49" class="edge">
<title>mpfr&#45;&gt;mpc</title>
<path fill="none" stroke="black" d="M1246.91,-396.28C1247.67,-403.6 1247.91,-412.34 1247.64,-420.57"/>
<polygon fill="black" stroke="black" points="1244.15,-420.33 1246.98,-430.54 1251.14,-420.8 1244.15,-420.33"/>
</g>
<!-- mpfr&#45;&gt;python&#45;igraph -->
<g id="edge50" class="edge">
<title>mpfr&#45;&gt;python&#45;igraph</title>
<path fill="none" stroke="black" d="M1197.22,-368.49C1137.69,-356.91 1030.29,-336.03 957.34,-321.84"/>
<polygon fill="black" stroke="black" points="958.36,-318.48 947.88,-320 957.02,-325.35 958.36,-318.48"/>
</g>
<!-- mpfr&#45;&gt;gudhi -->
<g id="edge51" class="edge">
<title>mpfr&#45;&gt;gudhi</title>
<path fill="none" stroke="black" d="M1262.97,-361.46C1276.84,-351.66 1294.94,-338.86 1310.11,-328.14"/>
<polygon fill="black" stroke="black" points="1311.73,-331.28 1317.87,-322.65 1307.69,-325.56 1311.73,-331.28"/>
</g>
<!-- mpfr&#45;&gt;wildmeshing -->
<g id="edge52" class="edge">
<title>mpfr&#45;&gt;wildmeshing</title>
<path fill="none" stroke="black" d="M1278.79,-365.6C1316.23,-354.3 1374.03,-336.86 1416.84,-323.94"/>
<polygon fill="black" stroke="black" points="1417.65,-327.36 1426.21,-321.12 1415.62,-320.66 1417.65,-327.36"/>
</g>
<!-- mpfr&#45;&gt;ifcopenshell -->
<g id="edge53" class="edge">
<title>mpfr&#45;&gt;ifcopenshell</title>
<path fill="none" stroke="black" d="M1286.9,-369.94C1348.49,-360.32 1461.23,-342.2 1557,-324 1562.3,-322.99 1567.79,-321.91 1573.3,-320.8"/>
<polygon fill="black" stroke="black" points="1573.99,-324.23 1583.08,-318.79 1572.58,-317.37 1573.99,-324.23"/>
</g>
<!-- mpfr&#45;&gt;gnuradio -->
<g id="edge54" class="edge">
<title>mpfr&#45;&gt;gnuradio</title>
<path fill="none" stroke="black" d="M1290.68,-373.85C1377.65,-367.81 1562.89,-352.58 1717,-324 1721.33,-323.2 1725.79,-322.26 1730.26,-321.25"/>
<polygon fill="black" stroke="black" points="1730.91,-324.69 1739.82,-318.96 1729.28,-317.89 1730.91,-324.69"/>
</g>
<!-- mpfr&#45;&gt;scikit&#45;geometry -->
<g id="edge55" class="edge">
<title>mpfr&#45;&gt;scikit&#45;geometry</title>
<path fill="none" stroke="black" d="M1290.64,-374.08C1394.3,-367.68 1641.21,-350.8 1847,-324 1854.42,-323.03 1862.14,-321.91 1869.84,-320.7"/>
<polygon fill="black" stroke="black" points="1870.26,-324.18 1879.57,-319.13 1869.15,-317.27 1870.26,-324.18"/>
</g>
<!-- mpfr&#45;&gt;pygalmesh -->
<g id="edge56" class="edge">
<title>mpfr&#45;&gt;pygalmesh</title>
<path fill="none" stroke="black" d="M1291.96,-376.4C1419.28,-374.3 1761.3,-364.97 2043,-324 2048.56,-323.19 2054.31,-322.19 2060.05,-321.08"/>
<polygon fill="black" stroke="black" points="2060.42,-324.58 2069.52,-319.14 2059.02,-317.72 2060.42,-324.58"/>
</g>
<!-- mpfr&#45;&gt;compas_cgal -->
<g id="edge57" class="edge">
<title>mpfr&#45;&gt;compas_cgal</title>
<path fill="none" stroke="black" d="M1292.01,-376.74C1434.77,-375.44 1850.24,-367.87 2192,-324 2198.43,-323.17 2205.1,-322.14 2211.75,-320.99"/>
<polygon fill="black" stroke="black" points="2212.17,-324.47 2221.38,-319.23 2210.91,-317.58 2212.17,-324.47"/>
</g>
<!-- mpfr&#45;&gt;imp -->
<g id="edge59" class="edge">
<title>mpfr&#45;&gt;imp</title>
<path fill="none" stroke="black" d="M1291.96,-376.97C1482.39,-376.47 2151.81,-371.34 2359,-324 2361.15,-323.51 2363.33,-322.91 2365.51,-322.23"/>
<polygon fill="black" stroke="black" points="2366.58,-325.56 2374.78,-318.84 2364.18,-318.99 2366.58,-325.56"/>
</g>
<!-- mpfr&#45;&gt;gmpxxll -->
<g id="edge60" class="edge">
<title>mpfr&#45;&gt;gmpxxll</title>
<path fill="none" stroke="black" d="M1291.95,-376.32C1490.45,-373.41 2212.11,-360.49 2438,-324 2442.03,-323.35 2446.18,-322.52 2450.32,-321.58"/>
<polygon fill="black" stroke="black" points="2450.85,-325.06 2459.71,-319.25 2449.16,-318.26 2450.85,-325.06"/>
</g>
<!-- mpfr&#45;&gt;spam -->
<g id="edge61" class="edge">
<title>mpfr&#45;&gt;spam</title>
<path fill="none" stroke="black" d="M1292.04,-377.03C1503.21,-376.83 2309.03,-372.82 2558,-324 2560.66,-323.48 2563.37,-322.83 2566.07,-322.1"/>
<polygon fill="black" stroke="black" points="2567.11,-325.44 2575.62,-319.13 2565.03,-318.76 2567.11,-325.44"/>
</g>
<!-- mpfr&#45;&gt;pycolmap -->
<g id="edge62" class="edge">
<title>mpfr&#45;&gt;pycolmap</title>
<path fill="none" stroke="black" d="M1291.8,-376.5C1511.56,-374.14 2381.39,-362.48 2652,-324 2656.88,-323.31 2661.91,-322.41 2666.93,-321.39"/>
<polygon fill="black" stroke="black" points="2667.34,-324.88 2676.35,-319.31 2665.83,-318.04 2667.34,-324.88"/>
</g>
<!-- mpfr&#45;&gt;pygplates -->
<g id="edge63" class="edge">
<title>mpfr&#45;&gt;pygplates</title>
<path fill="none" stroke="black" d="M1291.93,-376.67C1524.75,-374.96 2489.21,-365.47 2788,-324 2792.95,-323.31 2798.05,-322.42 2803.14,-321.4"/>
<polygon fill="black" stroke="black" points="2803.69,-324.86 2812.72,-319.32 2802.21,-318.02 2803.69,-324.86"/>
</g>
</g>
</svg>
