<?xml version="1.0" encoding="UTF-8" standalone="no"?>
<!DOCTYPE svg PUBLIC "-//W3C//DTD SVG 1.1//EN"
 "http://www.w3.org/Graphics/SVG/1.1/DTD/svg11.dtd">
<!-- Generated by graphviz version 11.0.0 (20240519.1550)
 -->
<!-- Pages: 1 -->
<svg width="2957pt" height="476pt"
 viewBox="0.00 0.00 2957.15 476.00" xmlns="http://www.w3.org/2000/svg" xmlns:xlink="http://www.w3.org/1999/xlink">
<g id="graph0" class="graph" transform="scale(1 1) rotate(0) translate(4 472)">
<polygon fill="white" stroke="none" points="-4,4 -4,-472 2953.15,-472 2953.15,4 -4,4"/>
<!-- arb -->
<g id="node1" class="node">
<title>arb</title>
<g id="a_node1"><a xlink:href="https://github.com/conda-forge/arb-feedstock/pull/36" xlink:title="arb ❎">
<ellipse fill="#31688e" stroke="black" cx="565" cy="-234" rx="43.32" ry="18"/>
<text text-anchor="middle" x="565" y="-229.32" font-family="Times,serif" font-size="14.00" fill="white">arb ❎</text>
</a>
</g>
</g>
<!-- mppp -->
<g id="node2" class="node">
<title>mppp</title>
<g id="a_node2"><a xlink:href="https://github.com/conda-forge/mppp-feedstock" xlink:title="mppp">
<ellipse fill="#ff8c00" stroke="black" cx="565" cy="-162" rx="39.63" ry="18"/>
<text text-anchor="middle" x="565" y="-157.32" font-family="Times,serif" font-size="14.00">mppp</text>
</a>
</g>
</g>
<!-- arb&#45;&gt;mppp -->
<g id="edge1" class="edge">
<title>arb&#45;&gt;mppp</title>
<path fill="none" stroke="black" d="M565,-215.7C565,-208.41 565,-199.73 565,-191.54"/>
<polygon fill="black" stroke="black" points="568.5,-191.62 565,-181.62 561.5,-191.62 568.5,-191.62"/>
</g>
<!-- heyoka.py -->
<g id="node3" class="node">
<title>heyoka.py</title>
<g id="a_node3"><a xlink:href="https://github.com/conda-forge/heyoka.py-feedstock" xlink:title="heyoka py">
<ellipse fill="#35b779" stroke="black" cx="491" cy="-18" rx="61.73" ry="18"/>
<text text-anchor="middle" x="491" y="-13.32" font-family="Times,serif" font-size="14.00">heyoka py</text>
</a>
</g>
</g>
<!-- mppp&#45;&gt;heyoka.py -->
<g id="edge2" class="edge">
<title>mppp&#45;&gt;heyoka.py</title>
<path fill="none" stroke="black" d="M544.5,-146.29C532.64,-136.71 518.44,-123.19 510,-108 499.73,-89.51 495,-66.01 492.83,-47.81"/>
<polygon fill="black" stroke="black" points="496.33,-47.56 491.87,-37.95 489.36,-48.25 496.33,-47.56"/>
</g>
<!-- heyoka -->
<g id="node4" class="node">
<title>heyoka</title>
<g id="a_node4"><a xlink:href="https://github.com/conda-forge/heyoka-feedstock" xlink:title="heyoka">
<ellipse fill="#35b779" stroke="black" cx="565" cy="-90" rx="46.47" ry="18"/>
<text text-anchor="middle" x="565" y="-85.33" font-family="Times,serif" font-size="14.00">heyoka</text>
</a>
</g>
</g>
<!-- mppp&#45;&gt;heyoka -->
<g id="edge3" class="edge">
<title>mppp&#45;&gt;heyoka</title>
<path fill="none" stroke="black" d="M565,-143.7C565,-136.41 565,-127.73 565,-119.54"/>
<polygon fill="black" stroke="black" points="568.5,-119.62 565,-109.62 561.5,-119.62 568.5,-119.62"/>
</g>
<!-- heyoka&#45;&gt;heyoka.py -->
<g id="edge64" class="edge">
<title>heyoka&#45;&gt;heyoka.py</title>
<path fill="none" stroke="black" d="M548.21,-73.12C538.95,-64.36 527.25,-53.29 516.85,-43.45"/>
<polygon fill="black" stroke="black" points="519.27,-40.92 509.6,-36.59 514.46,-46.01 519.27,-40.92"/>
</g>
<!-- cgal -->
<g id="node5" class="node">
<title>cgal</title>
<g id="a_node5"><a xlink:href="https://github.com/conda-forge/cgal-feedstock/pull/94" xlink:title="cgal ❎">
<ellipse fill="#31688e" stroke="black" cx="629" cy="-306" rx="47" ry="18"/>
<text text-anchor="middle" x="629" y="-301.32" font-family="Times,serif" font-size="14.00" fill="white">cgal ❎</text>
</a>
</g>
</g>
<!-- gmpy2 -->
<g id="node6" class="node">
<title>gmpy2</title>
<g id="a_node6"><a xlink:href="https://github.com/conda-forge/gmpy2-feedstock/pull/41" xlink:title="gmpy2 ❎">
<ellipse fill="#31688e" stroke="black" cx="207" cy="-306" rx="60.68" ry="18"/>
<text text-anchor="middle" x="207" y="-301.32" font-family="Times,serif" font-size="14.00" fill="white">gmpy2 ❎</text>
</a>
</g>
</g>
<!-- gmpy2&#45;&gt;heyoka.py -->
<g id="edge5" class="edge">
<title>gmpy2&#45;&gt;heyoka.py</title>
<path fill="none" stroke="black" d="M158.6,-294.86C135.13,-287.25 109.04,-274.17 95,-252 86.44,-238.48 86.57,-229.6 95,-216 167.88,-98.35 334.42,-48.71 426.62,-29.64"/>
<polygon fill="black" stroke="black" points="427.15,-33.1 436.27,-27.7 425.78,-26.24 427.15,-33.1"/>
</g>
<!-- python&#45;symengine -->
<g id="node7" class="node">
<title>python&#45;symengine</title>
<g id="a_node7"><a xlink:href="https://github.com/conda-forge/python-symengine-feedstock" xlink:title="python symengine">
<ellipse fill="#35b779" stroke="black" cx="207" cy="-234" rx="103.29" ry="18"/>
<text text-anchor="middle" x="207" y="-229.32" font-family="Times,serif" font-size="14.00">python symengine</text>
</a>
</g>
</g>
<!-- gmpy2&#45;&gt;python&#45;symengine -->
<g id="edge4" class="edge">
<title>gmpy2&#45;&gt;python&#45;symengine</title>
<path fill="none" stroke="black" d="M207,-287.7C207,-280.41 207,-271.73 207,-263.54"/>
<polygon fill="black" stroke="black" points="210.5,-263.62 207,-253.62 203.5,-263.62 210.5,-263.62"/>
</g>
<!-- igraph -->
<g id="node8" class="node">
<title>igraph</title>
<g id="a_node8"><a xlink:href="https://github.com/conda-forge/igraph-feedstock/pull/73" xlink:title="igraph ❎">
<ellipse fill="#31688e" stroke="black" cx="753" cy="-306" rx="59.1" ry="18"/>
<text text-anchor="middle" x="753" y="-301.32" font-family="Times,serif" font-size="14.00" fill="white">igraph ❎</text>
</a>
</g>
</g>
<!-- libflint -->
<g id="node9" class="node">
<title>libflint</title>
<g id="a_node9"><a xlink:href="https://github.com/conda-forge/libflint-feedstock" xlink:title="libflint">
<ellipse fill="#ff8c00" stroke="black" cx="368" cy="-306" rx="43.84" ry="18"/>
<text text-anchor="middle" x="368" y="-301.32" font-family="Times,serif" font-size="14.00">libflint</text>
</a>
</g>
</g>
<!-- libflint&#45;&gt;arb -->
<g id="edge6" class="edge">
<title>libflint&#45;&gt;arb</title>
<path fill="none" stroke="black" d="M400.53,-293.44C433.71,-281.65 485.37,-263.3 521.93,-250.31"/>
<polygon fill="black" stroke="black" points="523.07,-253.61 531.32,-246.97 520.73,-247.02 523.07,-253.61"/>
</g>
<!-- libflint&#45;&gt;mppp -->
<g id="edge7" class="edge">
<title>libflint&#45;&gt;mppp</title>
<path fill="none" stroke="black" d="M359.3,-288C350.7,-268.53 340.95,-236.65 357,-216 376.27,-191.21 460.3,-176.09 515.48,-168.65"/>
<polygon fill="black" stroke="black" points="515.82,-172.14 525.28,-167.38 514.91,-165.2 515.82,-172.14"/>
</g>
<!-- libflint&#45;&gt;python&#45;symengine -->
<g id="edge8" class="edge">
<title>libflint&#45;&gt;python&#45;symengine</title>
<path fill="none" stroke="black" d="M338.84,-292.32C315.4,-282.13 282,-267.61 254.68,-255.73"/>
<polygon fill="black" stroke="black" points="256.11,-252.54 245.55,-251.76 253.32,-258.96 256.11,-252.54"/>
</g>
<!-- python&#45;flint -->
<g id="node10" class="node">
<title>python&#45;flint</title>
<g id="a_node10"><a xlink:href="https://github.com/conda-forge/python-flint-feedstock" xlink:title="python flint">
<ellipse fill="#35b779" stroke="black" cx="435" cy="-234" rx="69.1" ry="18"/>
<text text-anchor="middle" x="435" y="-229.32" font-family="Times,serif" font-size="14.00">python flint</text>
</a>
</g>
</g>
<!-- libflint&#45;&gt;python&#45;flint -->
<g id="edge9" class="edge">
<title>libflint&#45;&gt;python&#45;flint</title>
<path fill="none" stroke="black" d="M383.54,-288.76C391.79,-280.14 402.11,-269.36 411.33,-259.73"/>
<polygon fill="black" stroke="black" points="413.65,-262.37 418.03,-252.73 408.59,-257.53 413.65,-262.37"/>
</g>
<!-- normaliz -->
<g id="node11" class="node">
<title>normaliz</title>
<g id="a_node11"><a xlink:href="https://github.com/conda-forge/normaliz-feedstock" xlink:title="normaliz">
<ellipse fill="#35b779" stroke="black" cx="681" cy="-234" rx="54.89" ry="18"/>
<text text-anchor="middle" x="681" y="-229.32" font-family="Times,serif" font-size="14.00">normaliz</text>
</a>
</g>
</g>
<!-- libflint&#45;&gt;normaliz -->
<g id="edge10" class="edge">
<title>libflint&#45;&gt;normaliz</title>
<path fill="none" stroke="black" d="M406.95,-297.34C456.08,-287.53 543.06,-269.68 617,-252 620.81,-251.09 624.73,-250.12 628.67,-249.13"/>
<polygon fill="black" stroke="black" points="629.48,-252.53 638.3,-246.65 627.74,-245.75 629.48,-252.53"/>
</g>
<!-- antic -->
<g id="node12" class="node">
<title>antic</title>
<g id="a_node12"><a xlink:href="https://github.com/conda-forge/antic-feedstock" xlink:title="antic">
<ellipse fill="#35b779" stroke="black" cx="790" cy="-234" rx="35.95" ry="18"/>
<text text-anchor="middle" x="790" y="-229.32" font-family="Times,serif" font-size="14.00">antic</text>
</a>
</g>
</g>
<!-- libflint&#45;&gt;antic -->
<g id="edge11" class="edge">
<title>libflint&#45;&gt;antic</title>
<path fill="none" stroke="black" d="M409.63,-299.68C500.89,-287.93 712.98,-260.19 745,-252 747.43,-251.38 749.91,-250.67 752.4,-249.9"/>
<polygon fill="black" stroke="black" points="753.41,-253.25 761.75,-246.72 751.16,-246.62 753.41,-253.25"/>
</g>
<!-- mpc -->
<g id="node13" class="node">
<title>mpc</title>
<g id="a_node13"><a xlink:href="https://github.com/conda-forge/mpc-feedstock" xlink:title="mpc">
<ellipse fill="#ff8c00" stroke="black" cx="1273" cy="-450" rx="32.27" ry="18"/>
<text text-anchor="middle" x="1273" y="-445.32" font-family="Times,serif" font-size="14.00">mpc</text>
</a>
</g>
</g>
<!-- mpc&#45;&gt;arb -->
<g id="edge12" class="edge">
<title>mpc&#45;&gt;arb</title>
<path fill="none" stroke="black" d="M1240.41,-449.31C1100.2,-450.31 553.05,-450.68 502,-396 469.24,-360.91 481.74,-331.52 502,-288 508.08,-274.94 519.14,-263.95 530.31,-255.42"/>
<polygon fill="black" stroke="black" points="532.23,-258.35 538.38,-249.72 528.19,-252.63 532.23,-258.35"/>
</g>
<!-- mpc&#45;&gt;mppp -->
<g id="edge13" class="edge">
<title>mpc&#45;&gt;mppp</title>
<path fill="none" stroke="black" d="M1240.52,-448.81C1113.41,-447.28 652.72,-434.12 573,-324 499.15,-221.98 915.02,-313.26 835,-216 807.79,-182.94 686.29,-170.19 615.89,-165.52"/>
<polygon fill="black" stroke="black" points="616.35,-162.04 606.15,-164.91 615.91,-169.03 616.35,-162.04"/>
</g>
<!-- mpc&#45;&gt;heyoka.py -->
<g id="edge17" class="edge">
<title>mpc&#45;&gt;heyoka.py</title>
<path fill="none" stroke="black" d="M1240.53,-448.41C1052.71,-444.91 111.89,-425.9 59,-396 17.69,-372.65 0,-354.46 0,-307 0,-307 0,-307 0,-161 0,-74.47 284.94,-37.37 420.69,-24.6"/>
<polygon fill="black" stroke="black" points="420.63,-28.13 430.27,-23.72 419.99,-21.15 420.63,-28.13"/>
</g>
<!-- mpc&#45;&gt;heyoka -->
<g id="edge32" class="edge">
<title>mpc&#45;&gt;heyoka</title>
<path fill="none" stroke="black" d="M1240.52,-448.57C1068.03,-446.15 263.19,-432.96 159,-396 96.08,-373.68 38,-373.76 38,-307 38,-307 38,-307 38,-233 38,-136.55 371.23,-103.7 507.73,-94.29"/>
<polygon fill="black" stroke="black" points="507.9,-97.79 517.64,-93.63 507.43,-90.81 507.9,-97.79"/>
</g>
<!-- mpc&#45;&gt;cgal -->
<g id="edge14" class="edge">
<title>mpc&#45;&gt;cgal</title>
<path fill="none" stroke="black" d="M1241.44,-445.73C1179.88,-439.01 1039.69,-422.07 924,-396 815.78,-371.61 791.19,-356.11 685,-324 682.09,-323.12 679.1,-322.21 676.08,-321.3"/>
<polygon fill="black" stroke="black" points="677.18,-317.98 666.59,-318.42 675.15,-324.68 677.18,-317.98"/>
</g>
<!-- mpc&#45;&gt;gmpy2 -->
<g id="edge15" class="edge">
<title>mpc&#45;&gt;gmpy2</title>
<path fill="none" stroke="black" d="M1240.57,-448.79C1079.46,-447.53 369.43,-439.53 282,-396 255.11,-382.61 234.16,-354.76 221.31,-333.75"/>
<polygon fill="black" stroke="black" points="224.5,-332.27 216.43,-325.39 218.45,-335.79 224.5,-332.27"/>
</g>
<!-- mpc&#45;&gt;python&#45;symengine -->
<g id="edge16" class="edge">
<title>mpc&#45;&gt;python&#45;symengine</title>
<path fill="none" stroke="black" d="M1240.42,-448.42C1075.26,-445.32 334.53,-429.63 238,-396 185.94,-377.86 162.25,-373.01 137,-324 129.67,-309.78 129.88,-302.33 137,-288 143.04,-275.84 153.35,-265.73 164.23,-257.71"/>
<polygon fill="black" stroke="black" points="165.86,-260.83 172.17,-252.32 161.93,-255.04 165.86,-260.83"/>
</g>
<!-- mpc&#45;&gt;igraph -->
<g id="edge18" class="edge">
<title>mpc&#45;&gt;igraph</title>
<path fill="none" stroke="black" d="M1243.42,-442.49C1200.75,-432.98 1119.5,-414.39 1051,-396 963.55,-372.52 862.8,-341.61 803.7,-323.08"/>
<polygon fill="black" stroke="black" points="804.84,-319.77 794.25,-320.11 802.74,-326.45 804.84,-319.77"/>
</g>
<!-- mpc&#45;&gt;libflint -->
<g id="edge19" class="edge">
<title>mpc&#45;&gt;libflint</title>
<path fill="none" stroke="black" d="M1240.44,-448.68C1093.63,-446.99 497.36,-437.6 426,-396 402.77,-382.46 387.19,-355.47 378.08,-334.75"/>
<polygon fill="black" stroke="black" points="381.4,-333.62 374.36,-325.7 374.92,-336.28 381.4,-333.62"/>
</g>
<!-- mpc&#45;&gt;python&#45;flint -->
<g id="edge20" class="edge">
<title>mpc&#45;&gt;python&#45;flint</title>
<path fill="none" stroke="black" d="M1240.48,-448.39C1090.34,-445.39 468.07,-430.91 389,-396 335.77,-372.5 283.24,-336.75 315,-288 327.33,-269.07 348.13,-256.85 368.98,-248.99"/>
<polygon fill="black" stroke="black" points="370.08,-252.31 378.41,-245.75 367.81,-245.69 370.08,-252.31"/>
</g>
<!-- mpc&#45;&gt;normaliz -->
<g id="edge21" class="edge">
<title>mpc&#45;&gt;normaliz</title>
<path fill="none" stroke="black" d="M1240.5,-449.27C1101.9,-450.08 565.1,-449.73 515,-396 504.66,-384.91 496.88,-313.85 516,-288 519.57,-283.17 582.9,-263.74 630.03,-249.81"/>
<polygon fill="black" stroke="black" points="630.96,-253.18 639.57,-247 628.99,-246.47 630.96,-253.18"/>
</g>
<!-- mpc&#45;&gt;antic -->
<g id="edge22" class="edge">
<title>mpc&#45;&gt;antic</title>
<path fill="none" stroke="black" d="M1240.66,-449.19C1105.2,-449.63 588.29,-447.9 540,-396 507.31,-360.86 509.13,-324.76 540,-288 569.74,-252.58 700.39,-264.23 745,-252 747.42,-251.34 749.89,-250.59 752.37,-249.8"/>
<polygon fill="black" stroke="black" points="753.4,-253.15 761.71,-246.58 751.12,-246.53 753.4,-253.15"/>
</g>
<!-- mpfr -->
<g id="node14" class="node">
<title>mpfr</title>
<g id="a_node14"><a xlink:href="https://github.com/conda-forge/mpfr-feedstock/pull/46" xlink:title="mpfr ❎">
<ellipse fill="#31688e" stroke="black" cx="1273" cy="-378" rx="50.68" ry="18"/>
<text text-anchor="middle" x="1273" y="-373.32" font-family="Times,serif" font-size="14.00" fill="white">mpfr ❎</text>
</a>
</g>
</g>
<!-- mpc&#45;&gt;mpfr -->
<g id="edge23" class="edge">
<title>mpc&#45;&gt;mpfr</title>
<path fill="none" stroke="black" d="M1267.12,-432.05C1266.34,-424.68 1266.08,-415.84 1266.35,-407.51"/>
<polygon fill="black" stroke="black" points="1269.83,-407.99 1266.99,-397.79 1262.84,-407.54 1269.83,-407.99"/>
</g>
<!-- python&#45;igraph -->
<g id="node15" class="node">
<title>python&#45;igraph</title>
<g id="a_node15"><a xlink:href="https://github.com/conda-forge/python-igraph-feedstock/pull/90" xlink:title="python igraph ✓">
<ellipse fill="#31688e" stroke="black" cx="920" cy="-306" rx="89.61" ry="18"/>
<text text-anchor="middle" x="920" y="-301.32" font-family="Times,serif" font-size="14.00" fill="white">python igraph ✓</text>
</a>
</g>
</g>
<!-- mpc&#45;&gt;python&#45;igraph -->
<g id="edge24" class="edge">
<title>mpc&#45;&gt;python&#45;igraph</title>
<path fill="none" stroke="black" d="M1247.33,-438.67C1188.91,-415.18 1045.25,-357.38 969.14,-326.77"/>
<polygon fill="black" stroke="black" points="970.86,-323.69 960.27,-323.2 968.25,-330.18 970.86,-323.69"/>
</g>
<!-- gudhi -->
<g id="node16" class="node">
<title>gudhi</title>
<g id="a_node16"><a xlink:href="https://github.com/conda-forge/gudhi-feedstock" xlink:title="gudhi">
<ellipse fill="#35b779" stroke="black" cx="1372" cy="-306" rx="39.63" ry="18"/>
<text text-anchor="middle" x="1372" y="-301.32" font-family="Times,serif" font-size="14.00">gudhi</text>
</a>
</g>
</g>
<!-- mpc&#45;&gt;gudhi -->
<g id="edge25" class="edge">
<title>mpc&#45;&gt;gudhi</title>
<path fill="none" stroke="black" d="M1292.57,-435.26C1305.39,-425.48 1321.78,-411.38 1333,-396 1346.52,-377.46 1356.68,-353.51 1363.24,-335.12"/>
<polygon fill="black" stroke="black" points="1366.55,-336.24 1366.45,-325.65 1359.92,-333.99 1366.55,-336.24"/>
</g>
<!-- wildmeshing -->
<g id="node17" class="node">
<title>wildmeshing</title>
<g id="a_node17"><a xlink:href="https://github.com/conda-forge/wildmeshing-feedstock" xlink:title="wildmeshing">
<ellipse fill="#35b779" stroke="black" cx="1505" cy="-306" rx="74.88" ry="18"/>
<text text-anchor="middle" x="1505" y="-301.32" font-family="Times,serif" font-size="14.00">wildmeshing</text>
</a>
</g>
</g>
<!-- mpc&#45;&gt;wildmeshing -->
<g id="edge26" class="edge">
<title>mpc&#45;&gt;wildmeshing</title>
<path fill="none" stroke="black" d="M1294,-436.15C1333.65,-411.88 1419.97,-359.05 1469.03,-329.02"/>
<polygon fill="black" stroke="black" points="1470.62,-332.15 1477.32,-323.94 1466.96,-326.18 1470.62,-332.15"/>
</g>
<!-- ifcopenshell -->
<g id="node18" class="node">
<title>ifcopenshell</title>
<g id="a_node18"><a xlink:href="https://github.com/conda-forge/ifcopenshell-feedstock" xlink:title="ifcopenshell">
<ellipse fill="#35b779" stroke="black" cx="1669" cy="-306" rx="71.2" ry="18"/>
<text text-anchor="middle" x="1669" y="-301.32" font-family="Times,serif" font-size="14.00">ifcopenshell</text>
</a>
</g>
</g>
<!-- mpc&#45;&gt;ifcopenshell -->
<g id="edge27" class="edge">
<title>mpc&#45;&gt;ifcopenshell</title>
<path fill="none" stroke="black" d="M1299.6,-439.46C1364.8,-416.08 1533.47,-355.6 1618.47,-325.12"/>
<polygon fill="black" stroke="black" points="1619.49,-328.47 1627.72,-321.8 1617.13,-321.88 1619.49,-328.47"/>
</g>
<!-- gnuradio -->
<g id="node19" class="node">
<title>gnuradio</title>
<g id="a_node19"><a xlink:href="https://github.com/conda-forge/gnuradio-feedstock" xlink:title="gnuradio">
<ellipse fill="#35b779" stroke="black" cx="1814" cy="-306" rx="55.94" ry="18"/>
<text text-anchor="middle" x="1814" y="-301.32" font-family="Times,serif" font-size="14.00">gnuradio</text>
</a>
</g>
</g>
<!-- mpc&#45;&gt;gnuradio -->
<g id="edge28" class="edge">
<title>mpc&#45;&gt;gnuradio</title>
<path fill="none" stroke="black" d="M1302.19,-441.89C1343.11,-431.88 1419.83,-412.96 1485,-396 1582.98,-370.5 1696.96,-339.33 1761.78,-321.46"/>
<polygon fill="black" stroke="black" points="1762.35,-324.93 1771.06,-318.9 1760.49,-318.18 1762.35,-324.93"/>
</g>
<!-- scikit&#45;geometry -->
<g id="node20" class="node">
<title>scikit&#45;geometry</title>
<g id="a_node20"><a xlink:href="https://github.com/conda-forge/scikit-geometry-feedstock" xlink:title="scikit geometry">
<ellipse fill="#35b779" stroke="black" cx="1977" cy="-306" rx="89.09" ry="18"/>
<text text-anchor="middle" x="1977" y="-301.32" font-family="Times,serif" font-size="14.00">scikit geometry</text>
</a>
</g>
</g>
<!-- mpc&#45;&gt;scikit&#45;geometry -->
<g id="edge29" class="edge">
<title>mpc&#45;&gt;scikit&#45;geometry</title>
<path fill="none" stroke="black" d="M1303.54,-443.74C1356.47,-434.55 1468.63,-414.76 1563,-396 1684.72,-371.8 1825.93,-340.82 1908,-322.52"/>
<polygon fill="black" stroke="black" points="1908.71,-325.95 1917.7,-320.35 1907.18,-319.11 1908.71,-325.95"/>
</g>
<!-- pygalmesh -->
<g id="node21" class="node">
<title>pygalmesh</title>
<g id="a_node21"><a xlink:href="https://github.com/conda-forge/pygalmesh-feedstock" xlink:title="pygalmesh">
<ellipse fill="#35b779" stroke="black" cx="2150" cy="-306" rx="65.41" ry="18"/>
<text text-anchor="middle" x="2150" y="-301.32" font-family="Times,serif" font-size="14.00">pygalmesh</text>
</a>
</g>
</g>
<!-- mpc&#45;&gt;pygalmesh -->
<g id="edge30" class="edge">
<title>mpc&#45;&gt;pygalmesh</title>
<path fill="none" stroke="black" d="M1304.4,-445.14C1370.74,-436.91 1529.98,-416.65 1663,-396 1846.69,-367.48 1892.74,-360.56 2075,-324 2079.92,-323.01 2085.01,-321.95 2090.12,-320.85"/>
<polygon fill="black" stroke="black" points="2090.76,-324.3 2099.78,-318.74 2089.26,-317.46 2090.76,-324.3"/>
</g>
<!-- compas_cgal -->
<g id="node22" class="node">
<title>compas_cgal</title>
<g id="a_node22"><a xlink:href="https://github.com/conda-forge/compas_cgal-feedstock" xlink:title="compas_cgal">
<ellipse fill="#35b779" stroke="black" cx="2308" cy="-306" rx="74.36" ry="18"/>
<text text-anchor="middle" x="2308" y="-301.32" font-family="Times,serif" font-size="14.00">compas_cgal</text>
</a>
</g>
</g>
<!-- mpc&#45;&gt;compas_cgal -->
<g id="edge31" class="edge">
<title>mpc&#45;&gt;compas_cgal</title>
<path fill="none" stroke="black" d="M1305.02,-446.39C1386.06,-439.64 1605.82,-420.39 1788,-396 1982.66,-369.93 2030.83,-359.48 2224,-324 2229.85,-322.92 2235.93,-321.77 2242.01,-320.59"/>
<polygon fill="black" stroke="black" points="2242.31,-324.1 2251.44,-318.73 2240.96,-317.23 2242.31,-324.1"/>
</g>
<!-- imp -->
<g id="node23" class="node">
<title>imp</title>
<g id="a_node23"><a xlink:href="https://github.com/conda-forge/imp-feedstock" xlink:title="imp">
<ellipse fill="#35b779" stroke="black" cx="2431" cy="-306" rx="30.16" ry="18"/>
<text text-anchor="middle" x="2431" y="-301.32" font-family="Times,serif" font-size="14.00">imp</text>
</a>
</g>
</g>
<!-- mpc&#45;&gt;imp -->
<g id="edge33" class="edge">
<title>mpc&#45;&gt;imp</title>
<path fill="none" stroke="black" d="M1305.29,-447.14C1399.75,-441.52 1683.65,-423.43 1918,-396 2129.2,-371.28 2186.43,-382.04 2391,-324 2393.12,-323.4 2395.28,-322.71 2397.44,-321.97"/>
<polygon fill="black" stroke="black" points="2398.59,-325.28 2406.68,-318.44 2396.09,-318.74 2398.59,-325.28"/>
</g>
<!-- gmpxxll -->
<g id="node24" class="node">
<title>gmpxxll</title>
<g id="a_node24"><a xlink:href="https://github.com/conda-forge/gmpxxll-feedstock" xlink:title="gmpxxll">
<ellipse fill="#35b779" stroke="black" cx="2530" cy="-306" rx="51.21" ry="18"/>
<text text-anchor="middle" x="2530" y="-301.32" font-family="Times,serif" font-size="14.00">gmpxxll</text>
</a>
</g>
</g>
<!-- mpc&#45;&gt;gmpxxll -->
<g id="edge34" class="edge">
<title>mpc&#45;&gt;gmpxxll</title>
<path fill="none" stroke="black" d="M1305.52,-448.34C1416.12,-445.78 1787.75,-434.67 2092,-396 2261.66,-374.44 2303.57,-363.35 2470,-324 2473.53,-323.17 2477.16,-322.26 2480.81,-321.31"/>
<polygon fill="black" stroke="black" points="2481.51,-324.75 2490.26,-318.78 2479.69,-317.99 2481.51,-324.75"/>
</g>
<!-- spam -->
<g id="node25" class="node">
<title>spam</title>
<g id="a_node25"><a xlink:href="https://github.com/conda-forge/spam-feedstock" xlink:title="spam">
<ellipse fill="#35b779" stroke="black" cx="2637" cy="-306" rx="38.06" ry="18"/>
<text text-anchor="middle" x="2637" y="-301.32" font-family="Times,serif" font-size="14.00">spam</text>
</a>
</g>
</g>
<!-- mpc&#45;&gt;spam -->
<g id="edge35" class="edge">
<title>mpc&#45;&gt;spam</title>
<path fill="none" stroke="black" d="M1305.3,-448.75C1425.86,-447.49 1860.84,-439.97 2216,-396 2383.99,-375.2 2426.8,-368.93 2590,-324 2592.41,-323.34 2594.88,-322.61 2597.36,-321.83"/>
<polygon fill="black" stroke="black" points="2598.33,-325.2 2606.71,-318.72 2596.12,-318.56 2598.33,-325.2"/>
</g>
<!-- pycolmap -->
<g id="node26" class="node">
<title>pycolmap</title>
<g id="a_node26"><a xlink:href="https://github.com/conda-forge/pycolmap-feedstock" xlink:title="pycolmap">
<ellipse fill="#35b779" stroke="black" cx="2752" cy="-306" rx="59.1" ry="18"/>
<text text-anchor="middle" x="2752" y="-301.32" font-family="Times,serif" font-size="14.00">pycolmap</text>
</a>
</g>
</g>
<!-- mpc&#45;&gt;pycolmap -->
<g id="edge36" class="edge">
<title>mpc&#45;&gt;pycolmap</title>
<path fill="none" stroke="black" d="M1305.56,-449.26C1436.38,-449.93 1936.28,-448.67 2343,-396 2472.13,-379.28 2620.88,-342.36 2698.51,-321.71"/>
<polygon fill="black" stroke="black" points="2699.22,-325.15 2707.97,-319.18 2697.41,-318.38 2699.22,-325.15"/>
</g>
<!-- pygplates -->
<g id="node27" class="node">
<title>pygplates</title>
<g id="a_node27"><a xlink:href="https://github.com/conda-forge/pygplates-feedstock" xlink:title="pygplates">
<ellipse fill="#35b779" stroke="black" cx="2889" cy="-306" rx="60.15" ry="18"/>
<text text-anchor="middle" x="2889" y="-301.32" font-family="Times,serif" font-size="14.00">pygplates</text>
</a>
</g>
</g>
<!-- mpc&#45;&gt;pygplates -->
<g id="edge37" class="edge">
<title>mpc&#45;&gt;pygplates</title>
<path fill="none" stroke="black" d="M1305.5,-449.3C1444.16,-450.21 1999.85,-450.09 2452,-396 2590.77,-379.4 2751.11,-341.96 2833.61,-321.32"/>
<polygon fill="black" stroke="black" points="2834.41,-324.73 2843.26,-318.9 2832.71,-317.94 2834.41,-324.73"/>
</g>
<!-- mpfr&#45;&gt;arb -->
<g id="edge38" class="edge">
<title>mpfr&#45;&gt;arb</title>
<path fill="none" stroke="black" d="M1232.23,-366.93C1202.01,-358.35 1160.59,-344.18 1128,-324 1108.22,-311.75 1111.27,-297.43 1090,-288 993.63,-245.29 720.4,-272.53 617,-252 613.86,-251.38 610.64,-250.62 607.42,-249.78"/>
<polygon fill="black" stroke="black" points="608.61,-246.48 598.03,-247.08 606.67,-253.21 608.61,-246.48"/>
</g>
<!-- mpfr&#45;&gt;mppp -->
<g id="edge39" class="edge">
<title>mpfr&#45;&gt;mppp</title>
<path fill="none" stroke="black" d="M1264.22,-359.97C1252.76,-339.54 1230.73,-305.81 1202,-288 1102.74,-226.48 746.72,-182.64 614.71,-168.18"/>
<polygon fill="black" stroke="black" points="615.21,-164.71 604.89,-167.11 614.45,-171.67 615.21,-164.71"/>
</g>
<!-- mpfr&#45;&gt;heyoka.py -->
<g id="edge43" class="edge">
<title>mpfr&#45;&gt;heyoka.py</title>
<path fill="none" stroke="black" d="M1279.27,-359.78C1288.33,-333.32 1304,-280.92 1304,-235 1304,-235 1304,-235 1304,-161 1304,-86.02 760.41,-38.72 562.21,-23.96"/>
<polygon fill="black" stroke="black" points="562.52,-20.47 552.29,-23.23 562.01,-27.46 562.52,-20.47"/>
</g>
<!-- mpfr&#45;&gt;heyoka -->
<g id="edge58" class="edge">
<title>mpfr&#45;&gt;heyoka</title>
<path fill="none" stroke="black" d="M1269.81,-359.64C1265.31,-339.83 1255.28,-307.63 1235,-288 1061.2,-119.74 751.33,-94.09 623.07,-90.97"/>
<polygon fill="black" stroke="black" points="623.17,-87.47 613.11,-90.77 623.03,-94.47 623.17,-87.47"/>
</g>
<!-- mpfr&#45;&gt;cgal -->
<g id="edge40" class="edge">
<title>mpfr&#45;&gt;cgal</title>
<path fill="none" stroke="black" d="M1222.17,-375.91C1119.66,-372.96 881.18,-362.2 685,-324 681.46,-323.31 677.82,-322.49 674.19,-321.58"/>
<polygon fill="black" stroke="black" points="675.4,-318.28 664.83,-319.04 673.57,-325.03 675.4,-318.28"/>
</g>
<!-- mpfr&#45;&gt;gmpy2 -->
<g id="edge41" class="edge">
<title>mpfr&#45;&gt;gmpy2</title>
<path fill="none" stroke="black" d="M1222.22,-375.99C1079.14,-372.77 660.58,-360.66 315,-324 300.11,-322.42 284.14,-320.2 269.17,-317.88"/>
<polygon fill="black" stroke="black" points="269.87,-314.45 259.45,-316.34 268.78,-321.36 269.87,-314.45"/>
</g>
<!-- mpfr&#45;&gt;python&#45;symengine -->
<g id="edge42" class="edge">
<title>mpfr&#45;&gt;python&#45;symengine</title>
<path fill="none" stroke="black" d="M1223.81,-373.5C1176.86,-368.32 1105.55,-355.53 1052,-324 1033.3,-312.99 1038.62,-297.28 1019,-288 952.4,-256.52 430.41,-258.15 357,-252 338.75,-250.47 319.28,-248.51 300.62,-246.47"/>
<polygon fill="black" stroke="black" points="301.27,-243.02 290.94,-245.39 300.49,-249.97 301.27,-243.02"/>
</g>
<!-- mpfr&#45;&gt;igraph -->
<g id="edge44" class="edge">
<title>mpfr&#45;&gt;igraph</title>
<path fill="none" stroke="black" d="M1223.53,-373.29C1140.06,-366.56 966.14,-350.54 821,-324 816.42,-323.16 811.69,-322.2 806.96,-321.16"/>
<polygon fill="black" stroke="black" points="807.99,-317.8 797.46,-318.97 806.42,-324.62 807.99,-317.8"/>
</g>
<!-- mpfr&#45;&gt;libflint -->
<g id="edge45" class="edge">
<title>mpfr&#45;&gt;libflint</title>
<path fill="none" stroke="black" d="M1223.77,-373.39C1109.46,-365 817.2,-343.37 573,-324 521.86,-319.94 463.56,-315.09 422.24,-311.6"/>
<polygon fill="black" stroke="black" points="422.56,-308.12 412.3,-310.77 421.97,-315.09 422.56,-308.12"/>
</g>
<!-- mpfr&#45;&gt;python&#45;flint -->
<g id="edge46" class="edge">
<title>mpfr&#45;&gt;python&#45;flint</title>
<path fill="none" stroke="black" d="M1227,-369.95C1188.48,-362.62 1133.05,-348.66 1090,-324 1069.81,-312.44 1073.31,-297.33 1052,-288 942.03,-239.87 631.86,-268.83 513,-252 507.31,-251.19 501.42,-250.21 495.55,-249.11"/>
<polygon fill="black" stroke="black" points="496.29,-245.69 485.8,-247.19 494.94,-252.56 496.29,-245.69"/>
</g>
<!-- mpfr&#45;&gt;normaliz -->
<g id="edge47" class="edge">
<title>mpfr&#45;&gt;normaliz</title>
<path fill="none" stroke="black" d="M1240.23,-363.82C1218.3,-354.29 1189.29,-340.25 1166,-324 1146.92,-310.69 1149.18,-297.61 1128,-288 972.31,-217.34 913.31,-282.05 745,-252 740.73,-251.24 736.33,-250.33 731.93,-249.34"/>
<polygon fill="black" stroke="black" points="733.07,-246.01 722.53,-247.08 731.44,-252.82 733.07,-246.01"/>
</g>
<!-- mpfr&#45;&gt;antic -->
<g id="edge48" class="edge">
<title>mpfr&#45;&gt;antic</title>
<path fill="none" stroke="black" d="M1254.78,-360.91C1226.99,-336.51 1176.16,-292.5 1166,-288 1107.94,-262.29 924.34,-245.26 837.02,-238.41"/>
<polygon fill="black" stroke="black" points="837.36,-234.92 827.12,-237.64 836.82,-241.9 837.36,-234.92"/>
</g>
<!-- mpfr&#45;&gt;mpc -->
<g id="edge49" class="edge">
<title>mpfr&#45;&gt;mpc</title>
<path fill="none" stroke="black" d="M1278.91,-396.28C1279.67,-403.6 1279.91,-412.34 1279.64,-420.57"/>
<polygon fill="black" stroke="black" points="1276.15,-420.33 1278.98,-430.54 1283.14,-420.8 1276.15,-420.33"/>
</g>
<!-- mpfr&#45;&gt;python&#45;igraph -->
<g id="edge50" class="edge">
<title>mpfr&#45;&gt;python&#45;igraph</title>
<path fill="none" stroke="black" d="M1229.36,-368.35C1170.44,-356.66 1064.64,-335.68 993.37,-321.55"/>
<polygon fill="black" stroke="black" points="994.22,-318.15 983.73,-319.64 992.86,-325.02 994.22,-318.15"/>
</g>
<!-- mpfr&#45;&gt;gudhi -->
<g id="edge51" class="edge">
<title>mpfr&#45;&gt;gudhi</title>
<path fill="none" stroke="black" d="M1294.97,-361.46C1308.84,-351.66 1326.94,-338.86 1342.11,-328.14"/>
<polygon fill="black" stroke="black" points="1343.73,-331.28 1349.87,-322.65 1339.69,-325.56 1343.73,-331.28"/>
</g>
<!-- mpfr&#45;&gt;wildmeshing -->
<g id="edge52" class="edge">
<title>mpfr&#45;&gt;wildmeshing</title>
<path fill="none" stroke="black" d="M1310.79,-365.6C1348.23,-354.3 1406.03,-336.86 1448.84,-323.94"/>
<polygon fill="black" stroke="black" points="1449.65,-327.36 1458.21,-321.12 1447.62,-320.66 1449.65,-327.36"/>
</g>
<!-- mpfr&#45;&gt;ifcopenshell -->
<g id="edge53" class="edge">
<title>mpfr&#45;&gt;ifcopenshell</title>
<path fill="none" stroke="black" d="M1318.9,-369.94C1380.49,-360.32 1493.23,-342.2 1589,-324 1594.3,-322.99 1599.79,-321.91 1605.3,-320.8"/>
<polygon fill="black" stroke="black" points="1605.99,-324.23 1615.08,-318.79 1604.58,-317.37 1605.99,-324.23"/>
</g>
<!-- mpfr&#45;&gt;gnuradio -->
<g id="edge54" class="edge">
<title>mpfr&#45;&gt;gnuradio</title>
<path fill="none" stroke="black" d="M1322.68,-373.85C1409.65,-367.81 1594.89,-352.58 1749,-324 1753.33,-323.2 1757.79,-322.26 1762.26,-321.25"/>
<polygon fill="black" stroke="black" points="1762.91,-324.69 1771.82,-318.96 1761.28,-317.89 1762.91,-324.69"/>
</g>
<!-- mpfr&#45;&gt;scikit&#45;geometry -->
<g id="edge55" class="edge">
<title>mpfr&#45;&gt;scikit&#45;geometry</title>
<path fill="none" stroke="black" d="M1322.64,-374.08C1426.3,-367.68 1673.21,-350.8 1879,-324 1886.42,-323.03 1894.14,-321.91 1901.84,-320.7"/>
<polygon fill="black" stroke="black" points="1902.26,-324.18 1911.57,-319.13 1901.15,-317.27 1902.26,-324.18"/>
</g>
<!-- mpfr&#45;&gt;pygalmesh -->
<g id="edge56" class="edge">
<title>mpfr&#45;&gt;pygalmesh</title>
<path fill="none" stroke="black" d="M1323.96,-376.4C1451.28,-374.3 1793.3,-364.97 2075,-324 2080.56,-323.19 2086.31,-322.19 2092.05,-321.08"/>
<polygon fill="black" stroke="black" points="2092.42,-324.58 2101.52,-319.14 2091.02,-317.72 2092.42,-324.58"/>
</g>
<!-- mpfr&#45;&gt;compas_cgal -->
<g id="edge57" class="edge">
<title>mpfr&#45;&gt;compas_cgal</title>
<path fill="none" stroke="black" d="M1324.01,-376.74C1466.77,-375.44 1882.24,-367.87 2224,-324 2230.43,-323.17 2237.1,-322.14 2243.75,-320.99"/>
<polygon fill="black" stroke="black" points="2244.17,-324.47 2253.38,-319.23 2242.91,-317.58 2244.17,-324.47"/>
</g>
<!-- mpfr&#45;&gt;imp -->
<g id="edge59" class="edge">
<title>mpfr&#45;&gt;imp</title>
<path fill="none" stroke="black" d="M1323.96,-376.97C1514.39,-376.47 2183.81,-371.34 2391,-324 2393.15,-323.51 2395.33,-322.91 2397.51,-322.23"/>
<polygon fill="black" stroke="black" points="2398.58,-325.56 2406.78,-318.84 2396.18,-318.99 2398.58,-325.56"/>
</g>
<!-- mpfr&#45;&gt;gmpxxll -->
<g id="edge60" class="edge">
<title>mpfr&#45;&gt;gmpxxll</title>
<path fill="none" stroke="black" d="M1323.95,-376.32C1522.45,-373.41 2244.11,-360.49 2470,-324 2474.03,-323.35 2478.18,-322.52 2482.32,-321.58"/>
<polygon fill="black" stroke="black" points="2482.85,-325.06 2491.71,-319.25 2481.16,-318.26 2482.85,-325.06"/>
</g>
<!-- mpfr&#45;&gt;spam -->
<g id="edge61" class="edge">
<title>mpfr&#45;&gt;spam</title>
<path fill="none" stroke="black" d="M1324.04,-377.03C1535.21,-376.83 2341.03,-372.82 2590,-324 2592.66,-323.48 2595.37,-322.83 2598.07,-322.1"/>
<polygon fill="black" stroke="black" points="2599.11,-325.44 2607.62,-319.13 2597.03,-318.76 2599.11,-325.44"/>
</g>
<!-- mpfr&#45;&gt;pycolmap -->
<g id="edge62" class="edge">
<title>mpfr&#45;&gt;pycolmap</title>
<path fill="none" stroke="black" d="M1323.8,-376.5C1543.56,-374.14 2413.39,-362.48 2684,-324 2688.88,-323.31 2693.91,-322.41 2698.93,-321.39"/>
<polygon fill="black" stroke="black" points="2699.34,-324.88 2708.35,-319.31 2697.83,-318.04 2699.34,-324.88"/>
</g>
<!-- mpfr&#45;&gt;pygplates -->
<g id="edge63" class="edge">
<title>mpfr&#45;&gt;pygplates</title>
<path fill="none" stroke="black" d="M1323.93,-376.67C1556.75,-374.96 2521.21,-365.47 2820,-324 2824.95,-323.31 2830.05,-322.42 2835.14,-321.4"/>
<polygon fill="black" stroke="black" points="2835.69,-324.86 2844.72,-319.32 2834.21,-318.02 2835.69,-324.86"/>
</g>
</g>
</svg>
