<?xml version="1.0" encoding="UTF-8" standalone="no"?>
<!DOCTYPE svg PUBLIC "-//W3C//DTD SVG 1.1//EN"
 "http://www.w3.org/Graphics/SVG/1.1/DTD/svg11.dtd">
<!-- Generated by graphviz version 11.0.0 (20240519.1550)
 -->
<!-- Pages: 1 -->
<svg width="1842pt" height="404pt"
 viewBox="0.00 0.00 1842.15 404.00" xmlns="http://www.w3.org/2000/svg" xmlns:xlink="http://www.w3.org/1999/xlink">
<g id="graph0" class="graph" transform="scale(1 1) rotate(0) translate(4 400)">
<polygon fill="white" stroke="none" points="-4,4 -4,-400 1838.15,-400 1838.15,4 -4,4"/>
<!-- arb -->
<g id="node1" class="node">
<title>arb</title>
<g id="a_node1"><a xlink:href="https://github.com/conda-forge/arb-feedstock/pull/36" xlink:title="arb ❎">
<ellipse fill="#31688e" stroke="black" cx="372" cy="-234" rx="43.32" ry="18"/>
<text text-anchor="middle" x="372" y="-229.32" font-family="Times,serif" font-size="14.00" fill="white">arb ❎</text>
</a>
</g>
</g>
<!-- mppp -->
<g id="node2" class="node">
<title>mppp</title>
<g id="a_node2"><a xlink:href="https://github.com/conda-forge/mppp-feedstock" xlink:title="mppp">
<ellipse fill="#ff8c00" stroke="black" cx="317" cy="-162" rx="39.63" ry="18"/>
<text text-anchor="middle" x="317" y="-157.32" font-family="Times,serif" font-size="14.00">mppp</text>
</a>
</g>
</g>
<!-- arb&#45;&gt;mppp -->
<g id="edge1" class="edge">
<title>arb&#45;&gt;mppp</title>
<path fill="none" stroke="black" d="M358.97,-216.41C352.39,-208.04 344.27,-197.71 336.93,-188.37"/>
<polygon fill="black" stroke="black" points="339.81,-186.36 330.88,-180.66 334.3,-190.69 339.81,-186.36"/>
</g>
<!-- heyoka.py -->
<g id="node3" class="node">
<title>heyoka.py</title>
<g id="a_node3"><a xlink:href="https://github.com/conda-forge/heyoka.py-feedstock" xlink:title="heyoka py">
<ellipse fill="#35b779" stroke="black" cx="187" cy="-18" rx="61.73" ry="18"/>
<text text-anchor="middle" x="187" y="-13.32" font-family="Times,serif" font-size="14.00">heyoka py</text>
</a>
</g>
</g>
<!-- mppp&#45;&gt;heyoka.py -->
<g id="edge2" class="edge">
<title>mppp&#45;&gt;heyoka.py</title>
<path fill="none" stroke="black" d="M300.2,-145.66C289.07,-135.3 274.32,-121.17 262,-108 242.72,-87.39 222.16,-62.78 207.45,-44.67"/>
<polygon fill="black" stroke="black" points="210.28,-42.61 201.28,-37.02 204.83,-47 210.28,-42.61"/>
</g>
<!-- heyoka -->
<g id="node4" class="node">
<title>heyoka</title>
<g id="a_node4"><a xlink:href="https://github.com/conda-forge/heyoka-feedstock" xlink:title="heyoka">
<ellipse fill="#35b779" stroke="black" cx="317" cy="-90" rx="46.47" ry="18"/>
<text text-anchor="middle" x="317" y="-85.33" font-family="Times,serif" font-size="14.00">heyoka</text>
</a>
</g>
</g>
<!-- mppp&#45;&gt;heyoka -->
<g id="edge3" class="edge">
<title>mppp&#45;&gt;heyoka</title>
<path fill="none" stroke="black" d="M317,-143.7C317,-136.41 317,-127.73 317,-119.54"/>
<polygon fill="black" stroke="black" points="320.5,-119.62 317,-109.62 313.5,-119.62 320.5,-119.62"/>
</g>
<!-- heyoka&#45;&gt;heyoka.py -->
<g id="edge36" class="edge">
<title>heyoka&#45;&gt;heyoka.py</title>
<path fill="none" stroke="black" d="M290.69,-74.83C271.95,-64.74 246.45,-51.01 225.43,-39.69"/>
<polygon fill="black" stroke="black" points="227.32,-36.74 216.86,-35.08 224,-42.9 227.32,-36.74"/>
</g>
<!-- gmpy2 -->
<g id="node5" class="node">
<title>gmpy2</title>
<g id="a_node5"><a xlink:href="https://github.com/conda-forge/gmpy2-feedstock/pull/41" xlink:title="gmpy2 ❎">
<ellipse fill="#31688e" stroke="black" cx="207" cy="-306" rx="60.68" ry="18"/>
<text text-anchor="middle" x="207" y="-301.32" font-family="Times,serif" font-size="14.00" fill="white">gmpy2 ❎</text>
</a>
</g>
</g>
<!-- gmpy2&#45;&gt;heyoka.py -->
<g id="edge5" class="edge">
<title>gmpy2&#45;&gt;heyoka.py</title>
<path fill="none" stroke="black" d="M158.6,-294.86C135.13,-287.25 109.04,-274.17 95,-252 50.93,-182.39 122.47,-88.2 162.64,-43.94"/>
<polygon fill="black" stroke="black" points="165.19,-46.35 169.42,-36.64 160.06,-41.58 165.19,-46.35"/>
</g>
<!-- python&#45;symengine -->
<g id="node6" class="node">
<title>python&#45;symengine</title>
<g id="a_node6"><a xlink:href="https://github.com/conda-forge/python-symengine-feedstock" xlink:title="python symengine">
<ellipse fill="#000000" stroke="black" cx="207" cy="-234" rx="103.29" ry="18"/>
<text text-anchor="middle" x="207" y="-229.32" font-family="Times,serif" font-size="14.00" fill="white">python symengine</text>
</a>
</g>
</g>
<!-- gmpy2&#45;&gt;python&#45;symengine -->
<g id="edge4" class="edge">
<title>gmpy2&#45;&gt;python&#45;symengine</title>
<path fill="none" stroke="black" d="M207,-287.7C207,-280.41 207,-271.73 207,-263.54"/>
<polygon fill="black" stroke="black" points="210.5,-263.62 207,-253.62 203.5,-263.62 210.5,-263.62"/>
</g>
<!-- igraph -->
<g id="node7" class="node">
<title>igraph</title>
<g id="a_node7"><a xlink:href="https://github.com/conda-forge/igraph-feedstock/pull/73" xlink:title="igraph ❎">
<ellipse fill="#31688e" stroke="black" cx="954" cy="-306" rx="59.1" ry="18"/>
<text text-anchor="middle" x="954" y="-301.32" font-family="Times,serif" font-size="14.00" fill="white">igraph ❎</text>
</a>
</g>
</g>
<!-- libflint -->
<g id="node8" class="node">
<title>libflint</title>
<g id="a_node8"><a xlink:href="https://github.com/conda-forge/libflint-feedstock/pull/33" xlink:title="libflint ❎">
<ellipse fill="#31688e" stroke="black" cx="540" cy="-306" rx="59.1" ry="18"/>
<text text-anchor="middle" x="540" y="-301.32" font-family="Times,serif" font-size="14.00" fill="white">libflint ❎</text>
</a>
</g>
</g>
<!-- libflint&#45;&gt;arb -->
<g id="edge6" class="edge">
<title>libflint&#45;&gt;arb</title>
<path fill="none" stroke="black" d="M506,-290.83C478.88,-279.53 440.83,-263.68 412.2,-251.75"/>
<polygon fill="black" stroke="black" points="413.7,-248.58 403.13,-247.97 411.01,-255.05 413.7,-248.58"/>
</g>
<!-- libflint&#45;&gt;mppp -->
<g id="edge7" class="edge">
<title>libflint&#45;&gt;mppp</title>
<path fill="none" stroke="black" d="M514.68,-289.28C499.05,-279.22 478.84,-265.55 462,-252 443.88,-237.41 443.08,-229.31 424,-216 403.01,-201.35 377.37,-188.51 356.46,-179.13"/>
<polygon fill="black" stroke="black" points="357.95,-175.96 347.39,-175.16 355.14,-182.38 357.95,-175.96"/>
</g>
<!-- libflint&#45;&gt;python&#45;symengine -->
<g id="edge8" class="edge">
<title>libflint&#45;&gt;python&#45;symengine</title>
<path fill="none" stroke="black" d="M492.29,-294.97C437.38,-283.43 346.5,-264.32 282.08,-250.78"/>
<polygon fill="black" stroke="black" points="283.17,-247.43 272.66,-248.8 281.73,-254.28 283.17,-247.43"/>
</g>
<!-- python&#45;flint -->
<g id="node9" class="node">
<title>python&#45;flint</title>
<g id="a_node9"><a xlink:href="https://github.com/conda-forge/python-flint-feedstock" xlink:title="python flint">
<ellipse fill="#ff8c00" stroke="black" cx="540" cy="-234" rx="69.1" ry="18"/>
<text text-anchor="middle" x="540" y="-229.32" font-family="Times,serif" font-size="14.00">python flint</text>
</a>
</g>
</g>
<!-- libflint&#45;&gt;python&#45;flint -->
<g id="edge9" class="edge">
<title>libflint&#45;&gt;python&#45;flint</title>
<path fill="none" stroke="black" d="M540,-287.7C540,-280.41 540,-271.73 540,-263.54"/>
<polygon fill="black" stroke="black" points="543.5,-263.62 540,-253.62 536.5,-263.62 543.5,-263.62"/>
</g>
<!-- normaliz -->
<g id="node10" class="node">
<title>normaliz</title>
<g id="a_node10"><a xlink:href="https://github.com/conda-forge/normaliz-feedstock" xlink:title="normaliz">
<ellipse fill="#ff8c00" stroke="black" cx="682" cy="-234" rx="54.89" ry="18"/>
<text text-anchor="middle" x="682" y="-229.32" font-family="Times,serif" font-size="14.00">normaliz</text>
</a>
</g>
</g>
<!-- libflint&#45;&gt;normaliz -->
<g id="edge10" class="edge">
<title>libflint&#45;&gt;normaliz</title>
<path fill="none" stroke="black" d="M570.11,-290.15C591.15,-279.78 619.46,-265.83 642.33,-254.55"/>
<polygon fill="black" stroke="black" points="643.64,-257.81 651.06,-250.25 640.54,-251.54 643.64,-257.81"/>
</g>
<!-- antic -->
<g id="node11" class="node">
<title>antic</title>
<g id="a_node11"><a xlink:href="https://github.com/conda-forge/antic-feedstock" xlink:title="antic">
<ellipse fill="#35b779" stroke="black" cx="791" cy="-234" rx="35.95" ry="18"/>
<text text-anchor="middle" x="791" y="-229.32" font-family="Times,serif" font-size="14.00">antic</text>
</a>
</g>
</g>
<!-- libflint&#45;&gt;antic -->
<g id="edge11" class="edge">
<title>libflint&#45;&gt;antic</title>
<path fill="none" stroke="black" d="M586.64,-294.54C628.66,-284.75 691.96,-269.1 746,-252 748.24,-251.29 750.53,-250.53 752.83,-249.74"/>
<polygon fill="black" stroke="black" points="753.9,-253.08 762.14,-246.42 751.54,-246.49 753.9,-253.08"/>
</g>
<!-- mpc -->
<g id="node12" class="node">
<title>mpc</title>
<g id="a_node12"><a xlink:href="https://github.com/conda-forge/mpc-feedstock/pull/27" xlink:title="mpc ❎">
<ellipse fill="#31688e" stroke="black" cx="1072" cy="-378" rx="47.53" ry="18"/>
<text text-anchor="middle" x="1072" y="-373.32" font-family="Times,serif" font-size="14.00" fill="white">mpc ❎</text>
</a>
</g>
</g>
<!-- mpc&#45;&gt;arb -->
<g id="edge12" class="edge">
<title>mpc&#45;&gt;arb</title>
<path fill="none" stroke="black" d="M1024.49,-376.62C900.73,-375.04 571.12,-366.81 472,-324 439.66,-310.03 410.56,-281.41 392.2,-260.37"/>
<polygon fill="black" stroke="black" points="394.89,-258.14 385.76,-252.76 389.55,-262.66 394.89,-258.14"/>
</g>
<!-- mpc&#45;&gt;mppp -->
<g id="edge13" class="edge">
<title>mpc&#45;&gt;mppp</title>
<path fill="none" stroke="black" d="M1024.12,-376.91C843.92,-376.24 212.95,-370.53 137,-324 93.08,-297.09 63.09,-256.43 95,-216 116,-189.39 208.09,-174.68 266.87,-167.84"/>
<polygon fill="black" stroke="black" points="267.1,-171.34 276.64,-166.75 266.32,-164.38 267.1,-171.34"/>
</g>
<!-- mpc&#45;&gt;heyoka.py -->
<g id="edge16" class="edge">
<title>mpc&#45;&gt;heyoka.py</title>
<path fill="none" stroke="black" d="M1024.46,-376.36C840.18,-373.61 178.91,-361.21 93,-324 40.5,-301.26 0,-292.21 0,-235 0,-235 0,-235 0,-161 0,-93.93 77.24,-54.42 132.44,-34.74"/>
<polygon fill="black" stroke="black" points="133.4,-38.11 141.73,-31.56 131.13,-31.49 133.4,-38.11"/>
</g>
<!-- mpc&#45;&gt;heyoka -->
<g id="edge30" class="edge">
<title>mpc&#45;&gt;heyoka</title>
<path fill="none" stroke="black" d="M1025.26,-374.42C984.24,-369.88 925.17,-357.49 886,-324 845.8,-289.63 876.9,-249.54 836,-216 764.65,-157.49 490.3,-114.38 371.91,-98.11"/>
<polygon fill="black" stroke="black" points="372.5,-94.65 362.12,-96.77 371.55,-101.59 372.5,-94.65"/>
</g>
<!-- mpc&#45;&gt;gmpy2 -->
<g id="edge14" class="edge">
<title>mpc&#45;&gt;gmpy2</title>
<path fill="none" stroke="black" d="M1024.73,-375.2C905.08,-370.32 580.69,-355.06 312,-324 298.03,-322.39 283.08,-320.23 268.97,-317.99"/>
<polygon fill="black" stroke="black" points="269.8,-314.58 259.37,-316.43 268.68,-321.49 269.8,-314.58"/>
</g>
<!-- mpc&#45;&gt;python&#45;symengine -->
<g id="edge15" class="edge">
<title>mpc&#45;&gt;python&#45;symengine</title>
<path fill="none" stroke="black" d="M1024.65,-375.13C894.35,-369.68 532.5,-352.36 417,-324 355.62,-308.93 289.15,-278.05 247.79,-256.94"/>
<polygon fill="black" stroke="black" points="249.42,-253.84 238.93,-252.36 246.21,-260.06 249.42,-253.84"/>
</g>
<!-- mpc&#45;&gt;igraph -->
<g id="edge17" class="edge">
<title>mpc&#45;&gt;igraph</title>
<path fill="none" stroke="black" d="M1047.26,-362.33C1030.61,-352.45 1008.39,-339.27 989.82,-328.25"/>
<polygon fill="black" stroke="black" points="991.62,-325.25 981.23,-323.15 988.05,-331.27 991.62,-325.25"/>
</g>
<!-- mpc&#45;&gt;libflint -->
<g id="edge18" class="edge">
<title>mpc&#45;&gt;libflint</title>
<path fill="none" stroke="black" d="M1027.56,-371.15C933.49,-358.78 713.95,-329.89 604.47,-315.48"/>
<polygon fill="black" stroke="black" points="605.14,-312.04 594.77,-314.21 604.22,-318.98 605.14,-312.04"/>
</g>
<!-- mpc&#45;&gt;python&#45;flint -->
<g id="edge19" class="edge">
<title>mpc&#45;&gt;python&#45;flint</title>
<path fill="none" stroke="black" d="M1025.68,-373.27C961.24,-367.23 841.37,-352.97 743,-324 684.04,-306.63 619.63,-276.29 579.52,-255.93"/>
<polygon fill="black" stroke="black" points="581.21,-252.86 570.72,-251.41 578.02,-259.09 581.21,-252.86"/>
</g>
<!-- mpc&#45;&gt;normaliz -->
<g id="edge20" class="edge">
<title>mpc&#45;&gt;normaliz</title>
<path fill="none" stroke="black" d="M1025.43,-373.53C971.29,-368.18 880.13,-355.06 808,-324 770.26,-307.75 732.51,-279.02 708.31,-258.6"/>
<polygon fill="black" stroke="black" points="710.74,-256.07 700.87,-252.21 706.18,-261.38 710.74,-256.07"/>
</g>
<!-- mpc&#45;&gt;antic -->
<g id="edge21" class="edge">
<title>mpc&#45;&gt;antic</title>
<path fill="none" stroke="black" d="M1024.42,-377.02C974.15,-374.74 894.87,-364.3 841,-324 820.74,-308.84 807.52,-282.91 799.8,-262.94"/>
<polygon fill="black" stroke="black" points="803.16,-261.93 796.48,-253.7 796.57,-264.29 803.16,-261.93"/>
</g>
<!-- python&#45;igraph -->
<g id="node13" class="node">
<title>python&#45;igraph</title>
<g id="a_node13"><a xlink:href="https://github.com/conda-forge/python-igraph-feedstock/pull/90" xlink:title="python igraph ✓">
<ellipse fill="#31688e" stroke="black" cx="973" cy="-234" rx="89.61" ry="18"/>
<text text-anchor="middle" x="973" y="-229.32" font-family="Times,serif" font-size="14.00" fill="white">python igraph ✓</text>
</a>
</g>
</g>
<!-- mpc&#45;&gt;python&#45;igraph -->
<g id="edge22" class="edge">
<title>mpc&#45;&gt;python&#45;igraph</title>
<path fill="none" stroke="black" d="M1063.89,-359.88C1054.81,-341.42 1039.1,-311.5 1022,-288 1014.92,-278.27 1006.26,-268.39 998.2,-259.83"/>
<polygon fill="black" stroke="black" points="1000.94,-257.63 991.47,-252.86 995.9,-262.49 1000.94,-257.63"/>
</g>
<!-- gudhi -->
<g id="node14" class="node">
<title>gudhi</title>
<g id="a_node14"><a xlink:href="https://github.com/conda-forge/gudhi-feedstock/pull/62" xlink:title="gudhi ✓">
<ellipse fill="#31688e" stroke="black" cx="1053" cy="-162" rx="47.53" ry="18"/>
<text text-anchor="middle" x="1053" y="-157.32" font-family="Times,serif" font-size="14.00" fill="white">gudhi ✓</text>
</a>
</g>
</g>
<!-- mpc&#45;&gt;gudhi -->
<g id="edge23" class="edge">
<title>mpc&#45;&gt;gudhi</title>
<path fill="none" stroke="black" d="M1073.9,-359.91C1076.78,-330.33 1081,-267.77 1072,-216 1070.52,-207.49 1067.8,-198.54 1064.87,-190.47"/>
<polygon fill="black" stroke="black" points="1068.14,-189.23 1061.25,-181.19 1061.62,-191.78 1068.14,-189.23"/>
</g>
<!-- wildmeshing -->
<g id="node15" class="node">
<title>wildmeshing</title>
<g id="a_node15"><a xlink:href="https://github.com/conda-forge/wildmeshing-feedstock/pull/24" xlink:title="wildmeshing ❎">
<ellipse fill="#31688e" stroke="black" cx="1049" cy="-90" rx="90.14" ry="18"/>
<text text-anchor="middle" x="1049" y="-85.33" font-family="Times,serif" font-size="14.00" fill="white">wildmeshing ❎</text>
</a>
</g>
</g>
<!-- mpc&#45;&gt;wildmeshing -->
<g id="edge24" class="edge">
<title>mpc&#45;&gt;wildmeshing</title>
<path fill="none" stroke="black" d="M1081.09,-360.03C1101.04,-320.35 1144.26,-219.15 1110,-144 1104.74,-132.47 1095.6,-122.47 1085.97,-114.37"/>
<polygon fill="black" stroke="black" points="1088.32,-111.77 1078.28,-108.4 1084.03,-117.29 1088.32,-111.77"/>
</g>
<!-- ifcopenshell -->
<g id="node16" class="node">
<title>ifcopenshell</title>
<g id="a_node16"><a xlink:href="https://github.com/conda-forge/ifcopenshell-feedstock" xlink:title="ifcopenshell">
<ellipse fill="#000000" stroke="black" cx="1167" cy="-18" rx="71.2" ry="18"/>
<text text-anchor="middle" x="1167" y="-13.32" font-family="Times,serif" font-size="14.00" fill="white">ifcopenshell</text>
</a>
</g>
</g>
<!-- mpc&#45;&gt;ifcopenshell -->
<g id="edge25" class="edge">
<title>mpc&#45;&gt;ifcopenshell</title>
<path fill="none" stroke="black" d="M1091.68,-361.4C1119.51,-337.44 1167,-288.69 1167,-235 1167,-235 1167,-235 1167,-161 1167,-121.74 1167,-76.38 1167,-47.69"/>
<polygon fill="black" stroke="black" points="1170.5,-48 1167,-38 1163.5,-48 1170.5,-48"/>
</g>
<!-- gnuradio -->
<g id="node17" class="node">
<title>gnuradio</title>
<g id="a_node17"><a xlink:href="https://github.com/conda-forge/gnuradio-feedstock" xlink:title="gnuradio">
<ellipse fill="#35b779" stroke="black" cx="1251" cy="-306" rx="55.94" ry="18"/>
<text text-anchor="middle" x="1251" y="-301.32" font-family="Times,serif" font-size="14.00">gnuradio</text>
</a>
</g>
</g>
<!-- mpc&#45;&gt;gnuradio -->
<g id="edge26" class="edge">
<title>mpc&#45;&gt;gnuradio</title>
<path fill="none" stroke="black" d="M1104,-364.49C1132.46,-353.36 1174.37,-336.97 1206.17,-324.53"/>
<polygon fill="black" stroke="black" points="1207.08,-327.93 1215.12,-321.03 1204.53,-321.41 1207.08,-327.93"/>
</g>
<!-- scikit&#45;geometry -->
<g id="node18" class="node">
<title>scikit&#45;geometry</title>
<g id="a_node18"><a xlink:href="https://github.com/conda-forge/scikit-geometry-feedstock" xlink:title="scikit geometry">
<ellipse fill="#35b779" stroke="black" cx="1284" cy="-234" rx="89.09" ry="18"/>
<text text-anchor="middle" x="1284" y="-229.32" font-family="Times,serif" font-size="14.00">scikit geometry</text>
</a>
</g>
</g>
<!-- mpc&#45;&gt;scikit&#45;geometry -->
<g id="edge27" class="edge">
<title>mpc&#45;&gt;scikit&#45;geometry</title>
<path fill="none" stroke="black" d="M1118.6,-373.67C1182.37,-368.04 1291.69,-354.16 1316,-324 1330.72,-305.74 1319.05,-280.14 1305.85,-261.08"/>
<polygon fill="black" stroke="black" points="1308.82,-259.21 1300.06,-253.27 1303.2,-263.38 1308.82,-259.21"/>
</g>
<!-- pygalmesh -->
<g id="node19" class="node">
<title>pygalmesh</title>
<g id="a_node19"><a xlink:href="https://github.com/conda-forge/pygalmesh-feedstock" xlink:title="pygalmesh">
<ellipse fill="#35b779" stroke="black" cx="1346" cy="-162" rx="65.41" ry="18"/>
<text text-anchor="middle" x="1346" y="-157.32" font-family="Times,serif" font-size="14.00">pygalmesh</text>
</a>
</g>
</g>
<!-- mpc&#45;&gt;pygalmesh -->
<g id="edge28" class="edge">
<title>mpc&#45;&gt;pygalmesh</title>
<path fill="none" stroke="black" d="M1119.89,-377.78C1175.58,-376.45 1268.12,-367.14 1333,-324 1376.89,-294.82 1397.49,-266.38 1382,-216 1379.04,-206.37 1373.67,-196.92 1367.96,-188.73"/>
<polygon fill="black" stroke="black" points="1370.94,-186.87 1362.14,-180.97 1365.34,-191.07 1370.94,-186.87"/>
</g>
<!-- compas_cgal -->
<g id="node20" class="node">
<title>compas_cgal</title>
<g id="a_node20"><a xlink:href="https://github.com/conda-forge/compas_cgal-feedstock" xlink:title="compas_cgal">
<ellipse fill="#35b779" stroke="black" cx="1375" cy="-90" rx="74.36" ry="18"/>
<text text-anchor="middle" x="1375" y="-85.33" font-family="Times,serif" font-size="14.00">compas_cgal</text>
</a>
</g>
</g>
<!-- mpc&#45;&gt;compas_cgal -->
<g id="edge29" class="edge">
<title>mpc&#45;&gt;compas_cgal</title>
<path fill="none" stroke="black" d="M1118.59,-373.87C1191.53,-368.11 1328.26,-353.62 1366,-324 1431.7,-272.43 1448.79,-222.4 1420,-144 1416.21,-133.68 1409.42,-124 1402.25,-115.8"/>
<polygon fill="black" stroke="black" points="1404.89,-113.5 1395.48,-108.64 1399.8,-118.31 1404.89,-113.5"/>
</g>
<!-- imp -->
<g id="node21" class="node">
<title>imp</title>
<g id="a_node21"><a xlink:href="https://github.com/conda-forge/imp-feedstock" xlink:title="imp">
<ellipse fill="#35b779" stroke="black" cx="1477" cy="-18" rx="30.16" ry="18"/>
<text text-anchor="middle" x="1477" y="-13.32" font-family="Times,serif" font-size="14.00">imp</text>
</a>
</g>
</g>
<!-- mpc&#45;&gt;imp -->
<g id="edge31" class="edge">
<title>mpc&#45;&gt;imp</title>
<path fill="none" stroke="black" d="M1118.17,-373.32C1196.28,-366.47 1350.65,-350.05 1398,-324 1444.34,-298.5 1477,-287.89 1477,-235 1477,-235 1477,-235 1477,-161 1477,-121.74 1477,-76.38 1477,-47.69"/>
<polygon fill="black" stroke="black" points="1480.5,-48 1477,-38 1473.5,-48 1480.5,-48"/>
</g>
<!-- gmpxxll -->
<g id="node22" class="node">
<title>gmpxxll</title>
<g id="a_node22"><a xlink:href="https://github.com/conda-forge/gmpxxll-feedstock" xlink:title="gmpxxll">
<ellipse fill="#35b779" stroke="black" cx="1556" cy="-306" rx="51.21" ry="18"/>
<text text-anchor="middle" x="1556" y="-301.32" font-family="Times,serif" font-size="14.00">gmpxxll</text>
</a>
</g>
</g>
<!-- mpc&#45;&gt;gmpxxll -->
<g id="edge32" class="edge">
<title>mpc&#45;&gt;gmpxxll</title>
<path fill="none" stroke="black" d="M1118.19,-373.14C1195.72,-366.21 1356.74,-349.94 1491,-324 1495.9,-323.05 1500.98,-321.95 1506.04,-320.76"/>
<polygon fill="black" stroke="black" points="1506.65,-324.22 1515.53,-318.44 1504.99,-317.42 1506.65,-324.22"/>
</g>
<!-- spam -->
<g id="node23" class="node">
<title>spam</title>
<g id="a_node23"><a xlink:href="https://github.com/conda-forge/spam-feedstock" xlink:title="spam">
<ellipse fill="#35b779" stroke="black" cx="1621" cy="-234" rx="38.06" ry="18"/>
<text text-anchor="middle" x="1621" y="-229.32" font-family="Times,serif" font-size="14.00">spam</text>
</a>
</g>
</g>
<!-- mpc&#45;&gt;spam -->
<g id="edge33" class="edge">
<title>mpc&#45;&gt;spam</title>
<path fill="none" stroke="black" d="M1119.51,-375.84C1245.68,-372.28 1581.91,-359.51 1616,-324 1631.07,-308.3 1631.09,-283 1628.05,-263.38"/>
<polygon fill="black" stroke="black" points="1631.54,-262.96 1626.22,-253.8 1624.66,-264.28 1631.54,-262.96"/>
</g>
<!-- pycolmap -->
<g id="node24" class="node">
<title>pycolmap</title>
<g id="a_node24"><a xlink:href="https://github.com/conda-forge/pycolmap-feedstock" xlink:title="pycolmap">
<ellipse fill="#35b779" stroke="black" cx="1687" cy="-162" rx="59.1" ry="18"/>
<text text-anchor="middle" x="1687" y="-157.32" font-family="Times,serif" font-size="14.00">pycolmap</text>
</a>
</g>
</g>
<!-- mpc&#45;&gt;pycolmap -->
<g id="edge34" class="edge">
<title>mpc&#45;&gt;pycolmap</title>
<path fill="none" stroke="black" d="M1119.21,-375.27C1247.27,-370.22 1594.42,-353.88 1636,-324 1677.89,-293.89 1686.29,-229.11 1687.45,-191.55"/>
<polygon fill="black" stroke="black" points="1690.94,-191.94 1687.58,-181.9 1683.94,-191.85 1690.94,-191.94"/>
</g>
<!-- pygplates -->
<g id="node25" class="node">
<title>pygplates</title>
<g id="a_node25"><a xlink:href="https://github.com/conda-forge/pygplates-feedstock" xlink:title="pygplates">
<ellipse fill="#35b779" stroke="black" cx="1774" cy="-90" rx="60.15" ry="18"/>
<text text-anchor="middle" x="1774" y="-85.33" font-family="Times,serif" font-size="14.00">pygplates</text>
</a>
</g>
</g>
<!-- mpc&#45;&gt;pygplates -->
<g id="edge35" class="edge">
<title>mpc&#45;&gt;pygplates</title>
<path fill="none" stroke="black" d="M1119.41,-375.16C1251.65,-369.69 1617.93,-352.13 1664,-324 1736.98,-279.43 1762.31,-171.49 1770.45,-119.68"/>
<polygon fill="black" stroke="black" points="1773.9,-120.26 1771.88,-109.86 1766.98,-119.26 1773.9,-120.26"/>
</g>
</g>
</svg>
