<?xml version="1.0" encoding="UTF-8" standalone="no"?>
<!DOCTYPE svg PUBLIC "-//W3C//DTD SVG 1.1//EN"
 "http://www.w3.org/Graphics/SVG/1.1/DTD/svg11.dtd">
<!-- Generated by graphviz version 11.0.0 (20240519.1550)
 -->
<!-- Pages: 1 -->
<svg width="1874pt" height="404pt"
 viewBox="0.00 0.00 1873.83 404.00" xmlns="http://www.w3.org/2000/svg" xmlns:xlink="http://www.w3.org/1999/xlink">
<g id="graph0" class="graph" transform="scale(1 1) rotate(0) translate(4 400)">
<polygon fill="white" stroke="none" points="-4,4 -4,-400 1869.83,-400 1869.83,4 -4,4"/>
<!-- arb -->
<g id="node1" class="node">
<title>arb</title>
<g id="a_node1"><a xlink:href="https://github.com/conda-forge/arb-feedstock/pull/36" xlink:title="arb ❎">
<ellipse fill="#31688e" stroke="black" cx="483.68" cy="-234" rx="43.32" ry="18"/>
<text text-anchor="middle" x="483.68" y="-229.32" font-family="Times,serif" font-size="14.00" fill="white">arb ❎</text>
</a>
</g>
</g>
<!-- mppp -->
<g id="node2" class="node">
<title>mppp</title>
<g id="a_node2"><a xlink:href="https://github.com/conda-forge/mppp-feedstock" xlink:title="mppp">
<ellipse fill="#ff8c00" stroke="black" cx="353.68" cy="-162" rx="39.63" ry="18"/>
<text text-anchor="middle" x="353.68" y="-157.32" font-family="Times,serif" font-size="14.00">mppp</text>
</a>
</g>
</g>
<!-- arb&#45;&gt;mppp -->
<g id="edge1" class="edge">
<title>arb&#45;&gt;mppp</title>
<path fill="none" stroke="black" d="M457.99,-219.17C438.06,-208.44 410.23,-193.45 388.33,-181.66"/>
<polygon fill="black" stroke="black" points="390.22,-178.7 379.76,-177.04 386.9,-184.87 390.22,-178.7"/>
</g>
<!-- heyoka.py -->
<g id="node3" class="node">
<title>heyoka.py</title>
<g id="a_node3"><a xlink:href="https://github.com/conda-forge/heyoka.py-feedstock" xlink:title="heyoka py">
<ellipse fill="#35b779" stroke="black" cx="316.68" cy="-18" rx="61.73" ry="18"/>
<text text-anchor="middle" x="316.68" y="-13.32" font-family="Times,serif" font-size="14.00">heyoka py</text>
</a>
</g>
</g>
<!-- mppp&#45;&gt;heyoka.py -->
<g id="edge2" class="edge">
<title>mppp&#45;&gt;heyoka.py</title>
<path fill="none" stroke="black" d="M350.62,-143.79C347.28,-125.76 341.48,-96.68 334.68,-72 332.4,-63.72 329.55,-54.84 326.79,-46.77"/>
<polygon fill="black" stroke="black" points="330.14,-45.74 323.53,-37.46 323.53,-48.05 330.14,-45.74"/>
</g>
<!-- heyoka -->
<g id="node4" class="node">
<title>heyoka</title>
<g id="a_node4"><a xlink:href="https://github.com/conda-forge/heyoka-feedstock" xlink:title="heyoka">
<ellipse fill="#35b779" stroke="black" cx="279.68" cy="-90" rx="46.47" ry="18"/>
<text text-anchor="middle" x="279.68" y="-85.33" font-family="Times,serif" font-size="14.00">heyoka</text>
</a>
</g>
</g>
<!-- mppp&#45;&gt;heyoka -->
<g id="edge3" class="edge">
<title>mppp&#45;&gt;heyoka</title>
<path fill="none" stroke="black" d="M337.26,-145.46C327.78,-136.5 315.67,-125.04 305,-114.95"/>
<polygon fill="black" stroke="black" points="307.6,-112.59 297.93,-108.26 302.79,-117.68 307.6,-112.59"/>
</g>
<!-- heyoka&#45;&gt;heyoka.py -->
<g id="edge37" class="edge">
<title>heyoka&#45;&gt;heyoka.py</title>
<path fill="none" stroke="black" d="M288.63,-72.05C292.71,-64.35 297.64,-55.03 302.21,-46.36"/>
<polygon fill="black" stroke="black" points="305.26,-48.09 306.84,-37.61 299.07,-44.82 305.26,-48.09"/>
</g>
<!-- cgal -->
<g id="node5" class="node">
<title>cgal</title>
<g id="a_node5"><a xlink:href="https://github.com/conda-forge/cgal-feedstock/pull/94" xlink:title="cgal ❎">
<ellipse fill="#31688e" stroke="black" cx="777.68" cy="-306" rx="47" ry="18"/>
<text text-anchor="middle" x="777.68" y="-301.32" font-family="Times,serif" font-size="14.00" fill="white">cgal ❎</text>
</a>
</g>
</g>
<!-- gmpy2 -->
<g id="node6" class="node">
<title>gmpy2</title>
<g id="a_node6"><a xlink:href="https://github.com/conda-forge/gmpy2-feedstock/pull/41" xlink:title="gmpy2 ❎">
<ellipse fill="#31688e" stroke="black" cx="60.68" cy="-306" rx="60.68" ry="18"/>
<text text-anchor="middle" x="60.68" y="-301.32" font-family="Times,serif" font-size="14.00" fill="white">gmpy2 ❎</text>
</a>
</g>
</g>
<!-- gmpy2&#45;&gt;heyoka.py -->
<g id="edge5" class="edge">
<title>gmpy2&#45;&gt;heyoka.py</title>
<path fill="none" stroke="black" d="M65.87,-287.62C75.77,-256.49 99.61,-190.17 135.68,-144 172.99,-96.25 233.59,-59.67 274.27,-38.75"/>
<polygon fill="black" stroke="black" points="275.7,-41.95 283.06,-34.33 272.56,-35.7 275.7,-41.95"/>
</g>
<!-- python&#45;symengine -->
<g id="node7" class="node">
<title>python&#45;symengine</title>
<g id="a_node7"><a xlink:href="https://github.com/conda-forge/python-symengine-feedstock" xlink:title="python symengine">
<ellipse fill="#35b779" stroke="black" cx="318.68" cy="-234" rx="103.29" ry="18"/>
<text text-anchor="middle" x="318.68" y="-229.32" font-family="Times,serif" font-size="14.00">python symengine</text>
</a>
</g>
</g>
<!-- gmpy2&#45;&gt;python&#45;symengine -->
<g id="edge4" class="edge">
<title>gmpy2&#45;&gt;python&#45;symengine</title>
<path fill="none" stroke="black" d="M104.44,-293.13C145.3,-282.04 206.82,-265.35 253.46,-252.69"/>
<polygon fill="black" stroke="black" points="254.18,-256.13 262.91,-250.13 252.35,-249.37 254.18,-256.13"/>
</g>
<!-- igraph -->
<g id="node8" class="node">
<title>igraph</title>
<g id="a_node8"><a xlink:href="https://github.com/conda-forge/igraph-feedstock/pull/73" xlink:title="igraph ❎">
<ellipse fill="#31688e" stroke="black" cx="1053.68" cy="-234" rx="59.1" ry="18"/>
<text text-anchor="middle" x="1053.68" y="-229.32" font-family="Times,serif" font-size="14.00" fill="white">igraph ❎</text>
</a>
</g>
</g>
<!-- libflint -->
<g id="node9" class="node">
<title>libflint</title>
<g id="a_node9"><a xlink:href="https://github.com/conda-forge/libflint-feedstock" xlink:title="libflint">
<ellipse fill="#ff8c00" stroke="black" cx="651.68" cy="-306" rx="43.84" ry="18"/>
<text text-anchor="middle" x="651.68" y="-301.32" font-family="Times,serif" font-size="14.00">libflint</text>
</a>
</g>
</g>
<!-- libflint&#45;&gt;arb -->
<g id="edge6" class="edge">
<title>libflint&#45;&gt;arb</title>
<path fill="none" stroke="black" d="M621.64,-292.49C594.41,-281.14 554.05,-264.32 524.01,-251.8"/>
<polygon fill="black" stroke="black" points="525.43,-248.6 514.85,-247.99 522.73,-255.07 525.43,-248.6"/>
</g>
<!-- libflint&#45;&gt;mppp -->
<g id="edge7" class="edge">
<title>libflint&#45;&gt;mppp</title>
<path fill="none" stroke="black" d="M628.11,-290.41C612.26,-280.25 591.15,-266.06 573.68,-252 555.55,-237.41 555.86,-227.58 535.68,-216 493.72,-191.93 439.94,-178.03 401.75,-170.55"/>
<polygon fill="black" stroke="black" points="402.88,-167.2 392.41,-168.8 401.6,-174.08 402.88,-167.2"/>
</g>
<!-- libflint&#45;&gt;python&#45;symengine -->
<g id="edge8" class="edge">
<title>libflint&#45;&gt;python&#45;symengine</title>
<path fill="none" stroke="black" d="M613.15,-296.9C559.72,-285.67 462,-265.13 393.84,-250.8"/>
<polygon fill="black" stroke="black" points="394.73,-247.41 384.23,-248.78 393.29,-254.26 394.73,-247.41"/>
</g>
<!-- python&#45;flint -->
<g id="node10" class="node">
<title>python&#45;flint</title>
<g id="a_node10"><a xlink:href="https://github.com/conda-forge/python-flint-feedstock" xlink:title="python flint">
<ellipse fill="#ff8c00" stroke="black" cx="651.68" cy="-234" rx="69.1" ry="18"/>
<text text-anchor="middle" x="651.68" y="-229.32" font-family="Times,serif" font-size="14.00">python flint</text>
</a>
</g>
</g>
<!-- libflint&#45;&gt;python&#45;flint -->
<g id="edge9" class="edge">
<title>libflint&#45;&gt;python&#45;flint</title>
<path fill="none" stroke="black" d="M651.68,-287.7C651.68,-280.41 651.68,-271.73 651.68,-263.54"/>
<polygon fill="black" stroke="black" points="655.18,-263.62 651.68,-253.62 648.18,-263.62 655.18,-263.62"/>
</g>
<!-- normaliz -->
<g id="node11" class="node">
<title>normaliz</title>
<g id="a_node11"><a xlink:href="https://github.com/conda-forge/normaliz-feedstock" xlink:title="normaliz">
<ellipse fill="#ff8c00" stroke="black" cx="793.68" cy="-234" rx="54.89" ry="18"/>
<text text-anchor="middle" x="793.68" y="-229.32" font-family="Times,serif" font-size="14.00">normaliz</text>
</a>
</g>
</g>
<!-- libflint&#45;&gt;normaliz -->
<g id="edge10" class="edge">
<title>libflint&#45;&gt;normaliz</title>
<path fill="none" stroke="black" d="M679.06,-291.5C700.4,-280.98 730.33,-266.23 754.25,-254.44"/>
<polygon fill="black" stroke="black" points="755.65,-257.65 763.07,-250.09 752.55,-251.37 755.65,-257.65"/>
</g>
<!-- antic -->
<g id="node12" class="node">
<title>antic</title>
<g id="a_node12"><a xlink:href="https://github.com/conda-forge/antic-feedstock" xlink:title="antic">
<ellipse fill="#35b779" stroke="black" cx="902.68" cy="-234" rx="35.95" ry="18"/>
<text text-anchor="middle" x="902.68" y="-229.32" font-family="Times,serif" font-size="14.00">antic</text>
</a>
</g>
</g>
<!-- libflint&#45;&gt;antic -->
<g id="edge11" class="edge">
<title>libflint&#45;&gt;antic</title>
<path fill="none" stroke="black" d="M688.67,-296C738.99,-283.67 826.34,-261.92 857.68,-252 859.92,-251.29 862.21,-250.53 864.51,-249.74"/>
<polygon fill="black" stroke="black" points="865.58,-253.08 873.81,-246.42 863.22,-246.49 865.58,-253.08"/>
</g>
<!-- mpc -->
<g id="node13" class="node">
<title>mpc</title>
<g id="a_node13"><a xlink:href="https://github.com/conda-forge/mpc-feedstock/pull/27" xlink:title="mpc ❎">
<ellipse fill="#31688e" stroke="black" cx="1120.68" cy="-378" rx="47.53" ry="18"/>
<text text-anchor="middle" x="1120.68" y="-373.32" font-family="Times,serif" font-size="14.00" fill="white">mpc ❎</text>
</a>
</g>
</g>
<!-- mpc&#45;&gt;arb -->
<g id="edge12" class="edge">
<title>mpc&#45;&gt;arb</title>
<path fill="none" stroke="black" d="M1073.45,-375.52C961.78,-371.49 684.44,-358.24 598.68,-324 562.46,-309.54 528.07,-280.12 506.5,-259.06"/>
<polygon fill="black" stroke="black" points="509.22,-256.84 499.68,-252.24 504.27,-261.79 509.22,-256.84"/>
</g>
<!-- mpc&#45;&gt;mppp -->
<g id="edge13" class="edge">
<title>mpc&#45;&gt;mppp</title>
<path fill="none" stroke="black" d="M1072.82,-377.19C959.79,-376.79 667.85,-370.9 429.68,-324 327.49,-303.88 267.97,-336.2 206.68,-252 197.26,-239.06 197.48,-229.09 206.68,-216 228.39,-185.09 269.98,-172.12 303.4,-166.73"/>
<polygon fill="black" stroke="black" points="303.47,-170.25 312.88,-165.38 302.49,-163.32 303.47,-170.25"/>
</g>
<!-- mpc&#45;&gt;heyoka.py -->
<g id="edge17" class="edge">
<title>mpc&#45;&gt;heyoka.py</title>
<path fill="none" stroke="black" d="M1103.14,-360.88C1077.34,-337.13 1027.64,-291.3 985.68,-252 968.7,-236.1 967.74,-227.77 947.68,-216 758.52,-105.04 500.18,-49.97 381.33,-29.17"/>
<polygon fill="black" stroke="black" points="382.21,-25.77 371.76,-27.52 381.02,-32.67 382.21,-25.77"/>
</g>
<!-- mpc&#45;&gt;heyoka -->
<g id="edge31" class="edge">
<title>mpc&#45;&gt;heyoka</title>
<path fill="none" stroke="black" d="M1072.92,-376.71C899.73,-375.31 311.03,-367.38 239.68,-324 195.53,-297.16 181.75,-265.46 196.68,-216 208.42,-177.08 236.69,-139.16 256.98,-115.48"/>
<polygon fill="black" stroke="black" points="259.34,-118.09 263.31,-108.27 254.08,-113.47 259.34,-118.09"/>
</g>
<!-- mpc&#45;&gt;cgal -->
<g id="edge14" class="edge">
<title>mpc&#45;&gt;cgal</title>
<path fill="none" stroke="black" d="M1077.44,-370.06C1021.89,-360.88 922.61,-343.55 838.68,-324 834.34,-322.99 829.86,-321.88 825.37,-320.71"/>
<polygon fill="black" stroke="black" points="826.35,-317.35 815.78,-318.15 824.54,-324.11 826.35,-317.35"/>
</g>
<!-- mpc&#45;&gt;gmpy2 -->
<g id="edge15" class="edge">
<title>mpc&#45;&gt;gmpy2</title>
<path fill="none" stroke="black" d="M1072.74,-377.28C929.61,-377.51 493.15,-373.77 135.68,-324 129.56,-323.15 123.21,-322.05 116.9,-320.82"/>
<polygon fill="black" stroke="black" points="117.65,-317.4 107.15,-318.8 116.23,-324.26 117.65,-317.4"/>
</g>
<!-- mpc&#45;&gt;python&#45;symengine -->
<g id="edge16" class="edge">
<title>mpc&#45;&gt;python&#45;symengine</title>
<path fill="none" stroke="black" d="M1073.05,-377.38C972.6,-377.17 732.23,-371.27 537.68,-324 473.76,-308.47 404.03,-277.5 360.82,-256.51"/>
<polygon fill="black" stroke="black" points="362.57,-253.47 352.05,-252.2 359.49,-259.75 362.57,-253.47"/>
</g>
<!-- mpc&#45;&gt;igraph -->
<g id="edge18" class="edge">
<title>mpc&#45;&gt;igraph</title>
<path fill="none" stroke="black" d="M1112.6,-359.87C1101.18,-335.67 1080.2,-291.21 1066.6,-262.39"/>
<polygon fill="black" stroke="black" points="1069.87,-261.11 1062.43,-253.56 1063.54,-264.1 1069.87,-261.11"/>
</g>
<!-- mpc&#45;&gt;libflint -->
<g id="edge19" class="edge">
<title>mpc&#45;&gt;libflint</title>
<path fill="none" stroke="black" d="M1074.95,-372.52C1000.53,-364.88 848.75,-347.8 721.68,-324 714.25,-322.61 706.42,-320.92 698.8,-319.17"/>
<polygon fill="black" stroke="black" points="699.86,-315.82 689.32,-316.91 698.24,-322.63 699.86,-315.82"/>
</g>
<!-- mpc&#45;&gt;python&#45;flint -->
<g id="edge20" class="edge">
<title>mpc&#45;&gt;python&#45;flint</title>
<path fill="none" stroke="black" d="M1073.15,-375.7C1019.7,-372.35 931.87,-361.09 866.68,-324 847.81,-313.27 852.11,-299.46 833.68,-288 813.45,-275.43 757.92,-260.13 713.47,-249.21"/>
<polygon fill="black" stroke="black" points="714.45,-245.84 703.91,-246.89 712.8,-252.65 714.45,-245.84"/>
</g>
<!-- mpc&#45;&gt;normaliz -->
<g id="edge21" class="edge">
<title>mpc&#45;&gt;normaliz</title>
<path fill="none" stroke="black" d="M1077.66,-370.01C1036.32,-362.28 972.77,-347.68 921.68,-324 911.35,-319.22 859.35,-282.3 824.88,-257.54"/>
<polygon fill="black" stroke="black" points="827.07,-254.8 816.91,-251.8 822.98,-260.48 827.07,-254.8"/>
</g>
<!-- mpc&#45;&gt;antic -->
<g id="edge22" class="edge">
<title>mpc&#45;&gt;antic</title>
<path fill="none" stroke="black" d="M1075.33,-371.96C1038.81,-365.89 987.93,-352.64 952.68,-324 933.04,-308.04 919.75,-282.2 911.84,-262.47"/>
<polygon fill="black" stroke="black" points="915.22,-261.5 908.43,-253.37 908.67,-263.96 915.22,-261.5"/>
</g>
<!-- python&#45;igraph -->
<g id="node14" class="node">
<title>python&#45;igraph</title>
<g id="a_node14"><a xlink:href="https://github.com/conda-forge/python-igraph-feedstock/pull/90" xlink:title="python igraph ✓">
<ellipse fill="#31688e" stroke="black" cx="1060.68" cy="-162" rx="89.61" ry="18"/>
<text text-anchor="middle" x="1060.68" y="-157.32" font-family="Times,serif" font-size="14.00" fill="white">python igraph ✓</text>
</a>
</g>
</g>
<!-- mpc&#45;&gt;python&#45;igraph -->
<g id="edge23" class="edge">
<title>mpc&#45;&gt;python&#45;igraph</title>
<path fill="none" stroke="black" d="M1125.24,-360.05C1132.49,-329.6 1143.71,-264.32 1121.68,-216 1116.42,-204.47 1107.28,-194.47 1097.64,-186.37"/>
<polygon fill="black" stroke="black" points="1100,-183.77 1089.95,-180.4 1095.7,-189.29 1100,-183.77"/>
</g>
<!-- gudhi -->
<g id="node15" class="node">
<title>gudhi</title>
<g id="a_node15"><a xlink:href="https://github.com/conda-forge/gudhi-feedstock/pull/62" xlink:title="gudhi ✓">
<ellipse fill="#31688e" stroke="black" cx="1140.68" cy="-90" rx="47.53" ry="18"/>
<text text-anchor="middle" x="1140.68" y="-85.33" font-family="Times,serif" font-size="14.00" fill="white">gudhi ✓</text>
</a>
</g>
</g>
<!-- mpc&#45;&gt;gudhi -->
<g id="edge24" class="edge">
<title>mpc&#45;&gt;gudhi</title>
<path fill="none" stroke="black" d="M1129.9,-360.33C1135.11,-350.14 1141.25,-336.67 1144.68,-324 1165.66,-246.51 1173.43,-223.09 1159.68,-144 1158.2,-135.49 1155.48,-126.54 1152.55,-118.47"/>
<polygon fill="black" stroke="black" points="1155.82,-117.23 1148.92,-109.19 1149.3,-119.78 1155.82,-117.23"/>
</g>
<!-- wildmeshing -->
<g id="node16" class="node">
<title>wildmeshing</title>
<g id="a_node16"><a xlink:href="https://github.com/conda-forge/wildmeshing-feedstock/pull/24" xlink:title="wildmeshing ❎">
<ellipse fill="#31688e" stroke="black" cx="1216.68" cy="-18" rx="90.14" ry="18"/>
<text text-anchor="middle" x="1216.68" y="-13.32" font-family="Times,serif" font-size="14.00" fill="white">wildmeshing ❎</text>
</a>
</g>
</g>
<!-- mpc&#45;&gt;wildmeshing -->
<g id="edge25" class="edge">
<title>mpc&#45;&gt;wildmeshing</title>
<path fill="none" stroke="black" d="M1137.3,-360.77C1146.42,-350.95 1157.17,-337.7 1163.68,-324 1208.27,-230.13 1215.74,-104.04 1216.72,-47.97"/>
<polygon fill="black" stroke="black" points="1220.22,-48.05 1216.83,-38.01 1213.22,-47.97 1220.22,-48.05"/>
</g>
<!-- ifcopenshell -->
<g id="node17" class="node">
<title>ifcopenshell</title>
<g id="a_node17"><a xlink:href="https://github.com/conda-forge/ifcopenshell-feedstock" xlink:title="ifcopenshell">
<ellipse fill="#000000" stroke="black" cx="1295.68" cy="-306" rx="71.2" ry="18"/>
<text text-anchor="middle" x="1295.68" y="-301.32" font-family="Times,serif" font-size="14.00" fill="white">ifcopenshell</text>
</a>
</g>
</g>
<!-- mpc&#45;&gt;ifcopenshell -->
<g id="edge26" class="edge">
<title>mpc&#45;&gt;ifcopenshell</title>
<path fill="none" stroke="black" d="M1152.37,-364.32C1179.15,-353.61 1217.91,-338.11 1248.37,-325.92"/>
<polygon fill="black" stroke="black" points="1249.38,-329.29 1257.36,-322.33 1246.78,-322.79 1249.38,-329.29"/>
</g>
<!-- gnuradio -->
<g id="node18" class="node">
<title>gnuradio</title>
<g id="a_node18"><a xlink:href="https://github.com/conda-forge/gnuradio-feedstock" xlink:title="gnuradio">
<ellipse fill="#35b779" stroke="black" cx="1348.68" cy="-234" rx="55.94" ry="18"/>
<text text-anchor="middle" x="1348.68" y="-229.32" font-family="Times,serif" font-size="14.00">gnuradio</text>
</a>
</g>
</g>
<!-- mpc&#45;&gt;gnuradio -->
<g id="edge27" class="edge">
<title>mpc&#45;&gt;gnuradio</title>
<path fill="none" stroke="black" d="M1167.41,-374.15C1233.72,-369.02 1349.93,-355.66 1375.68,-324 1390.26,-306.08 1380.11,-280.39 1368.32,-261.22"/>
<polygon fill="black" stroke="black" points="1371.4,-259.53 1362.96,-253.12 1365.56,-263.39 1371.4,-259.53"/>
</g>
<!-- scikit&#45;geometry -->
<g id="node19" class="node">
<title>scikit&#45;geometry</title>
<g id="a_node19"><a xlink:href="https://github.com/conda-forge/scikit-geometry-feedstock" xlink:title="scikit geometry">
<ellipse fill="#35b779" stroke="black" cx="1353.68" cy="-162" rx="89.09" ry="18"/>
<text text-anchor="middle" x="1353.68" y="-157.32" font-family="Times,serif" font-size="14.00">scikit geometry</text>
</a>
</g>
</g>
<!-- mpc&#45;&gt;scikit&#45;geometry -->
<g id="edge28" class="edge">
<title>mpc&#45;&gt;scikit&#45;geometry</title>
<path fill="none" stroke="black" d="M1167.33,-373.7C1236.16,-367.89 1360.29,-353.55 1392.68,-324 1428.8,-291.04 1433.78,-260.58 1413.68,-216 1408.52,-204.55 1399.53,-194.59 1390.05,-186.48"/>
<polygon fill="black" stroke="black" points="1392.51,-183.96 1382.5,-180.5 1388.17,-189.45 1392.51,-183.96"/>
</g>
<!-- pygalmesh -->
<g id="node20" class="node">
<title>pygalmesh</title>
<g id="a_node20"><a xlink:href="https://github.com/conda-forge/pygalmesh-feedstock" xlink:title="pygalmesh">
<ellipse fill="#35b779" stroke="black" cx="1415.68" cy="-90" rx="65.41" ry="18"/>
<text text-anchor="middle" x="1415.68" y="-85.33" font-family="Times,serif" font-size="14.00">pygalmesh</text>
</a>
</g>
</g>
<!-- mpc&#45;&gt;pygalmesh -->
<g id="edge29" class="edge">
<title>mpc&#45;&gt;pygalmesh</title>
<path fill="none" stroke="black" d="M1167.88,-374.87C1242.85,-370.49 1384.32,-357.87 1419.68,-324 1478.36,-267.8 1475.56,-221.67 1451.68,-144 1448.72,-134.37 1443.35,-124.92 1437.64,-116.73"/>
<polygon fill="black" stroke="black" points="1440.62,-114.87 1431.82,-108.97 1435.02,-119.07 1440.62,-114.87"/>
</g>
<!-- compas_cgal -->
<g id="node21" class="node">
<title>compas_cgal</title>
<g id="a_node21"><a xlink:href="https://github.com/conda-forge/compas_cgal-feedstock" xlink:title="compas_cgal">
<ellipse fill="#35b779" stroke="black" cx="1508.68" cy="-18" rx="74.36" ry="18"/>
<text text-anchor="middle" x="1508.68" y="-13.32" font-family="Times,serif" font-size="14.00">compas_cgal</text>
</a>
</g>
</g>
<!-- mpc&#45;&gt;compas_cgal -->
<g id="edge30" class="edge">
<title>mpc&#45;&gt;compas_cgal</title>
<path fill="none" stroke="black" d="M1167.34,-373.95C1246.25,-368.05 1401.91,-353.04 1447.68,-324 1488.17,-298.31 1508.68,-282.95 1508.68,-235 1508.68,-235 1508.68,-235 1508.68,-161 1508.68,-121.74 1508.68,-76.38 1508.68,-47.69"/>
<polygon fill="black" stroke="black" points="1512.18,-48 1508.68,-38 1505.18,-48 1512.18,-48"/>
</g>
<!-- imp -->
<g id="node22" class="node">
<title>imp</title>
<g id="a_node22"><a xlink:href="https://github.com/conda-forge/imp-feedstock" xlink:title="imp">
<ellipse fill="#35b779" stroke="black" cx="1566.68" cy="-306" rx="30.16" ry="18"/>
<text text-anchor="middle" x="1566.68" y="-301.32" font-family="Times,serif" font-size="14.00">imp</text>
</a>
</g>
</g>
<!-- mpc&#45;&gt;imp -->
<g id="edge32" class="edge">
<title>mpc&#45;&gt;imp</title>
<path fill="none" stroke="black" d="M1167.79,-374.42C1243.58,-369.47 1396.83,-356.12 1522.68,-324 1525.8,-323.2 1529.01,-322.25 1532.19,-321.2"/>
<polygon fill="black" stroke="black" points="1533.15,-324.58 1541.38,-317.92 1530.79,-317.99 1533.15,-324.58"/>
</g>
<!-- gmpxxll -->
<g id="node23" class="node">
<title>gmpxxll</title>
<g id="a_node23"><a xlink:href="https://github.com/conda-forge/gmpxxll-feedstock" xlink:title="gmpxxll">
<ellipse fill="#35b779" stroke="black" cx="1587.68" cy="-234" rx="51.21" ry="18"/>
<text text-anchor="middle" x="1587.68" y="-229.32" font-family="Times,serif" font-size="14.00">gmpxxll</text>
</a>
</g>
</g>
<!-- mpc&#45;&gt;gmpxxll -->
<g id="edge33" class="edge">
<title>mpc&#45;&gt;gmpxxll</title>
<path fill="none" stroke="black" d="M1168.15,-375.34C1284.56,-370.79 1576.77,-356.24 1605.68,-324 1620.68,-307.26 1613.39,-281.56 1603.98,-262.07"/>
<polygon fill="black" stroke="black" points="1607.13,-260.53 1599.37,-253.32 1600.93,-263.8 1607.13,-260.53"/>
</g>
<!-- spam -->
<g id="node24" class="node">
<title>spam</title>
<g id="a_node24"><a xlink:href="https://github.com/conda-forge/spam-feedstock" xlink:title="spam">
<ellipse fill="#35b779" stroke="black" cx="1652.68" cy="-162" rx="38.06" ry="18"/>
<text text-anchor="middle" x="1652.68" y="-157.32" font-family="Times,serif" font-size="14.00">spam</text>
</a>
</g>
</g>
<!-- mpc&#45;&gt;spam -->
<g id="edge34" class="edge">
<title>mpc&#45;&gt;spam</title>
<path fill="none" stroke="black" d="M1168,-374.91C1286.42,-369.26 1588.56,-352.23 1623.68,-324 1662.53,-292.77 1661.74,-228.69 1657.4,-191.48"/>
<polygon fill="black" stroke="black" points="1660.92,-191.36 1656.12,-181.92 1653.98,-192.3 1660.92,-191.36"/>
</g>
<!-- pycolmap -->
<g id="node25" class="node">
<title>pycolmap</title>
<g id="a_node25"><a xlink:href="https://github.com/conda-forge/pycolmap-feedstock" xlink:title="pycolmap">
<ellipse fill="#35b779" stroke="black" cx="1718.68" cy="-90" rx="59.1" ry="18"/>
<text text-anchor="middle" x="1718.68" y="-85.33" font-family="Times,serif" font-size="14.00">pycolmap</text>
</a>
</g>
</g>
<!-- mpc&#45;&gt;pycolmap -->
<g id="edge35" class="edge">
<title>mpc&#45;&gt;pycolmap</title>
<path fill="none" stroke="black" d="M1167.72,-375.15C1290.23,-369.94 1612.23,-353.56 1649.68,-324 1712.54,-274.38 1720.12,-170.21 1719.83,-119.69"/>
<polygon fill="black" stroke="black" points="1723.33,-119.8 1719.65,-109.87 1716.33,-119.93 1723.33,-119.8"/>
</g>
<!-- pygplates -->
<g id="node26" class="node">
<title>pygplates</title>
<g id="a_node26"><a xlink:href="https://github.com/conda-forge/pygplates-feedstock" xlink:title="pygplates">
<ellipse fill="#35b779" stroke="black" cx="1805.68" cy="-18" rx="60.15" ry="18"/>
<text text-anchor="middle" x="1805.68" y="-13.32" font-family="Times,serif" font-size="14.00">pygplates</text>
</a>
</g>
</g>
<!-- mpc&#45;&gt;pygplates -->
<g id="edge36" class="edge">
<title>mpc&#45;&gt;pygplates</title>
<path fill="none" stroke="black" d="M1168.57,-377.28C1324.21,-376.94 1805.68,-365.33 1805.68,-235 1805.68,-235 1805.68,-235 1805.68,-161 1805.68,-121.74 1805.68,-76.38 1805.68,-47.69"/>
<polygon fill="black" stroke="black" points="1809.18,-48 1805.68,-38 1802.18,-48 1809.18,-48"/>
</g>
</g>
</svg>
