<?xml version="1.0" encoding="UTF-8" standalone="no"?>
<!DOCTYPE svg PUBLIC "-//W3C//DTD SVG 1.1//EN"
 "http://www.w3.org/Graphics/SVG/1.1/DTD/svg11.dtd">
<!-- Generated by graphviz version 11.0.0 (20240519.1550)
 -->
<!-- Pages: 1 -->
<svg width="2865pt" height="476pt"
 viewBox="0.00 0.00 2865.15 476.00" xmlns="http://www.w3.org/2000/svg" xmlns:xlink="http://www.w3.org/1999/xlink">
<g id="graph0" class="graph" transform="scale(1 1) rotate(0) translate(4 472)">
<polygon fill="white" stroke="none" points="-4,4 -4,-472 2861.15,-472 2861.15,4 -4,4"/>
<!-- arb -->
<g id="node1" class="node">
<title>arb</title>
<g id="a_node1"><a xlink:href="https://github.com/conda-forge/arb-feedstock" xlink:title="arb">
<ellipse fill="#35b779" stroke="black" cx="550" cy="-234" rx="28.06" ry="18"/>
<text text-anchor="middle" x="550" y="-229.32" font-family="Times,serif" font-size="14.00">arb</text>
</a>
</g>
</g>
<!-- mppp -->
<g id="node2" class="node">
<title>mppp</title>
<g id="a_node2"><a xlink:href="https://github.com/conda-forge/mppp-feedstock" xlink:title="mppp">
<ellipse fill="#35b779" stroke="black" cx="550" cy="-162" rx="39.63" ry="18"/>
<text text-anchor="middle" x="550" y="-157.32" font-family="Times,serif" font-size="14.00">mppp</text>
</a>
</g>
</g>
<!-- arb&#45;&gt;mppp -->
<g id="edge1" class="edge">
<title>arb&#45;&gt;mppp</title>
<path fill="none" stroke="black" d="M550,-215.7C550,-208.41 550,-199.73 550,-191.54"/>
<polygon fill="black" stroke="black" points="553.5,-191.62 550,-181.62 546.5,-191.62 553.5,-191.62"/>
</g>
<!-- heyoka.py -->
<g id="node3" class="node">
<title>heyoka.py</title>
<g id="a_node3"><a xlink:href="https://github.com/conda-forge/heyoka.py-feedstock" xlink:title="heyoka py">
<ellipse fill="#35b779" stroke="black" cx="476" cy="-18" rx="61.73" ry="18"/>
<text text-anchor="middle" x="476" y="-13.32" font-family="Times,serif" font-size="14.00">heyoka py</text>
</a>
</g>
</g>
<!-- mppp&#45;&gt;heyoka.py -->
<g id="edge2" class="edge">
<title>mppp&#45;&gt;heyoka.py</title>
<path fill="none" stroke="black" d="M529.5,-146.29C517.64,-136.71 503.44,-123.19 495,-108 484.73,-89.51 480,-66.01 477.83,-47.81"/>
<polygon fill="black" stroke="black" points="481.33,-47.56 476.87,-37.95 474.36,-48.25 481.33,-47.56"/>
</g>
<!-- heyoka -->
<g id="node4" class="node">
<title>heyoka</title>
<g id="a_node4"><a xlink:href="https://github.com/conda-forge/heyoka-feedstock" xlink:title="heyoka">
<ellipse fill="#35b779" stroke="black" cx="550" cy="-90" rx="46.47" ry="18"/>
<text text-anchor="middle" x="550" y="-85.33" font-family="Times,serif" font-size="14.00">heyoka</text>
</a>
</g>
</g>
<!-- mppp&#45;&gt;heyoka -->
<g id="edge3" class="edge">
<title>mppp&#45;&gt;heyoka</title>
<path fill="none" stroke="black" d="M550,-143.7C550,-136.41 550,-127.73 550,-119.54"/>
<polygon fill="black" stroke="black" points="553.5,-119.62 550,-109.62 546.5,-119.62 553.5,-119.62"/>
</g>
<!-- heyoka&#45;&gt;heyoka.py -->
<g id="edge64" class="edge">
<title>heyoka&#45;&gt;heyoka.py</title>
<path fill="none" stroke="black" d="M533.21,-73.12C523.95,-64.36 512.25,-53.29 501.85,-43.45"/>
<polygon fill="black" stroke="black" points="504.27,-40.92 494.6,-36.59 499.46,-46.01 504.27,-40.92"/>
</g>
<!-- cgal -->
<g id="node5" class="node">
<title>cgal</title>
<g id="a_node5"><a xlink:href="https://github.com/conda-forge/cgal-feedstock" xlink:title="cgal">
<ellipse fill="#35b779" stroke="black" cx="598" cy="-306" rx="31.74" ry="18"/>
<text text-anchor="middle" x="598" y="-301.32" font-family="Times,serif" font-size="14.00">cgal</text>
</a>
</g>
</g>
<!-- gmpy2 -->
<g id="node6" class="node">
<title>gmpy2</title>
<g id="a_node6"><a xlink:href="https://github.com/conda-forge/gmpy2-feedstock" xlink:title="gmpy2">
<ellipse fill="#35b779" stroke="black" cx="207" cy="-306" rx="45.42" ry="18"/>
<text text-anchor="middle" x="207" y="-301.32" font-family="Times,serif" font-size="14.00">gmpy2</text>
</a>
</g>
</g>
<!-- gmpy2&#45;&gt;heyoka.py -->
<g id="edge5" class="edge">
<title>gmpy2&#45;&gt;heyoka.py</title>
<path fill="none" stroke="black" d="M166.56,-297.28C141.28,-290.13 110.65,-276.72 95,-252 86.44,-238.48 86.68,-229.67 95,-216 164.62,-101.63 324.4,-50.73 413.34,-30.57"/>
<polygon fill="black" stroke="black" points="413.86,-34.04 422.88,-28.47 412.36,-27.2 413.86,-34.04"/>
</g>
<!-- python&#45;symengine -->
<g id="node7" class="node">
<title>python&#45;symengine</title>
<g id="a_node7"><a xlink:href="https://github.com/conda-forge/python-symengine-feedstock" xlink:title="python symengine">
<ellipse fill="#35b779" stroke="black" cx="207" cy="-234" rx="103.29" ry="18"/>
<text text-anchor="middle" x="207" y="-229.32" font-family="Times,serif" font-size="14.00">python symengine</text>
</a>
</g>
</g>
<!-- gmpy2&#45;&gt;python&#45;symengine -->
<g id="edge4" class="edge">
<title>gmpy2&#45;&gt;python&#45;symengine</title>
<path fill="none" stroke="black" d="M207,-287.7C207,-280.41 207,-271.73 207,-263.54"/>
<polygon fill="black" stroke="black" points="210.5,-263.62 207,-253.62 203.5,-263.62 210.5,-263.62"/>
</g>
<!-- igraph -->
<g id="node8" class="node">
<title>igraph</title>
<g id="a_node8"><a xlink:href="https://github.com/conda-forge/igraph-feedstock" xlink:title="igraph">
<ellipse fill="#35b779" stroke="black" cx="692" cy="-306" rx="43.84" ry="18"/>
<text text-anchor="middle" x="692" y="-301.32" font-family="Times,serif" font-size="14.00">igraph</text>
</a>
</g>
</g>
<!-- libflint -->
<g id="node9" class="node">
<title>libflint</title>
<g id="a_node9"><a xlink:href="https://github.com/conda-forge/libflint-feedstock" xlink:title="libflint">
<ellipse fill="#35b779" stroke="black" cx="352" cy="-306" rx="43.84" ry="18"/>
<text text-anchor="middle" x="352" y="-301.32" font-family="Times,serif" font-size="14.00">libflint</text>
</a>
</g>
</g>
<!-- libflint&#45;&gt;arb -->
<g id="edge6" class="edge">
<title>libflint&#45;&gt;arb</title>
<path fill="none" stroke="black" d="M386.95,-294.74C419.83,-284.8 470.27,-268.79 513,-252 514.52,-251.4 516.07,-250.77 517.63,-250.12"/>
<polygon fill="black" stroke="black" points="518.72,-253.47 526.48,-246.26 515.92,-247.05 518.72,-253.47"/>
</g>
<!-- libflint&#45;&gt;mppp -->
<g id="edge7" class="edge">
<title>libflint&#45;&gt;mppp</title>
<path fill="none" stroke="black" d="M347.57,-287.85C343.61,-268.23 340.66,-236.23 357,-216 375.02,-193.7 450,-178.13 501.02,-169.87"/>
<polygon fill="black" stroke="black" points="501.32,-173.37 510.66,-168.36 500.24,-166.45 501.32,-173.37"/>
</g>
<!-- libflint&#45;&gt;python&#45;symengine -->
<g id="edge8" class="edge">
<title>libflint&#45;&gt;python&#45;symengine</title>
<path fill="none" stroke="black" d="M324.39,-291.67C303.7,-281.68 274.98,-267.82 251.12,-256.3"/>
<polygon fill="black" stroke="black" points="252.78,-253.22 242.26,-252.02 249.74,-259.52 252.78,-253.22"/>
</g>
<!-- python&#45;flint -->
<g id="node10" class="node">
<title>python&#45;flint</title>
<g id="a_node10"><a xlink:href="https://github.com/conda-forge/python-flint-feedstock" xlink:title="python flint">
<ellipse fill="#35b779" stroke="black" cx="435" cy="-234" rx="69.1" ry="18"/>
<text text-anchor="middle" x="435" y="-229.32" font-family="Times,serif" font-size="14.00">python flint</text>
</a>
</g>
</g>
<!-- libflint&#45;&gt;python&#45;flint -->
<g id="edge9" class="edge">
<title>libflint&#45;&gt;python&#45;flint</title>
<path fill="none" stroke="black" d="M370.42,-289.46C381,-280.54 394.51,-269.14 406.44,-259.08"/>
<polygon fill="black" stroke="black" points="408.64,-261.81 414.03,-252.69 404.12,-256.46 408.64,-261.81"/>
</g>
<!-- normaliz -->
<g id="node11" class="node">
<title>normaliz</title>
<g id="a_node11"><a xlink:href="https://github.com/conda-forge/normaliz-feedstock" xlink:title="normaliz">
<ellipse fill="#35b779" stroke="black" cx="651" cy="-234" rx="54.89" ry="18"/>
<text text-anchor="middle" x="651" y="-229.32" font-family="Times,serif" font-size="14.00">normaliz</text>
</a>
</g>
</g>
<!-- libflint&#45;&gt;normaliz -->
<g id="edge10" class="edge">
<title>libflint&#45;&gt;normaliz</title>
<path fill="none" stroke="black" d="M390.37,-296.81C436.98,-286.76 517.95,-268.95 587,-252 590.8,-251.07 594.72,-250.08 598.66,-249.07"/>
<polygon fill="black" stroke="black" points="599.48,-252.48 608.28,-246.58 597.72,-245.7 599.48,-252.48"/>
</g>
<!-- antic -->
<g id="node12" class="node">
<title>antic</title>
<g id="a_node12"><a xlink:href="https://github.com/conda-forge/antic-feedstock" xlink:title="antic">
<ellipse fill="#35b779" stroke="black" cx="760" cy="-234" rx="35.95" ry="18"/>
<text text-anchor="middle" x="760" y="-229.32" font-family="Times,serif" font-size="14.00">antic</text>
</a>
</g>
</g>
<!-- libflint&#45;&gt;antic -->
<g id="edge11" class="edge">
<title>libflint&#45;&gt;antic</title>
<path fill="none" stroke="black" d="M393.41,-299.47C481.99,-287.56 684.32,-259.93 715,-252 717.43,-251.37 719.91,-250.66 722.4,-249.88"/>
<polygon fill="black" stroke="black" points="723.41,-253.24 731.75,-246.7 721.15,-246.61 723.41,-253.24"/>
</g>
<!-- mpc -->
<g id="node13" class="node">
<title>mpc</title>
<g id="a_node13"><a xlink:href="https://github.com/conda-forge/mpc-feedstock" xlink:title="mpc">
<ellipse fill="#35b779" stroke="black" cx="1185" cy="-450" rx="32.27" ry="18"/>
<text text-anchor="middle" x="1185" y="-445.32" font-family="Times,serif" font-size="14.00">mpc</text>
</a>
</g>
</g>
<!-- mpc&#45;&gt;arb -->
<g id="edge12" class="edge">
<title>mpc&#45;&gt;arb</title>
<path fill="none" stroke="black" d="M1152.39,-449.06C1020.54,-448.99 531.77,-445.37 486,-396 453.37,-360.8 465.57,-331.44 486,-288 493,-273.12 506.44,-260.99 519.22,-252.1"/>
<polygon fill="black" stroke="black" points="520.96,-255.14 527.46,-246.77 517.16,-249.26 520.96,-255.14"/>
</g>
<!-- mpc&#45;&gt;mppp -->
<g id="edge13" class="edge">
<title>mpc&#45;&gt;mppp</title>
<path fill="none" stroke="black" d="M1152.44,-448.24C1033.23,-444.66 624.1,-425.06 557,-324 548.15,-310.67 546.53,-300.1 557,-288 629.88,-203.78 732.12,-336.22 805,-252 815.47,-239.9 815.1,-228.41 805,-216 779.71,-184.91 667.2,-171.47 600.37,-166.14"/>
<polygon fill="black" stroke="black" points="601,-162.67 590.76,-165.4 600.47,-169.65 601,-162.67"/>
</g>
<!-- mpc&#45;&gt;heyoka.py -->
<g id="edge17" class="edge">
<title>mpc&#45;&gt;heyoka.py</title>
<path fill="none" stroke="black" d="M1152.46,-449.21C977.87,-450.08 156.28,-451.21 59,-396 17.73,-372.58 0,-354.46 0,-307 0,-307 0,-307 0,-161 0,-77.2 274.3,-38.8 406.45,-25.16"/>
<polygon fill="black" stroke="black" points="406.53,-28.67 416.13,-24.18 405.83,-21.71 406.53,-28.67"/>
</g>
<!-- mpc&#45;&gt;heyoka -->
<g id="edge32" class="edge">
<title>mpc&#45;&gt;heyoka</title>
<path fill="none" stroke="black" d="M1152.53,-448.34C989.58,-444.87 264.97,-427.76 170,-396 102.9,-373.56 38,-377.76 38,-307 38,-307 38,-307 38,-233 38,-139.45 359.43,-105 492.93,-94.72"/>
<polygon fill="black" stroke="black" points="492.89,-98.24 502.6,-94 492.37,-91.26 492.89,-98.24"/>
</g>
<!-- mpc&#45;&gt;cgal -->
<g id="edge14" class="edge">
<title>mpc&#45;&gt;cgal</title>
<path fill="none" stroke="black" d="M1153.5,-445.92C1093.44,-439.63 958.64,-423.53 848,-396 752.66,-372.28 730.86,-358.83 639,-324 637.08,-323.27 635.12,-322.51 633.15,-321.74"/>
<polygon fill="black" stroke="black" points="634.61,-318.55 624.02,-318.06 631.99,-325.04 634.61,-318.55"/>
</g>
<!-- mpc&#45;&gt;gmpy2 -->
<g id="edge15" class="edge">
<title>mpc&#45;&gt;gmpy2</title>
<path fill="none" stroke="black" d="M1152.3,-448.83C997.68,-447.82 344.12,-440.88 266,-396 242.56,-382.54 226.69,-355.54 217.36,-334.79"/>
<polygon fill="black" stroke="black" points="220.65,-333.58 213.54,-325.72 214.19,-336.3 220.65,-333.58"/>
</g>
<!-- mpc&#45;&gt;python&#45;symengine -->
<g id="edge16" class="edge">
<title>mpc&#45;&gt;python&#45;symengine</title>
<path fill="none" stroke="black" d="M1152.47,-448.54C994.81,-446.11 314.27,-433.51 228,-396 185.63,-377.57 171.12,-366.51 153,-324 146.73,-309.28 146.81,-302.75 153,-288 157.54,-277.19 165.47,-267.48 173.89,-259.41"/>
<polygon fill="black" stroke="black" points="176.06,-262.16 181.22,-252.91 171.42,-256.92 176.06,-262.16"/>
</g>
<!-- mpc&#45;&gt;igraph -->
<g id="edge18" class="edge">
<title>mpc&#45;&gt;igraph</title>
<path fill="none" stroke="black" d="M1155.27,-442.62C1112.82,-433.33 1032.48,-415.1 965,-396 883.05,-372.81 788.89,-340.93 735.32,-322.29"/>
<polygon fill="black" stroke="black" points="736.55,-319.01 725.95,-319.02 734.24,-325.62 736.55,-319.01"/>
</g>
<!-- mpc&#45;&gt;libflint -->
<g id="edge19" class="edge">
<title>mpc&#45;&gt;libflint</title>
<path fill="none" stroke="black" d="M1152.45,-448.47C1013.58,-446 474.77,-434.02 410,-396 386.81,-382.39 371.22,-355.41 362.1,-334.71"/>
<polygon fill="black" stroke="black" points="365.42,-333.59 358.38,-325.67 358.95,-336.25 365.42,-333.59"/>
</g>
<!-- mpc&#45;&gt;python&#45;flint -->
<g id="edge20" class="edge">
<title>mpc&#45;&gt;python&#45;flint</title>
<path fill="none" stroke="black" d="M1152.55,-448.21C1010.23,-444.54 445.13,-428.07 373,-396 319.83,-372.36 266.16,-336.04 299,-288 313.82,-266.31 338.94,-253.5 363.59,-245.93"/>
<polygon fill="black" stroke="black" points="364.31,-249.36 373,-243.31 362.43,-242.62 364.31,-249.36"/>
</g>
<!-- mpc&#45;&gt;normaliz -->
<g id="edge21" class="edge">
<title>mpc&#45;&gt;normaliz</title>
<path fill="none" stroke="black" d="M1152.55,-449.01C1022.5,-448.74 543.83,-444.43 499,-396 488.84,-385.03 481.24,-314.08 500,-288 506.18,-279.41 558.51,-262.27 599.85,-249.8"/>
<polygon fill="black" stroke="black" points="600.6,-253.23 609.18,-247.01 598.6,-246.52 600.6,-253.23"/>
</g>
<!-- mpc&#45;&gt;antic -->
<g id="edge22" class="edge">
<title>mpc&#45;&gt;antic</title>
<path fill="none" stroke="black" d="M1152.44,-448.91C1025.28,-448.24 567,-442.58 524,-396 491.44,-360.73 493.36,-324.95 524,-288 579.14,-221.5 631.83,-275.35 715,-252 717.26,-251.37 719.57,-250.66 721.89,-249.92"/>
<polygon fill="black" stroke="black" points="722.91,-253.27 731.22,-246.7 720.62,-246.65 722.91,-253.27"/>
</g>
<!-- mpfr -->
<g id="node14" class="node">
<title>mpfr</title>
<g id="a_node14"><a xlink:href="https://github.com/conda-forge/mpfr-feedstock" xlink:title="mpfr">
<ellipse fill="#35b779" stroke="black" cx="1185" cy="-378" rx="35.42" ry="18"/>
<text text-anchor="middle" x="1185" y="-373.32" font-family="Times,serif" font-size="14.00">mpfr</text>
</a>
</g>
</g>
<!-- mpc&#45;&gt;mpfr -->
<g id="edge23" class="edge">
<title>mpc&#45;&gt;mpfr</title>
<path fill="none" stroke="black" d="M1179.12,-432.05C1178.33,-424.57 1178.08,-415.58 1178.37,-407.14"/>
<polygon fill="black" stroke="black" points="1181.85,-407.51 1179.04,-397.3 1174.87,-407.04 1181.85,-407.51"/>
</g>
<!-- python&#45;igraph -->
<g id="node15" class="node">
<title>python&#45;igraph</title>
<g id="a_node15"><a xlink:href="https://github.com/conda-forge/python-igraph-feedstock" xlink:title="python igraph">
<ellipse fill="#35b779" stroke="black" cx="836" cy="-306" rx="81.72" ry="18"/>
<text text-anchor="middle" x="836" y="-301.32" font-family="Times,serif" font-size="14.00">python igraph</text>
</a>
</g>
</g>
<!-- mpc&#45;&gt;python&#45;igraph -->
<g id="edge24" class="edge">
<title>mpc&#45;&gt;python&#45;igraph</title>
<path fill="none" stroke="black" d="M1159.34,-438.56C1101.35,-414.96 959.42,-357.22 884.36,-326.68"/>
<polygon fill="black" stroke="black" points="885.77,-323.47 875.19,-322.95 883.14,-329.96 885.77,-323.47"/>
</g>
<!-- gudhi -->
<g id="node16" class="node">
<title>gudhi</title>
<g id="a_node16"><a xlink:href="https://github.com/conda-forge/gudhi-feedstock" xlink:title="gudhi">
<ellipse fill="#35b779" stroke="black" cx="1280" cy="-306" rx="39.63" ry="18"/>
<text text-anchor="middle" x="1280" y="-301.32" font-family="Times,serif" font-size="14.00">gudhi</text>
</a>
</g>
</g>
<!-- mpc&#45;&gt;gudhi -->
<g id="edge25" class="edge">
<title>mpc&#45;&gt;gudhi</title>
<path fill="none" stroke="black" d="M1198.83,-433.79C1207.89,-423.49 1219.73,-409.36 1229,-396 1242.85,-376.04 1256.43,-352.07 1266.09,-334.04"/>
<polygon fill="black" stroke="black" points="1269.14,-335.74 1270.72,-325.26 1262.95,-332.47 1269.14,-335.74"/>
</g>
<!-- wildmeshing -->
<g id="node17" class="node">
<title>wildmeshing</title>
<g id="a_node17"><a xlink:href="https://github.com/conda-forge/wildmeshing-feedstock" xlink:title="wildmeshing">
<ellipse fill="#35b779" stroke="black" cx="1413" cy="-306" rx="74.88" ry="18"/>
<text text-anchor="middle" x="1413" y="-301.32" font-family="Times,serif" font-size="14.00">wildmeshing</text>
</a>
</g>
</g>
<!-- mpc&#45;&gt;wildmeshing -->
<g id="edge26" class="edge">
<title>mpc&#45;&gt;wildmeshing</title>
<path fill="none" stroke="black" d="M1206.04,-435.9C1245.05,-411.6 1328.98,-359.33 1377.12,-329.35"/>
<polygon fill="black" stroke="black" points="1378.89,-332.36 1385.53,-324.11 1375.19,-326.42 1378.89,-332.36"/>
</g>
<!-- ifcopenshell -->
<g id="node18" class="node">
<title>ifcopenshell</title>
<g id="a_node18"><a xlink:href="https://github.com/conda-forge/ifcopenshell-feedstock" xlink:title="ifcopenshell">
<ellipse fill="#35b779" stroke="black" cx="1577" cy="-306" rx="71.2" ry="18"/>
<text text-anchor="middle" x="1577" y="-301.32" font-family="Times,serif" font-size="14.00">ifcopenshell</text>
</a>
</g>
</g>
<!-- mpc&#45;&gt;ifcopenshell -->
<g id="edge27" class="edge">
<title>mpc&#45;&gt;ifcopenshell</title>
<path fill="none" stroke="black" d="M1211.64,-439.35C1276.28,-415.93 1442.35,-355.78 1526.51,-325.29"/>
<polygon fill="black" stroke="black" points="1527.7,-328.58 1535.91,-321.89 1525.31,-322 1527.7,-328.58"/>
</g>
<!-- gnuradio -->
<g id="node19" class="node">
<title>gnuradio</title>
<g id="a_node19"><a xlink:href="https://github.com/conda-forge/gnuradio-feedstock" xlink:title="gnuradio">
<ellipse fill="#35b779" stroke="black" cx="1722" cy="-306" rx="55.94" ry="18"/>
<text text-anchor="middle" x="1722" y="-301.32" font-family="Times,serif" font-size="14.00">gnuradio</text>
</a>
</g>
</g>
<!-- mpc&#45;&gt;gnuradio -->
<g id="edge28" class="edge">
<title>mpc&#45;&gt;gnuradio</title>
<path fill="none" stroke="black" d="M1214.26,-441.8C1254.88,-431.76 1330.62,-412.88 1395,-396 1492.18,-370.52 1605.19,-339.43 1669.69,-321.56"/>
<polygon fill="black" stroke="black" points="1670.61,-324.93 1679.31,-318.89 1668.74,-318.19 1670.61,-324.93"/>
</g>
<!-- scikit&#45;geometry -->
<g id="node20" class="node">
<title>scikit&#45;geometry</title>
<g id="a_node20"><a xlink:href="https://github.com/conda-forge/scikit-geometry-feedstock" xlink:title="scikit geometry">
<ellipse fill="#35b779" stroke="black" cx="1885" cy="-306" rx="89.09" ry="18"/>
<text text-anchor="middle" x="1885" y="-301.32" font-family="Times,serif" font-size="14.00">scikit geometry</text>
</a>
</g>
</g>
<!-- mpc&#45;&gt;scikit&#45;geometry -->
<g id="edge29" class="edge">
<title>mpc&#45;&gt;scikit&#45;geometry</title>
<path fill="none" stroke="black" d="M1215.64,-443.65C1268.19,-434.4 1378.84,-414.64 1472,-396 1593.24,-371.75 1733.89,-340.84 1815.81,-322.57"/>
<polygon fill="black" stroke="black" points="1816.5,-326 1825.5,-320.4 1814.98,-319.17 1816.5,-326"/>
</g>
<!-- pygalmesh -->
<g id="node21" class="node">
<title>pygalmesh</title>
<g id="a_node21"><a xlink:href="https://github.com/conda-forge/pygalmesh-feedstock" xlink:title="pygalmesh">
<ellipse fill="#35b779" stroke="black" cx="2058" cy="-306" rx="65.41" ry="18"/>
<text text-anchor="middle" x="2058" y="-301.32" font-family="Times,serif" font-size="14.00">pygalmesh</text>
</a>
</g>
</g>
<!-- mpc&#45;&gt;pygalmesh -->
<g id="edge30" class="edge">
<title>mpc&#45;&gt;pygalmesh</title>
<path fill="none" stroke="black" d="M1216.41,-445.1C1282.39,-436.83 1440.17,-416.57 1572,-396 1755.23,-367.41 1801.18,-360.51 1983,-324 1987.92,-323.01 1993.01,-321.95 1998.12,-320.85"/>
<polygon fill="black" stroke="black" points="1998.76,-324.29 2007.78,-318.74 1997.26,-317.46 1998.76,-324.29"/>
</g>
<!-- compas_cgal -->
<g id="node22" class="node">
<title>compas_cgal</title>
<g id="a_node22"><a xlink:href="https://github.com/conda-forge/compas_cgal-feedstock" xlink:title="compas_cgal">
<ellipse fill="#35b779" stroke="black" cx="2216" cy="-306" rx="74.36" ry="18"/>
<text text-anchor="middle" x="2216" y="-301.32" font-family="Times,serif" font-size="14.00">compas_cgal</text>
</a>
</g>
</g>
<!-- mpc&#45;&gt;compas_cgal -->
<g id="edge31" class="edge">
<title>mpc&#45;&gt;compas_cgal</title>
<path fill="none" stroke="black" d="M1217.07,-446.35C1297.72,-439.54 1515.45,-420.25 1696,-396 1890.65,-369.86 1938.83,-359.48 2132,-324 2137.85,-322.92 2143.93,-321.77 2150.01,-320.59"/>
<polygon fill="black" stroke="black" points="2150.31,-324.1 2159.44,-318.73 2148.96,-317.23 2150.31,-324.1"/>
</g>
<!-- imp -->
<g id="node23" class="node">
<title>imp</title>
<g id="a_node23"><a xlink:href="https://github.com/conda-forge/imp-feedstock" xlink:title="imp">
<ellipse fill="#35b779" stroke="black" cx="2339" cy="-306" rx="30.16" ry="18"/>
<text text-anchor="middle" x="2339" y="-301.32" font-family="Times,serif" font-size="14.00">imp</text>
</a>
</g>
</g>
<!-- mpc&#45;&gt;imp -->
<g id="edge33" class="edge">
<title>mpc&#45;&gt;imp</title>
<path fill="none" stroke="black" d="M1217.65,-449.21C1353.25,-449.29 1884.29,-441.67 2299,-324 2301.12,-323.4 2303.28,-322.71 2305.44,-321.97"/>
<polygon fill="black" stroke="black" points="2306.59,-325.28 2314.68,-318.44 2304.09,-318.74 2306.59,-325.28"/>
</g>
<!-- gmpxxll -->
<g id="node24" class="node">
<title>gmpxxll</title>
<g id="a_node24"><a xlink:href="https://github.com/conda-forge/gmpxxll-feedstock" xlink:title="gmpxxll">
<ellipse fill="#35b779" stroke="black" cx="2438" cy="-306" rx="51.21" ry="18"/>
<text text-anchor="middle" x="2438" y="-301.32" font-family="Times,serif" font-size="14.00">gmpxxll</text>
</a>
</g>
</g>
<!-- mpc&#45;&gt;gmpxxll -->
<g id="edge34" class="edge">
<title>mpc&#45;&gt;gmpxxll</title>
<path fill="none" stroke="black" d="M1217.46,-449.07C1333.92,-448.91 1741.41,-444.66 2073,-396 2188.08,-379.11 2319.94,-342.57 2389.36,-321.94"/>
<polygon fill="black" stroke="black" points="2390.34,-325.31 2398.91,-319.09 2388.33,-318.6 2390.34,-325.31"/>
</g>
<!-- spam -->
<g id="node25" class="node">
<title>spam</title>
<g id="a_node25"><a xlink:href="https://github.com/conda-forge/spam-feedstock" xlink:title="spam">
<ellipse fill="#35b779" stroke="black" cx="2545" cy="-306" rx="38.06" ry="18"/>
<text text-anchor="middle" x="2545" y="-301.32" font-family="Times,serif" font-size="14.00">spam</text>
</a>
</g>
</g>
<!-- mpc&#45;&gt;spam -->
<g id="edge35" class="edge">
<title>mpc&#45;&gt;spam</title>
<path fill="none" stroke="black" d="M1217.56,-449.18C1342.05,-449.46 1799.64,-446.77 2172,-396 2319.02,-375.95 2355.49,-365.32 2498,-324 2500.4,-323.3 2502.86,-322.55 2505.33,-321.75"/>
<polygon fill="black" stroke="black" points="2506.32,-325.12 2514.68,-318.6 2504.08,-318.48 2506.32,-325.12"/>
</g>
<!-- pycolmap -->
<g id="node26" class="node">
<title>pycolmap</title>
<g id="a_node26"><a xlink:href="https://github.com/conda-forge/pycolmap-feedstock" xlink:title="pycolmap">
<ellipse fill="#35b779" stroke="black" cx="2660" cy="-306" rx="59.1" ry="18"/>
<text text-anchor="middle" x="2660" y="-301.32" font-family="Times,serif" font-size="14.00">pycolmap</text>
</a>
</g>
</g>
<!-- mpc&#45;&gt;pycolmap -->
<g id="edge36" class="edge">
<title>mpc&#45;&gt;pycolmap</title>
<path fill="none" stroke="black" d="M1217.41,-448.23C1375.85,-444.35 2069.99,-425.92 2284,-396 2401.45,-379.58 2536,-343.39 2608.02,-322.57"/>
<polygon fill="black" stroke="black" points="2608.95,-325.95 2617.58,-319.79 2607,-319.22 2608.95,-325.95"/>
</g>
<!-- pygplates -->
<g id="node27" class="node">
<title>pygplates</title>
<g id="a_node27"><a xlink:href="https://github.com/conda-forge/pygplates-feedstock" xlink:title="pygplates">
<ellipse fill="#35b779" stroke="black" cx="2797" cy="-306" rx="60.15" ry="18"/>
<text text-anchor="middle" x="2797" y="-301.32" font-family="Times,serif" font-size="14.00">pygplates</text>
</a>
</g>
</g>
<!-- mpc&#45;&gt;pygplates -->
<g id="edge37" class="edge">
<title>mpc&#45;&gt;pygplates</title>
<path fill="none" stroke="black" d="M1217.58,-448.28C1385.08,-444.49 2150.47,-425.79 2386,-396 2515.61,-379.61 2664.85,-342.64 2742.94,-321.88"/>
<polygon fill="black" stroke="black" points="2743.72,-325.29 2752.47,-319.33 2741.91,-318.53 2743.72,-325.29"/>
</g>
<!-- mpfr&#45;&gt;arb -->
<g id="edge38" class="edge">
<title>mpfr&#45;&gt;arb</title>
<path fill="none" stroke="black" d="M1153.06,-369.77C1121.68,-361.74 1073.22,-346.82 1036,-324 1016.17,-311.84 1019.22,-297.55 998,-288 830.79,-212.75 764.25,-298.97 587,-252 585.25,-251.54 583.48,-251 581.71,-250.4"/>
<polygon fill="black" stroke="black" points="583.05,-247.16 572.47,-246.74 580.47,-253.67 583.05,-247.16"/>
</g>
<!-- mpfr&#45;&gt;mppp -->
<g id="edge39" class="edge">
<title>mpfr&#45;&gt;mppp</title>
<path fill="none" stroke="black" d="M1175.53,-360.19C1163.26,-339.98 1139.98,-306.47 1111,-288 946.33,-183.03 705.57,-165.5 601.29,-163.07"/>
<polygon fill="black" stroke="black" points="601.44,-159.57 591.37,-162.88 601.3,-166.57 601.44,-159.57"/>
</g>
<!-- mpfr&#45;&gt;heyoka.py -->
<g id="edge43" class="edge">
<title>mpfr&#45;&gt;heyoka.py</title>
<path fill="none" stroke="black" d="M1190.33,-360.15C1198.2,-333.75 1212,-280.92 1212,-235 1212,-235 1212,-235 1212,-161 1212,-93.6 729.94,-42.29 546.09,-25.17"/>
<polygon fill="black" stroke="black" points="546.46,-21.69 536.18,-24.25 545.82,-28.66 546.46,-21.69"/>
</g>
<!-- mpfr&#45;&gt;heyoka -->
<g id="edge58" class="edge">
<title>mpfr&#45;&gt;heyoka</title>
<path fill="none" stroke="black" d="M1180.56,-359.78C1174.84,-340.39 1163.26,-308.88 1144,-288 1099.75,-240.02 1076.44,-240.65 1016,-216 871.63,-157.12 690.83,-117.78 602.91,-100.69"/>
<polygon fill="black" stroke="black" points="603.61,-97.26 593.13,-98.81 602.29,-104.14 603.61,-97.26"/>
</g>
<!-- mpfr&#45;&gt;cgal -->
<g id="edge40" class="edge">
<title>mpfr&#45;&gt;cgal</title>
<path fill="none" stroke="black" d="M1149.25,-377.16C1061.14,-376.77 827.02,-370.99 639,-324 636.87,-323.47 634.71,-322.84 632.54,-322.15"/>
<polygon fill="black" stroke="black" points="633.9,-318.92 623.3,-318.8 631.51,-325.5 633.9,-318.92"/>
</g>
<!-- mpfr&#45;&gt;gmpy2 -->
<g id="edge41" class="edge">
<title>mpfr&#45;&gt;gmpy2</title>
<path fill="none" stroke="black" d="M1149.41,-376.44C1029.27,-374.22 627.87,-364.07 299,-324 285.4,-322.34 270.77,-319.93 257.26,-317.44"/>
<polygon fill="black" stroke="black" points="258.2,-314.06 247.72,-315.63 256.89,-320.93 258.2,-314.06"/>
</g>
<!-- mpfr&#45;&gt;python&#45;symengine -->
<g id="edge42" class="edge">
<title>mpfr&#45;&gt;python&#45;symengine</title>
<path fill="none" stroke="black" d="M1149.88,-375.1C1103.49,-371.24 1020.59,-359.51 960,-324 941.27,-313.03 946.58,-297.36 927,-288 812.49,-233.26 483.43,-263.15 357,-252 338.95,-250.41 319.7,-248.44 301.23,-246.4"/>
<polygon fill="black" stroke="black" points="301.67,-242.93 291.35,-245.3 300.9,-249.89 301.67,-242.93"/>
</g>
<!-- mpfr&#45;&gt;igraph -->
<g id="edge44" class="edge">
<title>mpfr&#45;&gt;igraph</title>
<path fill="none" stroke="black" d="M1149.54,-375.03C1074.27,-370.34 893.27,-356.4 745,-324 741.86,-323.31 738.64,-322.52 735.41,-321.65"/>
<polygon fill="black" stroke="black" points="736.56,-318.34 725.98,-318.93 734.62,-325.07 736.56,-318.34"/>
</g>
<!-- mpfr&#45;&gt;libflint -->
<g id="edge45" class="edge">
<title>mpfr&#45;&gt;libflint</title>
<path fill="none" stroke="black" d="M1150,-374.06C1019.94,-363.13 563.79,-324.8 406.11,-311.55"/>
<polygon fill="black" stroke="black" points="406.61,-308.08 396.35,-310.73 406.02,-315.05 406.61,-308.08"/>
</g>
<!-- mpfr&#45;&gt;python&#45;flint -->
<g id="edge46" class="edge">
<title>mpfr&#45;&gt;python&#45;flint</title>
<path fill="none" stroke="black" d="M1151.02,-372.4C1112.02,-366.01 1047.13,-351.95 998,-324 977.78,-312.5 981.25,-297.47 960,-288 868.98,-247.42 611.57,-266.64 513,-252 507.4,-251.17 501.61,-250.17 495.82,-249.08"/>
<polygon fill="black" stroke="black" points="496.72,-245.69 486.23,-247.18 495.36,-252.56 496.72,-245.69"/>
</g>
<!-- mpfr&#45;&gt;normaliz -->
<g id="edge47" class="edge">
<title>mpfr&#45;&gt;normaliz</title>
<path fill="none" stroke="black" d="M1157.25,-366.59C1133.97,-357.22 1100.4,-342.14 1074,-324 1054.82,-310.83 1057.1,-297.8 1036,-288 905.81,-227.5 856.09,-278.5 715,-252 710.74,-251.2 706.34,-250.27 701.94,-249.25"/>
<polygon fill="black" stroke="black" points="703.09,-245.93 692.55,-246.97 701.44,-252.73 703.09,-245.93"/>
</g>
<!-- mpfr&#45;&gt;antic -->
<g id="edge48" class="edge">
<title>mpfr&#45;&gt;antic</title>
<path fill="none" stroke="black" d="M1167.45,-362.12C1138.91,-338.04 1084.54,-292.72 1074,-288 985.43,-248.29 870.66,-238.12 807.28,-235.65"/>
<polygon fill="black" stroke="black" points="807.69,-232.16 797.57,-235.32 807.45,-239.15 807.69,-232.16"/>
</g>
<!-- mpfr&#45;&gt;mpc -->
<g id="edge49" class="edge">
<title>mpfr&#45;&gt;mpc</title>
<path fill="none" stroke="black" d="M1190.86,-395.79C1191.66,-403.25 1191.92,-412.24 1191.64,-420.69"/>
<polygon fill="black" stroke="black" points="1188.16,-420.33 1190.98,-430.54 1195.14,-420.8 1188.16,-420.33"/>
</g>
<!-- mpfr&#45;&gt;python&#45;igraph -->
<g id="edge50" class="edge">
<title>mpfr&#45;&gt;python&#45;igraph</title>
<path fill="none" stroke="black" d="M1152.48,-370.48C1096.55,-359.26 980.94,-336.07 906.01,-321.04"/>
<polygon fill="black" stroke="black" points="906.78,-317.63 896.29,-319.09 905.41,-324.49 906.78,-317.63"/>
</g>
<!-- mpfr&#45;&gt;gudhi -->
<g id="edge51" class="edge">
<title>mpfr&#45;&gt;gudhi</title>
<path fill="none" stroke="black" d="M1204.22,-362.83C1217.6,-352.98 1235.69,-339.65 1250.84,-328.49"/>
<polygon fill="black" stroke="black" points="1252.63,-331.52 1258.6,-322.77 1248.47,-325.88 1252.63,-331.52"/>
</g>
<!-- mpfr&#45;&gt;wildmeshing -->
<g id="edge52" class="edge">
<title>mpfr&#45;&gt;wildmeshing</title>
<path fill="none" stroke="black" d="M1214.81,-367.85C1250.94,-356.76 1312.56,-337.84 1357.52,-324.03"/>
<polygon fill="black" stroke="black" points="1358.3,-327.46 1366.83,-321.17 1356.24,-320.76 1358.3,-327.46"/>
</g>
<!-- mpfr&#45;&gt;ifcopenshell -->
<g id="edge53" class="edge">
<title>mpfr&#45;&gt;ifcopenshell</title>
<path fill="none" stroke="black" d="M1218.79,-371.73C1276.12,-362.68 1396.08,-343.29 1497,-324 1502.3,-322.99 1507.79,-321.9 1513.29,-320.78"/>
<polygon fill="black" stroke="black" points="1513.99,-324.21 1523.08,-318.77 1512.58,-317.36 1513.99,-324.21"/>
</g>
<!-- mpfr&#45;&gt;gnuradio -->
<g id="edge54" class="edge">
<title>mpfr&#45;&gt;gnuradio</title>
<path fill="none" stroke="black" d="M1220.19,-374.79C1298.96,-369.46 1495.26,-354.07 1657,-324 1661.26,-323.21 1665.66,-322.29 1670.06,-321.29"/>
<polygon fill="black" stroke="black" points="1670.55,-324.77 1679.47,-319.04 1668.93,-317.96 1670.55,-324.77"/>
</g>
<!-- mpfr&#45;&gt;scikit&#45;geometry -->
<g id="edge55" class="edge">
<title>mpfr&#45;&gt;scikit&#45;geometry</title>
<path fill="none" stroke="black" d="M1220.4,-374.93C1313.48,-369.25 1572.69,-351.97 1787,-324 1794.42,-323.03 1802.14,-321.9 1809.84,-320.7"/>
<polygon fill="black" stroke="black" points="1810.26,-324.18 1819.57,-319.13 1809.14,-317.26 1810.26,-324.18"/>
</g>
<!-- mpfr&#45;&gt;pygalmesh -->
<g id="edge56" class="edge">
<title>mpfr&#45;&gt;pygalmesh</title>
<path fill="none" stroke="black" d="M1220.6,-376.62C1333.09,-374.99 1690.69,-366.57 1983,-324 1988.56,-323.19 1994.31,-322.19 2000.05,-321.08"/>
<polygon fill="black" stroke="black" points="2000.42,-324.57 2009.52,-319.14 1999.02,-317.72 2000.42,-324.57"/>
</g>
<!-- mpfr&#45;&gt;compas_cgal -->
<g id="edge57" class="edge">
<title>mpfr&#45;&gt;compas_cgal</title>
<path fill="none" stroke="black" d="M1220.42,-376.85C1345.57,-375.93 1778.4,-369.44 2132,-324 2138.43,-323.17 2145.1,-322.14 2151.75,-320.98"/>
<polygon fill="black" stroke="black" points="2152.17,-324.47 2161.38,-319.22 2150.91,-317.58 2152.17,-324.47"/>
</g>
<!-- mpfr&#45;&gt;imp -->
<g id="edge59" class="edge">
<title>mpfr&#45;&gt;imp</title>
<path fill="none" stroke="black" d="M1220.71,-376.99C1387.03,-376.7 2086.65,-372.54 2299,-324 2301.15,-323.51 2303.33,-322.91 2305.51,-322.23"/>
<polygon fill="black" stroke="black" points="2306.58,-325.56 2314.78,-318.84 2304.18,-318.99 2306.58,-325.56"/>
</g>
<!-- mpfr&#45;&gt;gmpxxll -->
<g id="edge60" class="edge">
<title>mpfr&#45;&gt;gmpxxll</title>
<path fill="none" stroke="black" d="M1220.78,-376.53C1394.02,-374.07 2146.73,-361.38 2378,-324 2382.03,-323.35 2386.18,-322.52 2390.32,-321.58"/>
<polygon fill="black" stroke="black" points="2390.85,-325.06 2399.71,-319.25 2389.16,-318.26 2390.85,-325.06"/>
</g>
<!-- mpfr&#45;&gt;spam -->
<g id="edge61" class="edge">
<title>mpfr&#45;&gt;spam</title>
<path fill="none" stroke="black" d="M1220.73,-377.03C1404.37,-376.98 2243.35,-373.95 2498,-324 2500.66,-323.48 2503.37,-322.83 2506.07,-322.1"/>
<polygon fill="black" stroke="black" points="2507.11,-325.44 2515.62,-319.13 2505.03,-318.76 2507.11,-325.44"/>
</g>
<!-- mpfr&#45;&gt;pycolmap -->
<g id="edge62" class="edge">
<title>mpfr&#45;&gt;pycolmap</title>
<path fill="none" stroke="black" d="M1220.65,-376.66C1411.65,-374.68 2315.51,-363.33 2592,-324 2596.88,-323.31 2601.91,-322.41 2606.93,-321.38"/>
<polygon fill="black" stroke="black" points="2607.34,-324.88 2616.35,-319.31 2605.83,-318.04 2607.34,-324.88"/>
</g>
<!-- mpfr&#45;&gt;pygplates -->
<g id="edge63" class="edge">
<title>mpfr&#45;&gt;pygplates</title>
<path fill="none" stroke="black" d="M1220.72,-376.78C1422.67,-375.37 2423.01,-366.34 2728,-324 2732.95,-323.31 2738.05,-322.42 2743.14,-321.4"/>
<polygon fill="black" stroke="black" points="2743.69,-324.86 2752.72,-319.32 2742.21,-318.02 2743.69,-324.86"/>
</g>
</g>
</svg>
