<?xml version="1.0" encoding="UTF-8" standalone="no"?>
<!DOCTYPE svg PUBLIC "-//W3C//DTD SVG 1.1//EN"
 "http://www.w3.org/Graphics/SVG/1.1/DTD/svg11.dtd">
<!-- Generated by graphviz version 12.0.0 (20240803.0821)
 -->
<!-- Pages: 1 -->
<svg width="1934pt" height="404pt"
 viewBox="0.00 0.00 1934.15 404.00" xmlns="http://www.w3.org/2000/svg" xmlns:xlink="http://www.w3.org/1999/xlink">
<g id="graph0" class="graph" transform="scale(1 1) rotate(0) translate(4 400)">
<polygon fill="white" stroke="none" points="-4,4 -4,-400 1930.15,-400 1930.15,4 -4,4"/>
<!-- arb -->
<g id="node1" class="node">
<title>arb</title>
<g id="a_node1"><a xlink:href="https://github.com/conda-forge/arb-feedstock/pull/36" xlink:title="arb ❎">
<ellipse fill="#31688e" stroke="black" cx="403" cy="-234" rx="43.32" ry="18"/>
<text text-anchor="middle" x="403" y="-229.32" font-family="Times,serif" font-size="14.00" fill="white">arb ❎</text>
</a>
</g>
</g>
<!-- mppp -->
<g id="node2" class="node">
<title>mppp</title>
<g id="a_node2"><a xlink:href="https://github.com/conda-forge/mppp-feedstock/pull/60" xlink:title="mppp ❎">
<ellipse fill="#31688e" stroke="black" cx="340" cy="-162" rx="54.89" ry="18"/>
<text text-anchor="middle" x="340" y="-157.32" font-family="Times,serif" font-size="14.00" fill="white">mppp ❎</text>
</a>
</g>
</g>
<!-- arb&#45;&gt;mppp -->
<g id="edge1" class="edge">
<title>arb&#45;&gt;mppp</title>
<path fill="none" stroke="black" d="M388.39,-216.76C380.71,-208.23 371.12,-197.58 362.52,-188.02"/>
<polygon fill="black" stroke="black" points="365.27,-185.85 355.98,-180.76 360.07,-190.53 365.27,-185.85"/>
</g>
<!-- heyoka.py -->
<g id="node3" class="node">
<title>heyoka.py</title>
<g id="a_node3"><a xlink:href="https://github.com/conda-forge/heyoka.py-feedstock" xlink:title="heyoka py">
<ellipse fill="#35b779" stroke="black" cx="202" cy="-18" rx="61.73" ry="18"/>
<text text-anchor="middle" x="202" y="-13.32" font-family="Times,serif" font-size="14.00">heyoka py</text>
</a>
</g>
</g>
<!-- mppp&#45;&gt;heyoka.py -->
<g id="edge2" class="edge">
<title>mppp&#45;&gt;heyoka.py</title>
<path fill="none" stroke="black" d="M322.43,-144.52C311.51,-134.18 297.28,-120.48 285,-108 264.12,-86.77 241.07,-61.94 224.57,-43.91"/>
<polygon fill="black" stroke="black" points="227.38,-41.8 218.06,-36.77 222.21,-46.52 227.38,-41.8"/>
</g>
<!-- heyoka -->
<g id="node4" class="node">
<title>heyoka</title>
<g id="a_node4"><a xlink:href="https://github.com/conda-forge/heyoka-feedstock" xlink:title="heyoka">
<ellipse fill="#35b779" stroke="black" cx="340" cy="-90" rx="46.47" ry="18"/>
<text text-anchor="middle" x="340" y="-85.33" font-family="Times,serif" font-size="14.00">heyoka</text>
</a>
</g>
</g>
<!-- mppp&#45;&gt;heyoka -->
<g id="edge3" class="edge">
<title>mppp&#45;&gt;heyoka</title>
<path fill="none" stroke="black" d="M340,-143.7C340,-136.41 340,-127.73 340,-119.54"/>
<polygon fill="black" stroke="black" points="343.5,-119.62 340,-109.62 336.5,-119.62 343.5,-119.62"/>
</g>
<!-- heyoka&#45;&gt;heyoka.py -->
<g id="edge36" class="edge">
<title>heyoka&#45;&gt;heyoka.py</title>
<path fill="none" stroke="black" d="M312.74,-75.17C292.44,-64.87 264.42,-50.66 241.64,-39.11"/>
<polygon fill="black" stroke="black" points="243.45,-36.1 232.95,-34.7 240.28,-42.34 243.45,-36.1"/>
</g>
<!-- gmpy2 -->
<g id="node5" class="node">
<title>gmpy2</title>
<g id="a_node5"><a xlink:href="https://github.com/conda-forge/gmpy2-feedstock/pull/41" xlink:title="gmpy2 ❎">
<ellipse fill="#31688e" stroke="black" cx="223" cy="-306" rx="60.68" ry="18"/>
<text text-anchor="middle" x="223" y="-301.32" font-family="Times,serif" font-size="14.00" fill="white">gmpy2 ❎</text>
</a>
</g>
</g>
<!-- gmpy2&#45;&gt;heyoka.py -->
<g id="edge5" class="edge">
<title>gmpy2&#45;&gt;heyoka.py</title>
<path fill="none" stroke="black" d="M169.55,-297.12C142.37,-290.11 111.64,-276.9 95,-252 47.95,-181.59 129.92,-87.16 175.13,-43.29"/>
<polygon fill="black" stroke="black" points="177.44,-45.92 182.27,-36.5 172.62,-40.85 177.44,-45.92"/>
</g>
<!-- python&#45;symengine -->
<g id="node6" class="node">
<title>python&#45;symengine</title>
<g id="a_node6"><a xlink:href="https://github.com/conda-forge/python-symengine-feedstock/pull/53" xlink:title="python symengine ❎">
<ellipse fill="#31688e" stroke="black" cx="223" cy="-234" rx="118.55" ry="18"/>
<text text-anchor="middle" x="223" y="-229.32" font-family="Times,serif" font-size="14.00" fill="white">python symengine ❎</text>
</a>
</g>
</g>
<!-- gmpy2&#45;&gt;python&#45;symengine -->
<g id="edge4" class="edge">
<title>gmpy2&#45;&gt;python&#45;symengine</title>
<path fill="none" stroke="black" d="M223,-287.7C223,-280.41 223,-271.73 223,-263.54"/>
<polygon fill="black" stroke="black" points="226.5,-263.62 223,-253.62 219.5,-263.62 226.5,-263.62"/>
</g>
<!-- igraph -->
<g id="node7" class="node">
<title>igraph</title>
<g id="a_node7"><a xlink:href="https://github.com/conda-forge/igraph-feedstock/pull/73" xlink:title="igraph ❎">
<ellipse fill="#31688e" stroke="black" cx="1046" cy="-306" rx="59.1" ry="18"/>
<text text-anchor="middle" x="1046" y="-301.32" font-family="Times,serif" font-size="14.00" fill="white">igraph ❎</text>
</a>
</g>
</g>
<!-- libflint -->
<g id="node8" class="node">
<title>libflint</title>
<g id="a_node8"><a xlink:href="https://github.com/conda-forge/libflint-feedstock/pull/33" xlink:title="libflint ❎">
<ellipse fill="#31688e" stroke="black" cx="586" cy="-306" rx="59.1" ry="18"/>
<text text-anchor="middle" x="586" y="-301.32" font-family="Times,serif" font-size="14.00" fill="white">libflint ❎</text>
</a>
</g>
</g>
<!-- libflint&#45;&gt;arb -->
<g id="edge6" class="edge">
<title>libflint&#45;&gt;arb</title>
<path fill="none" stroke="black" d="M550.28,-291.34C520.04,-279.77 476.66,-263.17 444.81,-250.99"/>
<polygon fill="black" stroke="black" points="446.06,-247.73 435.47,-247.42 443.56,-254.26 446.06,-247.73"/>
</g>
<!-- libflint&#45;&gt;mppp -->
<g id="edge7" class="edge">
<title>libflint&#45;&gt;mppp</title>
<path fill="none" stroke="black" d="M555.97,-290.25C537.18,-280.45 512.85,-266.72 493,-252 474.31,-238.14 474.26,-229.04 455,-216 433.82,-201.66 408.14,-189.41 386.42,-180.31"/>
<polygon fill="black" stroke="black" points="387.78,-177.08 377.2,-176.54 385.13,-183.56 387.78,-177.08"/>
</g>
<!-- libflint&#45;&gt;python&#45;symengine -->
<g id="edge8" class="edge">
<title>libflint&#45;&gt;python&#45;symengine</title>
<path fill="none" stroke="black" d="M537.04,-295.56C477.71,-284.12 376.82,-264.66 305.43,-250.9"/>
<polygon fill="black" stroke="black" points="306.2,-247.48 295.72,-249.02 304.88,-254.35 306.2,-247.48"/>
</g>
<!-- python&#45;flint -->
<g id="node9" class="node">
<title>python&#45;flint</title>
<g id="a_node9"><a xlink:href="https://github.com/conda-forge/python-flint-feedstock/pull/40" xlink:title="python flint ❎">
<ellipse fill="#31688e" stroke="black" cx="586" cy="-234" rx="84.35" ry="18"/>
<text text-anchor="middle" x="586" y="-229.32" font-family="Times,serif" font-size="14.00" fill="white">python flint ❎</text>
</a>
</g>
</g>
<!-- libflint&#45;&gt;python&#45;flint -->
<g id="edge9" class="edge">
<title>libflint&#45;&gt;python&#45;flint</title>
<path fill="none" stroke="black" d="M586,-287.7C586,-280.41 586,-271.73 586,-263.54"/>
<polygon fill="black" stroke="black" points="589.5,-263.62 586,-253.62 582.5,-263.62 589.5,-263.62"/>
</g>
<!-- normaliz -->
<g id="node10" class="node">
<title>normaliz</title>
<g id="a_node10"><a xlink:href="https://github.com/conda-forge/normaliz-feedstock/pull/55" xlink:title="normaliz ❎">
<ellipse fill="#31688e" stroke="black" cx="759" cy="-234" rx="70.15" ry="18"/>
<text text-anchor="middle" x="759" y="-229.32" font-family="Times,serif" font-size="14.00" fill="white">normaliz ❎</text>
</a>
</g>
</g>
<!-- libflint&#45;&gt;normaliz -->
<g id="edge10" class="edge">
<title>libflint&#45;&gt;normaliz</title>
<path fill="none" stroke="black" d="M620.59,-291C646.74,-280.42 682.92,-265.78 711.73,-254.13"/>
<polygon fill="black" stroke="black" points="713.02,-257.38 720.97,-250.39 710.39,-250.89 713.02,-257.38"/>
</g>
<!-- antic -->
<g id="node11" class="node">
<title>antic</title>
<g id="a_node11"><a xlink:href="https://github.com/conda-forge/antic-feedstock" xlink:title="antic">
<ellipse fill="#35b779" stroke="black" cx="883" cy="-234" rx="35.95" ry="18"/>
<text text-anchor="middle" x="883" y="-229.32" font-family="Times,serif" font-size="14.00">antic</text>
</a>
</g>
</g>
<!-- libflint&#45;&gt;antic -->
<g id="edge11" class="edge">
<title>libflint&#45;&gt;antic</title>
<path fill="none" stroke="black" d="M637.25,-296.61C688.57,-287.65 769.55,-272 838,-252 840.25,-251.34 842.56,-250.62 844.87,-249.86"/>
<polygon fill="black" stroke="black" points="845.91,-253.21 854.19,-246.61 843.6,-246.6 845.91,-253.21"/>
</g>
<!-- mpc -->
<g id="node12" class="node">
<title>mpc</title>
<g id="a_node12"><a xlink:href="https://github.com/conda-forge/mpc-feedstock/pull/27" xlink:title="mpc ❎">
<ellipse fill="#31688e" stroke="black" cx="1164" cy="-378" rx="47.53" ry="18"/>
<text text-anchor="middle" x="1164" y="-373.32" font-family="Times,serif" font-size="14.00" fill="white">mpc ❎</text>
</a>
</g>
</g>
<!-- mpc&#45;&gt;arb -->
<g id="edge12" class="edge">
<title>mpc&#45;&gt;arb</title>
<path fill="none" stroke="black" d="M1116.36,-376.58C986.24,-374.89 627.23,-366.4 518,-324 481.64,-309.89 447.28,-280.39 425.75,-259.23"/>
<polygon fill="black" stroke="black" points="428.48,-257 418.95,-252.37 423.51,-261.93 428.48,-257"/>
</g>
<!-- mpc&#45;&gt;mppp -->
<g id="edge13" class="edge">
<title>mpc&#45;&gt;mppp</title>
<path fill="none" stroke="black" d="M1116.37,-376.77C927.75,-375.56 239.32,-368.12 153,-324 104.49,-299.2 60.79,-258.4 95,-216 117.27,-188.4 210.47,-174.46 275.27,-167.98"/>
<polygon fill="black" stroke="black" points="275.49,-171.47 285.1,-167.03 274.82,-164.5 275.49,-171.47"/>
</g>
<!-- mpc&#45;&gt;heyoka.py -->
<g id="edge16" class="edge">
<title>mpc&#45;&gt;heyoka.py</title>
<path fill="none" stroke="black" d="M1116.4,-376.49C922.09,-374.13 194.78,-362.8 100,-324 44.94,-301.46 0,-294.5 0,-235 0,-235 0,-235 0,-161 0,-90.18 84.14,-51.62 143.81,-33.19"/>
<polygon fill="black" stroke="black" points="144.6,-36.6 153.19,-30.41 142.61,-29.89 144.6,-36.6"/>
</g>
<!-- mpc&#45;&gt;heyoka -->
<g id="edge30" class="edge">
<title>mpc&#45;&gt;heyoka</title>
<path fill="none" stroke="black" d="M1117.26,-374.42C1076.24,-369.88 1017.17,-357.49 978,-324 937.8,-289.63 969.35,-248.99 928,-216 845.54,-150.22 526.67,-110.38 396.16,-96.53"/>
<polygon fill="black" stroke="black" points="396.69,-93.07 386.38,-95.51 395.96,-100.03 396.69,-93.07"/>
</g>
<!-- mpc&#45;&gt;gmpy2 -->
<g id="edge14" class="edge">
<title>mpc&#45;&gt;gmpy2</title>
<path fill="none" stroke="black" d="M1116.73,-375.39C990,-370.76 632.12,-355.69 336,-324 319.73,-322.26 302.22,-319.88 285.95,-317.44"/>
<polygon fill="black" stroke="black" points="286.83,-314.04 276.41,-315.99 285.77,-320.96 286.83,-314.04"/>
</g>
<!-- mpc&#45;&gt;python&#45;symengine -->
<g id="edge15" class="edge">
<title>mpc&#45;&gt;python&#45;symengine</title>
<path fill="none" stroke="black" d="M1116.92,-375.24C979.97,-369.85 583.45,-352.16 457,-324 388.71,-308.79 313.79,-277.52 267.57,-256.4"/>
<polygon fill="black" stroke="black" points="269.23,-253.31 258.68,-252.3 266.29,-259.67 269.23,-253.31"/>
</g>
<!-- mpc&#45;&gt;igraph -->
<g id="edge17" class="edge">
<title>mpc&#45;&gt;igraph</title>
<path fill="none" stroke="black" d="M1139.26,-362.33C1122.61,-352.45 1100.39,-339.27 1081.82,-328.25"/>
<polygon fill="black" stroke="black" points="1083.62,-325.25 1073.23,-323.15 1080.05,-331.27 1083.62,-325.25"/>
</g>
<!-- mpc&#45;&gt;libflint -->
<g id="edge18" class="edge">
<title>mpc&#45;&gt;libflint</title>
<path fill="none" stroke="black" d="M1118.08,-372.8C1032.77,-364.8 844.13,-346.19 686,-324 673.32,-322.22 659.78,-320.08 646.88,-317.93"/>
<polygon fill="black" stroke="black" points="647.7,-314.52 637.25,-316.3 646.53,-321.42 647.7,-314.52"/>
</g>
<!-- mpc&#45;&gt;python&#45;flint -->
<g id="edge19" class="edge">
<title>mpc&#45;&gt;python&#45;flint</title>
<path fill="none" stroke="black" d="M1118.33,-372.47C1053.81,-365.45 932.6,-349.98 832,-324 761.07,-305.68 681.86,-275.11 632.96,-255.01"/>
<polygon fill="black" stroke="black" points="634.38,-251.81 623.81,-251.21 631.7,-258.27 634.38,-251.81"/>
</g>
<!-- mpc&#45;&gt;normaliz -->
<g id="edge20" class="edge">
<title>mpc&#45;&gt;normaliz</title>
<path fill="none" stroke="black" d="M1118.19,-372.91C1064.37,-366.96 973.13,-353.26 900,-324 858.65,-307.46 816.07,-278.65 788.68,-258.3"/>
<polygon fill="black" stroke="black" points="790.95,-255.63 780.86,-252.4 786.73,-261.21 790.95,-255.63"/>
</g>
<!-- mpc&#45;&gt;antic -->
<g id="edge21" class="edge">
<title>mpc&#45;&gt;antic</title>
<path fill="none" stroke="black" d="M1116.42,-377.02C1066.15,-374.74 986.87,-364.3 933,-324 912.74,-308.84 899.52,-282.91 891.8,-262.94"/>
<polygon fill="black" stroke="black" points="895.16,-261.93 888.48,-253.7 888.57,-264.29 895.16,-261.93"/>
</g>
<!-- python&#45;igraph -->
<g id="node13" class="node">
<title>python&#45;igraph</title>
<g id="a_node13"><a xlink:href="https://github.com/conda-forge/python-igraph-feedstock/pull/90" xlink:title="python igraph ✓">
<ellipse fill="#31688e" stroke="black" cx="1065" cy="-234" rx="89.61" ry="18"/>
<text text-anchor="middle" x="1065" y="-229.32" font-family="Times,serif" font-size="14.00" fill="white">python igraph ✓</text>
</a>
</g>
</g>
<!-- mpc&#45;&gt;python&#45;igraph -->
<g id="edge22" class="edge">
<title>mpc&#45;&gt;python&#45;igraph</title>
<path fill="none" stroke="black" d="M1155.89,-359.88C1146.81,-341.42 1131.1,-311.5 1114,-288 1106.92,-278.27 1098.26,-268.39 1090.2,-259.83"/>
<polygon fill="black" stroke="black" points="1092.94,-257.63 1083.47,-252.86 1087.9,-262.49 1092.94,-257.63"/>
</g>
<!-- gudhi -->
<g id="node14" class="node">
<title>gudhi</title>
<g id="a_node14"><a xlink:href="https://github.com/conda-forge/gudhi-feedstock/pull/62" xlink:title="gudhi ✓">
<ellipse fill="#31688e" stroke="black" cx="1145" cy="-162" rx="47.53" ry="18"/>
<text text-anchor="middle" x="1145" y="-157.32" font-family="Times,serif" font-size="14.00" fill="white">gudhi ✓</text>
</a>
</g>
</g>
<!-- mpc&#45;&gt;gudhi -->
<g id="edge23" class="edge">
<title>mpc&#45;&gt;gudhi</title>
<path fill="none" stroke="black" d="M1165.9,-359.91C1168.78,-330.33 1173,-267.77 1164,-216 1162.52,-207.49 1159.8,-198.54 1156.87,-190.47"/>
<polygon fill="black" stroke="black" points="1160.14,-189.23 1153.25,-181.19 1153.62,-191.78 1160.14,-189.23"/>
</g>
<!-- wildmeshing -->
<g id="node15" class="node">
<title>wildmeshing</title>
<g id="a_node15"><a xlink:href="https://github.com/conda-forge/wildmeshing-feedstock/pull/24" xlink:title="wildmeshing ❎">
<ellipse fill="#31688e" stroke="black" cx="1141" cy="-90" rx="90.14" ry="18"/>
<text text-anchor="middle" x="1141" y="-85.33" font-family="Times,serif" font-size="14.00" fill="white">wildmeshing ❎</text>
</a>
</g>
</g>
<!-- mpc&#45;&gt;wildmeshing -->
<g id="edge24" class="edge">
<title>mpc&#45;&gt;wildmeshing</title>
<path fill="none" stroke="black" d="M1173.09,-360.03C1193.04,-320.35 1236.26,-219.15 1202,-144 1196.74,-132.47 1187.6,-122.47 1177.97,-114.37"/>
<polygon fill="black" stroke="black" points="1180.32,-111.77 1170.28,-108.4 1176.03,-117.29 1180.32,-111.77"/>
</g>
<!-- ifcopenshell -->
<g id="node16" class="node">
<title>ifcopenshell</title>
<g id="a_node16"><a xlink:href="https://github.com/conda-forge/ifcopenshell-feedstock" xlink:title="ifcopenshell">
<ellipse fill="#35b779" stroke="black" cx="1259" cy="-18" rx="71.2" ry="18"/>
<text text-anchor="middle" x="1259" y="-13.32" font-family="Times,serif" font-size="14.00">ifcopenshell</text>
</a>
</g>
</g>
<!-- mpc&#45;&gt;ifcopenshell -->
<g id="edge25" class="edge">
<title>mpc&#45;&gt;ifcopenshell</title>
<path fill="none" stroke="black" d="M1183.68,-361.4C1211.51,-337.44 1259,-288.69 1259,-235 1259,-235 1259,-235 1259,-161 1259,-121.74 1259,-76.38 1259,-47.69"/>
<polygon fill="black" stroke="black" points="1262.5,-48 1259,-38 1255.5,-48 1262.5,-48"/>
</g>
<!-- gnuradio -->
<g id="node17" class="node">
<title>gnuradio</title>
<g id="a_node17"><a xlink:href="https://github.com/conda-forge/gnuradio-feedstock" xlink:title="gnuradio">
<ellipse fill="#35b779" stroke="black" cx="1343" cy="-306" rx="55.94" ry="18"/>
<text text-anchor="middle" x="1343" y="-301.32" font-family="Times,serif" font-size="14.00">gnuradio</text>
</a>
</g>
</g>
<!-- mpc&#45;&gt;gnuradio -->
<g id="edge26" class="edge">
<title>mpc&#45;&gt;gnuradio</title>
<path fill="none" stroke="black" d="M1196,-364.49C1224.46,-353.36 1266.37,-336.97 1298.17,-324.53"/>
<polygon fill="black" stroke="black" points="1299.08,-327.93 1307.12,-321.03 1296.53,-321.41 1299.08,-327.93"/>
</g>
<!-- scikit&#45;geometry -->
<g id="node18" class="node">
<title>scikit&#45;geometry</title>
<g id="a_node18"><a xlink:href="https://github.com/conda-forge/scikit-geometry-feedstock" xlink:title="scikit geometry">
<ellipse fill="#ff8c00" stroke="black" cx="1376" cy="-234" rx="89.09" ry="18"/>
<text text-anchor="middle" x="1376" y="-229.32" font-family="Times,serif" font-size="14.00">scikit geometry</text>
</a>
</g>
</g>
<!-- mpc&#45;&gt;scikit&#45;geometry -->
<g id="edge27" class="edge">
<title>mpc&#45;&gt;scikit&#45;geometry</title>
<path fill="none" stroke="black" d="M1210.6,-373.67C1274.37,-368.04 1383.69,-354.16 1408,-324 1422.72,-305.74 1411.05,-280.14 1397.85,-261.08"/>
<polygon fill="black" stroke="black" points="1400.82,-259.21 1392.06,-253.27 1395.2,-263.38 1400.82,-259.21"/>
</g>
<!-- pygalmesh -->
<g id="node19" class="node">
<title>pygalmesh</title>
<g id="a_node19"><a xlink:href="https://github.com/conda-forge/pygalmesh-feedstock" xlink:title="pygalmesh">
<ellipse fill="#35b779" stroke="black" cx="1438" cy="-162" rx="65.41" ry="18"/>
<text text-anchor="middle" x="1438" y="-157.32" font-family="Times,serif" font-size="14.00">pygalmesh</text>
</a>
</g>
</g>
<!-- mpc&#45;&gt;pygalmesh -->
<g id="edge28" class="edge">
<title>mpc&#45;&gt;pygalmesh</title>
<path fill="none" stroke="black" d="M1211.89,-377.78C1267.58,-376.45 1360.12,-367.14 1425,-324 1468.89,-294.82 1489.49,-266.38 1474,-216 1471.04,-206.37 1465.67,-196.92 1459.96,-188.73"/>
<polygon fill="black" stroke="black" points="1462.94,-186.87 1454.14,-180.97 1457.34,-191.07 1462.94,-186.87"/>
</g>
<!-- compas_cgal -->
<g id="node20" class="node">
<title>compas_cgal</title>
<g id="a_node20"><a xlink:href="https://github.com/conda-forge/compas_cgal-feedstock" xlink:title="compas_cgal">
<ellipse fill="#35b779" stroke="black" cx="1467" cy="-90" rx="74.36" ry="18"/>
<text text-anchor="middle" x="1467" y="-85.33" font-family="Times,serif" font-size="14.00">compas_cgal</text>
</a>
</g>
</g>
<!-- mpc&#45;&gt;compas_cgal -->
<g id="edge29" class="edge">
<title>mpc&#45;&gt;compas_cgal</title>
<path fill="none" stroke="black" d="M1210.59,-373.87C1283.53,-368.11 1420.26,-353.62 1458,-324 1523.7,-272.43 1540.79,-222.4 1512,-144 1508.21,-133.68 1501.42,-124 1494.25,-115.8"/>
<polygon fill="black" stroke="black" points="1496.89,-113.5 1487.48,-108.64 1491.8,-118.31 1496.89,-113.5"/>
</g>
<!-- imp -->
<g id="node21" class="node">
<title>imp</title>
<g id="a_node21"><a xlink:href="https://github.com/conda-forge/imp-feedstock" xlink:title="imp">
<ellipse fill="#35b779" stroke="black" cx="1569" cy="-18" rx="30.16" ry="18"/>
<text text-anchor="middle" x="1569" y="-13.32" font-family="Times,serif" font-size="14.00">imp</text>
</a>
</g>
</g>
<!-- mpc&#45;&gt;imp -->
<g id="edge31" class="edge">
<title>mpc&#45;&gt;imp</title>
<path fill="none" stroke="black" d="M1210.17,-373.32C1288.28,-366.47 1442.65,-350.05 1490,-324 1536.34,-298.5 1569,-287.89 1569,-235 1569,-235 1569,-235 1569,-161 1569,-121.74 1569,-76.38 1569,-47.69"/>
<polygon fill="black" stroke="black" points="1572.5,-48 1569,-38 1565.5,-48 1572.5,-48"/>
</g>
<!-- gmpxxll -->
<g id="node22" class="node">
<title>gmpxxll</title>
<g id="a_node22"><a xlink:href="https://github.com/conda-forge/gmpxxll-feedstock" xlink:title="gmpxxll">
<ellipse fill="#35b779" stroke="black" cx="1648" cy="-306" rx="51.21" ry="18"/>
<text text-anchor="middle" x="1648" y="-301.32" font-family="Times,serif" font-size="14.00">gmpxxll</text>
</a>
</g>
</g>
<!-- mpc&#45;&gt;gmpxxll -->
<g id="edge32" class="edge">
<title>mpc&#45;&gt;gmpxxll</title>
<path fill="none" stroke="black" d="M1210.19,-373.14C1287.72,-366.21 1448.74,-349.94 1583,-324 1587.9,-323.05 1592.98,-321.95 1598.04,-320.76"/>
<polygon fill="black" stroke="black" points="1598.65,-324.22 1607.53,-318.44 1596.99,-317.42 1598.65,-324.22"/>
</g>
<!-- spam -->
<g id="node23" class="node">
<title>spam</title>
<g id="a_node23"><a xlink:href="https://github.com/conda-forge/spam-feedstock" xlink:title="spam">
<ellipse fill="#35b779" stroke="black" cx="1713" cy="-234" rx="38.06" ry="18"/>
<text text-anchor="middle" x="1713" y="-229.32" font-family="Times,serif" font-size="14.00">spam</text>
</a>
</g>
</g>
<!-- mpc&#45;&gt;spam -->
<g id="edge33" class="edge">
<title>mpc&#45;&gt;spam</title>
<path fill="none" stroke="black" d="M1211.51,-375.84C1337.68,-372.28 1673.91,-359.51 1708,-324 1723.07,-308.3 1723.09,-283 1720.05,-263.38"/>
<polygon fill="black" stroke="black" points="1723.54,-262.96 1718.22,-253.8 1716.66,-264.28 1723.54,-262.96"/>
</g>
<!-- pycolmap -->
<g id="node24" class="node">
<title>pycolmap</title>
<g id="a_node24"><a xlink:href="https://github.com/conda-forge/pycolmap-feedstock" xlink:title="pycolmap">
<ellipse fill="#35b779" stroke="black" cx="1779" cy="-162" rx="59.1" ry="18"/>
<text text-anchor="middle" x="1779" y="-157.32" font-family="Times,serif" font-size="14.00">pycolmap</text>
</a>
</g>
</g>
<!-- mpc&#45;&gt;pycolmap -->
<g id="edge34" class="edge">
<title>mpc&#45;&gt;pycolmap</title>
<path fill="none" stroke="black" d="M1211.21,-375.27C1339.27,-370.22 1686.42,-353.88 1728,-324 1769.89,-293.89 1778.29,-229.11 1779.45,-191.55"/>
<polygon fill="black" stroke="black" points="1782.94,-191.94 1779.58,-181.9 1775.94,-191.85 1782.94,-191.94"/>
</g>
<!-- pygplates -->
<g id="node25" class="node">
<title>pygplates</title>
<g id="a_node25"><a xlink:href="https://github.com/conda-forge/pygplates-feedstock" xlink:title="pygplates">
<ellipse fill="#35b779" stroke="black" cx="1866" cy="-90" rx="60.15" ry="18"/>
<text text-anchor="middle" x="1866" y="-85.33" font-family="Times,serif" font-size="14.00">pygplates</text>
</a>
</g>
</g>
<!-- mpc&#45;&gt;pygplates -->
<g id="edge35" class="edge">
<title>mpc&#45;&gt;pygplates</title>
<path fill="none" stroke="black" d="M1211.41,-375.16C1343.65,-369.69 1709.93,-352.13 1756,-324 1828.98,-279.43 1854.31,-171.49 1862.45,-119.68"/>
<polygon fill="black" stroke="black" points="1865.9,-120.26 1863.88,-109.86 1858.98,-119.26 1865.9,-120.26"/>
</g>
</g>
</svg>
