<?xml version="1.0" encoding="UTF-8" standalone="no"?>
<!DOCTYPE svg PUBLIC "-//W3C//DTD SVG 1.1//EN"
 "http://www.w3.org/Graphics/SVG/1.1/DTD/svg11.dtd">
<!-- Generated by graphviz version 12.0.0 (20240803.0821)
 -->
<!-- Pages: 1 -->
<svg width="1873pt" height="404pt"
 viewBox="0.00 0.00 1873.15 404.00" xmlns="http://www.w3.org/2000/svg" xmlns:xlink="http://www.w3.org/1999/xlink">
<g id="graph0" class="graph" transform="scale(1 1) rotate(0) translate(4 400)">
<polygon fill="white" stroke="none" points="-4,4 -4,-400 1869.15,-400 1869.15,4 -4,4"/>
<!-- arb -->
<g id="node1" class="node">
<title>arb</title>
<g id="a_node1"><a xlink:href="https://github.com/conda-forge/arb-feedstock/pull/36" xlink:title="arb ❎">
<ellipse fill="#31688e" stroke="black" cx="403" cy="-234" rx="43.32" ry="18"/>
<text text-anchor="middle" x="403" y="-229.32" font-family="Times,serif" font-size="14.00" fill="white">arb ❎</text>
</a>
</g>
</g>
<!-- mppp -->
<g id="node2" class="node">
<title>mppp</title>
<g id="a_node2"><a xlink:href="https://github.com/conda-forge/mppp-feedstock/pull/60" xlink:title="mppp ❎">
<ellipse fill="#31688e" stroke="black" cx="340" cy="-162" rx="54.89" ry="18"/>
<text text-anchor="middle" x="340" y="-157.32" font-family="Times,serif" font-size="14.00" fill="white">mppp ❎</text>
</a>
</g>
</g>
<!-- arb&#45;&gt;mppp -->
<g id="edge1" class="edge">
<title>arb&#45;&gt;mppp</title>
<path fill="none" stroke="black" d="M388.39,-216.76C380.71,-208.23 371.12,-197.58 362.52,-188.02"/>
<polygon fill="black" stroke="black" points="365.27,-185.85 355.98,-180.76 360.07,-190.53 365.27,-185.85"/>
</g>
<!-- heyoka.py -->
<g id="node3" class="node">
<title>heyoka.py</title>
<g id="a_node3"><a xlink:href="https://github.com/conda-forge/heyoka.py-feedstock" xlink:title="heyoka py">
<ellipse fill="#35b779" stroke="black" cx="202" cy="-18" rx="61.73" ry="18"/>
<text text-anchor="middle" x="202" y="-13.32" font-family="Times,serif" font-size="14.00">heyoka py</text>
</a>
</g>
</g>
<!-- mppp&#45;&gt;heyoka.py -->
<g id="edge2" class="edge">
<title>mppp&#45;&gt;heyoka.py</title>
<path fill="none" stroke="black" d="M322.43,-144.52C311.51,-134.18 297.28,-120.48 285,-108 264.12,-86.77 241.07,-61.94 224.57,-43.91"/>
<polygon fill="black" stroke="black" points="227.38,-41.8 218.06,-36.77 222.21,-46.52 227.38,-41.8"/>
</g>
<!-- heyoka -->
<g id="node4" class="node">
<title>heyoka</title>
<g id="a_node4"><a xlink:href="https://github.com/conda-forge/heyoka-feedstock" xlink:title="heyoka">
<ellipse fill="#35b779" stroke="black" cx="340" cy="-90" rx="46.47" ry="18"/>
<text text-anchor="middle" x="340" y="-85.33" font-family="Times,serif" font-size="14.00">heyoka</text>
</a>
</g>
</g>
<!-- mppp&#45;&gt;heyoka -->
<g id="edge3" class="edge">
<title>mppp&#45;&gt;heyoka</title>
<path fill="none" stroke="black" d="M340,-143.7C340,-136.41 340,-127.73 340,-119.54"/>
<polygon fill="black" stroke="black" points="343.5,-119.62 340,-109.62 336.5,-119.62 343.5,-119.62"/>
</g>
<!-- heyoka&#45;&gt;heyoka.py -->
<g id="edge36" class="edge">
<title>heyoka&#45;&gt;heyoka.py</title>
<path fill="none" stroke="black" d="M312.74,-75.17C292.44,-64.87 264.42,-50.66 241.64,-39.11"/>
<polygon fill="black" stroke="black" points="243.45,-36.1 232.95,-34.7 240.28,-42.34 243.45,-36.1"/>
</g>
<!-- gmpy2 -->
<g id="node5" class="node">
<title>gmpy2</title>
<g id="a_node5"><a xlink:href="https://github.com/conda-forge/gmpy2-feedstock/pull/41" xlink:title="gmpy2 ❎">
<ellipse fill="#31688e" stroke="black" cx="223" cy="-306" rx="60.68" ry="18"/>
<text text-anchor="middle" x="223" y="-301.32" font-family="Times,serif" font-size="14.00" fill="white">gmpy2 ❎</text>
</a>
</g>
</g>
<!-- gmpy2&#45;&gt;heyoka.py -->
<g id="edge5" class="edge">
<title>gmpy2&#45;&gt;heyoka.py</title>
<path fill="none" stroke="black" d="M169.55,-297.12C142.37,-290.11 111.64,-276.9 95,-252 47.95,-181.59 129.92,-87.16 175.13,-43.29"/>
<polygon fill="black" stroke="black" points="177.44,-45.92 182.27,-36.5 172.62,-40.85 177.44,-45.92"/>
</g>
<!-- python&#45;symengine -->
<g id="node6" class="node">
<title>python&#45;symengine</title>
<g id="a_node6"><a xlink:href="https://github.com/conda-forge/python-symengine-feedstock/pull/53" xlink:title="python symengine ❎">
<ellipse fill="#31688e" stroke="black" cx="223" cy="-234" rx="118.55" ry="18"/>
<text text-anchor="middle" x="223" y="-229.32" font-family="Times,serif" font-size="14.00" fill="white">python symengine ❎</text>
</a>
</g>
</g>
<!-- gmpy2&#45;&gt;python&#45;symengine -->
<g id="edge4" class="edge">
<title>gmpy2&#45;&gt;python&#45;symengine</title>
<path fill="none" stroke="black" d="M223,-287.7C223,-280.41 223,-271.73 223,-263.54"/>
<polygon fill="black" stroke="black" points="226.5,-263.62 223,-253.62 219.5,-263.62 226.5,-263.62"/>
</g>
<!-- igraph -->
<g id="node7" class="node">
<title>igraph</title>
<g id="a_node7"><a xlink:href="https://github.com/conda-forge/igraph-feedstock/pull/73" xlink:title="igraph ❎">
<ellipse fill="#31688e" stroke="black" cx="985" cy="-306" rx="59.1" ry="18"/>
<text text-anchor="middle" x="985" y="-301.32" font-family="Times,serif" font-size="14.00" fill="white">igraph ❎</text>
</a>
</g>
</g>
<!-- libflint -->
<g id="node8" class="node">
<title>libflint</title>
<g id="a_node8"><a xlink:href="https://github.com/conda-forge/libflint-feedstock/pull/33" xlink:title="libflint ❎">
<ellipse fill="#31688e" stroke="black" cx="571" cy="-306" rx="59.1" ry="18"/>
<text text-anchor="middle" x="571" y="-301.32" font-family="Times,serif" font-size="14.00" fill="white">libflint ❎</text>
</a>
</g>
</g>
<!-- libflint&#45;&gt;arb -->
<g id="edge6" class="edge">
<title>libflint&#45;&gt;arb</title>
<path fill="none" stroke="black" d="M537,-290.83C509.88,-279.53 471.83,-263.68 443.2,-251.75"/>
<polygon fill="black" stroke="black" points="444.7,-248.58 434.13,-247.97 442.01,-255.05 444.7,-248.58"/>
</g>
<!-- libflint&#45;&gt;mppp -->
<g id="edge7" class="edge">
<title>libflint&#45;&gt;mppp</title>
<path fill="none" stroke="black" d="M545.68,-289.28C530.05,-279.22 509.84,-265.55 493,-252 474.88,-237.41 474.26,-229.04 455,-216 433.82,-201.66 408.14,-189.41 386.42,-180.31"/>
<polygon fill="black" stroke="black" points="387.78,-177.08 377.2,-176.54 385.13,-183.56 387.78,-177.08"/>
</g>
<!-- libflint&#45;&gt;python&#45;symengine -->
<g id="edge8" class="edge">
<title>libflint&#45;&gt;python&#45;symengine</title>
<path fill="none" stroke="black" d="M522.61,-295.27C466,-283.88 371.4,-264.85 303.64,-251.22"/>
<polygon fill="black" stroke="black" points="304.56,-247.84 294.07,-249.3 303.18,-254.7 304.56,-247.84"/>
</g>
<!-- python&#45;flint -->
<g id="node9" class="node">
<title>python&#45;flint</title>
<g id="a_node9"><a xlink:href="https://github.com/conda-forge/python-flint-feedstock" xlink:title="python flint">
<ellipse fill="#ff8c00" stroke="black" cx="571" cy="-234" rx="69.1" ry="18"/>
<text text-anchor="middle" x="571" y="-229.32" font-family="Times,serif" font-size="14.00">python flint</text>
</a>
</g>
</g>
<!-- libflint&#45;&gt;python&#45;flint -->
<g id="edge9" class="edge">
<title>libflint&#45;&gt;python&#45;flint</title>
<path fill="none" stroke="black" d="M571,-287.7C571,-280.41 571,-271.73 571,-263.54"/>
<polygon fill="black" stroke="black" points="574.5,-263.62 571,-253.62 567.5,-263.62 574.5,-263.62"/>
</g>
<!-- normaliz -->
<g id="node10" class="node">
<title>normaliz</title>
<g id="a_node10"><a xlink:href="https://github.com/conda-forge/normaliz-feedstock" xlink:title="normaliz">
<ellipse fill="#ff8c00" stroke="black" cx="713" cy="-234" rx="54.89" ry="18"/>
<text text-anchor="middle" x="713" y="-229.32" font-family="Times,serif" font-size="14.00">normaliz</text>
</a>
</g>
</g>
<!-- libflint&#45;&gt;normaliz -->
<g id="edge10" class="edge">
<title>libflint&#45;&gt;normaliz</title>
<path fill="none" stroke="black" d="M601.11,-290.15C622.15,-279.78 650.46,-265.83 673.33,-254.55"/>
<polygon fill="black" stroke="black" points="674.64,-257.81 682.06,-250.25 671.54,-251.54 674.64,-257.81"/>
</g>
<!-- antic -->
<g id="node11" class="node">
<title>antic</title>
<g id="a_node11"><a xlink:href="https://github.com/conda-forge/antic-feedstock" xlink:title="antic">
<ellipse fill="#35b779" stroke="black" cx="822" cy="-234" rx="35.95" ry="18"/>
<text text-anchor="middle" x="822" y="-229.32" font-family="Times,serif" font-size="14.00">antic</text>
</a>
</g>
</g>
<!-- libflint&#45;&gt;antic -->
<g id="edge11" class="edge">
<title>libflint&#45;&gt;antic</title>
<path fill="none" stroke="black" d="M617.64,-294.54C659.66,-284.75 722.96,-269.1 777,-252 779.24,-251.29 781.53,-250.53 783.83,-249.74"/>
<polygon fill="black" stroke="black" points="784.9,-253.08 793.14,-246.42 782.54,-246.49 784.9,-253.08"/>
</g>
<!-- mpc -->
<g id="node12" class="node">
<title>mpc</title>
<g id="a_node12"><a xlink:href="https://github.com/conda-forge/mpc-feedstock/pull/27" xlink:title="mpc ❎">
<ellipse fill="#31688e" stroke="black" cx="1103" cy="-378" rx="47.53" ry="18"/>
<text text-anchor="middle" x="1103" y="-373.32" font-family="Times,serif" font-size="14.00" fill="white">mpc ❎</text>
</a>
</g>
</g>
<!-- mpc&#45;&gt;arb -->
<g id="edge12" class="edge">
<title>mpc&#45;&gt;arb</title>
<path fill="none" stroke="black" d="M1055.49,-376.62C931.73,-375.04 602.12,-366.81 503,-324 470.66,-310.03 441.56,-281.41 423.2,-260.37"/>
<polygon fill="black" stroke="black" points="425.89,-258.14 416.76,-252.76 420.55,-262.66 425.89,-258.14"/>
</g>
<!-- mpc&#45;&gt;mppp -->
<g id="edge13" class="edge">
<title>mpc&#45;&gt;mppp</title>
<path fill="none" stroke="black" d="M1055.18,-376.6C873.68,-374.76 233.6,-365.37 153,-324 104.53,-299.12 60.79,-258.4 95,-216 117.27,-188.4 210.47,-174.46 275.27,-167.98"/>
<polygon fill="black" stroke="black" points="275.49,-171.47 285.1,-167.03 274.82,-164.5 275.49,-171.47"/>
</g>
<!-- mpc&#45;&gt;heyoka.py -->
<g id="edge16" class="edge">
<title>mpc&#45;&gt;heyoka.py</title>
<path fill="none" stroke="black" d="M1055.3,-376.33C868,-373.44 188.85,-360.53 100,-324 44.97,-301.38 0,-294.5 0,-235 0,-235 0,-235 0,-161 0,-90.18 84.14,-51.62 143.81,-33.19"/>
<polygon fill="black" stroke="black" points="144.6,-36.6 153.19,-30.41 142.61,-29.89 144.6,-36.6"/>
</g>
<!-- mpc&#45;&gt;heyoka -->
<g id="edge30" class="edge">
<title>mpc&#45;&gt;heyoka</title>
<path fill="none" stroke="black" d="M1056.26,-374.42C1015.24,-369.88 956.17,-357.49 917,-324 876.8,-289.63 907.96,-249.47 867,-216 794.34,-156.64 514.71,-113.86 394.95,-97.89"/>
<polygon fill="black" stroke="black" points="395.75,-94.47 385.37,-96.63 394.83,-101.41 395.75,-94.47"/>
</g>
<!-- mpc&#45;&gt;gmpy2 -->
<g id="edge14" class="edge">
<title>mpc&#45;&gt;gmpy2</title>
<path fill="none" stroke="black" d="M1055.94,-375.18C935.31,-370.2 605.34,-354.65 332,-324 316.98,-322.32 300.87,-320.06 285.77,-317.73"/>
<polygon fill="black" stroke="black" points="286.36,-314.28 275.94,-316.19 285.27,-321.2 286.36,-314.28"/>
</g>
<!-- mpc&#45;&gt;python&#45;symengine -->
<g id="edge15" class="edge">
<title>mpc&#45;&gt;python&#45;symengine</title>
<path fill="none" stroke="black" d="M1055.68,-374.99C925.47,-369.16 563.84,-350.96 448,-324 382.28,-308.7 310.46,-277.56 266.06,-256.49"/>
<polygon fill="black" stroke="black" points="267.82,-253.45 257.29,-252.28 264.79,-259.76 267.82,-253.45"/>
</g>
<!-- mpc&#45;&gt;igraph -->
<g id="edge17" class="edge">
<title>mpc&#45;&gt;igraph</title>
<path fill="none" stroke="black" d="M1078.26,-362.33C1061.61,-352.45 1039.39,-339.27 1020.82,-328.25"/>
<polygon fill="black" stroke="black" points="1022.62,-325.25 1012.23,-323.15 1019.05,-331.27 1022.62,-325.25"/>
</g>
<!-- mpc&#45;&gt;libflint -->
<g id="edge18" class="edge">
<title>mpc&#45;&gt;libflint</title>
<path fill="none" stroke="black" d="M1057.26,-372.59C976.73,-364.59 804.47,-346.41 660,-324 650.29,-322.49 640.01,-320.71 630.03,-318.87"/>
<polygon fill="black" stroke="black" points="630.89,-315.47 620.42,-317.07 629.6,-322.35 630.89,-315.47"/>
</g>
<!-- mpc&#45;&gt;python&#45;flint -->
<g id="edge19" class="edge">
<title>mpc&#45;&gt;python&#45;flint</title>
<path fill="none" stroke="black" d="M1056.68,-373.27C992.24,-367.23 872.37,-352.97 774,-324 715.04,-306.63 650.63,-276.29 610.52,-255.93"/>
<polygon fill="black" stroke="black" points="612.21,-252.86 601.72,-251.41 609.02,-259.09 612.21,-252.86"/>
</g>
<!-- mpc&#45;&gt;normaliz -->
<g id="edge20" class="edge">
<title>mpc&#45;&gt;normaliz</title>
<path fill="none" stroke="black" d="M1056.43,-373.53C1002.29,-368.18 911.13,-355.06 839,-324 801.26,-307.75 763.51,-279.02 739.31,-258.6"/>
<polygon fill="black" stroke="black" points="741.74,-256.07 731.87,-252.21 737.18,-261.38 741.74,-256.07"/>
</g>
<!-- mpc&#45;&gt;antic -->
<g id="edge21" class="edge">
<title>mpc&#45;&gt;antic</title>
<path fill="none" stroke="black" d="M1055.42,-377.02C1005.15,-374.74 925.87,-364.3 872,-324 851.74,-308.84 838.52,-282.91 830.8,-262.94"/>
<polygon fill="black" stroke="black" points="834.16,-261.93 827.48,-253.7 827.57,-264.29 834.16,-261.93"/>
</g>
<!-- python&#45;igraph -->
<g id="node13" class="node">
<title>python&#45;igraph</title>
<g id="a_node13"><a xlink:href="https://github.com/conda-forge/python-igraph-feedstock/pull/90" xlink:title="python igraph ✓">
<ellipse fill="#31688e" stroke="black" cx="1004" cy="-234" rx="89.61" ry="18"/>
<text text-anchor="middle" x="1004" y="-229.32" font-family="Times,serif" font-size="14.00" fill="white">python igraph ✓</text>
</a>
</g>
</g>
<!-- mpc&#45;&gt;python&#45;igraph -->
<g id="edge22" class="edge">
<title>mpc&#45;&gt;python&#45;igraph</title>
<path fill="none" stroke="black" d="M1094.89,-359.88C1085.81,-341.42 1070.1,-311.5 1053,-288 1045.92,-278.27 1037.26,-268.39 1029.2,-259.83"/>
<polygon fill="black" stroke="black" points="1031.94,-257.63 1022.47,-252.86 1026.9,-262.49 1031.94,-257.63"/>
</g>
<!-- gudhi -->
<g id="node14" class="node">
<title>gudhi</title>
<g id="a_node14"><a xlink:href="https://github.com/conda-forge/gudhi-feedstock/pull/62" xlink:title="gudhi ✓">
<ellipse fill="#31688e" stroke="black" cx="1084" cy="-162" rx="47.53" ry="18"/>
<text text-anchor="middle" x="1084" y="-157.32" font-family="Times,serif" font-size="14.00" fill="white">gudhi ✓</text>
</a>
</g>
</g>
<!-- mpc&#45;&gt;gudhi -->
<g id="edge23" class="edge">
<title>mpc&#45;&gt;gudhi</title>
<path fill="none" stroke="black" d="M1104.9,-359.91C1107.78,-330.33 1112,-267.77 1103,-216 1101.52,-207.49 1098.8,-198.54 1095.87,-190.47"/>
<polygon fill="black" stroke="black" points="1099.14,-189.23 1092.25,-181.19 1092.62,-191.78 1099.14,-189.23"/>
</g>
<!-- wildmeshing -->
<g id="node15" class="node">
<title>wildmeshing</title>
<g id="a_node15"><a xlink:href="https://github.com/conda-forge/wildmeshing-feedstock/pull/24" xlink:title="wildmeshing ❎">
<ellipse fill="#31688e" stroke="black" cx="1080" cy="-90" rx="90.14" ry="18"/>
<text text-anchor="middle" x="1080" y="-85.33" font-family="Times,serif" font-size="14.00" fill="white">wildmeshing ❎</text>
</a>
</g>
</g>
<!-- mpc&#45;&gt;wildmeshing -->
<g id="edge24" class="edge">
<title>mpc&#45;&gt;wildmeshing</title>
<path fill="none" stroke="black" d="M1112.09,-360.03C1132.04,-320.35 1175.26,-219.15 1141,-144 1135.74,-132.47 1126.6,-122.47 1116.97,-114.37"/>
<polygon fill="black" stroke="black" points="1119.32,-111.77 1109.28,-108.4 1115.03,-117.29 1119.32,-111.77"/>
</g>
<!-- ifcopenshell -->
<g id="node16" class="node">
<title>ifcopenshell</title>
<g id="a_node16"><a xlink:href="https://github.com/conda-forge/ifcopenshell-feedstock" xlink:title="ifcopenshell">
<ellipse fill="#35b779" stroke="black" cx="1198" cy="-18" rx="71.2" ry="18"/>
<text text-anchor="middle" x="1198" y="-13.32" font-family="Times,serif" font-size="14.00">ifcopenshell</text>
</a>
</g>
</g>
<!-- mpc&#45;&gt;ifcopenshell -->
<g id="edge25" class="edge">
<title>mpc&#45;&gt;ifcopenshell</title>
<path fill="none" stroke="black" d="M1122.68,-361.4C1150.51,-337.44 1198,-288.69 1198,-235 1198,-235 1198,-235 1198,-161 1198,-121.74 1198,-76.38 1198,-47.69"/>
<polygon fill="black" stroke="black" points="1201.5,-48 1198,-38 1194.5,-48 1201.5,-48"/>
</g>
<!-- gnuradio -->
<g id="node17" class="node">
<title>gnuradio</title>
<g id="a_node17"><a xlink:href="https://github.com/conda-forge/gnuradio-feedstock" xlink:title="gnuradio">
<ellipse fill="#35b779" stroke="black" cx="1282" cy="-306" rx="55.94" ry="18"/>
<text text-anchor="middle" x="1282" y="-301.32" font-family="Times,serif" font-size="14.00">gnuradio</text>
</a>
</g>
</g>
<!-- mpc&#45;&gt;gnuradio -->
<g id="edge26" class="edge">
<title>mpc&#45;&gt;gnuradio</title>
<path fill="none" stroke="black" d="M1135,-364.49C1163.46,-353.36 1205.37,-336.97 1237.17,-324.53"/>
<polygon fill="black" stroke="black" points="1238.08,-327.93 1246.12,-321.03 1235.53,-321.41 1238.08,-327.93"/>
</g>
<!-- scikit&#45;geometry -->
<g id="node18" class="node">
<title>scikit&#45;geometry</title>
<g id="a_node18"><a xlink:href="https://github.com/conda-forge/scikit-geometry-feedstock" xlink:title="scikit geometry">
<ellipse fill="#35b779" stroke="black" cx="1315" cy="-234" rx="89.09" ry="18"/>
<text text-anchor="middle" x="1315" y="-229.32" font-family="Times,serif" font-size="14.00">scikit geometry</text>
</a>
</g>
</g>
<!-- mpc&#45;&gt;scikit&#45;geometry -->
<g id="edge27" class="edge">
<title>mpc&#45;&gt;scikit&#45;geometry</title>
<path fill="none" stroke="black" d="M1149.6,-373.67C1213.37,-368.04 1322.69,-354.16 1347,-324 1361.72,-305.74 1350.05,-280.14 1336.85,-261.08"/>
<polygon fill="black" stroke="black" points="1339.82,-259.21 1331.06,-253.27 1334.2,-263.38 1339.82,-259.21"/>
</g>
<!-- pygalmesh -->
<g id="node19" class="node">
<title>pygalmesh</title>
<g id="a_node19"><a xlink:href="https://github.com/conda-forge/pygalmesh-feedstock" xlink:title="pygalmesh">
<ellipse fill="#35b779" stroke="black" cx="1377" cy="-162" rx="65.41" ry="18"/>
<text text-anchor="middle" x="1377" y="-157.32" font-family="Times,serif" font-size="14.00">pygalmesh</text>
</a>
</g>
</g>
<!-- mpc&#45;&gt;pygalmesh -->
<g id="edge28" class="edge">
<title>mpc&#45;&gt;pygalmesh</title>
<path fill="none" stroke="black" d="M1150.89,-377.78C1206.58,-376.45 1299.12,-367.14 1364,-324 1407.89,-294.82 1428.49,-266.38 1413,-216 1410.04,-206.37 1404.67,-196.92 1398.96,-188.73"/>
<polygon fill="black" stroke="black" points="1401.94,-186.87 1393.14,-180.97 1396.34,-191.07 1401.94,-186.87"/>
</g>
<!-- compas_cgal -->
<g id="node20" class="node">
<title>compas_cgal</title>
<g id="a_node20"><a xlink:href="https://github.com/conda-forge/compas_cgal-feedstock" xlink:title="compas_cgal">
<ellipse fill="#35b779" stroke="black" cx="1406" cy="-90" rx="74.36" ry="18"/>
<text text-anchor="middle" x="1406" y="-85.33" font-family="Times,serif" font-size="14.00">compas_cgal</text>
</a>
</g>
</g>
<!-- mpc&#45;&gt;compas_cgal -->
<g id="edge29" class="edge">
<title>mpc&#45;&gt;compas_cgal</title>
<path fill="none" stroke="black" d="M1149.59,-373.87C1222.53,-368.11 1359.26,-353.62 1397,-324 1462.7,-272.43 1479.79,-222.4 1451,-144 1447.21,-133.68 1440.42,-124 1433.25,-115.8"/>
<polygon fill="black" stroke="black" points="1435.89,-113.5 1426.48,-108.64 1430.8,-118.31 1435.89,-113.5"/>
</g>
<!-- imp -->
<g id="node21" class="node">
<title>imp</title>
<g id="a_node21"><a xlink:href="https://github.com/conda-forge/imp-feedstock" xlink:title="imp">
<ellipse fill="#35b779" stroke="black" cx="1508" cy="-18" rx="30.16" ry="18"/>
<text text-anchor="middle" x="1508" y="-13.32" font-family="Times,serif" font-size="14.00">imp</text>
</a>
</g>
</g>
<!-- mpc&#45;&gt;imp -->
<g id="edge31" class="edge">
<title>mpc&#45;&gt;imp</title>
<path fill="none" stroke="black" d="M1149.17,-373.32C1227.28,-366.47 1381.65,-350.05 1429,-324 1475.34,-298.5 1508,-287.89 1508,-235 1508,-235 1508,-235 1508,-161 1508,-121.74 1508,-76.38 1508,-47.69"/>
<polygon fill="black" stroke="black" points="1511.5,-48 1508,-38 1504.5,-48 1511.5,-48"/>
</g>
<!-- gmpxxll -->
<g id="node22" class="node">
<title>gmpxxll</title>
<g id="a_node22"><a xlink:href="https://github.com/conda-forge/gmpxxll-feedstock" xlink:title="gmpxxll">
<ellipse fill="#35b779" stroke="black" cx="1587" cy="-306" rx="51.21" ry="18"/>
<text text-anchor="middle" x="1587" y="-301.32" font-family="Times,serif" font-size="14.00">gmpxxll</text>
</a>
</g>
</g>
<!-- mpc&#45;&gt;gmpxxll -->
<g id="edge32" class="edge">
<title>mpc&#45;&gt;gmpxxll</title>
<path fill="none" stroke="black" d="M1149.19,-373.14C1226.72,-366.21 1387.74,-349.94 1522,-324 1526.9,-323.05 1531.98,-321.95 1537.04,-320.76"/>
<polygon fill="black" stroke="black" points="1537.65,-324.22 1546.53,-318.44 1535.99,-317.42 1537.65,-324.22"/>
</g>
<!-- spam -->
<g id="node23" class="node">
<title>spam</title>
<g id="a_node23"><a xlink:href="https://github.com/conda-forge/spam-feedstock" xlink:title="spam">
<ellipse fill="#35b779" stroke="black" cx="1652" cy="-234" rx="38.06" ry="18"/>
<text text-anchor="middle" x="1652" y="-229.32" font-family="Times,serif" font-size="14.00">spam</text>
</a>
</g>
</g>
<!-- mpc&#45;&gt;spam -->
<g id="edge33" class="edge">
<title>mpc&#45;&gt;spam</title>
<path fill="none" stroke="black" d="M1150.51,-375.84C1276.68,-372.28 1612.91,-359.51 1647,-324 1662.07,-308.3 1662.09,-283 1659.05,-263.38"/>
<polygon fill="black" stroke="black" points="1662.54,-262.96 1657.22,-253.8 1655.66,-264.28 1662.54,-262.96"/>
</g>
<!-- pycolmap -->
<g id="node24" class="node">
<title>pycolmap</title>
<g id="a_node24"><a xlink:href="https://github.com/conda-forge/pycolmap-feedstock" xlink:title="pycolmap">
<ellipse fill="#35b779" stroke="black" cx="1718" cy="-162" rx="59.1" ry="18"/>
<text text-anchor="middle" x="1718" y="-157.32" font-family="Times,serif" font-size="14.00">pycolmap</text>
</a>
</g>
</g>
<!-- mpc&#45;&gt;pycolmap -->
<g id="edge34" class="edge">
<title>mpc&#45;&gt;pycolmap</title>
<path fill="none" stroke="black" d="M1150.21,-375.27C1278.27,-370.22 1625.42,-353.88 1667,-324 1708.89,-293.89 1717.29,-229.11 1718.45,-191.55"/>
<polygon fill="black" stroke="black" points="1721.94,-191.94 1718.58,-181.9 1714.94,-191.85 1721.94,-191.94"/>
</g>
<!-- pygplates -->
<g id="node25" class="node">
<title>pygplates</title>
<g id="a_node25"><a xlink:href="https://github.com/conda-forge/pygplates-feedstock" xlink:title="pygplates">
<ellipse fill="#35b779" stroke="black" cx="1805" cy="-90" rx="60.15" ry="18"/>
<text text-anchor="middle" x="1805" y="-85.33" font-family="Times,serif" font-size="14.00">pygplates</text>
</a>
</g>
</g>
<!-- mpc&#45;&gt;pygplates -->
<g id="edge35" class="edge">
<title>mpc&#45;&gt;pygplates</title>
<path fill="none" stroke="black" d="M1150.41,-375.16C1282.65,-369.69 1648.93,-352.13 1695,-324 1767.98,-279.43 1793.31,-171.49 1801.45,-119.68"/>
<polygon fill="black" stroke="black" points="1804.9,-120.26 1802.88,-109.86 1797.98,-119.26 1804.9,-120.26"/>
</g>
</g>
</svg>
