<?xml version="1.0" encoding="UTF-8" standalone="no"?>
<!DOCTYPE svg PUBLIC "-//W3C//DTD SVG 1.1//EN"
 "http://www.w3.org/Graphics/SVG/1.1/DTD/svg11.dtd">
<!-- Generated by graphviz version 11.0.0 (20240519.1550)
 -->
<!-- Pages: 1 -->
<svg width="2911pt" height="476pt"
 viewBox="0.00 0.00 2911.15 476.00" xmlns="http://www.w3.org/2000/svg" xmlns:xlink="http://www.w3.org/1999/xlink">
<g id="graph0" class="graph" transform="scale(1 1) rotate(0) translate(4 472)">
<polygon fill="white" stroke="none" points="-4,4 -4,-472 2907.15,-472 2907.15,4 -4,4"/>
<!-- arb -->
<g id="node1" class="node">
<title>arb</title>
<g id="a_node1"><a xlink:href="https://github.com/conda-forge/arb-feedstock" xlink:title="arb">
<ellipse fill="#ff8c00" stroke="black" cx="550" cy="-234" rx="28.06" ry="18"/>
<text text-anchor="middle" x="550" y="-229.32" font-family="Times,serif" font-size="14.00">arb</text>
</a>
</g>
</g>
<!-- mppp -->
<g id="node2" class="node">
<title>mppp</title>
<g id="a_node2"><a xlink:href="https://github.com/conda-forge/mppp-feedstock" xlink:title="mppp">
<ellipse fill="#ff8c00" stroke="black" cx="550" cy="-162" rx="39.63" ry="18"/>
<text text-anchor="middle" x="550" y="-157.32" font-family="Times,serif" font-size="14.00">mppp</text>
</a>
</g>
</g>
<!-- arb&#45;&gt;mppp -->
<g id="edge1" class="edge">
<title>arb&#45;&gt;mppp</title>
<path fill="none" stroke="black" d="M550,-215.7C550,-208.41 550,-199.73 550,-191.54"/>
<polygon fill="black" stroke="black" points="553.5,-191.62 550,-181.62 546.5,-191.62 553.5,-191.62"/>
</g>
<!-- heyoka.py -->
<g id="node3" class="node">
<title>heyoka.py</title>
<g id="a_node3"><a xlink:href="https://github.com/conda-forge/heyoka.py-feedstock" xlink:title="heyoka py">
<ellipse fill="#35b779" stroke="black" cx="476" cy="-18" rx="61.73" ry="18"/>
<text text-anchor="middle" x="476" y="-13.32" font-family="Times,serif" font-size="14.00">heyoka py</text>
</a>
</g>
</g>
<!-- mppp&#45;&gt;heyoka.py -->
<g id="edge2" class="edge">
<title>mppp&#45;&gt;heyoka.py</title>
<path fill="none" stroke="black" d="M529.5,-146.29C517.64,-136.71 503.44,-123.19 495,-108 484.73,-89.51 480,-66.01 477.83,-47.81"/>
<polygon fill="black" stroke="black" points="481.33,-47.56 476.87,-37.95 474.36,-48.25 481.33,-47.56"/>
</g>
<!-- heyoka -->
<g id="node4" class="node">
<title>heyoka</title>
<g id="a_node4"><a xlink:href="https://github.com/conda-forge/heyoka-feedstock" xlink:title="heyoka">
<ellipse fill="#35b779" stroke="black" cx="550" cy="-90" rx="46.47" ry="18"/>
<text text-anchor="middle" x="550" y="-85.33" font-family="Times,serif" font-size="14.00">heyoka</text>
</a>
</g>
</g>
<!-- mppp&#45;&gt;heyoka -->
<g id="edge3" class="edge">
<title>mppp&#45;&gt;heyoka</title>
<path fill="none" stroke="black" d="M550,-143.7C550,-136.41 550,-127.73 550,-119.54"/>
<polygon fill="black" stroke="black" points="553.5,-119.62 550,-109.62 546.5,-119.62 553.5,-119.62"/>
</g>
<!-- heyoka&#45;&gt;heyoka.py -->
<g id="edge64" class="edge">
<title>heyoka&#45;&gt;heyoka.py</title>
<path fill="none" stroke="black" d="M533.21,-73.12C523.95,-64.36 512.25,-53.29 501.85,-43.45"/>
<polygon fill="black" stroke="black" points="504.27,-40.92 494.6,-36.59 499.46,-46.01 504.27,-40.92"/>
</g>
<!-- cgal -->
<g id="node5" class="node">
<title>cgal</title>
<g id="a_node5"><a xlink:href="https://github.com/conda-forge/cgal-feedstock" xlink:title="cgal">
<ellipse fill="#ff8c00" stroke="black" cx="598" cy="-306" rx="31.74" ry="18"/>
<text text-anchor="middle" x="598" y="-301.32" font-family="Times,serif" font-size="14.00">cgal</text>
</a>
</g>
</g>
<!-- gmpy2 -->
<g id="node6" class="node">
<title>gmpy2</title>
<g id="a_node6"><a xlink:href="https://github.com/conda-forge/gmpy2-feedstock" xlink:title="gmpy2">
<ellipse fill="#ff8c00" stroke="black" cx="207" cy="-306" rx="45.42" ry="18"/>
<text text-anchor="middle" x="207" y="-301.32" font-family="Times,serif" font-size="14.00">gmpy2</text>
</a>
</g>
</g>
<!-- gmpy2&#45;&gt;heyoka.py -->
<g id="edge5" class="edge">
<title>gmpy2&#45;&gt;heyoka.py</title>
<path fill="none" stroke="black" d="M166.56,-297.28C141.28,-290.13 110.65,-276.72 95,-252 86.44,-238.48 86.68,-229.67 95,-216 164.62,-101.63 324.4,-50.73 413.34,-30.57"/>
<polygon fill="black" stroke="black" points="413.86,-34.04 422.88,-28.47 412.36,-27.2 413.86,-34.04"/>
</g>
<!-- python&#45;symengine -->
<g id="node7" class="node">
<title>python&#45;symengine</title>
<g id="a_node7"><a xlink:href="https://github.com/conda-forge/python-symengine-feedstock" xlink:title="python symengine">
<ellipse fill="#000000" stroke="black" cx="207" cy="-234" rx="103.29" ry="18"/>
<text text-anchor="middle" x="207" y="-229.32" font-family="Times,serif" font-size="14.00" fill="white">python symengine</text>
</a>
</g>
</g>
<!-- gmpy2&#45;&gt;python&#45;symengine -->
<g id="edge4" class="edge">
<title>gmpy2&#45;&gt;python&#45;symengine</title>
<path fill="none" stroke="black" d="M207,-287.7C207,-280.41 207,-271.73 207,-263.54"/>
<polygon fill="black" stroke="black" points="210.5,-263.62 207,-253.62 203.5,-263.62 210.5,-263.62"/>
</g>
<!-- igraph -->
<g id="node8" class="node">
<title>igraph</title>
<g id="a_node8"><a xlink:href="https://github.com/conda-forge/igraph-feedstock/pull/73" xlink:title="igraph ❎">
<ellipse fill="#31688e" stroke="black" cx="707" cy="-306" rx="59.1" ry="18"/>
<text text-anchor="middle" x="707" y="-301.32" font-family="Times,serif" font-size="14.00" fill="white">igraph ❎</text>
</a>
</g>
</g>
<!-- libflint -->
<g id="node9" class="node">
<title>libflint</title>
<g id="a_node9"><a xlink:href="https://github.com/conda-forge/libflint-feedstock" xlink:title="libflint">
<ellipse fill="#ff8c00" stroke="black" cx="352" cy="-306" rx="43.84" ry="18"/>
<text text-anchor="middle" x="352" y="-301.32" font-family="Times,serif" font-size="14.00">libflint</text>
</a>
</g>
</g>
<!-- libflint&#45;&gt;arb -->
<g id="edge6" class="edge">
<title>libflint&#45;&gt;arb</title>
<path fill="none" stroke="black" d="M386.95,-294.74C419.83,-284.8 470.27,-268.79 513,-252 514.52,-251.4 516.07,-250.77 517.63,-250.12"/>
<polygon fill="black" stroke="black" points="518.72,-253.47 526.48,-246.26 515.92,-247.05 518.72,-253.47"/>
</g>
<!-- libflint&#45;&gt;mppp -->
<g id="edge7" class="edge">
<title>libflint&#45;&gt;mppp</title>
<path fill="none" stroke="black" d="M347.57,-287.85C343.61,-268.23 340.66,-236.23 357,-216 375.02,-193.7 450,-178.13 501.02,-169.87"/>
<polygon fill="black" stroke="black" points="501.32,-173.37 510.66,-168.36 500.24,-166.45 501.32,-173.37"/>
</g>
<!-- libflint&#45;&gt;python&#45;symengine -->
<g id="edge8" class="edge">
<title>libflint&#45;&gt;python&#45;symengine</title>
<path fill="none" stroke="black" d="M324.39,-291.67C303.7,-281.68 274.98,-267.82 251.12,-256.3"/>
<polygon fill="black" stroke="black" points="252.78,-253.22 242.26,-252.02 249.74,-259.52 252.78,-253.22"/>
</g>
<!-- python&#45;flint -->
<g id="node10" class="node">
<title>python&#45;flint</title>
<g id="a_node10"><a xlink:href="https://github.com/conda-forge/python-flint-feedstock" xlink:title="python flint">
<ellipse fill="#35b779" stroke="black" cx="435" cy="-234" rx="69.1" ry="18"/>
<text text-anchor="middle" x="435" y="-229.32" font-family="Times,serif" font-size="14.00">python flint</text>
</a>
</g>
</g>
<!-- libflint&#45;&gt;python&#45;flint -->
<g id="edge9" class="edge">
<title>libflint&#45;&gt;python&#45;flint</title>
<path fill="none" stroke="black" d="M370.42,-289.46C381,-280.54 394.51,-269.14 406.44,-259.08"/>
<polygon fill="black" stroke="black" points="408.64,-261.81 414.03,-252.69 404.12,-256.46 408.64,-261.81"/>
</g>
<!-- normaliz -->
<g id="node11" class="node">
<title>normaliz</title>
<g id="a_node11"><a xlink:href="https://github.com/conda-forge/normaliz-feedstock" xlink:title="normaliz">
<ellipse fill="#35b779" stroke="black" cx="651" cy="-234" rx="54.89" ry="18"/>
<text text-anchor="middle" x="651" y="-229.32" font-family="Times,serif" font-size="14.00">normaliz</text>
</a>
</g>
</g>
<!-- libflint&#45;&gt;normaliz -->
<g id="edge10" class="edge">
<title>libflint&#45;&gt;normaliz</title>
<path fill="none" stroke="black" d="M390.37,-296.81C436.98,-286.76 517.95,-268.95 587,-252 590.8,-251.07 594.72,-250.08 598.66,-249.07"/>
<polygon fill="black" stroke="black" points="599.48,-252.48 608.28,-246.58 597.72,-245.7 599.48,-252.48"/>
</g>
<!-- antic -->
<g id="node12" class="node">
<title>antic</title>
<g id="a_node12"><a xlink:href="https://github.com/conda-forge/antic-feedstock" xlink:title="antic">
<ellipse fill="#35b779" stroke="black" cx="760" cy="-234" rx="35.95" ry="18"/>
<text text-anchor="middle" x="760" y="-229.32" font-family="Times,serif" font-size="14.00">antic</text>
</a>
</g>
</g>
<!-- libflint&#45;&gt;antic -->
<g id="edge11" class="edge">
<title>libflint&#45;&gt;antic</title>
<path fill="none" stroke="black" d="M393.41,-299.47C481.99,-287.56 684.32,-259.93 715,-252 717.43,-251.37 719.91,-250.66 722.4,-249.88"/>
<polygon fill="black" stroke="black" points="723.41,-253.24 731.75,-246.7 721.15,-246.61 723.41,-253.24"/>
</g>
<!-- mpc -->
<g id="node13" class="node">
<title>mpc</title>
<g id="a_node13"><a xlink:href="https://github.com/conda-forge/mpc-feedstock" xlink:title="mpc">
<ellipse fill="#ff8c00" stroke="black" cx="1227" cy="-450" rx="32.27" ry="18"/>
<text text-anchor="middle" x="1227" y="-445.32" font-family="Times,serif" font-size="14.00">mpc</text>
</a>
</g>
</g>
<!-- mpc&#45;&gt;arb -->
<g id="edge12" class="edge">
<title>mpc&#45;&gt;arb</title>
<path fill="none" stroke="black" d="M1194.3,-449.21C1057.37,-449.78 534.83,-448.45 486,-396 453.29,-360.87 465.57,-331.44 486,-288 493,-273.12 506.44,-260.99 519.22,-252.1"/>
<polygon fill="black" stroke="black" points="520.96,-255.14 527.46,-246.77 517.16,-249.26 520.96,-255.14"/>
</g>
<!-- mpc&#45;&gt;mppp -->
<g id="edge13" class="edge">
<title>mpc&#45;&gt;mppp</title>
<path fill="none" stroke="black" d="M1194.49,-448.64C1070.47,-446.46 630.31,-431.19 557,-324 547.97,-310.79 546.53,-300.1 557,-288 629.88,-203.78 732.12,-336.22 805,-252 815.47,-239.9 815.1,-228.41 805,-216 779.71,-184.91 667.2,-171.47 600.37,-166.14"/>
<polygon fill="black" stroke="black" points="601,-162.67 590.76,-165.4 600.47,-169.65 601,-162.67"/>
</g>
<!-- mpc&#45;&gt;heyoka.py -->
<g id="edge17" class="edge">
<title>mpc&#45;&gt;heyoka.py</title>
<path fill="none" stroke="black" d="M1194.43,-449.27C1015.88,-450.49 160.17,-453.31 59,-396 17.71,-372.61 0,-354.46 0,-307 0,-307 0,-307 0,-161 0,-77.2 274.3,-38.8 406.45,-25.16"/>
<polygon fill="black" stroke="black" points="406.53,-28.67 416.13,-24.18 405.83,-21.71 406.53,-28.67"/>
</g>
<!-- mpc&#45;&gt;heyoka -->
<g id="edge32" class="edge">
<title>mpc&#45;&gt;heyoka</title>
<path fill="none" stroke="black" d="M1194.58,-448.41C1027.66,-445.23 269.2,-429.06 170,-396 102.87,-373.63 38,-377.76 38,-307 38,-307 38,-307 38,-233 38,-139.45 359.43,-105 492.93,-94.72"/>
<polygon fill="black" stroke="black" points="492.89,-98.24 502.6,-94 492.37,-91.26 492.89,-98.24"/>
</g>
<!-- mpc&#45;&gt;cgal -->
<g id="edge14" class="edge">
<title>mpc&#45;&gt;cgal</title>
<path fill="none" stroke="black" d="M1195.44,-445.73C1133.88,-439.01 993.69,-422.07 878,-396 769.78,-371.61 743.48,-361.29 639,-324 637.07,-323.31 635.1,-322.58 633.12,-321.83"/>
<polygon fill="black" stroke="black" points="634.55,-318.63 623.97,-318.21 631.98,-325.14 634.55,-318.63"/>
</g>
<!-- mpc&#45;&gt;gmpy2 -->
<g id="edge15" class="edge">
<title>mpc&#45;&gt;gmpy2</title>
<path fill="none" stroke="black" d="M1194.4,-448.92C1035.68,-448.32 348.01,-442.98 266,-396 242.55,-382.56 226.67,-355.57 217.35,-334.81"/>
<polygon fill="black" stroke="black" points="220.64,-333.6 213.54,-325.73 214.18,-336.31 220.64,-333.6"/>
</g>
<!-- mpc&#45;&gt;python&#45;symengine -->
<g id="edge16" class="edge">
<title>mpc&#45;&gt;python&#45;symengine</title>
<path fill="none" stroke="black" d="M1194.39,-448.62C1032.4,-446.53 318.34,-435.15 228,-396 185.6,-377.62 171.12,-366.51 153,-324 146.73,-309.28 146.81,-302.75 153,-288 157.54,-277.19 165.47,-267.48 173.89,-259.41"/>
<polygon fill="black" stroke="black" points="176.06,-262.16 181.22,-252.91 171.42,-256.92 176.06,-262.16"/>
</g>
<!-- mpc&#45;&gt;igraph -->
<g id="edge18" class="edge">
<title>mpc&#45;&gt;igraph</title>
<path fill="none" stroke="black" d="M1197.42,-442.49C1154.75,-432.98 1073.5,-414.39 1005,-396 917.55,-372.52 816.8,-341.61 757.7,-323.08"/>
<polygon fill="black" stroke="black" points="758.84,-319.77 748.25,-320.11 756.74,-326.45 758.84,-319.77"/>
</g>
<!-- mpc&#45;&gt;libflint -->
<g id="edge19" class="edge">
<title>mpc&#45;&gt;libflint</title>
<path fill="none" stroke="black" d="M1194.64,-448.6C1051.41,-446.6 478.64,-436.13 410,-396 386.79,-382.43 371.2,-355.45 362.09,-334.73"/>
<polygon fill="black" stroke="black" points="365.41,-333.61 358.37,-325.69 358.93,-336.27 365.41,-333.61"/>
</g>
<!-- mpc&#45;&gt;python&#45;flint -->
<g id="edge20" class="edge">
<title>mpc&#45;&gt;python&#45;flint</title>
<path fill="none" stroke="black" d="M1194.85,-448.32C1048.53,-445.07 449.23,-429.76 373,-396 319.8,-372.44 266.16,-336.04 299,-288 313.82,-266.31 338.94,-253.5 363.59,-245.93"/>
<polygon fill="black" stroke="black" points="364.31,-249.36 373,-243.31 362.43,-242.62 364.31,-249.36"/>
</g>
<!-- mpc&#45;&gt;normaliz -->
<g id="edge21" class="edge">
<title>mpc&#45;&gt;normaliz</title>
<path fill="none" stroke="black" d="M1194.42,-449.17C1059.19,-449.54 546.89,-447.51 499,-396 488.82,-385.06 481.2,-314.13 500,-288 506.18,-279.41 558.51,-262.27 599.85,-249.8"/>
<polygon fill="black" stroke="black" points="600.6,-253.23 609.18,-247.01 598.6,-246.52 600.6,-253.23"/>
</g>
<!-- mpc&#45;&gt;antic -->
<g id="edge22" class="edge">
<title>mpc&#45;&gt;antic</title>
<path fill="none" stroke="black" d="M1194.65,-449.08C1062.71,-449.07 570.09,-445.69 524,-396 491.36,-360.81 493.36,-324.95 524,-288 579.14,-221.5 631.83,-275.35 715,-252 717.26,-251.37 719.57,-250.66 721.89,-249.92"/>
<polygon fill="black" stroke="black" points="722.91,-253.27 731.22,-246.7 720.62,-246.65 722.91,-253.27"/>
</g>
<!-- mpfr -->
<g id="node14" class="node">
<title>mpfr</title>
<g id="a_node14"><a xlink:href="https://github.com/conda-forge/mpfr-feedstock/pull/46" xlink:title="mpfr ❎">
<ellipse fill="#31688e" stroke="black" cx="1227" cy="-378" rx="50.68" ry="18"/>
<text text-anchor="middle" x="1227" y="-373.32" font-family="Times,serif" font-size="14.00" fill="white">mpfr ❎</text>
</a>
</g>
</g>
<!-- mpc&#45;&gt;mpfr -->
<g id="edge23" class="edge">
<title>mpc&#45;&gt;mpfr</title>
<path fill="none" stroke="black" d="M1221.12,-432.05C1220.34,-424.68 1220.08,-415.84 1220.35,-407.51"/>
<polygon fill="black" stroke="black" points="1223.83,-407.99 1220.99,-397.79 1216.84,-407.54 1223.83,-407.99"/>
</g>
<!-- python&#45;igraph -->
<g id="node15" class="node">
<title>python&#45;igraph</title>
<g id="a_node15"><a xlink:href="https://github.com/conda-forge/python-igraph-feedstock/pull/90" xlink:title="python igraph ✓">
<ellipse fill="#31688e" stroke="black" cx="874" cy="-306" rx="89.61" ry="18"/>
<text text-anchor="middle" x="874" y="-301.32" font-family="Times,serif" font-size="14.00" fill="white">python igraph ✓</text>
</a>
</g>
</g>
<!-- mpc&#45;&gt;python&#45;igraph -->
<g id="edge24" class="edge">
<title>mpc&#45;&gt;python&#45;igraph</title>
<path fill="none" stroke="black" d="M1201.33,-438.67C1142.91,-415.18 999.25,-357.38 923.14,-326.77"/>
<polygon fill="black" stroke="black" points="924.86,-323.69 914.27,-323.2 922.25,-330.18 924.86,-323.69"/>
</g>
<!-- gudhi -->
<g id="node16" class="node">
<title>gudhi</title>
<g id="a_node16"><a xlink:href="https://github.com/conda-forge/gudhi-feedstock" xlink:title="gudhi">
<ellipse fill="#35b779" stroke="black" cx="1326" cy="-306" rx="39.63" ry="18"/>
<text text-anchor="middle" x="1326" y="-301.32" font-family="Times,serif" font-size="14.00">gudhi</text>
</a>
</g>
</g>
<!-- mpc&#45;&gt;gudhi -->
<g id="edge25" class="edge">
<title>mpc&#45;&gt;gudhi</title>
<path fill="none" stroke="black" d="M1246.57,-435.26C1259.39,-425.48 1275.78,-411.38 1287,-396 1300.52,-377.46 1310.68,-353.51 1317.24,-335.12"/>
<polygon fill="black" stroke="black" points="1320.55,-336.24 1320.45,-325.65 1313.92,-333.99 1320.55,-336.24"/>
</g>
<!-- wildmeshing -->
<g id="node17" class="node">
<title>wildmeshing</title>
<g id="a_node17"><a xlink:href="https://github.com/conda-forge/wildmeshing-feedstock" xlink:title="wildmeshing">
<ellipse fill="#35b779" stroke="black" cx="1459" cy="-306" rx="74.88" ry="18"/>
<text text-anchor="middle" x="1459" y="-301.32" font-family="Times,serif" font-size="14.00">wildmeshing</text>
</a>
</g>
</g>
<!-- mpc&#45;&gt;wildmeshing -->
<g id="edge26" class="edge">
<title>mpc&#45;&gt;wildmeshing</title>
<path fill="none" stroke="black" d="M1248,-436.15C1287.65,-411.88 1373.97,-359.05 1423.03,-329.02"/>
<polygon fill="black" stroke="black" points="1424.62,-332.15 1431.32,-323.94 1420.96,-326.18 1424.62,-332.15"/>
</g>
<!-- ifcopenshell -->
<g id="node18" class="node">
<title>ifcopenshell</title>
<g id="a_node18"><a xlink:href="https://github.com/conda-forge/ifcopenshell-feedstock" xlink:title="ifcopenshell">
<ellipse fill="#35b779" stroke="black" cx="1623" cy="-306" rx="71.2" ry="18"/>
<text text-anchor="middle" x="1623" y="-301.32" font-family="Times,serif" font-size="14.00">ifcopenshell</text>
</a>
</g>
</g>
<!-- mpc&#45;&gt;ifcopenshell -->
<g id="edge27" class="edge">
<title>mpc&#45;&gt;ifcopenshell</title>
<path fill="none" stroke="black" d="M1253.6,-439.46C1318.8,-416.08 1487.47,-355.6 1572.47,-325.12"/>
<polygon fill="black" stroke="black" points="1573.49,-328.47 1581.72,-321.8 1571.13,-321.88 1573.49,-328.47"/>
</g>
<!-- gnuradio -->
<g id="node19" class="node">
<title>gnuradio</title>
<g id="a_node19"><a xlink:href="https://github.com/conda-forge/gnuradio-feedstock" xlink:title="gnuradio">
<ellipse fill="#35b779" stroke="black" cx="1768" cy="-306" rx="55.94" ry="18"/>
<text text-anchor="middle" x="1768" y="-301.32" font-family="Times,serif" font-size="14.00">gnuradio</text>
</a>
</g>
</g>
<!-- mpc&#45;&gt;gnuradio -->
<g id="edge28" class="edge">
<title>mpc&#45;&gt;gnuradio</title>
<path fill="none" stroke="black" d="M1256.19,-441.89C1297.11,-431.88 1373.83,-412.96 1439,-396 1536.98,-370.5 1650.96,-339.33 1715.78,-321.46"/>
<polygon fill="black" stroke="black" points="1716.35,-324.93 1725.06,-318.9 1714.49,-318.18 1716.35,-324.93"/>
</g>
<!-- scikit&#45;geometry -->
<g id="node20" class="node">
<title>scikit&#45;geometry</title>
<g id="a_node20"><a xlink:href="https://github.com/conda-forge/scikit-geometry-feedstock" xlink:title="scikit geometry">
<ellipse fill="#35b779" stroke="black" cx="1931" cy="-306" rx="89.09" ry="18"/>
<text text-anchor="middle" x="1931" y="-301.32" font-family="Times,serif" font-size="14.00">scikit geometry</text>
</a>
</g>
</g>
<!-- mpc&#45;&gt;scikit&#45;geometry -->
<g id="edge29" class="edge">
<title>mpc&#45;&gt;scikit&#45;geometry</title>
<path fill="none" stroke="black" d="M1257.54,-443.74C1310.47,-434.55 1422.63,-414.76 1517,-396 1638.72,-371.8 1779.93,-340.82 1862,-322.52"/>
<polygon fill="black" stroke="black" points="1862.71,-325.95 1871.7,-320.35 1861.18,-319.11 1862.71,-325.95"/>
</g>
<!-- pygalmesh -->
<g id="node21" class="node">
<title>pygalmesh</title>
<g id="a_node21"><a xlink:href="https://github.com/conda-forge/pygalmesh-feedstock" xlink:title="pygalmesh">
<ellipse fill="#35b779" stroke="black" cx="2104" cy="-306" rx="65.41" ry="18"/>
<text text-anchor="middle" x="2104" y="-301.32" font-family="Times,serif" font-size="14.00">pygalmesh</text>
</a>
</g>
</g>
<!-- mpc&#45;&gt;pygalmesh -->
<g id="edge30" class="edge">
<title>mpc&#45;&gt;pygalmesh</title>
<path fill="none" stroke="black" d="M1258.4,-445.14C1324.74,-436.91 1483.98,-416.65 1617,-396 1800.69,-367.48 1846.74,-360.56 2029,-324 2033.92,-323.01 2039.01,-321.95 2044.12,-320.85"/>
<polygon fill="black" stroke="black" points="2044.76,-324.3 2053.78,-318.74 2043.26,-317.46 2044.76,-324.3"/>
</g>
<!-- compas_cgal -->
<g id="node22" class="node">
<title>compas_cgal</title>
<g id="a_node22"><a xlink:href="https://github.com/conda-forge/compas_cgal-feedstock" xlink:title="compas_cgal">
<ellipse fill="#35b779" stroke="black" cx="2262" cy="-306" rx="74.36" ry="18"/>
<text text-anchor="middle" x="2262" y="-301.32" font-family="Times,serif" font-size="14.00">compas_cgal</text>
</a>
</g>
</g>
<!-- mpc&#45;&gt;compas_cgal -->
<g id="edge31" class="edge">
<title>mpc&#45;&gt;compas_cgal</title>
<path fill="none" stroke="black" d="M1259.02,-446.39C1340.06,-439.64 1559.82,-420.39 1742,-396 1936.66,-369.93 1984.83,-359.48 2178,-324 2183.85,-322.92 2189.93,-321.77 2196.01,-320.59"/>
<polygon fill="black" stroke="black" points="2196.31,-324.1 2205.44,-318.73 2194.96,-317.23 2196.31,-324.1"/>
</g>
<!-- imp -->
<g id="node23" class="node">
<title>imp</title>
<g id="a_node23"><a xlink:href="https://github.com/conda-forge/imp-feedstock" xlink:title="imp">
<ellipse fill="#35b779" stroke="black" cx="2385" cy="-306" rx="30.16" ry="18"/>
<text text-anchor="middle" x="2385" y="-301.32" font-family="Times,serif" font-size="14.00">imp</text>
</a>
</g>
</g>
<!-- mpc&#45;&gt;imp -->
<g id="edge33" class="edge">
<title>mpc&#45;&gt;imp</title>
<path fill="none" stroke="black" d="M1259.29,-447.14C1353.75,-441.52 1637.65,-423.43 1872,-396 2083.2,-371.28 2140.43,-382.04 2345,-324 2347.12,-323.4 2349.28,-322.71 2351.44,-321.97"/>
<polygon fill="black" stroke="black" points="2352.59,-325.28 2360.68,-318.44 2350.09,-318.74 2352.59,-325.28"/>
</g>
<!-- gmpxxll -->
<g id="node24" class="node">
<title>gmpxxll</title>
<g id="a_node24"><a xlink:href="https://github.com/conda-forge/gmpxxll-feedstock" xlink:title="gmpxxll">
<ellipse fill="#35b779" stroke="black" cx="2484" cy="-306" rx="51.21" ry="18"/>
<text text-anchor="middle" x="2484" y="-301.32" font-family="Times,serif" font-size="14.00">gmpxxll</text>
</a>
</g>
</g>
<!-- mpc&#45;&gt;gmpxxll -->
<g id="edge34" class="edge">
<title>mpc&#45;&gt;gmpxxll</title>
<path fill="none" stroke="black" d="M1259.52,-448.34C1370.12,-445.78 1741.75,-434.67 2046,-396 2215.66,-374.44 2257.57,-363.35 2424,-324 2427.53,-323.17 2431.16,-322.26 2434.81,-321.31"/>
<polygon fill="black" stroke="black" points="2435.51,-324.75 2444.26,-318.78 2433.69,-317.99 2435.51,-324.75"/>
</g>
<!-- spam -->
<g id="node25" class="node">
<title>spam</title>
<g id="a_node25"><a xlink:href="https://github.com/conda-forge/spam-feedstock" xlink:title="spam">
<ellipse fill="#35b779" stroke="black" cx="2591" cy="-306" rx="38.06" ry="18"/>
<text text-anchor="middle" x="2591" y="-301.32" font-family="Times,serif" font-size="14.00">spam</text>
</a>
</g>
</g>
<!-- mpc&#45;&gt;spam -->
<g id="edge35" class="edge">
<title>mpc&#45;&gt;spam</title>
<path fill="none" stroke="black" d="M1259.3,-448.75C1379.86,-447.49 1814.84,-439.97 2170,-396 2337.99,-375.2 2380.8,-368.93 2544,-324 2546.41,-323.34 2548.88,-322.61 2551.36,-321.83"/>
<polygon fill="black" stroke="black" points="2552.33,-325.2 2560.71,-318.72 2550.12,-318.56 2552.33,-325.2"/>
</g>
<!-- pycolmap -->
<g id="node26" class="node">
<title>pycolmap</title>
<g id="a_node26"><a xlink:href="https://github.com/conda-forge/pycolmap-feedstock" xlink:title="pycolmap">
<ellipse fill="#35b779" stroke="black" cx="2706" cy="-306" rx="59.1" ry="18"/>
<text text-anchor="middle" x="2706" y="-301.32" font-family="Times,serif" font-size="14.00">pycolmap</text>
</a>
</g>
</g>
<!-- mpc&#45;&gt;pycolmap -->
<g id="edge36" class="edge">
<title>mpc&#45;&gt;pycolmap</title>
<path fill="none" stroke="black" d="M1259.56,-449.26C1390.38,-449.93 1890.28,-448.67 2297,-396 2426.13,-379.28 2574.88,-342.36 2652.51,-321.71"/>
<polygon fill="black" stroke="black" points="2653.22,-325.15 2661.97,-319.18 2651.41,-318.38 2653.22,-325.15"/>
</g>
<!-- pygplates -->
<g id="node27" class="node">
<title>pygplates</title>
<g id="a_node27"><a xlink:href="https://github.com/conda-forge/pygplates-feedstock" xlink:title="pygplates">
<ellipse fill="#35b779" stroke="black" cx="2843" cy="-306" rx="60.15" ry="18"/>
<text text-anchor="middle" x="2843" y="-301.32" font-family="Times,serif" font-size="14.00">pygplates</text>
</a>
</g>
</g>
<!-- mpc&#45;&gt;pygplates -->
<g id="edge37" class="edge">
<title>mpc&#45;&gt;pygplates</title>
<path fill="none" stroke="black" d="M1259.5,-449.3C1398.16,-450.21 1953.85,-450.09 2406,-396 2544.77,-379.4 2705.11,-341.96 2787.61,-321.32"/>
<polygon fill="black" stroke="black" points="2788.41,-324.73 2797.26,-318.9 2786.71,-317.94 2788.41,-324.73"/>
</g>
<!-- mpfr&#45;&gt;arb -->
<g id="edge38" class="edge">
<title>mpfr&#45;&gt;arb</title>
<path fill="none" stroke="black" d="M1186.23,-366.93C1156.01,-358.35 1114.59,-344.18 1082,-324 1062.22,-311.75 1065.26,-297.45 1044,-288 857.84,-205.2 784.17,-303.32 587,-252 585.25,-251.54 583.48,-251.01 581.71,-250.42"/>
<polygon fill="black" stroke="black" points="583.04,-247.18 572.46,-246.77 580.48,-253.69 583.04,-247.18"/>
</g>
<!-- mpfr&#45;&gt;mppp -->
<g id="edge39" class="edge">
<title>mpfr&#45;&gt;mppp</title>
<path fill="none" stroke="black" d="M1218.19,-360.02C1206.7,-339.63 1184.64,-305.96 1156,-288 1062.23,-229.2 726.77,-184.07 599.47,-168.7"/>
<polygon fill="black" stroke="black" points="600.02,-165.24 589.67,-167.53 599.19,-172.19 600.02,-165.24"/>
</g>
<!-- mpfr&#45;&gt;heyoka.py -->
<g id="edge43" class="edge">
<title>mpfr&#45;&gt;heyoka.py</title>
<path fill="none" stroke="black" d="M1233.27,-359.78C1242.33,-333.32 1258,-280.92 1258,-235 1258,-235 1258,-235 1258,-161 1258,-89.04 738.71,-40.06 546.46,-24.4"/>
<polygon fill="black" stroke="black" points="546.86,-20.92 536.61,-23.6 546.29,-27.9 546.86,-20.92"/>
</g>
<!-- mpfr&#45;&gt;heyoka -->
<g id="edge58" class="edge">
<title>mpfr&#45;&gt;heyoka</title>
<path fill="none" stroke="black" d="M1223.82,-359.63C1219.33,-339.8 1209.31,-307.6 1189,-288 1023.48,-128.33 731.46,-97.81 607.86,-92.17"/>
<polygon fill="black" stroke="black" points="608.08,-88.68 597.94,-91.76 607.79,-95.67 608.08,-88.68"/>
</g>
<!-- mpfr&#45;&gt;cgal -->
<g id="edge40" class="edge">
<title>mpfr&#45;&gt;cgal</title>
<path fill="none" stroke="black" d="M1176.21,-377.55C1073.27,-377.54 833.32,-371.86 639,-324 636.87,-323.47 634.7,-322.86 632.54,-322.17"/>
<polygon fill="black" stroke="black" points="633.89,-318.94 623.29,-318.83 631.51,-325.52 633.89,-318.94"/>
</g>
<!-- mpfr&#45;&gt;gmpy2 -->
<g id="edge41" class="edge">
<title>mpfr&#45;&gt;gmpy2</title>
<path fill="none" stroke="black" d="M1176.25,-376.34C1036.11,-374.03 632.05,-364.12 299,-324 285.39,-322.36 270.76,-319.96 257.26,-317.47"/>
<polygon fill="black" stroke="black" points="258.2,-314.08 247.72,-315.65 256.89,-320.96 258.2,-314.08"/>
</g>
<!-- mpfr&#45;&gt;python&#45;symengine -->
<g id="edge42" class="edge">
<title>mpfr&#45;&gt;python&#45;symengine</title>
<path fill="none" stroke="black" d="M1177.81,-373.5C1130.86,-368.32 1059.55,-355.53 1006,-324 987.3,-312.99 992.6,-297.32 973,-288 849.15,-229.15 493.62,-263.73 357,-252 338.75,-250.43 319.28,-248.46 300.63,-246.41"/>
<polygon fill="black" stroke="black" points="301.27,-242.96 290.95,-245.33 300.5,-249.91 301.27,-242.96"/>
</g>
<!-- mpfr&#45;&gt;igraph -->
<g id="edge44" class="edge">
<title>mpfr&#45;&gt;igraph</title>
<path fill="none" stroke="black" d="M1177.53,-373.29C1094.06,-366.56 920.14,-350.54 775,-324 770.42,-323.16 765.69,-322.2 760.96,-321.16"/>
<polygon fill="black" stroke="black" points="761.99,-317.8 751.46,-318.97 760.42,-324.62 761.99,-317.8"/>
</g>
<!-- mpfr&#45;&gt;libflint -->
<g id="edge45" class="edge">
<title>mpfr&#45;&gt;libflint</title>
<path fill="none" stroke="black" d="M1177.82,-373.17C1067,-364.54 789.31,-342.82 557,-324 505.86,-319.86 447.56,-315.01 406.24,-311.55"/>
<polygon fill="black" stroke="black" points="406.56,-308.07 396.3,-310.72 405.97,-315.04 406.56,-308.07"/>
</g>
<!-- mpfr&#45;&gt;python&#45;flint -->
<g id="edge46" class="edge">
<title>mpfr&#45;&gt;python&#45;flint</title>
<path fill="none" stroke="black" d="M1181,-369.95C1142.48,-362.62 1087.05,-348.66 1044,-324 1023.81,-312.44 1027.28,-297.39 1006,-288 905.51,-243.65 621.71,-267.74 513,-252 507.32,-251.18 501.43,-250.18 495.55,-249.07"/>
<polygon fill="black" stroke="black" points="496.3,-245.65 485.81,-247.15 494.94,-252.52 496.3,-245.65"/>
</g>
<!-- mpfr&#45;&gt;normaliz -->
<g id="edge47" class="edge">
<title>mpfr&#45;&gt;normaliz</title>
<path fill="none" stroke="black" d="M1194.23,-363.82C1172.3,-354.29 1143.29,-340.25 1120,-324 1100.92,-310.69 1103.17,-297.66 1082,-288 932.9,-219.96 876.28,-281.13 715,-252 710.73,-251.23 706.33,-250.32 701.93,-249.32"/>
<polygon fill="black" stroke="black" points="703.08,-246 692.53,-247.06 701.44,-252.8 703.08,-246"/>
</g>
<!-- mpfr&#45;&gt;antic -->
<g id="edge48" class="edge">
<title>mpfr&#45;&gt;antic</title>
<path fill="none" stroke="black" d="M1208.78,-360.92C1180.99,-336.53 1130.15,-292.53 1120,-288 1064.84,-263.37 891.17,-245.96 806.85,-238.73"/>
<polygon fill="black" stroke="black" points="807.33,-235.26 797.07,-237.9 806.74,-242.23 807.33,-235.26"/>
</g>
<!-- mpfr&#45;&gt;mpc -->
<g id="edge49" class="edge">
<title>mpfr&#45;&gt;mpc</title>
<path fill="none" stroke="black" d="M1232.91,-396.28C1233.67,-403.6 1233.91,-412.34 1233.64,-420.57"/>
<polygon fill="black" stroke="black" points="1230.15,-420.33 1232.98,-430.54 1237.14,-420.8 1230.15,-420.33"/>
</g>
<!-- mpfr&#45;&gt;python&#45;igraph -->
<g id="edge50" class="edge">
<title>mpfr&#45;&gt;python&#45;igraph</title>
<path fill="none" stroke="black" d="M1183.36,-368.35C1124.44,-356.66 1018.64,-335.68 947.37,-321.55"/>
<polygon fill="black" stroke="black" points="948.22,-318.15 937.73,-319.64 946.86,-325.02 948.22,-318.15"/>
</g>
<!-- mpfr&#45;&gt;gudhi -->
<g id="edge51" class="edge">
<title>mpfr&#45;&gt;gudhi</title>
<path fill="none" stroke="black" d="M1248.97,-361.46C1262.84,-351.66 1280.94,-338.86 1296.11,-328.14"/>
<polygon fill="black" stroke="black" points="1297.73,-331.28 1303.87,-322.65 1293.69,-325.56 1297.73,-331.28"/>
</g>
<!-- mpfr&#45;&gt;wildmeshing -->
<g id="edge52" class="edge">
<title>mpfr&#45;&gt;wildmeshing</title>
<path fill="none" stroke="black" d="M1264.79,-365.6C1302.23,-354.3 1360.03,-336.86 1402.84,-323.94"/>
<polygon fill="black" stroke="black" points="1403.65,-327.36 1412.21,-321.12 1401.62,-320.66 1403.65,-327.36"/>
</g>
<!-- mpfr&#45;&gt;ifcopenshell -->
<g id="edge53" class="edge">
<title>mpfr&#45;&gt;ifcopenshell</title>
<path fill="none" stroke="black" d="M1272.9,-369.94C1334.49,-360.32 1447.23,-342.2 1543,-324 1548.3,-322.99 1553.79,-321.91 1559.3,-320.8"/>
<polygon fill="black" stroke="black" points="1559.99,-324.23 1569.08,-318.79 1558.58,-317.37 1559.99,-324.23"/>
</g>
<!-- mpfr&#45;&gt;gnuradio -->
<g id="edge54" class="edge">
<title>mpfr&#45;&gt;gnuradio</title>
<path fill="none" stroke="black" d="M1276.68,-373.85C1363.65,-367.81 1548.89,-352.58 1703,-324 1707.33,-323.2 1711.79,-322.26 1716.26,-321.25"/>
<polygon fill="black" stroke="black" points="1716.91,-324.69 1725.82,-318.96 1715.28,-317.89 1716.91,-324.69"/>
</g>
<!-- mpfr&#45;&gt;scikit&#45;geometry -->
<g id="edge55" class="edge">
<title>mpfr&#45;&gt;scikit&#45;geometry</title>
<path fill="none" stroke="black" d="M1276.64,-374.08C1380.3,-367.68 1627.21,-350.8 1833,-324 1840.42,-323.03 1848.14,-321.91 1855.84,-320.7"/>
<polygon fill="black" stroke="black" points="1856.26,-324.18 1865.57,-319.13 1855.15,-317.27 1856.26,-324.18"/>
</g>
<!-- mpfr&#45;&gt;pygalmesh -->
<g id="edge56" class="edge">
<title>mpfr&#45;&gt;pygalmesh</title>
<path fill="none" stroke="black" d="M1277.96,-376.4C1405.28,-374.3 1747.3,-364.97 2029,-324 2034.56,-323.19 2040.31,-322.19 2046.05,-321.08"/>
<polygon fill="black" stroke="black" points="2046.42,-324.58 2055.52,-319.14 2045.02,-317.72 2046.42,-324.58"/>
</g>
<!-- mpfr&#45;&gt;compas_cgal -->
<g id="edge57" class="edge">
<title>mpfr&#45;&gt;compas_cgal</title>
<path fill="none" stroke="black" d="M1278.01,-376.74C1420.77,-375.44 1836.24,-367.87 2178,-324 2184.43,-323.17 2191.1,-322.14 2197.75,-320.99"/>
<polygon fill="black" stroke="black" points="2198.17,-324.47 2207.38,-319.23 2196.91,-317.58 2198.17,-324.47"/>
</g>
<!-- mpfr&#45;&gt;imp -->
<g id="edge59" class="edge">
<title>mpfr&#45;&gt;imp</title>
<path fill="none" stroke="black" d="M1277.96,-376.97C1468.39,-376.47 2137.81,-371.34 2345,-324 2347.15,-323.51 2349.33,-322.91 2351.51,-322.23"/>
<polygon fill="black" stroke="black" points="2352.58,-325.56 2360.78,-318.84 2350.18,-318.99 2352.58,-325.56"/>
</g>
<!-- mpfr&#45;&gt;gmpxxll -->
<g id="edge60" class="edge">
<title>mpfr&#45;&gt;gmpxxll</title>
<path fill="none" stroke="black" d="M1277.95,-376.32C1476.45,-373.41 2198.11,-360.49 2424,-324 2428.03,-323.35 2432.18,-322.52 2436.32,-321.58"/>
<polygon fill="black" stroke="black" points="2436.85,-325.06 2445.71,-319.25 2435.16,-318.26 2436.85,-325.06"/>
</g>
<!-- mpfr&#45;&gt;spam -->
<g id="edge61" class="edge">
<title>mpfr&#45;&gt;spam</title>
<path fill="none" stroke="black" d="M1278.04,-377.03C1489.21,-376.83 2295.03,-372.82 2544,-324 2546.66,-323.48 2549.37,-322.83 2552.07,-322.1"/>
<polygon fill="black" stroke="black" points="2553.11,-325.44 2561.62,-319.13 2551.03,-318.76 2553.11,-325.44"/>
</g>
<!-- mpfr&#45;&gt;pycolmap -->
<g id="edge62" class="edge">
<title>mpfr&#45;&gt;pycolmap</title>
<path fill="none" stroke="black" d="M1277.8,-376.5C1497.56,-374.14 2367.39,-362.48 2638,-324 2642.88,-323.31 2647.91,-322.41 2652.93,-321.39"/>
<polygon fill="black" stroke="black" points="2653.34,-324.88 2662.35,-319.31 2651.83,-318.04 2653.34,-324.88"/>
</g>
<!-- mpfr&#45;&gt;pygplates -->
<g id="edge63" class="edge">
<title>mpfr&#45;&gt;pygplates</title>
<path fill="none" stroke="black" d="M1277.93,-376.67C1510.75,-374.96 2475.21,-365.47 2774,-324 2778.95,-323.31 2784.05,-322.42 2789.14,-321.4"/>
<polygon fill="black" stroke="black" points="2789.69,-324.86 2798.72,-319.32 2788.21,-318.02 2789.69,-324.86"/>
</g>
</g>
</svg>
