<?xml version="1.0" encoding="UTF-8" standalone="no"?>
<!DOCTYPE svg PUBLIC "-//W3C//DTD SVG 1.1//EN"
 "http://www.w3.org/Graphics/SVG/1.1/DTD/svg11.dtd">
<!-- Generated by graphviz version 11.0.0 (20240519.1550)
 -->
<!-- Pages: 1 -->
<svg width="2941pt" height="476pt"
 viewBox="0.00 0.00 2941.15 476.00" xmlns="http://www.w3.org/2000/svg" xmlns:xlink="http://www.w3.org/1999/xlink">
<g id="graph0" class="graph" transform="scale(1 1) rotate(0) translate(4 472)">
<polygon fill="white" stroke="none" points="-4,4 -4,-472 2937.15,-472 2937.15,4 -4,4"/>
<!-- arb -->
<g id="node1" class="node">
<title>arb</title>
<g id="a_node1"><a xlink:href="https://github.com/conda-forge/arb-feedstock/pull/36" xlink:title="arb ❎">
<ellipse fill="#31688e" stroke="black" cx="565" cy="-234" rx="43.32" ry="18"/>
<text text-anchor="middle" x="565" y="-229.32" font-family="Times,serif" font-size="14.00" fill="white">arb ❎</text>
</a>
</g>
</g>
<!-- mppp -->
<g id="node2" class="node">
<title>mppp</title>
<g id="a_node2"><a xlink:href="https://github.com/conda-forge/mppp-feedstock" xlink:title="mppp">
<ellipse fill="#ff8c00" stroke="black" cx="565" cy="-162" rx="39.63" ry="18"/>
<text text-anchor="middle" x="565" y="-157.32" font-family="Times,serif" font-size="14.00">mppp</text>
</a>
</g>
</g>
<!-- arb&#45;&gt;mppp -->
<g id="edge1" class="edge">
<title>arb&#45;&gt;mppp</title>
<path fill="none" stroke="black" d="M565,-215.7C565,-208.41 565,-199.73 565,-191.54"/>
<polygon fill="black" stroke="black" points="568.5,-191.62 565,-181.62 561.5,-191.62 568.5,-191.62"/>
</g>
<!-- heyoka.py -->
<g id="node3" class="node">
<title>heyoka.py</title>
<g id="a_node3"><a xlink:href="https://github.com/conda-forge/heyoka.py-feedstock" xlink:title="heyoka py">
<ellipse fill="#35b779" stroke="black" cx="491" cy="-18" rx="61.73" ry="18"/>
<text text-anchor="middle" x="491" y="-13.32" font-family="Times,serif" font-size="14.00">heyoka py</text>
</a>
</g>
</g>
<!-- mppp&#45;&gt;heyoka.py -->
<g id="edge2" class="edge">
<title>mppp&#45;&gt;heyoka.py</title>
<path fill="none" stroke="black" d="M544.5,-146.29C532.64,-136.71 518.44,-123.19 510,-108 499.73,-89.51 495,-66.01 492.83,-47.81"/>
<polygon fill="black" stroke="black" points="496.33,-47.56 491.87,-37.95 489.36,-48.25 496.33,-47.56"/>
</g>
<!-- heyoka -->
<g id="node4" class="node">
<title>heyoka</title>
<g id="a_node4"><a xlink:href="https://github.com/conda-forge/heyoka-feedstock" xlink:title="heyoka">
<ellipse fill="#35b779" stroke="black" cx="565" cy="-90" rx="46.47" ry="18"/>
<text text-anchor="middle" x="565" y="-85.33" font-family="Times,serif" font-size="14.00">heyoka</text>
</a>
</g>
</g>
<!-- mppp&#45;&gt;heyoka -->
<g id="edge3" class="edge">
<title>mppp&#45;&gt;heyoka</title>
<path fill="none" stroke="black" d="M565,-143.7C565,-136.41 565,-127.73 565,-119.54"/>
<polygon fill="black" stroke="black" points="568.5,-119.62 565,-109.62 561.5,-119.62 568.5,-119.62"/>
</g>
<!-- heyoka&#45;&gt;heyoka.py -->
<g id="edge64" class="edge">
<title>heyoka&#45;&gt;heyoka.py</title>
<path fill="none" stroke="black" d="M548.21,-73.12C538.95,-64.36 527.25,-53.29 516.85,-43.45"/>
<polygon fill="black" stroke="black" points="519.27,-40.92 509.6,-36.59 514.46,-46.01 519.27,-40.92"/>
</g>
<!-- cgal -->
<g id="node5" class="node">
<title>cgal</title>
<g id="a_node5"><a xlink:href="https://github.com/conda-forge/cgal-feedstock/pull/94" xlink:title="cgal ❎">
<ellipse fill="#31688e" stroke="black" cx="613" cy="-306" rx="47" ry="18"/>
<text text-anchor="middle" x="613" y="-301.32" font-family="Times,serif" font-size="14.00" fill="white">cgal ❎</text>
</a>
</g>
</g>
<!-- gmpy2 -->
<g id="node6" class="node">
<title>gmpy2</title>
<g id="a_node6"><a xlink:href="https://github.com/conda-forge/gmpy2-feedstock" xlink:title="gmpy2">
<ellipse fill="#ff8c00" stroke="black" cx="207" cy="-306" rx="45.42" ry="18"/>
<text text-anchor="middle" x="207" y="-301.32" font-family="Times,serif" font-size="14.00">gmpy2</text>
</a>
</g>
</g>
<!-- gmpy2&#45;&gt;heyoka.py -->
<g id="edge5" class="edge">
<title>gmpy2&#45;&gt;heyoka.py</title>
<path fill="none" stroke="black" d="M166.56,-297.28C141.28,-290.13 110.65,-276.72 95,-252 86.44,-238.48 86.57,-229.6 95,-216 167.88,-98.35 334.42,-48.71 426.62,-29.64"/>
<polygon fill="black" stroke="black" points="427.15,-33.1 436.27,-27.7 425.78,-26.24 427.15,-33.1"/>
</g>
<!-- python&#45;symengine -->
<g id="node7" class="node">
<title>python&#45;symengine</title>
<g id="a_node7"><a xlink:href="https://github.com/conda-forge/python-symengine-feedstock" xlink:title="python symengine">
<ellipse fill="#000000" stroke="black" cx="207" cy="-234" rx="103.29" ry="18"/>
<text text-anchor="middle" x="207" y="-229.32" font-family="Times,serif" font-size="14.00" fill="white">python symengine</text>
</a>
</g>
</g>
<!-- gmpy2&#45;&gt;python&#45;symengine -->
<g id="edge4" class="edge">
<title>gmpy2&#45;&gt;python&#45;symengine</title>
<path fill="none" stroke="black" d="M207,-287.7C207,-280.41 207,-271.73 207,-263.54"/>
<polygon fill="black" stroke="black" points="210.5,-263.62 207,-253.62 203.5,-263.62 210.5,-263.62"/>
</g>
<!-- igraph -->
<g id="node8" class="node">
<title>igraph</title>
<g id="a_node8"><a xlink:href="https://github.com/conda-forge/igraph-feedstock/pull/73" xlink:title="igraph ❎">
<ellipse fill="#31688e" stroke="black" cx="737" cy="-306" rx="59.1" ry="18"/>
<text text-anchor="middle" x="737" y="-301.32" font-family="Times,serif" font-size="14.00" fill="white">igraph ❎</text>
</a>
</g>
</g>
<!-- libflint -->
<g id="node9" class="node">
<title>libflint</title>
<g id="a_node9"><a xlink:href="https://github.com/conda-forge/libflint-feedstock" xlink:title="libflint">
<ellipse fill="#ff8c00" stroke="black" cx="352" cy="-306" rx="43.84" ry="18"/>
<text text-anchor="middle" x="352" y="-301.32" font-family="Times,serif" font-size="14.00">libflint</text>
</a>
</g>
</g>
<!-- libflint&#45;&gt;arb -->
<g id="edge6" class="edge">
<title>libflint&#45;&gt;arb</title>
<path fill="none" stroke="black" d="M385.28,-294.06C421.86,-282.04 480.77,-262.68 521.1,-249.43"/>
<polygon fill="black" stroke="black" points="522.11,-252.78 530.51,-246.33 519.92,-246.13 522.11,-252.78"/>
</g>
<!-- libflint&#45;&gt;mppp -->
<g id="edge7" class="edge">
<title>libflint&#45;&gt;mppp</title>
<path fill="none" stroke="black" d="M347.51,-287.8C343.49,-268.13 340.48,-236.07 357,-216 376.95,-191.76 460.77,-176.47 515.72,-168.85"/>
<polygon fill="black" stroke="black" points="516.03,-172.34 525.47,-167.54 515.1,-165.4 516.03,-172.34"/>
</g>
<!-- libflint&#45;&gt;python&#45;symengine -->
<g id="edge8" class="edge">
<title>libflint&#45;&gt;python&#45;symengine</title>
<path fill="none" stroke="black" d="M324.39,-291.67C303.7,-281.68 274.98,-267.82 251.12,-256.3"/>
<polygon fill="black" stroke="black" points="252.78,-253.22 242.26,-252.02 249.74,-259.52 252.78,-253.22"/>
</g>
<!-- python&#45;flint -->
<g id="node10" class="node">
<title>python&#45;flint</title>
<g id="a_node10"><a xlink:href="https://github.com/conda-forge/python-flint-feedstock" xlink:title="python flint">
<ellipse fill="#35b779" stroke="black" cx="435" cy="-234" rx="69.1" ry="18"/>
<text text-anchor="middle" x="435" y="-229.32" font-family="Times,serif" font-size="14.00">python flint</text>
</a>
</g>
</g>
<!-- libflint&#45;&gt;python&#45;flint -->
<g id="edge9" class="edge">
<title>libflint&#45;&gt;python&#45;flint</title>
<path fill="none" stroke="black" d="M370.42,-289.46C381,-280.54 394.51,-269.14 406.44,-259.08"/>
<polygon fill="black" stroke="black" points="408.64,-261.81 414.03,-252.69 404.12,-256.46 408.64,-261.81"/>
</g>
<!-- normaliz -->
<g id="node11" class="node">
<title>normaliz</title>
<g id="a_node11"><a xlink:href="https://github.com/conda-forge/normaliz-feedstock" xlink:title="normaliz">
<ellipse fill="#35b779" stroke="black" cx="681" cy="-234" rx="54.89" ry="18"/>
<text text-anchor="middle" x="681" y="-229.32" font-family="Times,serif" font-size="14.00">normaliz</text>
</a>
</g>
</g>
<!-- libflint&#45;&gt;normaliz -->
<g id="edge10" class="edge">
<title>libflint&#45;&gt;normaliz</title>
<path fill="none" stroke="black" d="M391.67,-297.86C443.64,-288.33 537.48,-270.49 617,-252 620.81,-251.11 624.74,-250.16 628.69,-249.18"/>
<polygon fill="black" stroke="black" points="629.49,-252.59 638.31,-246.73 627.76,-245.8 629.49,-252.59"/>
</g>
<!-- antic -->
<g id="node12" class="node">
<title>antic</title>
<g id="a_node12"><a xlink:href="https://github.com/conda-forge/antic-feedstock" xlink:title="antic">
<ellipse fill="#35b779" stroke="black" cx="790" cy="-234" rx="35.95" ry="18"/>
<text text-anchor="middle" x="790" y="-229.32" font-family="Times,serif" font-size="14.00">antic</text>
</a>
</g>
</g>
<!-- libflint&#45;&gt;antic -->
<g id="edge11" class="edge">
<title>libflint&#45;&gt;antic</title>
<path fill="none" stroke="black" d="M393.38,-299.68C490.87,-287.1 728.06,-256.28 745,-252 747.43,-251.38 749.92,-250.68 752.4,-249.91"/>
<polygon fill="black" stroke="black" points="753.41,-253.27 761.76,-246.75 751.16,-246.64 753.41,-253.27"/>
</g>
<!-- mpc -->
<g id="node13" class="node">
<title>mpc</title>
<g id="a_node13"><a xlink:href="https://github.com/conda-forge/mpc-feedstock" xlink:title="mpc">
<ellipse fill="#ff8c00" stroke="black" cx="1257" cy="-450" rx="32.27" ry="18"/>
<text text-anchor="middle" x="1257" y="-445.32" font-family="Times,serif" font-size="14.00">mpc</text>
</a>
</g>
</g>
<!-- mpc&#45;&gt;arb -->
<g id="edge12" class="edge">
<title>mpc&#45;&gt;arb</title>
<path fill="none" stroke="black" d="M1224.41,-449.31C1084.2,-450.31 537.05,-450.68 486,-396 453.24,-360.91 463.41,-330.35 486,-288 494.27,-272.49 509.32,-260.71 524.08,-252.25"/>
<polygon fill="black" stroke="black" points="525.63,-255.39 532.83,-247.62 522.36,-249.2 525.63,-255.39"/>
</g>
<!-- mpc&#45;&gt;mppp -->
<g id="edge13" class="edge">
<title>mpc&#45;&gt;mppp</title>
<path fill="none" stroke="black" d="M1224.52,-448.81C1097.41,-447.28 636.72,-434.12 557,-324 547.62,-311.04 546.44,-300.02 557,-288 639.25,-194.42 752.75,-345.58 835,-252 898.18,-180.11 710.73,-166.06 616.09,-163.48"/>
<polygon fill="black" stroke="black" points="616.35,-159.99 606.27,-163.25 616.19,-166.98 616.35,-159.99"/>
</g>
<!-- mpc&#45;&gt;heyoka.py -->
<g id="edge17" class="edge">
<title>mpc&#45;&gt;heyoka.py</title>
<path fill="none" stroke="black" d="M1224.49,-449.3C1043.34,-450.77 162.97,-454.81 59,-396 17.69,-372.63 0,-354.46 0,-307 0,-307 0,-307 0,-161 0,-74.47 284.94,-37.37 420.69,-24.6"/>
<polygon fill="black" stroke="black" points="420.63,-28.13 430.27,-23.72 419.99,-21.15 420.63,-28.13"/>
</g>
<!-- mpc&#45;&gt;heyoka -->
<g id="edge32" class="edge">
<title>mpc&#45;&gt;heyoka</title>
<path fill="none" stroke="black" d="M1224.5,-448.46C1054.58,-445.47 272.2,-429.98 170,-396 102.86,-373.68 38,-377.76 38,-307 38,-307 38,-307 38,-233 38,-136.55 371.23,-103.7 507.73,-94.29"/>
<polygon fill="black" stroke="black" points="507.9,-97.79 517.64,-93.63 507.43,-90.81 507.9,-97.79"/>
</g>
<!-- mpc&#45;&gt;cgal -->
<g id="edge14" class="edge">
<title>mpc&#45;&gt;cgal</title>
<path fill="none" stroke="black" d="M1225.44,-445.73C1163.88,-439.01 1023.69,-422.07 908,-396 799.78,-371.61 775.19,-356.11 669,-324 666.09,-323.12 663.1,-322.21 660.08,-321.3"/>
<polygon fill="black" stroke="black" points="661.18,-317.98 650.59,-318.42 659.15,-324.68 661.18,-317.98"/>
</g>
<!-- mpc&#45;&gt;gmpy2 -->
<g id="edge15" class="edge">
<title>mpc&#45;&gt;gmpy2</title>
<path fill="none" stroke="black" d="M1224.47,-448.98C1062.85,-448.66 350.79,-444.48 266,-396 242.4,-382.51 226.48,-355.27 217.18,-334.46"/>
<polygon fill="black" stroke="black" points="220.47,-333.26 213.39,-325.38 214.01,-335.95 220.47,-333.26"/>
</g>
<!-- mpc&#45;&gt;python&#45;symengine -->
<g id="edge16" class="edge">
<title>mpc&#45;&gt;python&#45;symengine</title>
<path fill="none" stroke="black" d="M1224.51,-448.67C1059.81,-446.83 321.28,-436.34 228,-396 185.59,-377.66 171.12,-366.51 153,-324 146.73,-309.28 146.81,-302.75 153,-288 157.54,-277.19 165.47,-267.48 173.89,-259.41"/>
<polygon fill="black" stroke="black" points="176.06,-262.16 181.22,-252.91 171.42,-256.92 176.06,-262.16"/>
</g>
<!-- mpc&#45;&gt;igraph -->
<g id="edge18" class="edge">
<title>mpc&#45;&gt;igraph</title>
<path fill="none" stroke="black" d="M1227.42,-442.49C1184.75,-432.98 1103.5,-414.39 1035,-396 947.55,-372.52 846.8,-341.61 787.7,-323.08"/>
<polygon fill="black" stroke="black" points="788.84,-319.77 778.25,-320.11 786.74,-326.45 788.84,-319.77"/>
</g>
<!-- mpc&#45;&gt;libflint -->
<g id="edge19" class="edge">
<title>mpc&#45;&gt;libflint</title>
<path fill="none" stroke="black" d="M1224.44,-448.68C1077.63,-446.99 481.36,-437.6 410,-396 386.77,-382.46 371.19,-355.47 362.08,-334.75"/>
<polygon fill="black" stroke="black" points="365.4,-333.62 358.36,-325.7 358.92,-336.28 365.4,-333.62"/>
</g>
<!-- mpc&#45;&gt;python&#45;flint -->
<g id="edge20" class="edge">
<title>mpc&#45;&gt;python&#45;flint</title>
<path fill="none" stroke="black" d="M1224.48,-448.39C1074.34,-445.39 452.07,-430.91 373,-396 319.77,-372.5 266.16,-336.04 299,-288 313.82,-266.31 338.94,-253.5 363.59,-245.93"/>
<polygon fill="black" stroke="black" points="364.31,-249.36 373,-243.31 362.43,-242.62 364.31,-249.36"/>
</g>
<!-- mpc&#45;&gt;normaliz -->
<g id="edge21" class="edge">
<title>mpc&#45;&gt;normaliz</title>
<path fill="none" stroke="black" d="M1224.5,-449.27C1085.9,-450.08 549.1,-449.73 499,-396 488.52,-384.76 480.59,-313.54 500,-288 502.04,-285.32 576.44,-264.13 629.21,-249.37"/>
<polygon fill="black" stroke="black" points="629.96,-252.79 638.65,-246.73 628.08,-246.05 629.96,-252.79"/>
</g>
<!-- mpc&#45;&gt;antic -->
<g id="edge22" class="edge">
<title>mpc&#45;&gt;antic</title>
<path fill="none" stroke="black" d="M1224.66,-449.19C1089.2,-449.63 572.29,-447.9 524,-396 491.31,-360.86 492.91,-324.57 524,-288 556.23,-250.09 696.93,-264.86 745,-252 747.43,-251.35 749.9,-250.62 752.38,-249.84"/>
<polygon fill="black" stroke="black" points="753.4,-253.19 761.73,-246.63 751.13,-246.56 753.4,-253.19"/>
</g>
<!-- mpfr -->
<g id="node14" class="node">
<title>mpfr</title>
<g id="a_node14"><a xlink:href="https://github.com/conda-forge/mpfr-feedstock/pull/46" xlink:title="mpfr ❎">
<ellipse fill="#31688e" stroke="black" cx="1257" cy="-378" rx="50.68" ry="18"/>
<text text-anchor="middle" x="1257" y="-373.32" font-family="Times,serif" font-size="14.00" fill="white">mpfr ❎</text>
</a>
</g>
</g>
<!-- mpc&#45;&gt;mpfr -->
<g id="edge23" class="edge">
<title>mpc&#45;&gt;mpfr</title>
<path fill="none" stroke="black" d="M1251.12,-432.05C1250.34,-424.68 1250.08,-415.84 1250.35,-407.51"/>
<polygon fill="black" stroke="black" points="1253.83,-407.99 1250.99,-397.79 1246.84,-407.54 1253.83,-407.99"/>
</g>
<!-- python&#45;igraph -->
<g id="node15" class="node">
<title>python&#45;igraph</title>
<g id="a_node15"><a xlink:href="https://github.com/conda-forge/python-igraph-feedstock/pull/90" xlink:title="python igraph ✓">
<ellipse fill="#31688e" stroke="black" cx="904" cy="-306" rx="89.61" ry="18"/>
<text text-anchor="middle" x="904" y="-301.32" font-family="Times,serif" font-size="14.00" fill="white">python igraph ✓</text>
</a>
</g>
</g>
<!-- mpc&#45;&gt;python&#45;igraph -->
<g id="edge24" class="edge">
<title>mpc&#45;&gt;python&#45;igraph</title>
<path fill="none" stroke="black" d="M1231.33,-438.67C1172.91,-415.18 1029.25,-357.38 953.14,-326.77"/>
<polygon fill="black" stroke="black" points="954.86,-323.69 944.27,-323.2 952.25,-330.18 954.86,-323.69"/>
</g>
<!-- gudhi -->
<g id="node16" class="node">
<title>gudhi</title>
<g id="a_node16"><a xlink:href="https://github.com/conda-forge/gudhi-feedstock" xlink:title="gudhi">
<ellipse fill="#35b779" stroke="black" cx="1356" cy="-306" rx="39.63" ry="18"/>
<text text-anchor="middle" x="1356" y="-301.32" font-family="Times,serif" font-size="14.00">gudhi</text>
</a>
</g>
</g>
<!-- mpc&#45;&gt;gudhi -->
<g id="edge25" class="edge">
<title>mpc&#45;&gt;gudhi</title>
<path fill="none" stroke="black" d="M1276.57,-435.26C1289.39,-425.48 1305.78,-411.38 1317,-396 1330.52,-377.46 1340.68,-353.51 1347.24,-335.12"/>
<polygon fill="black" stroke="black" points="1350.55,-336.24 1350.45,-325.65 1343.92,-333.99 1350.55,-336.24"/>
</g>
<!-- wildmeshing -->
<g id="node17" class="node">
<title>wildmeshing</title>
<g id="a_node17"><a xlink:href="https://github.com/conda-forge/wildmeshing-feedstock" xlink:title="wildmeshing">
<ellipse fill="#35b779" stroke="black" cx="1489" cy="-306" rx="74.88" ry="18"/>
<text text-anchor="middle" x="1489" y="-301.32" font-family="Times,serif" font-size="14.00">wildmeshing</text>
</a>
</g>
</g>
<!-- mpc&#45;&gt;wildmeshing -->
<g id="edge26" class="edge">
<title>mpc&#45;&gt;wildmeshing</title>
<path fill="none" stroke="black" d="M1278,-436.15C1317.65,-411.88 1403.97,-359.05 1453.03,-329.02"/>
<polygon fill="black" stroke="black" points="1454.62,-332.15 1461.32,-323.94 1450.96,-326.18 1454.62,-332.15"/>
</g>
<!-- ifcopenshell -->
<g id="node18" class="node">
<title>ifcopenshell</title>
<g id="a_node18"><a xlink:href="https://github.com/conda-forge/ifcopenshell-feedstock" xlink:title="ifcopenshell">
<ellipse fill="#35b779" stroke="black" cx="1653" cy="-306" rx="71.2" ry="18"/>
<text text-anchor="middle" x="1653" y="-301.32" font-family="Times,serif" font-size="14.00">ifcopenshell</text>
</a>
</g>
</g>
<!-- mpc&#45;&gt;ifcopenshell -->
<g id="edge27" class="edge">
<title>mpc&#45;&gt;ifcopenshell</title>
<path fill="none" stroke="black" d="M1283.6,-439.46C1348.8,-416.08 1517.47,-355.6 1602.47,-325.12"/>
<polygon fill="black" stroke="black" points="1603.49,-328.47 1611.72,-321.8 1601.13,-321.88 1603.49,-328.47"/>
</g>
<!-- gnuradio -->
<g id="node19" class="node">
<title>gnuradio</title>
<g id="a_node19"><a xlink:href="https://github.com/conda-forge/gnuradio-feedstock" xlink:title="gnuradio">
<ellipse fill="#35b779" stroke="black" cx="1798" cy="-306" rx="55.94" ry="18"/>
<text text-anchor="middle" x="1798" y="-301.32" font-family="Times,serif" font-size="14.00">gnuradio</text>
</a>
</g>
</g>
<!-- mpc&#45;&gt;gnuradio -->
<g id="edge28" class="edge">
<title>mpc&#45;&gt;gnuradio</title>
<path fill="none" stroke="black" d="M1286.19,-441.89C1327.11,-431.88 1403.83,-412.96 1469,-396 1566.98,-370.5 1680.96,-339.33 1745.78,-321.46"/>
<polygon fill="black" stroke="black" points="1746.35,-324.93 1755.06,-318.9 1744.49,-318.18 1746.35,-324.93"/>
</g>
<!-- scikit&#45;geometry -->
<g id="node20" class="node">
<title>scikit&#45;geometry</title>
<g id="a_node20"><a xlink:href="https://github.com/conda-forge/scikit-geometry-feedstock" xlink:title="scikit geometry">
<ellipse fill="#35b779" stroke="black" cx="1961" cy="-306" rx="89.09" ry="18"/>
<text text-anchor="middle" x="1961" y="-301.32" font-family="Times,serif" font-size="14.00">scikit geometry</text>
</a>
</g>
</g>
<!-- mpc&#45;&gt;scikit&#45;geometry -->
<g id="edge29" class="edge">
<title>mpc&#45;&gt;scikit&#45;geometry</title>
<path fill="none" stroke="black" d="M1287.54,-443.74C1340.47,-434.55 1452.63,-414.76 1547,-396 1668.72,-371.8 1809.93,-340.82 1892,-322.52"/>
<polygon fill="black" stroke="black" points="1892.71,-325.95 1901.7,-320.35 1891.18,-319.11 1892.71,-325.95"/>
</g>
<!-- pygalmesh -->
<g id="node21" class="node">
<title>pygalmesh</title>
<g id="a_node21"><a xlink:href="https://github.com/conda-forge/pygalmesh-feedstock" xlink:title="pygalmesh">
<ellipse fill="#35b779" stroke="black" cx="2134" cy="-306" rx="65.41" ry="18"/>
<text text-anchor="middle" x="2134" y="-301.32" font-family="Times,serif" font-size="14.00">pygalmesh</text>
</a>
</g>
</g>
<!-- mpc&#45;&gt;pygalmesh -->
<g id="edge30" class="edge">
<title>mpc&#45;&gt;pygalmesh</title>
<path fill="none" stroke="black" d="M1288.4,-445.14C1354.74,-436.91 1513.98,-416.65 1647,-396 1830.69,-367.48 1876.74,-360.56 2059,-324 2063.92,-323.01 2069.01,-321.95 2074.12,-320.85"/>
<polygon fill="black" stroke="black" points="2074.76,-324.3 2083.78,-318.74 2073.26,-317.46 2074.76,-324.3"/>
</g>
<!-- compas_cgal -->
<g id="node22" class="node">
<title>compas_cgal</title>
<g id="a_node22"><a xlink:href="https://github.com/conda-forge/compas_cgal-feedstock" xlink:title="compas_cgal">
<ellipse fill="#35b779" stroke="black" cx="2292" cy="-306" rx="74.36" ry="18"/>
<text text-anchor="middle" x="2292" y="-301.32" font-family="Times,serif" font-size="14.00">compas_cgal</text>
</a>
</g>
</g>
<!-- mpc&#45;&gt;compas_cgal -->
<g id="edge31" class="edge">
<title>mpc&#45;&gt;compas_cgal</title>
<path fill="none" stroke="black" d="M1289.02,-446.39C1370.06,-439.64 1589.82,-420.39 1772,-396 1966.66,-369.93 2014.83,-359.48 2208,-324 2213.85,-322.92 2219.93,-321.77 2226.01,-320.59"/>
<polygon fill="black" stroke="black" points="2226.31,-324.1 2235.44,-318.73 2224.96,-317.23 2226.31,-324.1"/>
</g>
<!-- imp -->
<g id="node23" class="node">
<title>imp</title>
<g id="a_node23"><a xlink:href="https://github.com/conda-forge/imp-feedstock" xlink:title="imp">
<ellipse fill="#35b779" stroke="black" cx="2415" cy="-306" rx="30.16" ry="18"/>
<text text-anchor="middle" x="2415" y="-301.32" font-family="Times,serif" font-size="14.00">imp</text>
</a>
</g>
</g>
<!-- mpc&#45;&gt;imp -->
<g id="edge33" class="edge">
<title>mpc&#45;&gt;imp</title>
<path fill="none" stroke="black" d="M1289.29,-447.14C1383.75,-441.52 1667.65,-423.43 1902,-396 2113.2,-371.28 2170.43,-382.04 2375,-324 2377.12,-323.4 2379.28,-322.71 2381.44,-321.97"/>
<polygon fill="black" stroke="black" points="2382.59,-325.28 2390.68,-318.44 2380.09,-318.74 2382.59,-325.28"/>
</g>
<!-- gmpxxll -->
<g id="node24" class="node">
<title>gmpxxll</title>
<g id="a_node24"><a xlink:href="https://github.com/conda-forge/gmpxxll-feedstock" xlink:title="gmpxxll">
<ellipse fill="#35b779" stroke="black" cx="2514" cy="-306" rx="51.21" ry="18"/>
<text text-anchor="middle" x="2514" y="-301.32" font-family="Times,serif" font-size="14.00">gmpxxll</text>
</a>
</g>
</g>
<!-- mpc&#45;&gt;gmpxxll -->
<g id="edge34" class="edge">
<title>mpc&#45;&gt;gmpxxll</title>
<path fill="none" stroke="black" d="M1289.52,-448.34C1400.12,-445.78 1771.75,-434.67 2076,-396 2245.66,-374.44 2287.57,-363.35 2454,-324 2457.53,-323.17 2461.16,-322.26 2464.81,-321.31"/>
<polygon fill="black" stroke="black" points="2465.51,-324.75 2474.26,-318.78 2463.69,-317.99 2465.51,-324.75"/>
</g>
<!-- spam -->
<g id="node25" class="node">
<title>spam</title>
<g id="a_node25"><a xlink:href="https://github.com/conda-forge/spam-feedstock" xlink:title="spam">
<ellipse fill="#35b779" stroke="black" cx="2621" cy="-306" rx="38.06" ry="18"/>
<text text-anchor="middle" x="2621" y="-301.32" font-family="Times,serif" font-size="14.00">spam</text>
</a>
</g>
</g>
<!-- mpc&#45;&gt;spam -->
<g id="edge35" class="edge">
<title>mpc&#45;&gt;spam</title>
<path fill="none" stroke="black" d="M1289.3,-448.75C1409.86,-447.49 1844.84,-439.97 2200,-396 2367.99,-375.2 2410.8,-368.93 2574,-324 2576.41,-323.34 2578.88,-322.61 2581.36,-321.83"/>
<polygon fill="black" stroke="black" points="2582.33,-325.2 2590.71,-318.72 2580.12,-318.56 2582.33,-325.2"/>
</g>
<!-- pycolmap -->
<g id="node26" class="node">
<title>pycolmap</title>
<g id="a_node26"><a xlink:href="https://github.com/conda-forge/pycolmap-feedstock" xlink:title="pycolmap">
<ellipse fill="#35b779" stroke="black" cx="2736" cy="-306" rx="59.1" ry="18"/>
<text text-anchor="middle" x="2736" y="-301.32" font-family="Times,serif" font-size="14.00">pycolmap</text>
</a>
</g>
</g>
<!-- mpc&#45;&gt;pycolmap -->
<g id="edge36" class="edge">
<title>mpc&#45;&gt;pycolmap</title>
<path fill="none" stroke="black" d="M1289.56,-449.26C1420.38,-449.93 1920.28,-448.67 2327,-396 2456.13,-379.28 2604.88,-342.36 2682.51,-321.71"/>
<polygon fill="black" stroke="black" points="2683.22,-325.15 2691.97,-319.18 2681.41,-318.38 2683.22,-325.15"/>
</g>
<!-- pygplates -->
<g id="node27" class="node">
<title>pygplates</title>
<g id="a_node27"><a xlink:href="https://github.com/conda-forge/pygplates-feedstock" xlink:title="pygplates">
<ellipse fill="#35b779" stroke="black" cx="2873" cy="-306" rx="60.15" ry="18"/>
<text text-anchor="middle" x="2873" y="-301.32" font-family="Times,serif" font-size="14.00">pygplates</text>
</a>
</g>
</g>
<!-- mpc&#45;&gt;pygplates -->
<g id="edge37" class="edge">
<title>mpc&#45;&gt;pygplates</title>
<path fill="none" stroke="black" d="M1289.5,-449.3C1428.16,-450.21 1983.85,-450.09 2436,-396 2574.77,-379.4 2735.11,-341.96 2817.61,-321.32"/>
<polygon fill="black" stroke="black" points="2818.41,-324.73 2827.26,-318.9 2816.71,-317.94 2818.41,-324.73"/>
</g>
<!-- mpfr&#45;&gt;arb -->
<g id="edge38" class="edge">
<title>mpfr&#45;&gt;arb</title>
<path fill="none" stroke="black" d="M1216.23,-366.93C1186.01,-358.35 1144.59,-344.18 1112,-324 1092.22,-311.75 1095.26,-297.45 1074,-288 980.92,-246.6 716.89,-271.97 617,-252 613.86,-251.37 610.64,-250.61 607.42,-249.77"/>
<polygon fill="black" stroke="black" points="608.61,-246.47 598.04,-247.06 606.67,-253.2 608.61,-246.47"/>
</g>
<!-- mpfr&#45;&gt;mppp -->
<g id="edge39" class="edge">
<title>mpfr&#45;&gt;mppp</title>
<path fill="none" stroke="black" d="M1248.19,-360.02C1236.7,-339.63 1214.64,-305.96 1186,-288 1089.68,-227.6 743.86,-183.23 614.4,-168.39"/>
<polygon fill="black" stroke="black" points="615.11,-164.95 604.78,-167.3 614.32,-171.91 615.11,-164.95"/>
</g>
<!-- mpfr&#45;&gt;heyoka.py -->
<g id="edge43" class="edge">
<title>mpfr&#45;&gt;heyoka.py</title>
<path fill="none" stroke="black" d="M1263.27,-359.78C1272.33,-333.32 1288,-280.92 1288,-235 1288,-235 1288,-235 1288,-161 1288,-87.58 756.98,-39.41 561.83,-24.18"/>
<polygon fill="black" stroke="black" points="562.33,-20.71 552.09,-23.43 561.79,-27.69 562.33,-20.71"/>
</g>
<!-- mpfr&#45;&gt;heyoka -->
<g id="edge58" class="edge">
<title>mpfr&#45;&gt;heyoka</title>
<path fill="none" stroke="black" d="M1253.82,-359.63C1249.33,-339.8 1239.31,-307.6 1219,-288 1049.34,-124.34 748.8,-96.06 622.96,-91.6"/>
<polygon fill="black" stroke="black" points="623.31,-88.11 613.21,-91.29 623.09,-95.1 623.31,-88.11"/>
</g>
<!-- mpfr&#45;&gt;cgal -->
<g id="edge40" class="edge">
<title>mpfr&#45;&gt;cgal</title>
<path fill="none" stroke="black" d="M1206.17,-375.91C1103.66,-372.96 865.18,-362.2 669,-324 665.46,-323.31 661.82,-322.49 658.19,-321.58"/>
<polygon fill="black" stroke="black" points="659.4,-318.28 648.83,-319.04 657.57,-325.03 659.4,-318.28"/>
</g>
<!-- mpfr&#45;&gt;gmpy2 -->
<g id="edge41" class="edge">
<title>mpfr&#45;&gt;gmpy2</title>
<path fill="none" stroke="black" d="M1206.17,-376.47C1062.95,-374.47 644.06,-365.25 299,-324 285.39,-322.37 270.76,-319.97 257.26,-317.48"/>
<polygon fill="black" stroke="black" points="258.19,-314.1 247.72,-315.67 256.89,-320.98 258.19,-314.1"/>
</g>
<!-- mpfr&#45;&gt;python&#45;symengine -->
<g id="edge42" class="edge">
<title>mpfr&#45;&gt;python&#45;symengine</title>
<path fill="none" stroke="black" d="M1207.81,-373.5C1160.86,-368.32 1089.55,-355.53 1036,-324 1017.3,-312.99 1022.62,-297.29 1003,-288 938.03,-257.23 428.63,-258.05 357,-252 338.75,-250.46 319.28,-248.49 300.62,-246.45"/>
<polygon fill="black" stroke="black" points="301.27,-243 290.94,-245.37 300.5,-249.95 301.27,-243"/>
</g>
<!-- mpfr&#45;&gt;igraph -->
<g id="edge44" class="edge">
<title>mpfr&#45;&gt;igraph</title>
<path fill="none" stroke="black" d="M1207.53,-373.29C1124.06,-366.56 950.14,-350.54 805,-324 800.42,-323.16 795.69,-322.2 790.96,-321.16"/>
<polygon fill="black" stroke="black" points="791.99,-317.8 781.46,-318.97 790.42,-324.62 791.99,-317.8"/>
</g>
<!-- mpfr&#45;&gt;libflint -->
<g id="edge45" class="edge">
<title>mpfr&#45;&gt;libflint</title>
<path fill="none" stroke="black" d="M1207.77,-373.39C1093.46,-365 801.2,-343.37 557,-324 505.86,-319.94 447.56,-315.09 406.24,-311.6"/>
<polygon fill="black" stroke="black" points="406.56,-308.12 396.3,-310.77 405.97,-315.09 406.56,-308.12"/>
</g>
<!-- mpfr&#45;&gt;python&#45;flint -->
<g id="edge46" class="edge">
<title>mpfr&#45;&gt;python&#45;flint</title>
<path fill="none" stroke="black" d="M1211,-369.95C1172.48,-362.62 1117.05,-348.66 1074,-324 1053.81,-312.44 1057.3,-297.35 1036,-288 929.32,-241.18 628.33,-268.45 513,-252 507.31,-251.19 501.43,-250.2 495.55,-249.1"/>
<polygon fill="black" stroke="black" points="496.29,-245.68 485.8,-247.18 494.94,-252.55 496.29,-245.68"/>
</g>
<!-- mpfr&#45;&gt;normaliz -->
<g id="edge47" class="edge">
<title>mpfr&#45;&gt;normaliz</title>
<path fill="none" stroke="black" d="M1224.23,-363.82C1202.3,-354.29 1173.29,-340.25 1150,-324 1130.92,-310.69 1133.17,-297.66 1112,-288 962.9,-219.96 906.28,-281.13 745,-252 740.73,-251.23 736.33,-250.32 731.93,-249.32"/>
<polygon fill="black" stroke="black" points="733.08,-246 722.53,-247.06 731.44,-252.8 733.08,-246"/>
</g>
<!-- mpfr&#45;&gt;antic -->
<g id="edge48" class="edge">
<title>mpfr&#45;&gt;antic</title>
<path fill="none" stroke="black" d="M1238.78,-360.92C1210.99,-336.53 1160.15,-292.53 1150,-288 1094.84,-263.37 921.17,-245.96 836.85,-238.73"/>
<polygon fill="black" stroke="black" points="837.33,-235.26 827.07,-237.9 836.74,-242.23 837.33,-235.26"/>
</g>
<!-- mpfr&#45;&gt;mpc -->
<g id="edge49" class="edge">
<title>mpfr&#45;&gt;mpc</title>
<path fill="none" stroke="black" d="M1262.91,-396.28C1263.67,-403.6 1263.91,-412.34 1263.64,-420.57"/>
<polygon fill="black" stroke="black" points="1260.15,-420.33 1262.98,-430.54 1267.14,-420.8 1260.15,-420.33"/>
</g>
<!-- mpfr&#45;&gt;python&#45;igraph -->
<g id="edge50" class="edge">
<title>mpfr&#45;&gt;python&#45;igraph</title>
<path fill="none" stroke="black" d="M1213.36,-368.35C1154.44,-356.66 1048.64,-335.68 977.37,-321.55"/>
<polygon fill="black" stroke="black" points="978.22,-318.15 967.73,-319.64 976.86,-325.02 978.22,-318.15"/>
</g>
<!-- mpfr&#45;&gt;gudhi -->
<g id="edge51" class="edge">
<title>mpfr&#45;&gt;gudhi</title>
<path fill="none" stroke="black" d="M1278.97,-361.46C1292.84,-351.66 1310.94,-338.86 1326.11,-328.14"/>
<polygon fill="black" stroke="black" points="1327.73,-331.28 1333.87,-322.65 1323.69,-325.56 1327.73,-331.28"/>
</g>
<!-- mpfr&#45;&gt;wildmeshing -->
<g id="edge52" class="edge">
<title>mpfr&#45;&gt;wildmeshing</title>
<path fill="none" stroke="black" d="M1294.79,-365.6C1332.23,-354.3 1390.03,-336.86 1432.84,-323.94"/>
<polygon fill="black" stroke="black" points="1433.65,-327.36 1442.21,-321.12 1431.62,-320.66 1433.65,-327.36"/>
</g>
<!-- mpfr&#45;&gt;ifcopenshell -->
<g id="edge53" class="edge">
<title>mpfr&#45;&gt;ifcopenshell</title>
<path fill="none" stroke="black" d="M1302.9,-369.94C1364.49,-360.32 1477.23,-342.2 1573,-324 1578.3,-322.99 1583.79,-321.91 1589.3,-320.8"/>
<polygon fill="black" stroke="black" points="1589.99,-324.23 1599.08,-318.79 1588.58,-317.37 1589.99,-324.23"/>
</g>
<!-- mpfr&#45;&gt;gnuradio -->
<g id="edge54" class="edge">
<title>mpfr&#45;&gt;gnuradio</title>
<path fill="none" stroke="black" d="M1306.68,-373.85C1393.65,-367.81 1578.89,-352.58 1733,-324 1737.33,-323.2 1741.79,-322.26 1746.26,-321.25"/>
<polygon fill="black" stroke="black" points="1746.91,-324.69 1755.82,-318.96 1745.28,-317.89 1746.91,-324.69"/>
</g>
<!-- mpfr&#45;&gt;scikit&#45;geometry -->
<g id="edge55" class="edge">
<title>mpfr&#45;&gt;scikit&#45;geometry</title>
<path fill="none" stroke="black" d="M1306.64,-374.08C1410.3,-367.68 1657.21,-350.8 1863,-324 1870.42,-323.03 1878.14,-321.91 1885.84,-320.7"/>
<polygon fill="black" stroke="black" points="1886.26,-324.18 1895.57,-319.13 1885.15,-317.27 1886.26,-324.18"/>
</g>
<!-- mpfr&#45;&gt;pygalmesh -->
<g id="edge56" class="edge">
<title>mpfr&#45;&gt;pygalmesh</title>
<path fill="none" stroke="black" d="M1307.96,-376.4C1435.28,-374.3 1777.3,-364.97 2059,-324 2064.56,-323.19 2070.31,-322.19 2076.05,-321.08"/>
<polygon fill="black" stroke="black" points="2076.42,-324.58 2085.52,-319.14 2075.02,-317.72 2076.42,-324.58"/>
</g>
<!-- mpfr&#45;&gt;compas_cgal -->
<g id="edge57" class="edge">
<title>mpfr&#45;&gt;compas_cgal</title>
<path fill="none" stroke="black" d="M1308.01,-376.74C1450.77,-375.44 1866.24,-367.87 2208,-324 2214.43,-323.17 2221.1,-322.14 2227.75,-320.99"/>
<polygon fill="black" stroke="black" points="2228.17,-324.47 2237.38,-319.23 2226.91,-317.58 2228.17,-324.47"/>
</g>
<!-- mpfr&#45;&gt;imp -->
<g id="edge59" class="edge">
<title>mpfr&#45;&gt;imp</title>
<path fill="none" stroke="black" d="M1307.96,-376.97C1498.39,-376.47 2167.81,-371.34 2375,-324 2377.15,-323.51 2379.33,-322.91 2381.51,-322.23"/>
<polygon fill="black" stroke="black" points="2382.58,-325.56 2390.78,-318.84 2380.18,-318.99 2382.58,-325.56"/>
</g>
<!-- mpfr&#45;&gt;gmpxxll -->
<g id="edge60" class="edge">
<title>mpfr&#45;&gt;gmpxxll</title>
<path fill="none" stroke="black" d="M1307.95,-376.32C1506.45,-373.41 2228.11,-360.49 2454,-324 2458.03,-323.35 2462.18,-322.52 2466.32,-321.58"/>
<polygon fill="black" stroke="black" points="2466.85,-325.06 2475.71,-319.25 2465.16,-318.26 2466.85,-325.06"/>
</g>
<!-- mpfr&#45;&gt;spam -->
<g id="edge61" class="edge">
<title>mpfr&#45;&gt;spam</title>
<path fill="none" stroke="black" d="M1308.04,-377.03C1519.21,-376.83 2325.03,-372.82 2574,-324 2576.66,-323.48 2579.37,-322.83 2582.07,-322.1"/>
<polygon fill="black" stroke="black" points="2583.11,-325.44 2591.62,-319.13 2581.03,-318.76 2583.11,-325.44"/>
</g>
<!-- mpfr&#45;&gt;pycolmap -->
<g id="edge62" class="edge">
<title>mpfr&#45;&gt;pycolmap</title>
<path fill="none" stroke="black" d="M1307.8,-376.5C1527.56,-374.14 2397.39,-362.48 2668,-324 2672.88,-323.31 2677.91,-322.41 2682.93,-321.39"/>
<polygon fill="black" stroke="black" points="2683.34,-324.88 2692.35,-319.31 2681.83,-318.04 2683.34,-324.88"/>
</g>
<!-- mpfr&#45;&gt;pygplates -->
<g id="edge63" class="edge">
<title>mpfr&#45;&gt;pygplates</title>
<path fill="none" stroke="black" d="M1307.93,-376.67C1540.75,-374.96 2505.21,-365.47 2804,-324 2808.95,-323.31 2814.05,-322.42 2819.14,-321.4"/>
<polygon fill="black" stroke="black" points="2819.69,-324.86 2828.72,-319.32 2818.21,-318.02 2819.69,-324.86"/>
</g>
</g>
</svg>
