<?xml version="1.0" encoding="UTF-8" standalone="no"?>
<!DOCTYPE svg PUBLIC "-//W3C//DTD SVG 1.1//EN"
 "http://www.w3.org/Graphics/SVG/1.1/DTD/svg11.dtd">
<!-- Generated by graphviz version 11.0.0 (20240519.1550)
 -->
<!-- Pages: 1 -->
<svg width="2895pt" height="476pt"
 viewBox="0.00 0.00 2895.15 476.00" xmlns="http://www.w3.org/2000/svg" xmlns:xlink="http://www.w3.org/1999/xlink">
<g id="graph0" class="graph" transform="scale(1 1) rotate(0) translate(4 472)">
<polygon fill="white" stroke="none" points="-4,4 -4,-472 2891.15,-472 2891.15,4 -4,4"/>
<!-- arb -->
<g id="node1" class="node">
<title>arb</title>
<g id="a_node1"><a xlink:href="https://github.com/conda-forge/arb-feedstock" xlink:title="arb">
<ellipse fill="#ff8c00" stroke="black" cx="550" cy="-234" rx="28.06" ry="18"/>
<text text-anchor="middle" x="550" y="-229.32" font-family="Times,serif" font-size="14.00">arb</text>
</a>
</g>
</g>
<!-- mppp -->
<g id="node2" class="node">
<title>mppp</title>
<g id="a_node2"><a xlink:href="https://github.com/conda-forge/mppp-feedstock" xlink:title="mppp">
<ellipse fill="#35b779" stroke="black" cx="550" cy="-162" rx="39.63" ry="18"/>
<text text-anchor="middle" x="550" y="-157.32" font-family="Times,serif" font-size="14.00">mppp</text>
</a>
</g>
</g>
<!-- arb&#45;&gt;mppp -->
<g id="edge1" class="edge">
<title>arb&#45;&gt;mppp</title>
<path fill="none" stroke="black" d="M550,-215.7C550,-208.41 550,-199.73 550,-191.54"/>
<polygon fill="black" stroke="black" points="553.5,-191.62 550,-181.62 546.5,-191.62 553.5,-191.62"/>
</g>
<!-- heyoka.py -->
<g id="node3" class="node">
<title>heyoka.py</title>
<g id="a_node3"><a xlink:href="https://github.com/conda-forge/heyoka.py-feedstock" xlink:title="heyoka py">
<ellipse fill="#35b779" stroke="black" cx="476" cy="-18" rx="61.73" ry="18"/>
<text text-anchor="middle" x="476" y="-13.32" font-family="Times,serif" font-size="14.00">heyoka py</text>
</a>
</g>
</g>
<!-- mppp&#45;&gt;heyoka.py -->
<g id="edge2" class="edge">
<title>mppp&#45;&gt;heyoka.py</title>
<path fill="none" stroke="black" d="M529.5,-146.29C517.64,-136.71 503.44,-123.19 495,-108 484.73,-89.51 480,-66.01 477.83,-47.81"/>
<polygon fill="black" stroke="black" points="481.33,-47.56 476.87,-37.95 474.36,-48.25 481.33,-47.56"/>
</g>
<!-- heyoka -->
<g id="node4" class="node">
<title>heyoka</title>
<g id="a_node4"><a xlink:href="https://github.com/conda-forge/heyoka-feedstock" xlink:title="heyoka">
<ellipse fill="#35b779" stroke="black" cx="550" cy="-90" rx="46.47" ry="18"/>
<text text-anchor="middle" x="550" y="-85.33" font-family="Times,serif" font-size="14.00">heyoka</text>
</a>
</g>
</g>
<!-- mppp&#45;&gt;heyoka -->
<g id="edge3" class="edge">
<title>mppp&#45;&gt;heyoka</title>
<path fill="none" stroke="black" d="M550,-143.7C550,-136.41 550,-127.73 550,-119.54"/>
<polygon fill="black" stroke="black" points="553.5,-119.62 550,-109.62 546.5,-119.62 553.5,-119.62"/>
</g>
<!-- heyoka&#45;&gt;heyoka.py -->
<g id="edge64" class="edge">
<title>heyoka&#45;&gt;heyoka.py</title>
<path fill="none" stroke="black" d="M533.21,-73.12C523.95,-64.36 512.25,-53.29 501.85,-43.45"/>
<polygon fill="black" stroke="black" points="504.27,-40.92 494.6,-36.59 499.46,-46.01 504.27,-40.92"/>
</g>
<!-- cgal -->
<g id="node5" class="node">
<title>cgal</title>
<g id="a_node5"><a xlink:href="https://github.com/conda-forge/cgal-feedstock" xlink:title="cgal">
<ellipse fill="#ff8c00" stroke="black" cx="598" cy="-306" rx="31.74" ry="18"/>
<text text-anchor="middle" x="598" y="-301.32" font-family="Times,serif" font-size="14.00">cgal</text>
</a>
</g>
</g>
<!-- gmpy2 -->
<g id="node6" class="node">
<title>gmpy2</title>
<g id="a_node6"><a xlink:href="https://github.com/conda-forge/gmpy2-feedstock" xlink:title="gmpy2">
<ellipse fill="#ff8c00" stroke="black" cx="207" cy="-306" rx="45.42" ry="18"/>
<text text-anchor="middle" x="207" y="-301.32" font-family="Times,serif" font-size="14.00">gmpy2</text>
</a>
</g>
</g>
<!-- gmpy2&#45;&gt;heyoka.py -->
<g id="edge5" class="edge">
<title>gmpy2&#45;&gt;heyoka.py</title>
<path fill="none" stroke="black" d="M166.56,-297.28C141.28,-290.13 110.65,-276.72 95,-252 86.44,-238.48 86.68,-229.67 95,-216 164.62,-101.63 324.4,-50.73 413.34,-30.57"/>
<polygon fill="black" stroke="black" points="413.86,-34.04 422.88,-28.47 412.36,-27.2 413.86,-34.04"/>
</g>
<!-- python&#45;symengine -->
<g id="node7" class="node">
<title>python&#45;symengine</title>
<g id="a_node7"><a xlink:href="https://github.com/conda-forge/python-symengine-feedstock" xlink:title="python symengine">
<ellipse fill="#35b779" stroke="black" cx="207" cy="-234" rx="103.29" ry="18"/>
<text text-anchor="middle" x="207" y="-229.32" font-family="Times,serif" font-size="14.00">python symengine</text>
</a>
</g>
</g>
<!-- gmpy2&#45;&gt;python&#45;symengine -->
<g id="edge4" class="edge">
<title>gmpy2&#45;&gt;python&#45;symengine</title>
<path fill="none" stroke="black" d="M207,-287.7C207,-280.41 207,-271.73 207,-263.54"/>
<polygon fill="black" stroke="black" points="210.5,-263.62 207,-253.62 203.5,-263.62 210.5,-263.62"/>
</g>
<!-- igraph -->
<g id="node8" class="node">
<title>igraph</title>
<g id="a_node8"><a xlink:href="https://github.com/conda-forge/igraph-feedstock/pull/73" xlink:title="igraph ❎">
<ellipse fill="#31688e" stroke="black" cx="707" cy="-306" rx="59.1" ry="18"/>
<text text-anchor="middle" x="707" y="-301.32" font-family="Times,serif" font-size="14.00" fill="white">igraph ❎</text>
</a>
</g>
</g>
<!-- libflint -->
<g id="node9" class="node">
<title>libflint</title>
<g id="a_node9"><a xlink:href="https://github.com/conda-forge/libflint-feedstock" xlink:title="libflint">
<ellipse fill="#000000" stroke="black" cx="352" cy="-306" rx="43.84" ry="18"/>
<text text-anchor="middle" x="352" y="-301.32" font-family="Times,serif" font-size="14.00" fill="white">libflint</text>
</a>
</g>
</g>
<!-- libflint&#45;&gt;arb -->
<g id="edge6" class="edge">
<title>libflint&#45;&gt;arb</title>
<path fill="none" stroke="black" d="M386.95,-294.74C419.83,-284.8 470.27,-268.79 513,-252 514.52,-251.4 516.07,-250.77 517.63,-250.12"/>
<polygon fill="black" stroke="black" points="518.72,-253.47 526.48,-246.26 515.92,-247.05 518.72,-253.47"/>
</g>
<!-- libflint&#45;&gt;mppp -->
<g id="edge7" class="edge">
<title>libflint&#45;&gt;mppp</title>
<path fill="none" stroke="black" d="M347.57,-287.85C343.61,-268.23 340.66,-236.23 357,-216 375.02,-193.7 450,-178.13 501.02,-169.87"/>
<polygon fill="black" stroke="black" points="501.32,-173.37 510.66,-168.36 500.24,-166.45 501.32,-173.37"/>
</g>
<!-- libflint&#45;&gt;python&#45;symengine -->
<g id="edge8" class="edge">
<title>libflint&#45;&gt;python&#45;symengine</title>
<path fill="none" stroke="black" d="M324.39,-291.67C303.7,-281.68 274.98,-267.82 251.12,-256.3"/>
<polygon fill="black" stroke="black" points="252.78,-253.22 242.26,-252.02 249.74,-259.52 252.78,-253.22"/>
</g>
<!-- python&#45;flint -->
<g id="node10" class="node">
<title>python&#45;flint</title>
<g id="a_node10"><a xlink:href="https://github.com/conda-forge/python-flint-feedstock" xlink:title="python flint">
<ellipse fill="#35b779" stroke="black" cx="435" cy="-234" rx="69.1" ry="18"/>
<text text-anchor="middle" x="435" y="-229.32" font-family="Times,serif" font-size="14.00">python flint</text>
</a>
</g>
</g>
<!-- libflint&#45;&gt;python&#45;flint -->
<g id="edge9" class="edge">
<title>libflint&#45;&gt;python&#45;flint</title>
<path fill="none" stroke="black" d="M370.42,-289.46C381,-280.54 394.51,-269.14 406.44,-259.08"/>
<polygon fill="black" stroke="black" points="408.64,-261.81 414.03,-252.69 404.12,-256.46 408.64,-261.81"/>
</g>
<!-- normaliz -->
<g id="node11" class="node">
<title>normaliz</title>
<g id="a_node11"><a xlink:href="https://github.com/conda-forge/normaliz-feedstock" xlink:title="normaliz">
<ellipse fill="#35b779" stroke="black" cx="651" cy="-234" rx="54.89" ry="18"/>
<text text-anchor="middle" x="651" y="-229.32" font-family="Times,serif" font-size="14.00">normaliz</text>
</a>
</g>
</g>
<!-- libflint&#45;&gt;normaliz -->
<g id="edge10" class="edge">
<title>libflint&#45;&gt;normaliz</title>
<path fill="none" stroke="black" d="M390.37,-296.81C436.98,-286.76 517.95,-268.95 587,-252 590.8,-251.07 594.72,-250.08 598.66,-249.07"/>
<polygon fill="black" stroke="black" points="599.48,-252.48 608.28,-246.58 597.72,-245.7 599.48,-252.48"/>
</g>
<!-- antic -->
<g id="node12" class="node">
<title>antic</title>
<g id="a_node12"><a xlink:href="https://github.com/conda-forge/antic-feedstock" xlink:title="antic">
<ellipse fill="#35b779" stroke="black" cx="760" cy="-234" rx="35.95" ry="18"/>
<text text-anchor="middle" x="760" y="-229.32" font-family="Times,serif" font-size="14.00">antic</text>
</a>
</g>
</g>
<!-- libflint&#45;&gt;antic -->
<g id="edge11" class="edge">
<title>libflint&#45;&gt;antic</title>
<path fill="none" stroke="black" d="M393.41,-299.47C481.99,-287.56 684.32,-259.93 715,-252 717.43,-251.37 719.91,-250.66 722.4,-249.88"/>
<polygon fill="black" stroke="black" points="723.41,-253.24 731.75,-246.7 721.15,-246.61 723.41,-253.24"/>
</g>
<!-- mpc -->
<g id="node13" class="node">
<title>mpc</title>
<g id="a_node13"><a xlink:href="https://github.com/conda-forge/mpc-feedstock" xlink:title="mpc">
<ellipse fill="#ff8c00" stroke="black" cx="1215" cy="-450" rx="32.27" ry="18"/>
<text text-anchor="middle" x="1215" y="-445.32" font-family="Times,serif" font-size="14.00">mpc</text>
</a>
</g>
</g>
<!-- mpc&#45;&gt;arb -->
<g id="edge12" class="edge">
<title>mpc&#45;&gt;arb</title>
<path fill="none" stroke="black" d="M1182.38,-449.17C1046.96,-449.56 533.96,-447.57 486,-396 453.31,-360.85 465.57,-331.44 486,-288 493,-273.12 506.44,-260.99 519.22,-252.1"/>
<polygon fill="black" stroke="black" points="520.96,-255.14 527.46,-246.77 517.16,-249.26 520.96,-255.14"/>
</g>
<!-- mpc&#45;&gt;mppp -->
<g id="edge13" class="edge">
<title>mpc&#45;&gt;mppp</title>
<path fill="none" stroke="black" d="M1182.64,-448.53C1060.22,-445.95 628.66,-429.42 557,-324 548,-310.77 546.53,-300.1 557,-288 629.88,-203.78 732.12,-336.22 805,-252 815.47,-239.9 815.1,-228.41 805,-216 779.71,-184.91 667.2,-171.47 600.37,-166.14"/>
<polygon fill="black" stroke="black" points="601,-162.67 590.76,-165.4 600.47,-169.65 601,-162.67"/>
</g>
<!-- mpc&#45;&gt;heyoka.py -->
<g id="edge17" class="edge">
<title>mpc&#45;&gt;heyoka.py</title>
<path fill="none" stroke="black" d="M1182.47,-449.25C1005.12,-450.37 159.07,-452.71 59,-396 17.71,-372.6 0,-354.46 0,-307 0,-307 0,-307 0,-161 0,-77.2 274.3,-38.8 406.45,-25.16"/>
<polygon fill="black" stroke="black" points="406.53,-28.67 416.13,-24.18 405.83,-21.71 406.53,-28.67"/>
</g>
<!-- mpc&#45;&gt;heyoka -->
<g id="edge32" class="edge">
<title>mpc&#45;&gt;heyoka</title>
<path fill="none" stroke="black" d="M1182.4,-448.39C1016.28,-445.12 267.95,-428.67 170,-396 102.88,-373.61 38,-377.76 38,-307 38,-307 38,-307 38,-233 38,-139.45 359.43,-105 492.93,-94.72"/>
<polygon fill="black" stroke="black" points="492.89,-98.24 502.6,-94 492.37,-91.26 492.89,-98.24"/>
</g>
<!-- mpc&#45;&gt;cgal -->
<g id="edge14" class="edge">
<title>mpc&#45;&gt;cgal</title>
<path fill="none" stroke="black" d="M1183.49,-445.7C1122.73,-438.98 985.32,-422.12 872,-396 766.38,-371.66 740.95,-360.8 639,-324 637.07,-323.3 635.1,-322.57 633.12,-321.81"/>
<polygon fill="black" stroke="black" points="634.56,-318.62 623.98,-318.18 631.98,-325.12 634.56,-318.62"/>
</g>
<!-- mpc&#45;&gt;gmpy2 -->
<g id="edge15" class="edge">
<title>mpc&#45;&gt;gmpy2</title>
<path fill="none" stroke="black" d="M1182.55,-448.9C1025.32,-448.18 346.93,-442.4 266,-396 242.55,-382.56 226.68,-355.56 217.35,-334.81"/>
<polygon fill="black" stroke="black" points="220.64,-333.6 213.54,-325.73 214.19,-336.31 220.64,-333.6"/>
</g>
<!-- mpc&#45;&gt;python&#45;symengine -->
<g id="edge16" class="edge">
<title>mpc&#45;&gt;python&#45;symengine</title>
<path fill="none" stroke="black" d="M1182.52,-448.6C1021.96,-446.41 317.19,-434.69 228,-396 185.61,-377.61 171.12,-366.51 153,-324 146.73,-309.28 146.81,-302.75 153,-288 157.54,-277.19 165.47,-267.48 173.89,-259.41"/>
<polygon fill="black" stroke="black" points="176.06,-262.16 181.22,-252.91 171.42,-256.92 176.06,-262.16"/>
</g>
<!-- mpc&#45;&gt;igraph -->
<g id="edge18" class="edge">
<title>mpc&#45;&gt;igraph</title>
<path fill="none" stroke="black" d="M1185.31,-442.48C1142.9,-433.01 1062.62,-414.57 995,-396 910.79,-372.87 813.99,-342.08 756.79,-323.44"/>
<polygon fill="black" stroke="black" points="757.93,-320.13 747.34,-320.35 755.76,-326.78 757.93,-320.13"/>
</g>
<!-- mpc&#45;&gt;libflint -->
<g id="edge19" class="edge">
<title>mpc&#45;&gt;libflint</title>
<path fill="none" stroke="black" d="M1182.64,-448.57C1040.73,-446.43 477.54,-435.53 410,-396 386.79,-382.42 371.21,-355.44 362.09,-334.73"/>
<polygon fill="black" stroke="black" points="365.41,-333.6 358.37,-325.68 358.94,-336.26 365.41,-333.6"/>
</g>
<!-- mpc&#45;&gt;python&#45;flint -->
<g id="edge20" class="edge">
<title>mpc&#45;&gt;python&#45;flint</title>
<path fill="none" stroke="black" d="M1182.82,-448.29C1037.72,-444.92 448.07,-429.28 373,-396 319.81,-372.42 266.16,-336.04 299,-288 313.82,-266.31 338.94,-253.5 363.59,-245.93"/>
<polygon fill="black" stroke="black" points="364.31,-249.36 373,-243.31 362.43,-242.62 364.31,-249.36"/>
</g>
<!-- mpc&#45;&gt;normaliz -->
<g id="edge21" class="edge">
<title>mpc&#45;&gt;normaliz</title>
<path fill="none" stroke="black" d="M1182.51,-449.13C1048.81,-449.32 546.02,-446.63 499,-396 488.83,-385.05 481.21,-314.12 500,-288 506.18,-279.41 558.51,-262.27 599.85,-249.8"/>
<polygon fill="black" stroke="black" points="600.6,-253.23 609.18,-247.01 598.6,-246.52 600.6,-253.23"/>
</g>
<!-- mpc&#45;&gt;antic -->
<g id="edge22" class="edge">
<title>mpc&#45;&gt;antic</title>
<path fill="none" stroke="black" d="M1182.32,-449.03C1051.32,-448.83 569.17,-444.77 524,-396 491.38,-360.78 493.36,-324.95 524,-288 579.14,-221.5 631.83,-275.35 715,-252 717.26,-251.37 719.57,-250.66 721.89,-249.92"/>
<polygon fill="black" stroke="black" points="722.91,-253.27 731.22,-246.7 720.62,-246.65 722.91,-253.27"/>
</g>
<!-- mpfr -->
<g id="node14" class="node">
<title>mpfr</title>
<g id="a_node14"><a xlink:href="https://github.com/conda-forge/mpfr-feedstock" xlink:title="mpfr">
<ellipse fill="#35b779" stroke="black" cx="1215" cy="-378" rx="35.42" ry="18"/>
<text text-anchor="middle" x="1215" y="-373.32" font-family="Times,serif" font-size="14.00">mpfr</text>
</a>
</g>
</g>
<!-- mpc&#45;&gt;mpfr -->
<g id="edge23" class="edge">
<title>mpc&#45;&gt;mpfr</title>
<path fill="none" stroke="black" d="M1209.12,-432.05C1208.33,-424.57 1208.08,-415.58 1208.37,-407.14"/>
<polygon fill="black" stroke="black" points="1211.85,-407.51 1209.04,-397.3 1204.87,-407.04 1211.85,-407.51"/>
</g>
<!-- python&#45;igraph -->
<g id="node15" class="node">
<title>python&#45;igraph</title>
<g id="a_node15"><a xlink:href="https://github.com/conda-forge/python-igraph-feedstock" xlink:title="python igraph">
<ellipse fill="#35b779" stroke="black" cx="866" cy="-306" rx="81.72" ry="18"/>
<text text-anchor="middle" x="866" y="-301.32" font-family="Times,serif" font-size="14.00">python igraph</text>
</a>
</g>
</g>
<!-- mpc&#45;&gt;python&#45;igraph -->
<g id="edge24" class="edge">
<title>mpc&#45;&gt;python&#45;igraph</title>
<path fill="none" stroke="black" d="M1189.34,-438.56C1131.35,-414.96 989.42,-357.22 914.36,-326.68"/>
<polygon fill="black" stroke="black" points="915.77,-323.47 905.19,-322.95 913.14,-329.96 915.77,-323.47"/>
</g>
<!-- gudhi -->
<g id="node16" class="node">
<title>gudhi</title>
<g id="a_node16"><a xlink:href="https://github.com/conda-forge/gudhi-feedstock" xlink:title="gudhi">
<ellipse fill="#35b779" stroke="black" cx="1310" cy="-306" rx="39.63" ry="18"/>
<text text-anchor="middle" x="1310" y="-301.32" font-family="Times,serif" font-size="14.00">gudhi</text>
</a>
</g>
</g>
<!-- mpc&#45;&gt;gudhi -->
<g id="edge25" class="edge">
<title>mpc&#45;&gt;gudhi</title>
<path fill="none" stroke="black" d="M1228.83,-433.79C1237.89,-423.49 1249.73,-409.36 1259,-396 1272.85,-376.04 1286.43,-352.07 1296.09,-334.04"/>
<polygon fill="black" stroke="black" points="1299.14,-335.74 1300.72,-325.26 1292.95,-332.47 1299.14,-335.74"/>
</g>
<!-- wildmeshing -->
<g id="node17" class="node">
<title>wildmeshing</title>
<g id="a_node17"><a xlink:href="https://github.com/conda-forge/wildmeshing-feedstock" xlink:title="wildmeshing">
<ellipse fill="#35b779" stroke="black" cx="1443" cy="-306" rx="74.88" ry="18"/>
<text text-anchor="middle" x="1443" y="-301.32" font-family="Times,serif" font-size="14.00">wildmeshing</text>
</a>
</g>
</g>
<!-- mpc&#45;&gt;wildmeshing -->
<g id="edge26" class="edge">
<title>mpc&#45;&gt;wildmeshing</title>
<path fill="none" stroke="black" d="M1236.04,-435.9C1275.05,-411.6 1358.98,-359.33 1407.12,-329.35"/>
<polygon fill="black" stroke="black" points="1408.89,-332.36 1415.53,-324.11 1405.19,-326.42 1408.89,-332.36"/>
</g>
<!-- ifcopenshell -->
<g id="node18" class="node">
<title>ifcopenshell</title>
<g id="a_node18"><a xlink:href="https://github.com/conda-forge/ifcopenshell-feedstock" xlink:title="ifcopenshell">
<ellipse fill="#35b779" stroke="black" cx="1607" cy="-306" rx="71.2" ry="18"/>
<text text-anchor="middle" x="1607" y="-301.32" font-family="Times,serif" font-size="14.00">ifcopenshell</text>
</a>
</g>
</g>
<!-- mpc&#45;&gt;ifcopenshell -->
<g id="edge27" class="edge">
<title>mpc&#45;&gt;ifcopenshell</title>
<path fill="none" stroke="black" d="M1241.64,-439.35C1306.28,-415.93 1472.35,-355.78 1556.51,-325.29"/>
<polygon fill="black" stroke="black" points="1557.7,-328.58 1565.91,-321.89 1555.31,-322 1557.7,-328.58"/>
</g>
<!-- gnuradio -->
<g id="node19" class="node">
<title>gnuradio</title>
<g id="a_node19"><a xlink:href="https://github.com/conda-forge/gnuradio-feedstock" xlink:title="gnuradio">
<ellipse fill="#35b779" stroke="black" cx="1752" cy="-306" rx="55.94" ry="18"/>
<text text-anchor="middle" x="1752" y="-301.32" font-family="Times,serif" font-size="14.00">gnuradio</text>
</a>
</g>
</g>
<!-- mpc&#45;&gt;gnuradio -->
<g id="edge28" class="edge">
<title>mpc&#45;&gt;gnuradio</title>
<path fill="none" stroke="black" d="M1244.26,-441.8C1284.88,-431.76 1360.62,-412.88 1425,-396 1522.18,-370.52 1635.19,-339.43 1699.69,-321.56"/>
<polygon fill="black" stroke="black" points="1700.61,-324.93 1709.31,-318.89 1698.74,-318.19 1700.61,-324.93"/>
</g>
<!-- scikit&#45;geometry -->
<g id="node20" class="node">
<title>scikit&#45;geometry</title>
<g id="a_node20"><a xlink:href="https://github.com/conda-forge/scikit-geometry-feedstock" xlink:title="scikit geometry">
<ellipse fill="#35b779" stroke="black" cx="1915" cy="-306" rx="89.09" ry="18"/>
<text text-anchor="middle" x="1915" y="-301.32" font-family="Times,serif" font-size="14.00">scikit geometry</text>
</a>
</g>
</g>
<!-- mpc&#45;&gt;scikit&#45;geometry -->
<g id="edge29" class="edge">
<title>mpc&#45;&gt;scikit&#45;geometry</title>
<path fill="none" stroke="black" d="M1245.64,-443.65C1298.19,-434.4 1408.84,-414.64 1502,-396 1623.24,-371.75 1763.89,-340.84 1845.81,-322.57"/>
<polygon fill="black" stroke="black" points="1846.5,-326 1855.5,-320.4 1844.98,-319.17 1846.5,-326"/>
</g>
<!-- pygalmesh -->
<g id="node21" class="node">
<title>pygalmesh</title>
<g id="a_node21"><a xlink:href="https://github.com/conda-forge/pygalmesh-feedstock" xlink:title="pygalmesh">
<ellipse fill="#35b779" stroke="black" cx="2088" cy="-306" rx="65.41" ry="18"/>
<text text-anchor="middle" x="2088" y="-301.32" font-family="Times,serif" font-size="14.00">pygalmesh</text>
</a>
</g>
</g>
<!-- mpc&#45;&gt;pygalmesh -->
<g id="edge30" class="edge">
<title>mpc&#45;&gt;pygalmesh</title>
<path fill="none" stroke="black" d="M1246.41,-445.1C1312.39,-436.83 1470.17,-416.57 1602,-396 1785.23,-367.41 1831.18,-360.51 2013,-324 2017.92,-323.01 2023.01,-321.95 2028.12,-320.85"/>
<polygon fill="black" stroke="black" points="2028.76,-324.29 2037.78,-318.74 2027.26,-317.46 2028.76,-324.29"/>
</g>
<!-- compas_cgal -->
<g id="node22" class="node">
<title>compas_cgal</title>
<g id="a_node22"><a xlink:href="https://github.com/conda-forge/compas_cgal-feedstock" xlink:title="compas_cgal">
<ellipse fill="#35b779" stroke="black" cx="2246" cy="-306" rx="74.36" ry="18"/>
<text text-anchor="middle" x="2246" y="-301.32" font-family="Times,serif" font-size="14.00">compas_cgal</text>
</a>
</g>
</g>
<!-- mpc&#45;&gt;compas_cgal -->
<g id="edge31" class="edge">
<title>mpc&#45;&gt;compas_cgal</title>
<path fill="none" stroke="black" d="M1247.07,-446.35C1327.72,-439.54 1545.45,-420.25 1726,-396 1920.65,-369.86 1968.83,-359.48 2162,-324 2167.85,-322.92 2173.93,-321.77 2180.01,-320.59"/>
<polygon fill="black" stroke="black" points="2180.31,-324.1 2189.44,-318.73 2178.96,-317.23 2180.31,-324.1"/>
</g>
<!-- imp -->
<g id="node23" class="node">
<title>imp</title>
<g id="a_node23"><a xlink:href="https://github.com/conda-forge/imp-feedstock" xlink:title="imp">
<ellipse fill="#35b779" stroke="black" cx="2369" cy="-306" rx="30.16" ry="18"/>
<text text-anchor="middle" x="2369" y="-301.32" font-family="Times,serif" font-size="14.00">imp</text>
</a>
</g>
</g>
<!-- mpc&#45;&gt;imp -->
<g id="edge33" class="edge">
<title>mpc&#45;&gt;imp</title>
<path fill="none" stroke="black" d="M1247.65,-449.21C1383.25,-449.29 1914.29,-441.67 2329,-324 2331.12,-323.4 2333.28,-322.71 2335.44,-321.97"/>
<polygon fill="black" stroke="black" points="2336.59,-325.28 2344.68,-318.44 2334.09,-318.74 2336.59,-325.28"/>
</g>
<!-- gmpxxll -->
<g id="node24" class="node">
<title>gmpxxll</title>
<g id="a_node24"><a xlink:href="https://github.com/conda-forge/gmpxxll-feedstock" xlink:title="gmpxxll">
<ellipse fill="#35b779" stroke="black" cx="2468" cy="-306" rx="51.21" ry="18"/>
<text text-anchor="middle" x="2468" y="-301.32" font-family="Times,serif" font-size="14.00">gmpxxll</text>
</a>
</g>
</g>
<!-- mpc&#45;&gt;gmpxxll -->
<g id="edge34" class="edge">
<title>mpc&#45;&gt;gmpxxll</title>
<path fill="none" stroke="black" d="M1247.46,-449.07C1363.92,-448.91 1771.41,-444.66 2103,-396 2218.08,-379.11 2349.94,-342.57 2419.36,-321.94"/>
<polygon fill="black" stroke="black" points="2420.34,-325.31 2428.91,-319.09 2418.33,-318.6 2420.34,-325.31"/>
</g>
<!-- spam -->
<g id="node25" class="node">
<title>spam</title>
<g id="a_node25"><a xlink:href="https://github.com/conda-forge/spam-feedstock" xlink:title="spam">
<ellipse fill="#35b779" stroke="black" cx="2575" cy="-306" rx="38.06" ry="18"/>
<text text-anchor="middle" x="2575" y="-301.32" font-family="Times,serif" font-size="14.00">spam</text>
</a>
</g>
</g>
<!-- mpc&#45;&gt;spam -->
<g id="edge35" class="edge">
<title>mpc&#45;&gt;spam</title>
<path fill="none" stroke="black" d="M1247.56,-449.18C1372.05,-449.46 1829.64,-446.77 2202,-396 2349.02,-375.95 2385.49,-365.32 2528,-324 2530.4,-323.3 2532.86,-322.55 2535.33,-321.75"/>
<polygon fill="black" stroke="black" points="2536.32,-325.12 2544.68,-318.6 2534.08,-318.48 2536.32,-325.12"/>
</g>
<!-- pycolmap -->
<g id="node26" class="node">
<title>pycolmap</title>
<g id="a_node26"><a xlink:href="https://github.com/conda-forge/pycolmap-feedstock" xlink:title="pycolmap">
<ellipse fill="#35b779" stroke="black" cx="2690" cy="-306" rx="59.1" ry="18"/>
<text text-anchor="middle" x="2690" y="-301.32" font-family="Times,serif" font-size="14.00">pycolmap</text>
</a>
</g>
</g>
<!-- mpc&#45;&gt;pycolmap -->
<g id="edge36" class="edge">
<title>mpc&#45;&gt;pycolmap</title>
<path fill="none" stroke="black" d="M1247.41,-448.23C1405.85,-444.35 2099.99,-425.92 2314,-396 2431.45,-379.58 2566,-343.39 2638.02,-322.57"/>
<polygon fill="black" stroke="black" points="2638.95,-325.95 2647.58,-319.79 2637,-319.22 2638.95,-325.95"/>
</g>
<!-- pygplates -->
<g id="node27" class="node">
<title>pygplates</title>
<g id="a_node27"><a xlink:href="https://github.com/conda-forge/pygplates-feedstock" xlink:title="pygplates">
<ellipse fill="#35b779" stroke="black" cx="2827" cy="-306" rx="60.15" ry="18"/>
<text text-anchor="middle" x="2827" y="-301.32" font-family="Times,serif" font-size="14.00">pygplates</text>
</a>
</g>
</g>
<!-- mpc&#45;&gt;pygplates -->
<g id="edge37" class="edge">
<title>mpc&#45;&gt;pygplates</title>
<path fill="none" stroke="black" d="M1247.58,-448.28C1415.08,-444.49 2180.47,-425.79 2416,-396 2545.61,-379.61 2694.85,-342.64 2772.94,-321.88"/>
<polygon fill="black" stroke="black" points="2773.72,-325.29 2782.47,-319.33 2771.91,-318.53 2773.72,-325.29"/>
</g>
<!-- mpfr&#45;&gt;arb -->
<g id="edge38" class="edge">
<title>mpfr&#45;&gt;arb</title>
<path fill="none" stroke="black" d="M1183.06,-369.77C1151.68,-361.74 1103.22,-346.82 1066,-324 1046.17,-311.84 1049.24,-297.48 1028,-288 848.43,-207.83 777.24,-301.81 587,-252 585.25,-251.54 583.48,-251.01 581.71,-250.41"/>
<polygon fill="black" stroke="black" points="583.05,-247.17 572.46,-246.76 580.48,-253.69 583.05,-247.17"/>
</g>
<!-- mpfr&#45;&gt;mppp -->
<g id="edge39" class="edge">
<title>mpfr&#45;&gt;mppp</title>
<path fill="none" stroke="black" d="M1205.81,-360.43C1193.68,-340.13 1170.37,-306.22 1141,-288 965.16,-178.92 709.29,-163.73 601.22,-162.5"/>
<polygon fill="black" stroke="black" points="601.54,-159 591.52,-162.43 601.49,-166 601.54,-159"/>
</g>
<!-- mpfr&#45;&gt;heyoka.py -->
<g id="edge43" class="edge">
<title>mpfr&#45;&gt;heyoka.py</title>
<path fill="none" stroke="black" d="M1220.33,-360.15C1228.2,-333.75 1242,-280.92 1242,-235 1242,-235 1242,-235 1242,-161 1242,-90.63 735.72,-40.82 546.35,-24.66"/>
<polygon fill="black" stroke="black" points="546.92,-21.19 536.66,-23.84 546.33,-28.17 546.92,-21.19"/>
</g>
<!-- mpfr&#45;&gt;heyoka -->
<g id="edge58" class="edge">
<title>mpfr&#45;&gt;heyoka</title>
<path fill="none" stroke="black" d="M1210.87,-359.69C1205.48,-340.22 1194.35,-308.64 1175,-288 1128.22,-238.1 1102.8,-240.64 1039,-216 885.56,-156.73 694.21,-117.17 603.05,-100.29"/>
<polygon fill="black" stroke="black" points="603.88,-96.88 593.41,-98.52 602.61,-103.76 603.88,-96.88"/>
</g>
<!-- mpfr&#45;&gt;cgal -->
<g id="edge40" class="edge">
<title>mpfr&#45;&gt;cgal</title>
<path fill="none" stroke="black" d="M1179.32,-377.41C1087.99,-377.68 838.85,-373.42 639,-324 636.87,-323.47 634.7,-322.85 632.54,-322.17"/>
<polygon fill="black" stroke="black" points="633.89,-318.93 623.3,-318.82 631.51,-325.52 633.89,-318.93"/>
</g>
<!-- mpfr&#45;&gt;gmpy2 -->
<g id="edge41" class="edge">
<title>mpfr&#45;&gt;gmpy2</title>
<path fill="none" stroke="black" d="M1179.49,-376.54C1056.89,-374.61 640.19,-365.23 299,-324 285.39,-322.36 270.76,-319.95 257.26,-317.46"/>
<polygon fill="black" stroke="black" points="258.2,-314.08 247.72,-315.65 256.89,-320.95 258.2,-314.08"/>
</g>
<!-- mpfr&#45;&gt;python&#45;symengine -->
<g id="edge42" class="edge">
<title>mpfr&#45;&gt;python&#45;symengine</title>
<path fill="none" stroke="black" d="M1179.88,-375.1C1133.49,-371.24 1050.59,-359.51 990,-324 971.27,-313.03 976.6,-297.33 957,-288 836.4,-230.58 490.07,-263.53 357,-252 338.75,-250.42 319.29,-248.43 300.63,-246.38"/>
<polygon fill="black" stroke="black" points="301.28,-242.94 290.95,-245.31 300.5,-249.89 301.28,-242.94"/>
</g>
<!-- mpfr&#45;&gt;igraph -->
<g id="edge44" class="edge">
<title>mpfr&#45;&gt;igraph</title>
<path fill="none" stroke="black" d="M1179.98,-374.28C1105.18,-368.14 924.44,-351.57 775,-324 770.42,-323.16 765.7,-322.18 760.96,-321.14"/>
<polygon fill="black" stroke="black" points="762,-317.79 751.46,-318.95 760.42,-324.61 762,-317.79"/>
</g>
<!-- mpfr&#45;&gt;libflint -->
<g id="edge45" class="edge">
<title>mpfr&#45;&gt;libflint</title>
<path fill="none" stroke="black" d="M1180.04,-374.21C1081.85,-366.38 795.16,-343.47 557,-324 505.87,-319.82 447.57,-314.98 406.25,-311.53"/>
<polygon fill="black" stroke="black" points="406.56,-308.05 396.3,-310.7 405.98,-315.02 406.56,-308.05"/>
</g>
<!-- mpfr&#45;&gt;python&#45;flint -->
<g id="edge46" class="edge">
<title>mpfr&#45;&gt;python&#45;flint</title>
<path fill="none" stroke="black" d="M1181.02,-372.4C1142.02,-366.01 1077.13,-351.95 1028,-324 1007.78,-312.5 1011.27,-297.42 990,-288 892.8,-244.96 618.19,-267.36 513,-252 507.4,-251.18 501.6,-250.19 495.81,-249.11"/>
<polygon fill="black" stroke="black" points="496.72,-245.72 486.23,-247.22 495.36,-252.59 496.72,-245.72"/>
</g>
<!-- mpfr&#45;&gt;normaliz -->
<g id="edge47" class="edge">
<title>mpfr&#45;&gt;normaliz</title>
<path fill="none" stroke="black" d="M1187.25,-366.59C1163.97,-357.22 1130.4,-342.14 1104,-324 1084.82,-310.83 1087.14,-297.7 1066,-288 923.48,-222.59 869.26,-280.22 715,-252 710.73,-251.22 706.33,-250.3 701.93,-249.3"/>
<polygon fill="black" stroke="black" points="703.08,-245.98 692.54,-247.03 701.44,-252.78 703.08,-245.98"/>
</g>
<!-- mpfr&#45;&gt;antic -->
<g id="edge48" class="edge">
<title>mpfr&#45;&gt;antic</title>
<path fill="none" stroke="black" d="M1197.46,-362.1C1168.93,-338 1114.57,-292.65 1104,-288 1004.91,-244.42 876.06,-235.88 807.61,-234.68"/>
<polygon fill="black" stroke="black" points="807.92,-231.18 797.87,-234.56 807.83,-238.18 807.92,-231.18"/>
</g>
<!-- mpfr&#45;&gt;mpc -->
<g id="edge49" class="edge">
<title>mpfr&#45;&gt;mpc</title>
<path fill="none" stroke="black" d="M1220.86,-395.79C1221.66,-403.25 1221.92,-412.24 1221.64,-420.69"/>
<polygon fill="black" stroke="black" points="1218.16,-420.33 1220.98,-430.54 1225.14,-420.8 1218.16,-420.33"/>
</g>
<!-- mpfr&#45;&gt;python&#45;igraph -->
<g id="edge50" class="edge">
<title>mpfr&#45;&gt;python&#45;igraph</title>
<path fill="none" stroke="black" d="M1182.48,-370.48C1126.55,-359.26 1010.94,-336.07 936.01,-321.04"/>
<polygon fill="black" stroke="black" points="936.78,-317.63 926.29,-319.09 935.41,-324.49 936.78,-317.63"/>
</g>
<!-- mpfr&#45;&gt;gudhi -->
<g id="edge51" class="edge">
<title>mpfr&#45;&gt;gudhi</title>
<path fill="none" stroke="black" d="M1234.22,-362.83C1247.6,-352.98 1265.69,-339.65 1280.84,-328.49"/>
<polygon fill="black" stroke="black" points="1282.63,-331.52 1288.6,-322.77 1278.47,-325.88 1282.63,-331.52"/>
</g>
<!-- mpfr&#45;&gt;wildmeshing -->
<g id="edge52" class="edge">
<title>mpfr&#45;&gt;wildmeshing</title>
<path fill="none" stroke="black" d="M1244.81,-367.85C1280.94,-356.76 1342.56,-337.84 1387.52,-324.03"/>
<polygon fill="black" stroke="black" points="1388.3,-327.46 1396.83,-321.17 1386.24,-320.76 1388.3,-327.46"/>
</g>
<!-- mpfr&#45;&gt;ifcopenshell -->
<g id="edge53" class="edge">
<title>mpfr&#45;&gt;ifcopenshell</title>
<path fill="none" stroke="black" d="M1248.79,-371.73C1306.12,-362.68 1426.08,-343.29 1527,-324 1532.3,-322.99 1537.79,-321.9 1543.29,-320.78"/>
<polygon fill="black" stroke="black" points="1543.99,-324.21 1553.08,-318.77 1542.58,-317.36 1543.99,-324.21"/>
</g>
<!-- mpfr&#45;&gt;gnuradio -->
<g id="edge54" class="edge">
<title>mpfr&#45;&gt;gnuradio</title>
<path fill="none" stroke="black" d="M1250.19,-374.79C1328.96,-369.46 1525.26,-354.07 1687,-324 1691.26,-323.21 1695.66,-322.29 1700.06,-321.29"/>
<polygon fill="black" stroke="black" points="1700.55,-324.77 1709.47,-319.04 1698.93,-317.96 1700.55,-324.77"/>
</g>
<!-- mpfr&#45;&gt;scikit&#45;geometry -->
<g id="edge55" class="edge">
<title>mpfr&#45;&gt;scikit&#45;geometry</title>
<path fill="none" stroke="black" d="M1250.4,-374.93C1343.48,-369.25 1602.69,-351.97 1817,-324 1824.42,-323.03 1832.14,-321.9 1839.84,-320.7"/>
<polygon fill="black" stroke="black" points="1840.26,-324.18 1849.57,-319.13 1839.14,-317.26 1840.26,-324.18"/>
</g>
<!-- mpfr&#45;&gt;pygalmesh -->
<g id="edge56" class="edge">
<title>mpfr&#45;&gt;pygalmesh</title>
<path fill="none" stroke="black" d="M1250.6,-376.62C1363.09,-374.99 1720.69,-366.57 2013,-324 2018.56,-323.19 2024.31,-322.19 2030.05,-321.08"/>
<polygon fill="black" stroke="black" points="2030.42,-324.57 2039.52,-319.14 2029.02,-317.72 2030.42,-324.57"/>
</g>
<!-- mpfr&#45;&gt;compas_cgal -->
<g id="edge57" class="edge">
<title>mpfr&#45;&gt;compas_cgal</title>
<path fill="none" stroke="black" d="M1250.42,-376.85C1375.57,-375.93 1808.4,-369.44 2162,-324 2168.43,-323.17 2175.1,-322.14 2181.75,-320.98"/>
<polygon fill="black" stroke="black" points="2182.17,-324.47 2191.38,-319.22 2180.91,-317.58 2182.17,-324.47"/>
</g>
<!-- mpfr&#45;&gt;imp -->
<g id="edge59" class="edge">
<title>mpfr&#45;&gt;imp</title>
<path fill="none" stroke="black" d="M1250.71,-376.99C1417.03,-376.7 2116.65,-372.54 2329,-324 2331.15,-323.51 2333.33,-322.91 2335.51,-322.23"/>
<polygon fill="black" stroke="black" points="2336.58,-325.56 2344.78,-318.84 2334.18,-318.99 2336.58,-325.56"/>
</g>
<!-- mpfr&#45;&gt;gmpxxll -->
<g id="edge60" class="edge">
<title>mpfr&#45;&gt;gmpxxll</title>
<path fill="none" stroke="black" d="M1250.78,-376.53C1424.02,-374.07 2176.73,-361.38 2408,-324 2412.03,-323.35 2416.18,-322.52 2420.32,-321.58"/>
<polygon fill="black" stroke="black" points="2420.85,-325.06 2429.71,-319.25 2419.16,-318.26 2420.85,-325.06"/>
</g>
<!-- mpfr&#45;&gt;spam -->
<g id="edge61" class="edge">
<title>mpfr&#45;&gt;spam</title>
<path fill="none" stroke="black" d="M1250.73,-377.03C1434.37,-376.98 2273.35,-373.95 2528,-324 2530.66,-323.48 2533.37,-322.83 2536.07,-322.1"/>
<polygon fill="black" stroke="black" points="2537.11,-325.44 2545.62,-319.13 2535.03,-318.76 2537.11,-325.44"/>
</g>
<!-- mpfr&#45;&gt;pycolmap -->
<g id="edge62" class="edge">
<title>mpfr&#45;&gt;pycolmap</title>
<path fill="none" stroke="black" d="M1250.65,-376.66C1441.65,-374.68 2345.51,-363.33 2622,-324 2626.88,-323.31 2631.91,-322.41 2636.93,-321.38"/>
<polygon fill="black" stroke="black" points="2637.34,-324.88 2646.35,-319.31 2635.83,-318.04 2637.34,-324.88"/>
</g>
<!-- mpfr&#45;&gt;pygplates -->
<g id="edge63" class="edge">
<title>mpfr&#45;&gt;pygplates</title>
<path fill="none" stroke="black" d="M1250.72,-376.78C1452.67,-375.37 2453.01,-366.34 2758,-324 2762.95,-323.31 2768.05,-322.42 2773.14,-321.4"/>
<polygon fill="black" stroke="black" points="2773.69,-324.86 2782.72,-319.32 2772.21,-318.02 2773.69,-324.86"/>
</g>
</g>
</svg>
