<?xml version="1.0" encoding="UTF-8" standalone="no"?>
<!DOCTYPE svg PUBLIC "-//W3C//DTD SVG 1.1//EN"
 "http://www.w3.org/Graphics/SVG/1.1/DTD/svg11.dtd">
<!-- Generated by graphviz version 11.0.0 (20240519.1550)
 -->
<!-- Pages: 1 -->
<svg width="2895pt" height="476pt"
 viewBox="0.00 0.00 2895.15 476.00" xmlns="http://www.w3.org/2000/svg" xmlns:xlink="http://www.w3.org/1999/xlink">
<g id="graph0" class="graph" transform="scale(1 1) rotate(0) translate(4 472)">
<polygon fill="white" stroke="none" points="-4,4 -4,-472 2891.15,-472 2891.15,4 -4,4"/>
<!-- arb -->
<g id="node1" class="node">
<title>arb</title>
<g id="a_node1"><a xlink:href="https://github.com/conda-forge/arb-feedstock" xlink:title="arb">
<ellipse fill="#ff8c00" stroke="black" cx="550" cy="-234" rx="28.06" ry="18"/>
<text text-anchor="middle" x="550" y="-229.32" font-family="Times,serif" font-size="14.00">arb</text>
</a>
</g>
</g>
<!-- mppp -->
<g id="node2" class="node">
<title>mppp</title>
<g id="a_node2"><a xlink:href="https://github.com/conda-forge/mppp-feedstock" xlink:title="mppp">
<ellipse fill="#35b779" stroke="black" cx="550" cy="-162" rx="39.63" ry="18"/>
<text text-anchor="middle" x="550" y="-157.32" font-family="Times,serif" font-size="14.00">mppp</text>
</a>
</g>
</g>
<!-- arb&#45;&gt;mppp -->
<g id="edge1" class="edge">
<title>arb&#45;&gt;mppp</title>
<path fill="none" stroke="black" d="M550,-215.7C550,-208.41 550,-199.73 550,-191.54"/>
<polygon fill="black" stroke="black" points="553.5,-191.62 550,-181.62 546.5,-191.62 553.5,-191.62"/>
</g>
<!-- heyoka.py -->
<g id="node3" class="node">
<title>heyoka.py</title>
<g id="a_node3"><a xlink:href="https://github.com/conda-forge/heyoka.py-feedstock" xlink:title="heyoka py">
<ellipse fill="#35b779" stroke="black" cx="476" cy="-18" rx="61.73" ry="18"/>
<text text-anchor="middle" x="476" y="-13.32" font-family="Times,serif" font-size="14.00">heyoka py</text>
</a>
</g>
</g>
<!-- mppp&#45;&gt;heyoka.py -->
<g id="edge2" class="edge">
<title>mppp&#45;&gt;heyoka.py</title>
<path fill="none" stroke="black" d="M529.5,-146.29C517.64,-136.71 503.44,-123.19 495,-108 484.73,-89.51 480,-66.01 477.83,-47.81"/>
<polygon fill="black" stroke="black" points="481.33,-47.56 476.87,-37.95 474.36,-48.25 481.33,-47.56"/>
</g>
<!-- heyoka -->
<g id="node4" class="node">
<title>heyoka</title>
<g id="a_node4"><a xlink:href="https://github.com/conda-forge/heyoka-feedstock" xlink:title="heyoka">
<ellipse fill="#35b779" stroke="black" cx="550" cy="-90" rx="46.47" ry="18"/>
<text text-anchor="middle" x="550" y="-85.33" font-family="Times,serif" font-size="14.00">heyoka</text>
</a>
</g>
</g>
<!-- mppp&#45;&gt;heyoka -->
<g id="edge3" class="edge">
<title>mppp&#45;&gt;heyoka</title>
<path fill="none" stroke="black" d="M550,-143.7C550,-136.41 550,-127.73 550,-119.54"/>
<polygon fill="black" stroke="black" points="553.5,-119.62 550,-109.62 546.5,-119.62 553.5,-119.62"/>
</g>
<!-- heyoka&#45;&gt;heyoka.py -->
<g id="edge64" class="edge">
<title>heyoka&#45;&gt;heyoka.py</title>
<path fill="none" stroke="black" d="M533.21,-73.12C523.95,-64.36 512.25,-53.29 501.85,-43.45"/>
<polygon fill="black" stroke="black" points="504.27,-40.92 494.6,-36.59 499.46,-46.01 504.27,-40.92"/>
</g>
<!-- cgal -->
<g id="node5" class="node">
<title>cgal</title>
<g id="a_node5"><a xlink:href="https://github.com/conda-forge/cgal-feedstock" xlink:title="cgal">
<ellipse fill="#ff8c00" stroke="black" cx="598" cy="-306" rx="31.74" ry="18"/>
<text text-anchor="middle" x="598" y="-301.32" font-family="Times,serif" font-size="14.00">cgal</text>
</a>
</g>
</g>
<!-- gmpy2 -->
<g id="node6" class="node">
<title>gmpy2</title>
<g id="a_node6"><a xlink:href="https://github.com/conda-forge/gmpy2-feedstock" xlink:title="gmpy2">
<ellipse fill="#ff8c00" stroke="black" cx="207" cy="-306" rx="45.42" ry="18"/>
<text text-anchor="middle" x="207" y="-301.32" font-family="Times,serif" font-size="14.00">gmpy2</text>
</a>
</g>
</g>
<!-- gmpy2&#45;&gt;heyoka.py -->
<g id="edge5" class="edge">
<title>gmpy2&#45;&gt;heyoka.py</title>
<path fill="none" stroke="black" d="M166.56,-297.28C141.28,-290.13 110.65,-276.72 95,-252 86.44,-238.48 86.68,-229.67 95,-216 164.62,-101.63 324.4,-50.73 413.34,-30.57"/>
<polygon fill="black" stroke="black" points="413.86,-34.04 422.88,-28.47 412.36,-27.2 413.86,-34.04"/>
</g>
<!-- python&#45;symengine -->
<g id="node7" class="node">
<title>python&#45;symengine</title>
<g id="a_node7"><a xlink:href="https://github.com/conda-forge/python-symengine-feedstock" xlink:title="python symengine">
<ellipse fill="#35b779" stroke="black" cx="207" cy="-234" rx="103.29" ry="18"/>
<text text-anchor="middle" x="207" y="-229.32" font-family="Times,serif" font-size="14.00">python symengine</text>
</a>
</g>
</g>
<!-- gmpy2&#45;&gt;python&#45;symengine -->
<g id="edge4" class="edge">
<title>gmpy2&#45;&gt;python&#45;symengine</title>
<path fill="none" stroke="black" d="M207,-287.7C207,-280.41 207,-271.73 207,-263.54"/>
<polygon fill="black" stroke="black" points="210.5,-263.62 207,-253.62 203.5,-263.62 210.5,-263.62"/>
</g>
<!-- igraph -->
<g id="node8" class="node">
<title>igraph</title>
<g id="a_node8"><a xlink:href="https://github.com/conda-forge/igraph-feedstock/pull/73" xlink:title="igraph ❎">
<ellipse fill="#31688e" stroke="black" cx="707" cy="-306" rx="59.1" ry="18"/>
<text text-anchor="middle" x="707" y="-301.32" font-family="Times,serif" font-size="14.00" fill="white">igraph ❎</text>
</a>
</g>
</g>
<!-- libflint -->
<g id="node9" class="node">
<title>libflint</title>
<g id="a_node9"><a xlink:href="https://github.com/conda-forge/libflint-feedstock" xlink:title="libflint">
<ellipse fill="#ff8c00" stroke="black" cx="352" cy="-306" rx="43.84" ry="18"/>
<text text-anchor="middle" x="352" y="-301.32" font-family="Times,serif" font-size="14.00">libflint</text>
</a>
</g>
</g>
<!-- libflint&#45;&gt;arb -->
<g id="edge6" class="edge">
<title>libflint&#45;&gt;arb</title>
<path fill="none" stroke="black" d="M386.95,-294.74C419.83,-284.8 470.27,-268.79 513,-252 514.52,-251.4 516.07,-250.77 517.63,-250.12"/>
<polygon fill="black" stroke="black" points="518.72,-253.47 526.48,-246.26 515.92,-247.05 518.72,-253.47"/>
</g>
<!-- libflint&#45;&gt;mppp -->
<g id="edge7" class="edge">
<title>libflint&#45;&gt;mppp</title>
<path fill="none" stroke="black" d="M347.57,-287.85C343.61,-268.23 340.66,-236.23 357,-216 375.02,-193.7 450,-178.13 501.02,-169.87"/>
<polygon fill="black" stroke="black" points="501.32,-173.37 510.66,-168.36 500.24,-166.45 501.32,-173.37"/>
</g>
<!-- libflint&#45;&gt;python&#45;symengine -->
<g id="edge8" class="edge">
<title>libflint&#45;&gt;python&#45;symengine</title>
<path fill="none" stroke="black" d="M324.39,-291.67C303.7,-281.68 274.98,-267.82 251.12,-256.3"/>
<polygon fill="black" stroke="black" points="252.78,-253.22 242.26,-252.02 249.74,-259.52 252.78,-253.22"/>
</g>
<!-- python&#45;flint -->
<g id="node10" class="node">
<title>python&#45;flint</title>
<g id="a_node10"><a xlink:href="https://github.com/conda-forge/python-flint-feedstock" xlink:title="python flint">
<ellipse fill="#35b779" stroke="black" cx="435" cy="-234" rx="69.1" ry="18"/>
<text text-anchor="middle" x="435" y="-229.32" font-family="Times,serif" font-size="14.00">python flint</text>
</a>
</g>
</g>
<!-- libflint&#45;&gt;python&#45;flint -->
<g id="edge9" class="edge">
<title>libflint&#45;&gt;python&#45;flint</title>
<path fill="none" stroke="black" d="M370.42,-289.46C381,-280.54 394.51,-269.14 406.44,-259.08"/>
<polygon fill="black" stroke="black" points="408.64,-261.81 414.03,-252.69 404.12,-256.46 408.64,-261.81"/>
</g>
<!-- normaliz -->
<g id="node11" class="node">
<title>normaliz</title>
<g id="a_node11"><a xlink:href="https://github.com/conda-forge/normaliz-feedstock" xlink:title="normaliz">
<ellipse fill="#35b779" stroke="black" cx="651" cy="-234" rx="54.89" ry="18"/>
<text text-anchor="middle" x="651" y="-229.32" font-family="Times,serif" font-size="14.00">normaliz</text>
</a>
</g>
</g>
<!-- libflint&#45;&gt;normaliz -->
<g id="edge10" class="edge">
<title>libflint&#45;&gt;normaliz</title>
<path fill="none" stroke="black" d="M390.37,-296.81C436.98,-286.76 517.95,-268.95 587,-252 590.8,-251.07 594.72,-250.08 598.66,-249.07"/>
<polygon fill="black" stroke="black" points="599.48,-252.48 608.28,-246.58 597.72,-245.7 599.48,-252.48"/>
</g>
<!-- antic -->
<g id="node12" class="node">
<title>antic</title>
<g id="a_node12"><a xlink:href="https://github.com/conda-forge/antic-feedstock" xlink:title="antic">
<ellipse fill="#35b779" stroke="black" cx="760" cy="-234" rx="35.95" ry="18"/>
<text text-anchor="middle" x="760" y="-229.32" font-family="Times,serif" font-size="14.00">antic</text>
</a>
</g>
</g>
<!-- libflint&#45;&gt;antic -->
<g id="edge11" class="edge">
<title>libflint&#45;&gt;antic</title>
<path fill="none" stroke="black" d="M393.41,-299.47C481.99,-287.56 684.32,-259.93 715,-252 717.43,-251.37 719.91,-250.66 722.4,-249.88"/>
<polygon fill="black" stroke="black" points="723.41,-253.24 731.75,-246.7 721.15,-246.61 723.41,-253.24"/>
</g>
<!-- mpc -->
<g id="node13" class="node">
<title>mpc</title>
<g id="a_node13"><a xlink:href="https://github.com/conda-forge/mpc-feedstock" xlink:title="mpc">
<ellipse fill="#ff8c00" stroke="black" cx="1211" cy="-450" rx="32.27" ry="18"/>
<text text-anchor="middle" x="1211" y="-445.32" font-family="Times,serif" font-size="14.00">mpc</text>
</a>
</g>
</g>
<!-- mpc&#45;&gt;arb -->
<g id="edge12" class="edge">
<title>mpc&#45;&gt;arb</title>
<path fill="none" stroke="black" d="M1178.56,-449.16C1043.88,-449.48 533.69,-447.3 486,-396 453.32,-360.84 465.57,-331.44 486,-288 493,-273.12 506.44,-260.99 519.22,-252.1"/>
<polygon fill="black" stroke="black" points="520.96,-255.14 527.46,-246.77 517.16,-249.26 520.96,-255.14"/>
</g>
<!-- mpc&#45;&gt;mppp -->
<g id="edge13" class="edge">
<title>mpc&#45;&gt;mppp</title>
<path fill="none" stroke="black" d="M1178.42,-448.48C1056.19,-445.74 628.16,-428.68 557,-324 548,-310.77 546.53,-300.1 557,-288 629.88,-203.78 732.12,-336.22 805,-252 815.47,-239.9 815.1,-228.41 805,-216 779.71,-184.91 667.2,-171.47 600.37,-166.14"/>
<polygon fill="black" stroke="black" points="601,-162.67 590.76,-165.4 600.47,-169.65 601,-162.67"/>
</g>
<!-- mpc&#45;&gt;heyoka.py -->
<g id="edge17" class="edge">
<title>mpc&#45;&gt;heyoka.py</title>
<path fill="none" stroke="black" d="M1178.3,-449.24C1000.93,-450.34 158.66,-452.49 59,-396 17.71,-372.6 0,-354.46 0,-307 0,-307 0,-307 0,-161 0,-77.2 274.3,-38.8 406.45,-25.16"/>
<polygon fill="black" stroke="black" points="406.53,-28.67 416.13,-24.18 405.83,-21.71 406.53,-28.67"/>
</g>
<!-- mpc&#45;&gt;heyoka -->
<g id="edge32" class="edge">
<title>mpc&#45;&gt;heyoka</title>
<path fill="none" stroke="black" d="M1178.52,-448.38C1013.04,-445.09 267.58,-428.56 170,-396 102.88,-373.6 38,-377.76 38,-307 38,-307 38,-307 38,-233 38,-139.45 359.43,-105 492.93,-94.72"/>
<polygon fill="black" stroke="black" points="492.89,-98.24 502.6,-94 492.37,-91.26 492.89,-98.24"/>
</g>
<!-- mpc&#45;&gt;cgal -->
<g id="edge14" class="edge">
<title>mpc&#45;&gt;cgal</title>
<path fill="none" stroke="black" d="M1179.4,-445.61C1119.1,-438.79 983.72,-421.85 872,-396 766.4,-371.57 740.95,-360.8 639,-324 637.07,-323.3 635.1,-322.57 633.12,-321.81"/>
<polygon fill="black" stroke="black" points="634.56,-318.62 623.98,-318.18 631.98,-325.12 634.56,-318.62"/>
</g>
<!-- mpc&#45;&gt;gmpy2 -->
<g id="edge15" class="edge">
<title>mpc&#45;&gt;gmpy2</title>
<path fill="none" stroke="black" d="M1178.43,-448.89C1021.37,-448.13 346.54,-442.19 266,-396 242.55,-382.55 226.68,-355.56 217.35,-334.8"/>
<polygon fill="black" stroke="black" points="220.64,-333.59 213.54,-325.73 214.19,-336.31 220.64,-333.59"/>
</g>
<!-- mpc&#45;&gt;python&#45;symengine -->
<g id="edge16" class="edge">
<title>mpc&#45;&gt;python&#45;symengine</title>
<path fill="none" stroke="black" d="M1178.39,-448.59C1017.96,-446.37 316.78,-434.53 228,-396 185.61,-377.61 171.12,-366.51 153,-324 146.73,-309.28 146.81,-302.75 153,-288 157.54,-277.19 165.47,-267.48 173.89,-259.41"/>
<polygon fill="black" stroke="black" points="176.06,-262.16 181.22,-252.91 171.42,-256.92 176.06,-262.16"/>
</g>
<!-- mpc&#45;&gt;igraph -->
<g id="edge18" class="edge">
<title>mpc&#45;&gt;igraph</title>
<path fill="none" stroke="black" d="M1181.37,-442.37C1139.45,-432.85 1060.53,-414.42 994,-396 910.1,-372.77 813.63,-342.01 756.63,-323.4"/>
<polygon fill="black" stroke="black" points="757.8,-320.1 747.21,-320.32 755.63,-326.76 757.8,-320.1"/>
</g>
<!-- mpc&#45;&gt;libflint -->
<g id="edge19" class="edge">
<title>mpc&#45;&gt;libflint</title>
<path fill="none" stroke="black" d="M1178.8,-448.56C1037.59,-446.39 477.2,-435.34 410,-396 386.8,-382.41 371.21,-355.44 362.09,-334.73"/>
<polygon fill="black" stroke="black" points="365.41,-333.6 358.37,-325.68 358.94,-336.26 365.41,-333.6"/>
</g>
<!-- mpc&#45;&gt;python&#45;flint -->
<g id="edge20" class="edge">
<title>mpc&#45;&gt;python&#45;flint</title>
<path fill="none" stroke="black" d="M1178.49,-448.27C1033.25,-444.85 447.63,-429.1 373,-396 319.81,-372.41 266.16,-336.04 299,-288 313.82,-266.31 338.94,-253.5 363.59,-245.93"/>
<polygon fill="black" stroke="black" points="364.31,-249.36 373,-243.31 362.43,-242.62 364.31,-249.36"/>
</g>
<!-- mpc&#45;&gt;normaliz -->
<g id="edge21" class="edge">
<title>mpc&#45;&gt;normaliz</title>
<path fill="none" stroke="black" d="M1178.69,-449.11C1045.74,-449.24 545.75,-446.36 499,-396 488.83,-385.05 481.22,-314.11 500,-288 506.18,-279.41 558.51,-262.27 599.85,-249.8"/>
<polygon fill="black" stroke="black" points="600.6,-253.23 609.18,-247.01 598.6,-246.52 600.6,-253.23"/>
</g>
<!-- mpc&#45;&gt;antic -->
<g id="edge22" class="edge">
<title>mpc&#45;&gt;antic</title>
<path fill="none" stroke="black" d="M1178.5,-449.02C1048.27,-448.76 568.9,-444.5 524,-396 491.39,-360.78 493.36,-324.95 524,-288 579.14,-221.5 631.83,-275.35 715,-252 717.26,-251.37 719.57,-250.66 721.89,-249.92"/>
<polygon fill="black" stroke="black" points="722.91,-253.27 731.22,-246.7 720.62,-246.65 722.91,-253.27"/>
</g>
<!-- mpfr -->
<g id="node14" class="node">
<title>mpfr</title>
<g id="a_node14"><a xlink:href="https://github.com/conda-forge/mpfr-feedstock/pull/46" xlink:title="mpfr ❎">
<ellipse fill="#31688e" stroke="black" cx="1211" cy="-378" rx="50.68" ry="18"/>
<text text-anchor="middle" x="1211" y="-373.32" font-family="Times,serif" font-size="14.00" fill="white">mpfr ❎</text>
</a>
</g>
</g>
<!-- mpc&#45;&gt;mpfr -->
<g id="edge23" class="edge">
<title>mpc&#45;&gt;mpfr</title>
<path fill="none" stroke="black" d="M1205.12,-432.05C1204.34,-424.68 1204.08,-415.84 1204.35,-407.51"/>
<polygon fill="black" stroke="black" points="1207.83,-407.99 1204.99,-397.79 1200.84,-407.54 1207.83,-407.99"/>
</g>
<!-- python&#45;igraph -->
<g id="node15" class="node">
<title>python&#45;igraph</title>
<g id="a_node15"><a xlink:href="https://github.com/conda-forge/python-igraph-feedstock" xlink:title="python igraph">
<ellipse fill="#35b779" stroke="black" cx="866" cy="-306" rx="81.72" ry="18"/>
<text text-anchor="middle" x="866" y="-301.32" font-family="Times,serif" font-size="14.00">python igraph</text>
</a>
</g>
</g>
<!-- mpc&#45;&gt;python&#45;igraph -->
<g id="edge24" class="edge">
<title>mpc&#45;&gt;python&#45;igraph</title>
<path fill="none" stroke="black" d="M1185.63,-438.56C1128.31,-414.96 988.01,-357.22 913.81,-326.68"/>
<polygon fill="black" stroke="black" points="915.34,-323.52 904.76,-322.95 912.67,-329.99 915.34,-323.52"/>
</g>
<!-- gudhi -->
<g id="node16" class="node">
<title>gudhi</title>
<g id="a_node16"><a xlink:href="https://github.com/conda-forge/gudhi-feedstock" xlink:title="gudhi">
<ellipse fill="#35b779" stroke="black" cx="1310" cy="-306" rx="39.63" ry="18"/>
<text text-anchor="middle" x="1310" y="-301.32" font-family="Times,serif" font-size="14.00">gudhi</text>
</a>
</g>
</g>
<!-- mpc&#45;&gt;gudhi -->
<g id="edge25" class="edge">
<title>mpc&#45;&gt;gudhi</title>
<path fill="none" stroke="black" d="M1230.57,-435.26C1243.39,-425.48 1259.78,-411.38 1271,-396 1284.52,-377.46 1294.68,-353.51 1301.24,-335.12"/>
<polygon fill="black" stroke="black" points="1304.55,-336.24 1304.45,-325.65 1297.92,-333.99 1304.55,-336.24"/>
</g>
<!-- wildmeshing -->
<g id="node17" class="node">
<title>wildmeshing</title>
<g id="a_node17"><a xlink:href="https://github.com/conda-forge/wildmeshing-feedstock" xlink:title="wildmeshing">
<ellipse fill="#35b779" stroke="black" cx="1443" cy="-306" rx="74.88" ry="18"/>
<text text-anchor="middle" x="1443" y="-301.32" font-family="Times,serif" font-size="14.00">wildmeshing</text>
</a>
</g>
</g>
<!-- mpc&#45;&gt;wildmeshing -->
<g id="edge26" class="edge">
<title>mpc&#45;&gt;wildmeshing</title>
<path fill="none" stroke="black" d="M1232,-436.15C1271.65,-411.88 1357.97,-359.05 1407.03,-329.02"/>
<polygon fill="black" stroke="black" points="1408.62,-332.15 1415.32,-323.94 1404.96,-326.18 1408.62,-332.15"/>
</g>
<!-- ifcopenshell -->
<g id="node18" class="node">
<title>ifcopenshell</title>
<g id="a_node18"><a xlink:href="https://github.com/conda-forge/ifcopenshell-feedstock" xlink:title="ifcopenshell">
<ellipse fill="#35b779" stroke="black" cx="1607" cy="-306" rx="71.2" ry="18"/>
<text text-anchor="middle" x="1607" y="-301.32" font-family="Times,serif" font-size="14.00">ifcopenshell</text>
</a>
</g>
</g>
<!-- mpc&#45;&gt;ifcopenshell -->
<g id="edge27" class="edge">
<title>mpc&#45;&gt;ifcopenshell</title>
<path fill="none" stroke="black" d="M1237.6,-439.46C1302.8,-416.08 1471.47,-355.6 1556.47,-325.12"/>
<polygon fill="black" stroke="black" points="1557.49,-328.47 1565.72,-321.8 1555.13,-321.88 1557.49,-328.47"/>
</g>
<!-- gnuradio -->
<g id="node19" class="node">
<title>gnuradio</title>
<g id="a_node19"><a xlink:href="https://github.com/conda-forge/gnuradio-feedstock" xlink:title="gnuradio">
<ellipse fill="#35b779" stroke="black" cx="1752" cy="-306" rx="55.94" ry="18"/>
<text text-anchor="middle" x="1752" y="-301.32" font-family="Times,serif" font-size="14.00">gnuradio</text>
</a>
</g>
</g>
<!-- mpc&#45;&gt;gnuradio -->
<g id="edge28" class="edge">
<title>mpc&#45;&gt;gnuradio</title>
<path fill="none" stroke="black" d="M1240.19,-441.89C1281.11,-431.88 1357.83,-412.96 1423,-396 1520.98,-370.5 1634.96,-339.33 1699.78,-321.46"/>
<polygon fill="black" stroke="black" points="1700.35,-324.93 1709.06,-318.9 1698.49,-318.18 1700.35,-324.93"/>
</g>
<!-- scikit&#45;geometry -->
<g id="node20" class="node">
<title>scikit&#45;geometry</title>
<g id="a_node20"><a xlink:href="https://github.com/conda-forge/scikit-geometry-feedstock" xlink:title="scikit geometry">
<ellipse fill="#35b779" stroke="black" cx="1915" cy="-306" rx="89.09" ry="18"/>
<text text-anchor="middle" x="1915" y="-301.32" font-family="Times,serif" font-size="14.00">scikit geometry</text>
</a>
</g>
</g>
<!-- mpc&#45;&gt;scikit&#45;geometry -->
<g id="edge29" class="edge">
<title>mpc&#45;&gt;scikit&#45;geometry</title>
<path fill="none" stroke="black" d="M1241.54,-443.74C1294.47,-434.55 1406.63,-414.76 1501,-396 1622.72,-371.8 1763.93,-340.82 1846,-322.52"/>
<polygon fill="black" stroke="black" points="1846.71,-325.95 1855.7,-320.35 1845.18,-319.11 1846.71,-325.95"/>
</g>
<!-- pygalmesh -->
<g id="node21" class="node">
<title>pygalmesh</title>
<g id="a_node21"><a xlink:href="https://github.com/conda-forge/pygalmesh-feedstock" xlink:title="pygalmesh">
<ellipse fill="#35b779" stroke="black" cx="2088" cy="-306" rx="65.41" ry="18"/>
<text text-anchor="middle" x="2088" y="-301.32" font-family="Times,serif" font-size="14.00">pygalmesh</text>
</a>
</g>
</g>
<!-- mpc&#45;&gt;pygalmesh -->
<g id="edge30" class="edge">
<title>mpc&#45;&gt;pygalmesh</title>
<path fill="none" stroke="black" d="M1242.4,-445.14C1308.74,-436.91 1467.98,-416.65 1601,-396 1784.69,-367.48 1830.74,-360.56 2013,-324 2017.92,-323.01 2023.01,-321.95 2028.12,-320.85"/>
<polygon fill="black" stroke="black" points="2028.76,-324.3 2037.78,-318.74 2027.26,-317.46 2028.76,-324.3"/>
</g>
<!-- compas_cgal -->
<g id="node22" class="node">
<title>compas_cgal</title>
<g id="a_node22"><a xlink:href="https://github.com/conda-forge/compas_cgal-feedstock" xlink:title="compas_cgal">
<ellipse fill="#35b779" stroke="black" cx="2246" cy="-306" rx="74.36" ry="18"/>
<text text-anchor="middle" x="2246" y="-301.32" font-family="Times,serif" font-size="14.00">compas_cgal</text>
</a>
</g>
</g>
<!-- mpc&#45;&gt;compas_cgal -->
<g id="edge31" class="edge">
<title>mpc&#45;&gt;compas_cgal</title>
<path fill="none" stroke="black" d="M1243.02,-446.39C1324.06,-439.64 1543.82,-420.39 1726,-396 1920.66,-369.93 1968.83,-359.48 2162,-324 2167.85,-322.92 2173.93,-321.77 2180.01,-320.59"/>
<polygon fill="black" stroke="black" points="2180.31,-324.1 2189.44,-318.73 2178.96,-317.23 2180.31,-324.1"/>
</g>
<!-- imp -->
<g id="node23" class="node">
<title>imp</title>
<g id="a_node23"><a xlink:href="https://github.com/conda-forge/imp-feedstock" xlink:title="imp">
<ellipse fill="#35b779" stroke="black" cx="2369" cy="-306" rx="30.16" ry="18"/>
<text text-anchor="middle" x="2369" y="-301.32" font-family="Times,serif" font-size="14.00">imp</text>
</a>
</g>
</g>
<!-- mpc&#45;&gt;imp -->
<g id="edge33" class="edge">
<title>mpc&#45;&gt;imp</title>
<path fill="none" stroke="black" d="M1243.29,-447.14C1337.75,-441.52 1621.65,-423.43 1856,-396 2067.2,-371.28 2124.43,-382.04 2329,-324 2331.12,-323.4 2333.28,-322.71 2335.44,-321.97"/>
<polygon fill="black" stroke="black" points="2336.59,-325.28 2344.68,-318.44 2334.09,-318.74 2336.59,-325.28"/>
</g>
<!-- gmpxxll -->
<g id="node24" class="node">
<title>gmpxxll</title>
<g id="a_node24"><a xlink:href="https://github.com/conda-forge/gmpxxll-feedstock" xlink:title="gmpxxll">
<ellipse fill="#35b779" stroke="black" cx="2468" cy="-306" rx="51.21" ry="18"/>
<text text-anchor="middle" x="2468" y="-301.32" font-family="Times,serif" font-size="14.00">gmpxxll</text>
</a>
</g>
</g>
<!-- mpc&#45;&gt;gmpxxll -->
<g id="edge34" class="edge">
<title>mpc&#45;&gt;gmpxxll</title>
<path fill="none" stroke="black" d="M1243.52,-448.34C1354.12,-445.78 1725.75,-434.67 2030,-396 2199.66,-374.44 2241.57,-363.35 2408,-324 2411.53,-323.17 2415.16,-322.26 2418.81,-321.31"/>
<polygon fill="black" stroke="black" points="2419.51,-324.75 2428.26,-318.78 2417.69,-317.99 2419.51,-324.75"/>
</g>
<!-- spam -->
<g id="node25" class="node">
<title>spam</title>
<g id="a_node25"><a xlink:href="https://github.com/conda-forge/spam-feedstock" xlink:title="spam">
<ellipse fill="#35b779" stroke="black" cx="2575" cy="-306" rx="38.06" ry="18"/>
<text text-anchor="middle" x="2575" y="-301.32" font-family="Times,serif" font-size="14.00">spam</text>
</a>
</g>
</g>
<!-- mpc&#45;&gt;spam -->
<g id="edge35" class="edge">
<title>mpc&#45;&gt;spam</title>
<path fill="none" stroke="black" d="M1243.3,-448.75C1363.86,-447.49 1798.84,-439.97 2154,-396 2321.99,-375.2 2364.8,-368.93 2528,-324 2530.41,-323.34 2532.88,-322.61 2535.36,-321.83"/>
<polygon fill="black" stroke="black" points="2536.33,-325.2 2544.71,-318.72 2534.12,-318.56 2536.33,-325.2"/>
</g>
<!-- pycolmap -->
<g id="node26" class="node">
<title>pycolmap</title>
<g id="a_node26"><a xlink:href="https://github.com/conda-forge/pycolmap-feedstock" xlink:title="pycolmap">
<ellipse fill="#35b779" stroke="black" cx="2690" cy="-306" rx="59.1" ry="18"/>
<text text-anchor="middle" x="2690" y="-301.32" font-family="Times,serif" font-size="14.00">pycolmap</text>
</a>
</g>
</g>
<!-- mpc&#45;&gt;pycolmap -->
<g id="edge36" class="edge">
<title>mpc&#45;&gt;pycolmap</title>
<path fill="none" stroke="black" d="M1243.56,-449.26C1374.38,-449.93 1874.28,-448.67 2281,-396 2410.13,-379.28 2558.88,-342.36 2636.51,-321.71"/>
<polygon fill="black" stroke="black" points="2637.22,-325.15 2645.97,-319.18 2635.41,-318.38 2637.22,-325.15"/>
</g>
<!-- pygplates -->
<g id="node27" class="node">
<title>pygplates</title>
<g id="a_node27"><a xlink:href="https://github.com/conda-forge/pygplates-feedstock" xlink:title="pygplates">
<ellipse fill="#35b779" stroke="black" cx="2827" cy="-306" rx="60.15" ry="18"/>
<text text-anchor="middle" x="2827" y="-301.32" font-family="Times,serif" font-size="14.00">pygplates</text>
</a>
</g>
</g>
<!-- mpc&#45;&gt;pygplates -->
<g id="edge37" class="edge">
<title>mpc&#45;&gt;pygplates</title>
<path fill="none" stroke="black" d="M1243.5,-449.3C1382.16,-450.21 1937.85,-450.09 2390,-396 2528.77,-379.4 2689.11,-341.96 2771.61,-321.32"/>
<polygon fill="black" stroke="black" points="2772.41,-324.73 2781.26,-318.9 2770.71,-317.94 2772.41,-324.73"/>
</g>
<!-- mpfr&#45;&gt;arb -->
<g id="edge38" class="edge">
<title>mpfr&#45;&gt;arb</title>
<path fill="none" stroke="black" d="M1170.23,-366.93C1140.01,-358.35 1098.59,-344.18 1066,-324 1046.22,-311.75 1049.24,-297.48 1028,-288 848.43,-207.83 777.24,-301.81 587,-252 585.25,-251.54 583.48,-251.01 581.71,-250.41"/>
<polygon fill="black" stroke="black" points="583.05,-247.17 572.46,-246.76 580.48,-253.69 583.05,-247.17"/>
</g>
<!-- mpfr&#45;&gt;mppp -->
<g id="edge39" class="edge">
<title>mpfr&#45;&gt;mppp</title>
<path fill="none" stroke="black" d="M1202.15,-360.07C1190.63,-339.74 1168.53,-306.12 1140,-288 965.6,-177.26 709.55,-162.97 601.31,-162.24"/>
<polygon fill="black" stroke="black" points="601.6,-158.74 591.59,-162.21 601.58,-165.74 601.6,-158.74"/>
</g>
<!-- mpfr&#45;&gt;heyoka.py -->
<g id="edge43" class="edge">
<title>mpfr&#45;&gt;heyoka.py</title>
<path fill="none" stroke="black" d="M1217.27,-359.78C1226.33,-333.32 1242,-280.92 1242,-235 1242,-235 1242,-235 1242,-161 1242,-90.63 735.72,-40.82 546.35,-24.66"/>
<polygon fill="black" stroke="black" points="546.92,-21.19 536.66,-23.84 546.33,-28.17 546.92,-21.19"/>
</g>
<!-- mpfr&#45;&gt;heyoka -->
<g id="edge58" class="edge">
<title>mpfr&#45;&gt;heyoka</title>
<path fill="none" stroke="black" d="M1207.28,-359.72C1202.33,-340.27 1191.93,-308.71 1173,-288 1127.38,-238.1 1101.99,-240.55 1039,-216 885.74,-156.26 694.31,-116.92 603.09,-100.18"/>
<polygon fill="black" stroke="black" points="603.91,-96.77 593.44,-98.43 602.65,-103.66 603.91,-96.77"/>
</g>
<!-- mpfr&#45;&gt;cgal -->
<g id="edge40" class="edge">
<title>mpfr&#45;&gt;cgal</title>
<path fill="none" stroke="black" d="M1160.04,-377.36C1059.05,-376.98 827.05,-370.56 639,-324 636.87,-323.47 634.7,-322.85 632.54,-322.16"/>
<polygon fill="black" stroke="black" points="633.89,-318.93 623.3,-318.82 631.51,-325.51 633.89,-318.93"/>
</g>
<!-- mpfr&#45;&gt;gmpy2 -->
<g id="edge41" class="edge">
<title>mpfr&#45;&gt;gmpy2</title>
<path fill="none" stroke="black" d="M1160.13,-376.27C1021.49,-373.78 625.52,-363.5 299,-324 285.39,-322.35 270.76,-319.95 257.26,-317.46"/>
<polygon fill="black" stroke="black" points="258.2,-314.07 247.72,-315.65 256.89,-320.95 258.2,-314.07"/>
</g>
<!-- mpfr&#45;&gt;python&#45;symengine -->
<g id="edge42" class="edge">
<title>mpfr&#45;&gt;python&#45;symengine</title>
<path fill="none" stroke="black" d="M1161.81,-373.5C1114.86,-368.32 1043.55,-355.53 990,-324 971.3,-312.99 976.6,-297.33 957,-288 836.4,-230.58 490.07,-263.53 357,-252 338.75,-250.42 319.29,-248.43 300.63,-246.38"/>
<polygon fill="black" stroke="black" points="301.28,-242.94 290.95,-245.31 300.5,-249.89 301.28,-242.94"/>
</g>
<!-- mpfr&#45;&gt;igraph -->
<g id="edge44" class="edge">
<title>mpfr&#45;&gt;igraph</title>
<path fill="none" stroke="black" d="M1161.99,-373.04C1080.98,-366.05 914.27,-349.77 775,-324 770.62,-323.19 766.09,-322.26 761.56,-321.27"/>
<polygon fill="black" stroke="black" points="762.36,-317.86 751.83,-319.03 760.79,-324.68 762.36,-317.86"/>
</g>
<!-- mpfr&#45;&gt;libflint -->
<g id="edge45" class="edge">
<title>mpfr&#45;&gt;libflint</title>
<path fill="none" stroke="black" d="M1161.77,-373.04C1052.8,-364.27 782.93,-342.52 557,-324 505.87,-319.81 447.57,-314.97 406.25,-311.53"/>
<polygon fill="black" stroke="black" points="406.56,-308.04 396.3,-310.7 405.98,-315.02 406.56,-308.04"/>
</g>
<!-- mpfr&#45;&gt;python&#45;flint -->
<g id="edge46" class="edge">
<title>mpfr&#45;&gt;python&#45;flint</title>
<path fill="none" stroke="black" d="M1165,-369.95C1126.48,-362.62 1071.05,-348.66 1028,-324 1007.81,-312.44 1011.27,-297.42 990,-288 892.8,-244.96 618.19,-267.36 513,-252 507.4,-251.18 501.6,-250.19 495.81,-249.11"/>
<polygon fill="black" stroke="black" points="496.72,-245.72 486.23,-247.22 495.36,-252.59 496.72,-245.72"/>
</g>
<!-- mpfr&#45;&gt;normaliz -->
<g id="edge47" class="edge">
<title>mpfr&#45;&gt;normaliz</title>
<path fill="none" stroke="black" d="M1178.23,-363.82C1156.3,-354.29 1127.29,-340.25 1104,-324 1084.92,-310.69 1087.14,-297.7 1066,-288 923.48,-222.59 869.26,-280.22 715,-252 710.73,-251.22 706.33,-250.3 701.93,-249.3"/>
<polygon fill="black" stroke="black" points="703.08,-245.98 692.54,-247.03 701.44,-252.78 703.08,-245.98"/>
</g>
<!-- mpfr&#45;&gt;antic -->
<g id="edge48" class="edge">
<title>mpfr&#45;&gt;antic</title>
<path fill="none" stroke="black" d="M1192.77,-360.92C1164.98,-336.55 1114.13,-292.57 1104,-288 1005.31,-243.53 876.3,-235.35 807.72,-234.44"/>
<polygon fill="black" stroke="black" points="807.98,-230.94 797.96,-234.36 807.93,-237.94 807.98,-230.94"/>
</g>
<!-- mpfr&#45;&gt;mpc -->
<g id="edge49" class="edge">
<title>mpfr&#45;&gt;mpc</title>
<path fill="none" stroke="black" d="M1216.91,-396.28C1217.67,-403.6 1217.91,-412.34 1217.64,-420.57"/>
<polygon fill="black" stroke="black" points="1214.15,-420.33 1216.98,-430.54 1221.14,-420.8 1214.15,-420.33"/>
</g>
<!-- mpfr&#45;&gt;python&#45;igraph -->
<g id="edge50" class="edge">
<title>mpfr&#45;&gt;python&#45;igraph</title>
<path fill="none" stroke="black" d="M1167.65,-368.21C1109.45,-356.4 1005.35,-335.27 935.98,-321.2"/>
<polygon fill="black" stroke="black" points="936.71,-317.78 926.21,-319.22 935.32,-324.64 936.71,-317.78"/>
</g>
<!-- mpfr&#45;&gt;gudhi -->
<g id="edge51" class="edge">
<title>mpfr&#45;&gt;gudhi</title>
<path fill="none" stroke="black" d="M1232.97,-361.46C1246.84,-351.66 1264.94,-338.86 1280.11,-328.14"/>
<polygon fill="black" stroke="black" points="1281.73,-331.28 1287.87,-322.65 1277.69,-325.56 1281.73,-331.28"/>
</g>
<!-- mpfr&#45;&gt;wildmeshing -->
<g id="edge52" class="edge">
<title>mpfr&#45;&gt;wildmeshing</title>
<path fill="none" stroke="black" d="M1248.79,-365.6C1286.23,-354.3 1344.03,-336.86 1386.84,-323.94"/>
<polygon fill="black" stroke="black" points="1387.65,-327.36 1396.21,-321.12 1385.62,-320.66 1387.65,-327.36"/>
</g>
<!-- mpfr&#45;&gt;ifcopenshell -->
<g id="edge53" class="edge">
<title>mpfr&#45;&gt;ifcopenshell</title>
<path fill="none" stroke="black" d="M1256.9,-369.94C1318.49,-360.32 1431.23,-342.2 1527,-324 1532.3,-322.99 1537.79,-321.91 1543.3,-320.8"/>
<polygon fill="black" stroke="black" points="1543.99,-324.23 1553.08,-318.79 1542.58,-317.37 1543.99,-324.23"/>
</g>
<!-- mpfr&#45;&gt;gnuradio -->
<g id="edge54" class="edge">
<title>mpfr&#45;&gt;gnuradio</title>
<path fill="none" stroke="black" d="M1260.68,-373.85C1347.65,-367.81 1532.89,-352.58 1687,-324 1691.33,-323.2 1695.79,-322.26 1700.26,-321.25"/>
<polygon fill="black" stroke="black" points="1700.91,-324.69 1709.82,-318.96 1699.28,-317.89 1700.91,-324.69"/>
</g>
<!-- mpfr&#45;&gt;scikit&#45;geometry -->
<g id="edge55" class="edge">
<title>mpfr&#45;&gt;scikit&#45;geometry</title>
<path fill="none" stroke="black" d="M1260.64,-374.08C1364.3,-367.68 1611.21,-350.8 1817,-324 1824.42,-323.03 1832.14,-321.91 1839.84,-320.7"/>
<polygon fill="black" stroke="black" points="1840.26,-324.18 1849.57,-319.13 1839.15,-317.27 1840.26,-324.18"/>
</g>
<!-- mpfr&#45;&gt;pygalmesh -->
<g id="edge56" class="edge">
<title>mpfr&#45;&gt;pygalmesh</title>
<path fill="none" stroke="black" d="M1261.96,-376.4C1389.28,-374.3 1731.3,-364.97 2013,-324 2018.56,-323.19 2024.31,-322.19 2030.05,-321.08"/>
<polygon fill="black" stroke="black" points="2030.42,-324.58 2039.52,-319.14 2029.02,-317.72 2030.42,-324.58"/>
</g>
<!-- mpfr&#45;&gt;compas_cgal -->
<g id="edge57" class="edge">
<title>mpfr&#45;&gt;compas_cgal</title>
<path fill="none" stroke="black" d="M1262.01,-376.74C1404.77,-375.44 1820.24,-367.87 2162,-324 2168.43,-323.17 2175.1,-322.14 2181.75,-320.99"/>
<polygon fill="black" stroke="black" points="2182.17,-324.47 2191.38,-319.23 2180.91,-317.58 2182.17,-324.47"/>
</g>
<!-- mpfr&#45;&gt;imp -->
<g id="edge59" class="edge">
<title>mpfr&#45;&gt;imp</title>
<path fill="none" stroke="black" d="M1261.96,-376.97C1452.39,-376.47 2121.81,-371.34 2329,-324 2331.15,-323.51 2333.33,-322.91 2335.51,-322.23"/>
<polygon fill="black" stroke="black" points="2336.58,-325.56 2344.78,-318.84 2334.18,-318.99 2336.58,-325.56"/>
</g>
<!-- mpfr&#45;&gt;gmpxxll -->
<g id="edge60" class="edge">
<title>mpfr&#45;&gt;gmpxxll</title>
<path fill="none" stroke="black" d="M1261.95,-376.32C1460.45,-373.41 2182.11,-360.49 2408,-324 2412.03,-323.35 2416.18,-322.52 2420.32,-321.58"/>
<polygon fill="black" stroke="black" points="2420.85,-325.06 2429.71,-319.25 2419.16,-318.26 2420.85,-325.06"/>
</g>
<!-- mpfr&#45;&gt;spam -->
<g id="edge61" class="edge">
<title>mpfr&#45;&gt;spam</title>
<path fill="none" stroke="black" d="M1262.04,-377.03C1473.21,-376.83 2279.03,-372.82 2528,-324 2530.66,-323.48 2533.37,-322.83 2536.07,-322.1"/>
<polygon fill="black" stroke="black" points="2537.11,-325.44 2545.62,-319.13 2535.03,-318.76 2537.11,-325.44"/>
</g>
<!-- mpfr&#45;&gt;pycolmap -->
<g id="edge62" class="edge">
<title>mpfr&#45;&gt;pycolmap</title>
<path fill="none" stroke="black" d="M1261.8,-376.5C1481.56,-374.14 2351.39,-362.48 2622,-324 2626.88,-323.31 2631.91,-322.41 2636.93,-321.39"/>
<polygon fill="black" stroke="black" points="2637.34,-324.88 2646.35,-319.31 2635.83,-318.04 2637.34,-324.88"/>
</g>
<!-- mpfr&#45;&gt;pygplates -->
<g id="edge63" class="edge">
<title>mpfr&#45;&gt;pygplates</title>
<path fill="none" stroke="black" d="M1261.93,-376.67C1494.75,-374.96 2459.21,-365.47 2758,-324 2762.95,-323.31 2768.05,-322.42 2773.14,-321.4"/>
<polygon fill="black" stroke="black" points="2773.69,-324.86 2782.72,-319.32 2772.21,-318.02 2773.69,-324.86"/>
</g>
</g>
</svg>
