<?xml version="1.0" encoding="UTF-8" standalone="no"?>
<!DOCTYPE svg PUBLIC "-//W3C//DTD SVG 1.1//EN"
 "http://www.w3.org/Graphics/SVG/1.1/DTD/svg11.dtd">
<!-- Generated by graphviz version 12.0.0 (20240803.0821)
 -->
<!-- Pages: 1 -->
<svg width="1903pt" height="404pt"
 viewBox="0.00 0.00 1903.15 404.00" xmlns="http://www.w3.org/2000/svg" xmlns:xlink="http://www.w3.org/1999/xlink">
<g id="graph0" class="graph" transform="scale(1 1) rotate(0) translate(4 400)">
<polygon fill="white" stroke="none" points="-4,4 -4,-400 1899.15,-400 1899.15,4 -4,4"/>
<!-- arb -->
<g id="node1" class="node">
<title>arb</title>
<g id="a_node1"><a xlink:href="https://github.com/conda-forge/arb-feedstock/pull/36" xlink:title="arb ❎">
<ellipse fill="#31688e" stroke="black" cx="403" cy="-234" rx="43.32" ry="18"/>
<text text-anchor="middle" x="403" y="-229.32" font-family="Times,serif" font-size="14.00" fill="white">arb ❎</text>
</a>
</g>
</g>
<!-- mppp -->
<g id="node2" class="node">
<title>mppp</title>
<g id="a_node2"><a xlink:href="https://github.com/conda-forge/mppp-feedstock/pull/60" xlink:title="mppp ❎">
<ellipse fill="#31688e" stroke="black" cx="340" cy="-162" rx="54.89" ry="18"/>
<text text-anchor="middle" x="340" y="-157.32" font-family="Times,serif" font-size="14.00" fill="white">mppp ❎</text>
</a>
</g>
</g>
<!-- arb&#45;&gt;mppp -->
<g id="edge1" class="edge">
<title>arb&#45;&gt;mppp</title>
<path fill="none" stroke="black" d="M388.39,-216.76C380.71,-208.23 371.12,-197.58 362.52,-188.02"/>
<polygon fill="black" stroke="black" points="365.27,-185.85 355.98,-180.76 360.07,-190.53 365.27,-185.85"/>
</g>
<!-- heyoka.py -->
<g id="node3" class="node">
<title>heyoka.py</title>
<g id="a_node3"><a xlink:href="https://github.com/conda-forge/heyoka.py-feedstock" xlink:title="heyoka py">
<ellipse fill="#35b779" stroke="black" cx="202" cy="-18" rx="61.73" ry="18"/>
<text text-anchor="middle" x="202" y="-13.32" font-family="Times,serif" font-size="14.00">heyoka py</text>
</a>
</g>
</g>
<!-- mppp&#45;&gt;heyoka.py -->
<g id="edge2" class="edge">
<title>mppp&#45;&gt;heyoka.py</title>
<path fill="none" stroke="black" d="M322.43,-144.52C311.51,-134.18 297.28,-120.48 285,-108 264.12,-86.77 241.07,-61.94 224.57,-43.91"/>
<polygon fill="black" stroke="black" points="227.38,-41.8 218.06,-36.77 222.21,-46.52 227.38,-41.8"/>
</g>
<!-- heyoka -->
<g id="node4" class="node">
<title>heyoka</title>
<g id="a_node4"><a xlink:href="https://github.com/conda-forge/heyoka-feedstock" xlink:title="heyoka">
<ellipse fill="#35b779" stroke="black" cx="340" cy="-90" rx="46.47" ry="18"/>
<text text-anchor="middle" x="340" y="-85.33" font-family="Times,serif" font-size="14.00">heyoka</text>
</a>
</g>
</g>
<!-- mppp&#45;&gt;heyoka -->
<g id="edge3" class="edge">
<title>mppp&#45;&gt;heyoka</title>
<path fill="none" stroke="black" d="M340,-143.7C340,-136.41 340,-127.73 340,-119.54"/>
<polygon fill="black" stroke="black" points="343.5,-119.62 340,-109.62 336.5,-119.62 343.5,-119.62"/>
</g>
<!-- heyoka&#45;&gt;heyoka.py -->
<g id="edge36" class="edge">
<title>heyoka&#45;&gt;heyoka.py</title>
<path fill="none" stroke="black" d="M312.74,-75.17C292.44,-64.87 264.42,-50.66 241.64,-39.11"/>
<polygon fill="black" stroke="black" points="243.45,-36.1 232.95,-34.7 240.28,-42.34 243.45,-36.1"/>
</g>
<!-- gmpy2 -->
<g id="node5" class="node">
<title>gmpy2</title>
<g id="a_node5"><a xlink:href="https://github.com/conda-forge/gmpy2-feedstock/pull/41" xlink:title="gmpy2 ❎">
<ellipse fill="#31688e" stroke="black" cx="223" cy="-306" rx="60.68" ry="18"/>
<text text-anchor="middle" x="223" y="-301.32" font-family="Times,serif" font-size="14.00" fill="white">gmpy2 ❎</text>
</a>
</g>
</g>
<!-- gmpy2&#45;&gt;heyoka.py -->
<g id="edge5" class="edge">
<title>gmpy2&#45;&gt;heyoka.py</title>
<path fill="none" stroke="black" d="M169.55,-297.12C142.37,-290.11 111.64,-276.9 95,-252 47.95,-181.59 129.92,-87.16 175.13,-43.29"/>
<polygon fill="black" stroke="black" points="177.44,-45.92 182.27,-36.5 172.62,-40.85 177.44,-45.92"/>
</g>
<!-- python&#45;symengine -->
<g id="node6" class="node">
<title>python&#45;symengine</title>
<g id="a_node6"><a xlink:href="https://github.com/conda-forge/python-symengine-feedstock/pull/53" xlink:title="python symengine ❎">
<ellipse fill="#31688e" stroke="black" cx="223" cy="-234" rx="118.55" ry="18"/>
<text text-anchor="middle" x="223" y="-229.32" font-family="Times,serif" font-size="14.00" fill="white">python symengine ❎</text>
</a>
</g>
</g>
<!-- gmpy2&#45;&gt;python&#45;symengine -->
<g id="edge4" class="edge">
<title>gmpy2&#45;&gt;python&#45;symengine</title>
<path fill="none" stroke="black" d="M223,-287.7C223,-280.41 223,-271.73 223,-263.54"/>
<polygon fill="black" stroke="black" points="226.5,-263.62 223,-253.62 219.5,-263.62 226.5,-263.62"/>
</g>
<!-- igraph -->
<g id="node7" class="node">
<title>igraph</title>
<g id="a_node7"><a xlink:href="https://github.com/conda-forge/igraph-feedstock/pull/73" xlink:title="igraph ❎">
<ellipse fill="#31688e" stroke="black" cx="1015" cy="-306" rx="59.1" ry="18"/>
<text text-anchor="middle" x="1015" y="-301.32" font-family="Times,serif" font-size="14.00" fill="white">igraph ❎</text>
</a>
</g>
</g>
<!-- libflint -->
<g id="node8" class="node">
<title>libflint</title>
<g id="a_node8"><a xlink:href="https://github.com/conda-forge/libflint-feedstock/pull/33" xlink:title="libflint ❎">
<ellipse fill="#31688e" stroke="black" cx="586" cy="-306" rx="59.1" ry="18"/>
<text text-anchor="middle" x="586" y="-301.32" font-family="Times,serif" font-size="14.00" fill="white">libflint ❎</text>
</a>
</g>
</g>
<!-- libflint&#45;&gt;arb -->
<g id="edge6" class="edge">
<title>libflint&#45;&gt;arb</title>
<path fill="none" stroke="black" d="M550.28,-291.34C520.04,-279.77 476.66,-263.17 444.81,-250.99"/>
<polygon fill="black" stroke="black" points="446.06,-247.73 435.47,-247.42 443.56,-254.26 446.06,-247.73"/>
</g>
<!-- libflint&#45;&gt;mppp -->
<g id="edge7" class="edge">
<title>libflint&#45;&gt;mppp</title>
<path fill="none" stroke="black" d="M555.97,-290.25C537.18,-280.45 512.85,-266.72 493,-252 474.31,-238.14 474.26,-229.04 455,-216 433.82,-201.66 408.14,-189.41 386.42,-180.31"/>
<polygon fill="black" stroke="black" points="387.78,-177.08 377.2,-176.54 385.13,-183.56 387.78,-177.08"/>
</g>
<!-- libflint&#45;&gt;python&#45;symengine -->
<g id="edge8" class="edge">
<title>libflint&#45;&gt;python&#45;symengine</title>
<path fill="none" stroke="black" d="M537.04,-295.56C477.71,-284.12 376.82,-264.66 305.43,-250.9"/>
<polygon fill="black" stroke="black" points="306.2,-247.48 295.72,-249.02 304.88,-254.35 306.2,-247.48"/>
</g>
<!-- python&#45;flint -->
<g id="node9" class="node">
<title>python&#45;flint</title>
<g id="a_node9"><a xlink:href="https://github.com/conda-forge/python-flint-feedstock/pull/40" xlink:title="python flint ❎">
<ellipse fill="#31688e" stroke="black" cx="586" cy="-234" rx="84.35" ry="18"/>
<text text-anchor="middle" x="586" y="-229.32" font-family="Times,serif" font-size="14.00" fill="white">python flint ❎</text>
</a>
</g>
</g>
<!-- libflint&#45;&gt;python&#45;flint -->
<g id="edge9" class="edge">
<title>libflint&#45;&gt;python&#45;flint</title>
<path fill="none" stroke="black" d="M586,-287.7C586,-280.41 586,-271.73 586,-263.54"/>
<polygon fill="black" stroke="black" points="589.5,-263.62 586,-253.62 582.5,-263.62 589.5,-263.62"/>
</g>
<!-- normaliz -->
<g id="node10" class="node">
<title>normaliz</title>
<g id="a_node10"><a xlink:href="https://github.com/conda-forge/normaliz-feedstock" xlink:title="normaliz">
<ellipse fill="#ff8c00" stroke="black" cx="743" cy="-234" rx="54.89" ry="18"/>
<text text-anchor="middle" x="743" y="-229.32" font-family="Times,serif" font-size="14.00">normaliz</text>
</a>
</g>
</g>
<!-- libflint&#45;&gt;normaliz -->
<g id="edge10" class="edge">
<title>libflint&#45;&gt;normaliz</title>
<path fill="none" stroke="black" d="M618.15,-290.67C642.12,-279.98 675.07,-265.29 701.1,-253.68"/>
<polygon fill="black" stroke="black" points="702.34,-256.96 710.05,-249.69 699.49,-250.57 702.34,-256.96"/>
</g>
<!-- antic -->
<g id="node11" class="node">
<title>antic</title>
<g id="a_node11"><a xlink:href="https://github.com/conda-forge/antic-feedstock" xlink:title="antic">
<ellipse fill="#35b779" stroke="black" cx="852" cy="-234" rx="35.95" ry="18"/>
<text text-anchor="middle" x="852" y="-229.32" font-family="Times,serif" font-size="14.00">antic</text>
</a>
</g>
</g>
<!-- libflint&#45;&gt;antic -->
<g id="edge11" class="edge">
<title>libflint&#45;&gt;antic</title>
<path fill="none" stroke="black" d="M634.32,-295.25C679.41,-285.71 748.36,-270.03 807,-252 809.25,-251.31 811.54,-250.57 813.85,-249.79"/>
<polygon fill="black" stroke="black" points="814.9,-253.13 823.16,-246.49 812.56,-246.53 814.9,-253.13"/>
</g>
<!-- mpc -->
<g id="node12" class="node">
<title>mpc</title>
<g id="a_node12"><a xlink:href="https://github.com/conda-forge/mpc-feedstock/pull/27" xlink:title="mpc ❎">
<ellipse fill="#31688e" stroke="black" cx="1133" cy="-378" rx="47.53" ry="18"/>
<text text-anchor="middle" x="1133" y="-373.32" font-family="Times,serif" font-size="14.00" fill="white">mpc ❎</text>
</a>
</g>
</g>
<!-- mpc&#45;&gt;arb -->
<g id="edge12" class="edge">
<title>mpc&#45;&gt;arb</title>
<path fill="none" stroke="black" d="M1085.39,-376.35C959.65,-374.1 621.32,-364.35 518,-324 481.67,-309.81 447.31,-280.34 425.77,-259.19"/>
<polygon fill="black" stroke="black" points="428.49,-256.97 418.96,-252.34 423.53,-261.9 428.49,-256.97"/>
</g>
<!-- mpc&#45;&gt;mppp -->
<g id="edge13" class="edge">
<title>mpc&#45;&gt;mppp</title>
<path fill="none" stroke="black" d="M1085.26,-376.68C900.21,-375.16 236.41,-366.72 153,-324 104.51,-299.16 60.79,-258.4 95,-216 117.27,-188.4 210.47,-174.46 275.27,-167.98"/>
<polygon fill="black" stroke="black" points="275.49,-171.47 285.1,-167.03 274.82,-164.5 275.49,-171.47"/>
</g>
<!-- mpc&#45;&gt;heyoka.py -->
<g id="edge16" class="edge">
<title>mpc&#45;&gt;heyoka.py</title>
<path fill="none" stroke="black" d="M1085.18,-376.41C894.15,-373.78 191.74,-361.63 100,-324 44.95,-301.42 0,-294.5 0,-235 0,-235 0,-235 0,-161 0,-90.18 84.14,-51.62 143.81,-33.19"/>
<polygon fill="black" stroke="black" points="144.6,-36.6 153.19,-30.41 142.61,-29.89 144.6,-36.6"/>
</g>
<!-- mpc&#45;&gt;heyoka -->
<g id="edge30" class="edge">
<title>mpc&#45;&gt;heyoka</title>
<path fill="none" stroke="black" d="M1086.26,-374.42C1045.24,-369.88 986.17,-357.49 947,-324 906.8,-289.63 938.16,-249.22 897,-216 819.5,-153.46 520.39,-112.07 395.39,-97.17"/>
<polygon fill="black" stroke="black" points="396.05,-93.73 385.71,-96.03 395.23,-100.68 396.05,-93.73"/>
</g>
<!-- mpc&#45;&gt;gmpy2 -->
<g id="edge14" class="edge">
<title>mpc&#45;&gt;gmpy2</title>
<path fill="none" stroke="black" d="M1085.72,-375.23C962.18,-370.29 619.66,-354.72 336,-324 319.73,-322.24 302.22,-319.85 285.95,-317.42"/>
<polygon fill="black" stroke="black" points="286.83,-314.01 276.42,-315.96 285.77,-320.93 286.83,-314.01"/>
</g>
<!-- mpc&#45;&gt;python&#45;symengine -->
<g id="edge15" class="edge">
<title>mpc&#45;&gt;python&#45;symengine</title>
<path fill="none" stroke="black" d="M1085.63,-375.04C952.54,-369.26 577.17,-350.98 457,-324 388.74,-308.67 313.81,-277.44 267.58,-256.35"/>
<polygon fill="black" stroke="black" points="269.24,-253.26 258.69,-252.26 266.31,-259.62 269.24,-253.26"/>
</g>
<!-- mpc&#45;&gt;igraph -->
<g id="edge17" class="edge">
<title>mpc&#45;&gt;igraph</title>
<path fill="none" stroke="black" d="M1108.26,-362.33C1091.61,-352.45 1069.39,-339.27 1050.82,-328.25"/>
<polygon fill="black" stroke="black" points="1052.62,-325.25 1042.23,-323.15 1049.05,-331.27 1052.62,-325.25"/>
</g>
<!-- mpc&#45;&gt;libflint -->
<g id="edge18" class="edge">
<title>mpc&#45;&gt;libflint</title>
<path fill="none" stroke="black" d="M1087.12,-372.63C1005.03,-364.6 827.72,-346.25 679,-324 668.28,-322.4 656.9,-320.49 645.91,-318.54"/>
<polygon fill="black" stroke="black" points="646.6,-315.11 636.14,-316.77 645.36,-322 646.6,-315.11"/>
</g>
<!-- mpc&#45;&gt;python&#45;flint -->
<g id="edge19" class="edge">
<title>mpc&#45;&gt;python&#45;flint</title>
<path fill="none" stroke="black" d="M1087.06,-372.93C1022.8,-366.5 902.87,-351.75 804,-324 741.1,-306.34 671.77,-276.04 628.55,-255.77"/>
<polygon fill="black" stroke="black" points="630.32,-252.73 619.78,-251.62 627.33,-259.06 630.32,-252.73"/>
</g>
<!-- mpc&#45;&gt;normaliz -->
<g id="edge20" class="edge">
<title>mpc&#45;&gt;normaliz</title>
<path fill="none" stroke="black" d="M1086.43,-373.53C1032.29,-368.18 941.13,-355.06 869,-324 831.26,-307.75 793.51,-279.02 769.31,-258.6"/>
<polygon fill="black" stroke="black" points="771.74,-256.07 761.87,-252.21 767.18,-261.38 771.74,-256.07"/>
</g>
<!-- mpc&#45;&gt;antic -->
<g id="edge21" class="edge">
<title>mpc&#45;&gt;antic</title>
<path fill="none" stroke="black" d="M1085.42,-377.02C1035.15,-374.74 955.87,-364.3 902,-324 881.74,-308.84 868.52,-282.91 860.8,-262.94"/>
<polygon fill="black" stroke="black" points="864.16,-261.93 857.48,-253.7 857.57,-264.29 864.16,-261.93"/>
</g>
<!-- python&#45;igraph -->
<g id="node13" class="node">
<title>python&#45;igraph</title>
<g id="a_node13"><a xlink:href="https://github.com/conda-forge/python-igraph-feedstock/pull/90" xlink:title="python igraph ✓">
<ellipse fill="#31688e" stroke="black" cx="1034" cy="-234" rx="89.61" ry="18"/>
<text text-anchor="middle" x="1034" y="-229.32" font-family="Times,serif" font-size="14.00" fill="white">python igraph ✓</text>
</a>
</g>
</g>
<!-- mpc&#45;&gt;python&#45;igraph -->
<g id="edge22" class="edge">
<title>mpc&#45;&gt;python&#45;igraph</title>
<path fill="none" stroke="black" d="M1124.89,-359.88C1115.81,-341.42 1100.1,-311.5 1083,-288 1075.92,-278.27 1067.26,-268.39 1059.2,-259.83"/>
<polygon fill="black" stroke="black" points="1061.94,-257.63 1052.47,-252.86 1056.9,-262.49 1061.94,-257.63"/>
</g>
<!-- gudhi -->
<g id="node14" class="node">
<title>gudhi</title>
<g id="a_node14"><a xlink:href="https://github.com/conda-forge/gudhi-feedstock/pull/62" xlink:title="gudhi ✓">
<ellipse fill="#31688e" stroke="black" cx="1114" cy="-162" rx="47.53" ry="18"/>
<text text-anchor="middle" x="1114" y="-157.32" font-family="Times,serif" font-size="14.00" fill="white">gudhi ✓</text>
</a>
</g>
</g>
<!-- mpc&#45;&gt;gudhi -->
<g id="edge23" class="edge">
<title>mpc&#45;&gt;gudhi</title>
<path fill="none" stroke="black" d="M1134.9,-359.91C1137.78,-330.33 1142,-267.77 1133,-216 1131.52,-207.49 1128.8,-198.54 1125.87,-190.47"/>
<polygon fill="black" stroke="black" points="1129.14,-189.23 1122.25,-181.19 1122.62,-191.78 1129.14,-189.23"/>
</g>
<!-- wildmeshing -->
<g id="node15" class="node">
<title>wildmeshing</title>
<g id="a_node15"><a xlink:href="https://github.com/conda-forge/wildmeshing-feedstock/pull/24" xlink:title="wildmeshing ❎">
<ellipse fill="#31688e" stroke="black" cx="1110" cy="-90" rx="90.14" ry="18"/>
<text text-anchor="middle" x="1110" y="-85.33" font-family="Times,serif" font-size="14.00" fill="white">wildmeshing ❎</text>
</a>
</g>
</g>
<!-- mpc&#45;&gt;wildmeshing -->
<g id="edge24" class="edge">
<title>mpc&#45;&gt;wildmeshing</title>
<path fill="none" stroke="black" d="M1142.09,-360.03C1162.04,-320.35 1205.26,-219.15 1171,-144 1165.74,-132.47 1156.6,-122.47 1146.97,-114.37"/>
<polygon fill="black" stroke="black" points="1149.32,-111.77 1139.28,-108.4 1145.03,-117.29 1149.32,-111.77"/>
</g>
<!-- ifcopenshell -->
<g id="node16" class="node">
<title>ifcopenshell</title>
<g id="a_node16"><a xlink:href="https://github.com/conda-forge/ifcopenshell-feedstock" xlink:title="ifcopenshell">
<ellipse fill="#000000" stroke="black" cx="1228" cy="-18" rx="71.2" ry="18"/>
<text text-anchor="middle" x="1228" y="-13.32" font-family="Times,serif" font-size="14.00" fill="white">ifcopenshell</text>
</a>
</g>
</g>
<!-- mpc&#45;&gt;ifcopenshell -->
<g id="edge25" class="edge">
<title>mpc&#45;&gt;ifcopenshell</title>
<path fill="none" stroke="black" d="M1152.68,-361.4C1180.51,-337.44 1228,-288.69 1228,-235 1228,-235 1228,-235 1228,-161 1228,-121.74 1228,-76.38 1228,-47.69"/>
<polygon fill="black" stroke="black" points="1231.5,-48 1228,-38 1224.5,-48 1231.5,-48"/>
</g>
<!-- gnuradio -->
<g id="node17" class="node">
<title>gnuradio</title>
<g id="a_node17"><a xlink:href="https://github.com/conda-forge/gnuradio-feedstock" xlink:title="gnuradio">
<ellipse fill="#000000" stroke="black" cx="1312" cy="-306" rx="55.94" ry="18"/>
<text text-anchor="middle" x="1312" y="-301.32" font-family="Times,serif" font-size="14.00" fill="white">gnuradio</text>
</a>
</g>
</g>
<!-- mpc&#45;&gt;gnuradio -->
<g id="edge26" class="edge">
<title>mpc&#45;&gt;gnuradio</title>
<path fill="none" stroke="black" d="M1165,-364.49C1193.46,-353.36 1235.37,-336.97 1267.17,-324.53"/>
<polygon fill="black" stroke="black" points="1268.08,-327.93 1276.12,-321.03 1265.53,-321.41 1268.08,-327.93"/>
</g>
<!-- scikit&#45;geometry -->
<g id="node18" class="node">
<title>scikit&#45;geometry</title>
<g id="a_node18"><a xlink:href="https://github.com/conda-forge/scikit-geometry-feedstock" xlink:title="scikit geometry">
<ellipse fill="#35b779" stroke="black" cx="1345" cy="-234" rx="89.09" ry="18"/>
<text text-anchor="middle" x="1345" y="-229.32" font-family="Times,serif" font-size="14.00">scikit geometry</text>
</a>
</g>
</g>
<!-- mpc&#45;&gt;scikit&#45;geometry -->
<g id="edge27" class="edge">
<title>mpc&#45;&gt;scikit&#45;geometry</title>
<path fill="none" stroke="black" d="M1179.6,-373.67C1243.37,-368.04 1352.69,-354.16 1377,-324 1391.72,-305.74 1380.05,-280.14 1366.85,-261.08"/>
<polygon fill="black" stroke="black" points="1369.82,-259.21 1361.06,-253.27 1364.2,-263.38 1369.82,-259.21"/>
</g>
<!-- pygalmesh -->
<g id="node19" class="node">
<title>pygalmesh</title>
<g id="a_node19"><a xlink:href="https://github.com/conda-forge/pygalmesh-feedstock" xlink:title="pygalmesh">
<ellipse fill="#35b779" stroke="black" cx="1407" cy="-162" rx="65.41" ry="18"/>
<text text-anchor="middle" x="1407" y="-157.32" font-family="Times,serif" font-size="14.00">pygalmesh</text>
</a>
</g>
</g>
<!-- mpc&#45;&gt;pygalmesh -->
<g id="edge28" class="edge">
<title>mpc&#45;&gt;pygalmesh</title>
<path fill="none" stroke="black" d="M1180.89,-377.78C1236.58,-376.45 1329.12,-367.14 1394,-324 1437.89,-294.82 1458.49,-266.38 1443,-216 1440.04,-206.37 1434.67,-196.92 1428.96,-188.73"/>
<polygon fill="black" stroke="black" points="1431.94,-186.87 1423.14,-180.97 1426.34,-191.07 1431.94,-186.87"/>
</g>
<!-- compas_cgal -->
<g id="node20" class="node">
<title>compas_cgal</title>
<g id="a_node20"><a xlink:href="https://github.com/conda-forge/compas_cgal-feedstock" xlink:title="compas_cgal">
<ellipse fill="#35b779" stroke="black" cx="1436" cy="-90" rx="74.36" ry="18"/>
<text text-anchor="middle" x="1436" y="-85.33" font-family="Times,serif" font-size="14.00">compas_cgal</text>
</a>
</g>
</g>
<!-- mpc&#45;&gt;compas_cgal -->
<g id="edge29" class="edge">
<title>mpc&#45;&gt;compas_cgal</title>
<path fill="none" stroke="black" d="M1179.59,-373.87C1252.53,-368.11 1389.26,-353.62 1427,-324 1492.7,-272.43 1509.79,-222.4 1481,-144 1477.21,-133.68 1470.42,-124 1463.25,-115.8"/>
<polygon fill="black" stroke="black" points="1465.89,-113.5 1456.48,-108.64 1460.8,-118.31 1465.89,-113.5"/>
</g>
<!-- imp -->
<g id="node21" class="node">
<title>imp</title>
<g id="a_node21"><a xlink:href="https://github.com/conda-forge/imp-feedstock" xlink:title="imp">
<ellipse fill="#35b779" stroke="black" cx="1538" cy="-18" rx="30.16" ry="18"/>
<text text-anchor="middle" x="1538" y="-13.32" font-family="Times,serif" font-size="14.00">imp</text>
</a>
</g>
</g>
<!-- mpc&#45;&gt;imp -->
<g id="edge31" class="edge">
<title>mpc&#45;&gt;imp</title>
<path fill="none" stroke="black" d="M1179.17,-373.32C1257.28,-366.47 1411.65,-350.05 1459,-324 1505.34,-298.5 1538,-287.89 1538,-235 1538,-235 1538,-235 1538,-161 1538,-121.74 1538,-76.38 1538,-47.69"/>
<polygon fill="black" stroke="black" points="1541.5,-48 1538,-38 1534.5,-48 1541.5,-48"/>
</g>
<!-- gmpxxll -->
<g id="node22" class="node">
<title>gmpxxll</title>
<g id="a_node22"><a xlink:href="https://github.com/conda-forge/gmpxxll-feedstock" xlink:title="gmpxxll">
<ellipse fill="#35b779" stroke="black" cx="1617" cy="-306" rx="51.21" ry="18"/>
<text text-anchor="middle" x="1617" y="-301.32" font-family="Times,serif" font-size="14.00">gmpxxll</text>
</a>
</g>
</g>
<!-- mpc&#45;&gt;gmpxxll -->
<g id="edge32" class="edge">
<title>mpc&#45;&gt;gmpxxll</title>
<path fill="none" stroke="black" d="M1179.19,-373.14C1256.72,-366.21 1417.74,-349.94 1552,-324 1556.9,-323.05 1561.98,-321.95 1567.04,-320.76"/>
<polygon fill="black" stroke="black" points="1567.65,-324.22 1576.53,-318.44 1565.99,-317.42 1567.65,-324.22"/>
</g>
<!-- spam -->
<g id="node23" class="node">
<title>spam</title>
<g id="a_node23"><a xlink:href="https://github.com/conda-forge/spam-feedstock" xlink:title="spam">
<ellipse fill="#35b779" stroke="black" cx="1682" cy="-234" rx="38.06" ry="18"/>
<text text-anchor="middle" x="1682" y="-229.32" font-family="Times,serif" font-size="14.00">spam</text>
</a>
</g>
</g>
<!-- mpc&#45;&gt;spam -->
<g id="edge33" class="edge">
<title>mpc&#45;&gt;spam</title>
<path fill="none" stroke="black" d="M1180.51,-375.84C1306.68,-372.28 1642.91,-359.51 1677,-324 1692.07,-308.3 1692.09,-283 1689.05,-263.38"/>
<polygon fill="black" stroke="black" points="1692.54,-262.96 1687.22,-253.8 1685.66,-264.28 1692.54,-262.96"/>
</g>
<!-- pycolmap -->
<g id="node24" class="node">
<title>pycolmap</title>
<g id="a_node24"><a xlink:href="https://github.com/conda-forge/pycolmap-feedstock" xlink:title="pycolmap">
<ellipse fill="#35b779" stroke="black" cx="1748" cy="-162" rx="59.1" ry="18"/>
<text text-anchor="middle" x="1748" y="-157.32" font-family="Times,serif" font-size="14.00">pycolmap</text>
</a>
</g>
</g>
<!-- mpc&#45;&gt;pycolmap -->
<g id="edge34" class="edge">
<title>mpc&#45;&gt;pycolmap</title>
<path fill="none" stroke="black" d="M1180.21,-375.27C1308.27,-370.22 1655.42,-353.88 1697,-324 1738.89,-293.89 1747.29,-229.11 1748.45,-191.55"/>
<polygon fill="black" stroke="black" points="1751.94,-191.94 1748.58,-181.9 1744.94,-191.85 1751.94,-191.94"/>
</g>
<!-- pygplates -->
<g id="node25" class="node">
<title>pygplates</title>
<g id="a_node25"><a xlink:href="https://github.com/conda-forge/pygplates-feedstock" xlink:title="pygplates">
<ellipse fill="#35b779" stroke="black" cx="1835" cy="-90" rx="60.15" ry="18"/>
<text text-anchor="middle" x="1835" y="-85.33" font-family="Times,serif" font-size="14.00">pygplates</text>
</a>
</g>
</g>
<!-- mpc&#45;&gt;pygplates -->
<g id="edge35" class="edge">
<title>mpc&#45;&gt;pygplates</title>
<path fill="none" stroke="black" d="M1180.41,-375.16C1312.65,-369.69 1678.93,-352.13 1725,-324 1797.98,-279.43 1823.31,-171.49 1831.45,-119.68"/>
<polygon fill="black" stroke="black" points="1834.9,-120.26 1832.88,-109.86 1827.98,-119.26 1834.9,-120.26"/>
</g>
</g>
</svg>
