<?xml version="1.0" encoding="UTF-8" standalone="no"?>
<!DOCTYPE svg PUBLIC "-//W3C//DTD SVG 1.1//EN"
 "http://www.w3.org/Graphics/SVG/1.1/DTD/svg11.dtd">
<!-- Generated by graphviz version 11.0.0 (20240519.1550)
 -->
<!-- Pages: 1 -->
<svg width="2692pt" height="880pt"
 viewBox="0.00 0.00 2692.26 880.00" xmlns="http://www.w3.org/2000/svg" xmlns:xlink="http://www.w3.org/1999/xlink">
<g id="graph0" class="graph" transform="scale(1 1) rotate(0) translate(4 876)">
<polygon fill="white" stroke="none" points="-4,4 -4,-876 2688.26,-876 2688.26,4 -4,4"/>
<!-- configurable&#45;http&#45;proxy -->
<g id="node1" class="node">
<title>configurable&#45;http&#45;proxy</title>
<g id="a_node1"><a xlink:href="https://github.com/conda-forge/configurable-http-proxy-feedstock/pull/65" xlink:title="configurable http proxy ✓">
<ellipse fill="#31688e" stroke="black" cx="2287.88" cy="-854" rx="136.97" ry="18"/>
<text text-anchor="middle" x="2287.88" y="-849.33" font-family="Times,serif" font-size="14.00" fill="white">configurable http proxy ✓</text>
</a>
</g>
</g>
<!-- code&#45;server -->
<g id="node2" class="node">
<title>code&#45;server</title>
<g id="a_node2"><a xlink:href="https://github.com/conda-forge/code-server-feedstock" xlink:title="code server">
<ellipse fill="#35b779" stroke="black" cx="2287.88" cy="-782" rx="69.62" ry="18"/>
<text text-anchor="middle" x="2287.88" y="-777.33" font-family="Times,serif" font-size="14.00">code server</text>
</a>
</g>
</g>
<!-- configurable&#45;http&#45;proxy&#45;&gt;code&#45;server -->
<!-- plotly&#45;orca -->
<g id="node7" class="node">
<title>plotly&#45;orca</title>
<g id="a_node7"><a xlink:href="https://github.com/conda-forge/plotly-orca-feedstock" xlink:title="plotly orca">
<ellipse fill="#35b779" stroke="black" cx="2287.88" cy="-710" rx="64.36" ry="18"/>
<text text-anchor="middle" x="2287.88" y="-705.33" font-family="Times,serif" font-size="14.00">plotly orca</text>
</a>
</g>
</g>
<!-- code&#45;server&#45;&gt;plotly&#45;orca -->
<!-- svg2png -->
<g id="node3" class="node">
<title>svg2png</title>
<g id="a_node3"><a xlink:href="https://github.com/conda-forge/svg2png-feedstock" xlink:title="svg2png">
<ellipse fill="#fde725" stroke="black" cx="2088.88" cy="-494" rx="53.84" ry="18"/>
<text text-anchor="middle" x="2088.88" y="-489.32" font-family="Times,serif" font-size="14.00">svg2png</text>
</a>
</g>
</g>
<!-- jsdom -->
<g id="node4" class="node">
<title>jsdom</title>
<g id="a_node4"><a xlink:href="https://github.com/conda-forge/jsdom-feedstock" xlink:title="jsdom">
<ellipse fill="#fde725" stroke="black" cx="1975.88" cy="-494" rx="41.21" ry="18"/>
<text text-anchor="middle" x="1975.88" y="-489.32" font-family="Times,serif" font-size="14.00">jsdom</text>
</a>
</g>
</g>
<!-- vega&#45;cli -->
<g id="node5" class="node">
<title>vega&#45;cli</title>
<g id="a_node5"><a xlink:href="https://github.com/conda-forge/vega-cli-feedstock" xlink:title="vega cli">
<ellipse fill="#35b779" stroke="black" cx="2287.88" cy="-90" rx="49.63" ry="18"/>
<text text-anchor="middle" x="2287.88" y="-85.33" font-family="Times,serif" font-size="14.00">vega cli</text>
</a>
</g>
</g>
<!-- vega&#45;lite&#45;cli -->
<g id="node6" class="node">
<title>vega&#45;lite&#45;cli</title>
<g id="a_node6"><a xlink:href="https://github.com/conda-forge/vega-lite-cli-feedstock" xlink:title="vega lite cli">
<ellipse fill="#fde725" stroke="black" cx="2287.88" cy="-18" rx="69.1" ry="18"/>
<text text-anchor="middle" x="2287.88" y="-13.32" font-family="Times,serif" font-size="14.00">vega lite cli</text>
</a>
</g>
</g>
<!-- vega&#45;cli&#45;&gt;vega&#45;lite&#45;cli -->
<g id="edge2" class="edge">
<title>vega&#45;cli&#45;&gt;vega&#45;lite&#45;cli</title>
<path fill="none" stroke="black" d="M2287.88,-71.7C2287.88,-64.41 2287.88,-55.73 2287.88,-47.54"/>
<polygon fill="black" stroke="black" points="2291.38,-47.62 2287.88,-37.62 2284.38,-47.62 2291.38,-47.62"/>
</g>
<!-- emscripten -->
<g id="node8" class="node">
<title>emscripten</title>
<g id="a_node8"><a xlink:href="https://github.com/conda-forge/emscripten-feedstock" xlink:title="emscripten">
<ellipse fill="#35b779" stroke="black" cx="2287.88" cy="-638" rx="67.52" ry="18"/>
<text text-anchor="middle" x="2287.88" y="-633.33" font-family="Times,serif" font-size="14.00">emscripten</text>
</a>
</g>
</g>
<!-- plotly&#45;orca&#45;&gt;emscripten -->
<!-- ray&#45;packages -->
<g id="node13" class="node">
<title>ray&#45;packages</title>
<g id="a_node13"><a xlink:href="https://github.com/conda-forge/ray-packages-feedstock/pull/168" xlink:title="ray packages ✓">
<ellipse fill="#31688e" stroke="black" cx="2287.88" cy="-566" rx="84.88" ry="18"/>
<text text-anchor="middle" x="2287.88" y="-561.33" font-family="Times,serif" font-size="14.00" fill="white">ray packages ✓</text>
</a>
</g>
</g>
<!-- emscripten&#45;&gt;ray&#45;packages -->
<!-- jupyterlab_templates -->
<g id="node9" class="node">
<title>jupyterlab_templates</title>
<g id="a_node9"><a xlink:href="https://github.com/conda-forge/jupyterlab_templates-feedstock" xlink:title="jupyterlab_templates">
<ellipse fill="#fde725" stroke="black" cx="239.88" cy="-422" rx="117.5" ry="18"/>
<text text-anchor="middle" x="239.88" y="-417.32" font-family="Times,serif" font-size="14.00">jupyterlab_templates</text>
</a>
</g>
</g>
<!-- perspective -->
<g id="node10" class="node">
<title>perspective</title>
<g id="a_node10"><a xlink:href="https://github.com/conda-forge/perspective-feedstock" xlink:title="perspective">
<ellipse fill="#35b779" stroke="black" cx="440.88" cy="-494" rx="69.62" ry="18"/>
<text text-anchor="middle" x="440.88" y="-489.32" font-family="Times,serif" font-size="14.00">perspective</text>
</a>
</g>
</g>
<!-- perspective_parquet -->
<g id="node11" class="node">
<title>perspective_parquet</title>
<g id="a_node11"><a xlink:href="https://github.com/conda-forge/perspective_parquet-feedstock" xlink:title="perspective_parquet">
<ellipse fill="#fde725" stroke="black" cx="488.88" cy="-422" rx="113.82" ry="18"/>
<text text-anchor="middle" x="488.88" y="-417.32" font-family="Times,serif" font-size="14.00">perspective_parquet</text>
</a>
</g>
</g>
<!-- perspective&#45;&gt;perspective_parquet -->
<g id="edge5" class="edge">
<title>perspective&#45;&gt;perspective_parquet</title>
<path fill="none" stroke="black" d="M452.49,-476.05C457.96,-468.09 464.59,-458.41 470.7,-449.51"/>
<polygon fill="black" stroke="black" points="473.4,-451.75 476.17,-441.52 467.63,-447.79 473.4,-451.75"/>
</g>
<!-- doccano -->
<g id="node12" class="node">
<title>doccano</title>
<g id="a_node12"><a xlink:href="https://github.com/conda-forge/doccano-feedstock" xlink:title="doccano">
<ellipse fill="#fde725" stroke="black" cx="1864.88" cy="-494" rx="51.74" ry="18"/>
<text text-anchor="middle" x="1864.88" y="-489.32" font-family="Times,serif" font-size="14.00">doccano</text>
</a>
</g>
</g>
<!-- vsce -->
<g id="node14" class="node">
<title>vsce</title>
<g id="a_node14"><a xlink:href="https://github.com/conda-forge/vsce-feedstock/pull/64" xlink:title="vsce ✓">
<ellipse fill="#31688e" stroke="black" cx="2287.88" cy="-494" rx="41.21" ry="18"/>
<text text-anchor="middle" x="2287.88" y="-489.32" font-family="Times,serif" font-size="14.00" fill="white">vsce ✓</text>
</a>
</g>
</g>
<!-- ray&#45;packages&#45;&gt;vsce -->
<!-- gtop -->
<g id="node16" class="node">
<title>gtop</title>
<g id="a_node16"><a xlink:href="https://github.com/conda-forge/gtop-feedstock" xlink:title="gtop">
<ellipse fill="#35b779" stroke="black" cx="2287.88" cy="-422" rx="33.85" ry="18"/>
<text text-anchor="middle" x="2287.88" y="-417.32" font-family="Times,serif" font-size="14.00">gtop</text>
</a>
</g>
</g>
<!-- vsce&#45;&gt;gtop -->
<!-- gulp&#45;cli -->
<g id="node15" class="node">
<title>gulp&#45;cli</title>
<g id="a_node15"><a xlink:href="https://github.com/conda-forge/gulp-cli-feedstock" xlink:title="gulp cli">
<ellipse fill="#fde725" stroke="black" cx="1746.88" cy="-494" rx="48.05" ry="18"/>
<text text-anchor="middle" x="1746.88" y="-489.32" font-family="Times,serif" font-size="14.00">gulp cli</text>
</a>
</g>
</g>
<!-- openvscode&#45;server -->
<g id="node20" class="node">
<title>openvscode&#45;server</title>
<g id="a_node20"><a xlink:href="https://github.com/conda-forge/openvscode-server-feedstock" xlink:title="openvscode server">
<ellipse fill="#35b779" stroke="black" cx="2287.88" cy="-350" rx="104.87" ry="18"/>
<text text-anchor="middle" x="2287.88" y="-345.32" font-family="Times,serif" font-size="14.00">openvscode server</text>
</a>
</g>
</g>
<!-- gtop&#45;&gt;openvscode&#45;server -->
<!-- node&#45;gyp -->
<g id="node17" class="node">
<title>node&#45;gyp</title>
<g id="a_node17"><a xlink:href="https://github.com/conda-forge/node-gyp-feedstock" xlink:title="node gyp">
<ellipse fill="#fde725" stroke="black" cx="1623.88" cy="-494" rx="57" ry="18"/>
<text text-anchor="middle" x="1623.88" y="-489.32" font-family="Times,serif" font-size="14.00">node gyp</text>
</a>
</g>
</g>
<!-- parceljs -->
<g id="node18" class="node">
<title>parceljs</title>
<g id="a_node18"><a xlink:href="https://github.com/conda-forge/parceljs-feedstock" xlink:title="parceljs">
<ellipse fill="#fde725" stroke="black" cx="1623.88" cy="-422" rx="50.68" ry="18"/>
<text text-anchor="middle" x="1623.88" y="-417.32" font-family="Times,serif" font-size="14.00">parceljs</text>
</a>
</g>
</g>
<!-- node&#45;gyp&#45;&gt;parceljs -->
<g id="edge9" class="edge">
<title>node&#45;gyp&#45;&gt;parceljs</title>
<path fill="none" stroke="black" d="M1623.88,-475.7C1623.88,-468.41 1623.88,-459.73 1623.88,-451.54"/>
<polygon fill="black" stroke="black" points="1627.38,-451.62 1623.88,-441.62 1620.38,-451.62 1627.38,-451.62"/>
</g>
<!-- prettier -->
<g id="node19" class="node">
<title>prettier</title>
<g id="a_node19"><a xlink:href="https://github.com/conda-forge/prettier-feedstock" xlink:title="prettier">
<ellipse fill="#fde725" stroke="black" cx="1498.88" cy="-494" rx="50.16" ry="18"/>
<text text-anchor="middle" x="1498.88" y="-489.32" font-family="Times,serif" font-size="14.00">prettier</text>
</a>
</g>
</g>
<!-- ui5&#45;cli -->
<g id="node21" class="node">
<title>ui5&#45;cli</title>
<g id="a_node21"><a xlink:href="https://github.com/conda-forge/ui5-cli-feedstock" xlink:title="ui5 cli">
<ellipse fill="#35b779" stroke="black" cx="2287.88" cy="-278" rx="41.74" ry="18"/>
<text text-anchor="middle" x="2287.88" y="-273.32" font-family="Times,serif" font-size="14.00">ui5 cli</text>
</a>
</g>
</g>
<!-- openvscode&#45;server&#45;&gt;ui5&#45;cli -->
<!-- eslint -->
<g id="node22" class="node">
<title>eslint</title>
<g id="a_node22"><a xlink:href="https://github.com/conda-forge/eslint-feedstock" xlink:title="eslint">
<ellipse fill="#35b779" stroke="black" cx="2287.88" cy="-206" rx="39.11" ry="18"/>
<text text-anchor="middle" x="2287.88" y="-201.33" font-family="Times,serif" font-size="14.00">eslint</text>
</a>
</g>
</g>
<!-- ui5&#45;cli&#45;&gt;eslint -->
<!-- eslint&#45;config&#45;prettier -->
<g id="node23" class="node">
<title>eslint&#45;config&#45;prettier</title>
<g id="a_node23"><a xlink:href="https://github.com/conda-forge/eslint-config-prettier-feedstock" xlink:title="eslint config prettier">
<ellipse fill="#35b779" stroke="black" cx="2287.88" cy="-134" rx="114.34" ry="18"/>
<text text-anchor="middle" x="2287.88" y="-129.32" font-family="Times,serif" font-size="14.00">eslint config prettier</text>
</a>
</g>
</g>
<!-- eslint&#45;&gt;eslint&#45;config&#45;prettier -->
<!-- typescript&#45;eslint&#45;parser -->
<g id="node24" class="node">
<title>typescript&#45;eslint&#45;parser</title>
<g id="a_node24"><a xlink:href="https://github.com/conda-forge/typescript-eslint-parser-feedstock" xlink:title="typescript eslint parser">
<ellipse fill="#fde725" stroke="black" cx="1301.88" cy="-494" rx="129.07" ry="18"/>
<text text-anchor="middle" x="1301.88" y="-489.32" font-family="Times,serif" font-size="14.00">typescript eslint parser</text>
</a>
</g>
</g>
<!-- eslint&#45;plugin&#45;prettier -->
<g id="node25" class="node">
<title>eslint&#45;plugin&#45;prettier</title>
<g id="a_node25"><a xlink:href="https://github.com/conda-forge/eslint-plugin-prettier-feedstock" xlink:title="eslint plugin prettier">
<ellipse fill="#35b779" stroke="black" cx="2558.88" cy="-602" rx="115.92" ry="18"/>
<text text-anchor="middle" x="2558.88" y="-597.33" font-family="Times,serif" font-size="14.00">eslint plugin prettier</text>
</a>
</g>
</g>
<!-- eslint&#45;config&#45;standard -->
<g id="node26" class="node">
<title>eslint&#45;config&#45;standard</title>
<g id="a_node26"><a xlink:href="https://github.com/conda-forge/eslint-config-standard-feedstock" xlink:title="eslint config standard">
<ellipse fill="#35b779" stroke="black" cx="2558.88" cy="-530" rx="120.13" ry="18"/>
<text text-anchor="middle" x="2558.88" y="-525.33" font-family="Times,serif" font-size="14.00">eslint config standard</text>
</a>
</g>
</g>
<!-- eslint&#45;plugin&#45;prettier&#45;&gt;eslint&#45;config&#45;standard -->
<!-- esbuild -->
<g id="node27" class="node">
<title>esbuild</title>
<g id="a_node27"><a xlink:href="https://github.com/conda-forge/esbuild-feedstock" xlink:title="esbuild">
<ellipse fill="#35b779" stroke="black" cx="2558.88" cy="-458" rx="47.53" ry="18"/>
<text text-anchor="middle" x="2558.88" y="-453.32" font-family="Times,serif" font-size="14.00">esbuild</text>
</a>
</g>
</g>
<!-- eslint&#45;config&#45;standard&#45;&gt;esbuild -->
<!-- sagemaker&#45;code&#45;editor -->
<g id="node31" class="node">
<title>sagemaker&#45;code&#45;editor</title>
<g id="a_node31"><a xlink:href="https://github.com/conda-forge/sagemaker-code-editor-feedstock" xlink:title="sagemaker code editor">
<ellipse fill="#35b779" stroke="black" cx="2558.88" cy="-386" rx="125.39" ry="18"/>
<text text-anchor="middle" x="2558.88" y="-381.32" font-family="Times,serif" font-size="14.00">sagemaker code editor</text>
</a>
</g>
</g>
<!-- esbuild&#45;&gt;sagemaker&#45;code&#45;editor -->
<!-- eslint&#45;plugin&#45;react -->
<g id="node28" class="node">
<title>eslint&#45;plugin&#45;react</title>
<g id="a_node28"><a xlink:href="https://github.com/conda-forge/eslint-plugin-react-feedstock" xlink:title="eslint plugin react">
<ellipse fill="#fde725" stroke="black" cx="1071.88" cy="-18" rx="102.77" ry="18"/>
<text text-anchor="middle" x="1071.88" y="-13.32" font-family="Times,serif" font-size="14.00">eslint plugin react</text>
</a>
</g>
</g>
<!-- typescript&#45;eslint&#45;eslint&#45;plugin -->
<g id="node29" class="node">
<title>typescript&#45;eslint&#45;eslint&#45;plugin</title>
<g id="a_node29"><a xlink:href="https://github.com/conda-forge/typescript-eslint-eslint-plugin-feedstock" xlink:title="typescript eslint eslint plugin">
<ellipse fill="#fde725" stroke="black" cx="995.88" cy="-494" rx="159.06" ry="18"/>
<text text-anchor="middle" x="995.88" y="-489.32" font-family="Times,serif" font-size="14.00">typescript eslint eslint plugin</text>
</a>
</g>
</g>
<!-- jupyterlab_email -->
<g id="node30" class="node">
<title>jupyterlab_email</title>
<g id="a_node30"><a xlink:href="https://github.com/conda-forge/jupyterlab_email-feedstock" xlink:title="jupyterlab_email">
<ellipse fill="#fde725" stroke="black" cx="94.88" cy="-350" rx="94.88" ry="18"/>
<text text-anchor="middle" x="94.88" y="-345.32" font-family="Times,serif" font-size="14.00">jupyterlab_email</text>
</a>
</g>
</g>
<!-- npmignore -->
<g id="node32" class="node">
<title>npmignore</title>
<g id="a_node32"><a xlink:href="https://github.com/conda-forge/npmignore-feedstock" xlink:title="npmignore">
<ellipse fill="#35b779" stroke="black" cx="1071.88" cy="-90" rx="65.41" ry="18"/>
<text text-anchor="middle" x="1071.88" y="-85.33" font-family="Times,serif" font-size="14.00">npmignore</text>
</a>
</g>
</g>
<!-- npmignore&#45;&gt;eslint&#45;plugin&#45;react -->
<g id="edge17" class="edge">
<title>npmignore&#45;&gt;eslint&#45;plugin&#45;react</title>
<path fill="none" stroke="black" d="M1071.88,-71.7C1071.88,-64.41 1071.88,-55.73 1071.88,-47.54"/>
<polygon fill="black" stroke="black" points="1075.38,-47.62 1071.88,-37.62 1068.38,-47.62 1075.38,-47.62"/>
</g>
<!-- pnpm -->
<g id="node33" class="node">
<title>pnpm</title>
<g id="a_node33"><a xlink:href="https://github.com/conda-forge/pnpm-feedstock/pull/98" xlink:title="pnpm ✓">
<ellipse fill="#31688e" stroke="black" cx="1506.88" cy="-638" rx="47.53" ry="18"/>
<text text-anchor="middle" x="1506.88" y="-633.33" font-family="Times,serif" font-size="14.00" fill="white">pnpm ✓</text>
</a>
</g>
</g>
<!-- pnpm&#45;&gt;svg2png -->
<g id="edge18" class="edge">
<title>pnpm&#45;&gt;svg2png</title>
<path fill="none" stroke="black" d="M1549.28,-629.39C1601.26,-619.84 1691.93,-602.46 1768.88,-584 1865.41,-560.84 1976.83,-528.58 2039.46,-509.93"/>
<polygon fill="black" stroke="black" points="2040.16,-513.37 2048.74,-507.16 2038.16,-506.67 2040.16,-513.37"/>
</g>
<!-- pnpm&#45;&gt;jsdom -->
<g id="edge19" class="edge">
<title>pnpm&#45;&gt;jsdom</title>
<path fill="none" stroke="black" d="M1545.04,-626.83C1583.67,-616.44 1645.09,-599.65 1697.88,-584 1799.76,-553.79 1824.9,-545.11 1925.88,-512 1928.37,-511.18 1930.94,-510.33 1933.53,-509.47"/>
<polygon fill="black" stroke="black" points="1934.37,-512.88 1942.73,-506.38 1932.14,-506.24 1934.37,-512.88"/>
</g>
<!-- pnpm&#45;&gt;doccano -->
<g id="edge20" class="edge">
<title>pnpm&#45;&gt;doccano</title>
<path fill="none" stroke="black" d="M1538.83,-624.38C1565.98,-613.65 1605.99,-597.83 1640.88,-584 1703.59,-559.14 1776.14,-530.3 1821.28,-512.35"/>
<polygon fill="black" stroke="black" points="1822.46,-515.64 1830.46,-508.69 1819.87,-509.14 1822.46,-515.64"/>
</g>
<!-- pnpm&#45;&gt;gulp&#45;cli -->
<g id="edge21" class="edge">
<title>pnpm&#45;&gt;gulp&#45;cli</title>
<path fill="none" stroke="black" d="M1531.66,-622.34C1574.59,-596.93 1662.92,-544.68 1712.02,-515.62"/>
<polygon fill="black" stroke="black" points="1713.74,-518.67 1720.57,-510.57 1710.18,-512.65 1713.74,-518.67"/>
</g>
<!-- pnpm&#45;&gt;node&#45;gyp -->
<g id="edge22" class="edge">
<title>pnpm&#45;&gt;node&#45;gyp</title>
<path fill="none" stroke="black" d="M1523.91,-620.88C1534.39,-610.66 1547.87,-596.98 1558.88,-584 1576,-563.81 1593.6,-539.44 1606.16,-521.31"/>
<polygon fill="black" stroke="black" points="1608.96,-523.42 1611.73,-513.2 1603.19,-519.46 1608.96,-523.42"/>
</g>
<!-- pnpm&#45;&gt;prettier -->
<g id="edge23" class="edge">
<title>pnpm&#45;&gt;prettier</title>
<path fill="none" stroke="black" d="M1522.14,-620.78C1530.32,-610.95 1539.57,-597.7 1543.88,-584 1548.68,-568.74 1549.39,-563.02 1543.88,-548 1540.02,-537.52 1533.08,-527.69 1525.78,-519.41"/>
<polygon fill="black" stroke="black" points="1528.32,-517 1518.89,-512.17 1523.25,-521.83 1528.32,-517"/>
</g>
<!-- pnpm&#45;&gt;typescript&#45;eslint&#45;parser -->
<g id="edge24" class="edge">
<title>pnpm&#45;&gt;typescript&#45;eslint&#45;parser</title>
<path fill="none" stroke="black" d="M1464.67,-629.37C1433.19,-621.99 1390.5,-608.25 1359.88,-584 1339.26,-567.68 1323.61,-541.92 1313.8,-522.31"/>
<polygon fill="black" stroke="black" points="1317.07,-521.03 1309.6,-513.51 1310.75,-524.05 1317.07,-521.03"/>
</g>
<!-- pnpm&#45;&gt;typescript&#45;eslint&#45;eslint&#45;plugin -->
<g id="edge25" class="edge">
<title>pnpm&#45;&gt;typescript&#45;eslint&#45;eslint&#45;plugin</title>
<path fill="none" stroke="black" d="M1469.3,-626.56C1383.95,-602.84 1174.44,-544.62 1064.99,-514.21"/>
<polygon fill="black" stroke="black" points="1066.11,-510.88 1055.54,-511.58 1064.24,-517.63 1066.11,-510.88"/>
</g>
<!-- pnpm&#45;licenses -->
<g id="node34" class="node">
<title>pnpm&#45;licenses</title>
<g id="a_node34"><a xlink:href="https://github.com/conda-forge/pnpm-licenses-feedstock" xlink:title="pnpm licenses">
<ellipse fill="#fde725" stroke="black" cx="1451.88" cy="-566" rx="82.77" ry="18"/>
<text text-anchor="middle" x="1451.88" y="-561.33" font-family="Times,serif" font-size="14.00">pnpm licenses</text>
</a>
</g>
</g>
<!-- pnpm&#45;&gt;pnpm&#45;licenses -->
<g id="edge26" class="edge">
<title>pnpm&#45;&gt;pnpm&#45;licenses</title>
<path fill="none" stroke="black" d="M1493.84,-620.41C1487.36,-612.16 1479.38,-602.01 1472.13,-592.78"/>
<polygon fill="black" stroke="black" points="1475.06,-590.85 1466.13,-585.15 1469.56,-595.17 1475.06,-590.85"/>
</g>
<!-- rollup -->
<g id="node35" class="node">
<title>rollup</title>
<g id="a_node35"><a xlink:href="https://github.com/conda-forge/rollup-feedstock" xlink:title="rollup">
<ellipse fill="#fde725" stroke="black" cx="777.88" cy="-494" rx="40.69" ry="18"/>
<text text-anchor="middle" x="777.88" y="-489.32" font-family="Times,serif" font-size="14.00">rollup</text>
</a>
</g>
</g>
<!-- pnpm&#45;&gt;rollup -->
<g id="edge27" class="edge">
<title>pnpm&#45;&gt;rollup</title>
<path fill="none" stroke="black" d="M1462.23,-631.34C1352.83,-616.91 1063.11,-575.36 827.88,-512 825.13,-511.26 822.31,-510.45 819.48,-509.59"/>
<polygon fill="black" stroke="black" points="820.66,-506.3 810.07,-506.61 818.54,-512.97 820.66,-506.3"/>
</g>
<!-- markdownlint&#45;cli -->
<g id="node36" class="node">
<title>markdownlint&#45;cli</title>
<g id="a_node36"><a xlink:href="https://github.com/conda-forge/markdownlint-cli-feedstock" xlink:title="markdownlint cli">
<ellipse fill="#fde725" stroke="black" cx="623.88" cy="-494" rx="95.4" ry="18"/>
<text text-anchor="middle" x="623.88" y="-489.32" font-family="Times,serif" font-size="14.00">markdownlint cli</text>
</a>
</g>
</g>
<!-- pnpm&#45;&gt;markdownlint&#45;cli -->
<g id="edge28" class="edge">
<title>pnpm&#45;&gt;markdownlint&#45;cli</title>
<path fill="none" stroke="black" d="M1459.8,-634.35C1368.46,-628.74 1161.04,-613.65 988.88,-584 880.81,-565.39 757.27,-532.84 685.18,-512.68"/>
<polygon fill="black" stroke="black" points="686.52,-509.43 675.95,-510.09 684.63,-516.16 686.52,-509.43"/>
</g>
<!-- playwright -->
<g id="node37" class="node">
<title>playwright</title>
<g id="a_node37"><a xlink:href="https://github.com/conda-forge/playwright-feedstock" xlink:title="playwright">
<ellipse fill="#fde725" stroke="black" cx="287.88" cy="-494" rx="65.41" ry="18"/>
<text text-anchor="middle" x="287.88" y="-489.32" font-family="Times,serif" font-size="14.00">playwright</text>
</a>
</g>
</g>
<!-- pnpm&#45;&gt;playwright -->
<g id="edge29" class="edge">
<title>pnpm&#45;&gt;playwright</title>
<path fill="none" stroke="black" d="M1459.9,-634.62C1348.85,-628.72 1061.55,-611.84 822.88,-584 616.9,-559.97 565.5,-551.24 361.88,-512 357.01,-511.06 351.98,-510.03 346.94,-508.96"/>
<polygon fill="black" stroke="black" points="347.93,-505.6 337.41,-506.88 346.44,-512.44 347.93,-505.6"/>
</g>
<!-- pnpm&#45;licenses&#45;&gt;svg2png -->
<g id="edge30" class="edge">
<title>pnpm&#45;licenses&#45;&gt;svg2png</title>
<path fill="none" stroke="black" d="M1532.79,-561.9C1644.46,-556.64 1851.78,-543.29 2025.88,-512 2030.14,-511.23 2034.54,-510.32 2038.94,-509.31"/>
<polygon fill="black" stroke="black" points="2039.44,-512.79 2048.32,-507.02 2037.78,-505.99 2039.44,-512.79"/>
</g>
<!-- pnpm&#45;licenses&#45;&gt;jsdom -->
<g id="edge31" class="edge">
<title>pnpm&#45;licenses&#45;&gt;jsdom</title>
<path fill="none" stroke="black" d="M1532.42,-561.31C1627.43,-555.73 1789.7,-542.39 1925.88,-512 1928.79,-511.35 1931.78,-510.59 1934.77,-509.75"/>
<polygon fill="black" stroke="black" points="1935.5,-513.19 1944.05,-506.93 1933.47,-506.49 1935.5,-513.19"/>
</g>
<!-- pnpm&#45;licenses&#45;&gt;doccano -->
<g id="edge32" class="edge">
<title>pnpm&#45;licenses&#45;&gt;doccano</title>
<path fill="none" stroke="black" d="M1523.8,-556.79C1595.27,-548.01 1707.78,-532.54 1803.88,-512 1807.7,-511.18 1811.64,-510.26 1815.59,-509.29"/>
<polygon fill="black" stroke="black" points="1816.39,-512.7 1825.19,-506.8 1814.63,-505.92 1816.39,-512.7"/>
</g>
<!-- pnpm&#45;licenses&#45;&gt;gulp&#45;cli -->
<g id="edge33" class="edge">
<title>pnpm&#45;licenses&#45;&gt;gulp&#45;cli</title>
<path fill="none" stroke="black" d="M1510.84,-553.08C1559.17,-543.02 1629.24,-527.77 1689.88,-512 1693.17,-511.14 1696.56,-510.23 1699.96,-509.28"/>
<polygon fill="black" stroke="black" points="1700.69,-512.71 1709.34,-506.59 1698.77,-505.98 1700.69,-512.71"/>
</g>
<!-- pnpm&#45;licenses&#45;&gt;node&#45;gyp -->
<g id="edge34" class="edge">
<title>pnpm&#45;licenses&#45;&gt;node&#45;gyp</title>
<path fill="none" stroke="black" d="M1489.62,-549.64C1516.07,-538.87 1551.53,-524.44 1579.36,-513.12"/>
<polygon fill="black" stroke="black" points="1580.66,-516.37 1588.6,-509.35 1578.02,-509.88 1580.66,-516.37"/>
</g>
<!-- pnpm&#45;licenses&#45;&gt;prettier -->
<g id="edge35" class="edge">
<title>pnpm&#45;licenses&#45;&gt;prettier</title>
<path fill="none" stroke="black" d="M1463.49,-547.7C1468.87,-539.7 1475.36,-530.02 1481.31,-521.15"/>
<polygon fill="black" stroke="black" points="1484.2,-523.13 1486.87,-512.88 1478.39,-519.23 1484.2,-523.13"/>
</g>
<!-- pnpm&#45;licenses&#45;&gt;typescript&#45;eslint&#45;parser -->
<g id="edge36" class="edge">
<title>pnpm&#45;licenses&#45;&gt;typescript&#45;eslint&#45;parser</title>
<path fill="none" stroke="black" d="M1418.21,-549.29C1397.56,-539.65 1370.82,-527.17 1348.19,-516.61"/>
<polygon fill="black" stroke="black" points="1349.69,-513.45 1339.15,-512.4 1346.73,-519.8 1349.69,-513.45"/>
</g>
<!-- pnpm&#45;licenses&#45;&gt;typescript&#45;eslint&#45;eslint&#45;plugin -->
<g id="edge37" class="edge">
<title>pnpm&#45;licenses&#45;&gt;typescript&#45;eslint&#45;eslint&#45;plugin</title>
<path fill="none" stroke="black" d="M1385.57,-554.82C1310.32,-543.27 1186.65,-524.29 1098.82,-510.8"/>
<polygon fill="black" stroke="black" points="1099.4,-507.35 1088.99,-509.29 1098.34,-514.27 1099.4,-507.35"/>
</g>
<!-- pnpm&#45;licenses&#45;&gt;rollup -->
<g id="edge38" class="edge">
<title>pnpm&#45;licenses&#45;&gt;rollup</title>
<path fill="none" stroke="black" d="M1372.41,-560.66C1228.4,-552.4 929.77,-533.32 827.88,-512 824.91,-511.38 821.87,-510.63 818.83,-509.81"/>
<polygon fill="black" stroke="black" points="819.99,-506.5 809.4,-506.98 817.97,-513.21 819.99,-506.5"/>
</g>
<!-- pnpm&#45;licenses&#45;&gt;markdownlint&#45;cli -->
<g id="edge39" class="edge">
<title>pnpm&#45;licenses&#45;&gt;markdownlint&#45;cli</title>
<path fill="none" stroke="black" d="M1371.3,-561.45C1237.38,-555.01 960.67,-539.49 727.88,-512 719.82,-511.05 711.43,-509.92 703.07,-508.7"/>
<polygon fill="black" stroke="black" points="703.63,-505.24 693.22,-507.21 702.59,-512.16 703.63,-505.24"/>
</g>
<!-- pnpm&#45;licenses&#45;&gt;playwright -->
<g id="edge40" class="edge">
<title>pnpm&#45;licenses&#45;&gt;playwright</title>
<path fill="none" stroke="black" d="M1369.9,-562.9C1151.05,-556.98 556.48,-538.87 361.88,-512 356.53,-511.26 350.99,-510.32 345.47,-509.27"/>
<polygon fill="black" stroke="black" points="346.2,-505.85 335.71,-507.27 344.8,-512.71 346.2,-505.85"/>
</g>
<!-- playwright&#45;&gt;jupyterlab_templates -->
<g id="edge41" class="edge">
<title>playwright&#45;&gt;jupyterlab_templates</title>
<path fill="none" stroke="black" d="M276.26,-476.05C270.8,-468.09 264.16,-458.41 258.05,-449.51"/>
<polygon fill="black" stroke="black" points="261.12,-447.79 252.58,-441.52 255.35,-451.75 261.12,-447.79"/>
</g>
<!-- playwright&#45;&gt;perspective_parquet -->
<g id="edge42" class="edge">
<title>playwright&#45;&gt;perspective_parquet</title>
<path fill="none" stroke="black" d="M327.11,-479.34C357.21,-468.85 399.17,-454.24 432.81,-442.52"/>
<polygon fill="black" stroke="black" points="433.7,-445.92 441.99,-439.33 431.39,-439.31 433.7,-445.92"/>
</g>
<!-- playwright&#45;&gt;jupyterlab_email -->
<g id="edge43" class="edge">
<title>playwright&#45;&gt;jupyterlab_email</title>
<path fill="none" stroke="black" d="M224.37,-489.29C187.1,-483.74 141.96,-470.59 113.88,-440 99.08,-423.88 94.73,-399.16 93.86,-379.86"/>
<polygon fill="black" stroke="black" points="97.36,-379.85 93.72,-369.9 90.36,-379.95 97.36,-379.85"/>
</g>
</g>
</svg>
