<?xml version="1.0" encoding="UTF-8" standalone="no"?>
<!DOCTYPE svg PUBLIC "-//W3C//DTD SVG 1.1//EN"
 "http://www.w3.org/Graphics/SVG/1.1/DTD/svg11.dtd">
<!-- Generated by graphviz version 11.0.0 (20240519.1550)
 -->
<!-- Pages: 1 -->
<svg width="1663pt" height="476pt"
 viewBox="0.00 0.00 1662.93 476.00" xmlns="http://www.w3.org/2000/svg" xmlns:xlink="http://www.w3.org/1999/xlink">
<g id="graph0" class="graph" transform="scale(1 1) rotate(0) translate(4 472)">
<polygon fill="white" stroke="none" points="-4,4 -4,-472 1658.93,-472 1658.93,4 -4,4"/>
<!-- svg2png -->
<g id="node1" class="node">
<title>svg2png</title>
<g id="a_node1"><a xlink:href="https://github.com/conda-forge/svg2png-feedstock" xlink:title="svg2png">
<ellipse fill="#fde725" stroke="black" cx="53.84" cy="-378" rx="53.84" ry="18"/>
<text text-anchor="middle" x="53.84" y="-373.32" font-family="Times,serif" font-size="14.00">svg2png</text>
</a>
</g>
</g>
<!-- jsdom -->
<g id="node2" class="node">
<title>jsdom</title>
<g id="a_node2"><a xlink:href="https://github.com/conda-forge/jsdom-feedstock" xlink:title="jsdom">
<ellipse fill="#fde725" stroke="black" cx="119.84" cy="-306" rx="41.21" ry="18"/>
<text text-anchor="middle" x="119.84" y="-301.32" font-family="Times,serif" font-size="14.00">jsdom</text>
</a>
</g>
</g>
<!-- vega&#45;cli -->
<g id="node3" class="node">
<title>vega&#45;cli</title>
<g id="a_node3"><a xlink:href="https://github.com/conda-forge/vega-cli-feedstock/pull/35" xlink:title="vega cli ❎">
<ellipse fill="#31688e" stroke="black" cx="1585.84" cy="-270" rx="64.89" ry="18"/>
<text text-anchor="middle" x="1585.84" y="-265.32" font-family="Times,serif" font-size="14.00" fill="white">vega cli ❎</text>
</a>
</g>
</g>
<!-- vega&#45;lite&#45;cli -->
<g id="node4" class="node">
<title>vega&#45;lite&#45;cli</title>
<g id="a_node4"><a xlink:href="https://github.com/conda-forge/vega-lite-cli-feedstock" xlink:title="vega lite cli">
<ellipse fill="#fde725" stroke="black" cx="1585.84" cy="-198" rx="69.1" ry="18"/>
<text text-anchor="middle" x="1585.84" y="-193.32" font-family="Times,serif" font-size="14.00">vega lite cli</text>
</a>
</g>
</g>
<!-- vega&#45;cli&#45;&gt;vega&#45;lite&#45;cli -->
<g id="edge1" class="edge">
<title>vega&#45;cli&#45;&gt;vega&#45;lite&#45;cli</title>
<path fill="none" stroke="black" d="M1585.84,-251.7C1585.84,-244.41 1585.84,-235.73 1585.84,-227.54"/>
<polygon fill="black" stroke="black" points="1589.34,-227.62 1585.84,-217.62 1582.34,-227.62 1589.34,-227.62"/>
</g>
<!-- plotly&#45;orca -->
<g id="node5" class="node">
<title>plotly&#45;orca</title>
<g id="a_node5"><a xlink:href="https://github.com/conda-forge/plotly-orca-feedstock/pull/21" xlink:title="plotly orca ❎">
<ellipse fill="#31688e" stroke="black" cx="1367.84" cy="-414" rx="79.62" ry="18"/>
<text text-anchor="middle" x="1367.84" y="-409.32" font-family="Times,serif" font-size="14.00" fill="white">plotly orca ❎</text>
</a>
</g>
</g>
<!-- emscripten -->
<g id="node6" class="node">
<title>emscripten</title>
<g id="a_node6"><a xlink:href="https://github.com/conda-forge/emscripten-feedstock/pull/26" xlink:title="emscripten ❎">
<ellipse fill="#31688e" stroke="black" cx="1367.84" cy="-342" rx="82.77" ry="18"/>
<text text-anchor="middle" x="1367.84" y="-337.32" font-family="Times,serif" font-size="14.00" fill="white">emscripten ❎</text>
</a>
</g>
</g>
<!-- plotly&#45;orca&#45;&gt;emscripten -->
<!-- ray&#45;packages -->
<g id="node9" class="node">
<title>ray&#45;packages</title>
<g id="a_node9"><a xlink:href="https://github.com/conda-forge/ray-packages-feedstock/pull/168" xlink:title="ray packages ✓">
<ellipse fill="#31688e" stroke="black" cx="1367.84" cy="-270" rx="84.88" ry="18"/>
<text text-anchor="middle" x="1367.84" y="-265.32" font-family="Times,serif" font-size="14.00" fill="white">ray packages ✓</text>
</a>
</g>
</g>
<!-- emscripten&#45;&gt;ray&#45;packages -->
<!-- jupyterlab_templates -->
<g id="node7" class="node">
<title>jupyterlab_templates</title>
<g id="a_node7"><a xlink:href="https://github.com/conda-forge/jupyterlab_templates-feedstock" xlink:title="jupyterlab_templates">
<ellipse fill="#fde725" stroke="black" cx="836.84" cy="-306" rx="117.5" ry="18"/>
<text text-anchor="middle" x="836.84" y="-301.32" font-family="Times,serif" font-size="14.00">jupyterlab_templates</text>
</a>
</g>
</g>
<!-- doccano -->
<g id="node8" class="node">
<title>doccano</title>
<g id="a_node8"><a xlink:href="https://github.com/conda-forge/doccano-feedstock" xlink:title="doccano">
<ellipse fill="#fde725" stroke="black" cx="146.84" cy="-234" rx="51.74" ry="18"/>
<text text-anchor="middle" x="146.84" y="-229.32" font-family="Times,serif" font-size="14.00">doccano</text>
</a>
</g>
</g>
<!-- eslint&#45;plugin&#45;react -->
<g id="node10" class="node">
<title>eslint&#45;plugin&#45;react</title>
<g id="a_node10"><a xlink:href="https://github.com/conda-forge/eslint-plugin-react-feedstock/pull/15" xlink:title="eslint plugin react ❎">
<ellipse fill="#31688e" stroke="black" cx="1367.84" cy="-198" rx="118.02" ry="18"/>
<text text-anchor="middle" x="1367.84" y="-193.32" font-family="Times,serif" font-size="14.00" fill="white">eslint plugin react ❎</text>
</a>
</g>
</g>
<!-- ray&#45;packages&#45;&gt;eslint&#45;plugin&#45;react -->
<!-- esbuild -->
<g id="node16" class="node">
<title>esbuild</title>
<g id="a_node16"><a xlink:href="https://github.com/conda-forge/esbuild-feedstock/pull/29" xlink:title="esbuild ✓">
<ellipse fill="#31688e" stroke="black" cx="1367.84" cy="-126" rx="55.42" ry="18"/>
<text text-anchor="middle" x="1367.84" y="-121.33" font-family="Times,serif" font-size="14.00" fill="white">esbuild ✓</text>
</a>
</g>
</g>
<!-- eslint&#45;plugin&#45;react&#45;&gt;esbuild -->
<!-- gulp&#45;cli -->
<g id="node11" class="node">
<title>gulp&#45;cli</title>
<g id="a_node11"><a xlink:href="https://github.com/conda-forge/gulp-cli-feedstock" xlink:title="gulp cli">
<ellipse fill="#fde725" stroke="black" cx="188.84" cy="-162" rx="48.05" ry="18"/>
<text text-anchor="middle" x="188.84" y="-157.32" font-family="Times,serif" font-size="14.00">gulp cli</text>
</a>
</g>
</g>
<!-- node&#45;gyp -->
<g id="node12" class="node">
<title>node&#45;gyp</title>
<g id="a_node12"><a xlink:href="https://github.com/conda-forge/node-gyp-feedstock" xlink:title="node gyp">
<ellipse fill="#fde725" stroke="black" cx="264.84" cy="-90" rx="57" ry="18"/>
<text text-anchor="middle" x="264.84" y="-85.33" font-family="Times,serif" font-size="14.00">node gyp</text>
</a>
</g>
</g>
<!-- parceljs -->
<g id="node13" class="node">
<title>parceljs</title>
<g id="a_node13"><a xlink:href="https://github.com/conda-forge/parceljs-feedstock" xlink:title="parceljs">
<ellipse fill="#fde725" stroke="black" cx="264.84" cy="-18" rx="50.68" ry="18"/>
<text text-anchor="middle" x="264.84" y="-13.32" font-family="Times,serif" font-size="14.00">parceljs</text>
</a>
</g>
</g>
<!-- node&#45;gyp&#45;&gt;parceljs -->
<g id="edge5" class="edge">
<title>node&#45;gyp&#45;&gt;parceljs</title>
<path fill="none" stroke="black" d="M264.84,-71.7C264.84,-64.41 264.84,-55.73 264.84,-47.54"/>
<polygon fill="black" stroke="black" points="268.34,-47.62 264.84,-37.62 261.34,-47.62 268.34,-47.62"/>
</g>
<!-- prettier -->
<g id="node14" class="node">
<title>prettier</title>
<g id="a_node14"><a xlink:href="https://github.com/conda-forge/prettier-feedstock" xlink:title="prettier">
<ellipse fill="#fde725" stroke="black" cx="342.84" cy="-378" rx="50.16" ry="18"/>
<text text-anchor="middle" x="342.84" y="-373.32" font-family="Times,serif" font-size="14.00">prettier</text>
</a>
</g>
</g>
<!-- typescript&#45;eslint&#45;parser -->
<g id="node15" class="node">
<title>typescript&#45;eslint&#45;parser</title>
<g id="a_node15"><a xlink:href="https://github.com/conda-forge/typescript-eslint-parser-feedstock" xlink:title="typescript eslint parser">
<ellipse fill="#fde725" stroke="black" cx="421.84" cy="-306" rx="129.07" ry="18"/>
<text text-anchor="middle" x="421.84" y="-301.32" font-family="Times,serif" font-size="14.00">typescript eslint parser</text>
</a>
</g>
</g>
<!-- sagemaker&#45;code&#45;editor -->
<g id="node19" class="node">
<title>sagemaker&#45;code&#45;editor</title>
<g id="a_node19"><a xlink:href="https://github.com/conda-forge/sagemaker-code-editor-feedstock/pull/28" xlink:title="sagemaker code editor ❎">
<ellipse fill="#31688e" stroke="black" cx="1367.84" cy="-54" rx="140.65" ry="18"/>
<text text-anchor="middle" x="1367.84" y="-49.33" font-family="Times,serif" font-size="14.00" fill="white">sagemaker code editor ❎</text>
</a>
</g>
</g>
<!-- esbuild&#45;&gt;sagemaker&#45;code&#45;editor -->
<!-- typescript&#45;eslint&#45;eslint&#45;plugin -->
<g id="node17" class="node">
<title>typescript&#45;eslint&#45;eslint&#45;plugin</title>
<g id="a_node17"><a xlink:href="https://github.com/conda-forge/typescript-eslint-eslint-plugin-feedstock" xlink:title="typescript eslint eslint plugin">
<ellipse fill="#fde725" stroke="black" cx="451.84" cy="-234" rx="159.06" ry="18"/>
<text text-anchor="middle" x="451.84" y="-229.32" font-family="Times,serif" font-size="14.00">typescript eslint eslint plugin</text>
</a>
</g>
</g>
<!-- jupyterlab_email -->
<g id="node18" class="node">
<title>jupyterlab_email</title>
<g id="a_node18"><a xlink:href="https://github.com/conda-forge/jupyterlab_email-feedstock" xlink:title="jupyterlab_email">
<ellipse fill="#fde725" stroke="black" cx="981.84" cy="-234" rx="94.88" ry="18"/>
<text text-anchor="middle" x="981.84" y="-229.32" font-family="Times,serif" font-size="14.00">jupyterlab_email</text>
</a>
</g>
</g>
<!-- perspective_parquet -->
<g id="node20" class="node">
<title>perspective_parquet</title>
<g id="a_node20"><a xlink:href="https://github.com/conda-forge/perspective_parquet-feedstock" xlink:title="perspective_parquet">
<ellipse fill="#fde725" stroke="black" cx="1104.84" cy="-162" rx="113.82" ry="18"/>
<text text-anchor="middle" x="1104.84" y="-157.32" font-family="Times,serif" font-size="14.00">perspective_parquet</text>
</a>
</g>
</g>
<!-- pnpm&#45;licenses -->
<g id="node21" class="node">
<title>pnpm&#45;licenses</title>
<g id="a_node21"><a xlink:href="https://github.com/conda-forge/pnpm-licenses-feedstock/pull/12" xlink:title="pnpm licenses ❎">
<ellipse fill="#31688e" stroke="black" cx="342.84" cy="-450" rx="98.03" ry="18"/>
<text text-anchor="middle" x="342.84" y="-445.32" font-family="Times,serif" font-size="14.00" fill="white">pnpm licenses ❎</text>
</a>
</g>
</g>
<!-- pnpm&#45;licenses&#45;&gt;svg2png -->
<g id="edge8" class="edge">
<title>pnpm&#45;licenses&#45;&gt;svg2png</title>
<path fill="none" stroke="black" d="M284.64,-435.2C240.05,-424.6 177.02,-409.52 121.84,-396 116.99,-394.81 111.94,-393.57 106.89,-392.32"/>
<polygon fill="black" stroke="black" points="107.92,-388.96 97.37,-389.95 106.23,-395.76 107.92,-388.96"/>
</g>
<!-- pnpm&#45;licenses&#45;&gt;jsdom -->
<g id="edge9" class="edge">
<title>pnpm&#45;licenses&#45;&gt;jsdom</title>
<path fill="none" stroke="black" d="M269.67,-437.73C238.04,-430.04 202.11,-417.23 174.84,-396 154.37,-380.07 139.63,-354.23 130.59,-334.48"/>
<polygon fill="black" stroke="black" points="133.82,-333.14 126.64,-325.35 127.4,-335.92 133.82,-333.14"/>
</g>
<!-- pnpm&#45;licenses&#45;&gt;doccano -->
<g id="edge10" class="edge">
<title>pnpm&#45;licenses&#45;&gt;doccano</title>
<path fill="none" stroke="black" d="M282.31,-435.41C258.13,-427.38 231.63,-414.95 212.84,-396 176.46,-359.32 189.68,-335.7 169.84,-288 166.4,-279.72 162.55,-270.77 159.01,-262.61"/>
<polygon fill="black" stroke="black" points="162.25,-261.28 155.04,-253.52 155.83,-264.08 162.25,-261.28"/>
</g>
<!-- pnpm&#45;licenses&#45;&gt;gulp&#45;cli -->
<g id="edge11" class="edge">
<title>pnpm&#45;licenses&#45;&gt;gulp&#45;cli</title>
<path fill="none" stroke="black" d="M300.45,-433.49C282.69,-424.97 263.3,-412.69 250.84,-396 201.63,-330.09 231.31,-294.83 207.84,-216 205.37,-207.72 202.35,-198.84 199.44,-190.77"/>
<polygon fill="black" stroke="black" points="202.75,-189.62 196,-181.45 196.18,-192.04 202.75,-189.62"/>
</g>
<!-- pnpm&#45;licenses&#45;&gt;node&#45;gyp -->
<g id="edge12" class="edge">
<title>pnpm&#45;licenses&#45;&gt;node&#45;gyp</title>
<path fill="none" stroke="black" d="M317.58,-432.13C305.6,-422.84 292.11,-410.3 283.84,-396 263.58,-360.99 264.84,-347.45 264.84,-307 264.84,-307 264.84,-307 264.84,-233 264.84,-193.74 264.84,-148.38 264.84,-119.69"/>
<polygon fill="black" stroke="black" points="268.34,-120 264.84,-110 261.34,-120 268.34,-120"/>
</g>
<!-- pnpm&#45;licenses&#45;&gt;prettier -->
<g id="edge13" class="edge">
<title>pnpm&#45;licenses&#45;&gt;prettier</title>
<path fill="none" stroke="black" d="M342.84,-431.7C342.84,-424.41 342.84,-415.73 342.84,-407.54"/>
<polygon fill="black" stroke="black" points="346.34,-407.62 342.84,-397.62 339.34,-407.62 346.34,-407.62"/>
</g>
<!-- pnpm&#45;licenses&#45;&gt;typescript&#45;eslint&#45;parser -->
<g id="edge14" class="edge">
<title>pnpm&#45;licenses&#45;&gt;typescript&#45;eslint&#45;parser</title>
<path fill="none" stroke="black" d="M367.73,-432.32C379.77,-423 393.42,-410.37 401.84,-396 412.62,-377.59 417.6,-353.92 419.89,-335.61"/>
<polygon fill="black" stroke="black" points="423.36,-336.01 420.91,-325.7 416.4,-335.29 423.36,-336.01"/>
</g>
<!-- pnpm&#45;licenses&#45;&gt;typescript&#45;eslint&#45;eslint&#45;plugin -->
<g id="edge15" class="edge">
<title>pnpm&#45;licenses&#45;&gt;typescript&#45;eslint&#45;eslint&#45;plugin</title>
<path fill="none" stroke="black" d="M397.3,-434.7C449.44,-417.79 525.14,-384.04 559.84,-324 567.85,-310.15 568.3,-301.58 559.84,-288 551.13,-274.03 537.55,-263.64 522.92,-255.95"/>
<polygon fill="black" stroke="black" points="524.57,-252.85 514.04,-251.69 521.55,-259.17 524.57,-252.85"/>
</g>
<!-- rollup -->
<g id="node22" class="node">
<title>rollup</title>
<g id="a_node22"><a xlink:href="https://github.com/conda-forge/rollup-feedstock" xlink:title="rollup">
<ellipse fill="#fde725" stroke="black" cx="622.84" cy="-162" rx="40.69" ry="18"/>
<text text-anchor="middle" x="622.84" y="-157.32" font-family="Times,serif" font-size="14.00">rollup</text>
</a>
</g>
</g>
<!-- pnpm&#45;licenses&#45;&gt;rollup -->
<g id="edge16" class="edge">
<title>pnpm&#45;licenses&#45;&gt;rollup</title>
<path fill="none" stroke="black" d="M418.02,-438.2C452.53,-430.55 492.62,-417.64 523.84,-396 587.06,-352.18 598.52,-325.9 619.84,-252 625.48,-232.45 626.11,-209.47 625.4,-191.76"/>
<polygon fill="black" stroke="black" points="628.9,-191.74 624.82,-181.96 621.91,-192.15 628.9,-191.74"/>
</g>
<!-- markdownlint&#45;cli -->
<g id="node23" class="node">
<title>markdownlint&#45;cli</title>
<g id="a_node23"><a xlink:href="https://github.com/conda-forge/markdownlint-cli-feedstock" xlink:title="markdownlint cli">
<ellipse fill="#fde725" stroke="black" cx="691.84" cy="-90" rx="95.4" ry="18"/>
<text text-anchor="middle" x="691.84" y="-85.33" font-family="Times,serif" font-size="14.00">markdownlint cli</text>
</a>
</g>
</g>
<!-- pnpm&#45;licenses&#45;&gt;markdownlint&#45;cli -->
<g id="edge17" class="edge">
<title>pnpm&#45;licenses&#45;&gt;markdownlint&#45;cli</title>
<path fill="none" stroke="black" d="M408.48,-436.25C509.58,-414.72 691.84,-367.51 691.84,-307 691.84,-307 691.84,-307 691.84,-233 691.84,-193.74 691.84,-148.38 691.84,-119.69"/>
<polygon fill="black" stroke="black" points="695.34,-120 691.84,-110 688.34,-120 695.34,-120"/>
</g>
<!-- playwright -->
<g id="node24" class="node">
<title>playwright</title>
<g id="a_node24"><a xlink:href="https://github.com/conda-forge/playwright-feedstock" xlink:title="playwright">
<ellipse fill="#fde725" stroke="black" cx="908.84" cy="-378" rx="65.41" ry="18"/>
<text text-anchor="middle" x="908.84" y="-373.32" font-family="Times,serif" font-size="14.00">playwright</text>
</a>
</g>
</g>
<!-- pnpm&#45;licenses&#45;&gt;playwright -->
<g id="edge18" class="edge">
<title>pnpm&#45;licenses&#45;&gt;playwright</title>
<path fill="none" stroke="black" d="M422.43,-439.16C533.48,-425.42 733.13,-400.73 838.81,-387.66"/>
<polygon fill="black" stroke="black" points="838.98,-391.17 848.48,-386.47 838.12,-384.22 838.98,-391.17"/>
</g>
<!-- playwright&#45;&gt;jupyterlab_templates -->
<g id="edge19" class="edge">
<title>playwright&#45;&gt;jupyterlab_templates</title>
<path fill="none" stroke="black" d="M891.78,-360.41C883.09,-351.97 872.35,-341.53 862.68,-332.12"/>
<polygon fill="black" stroke="black" points="865.23,-329.72 855.62,-325.26 860.35,-334.74 865.23,-329.72"/>
</g>
<!-- playwright&#45;&gt;jupyterlab_email -->
<g id="edge20" class="edge">
<title>playwright&#45;&gt;jupyterlab_email</title>
<path fill="none" stroke="black" d="M930.85,-360.64C942.08,-351.16 954.99,-338.27 962.84,-324 973.03,-305.46 977.76,-281.97 979.95,-263.78"/>
<polygon fill="black" stroke="black" points="983.42,-264.23 980.93,-253.93 976.46,-263.53 983.42,-264.23"/>
</g>
<!-- playwright&#45;&gt;perspective_parquet -->
<g id="edge21" class="edge">
<title>playwright&#45;&gt;perspective_parquet</title>
<path fill="none" stroke="black" d="M943.06,-362.4C983.73,-343.21 1050.52,-305.54 1085.84,-252 1097.61,-234.15 1102.25,-210.29 1104,-191.78"/>
<polygon fill="black" stroke="black" points="1107.48,-192.22 1104.68,-182 1100.5,-191.74 1107.48,-192.22"/>
</g>
</g>
</svg>
