<?xml version="1.0" encoding="UTF-8" standalone="no"?>
<!DOCTYPE svg PUBLIC "-//W3C//DTD SVG 1.1//EN"
 "http://www.w3.org/Graphics/SVG/1.1/DTD/svg11.dtd">
<!-- Generated by graphviz version 11.0.0 (20240519.1550)
 -->
<!-- Pages: 1 -->
<svg width="2714pt" height="880pt"
 viewBox="0.00 0.00 2714.26 880.00" xmlns="http://www.w3.org/2000/svg" xmlns:xlink="http://www.w3.org/1999/xlink">
<g id="graph0" class="graph" transform="scale(1 1) rotate(0) translate(4 876)">
<polygon fill="white" stroke="none" points="-4,4 -4,-876 2710.26,-876 2710.26,4 -4,4"/>
<!-- configurable&#45;http&#45;proxy -->
<g id="node1" class="node">
<title>configurable&#45;http&#45;proxy</title>
<g id="a_node1"><a xlink:href="https://github.com/conda-forge/configurable-http-proxy-feedstock/pull/65" xlink:title="configurable http proxy ✓">
<ellipse fill="#31688e" stroke="black" cx="2309.88" cy="-854" rx="136.97" ry="18"/>
<text text-anchor="middle" x="2309.88" y="-849.33" font-family="Times,serif" font-size="14.00" fill="white">configurable http proxy ✓</text>
</a>
</g>
</g>
<!-- plotly&#45;orca -->
<g id="node2" class="node">
<title>plotly&#45;orca</title>
<g id="a_node2"><a xlink:href="https://github.com/conda-forge/plotly-orca-feedstock" xlink:title="plotly orca">
<ellipse fill="#35b779" stroke="black" cx="2309.88" cy="-782" rx="64.36" ry="18"/>
<text text-anchor="middle" x="2309.88" y="-777.33" font-family="Times,serif" font-size="14.00">plotly orca</text>
</a>
</g>
</g>
<!-- configurable&#45;http&#45;proxy&#45;&gt;plotly&#45;orca -->
<!-- emscripten -->
<g id="node7" class="node">
<title>emscripten</title>
<g id="a_node7"><a xlink:href="https://github.com/conda-forge/emscripten-feedstock" xlink:title="emscripten">
<ellipse fill="#35b779" stroke="black" cx="2309.88" cy="-710" rx="67.52" ry="18"/>
<text text-anchor="middle" x="2309.88" y="-705.33" font-family="Times,serif" font-size="14.00">emscripten</text>
</a>
</g>
</g>
<!-- plotly&#45;orca&#45;&gt;emscripten -->
<!-- svg2png -->
<g id="node3" class="node">
<title>svg2png</title>
<g id="a_node3"><a xlink:href="https://github.com/conda-forge/svg2png-feedstock" xlink:title="svg2png">
<ellipse fill="#fde725" stroke="black" cx="2110.88" cy="-494" rx="53.84" ry="18"/>
<text text-anchor="middle" x="2110.88" y="-489.32" font-family="Times,serif" font-size="14.00">svg2png</text>
</a>
</g>
</g>
<!-- jsdom -->
<g id="node4" class="node">
<title>jsdom</title>
<g id="a_node4"><a xlink:href="https://github.com/conda-forge/jsdom-feedstock" xlink:title="jsdom">
<ellipse fill="#fde725" stroke="black" cx="1997.88" cy="-494" rx="41.21" ry="18"/>
<text text-anchor="middle" x="1997.88" y="-489.32" font-family="Times,serif" font-size="14.00">jsdom</text>
</a>
</g>
</g>
<!-- vega&#45;cli -->
<g id="node5" class="node">
<title>vega&#45;cli</title>
<g id="a_node5"><a xlink:href="https://github.com/conda-forge/vega-cli-feedstock/pull/35" xlink:title="vega cli ❎">
<ellipse fill="#31688e" stroke="black" cx="2309.88" cy="-90" rx="64.89" ry="18"/>
<text text-anchor="middle" x="2309.88" y="-85.33" font-family="Times,serif" font-size="14.00" fill="white">vega cli ❎</text>
</a>
</g>
</g>
<!-- vega&#45;lite&#45;cli -->
<g id="node6" class="node">
<title>vega&#45;lite&#45;cli</title>
<g id="a_node6"><a xlink:href="https://github.com/conda-forge/vega-lite-cli-feedstock" xlink:title="vega lite cli">
<ellipse fill="#fde725" stroke="black" cx="2309.88" cy="-18" rx="69.1" ry="18"/>
<text text-anchor="middle" x="2309.88" y="-13.32" font-family="Times,serif" font-size="14.00">vega lite cli</text>
</a>
</g>
</g>
<!-- vega&#45;cli&#45;&gt;vega&#45;lite&#45;cli -->
<g id="edge2" class="edge">
<title>vega&#45;cli&#45;&gt;vega&#45;lite&#45;cli</title>
<path fill="none" stroke="black" d="M2309.88,-71.7C2309.88,-64.41 2309.88,-55.73 2309.88,-47.54"/>
<polygon fill="black" stroke="black" points="2313.38,-47.62 2309.88,-37.62 2306.38,-47.62 2313.38,-47.62"/>
</g>
<!-- ray&#45;packages -->
<g id="node12" class="node">
<title>ray&#45;packages</title>
<g id="a_node12"><a xlink:href="https://github.com/conda-forge/ray-packages-feedstock/pull/168" xlink:title="ray packages ✓">
<ellipse fill="#31688e" stroke="black" cx="2309.88" cy="-638" rx="84.88" ry="18"/>
<text text-anchor="middle" x="2309.88" y="-633.33" font-family="Times,serif" font-size="14.00" fill="white">ray packages ✓</text>
</a>
</g>
</g>
<!-- emscripten&#45;&gt;ray&#45;packages -->
<!-- jupyterlab_templates -->
<g id="node8" class="node">
<title>jupyterlab_templates</title>
<g id="a_node8"><a xlink:href="https://github.com/conda-forge/jupyterlab_templates-feedstock" xlink:title="jupyterlab_templates">
<ellipse fill="#fde725" stroke="black" cx="239.88" cy="-422" rx="117.5" ry="18"/>
<text text-anchor="middle" x="239.88" y="-417.32" font-family="Times,serif" font-size="14.00">jupyterlab_templates</text>
</a>
</g>
</g>
<!-- perspective -->
<g id="node9" class="node">
<title>perspective</title>
<g id="a_node9"><a xlink:href="https://github.com/conda-forge/perspective-feedstock/pull/160" xlink:title="perspective ❎">
<ellipse fill="#31688e" stroke="black" cx="447.88" cy="-494" rx="84.88" ry="18"/>
<text text-anchor="middle" x="447.88" y="-489.32" font-family="Times,serif" font-size="14.00" fill="white">perspective ❎</text>
</a>
</g>
</g>
<!-- perspective_parquet -->
<g id="node10" class="node">
<title>perspective_parquet</title>
<g id="a_node10"><a xlink:href="https://github.com/conda-forge/perspective_parquet-feedstock" xlink:title="perspective_parquet">
<ellipse fill="#fde725" stroke="black" cx="488.88" cy="-422" rx="113.82" ry="18"/>
<text text-anchor="middle" x="488.88" y="-417.32" font-family="Times,serif" font-size="14.00">perspective_parquet</text>
</a>
</g>
</g>
<!-- perspective&#45;&gt;perspective_parquet -->
<g id="edge4" class="edge">
<title>perspective&#45;&gt;perspective_parquet</title>
<path fill="none" stroke="black" d="M458.01,-475.7C462.58,-467.9 468.08,-458.51 473.16,-449.83"/>
<polygon fill="black" stroke="black" points="476.06,-451.81 478.09,-441.41 470.02,-448.27 476.06,-451.81"/>
</g>
<!-- doccano -->
<g id="node11" class="node">
<title>doccano</title>
<g id="a_node11"><a xlink:href="https://github.com/conda-forge/doccano-feedstock" xlink:title="doccano">
<ellipse fill="#fde725" stroke="black" cx="1886.88" cy="-494" rx="51.74" ry="18"/>
<text text-anchor="middle" x="1886.88" y="-489.32" font-family="Times,serif" font-size="14.00">doccano</text>
</a>
</g>
</g>
<!-- vsce -->
<g id="node13" class="node">
<title>vsce</title>
<g id="a_node13"><a xlink:href="https://github.com/conda-forge/vsce-feedstock/pull/64" xlink:title="vsce ✓">
<ellipse fill="#31688e" stroke="black" cx="2309.88" cy="-566" rx="41.21" ry="18"/>
<text text-anchor="middle" x="2309.88" y="-561.33" font-family="Times,serif" font-size="14.00" fill="white">vsce ✓</text>
</a>
</g>
</g>
<!-- ray&#45;packages&#45;&gt;vsce -->
<!-- gtop -->
<g id="node15" class="node">
<title>gtop</title>
<g id="a_node15"><a xlink:href="https://github.com/conda-forge/gtop-feedstock" xlink:title="gtop">
<ellipse fill="#35b779" stroke="black" cx="2309.88" cy="-494" rx="33.85" ry="18"/>
<text text-anchor="middle" x="2309.88" y="-489.32" font-family="Times,serif" font-size="14.00">gtop</text>
</a>
</g>
</g>
<!-- vsce&#45;&gt;gtop -->
<!-- gulp&#45;cli -->
<g id="node14" class="node">
<title>gulp&#45;cli</title>
<g id="a_node14"><a xlink:href="https://github.com/conda-forge/gulp-cli-feedstock" xlink:title="gulp cli">
<ellipse fill="#fde725" stroke="black" cx="1768.88" cy="-494" rx="48.05" ry="18"/>
<text text-anchor="middle" x="1768.88" y="-489.32" font-family="Times,serif" font-size="14.00">gulp cli</text>
</a>
</g>
</g>
<!-- openvscode&#45;server -->
<g id="node19" class="node">
<title>openvscode&#45;server</title>
<g id="a_node19"><a xlink:href="https://github.com/conda-forge/openvscode-server-feedstock" xlink:title="openvscode server">
<ellipse fill="#35b779" stroke="black" cx="2309.88" cy="-422" rx="104.87" ry="18"/>
<text text-anchor="middle" x="2309.88" y="-417.32" font-family="Times,serif" font-size="14.00">openvscode server</text>
</a>
</g>
</g>
<!-- gtop&#45;&gt;openvscode&#45;server -->
<!-- node&#45;gyp -->
<g id="node16" class="node">
<title>node&#45;gyp</title>
<g id="a_node16"><a xlink:href="https://github.com/conda-forge/node-gyp-feedstock" xlink:title="node gyp">
<ellipse fill="#fde725" stroke="black" cx="1645.88" cy="-494" rx="57" ry="18"/>
<text text-anchor="middle" x="1645.88" y="-489.32" font-family="Times,serif" font-size="14.00">node gyp</text>
</a>
</g>
</g>
<!-- parceljs -->
<g id="node17" class="node">
<title>parceljs</title>
<g id="a_node17"><a xlink:href="https://github.com/conda-forge/parceljs-feedstock" xlink:title="parceljs">
<ellipse fill="#fde725" stroke="black" cx="1645.88" cy="-422" rx="50.68" ry="18"/>
<text text-anchor="middle" x="1645.88" y="-417.32" font-family="Times,serif" font-size="14.00">parceljs</text>
</a>
</g>
</g>
<!-- node&#45;gyp&#45;&gt;parceljs -->
<g id="edge8" class="edge">
<title>node&#45;gyp&#45;&gt;parceljs</title>
<path fill="none" stroke="black" d="M1645.88,-475.7C1645.88,-468.41 1645.88,-459.73 1645.88,-451.54"/>
<polygon fill="black" stroke="black" points="1649.38,-451.62 1645.88,-441.62 1642.38,-451.62 1649.38,-451.62"/>
</g>
<!-- prettier -->
<g id="node18" class="node">
<title>prettier</title>
<g id="a_node18"><a xlink:href="https://github.com/conda-forge/prettier-feedstock" xlink:title="prettier">
<ellipse fill="#fde725" stroke="black" cx="1520.88" cy="-494" rx="50.16" ry="18"/>
<text text-anchor="middle" x="1520.88" y="-489.32" font-family="Times,serif" font-size="14.00">prettier</text>
</a>
</g>
</g>
<!-- ui5&#45;cli -->
<g id="node20" class="node">
<title>ui5&#45;cli</title>
<g id="a_node20"><a xlink:href="https://github.com/conda-forge/ui5-cli-feedstock" xlink:title="ui5 cli">
<ellipse fill="#35b779" stroke="black" cx="2309.88" cy="-350" rx="41.74" ry="18"/>
<text text-anchor="middle" x="2309.88" y="-345.32" font-family="Times,serif" font-size="14.00">ui5 cli</text>
</a>
</g>
</g>
<!-- openvscode&#45;server&#45;&gt;ui5&#45;cli -->
<!-- eslint -->
<g id="node21" class="node">
<title>eslint</title>
<g id="a_node21"><a xlink:href="https://github.com/conda-forge/eslint-feedstock" xlink:title="eslint">
<ellipse fill="#35b779" stroke="black" cx="2309.88" cy="-278" rx="39.11" ry="18"/>
<text text-anchor="middle" x="2309.88" y="-273.32" font-family="Times,serif" font-size="14.00">eslint</text>
</a>
</g>
</g>
<!-- ui5&#45;cli&#45;&gt;eslint -->
<!-- eslint&#45;config&#45;prettier -->
<g id="node22" class="node">
<title>eslint&#45;config&#45;prettier</title>
<g id="a_node22"><a xlink:href="https://github.com/conda-forge/eslint-config-prettier-feedstock" xlink:title="eslint config prettier">
<ellipse fill="#35b779" stroke="black" cx="2309.88" cy="-206" rx="114.34" ry="18"/>
<text text-anchor="middle" x="2309.88" y="-201.33" font-family="Times,serif" font-size="14.00">eslint config prettier</text>
</a>
</g>
</g>
<!-- eslint&#45;&gt;eslint&#45;config&#45;prettier -->
<!-- eslint&#45;plugin&#45;prettier -->
<g id="node24" class="node">
<title>eslint&#45;plugin&#45;prettier</title>
<g id="a_node24"><a xlink:href="https://github.com/conda-forge/eslint-plugin-prettier-feedstock" xlink:title="eslint plugin prettier">
<ellipse fill="#35b779" stroke="black" cx="2309.88" cy="-134" rx="115.92" ry="18"/>
<text text-anchor="middle" x="2309.88" y="-129.32" font-family="Times,serif" font-size="14.00">eslint plugin prettier</text>
</a>
</g>
</g>
<!-- eslint&#45;config&#45;prettier&#45;&gt;eslint&#45;plugin&#45;prettier -->
<!-- typescript&#45;eslint&#45;parser -->
<g id="node23" class="node">
<title>typescript&#45;eslint&#45;parser</title>
<g id="a_node23"><a xlink:href="https://github.com/conda-forge/typescript-eslint-parser-feedstock" xlink:title="typescript eslint parser">
<ellipse fill="#fde725" stroke="black" cx="1323.88" cy="-494" rx="129.07" ry="18"/>
<text text-anchor="middle" x="1323.88" y="-489.32" font-family="Times,serif" font-size="14.00">typescript eslint parser</text>
</a>
</g>
</g>
<!-- eslint&#45;config&#45;standard -->
<g id="node25" class="node">
<title>eslint&#45;config&#45;standard</title>
<g id="a_node25"><a xlink:href="https://github.com/conda-forge/eslint-config-standard-feedstock" xlink:title="eslint config standard">
<ellipse fill="#35b779" stroke="black" cx="2580.88" cy="-566" rx="120.13" ry="18"/>
<text text-anchor="middle" x="2580.88" y="-561.33" font-family="Times,serif" font-size="14.00">eslint config standard</text>
</a>
</g>
</g>
<!-- esbuild -->
<g id="node26" class="node">
<title>esbuild</title>
<g id="a_node26"><a xlink:href="https://github.com/conda-forge/esbuild-feedstock/pull/29" xlink:title="esbuild ❎">
<ellipse fill="#31688e" stroke="black" cx="2580.88" cy="-494" rx="62.78" ry="18"/>
<text text-anchor="middle" x="2580.88" y="-489.32" font-family="Times,serif" font-size="14.00" fill="white">esbuild ❎</text>
</a>
</g>
</g>
<!-- eslint&#45;config&#45;standard&#45;&gt;esbuild -->
<!-- sagemaker&#45;code&#45;editor -->
<g id="node30" class="node">
<title>sagemaker&#45;code&#45;editor</title>
<g id="a_node30"><a xlink:href="https://github.com/conda-forge/sagemaker-code-editor-feedstock" xlink:title="sagemaker code editor">
<ellipse fill="#35b779" stroke="black" cx="2580.88" cy="-422" rx="125.39" ry="18"/>
<text text-anchor="middle" x="2580.88" y="-417.32" font-family="Times,serif" font-size="14.00">sagemaker code editor</text>
</a>
</g>
</g>
<!-- esbuild&#45;&gt;sagemaker&#45;code&#45;editor -->
<!-- eslint&#45;plugin&#45;react -->
<g id="node27" class="node">
<title>eslint&#45;plugin&#45;react</title>
<g id="a_node27"><a xlink:href="https://github.com/conda-forge/eslint-plugin-react-feedstock" xlink:title="eslint plugin react">
<ellipse fill="#fde725" stroke="black" cx="1082.88" cy="-18" rx="102.77" ry="18"/>
<text text-anchor="middle" x="1082.88" y="-13.32" font-family="Times,serif" font-size="14.00">eslint plugin react</text>
</a>
</g>
</g>
<!-- typescript&#45;eslint&#45;eslint&#45;plugin -->
<g id="node28" class="node">
<title>typescript&#45;eslint&#45;eslint&#45;plugin</title>
<g id="a_node28"><a xlink:href="https://github.com/conda-forge/typescript-eslint-eslint-plugin-feedstock" xlink:title="typescript eslint eslint plugin">
<ellipse fill="#fde725" stroke="black" cx="1017.88" cy="-494" rx="159.06" ry="18"/>
<text text-anchor="middle" x="1017.88" y="-489.32" font-family="Times,serif" font-size="14.00">typescript eslint eslint plugin</text>
</a>
</g>
</g>
<!-- jupyterlab_email -->
<g id="node29" class="node">
<title>jupyterlab_email</title>
<g id="a_node29"><a xlink:href="https://github.com/conda-forge/jupyterlab_email-feedstock" xlink:title="jupyterlab_email">
<ellipse fill="#fde725" stroke="black" cx="94.88" cy="-350" rx="94.88" ry="18"/>
<text text-anchor="middle" x="94.88" y="-345.32" font-family="Times,serif" font-size="14.00">jupyterlab_email</text>
</a>
</g>
</g>
<!-- npmignore -->
<g id="node31" class="node">
<title>npmignore</title>
<g id="a_node31"><a xlink:href="https://github.com/conda-forge/npmignore-feedstock" xlink:title="npmignore">
<ellipse fill="#35b779" stroke="black" cx="1082.88" cy="-90" rx="65.41" ry="18"/>
<text text-anchor="middle" x="1082.88" y="-85.33" font-family="Times,serif" font-size="14.00">npmignore</text>
</a>
</g>
</g>
<!-- npmignore&#45;&gt;eslint&#45;plugin&#45;react -->
<g id="edge16" class="edge">
<title>npmignore&#45;&gt;eslint&#45;plugin&#45;react</title>
<path fill="none" stroke="black" d="M1082.88,-71.7C1082.88,-64.41 1082.88,-55.73 1082.88,-47.54"/>
<polygon fill="black" stroke="black" points="1086.38,-47.62 1082.88,-37.62 1079.38,-47.62 1086.38,-47.62"/>
</g>
<!-- pnpm -->
<g id="node32" class="node">
<title>pnpm</title>
<g id="a_node32"><a xlink:href="https://github.com/conda-forge/pnpm-feedstock/pull/98" xlink:title="pnpm ✓">
<ellipse fill="#31688e" stroke="black" cx="1528.88" cy="-638" rx="47.53" ry="18"/>
<text text-anchor="middle" x="1528.88" y="-633.33" font-family="Times,serif" font-size="14.00" fill="white">pnpm ✓</text>
</a>
</g>
</g>
<!-- pnpm&#45;&gt;svg2png -->
<g id="edge17" class="edge">
<title>pnpm&#45;&gt;svg2png</title>
<path fill="none" stroke="black" d="M1571.28,-629.39C1623.26,-619.84 1713.93,-602.46 1790.88,-584 1887.41,-560.84 1998.83,-528.58 2061.46,-509.93"/>
<polygon fill="black" stroke="black" points="2062.16,-513.37 2070.74,-507.16 2060.16,-506.67 2062.16,-513.37"/>
</g>
<!-- pnpm&#45;&gt;jsdom -->
<g id="edge18" class="edge">
<title>pnpm&#45;&gt;jsdom</title>
<path fill="none" stroke="black" d="M1567.04,-626.83C1605.67,-616.44 1667.09,-599.65 1719.88,-584 1821.76,-553.79 1846.9,-545.11 1947.88,-512 1950.37,-511.18 1952.94,-510.33 1955.53,-509.47"/>
<polygon fill="black" stroke="black" points="1956.37,-512.88 1964.73,-506.38 1954.14,-506.24 1956.37,-512.88"/>
</g>
<!-- pnpm&#45;&gt;doccano -->
<g id="edge19" class="edge">
<title>pnpm&#45;&gt;doccano</title>
<path fill="none" stroke="black" d="M1560.83,-624.38C1587.98,-613.65 1627.99,-597.83 1662.88,-584 1725.59,-559.14 1798.14,-530.3 1843.28,-512.35"/>
<polygon fill="black" stroke="black" points="1844.46,-515.64 1852.46,-508.69 1841.87,-509.14 1844.46,-515.64"/>
</g>
<!-- pnpm&#45;&gt;gulp&#45;cli -->
<g id="edge20" class="edge">
<title>pnpm&#45;&gt;gulp&#45;cli</title>
<path fill="none" stroke="black" d="M1553.66,-622.34C1596.59,-596.93 1684.92,-544.68 1734.02,-515.62"/>
<polygon fill="black" stroke="black" points="1735.74,-518.67 1742.57,-510.57 1732.18,-512.65 1735.74,-518.67"/>
</g>
<!-- pnpm&#45;&gt;node&#45;gyp -->
<g id="edge21" class="edge">
<title>pnpm&#45;&gt;node&#45;gyp</title>
<path fill="none" stroke="black" d="M1545.91,-620.88C1556.39,-610.66 1569.87,-596.98 1580.88,-584 1598,-563.81 1615.6,-539.44 1628.16,-521.31"/>
<polygon fill="black" stroke="black" points="1630.96,-523.42 1633.73,-513.2 1625.19,-519.46 1630.96,-523.42"/>
</g>
<!-- pnpm&#45;&gt;prettier -->
<g id="edge22" class="edge">
<title>pnpm&#45;&gt;prettier</title>
<path fill="none" stroke="black" d="M1544.14,-620.78C1552.32,-610.95 1561.57,-597.7 1565.88,-584 1570.68,-568.74 1571.39,-563.02 1565.88,-548 1562.02,-537.52 1555.08,-527.69 1547.78,-519.41"/>
<polygon fill="black" stroke="black" points="1550.32,-517 1540.89,-512.17 1545.25,-521.83 1550.32,-517"/>
</g>
<!-- pnpm&#45;&gt;typescript&#45;eslint&#45;parser -->
<g id="edge23" class="edge">
<title>pnpm&#45;&gt;typescript&#45;eslint&#45;parser</title>
<path fill="none" stroke="black" d="M1486.67,-629.37C1455.19,-621.99 1412.5,-608.25 1381.88,-584 1361.26,-567.68 1345.61,-541.92 1335.8,-522.31"/>
<polygon fill="black" stroke="black" points="1339.07,-521.03 1331.6,-513.51 1332.75,-524.05 1339.07,-521.03"/>
</g>
<!-- pnpm&#45;&gt;typescript&#45;eslint&#45;eslint&#45;plugin -->
<g id="edge24" class="edge">
<title>pnpm&#45;&gt;typescript&#45;eslint&#45;eslint&#45;plugin</title>
<path fill="none" stroke="black" d="M1491.3,-626.56C1405.95,-602.84 1196.44,-544.62 1086.99,-514.21"/>
<polygon fill="black" stroke="black" points="1088.11,-510.88 1077.54,-511.58 1086.24,-517.63 1088.11,-510.88"/>
</g>
<!-- pnpm&#45;licenses -->
<g id="node33" class="node">
<title>pnpm&#45;licenses</title>
<g id="a_node33"><a xlink:href="https://github.com/conda-forge/pnpm-licenses-feedstock" xlink:title="pnpm licenses">
<ellipse fill="#fde725" stroke="black" cx="1473.88" cy="-566" rx="82.77" ry="18"/>
<text text-anchor="middle" x="1473.88" y="-561.33" font-family="Times,serif" font-size="14.00">pnpm licenses</text>
</a>
</g>
</g>
<!-- pnpm&#45;&gt;pnpm&#45;licenses -->
<g id="edge25" class="edge">
<title>pnpm&#45;&gt;pnpm&#45;licenses</title>
<path fill="none" stroke="black" d="M1515.84,-620.41C1509.36,-612.16 1501.38,-602.01 1494.13,-592.78"/>
<polygon fill="black" stroke="black" points="1497.06,-590.85 1488.13,-585.15 1491.56,-595.17 1497.06,-590.85"/>
</g>
<!-- rollup -->
<g id="node34" class="node">
<title>rollup</title>
<g id="a_node34"><a xlink:href="https://github.com/conda-forge/rollup-feedstock" xlink:title="rollup">
<ellipse fill="#fde725" stroke="black" cx="799.88" cy="-494" rx="40.69" ry="18"/>
<text text-anchor="middle" x="799.88" y="-489.32" font-family="Times,serif" font-size="14.00">rollup</text>
</a>
</g>
</g>
<!-- pnpm&#45;&gt;rollup -->
<g id="edge26" class="edge">
<title>pnpm&#45;&gt;rollup</title>
<path fill="none" stroke="black" d="M1484.23,-631.34C1374.83,-616.91 1085.11,-575.36 849.88,-512 847.13,-511.26 844.31,-510.45 841.48,-509.59"/>
<polygon fill="black" stroke="black" points="842.66,-506.3 832.07,-506.61 840.54,-512.97 842.66,-506.3"/>
</g>
<!-- markdownlint&#45;cli -->
<g id="node35" class="node">
<title>markdownlint&#45;cli</title>
<g id="a_node35"><a xlink:href="https://github.com/conda-forge/markdownlint-cli-feedstock" xlink:title="markdownlint cli">
<ellipse fill="#fde725" stroke="black" cx="645.88" cy="-494" rx="95.4" ry="18"/>
<text text-anchor="middle" x="645.88" y="-489.32" font-family="Times,serif" font-size="14.00">markdownlint cli</text>
</a>
</g>
</g>
<!-- pnpm&#45;&gt;markdownlint&#45;cli -->
<g id="edge27" class="edge">
<title>pnpm&#45;&gt;markdownlint&#45;cli</title>
<path fill="none" stroke="black" d="M1481.8,-634.35C1390.46,-628.74 1183.04,-613.65 1010.88,-584 902.81,-565.39 779.27,-532.84 707.18,-512.68"/>
<polygon fill="black" stroke="black" points="708.52,-509.43 697.95,-510.09 706.63,-516.16 708.52,-509.43"/>
</g>
<!-- playwright -->
<g id="node36" class="node">
<title>playwright</title>
<g id="a_node36"><a xlink:href="https://github.com/conda-forge/playwright-feedstock" xlink:title="playwright">
<ellipse fill="#fde725" stroke="black" cx="279.88" cy="-494" rx="65.41" ry="18"/>
<text text-anchor="middle" x="279.88" y="-489.32" font-family="Times,serif" font-size="14.00">playwright</text>
</a>
</g>
</g>
<!-- pnpm&#45;&gt;playwright -->
<g id="edge28" class="edge">
<title>pnpm&#45;&gt;playwright</title>
<path fill="none" stroke="black" d="M1481.92,-634.47C1370.91,-628.25 1083.68,-610.73 844.88,-584 625.69,-559.47 570.64,-552.72 353.88,-512 349.01,-511.09 343.97,-510.07 338.93,-509.01"/>
<polygon fill="black" stroke="black" points="339.92,-505.64 329.4,-506.95 338.43,-512.49 339.92,-505.64"/>
</g>
<!-- pnpm&#45;licenses&#45;&gt;svg2png -->
<g id="edge29" class="edge">
<title>pnpm&#45;licenses&#45;&gt;svg2png</title>
<path fill="none" stroke="black" d="M1554.79,-561.9C1666.46,-556.64 1873.78,-543.29 2047.88,-512 2052.14,-511.23 2056.54,-510.32 2060.94,-509.31"/>
<polygon fill="black" stroke="black" points="2061.44,-512.79 2070.32,-507.02 2059.78,-505.99 2061.44,-512.79"/>
</g>
<!-- pnpm&#45;licenses&#45;&gt;jsdom -->
<g id="edge30" class="edge">
<title>pnpm&#45;licenses&#45;&gt;jsdom</title>
<path fill="none" stroke="black" d="M1554.42,-561.31C1649.43,-555.73 1811.7,-542.39 1947.88,-512 1950.79,-511.35 1953.78,-510.59 1956.77,-509.75"/>
<polygon fill="black" stroke="black" points="1957.5,-513.19 1966.05,-506.93 1955.47,-506.49 1957.5,-513.19"/>
</g>
<!-- pnpm&#45;licenses&#45;&gt;doccano -->
<g id="edge31" class="edge">
<title>pnpm&#45;licenses&#45;&gt;doccano</title>
<path fill="none" stroke="black" d="M1545.8,-556.79C1617.27,-548.01 1729.78,-532.54 1825.88,-512 1829.7,-511.18 1833.64,-510.26 1837.59,-509.29"/>
<polygon fill="black" stroke="black" points="1838.39,-512.7 1847.19,-506.8 1836.63,-505.92 1838.39,-512.7"/>
</g>
<!-- pnpm&#45;licenses&#45;&gt;gulp&#45;cli -->
<g id="edge32" class="edge">
<title>pnpm&#45;licenses&#45;&gt;gulp&#45;cli</title>
<path fill="none" stroke="black" d="M1532.84,-553.08C1581.17,-543.02 1651.24,-527.77 1711.88,-512 1715.17,-511.14 1718.56,-510.23 1721.96,-509.28"/>
<polygon fill="black" stroke="black" points="1722.69,-512.71 1731.34,-506.59 1720.77,-505.98 1722.69,-512.71"/>
</g>
<!-- pnpm&#45;licenses&#45;&gt;node&#45;gyp -->
<g id="edge33" class="edge">
<title>pnpm&#45;licenses&#45;&gt;node&#45;gyp</title>
<path fill="none" stroke="black" d="M1511.62,-549.64C1538.07,-538.87 1573.53,-524.44 1601.36,-513.12"/>
<polygon fill="black" stroke="black" points="1602.66,-516.37 1610.6,-509.35 1600.02,-509.88 1602.66,-516.37"/>
</g>
<!-- pnpm&#45;licenses&#45;&gt;prettier -->
<g id="edge34" class="edge">
<title>pnpm&#45;licenses&#45;&gt;prettier</title>
<path fill="none" stroke="black" d="M1485.49,-547.7C1490.87,-539.7 1497.36,-530.02 1503.31,-521.15"/>
<polygon fill="black" stroke="black" points="1506.2,-523.13 1508.87,-512.88 1500.39,-519.23 1506.2,-523.13"/>
</g>
<!-- pnpm&#45;licenses&#45;&gt;typescript&#45;eslint&#45;parser -->
<g id="edge35" class="edge">
<title>pnpm&#45;licenses&#45;&gt;typescript&#45;eslint&#45;parser</title>
<path fill="none" stroke="black" d="M1440.21,-549.29C1419.56,-539.65 1392.82,-527.17 1370.19,-516.61"/>
<polygon fill="black" stroke="black" points="1371.69,-513.45 1361.15,-512.4 1368.73,-519.8 1371.69,-513.45"/>
</g>
<!-- pnpm&#45;licenses&#45;&gt;typescript&#45;eslint&#45;eslint&#45;plugin -->
<g id="edge36" class="edge">
<title>pnpm&#45;licenses&#45;&gt;typescript&#45;eslint&#45;eslint&#45;plugin</title>
<path fill="none" stroke="black" d="M1407.57,-554.82C1332.32,-543.27 1208.65,-524.29 1120.82,-510.8"/>
<polygon fill="black" stroke="black" points="1121.4,-507.35 1110.99,-509.29 1120.34,-514.27 1121.4,-507.35"/>
</g>
<!-- pnpm&#45;licenses&#45;&gt;rollup -->
<g id="edge37" class="edge">
<title>pnpm&#45;licenses&#45;&gt;rollup</title>
<path fill="none" stroke="black" d="M1394.41,-560.66C1250.4,-552.4 951.77,-533.32 849.88,-512 846.91,-511.38 843.87,-510.63 840.83,-509.81"/>
<polygon fill="black" stroke="black" points="841.99,-506.5 831.4,-506.98 839.97,-513.21 841.99,-506.5"/>
</g>
<!-- pnpm&#45;licenses&#45;&gt;markdownlint&#45;cli -->
<g id="edge38" class="edge">
<title>pnpm&#45;licenses&#45;&gt;markdownlint&#45;cli</title>
<path fill="none" stroke="black" d="M1393.3,-561.45C1259.38,-555.01 982.67,-539.49 749.88,-512 741.82,-511.05 733.43,-509.92 725.07,-508.7"/>
<polygon fill="black" stroke="black" points="725.63,-505.24 715.22,-507.21 724.59,-512.16 725.63,-505.24"/>
</g>
<!-- pnpm&#45;licenses&#45;&gt;playwright -->
<g id="edge39" class="edge">
<title>pnpm&#45;licenses&#45;&gt;playwright</title>
<path fill="none" stroke="black" d="M1392.07,-563.03C1169.2,-557.34 554.56,-539.57 353.88,-512 348.52,-511.26 342.99,-510.33 337.47,-509.28"/>
<polygon fill="black" stroke="black" points="338.2,-505.85 327.7,-507.28 336.8,-512.71 338.2,-505.85"/>
</g>
<!-- playwright&#45;&gt;jupyterlab_templates -->
<g id="edge40" class="edge">
<title>playwright&#45;&gt;jupyterlab_templates</title>
<path fill="none" stroke="black" d="M270.19,-476.05C265.74,-468.26 260.34,-458.82 255.35,-450.08"/>
<polygon fill="black" stroke="black" points="258.5,-448.54 250.5,-441.59 252.42,-452.01 258.5,-448.54"/>
</g>
<!-- playwright&#45;&gt;perspective_parquet -->
<g id="edge41" class="edge">
<title>playwright&#45;&gt;perspective_parquet</title>
<path fill="none" stroke="black" d="M320.17,-479.5C351.67,-468.95 395.87,-454.15 431.13,-442.34"/>
<polygon fill="black" stroke="black" points="431.95,-445.76 440.32,-439.26 429.73,-439.12 431.95,-445.76"/>
</g>
<!-- playwright&#45;&gt;jupyterlab_email -->
<g id="edge42" class="edge">
<title>playwright&#45;&gt;jupyterlab_email</title>
<path fill="none" stroke="black" d="M217.6,-488.24C182.35,-482.26 140.18,-469.04 113.88,-440 99.19,-423.79 94.83,-399.07 93.92,-379.8"/>
<polygon fill="black" stroke="black" points="97.43,-379.8 93.77,-369.86 90.43,-379.91 97.43,-379.8"/>
</g>
</g>
</svg>
