<?xml version="1.0" encoding="UTF-8" standalone="no"?>
<!DOCTYPE svg PUBLIC "-//W3C//DTD SVG 1.1//EN"
 "http://www.w3.org/Graphics/SVG/1.1/DTD/svg11.dtd">
<!-- Generated by graphviz version 11.0.0 (20240519.1550)
 -->
<!-- Pages: 1 -->
<svg width="1663pt" height="620pt"
 viewBox="0.00 0.00 1662.93 620.00" xmlns="http://www.w3.org/2000/svg" xmlns:xlink="http://www.w3.org/1999/xlink">
<g id="graph0" class="graph" transform="scale(1 1) rotate(0) translate(4 616)">
<polygon fill="white" stroke="none" points="-4,4 -4,-616 1658.93,-616 1658.93,4 -4,4"/>
<!-- svg2png -->
<g id="node1" class="node">
<title>svg2png</title>
<g id="a_node1"><a xlink:href="https://github.com/conda-forge/svg2png-feedstock" xlink:title="svg2png">
<ellipse fill="#fde725" stroke="black" cx="53.84" cy="-450" rx="53.84" ry="18"/>
<text text-anchor="middle" x="53.84" y="-445.32" font-family="Times,serif" font-size="14.00">svg2png</text>
</a>
</g>
</g>
<!-- jsdom -->
<g id="node2" class="node">
<title>jsdom</title>
<g id="a_node2"><a xlink:href="https://github.com/conda-forge/jsdom-feedstock" xlink:title="jsdom">
<ellipse fill="#fde725" stroke="black" cx="119.84" cy="-378" rx="41.21" ry="18"/>
<text text-anchor="middle" x="119.84" y="-373.32" font-family="Times,serif" font-size="14.00">jsdom</text>
</a>
</g>
</g>
<!-- vega&#45;cli -->
<g id="node3" class="node">
<title>vega&#45;cli</title>
<g id="a_node3"><a xlink:href="https://github.com/conda-forge/vega-cli-feedstock/pull/35" xlink:title="vega cli ❎">
<ellipse fill="#31688e" stroke="black" cx="1585.84" cy="-342" rx="64.89" ry="18"/>
<text text-anchor="middle" x="1585.84" y="-337.32" font-family="Times,serif" font-size="14.00" fill="white">vega cli ❎</text>
</a>
</g>
</g>
<!-- vega&#45;lite&#45;cli -->
<g id="node4" class="node">
<title>vega&#45;lite&#45;cli</title>
<g id="a_node4"><a xlink:href="https://github.com/conda-forge/vega-lite-cli-feedstock" xlink:title="vega lite cli">
<ellipse fill="#fde725" stroke="black" cx="1585.84" cy="-270" rx="69.1" ry="18"/>
<text text-anchor="middle" x="1585.84" y="-265.32" font-family="Times,serif" font-size="14.00">vega lite cli</text>
</a>
</g>
</g>
<!-- vega&#45;cli&#45;&gt;vega&#45;lite&#45;cli -->
<g id="edge1" class="edge">
<title>vega&#45;cli&#45;&gt;vega&#45;lite&#45;cli</title>
<path fill="none" stroke="black" d="M1585.84,-323.7C1585.84,-316.41 1585.84,-307.73 1585.84,-299.54"/>
<polygon fill="black" stroke="black" points="1589.34,-299.62 1585.84,-289.62 1582.34,-299.62 1589.34,-299.62"/>
</g>
<!-- plotly&#45;orca -->
<g id="node5" class="node">
<title>plotly&#45;orca</title>
<g id="a_node5"><a xlink:href="https://github.com/conda-forge/plotly-orca-feedstock/pull/21" xlink:title="plotly orca ❎">
<ellipse fill="#31688e" stroke="black" cx="1367.84" cy="-594" rx="79.62" ry="18"/>
<text text-anchor="middle" x="1367.84" y="-589.33" font-family="Times,serif" font-size="14.00" fill="white">plotly orca ❎</text>
</a>
</g>
</g>
<!-- emscripten -->
<g id="node6" class="node">
<title>emscripten</title>
<g id="a_node6"><a xlink:href="https://github.com/conda-forge/emscripten-feedstock/pull/26" xlink:title="emscripten ❎">
<ellipse fill="#31688e" stroke="black" cx="1367.84" cy="-522" rx="82.77" ry="18"/>
<text text-anchor="middle" x="1367.84" y="-517.33" font-family="Times,serif" font-size="14.00" fill="white">emscripten ❎</text>
</a>
</g>
</g>
<!-- plotly&#45;orca&#45;&gt;emscripten -->
<!-- ray&#45;packages -->
<g id="node9" class="node">
<title>ray&#45;packages</title>
<g id="a_node9"><a xlink:href="https://github.com/conda-forge/ray-packages-feedstock/pull/168" xlink:title="ray packages ✓">
<ellipse fill="#31688e" stroke="black" cx="1367.84" cy="-450" rx="84.88" ry="18"/>
<text text-anchor="middle" x="1367.84" y="-445.32" font-family="Times,serif" font-size="14.00" fill="white">ray packages ✓</text>
</a>
</g>
</g>
<!-- emscripten&#45;&gt;ray&#45;packages -->
<!-- jupyterlab_templates -->
<g id="node7" class="node">
<title>jupyterlab_templates</title>
<g id="a_node7"><a xlink:href="https://github.com/conda-forge/jupyterlab_templates-feedstock" xlink:title="jupyterlab_templates">
<ellipse fill="#fde725" stroke="black" cx="836.84" cy="-378" rx="117.5" ry="18"/>
<text text-anchor="middle" x="836.84" y="-373.32" font-family="Times,serif" font-size="14.00">jupyterlab_templates</text>
</a>
</g>
</g>
<!-- doccano -->
<g id="node8" class="node">
<title>doccano</title>
<g id="a_node8"><a xlink:href="https://github.com/conda-forge/doccano-feedstock" xlink:title="doccano">
<ellipse fill="#fde725" stroke="black" cx="146.84" cy="-306" rx="51.74" ry="18"/>
<text text-anchor="middle" x="146.84" y="-301.32" font-family="Times,serif" font-size="14.00">doccano</text>
</a>
</g>
</g>
<!-- eslint -->
<g id="node10" class="node">
<title>eslint</title>
<g id="a_node10"><a xlink:href="https://github.com/conda-forge/eslint-feedstock/pull/62" xlink:title="eslint ✓">
<ellipse fill="#31688e" stroke="black" cx="1367.84" cy="-378" rx="47" ry="18"/>
<text text-anchor="middle" x="1367.84" y="-373.32" font-family="Times,serif" font-size="14.00" fill="white">eslint ✓</text>
</a>
</g>
</g>
<!-- ray&#45;packages&#45;&gt;eslint -->
<!-- eslint&#45;config&#45;prettier -->
<g id="node15" class="node">
<title>eslint&#45;config&#45;prettier</title>
<g id="a_node15"><a xlink:href="https://github.com/conda-forge/eslint-config-prettier-feedstock/pull/12" xlink:title="eslint config prettier ✓">
<ellipse fill="#31688e" stroke="black" cx="1367.84" cy="-306" rx="122.23" ry="18"/>
<text text-anchor="middle" x="1367.84" y="-301.32" font-family="Times,serif" font-size="14.00" fill="white">eslint config prettier ✓</text>
</a>
</g>
</g>
<!-- eslint&#45;&gt;eslint&#45;config&#45;prettier -->
<!-- gulp&#45;cli -->
<g id="node11" class="node">
<title>gulp&#45;cli</title>
<g id="a_node11"><a xlink:href="https://github.com/conda-forge/gulp-cli-feedstock" xlink:title="gulp cli">
<ellipse fill="#fde725" stroke="black" cx="188.84" cy="-234" rx="48.05" ry="18"/>
<text text-anchor="middle" x="188.84" y="-229.32" font-family="Times,serif" font-size="14.00">gulp cli</text>
</a>
</g>
</g>
<!-- node&#45;gyp -->
<g id="node12" class="node">
<title>node&#45;gyp</title>
<g id="a_node12"><a xlink:href="https://github.com/conda-forge/node-gyp-feedstock" xlink:title="node gyp">
<ellipse fill="#fde725" stroke="black" cx="264.84" cy="-162" rx="57" ry="18"/>
<text text-anchor="middle" x="264.84" y="-157.32" font-family="Times,serif" font-size="14.00">node gyp</text>
</a>
</g>
</g>
<!-- parceljs -->
<g id="node13" class="node">
<title>parceljs</title>
<g id="a_node13"><a xlink:href="https://github.com/conda-forge/parceljs-feedstock" xlink:title="parceljs">
<ellipse fill="#fde725" stroke="black" cx="264.84" cy="-90" rx="50.68" ry="18"/>
<text text-anchor="middle" x="264.84" y="-85.33" font-family="Times,serif" font-size="14.00">parceljs</text>
</a>
</g>
</g>
<!-- node&#45;gyp&#45;&gt;parceljs -->
<g id="edge5" class="edge">
<title>node&#45;gyp&#45;&gt;parceljs</title>
<path fill="none" stroke="black" d="M264.84,-143.7C264.84,-136.41 264.84,-127.73 264.84,-119.54"/>
<polygon fill="black" stroke="black" points="268.34,-119.62 264.84,-109.62 261.34,-119.62 268.34,-119.62"/>
</g>
<!-- prettier -->
<g id="node14" class="node">
<title>prettier</title>
<g id="a_node14"><a xlink:href="https://github.com/conda-forge/prettier-feedstock" xlink:title="prettier">
<ellipse fill="#fde725" stroke="black" cx="342.84" cy="-450" rx="50.16" ry="18"/>
<text text-anchor="middle" x="342.84" y="-445.32" font-family="Times,serif" font-size="14.00">prettier</text>
</a>
</g>
</g>
<!-- eslint&#45;plugin&#45;prettier -->
<g id="node17" class="node">
<title>eslint&#45;plugin&#45;prettier</title>
<g id="a_node17"><a xlink:href="https://github.com/conda-forge/eslint-plugin-prettier-feedstock/pull/13" xlink:title="eslint plugin prettier ✓">
<ellipse fill="#31688e" stroke="black" cx="1367.84" cy="-234" rx="123.81" ry="18"/>
<text text-anchor="middle" x="1367.84" y="-229.32" font-family="Times,serif" font-size="14.00" fill="white">eslint plugin prettier ✓</text>
</a>
</g>
</g>
<!-- eslint&#45;config&#45;prettier&#45;&gt;eslint&#45;plugin&#45;prettier -->
<!-- typescript&#45;eslint&#45;parser -->
<g id="node16" class="node">
<title>typescript&#45;eslint&#45;parser</title>
<g id="a_node16"><a xlink:href="https://github.com/conda-forge/typescript-eslint-parser-feedstock" xlink:title="typescript eslint parser">
<ellipse fill="#fde725" stroke="black" cx="421.84" cy="-378" rx="129.07" ry="18"/>
<text text-anchor="middle" x="421.84" y="-373.32" font-family="Times,serif" font-size="14.00">typescript eslint parser</text>
</a>
</g>
</g>
<!-- eslint&#45;plugin&#45;react -->
<g id="node18" class="node">
<title>eslint&#45;plugin&#45;react</title>
<g id="a_node18"><a xlink:href="https://github.com/conda-forge/eslint-plugin-react-feedstock" xlink:title="eslint plugin react">
<ellipse fill="#35b779" stroke="black" cx="1367.84" cy="-162" rx="102.77" ry="18"/>
<text text-anchor="middle" x="1367.84" y="-157.32" font-family="Times,serif" font-size="14.00">eslint plugin react</text>
</a>
</g>
</g>
<!-- eslint&#45;plugin&#45;prettier&#45;&gt;eslint&#45;plugin&#45;react -->
<!-- esbuild -->
<g id="node19" class="node">
<title>esbuild</title>
<g id="a_node19"><a xlink:href="https://github.com/conda-forge/esbuild-feedstock/pull/29" xlink:title="esbuild ✓">
<ellipse fill="#31688e" stroke="black" cx="1367.84" cy="-90" rx="55.42" ry="18"/>
<text text-anchor="middle" x="1367.84" y="-85.33" font-family="Times,serif" font-size="14.00" fill="white">esbuild ✓</text>
</a>
</g>
</g>
<!-- eslint&#45;plugin&#45;react&#45;&gt;esbuild -->
<!-- sagemaker&#45;code&#45;editor -->
<g id="node22" class="node">
<title>sagemaker&#45;code&#45;editor</title>
<g id="a_node22"><a xlink:href="https://github.com/conda-forge/sagemaker-code-editor-feedstock/pull/28" xlink:title="sagemaker code editor ❎">
<ellipse fill="#31688e" stroke="black" cx="1367.84" cy="-18" rx="140.65" ry="18"/>
<text text-anchor="middle" x="1367.84" y="-13.32" font-family="Times,serif" font-size="14.00" fill="white">sagemaker code editor ❎</text>
</a>
</g>
</g>
<!-- esbuild&#45;&gt;sagemaker&#45;code&#45;editor -->
<!-- typescript&#45;eslint&#45;eslint&#45;plugin -->
<g id="node20" class="node">
<title>typescript&#45;eslint&#45;eslint&#45;plugin</title>
<g id="a_node20"><a xlink:href="https://github.com/conda-forge/typescript-eslint-eslint-plugin-feedstock" xlink:title="typescript eslint eslint plugin">
<ellipse fill="#fde725" stroke="black" cx="451.84" cy="-306" rx="159.06" ry="18"/>
<text text-anchor="middle" x="451.84" y="-301.32" font-family="Times,serif" font-size="14.00">typescript eslint eslint plugin</text>
</a>
</g>
</g>
<!-- jupyterlab_email -->
<g id="node21" class="node">
<title>jupyterlab_email</title>
<g id="a_node21"><a xlink:href="https://github.com/conda-forge/jupyterlab_email-feedstock" xlink:title="jupyterlab_email">
<ellipse fill="#fde725" stroke="black" cx="981.84" cy="-306" rx="94.88" ry="18"/>
<text text-anchor="middle" x="981.84" y="-301.32" font-family="Times,serif" font-size="14.00">jupyterlab_email</text>
</a>
</g>
</g>
<!-- perspective_parquet -->
<g id="node23" class="node">
<title>perspective_parquet</title>
<g id="a_node23"><a xlink:href="https://github.com/conda-forge/perspective_parquet-feedstock" xlink:title="perspective_parquet">
<ellipse fill="#fde725" stroke="black" cx="1104.84" cy="-234" rx="113.82" ry="18"/>
<text text-anchor="middle" x="1104.84" y="-229.32" font-family="Times,serif" font-size="14.00">perspective_parquet</text>
</a>
</g>
</g>
<!-- pnpm&#45;licenses -->
<g id="node24" class="node">
<title>pnpm&#45;licenses</title>
<g id="a_node24"><a xlink:href="https://github.com/conda-forge/pnpm-licenses-feedstock" xlink:title="pnpm licenses">
<ellipse fill="#35b779" stroke="black" cx="342.84" cy="-522" rx="82.77" ry="18"/>
<text text-anchor="middle" x="342.84" y="-517.33" font-family="Times,serif" font-size="14.00">pnpm licenses</text>
</a>
</g>
</g>
<!-- pnpm&#45;licenses&#45;&gt;svg2png -->
<g id="edge11" class="edge">
<title>pnpm&#45;licenses&#45;&gt;svg2png</title>
<path fill="none" stroke="black" d="M288.31,-508.08C243.56,-497.43 178.56,-481.89 121.84,-468 116.99,-466.81 111.94,-465.57 106.89,-464.32"/>
<polygon fill="black" stroke="black" points="107.92,-460.96 97.37,-461.95 106.23,-467.76 107.92,-460.96"/>
</g>
<!-- pnpm&#45;licenses&#45;&gt;jsdom -->
<g id="edge12" class="edge">
<title>pnpm&#45;licenses&#45;&gt;jsdom</title>
<path fill="none" stroke="black" d="M275.91,-511.2C242.85,-503.71 203.92,-490.64 174.84,-468 154.37,-452.07 139.63,-426.23 130.59,-406.48"/>
<polygon fill="black" stroke="black" points="133.82,-405.14 126.64,-397.35 127.4,-407.92 133.82,-405.14"/>
</g>
<!-- pnpm&#45;licenses&#45;&gt;doccano -->
<g id="edge13" class="edge">
<title>pnpm&#45;licenses&#45;&gt;doccano</title>
<path fill="none" stroke="black" d="M285.93,-508.59C260.81,-500.62 232.58,-487.9 212.84,-468 176.46,-431.32 189.68,-407.7 169.84,-360 166.4,-351.72 162.55,-342.77 159.01,-334.61"/>
<polygon fill="black" stroke="black" points="162.25,-333.28 155.04,-325.52 155.83,-336.08 162.25,-333.28"/>
</g>
<!-- pnpm&#45;licenses&#45;&gt;gulp&#45;cli -->
<g id="edge14" class="edge">
<title>pnpm&#45;licenses&#45;&gt;gulp&#45;cli</title>
<path fill="none" stroke="black" d="M301.87,-506.16C283.72,-497.62 263.63,-485.13 250.84,-468 201.63,-402.09 231.31,-366.83 207.84,-288 205.37,-279.72 202.35,-270.84 199.44,-262.77"/>
<polygon fill="black" stroke="black" points="202.75,-261.62 196,-253.45 196.18,-264.04 202.75,-261.62"/>
</g>
<!-- pnpm&#45;licenses&#45;&gt;node&#45;gyp -->
<g id="edge15" class="edge">
<title>pnpm&#45;licenses&#45;&gt;node&#45;gyp</title>
<path fill="none" stroke="black" d="M317.88,-504.36C305.82,-495.05 292.18,-482.42 283.84,-468 263.58,-432.99 264.84,-419.45 264.84,-379 264.84,-379 264.84,-379 264.84,-305 264.84,-265.74 264.84,-220.38 264.84,-191.69"/>
<polygon fill="black" stroke="black" points="268.34,-192 264.84,-182 261.34,-192 268.34,-192"/>
</g>
<!-- pnpm&#45;licenses&#45;&gt;prettier -->
<g id="edge16" class="edge">
<title>pnpm&#45;licenses&#45;&gt;prettier</title>
<path fill="none" stroke="black" d="M342.84,-503.7C342.84,-496.41 342.84,-487.73 342.84,-479.54"/>
<polygon fill="black" stroke="black" points="346.34,-479.62 342.84,-469.62 339.34,-479.62 346.34,-479.62"/>
</g>
<!-- pnpm&#45;licenses&#45;&gt;typescript&#45;eslint&#45;parser -->
<g id="edge17" class="edge">
<title>pnpm&#45;licenses&#45;&gt;typescript&#45;eslint&#45;parser</title>
<path fill="none" stroke="black" d="M367.43,-504.55C379.55,-495.21 393.35,-482.49 401.84,-468 412.62,-449.59 417.6,-425.92 419.89,-407.61"/>
<polygon fill="black" stroke="black" points="423.36,-408.01 420.91,-397.7 416.4,-407.29 423.36,-408.01"/>
</g>
<!-- pnpm&#45;licenses&#45;&gt;typescript&#45;eslint&#45;eslint&#45;plugin -->
<g id="edge18" class="edge">
<title>pnpm&#45;licenses&#45;&gt;typescript&#45;eslint&#45;eslint&#45;plugin</title>
<path fill="none" stroke="black" d="M394.39,-507.64C446.58,-491.05 524.48,-457.17 559.84,-396 567.85,-382.15 568.3,-373.58 559.84,-360 551.13,-346.03 537.55,-335.64 522.92,-327.95"/>
<polygon fill="black" stroke="black" points="524.57,-324.85 514.04,-323.69 521.55,-331.17 524.57,-324.85"/>
</g>
<!-- rollup -->
<g id="node25" class="node">
<title>rollup</title>
<g id="a_node25"><a xlink:href="https://github.com/conda-forge/rollup-feedstock" xlink:title="rollup">
<ellipse fill="#fde725" stroke="black" cx="622.84" cy="-234" rx="40.69" ry="18"/>
<text text-anchor="middle" x="622.84" y="-229.32" font-family="Times,serif" font-size="14.00">rollup</text>
</a>
</g>
</g>
<!-- pnpm&#45;licenses&#45;&gt;rollup -->
<g id="edge19" class="edge">
<title>pnpm&#45;licenses&#45;&gt;rollup</title>
<path fill="none" stroke="black" d="M411.4,-511.62C447.31,-504.18 490.6,-491.04 523.84,-468 587.06,-424.18 598.52,-397.9 619.84,-324 625.48,-304.45 626.11,-281.47 625.4,-263.76"/>
<polygon fill="black" stroke="black" points="628.9,-263.74 624.82,-253.96 621.91,-264.15 628.9,-263.74"/>
</g>
<!-- markdownlint&#45;cli -->
<g id="node26" class="node">
<title>markdownlint&#45;cli</title>
<g id="a_node26"><a xlink:href="https://github.com/conda-forge/markdownlint-cli-feedstock" xlink:title="markdownlint cli">
<ellipse fill="#fde725" stroke="black" cx="691.84" cy="-162" rx="95.4" ry="18"/>
<text text-anchor="middle" x="691.84" y="-157.32" font-family="Times,serif" font-size="14.00">markdownlint cli</text>
</a>
</g>
</g>
<!-- pnpm&#45;licenses&#45;&gt;markdownlint&#45;cli -->
<g id="edge20" class="edge">
<title>pnpm&#45;licenses&#45;&gt;markdownlint&#45;cli</title>
<path fill="none" stroke="black" d="M403.23,-509.36C503.12,-488.37 691.84,-440.57 691.84,-379 691.84,-379 691.84,-379 691.84,-305 691.84,-265.74 691.84,-220.38 691.84,-191.69"/>
<polygon fill="black" stroke="black" points="695.34,-192 691.84,-182 688.34,-192 695.34,-192"/>
</g>
<!-- playwright -->
<g id="node27" class="node">
<title>playwright</title>
<g id="a_node27"><a xlink:href="https://github.com/conda-forge/playwright-feedstock" xlink:title="playwright">
<ellipse fill="#fde725" stroke="black" cx="908.84" cy="-450" rx="65.41" ry="18"/>
<text text-anchor="middle" x="908.84" y="-445.32" font-family="Times,serif" font-size="14.00">playwright</text>
</a>
</g>
</g>
<!-- pnpm&#45;licenses&#45;&gt;playwright -->
<g id="edge21" class="edge">
<title>pnpm&#45;licenses&#45;&gt;playwright</title>
<path fill="none" stroke="black" d="M413.38,-512.28C522.43,-498.79 730.65,-473.04 839.17,-459.62"/>
<polygon fill="black" stroke="black" points="839.31,-463.13 848.8,-458.42 838.45,-456.18 839.31,-463.13"/>
</g>
<!-- playwright&#45;&gt;jupyterlab_templates -->
<g id="edge22" class="edge">
<title>playwright&#45;&gt;jupyterlab_templates</title>
<path fill="none" stroke="black" d="M891.78,-432.41C883.09,-423.97 872.35,-413.53 862.68,-404.12"/>
<polygon fill="black" stroke="black" points="865.23,-401.72 855.62,-397.26 860.35,-406.74 865.23,-401.72"/>
</g>
<!-- playwright&#45;&gt;jupyterlab_email -->
<g id="edge23" class="edge">
<title>playwright&#45;&gt;jupyterlab_email</title>
<path fill="none" stroke="black" d="M930.85,-432.64C942.08,-423.16 954.99,-410.27 962.84,-396 973.03,-377.46 977.76,-353.97 979.95,-335.78"/>
<polygon fill="black" stroke="black" points="983.42,-336.23 980.93,-325.93 976.46,-335.53 983.42,-336.23"/>
</g>
<!-- playwright&#45;&gt;perspective_parquet -->
<g id="edge24" class="edge">
<title>playwright&#45;&gt;perspective_parquet</title>
<path fill="none" stroke="black" d="M943.06,-434.4C983.73,-415.21 1050.52,-377.54 1085.84,-324 1097.61,-306.15 1102.25,-282.29 1104,-263.78"/>
<polygon fill="black" stroke="black" points="1107.48,-264.22 1104.68,-254 1100.5,-263.74 1107.48,-264.22"/>
</g>
</g>
</svg>
