<?xml version="1.0" encoding="UTF-8" standalone="no"?>
<!DOCTYPE svg PUBLIC "-//W3C//DTD SVG 1.1//EN"
 "http://www.w3.org/Graphics/SVG/1.1/DTD/svg11.dtd">
<!-- Generated by graphviz version 11.0.0 (20240519.1550)
 -->
<!-- Pages: 1 -->
<svg width="2514pt" height="880pt"
 viewBox="0.00 0.00 2514.46 880.00" xmlns="http://www.w3.org/2000/svg" xmlns:xlink="http://www.w3.org/1999/xlink">
<g id="graph0" class="graph" transform="scale(1 1) rotate(0) translate(4 876)">
<polygon fill="white" stroke="none" points="-4,4 -4,-876 2510.46,-876 2510.46,4 -4,4"/>
<!-- configurable&#45;http&#45;proxy -->
<g id="node1" class="node">
<title>configurable&#45;http&#45;proxy</title>
<g id="a_node1"><a xlink:href="https://github.com/conda-forge/configurable-http-proxy-feedstock/pull/65" xlink:title="configurable http proxy ✓">
<ellipse fill="#31688e" stroke="black" cx="2079.82" cy="-854" rx="136.97" ry="18"/>
<text text-anchor="middle" x="2079.82" y="-849.33" font-family="Times,serif" font-size="14.00" fill="white">configurable http proxy ✓</text>
</a>
</g>
</g>
<!-- plotly&#45;orca -->
<g id="node2" class="node">
<title>plotly&#45;orca</title>
<g id="a_node2"><a xlink:href="https://github.com/conda-forge/plotly-orca-feedstock/pull/21" xlink:title="plotly orca ❎">
<ellipse fill="#31688e" stroke="black" cx="2079.82" cy="-782" rx="79.62" ry="18"/>
<text text-anchor="middle" x="2079.82" y="-777.33" font-family="Times,serif" font-size="14.00" fill="white">plotly orca ❎</text>
</a>
</g>
</g>
<!-- configurable&#45;http&#45;proxy&#45;&gt;plotly&#45;orca -->
<!-- emscripten -->
<g id="node7" class="node">
<title>emscripten</title>
<g id="a_node7"><a xlink:href="https://github.com/conda-forge/emscripten-feedstock" xlink:title="emscripten">
<ellipse fill="#35b779" stroke="black" cx="2079.82" cy="-710" rx="67.52" ry="18"/>
<text text-anchor="middle" x="2079.82" y="-705.33" font-family="Times,serif" font-size="14.00">emscripten</text>
</a>
</g>
</g>
<!-- plotly&#45;orca&#45;&gt;emscripten -->
<!-- svg2png -->
<g id="node3" class="node">
<title>svg2png</title>
<g id="a_node3"><a xlink:href="https://github.com/conda-forge/svg2png-feedstock" xlink:title="svg2png">
<ellipse fill="#fde725" stroke="black" cx="1880.82" cy="-530" rx="53.84" ry="18"/>
<text text-anchor="middle" x="1880.82" y="-525.33" font-family="Times,serif" font-size="14.00">svg2png</text>
</a>
</g>
</g>
<!-- jsdom -->
<g id="node4" class="node">
<title>jsdom</title>
<g id="a_node4"><a xlink:href="https://github.com/conda-forge/jsdom-feedstock" xlink:title="jsdom">
<ellipse fill="#fde725" stroke="black" cx="1767.82" cy="-530" rx="41.21" ry="18"/>
<text text-anchor="middle" x="1767.82" y="-525.33" font-family="Times,serif" font-size="14.00">jsdom</text>
</a>
</g>
</g>
<!-- vega&#45;cli -->
<g id="node5" class="node">
<title>vega&#45;cli</title>
<g id="a_node5"><a xlink:href="https://github.com/conda-forge/vega-cli-feedstock/pull/35" xlink:title="vega cli ❎">
<ellipse fill="#31688e" stroke="black" cx="2079.82" cy="-90" rx="64.89" ry="18"/>
<text text-anchor="middle" x="2079.82" y="-85.33" font-family="Times,serif" font-size="14.00" fill="white">vega cli ❎</text>
</a>
</g>
</g>
<!-- vega&#45;lite&#45;cli -->
<g id="node6" class="node">
<title>vega&#45;lite&#45;cli</title>
<g id="a_node6"><a xlink:href="https://github.com/conda-forge/vega-lite-cli-feedstock" xlink:title="vega lite cli">
<ellipse fill="#fde725" stroke="black" cx="2079.82" cy="-18" rx="69.1" ry="18"/>
<text text-anchor="middle" x="2079.82" y="-13.32" font-family="Times,serif" font-size="14.00">vega lite cli</text>
</a>
</g>
</g>
<!-- vega&#45;cli&#45;&gt;vega&#45;lite&#45;cli -->
<g id="edge2" class="edge">
<title>vega&#45;cli&#45;&gt;vega&#45;lite&#45;cli</title>
<path fill="none" stroke="black" d="M2079.82,-71.7C2079.82,-64.41 2079.82,-55.73 2079.82,-47.54"/>
<polygon fill="black" stroke="black" points="2083.32,-47.62 2079.82,-37.62 2076.32,-47.62 2083.32,-47.62"/>
</g>
<!-- ray&#45;packages -->
<g id="node10" class="node">
<title>ray&#45;packages</title>
<g id="a_node10"><a xlink:href="https://github.com/conda-forge/ray-packages-feedstock/pull/168" xlink:title="ray packages ✓">
<ellipse fill="#31688e" stroke="black" cx="2079.82" cy="-638" rx="84.88" ry="18"/>
<text text-anchor="middle" x="2079.82" y="-633.33" font-family="Times,serif" font-size="14.00" fill="white">ray packages ✓</text>
</a>
</g>
</g>
<!-- emscripten&#45;&gt;ray&#45;packages -->
<!-- jupyterlab_templates -->
<g id="node8" class="node">
<title>jupyterlab_templates</title>
<g id="a_node8"><a xlink:href="https://github.com/conda-forge/jupyterlab_templates-feedstock" xlink:title="jupyterlab_templates">
<ellipse fill="#fde725" stroke="black" cx="381.82" cy="-458" rx="117.5" ry="18"/>
<text text-anchor="middle" x="381.82" y="-453.32" font-family="Times,serif" font-size="14.00">jupyterlab_templates</text>
</a>
</g>
</g>
<!-- doccano -->
<g id="node9" class="node">
<title>doccano</title>
<g id="a_node9"><a xlink:href="https://github.com/conda-forge/doccano-feedstock" xlink:title="doccano">
<ellipse fill="#fde725" stroke="black" cx="1656.82" cy="-530" rx="51.74" ry="18"/>
<text text-anchor="middle" x="1656.82" y="-525.33" font-family="Times,serif" font-size="14.00">doccano</text>
</a>
</g>
</g>
<!-- vsce -->
<g id="node11" class="node">
<title>vsce</title>
<g id="a_node11"><a xlink:href="https://github.com/conda-forge/vsce-feedstock/pull/64" xlink:title="vsce ✓">
<ellipse fill="#31688e" stroke="black" cx="2079.82" cy="-566" rx="41.21" ry="18"/>
<text text-anchor="middle" x="2079.82" y="-561.33" font-family="Times,serif" font-size="14.00" fill="white">vsce ✓</text>
</a>
</g>
</g>
<!-- ray&#45;packages&#45;&gt;vsce -->
<!-- gtop -->
<g id="node13" class="node">
<title>gtop</title>
<g id="a_node13"><a xlink:href="https://github.com/conda-forge/gtop-feedstock" xlink:title="gtop">
<ellipse fill="#35b779" stroke="black" cx="2079.82" cy="-494" rx="33.85" ry="18"/>
<text text-anchor="middle" x="2079.82" y="-489.32" font-family="Times,serif" font-size="14.00">gtop</text>
</a>
</g>
</g>
<!-- vsce&#45;&gt;gtop -->
<!-- gulp&#45;cli -->
<g id="node12" class="node">
<title>gulp&#45;cli</title>
<g id="a_node12"><a xlink:href="https://github.com/conda-forge/gulp-cli-feedstock" xlink:title="gulp cli">
<ellipse fill="#fde725" stroke="black" cx="1538.82" cy="-530" rx="48.05" ry="18"/>
<text text-anchor="middle" x="1538.82" y="-525.33" font-family="Times,serif" font-size="14.00">gulp cli</text>
</a>
</g>
</g>
<!-- ui5&#45;cli -->
<g id="node17" class="node">
<title>ui5&#45;cli</title>
<g id="a_node17"><a xlink:href="https://github.com/conda-forge/ui5-cli-feedstock/pull/50" xlink:title="ui5 cli ✓">
<ellipse fill="#31688e" stroke="black" cx="2079.82" cy="-422" rx="49.63" ry="18"/>
<text text-anchor="middle" x="2079.82" y="-417.32" font-family="Times,serif" font-size="14.00" fill="white">ui5 cli ✓</text>
</a>
</g>
</g>
<!-- gtop&#45;&gt;ui5&#45;cli -->
<!-- node&#45;gyp -->
<g id="node14" class="node">
<title>node&#45;gyp</title>
<g id="a_node14"><a xlink:href="https://github.com/conda-forge/node-gyp-feedstock" xlink:title="node gyp">
<ellipse fill="#fde725" stroke="black" cx="1415.82" cy="-530" rx="57" ry="18"/>
<text text-anchor="middle" x="1415.82" y="-525.33" font-family="Times,serif" font-size="14.00">node gyp</text>
</a>
</g>
</g>
<!-- parceljs -->
<g id="node15" class="node">
<title>parceljs</title>
<g id="a_node15"><a xlink:href="https://github.com/conda-forge/parceljs-feedstock" xlink:title="parceljs">
<ellipse fill="#fde725" stroke="black" cx="1415.82" cy="-458" rx="50.68" ry="18"/>
<text text-anchor="middle" x="1415.82" y="-453.32" font-family="Times,serif" font-size="14.00">parceljs</text>
</a>
</g>
</g>
<!-- node&#45;gyp&#45;&gt;parceljs -->
<g id="edge7" class="edge">
<title>node&#45;gyp&#45;&gt;parceljs</title>
<path fill="none" stroke="black" d="M1415.82,-511.7C1415.82,-504.41 1415.82,-495.73 1415.82,-487.54"/>
<polygon fill="black" stroke="black" points="1419.32,-487.62 1415.82,-477.62 1412.32,-487.62 1419.32,-487.62"/>
</g>
<!-- prettier -->
<g id="node16" class="node">
<title>prettier</title>
<g id="a_node16"><a xlink:href="https://github.com/conda-forge/prettier-feedstock" xlink:title="prettier">
<ellipse fill="#fde725" stroke="black" cx="1290.82" cy="-530" rx="50.16" ry="18"/>
<text text-anchor="middle" x="1290.82" y="-525.33" font-family="Times,serif" font-size="14.00">prettier</text>
</a>
</g>
</g>
<!-- eslint -->
<g id="node18" class="node">
<title>eslint</title>
<g id="a_node18"><a xlink:href="https://github.com/conda-forge/eslint-feedstock" xlink:title="eslint">
<ellipse fill="#35b779" stroke="black" cx="2079.82" cy="-350" rx="39.11" ry="18"/>
<text text-anchor="middle" x="2079.82" y="-345.32" font-family="Times,serif" font-size="14.00">eslint</text>
</a>
</g>
</g>
<!-- ui5&#45;cli&#45;&gt;eslint -->
<!-- eslint&#45;config&#45;prettier -->
<g id="node19" class="node">
<title>eslint&#45;config&#45;prettier</title>
<g id="a_node19"><a xlink:href="https://github.com/conda-forge/eslint-config-prettier-feedstock" xlink:title="eslint config prettier">
<ellipse fill="#35b779" stroke="black" cx="2079.82" cy="-278" rx="114.34" ry="18"/>
<text text-anchor="middle" x="2079.82" y="-273.32" font-family="Times,serif" font-size="14.00">eslint config prettier</text>
</a>
</g>
</g>
<!-- eslint&#45;&gt;eslint&#45;config&#45;prettier -->
<!-- eslint&#45;plugin&#45;prettier -->
<g id="node21" class="node">
<title>eslint&#45;plugin&#45;prettier</title>
<g id="a_node21"><a xlink:href="https://github.com/conda-forge/eslint-plugin-prettier-feedstock" xlink:title="eslint plugin prettier">
<ellipse fill="#35b779" stroke="black" cx="2079.82" cy="-206" rx="115.92" ry="18"/>
<text text-anchor="middle" x="2079.82" y="-201.33" font-family="Times,serif" font-size="14.00">eslint plugin prettier</text>
</a>
</g>
</g>
<!-- eslint&#45;config&#45;prettier&#45;&gt;eslint&#45;plugin&#45;prettier -->
<!-- typescript&#45;eslint&#45;parser -->
<g id="node20" class="node">
<title>typescript&#45;eslint&#45;parser</title>
<g id="a_node20"><a xlink:href="https://github.com/conda-forge/typescript-eslint-parser-feedstock" xlink:title="typescript eslint parser">
<ellipse fill="#fde725" stroke="black" cx="1093.82" cy="-530" rx="129.07" ry="18"/>
<text text-anchor="middle" x="1093.82" y="-525.33" font-family="Times,serif" font-size="14.00">typescript eslint parser</text>
</a>
</g>
</g>
<!-- eslint&#45;config&#45;standard -->
<g id="node22" class="node">
<title>eslint&#45;config&#45;standard</title>
<g id="a_node22"><a xlink:href="https://github.com/conda-forge/eslint-config-standard-feedstock" xlink:title="eslint config standard">
<ellipse fill="#35b779" stroke="black" cx="2079.82" cy="-134" rx="120.13" ry="18"/>
<text text-anchor="middle" x="2079.82" y="-129.32" font-family="Times,serif" font-size="14.00">eslint config standard</text>
</a>
</g>
</g>
<!-- eslint&#45;plugin&#45;prettier&#45;&gt;eslint&#45;config&#45;standard -->
<!-- eslint&#45;plugin&#45;react -->
<g id="node23" class="node">
<title>eslint&#45;plugin&#45;react</title>
<g id="a_node23"><a xlink:href="https://github.com/conda-forge/eslint-plugin-react-feedstock" xlink:title="eslint plugin react">
<ellipse fill="#fde725" stroke="black" cx="967.82" cy="-18" rx="102.77" ry="18"/>
<text text-anchor="middle" x="967.82" y="-13.32" font-family="Times,serif" font-size="14.00">eslint plugin react</text>
</a>
</g>
</g>
<!-- typescript&#45;eslint&#45;eslint&#45;plugin -->
<g id="node24" class="node">
<title>typescript&#45;eslint&#45;eslint&#45;plugin</title>
<g id="a_node24"><a xlink:href="https://github.com/conda-forge/typescript-eslint-eslint-plugin-feedstock" xlink:title="typescript eslint eslint plugin">
<ellipse fill="#fde725" stroke="black" cx="787.82" cy="-530" rx="159.06" ry="18"/>
<text text-anchor="middle" x="787.82" y="-525.33" font-family="Times,serif" font-size="14.00">typescript eslint eslint plugin</text>
</a>
</g>
</g>
<!-- jupyterlab_email -->
<g id="node25" class="node">
<title>jupyterlab_email</title>
<g id="a_node25"><a xlink:href="https://github.com/conda-forge/jupyterlab_email-feedstock" xlink:title="jupyterlab_email">
<ellipse fill="#fde725" stroke="black" cx="236.82" cy="-386" rx="94.88" ry="18"/>
<text text-anchor="middle" x="236.82" y="-381.32" font-family="Times,serif" font-size="14.00">jupyterlab_email</text>
</a>
</g>
</g>
<!-- esbuild -->
<g id="node26" class="node">
<title>esbuild</title>
<g id="a_node26"><a xlink:href="https://github.com/conda-forge/esbuild-feedstock/pull/29" xlink:title="esbuild ✓">
<ellipse fill="#31688e" stroke="black" cx="2365.82" cy="-530" rx="55.42" ry="18"/>
<text text-anchor="middle" x="2365.82" y="-525.33" font-family="Times,serif" font-size="14.00" fill="white">esbuild ✓</text>
</a>
</g>
</g>
<!-- sagemaker&#45;code&#45;editor -->
<g id="node27" class="node">
<title>sagemaker&#45;code&#45;editor</title>
<g id="a_node27"><a xlink:href="https://github.com/conda-forge/sagemaker-code-editor-feedstock/pull/28" xlink:title="sagemaker code editor ❎">
<ellipse fill="#31688e" stroke="black" cx="2365.82" cy="-458" rx="140.65" ry="18"/>
<text text-anchor="middle" x="2365.82" y="-453.32" font-family="Times,serif" font-size="14.00" fill="white">sagemaker code editor ❎</text>
</a>
</g>
</g>
<!-- esbuild&#45;&gt;sagemaker&#45;code&#45;editor -->
<!-- npmignore -->
<g id="node28" class="node">
<title>npmignore</title>
<g id="a_node28"><a xlink:href="https://github.com/conda-forge/npmignore-feedstock/pull/6" xlink:title="npmignore ❎">
<ellipse fill="#31688e" stroke="black" cx="967.82" cy="-90" rx="80.67" ry="18"/>
<text text-anchor="middle" x="967.82" y="-85.33" font-family="Times,serif" font-size="14.00" fill="white">npmignore ❎</text>
</a>
</g>
</g>
<!-- npmignore&#45;&gt;eslint&#45;plugin&#45;react -->
<g id="edge14" class="edge">
<title>npmignore&#45;&gt;eslint&#45;plugin&#45;react</title>
<path fill="none" stroke="black" d="M967.82,-71.7C967.82,-64.41 967.82,-55.73 967.82,-47.54"/>
<polygon fill="black" stroke="black" points="971.32,-47.62 967.82,-37.62 964.32,-47.62 971.32,-47.62"/>
</g>
<!-- pnpm -->
<g id="node29" class="node">
<title>pnpm</title>
<g id="a_node29"><a xlink:href="https://github.com/conda-forge/pnpm-feedstock/pull/98" xlink:title="pnpm ✓">
<ellipse fill="#31688e" stroke="black" cx="1298.82" cy="-674" rx="47.53" ry="18"/>
<text text-anchor="middle" x="1298.82" y="-669.33" font-family="Times,serif" font-size="14.00" fill="white">pnpm ✓</text>
</a>
</g>
</g>
<!-- pnpm&#45;&gt;svg2png -->
<g id="edge15" class="edge">
<title>pnpm&#45;&gt;svg2png</title>
<path fill="none" stroke="black" d="M1341.22,-665.39C1393.2,-655.84 1483.87,-638.46 1560.82,-620 1657.35,-596.84 1768.77,-564.58 1831.4,-545.93"/>
<polygon fill="black" stroke="black" points="1832.1,-549.37 1840.68,-543.16 1830.1,-542.67 1832.1,-549.37"/>
</g>
<!-- pnpm&#45;&gt;jsdom -->
<g id="edge16" class="edge">
<title>pnpm&#45;&gt;jsdom</title>
<path fill="none" stroke="black" d="M1336.98,-662.83C1375.61,-652.44 1437.03,-635.65 1489.82,-620 1591.7,-589.79 1616.84,-581.11 1717.82,-548 1720.31,-547.18 1722.88,-546.33 1725.47,-545.47"/>
<polygon fill="black" stroke="black" points="1726.31,-548.88 1734.67,-542.38 1724.08,-542.24 1726.31,-548.88"/>
</g>
<!-- pnpm&#45;&gt;doccano -->
<g id="edge17" class="edge">
<title>pnpm&#45;&gt;doccano</title>
<path fill="none" stroke="black" d="M1330.77,-660.38C1357.92,-649.65 1397.93,-633.83 1432.82,-620 1495.53,-595.14 1568.08,-566.3 1613.22,-548.35"/>
<polygon fill="black" stroke="black" points="1614.4,-551.64 1622.4,-544.69 1611.81,-545.14 1614.4,-551.64"/>
</g>
<!-- pnpm&#45;&gt;gulp&#45;cli -->
<g id="edge18" class="edge">
<title>pnpm&#45;&gt;gulp&#45;cli</title>
<path fill="none" stroke="black" d="M1323.6,-658.34C1366.53,-632.93 1454.86,-580.68 1503.96,-551.62"/>
<polygon fill="black" stroke="black" points="1505.68,-554.67 1512.51,-546.57 1502.12,-548.65 1505.68,-554.67"/>
</g>
<!-- pnpm&#45;&gt;node&#45;gyp -->
<g id="edge19" class="edge">
<title>pnpm&#45;&gt;node&#45;gyp</title>
<path fill="none" stroke="black" d="M1315.85,-656.88C1326.33,-646.66 1339.81,-632.98 1350.82,-620 1367.94,-599.81 1385.54,-575.44 1398.1,-557.31"/>
<polygon fill="black" stroke="black" points="1400.9,-559.42 1403.67,-549.2 1395.13,-555.46 1400.9,-559.42"/>
</g>
<!-- pnpm&#45;&gt;prettier -->
<g id="edge20" class="edge">
<title>pnpm&#45;&gt;prettier</title>
<path fill="none" stroke="black" d="M1314.08,-656.78C1322.26,-646.95 1331.51,-633.7 1335.82,-620 1340.62,-604.74 1341.33,-599.02 1335.82,-584 1331.96,-573.52 1325.02,-563.69 1317.72,-555.41"/>
<polygon fill="black" stroke="black" points="1320.26,-553 1310.83,-548.17 1315.19,-557.83 1320.26,-553"/>
</g>
<!-- pnpm&#45;&gt;typescript&#45;eslint&#45;parser -->
<g id="edge21" class="edge">
<title>pnpm&#45;&gt;typescript&#45;eslint&#45;parser</title>
<path fill="none" stroke="black" d="M1256.61,-665.37C1225.13,-657.99 1182.44,-644.25 1151.82,-620 1131.2,-603.68 1115.55,-577.92 1105.74,-558.31"/>
<polygon fill="black" stroke="black" points="1109.01,-557.03 1101.54,-549.51 1102.69,-560.05 1109.01,-557.03"/>
</g>
<!-- pnpm&#45;&gt;typescript&#45;eslint&#45;eslint&#45;plugin -->
<g id="edge22" class="edge">
<title>pnpm&#45;&gt;typescript&#45;eslint&#45;eslint&#45;plugin</title>
<path fill="none" stroke="black" d="M1261.24,-662.56C1175.89,-638.84 966.38,-580.62 856.93,-550.21"/>
<polygon fill="black" stroke="black" points="858.05,-546.88 847.48,-547.58 856.18,-553.63 858.05,-546.88"/>
</g>
<!-- pnpm&#45;licenses -->
<g id="node30" class="node">
<title>pnpm&#45;licenses</title>
<g id="a_node30"><a xlink:href="https://github.com/conda-forge/pnpm-licenses-feedstock" xlink:title="pnpm licenses">
<ellipse fill="#fde725" stroke="black" cx="1243.82" cy="-602" rx="82.77" ry="18"/>
<text text-anchor="middle" x="1243.82" y="-597.33" font-family="Times,serif" font-size="14.00">pnpm licenses</text>
</a>
</g>
</g>
<!-- pnpm&#45;&gt;pnpm&#45;licenses -->
<g id="edge23" class="edge">
<title>pnpm&#45;&gt;pnpm&#45;licenses</title>
<path fill="none" stroke="black" d="M1285.78,-656.41C1279.3,-648.16 1271.32,-638.01 1264.07,-628.78"/>
<polygon fill="black" stroke="black" points="1267,-626.85 1258.07,-621.15 1261.5,-631.17 1267,-626.85"/>
</g>
<!-- rollup -->
<g id="node31" class="node">
<title>rollup</title>
<g id="a_node31"><a xlink:href="https://github.com/conda-forge/rollup-feedstock" xlink:title="rollup">
<ellipse fill="#fde725" stroke="black" cx="569.82" cy="-530" rx="40.69" ry="18"/>
<text text-anchor="middle" x="569.82" y="-525.33" font-family="Times,serif" font-size="14.00">rollup</text>
</a>
</g>
</g>
<!-- pnpm&#45;&gt;rollup -->
<g id="edge24" class="edge">
<title>pnpm&#45;&gt;rollup</title>
<path fill="none" stroke="black" d="M1254.17,-667.34C1144.77,-652.91 855.05,-611.36 619.82,-548 617.07,-547.26 614.25,-546.45 611.42,-545.59"/>
<polygon fill="black" stroke="black" points="612.6,-542.3 602.01,-542.61 610.48,-548.97 612.6,-542.3"/>
</g>
<!-- markdownlint&#45;cli -->
<g id="node32" class="node">
<title>markdownlint&#45;cli</title>
<g id="a_node32"><a xlink:href="https://github.com/conda-forge/markdownlint-cli-feedstock" xlink:title="markdownlint cli">
<ellipse fill="#fde725" stroke="black" cx="415.82" cy="-530" rx="95.4" ry="18"/>
<text text-anchor="middle" x="415.82" y="-525.33" font-family="Times,serif" font-size="14.00">markdownlint cli</text>
</a>
</g>
</g>
<!-- pnpm&#45;&gt;markdownlint&#45;cli -->
<g id="edge25" class="edge">
<title>pnpm&#45;&gt;markdownlint&#45;cli</title>
<path fill="none" stroke="black" d="M1251.74,-670.35C1160.4,-664.74 952.98,-649.65 780.82,-620 672.75,-601.39 549.21,-568.84 477.12,-548.68"/>
<polygon fill="black" stroke="black" points="478.46,-545.43 467.89,-546.09 476.57,-552.16 478.46,-545.43"/>
</g>
<!-- playwright -->
<g id="node33" class="node">
<title>playwright</title>
<g id="a_node33"><a xlink:href="https://github.com/conda-forge/playwright-feedstock" xlink:title="playwright">
<ellipse fill="#fde725" stroke="black" cx="236.82" cy="-530" rx="65.41" ry="18"/>
<text text-anchor="middle" x="236.82" y="-525.33" font-family="Times,serif" font-size="14.00">playwright</text>
</a>
</g>
</g>
<!-- pnpm&#45;&gt;playwright -->
<g id="edge26" class="edge">
<title>pnpm&#45;&gt;playwright</title>
<path fill="none" stroke="black" d="M1251.26,-671.83C1139.55,-668.54 851.96,-656.88 614.82,-620 498.38,-601.89 364.74,-567.03 291.66,-546.72"/>
<polygon fill="black" stroke="black" points="292.93,-543.44 282.35,-544.12 291.04,-550.19 292.93,-543.44"/>
</g>
<!-- pnpm&#45;licenses&#45;&gt;svg2png -->
<g id="edge27" class="edge">
<title>pnpm&#45;licenses&#45;&gt;svg2png</title>
<path fill="none" stroke="black" d="M1324.73,-597.9C1436.4,-592.64 1643.72,-579.29 1817.82,-548 1822.08,-547.23 1826.48,-546.32 1830.88,-545.31"/>
<polygon fill="black" stroke="black" points="1831.38,-548.79 1840.26,-543.02 1829.72,-541.99 1831.38,-548.79"/>
</g>
<!-- pnpm&#45;licenses&#45;&gt;jsdom -->
<g id="edge28" class="edge">
<title>pnpm&#45;licenses&#45;&gt;jsdom</title>
<path fill="none" stroke="black" d="M1324.36,-597.31C1419.37,-591.73 1581.64,-578.39 1717.82,-548 1720.73,-547.35 1723.72,-546.59 1726.71,-545.75"/>
<polygon fill="black" stroke="black" points="1727.44,-549.19 1735.99,-542.93 1725.41,-542.49 1727.44,-549.19"/>
</g>
<!-- pnpm&#45;licenses&#45;&gt;doccano -->
<g id="edge29" class="edge">
<title>pnpm&#45;licenses&#45;&gt;doccano</title>
<path fill="none" stroke="black" d="M1315.74,-592.79C1387.21,-584.01 1499.72,-568.54 1595.82,-548 1599.64,-547.18 1603.58,-546.26 1607.53,-545.29"/>
<polygon fill="black" stroke="black" points="1608.33,-548.7 1617.13,-542.8 1606.57,-541.92 1608.33,-548.7"/>
</g>
<!-- pnpm&#45;licenses&#45;&gt;gulp&#45;cli -->
<g id="edge30" class="edge">
<title>pnpm&#45;licenses&#45;&gt;gulp&#45;cli</title>
<path fill="none" stroke="black" d="M1302.78,-589.08C1351.11,-579.02 1421.18,-563.77 1481.82,-548 1485.11,-547.14 1488.5,-546.23 1491.9,-545.28"/>
<polygon fill="black" stroke="black" points="1492.63,-548.71 1501.28,-542.59 1490.71,-541.98 1492.63,-548.71"/>
</g>
<!-- pnpm&#45;licenses&#45;&gt;node&#45;gyp -->
<g id="edge31" class="edge">
<title>pnpm&#45;licenses&#45;&gt;node&#45;gyp</title>
<path fill="none" stroke="black" d="M1281.56,-585.64C1308.01,-574.87 1343.47,-560.44 1371.3,-549.12"/>
<polygon fill="black" stroke="black" points="1372.6,-552.37 1380.54,-545.35 1369.96,-545.88 1372.6,-552.37"/>
</g>
<!-- pnpm&#45;licenses&#45;&gt;prettier -->
<g id="edge32" class="edge">
<title>pnpm&#45;licenses&#45;&gt;prettier</title>
<path fill="none" stroke="black" d="M1255.43,-583.7C1260.81,-575.7 1267.3,-566.02 1273.25,-557.15"/>
<polygon fill="black" stroke="black" points="1276.14,-559.13 1278.81,-548.88 1270.33,-555.23 1276.14,-559.13"/>
</g>
<!-- pnpm&#45;licenses&#45;&gt;typescript&#45;eslint&#45;parser -->
<g id="edge33" class="edge">
<title>pnpm&#45;licenses&#45;&gt;typescript&#45;eslint&#45;parser</title>
<path fill="none" stroke="black" d="M1210.15,-585.29C1189.5,-575.65 1162.76,-563.17 1140.12,-552.61"/>
<polygon fill="black" stroke="black" points="1141.63,-549.45 1131.09,-548.4 1138.67,-555.8 1141.63,-549.45"/>
</g>
<!-- pnpm&#45;licenses&#45;&gt;typescript&#45;eslint&#45;eslint&#45;plugin -->
<g id="edge34" class="edge">
<title>pnpm&#45;licenses&#45;&gt;typescript&#45;eslint&#45;eslint&#45;plugin</title>
<path fill="none" stroke="black" d="M1177.51,-590.82C1102.26,-579.27 978.59,-560.29 890.76,-546.8"/>
<polygon fill="black" stroke="black" points="891.34,-543.35 880.93,-545.29 890.28,-550.27 891.34,-543.35"/>
</g>
<!-- pnpm&#45;licenses&#45;&gt;rollup -->
<g id="edge35" class="edge">
<title>pnpm&#45;licenses&#45;&gt;rollup</title>
<path fill="none" stroke="black" d="M1164.35,-596.66C1020.34,-588.4 721.71,-569.32 619.82,-548 616.85,-547.38 613.81,-546.63 610.77,-545.81"/>
<polygon fill="black" stroke="black" points="611.93,-542.5 601.34,-542.98 609.91,-549.21 611.93,-542.5"/>
</g>
<!-- pnpm&#45;licenses&#45;&gt;markdownlint&#45;cli -->
<g id="edge36" class="edge">
<title>pnpm&#45;licenses&#45;&gt;markdownlint&#45;cli</title>
<path fill="none" stroke="black" d="M1163.24,-597.45C1029.32,-591.01 752.61,-575.49 519.82,-548 511.76,-547.05 503.37,-545.92 495.01,-544.7"/>
<polygon fill="black" stroke="black" points="495.57,-541.24 485.16,-543.21 494.53,-548.16 495.57,-541.24"/>
</g>
<!-- pnpm&#45;licenses&#45;&gt;playwright -->
<g id="edge37" class="edge">
<title>pnpm&#45;licenses&#45;&gt;playwright</title>
<path fill="none" stroke="black" d="M1160.76,-600.89C997.37,-599.66 622.95,-591.8 311.82,-548 306.26,-547.22 300.5,-546.23 294.76,-545.14"/>
<polygon fill="black" stroke="black" points="295.78,-541.77 285.29,-543.21 294.39,-548.63 295.78,-541.77"/>
</g>
<!-- playwright&#45;&gt;jupyterlab_templates -->
<g id="edge38" class="edge">
<title>playwright&#45;&gt;jupyterlab_templates</title>
<path fill="none" stroke="black" d="M268.28,-513.81C288.41,-504.09 314.84,-491.33 337.13,-480.57"/>
<polygon fill="black" stroke="black" points="338.52,-483.79 346.01,-476.29 335.48,-477.48 338.52,-483.79"/>
</g>
<!-- playwright&#45;&gt;jupyterlab_email -->
<g id="edge39" class="edge">
<title>playwright&#45;&gt;jupyterlab_email</title>
<path fill="none" stroke="black" d="M236.82,-511.59C236.82,-487.61 236.82,-444.14 236.82,-415.42"/>
<polygon fill="black" stroke="black" points="240.32,-415.62 236.82,-405.62 233.32,-415.62 240.32,-415.62"/>
</g>
<!-- perspective_parquet -->
<g id="node34" class="node">
<title>perspective_parquet</title>
<g id="a_node34"><a xlink:href="https://github.com/conda-forge/perspective_parquet-feedstock" xlink:title="perspective_parquet">
<ellipse fill="#fde725" stroke="black" cx="113.82" cy="-314" rx="113.82" ry="18"/>
<text text-anchor="middle" x="113.82" y="-309.32" font-family="Times,serif" font-size="14.00">perspective_parquet</text>
</a>
</g>
</g>
<!-- playwright&#45;&gt;perspective_parquet -->
<g id="edge40" class="edge">
<title>playwright&#45;&gt;perspective_parquet</title>
<path fill="none" stroke="black" d="M218.25,-512.34C194.61,-490.05 154.28,-448.18 132.82,-404 123.57,-384.97 118.8,-361.5 116.35,-343.44"/>
<polygon fill="black" stroke="black" points="119.85,-343.22 115.2,-333.69 112.9,-344.03 119.85,-343.22"/>
</g>
</g>
</svg>
