<?xml version="1.0" encoding="UTF-8" standalone="no"?>
<!DOCTYPE svg PUBLIC "-//W3C//DTD SVG 1.1//EN"
 "http://www.w3.org/Graphics/SVG/1.1/DTD/svg11.dtd">
<!-- Generated by graphviz version 11.0.0 (20240519.1550)
 -->
<!-- Pages: 1 -->
<svg width="447pt" height="116pt"
 viewBox="0.00 0.00 446.95 116.00" xmlns="http://www.w3.org/2000/svg" xmlns:xlink="http://www.w3.org/1999/xlink">
<g id="graph0" class="graph" transform="scale(1 1) rotate(0) translate(4 112)">
<polygon fill="white" stroke="none" points="-4,4 -4,-112 442.95,-112 442.95,4 -4,4"/>
<!-- netgen -->
<g id="node1" class="node">
<title>netgen</title>
<g id="a_node1"><a xlink:href="https://github.com/conda-forge/netgen-feedstock/pull/48" xlink:title="netgen ❎">
<ellipse fill="#31688e" stroke="black" cx="297.47" cy="-54" rx="61.2" ry="18"/>
<text text-anchor="middle" x="297.47" y="-49.33" font-family="Times,serif" font-size="14.00" fill="white">netgen ❎</text>
</a>
</g>
</g>
<!-- smesh -->
<g id="node2" class="node">
<title>smesh</title>
<g id="a_node2"><a xlink:href="https://github.com/conda-forge/smesh-feedstock/pull/84" xlink:title="smesh ❎">
<ellipse fill="#31688e" stroke="black" cx="169.47" cy="-90" rx="58.57" ry="18"/>
<text text-anchor="middle" x="169.47" y="-85.33" font-family="Times,serif" font-size="14.00" fill="white">smesh ❎</text>
</a>
</g>
</g>
<!-- freecad -->
<g id="node3" class="node">
<title>freecad</title>
<g id="a_node3"><a xlink:href="https://github.com/conda-forge/freecad-feedstock" xlink:title="freecad">
<ellipse fill="#fde725" stroke="black" cx="107.47" cy="-18" rx="48.58" ry="18"/>
<text text-anchor="middle" x="107.47" y="-13.32" font-family="Times,serif" font-size="14.00">freecad</text>
</a>
</g>
</g>
<!-- smesh&#45;&gt;freecad -->
<g id="edge1" class="edge">
<title>smesh&#45;&gt;freecad</title>
<path fill="none" stroke="black" d="M154.78,-72.41C147.29,-63.95 138.03,-53.49 129.69,-44.08"/>
<polygon fill="black" stroke="black" points="132.31,-41.77 123.06,-36.6 127.07,-46.41 132.31,-41.77"/>
</g>
<!-- gmsh -->
<g id="node4" class="node">
<title>gmsh</title>
<g id="a_node4"><a xlink:href="https://github.com/conda-forge/gmsh-feedstock/pull/90" xlink:title="gmsh ✓">
<ellipse fill="#31688e" stroke="black" cx="46.47" cy="-90" rx="46.47" ry="18"/>
<text text-anchor="middle" x="46.47" y="-85.33" font-family="Times,serif" font-size="14.00" fill="white">gmsh ✓</text>
</a>
</g>
</g>
<!-- gmsh&#45;&gt;freecad -->
<g id="edge2" class="edge">
<title>gmsh&#45;&gt;freecad</title>
<path fill="none" stroke="black" d="M60.93,-72.41C68.3,-63.95 77.41,-53.49 85.62,-44.08"/>
<polygon fill="black" stroke="black" points="88.2,-46.45 92.13,-36.61 82.92,-41.85 88.2,-46.45"/>
</g>
<!-- ocp -->
<g id="node5" class="node">
<title>ocp</title>
<g id="a_node5"><a xlink:href="https://github.com/conda-forge/ocp-feedstock/pull/47" xlink:title="ocp ✓">
<ellipse fill="#31688e" stroke="black" cx="402.47" cy="-54" rx="36.48" ry="18"/>
<text text-anchor="middle" x="402.47" y="-49.33" font-family="Times,serif" font-size="14.00" fill="white">ocp ✓</text>
</a>
</g>
</g>
</g>
</svg>
