<?xml version="1.0" encoding="UTF-8" standalone="no"?>
<!DOCTYPE svg PUBLIC "-//W3C//DTD SVG 1.1//EN"
 "http://www.w3.org/Graphics/SVG/1.1/DTD/svg11.dtd">
<!-- Generated by graphviz version 11.0.0 (20240519.1550)
 -->
<!-- Pages: 1 -->
<svg width="462pt" height="116pt"
 viewBox="0.00 0.00 462.32 116.00" xmlns="http://www.w3.org/2000/svg" xmlns:xlink="http://www.w3.org/1999/xlink">
<g id="graph0" class="graph" transform="scale(1 1) rotate(0) translate(4 112)">
<polygon fill="white" stroke="none" points="-4,4 -4,-112 458.32,-112 458.32,4 -4,4"/>
<!-- netgen -->
<g id="node1" class="node">
<title>netgen</title>
<g id="a_node1"><a xlink:href="https://github.com/conda-forge/netgen-feedstock/pull/48" xlink:title="netgen ❎">
<ellipse fill="#31688e" stroke="black" cx="311.84" cy="-54" rx="61.2" ry="18"/>
<text text-anchor="middle" x="311.84" y="-49.33" font-family="Times,serif" font-size="14.00" fill="white">netgen ❎</text>
</a>
</g>
</g>
<!-- smesh -->
<g id="node2" class="node">
<title>smesh</title>
<g id="a_node2"><a xlink:href="https://github.com/conda-forge/smesh-feedstock/pull/84" xlink:title="smesh ❎">
<ellipse fill="#31688e" stroke="black" cx="183.84" cy="-90" rx="58.57" ry="18"/>
<text text-anchor="middle" x="183.84" y="-85.33" font-family="Times,serif" font-size="14.00" fill="white">smesh ❎</text>
</a>
</g>
</g>
<!-- freecad -->
<g id="node3" class="node">
<title>freecad</title>
<g id="a_node3"><a xlink:href="https://github.com/conda-forge/freecad-feedstock" xlink:title="freecad">
<ellipse fill="#fde725" stroke="black" cx="118.84" cy="-18" rx="48.58" ry="18"/>
<text text-anchor="middle" x="118.84" y="-13.32" font-family="Times,serif" font-size="14.00">freecad</text>
</a>
</g>
</g>
<!-- smesh&#45;&gt;freecad -->
<g id="edge1" class="edge">
<title>smesh&#45;&gt;freecad</title>
<path fill="none" stroke="black" d="M168.43,-72.41C160.5,-63.87 150.67,-53.28 141.86,-43.79"/>
<polygon fill="black" stroke="black" points="144.53,-41.53 135.16,-36.58 139.4,-46.29 144.53,-41.53"/>
</g>
<!-- gmsh -->
<g id="node4" class="node">
<title>gmsh</title>
<g id="a_node4"><a xlink:href="https://github.com/conda-forge/gmsh-feedstock/pull/90" xlink:title="gmsh ❎">
<ellipse fill="#31688e" stroke="black" cx="53.84" cy="-90" rx="53.84" ry="18"/>
<text text-anchor="middle" x="53.84" y="-85.33" font-family="Times,serif" font-size="14.00" fill="white">gmsh ❎</text>
</a>
</g>
</g>
<!-- gmsh&#45;&gt;freecad -->
<g id="edge2" class="edge">
<title>gmsh&#45;&gt;freecad</title>
<path fill="none" stroke="black" d="M69.24,-72.41C77.18,-63.87 87.01,-53.28 95.82,-43.79"/>
<polygon fill="black" stroke="black" points="98.28,-46.29 102.52,-36.58 93.15,-41.53 98.28,-46.29"/>
</g>
<!-- ocp -->
<g id="node5" class="node">
<title>ocp</title>
<g id="a_node5"><a xlink:href="https://github.com/conda-forge/ocp-feedstock/pull/47" xlink:title="ocp ✓">
<ellipse fill="#31688e" stroke="black" cx="417.84" cy="-54" rx="36.48" ry="18"/>
<text text-anchor="middle" x="417.84" y="-49.33" font-family="Times,serif" font-size="14.00" fill="white">ocp ✓</text>
</a>
</g>
</g>
</g>
</svg>
