<?xml version="1.0" encoding="UTF-8" standalone="no"?>
<!DOCTYPE svg PUBLIC "-//W3C//DTD SVG 1.1//EN"
 "http://www.w3.org/Graphics/SVG/1.1/DTD/svg11.dtd">
<!-- Generated by graphviz version 11.0.0 (20240519.1550)
 -->
<!-- Pages: 1 -->
<svg width="1333pt" height="1716pt"
 viewBox="0.00 0.00 1333.28 1716.00" xmlns="http://www.w3.org/2000/svg" xmlns:xlink="http://www.w3.org/1999/xlink">
<g id="graph0" class="graph" transform="scale(1 1) rotate(0) translate(4 1712)">
<polygon fill="white" stroke="none" points="-4,4 -4,-1712 1329.28,-1712 1329.28,4 -4,4"/>
<!-- casacore -->
<g id="node1" class="node">
<title>casacore</title>
<g id="a_node1"><a xlink:href="https://github.com/conda-forge/casacore-feedstock/pull/88" xlink:title="casacore ❎">
<ellipse fill="#31688e" stroke="black" cx="455.5" cy="-1690" rx="70.15" ry="18"/>
<text text-anchor="middle" x="455.5" y="-1685.33" font-family="Times,serif" font-size="14.00" fill="white">casacore ❎</text>
</a>
</g>
</g>
<!-- esmf -->
<g id="node2" class="node">
<title>esmf</title>
<g id="a_node2"><a xlink:href="https://github.com/conda-forge/esmf-feedstock/pull/116" xlink:title="esmf ❎">
<ellipse fill="#31688e" stroke="black" cx="455.5" cy="-1618" rx="50.68" ry="18"/>
<text text-anchor="middle" x="455.5" y="-1613.33" font-family="Times,serif" font-size="14.00" fill="white">esmf ❎</text>
</a>
</g>
</g>
<!-- casacore&#45;&gt;esmf -->
<!-- netcdf&#45;cxx4 -->
<g id="node3" class="node">
<title>netcdf&#45;cxx4</title>
<g id="a_node3"><a xlink:href="https://github.com/conda-forge/netcdf-cxx4-feedstock/pull/48" xlink:title="netcdf cxx4 ❎">
<ellipse fill="#31688e" stroke="black" cx="455.5" cy="-1546" rx="84.35" ry="18"/>
<text text-anchor="middle" x="455.5" y="-1541.33" font-family="Times,serif" font-size="14.00" fill="white">netcdf cxx4 ❎</text>
</a>
</g>
</g>
<!-- esmf&#45;&gt;netcdf&#45;cxx4 -->
<!-- openpmd&#45;api -->
<g id="node9" class="node">
<title>openpmd&#45;api</title>
<g id="a_node9"><a xlink:href="https://github.com/conda-forge/openpmd-api-feedstock/pull/112" xlink:title="openpmd api ❎">
<ellipse fill="#31688e" stroke="black" cx="455.5" cy="-1474" rx="91.19" ry="18"/>
<text text-anchor="middle" x="455.5" y="-1469.33" font-family="Times,serif" font-size="14.00" fill="white">openpmd api ❎</text>
</a>
</g>
</g>
<!-- netcdf&#45;cxx4&#45;&gt;openpmd&#45;api -->
<!-- fenics -->
<g id="node4" class="node">
<title>fenics</title>
<g id="a_node4"><a xlink:href="https://github.com/conda-forge/fenics-feedstock" xlink:title="fenics">
<ellipse fill="#fde725" stroke="black" cx="972.5" cy="-1258" rx="40.69" ry="18"/>
<text text-anchor="middle" x="972.5" y="-1253.33" font-family="Times,serif" font-size="14.00">fenics</text>
</a>
</g>
</g>
<!-- mshr -->
<g id="node5" class="node">
<title>mshr</title>
<g id="a_node5"><a xlink:href="https://github.com/conda-forge/mshr-feedstock" xlink:title="mshr">
<ellipse fill="#fde725" stroke="black" cx="972.5" cy="-1186" rx="37" ry="18"/>
<text text-anchor="middle" x="972.5" y="-1181.33" font-family="Times,serif" font-size="14.00">mshr</text>
</a>
</g>
</g>
<!-- fenics&#45;&gt;mshr -->
<g id="edge3" class="edge">
<title>fenics&#45;&gt;mshr</title>
<path fill="none" stroke="black" d="M972.5,-1239.7C972.5,-1232.41 972.5,-1223.73 972.5,-1215.54"/>
<polygon fill="black" stroke="black" points="976,-1215.62 972.5,-1205.62 969,-1215.62 976,-1215.62"/>
</g>
<!-- moab -->
<g id="node6" class="node">
<title>moab</title>
<g id="a_node6"><a xlink:href="https://github.com/conda-forge/moab-feedstock/pull/94" xlink:title="moab ❎">
<ellipse fill="#31688e" stroke="black" cx="1000.5" cy="-162" rx="53.84" ry="18"/>
<text text-anchor="middle" x="1000.5" y="-157.32" font-family="Times,serif" font-size="14.00" fill="white">moab ❎</text>
</a>
</g>
</g>
<!-- dagmc -->
<g id="node7" class="node">
<title>dagmc</title>
<g id="a_node7"><a xlink:href="https://github.com/conda-forge/dagmc-feedstock" xlink:title="dagmc">
<ellipse fill="#fde725" stroke="black" cx="1000.5" cy="-90" rx="44.37" ry="18"/>
<text text-anchor="middle" x="1000.5" y="-85.33" font-family="Times,serif" font-size="14.00">dagmc</text>
</a>
</g>
</g>
<!-- moab&#45;&gt;dagmc -->
<g id="edge4" class="edge">
<title>moab&#45;&gt;dagmc</title>
<path fill="none" stroke="black" d="M1000.5,-143.7C1000.5,-136.41 1000.5,-127.73 1000.5,-119.54"/>
<polygon fill="black" stroke="black" points="1004,-119.62 1000.5,-109.62 997,-119.62 1004,-119.62"/>
</g>
<!-- openmc -->
<g id="node8" class="node">
<title>openmc</title>
<g id="a_node8"><a xlink:href="https://github.com/conda-forge/openmc-feedstock" xlink:title="openmc">
<ellipse fill="#fde725" stroke="black" cx="1000.5" cy="-18" rx="50.16" ry="18"/>
<text text-anchor="middle" x="1000.5" y="-13.32" font-family="Times,serif" font-size="14.00">openmc</text>
</a>
</g>
</g>
<!-- dagmc&#45;&gt;openmc -->
<g id="edge5" class="edge">
<title>dagmc&#45;&gt;openmc</title>
<path fill="none" stroke="black" d="M1000.5,-71.7C1000.5,-64.41 1000.5,-55.73 1000.5,-47.54"/>
<polygon fill="black" stroke="black" points="1004,-47.62 1000.5,-37.62 997,-47.62 1004,-47.62"/>
</g>
<!-- lalinference -->
<g id="node23" class="node">
<title>lalinference</title>
<g id="a_node23"><a xlink:href="https://github.com/conda-forge/lalinference-feedstock" xlink:title="lalinference">
<ellipse fill="#35b779" stroke="black" cx="455.5" cy="-1402" rx="70.15" ry="18"/>
<text text-anchor="middle" x="455.5" y="-1397.33" font-family="Times,serif" font-size="14.00">lalinference</text>
</a>
</g>
</g>
<!-- openpmd&#45;api&#45;&gt;lalinference -->
<!-- netcdf4 -->
<g id="node10" class="node">
<title>netcdf4</title>
<g id="a_node10"><a xlink:href="https://github.com/conda-forge/netcdf4-feedstock/pull/163" xlink:title="netcdf4 ❎">
<ellipse fill="#31688e" stroke="black" cx="133.5" cy="-162" rx="64.36" ry="18"/>
<text text-anchor="middle" x="133.5" y="-157.32" font-family="Times,serif" font-size="14.00" fill="white">netcdf4 ❎</text>
</a>
</g>
</g>
<!-- veloxchem -->
<g id="node11" class="node">
<title>veloxchem</title>
<g id="a_node11"><a xlink:href="https://github.com/conda-forge/veloxchem-feedstock" xlink:title="veloxchem">
<ellipse fill="#fde725" stroke="black" cx="87.5" cy="-90" rx="64.36" ry="18"/>
<text text-anchor="middle" x="87.5" y="-85.33" font-family="Times,serif" font-size="14.00">veloxchem</text>
</a>
</g>
</g>
<!-- netcdf4&#45;&gt;veloxchem -->
<g id="edge7" class="edge">
<title>netcdf4&#45;&gt;veloxchem</title>
<path fill="none" stroke="black" d="M122.36,-144.05C117.11,-136.06 110.72,-126.33 104.85,-117.4"/>
<polygon fill="black" stroke="black" points="107.78,-115.49 99.36,-109.05 101.93,-119.33 107.78,-115.49"/>
</g>
<!-- heat -->
<g id="node12" class="node">
<title>heat</title>
<g id="a_node12"><a xlink:href="https://github.com/conda-forge/heat-feedstock" xlink:title="heat">
<ellipse fill="#fde725" stroke="black" cx="179.5" cy="-18" rx="33.32" ry="18"/>
<text text-anchor="middle" x="179.5" y="-13.32" font-family="Times,serif" font-size="14.00">heat</text>
</a>
</g>
</g>
<!-- netcdf4&#45;&gt;heat -->
<g id="edge8" class="edge">
<title>netcdf4&#45;&gt;heat</title>
<path fill="none" stroke="black" d="M143.68,-143.84C149.33,-133.71 156.08,-120.46 160.5,-108 167.45,-88.4 172.27,-65.43 175.32,-47.73"/>
<polygon fill="black" stroke="black" points="178.77,-48.35 176.91,-37.92 171.86,-47.23 178.77,-48.35"/>
</g>
<!-- siesta -->
<g id="node13" class="node">
<title>siesta</title>
<g id="a_node13"><a xlink:href="https://github.com/conda-forge/siesta-feedstock" xlink:title="siesta">
<ellipse fill="#fde725" stroke="black" cx="497.5" cy="-566" rx="40.69" ry="18"/>
<text text-anchor="middle" x="497.5" y="-561.33" font-family="Times,serif" font-size="14.00">siesta</text>
</a>
</g>
</g>
<!-- petsc -->
<g id="node14" class="node">
<title>petsc</title>
<g id="a_node14"><a xlink:href="https://github.com/conda-forge/petsc-feedstock/pull/203" xlink:title="petsc ❎">
<ellipse fill="#31688e" stroke="black" cx="975.5" cy="-1474" rx="53.31" ry="18"/>
<text text-anchor="middle" x="975.5" y="-1469.33" font-family="Times,serif" font-size="14.00" fill="white">petsc ❎</text>
</a>
</g>
</g>
<!-- petsc&#45;&gt;fenics -->
<g id="edge9" class="edge">
<title>petsc&#45;&gt;fenics</title>
<path fill="none" stroke="black" d="M1022.49,-1465.14C1119.11,-1447.05 1325.28,-1397.33 1254.5,-1312 1225.82,-1277.43 1097.59,-1265.26 1024.31,-1261.09"/>
<polygon fill="black" stroke="black" points="1024.72,-1257.61 1014.55,-1260.57 1024.35,-1264.6 1024.72,-1257.61"/>
</g>
<!-- petsc4py -->
<g id="node15" class="node">
<title>petsc4py</title>
<g id="a_node15"><a xlink:href="https://github.com/conda-forge/petsc4py-feedstock" xlink:title="petsc4py">
<ellipse fill="#fde725" stroke="black" cx="814.5" cy="-1402" rx="56.47" ry="18"/>
<text text-anchor="middle" x="814.5" y="-1397.33" font-family="Times,serif" font-size="14.00">petsc4py</text>
</a>
</g>
</g>
<!-- petsc&#45;&gt;petsc4py -->
<g id="edge10" class="edge">
<title>petsc&#45;&gt;petsc4py</title>
<path fill="none" stroke="black" d="M943.69,-1459.17C919.01,-1448.44 884.56,-1433.46 857.44,-1421.67"/>
<polygon fill="black" stroke="black" points="859.02,-1418.54 848.46,-1417.76 856.23,-1424.96 859.02,-1418.54"/>
</g>
<!-- slepc -->
<g id="node16" class="node">
<title>slepc</title>
<g id="a_node16"><a xlink:href="https://github.com/conda-forge/slepc-feedstock" xlink:title="slepc">
<ellipse fill="#fde725" stroke="black" cx="1022.5" cy="-1402" rx="37" ry="18"/>
<text text-anchor="middle" x="1022.5" y="-1397.33" font-family="Times,serif" font-size="14.00">slepc</text>
</a>
</g>
</g>
<!-- petsc&#45;&gt;slepc -->
<g id="edge11" class="edge">
<title>petsc&#45;&gt;slepc</title>
<path fill="none" stroke="black" d="M986.88,-1456.05C992.38,-1447.85 999.11,-1437.83 1005.23,-1428.71"/>
<polygon fill="black" stroke="black" points="1008.04,-1430.82 1010.71,-1420.56 1002.23,-1426.91 1008.04,-1430.82"/>
</g>
<!-- daetk -->
<g id="node17" class="node">
<title>daetk</title>
<g id="a_node17"><a xlink:href="https://github.com/conda-forge/daetk-feedstock" xlink:title="daetk">
<ellipse fill="#fde725" stroke="black" cx="928.5" cy="-1402" rx="39.11" ry="18"/>
<text text-anchor="middle" x="928.5" y="-1397.33" font-family="Times,serif" font-size="14.00">daetk</text>
</a>
</g>
</g>
<!-- petsc&#45;&gt;daetk -->
<g id="edge12" class="edge">
<title>petsc&#45;&gt;daetk</title>
<path fill="none" stroke="black" d="M964.12,-1456.05C958.61,-1447.85 951.88,-1437.83 945.76,-1428.71"/>
<polygon fill="black" stroke="black" points="948.77,-1426.91 940.29,-1420.56 942.96,-1430.82 948.77,-1426.91"/>
</g>
<!-- yambo -->
<g id="node18" class="node">
<title>yambo</title>
<g id="a_node18"><a xlink:href="https://github.com/conda-forge/yambo-feedstock" xlink:title="yambo">
<ellipse fill="#fde725" stroke="black" cx="1082.5" cy="-1330" rx="44.37" ry="18"/>
<text text-anchor="middle" x="1082.5" y="-1325.33" font-family="Times,serif" font-size="14.00">yambo</text>
</a>
</g>
</g>
<!-- petsc&#45;&gt;yambo -->
<g id="edge13" class="edge">
<title>petsc&#45;&gt;yambo</title>
<path fill="none" stroke="black" d="M1012.79,-1460.78C1032.45,-1452.41 1055.19,-1439.27 1068.5,-1420 1080.6,-1402.47 1083.79,-1378.41 1084.12,-1359.72"/>
<polygon fill="black" stroke="black" points="1087.62,-1359.82 1084.01,-1349.86 1080.62,-1359.9 1087.62,-1359.82"/>
</g>
<!-- fenics&#45;dolfinx -->
<g id="node19" class="node">
<title>fenics&#45;dolfinx</title>
<g id="a_node19"><a xlink:href="https://github.com/conda-forge/fenics-dolfinx-feedstock" xlink:title="fenics dolfinx">
<ellipse fill="#fde725" stroke="black" cx="798.5" cy="-1258" rx="77.52" ry="18"/>
<text text-anchor="middle" x="798.5" y="-1253.33" font-family="Times,serif" font-size="14.00">fenics dolfinx</text>
</a>
</g>
</g>
<!-- petsc&#45;&gt;fenics&#45;dolfinx -->
<g id="edge14" class="edge">
<title>petsc&#45;&gt;fenics&#45;dolfinx</title>
<path fill="none" stroke="black" d="M924.38,-1468.28C864.55,-1461.58 770.9,-1447 749.5,-1420 717.73,-1379.92 752.31,-1319.38 777.37,-1285.09"/>
<polygon fill="black" stroke="black" points="779.97,-1287.46 783.2,-1277.37 774.38,-1283.24 779.97,-1287.46"/>
</g>
<!-- freefem -->
<g id="node20" class="node">
<title>freefem</title>
<g id="a_node20"><a xlink:href="https://github.com/conda-forge/freefem-feedstock" xlink:title="freefem">
<ellipse fill="#fde725" stroke="black" cx="1195.5" cy="-1330" rx="50.16" ry="18"/>
<text text-anchor="middle" x="1195.5" y="-1325.33" font-family="Times,serif" font-size="14.00">freefem</text>
</a>
</g>
</g>
<!-- petsc&#45;&gt;freefem -->
<g id="edge15" class="edge">
<title>petsc&#45;&gt;freefem</title>
<path fill="none" stroke="black" d="M1009.56,-1459.72C1032.62,-1450.09 1063.35,-1435.98 1088.5,-1420 1118.65,-1400.83 1149.67,-1374.11 1170.5,-1354.96"/>
<polygon fill="black" stroke="black" points="1172.72,-1357.67 1177.66,-1348.29 1167.95,-1352.55 1172.72,-1357.67"/>
</g>
<!-- dolfinx_mpc -->
<g id="node21" class="node">
<title>dolfinx_mpc</title>
<g id="a_node21"><a xlink:href="https://github.com/conda-forge/dolfinx_mpc-feedstock" xlink:title="dolfinx_mpc">
<ellipse fill="#fde725" stroke="black" cx="745.5" cy="-1186" rx="70.68" ry="18"/>
<text text-anchor="middle" x="745.5" y="-1181.33" font-family="Times,serif" font-size="14.00">dolfinx_mpc</text>
</a>
</g>
</g>
<!-- petsc&#45;&gt;dolfinx_mpc -->
<g id="edge16" class="edge">
<title>petsc&#45;&gt;dolfinx_mpc</title>
<path fill="none" stroke="black" d="M924.29,-1468.6C860.87,-1462.04 758.08,-1447.44 732.5,-1420 677.57,-1361.09 688.84,-1317.29 711.5,-1240 714.25,-1230.6 719.24,-1221.29 724.57,-1213.16"/>
<polygon fill="black" stroke="black" points="727.32,-1215.32 730.23,-1205.13 721.6,-1211.29 727.32,-1215.32"/>
</g>
<!-- petsc4py&#45;&gt;fenics -->
<g id="edge17" class="edge">
<title>petsc4py&#45;&gt;fenics</title>
<path fill="none" stroke="black" d="M850.03,-1387.77C870.78,-1378.8 896.53,-1365.4 915.5,-1348 934.58,-1330.5 949.94,-1305.26 959.89,-1286.12"/>
<polygon fill="black" stroke="black" points="962.96,-1287.8 964.3,-1277.29 956.7,-1284.67 962.96,-1287.8"/>
</g>
<!-- petsc4py&#45;&gt;fenics&#45;dolfinx -->
<g id="edge18" class="edge">
<title>petsc4py&#45;&gt;fenics&#45;dolfinx</title>
<path fill="none" stroke="black" d="M803.31,-1384.14C797.33,-1374.1 790.58,-1360.85 787.5,-1348 782.69,-1327.98 785.79,-1304.89 789.9,-1287.25"/>
<polygon fill="black" stroke="black" points="793.25,-1288.29 792.38,-1277.73 786.47,-1286.53 793.25,-1288.29"/>
</g>
<!-- slepc4py -->
<g id="node22" class="node">
<title>slepc4py</title>
<g id="a_node22"><a xlink:href="https://github.com/conda-forge/slepc4py-feedstock" xlink:title="slepc4py">
<ellipse fill="#fde725" stroke="black" cx="851.5" cy="-1330" rx="55.42" ry="18"/>
<text text-anchor="middle" x="851.5" y="-1325.33" font-family="Times,serif" font-size="14.00">slepc4py</text>
</a>
</g>
</g>
<!-- petsc4py&#45;&gt;slepc4py -->
<g id="edge19" class="edge">
<title>petsc4py&#45;&gt;slepc4py</title>
<path fill="none" stroke="black" d="M823.45,-1384.05C827.64,-1376.14 832.71,-1366.54 837.39,-1357.69"/>
<polygon fill="black" stroke="black" points="840.34,-1359.6 841.92,-1349.13 834.15,-1356.33 840.34,-1359.6"/>
</g>
<!-- slepc&#45;&gt;fenics -->
<g id="edge20" class="edge">
<title>slepc&#45;&gt;fenics</title>
<path fill="none" stroke="black" d="M1016.47,-1383.87C1007.98,-1359.78 992.43,-1315.6 982.28,-1286.77"/>
<polygon fill="black" stroke="black" points="985.68,-1285.89 979.05,-1277.62 979.07,-1288.21 985.68,-1285.89"/>
</g>
<!-- slepc&#45;&gt;yambo -->
<g id="edge21" class="edge">
<title>slepc&#45;&gt;yambo</title>
<path fill="none" stroke="black" d="M1036.11,-1385.12C1043.52,-1376.47 1052.86,-1365.58 1061.21,-1355.83"/>
<polygon fill="black" stroke="black" points="1063.68,-1358.33 1067.54,-1348.46 1058.37,-1353.77 1063.68,-1358.33"/>
</g>
<!-- slepc&#45;&gt;fenics&#45;dolfinx -->
<g id="edge22" class="edge">
<title>slepc&#45;&gt;fenics&#45;dolfinx</title>
<path fill="none" stroke="black" d="M1006.52,-1385.33C986.49,-1366.27 950.51,-1333.93 915.5,-1312 894.56,-1298.89 869.84,-1287.2 848.52,-1278.16"/>
<polygon fill="black" stroke="black" points="850.02,-1274.99 839.44,-1274.39 847.33,-1281.45 850.02,-1274.99"/>
</g>
<!-- slepc&#45;&gt;freefem -->
<g id="edge23" class="edge">
<title>slepc&#45;&gt;freefem</title>
<path fill="none" stroke="black" d="M1050.29,-1389.75C1077.93,-1378.57 1120.69,-1361.27 1152.66,-1348.33"/>
<polygon fill="black" stroke="black" points="1153.7,-1351.69 1161.65,-1344.69 1151.07,-1345.2 1153.7,-1351.69"/>
</g>
<!-- slepc&#45;&gt;slepc4py -->
<g id="edge24" class="edge">
<title>slepc&#45;&gt;slepc4py</title>
<path fill="none" stroke="black" d="M995.02,-1389.75C968.25,-1378.79 927.11,-1361.95 895.73,-1349.11"/>
<polygon fill="black" stroke="black" points="897.05,-1345.87 886.47,-1345.32 894.4,-1352.35 897.05,-1345.87"/>
</g>
<!-- fenics&#45;dolfinx&#45;&gt;dolfinx_mpc -->
<g id="edge25" class="edge">
<title>fenics&#45;dolfinx&#45;&gt;dolfinx_mpc</title>
<path fill="none" stroke="black" d="M785.67,-1240.05C779.48,-1231.89 771.93,-1221.91 765.05,-1212.82"/>
<polygon fill="black" stroke="black" points="767.95,-1210.86 759.12,-1205 762.37,-1215.08 767.95,-1210.86"/>
</g>
<!-- slepc4py&#45;&gt;fenics -->
<g id="edge26" class="edge">
<title>slepc4py&#45;&gt;fenics</title>
<path fill="none" stroke="black" d="M877.75,-1313.81C895.55,-1303.52 919.23,-1289.82 938.47,-1278.69"/>
<polygon fill="black" stroke="black" points="940.14,-1281.76 947.04,-1273.73 936.63,-1275.71 940.14,-1281.76"/>
</g>
<!-- slepc4py&#45;&gt;fenics&#45;dolfinx -->
<g id="edge27" class="edge">
<title>slepc4py&#45;&gt;fenics&#45;dolfinx</title>
<path fill="none" stroke="black" d="M838.67,-1312.05C832.48,-1303.89 824.93,-1293.91 818.05,-1284.82"/>
<polygon fill="black" stroke="black" points="820.95,-1282.86 812.12,-1277 815.37,-1287.08 820.95,-1282.86"/>
</g>
<!-- parabem -->
<g id="node24" class="node">
<title>parabem</title>
<g id="a_node24"><a xlink:href="https://github.com/conda-forge/parabem-feedstock/pull/17" xlink:title="parabem ❎">
<ellipse fill="#31688e" stroke="black" cx="455.5" cy="-1330" rx="70.68" ry="18"/>
<text text-anchor="middle" x="455.5" y="-1325.33" font-family="Times,serif" font-size="14.00" fill="white">parabem ❎</text>
</a>
</g>
</g>
<!-- lalinference&#45;&gt;parabem -->
<!-- lfpy -->
<g id="node25" class="node">
<title>lfpy</title>
<g id="a_node25"><a xlink:href="https://github.com/conda-forge/lfpy-feedstock" xlink:title="lfpy">
<ellipse fill="#35b779" stroke="black" cx="455.5" cy="-1258" rx="30.16" ry="18"/>
<text text-anchor="middle" x="455.5" y="-1253.33" font-family="Times,serif" font-size="14.00">lfpy</text>
</a>
</g>
</g>
<!-- parabem&#45;&gt;lfpy -->
<!-- dakota -->
<g id="node26" class="node">
<title>dakota</title>
<g id="a_node26"><a xlink:href="https://github.com/conda-forge/dakota-feedstock/pull/49" xlink:title="dakota ❎">
<ellipse fill="#31688e" stroke="black" cx="455.5" cy="-1186" rx="60.15" ry="18"/>
<text text-anchor="middle" x="455.5" y="-1181.33" font-family="Times,serif" font-size="14.00" fill="white">dakota ❎</text>
</a>
</g>
</g>
<!-- lfpy&#45;&gt;dakota -->
<!-- deepmd&#45;kit -->
<g id="node27" class="node">
<title>deepmd&#45;kit</title>
<g id="a_node27"><a xlink:href="https://github.com/conda-forge/deepmd-kit-feedstock" xlink:title="deepmd kit">
<ellipse fill="#35b779" stroke="black" cx="455.5" cy="-1114" rx="67.52" ry="18"/>
<text text-anchor="middle" x="455.5" y="-1109.33" font-family="Times,serif" font-size="14.00">deepmd kit</text>
</a>
</g>
</g>
<!-- dakota&#45;&gt;deepmd&#45;kit -->
<!-- scorec -->
<g id="node28" class="node">
<title>scorec</title>
<g id="a_node28"><a xlink:href="https://github.com/conda-forge/scorec-feedstock/pull/12" xlink:title="scorec ❎">
<ellipse fill="#31688e" stroke="black" cx="455.5" cy="-1042" rx="58.57" ry="18"/>
<text text-anchor="middle" x="455.5" y="-1037.33" font-family="Times,serif" font-size="14.00" fill="white">scorec ❎</text>
</a>
</g>
</g>
<!-- deepmd&#45;kit&#45;&gt;scorec -->
<!-- netcdf&#45;cxx&#45;legacy -->
<g id="node33" class="node">
<title>netcdf&#45;cxx&#45;legacy</title>
<g id="a_node33"><a xlink:href="https://github.com/conda-forge/netcdf-cxx-legacy-feedstock/pull/16" xlink:title="netcdf cxx legacy ❎">
<ellipse fill="#31688e" stroke="black" cx="455.5" cy="-970" rx="113.29" ry="18"/>
<text text-anchor="middle" x="455.5" y="-965.33" font-family="Times,serif" font-size="14.00" fill="white">netcdf cxx legacy ❎</text>
</a>
</g>
</g>
<!-- scorec&#45;&gt;netcdf&#45;cxx&#45;legacy -->
<!-- triqs -->
<g id="node29" class="node">
<title>triqs</title>
<g id="a_node29"><a xlink:href="https://github.com/conda-forge/triqs-feedstock/pull/64" xlink:title="triqs ❎">
<ellipse fill="#31688e" stroke="black" cx="983.5" cy="-674" rx="50.16" ry="18"/>
<text text-anchor="middle" x="983.5" y="-669.33" font-family="Times,serif" font-size="14.00" fill="white">triqs ❎</text>
</a>
</g>
</g>
<!-- triqs_tprf -->
<g id="node30" class="node">
<title>triqs_tprf</title>
<g id="a_node30"><a xlink:href="https://github.com/conda-forge/triqs_tprf-feedstock" xlink:title="triqs_tprf">
<ellipse fill="#fde725" stroke="black" cx="896.5" cy="-602" rx="58.57" ry="18"/>
<text text-anchor="middle" x="896.5" y="-597.33" font-family="Times,serif" font-size="14.00">triqs_tprf</text>
</a>
</g>
</g>
<!-- triqs&#45;&gt;triqs_tprf -->
<g id="edge34" class="edge">
<title>triqs&#45;&gt;triqs_tprf</title>
<path fill="none" stroke="black" d="M963.76,-657.12C952.46,-648.03 938.08,-636.46 925.52,-626.35"/>
<polygon fill="black" stroke="black" points="927.93,-623.8 917.94,-620.26 923.54,-629.25 927.93,-623.8"/>
</g>
<!-- triqs_cthyb -->
<g id="node31" class="node">
<title>triqs_cthyb</title>
<g id="a_node31"><a xlink:href="https://github.com/conda-forge/triqs_cthyb-feedstock" xlink:title="triqs_cthyb">
<ellipse fill="#fde725" stroke="black" cx="983.5" cy="-530" rx="67.52" ry="18"/>
<text text-anchor="middle" x="983.5" y="-525.33" font-family="Times,serif" font-size="14.00">triqs_cthyb</text>
</a>
</g>
</g>
<!-- triqs&#45;&gt;triqs_cthyb -->
<g id="edge35" class="edge">
<title>triqs&#45;&gt;triqs_cthyb</title>
<path fill="none" stroke="black" d="M983.5,-655.59C983.5,-631.61 983.5,-588.14 983.5,-559.42"/>
<polygon fill="black" stroke="black" points="987,-559.62 983.5,-549.62 980,-559.62 987,-559.62"/>
</g>
<!-- triqs_dft_tools -->
<g id="node32" class="node">
<title>triqs_dft_tools</title>
<g id="a_node32"><a xlink:href="https://github.com/conda-forge/triqs_dft_tools-feedstock" xlink:title="triqs_dft_tools">
<ellipse fill="#fde725" stroke="black" cx="1079.5" cy="-458" rx="82.77" ry="18"/>
<text text-anchor="middle" x="1079.5" y="-453.32" font-family="Times,serif" font-size="14.00">triqs_dft_tools</text>
</a>
</g>
</g>
<!-- triqs&#45;&gt;triqs_dft_tools -->
<g id="edge36" class="edge">
<title>triqs&#45;&gt;triqs_dft_tools</title>
<path fill="none" stroke="black" d="M996.47,-656.21C1013.67,-633.11 1043.81,-589.64 1060.5,-548 1068.28,-528.58 1073.1,-505.43 1075.93,-487.61"/>
<polygon fill="black" stroke="black" points="1079.39,-488.14 1077.37,-477.74 1072.47,-487.13 1079.39,-488.14"/>
</g>
<!-- conduit -->
<g id="node34" class="node">
<title>conduit</title>
<g id="a_node34"><a xlink:href="https://github.com/conda-forge/conduit-feedstock/pull/46" xlink:title="conduit ✓">
<ellipse fill="#31688e" stroke="black" cx="117.5" cy="-1690" rx="56.47" ry="18"/>
<text text-anchor="middle" x="117.5" y="-1685.33" font-family="Times,serif" font-size="14.00" fill="white">conduit ✓</text>
</a>
</g>
</g>
<!-- parsplice -->
<g id="node35" class="node">
<title>parsplice</title>
<g id="a_node35"><a xlink:href="https://github.com/conda-forge/parsplice-feedstock/pull/13" xlink:title="parsplice ❎">
<ellipse fill="#31688e" stroke="black" cx="117.5" cy="-1618" rx="72.25" ry="18"/>
<text text-anchor="middle" x="117.5" y="-1613.33" font-family="Times,serif" font-size="14.00" fill="white">parsplice ❎</text>
</a>
</g>
</g>
<!-- conduit&#45;&gt;parsplice -->
<!-- parsmurf -->
<g id="node36" class="node">
<title>parsmurf</title>
<g id="a_node36"><a xlink:href="https://github.com/conda-forge/parsmurf-feedstock/pull/4" xlink:title="parsmurf ❎">
<ellipse fill="#31688e" stroke="black" cx="117.5" cy="-1546" rx="72.78" ry="18"/>
<text text-anchor="middle" x="117.5" y="-1541.33" font-family="Times,serif" font-size="14.00" fill="white">parsmurf ❎</text>
</a>
</g>
</g>
<!-- parsplice&#45;&gt;parsmurf -->
<!-- dedalus -->
<g id="node40" class="node">
<title>dedalus</title>
<g id="a_node40"><a xlink:href="https://github.com/conda-forge/dedalus-feedstock" xlink:title="dedalus">
<ellipse fill="#35b779" stroke="black" cx="117.5" cy="-1474" rx="50.16" ry="18"/>
<text text-anchor="middle" x="117.5" y="-1469.33" font-family="Times,serif" font-size="14.00">dedalus</text>
</a>
</g>
</g>
<!-- parsmurf&#45;&gt;dedalus -->
<!-- qe -->
<g id="node37" class="node">
<title>qe</title>
<g id="a_node37"><a xlink:href="https://github.com/conda-forge/qe-feedstock" xlink:title="qe">
<ellipse fill="#fde725" stroke="black" cx="566.5" cy="-494" rx="27" ry="18"/>
<text text-anchor="middle" x="566.5" y="-489.32" font-family="Times,serif" font-size="14.00">qe</text>
</a>
</g>
</g>
<!-- dftbplus -->
<g id="node38" class="node">
<title>dftbplus</title>
<g id="a_node38"><a xlink:href="https://github.com/conda-forge/dftbplus-feedstock" xlink:title="dftbplus">
<ellipse fill="#fde725" stroke="black" cx="335.5" cy="-422" rx="52.79" ry="18"/>
<text text-anchor="middle" x="335.5" y="-417.32" font-family="Times,serif" font-size="14.00">dftbplus</text>
</a>
</g>
</g>
<!-- libmbd -->
<g id="node39" class="node">
<title>libmbd</title>
<g id="a_node39"><a xlink:href="https://github.com/conda-forge/libmbd-feedstock" xlink:title="libmbd">
<ellipse fill="#fde725" stroke="black" cx="335.5" cy="-494" rx="45.95" ry="18"/>
<text text-anchor="middle" x="335.5" y="-489.32" font-family="Times,serif" font-size="14.00">libmbd</text>
</a>
</g>
</g>
<!-- libmbd&#45;&gt;dftbplus -->
<g id="edge40" class="edge">
<title>libmbd&#45;&gt;dftbplus</title>
<path fill="none" stroke="black" d="M335.5,-475.7C335.5,-468.41 335.5,-459.73 335.5,-451.54"/>
<polygon fill="black" stroke="black" points="339,-451.62 335.5,-441.62 332,-451.62 339,-451.62"/>
</g>
<!-- mrchem -->
<g id="node41" class="node">
<title>mrchem</title>
<g id="a_node41"><a xlink:href="https://github.com/conda-forge/mrchem-feedstock/pull/28" xlink:title="mrchem ❎">
<ellipse fill="#31688e" stroke="black" cx="117.5" cy="-1402" rx="67.52" ry="18"/>
<text text-anchor="middle" x="117.5" y="-1397.33" font-family="Times,serif" font-size="14.00" fill="white">mrchem ❎</text>
</a>
</g>
</g>
<!-- dedalus&#45;&gt;mrchem -->
<!-- tempest&#45;extremes -->
<g id="node42" class="node">
<title>tempest&#45;extremes</title>
<g id="a_node42"><a xlink:href="https://github.com/conda-forge/tempest-extremes-feedstock/pull/9" xlink:title="tempest extremes ❎">
<ellipse fill="#31688e" stroke="black" cx="117.5" cy="-1330" rx="117.5" ry="18"/>
<text text-anchor="middle" x="117.5" y="-1325.33" font-family="Times,serif" font-size="14.00" fill="white">tempest extremes ❎</text>
</a>
</g>
</g>
<!-- mrchem&#45;&gt;tempest&#45;extremes -->
<!-- analisi -->
<g id="node44" class="node">
<title>analisi</title>
<g id="a_node44"><a xlink:href="https://github.com/conda-forge/analisi-feedstock/pull/33" xlink:title="analisi ✓">
<ellipse fill="#31688e" stroke="black" cx="117.5" cy="-1258" rx="51.74" ry="18"/>
<text text-anchor="middle" x="117.5" y="-1253.33" font-family="Times,serif" font-size="14.00" fill="white">analisi ✓</text>
</a>
</g>
</g>
<!-- tempest&#45;extremes&#45;&gt;analisi -->
<!-- libnegf -->
<g id="node43" class="node">
<title>libnegf</title>
<g id="a_node43"><a xlink:href="https://github.com/conda-forge/libnegf-feedstock/pull/17" xlink:title="libnegf ❎">
<ellipse fill="#31688e" stroke="black" cx="460.5" cy="-494" rx="61.2" ry="18"/>
<text text-anchor="middle" x="460.5" y="-489.32" font-family="Times,serif" font-size="14.00" fill="white">libnegf ❎</text>
</a>
</g>
</g>
<!-- libnegf&#45;&gt;dftbplus -->
<g id="edge44" class="edge">
<title>libnegf&#45;&gt;dftbplus</title>
<path fill="none" stroke="black" d="M433.07,-477.64C415.07,-467.56 391.35,-454.28 371.8,-443.33"/>
<polygon fill="black" stroke="black" points="373.76,-440.42 363.33,-438.59 370.34,-446.53 373.76,-440.42"/>
</g>
<!-- nwchem -->
<g id="node45" class="node">
<title>nwchem</title>
<g id="a_node45"><a xlink:href="https://github.com/conda-forge/nwchem-feedstock/pull/49" xlink:title="nwchem ❎">
<ellipse fill="#31688e" stroke="black" cx="117.5" cy="-1186" rx="68.04" ry="18"/>
<text text-anchor="middle" x="117.5" y="-1181.33" font-family="Times,serif" font-size="14.00" fill="white">nwchem ❎</text>
</a>
</g>
</g>
<!-- analisi&#45;&gt;nwchem -->
<!-- bmad -->
<g id="node46" class="node">
<title>bmad</title>
<g id="a_node46"><a xlink:href="https://github.com/conda-forge/bmad-feedstock/pull/412" xlink:title="bmad ✓">
<ellipse fill="#31688e" stroke="black" cx="117.5" cy="-1114" rx="47" ry="18"/>
<text text-anchor="middle" x="117.5" y="-1109.33" font-family="Times,serif" font-size="14.00" fill="white">bmad ✓</text>
</a>
</g>
</g>
<!-- nwchem&#45;&gt;bmad -->
<!-- mfem -->
<g id="node47" class="node">
<title>mfem</title>
<g id="a_node47"><a xlink:href="https://github.com/conda-forge/mfem-feedstock/pull/13" xlink:title="mfem ❎">
<ellipse fill="#31688e" stroke="black" cx="117.5" cy="-1042" rx="54.89" ry="18"/>
<text text-anchor="middle" x="117.5" y="-1037.33" font-family="Times,serif" font-size="14.00" fill="white">mfem ❎</text>
</a>
</g>
</g>
<!-- bmad&#45;&gt;mfem -->
<!-- ondamonitor -->
<g id="node48" class="node">
<title>ondamonitor</title>
<g id="a_node48"><a xlink:href="https://github.com/conda-forge/ondamonitor-feedstock" xlink:title="ondamonitor">
<ellipse fill="#35b779" stroke="black" cx="117.5" cy="-970" rx="74.88" ry="18"/>
<text text-anchor="middle" x="117.5" y="-965.33" font-family="Times,serif" font-size="14.00">ondamonitor</text>
</a>
</g>
</g>
<!-- mfem&#45;&gt;ondamonitor -->
<!-- alamode -->
<g id="node49" class="node">
<title>alamode</title>
<g id="a_node49"><a xlink:href="https://github.com/conda-forge/alamode-feedstock" xlink:title="alamode">
<ellipse fill="#35b779" stroke="black" cx="117.5" cy="-926" rx="53.31" ry="18"/>
<text text-anchor="middle" x="117.5" y="-921.33" font-family="Times,serif" font-size="14.00">alamode</text>
</a>
</g>
</g>
<!-- timemory -->
<g id="node50" class="node">
<title>timemory</title>
<g id="a_node50"><a xlink:href="https://github.com/conda-forge/timemory-feedstock" xlink:title="timemory">
<ellipse fill="#000000" stroke="black" cx="117.5" cy="-854" rx="59.63" ry="18"/>
<text text-anchor="middle" x="117.5" y="-849.33" font-family="Times,serif" font-size="14.00" fill="white">timemory</text>
</a>
</g>
</g>
<!-- alamode&#45;&gt;timemory -->
<!-- pexsi -->
<g id="node51" class="node">
<title>pexsi</title>
<g id="a_node51"><a xlink:href="https://github.com/conda-forge/pexsi-feedstock/pull/10" xlink:title="pexsi ❎">
<ellipse fill="#31688e" stroke="black" cx="117.5" cy="-782" rx="52.79" ry="18"/>
<text text-anchor="middle" x="117.5" y="-777.33" font-family="Times,serif" font-size="14.00" fill="white">pexsi ❎</text>
</a>
</g>
</g>
<!-- timemory&#45;&gt;pexsi -->
<!-- eigenexa -->
<g id="node57" class="node">
<title>eigenexa</title>
<g id="a_node57"><a xlink:href="https://github.com/conda-forge/eigenexa-feedstock/pull/3" xlink:title="eigenexa ❎">
<ellipse fill="#31688e" stroke="black" cx="117.5" cy="-710" rx="71.2" ry="18"/>
<text text-anchor="middle" x="117.5" y="-705.33" font-family="Times,serif" font-size="14.00" fill="white">eigenexa ❎</text>
</a>
</g>
</g>
<!-- pexsi&#45;&gt;eigenexa -->
<!-- elpa -->
<g id="node52" class="node">
<title>elpa</title>
<g id="a_node52"><a xlink:href="https://github.com/conda-forge/elpa-feedstock/pull/26" xlink:title="elpa ❎">
<ellipse fill="#31688e" stroke="black" cx="532.5" cy="-638" rx="47.53" ry="18"/>
<text text-anchor="middle" x="532.5" y="-633.33" font-family="Times,serif" font-size="14.00" fill="white">elpa ❎</text>
</a>
</g>
</g>
<!-- elpa&#45;&gt;siesta -->
<g id="edge52" class="edge">
<title>elpa&#45;&gt;siesta</title>
<path fill="none" stroke="black" d="M524.03,-620.05C520.11,-612.23 515.37,-602.75 510.99,-593.98"/>
<polygon fill="black" stroke="black" points="514.17,-592.52 506.57,-585.14 507.91,-595.65 514.17,-592.52"/>
</g>
<!-- elpa&#45;&gt;qe -->
<g id="edge53" class="edge">
<title>elpa&#45;&gt;qe</title>
<path fill="none" stroke="black" d="M537.65,-619.89C540.68,-609.54 544.51,-596.07 547.5,-584 552.5,-563.82 557.38,-540.86 560.95,-523.32"/>
<polygon fill="black" stroke="black" points="564.36,-524.11 562.89,-513.62 557.49,-522.74 564.36,-524.11"/>
</g>
<!-- elsi -->
<g id="node53" class="node">
<title>elsi</title>
<g id="a_node53"><a xlink:href="https://github.com/conda-forge/elsi-feedstock" xlink:title="elsi">
<ellipse fill="#fde725" stroke="black" cx="335.5" cy="-566" rx="28.59" ry="18"/>
<text text-anchor="middle" x="335.5" y="-561.33" font-family="Times,serif" font-size="14.00">elsi</text>
</a>
</g>
</g>
<!-- elpa&#45;&gt;elsi -->
<g id="edge54" class="edge">
<title>elpa&#45;&gt;elsi</title>
<path fill="none" stroke="black" d="M498.63,-624.97C462.84,-612.25 406.67,-592.29 370.46,-579.42"/>
<polygon fill="black" stroke="black" points="371.94,-576.23 361.34,-576.18 369.59,-582.83 371.94,-576.23"/>
</g>
<!-- abacus -->
<g id="node54" class="node">
<title>abacus</title>
<g id="a_node54"><a xlink:href="https://github.com/conda-forge/abacus-feedstock" xlink:title="abacus">
<ellipse fill="#fde725" stroke="black" cx="621.5" cy="-422" rx="45.95" ry="18"/>
<text text-anchor="middle" x="621.5" y="-417.32" font-family="Times,serif" font-size="14.00">abacus</text>
</a>
</g>
</g>
<!-- elpa&#45;&gt;abacus -->
<g id="edge55" class="edge">
<title>elpa&#45;&gt;abacus</title>
<path fill="none" stroke="black" d="M543.13,-619.96C549.48,-609.64 557.62,-596.16 564.5,-584 582.3,-552.5 590.16,-546.01 602.5,-512 609.59,-492.45 614.41,-469.48 617.42,-451.77"/>
<polygon fill="black" stroke="black" points="620.87,-452.37 618.99,-441.95 613.96,-451.27 620.87,-452.37"/>
</g>
<!-- elsi&#45;&gt;dftbplus -->
<g id="edge56" class="edge">
<title>elsi&#45;&gt;dftbplus</title>
<path fill="none" stroke="black" d="M316.05,-552.54C303.3,-543.13 287.71,-528.96 280.5,-512 274.24,-497.28 274.24,-490.72 280.5,-476 285.41,-464.44 294.22,-454.18 303.37,-445.84"/>
<polygon fill="black" stroke="black" points="305.58,-448.55 310.97,-439.42 301.07,-443.2 305.58,-448.55"/>
</g>
<!-- elsi&#45;&gt;libmbd -->
<g id="edge57" class="edge">
<title>elsi&#45;&gt;libmbd</title>
<path fill="none" stroke="black" d="M335.5,-547.7C335.5,-540.41 335.5,-531.73 335.5,-523.54"/>
<polygon fill="black" stroke="black" points="339,-523.62 335.5,-513.62 332,-523.62 339,-523.62"/>
</g>
<!-- libomm -->
<g id="node55" class="node">
<title>libomm</title>
<g id="a_node55"><a xlink:href="https://github.com/conda-forge/libomm-feedstock" xlink:title="libomm">
<ellipse fill="#fde725" stroke="black" cx="374.5" cy="-638" rx="48.58" ry="18"/>
<text text-anchor="middle" x="374.5" y="-633.33" font-family="Times,serif" font-size="14.00">libomm</text>
</a>
</g>
</g>
<!-- libomm&#45;&gt;elsi -->
<g id="edge58" class="edge">
<title>libomm&#45;&gt;elsi</title>
<path fill="none" stroke="black" d="M365.06,-620.05C360.59,-612.03 355.14,-602.26 350.15,-593.3"/>
<polygon fill="black" stroke="black" points="353.24,-591.66 345.32,-584.63 347.13,-595.07 353.24,-591.66"/>
</g>
<!-- matrixswitch -->
<g id="node56" class="node">
<title>matrixswitch</title>
<g id="a_node56"><a xlink:href="https://github.com/conda-forge/matrixswitch-feedstock/pull/7" xlink:title="matrixswitch ❎">
<ellipse fill="#31688e" stroke="black" cx="335.5" cy="-710" rx="92.25" ry="18"/>
<text text-anchor="middle" x="335.5" y="-705.33" font-family="Times,serif" font-size="14.00" fill="white">matrixswitch ❎</text>
</a>
</g>
</g>
<!-- matrixswitch&#45;&gt;elsi -->
<g id="edge59" class="edge">
<title>matrixswitch&#45;&gt;elsi</title>
<path fill="none" stroke="black" d="M327.6,-691.75C323.39,-681.58 318.64,-668.33 316.5,-656 313.76,-640.24 313.76,-635.76 316.5,-620 317.98,-611.49 320.7,-602.54 323.63,-594.47"/>
<polygon fill="black" stroke="black" points="326.88,-595.78 327.25,-585.19 320.35,-593.23 326.88,-595.78"/>
</g>
<!-- matrixswitch&#45;&gt;libomm -->
<g id="edge60" class="edge">
<title>matrixswitch&#45;&gt;libomm</title>
<path fill="none" stroke="black" d="M345.14,-691.7C349.44,-683.98 354.6,-674.71 359.39,-666.11"/>
<polygon fill="black" stroke="black" points="362.42,-667.87 364.23,-657.43 356.31,-664.46 362.42,-667.87"/>
</g>
<!-- fleur -->
<g id="node58" class="node">
<title>fleur</title>
<g id="a_node58"><a xlink:href="https://github.com/conda-forge/fleur-feedstock/pull/19" xlink:title="fleur ✓">
<ellipse fill="#31688e" stroke="black" cx="117.5" cy="-638" rx="42.26" ry="18"/>
<text text-anchor="middle" x="117.5" y="-633.33" font-family="Times,serif" font-size="14.00" fill="white">fleur ✓</text>
</a>
</g>
</g>
<!-- eigenexa&#45;&gt;fleur -->
<!-- edrixs -->
<g id="node59" class="node">
<title>edrixs</title>
<g id="a_node59"><a xlink:href="https://github.com/conda-forge/edrixs-feedstock/pull/14" xlink:title="edrixs ❎">
<ellipse fill="#31688e" stroke="black" cx="117.5" cy="-566" rx="57.52" ry="18"/>
<text text-anchor="middle" x="117.5" y="-561.33" font-family="Times,serif" font-size="14.00" fill="white">edrixs ❎</text>
</a>
</g>
</g>
<!-- fleur&#45;&gt;edrixs -->
<!-- openphase -->
<g id="node60" class="node">
<title>openphase</title>
<g id="a_node60"><a xlink:href="https://github.com/conda-forge/openphase-feedstock/pull/2" xlink:title="openphase ❎">
<ellipse fill="#31688e" stroke="black" cx="117.5" cy="-494" rx="80.14" ry="18"/>
<text text-anchor="middle" x="117.5" y="-489.32" font-family="Times,serif" font-size="14.00" fill="white">openphase ❎</text>
</a>
</g>
</g>
<!-- edrixs&#45;&gt;openphase -->
<!-- sparc&#45;x -->
<g id="node61" class="node">
<title>sparc&#45;x</title>
<g id="a_node61"><a xlink:href="https://github.com/conda-forge/sparc-x-feedstock/pull/9" xlink:title="sparc x ❎">
<ellipse fill="#31688e" stroke="black" cx="117.5" cy="-422" rx="62.78" ry="18"/>
<text text-anchor="middle" x="117.5" y="-417.32" font-family="Times,serif" font-size="14.00" fill="white">sparc x ❎</text>
</a>
</g>
</g>
<!-- openphase&#45;&gt;sparc&#45;x -->
<!-- reef3d -->
<g id="node62" class="node">
<title>reef3d</title>
<g id="a_node62"><a xlink:href="https://github.com/conda-forge/reef3d-feedstock/pull/11" xlink:title="reef3d ✓">
<ellipse fill="#31688e" stroke="black" cx="117.5" cy="-350" rx="51.74" ry="18"/>
<text text-anchor="middle" x="117.5" y="-345.32" font-family="Times,serif" font-size="14.00" fill="white">reef3d ✓</text>
</a>
</g>
</g>
<!-- sparc&#45;x&#45;&gt;reef3d -->
<!-- horovod -->
<g id="node63" class="node">
<title>horovod</title>
<g id="a_node63"><a xlink:href="https://github.com/conda-forge/horovod-feedstock" xlink:title="horovod">
<ellipse fill="#35b779" stroke="black" cx="117.5" cy="-278" rx="51.74" ry="18"/>
<text text-anchor="middle" x="117.5" y="-273.32" font-family="Times,serif" font-size="14.00">horovod</text>
</a>
</g>
</g>
<!-- reef3d&#45;&gt;horovod -->
<!-- genesis4 -->
<g id="node64" class="node">
<title>genesis4</title>
<g id="a_node64"><a xlink:href="https://github.com/conda-forge/genesis4-feedstock/pull/12" xlink:title="genesis4 ❎">
<ellipse fill="#31688e" stroke="black" cx="117.5" cy="-206" rx="70.68" ry="18"/>
<text text-anchor="middle" x="117.5" y="-201.32" font-family="Times,serif" font-size="14.00" fill="white">genesis4 ❎</text>
</a>
</g>
</g>
<!-- horovod&#45;&gt;genesis4 -->
<!-- fluidfft&#45;mpi_with_fftw -->
<g id="node65" class="node">
<title>fluidfft&#45;mpi_with_fftw</title>
<g id="a_node65"><a xlink:href="https://github.com/conda-forge/fluidfft-mpi_with_fftw-feedstock" xlink:title="fluidfft mpi_with_fftw">
<ellipse fill="#35b779" stroke="black" cx="455.5" cy="-126" rx="117.5" ry="18"/>
<text text-anchor="middle" x="455.5" y="-121.33" font-family="Times,serif" font-size="14.00">fluidfft mpi_with_fftw</text>
</a>
</g>
</g>
<!-- opentelemac -->
<g id="node66" class="node">
<title>opentelemac</title>
<g id="a_node66"><a xlink:href="https://github.com/conda-forge/opentelemac-feedstock/pull/2" xlink:title="opentelemac ✓">
<ellipse fill="#31688e" stroke="black" cx="455.5" cy="-54" rx="82.77" ry="18"/>
<text text-anchor="middle" x="455.5" y="-49.33" font-family="Times,serif" font-size="14.00" fill="white">opentelemac ✓</text>
</a>
</g>
</g>
<!-- fluidfft&#45;mpi_with_fftw&#45;&gt;opentelemac -->
</g>
</svg>
