<?xml version="1.0" encoding="UTF-8" standalone="no"?>
<!DOCTYPE svg PUBLIC "-//W3C//DTD SVG 1.1//EN"
 "http://www.w3.org/Graphics/SVG/1.1/DTD/svg11.dtd">
<!-- Generated by graphviz version 11.0.0 (20240519.1550)
 -->
<!-- Pages: 1 -->
<svg width="1038pt" height="1428pt"
 viewBox="0.00 0.00 1037.70 1428.00" xmlns="http://www.w3.org/2000/svg" xmlns:xlink="http://www.w3.org/1999/xlink">
<g id="graph0" class="graph" transform="scale(1 1) rotate(0) translate(4 1424)">
<polygon fill="white" stroke="none" points="-4,4 -4,-1424 1033.7,-1424 1033.7,4 -4,4"/>
<!-- fenics -->
<g id="node1" class="node">
<title>fenics</title>
<g id="a_node1"><a xlink:href="https://github.com/conda-forge/fenics-feedstock" xlink:title="fenics">
<ellipse fill="#fde725" stroke="black" cx="314.76" cy="-386" rx="40.69" ry="18"/>
<text text-anchor="middle" x="314.76" y="-381.32" font-family="Times,serif" font-size="14.00">fenics</text>
</a>
</g>
</g>
<!-- mshr -->
<g id="node2" class="node">
<title>mshr</title>
<g id="a_node2"><a xlink:href="https://github.com/conda-forge/mshr-feedstock" xlink:title="mshr">
<ellipse fill="#fde725" stroke="black" cx="314.76" cy="-314" rx="37" ry="18"/>
<text text-anchor="middle" x="314.76" y="-309.32" font-family="Times,serif" font-size="14.00">mshr</text>
</a>
</g>
</g>
<!-- fenics&#45;&gt;mshr -->
<g id="edge1" class="edge">
<title>fenics&#45;&gt;mshr</title>
<path fill="none" stroke="black" d="M314.76,-367.7C314.76,-360.41 314.76,-351.73 314.76,-343.54"/>
<polygon fill="black" stroke="black" points="318.26,-343.62 314.76,-333.62 311.26,-343.62 318.26,-343.62"/>
</g>
<!-- openmc -->
<g id="node3" class="node">
<title>openmc</title>
<g id="a_node3"><a xlink:href="https://github.com/conda-forge/openmc-feedstock/pull/71" xlink:title="openmc ✓">
<ellipse fill="#31688e" stroke="black" cx="404.76" cy="-1402" rx="58.05" ry="18"/>
<text text-anchor="middle" x="404.76" y="-1397.33" font-family="Times,serif" font-size="14.00" fill="white">openmc ✓</text>
</a>
</g>
</g>
<!-- pytrilinos -->
<g id="node4" class="node">
<title>pytrilinos</title>
<g id="a_node4"><a xlink:href="https://github.com/conda-forge/pytrilinos-feedstock/pull/56" xlink:title="pytrilinos ❎">
<ellipse fill="#31688e" stroke="black" cx="404.76" cy="-1330" rx="74.36" ry="18"/>
<text text-anchor="middle" x="404.76" y="-1325.33" font-family="Times,serif" font-size="14.00" fill="white">pytrilinos ❎</text>
</a>
</g>
</g>
<!-- openmc&#45;&gt;pytrilinos -->
<!-- numcosmo -->
<g id="node5" class="node">
<title>numcosmo</title>
<g id="a_node5"><a xlink:href="https://github.com/conda-forge/numcosmo-feedstock/pull/63" xlink:title="numcosmo ✓">
<ellipse fill="#31688e" stroke="black" cx="404.76" cy="-1258" rx="72.78" ry="18"/>
<text text-anchor="middle" x="404.76" y="-1253.33" font-family="Times,serif" font-size="14.00" fill="white">numcosmo ✓</text>
</a>
</g>
</g>
<!-- pytrilinos&#45;&gt;numcosmo -->
<!-- trilinos -->
<g id="node11" class="node">
<title>trilinos</title>
<g id="a_node11"><a xlink:href="https://github.com/conda-forge/trilinos-feedstock/pull/47" xlink:title="trilinos ❎">
<ellipse fill="#31688e" stroke="black" cx="404.76" cy="-1186" rx="62.26" ry="18"/>
<text text-anchor="middle" x="404.76" y="-1181.33" font-family="Times,serif" font-size="14.00" fill="white">trilinos ❎</text>
</a>
</g>
</g>
<!-- numcosmo&#45;&gt;trilinos -->
<!-- siesta -->
<g id="node6" class="node">
<title>siesta</title>
<g id="a_node6"><a xlink:href="https://github.com/conda-forge/siesta-feedstock" xlink:title="siesta">
<ellipse fill="#fde725" stroke="black" cx="793.76" cy="-1078" rx="40.69" ry="18"/>
<text text-anchor="middle" x="793.76" y="-1073.33" font-family="Times,serif" font-size="14.00">siesta</text>
</a>
</g>
</g>
<!-- petsc4py -->
<g id="node7" class="node">
<title>petsc4py</title>
<g id="a_node7"><a xlink:href="https://github.com/conda-forge/petsc4py-feedstock" xlink:title="petsc4py">
<ellipse fill="#000000" stroke="black" cx="382.76" cy="-530" rx="56.47" ry="18"/>
<text text-anchor="middle" x="382.76" y="-525.33" font-family="Times,serif" font-size="14.00" fill="white">petsc4py</text>
</a>
</g>
</g>
<!-- petsc4py&#45;&gt;fenics -->
<g id="edge4" class="edge">
<title>petsc4py&#45;&gt;fenics</title>
<path fill="none" stroke="black" d="M355.29,-513.81C341.75,-504.74 326.66,-491.88 318.76,-476 309.52,-457.46 308.85,-433.97 310.32,-415.78"/>
<polygon fill="black" stroke="black" points="313.79,-416.25 311.39,-405.93 306.83,-415.49 313.79,-416.25"/>
</g>
<!-- slepc4py -->
<g id="node8" class="node">
<title>slepc4py</title>
<g id="a_node8"><a xlink:href="https://github.com/conda-forge/slepc4py-feedstock" xlink:title="slepc4py">
<ellipse fill="#fde725" stroke="black" cx="382.76" cy="-458" rx="55.42" ry="18"/>
<text text-anchor="middle" x="382.76" y="-453.32" font-family="Times,serif" font-size="14.00">slepc4py</text>
</a>
</g>
</g>
<!-- petsc4py&#45;&gt;slepc4py -->
<g id="edge5" class="edge">
<title>petsc4py&#45;&gt;slepc4py</title>
<path fill="none" stroke="black" d="M382.76,-511.7C382.76,-504.41 382.76,-495.73 382.76,-487.54"/>
<polygon fill="black" stroke="black" points="386.26,-487.62 382.76,-477.62 379.26,-487.62 386.26,-487.62"/>
</g>
<!-- fenics&#45;dolfinx -->
<g id="node9" class="node">
<title>fenics&#45;dolfinx</title>
<g id="a_node9"><a xlink:href="https://github.com/conda-forge/fenics-dolfinx-feedstock" xlink:title="fenics dolfinx">
<ellipse fill="#fde725" stroke="black" cx="457.76" cy="-386" rx="77.52" ry="18"/>
<text text-anchor="middle" x="457.76" y="-381.32" font-family="Times,serif" font-size="14.00">fenics dolfinx</text>
</a>
</g>
</g>
<!-- petsc4py&#45;&gt;fenics&#45;dolfinx -->
<g id="edge6" class="edge">
<title>petsc4py&#45;&gt;fenics&#45;dolfinx</title>
<path fill="none" stroke="black" d="M409.4,-513.77C422.88,-504.61 438.16,-491.69 446.76,-476 456.83,-457.61 459.35,-433.93 459.47,-415.62"/>
<polygon fill="black" stroke="black" points="462.97,-415.65 459.28,-405.71 455.97,-415.78 462.97,-415.65"/>
</g>
<!-- slepc4py&#45;&gt;fenics -->
<g id="edge7" class="edge">
<title>slepc4py&#45;&gt;fenics</title>
<path fill="none" stroke="black" d="M366.64,-440.41C358.13,-431.66 347.54,-420.75 338.15,-411.08"/>
<polygon fill="black" stroke="black" points="340.82,-408.81 331.34,-404.07 335.8,-413.69 340.82,-408.81"/>
</g>
<!-- slepc4py&#45;&gt;fenics&#45;dolfinx -->
<g id="edge8" class="edge">
<title>slepc4py&#45;&gt;fenics&#45;dolfinx</title>
<path fill="none" stroke="black" d="M400.15,-440.76C409.41,-432.12 421,-421.3 431.35,-411.65"/>
<polygon fill="black" stroke="black" points="433.64,-414.29 438.56,-404.91 428.87,-409.18 433.64,-414.29"/>
</g>
<!-- dolfinx_mpc -->
<g id="node10" class="node">
<title>dolfinx_mpc</title>
<g id="a_node10"><a xlink:href="https://github.com/conda-forge/dolfinx_mpc-feedstock" xlink:title="dolfinx_mpc">
<ellipse fill="#fde725" stroke="black" cx="457.76" cy="-314" rx="70.68" ry="18"/>
<text text-anchor="middle" x="457.76" y="-309.32" font-family="Times,serif" font-size="14.00">dolfinx_mpc</text>
</a>
</g>
</g>
<!-- fenics&#45;dolfinx&#45;&gt;dolfinx_mpc -->
<g id="edge9" class="edge">
<title>fenics&#45;dolfinx&#45;&gt;dolfinx_mpc</title>
<path fill="none" stroke="black" d="M457.76,-367.7C457.76,-360.41 457.76,-351.73 457.76,-343.54"/>
<polygon fill="black" stroke="black" points="461.26,-343.62 457.76,-333.62 454.26,-343.62 461.26,-343.62"/>
</g>
<!-- asap3 -->
<g id="node12" class="node">
<title>asap3</title>
<g id="a_node12"><a xlink:href="https://github.com/conda-forge/asap3-feedstock/pull/47" xlink:title="asap3 ✓">
<ellipse fill="#31688e" stroke="black" cx="404.76" cy="-1114" rx="48.58" ry="18"/>
<text text-anchor="middle" x="404.76" y="-1109.33" font-family="Times,serif" font-size="14.00" fill="white">asap3 ✓</text>
</a>
</g>
</g>
<!-- trilinos&#45;&gt;asap3 -->
<!-- lalinference -->
<g id="node16" class="node">
<title>lalinference</title>
<g id="a_node16"><a xlink:href="https://github.com/conda-forge/lalinference-feedstock/pull/63" xlink:title="lalinference ✓">
<ellipse fill="#31688e" stroke="black" cx="404.76" cy="-1042" rx="78.04" ry="18"/>
<text text-anchor="middle" x="404.76" y="-1037.33" font-family="Times,serif" font-size="14.00" fill="white">lalinference ✓</text>
</a>
</g>
</g>
<!-- asap3&#45;&gt;lalinference -->
<!-- lammps -->
<g id="node13" class="node">
<title>lammps</title>
<g id="a_node13"><a xlink:href="https://github.com/conda-forge/lammps-feedstock/pull/198" xlink:title="lammps ❎">
<ellipse fill="#31688e" stroke="black" cx="783.76" cy="-494" rx="65.94" ry="18"/>
<text text-anchor="middle" x="783.76" y="-489.32" font-family="Times,serif" font-size="14.00" fill="white">lammps ❎</text>
</a>
</g>
</g>
<!-- deepmd&#45;kit -->
<g id="node14" class="node">
<title>deepmd&#45;kit</title>
<g id="a_node14"><a xlink:href="https://github.com/conda-forge/deepmd-kit-feedstock" xlink:title="deepmd kit">
<ellipse fill="#fde725" stroke="black" cx="735.76" cy="-422" rx="67.52" ry="18"/>
<text text-anchor="middle" x="735.76" y="-417.32" font-family="Times,serif" font-size="14.00">deepmd kit</text>
</a>
</g>
</g>
<!-- lammps&#45;&gt;deepmd&#45;kit -->
<g id="edge12" class="edge">
<title>lammps&#45;&gt;deepmd&#45;kit</title>
<path fill="none" stroke="black" d="M772.14,-476.05C766.59,-467.97 759.84,-458.12 753.66,-449.11"/>
<polygon fill="black" stroke="black" points="756.67,-447.31 748.12,-441.04 750.89,-451.26 756.67,-447.31"/>
</g>
<!-- parsplice -->
<g id="node15" class="node">
<title>parsplice</title>
<g id="a_node15"><a xlink:href="https://github.com/conda-forge/parsplice-feedstock/pull/13" xlink:title="parsplice ❎">
<ellipse fill="#31688e" stroke="black" cx="831.76" cy="-350" rx="72.25" ry="18"/>
<text text-anchor="middle" x="831.76" y="-345.32" font-family="Times,serif" font-size="14.00" fill="white">parsplice ❎</text>
</a>
</g>
</g>
<!-- lammps&#45;&gt;parsplice -->
<g id="edge13" class="edge">
<title>lammps&#45;&gt;parsplice</title>
<path fill="none" stroke="black" d="M794.75,-475.94C800.83,-465.84 808.08,-452.59 812.76,-440 819.99,-420.5 824.81,-397.53 827.78,-379.8"/>
<polygon fill="black" stroke="black" points="831.23,-380.4 829.32,-369.98 824.32,-379.32 831.23,-380.4"/>
</g>
<!-- faunus -->
<g id="node17" class="node">
<title>faunus</title>
<g id="a_node17"><a xlink:href="https://github.com/conda-forge/faunus-feedstock/pull/49" xlink:title="faunus ❎">
<ellipse fill="#31688e" stroke="black" cx="404.76" cy="-970" rx="60.15" ry="18"/>
<text text-anchor="middle" x="404.76" y="-965.33" font-family="Times,serif" font-size="14.00" fill="white">faunus ❎</text>
</a>
</g>
</g>
<!-- lalinference&#45;&gt;faunus -->
<!-- parabem -->
<g id="node18" class="node">
<title>parabem</title>
<g id="a_node18"><a xlink:href="https://github.com/conda-forge/parabem-feedstock/pull/17" xlink:title="parabem ❎">
<ellipse fill="#31688e" stroke="black" cx="404.76" cy="-898" rx="70.68" ry="18"/>
<text text-anchor="middle" x="404.76" y="-893.33" font-family="Times,serif" font-size="14.00" fill="white">parabem ❎</text>
</a>
</g>
</g>
<!-- faunus&#45;&gt;parabem -->
<!-- ambertools -->
<g id="node19" class="node">
<title>ambertools</title>
<g id="a_node19"><a xlink:href="https://github.com/conda-forge/ambertools-feedstock/pull/147" xlink:title="ambertools ✓">
<ellipse fill="#31688e" stroke="black" cx="404.76" cy="-826" rx="75.41" ry="18"/>
<text text-anchor="middle" x="404.76" y="-821.33" font-family="Times,serif" font-size="14.00" fill="white">ambertools ✓</text>
</a>
</g>
</g>
<!-- parabem&#45;&gt;ambertools -->
<!-- dakota -->
<g id="node21" class="node">
<title>dakota</title>
<g id="a_node21"><a xlink:href="https://github.com/conda-forge/dakota-feedstock/pull/49" xlink:title="dakota ❎">
<ellipse fill="#31688e" stroke="black" cx="404.76" cy="-754" rx="60.15" ry="18"/>
<text text-anchor="middle" x="404.76" y="-749.33" font-family="Times,serif" font-size="14.00" fill="white">dakota ❎</text>
</a>
</g>
</g>
<!-- ambertools&#45;&gt;dakota -->
<!-- gpaw -->
<g id="node20" class="node">
<title>gpaw</title>
<g id="a_node20"><a xlink:href="https://github.com/conda-forge/gpaw-feedstock" xlink:title="gpaw">
<ellipse fill="#fde725" stroke="black" cx="862.76" cy="-1006" rx="38.06" ry="18"/>
<text text-anchor="middle" x="862.76" y="-1001.33" font-family="Times,serif" font-size="14.00">gpaw</text>
</a>
</g>
</g>
<!-- scorec -->
<g id="node22" class="node">
<title>scorec</title>
<g id="a_node22"><a xlink:href="https://github.com/conda-forge/scorec-feedstock/pull/12" xlink:title="scorec ❎">
<ellipse fill="#31688e" stroke="black" cx="404.76" cy="-682" rx="58.57" ry="18"/>
<text text-anchor="middle" x="404.76" y="-677.33" font-family="Times,serif" font-size="14.00" fill="white">scorec ❎</text>
</a>
</g>
</g>
<!-- dakota&#45;&gt;scorec -->
<!-- cp2k -->
<g id="node23" class="node">
<title>cp2k</title>
<g id="a_node23"><a xlink:href="https://github.com/conda-forge/cp2k-feedstock" xlink:title="cp2k">
<ellipse fill="#fde725" stroke="black" cx="132.76" cy="-18" rx="34.9" ry="18"/>
<text text-anchor="middle" x="132.76" y="-13.32" font-family="Times,serif" font-size="14.00">cp2k</text>
</a>
</g>
</g>
<!-- conduit -->
<g id="node24" class="node">
<title>conduit</title>
<g id="a_node24"><a xlink:href="https://github.com/conda-forge/conduit-feedstock/pull/46" xlink:title="conduit ✓">
<ellipse fill="#31688e" stroke="black" cx="132.76" cy="-1402" rx="56.47" ry="18"/>
<text text-anchor="middle" x="132.76" y="-1397.33" font-family="Times,serif" font-size="14.00" fill="white">conduit ✓</text>
</a>
</g>
</g>
<!-- parsmurf -->
<g id="node25" class="node">
<title>parsmurf</title>
<g id="a_node25"><a xlink:href="https://github.com/conda-forge/parsmurf-feedstock/pull/4" xlink:title="parsmurf ❎">
<ellipse fill="#31688e" stroke="black" cx="132.76" cy="-1330" rx="72.78" ry="18"/>
<text text-anchor="middle" x="132.76" y="-1325.33" font-family="Times,serif" font-size="14.00" fill="white">parsmurf ❎</text>
</a>
</g>
</g>
<!-- conduit&#45;&gt;parsmurf -->
<!-- dedalus -->
<g id="node29" class="node">
<title>dedalus</title>
<g id="a_node29"><a xlink:href="https://github.com/conda-forge/dedalus-feedstock/pull/22" xlink:title="dedalus ✓">
<ellipse fill="#31688e" stroke="black" cx="132.76" cy="-1258" rx="58.05" ry="18"/>
<text text-anchor="middle" x="132.76" y="-1253.33" font-family="Times,serif" font-size="14.00" fill="white">dedalus ✓</text>
</a>
</g>
</g>
<!-- parsmurf&#45;&gt;dedalus -->
<!-- qe -->
<g id="node26" class="node">
<title>qe</title>
<g id="a_node26"><a xlink:href="https://github.com/conda-forge/qe-feedstock" xlink:title="qe">
<ellipse fill="#fde725" stroke="black" cx="928.76" cy="-934" rx="27" ry="18"/>
<text text-anchor="middle" x="928.76" y="-929.33" font-family="Times,serif" font-size="14.00">qe</text>
</a>
</g>
</g>
<!-- dftbplus -->
<g id="node27" class="node">
<title>dftbplus</title>
<g id="a_node27"><a xlink:href="https://github.com/conda-forge/dftbplus-feedstock" xlink:title="dftbplus">
<ellipse fill="#fde725" stroke="black" cx="634.76" cy="-934" rx="52.79" ry="18"/>
<text text-anchor="middle" x="634.76" y="-929.33" font-family="Times,serif" font-size="14.00">dftbplus</text>
</a>
</g>
</g>
<!-- libmbd -->
<g id="node28" class="node">
<title>libmbd</title>
<g id="a_node28"><a xlink:href="https://github.com/conda-forge/libmbd-feedstock" xlink:title="libmbd">
<ellipse fill="#fde725" stroke="black" cx="634.76" cy="-1006" rx="45.95" ry="18"/>
<text text-anchor="middle" x="634.76" y="-1001.33" font-family="Times,serif" font-size="14.00">libmbd</text>
</a>
</g>
</g>
<!-- libmbd&#45;&gt;dftbplus -->
<g id="edge21" class="edge">
<title>libmbd&#45;&gt;dftbplus</title>
<path fill="none" stroke="black" d="M634.76,-987.7C634.76,-980.41 634.76,-971.73 634.76,-963.54"/>
<polygon fill="black" stroke="black" points="638.26,-963.62 634.76,-953.62 631.26,-963.62 638.26,-963.62"/>
</g>
<!-- yambo -->
<g id="node30" class="node">
<title>yambo</title>
<g id="a_node30"><a xlink:href="https://github.com/conda-forge/yambo-feedstock/pull/30" xlink:title="yambo ❎">
<ellipse fill="#31688e" stroke="black" cx="132.76" cy="-1186" rx="59.63" ry="18"/>
<text text-anchor="middle" x="132.76" y="-1181.33" font-family="Times,serif" font-size="14.00" fill="white">yambo ❎</text>
</a>
</g>
</g>
<!-- dedalus&#45;&gt;yambo -->
<!-- ondamonitor -->
<g id="node33" class="node">
<title>ondamonitor</title>
<g id="a_node33"><a xlink:href="https://github.com/conda-forge/ondamonitor-feedstock/pull/12" xlink:title="ondamonitor ❎">
<ellipse fill="#31688e" stroke="black" cx="132.76" cy="-1114" rx="90.14" ry="18"/>
<text text-anchor="middle" x="132.76" y="-1109.33" font-family="Times,serif" font-size="14.00" fill="white">ondamonitor ❎</text>
</a>
</g>
</g>
<!-- yambo&#45;&gt;ondamonitor -->
<!-- libnegf -->
<g id="node31" class="node">
<title>libnegf</title>
<g id="a_node31"><a xlink:href="https://github.com/conda-forge/libnegf-feedstock/pull/17" xlink:title="libnegf ✓">
<ellipse fill="#31688e" stroke="black" cx="752.76" cy="-1006" rx="53.84" ry="18"/>
<text text-anchor="middle" x="752.76" y="-1001.33" font-family="Times,serif" font-size="14.00" fill="white">libnegf ✓</text>
</a>
</g>
</g>
<!-- libnegf&#45;&gt;dftbplus -->
<g id="edge24" class="edge">
<title>libnegf&#45;&gt;dftbplus</title>
<path fill="none" stroke="black" d="M727.15,-989.81C710.45,-979.9 688.43,-966.84 670.07,-955.95"/>
<polygon fill="black" stroke="black" points="672,-953.02 661.61,-950.93 668.43,-959.04 672,-953.02"/>
</g>
<!-- sirius -->
<g id="node32" class="node">
<title>sirius</title>
<g id="a_node32"><a xlink:href="https://github.com/conda-forge/sirius-feedstock" xlink:title="sirius">
<ellipse fill="#fde725" stroke="black" cx="132.76" cy="-90" rx="39.11" ry="18"/>
<text text-anchor="middle" x="132.76" y="-85.33" font-family="Times,serif" font-size="14.00">sirius</text>
</a>
</g>
</g>
<!-- sirius&#45;&gt;cp2k -->
<g id="edge25" class="edge">
<title>sirius&#45;&gt;cp2k</title>
<path fill="none" stroke="black" d="M132.76,-71.7C132.76,-64.41 132.76,-55.73 132.76,-47.54"/>
<polygon fill="black" stroke="black" points="136.26,-47.62 132.76,-37.62 129.26,-47.62 136.26,-47.62"/>
</g>
<!-- alamode -->
<g id="node34" class="node">
<title>alamode</title>
<g id="a_node34"><a xlink:href="https://github.com/conda-forge/alamode-feedstock/pull/12" xlink:title="alamode ❎">
<ellipse fill="#31688e" stroke="black" cx="132.76" cy="-1042" rx="68.57" ry="18"/>
<text text-anchor="middle" x="132.76" y="-1037.33" font-family="Times,serif" font-size="14.00" fill="white">alamode ❎</text>
</a>
</g>
</g>
<!-- ondamonitor&#45;&gt;alamode -->
<!-- timemory -->
<g id="node35" class="node">
<title>timemory</title>
<g id="a_node35"><a xlink:href="https://github.com/conda-forge/timemory-feedstock" xlink:title="timemory">
<ellipse fill="#000000" stroke="black" cx="132.76" cy="-970" rx="59.63" ry="18"/>
<text text-anchor="middle" x="132.76" y="-965.33" font-family="Times,serif" font-size="14.00" fill="white">timemory</text>
</a>
</g>
</g>
<!-- alamode&#45;&gt;timemory -->
<!-- pexsi -->
<g id="node36" class="node">
<title>pexsi</title>
<g id="a_node36"><a xlink:href="https://github.com/conda-forge/pexsi-feedstock/pull/10" xlink:title="pexsi ❎">
<ellipse fill="#31688e" stroke="black" cx="132.76" cy="-898" rx="52.79" ry="18"/>
<text text-anchor="middle" x="132.76" y="-893.33" font-family="Times,serif" font-size="14.00" fill="white">pexsi ❎</text>
</a>
</g>
</g>
<!-- timemory&#45;&gt;pexsi -->
<!-- eigenexa -->
<g id="node43" class="node">
<title>eigenexa</title>
<g id="a_node43"><a xlink:href="https://github.com/conda-forge/eigenexa-feedstock/pull/3" xlink:title="eigenexa ❎">
<ellipse fill="#31688e" stroke="black" cx="132.76" cy="-826" rx="71.2" ry="18"/>
<text text-anchor="middle" x="132.76" y="-821.33" font-family="Times,serif" font-size="14.00" fill="white">eigenexa ❎</text>
</a>
</g>
</g>
<!-- pexsi&#45;&gt;eigenexa -->
<!-- costa_variants -->
<g id="node37" class="node">
<title>costa_variants</title>
<g id="a_node37"><a xlink:href="https://github.com/conda-forge/costa_variants-feedstock/pull/4" xlink:title="costa_variants ❎">
<ellipse fill="#31688e" stroke="black" cx="132.76" cy="-162" rx="98.56" ry="18"/>
<text text-anchor="middle" x="132.76" y="-157.32" font-family="Times,serif" font-size="14.00" fill="white">costa_variants ❎</text>
</a>
</g>
</g>
<!-- costa_variants&#45;&gt;sirius -->
<g id="edge30" class="edge">
<title>costa_variants&#45;&gt;sirius</title>
<path fill="none" stroke="black" d="M132.76,-143.7C132.76,-136.41 132.76,-127.73 132.76,-119.54"/>
<polygon fill="black" stroke="black" points="136.26,-119.62 132.76,-109.62 129.26,-119.62 136.26,-119.62"/>
</g>
<!-- elpa -->
<g id="node38" class="node">
<title>elpa</title>
<g id="a_node38"><a xlink:href="https://github.com/conda-forge/elpa-feedstock/pull/26" xlink:title="elpa ❎">
<ellipse fill="#31688e" stroke="black" cx="862.76" cy="-1150" rx="47.53" ry="18"/>
<text text-anchor="middle" x="862.76" y="-1145.33" font-family="Times,serif" font-size="14.00" fill="white">elpa ❎</text>
</a>
</g>
</g>
<!-- elpa&#45;&gt;siesta -->
<g id="edge31" class="edge">
<title>elpa&#45;&gt;siesta</title>
<path fill="none" stroke="black" d="M846.75,-1132.76C837.92,-1123.8 826.79,-1112.51 817.01,-1102.59"/>
<polygon fill="black" stroke="black" points="819.77,-1100.41 810.26,-1095.74 814.79,-1105.32 819.77,-1100.41"/>
</g>
<!-- elpa&#45;&gt;gpaw -->
<g id="edge32" class="edge">
<title>elpa&#45;&gt;gpaw</title>
<path fill="none" stroke="black" d="M862.76,-1131.59C862.76,-1107.61 862.76,-1064.14 862.76,-1035.42"/>
<polygon fill="black" stroke="black" points="866.26,-1035.62 862.76,-1025.62 859.26,-1035.62 866.26,-1035.62"/>
</g>
<!-- elpa&#45;&gt;qe -->
<g id="edge33" class="edge">
<title>elpa&#45;&gt;qe</title>
<path fill="none" stroke="black" d="M870.12,-1131.89C880.17,-1108.06 898.22,-1063.38 909.76,-1024 915.6,-1004.04 920.46,-981.08 923.8,-963.48"/>
<polygon fill="black" stroke="black" points="927.22,-964.21 925.59,-953.74 920.34,-962.94 927.22,-964.21"/>
</g>
<!-- elsi -->
<g id="node39" class="node">
<title>elsi</title>
<g id="a_node39"><a xlink:href="https://github.com/conda-forge/elsi-feedstock" xlink:title="elsi">
<ellipse fill="#fde725" stroke="black" cx="634.76" cy="-1078" rx="28.59" ry="18"/>
<text text-anchor="middle" x="634.76" y="-1073.33" font-family="Times,serif" font-size="14.00">elsi</text>
</a>
</g>
</g>
<!-- elpa&#45;&gt;elsi -->
<g id="edge34" class="edge">
<title>elpa&#45;&gt;elsi</title>
<path fill="none" stroke="black" d="M826.63,-1137.91C784.07,-1124.84 713.78,-1103.26 671.12,-1090.16"/>
<polygon fill="black" stroke="black" points="672.16,-1086.82 661.57,-1087.23 670.1,-1093.51 672.16,-1086.82"/>
</g>
<!-- abacus -->
<g id="node40" class="node">
<title>abacus</title>
<g id="a_node40"><a xlink:href="https://github.com/conda-forge/abacus-feedstock" xlink:title="abacus">
<ellipse fill="#fde725" stroke="black" cx="983.76" cy="-862" rx="45.95" ry="18"/>
<text text-anchor="middle" x="983.76" y="-857.33" font-family="Times,serif" font-size="14.00">abacus</text>
</a>
</g>
</g>
<!-- elpa&#45;&gt;abacus -->
<g id="edge35" class="edge">
<title>elpa&#45;&gt;abacus</title>
<path fill="none" stroke="black" d="M877.63,-1132.68C886.3,-1122.61 897.01,-1109.15 904.76,-1096 939.95,-1036.26 944.1,-1018.18 964.76,-952 970.95,-932.15 975.8,-909.18 979.05,-891.55"/>
<polygon fill="black" stroke="black" points="982.48,-892.25 980.77,-881.79 975.58,-891.03 982.48,-892.25"/>
</g>
<!-- elsi&#45;&gt;dftbplus -->
<g id="edge36" class="edge">
<title>elsi&#45;&gt;dftbplus</title>
<path fill="none" stroke="black" d="M615.31,-1064.54C602.56,-1055.13 586.97,-1040.96 579.76,-1024 573.5,-1009.28 573.5,-1002.72 579.76,-988 584.67,-976.44 593.48,-966.18 602.62,-957.84"/>
<polygon fill="black" stroke="black" points="604.84,-960.55 610.23,-951.42 600.33,-955.2 604.84,-960.55"/>
</g>
<!-- elsi&#45;&gt;libmbd -->
<g id="edge37" class="edge">
<title>elsi&#45;&gt;libmbd</title>
<path fill="none" stroke="black" d="M634.76,-1059.7C634.76,-1052.41 634.76,-1043.73 634.76,-1035.54"/>
<polygon fill="black" stroke="black" points="638.26,-1035.62 634.76,-1025.62 631.26,-1035.62 638.26,-1035.62"/>
</g>
<!-- libomm -->
<g id="node41" class="node">
<title>libomm</title>
<g id="a_node41"><a xlink:href="https://github.com/conda-forge/libomm-feedstock" xlink:title="libomm">
<ellipse fill="#fde725" stroke="black" cx="673.76" cy="-1150" rx="48.58" ry="18"/>
<text text-anchor="middle" x="673.76" y="-1145.33" font-family="Times,serif" font-size="14.00">libomm</text>
</a>
</g>
</g>
<!-- libomm&#45;&gt;elsi -->
<g id="edge38" class="edge">
<title>libomm&#45;&gt;elsi</title>
<path fill="none" stroke="black" d="M664.31,-1132.05C659.84,-1124.03 654.4,-1114.26 649.41,-1105.3"/>
<polygon fill="black" stroke="black" points="652.5,-1103.66 644.58,-1096.63 646.39,-1107.07 652.5,-1103.66"/>
</g>
<!-- matrixswitch -->
<g id="node42" class="node">
<title>matrixswitch</title>
<g id="a_node42"><a xlink:href="https://github.com/conda-forge/matrixswitch-feedstock/pull/7" xlink:title="matrixswitch ❎">
<ellipse fill="#31688e" stroke="black" cx="634.76" cy="-1222" rx="92.25" ry="18"/>
<text text-anchor="middle" x="634.76" y="-1217.33" font-family="Times,serif" font-size="14.00" fill="white">matrixswitch ❎</text>
</a>
</g>
</g>
<!-- matrixswitch&#45;&gt;elsi -->
<g id="edge39" class="edge">
<title>matrixswitch&#45;&gt;elsi</title>
<path fill="none" stroke="black" d="M626.86,-1203.75C622.65,-1193.58 617.9,-1180.33 615.76,-1168 613.01,-1152.24 613.01,-1147.76 615.76,-1132 617.23,-1123.49 619.96,-1114.54 622.89,-1106.47"/>
<polygon fill="black" stroke="black" points="626.13,-1107.78 626.51,-1097.19 619.61,-1105.23 626.13,-1107.78"/>
</g>
<!-- matrixswitch&#45;&gt;libomm -->
<g id="edge40" class="edge">
<title>matrixswitch&#45;&gt;libomm</title>
<path fill="none" stroke="black" d="M644.4,-1203.7C648.69,-1195.98 653.86,-1186.71 658.65,-1178.11"/>
<polygon fill="black" stroke="black" points="661.68,-1179.87 663.49,-1169.43 655.56,-1176.46 661.68,-1179.87"/>
</g>
<!-- fleur -->
<g id="node44" class="node">
<title>fleur</title>
<g id="a_node44"><a xlink:href="https://github.com/conda-forge/fleur-feedstock/pull/19" xlink:title="fleur ✓">
<ellipse fill="#31688e" stroke="black" cx="132.76" cy="-754" rx="42.26" ry="18"/>
<text text-anchor="middle" x="132.76" y="-749.33" font-family="Times,serif" font-size="14.00" fill="white">fleur ✓</text>
</a>
</g>
</g>
<!-- eigenexa&#45;&gt;fleur -->
<!-- edrixs -->
<g id="node45" class="node">
<title>edrixs</title>
<g id="a_node45"><a xlink:href="https://github.com/conda-forge/edrixs-feedstock/pull/14" xlink:title="edrixs ❎">
<ellipse fill="#31688e" stroke="black" cx="132.76" cy="-682" rx="57.52" ry="18"/>
<text text-anchor="middle" x="132.76" y="-677.33" font-family="Times,serif" font-size="14.00" fill="white">edrixs ❎</text>
</a>
</g>
</g>
<!-- fleur&#45;&gt;edrixs -->
<!-- bigdft&#45;suite -->
<g id="node46" class="node">
<title>bigdft&#45;suite</title>
<g id="a_node46"><a xlink:href="https://github.com/conda-forge/bigdft-suite-feedstock/pull/13" xlink:title="bigdft suite ✓">
<ellipse fill="#31688e" stroke="black" cx="132.76" cy="-638" rx="76.99" ry="18"/>
<text text-anchor="middle" x="132.76" y="-633.33" font-family="Times,serif" font-size="14.00" fill="white">bigdft suite ✓</text>
</a>
</g>
</g>
<!-- openphase -->
<g id="node47" class="node">
<title>openphase</title>
<g id="a_node47"><a xlink:href="https://github.com/conda-forge/openphase-feedstock/pull/2" xlink:title="openphase ❎">
<ellipse fill="#31688e" stroke="black" cx="132.76" cy="-566" rx="80.14" ry="18"/>
<text text-anchor="middle" x="132.76" y="-561.33" font-family="Times,serif" font-size="14.00" fill="white">openphase ❎</text>
</a>
</g>
</g>
<!-- bigdft&#45;suite&#45;&gt;openphase -->
<!-- sparc&#45;x -->
<g id="node48" class="node">
<title>sparc&#45;x</title>
<g id="a_node48"><a xlink:href="https://github.com/conda-forge/sparc-x-feedstock/pull/9" xlink:title="sparc x ❎">
<ellipse fill="#31688e" stroke="black" cx="132.76" cy="-494" rx="62.78" ry="18"/>
<text text-anchor="middle" x="132.76" y="-489.32" font-family="Times,serif" font-size="14.00" fill="white">sparc x ❎</text>
</a>
</g>
</g>
<!-- openphase&#45;&gt;sparc&#45;x -->
<!-- heat -->
<g id="node49" class="node">
<title>heat</title>
<g id="a_node49"><a xlink:href="https://github.com/conda-forge/heat-feedstock/pull/15" xlink:title="heat ❎">
<ellipse fill="#31688e" stroke="black" cx="132.76" cy="-422" rx="48.58" ry="18"/>
<text text-anchor="middle" x="132.76" y="-417.32" font-family="Times,serif" font-size="14.00" fill="white">heat ❎</text>
</a>
</g>
</g>
<!-- sparc&#45;x&#45;&gt;heat -->
<!-- reef3d -->
<g id="node50" class="node">
<title>reef3d</title>
<g id="a_node50"><a xlink:href="https://github.com/conda-forge/reef3d-feedstock/pull/11" xlink:title="reef3d ✓">
<ellipse fill="#31688e" stroke="black" cx="132.76" cy="-350" rx="51.74" ry="18"/>
<text text-anchor="middle" x="132.76" y="-345.32" font-family="Times,serif" font-size="14.00" fill="white">reef3d ✓</text>
</a>
</g>
</g>
<!-- heat&#45;&gt;reef3d -->
<!-- fluidfft&#45;mpi_with_fftw -->
<g id="node51" class="node">
<title>fluidfft&#45;mpi_with_fftw</title>
<g id="a_node51"><a xlink:href="https://github.com/conda-forge/fluidfft-mpi_with_fftw-feedstock/pull/1" xlink:title="fluidfft mpi_with_fftw ❎">
<ellipse fill="#31688e" stroke="black" cx="132.76" cy="-278" rx="132.76" ry="18"/>
<text text-anchor="middle" x="132.76" y="-273.32" font-family="Times,serif" font-size="14.00" fill="white">fluidfft mpi_with_fftw ❎</text>
</a>
</g>
</g>
<!-- reef3d&#45;&gt;fluidfft&#45;mpi_with_fftw -->
<!-- eatpy -->
<g id="node52" class="node">
<title>eatpy</title>
<g id="a_node52"><a xlink:href="https://github.com/conda-forge/eatpy-feedstock" xlink:title="eatpy">
<ellipse fill="#000000" stroke="black" cx="132.76" cy="-206" rx="39.11" ry="18"/>
<text text-anchor="middle" x="132.76" y="-201.32" font-family="Times,serif" font-size="14.00" fill="white">eatpy</text>
</a>
</g>
</g>
<!-- fluidfft&#45;mpi_with_fftw&#45;&gt;eatpy -->
</g>
</svg>
