<?xml version="1.0" encoding="UTF-8" standalone="no"?>
<!DOCTYPE svg PUBLIC "-//W3C//DTD SVG 1.1//EN"
 "http://www.w3.org/Graphics/SVG/1.1/DTD/svg11.dtd">
<!-- Generated by graphviz version 11.0.0 (20240519.1550)
 -->
<!-- Pages: 1 -->
<svg width="907pt" height="1140pt"
 viewBox="0.00 0.00 906.63 1140.00" xmlns="http://www.w3.org/2000/svg" xmlns:xlink="http://www.w3.org/1999/xlink">
<g id="graph0" class="graph" transform="scale(1 1) rotate(0) translate(4 1136)">
<polygon fill="white" stroke="none" points="-4,4 -4,-1136 902.63,-1136 902.63,4 -4,4"/>
<!-- fenics -->
<g id="node1" class="node">
<title>fenics</title>
<g id="a_node1"><a xlink:href="https://github.com/conda-forge/fenics-feedstock" xlink:title="fenics">
<ellipse fill="#fde725" stroke="black" cx="40.69" cy="-206" rx="40.69" ry="18"/>
<text text-anchor="middle" x="40.69" y="-201.33" font-family="Times,serif" font-size="14.00">fenics</text>
</a>
</g>
</g>
<!-- mshr -->
<g id="node2" class="node">
<title>mshr</title>
<g id="a_node2"><a xlink:href="https://github.com/conda-forge/mshr-feedstock" xlink:title="mshr">
<ellipse fill="#fde725" stroke="black" cx="40.69" cy="-134" rx="37" ry="18"/>
<text text-anchor="middle" x="40.69" y="-129.32" font-family="Times,serif" font-size="14.00">mshr</text>
</a>
</g>
</g>
<!-- fenics&#45;&gt;mshr -->
<g id="edge1" class="edge">
<title>fenics&#45;&gt;mshr</title>
<path fill="none" stroke="black" d="M40.69,-187.7C40.69,-180.41 40.69,-171.73 40.69,-163.54"/>
<polygon fill="black" stroke="black" points="44.19,-163.62 40.69,-153.62 37.19,-163.62 44.19,-163.62"/>
</g>
<!-- pytrilinos -->
<g id="node3" class="node">
<title>pytrilinos</title>
<g id="a_node3"><a xlink:href="https://github.com/conda-forge/pytrilinos-feedstock/pull/56" xlink:title="pytrilinos ❎">
<ellipse fill="#31688e" stroke="black" cx="387.69" cy="-1114" rx="74.36" ry="18"/>
<text text-anchor="middle" x="387.69" y="-1109.33" font-family="Times,serif" font-size="14.00" fill="white">pytrilinos ❎</text>
</a>
</g>
</g>
<!-- trilinos -->
<g id="node4" class="node">
<title>trilinos</title>
<g id="a_node4"><a xlink:href="https://github.com/conda-forge/trilinos-feedstock/pull/47" xlink:title="trilinos ❎">
<ellipse fill="#31688e" stroke="black" cx="387.69" cy="-1042" rx="62.26" ry="18"/>
<text text-anchor="middle" x="387.69" y="-1037.33" font-family="Times,serif" font-size="14.00" fill="white">trilinos ❎</text>
</a>
</g>
</g>
<!-- pytrilinos&#45;&gt;trilinos -->
<!-- asap3 -->
<g id="node10" class="node">
<title>asap3</title>
<g id="a_node10"><a xlink:href="https://github.com/conda-forge/asap3-feedstock/pull/47" xlink:title="asap3 ✓">
<ellipse fill="#31688e" stroke="black" cx="387.69" cy="-970" rx="48.58" ry="18"/>
<text text-anchor="middle" x="387.69" y="-965.33" font-family="Times,serif" font-size="14.00" fill="white">asap3 ✓</text>
</a>
</g>
</g>
<!-- trilinos&#45;&gt;asap3 -->
<!-- siesta -->
<g id="node5" class="node">
<title>siesta</title>
<g id="a_node5"><a xlink:href="https://github.com/conda-forge/siesta-feedstock" xlink:title="siesta">
<ellipse fill="#fde725" stroke="black" cx="675.69" cy="-826" rx="40.69" ry="18"/>
<text text-anchor="middle" x="675.69" y="-821.33" font-family="Times,serif" font-size="14.00">siesta</text>
</a>
</g>
</g>
<!-- petsc4py -->
<g id="node6" class="node">
<title>petsc4py</title>
<g id="a_node6"><a xlink:href="https://github.com/conda-forge/petsc4py-feedstock" xlink:title="petsc4py">
<ellipse fill="#000000" stroke="black" cx="108.69" cy="-350" rx="56.47" ry="18"/>
<text text-anchor="middle" x="108.69" y="-345.32" font-family="Times,serif" font-size="14.00" fill="white">petsc4py</text>
</a>
</g>
</g>
<!-- petsc4py&#45;&gt;fenics -->
<g id="edge3" class="edge">
<title>petsc4py&#45;&gt;fenics</title>
<path fill="none" stroke="black" d="M81.22,-333.81C67.68,-324.74 52.6,-311.88 44.69,-296 35.46,-277.46 34.79,-253.97 36.25,-235.78"/>
<polygon fill="black" stroke="black" points="39.72,-236.25 37.32,-225.93 32.76,-235.49 39.72,-236.25"/>
</g>
<!-- slepc4py -->
<g id="node7" class="node">
<title>slepc4py</title>
<g id="a_node7"><a xlink:href="https://github.com/conda-forge/slepc4py-feedstock" xlink:title="slepc4py">
<ellipse fill="#fde725" stroke="black" cx="108.69" cy="-278" rx="55.42" ry="18"/>
<text text-anchor="middle" x="108.69" y="-273.32" font-family="Times,serif" font-size="14.00">slepc4py</text>
</a>
</g>
</g>
<!-- petsc4py&#45;&gt;slepc4py -->
<g id="edge4" class="edge">
<title>petsc4py&#45;&gt;slepc4py</title>
<path fill="none" stroke="black" d="M108.69,-331.7C108.69,-324.41 108.69,-315.73 108.69,-307.54"/>
<polygon fill="black" stroke="black" points="112.19,-307.62 108.69,-297.62 105.19,-307.62 112.19,-307.62"/>
</g>
<!-- fenics&#45;dolfinx -->
<g id="node8" class="node">
<title>fenics&#45;dolfinx</title>
<g id="a_node8"><a xlink:href="https://github.com/conda-forge/fenics-dolfinx-feedstock" xlink:title="fenics dolfinx">
<ellipse fill="#fde725" stroke="black" cx="183.69" cy="-206" rx="77.52" ry="18"/>
<text text-anchor="middle" x="183.69" y="-201.33" font-family="Times,serif" font-size="14.00">fenics dolfinx</text>
</a>
</g>
</g>
<!-- petsc4py&#45;&gt;fenics&#45;dolfinx -->
<g id="edge5" class="edge">
<title>petsc4py&#45;&gt;fenics&#45;dolfinx</title>
<path fill="none" stroke="black" d="M135.33,-333.77C148.81,-324.61 164.09,-311.69 172.69,-296 182.76,-277.61 185.28,-253.93 185.4,-235.62"/>
<polygon fill="black" stroke="black" points="188.9,-235.65 185.21,-225.71 181.91,-235.78 188.9,-235.65"/>
</g>
<!-- slepc4py&#45;&gt;fenics -->
<g id="edge6" class="edge">
<title>slepc4py&#45;&gt;fenics</title>
<path fill="none" stroke="black" d="M92.57,-260.41C84.07,-251.66 73.47,-240.75 64.08,-231.08"/>
<polygon fill="black" stroke="black" points="66.75,-228.81 57.27,-224.07 61.73,-233.69 66.75,-228.81"/>
</g>
<!-- slepc4py&#45;&gt;fenics&#45;dolfinx -->
<g id="edge7" class="edge">
<title>slepc4py&#45;&gt;fenics&#45;dolfinx</title>
<path fill="none" stroke="black" d="M126.08,-260.76C135.35,-252.12 146.93,-241.3 157.28,-231.65"/>
<polygon fill="black" stroke="black" points="159.57,-234.29 164.5,-224.91 154.8,-229.18 159.57,-234.29"/>
</g>
<!-- dolfinx_mpc -->
<g id="node9" class="node">
<title>dolfinx_mpc</title>
<g id="a_node9"><a xlink:href="https://github.com/conda-forge/dolfinx_mpc-feedstock" xlink:title="dolfinx_mpc">
<ellipse fill="#fde725" stroke="black" cx="183.69" cy="-134" rx="70.68" ry="18"/>
<text text-anchor="middle" x="183.69" y="-129.32" font-family="Times,serif" font-size="14.00">dolfinx_mpc</text>
</a>
</g>
</g>
<!-- fenics&#45;dolfinx&#45;&gt;dolfinx_mpc -->
<g id="edge8" class="edge">
<title>fenics&#45;dolfinx&#45;&gt;dolfinx_mpc</title>
<path fill="none" stroke="black" d="M183.69,-187.7C183.69,-180.41 183.69,-171.73 183.69,-163.54"/>
<polygon fill="black" stroke="black" points="187.19,-163.62 183.69,-153.62 180.19,-163.62 187.19,-163.62"/>
</g>
<!-- lalinference -->
<g id="node14" class="node">
<title>lalinference</title>
<g id="a_node14"><a xlink:href="https://github.com/conda-forge/lalinference-feedstock/pull/63" xlink:title="lalinference ✓">
<ellipse fill="#31688e" stroke="black" cx="387.69" cy="-898" rx="78.04" ry="18"/>
<text text-anchor="middle" x="387.69" y="-893.33" font-family="Times,serif" font-size="14.00" fill="white">lalinference ✓</text>
</a>
</g>
</g>
<!-- asap3&#45;&gt;lalinference -->
<!-- lammps -->
<g id="node11" class="node">
<title>lammps</title>
<g id="a_node11"><a xlink:href="https://github.com/conda-forge/lammps-feedstock/pull/198" xlink:title="lammps ❎">
<ellipse fill="#31688e" stroke="black" cx="384.69" cy="-314" rx="65.94" ry="18"/>
<text text-anchor="middle" x="384.69" y="-309.32" font-family="Times,serif" font-size="14.00" fill="white">lammps ❎</text>
</a>
</g>
</g>
<!-- deepmd&#45;kit -->
<g id="node12" class="node">
<title>deepmd&#45;kit</title>
<g id="a_node12"><a xlink:href="https://github.com/conda-forge/deepmd-kit-feedstock" xlink:title="deepmd kit">
<ellipse fill="#fde725" stroke="black" cx="336.69" cy="-242" rx="67.52" ry="18"/>
<text text-anchor="middle" x="336.69" y="-237.32" font-family="Times,serif" font-size="14.00">deepmd kit</text>
</a>
</g>
</g>
<!-- lammps&#45;&gt;deepmd&#45;kit -->
<g id="edge10" class="edge">
<title>lammps&#45;&gt;deepmd&#45;kit</title>
<path fill="none" stroke="black" d="M373.07,-296.05C367.53,-287.97 360.77,-278.12 354.59,-269.11"/>
<polygon fill="black" stroke="black" points="357.6,-267.31 349.06,-261.04 351.82,-271.26 357.6,-267.31"/>
</g>
<!-- parsplice -->
<g id="node13" class="node">
<title>parsplice</title>
<g id="a_node13"><a xlink:href="https://github.com/conda-forge/parsplice-feedstock/pull/13" xlink:title="parsplice ❎">
<ellipse fill="#31688e" stroke="black" cx="432.69" cy="-170" rx="72.25" ry="18"/>
<text text-anchor="middle" x="432.69" y="-165.32" font-family="Times,serif" font-size="14.00" fill="white">parsplice ❎</text>
</a>
</g>
</g>
<!-- lammps&#45;&gt;parsplice -->
<g id="edge11" class="edge">
<title>lammps&#45;&gt;parsplice</title>
<path fill="none" stroke="black" d="M395.68,-295.94C401.76,-285.84 409.01,-272.59 413.69,-260 420.93,-240.5 425.74,-217.53 428.72,-199.8"/>
<polygon fill="black" stroke="black" points="432.17,-200.4 430.25,-189.98 425.25,-199.32 432.17,-200.4"/>
</g>
<!-- parabem -->
<g id="node15" class="node">
<title>parabem</title>
<g id="a_node15"><a xlink:href="https://github.com/conda-forge/parabem-feedstock/pull/17" xlink:title="parabem ❎">
<ellipse fill="#31688e" stroke="black" cx="387.69" cy="-826" rx="70.68" ry="18"/>
<text text-anchor="middle" x="387.69" y="-821.33" font-family="Times,serif" font-size="14.00" fill="white">parabem ❎</text>
</a>
</g>
</g>
<!-- lalinference&#45;&gt;parabem -->
<!-- dakota -->
<g id="node16" class="node">
<title>dakota</title>
<g id="a_node16"><a xlink:href="https://github.com/conda-forge/dakota-feedstock/pull/49" xlink:title="dakota ❎">
<ellipse fill="#31688e" stroke="black" cx="387.69" cy="-754" rx="60.15" ry="18"/>
<text text-anchor="middle" x="387.69" y="-749.33" font-family="Times,serif" font-size="14.00" fill="white">dakota ❎</text>
</a>
</g>
</g>
<!-- parabem&#45;&gt;dakota -->
<!-- scorec -->
<g id="node18" class="node">
<title>scorec</title>
<g id="a_node18"><a xlink:href="https://github.com/conda-forge/scorec-feedstock/pull/12" xlink:title="scorec ❎">
<ellipse fill="#31688e" stroke="black" cx="387.69" cy="-682" rx="58.57" ry="18"/>
<text text-anchor="middle" x="387.69" y="-677.33" font-family="Times,serif" font-size="14.00" fill="white">scorec ❎</text>
</a>
</g>
</g>
<!-- dakota&#45;&gt;scorec -->
<!-- gpaw -->
<g id="node17" class="node">
<title>gpaw</title>
<g id="a_node17"><a xlink:href="https://github.com/conda-forge/gpaw-feedstock" xlink:title="gpaw">
<ellipse fill="#fde725" stroke="black" cx="731.69" cy="-754" rx="38.06" ry="18"/>
<text text-anchor="middle" x="731.69" y="-749.33" font-family="Times,serif" font-size="14.00">gpaw</text>
</a>
</g>
</g>
<!-- conduit -->
<g id="node20" class="node">
<title>conduit</title>
<g id="a_node20"><a xlink:href="https://github.com/conda-forge/conduit-feedstock/pull/46" xlink:title="conduit ✓">
<ellipse fill="#31688e" stroke="black" cx="387.69" cy="-610" rx="56.47" ry="18"/>
<text text-anchor="middle" x="387.69" y="-605.33" font-family="Times,serif" font-size="14.00" fill="white">conduit ✓</text>
</a>
</g>
</g>
<!-- scorec&#45;&gt;conduit -->
<!-- cp2k -->
<g id="node19" class="node">
<title>cp2k</title>
<g id="a_node19"><a xlink:href="https://github.com/conda-forge/cp2k-feedstock" xlink:title="cp2k">
<ellipse fill="#fde725" stroke="black" cx="130.69" cy="-18" rx="34.9" ry="18"/>
<text text-anchor="middle" x="130.69" y="-13.32" font-family="Times,serif" font-size="14.00">cp2k</text>
</a>
</g>
</g>
<!-- parsmurf -->
<g id="node21" class="node">
<title>parsmurf</title>
<g id="a_node21"><a xlink:href="https://github.com/conda-forge/parsmurf-feedstock/pull/4" xlink:title="parsmurf ❎">
<ellipse fill="#31688e" stroke="black" cx="387.69" cy="-538" rx="72.78" ry="18"/>
<text text-anchor="middle" x="387.69" y="-533.33" font-family="Times,serif" font-size="14.00" fill="white">parsmurf ❎</text>
</a>
</g>
</g>
<!-- conduit&#45;&gt;parsmurf -->
<!-- dedalus -->
<g id="node25" class="node">
<title>dedalus</title>
<g id="a_node25"><a xlink:href="https://github.com/conda-forge/dedalus-feedstock/pull/22" xlink:title="dedalus ✓">
<ellipse fill="#31688e" stroke="black" cx="387.69" cy="-466" rx="58.05" ry="18"/>
<text text-anchor="middle" x="387.69" y="-461.32" font-family="Times,serif" font-size="14.00" fill="white">dedalus ✓</text>
</a>
</g>
</g>
<!-- parsmurf&#45;&gt;dedalus -->
<!-- qe -->
<g id="node22" class="node">
<title>qe</title>
<g id="a_node22"><a xlink:href="https://github.com/conda-forge/qe-feedstock" xlink:title="qe">
<ellipse fill="#fde725" stroke="black" cx="797.69" cy="-682" rx="27" ry="18"/>
<text text-anchor="middle" x="797.69" y="-677.33" font-family="Times,serif" font-size="14.00">qe</text>
</a>
</g>
</g>
<!-- dftbplus -->
<g id="node23" class="node">
<title>dftbplus</title>
<g id="a_node23"><a xlink:href="https://github.com/conda-forge/dftbplus-feedstock" xlink:title="dftbplus">
<ellipse fill="#fde725" stroke="black" cx="565.69" cy="-682" rx="52.79" ry="18"/>
<text text-anchor="middle" x="565.69" y="-677.33" font-family="Times,serif" font-size="14.00">dftbplus</text>
</a>
</g>
</g>
<!-- libmbd -->
<g id="node24" class="node">
<title>libmbd</title>
<g id="a_node24"><a xlink:href="https://github.com/conda-forge/libmbd-feedstock" xlink:title="libmbd">
<ellipse fill="#fde725" stroke="black" cx="602.69" cy="-754" rx="45.95" ry="18"/>
<text text-anchor="middle" x="602.69" y="-749.33" font-family="Times,serif" font-size="14.00">libmbd</text>
</a>
</g>
</g>
<!-- libmbd&#45;&gt;dftbplus -->
<g id="edge18" class="edge">
<title>libmbd&#45;&gt;dftbplus</title>
<path fill="none" stroke="black" d="M593.73,-736.05C589.55,-728.14 584.47,-718.54 579.79,-709.69"/>
<polygon fill="black" stroke="black" points="583.04,-708.33 575.27,-701.13 576.85,-711.6 583.04,-708.33"/>
</g>
<!-- yambo -->
<g id="node26" class="node">
<title>yambo</title>
<g id="a_node26"><a xlink:href="https://github.com/conda-forge/yambo-feedstock/pull/30" xlink:title="yambo ❎">
<ellipse fill="#31688e" stroke="black" cx="387.69" cy="-394" rx="59.63" ry="18"/>
<text text-anchor="middle" x="387.69" y="-389.32" font-family="Times,serif" font-size="14.00" fill="white">yambo ❎</text>
</a>
</g>
</g>
<!-- dedalus&#45;&gt;yambo -->
<!-- sirius -->
<g id="node27" class="node">
<title>sirius</title>
<g id="a_node27"><a xlink:href="https://github.com/conda-forge/sirius-feedstock/pull/30" xlink:title="sirius ❎">
<ellipse fill="#31688e" stroke="black" cx="130.69" cy="-90" rx="54.36" ry="18"/>
<text text-anchor="middle" x="130.69" y="-85.33" font-family="Times,serif" font-size="14.00" fill="white">sirius ❎</text>
</a>
</g>
</g>
<!-- sirius&#45;&gt;cp2k -->
<g id="edge21" class="edge">
<title>sirius&#45;&gt;cp2k</title>
<path fill="none" stroke="black" d="M130.69,-71.7C130.69,-64.41 130.69,-55.73 130.69,-47.54"/>
<polygon fill="black" stroke="black" points="134.19,-47.62 130.69,-37.62 127.19,-47.62 134.19,-47.62"/>
</g>
<!-- ondamonitor -->
<g id="node28" class="node">
<title>ondamonitor</title>
<g id="a_node28"><a xlink:href="https://github.com/conda-forge/ondamonitor-feedstock/pull/12" xlink:title="ondamonitor ❎">
<ellipse fill="#31688e" stroke="black" cx="130.69" cy="-1114" rx="90.14" ry="18"/>
<text text-anchor="middle" x="130.69" y="-1109.33" font-family="Times,serif" font-size="14.00" fill="white">ondamonitor ❎</text>
</a>
</g>
</g>
<!-- alamode -->
<g id="node29" class="node">
<title>alamode</title>
<g id="a_node29"><a xlink:href="https://github.com/conda-forge/alamode-feedstock/pull/12" xlink:title="alamode ❎">
<ellipse fill="#31688e" stroke="black" cx="130.69" cy="-1042" rx="68.57" ry="18"/>
<text text-anchor="middle" x="130.69" y="-1037.33" font-family="Times,serif" font-size="14.00" fill="white">alamode ❎</text>
</a>
</g>
</g>
<!-- ondamonitor&#45;&gt;alamode -->
<!-- timemory -->
<g id="node30" class="node">
<title>timemory</title>
<g id="a_node30"><a xlink:href="https://github.com/conda-forge/timemory-feedstock" xlink:title="timemory">
<ellipse fill="#000000" stroke="black" cx="130.69" cy="-970" rx="59.63" ry="18"/>
<text text-anchor="middle" x="130.69" y="-965.33" font-family="Times,serif" font-size="14.00" fill="white">timemory</text>
</a>
</g>
</g>
<!-- alamode&#45;&gt;timemory -->
<!-- pexsi -->
<g id="node31" class="node">
<title>pexsi</title>
<g id="a_node31"><a xlink:href="https://github.com/conda-forge/pexsi-feedstock/pull/10" xlink:title="pexsi ❎">
<ellipse fill="#31688e" stroke="black" cx="130.69" cy="-898" rx="52.79" ry="18"/>
<text text-anchor="middle" x="130.69" y="-893.33" font-family="Times,serif" font-size="14.00" fill="white">pexsi ❎</text>
</a>
</g>
</g>
<!-- timemory&#45;&gt;pexsi -->
<!-- eigenexa -->
<g id="node36" class="node">
<title>eigenexa</title>
<g id="a_node36"><a xlink:href="https://github.com/conda-forge/eigenexa-feedstock/pull/3" xlink:title="eigenexa ❎">
<ellipse fill="#31688e" stroke="black" cx="130.69" cy="-826" rx="71.2" ry="18"/>
<text text-anchor="middle" x="130.69" y="-821.33" font-family="Times,serif" font-size="14.00" fill="white">eigenexa ❎</text>
</a>
</g>
</g>
<!-- pexsi&#45;&gt;eigenexa -->
<!-- elpa -->
<g id="node32" class="node">
<title>elpa</title>
<g id="a_node32"><a xlink:href="https://github.com/conda-forge/elpa-feedstock/pull/26" xlink:title="elpa ❎">
<ellipse fill="#31688e" stroke="black" cx="744.69" cy="-898" rx="47.53" ry="18"/>
<text text-anchor="middle" x="744.69" y="-893.33" font-family="Times,serif" font-size="14.00" fill="white">elpa ❎</text>
</a>
</g>
</g>
<!-- elpa&#45;&gt;siesta -->
<g id="edge25" class="edge">
<title>elpa&#45;&gt;siesta</title>
<path fill="none" stroke="black" d="M728.68,-880.76C719.85,-871.8 708.72,-860.51 698.94,-850.59"/>
<polygon fill="black" stroke="black" points="701.7,-848.41 692.19,-843.74 696.72,-853.32 701.7,-848.41"/>
</g>
<!-- elpa&#45;&gt;gpaw -->
<g id="edge26" class="edge">
<title>elpa&#45;&gt;gpaw</title>
<path fill="none" stroke="black" d="M743.09,-879.59C740.9,-855.61 736.92,-812.14 734.29,-783.42"/>
<polygon fill="black" stroke="black" points="737.79,-783.26 733.39,-773.62 730.82,-783.9 737.79,-783.26"/>
</g>
<!-- elpa&#45;&gt;qe -->
<g id="edge27" class="edge">
<title>elpa&#45;&gt;qe</title>
<path fill="none" stroke="black" d="M749.72,-879.69C756.64,-855.63 769.3,-810.69 778.69,-772 783.59,-751.79 788.47,-728.83 792.06,-711.3"/>
<polygon fill="black" stroke="black" points="795.47,-712.1 794.02,-701.61 788.61,-710.72 795.47,-712.1"/>
</g>
<!-- elsi -->
<g id="node33" class="node">
<title>elsi</title>
<g id="a_node33"><a xlink:href="https://github.com/conda-forge/elsi-feedstock" xlink:title="elsi">
<ellipse fill="#fde725" stroke="black" cx="588.69" cy="-826" rx="28.59" ry="18"/>
<text text-anchor="middle" x="588.69" y="-821.33" font-family="Times,serif" font-size="14.00">elsi</text>
</a>
</g>
</g>
<!-- elpa&#45;&gt;elsi -->
<g id="edge28" class="edge">
<title>elpa&#45;&gt;elsi</title>
<path fill="none" stroke="black" d="M714.81,-883.81C690.72,-873.14 655.98,-857.7 625.69,-844 624.38,-843.41 623.05,-842.81 621.71,-842.2"/>
<polygon fill="black" stroke="black" points="623.29,-839.07 612.74,-838.1 620.38,-845.44 623.29,-839.07"/>
</g>
<!-- abacus -->
<g id="node34" class="node">
<title>abacus</title>
<g id="a_node34"><a xlink:href="https://github.com/conda-forge/abacus-feedstock" xlink:title="abacus">
<ellipse fill="#fde725" stroke="black" cx="852.69" cy="-610" rx="45.95" ry="18"/>
<text text-anchor="middle" x="852.69" y="-605.33" font-family="Times,serif" font-size="14.00">abacus</text>
</a>
</g>
</g>
<!-- elpa&#45;&gt;abacus -->
<g id="edge29" class="edge">
<title>elpa&#45;&gt;abacus</title>
<path fill="none" stroke="black" d="M756.63,-880.34C763.61,-870.15 772.28,-856.69 778.69,-844 809.57,-782.85 814.26,-765.7 833.69,-700 839.59,-680.06 844.44,-657.09 847.77,-639.49"/>
<polygon fill="black" stroke="black" points="851.19,-640.21 849.55,-629.75 844.31,-638.96 851.19,-640.21"/>
</g>
<!-- elsi&#45;&gt;dftbplus -->
<g id="edge30" class="edge">
<title>elsi&#45;&gt;dftbplus</title>
<path fill="none" stroke="black" d="M573.06,-810.41C563.72,-800.58 552.73,-786.75 547.69,-772 540.84,-751.96 546.14,-728.44 552.72,-710.62"/>
<polygon fill="black" stroke="black" points="555.91,-712.06 556.43,-701.48 549.42,-709.43 555.91,-712.06"/>
</g>
<!-- elsi&#45;&gt;libmbd -->
<g id="edge31" class="edge">
<title>elsi&#45;&gt;libmbd</title>
<path fill="none" stroke="black" d="M592.15,-807.7C593.62,-800.32 595.38,-791.52 597.04,-783.25"/>
<polygon fill="black" stroke="black" points="600.44,-784.08 598.97,-773.59 593.58,-782.71 600.44,-784.08"/>
</g>
<!-- libomm -->
<g id="node35" class="node">
<title>libomm</title>
<g id="a_node35"><a xlink:href="https://github.com/conda-forge/libomm-feedstock/pull/5" xlink:title="libomm ✓">
<ellipse fill="#31688e" stroke="black" cx="588.69" cy="-898" rx="56.47" ry="18"/>
<text text-anchor="middle" x="588.69" y="-893.33" font-family="Times,serif" font-size="14.00" fill="white">libomm ✓</text>
</a>
</g>
</g>
<!-- libomm&#45;&gt;elsi -->
<g id="edge32" class="edge">
<title>libomm&#45;&gt;elsi</title>
<path fill="none" stroke="black" d="M588.69,-879.7C588.69,-872.41 588.69,-863.73 588.69,-855.54"/>
<polygon fill="black" stroke="black" points="592.19,-855.62 588.69,-845.62 585.19,-855.62 592.19,-855.62"/>
</g>
<!-- fleur -->
<g id="node37" class="node">
<title>fleur</title>
<g id="a_node37"><a xlink:href="https://github.com/conda-forge/fleur-feedstock/pull/19" xlink:title="fleur ✓">
<ellipse fill="#31688e" stroke="black" cx="130.69" cy="-754" rx="42.26" ry="18"/>
<text text-anchor="middle" x="130.69" y="-749.33" font-family="Times,serif" font-size="14.00" fill="white">fleur ✓</text>
</a>
</g>
</g>
<!-- eigenexa&#45;&gt;fleur -->
<!-- edrixs -->
<g id="node38" class="node">
<title>edrixs</title>
<g id="a_node38"><a xlink:href="https://github.com/conda-forge/edrixs-feedstock/pull/14" xlink:title="edrixs ❎">
<ellipse fill="#31688e" stroke="black" cx="130.69" cy="-682" rx="57.52" ry="18"/>
<text text-anchor="middle" x="130.69" y="-677.33" font-family="Times,serif" font-size="14.00" fill="white">edrixs ❎</text>
</a>
</g>
</g>
<!-- fleur&#45;&gt;edrixs -->
<!-- openphase -->
<g id="node39" class="node">
<title>openphase</title>
<g id="a_node39"><a xlink:href="https://github.com/conda-forge/openphase-feedstock/pull/2" xlink:title="openphase ❎">
<ellipse fill="#31688e" stroke="black" cx="130.69" cy="-610" rx="80.14" ry="18"/>
<text text-anchor="middle" x="130.69" y="-605.33" font-family="Times,serif" font-size="14.00" fill="white">openphase ❎</text>
</a>
</g>
</g>
<!-- edrixs&#45;&gt;openphase -->
<!-- sparc&#45;x -->
<g id="node40" class="node">
<title>sparc&#45;x</title>
<g id="a_node40"><a xlink:href="https://github.com/conda-forge/sparc-x-feedstock/pull/9" xlink:title="sparc x ❎">
<ellipse fill="#31688e" stroke="black" cx="130.69" cy="-538" rx="62.78" ry="18"/>
<text text-anchor="middle" x="130.69" y="-533.33" font-family="Times,serif" font-size="14.00" fill="white">sparc x ❎</text>
</a>
</g>
</g>
<!-- openphase&#45;&gt;sparc&#45;x -->
<!-- heat -->
<g id="node41" class="node">
<title>heat</title>
<g id="a_node41"><a xlink:href="https://github.com/conda-forge/heat-feedstock/pull/15" xlink:title="heat ❎">
<ellipse fill="#31688e" stroke="black" cx="130.69" cy="-466" rx="48.58" ry="18"/>
<text text-anchor="middle" x="130.69" y="-461.32" font-family="Times,serif" font-size="14.00" fill="white">heat ❎</text>
</a>
</g>
</g>
<!-- sparc&#45;x&#45;&gt;heat -->
<!-- reef3d -->
<g id="node42" class="node">
<title>reef3d</title>
<g id="a_node42"><a xlink:href="https://github.com/conda-forge/reef3d-feedstock/pull/11" xlink:title="reef3d ✓">
<ellipse fill="#31688e" stroke="black" cx="130.69" cy="-394" rx="51.74" ry="18"/>
<text text-anchor="middle" x="130.69" y="-389.32" font-family="Times,serif" font-size="14.00" fill="white">reef3d ✓</text>
</a>
</g>
</g>
<!-- heat&#45;&gt;reef3d -->
<!-- fluidfft&#45;mpi_with_fftw -->
<g id="node43" class="node">
<title>fluidfft&#45;mpi_with_fftw</title>
<g id="a_node43"><a xlink:href="https://github.com/conda-forge/fluidfft-mpi_with_fftw-feedstock/pull/1" xlink:title="fluidfft mpi_with_fftw ❎">
<ellipse fill="#31688e" stroke="black" cx="705.69" cy="-278" rx="132.76" ry="18"/>
<text text-anchor="middle" x="705.69" y="-273.32" font-family="Times,serif" font-size="14.00" fill="white">fluidfft mpi_with_fftw ❎</text>
</a>
</g>
</g>
<!-- eatpy -->
<g id="node44" class="node">
<title>eatpy</title>
<g id="a_node44"><a xlink:href="https://github.com/conda-forge/eatpy-feedstock" xlink:title="eatpy">
<ellipse fill="#000000" stroke="black" cx="705.69" cy="-206" rx="39.11" ry="18"/>
<text text-anchor="middle" x="705.69" y="-201.32" font-family="Times,serif" font-size="14.00" fill="white">eatpy</text>
</a>
</g>
</g>
<!-- fluidfft&#45;mpi_with_fftw&#45;&gt;eatpy -->
</g>
</svg>
