<?xml version="1.0" encoding="UTF-8" standalone="no"?>
<!DOCTYPE svg PUBLIC "-//W3C//DTD SVG 1.1//EN"
 "http://www.w3.org/Graphics/SVG/1.1/DTD/svg11.dtd">
<!-- Generated by graphviz version 11.0.0 (20240519.1550)
 -->
<!-- Pages: 1 -->
<svg width="1236pt" height="1284pt"
 viewBox="0.00 0.00 1236.02 1284.00" xmlns="http://www.w3.org/2000/svg" xmlns:xlink="http://www.w3.org/1999/xlink">
<g id="graph0" class="graph" transform="scale(1 1) rotate(0) translate(4 1280)">
<polygon fill="white" stroke="none" points="-4,4 -4,-1280 1232.02,-1280 1232.02,4 -4,4"/>
<!-- casacore -->
<g id="node1" class="node">
<title>casacore</title>
<g id="a_node1"><a xlink:href="https://github.com/conda-forge/casacore-feedstock/pull/88" xlink:title="casacore ❎">
<ellipse fill="#31688e" stroke="black" cx="664.25" cy="-1258" rx="70.15" ry="18"/>
<text text-anchor="middle" x="664.25" y="-1253.33" font-family="Times,serif" font-size="14.00" fill="white">casacore ❎</text>
</a>
</g>
</g>
<!-- esmf -->
<g id="node2" class="node">
<title>esmf</title>
<g id="a_node2"><a xlink:href="https://github.com/conda-forge/esmf-feedstock/pull/116" xlink:title="esmf ❎">
<ellipse fill="#31688e" stroke="black" cx="664.25" cy="-1186" rx="50.68" ry="18"/>
<text text-anchor="middle" x="664.25" y="-1181.33" font-family="Times,serif" font-size="14.00" fill="white">esmf ❎</text>
</a>
</g>
</g>
<!-- casacore&#45;&gt;esmf -->
<!-- netcdf&#45;cxx4 -->
<g id="node3" class="node">
<title>netcdf&#45;cxx4</title>
<g id="a_node3"><a xlink:href="https://github.com/conda-forge/netcdf-cxx4-feedstock/pull/48" xlink:title="netcdf cxx4 ❎">
<ellipse fill="#31688e" stroke="black" cx="664.25" cy="-1114" rx="84.35" ry="18"/>
<text text-anchor="middle" x="664.25" y="-1109.33" font-family="Times,serif" font-size="14.00" fill="white">netcdf cxx4 ❎</text>
</a>
</g>
</g>
<!-- esmf&#45;&gt;netcdf&#45;cxx4 -->
<!-- openpmd&#45;api -->
<g id="node9" class="node">
<title>openpmd&#45;api</title>
<g id="a_node9"><a xlink:href="https://github.com/conda-forge/openpmd-api-feedstock/pull/112" xlink:title="openpmd api ❎">
<ellipse fill="#31688e" stroke="black" cx="664.25" cy="-1042" rx="91.19" ry="18"/>
<text text-anchor="middle" x="664.25" y="-1037.33" font-family="Times,serif" font-size="14.00" fill="white">openpmd api ❎</text>
</a>
</g>
</g>
<!-- netcdf&#45;cxx4&#45;&gt;openpmd&#45;api -->
<!-- fenics -->
<g id="node4" class="node">
<title>fenics</title>
<g id="a_node4"><a xlink:href="https://github.com/conda-forge/fenics-feedstock" xlink:title="fenics">
<ellipse fill="#fde725" stroke="black" cx="682.25" cy="-314" rx="40.69" ry="18"/>
<text text-anchor="middle" x="682.25" y="-309.32" font-family="Times,serif" font-size="14.00">fenics</text>
</a>
</g>
</g>
<!-- mshr -->
<g id="node5" class="node">
<title>mshr</title>
<g id="a_node5"><a xlink:href="https://github.com/conda-forge/mshr-feedstock" xlink:title="mshr">
<ellipse fill="#fde725" stroke="black" cx="682.25" cy="-242" rx="37" ry="18"/>
<text text-anchor="middle" x="682.25" y="-237.32" font-family="Times,serif" font-size="14.00">mshr</text>
</a>
</g>
</g>
<!-- fenics&#45;&gt;mshr -->
<g id="edge3" class="edge">
<title>fenics&#45;&gt;mshr</title>
<path fill="none" stroke="black" d="M682.25,-295.7C682.25,-288.41 682.25,-279.73 682.25,-271.54"/>
<polygon fill="black" stroke="black" points="685.75,-271.62 682.25,-261.62 678.75,-271.62 685.75,-271.62"/>
</g>
<!-- moab -->
<g id="node6" class="node">
<title>moab</title>
<g id="a_node6"><a xlink:href="https://github.com/conda-forge/moab-feedstock/pull/94" xlink:title="moab ❎">
<ellipse fill="#31688e" stroke="black" cx="1066.25" cy="-162" rx="53.84" ry="18"/>
<text text-anchor="middle" x="1066.25" y="-157.32" font-family="Times,serif" font-size="14.00" fill="white">moab ❎</text>
</a>
</g>
</g>
<!-- dagmc -->
<g id="node7" class="node">
<title>dagmc</title>
<g id="a_node7"><a xlink:href="https://github.com/conda-forge/dagmc-feedstock" xlink:title="dagmc">
<ellipse fill="#fde725" stroke="black" cx="1066.25" cy="-90" rx="44.37" ry="18"/>
<text text-anchor="middle" x="1066.25" y="-85.33" font-family="Times,serif" font-size="14.00">dagmc</text>
</a>
</g>
</g>
<!-- moab&#45;&gt;dagmc -->
<g id="edge4" class="edge">
<title>moab&#45;&gt;dagmc</title>
<path fill="none" stroke="black" d="M1066.25,-143.7C1066.25,-136.41 1066.25,-127.73 1066.25,-119.54"/>
<polygon fill="black" stroke="black" points="1069.75,-119.62 1066.25,-109.62 1062.75,-119.62 1069.75,-119.62"/>
</g>
<!-- openmc -->
<g id="node8" class="node">
<title>openmc</title>
<g id="a_node8"><a xlink:href="https://github.com/conda-forge/openmc-feedstock" xlink:title="openmc">
<ellipse fill="#fde725" stroke="black" cx="1066.25" cy="-18" rx="50.16" ry="18"/>
<text text-anchor="middle" x="1066.25" y="-13.32" font-family="Times,serif" font-size="14.00">openmc</text>
</a>
</g>
</g>
<!-- dagmc&#45;&gt;openmc -->
<g id="edge5" class="edge">
<title>dagmc&#45;&gt;openmc</title>
<path fill="none" stroke="black" d="M1066.25,-71.7C1066.25,-64.41 1066.25,-55.73 1066.25,-47.54"/>
<polygon fill="black" stroke="black" points="1069.75,-47.62 1066.25,-37.62 1062.75,-47.62 1069.75,-47.62"/>
</g>
<!-- lalinference -->
<g id="node21" class="node">
<title>lalinference</title>
<g id="a_node21"><a xlink:href="https://github.com/conda-forge/lalinference-feedstock/pull/63" xlink:title="lalinference ❎">
<ellipse fill="#31688e" stroke="black" cx="664.25" cy="-970" rx="85.41" ry="18"/>
<text text-anchor="middle" x="664.25" y="-965.33" font-family="Times,serif" font-size="14.00" fill="white">lalinference ❎</text>
</a>
</g>
</g>
<!-- openpmd&#45;api&#45;&gt;lalinference -->
<!-- netcdf4 -->
<g id="node10" class="node">
<title>netcdf4</title>
<g id="a_node10"><a xlink:href="https://github.com/conda-forge/netcdf4-feedstock/pull/163" xlink:title="netcdf4 ❎">
<ellipse fill="#31688e" stroke="black" cx="227.25" cy="-162" rx="64.36" ry="18"/>
<text text-anchor="middle" x="227.25" y="-157.32" font-family="Times,serif" font-size="14.00" fill="white">netcdf4 ❎</text>
</a>
</g>
</g>
<!-- veloxchem -->
<g id="node11" class="node">
<title>veloxchem</title>
<g id="a_node11"><a xlink:href="https://github.com/conda-forge/veloxchem-feedstock" xlink:title="veloxchem">
<ellipse fill="#fde725" stroke="black" cx="181.25" cy="-90" rx="64.36" ry="18"/>
<text text-anchor="middle" x="181.25" y="-85.33" font-family="Times,serif" font-size="14.00">veloxchem</text>
</a>
</g>
</g>
<!-- netcdf4&#45;&gt;veloxchem -->
<g id="edge7" class="edge">
<title>netcdf4&#45;&gt;veloxchem</title>
<path fill="none" stroke="black" d="M216.11,-144.05C210.86,-136.06 204.46,-126.33 198.59,-117.4"/>
<polygon fill="black" stroke="black" points="201.53,-115.49 193.11,-109.05 195.68,-119.33 201.53,-115.49"/>
</g>
<!-- heat -->
<g id="node12" class="node">
<title>heat</title>
<g id="a_node12"><a xlink:href="https://github.com/conda-forge/heat-feedstock" xlink:title="heat">
<ellipse fill="#fde725" stroke="black" cx="273.25" cy="-18" rx="33.32" ry="18"/>
<text text-anchor="middle" x="273.25" y="-13.32" font-family="Times,serif" font-size="14.00">heat</text>
</a>
</g>
</g>
<!-- netcdf4&#45;&gt;heat -->
<g id="edge8" class="edge">
<title>netcdf4&#45;&gt;heat</title>
<path fill="none" stroke="black" d="M237.43,-143.84C243.08,-133.71 249.83,-120.46 254.25,-108 261.2,-88.4 266.02,-65.43 269.07,-47.73"/>
<polygon fill="black" stroke="black" points="272.52,-48.35 270.66,-37.92 265.61,-47.23 272.52,-48.35"/>
</g>
<!-- siesta -->
<g id="node13" class="node">
<title>siesta</title>
<g id="a_node13"><a xlink:href="https://github.com/conda-forge/siesta-feedstock" xlink:title="siesta">
<ellipse fill="#fde725" stroke="black" cx="254.25" cy="-350" rx="40.69" ry="18"/>
<text text-anchor="middle" x="254.25" y="-345.32" font-family="Times,serif" font-size="14.00">siesta</text>
</a>
</g>
</g>
<!-- petsc4py -->
<g id="node14" class="node">
<title>petsc4py</title>
<g id="a_node14"><a xlink:href="https://github.com/conda-forge/petsc4py-feedstock" xlink:title="petsc4py">
<ellipse fill="#fde725" stroke="black" cx="830.25" cy="-458" rx="56.47" ry="18"/>
<text text-anchor="middle" x="830.25" y="-453.32" font-family="Times,serif" font-size="14.00">petsc4py</text>
</a>
</g>
</g>
<!-- petsc4py&#45;&gt;fenics -->
<g id="edge9" class="edge">
<title>petsc4py&#45;&gt;fenics</title>
<path fill="none" stroke="black" d="M822.39,-439.9C812.88,-420.62 795.37,-389.2 773.25,-368 758.02,-353.4 738.04,-341.2 720.68,-332.2"/>
<polygon fill="black" stroke="black" points="722.68,-329.28 712.17,-327.95 719.55,-335.55 722.68,-329.28"/>
</g>
<!-- slepc4py -->
<g id="node15" class="node">
<title>slepc4py</title>
<g id="a_node15"><a xlink:href="https://github.com/conda-forge/slepc4py-feedstock" xlink:title="slepc4py">
<ellipse fill="#fde725" stroke="black" cx="709.25" cy="-386" rx="55.42" ry="18"/>
<text text-anchor="middle" x="709.25" y="-381.32" font-family="Times,serif" font-size="14.00">slepc4py</text>
</a>
</g>
</g>
<!-- petsc4py&#45;&gt;slepc4py -->
<g id="edge10" class="edge">
<title>petsc4py&#45;&gt;slepc4py</title>
<path fill="none" stroke="black" d="M803.69,-441.64C786.47,-431.68 763.83,-418.58 745.03,-407.7"/>
<polygon fill="black" stroke="black" points="747.04,-404.82 736.63,-402.84 743.54,-410.88 747.04,-404.82"/>
</g>
<!-- fenics&#45;dolfinx -->
<g id="node16" class="node">
<title>fenics&#45;dolfinx</title>
<g id="a_node16"><a xlink:href="https://github.com/conda-forge/fenics-dolfinx-feedstock" xlink:title="fenics dolfinx">
<ellipse fill="#fde725" stroke="black" cx="818.25" cy="-314" rx="77.52" ry="18"/>
<text text-anchor="middle" x="818.25" y="-309.32" font-family="Times,serif" font-size="14.00">fenics dolfinx</text>
</a>
</g>
</g>
<!-- petsc4py&#45;&gt;fenics&#45;dolfinx -->
<g id="edge11" class="edge">
<title>petsc4py&#45;&gt;fenics&#45;dolfinx</title>
<path fill="none" stroke="black" d="M836.84,-439.8C842.85,-421.77 849.97,-392.68 844.25,-368 842.18,-359.11 838.41,-350 834.37,-341.89"/>
<polygon fill="black" stroke="black" points="837.55,-340.41 829.74,-333.25 831.38,-343.72 837.55,-340.41"/>
</g>
<!-- slepc4py&#45;&gt;fenics -->
<g id="edge12" class="edge">
<title>slepc4py&#45;&gt;fenics</title>
<path fill="none" stroke="black" d="M702.57,-367.7C699.66,-360.15 696.18,-351.12 692.92,-342.68"/>
<polygon fill="black" stroke="black" points="696.25,-341.59 689.39,-333.52 689.72,-344.11 696.25,-341.59"/>
</g>
<!-- slepc4py&#45;&gt;fenics&#45;dolfinx -->
<g id="edge13" class="edge">
<title>slepc4py&#45;&gt;fenics&#45;dolfinx</title>
<path fill="none" stroke="black" d="M733.44,-369.46C747.98,-360.13 766.75,-348.07 782.93,-337.68"/>
<polygon fill="black" stroke="black" points="784.81,-340.63 791.33,-332.29 781.03,-334.74 784.81,-340.63"/>
</g>
<!-- dolfinx_mpc -->
<g id="node17" class="node">
<title>dolfinx_mpc</title>
<g id="a_node17"><a xlink:href="https://github.com/conda-forge/dolfinx_mpc-feedstock" xlink:title="dolfinx_mpc">
<ellipse fill="#fde725" stroke="black" cx="818.25" cy="-242" rx="70.68" ry="18"/>
<text text-anchor="middle" x="818.25" y="-237.32" font-family="Times,serif" font-size="14.00">dolfinx_mpc</text>
</a>
</g>
</g>
<!-- fenics&#45;dolfinx&#45;&gt;dolfinx_mpc -->
<g id="edge14" class="edge">
<title>fenics&#45;dolfinx&#45;&gt;dolfinx_mpc</title>
<path fill="none" stroke="black" d="M818.25,-295.7C818.25,-288.41 818.25,-279.73 818.25,-271.54"/>
<polygon fill="black" stroke="black" points="821.75,-271.62 818.25,-261.62 814.75,-271.62 821.75,-271.62"/>
</g>
<!-- slepc -->
<g id="node18" class="node">
<title>slepc</title>
<g id="a_node18"><a xlink:href="https://github.com/conda-forge/slepc-feedstock" xlink:title="slepc">
<ellipse fill="#35b779" stroke="black" cx="626.25" cy="-458" rx="37" ry="18"/>
<text text-anchor="middle" x="626.25" y="-453.32" font-family="Times,serif" font-size="14.00">slepc</text>
</a>
</g>
</g>
<!-- slepc&#45;&gt;fenics -->
<g id="edge15" class="edge">
<title>slepc&#45;&gt;fenics</title>
<path fill="none" stroke="black" d="M627.88,-439.65C630.09,-421.24 634.98,-391.62 645.25,-368 649.42,-358.38 655.48,-348.73 661.49,-340.34"/>
<polygon fill="black" stroke="black" points="664.28,-342.46 667.49,-332.36 658.68,-338.25 664.28,-342.46"/>
</g>
<!-- slepc&#45;&gt;slepc4py -->
<g id="edge16" class="edge">
<title>slepc&#45;&gt;slepc4py</title>
<path fill="none" stroke="black" d="M644.26,-441.81C655.15,-432.62 669.27,-420.72 681.56,-410.35"/>
<polygon fill="black" stroke="black" points="683.57,-413.23 688.96,-404.11 679.06,-407.88 683.57,-413.23"/>
</g>
<!-- slepc&#45;&gt;fenics&#45;dolfinx -->
<g id="edge17" class="edge">
<title>slepc&#45;&gt;fenics&#45;dolfinx</title>
<path fill="none" stroke="black" d="M661.5,-451.89C693.9,-445.59 741.55,-432.04 773.25,-404 791.57,-387.79 803.37,-362.37 810.27,-342.84"/>
<polygon fill="black" stroke="black" points="813.52,-344.16 813.31,-333.57 806.87,-341.98 813.52,-344.16"/>
</g>
<!-- yambo -->
<g id="node19" class="node">
<title>yambo</title>
<g id="a_node19"><a xlink:href="https://github.com/conda-forge/yambo-feedstock" xlink:title="yambo">
<ellipse fill="#fde725" stroke="black" cx="554.25" cy="-386" rx="44.37" ry="18"/>
<text text-anchor="middle" x="554.25" y="-381.32" font-family="Times,serif" font-size="14.00">yambo</text>
</a>
</g>
</g>
<!-- slepc&#45;&gt;yambo -->
<g id="edge18" class="edge">
<title>slepc&#45;&gt;yambo</title>
<path fill="none" stroke="black" d="M610.27,-441.46C600.98,-432.44 589.09,-420.88 578.66,-410.73"/>
<polygon fill="black" stroke="black" points="581.38,-408.49 571.77,-404.03 576.5,-413.51 581.38,-408.49"/>
</g>
<!-- freefem -->
<g id="node20" class="node">
<title>freefem</title>
<g id="a_node20"><a xlink:href="https://github.com/conda-forge/freefem-feedstock" xlink:title="freefem">
<ellipse fill="#fde725" stroke="black" cx="482.25" cy="-314" rx="50.16" ry="18"/>
<text text-anchor="middle" x="482.25" y="-309.32" font-family="Times,serif" font-size="14.00">freefem</text>
</a>
</g>
</g>
<!-- slepc&#45;&gt;freefem -->
<g id="edge19" class="edge">
<title>slepc&#45;&gt;freefem</title>
<path fill="none" stroke="black" d="M591.56,-451.35C563.06,-444.87 523.83,-431.36 501.25,-404 487.4,-387.23 482.95,-362.76 481.8,-343.73"/>
<polygon fill="black" stroke="black" points="485.3,-343.81 481.5,-333.93 478.31,-344.03 485.3,-343.81"/>
</g>
<!-- parabem -->
<g id="node22" class="node">
<title>parabem</title>
<g id="a_node22"><a xlink:href="https://github.com/conda-forge/parabem-feedstock/pull/17" xlink:title="parabem ❎">
<ellipse fill="#31688e" stroke="black" cx="664.25" cy="-898" rx="70.68" ry="18"/>
<text text-anchor="middle" x="664.25" y="-893.33" font-family="Times,serif" font-size="14.00" fill="white">parabem ❎</text>
</a>
</g>
</g>
<!-- lalinference&#45;&gt;parabem -->
<!-- lfpy -->
<g id="node23" class="node">
<title>lfpy</title>
<g id="a_node23"><a xlink:href="https://github.com/conda-forge/lfpy-feedstock" xlink:title="lfpy">
<ellipse fill="#35b779" stroke="black" cx="664.25" cy="-826" rx="30.16" ry="18"/>
<text text-anchor="middle" x="664.25" y="-821.33" font-family="Times,serif" font-size="14.00">lfpy</text>
</a>
</g>
</g>
<!-- parabem&#45;&gt;lfpy -->
<!-- dakota -->
<g id="node24" class="node">
<title>dakota</title>
<g id="a_node24"><a xlink:href="https://github.com/conda-forge/dakota-feedstock/pull/49" xlink:title="dakota ❎">
<ellipse fill="#31688e" stroke="black" cx="664.25" cy="-754" rx="60.15" ry="18"/>
<text text-anchor="middle" x="664.25" y="-749.33" font-family="Times,serif" font-size="14.00" fill="white">dakota ❎</text>
</a>
</g>
</g>
<!-- lfpy&#45;&gt;dakota -->
<!-- deepmd&#45;kit -->
<g id="node25" class="node">
<title>deepmd&#45;kit</title>
<g id="a_node25"><a xlink:href="https://github.com/conda-forge/deepmd-kit-feedstock" xlink:title="deepmd kit">
<ellipse fill="#35b779" stroke="black" cx="664.25" cy="-682" rx="67.52" ry="18"/>
<text text-anchor="middle" x="664.25" y="-677.33" font-family="Times,serif" font-size="14.00">deepmd kit</text>
</a>
</g>
</g>
<!-- dakota&#45;&gt;deepmd&#45;kit -->
<!-- scorec -->
<g id="node26" class="node">
<title>scorec</title>
<g id="a_node26"><a xlink:href="https://github.com/conda-forge/scorec-feedstock/pull/12" xlink:title="scorec ❎">
<ellipse fill="#31688e" stroke="black" cx="664.25" cy="-610" rx="58.57" ry="18"/>
<text text-anchor="middle" x="664.25" y="-605.33" font-family="Times,serif" font-size="14.00" fill="white">scorec ❎</text>
</a>
</g>
</g>
<!-- deepmd&#45;kit&#45;&gt;scorec -->
<!-- daetk -->
<g id="node31" class="node">
<title>daetk</title>
<g id="a_node31"><a xlink:href="https://github.com/conda-forge/daetk-feedstock" xlink:title="daetk">
<ellipse fill="#35b779" stroke="black" cx="664.25" cy="-538" rx="39.11" ry="18"/>
<text text-anchor="middle" x="664.25" y="-533.33" font-family="Times,serif" font-size="14.00">daetk</text>
</a>
</g>
</g>
<!-- scorec&#45;&gt;daetk -->
<!-- triqs -->
<g id="node27" class="node">
<title>triqs</title>
<g id="a_node27"><a xlink:href="https://github.com/conda-forge/triqs-feedstock/pull/64" xlink:title="triqs ❎">
<ellipse fill="#31688e" stroke="black" cx="1049.25" cy="-458" rx="50.16" ry="18"/>
<text text-anchor="middle" x="1049.25" y="-453.32" font-family="Times,serif" font-size="14.00" fill="white">triqs ❎</text>
</a>
</g>
</g>
<!-- triqs_tprf -->
<g id="node28" class="node">
<title>triqs_tprf</title>
<g id="a_node28"><a xlink:href="https://github.com/conda-forge/triqs_tprf-feedstock" xlink:title="triqs_tprf">
<ellipse fill="#fde725" stroke="black" cx="962.25" cy="-386" rx="58.57" ry="18"/>
<text text-anchor="middle" x="962.25" y="-381.32" font-family="Times,serif" font-size="14.00">triqs_tprf</text>
</a>
</g>
</g>
<!-- triqs&#45;&gt;triqs_tprf -->
<g id="edge26" class="edge">
<title>triqs&#45;&gt;triqs_tprf</title>
<path fill="none" stroke="black" d="M1029.5,-441.12C1018.21,-432.03 1003.83,-420.46 991.27,-410.35"/>
<polygon fill="black" stroke="black" points="993.68,-407.8 983.69,-404.26 989.29,-413.25 993.68,-407.8"/>
</g>
<!-- triqs_cthyb -->
<g id="node29" class="node">
<title>triqs_cthyb</title>
<g id="a_node29"><a xlink:href="https://github.com/conda-forge/triqs_cthyb-feedstock" xlink:title="triqs_cthyb">
<ellipse fill="#fde725" stroke="black" cx="1049.25" cy="-314" rx="67.52" ry="18"/>
<text text-anchor="middle" x="1049.25" y="-309.32" font-family="Times,serif" font-size="14.00">triqs_cthyb</text>
</a>
</g>
</g>
<!-- triqs&#45;&gt;triqs_cthyb -->
<g id="edge27" class="edge">
<title>triqs&#45;&gt;triqs_cthyb</title>
<path fill="none" stroke="black" d="M1049.25,-439.59C1049.25,-415.61 1049.25,-372.14 1049.25,-343.42"/>
<polygon fill="black" stroke="black" points="1052.75,-343.62 1049.25,-333.62 1045.75,-343.62 1052.75,-343.62"/>
</g>
<!-- triqs_dft_tools -->
<g id="node30" class="node">
<title>triqs_dft_tools</title>
<g id="a_node30"><a xlink:href="https://github.com/conda-forge/triqs_dft_tools-feedstock" xlink:title="triqs_dft_tools">
<ellipse fill="#fde725" stroke="black" cx="1145.25" cy="-242" rx="82.77" ry="18"/>
<text text-anchor="middle" x="1145.25" y="-237.32" font-family="Times,serif" font-size="14.00">triqs_dft_tools</text>
</a>
</g>
</g>
<!-- triqs&#45;&gt;triqs_dft_tools -->
<g id="edge28" class="edge">
<title>triqs&#45;&gt;triqs_dft_tools</title>
<path fill="none" stroke="black" d="M1062.22,-440.21C1079.42,-417.11 1109.56,-373.64 1126.25,-332 1134.03,-312.58 1138.85,-289.43 1141.68,-271.61"/>
<polygon fill="black" stroke="black" points="1145.14,-272.14 1143.12,-261.74 1138.21,-271.13 1145.14,-272.14"/>
</g>
<!-- netcdf&#45;cxx&#45;legacy -->
<g id="node32" class="node">
<title>netcdf&#45;cxx&#45;legacy</title>
<g id="a_node32"><a xlink:href="https://github.com/conda-forge/netcdf-cxx-legacy-feedstock/pull/16" xlink:title="netcdf cxx legacy ❎">
<ellipse fill="#31688e" stroke="black" cx="212.25" cy="-1258" rx="113.29" ry="18"/>
<text text-anchor="middle" x="212.25" y="-1253.33" font-family="Times,serif" font-size="14.00" fill="white">netcdf cxx legacy ❎</text>
</a>
</g>
</g>
<!-- conduit -->
<g id="node33" class="node">
<title>conduit</title>
<g id="a_node33"><a xlink:href="https://github.com/conda-forge/conduit-feedstock/pull/46" xlink:title="conduit ✓">
<ellipse fill="#31688e" stroke="black" cx="212.25" cy="-1186" rx="56.47" ry="18"/>
<text text-anchor="middle" x="212.25" y="-1181.33" font-family="Times,serif" font-size="14.00" fill="white">conduit ✓</text>
</a>
</g>
</g>
<!-- netcdf&#45;cxx&#45;legacy&#45;&gt;conduit -->
<!-- parsplice -->
<g id="node34" class="node">
<title>parsplice</title>
<g id="a_node34"><a xlink:href="https://github.com/conda-forge/parsplice-feedstock/pull/13" xlink:title="parsplice ❎">
<ellipse fill="#31688e" stroke="black" cx="212.25" cy="-1114" rx="72.25" ry="18"/>
<text text-anchor="middle" x="212.25" y="-1109.33" font-family="Times,serif" font-size="14.00" fill="white">parsplice ❎</text>
</a>
</g>
</g>
<!-- conduit&#45;&gt;parsplice -->
<!-- parsmurf -->
<g id="node35" class="node">
<title>parsmurf</title>
<g id="a_node35"><a xlink:href="https://github.com/conda-forge/parsmurf-feedstock/pull/4" xlink:title="parsmurf ❎">
<ellipse fill="#31688e" stroke="black" cx="212.25" cy="-1042" rx="72.78" ry="18"/>
<text text-anchor="middle" x="212.25" y="-1037.33" font-family="Times,serif" font-size="14.00" fill="white">parsmurf ❎</text>
</a>
</g>
</g>
<!-- parsplice&#45;&gt;parsmurf -->
<!-- dedalus -->
<g id="node39" class="node">
<title>dedalus</title>
<g id="a_node39"><a xlink:href="https://github.com/conda-forge/dedalus-feedstock" xlink:title="dedalus">
<ellipse fill="#35b779" stroke="black" cx="212.25" cy="-970" rx="50.16" ry="18"/>
<text text-anchor="middle" x="212.25" y="-965.33" font-family="Times,serif" font-size="14.00">dedalus</text>
</a>
</g>
</g>
<!-- parsmurf&#45;&gt;dedalus -->
<!-- qe -->
<g id="node36" class="node">
<title>qe</title>
<g id="a_node36"><a xlink:href="https://github.com/conda-forge/qe-feedstock" xlink:title="qe">
<ellipse fill="#fde725" stroke="black" cx="323.25" cy="-278" rx="27" ry="18"/>
<text text-anchor="middle" x="323.25" y="-273.32" font-family="Times,serif" font-size="14.00">qe</text>
</a>
</g>
</g>
<!-- dftbplus -->
<g id="node37" class="node">
<title>dftbplus</title>
<g id="a_node37"><a xlink:href="https://github.com/conda-forge/dftbplus-feedstock" xlink:title="dftbplus">
<ellipse fill="#fde725" stroke="black" cx="92.25" cy="-206" rx="52.79" ry="18"/>
<text text-anchor="middle" x="92.25" y="-201.32" font-family="Times,serif" font-size="14.00">dftbplus</text>
</a>
</g>
</g>
<!-- libmbd -->
<g id="node38" class="node">
<title>libmbd</title>
<g id="a_node38"><a xlink:href="https://github.com/conda-forge/libmbd-feedstock" xlink:title="libmbd">
<ellipse fill="#fde725" stroke="black" cx="92.25" cy="-278" rx="45.95" ry="18"/>
<text text-anchor="middle" x="92.25" y="-273.32" font-family="Times,serif" font-size="14.00">libmbd</text>
</a>
</g>
</g>
<!-- libmbd&#45;&gt;dftbplus -->
<g id="edge33" class="edge">
<title>libmbd&#45;&gt;dftbplus</title>
<path fill="none" stroke="black" d="M92.25,-259.7C92.25,-252.41 92.25,-243.73 92.25,-235.54"/>
<polygon fill="black" stroke="black" points="95.75,-235.62 92.25,-225.62 88.75,-235.62 95.75,-235.62"/>
</g>
<!-- mrchem -->
<g id="node40" class="node">
<title>mrchem</title>
<g id="a_node40"><a xlink:href="https://github.com/conda-forge/mrchem-feedstock/pull/28" xlink:title="mrchem ❎">
<ellipse fill="#31688e" stroke="black" cx="212.25" cy="-898" rx="67.52" ry="18"/>
<text text-anchor="middle" x="212.25" y="-893.33" font-family="Times,serif" font-size="14.00" fill="white">mrchem ❎</text>
</a>
</g>
</g>
<!-- dedalus&#45;&gt;mrchem -->
<!-- tempest&#45;extremes -->
<g id="node41" class="node">
<title>tempest&#45;extremes</title>
<g id="a_node41"><a xlink:href="https://github.com/conda-forge/tempest-extremes-feedstock/pull/9" xlink:title="tempest extremes ❎">
<ellipse fill="#31688e" stroke="black" cx="212.25" cy="-826" rx="117.5" ry="18"/>
<text text-anchor="middle" x="212.25" y="-821.33" font-family="Times,serif" font-size="14.00" fill="white">tempest extremes ❎</text>
</a>
</g>
</g>
<!-- mrchem&#45;&gt;tempest&#45;extremes -->
<!-- analisi -->
<g id="node43" class="node">
<title>analisi</title>
<g id="a_node43"><a xlink:href="https://github.com/conda-forge/analisi-feedstock/pull/33" xlink:title="analisi ✓">
<ellipse fill="#31688e" stroke="black" cx="212.25" cy="-754" rx="51.74" ry="18"/>
<text text-anchor="middle" x="212.25" y="-749.33" font-family="Times,serif" font-size="14.00" fill="white">analisi ✓</text>
</a>
</g>
</g>
<!-- tempest&#45;extremes&#45;&gt;analisi -->
<!-- libnegf -->
<g id="node42" class="node">
<title>libnegf</title>
<g id="a_node42"><a xlink:href="https://github.com/conda-forge/libnegf-feedstock/pull/17" xlink:title="libnegf ❎">
<ellipse fill="#31688e" stroke="black" cx="217.25" cy="-278" rx="61.2" ry="18"/>
<text text-anchor="middle" x="217.25" y="-273.32" font-family="Times,serif" font-size="14.00" fill="white">libnegf ❎</text>
</a>
</g>
</g>
<!-- libnegf&#45;&gt;dftbplus -->
<g id="edge37" class="edge">
<title>libnegf&#45;&gt;dftbplus</title>
<path fill="none" stroke="black" d="M189.81,-261.64C171.82,-251.56 148.1,-238.28 128.55,-227.33"/>
<polygon fill="black" stroke="black" points="130.51,-224.42 120.08,-222.59 127.09,-230.53 130.51,-224.42"/>
</g>
<!-- nwchem -->
<g id="node44" class="node">
<title>nwchem</title>
<g id="a_node44"><a xlink:href="https://github.com/conda-forge/nwchem-feedstock/pull/49" xlink:title="nwchem ❎">
<ellipse fill="#31688e" stroke="black" cx="212.25" cy="-682" rx="68.04" ry="18"/>
<text text-anchor="middle" x="212.25" y="-677.33" font-family="Times,serif" font-size="14.00" fill="white">nwchem ❎</text>
</a>
</g>
</g>
<!-- analisi&#45;&gt;nwchem -->
<!-- bmad -->
<g id="node45" class="node">
<title>bmad</title>
<g id="a_node45"><a xlink:href="https://github.com/conda-forge/bmad-feedstock/pull/412" xlink:title="bmad ✓">
<ellipse fill="#31688e" stroke="black" cx="212.25" cy="-610" rx="47" ry="18"/>
<text text-anchor="middle" x="212.25" y="-605.33" font-family="Times,serif" font-size="14.00" fill="white">bmad ✓</text>
</a>
</g>
</g>
<!-- nwchem&#45;&gt;bmad -->
<!-- ondamonitor -->
<g id="node46" class="node">
<title>ondamonitor</title>
<g id="a_node46"><a xlink:href="https://github.com/conda-forge/ondamonitor-feedstock" xlink:title="ondamonitor">
<ellipse fill="#35b779" stroke="black" cx="212.25" cy="-538" rx="74.88" ry="18"/>
<text text-anchor="middle" x="212.25" y="-533.33" font-family="Times,serif" font-size="14.00">ondamonitor</text>
</a>
</g>
</g>
<!-- bmad&#45;&gt;ondamonitor -->
<!-- alamode -->
<g id="node47" class="node">
<title>alamode</title>
<g id="a_node47"><a xlink:href="https://github.com/conda-forge/alamode-feedstock" xlink:title="alamode">
<ellipse fill="#35b779" stroke="black" cx="1066.25" cy="-1258" rx="53.31" ry="18"/>
<text text-anchor="middle" x="1066.25" y="-1253.33" font-family="Times,serif" font-size="14.00">alamode</text>
</a>
</g>
</g>
<!-- timemory -->
<g id="node48" class="node">
<title>timemory</title>
<g id="a_node48"><a xlink:href="https://github.com/conda-forge/timemory-feedstock" xlink:title="timemory">
<ellipse fill="#000000" stroke="black" cx="1066.25" cy="-1186" rx="59.63" ry="18"/>
<text text-anchor="middle" x="1066.25" y="-1181.33" font-family="Times,serif" font-size="14.00" fill="white">timemory</text>
</a>
</g>
</g>
<!-- alamode&#45;&gt;timemory -->
<!-- pexsi -->
<g id="node49" class="node">
<title>pexsi</title>
<g id="a_node49"><a xlink:href="https://github.com/conda-forge/pexsi-feedstock/pull/10" xlink:title="pexsi ❎">
<ellipse fill="#31688e" stroke="black" cx="1066.25" cy="-1114" rx="52.79" ry="18"/>
<text text-anchor="middle" x="1066.25" y="-1109.33" font-family="Times,serif" font-size="14.00" fill="white">pexsi ❎</text>
</a>
</g>
</g>
<!-- timemory&#45;&gt;pexsi -->
<!-- eigenexa -->
<g id="node55" class="node">
<title>eigenexa</title>
<g id="a_node55"><a xlink:href="https://github.com/conda-forge/eigenexa-feedstock/pull/3" xlink:title="eigenexa ❎">
<ellipse fill="#31688e" stroke="black" cx="1066.25" cy="-1042" rx="71.2" ry="18"/>
<text text-anchor="middle" x="1066.25" y="-1037.33" font-family="Times,serif" font-size="14.00" fill="white">eigenexa ❎</text>
</a>
</g>
</g>
<!-- pexsi&#45;&gt;eigenexa -->
<!-- elpa -->
<g id="node50" class="node">
<title>elpa</title>
<g id="a_node50"><a xlink:href="https://github.com/conda-forge/elpa-feedstock/pull/26" xlink:title="elpa ❎">
<ellipse fill="#31688e" stroke="black" cx="289.25" cy="-422" rx="47.53" ry="18"/>
<text text-anchor="middle" x="289.25" y="-417.32" font-family="Times,serif" font-size="14.00" fill="white">elpa ❎</text>
</a>
</g>
</g>
<!-- elpa&#45;&gt;siesta -->
<g id="edge44" class="edge">
<title>elpa&#45;&gt;siesta</title>
<path fill="none" stroke="black" d="M280.77,-404.05C276.86,-396.23 272.12,-386.75 267.73,-377.98"/>
<polygon fill="black" stroke="black" points="270.92,-376.52 263.32,-369.14 264.66,-379.65 270.92,-376.52"/>
</g>
<!-- elpa&#45;&gt;qe -->
<g id="edge45" class="edge">
<title>elpa&#45;&gt;qe</title>
<path fill="none" stroke="black" d="M294.4,-403.89C297.43,-393.54 301.25,-380.07 304.25,-368 309.25,-347.82 314.13,-324.86 317.69,-307.32"/>
<polygon fill="black" stroke="black" points="321.1,-308.11 319.64,-297.62 314.24,-306.74 321.1,-308.11"/>
</g>
<!-- elsi -->
<g id="node51" class="node">
<title>elsi</title>
<g id="a_node51"><a xlink:href="https://github.com/conda-forge/elsi-feedstock" xlink:title="elsi">
<ellipse fill="#fde725" stroke="black" cx="92.25" cy="-350" rx="28.59" ry="18"/>
<text text-anchor="middle" x="92.25" y="-345.32" font-family="Times,serif" font-size="14.00">elsi</text>
</a>
</g>
</g>
<!-- elpa&#45;&gt;elsi -->
<g id="edge46" class="edge">
<title>elpa&#45;&gt;elsi</title>
<path fill="none" stroke="black" d="M255.38,-408.97C219.59,-396.25 163.41,-376.29 127.21,-363.42"/>
<polygon fill="black" stroke="black" points="128.68,-360.23 118.09,-360.18 126.34,-366.83 128.68,-360.23"/>
</g>
<!-- abacus -->
<g id="node52" class="node">
<title>abacus</title>
<g id="a_node52"><a xlink:href="https://github.com/conda-forge/abacus-feedstock" xlink:title="abacus">
<ellipse fill="#fde725" stroke="black" cx="378.25" cy="-206" rx="45.95" ry="18"/>
<text text-anchor="middle" x="378.25" y="-201.32" font-family="Times,serif" font-size="14.00">abacus</text>
</a>
</g>
</g>
<!-- elpa&#45;&gt;abacus -->
<g id="edge47" class="edge">
<title>elpa&#45;&gt;abacus</title>
<path fill="none" stroke="black" d="M299.88,-403.96C306.23,-393.64 314.37,-380.16 321.25,-368 339.05,-336.5 346.91,-330.01 359.25,-296 366.34,-276.45 371.16,-253.48 374.17,-235.77"/>
<polygon fill="black" stroke="black" points="377.62,-236.37 375.73,-225.95 370.71,-235.27 377.62,-236.37"/>
</g>
<!-- elsi&#45;&gt;dftbplus -->
<g id="edge48" class="edge">
<title>elsi&#45;&gt;dftbplus</title>
<path fill="none" stroke="black" d="M72.8,-336.54C60.05,-327.13 44.46,-312.96 37.25,-296 30.99,-281.28 30.99,-274.72 37.25,-260 42.16,-248.44 50.97,-238.18 60.12,-229.84"/>
<polygon fill="black" stroke="black" points="62.33,-232.55 67.72,-223.42 57.82,-227.2 62.33,-232.55"/>
</g>
<!-- elsi&#45;&gt;libmbd -->
<g id="edge49" class="edge">
<title>elsi&#45;&gt;libmbd</title>
<path fill="none" stroke="black" d="M92.25,-331.7C92.25,-324.41 92.25,-315.73 92.25,-307.54"/>
<polygon fill="black" stroke="black" points="95.75,-307.62 92.25,-297.62 88.75,-307.62 95.75,-307.62"/>
</g>
<!-- libomm -->
<g id="node53" class="node">
<title>libomm</title>
<g id="a_node53"><a xlink:href="https://github.com/conda-forge/libomm-feedstock" xlink:title="libomm">
<ellipse fill="#fde725" stroke="black" cx="131.25" cy="-422" rx="48.58" ry="18"/>
<text text-anchor="middle" x="131.25" y="-417.32" font-family="Times,serif" font-size="14.00">libomm</text>
</a>
</g>
</g>
<!-- libomm&#45;&gt;elsi -->
<g id="edge50" class="edge">
<title>libomm&#45;&gt;elsi</title>
<path fill="none" stroke="black" d="M121.81,-404.05C117.33,-396.03 111.89,-386.26 106.9,-377.3"/>
<polygon fill="black" stroke="black" points="109.99,-375.66 102.07,-368.63 103.88,-379.07 109.99,-375.66"/>
</g>
<!-- matrixswitch -->
<g id="node54" class="node">
<title>matrixswitch</title>
<g id="a_node54"><a xlink:href="https://github.com/conda-forge/matrixswitch-feedstock/pull/7" xlink:title="matrixswitch ❎">
<ellipse fill="#31688e" stroke="black" cx="92.25" cy="-494" rx="92.25" ry="18"/>
<text text-anchor="middle" x="92.25" y="-489.32" font-family="Times,serif" font-size="14.00" fill="white">matrixswitch ❎</text>
</a>
</g>
</g>
<!-- matrixswitch&#45;&gt;elsi -->
<g id="edge51" class="edge">
<title>matrixswitch&#45;&gt;elsi</title>
<path fill="none" stroke="black" d="M84.35,-475.75C80.14,-465.58 75.39,-452.33 73.25,-440 70.51,-424.24 70.51,-419.76 73.25,-404 74.73,-395.49 77.45,-386.54 80.38,-378.47"/>
<polygon fill="black" stroke="black" points="83.62,-379.78 84,-369.19 77.1,-377.23 83.62,-379.78"/>
</g>
<!-- matrixswitch&#45;&gt;libomm -->
<g id="edge52" class="edge">
<title>matrixswitch&#45;&gt;libomm</title>
<path fill="none" stroke="black" d="M101.89,-475.7C106.18,-467.98 111.35,-458.71 116.14,-450.11"/>
<polygon fill="black" stroke="black" points="119.17,-451.87 120.98,-441.43 113.06,-448.46 119.17,-451.87"/>
</g>
<!-- fleur -->
<g id="node56" class="node">
<title>fleur</title>
<g id="a_node56"><a xlink:href="https://github.com/conda-forge/fleur-feedstock/pull/19" xlink:title="fleur ✓">
<ellipse fill="#31688e" stroke="black" cx="1066.25" cy="-970" rx="42.26" ry="18"/>
<text text-anchor="middle" x="1066.25" y="-965.33" font-family="Times,serif" font-size="14.00" fill="white">fleur ✓</text>
</a>
</g>
</g>
<!-- eigenexa&#45;&gt;fleur -->
<!-- edrixs -->
<g id="node57" class="node">
<title>edrixs</title>
<g id="a_node57"><a xlink:href="https://github.com/conda-forge/edrixs-feedstock/pull/14" xlink:title="edrixs ❎">
<ellipse fill="#31688e" stroke="black" cx="1066.25" cy="-898" rx="57.52" ry="18"/>
<text text-anchor="middle" x="1066.25" y="-893.33" font-family="Times,serif" font-size="14.00" fill="white">edrixs ❎</text>
</a>
</g>
</g>
<!-- fleur&#45;&gt;edrixs -->
<!-- openphase -->
<g id="node58" class="node">
<title>openphase</title>
<g id="a_node58"><a xlink:href="https://github.com/conda-forge/openphase-feedstock/pull/2" xlink:title="openphase ❎">
<ellipse fill="#31688e" stroke="black" cx="1066.25" cy="-826" rx="80.14" ry="18"/>
<text text-anchor="middle" x="1066.25" y="-821.33" font-family="Times,serif" font-size="14.00" fill="white">openphase ❎</text>
</a>
</g>
</g>
<!-- edrixs&#45;&gt;openphase -->
<!-- sparc&#45;x -->
<g id="node59" class="node">
<title>sparc&#45;x</title>
<g id="a_node59"><a xlink:href="https://github.com/conda-forge/sparc-x-feedstock/pull/9" xlink:title="sparc x ❎">
<ellipse fill="#31688e" stroke="black" cx="1066.25" cy="-754" rx="62.78" ry="18"/>
<text text-anchor="middle" x="1066.25" y="-749.33" font-family="Times,serif" font-size="14.00" fill="white">sparc x ❎</text>
</a>
</g>
</g>
<!-- openphase&#45;&gt;sparc&#45;x -->
<!-- reef3d -->
<g id="node60" class="node">
<title>reef3d</title>
<g id="a_node60"><a xlink:href="https://github.com/conda-forge/reef3d-feedstock/pull/11" xlink:title="reef3d ✓">
<ellipse fill="#31688e" stroke="black" cx="1066.25" cy="-682" rx="51.74" ry="18"/>
<text text-anchor="middle" x="1066.25" y="-677.33" font-family="Times,serif" font-size="14.00" fill="white">reef3d ✓</text>
</a>
</g>
</g>
<!-- sparc&#45;x&#45;&gt;reef3d -->
<!-- horovod -->
<g id="node61" class="node">
<title>horovod</title>
<g id="a_node61"><a xlink:href="https://github.com/conda-forge/horovod-feedstock" xlink:title="horovod">
<ellipse fill="#35b779" stroke="black" cx="1066.25" cy="-610" rx="51.74" ry="18"/>
<text text-anchor="middle" x="1066.25" y="-605.33" font-family="Times,serif" font-size="14.00">horovod</text>
</a>
</g>
</g>
<!-- reef3d&#45;&gt;horovod -->
<!-- genesis4 -->
<g id="node62" class="node">
<title>genesis4</title>
<g id="a_node62"><a xlink:href="https://github.com/conda-forge/genesis4-feedstock/pull/12" xlink:title="genesis4 ❎">
<ellipse fill="#31688e" stroke="black" cx="1066.25" cy="-538" rx="70.68" ry="18"/>
<text text-anchor="middle" x="1066.25" y="-533.33" font-family="Times,serif" font-size="14.00" fill="white">genesis4 ❎</text>
</a>
</g>
</g>
<!-- horovod&#45;&gt;genesis4 -->
<!-- fluidfft&#45;mpi_with_fftw -->
<g id="node63" class="node">
<title>fluidfft&#45;mpi_with_fftw</title>
<g id="a_node63"><a xlink:href="https://github.com/conda-forge/fluidfft-mpi_with_fftw-feedstock" xlink:title="fluidfft mpi_with_fftw">
<ellipse fill="#35b779" stroke="black" cx="664.25" cy="-126" rx="117.5" ry="18"/>
<text text-anchor="middle" x="664.25" y="-121.33" font-family="Times,serif" font-size="14.00">fluidfft mpi_with_fftw</text>
</a>
</g>
</g>
<!-- opentelemac -->
<g id="node64" class="node">
<title>opentelemac</title>
<g id="a_node64"><a xlink:href="https://github.com/conda-forge/opentelemac-feedstock/pull/2" xlink:title="opentelemac ✓">
<ellipse fill="#31688e" stroke="black" cx="664.25" cy="-54" rx="82.77" ry="18"/>
<text text-anchor="middle" x="664.25" y="-49.33" font-family="Times,serif" font-size="14.00" fill="white">opentelemac ✓</text>
</a>
</g>
</g>
<!-- fluidfft&#45;mpi_with_fftw&#45;&gt;opentelemac -->
</g>
</svg>
