<?xml version="1.0" encoding="UTF-8" standalone="no"?>
<!DOCTYPE svg PUBLIC "-//W3C//DTD SVG 1.1//EN"
 "http://www.w3.org/Graphics/SVG/1.1/DTD/svg11.dtd">
<!-- Generated by graphviz version 11.0.0 (20240519.1550)
 -->
<!-- Pages: 1 -->
<svg width="2902pt" height="1024pt"
 viewBox="0.00 0.00 2902.39 1024.00" xmlns="http://www.w3.org/2000/svg" xmlns:xlink="http://www.w3.org/1999/xlink">
<g id="graph0" class="graph" transform="scale(1 1) rotate(0) translate(4 1020)">
<polygon fill="white" stroke="none" points="-4,4 -4,-1020 2898.39,-1020 2898.39,4 -4,4"/>
<!-- casacore -->
<g id="node1" class="node">
<title>casacore</title>
<g id="a_node1"><a xlink:href="https://github.com/conda-forge/casacore-feedstock/pull/88" xlink:title="casacore ❎">
<ellipse fill="#31688e" stroke="black" cx="1529.25" cy="-710" rx="70.15" ry="18"/>
<text text-anchor="middle" x="1529.25" y="-705.33" font-family="Times,serif" font-size="14.00" fill="white">casacore ❎</text>
</a>
</g>
</g>
<!-- esmf -->
<g id="node2" class="node">
<title>esmf</title>
<g id="a_node2"><a xlink:href="https://github.com/conda-forge/esmf-feedstock/pull/116" xlink:title="esmf ❎">
<ellipse fill="#31688e" stroke="black" cx="2615.25" cy="-998" rx="50.68" ry="18"/>
<text text-anchor="middle" x="2615.25" y="-993.33" font-family="Times,serif" font-size="14.00" fill="white">esmf ❎</text>
</a>
</g>
</g>
<!-- openmc -->
<g id="node3" class="node">
<title>openmc</title>
<g id="a_node3"><a xlink:href="https://github.com/conda-forge/openmc-feedstock/pull/71" xlink:title="openmc ✓">
<ellipse fill="#31688e" stroke="black" cx="2615.25" cy="-926" rx="58.05" ry="18"/>
<text text-anchor="middle" x="2615.25" y="-921.33" font-family="Times,serif" font-size="14.00" fill="white">openmc ✓</text>
</a>
</g>
</g>
<!-- esmf&#45;&gt;openmc -->
<!-- pytrilinos -->
<g id="node6" class="node">
<title>pytrilinos</title>
<g id="a_node6"><a xlink:href="https://github.com/conda-forge/pytrilinos-feedstock/pull/56" xlink:title="pytrilinos ❎">
<ellipse fill="#31688e" stroke="black" cx="2615.25" cy="-854" rx="74.36" ry="18"/>
<text text-anchor="middle" x="2615.25" y="-849.33" font-family="Times,serif" font-size="14.00" fill="white">pytrilinos ❎</text>
</a>
</g>
</g>
<!-- openmc&#45;&gt;pytrilinos -->
<!-- fenics -->
<g id="node4" class="node">
<title>fenics</title>
<g id="a_node4"><a xlink:href="https://github.com/conda-forge/fenics-feedstock" xlink:title="fenics">
<ellipse fill="#fde725" stroke="black" cx="1168.25" cy="-90" rx="40.69" ry="18"/>
<text text-anchor="middle" x="1168.25" y="-85.33" font-family="Times,serif" font-size="14.00">fenics</text>
</a>
</g>
</g>
<!-- mshr -->
<g id="node5" class="node">
<title>mshr</title>
<g id="a_node5"><a xlink:href="https://github.com/conda-forge/mshr-feedstock" xlink:title="mshr">
<ellipse fill="#fde725" stroke="black" cx="1168.25" cy="-18" rx="37" ry="18"/>
<text text-anchor="middle" x="1168.25" y="-13.32" font-family="Times,serif" font-size="14.00">mshr</text>
</a>
</g>
</g>
<!-- fenics&#45;&gt;mshr -->
<g id="edge2" class="edge">
<title>fenics&#45;&gt;mshr</title>
<path fill="none" stroke="black" d="M1168.25,-71.7C1168.25,-64.41 1168.25,-55.73 1168.25,-47.54"/>
<polygon fill="black" stroke="black" points="1171.75,-47.62 1168.25,-37.62 1164.75,-47.62 1171.75,-47.62"/>
</g>
<!-- trilinos -->
<g id="node7" class="node">
<title>trilinos</title>
<g id="a_node7"><a xlink:href="https://github.com/conda-forge/trilinos-feedstock/pull/47" xlink:title="trilinos ❎">
<ellipse fill="#31688e" stroke="black" cx="2615.25" cy="-782" rx="62.26" ry="18"/>
<text text-anchor="middle" x="2615.25" y="-777.33" font-family="Times,serif" font-size="14.00" fill="white">trilinos ❎</text>
</a>
</g>
</g>
<!-- pytrilinos&#45;&gt;trilinos -->
<!-- openpmd&#45;api -->
<g id="node45" class="node">
<title>openpmd&#45;api</title>
<g id="a_node45"><a xlink:href="https://github.com/conda-forge/openpmd-api-feedstock/pull/112" xlink:title="openpmd api ❎">
<ellipse fill="#31688e" stroke="black" cx="2615.25" cy="-710" rx="91.19" ry="18"/>
<text text-anchor="middle" x="2615.25" y="-705.33" font-family="Times,serif" font-size="14.00" fill="white">openpmd api ❎</text>
</a>
</g>
</g>
<!-- trilinos&#45;&gt;openpmd&#45;api -->
<!-- siesta -->
<g id="node8" class="node">
<title>siesta</title>
<g id="a_node8"><a xlink:href="https://github.com/conda-forge/siesta-feedstock" xlink:title="siesta">
<ellipse fill="#fde725" stroke="black" cx="375.25" cy="-710" rx="40.69" ry="18"/>
<text text-anchor="middle" x="375.25" y="-705.33" font-family="Times,serif" font-size="14.00">siesta</text>
</a>
</g>
</g>
<!-- fftw -->
<g id="node9" class="node">
<title>fftw</title>
<g id="a_node9"><a xlink:href="https://github.com/conda-forge/fftw-feedstock/pull/97" xlink:title="fftw ✓">
<ellipse fill="#31688e" stroke="black" cx="1374.25" cy="-782" rx="38.58" ry="18"/>
<text text-anchor="middle" x="1374.25" y="-777.33" font-family="Times,serif" font-size="14.00" fill="white">fftw ✓</text>
</a>
</g>
</g>
<!-- fftw&#45;&gt;casacore -->
<g id="edge5" class="edge">
<title>fftw&#45;&gt;casacore</title>
<path fill="none" stroke="black" d="M1401.25,-768.81C1424.37,-758.36 1458.12,-743.12 1485.16,-730.91"/>
<polygon fill="black" stroke="black" points="1486.48,-734.16 1494.15,-726.85 1483.6,-727.78 1486.48,-734.16"/>
</g>
<!-- numcosmo -->
<g id="node10" class="node">
<title>numcosmo</title>
<g id="a_node10"><a xlink:href="https://github.com/conda-forge/numcosmo-feedstock" xlink:title="numcosmo">
<ellipse fill="#fde725" stroke="black" cx="1572.25" cy="-638" rx="64.89" ry="18"/>
<text text-anchor="middle" x="1572.25" y="-633.33" font-family="Times,serif" font-size="14.00">numcosmo</text>
</a>
</g>
</g>
<!-- fftw&#45;&gt;numcosmo -->
<g id="edge6" class="edge">
<title>fftw&#45;&gt;numcosmo</title>
<path fill="none" stroke="black" d="M1412.23,-778.02C1472.1,-772.45 1584.13,-758.19 1608.25,-728 1623.18,-709.31 1610.05,-683.6 1595.64,-664.62"/>
<polygon fill="black" stroke="black" points="1598.54,-662.65 1589.53,-657.08 1593.1,-667.06 1598.54,-662.65"/>
</g>
<!-- lammps -->
<g id="node11" class="node">
<title>lammps</title>
<g id="a_node11"><a xlink:href="https://github.com/conda-forge/lammps-feedstock" xlink:title="lammps">
<ellipse fill="#fde725" stroke="black" cx="667.25" cy="-710" rx="50.68" ry="18"/>
<text text-anchor="middle" x="667.25" y="-705.33" font-family="Times,serif" font-size="14.00">lammps</text>
</a>
</g>
</g>
<!-- fftw&#45;&gt;lammps -->
<g id="edge7" class="edge">
<title>fftw&#45;&gt;lammps</title>
<path fill="none" stroke="black" d="M1335.6,-780.14C1235.32,-777.41 958.79,-766.68 732.25,-728 727.06,-727.11 721.68,-726.01 716.34,-724.8"/>
<polygon fill="black" stroke="black" points="717.51,-721.48 706.97,-722.54 715.87,-728.29 717.51,-721.48"/>
</g>
<!-- lalinference -->
<g id="node12" class="node">
<title>lalinference</title>
<g id="a_node12"><a xlink:href="https://github.com/conda-forge/lalinference-feedstock/pull/63" xlink:title="lalinference ✓">
<ellipse fill="#31688e" stroke="black" cx="1696.25" cy="-566" rx="78.04" ry="18"/>
<text text-anchor="middle" x="1696.25" y="-561.33" font-family="Times,serif" font-size="14.00" fill="white">lalinference ✓</text>
</a>
</g>
</g>
<!-- fftw&#45;&gt;lalinference -->
<g id="edge8" class="edge">
<title>fftw&#45;&gt;lalinference</title>
<path fill="none" stroke="black" d="M1412.98,-779.88C1486.84,-776.88 1643.64,-766.07 1679.25,-728 1712.54,-692.41 1708.53,-631.17 1702.48,-595.35"/>
<polygon fill="black" stroke="black" points="1705.96,-594.93 1700.68,-585.74 1699.08,-596.22 1705.96,-594.93"/>
</g>
<!-- gpaw -->
<g id="node13" class="node">
<title>gpaw</title>
<g id="a_node13"><a xlink:href="https://github.com/conda-forge/gpaw-feedstock" xlink:title="gpaw">
<ellipse fill="#fde725" stroke="black" cx="872.25" cy="-566" rx="38.06" ry="18"/>
<text text-anchor="middle" x="872.25" y="-561.33" font-family="Times,serif" font-size="14.00">gpaw</text>
</a>
</g>
</g>
<!-- fftw&#45;&gt;gpaw -->
<g id="edge9" class="edge">
<title>fftw&#45;&gt;gpaw</title>
<path fill="none" stroke="black" d="M1335.71,-779.65C1225.26,-775.42 913.45,-760.65 882.25,-728 848.61,-692.8 856.05,-631.16 864.28,-595.22"/>
<polygon fill="black" stroke="black" points="867.67,-596.12 866.68,-585.57 860.87,-594.43 867.67,-596.12"/>
</g>
<!-- ambertools -->
<g id="node14" class="node">
<title>ambertools</title>
<g id="a_node14"><a xlink:href="https://github.com/conda-forge/ambertools-feedstock" xlink:title="ambertools">
<ellipse fill="#fde725" stroke="black" cx="1744.25" cy="-494" rx="67.52" ry="18"/>
<text text-anchor="middle" x="1744.25" y="-489.32" font-family="Times,serif" font-size="14.00">ambertools</text>
</a>
</g>
</g>
<!-- fftw&#45;&gt;ambertools -->
<g id="edge10" class="edge">
<title>fftw&#45;&gt;ambertools</title>
<path fill="none" stroke="black" d="M1412.51,-778.94C1488.68,-774.2 1655.95,-760.31 1702.25,-728 1762.46,-685.98 1764.64,-655.03 1783.25,-584 1787.3,-568.52 1788.24,-563.2 1783.25,-548 1779.98,-538.06 1774.07,-528.46 1767.81,-520.21"/>
<polygon fill="black" stroke="black" points="1770.72,-518.24 1761.69,-512.71 1765.3,-522.67 1770.72,-518.24"/>
</g>
<!-- cp2k -->
<g id="node15" class="node">
<title>cp2k</title>
<g id="a_node15"><a xlink:href="https://github.com/conda-forge/cp2k-feedstock" xlink:title="cp2k">
<ellipse fill="#fde725" stroke="black" cx="1198.25" cy="-422" rx="34.9" ry="18"/>
<text text-anchor="middle" x="1198.25" y="-417.32" font-family="Times,serif" font-size="14.00">cp2k</text>
</a>
</g>
</g>
<!-- fftw&#45;&gt;cp2k -->
<g id="edge11" class="edge">
<title>fftw&#45;&gt;cp2k</title>
<path fill="none" stroke="black" d="M1372.15,-763.96C1368.03,-733.92 1357.39,-669.99 1336.25,-620 1328.85,-602.51 1321.56,-601.07 1313.25,-584 1290.96,-538.26 1306.17,-516.41 1275.25,-476 1264.11,-461.44 1247.81,-449.42 1233.08,-440.52"/>
<polygon fill="black" stroke="black" points="1234.94,-437.55 1224.52,-435.62 1231.46,-443.63 1234.94,-437.55"/>
</g>
<!-- triqs -->
<g id="node16" class="node">
<title>triqs</title>
<g id="a_node16"><a xlink:href="https://github.com/conda-forge/triqs-feedstock/pull/64" xlink:title="triqs ❎">
<ellipse fill="#31688e" stroke="black" cx="2071.25" cy="-710" rx="50.16" ry="18"/>
<text text-anchor="middle" x="2071.25" y="-705.33" font-family="Times,serif" font-size="14.00" fill="white">triqs ❎</text>
</a>
</g>
</g>
<!-- fftw&#45;&gt;triqs -->
<g id="edge12" class="edge">
<title>fftw&#45;&gt;triqs</title>
<path fill="none" stroke="black" d="M1412.32,-778.23C1505.14,-771.31 1750.41,-752.11 1954.25,-728 1974,-725.66 1995.57,-722.66 2014.75,-719.83"/>
<polygon fill="black" stroke="black" points="2015.17,-723.3 2024.54,-718.36 2014.13,-716.38 2015.17,-723.3"/>
</g>
<!-- damask -->
<g id="node17" class="node">
<title>damask</title>
<g id="a_node17"><a xlink:href="https://github.com/conda-forge/damask-feedstock" xlink:title="damask">
<ellipse fill="#fde725" stroke="black" cx="1917.25" cy="-422" rx="49.63" ry="18"/>
<text text-anchor="middle" x="1917.25" y="-417.32" font-family="Times,serif" font-size="14.00">damask</text>
</a>
</g>
</g>
<!-- fftw&#45;&gt;damask -->
<g id="edge13" class="edge">
<title>fftw&#45;&gt;damask</title>
<path fill="none" stroke="black" d="M1412.73,-779.25C1502.53,-774.67 1723.31,-760.36 1789.25,-728 1839.47,-703.36 1878.25,-694.94 1878.25,-639 1878.25,-639 1878.25,-639 1878.25,-565 1878.25,-523.92 1893.61,-478.47 1905.05,-450.32"/>
<polygon fill="black" stroke="black" points="1908.12,-452.04 1908.77,-441.47 1901.67,-449.33 1908.12,-452.04"/>
</g>
<!-- triqs_tprf -->
<g id="node18" class="node">
<title>triqs_tprf</title>
<g id="a_node18"><a xlink:href="https://github.com/conda-forge/triqs_tprf-feedstock" xlink:title="triqs_tprf">
<ellipse fill="#fde725" stroke="black" cx="1965.25" cy="-638" rx="58.57" ry="18"/>
<text text-anchor="middle" x="1965.25" y="-633.33" font-family="Times,serif" font-size="14.00">triqs_tprf</text>
</a>
</g>
</g>
<!-- fftw&#45;&gt;triqs_tprf -->
<g id="edge14" class="edge">
<title>fftw&#45;&gt;triqs_tprf</title>
<path fill="none" stroke="black" d="M1412.93,-780.8C1518.53,-779.69 1809.32,-772.54 1892.25,-728 1918.15,-714.09 1938.39,-686.76 1950.92,-666.05"/>
<polygon fill="black" stroke="black" points="1953.88,-667.93 1955.85,-657.52 1947.82,-664.43 1953.88,-667.93"/>
</g>
<!-- triqs_cthyb -->
<g id="node19" class="node">
<title>triqs_cthyb</title>
<g id="a_node19"><a xlink:href="https://github.com/conda-forge/triqs_cthyb-feedstock" xlink:title="triqs_cthyb">
<ellipse fill="#fde725" stroke="black" cx="2292.25" cy="-638" rx="67.52" ry="18"/>
<text text-anchor="middle" x="2292.25" y="-633.33" font-family="Times,serif" font-size="14.00">triqs_cthyb</text>
</a>
</g>
</g>
<!-- fftw&#45;&gt;triqs_cthyb -->
<g id="edge15" class="edge">
<title>fftw&#45;&gt;triqs_cthyb</title>
<path fill="none" stroke="black" d="M1412.93,-780.48C1547.38,-778.31 1993.61,-768.21 2130.25,-728 2179.07,-713.63 2229.57,-682.91 2260.94,-661.61"/>
<polygon fill="black" stroke="black" points="2262.55,-664.75 2268.79,-656.19 2258.57,-658.99 2262.55,-664.75"/>
</g>
<!-- qe -->
<g id="node20" class="node">
<title>qe</title>
<g id="a_node20"><a xlink:href="https://github.com/conda-forge/qe-feedstock" xlink:title="qe">
<ellipse fill="#fde725" stroke="black" cx="461.25" cy="-710" rx="27" ry="18"/>
<text text-anchor="middle" x="461.25" y="-705.33" font-family="Times,serif" font-size="14.00">qe</text>
</a>
</g>
</g>
<!-- fftw&#45;&gt;qe -->
<g id="edge16" class="edge">
<title>fftw&#45;&gt;qe</title>
<path fill="none" stroke="black" d="M1335.48,-780.61C1187.63,-778.8 659.32,-769.52 497.25,-728 495.61,-727.58 493.97,-727.09 492.32,-726.54"/>
<polygon fill="black" stroke="black" points="493.67,-723.31 483.09,-722.85 491.07,-729.81 493.67,-723.31"/>
</g>
<!-- dedalus -->
<g id="node21" class="node">
<title>dedalus</title>
<g id="a_node21"><a xlink:href="https://github.com/conda-forge/dedalus-feedstock" xlink:title="dedalus">
<ellipse fill="#fde725" stroke="black" cx="2466.25" cy="-710" rx="50.16" ry="18"/>
<text text-anchor="middle" x="2466.25" y="-705.33" font-family="Times,serif" font-size="14.00">dedalus</text>
</a>
</g>
</g>
<!-- fftw&#45;&gt;dedalus -->
<g id="edge17" class="edge">
<title>fftw&#45;&gt;dedalus</title>
<path fill="none" stroke="black" d="M1412.91,-780.08C1575.7,-776.06 2206.05,-758.77 2402.25,-728 2407.44,-727.19 2412.82,-726.12 2418.15,-724.92"/>
<polygon fill="black" stroke="black" points="2418.59,-728.41 2427.49,-722.66 2416.95,-721.61 2418.59,-728.41"/>
</g>
<!-- analisi -->
<g id="node22" class="node">
<title>analisi</title>
<g id="a_node22"><a xlink:href="https://github.com/conda-forge/analisi-feedstock/pull/33" xlink:title="analisi ✓">
<ellipse fill="#31688e" stroke="black" cx="704.25" cy="-638" rx="51.74" ry="18"/>
<text text-anchor="middle" x="704.25" y="-633.33" font-family="Times,serif" font-size="14.00" fill="white">analisi ✓</text>
</a>
</g>
</g>
<!-- fftw&#45;&gt;analisi -->
<g id="edge18" class="edge">
<title>fftw&#45;&gt;analisi</title>
<path fill="none" stroke="black" d="M1335.66,-779.45C1210.26,-774.15 819.51,-755.56 770.25,-728 745.66,-714.24 727.6,-687.09 716.65,-666.38"/>
<polygon fill="black" stroke="black" points="719.86,-664.97 712.25,-657.59 713.6,-668.1 719.86,-664.97"/>
</g>
<!-- spfft -->
<g id="node23" class="node">
<title>spfft</title>
<g id="a_node23"><a xlink:href="https://github.com/conda-forge/spfft-feedstock" xlink:title="spfft">
<ellipse fill="#fde725" stroke="black" cx="782.25" cy="-566" rx="33.85" ry="18"/>
<text text-anchor="middle" x="782.25" y="-561.33" font-family="Times,serif" font-size="14.00">spfft</text>
</a>
</g>
</g>
<!-- fftw&#45;&gt;spfft -->
<g id="edge19" class="edge">
<title>fftw&#45;&gt;spfft</title>
<path fill="none" stroke="black" d="M1335.7,-779.19C1222.73,-773.6 898.01,-755.3 859.25,-728 836.09,-711.69 806.74,-636.57 791.85,-594.95"/>
<polygon fill="black" stroke="black" points="795.18,-593.87 788.56,-585.61 788.58,-596.2 795.18,-593.87"/>
</g>
<!-- bmad -->
<g id="node24" class="node">
<title>bmad</title>
<g id="a_node24"><a xlink:href="https://github.com/conda-forge/bmad-feedstock/pull/412" xlink:title="bmad ✓">
<ellipse fill="#31688e" stroke="black" cx="720.25" cy="-494" rx="47" ry="18"/>
<text text-anchor="middle" x="720.25" y="-489.32" font-family="Times,serif" font-size="14.00" fill="white">bmad ✓</text>
</a>
</g>
</g>
<!-- fftw&#45;&gt;bmad -->
<g id="edge20" class="edge">
<title>fftw&#45;&gt;bmad</title>
<path fill="none" stroke="black" d="M1335.33,-781.6C1225.44,-782.63 915.32,-780.68 831.25,-728 783.58,-698.13 796.4,-666.84 765.25,-620 754.31,-603.57 747.26,-602.04 739.25,-584 730.71,-564.78 725.92,-541.5 723.28,-523.56"/>
<polygon fill="black" stroke="black" points="726.78,-523.34 722.01,-513.88 719.84,-524.26 726.78,-523.34"/>
</g>
<!-- yambo -->
<g id="node25" class="node">
<title>yambo</title>
<g id="a_node25"><a xlink:href="https://github.com/conda-forge/yambo-feedstock" xlink:title="yambo">
<ellipse fill="#fde725" stroke="black" cx="2388.25" cy="-422" rx="44.37" ry="18"/>
<text text-anchor="middle" x="2388.25" y="-417.32" font-family="Times,serif" font-size="14.00">yambo</text>
</a>
</g>
</g>
<!-- fftw&#45;&gt;yambo -->
<g id="edge21" class="edge">
<title>fftw&#45;&gt;yambo</title>
<path fill="none" stroke="black" d="M1413.01,-780.02C1553.22,-776.22 2033.61,-761.05 2183.25,-728 2280.24,-706.58 2388.25,-738.33 2388.25,-639 2388.25,-639 2388.25,-639 2388.25,-565 2388.25,-525.74 2388.25,-480.38 2388.25,-451.69"/>
<polygon fill="black" stroke="black" points="2391.75,-452 2388.25,-442 2384.75,-452 2391.75,-452"/>
</g>
<!-- alamode -->
<g id="node26" class="node">
<title>alamode</title>
<g id="a_node26"><a xlink:href="https://github.com/conda-forge/alamode-feedstock" xlink:title="alamode">
<ellipse fill="#fde725" stroke="black" cx="944.25" cy="-710" rx="53.31" ry="18"/>
<text text-anchor="middle" x="944.25" y="-705.33" font-family="Times,serif" font-size="14.00">alamode</text>
</a>
</g>
</g>
<!-- fftw&#45;&gt;alamode -->
<g id="edge22" class="edge">
<title>fftw&#45;&gt;alamode</title>
<path fill="none" stroke="black" d="M1336.93,-776.84C1270.89,-769.2 1129.3,-751.53 1011.25,-728 1006.28,-727.01 1001.13,-725.88 995.99,-724.69"/>
<polygon fill="black" stroke="black" points="996.85,-721.3 986.31,-722.37 995.22,-728.11 996.85,-721.3"/>
</g>
<!-- libvdwxc -->
<g id="node27" class="node">
<title>libvdwxc</title>
<g id="a_node27"><a xlink:href="https://github.com/conda-forge/libvdwxc-feedstock" xlink:title="libvdwxc">
<ellipse fill="#fde725" stroke="black" cx="963.25" cy="-638" rx="55.42" ry="18"/>
<text text-anchor="middle" x="963.25" y="-633.33" font-family="Times,serif" font-size="14.00">libvdwxc</text>
</a>
</g>
</g>
<!-- fftw&#45;&gt;libvdwxc -->
<g id="edge23" class="edge">
<title>fftw&#45;&gt;libvdwxc</title>
<path fill="none" stroke="black" d="M1336.38,-777.83C1261.77,-771.11 1098.7,-753.88 1049.25,-728 1034.14,-720.09 1004.7,-687.78 984.52,-664.36"/>
<polygon fill="black" stroke="black" points="987.42,-662.37 978.27,-657.04 982.1,-666.92 987.42,-662.37"/>
</g>
<!-- fleur -->
<g id="node28" class="node">
<title>fleur</title>
<g id="a_node28"><a xlink:href="https://github.com/conda-forge/fleur-feedstock/pull/19" xlink:title="fleur ✓">
<ellipse fill="#31688e" stroke="black" cx="970.25" cy="-566" rx="42.26" ry="18"/>
<text text-anchor="middle" x="970.25" y="-561.33" font-family="Times,serif" font-size="14.00" fill="white">fleur ✓</text>
</a>
</g>
</g>
<!-- fftw&#45;&gt;fleur -->
<g id="edge24" class="edge">
<title>fftw&#45;&gt;fleur</title>
<path fill="none" stroke="black" d="M1336.27,-777.99C1267.7,-771.92 1126.64,-756.31 1087.25,-728 1042.66,-695.95 1061.1,-663.23 1027.25,-620 1018.83,-609.25 1008.17,-598.73 998.36,-589.93"/>
<polygon fill="black" stroke="black" points="1000.65,-587.29 990.81,-583.37 996.06,-592.57 1000.65,-587.29"/>
</g>
<!-- gromacs -->
<g id="node29" class="node">
<title>gromacs</title>
<g id="a_node29"><a xlink:href="https://github.com/conda-forge/gromacs-feedstock" xlink:title="gromacs">
<ellipse fill="#fde725" stroke="black" cx="1212.25" cy="-494" rx="53.84" ry="18"/>
<text text-anchor="middle" x="1212.25" y="-489.32" font-family="Times,serif" font-size="14.00">gromacs</text>
</a>
</g>
</g>
<!-- fftw&#45;&gt;gromacs -->
<g id="edge25" class="edge">
<title>fftw&#45;&gt;gromacs</title>
<path fill="none" stroke="black" d="M1335.91,-778.74C1271.75,-774.07 1146.99,-760.9 1120.25,-728 1110.15,-715.58 1114.12,-706.78 1120.25,-692 1137.56,-650.19 1158.53,-650.18 1192.25,-620 1211.33,-602.92 1226.15,-607.08 1237.25,-584 1246.78,-564.17 1238.93,-540.05 1229.59,-521.93"/>
<polygon fill="black" stroke="black" points="1232.72,-520.36 1224.77,-513.35 1226.61,-523.78 1232.72,-520.36"/>
</g>
<!-- freefem -->
<g id="node30" class="node">
<title>freefem</title>
<g id="a_node30"><a xlink:href="https://github.com/conda-forge/freefem-feedstock" xlink:title="freefem">
<ellipse fill="#fde725" stroke="black" cx="1590.25" cy="-422" rx="50.16" ry="18"/>
<text text-anchor="middle" x="1590.25" y="-417.32" font-family="Times,serif" font-size="14.00">freefem</text>
</a>
</g>
</g>
<!-- fftw&#45;&gt;freefem -->
<g id="edge26" class="edge">
<title>fftw&#45;&gt;freefem</title>
<path fill="none" stroke="black" d="M1411.97,-777.74C1474.21,-771.62 1594.63,-756.39 1625.25,-728 1649.69,-705.34 1641.53,-689 1646.25,-656 1648.51,-640.16 1652.47,-634.74 1646.25,-620 1637.32,-598.86 1619.4,-604.58 1609.25,-584 1588.18,-541.29 1586.66,-484.7 1588.05,-451.24"/>
<polygon fill="black" stroke="black" points="1591.53,-451.71 1588.58,-441.53 1584.54,-451.33 1591.53,-451.71"/>
</g>
<!-- openphase -->
<g id="node31" class="node">
<title>openphase</title>
<g id="a_node31"><a xlink:href="https://github.com/conda-forge/openphase-feedstock/pull/2" xlink:title="openphase ❎">
<ellipse fill="#31688e" stroke="black" cx="1209.25" cy="-710" rx="80.14" ry="18"/>
<text text-anchor="middle" x="1209.25" y="-705.33" font-family="Times,serif" font-size="14.00" fill="white">openphase ❎</text>
</a>
</g>
</g>
<!-- fftw&#45;&gt;openphase -->
<g id="edge27" class="edge">
<title>fftw&#45;&gt;openphase</title>
<path fill="none" stroke="black" d="M1346.26,-769.13C1321.53,-758.63 1284.97,-743.12 1255.83,-730.76"/>
<polygon fill="black" stroke="black" points="1257.44,-727.64 1246.87,-726.96 1254.7,-734.09 1257.44,-727.64"/>
</g>
<!-- abacus -->
<g id="node32" class="node">
<title>abacus</title>
<g id="a_node32"><a xlink:href="https://github.com/conda-forge/abacus-feedstock" xlink:title="abacus">
<ellipse fill="#fde725" stroke="black" cx="552.25" cy="-710" rx="45.95" ry="18"/>
<text text-anchor="middle" x="552.25" y="-705.33" font-family="Times,serif" font-size="14.00">abacus</text>
</a>
</g>
</g>
<!-- fftw&#45;&gt;abacus -->
<g id="edge28" class="edge">
<title>fftw&#45;&gt;abacus</title>
<path fill="none" stroke="black" d="M1335.54,-781.46C1222.4,-782.13 882.8,-779.39 607.25,-728 603.71,-727.34 600.08,-726.53 596.45,-725.62"/>
<polygon fill="black" stroke="black" points="597.71,-722.34 587.14,-723.08 595.86,-729.09 597.71,-722.34"/>
</g>
<!-- sparc&#45;x -->
<g id="node33" class="node">
<title>sparc&#45;x</title>
<g id="a_node33"><a xlink:href="https://github.com/conda-forge/sparc-x-feedstock/pull/9" xlink:title="sparc x ❎">
<ellipse fill="#31688e" stroke="black" cx="1264.25" cy="-638" rx="62.78" ry="18"/>
<text text-anchor="middle" x="1264.25" y="-633.33" font-family="Times,serif" font-size="14.00" fill="white">sparc x ❎</text>
</a>
</g>
</g>
<!-- fftw&#45;&gt;sparc&#45;x -->
<g id="edge29" class="edge">
<title>fftw&#45;&gt;sparc&#45;x</title>
<path fill="none" stroke="black" d="M1361.63,-764.71C1342.69,-740.26 1306.72,-693.83 1284.2,-664.76"/>
<polygon fill="black" stroke="black" points="1287.22,-662.94 1278.33,-657.18 1281.68,-667.22 1287.22,-662.94"/>
</g>
<!-- genesis4 -->
<g id="node34" class="node">
<title>genesis4</title>
<g id="a_node34"><a xlink:href="https://github.com/conda-forge/genesis4-feedstock/pull/12" xlink:title="genesis4 ❎">
<ellipse fill="#31688e" stroke="black" cx="1393.25" cy="-566" rx="70.68" ry="18"/>
<text text-anchor="middle" x="1393.25" y="-561.33" font-family="Times,serif" font-size="14.00" fill="white">genesis4 ❎</text>
</a>
</g>
</g>
<!-- fftw&#45;&gt;genesis4 -->
<g id="edge30" class="edge">
<title>fftw&#45;&gt;genesis4</title>
<path fill="none" stroke="black" d="M1375.77,-763.85C1379.03,-727.14 1386.71,-640.66 1390.71,-595.53"/>
<polygon fill="black" stroke="black" points="1394.18,-596.01 1391.58,-585.74 1387.21,-595.39 1394.18,-596.01"/>
</g>
<!-- fluidfft&#45;mpi_with_fftw -->
<g id="node35" class="node">
<title>fluidfft&#45;mpi_with_fftw</title>
<g id="a_node35"><a xlink:href="https://github.com/conda-forge/fluidfft-mpi_with_fftw-feedstock" xlink:title="fluidfft mpi_with_fftw">
<ellipse fill="#fde725" stroke="black" cx="1445.25" cy="-494" rx="117.5" ry="18"/>
<text text-anchor="middle" x="1445.25" y="-489.32" font-family="Times,serif" font-size="14.00">fluidfft mpi_with_fftw</text>
</a>
</g>
</g>
<!-- fftw&#45;&gt;fluidfft&#45;mpi_with_fftw -->
<g id="edge31" class="edge">
<title>fftw&#45;&gt;fluidfft&#45;mpi_with_fftw</title>
<path fill="none" stroke="black" d="M1386.01,-764.39C1408.34,-731.74 1456.16,-656.07 1473.25,-584 1476.94,-568.43 1477.1,-563.53 1473.25,-548 1471.05,-539.15 1467.08,-530.15 1462.81,-522.14"/>
<polygon fill="black" stroke="black" points="1465.91,-520.51 1457.89,-513.59 1459.84,-524 1465.91,-520.51"/>
</g>
<!-- elegant -->
<g id="node36" class="node">
<title>elegant</title>
<g id="a_node36"><a xlink:href="https://github.com/conda-forge/elegant-feedstock" xlink:title="elegant">
<ellipse fill="#fde725" stroke="black" cx="1801.25" cy="-422" rx="48.58" ry="18"/>
<text text-anchor="middle" x="1801.25" y="-417.32" font-family="Times,serif" font-size="14.00">elegant</text>
</a>
</g>
</g>
<!-- fftw&#45;&gt;elegant -->
<g id="edge32" class="edge">
<title>fftw&#45;&gt;elegant</title>
<path fill="none" stroke="black" d="M1412.34,-778.07C1492.93,-771.45 1678.03,-753.86 1735.25,-728 1790.99,-702.81 1840.25,-700.18 1840.25,-639 1840.25,-639 1840.25,-639 1840.25,-565 1840.25,-523.92 1824.88,-478.47 1813.44,-450.32"/>
<polygon fill="black" stroke="black" points="1816.82,-449.33 1809.72,-441.47 1810.37,-452.04 1816.82,-449.33"/>
</g>
<!-- deepmd&#45;kit -->
<g id="node37" class="node">
<title>deepmd&#45;kit</title>
<g id="a_node37"><a xlink:href="https://github.com/conda-forge/deepmd-kit-feedstock" xlink:title="deepmd kit">
<ellipse fill="#fde725" stroke="black" cx="525.25" cy="-638" rx="67.52" ry="18"/>
<text text-anchor="middle" x="525.25" y="-633.33" font-family="Times,serif" font-size="14.00">deepmd kit</text>
</a>
</g>
</g>
<!-- lammps&#45;&gt;deepmd&#45;kit -->
<g id="edge33" class="edge">
<title>lammps&#45;&gt;deepmd&#45;kit</title>
<path fill="none" stroke="black" d="M638.51,-694.83C617.85,-684.65 589.68,-670.76 566.6,-659.39"/>
<polygon fill="black" stroke="black" points="568.28,-656.31 557.76,-655.03 565.18,-662.59 568.28,-656.31"/>
</g>
<!-- parsplice -->
<g id="node38" class="node">
<title>parsplice</title>
<g id="a_node38"><a xlink:href="https://github.com/conda-forge/parsplice-feedstock/pull/13" xlink:title="parsplice ❎">
<ellipse fill="#31688e" stroke="black" cx="620.25" cy="-566" rx="72.25" ry="18"/>
<text text-anchor="middle" x="620.25" y="-561.33" font-family="Times,serif" font-size="14.00" fill="white">parsplice ❎</text>
</a>
</g>
</g>
<!-- lammps&#45;&gt;parsplice -->
<g id="edge34" class="edge">
<title>lammps&#45;&gt;parsplice</title>
<path fill="none" stroke="black" d="M658.7,-692.12C653.73,-681.86 647.61,-668.38 643.25,-656 636.23,-636.09 630.32,-613 626.25,-595.33"/>
<polygon fill="black" stroke="black" points="629.72,-594.8 624.12,-585.8 622.89,-596.32 629.72,-594.8"/>
</g>
<!-- triqs&#45;&gt;triqs_tprf -->
<g id="edge35" class="edge">
<title>triqs&#45;&gt;triqs_tprf</title>
<path fill="none" stroke="black" d="M2047.98,-693.64C2033.55,-684.11 2014.77,-671.7 1998.74,-661.12"/>
<polygon fill="black" stroke="black" points="2000.73,-658.24 1990.45,-655.65 1996.87,-664.08 2000.73,-658.24"/>
</g>
<!-- triqs&#45;&gt;triqs_cthyb -->
<g id="edge36" class="edge">
<title>triqs&#45;&gt;triqs_cthyb</title>
<path fill="none" stroke="black" d="M2107.74,-697.44C2143.56,-686.09 2198.6,-668.66 2239.24,-655.79"/>
<polygon fill="black" stroke="black" points="2240.11,-659.18 2248.59,-652.83 2238,-652.51 2240.11,-659.18"/>
</g>
<!-- triqs_dft_tools -->
<g id="node39" class="node">
<title>triqs_dft_tools</title>
<g id="a_node39"><a xlink:href="https://github.com/conda-forge/triqs_dft_tools-feedstock" xlink:title="triqs_dft_tools">
<ellipse fill="#fde725" stroke="black" cx="2124.25" cy="-638" rx="82.77" ry="18"/>
<text text-anchor="middle" x="2124.25" y="-633.33" font-family="Times,serif" font-size="14.00">triqs_dft_tools</text>
</a>
</g>
</g>
<!-- triqs&#45;&gt;triqs_dft_tools -->
<g id="edge37" class="edge">
<title>triqs&#45;&gt;triqs_dft_tools</title>
<path fill="none" stroke="black" d="M2083.81,-692.41C2089.99,-684.25 2097.58,-674.22 2104.51,-665.07"/>
<polygon fill="black" stroke="black" points="2107.25,-667.25 2110.49,-657.16 2101.67,-663.02 2107.25,-667.25"/>
</g>
<!-- sirius -->
<g id="node40" class="node">
<title>sirius</title>
<g id="a_node40"><a xlink:href="https://github.com/conda-forge/sirius-feedstock" xlink:title="sirius">
<ellipse fill="#fde725" stroke="black" cx="1101.25" cy="-494" rx="39.11" ry="18"/>
<text text-anchor="middle" x="1101.25" y="-489.32" font-family="Times,serif" font-size="14.00">sirius</text>
</a>
</g>
</g>
<!-- spfft&#45;&gt;sirius -->
<g id="edge38" class="edge">
<title>spfft&#45;&gt;sirius</title>
<path fill="none" stroke="black" d="M807.9,-553.96C813.54,-551.78 819.54,-549.66 825.25,-548 903.54,-525.22 997.23,-509.6 1052.85,-501.49"/>
<polygon fill="black" stroke="black" points="1053.22,-504.98 1062.62,-500.09 1052.23,-498.05 1053.22,-504.98"/>
</g>
<!-- libvdwxc&#45;&gt;gpaw -->
<g id="edge39" class="edge">
<title>libvdwxc&#45;&gt;gpaw</title>
<path fill="none" stroke="black" d="M942.6,-621.12C930.16,-611.55 914.14,-599.23 900.53,-588.76"/>
<polygon fill="black" stroke="black" points="902.83,-586.11 892.77,-582.79 898.56,-591.66 902.83,-586.11"/>
</g>
<!-- sirius&#45;&gt;cp2k -->
<g id="edge58" class="edge">
<title>sirius&#45;&gt;cp2k</title>
<path fill="none" stroke="black" d="M1121.34,-478.5C1135.22,-468.48 1153.89,-455.01 1169.36,-443.85"/>
<polygon fill="black" stroke="black" points="1171.22,-446.82 1177.28,-438.13 1167.12,-441.15 1171.22,-446.82"/>
</g>
<!-- petsc4py -->
<g id="node41" class="node">
<title>petsc4py</title>
<g id="a_node41"><a xlink:href="https://github.com/conda-forge/petsc4py-feedstock" xlink:title="petsc4py">
<ellipse fill="#000000" stroke="black" cx="1236.25" cy="-234" rx="56.47" ry="18"/>
<text text-anchor="middle" x="1236.25" y="-229.32" font-family="Times,serif" font-size="14.00" fill="white">petsc4py</text>
</a>
</g>
</g>
<!-- petsc4py&#45;&gt;fenics -->
<g id="edge40" class="edge">
<title>petsc4py&#45;&gt;fenics</title>
<path fill="none" stroke="black" d="M1208.78,-217.81C1195.24,-208.74 1180.16,-195.88 1172.25,-180 1163.02,-161.46 1162.35,-137.97 1163.81,-119.78"/>
<polygon fill="black" stroke="black" points="1167.28,-120.25 1164.88,-109.93 1160.32,-119.49 1167.28,-120.25"/>
</g>
<!-- slepc4py -->
<g id="node42" class="node">
<title>slepc4py</title>
<g id="a_node42"><a xlink:href="https://github.com/conda-forge/slepc4py-feedstock" xlink:title="slepc4py">
<ellipse fill="#fde725" stroke="black" cx="1236.25" cy="-162" rx="55.42" ry="18"/>
<text text-anchor="middle" x="1236.25" y="-157.32" font-family="Times,serif" font-size="14.00">slepc4py</text>
</a>
</g>
</g>
<!-- petsc4py&#45;&gt;slepc4py -->
<g id="edge41" class="edge">
<title>petsc4py&#45;&gt;slepc4py</title>
<path fill="none" stroke="black" d="M1236.25,-215.7C1236.25,-208.41 1236.25,-199.73 1236.25,-191.54"/>
<polygon fill="black" stroke="black" points="1239.75,-191.62 1236.25,-181.62 1232.75,-191.62 1239.75,-191.62"/>
</g>
<!-- fenics&#45;dolfinx -->
<g id="node43" class="node">
<title>fenics&#45;dolfinx</title>
<g id="a_node43"><a xlink:href="https://github.com/conda-forge/fenics-dolfinx-feedstock" xlink:title="fenics dolfinx">
<ellipse fill="#fde725" stroke="black" cx="1311.25" cy="-90" rx="77.52" ry="18"/>
<text text-anchor="middle" x="1311.25" y="-85.33" font-family="Times,serif" font-size="14.00">fenics dolfinx</text>
</a>
</g>
</g>
<!-- petsc4py&#45;&gt;fenics&#45;dolfinx -->
<g id="edge42" class="edge">
<title>petsc4py&#45;&gt;fenics&#45;dolfinx</title>
<path fill="none" stroke="black" d="M1262.89,-217.77C1276.37,-208.61 1291.65,-195.69 1300.25,-180 1310.32,-161.61 1312.84,-137.93 1312.96,-119.62"/>
<polygon fill="black" stroke="black" points="1316.46,-119.65 1312.77,-109.71 1309.47,-119.78 1316.46,-119.65"/>
</g>
<!-- slepc4py&#45;&gt;fenics -->
<g id="edge43" class="edge">
<title>slepc4py&#45;&gt;fenics</title>
<path fill="none" stroke="black" d="M1220.13,-144.41C1211.63,-135.66 1201.03,-124.75 1191.64,-115.08"/>
<polygon fill="black" stroke="black" points="1194.31,-112.81 1184.83,-108.07 1189.29,-117.69 1194.31,-112.81"/>
</g>
<!-- slepc4py&#45;&gt;fenics&#45;dolfinx -->
<g id="edge44" class="edge">
<title>slepc4py&#45;&gt;fenics&#45;dolfinx</title>
<path fill="none" stroke="black" d="M1253.64,-144.76C1262.9,-136.12 1274.49,-125.3 1284.84,-115.65"/>
<polygon fill="black" stroke="black" points="1287.13,-118.29 1292.06,-108.91 1282.36,-113.18 1287.13,-118.29"/>
</g>
<!-- dolfinx_mpc -->
<g id="node44" class="node">
<title>dolfinx_mpc</title>
<g id="a_node44"><a xlink:href="https://github.com/conda-forge/dolfinx_mpc-feedstock" xlink:title="dolfinx_mpc">
<ellipse fill="#fde725" stroke="black" cx="1311.25" cy="-18" rx="70.68" ry="18"/>
<text text-anchor="middle" x="1311.25" y="-13.32" font-family="Times,serif" font-size="14.00">dolfinx_mpc</text>
</a>
</g>
</g>
<!-- fenics&#45;dolfinx&#45;&gt;dolfinx_mpc -->
<g id="edge45" class="edge">
<title>fenics&#45;dolfinx&#45;&gt;dolfinx_mpc</title>
<path fill="none" stroke="black" d="M1311.25,-71.7C1311.25,-64.41 1311.25,-55.73 1311.25,-47.54"/>
<polygon fill="black" stroke="black" points="1314.75,-47.62 1311.25,-37.62 1307.75,-47.62 1314.75,-47.62"/>
</g>
<!-- asap3 -->
<g id="node46" class="node">
<title>asap3</title>
<g id="a_node46"><a xlink:href="https://github.com/conda-forge/asap3-feedstock" xlink:title="asap3">
<ellipse fill="#35b779" stroke="black" cx="2615.25" cy="-638" rx="40.69" ry="18"/>
<text text-anchor="middle" x="2615.25" y="-633.33" font-family="Times,serif" font-size="14.00">asap3</text>
</a>
</g>
</g>
<!-- openpmd&#45;api&#45;&gt;asap3 -->
<!-- faunus -->
<g id="node47" class="node">
<title>faunus</title>
<g id="a_node47"><a xlink:href="https://github.com/conda-forge/faunus-feedstock" xlink:title="faunus">
<ellipse fill="#35b779" stroke="black" cx="2615.25" cy="-566" rx="44.9" ry="18"/>
<text text-anchor="middle" x="2615.25" y="-561.33" font-family="Times,serif" font-size="14.00">faunus</text>
</a>
</g>
</g>
<!-- asap3&#45;&gt;faunus -->
<!-- parabem -->
<g id="node48" class="node">
<title>parabem</title>
<g id="a_node48"><a xlink:href="https://github.com/conda-forge/parabem-feedstock/pull/17" xlink:title="parabem ❎">
<ellipse fill="#31688e" stroke="black" cx="2615.25" cy="-494" rx="70.68" ry="18"/>
<text text-anchor="middle" x="2615.25" y="-489.32" font-family="Times,serif" font-size="14.00" fill="white">parabem ❎</text>
</a>
</g>
</g>
<!-- faunus&#45;&gt;parabem -->
<!-- dakota -->
<g id="node49" class="node">
<title>dakota</title>
<g id="a_node49"><a xlink:href="https://github.com/conda-forge/dakota-feedstock/pull/49" xlink:title="dakota ❎">
<ellipse fill="#31688e" stroke="black" cx="2615.25" cy="-422" rx="60.15" ry="18"/>
<text text-anchor="middle" x="2615.25" y="-417.32" font-family="Times,serif" font-size="14.00" fill="white">dakota ❎</text>
</a>
</g>
</g>
<!-- parabem&#45;&gt;dakota -->
<!-- scorec -->
<g id="node50" class="node">
<title>scorec</title>
<g id="a_node50"><a xlink:href="https://github.com/conda-forge/scorec-feedstock/pull/12" xlink:title="scorec ❎">
<ellipse fill="#31688e" stroke="black" cx="2615.25" cy="-350" rx="58.57" ry="18"/>
<text text-anchor="middle" x="2615.25" y="-345.32" font-family="Times,serif" font-size="14.00" fill="white">scorec ❎</text>
</a>
</g>
</g>
<!-- dakota&#45;&gt;scorec -->
<!-- daetk -->
<g id="node51" class="node">
<title>daetk</title>
<g id="a_node51"><a xlink:href="https://github.com/conda-forge/daetk-feedstock/pull/17" xlink:title="daetk ✓">
<ellipse fill="#31688e" stroke="black" cx="2615.25" cy="-278" rx="47" ry="18"/>
<text text-anchor="middle" x="2615.25" y="-273.32" font-family="Times,serif" font-size="14.00" fill="white">daetk ✓</text>
</a>
</g>
</g>
<!-- scorec&#45;&gt;daetk -->
<!-- conduit -->
<g id="node52" class="node">
<title>conduit</title>
<g id="a_node52"><a xlink:href="https://github.com/conda-forge/conduit-feedstock/pull/46" xlink:title="conduit ✓">
<ellipse fill="#31688e" stroke="black" cx="2804.25" cy="-998" rx="56.47" ry="18"/>
<text text-anchor="middle" x="2804.25" y="-993.33" font-family="Times,serif" font-size="14.00" fill="white">conduit ✓</text>
</a>
</g>
</g>
<!-- parsmurf -->
<g id="node53" class="node">
<title>parsmurf</title>
<g id="a_node53"><a xlink:href="https://github.com/conda-forge/parsmurf-feedstock/pull/4" xlink:title="parsmurf ❎">
<ellipse fill="#31688e" stroke="black" cx="2804.25" cy="-926" rx="72.78" ry="18"/>
<text text-anchor="middle" x="2804.25" y="-921.33" font-family="Times,serif" font-size="14.00" fill="white">parsmurf ❎</text>
</a>
</g>
</g>
<!-- conduit&#45;&gt;parsmurf -->
<!-- ondamonitor -->
<g id="node56" class="node">
<title>ondamonitor</title>
<g id="a_node56"><a xlink:href="https://github.com/conda-forge/ondamonitor-feedstock/pull/12" xlink:title="ondamonitor ❎">
<ellipse fill="#31688e" stroke="black" cx="2804.25" cy="-854" rx="90.14" ry="18"/>
<text text-anchor="middle" x="2804.25" y="-849.33" font-family="Times,serif" font-size="14.00" fill="white">ondamonitor ❎</text>
</a>
</g>
</g>
<!-- parsmurf&#45;&gt;ondamonitor -->
<!-- dftbplus -->
<g id="node54" class="node">
<title>dftbplus</title>
<g id="a_node54"><a xlink:href="https://github.com/conda-forge/dftbplus-feedstock" xlink:title="dftbplus">
<ellipse fill="#fde725" stroke="black" cx="92.25" cy="-566" rx="52.79" ry="18"/>
<text text-anchor="middle" x="92.25" y="-561.33" font-family="Times,serif" font-size="14.00">dftbplus</text>
</a>
</g>
</g>
<!-- libmbd -->
<g id="node55" class="node">
<title>libmbd</title>
<g id="a_node55"><a xlink:href="https://github.com/conda-forge/libmbd-feedstock" xlink:title="libmbd">
<ellipse fill="#fde725" stroke="black" cx="92.25" cy="-638" rx="45.95" ry="18"/>
<text text-anchor="middle" x="92.25" y="-633.33" font-family="Times,serif" font-size="14.00">libmbd</text>
</a>
</g>
</g>
<!-- libmbd&#45;&gt;dftbplus -->
<g id="edge54" class="edge">
<title>libmbd&#45;&gt;dftbplus</title>
<path fill="none" stroke="black" d="M92.25,-619.7C92.25,-612.41 92.25,-603.73 92.25,-595.54"/>
<polygon fill="black" stroke="black" points="95.75,-595.62 92.25,-585.62 88.75,-595.62 95.75,-595.62"/>
</g>
<!-- timemory -->
<g id="node59" class="node">
<title>timemory</title>
<g id="a_node59"><a xlink:href="https://github.com/conda-forge/timemory-feedstock" xlink:title="timemory">
<ellipse fill="#000000" stroke="black" cx="2804.25" cy="-782" rx="59.63" ry="18"/>
<text text-anchor="middle" x="2804.25" y="-777.33" font-family="Times,serif" font-size="14.00" fill="white">timemory</text>
</a>
</g>
</g>
<!-- ondamonitor&#45;&gt;timemory -->
<!-- libnegf -->
<g id="node57" class="node">
<title>libnegf</title>
<g id="a_node57"><a xlink:href="https://github.com/conda-forge/libnegf-feedstock/pull/17" xlink:title="libnegf ❎">
<ellipse fill="#31688e" stroke="black" cx="217.25" cy="-638" rx="61.2" ry="18"/>
<text text-anchor="middle" x="217.25" y="-633.33" font-family="Times,serif" font-size="14.00" fill="white">libnegf ❎</text>
</a>
</g>
</g>
<!-- libnegf&#45;&gt;dftbplus -->
<g id="edge56" class="edge">
<title>libnegf&#45;&gt;dftbplus</title>
<path fill="none" stroke="black" d="M189.81,-621.64C171.82,-611.56 148.1,-598.28 128.55,-587.33"/>
<polygon fill="black" stroke="black" points="130.51,-584.42 120.08,-582.59 127.09,-590.53 130.51,-584.42"/>
</g>
<!-- mlip -->
<g id="node58" class="node">
<title>mlip</title>
<g id="a_node58"><a xlink:href="https://github.com/conda-forge/mlip-feedstock/pull/9" xlink:title="mlip ❎">
<ellipse fill="#31688e" stroke="black" cx="667.25" cy="-782" rx="48.58" ry="18"/>
<text text-anchor="middle" x="667.25" y="-777.33" font-family="Times,serif" font-size="14.00" fill="white">mlip ❎</text>
</a>
</g>
</g>
<!-- mlip&#45;&gt;lammps -->
<g id="edge57" class="edge">
<title>mlip&#45;&gt;lammps</title>
<path fill="none" stroke="black" d="M667.25,-763.7C667.25,-756.41 667.25,-747.73 667.25,-739.54"/>
<polygon fill="black" stroke="black" points="670.75,-739.62 667.25,-729.62 663.75,-739.62 670.75,-739.62"/>
</g>
<!-- pexsi -->
<g id="node60" class="node">
<title>pexsi</title>
<g id="a_node60"><a xlink:href="https://github.com/conda-forge/pexsi-feedstock/pull/10" xlink:title="pexsi ❎">
<ellipse fill="#31688e" stroke="black" cx="2804.25" cy="-710" rx="52.79" ry="18"/>
<text text-anchor="middle" x="2804.25" y="-705.33" font-family="Times,serif" font-size="14.00" fill="white">pexsi ❎</text>
</a>
</g>
</g>
<!-- timemory&#45;&gt;pexsi -->
<!-- eigenexa -->
<g id="node66" class="node">
<title>eigenexa</title>
<g id="a_node66"><a xlink:href="https://github.com/conda-forge/eigenexa-feedstock/pull/3" xlink:title="eigenexa ❎">
<ellipse fill="#31688e" stroke="black" cx="2804.25" cy="-638" rx="71.2" ry="18"/>
<text text-anchor="middle" x="2804.25" y="-633.33" font-family="Times,serif" font-size="14.00" fill="white">eigenexa ❎</text>
</a>
</g>
</g>
<!-- pexsi&#45;&gt;eigenexa -->
<!-- costa_variants -->
<g id="node61" class="node">
<title>costa_variants</title>
<g id="a_node61"><a xlink:href="https://github.com/conda-forge/costa_variants-feedstock/pull/4" xlink:title="costa_variants ❎">
<ellipse fill="#31688e" stroke="black" cx="1129.25" cy="-566" rx="98.56" ry="18"/>
<text text-anchor="middle" x="1129.25" y="-561.33" font-family="Times,serif" font-size="14.00" fill="white">costa_variants ❎</text>
</a>
</g>
</g>
<!-- costa_variants&#45;&gt;sirius -->
<g id="edge61" class="edge">
<title>costa_variants&#45;&gt;sirius</title>
<path fill="none" stroke="black" d="M1122.33,-547.7C1119.31,-540.15 1115.69,-531.12 1112.32,-522.68"/>
<polygon fill="black" stroke="black" points="1115.61,-521.49 1108.65,-513.51 1109.11,-524.09 1115.61,-521.49"/>
</g>
<!-- elpa -->
<g id="node62" class="node">
<title>elpa</title>
<g id="a_node62"><a xlink:href="https://github.com/conda-forge/elpa-feedstock/pull/26" xlink:title="elpa ❎">
<ellipse fill="#31688e" stroke="black" cx="375.25" cy="-782" rx="47.53" ry="18"/>
<text text-anchor="middle" x="375.25" y="-777.33" font-family="Times,serif" font-size="14.00" fill="white">elpa ❎</text>
</a>
</g>
</g>
<!-- elpa&#45;&gt;siesta -->
<g id="edge62" class="edge">
<title>elpa&#45;&gt;siesta</title>
<path fill="none" stroke="black" d="M375.25,-763.7C375.25,-756.41 375.25,-747.73 375.25,-739.54"/>
<polygon fill="black" stroke="black" points="378.75,-739.62 375.25,-729.62 371.75,-739.62 378.75,-739.62"/>
</g>
<!-- elpa&#45;&gt;gpaw -->
<g id="edge63" class="edge">
<title>elpa&#45;&gt;gpaw</title>
<path fill="none" stroke="black" d="M354.47,-765.56C343.53,-756.09 331.18,-742.93 325.25,-728 319.34,-713.13 317.29,-705.88 325.25,-692 356.75,-637.05 387.97,-639.47 448.25,-620 608.42,-568.27 661.03,-620.92 825.25,-584 827.99,-583.38 830.79,-582.65 833.59,-581.84"/>
<polygon fill="black" stroke="black" points="834.36,-585.27 842.82,-578.89 832.22,-578.6 834.36,-585.27"/>
</g>
<!-- elpa&#45;&gt;qe -->
<g id="edge64" class="edge">
<title>elpa&#45;&gt;qe</title>
<path fill="none" stroke="black" d="M394.76,-765.12C407,-755.15 422.91,-742.21 436.09,-731.48"/>
<polygon fill="black" stroke="black" points="437.98,-734.45 443.53,-725.42 433.56,-729.02 437.98,-734.45"/>
</g>
<!-- elpa&#45;&gt;abacus -->
<g id="edge65" class="edge">
<title>elpa&#45;&gt;abacus</title>
<path fill="none" stroke="black" d="M407.3,-768.32C436.08,-756.94 478.54,-740.15 510.07,-727.68"/>
<polygon fill="black" stroke="black" points="511.31,-730.95 519.32,-724.02 508.74,-724.44 511.31,-730.95"/>
</g>
<!-- elsi -->
<g id="node63" class="node">
<title>elsi</title>
<g id="a_node63"><a xlink:href="https://github.com/conda-forge/elsi-feedstock" xlink:title="elsi">
<ellipse fill="#fde725" stroke="black" cx="92.25" cy="-710" rx="28.59" ry="18"/>
<text text-anchor="middle" x="92.25" y="-705.33" font-family="Times,serif" font-size="14.00">elsi</text>
</a>
</g>
</g>
<!-- elpa&#45;&gt;elsi -->
<g id="edge66" class="edge">
<title>elpa&#45;&gt;elsi</title>
<path fill="none" stroke="black" d="M336.19,-771.34C281.67,-757.85 183.39,-733.54 129.72,-720.27"/>
<polygon fill="black" stroke="black" points="130.68,-716.9 120.13,-717.9 129,-723.7 130.68,-716.9"/>
</g>
<!-- elsi&#45;&gt;dftbplus -->
<g id="edge67" class="edge">
<title>elsi&#45;&gt;dftbplus</title>
<path fill="none" stroke="black" d="M72.8,-696.54C60.05,-687.13 44.46,-672.96 37.25,-656 30.99,-641.28 30.99,-634.72 37.25,-620 42.16,-608.44 50.97,-598.18 60.12,-589.84"/>
<polygon fill="black" stroke="black" points="62.33,-592.55 67.72,-583.42 57.82,-587.2 62.33,-592.55"/>
</g>
<!-- elsi&#45;&gt;libmbd -->
<g id="edge68" class="edge">
<title>elsi&#45;&gt;libmbd</title>
<path fill="none" stroke="black" d="M92.25,-691.7C92.25,-684.41 92.25,-675.73 92.25,-667.54"/>
<polygon fill="black" stroke="black" points="95.75,-667.62 92.25,-657.62 88.75,-667.62 95.75,-667.62"/>
</g>
<!-- libomm -->
<g id="node64" class="node">
<title>libomm</title>
<g id="a_node64"><a xlink:href="https://github.com/conda-forge/libomm-feedstock" xlink:title="libomm">
<ellipse fill="#fde725" stroke="black" cx="54.25" cy="-782" rx="48.58" ry="18"/>
<text text-anchor="middle" x="54.25" y="-777.33" font-family="Times,serif" font-size="14.00">libomm</text>
</a>
</g>
</g>
<!-- libomm&#45;&gt;elsi -->
<g id="edge69" class="edge">
<title>libomm&#45;&gt;elsi</title>
<path fill="none" stroke="black" d="M63.45,-764.05C67.8,-756.03 73.11,-746.26 77.97,-737.3"/>
<polygon fill="black" stroke="black" points="80.98,-739.1 82.67,-728.64 74.82,-735.76 80.98,-739.1"/>
</g>
<!-- matrixswitch -->
<g id="node65" class="node">
<title>matrixswitch</title>
<g id="a_node65"><a xlink:href="https://github.com/conda-forge/matrixswitch-feedstock/pull/7" xlink:title="matrixswitch ❎">
<ellipse fill="#31688e" stroke="black" cx="92.25" cy="-854" rx="92.25" ry="18"/>
<text text-anchor="middle" x="92.25" y="-849.33" font-family="Times,serif" font-size="14.00" fill="white">matrixswitch ❎</text>
</a>
</g>
</g>
<!-- matrixswitch&#45;&gt;elsi -->
<g id="edge70" class="edge">
<title>matrixswitch&#45;&gt;elsi</title>
<path fill="none" stroke="black" d="M100.55,-835.79C104.99,-825.63 109.99,-812.38 112.25,-800 115.12,-784.26 115.12,-779.74 112.25,-764 110.67,-755.35 107.76,-746.28 104.63,-738.14"/>
<polygon fill="black" stroke="black" points="107.97,-737.05 100.92,-729.14 101.49,-739.72 107.97,-737.05"/>
</g>
<!-- matrixswitch&#45;&gt;libomm -->
<g id="edge71" class="edge">
<title>matrixswitch&#45;&gt;libomm</title>
<path fill="none" stroke="black" d="M82.85,-835.7C78.67,-827.98 73.63,-818.71 68.96,-810.11"/>
<polygon fill="black" stroke="black" points="72.1,-808.55 64.25,-801.43 65.95,-811.89 72.1,-808.55"/>
</g>
<!-- edrixs -->
<g id="node67" class="node">
<title>edrixs</title>
<g id="a_node67"><a xlink:href="https://github.com/conda-forge/edrixs-feedstock/pull/14" xlink:title="edrixs ❎">
<ellipse fill="#31688e" stroke="black" cx="2804.25" cy="-566" rx="57.52" ry="18"/>
<text text-anchor="middle" x="2804.25" y="-561.33" font-family="Times,serif" font-size="14.00" fill="white">edrixs ❎</text>
</a>
</g>
</g>
<!-- eigenexa&#45;&gt;edrixs -->
<!-- bigdft&#45;suite -->
<g id="node68" class="node">
<title>bigdft&#45;suite</title>
<g id="a_node68"><a xlink:href="https://github.com/conda-forge/bigdft-suite-feedstock" xlink:title="bigdft suite">
<ellipse fill="#35b779" stroke="black" cx="2804.25" cy="-494" rx="69.1" ry="18"/>
<text text-anchor="middle" x="2804.25" y="-489.32" font-family="Times,serif" font-size="14.00">bigdft suite</text>
</a>
</g>
</g>
<!-- edrixs&#45;&gt;bigdft&#45;suite -->
<!-- heat -->
<g id="node69" class="node">
<title>heat</title>
<g id="a_node69"><a xlink:href="https://github.com/conda-forge/heat-feedstock" xlink:title="heat">
<ellipse fill="#35b779" stroke="black" cx="2804.25" cy="-422" rx="33.32" ry="18"/>
<text text-anchor="middle" x="2804.25" y="-417.32" font-family="Times,serif" font-size="14.00">heat</text>
</a>
</g>
</g>
<!-- bigdft&#45;suite&#45;&gt;heat -->
<!-- reef3d -->
<g id="node70" class="node">
<title>reef3d</title>
<g id="a_node70"><a xlink:href="https://github.com/conda-forge/reef3d-feedstock/pull/11" xlink:title="reef3d ✓">
<ellipse fill="#31688e" stroke="black" cx="2804.25" cy="-350" rx="51.74" ry="18"/>
<text text-anchor="middle" x="2804.25" y="-345.32" font-family="Times,serif" font-size="14.00" fill="white">reef3d ✓</text>
</a>
</g>
</g>
<!-- heat&#45;&gt;reef3d -->
<!-- eatpy -->
<g id="node71" class="node">
<title>eatpy</title>
<g id="a_node71"><a xlink:href="https://github.com/conda-forge/eatpy-feedstock" xlink:title="eatpy">
<ellipse fill="#35b779" stroke="black" cx="2804.25" cy="-278" rx="39.11" ry="18"/>
<text text-anchor="middle" x="2804.25" y="-273.32" font-family="Times,serif" font-size="14.00">eatpy</text>
</a>
</g>
</g>
<!-- reef3d&#45;&gt;eatpy -->
</g>
</svg>
