<?xml version="1.0" encoding="UTF-8" standalone="no"?>
<!DOCTYPE svg PUBLIC "-//W3C//DTD SVG 1.1//EN"
 "http://www.w3.org/Graphics/SVG/1.1/DTD/svg11.dtd">
<!-- Generated by graphviz version 11.0.0 (20240519.1550)
 -->
<!-- Pages: 1 -->
<svg width="2046pt" height="1788pt"
 viewBox="0.00 0.00 2046.14 1788.00" xmlns="http://www.w3.org/2000/svg" xmlns:xlink="http://www.w3.org/1999/xlink">
<g id="graph0" class="graph" transform="scale(1 1) rotate(0) translate(4 1784)">
<polygon fill="white" stroke="none" points="-4,4 -4,-1784 2042.14,-1784 2042.14,4 -4,4"/>
<!-- casacore -->
<g id="node1" class="node">
<title>casacore</title>
<g id="a_node1"><a xlink:href="https://github.com/conda-forge/casacore-feedstock" xlink:title="casacore">
<ellipse fill="#fde725" stroke="black" cx="1064.36" cy="-1294" rx="54.89" ry="18"/>
<text text-anchor="middle" x="1064.36" y="-1289.33" font-family="Times,serif" font-size="14.00">casacore</text>
</a>
</g>
</g>
<!-- esmf -->
<g id="node2" class="node">
<title>esmf</title>
<g id="a_node2"><a xlink:href="https://github.com/conda-forge/esmf-feedstock/pull/116" xlink:title="esmf ❎">
<ellipse fill="#31688e" stroke="black" cx="448.36" cy="-998" rx="50.68" ry="18"/>
<text text-anchor="middle" x="448.36" y="-993.33" font-family="Times,serif" font-size="14.00" fill="white">esmf ❎</text>
</a>
</g>
</g>
<!-- netcdf&#45;cxx4 -->
<g id="node3" class="node">
<title>netcdf&#45;cxx4</title>
<g id="a_node3"><a xlink:href="https://github.com/conda-forge/netcdf-cxx4-feedstock/pull/48" xlink:title="netcdf cxx4 ❎">
<ellipse fill="#31688e" stroke="black" cx="448.36" cy="-926" rx="84.35" ry="18"/>
<text text-anchor="middle" x="448.36" y="-921.33" font-family="Times,serif" font-size="14.00" fill="white">netcdf cxx4 ❎</text>
</a>
</g>
</g>
<!-- esmf&#45;&gt;netcdf&#45;cxx4 -->
<!-- libmed -->
<g id="node29" class="node">
<title>libmed</title>
<g id="a_node29"><a xlink:href="https://github.com/conda-forge/libmed-feedstock/pull/61" xlink:title="libmed ❎">
<ellipse fill="#31688e" stroke="black" cx="448.36" cy="-854" rx="60.68" ry="18"/>
<text text-anchor="middle" x="448.36" y="-849.33" font-family="Times,serif" font-size="14.00" fill="white">libmed ❎</text>
</a>
</g>
</g>
<!-- netcdf&#45;cxx4&#45;&gt;libmed -->
<!-- fenics -->
<g id="node4" class="node">
<title>fenics</title>
<g id="a_node4"><a xlink:href="https://github.com/conda-forge/fenics-feedstock" xlink:title="fenics">
<ellipse fill="#fde725" stroke="black" cx="1342.36" cy="-1294" rx="40.69" ry="18"/>
<text text-anchor="middle" x="1342.36" y="-1289.33" font-family="Times,serif" font-size="14.00">fenics</text>
</a>
</g>
</g>
<!-- mshr -->
<g id="node5" class="node">
<title>mshr</title>
<g id="a_node5"><a xlink:href="https://github.com/conda-forge/mshr-feedstock" xlink:title="mshr">
<ellipse fill="#fde725" stroke="black" cx="1342.36" cy="-1222" rx="37" ry="18"/>
<text text-anchor="middle" x="1342.36" y="-1217.33" font-family="Times,serif" font-size="14.00">mshr</text>
</a>
</g>
</g>
<!-- fenics&#45;&gt;mshr -->
<g id="edge2" class="edge">
<title>fenics&#45;&gt;mshr</title>
<path fill="none" stroke="black" d="M1342.36,-1275.7C1342.36,-1268.41 1342.36,-1259.73 1342.36,-1251.54"/>
<polygon fill="black" stroke="black" points="1345.86,-1251.62 1342.36,-1241.62 1338.86,-1251.62 1345.86,-1251.62"/>
</g>
<!-- h5py -->
<g id="node6" class="node">
<title>h5py</title>
<g id="a_node6"><a xlink:href="https://github.com/conda-forge/h5py-feedstock/pull/141" xlink:title="h5py ❎">
<ellipse fill="#31688e" stroke="black" cx="517.36" cy="-1546" rx="51.21" ry="18"/>
<text text-anchor="middle" x="517.36" y="-1541.33" font-family="Times,serif" font-size="14.00" fill="white">h5py ❎</text>
</a>
</g>
</g>
<!-- openmc -->
<g id="node7" class="node">
<title>openmc</title>
<g id="a_node7"><a xlink:href="https://github.com/conda-forge/openmc-feedstock" xlink:title="openmc">
<ellipse fill="#fde725" stroke="black" cx="838.36" cy="-1474" rx="50.16" ry="18"/>
<text text-anchor="middle" x="838.36" y="-1469.33" font-family="Times,serif" font-size="14.00">openmc</text>
</a>
</g>
</g>
<!-- h5py&#45;&gt;openmc -->
<g id="edge3" class="edge">
<title>h5py&#45;&gt;openmc</title>
<path fill="none" stroke="black" d="M561.35,-1536.32C611.91,-1526.22 697.32,-1508.77 770.36,-1492 775.93,-1490.72 781.74,-1489.34 787.51,-1487.94"/>
<polygon fill="black" stroke="black" points="788.17,-1491.38 797.04,-1485.6 786.49,-1484.58 788.17,-1491.38"/>
</g>
<!-- lalinference -->
<g id="node8" class="node">
<title>lalinference</title>
<g id="a_node8"><a xlink:href="https://github.com/conda-forge/lalinference-feedstock" xlink:title="lalinference">
<ellipse fill="#fde725" stroke="black" cx="339.36" cy="-1474" rx="70.15" ry="18"/>
<text text-anchor="middle" x="339.36" y="-1469.33" font-family="Times,serif" font-size="14.00">lalinference</text>
</a>
</g>
</g>
<!-- h5py&#45;&gt;lalinference -->
<g id="edge4" class="edge">
<title>h5py&#45;&gt;lalinference</title>
<path fill="none" stroke="black" d="M484.3,-1532C456.96,-1521.25 417.77,-1505.84 387.04,-1493.75"/>
<polygon fill="black" stroke="black" points="388.55,-1490.58 377.96,-1490.18 385.99,-1497.1 388.55,-1490.58"/>
</g>
<!-- lfpy -->
<g id="node9" class="node">
<title>lfpy</title>
<g id="a_node9"><a xlink:href="https://github.com/conda-forge/lfpy-feedstock" xlink:title="lfpy">
<ellipse fill="#fde725" stroke="black" cx="731.36" cy="-1474" rx="30.16" ry="18"/>
<text text-anchor="middle" x="731.36" y="-1469.33" font-family="Times,serif" font-size="14.00">lfpy</text>
</a>
</g>
</g>
<!-- h5py&#45;&gt;lfpy -->
<g id="edge5" class="edge">
<title>h5py&#45;&gt;lfpy</title>
<path fill="none" stroke="black" d="M555.75,-1533.83C590.36,-1523.56 642.55,-1507.62 687.36,-1492 690.23,-1491 693.2,-1489.93 696.17,-1488.83"/>
<polygon fill="black" stroke="black" points="697.26,-1492.16 705.38,-1485.36 694.79,-1485.61 697.26,-1492.16"/>
</g>
<!-- deepmd&#45;kit -->
<g id="node10" class="node">
<title>deepmd&#45;kit</title>
<g id="a_node10"><a xlink:href="https://github.com/conda-forge/deepmd-kit-feedstock" xlink:title="deepmd kit">
<ellipse fill="#fde725" stroke="black" cx="237.36" cy="-1402" rx="67.52" ry="18"/>
<text text-anchor="middle" x="237.36" y="-1397.33" font-family="Times,serif" font-size="14.00">deepmd kit</text>
</a>
</g>
</g>
<!-- h5py&#45;&gt;deepmd&#45;kit -->
<g id="edge6" class="edge">
<title>h5py&#45;&gt;deepmd&#45;kit</title>
<path fill="none" stroke="black" d="M467.67,-1540.94C401.56,-1534.53 289.61,-1519.83 260.36,-1492 244.18,-1476.6 238.82,-1451.44 237.28,-1431.79"/>
<polygon fill="black" stroke="black" points="240.78,-1431.75 236.82,-1421.92 233.79,-1432.07 240.78,-1431.75"/>
</g>
<!-- dedalus -->
<g id="node11" class="node">
<title>dedalus</title>
<g id="a_node11"><a xlink:href="https://github.com/conda-forge/dedalus-feedstock" xlink:title="dedalus">
<ellipse fill="#fde725" stroke="black" cx="713.36" cy="-1330" rx="50.16" ry="18"/>
<text text-anchor="middle" x="713.36" y="-1325.33" font-family="Times,serif" font-size="14.00">dedalus</text>
</a>
</g>
</g>
<!-- h5py&#45;&gt;dedalus -->
<g id="edge7" class="edge">
<title>h5py&#45;&gt;dedalus</title>
<path fill="none" stroke="black" d="M561.55,-1536.66C589.88,-1529.26 625.65,-1515.79 649.36,-1492 686.18,-1455.06 702.48,-1394.29 709.17,-1358.93"/>
<polygon fill="black" stroke="black" points="712.55,-1359.93 710.82,-1349.47 705.65,-1358.72 712.55,-1359.93"/>
</g>
<!-- ondamonitor -->
<g id="node12" class="node">
<title>ondamonitor</title>
<g id="a_node12"><a xlink:href="https://github.com/conda-forge/ondamonitor-feedstock" xlink:title="ondamonitor">
<ellipse fill="#fde725" stroke="black" cx="700.36" cy="-1258" rx="74.88" ry="18"/>
<text text-anchor="middle" x="700.36" y="-1253.33" font-family="Times,serif" font-size="14.00">ondamonitor</text>
</a>
</g>
</g>
<!-- h5py&#45;&gt;ondamonitor -->
<g id="edge8" class="edge">
<title>h5py&#45;&gt;ondamonitor</title>
<path fill="none" stroke="black" d="M553.53,-1532.86C573.43,-1524.4 596.93,-1511.15 611.36,-1492 660.87,-1426.32 616.77,-1385.16 654.36,-1312 659.57,-1301.87 667.11,-1292.06 674.58,-1283.7"/>
<polygon fill="black" stroke="black" points="676.91,-1286.34 681.21,-1276.66 671.81,-1281.54 676.91,-1286.34"/>
</g>
<!-- alamode -->
<g id="node13" class="node">
<title>alamode</title>
<g id="a_node13"><a xlink:href="https://github.com/conda-forge/alamode-feedstock" xlink:title="alamode">
<ellipse fill="#fde725" stroke="black" cx="597.36" cy="-1186" rx="53.31" ry="18"/>
<text text-anchor="middle" x="597.36" y="-1181.33" font-family="Times,serif" font-size="14.00">alamode</text>
</a>
</g>
</g>
<!-- h5py&#45;&gt;alamode -->
<g id="edge9" class="edge">
<title>h5py&#45;&gt;alamode</title>
<path fill="none" stroke="black" d="M541.32,-1529.88C554.23,-1520.51 569.31,-1507.35 578.36,-1492 598.91,-1457.16 597.36,-1443.45 597.36,-1403 597.36,-1403 597.36,-1403 597.36,-1329 597.36,-1289.74 597.36,-1244.38 597.36,-1215.69"/>
<polygon fill="black" stroke="black" points="600.86,-1216 597.36,-1206 593.86,-1216 600.86,-1216"/>
</g>
<!-- veloxchem -->
<g id="node14" class="node">
<title>veloxchem</title>
<g id="a_node14"><a xlink:href="https://github.com/conda-forge/veloxchem-feedstock" xlink:title="veloxchem">
<ellipse fill="#fde725" stroke="black" cx="64.36" cy="-1474" rx="64.36" ry="18"/>
<text text-anchor="middle" x="64.36" y="-1469.33" font-family="Times,serif" font-size="14.00">veloxchem</text>
</a>
</g>
</g>
<!-- h5py&#45;&gt;veloxchem -->
<g id="edge10" class="edge">
<title>h5py&#45;&gt;veloxchem</title>
<path fill="none" stroke="black" d="M468.98,-1539.6C396.73,-1531.23 256.46,-1513.78 138.36,-1492 133.2,-1491.05 127.86,-1489.98 122.52,-1488.86"/>
<polygon fill="black" stroke="black" points="123.6,-1485.51 113.08,-1486.82 122.12,-1492.35 123.6,-1485.51"/>
</g>
<!-- heat -->
<g id="node15" class="node">
<title>heat</title>
<g id="a_node15"><a xlink:href="https://github.com/conda-forge/heat-feedstock" xlink:title="heat">
<ellipse fill="#fde725" stroke="black" cx="180.36" cy="-1474" rx="33.32" ry="18"/>
<text text-anchor="middle" x="180.36" y="-1469.33" font-family="Times,serif" font-size="14.00">heat</text>
</a>
</g>
</g>
<!-- h5py&#45;&gt;heat -->
<g id="edge11" class="edge">
<title>h5py&#45;&gt;heat</title>
<path fill="none" stroke="black" d="M469.86,-1538.8C411.97,-1530.67 311.48,-1514.73 227.36,-1492 224.03,-1491.1 220.61,-1490.07 217.19,-1488.97"/>
<polygon fill="black" stroke="black" points="218.49,-1485.72 207.9,-1485.8 216.23,-1492.34 218.49,-1485.72"/>
</g>
<!-- horovod -->
<g id="node16" class="node">
<title>horovod</title>
<g id="a_node16"><a xlink:href="https://github.com/conda-forge/horovod-feedstock" xlink:title="horovod">
<ellipse fill="#fde725" stroke="black" cx="517.36" cy="-1474" rx="51.74" ry="18"/>
<text text-anchor="middle" x="517.36" y="-1469.33" font-family="Times,serif" font-size="14.00">horovod</text>
</a>
</g>
</g>
<!-- h5py&#45;&gt;horovod -->
<g id="edge12" class="edge">
<title>h5py&#45;&gt;horovod</title>
<path fill="none" stroke="black" d="M517.36,-1527.7C517.36,-1520.41 517.36,-1511.73 517.36,-1503.54"/>
<polygon fill="black" stroke="black" points="520.86,-1503.62 517.36,-1493.62 513.86,-1503.62 520.86,-1503.62"/>
</g>
<!-- fluidfft&#45;mpi_with_fftw -->
<g id="node17" class="node">
<title>fluidfft&#45;mpi_with_fftw</title>
<g id="a_node17"><a xlink:href="https://github.com/conda-forge/fluidfft-mpi_with_fftw-feedstock" xlink:title="fluidfft mpi_with_fftw">
<ellipse fill="#fde725" stroke="black" cx="440.36" cy="-1402" rx="117.5" ry="18"/>
<text text-anchor="middle" x="440.36" y="-1397.33" font-family="Times,serif" font-size="14.00">fluidfft mpi_with_fftw</text>
</a>
</g>
</g>
<!-- h5py&#45;&gt;fluidfft&#45;mpi_with_fftw -->
<g id="edge13" class="edge">
<title>h5py&#45;&gt;fluidfft&#45;mpi_with_fftw</title>
<path fill="none" stroke="black" d="M492.9,-1529.77C480.01,-1520.45 465.09,-1507.37 456.36,-1492 445.91,-1473.61 442.03,-1449.93 440.7,-1431.62"/>
<polygon fill="black" stroke="black" points="444.2,-1431.53 440.21,-1421.72 437.21,-1431.88 444.2,-1431.53"/>
</g>
<!-- moab -->
<g id="node18" class="node">
<title>moab</title>
<g id="a_node18"><a xlink:href="https://github.com/conda-forge/moab-feedstock/pull/94" xlink:title="moab ❎">
<ellipse fill="#31688e" stroke="black" cx="843.36" cy="-1618" rx="53.84" ry="18"/>
<text text-anchor="middle" x="843.36" y="-1613.33" font-family="Times,serif" font-size="14.00" fill="white">moab ❎</text>
</a>
</g>
</g>
<!-- dagmc -->
<g id="node19" class="node">
<title>dagmc</title>
<g id="a_node19"><a xlink:href="https://github.com/conda-forge/dagmc-feedstock" xlink:title="dagmc">
<ellipse fill="#fde725" stroke="black" cx="843.36" cy="-1546" rx="44.37" ry="18"/>
<text text-anchor="middle" x="843.36" y="-1541.33" font-family="Times,serif" font-size="14.00">dagmc</text>
</a>
</g>
</g>
<!-- moab&#45;&gt;dagmc -->
<g id="edge14" class="edge">
<title>moab&#45;&gt;dagmc</title>
<path fill="none" stroke="black" d="M843.36,-1599.7C843.36,-1592.41 843.36,-1583.73 843.36,-1575.54"/>
<polygon fill="black" stroke="black" points="846.86,-1575.62 843.36,-1565.62 839.86,-1575.62 846.86,-1575.62"/>
</g>
<!-- dagmc&#45;&gt;openmc -->
<g id="edge15" class="edge">
<title>dagmc&#45;&gt;openmc</title>
<path fill="none" stroke="black" d="M842.12,-1527.7C841.6,-1520.41 840.98,-1511.73 840.4,-1503.54"/>
<polygon fill="black" stroke="black" points="843.89,-1503.34 839.69,-1493.61 836.91,-1503.84 843.89,-1503.34"/>
</g>
<!-- mumps -->
<g id="node20" class="node">
<title>mumps</title>
<g id="a_node20"><a xlink:href="https://github.com/conda-forge/mumps-feedstock/pull/116" xlink:title="mumps ✓">
<ellipse fill="#31688e" stroke="black" cx="1065.36" cy="-1582" rx="55.94" ry="18"/>
<text text-anchor="middle" x="1065.36" y="-1577.33" font-family="Times,serif" font-size="14.00" fill="white">mumps ✓</text>
</a>
</g>
</g>
<!-- petsc -->
<g id="node21" class="node">
<title>petsc</title>
<g id="a_node21"><a xlink:href="https://github.com/conda-forge/petsc-feedstock" xlink:title="petsc">
<ellipse fill="#fde725" stroke="black" cx="1303.36" cy="-1510" rx="38.06" ry="18"/>
<text text-anchor="middle" x="1303.36" y="-1505.33" font-family="Times,serif" font-size="14.00">petsc</text>
</a>
</g>
</g>
<!-- mumps&#45;&gt;petsc -->
<g id="edge16" class="edge">
<title>mumps&#45;&gt;petsc</title>
<path fill="none" stroke="black" d="M1105.73,-1569.13C1148.8,-1556.46 1216.74,-1536.48 1260.67,-1523.56"/>
<polygon fill="black" stroke="black" points="1261.51,-1526.96 1270.11,-1520.78 1259.53,-1520.24 1261.51,-1526.96"/>
</g>
<!-- daetk -->
<g id="node22" class="node">
<title>daetk</title>
<g id="a_node22"><a xlink:href="https://github.com/conda-forge/daetk-feedstock" xlink:title="daetk">
<ellipse fill="#fde725" stroke="black" cx="1065.36" cy="-1438" rx="39.11" ry="18"/>
<text text-anchor="middle" x="1065.36" y="-1433.33" font-family="Times,serif" font-size="14.00">daetk</text>
</a>
</g>
</g>
<!-- mumps&#45;&gt;daetk -->
<g id="edge17" class="edge">
<title>mumps&#45;&gt;daetk</title>
<path fill="none" stroke="black" d="M1065.36,-1563.59C1065.36,-1539.61 1065.36,-1496.14 1065.36,-1467.42"/>
<polygon fill="black" stroke="black" points="1068.86,-1467.62 1065.36,-1457.62 1061.86,-1467.62 1068.86,-1467.62"/>
</g>
<!-- freefem -->
<g id="node23" class="node">
<title>freefem</title>
<g id="a_node23"><a xlink:href="https://github.com/conda-forge/freefem-feedstock" xlink:title="freefem">
<ellipse fill="#fde725" stroke="black" cx="1187.36" cy="-1366" rx="50.16" ry="18"/>
<text text-anchor="middle" x="1187.36" y="-1361.33" font-family="Times,serif" font-size="14.00">freefem</text>
</a>
</g>
</g>
<!-- mumps&#45;&gt;freefem -->
<g id="edge18" class="edge">
<title>mumps&#45;&gt;freefem</title>
<path fill="none" stroke="black" d="M1051.64,-1564.3C1027.77,-1533.12 984.17,-1465.11 1017.36,-1420 1031.18,-1401.22 1087.75,-1386.16 1131.89,-1376.97"/>
<polygon fill="black" stroke="black" points="1132.5,-1380.42 1141.61,-1375 1131.12,-1373.56 1132.5,-1380.42"/>
</g>
<!-- petsc&#45;&gt;fenics -->
<g id="edge19" class="edge">
<title>petsc&#45;&gt;fenics</title>
<path fill="none" stroke="black" d="M1273.67,-1498.23C1211.56,-1474.1 1077.73,-1412.7 1128.36,-1348 1148.28,-1322.55 1235.03,-1307.61 1291.78,-1300.4"/>
<polygon fill="black" stroke="black" points="1292.05,-1303.89 1301.55,-1299.2 1291.2,-1296.94 1292.05,-1303.89"/>
</g>
<!-- petsc&#45;&gt;daetk -->
<g id="edge20" class="edge">
<title>petsc&#45;&gt;daetk</title>
<path fill="none" stroke="black" d="M1271.19,-1500.11C1234.21,-1489.82 1171.75,-1472.21 1118.36,-1456 1114.85,-1454.93 1111.21,-1453.81 1107.56,-1452.67"/>
<polygon fill="black" stroke="black" points="1108.73,-1449.37 1098.14,-1449.69 1106.62,-1456.04 1108.73,-1449.37"/>
</g>
<!-- petsc&#45;&gt;freefem -->
<g id="edge21" class="edge">
<title>petsc&#45;&gt;freefem</title>
<path fill="none" stroke="black" d="M1289.06,-1492.94C1279.88,-1482.52 1267.76,-1468.58 1257.36,-1456 1239.87,-1434.84 1220.63,-1410.28 1206.76,-1392.33"/>
<polygon fill="black" stroke="black" points="1209.83,-1390.58 1200.95,-1384.79 1204.28,-1394.85 1209.83,-1390.58"/>
</g>
<!-- petsc4py -->
<g id="node24" class="node">
<title>petsc4py</title>
<g id="a_node24"><a xlink:href="https://github.com/conda-forge/petsc4py-feedstock" xlink:title="petsc4py">
<ellipse fill="#fde725" stroke="black" cx="1493.36" cy="-1438" rx="56.47" ry="18"/>
<text text-anchor="middle" x="1493.36" y="-1433.33" font-family="Times,serif" font-size="14.00">petsc4py</text>
</a>
</g>
</g>
<!-- petsc&#45;&gt;petsc4py -->
<g id="edge22" class="edge">
<title>petsc&#45;&gt;petsc4py</title>
<path fill="none" stroke="black" d="M1332.63,-1498.22C1363.1,-1486.99 1411.27,-1469.24 1446.94,-1456.1"/>
<polygon fill="black" stroke="black" points="1447.98,-1459.45 1456.15,-1452.71 1445.56,-1452.88 1447.98,-1459.45"/>
</g>
<!-- slepc -->
<g id="node25" class="node">
<title>slepc</title>
<g id="a_node25"><a xlink:href="https://github.com/conda-forge/slepc-feedstock" xlink:title="slepc">
<ellipse fill="#fde725" stroke="black" cx="1303.36" cy="-1438" rx="37" ry="18"/>
<text text-anchor="middle" x="1303.36" y="-1433.33" font-family="Times,serif" font-size="14.00">slepc</text>
</a>
</g>
</g>
<!-- petsc&#45;&gt;slepc -->
<g id="edge23" class="edge">
<title>petsc&#45;&gt;slepc</title>
<path fill="none" stroke="black" d="M1303.36,-1491.7C1303.36,-1484.41 1303.36,-1475.73 1303.36,-1467.54"/>
<polygon fill="black" stroke="black" points="1306.86,-1467.62 1303.36,-1457.62 1299.86,-1467.62 1306.86,-1467.62"/>
</g>
<!-- yambo -->
<g id="node26" class="node">
<title>yambo</title>
<g id="a_node26"><a xlink:href="https://github.com/conda-forge/yambo-feedstock" xlink:title="yambo">
<ellipse fill="#fde725" stroke="black" cx="1375.36" cy="-1366" rx="44.37" ry="18"/>
<text text-anchor="middle" x="1375.36" y="-1361.33" font-family="Times,serif" font-size="14.00">yambo</text>
</a>
</g>
</g>
<!-- petsc&#45;&gt;yambo -->
<g id="edge24" class="edge">
<title>petsc&#45;&gt;yambo</title>
<path fill="none" stroke="black" d="M1319.86,-1493.68C1329.67,-1483.77 1341.66,-1470.12 1349.36,-1456 1359.68,-1437.08 1366.32,-1413.61 1370.3,-1395.52"/>
<polygon fill="black" stroke="black" points="1373.73,-1396.22 1372.3,-1385.73 1366.87,-1394.83 1373.73,-1396.22"/>
</g>
<!-- fenics&#45;dolfinx -->
<g id="node27" class="node">
<title>fenics&#45;dolfinx</title>
<g id="a_node27"><a xlink:href="https://github.com/conda-forge/fenics-dolfinx-feedstock" xlink:title="fenics dolfinx">
<ellipse fill="#fde725" stroke="black" cx="1556.36" cy="-1294" rx="77.52" ry="18"/>
<text text-anchor="middle" x="1556.36" y="-1289.33" font-family="Times,serif" font-size="14.00">fenics dolfinx</text>
</a>
</g>
</g>
<!-- petsc&#45;&gt;fenics&#45;dolfinx -->
<g id="edge25" class="edge">
<title>petsc&#45;&gt;fenics&#45;dolfinx</title>
<path fill="none" stroke="black" d="M1341.59,-1509.42C1394.47,-1508.25 1491.01,-1499.66 1558.36,-1456 1603.06,-1427.02 1630.98,-1397.12 1610.36,-1348 1605.75,-1337.01 1597.62,-1327.15 1589.05,-1319"/>
<polygon fill="black" stroke="black" points="1591.4,-1316.41 1581.58,-1312.44 1586.78,-1321.67 1591.4,-1316.41"/>
</g>
<!-- dolfinx_mpc -->
<g id="node28" class="node">
<title>dolfinx_mpc</title>
<g id="a_node28"><a xlink:href="https://github.com/conda-forge/dolfinx_mpc-feedstock" xlink:title="dolfinx_mpc">
<ellipse fill="#fde725" stroke="black" cx="1635.36" cy="-1222" rx="70.68" ry="18"/>
<text text-anchor="middle" x="1635.36" y="-1217.33" font-family="Times,serif" font-size="14.00">dolfinx_mpc</text>
</a>
</g>
</g>
<!-- petsc&#45;&gt;dolfinx_mpc -->
<g id="edge26" class="edge">
<title>petsc&#45;&gt;dolfinx_mpc</title>
<path fill="none" stroke="black" d="M1341.1,-1506.35C1410.38,-1500.82 1554.35,-1485.98 1593.36,-1456 1655.52,-1408.24 1648.37,-1302.33 1640.69,-1251.42"/>
<polygon fill="black" stroke="black" points="1644.18,-1251.08 1639.11,-1241.78 1637.27,-1252.22 1644.18,-1251.08"/>
</g>
<!-- petsc4py&#45;&gt;fenics -->
<g id="edge30" class="edge">
<title>petsc4py&#45;&gt;fenics</title>
<path fill="none" stroke="black" d="M1483.76,-1420.07C1472.34,-1400.96 1451.82,-1369.69 1428.36,-1348 1413.64,-1334.39 1394.93,-1322.37 1378.72,-1313.24"/>
<polygon fill="black" stroke="black" points="1380.79,-1310.38 1370.33,-1308.65 1377.43,-1316.52 1380.79,-1310.38"/>
</g>
<!-- petsc4py&#45;&gt;fenics&#45;dolfinx -->
<g id="edge31" class="edge">
<title>petsc4py&#45;&gt;fenics&#45;dolfinx</title>
<path fill="none" stroke="black" d="M1536.35,-1425.92C1557.76,-1418 1581.71,-1404.93 1594.36,-1384 1606.57,-1363.8 1593.93,-1338.96 1580.04,-1320.66"/>
<polygon fill="black" stroke="black" points="1582.77,-1318.47 1573.74,-1312.92 1577.34,-1322.89 1582.77,-1318.47"/>
</g>
<!-- slepc4py -->
<g id="node32" class="node">
<title>slepc4py</title>
<g id="a_node32"><a xlink:href="https://github.com/conda-forge/slepc4py-feedstock" xlink:title="slepc4py">
<ellipse fill="#fde725" stroke="black" cx="1530.36" cy="-1366" rx="55.42" ry="18"/>
<text text-anchor="middle" x="1530.36" y="-1361.33" font-family="Times,serif" font-size="14.00">slepc4py</text>
</a>
</g>
</g>
<!-- petsc4py&#45;&gt;slepc4py -->
<g id="edge32" class="edge">
<title>petsc4py&#45;&gt;slepc4py</title>
<path fill="none" stroke="black" d="M1502.32,-1420.05C1506.5,-1412.14 1511.58,-1402.54 1516.25,-1393.69"/>
<polygon fill="black" stroke="black" points="1519.2,-1395.6 1520.78,-1385.13 1513.01,-1392.33 1519.2,-1395.6"/>
</g>
<!-- slepc&#45;&gt;fenics -->
<g id="edge33" class="edge">
<title>slepc&#45;&gt;fenics</title>
<path fill="none" stroke="black" d="M1295.43,-1419.96C1288.05,-1401.56 1279.54,-1371.7 1289.36,-1348 1294.23,-1336.25 1303.11,-1325.74 1312.22,-1317.25"/>
<polygon fill="black" stroke="black" points="1314.49,-1319.91 1319.77,-1310.73 1309.91,-1314.62 1314.49,-1319.91"/>
</g>
<!-- slepc&#45;&gt;freefem -->
<g id="edge34" class="edge">
<title>slepc&#45;&gt;freefem</title>
<path fill="none" stroke="black" d="M1280.72,-1423.34C1264.06,-1413.29 1241.12,-1399.44 1222.14,-1387.99"/>
<polygon fill="black" stroke="black" points="1224.02,-1385.04 1213.65,-1382.87 1220.41,-1391.03 1224.02,-1385.04"/>
</g>
<!-- slepc&#45;&gt;yambo -->
<g id="edge35" class="edge">
<title>slepc&#45;&gt;yambo</title>
<path fill="none" stroke="black" d="M1319.34,-1421.46C1328.62,-1412.44 1340.51,-1400.88 1350.95,-1390.73"/>
<polygon fill="black" stroke="black" points="1353.11,-1393.51 1357.84,-1384.03 1348.23,-1388.49 1353.11,-1393.51"/>
</g>
<!-- slepc&#45;&gt;fenics&#45;dolfinx -->
<g id="edge36" class="edge">
<title>slepc&#45;&gt;fenics&#45;dolfinx</title>
<path fill="none" stroke="black" d="M1301.95,-1419.73C1301.33,-1399.7 1303.6,-1367 1322.36,-1348 1343.74,-1326.35 1416.92,-1312.15 1475.82,-1303.95"/>
<polygon fill="black" stroke="black" points="1476.07,-1307.45 1485.51,-1302.64 1475.13,-1300.51 1476.07,-1307.45"/>
</g>
<!-- slepc&#45;&gt;slepc4py -->
<g id="edge37" class="edge">
<title>slepc&#45;&gt;slepc4py</title>
<path fill="none" stroke="black" d="M1333.98,-1427.56C1371.46,-1416 1435.47,-1396.26 1480.19,-1382.47"/>
<polygon fill="black" stroke="black" points="1481.14,-1385.84 1489.67,-1379.55 1479.08,-1379.15 1481.14,-1385.84"/>
</g>
<!-- fenics&#45;dolfinx&#45;&gt;dolfinx_mpc -->
<g id="edge38" class="edge">
<title>fenics&#45;dolfinx&#45;&gt;dolfinx_mpc</title>
<path fill="none" stroke="black" d="M1575.08,-1276.41C1584.95,-1267.67 1597.23,-1256.79 1608.13,-1247.13"/>
<polygon fill="black" stroke="black" points="1610.2,-1249.97 1615.37,-1240.72 1605.56,-1244.73 1610.2,-1249.97"/>
</g>
<!-- parabem -->
<g id="node33" class="node">
<title>parabem</title>
<g id="a_node33"><a xlink:href="https://github.com/conda-forge/parabem-feedstock/pull/17" xlink:title="parabem ❎">
<ellipse fill="#31688e" stroke="black" cx="448.36" cy="-782" rx="70.68" ry="18"/>
<text text-anchor="middle" x="448.36" y="-777.33" font-family="Times,serif" font-size="14.00" fill="white">parabem ❎</text>
</a>
</g>
</g>
<!-- libmed&#45;&gt;parabem -->
<!-- netcdf4 -->
<g id="node30" class="node">
<title>netcdf4</title>
<g id="a_node30"><a xlink:href="https://github.com/conda-forge/netcdf4-feedstock/pull/163" xlink:title="netcdf4 ❎">
<ellipse fill="#31688e" stroke="black" cx="122.36" cy="-1546" rx="64.36" ry="18"/>
<text text-anchor="middle" x="122.36" y="-1541.33" font-family="Times,serif" font-size="14.00" fill="white">netcdf4 ❎</text>
</a>
</g>
</g>
<!-- netcdf4&#45;&gt;veloxchem -->
<g id="edge28" class="edge">
<title>netcdf4&#45;&gt;veloxchem</title>
<path fill="none" stroke="black" d="M108.32,-1528.05C101.48,-1519.8 93.11,-1509.7 85.52,-1500.54"/>
<polygon fill="black" stroke="black" points="88.31,-1498.42 79.24,-1492.95 82.92,-1502.89 88.31,-1498.42"/>
</g>
<!-- netcdf4&#45;&gt;heat -->
<g id="edge29" class="edge">
<title>netcdf4&#45;&gt;heat</title>
<path fill="none" stroke="black" d="M136.4,-1528.05C143.51,-1519.47 152.28,-1508.89 160.11,-1499.44"/>
<polygon fill="black" stroke="black" points="162.59,-1501.93 166.28,-1491.99 157.2,-1497.46 162.59,-1501.93"/>
</g>
<!-- siesta -->
<g id="node31" class="node">
<title>siesta</title>
<g id="a_node31"><a xlink:href="https://github.com/conda-forge/siesta-feedstock" xlink:title="siesta">
<ellipse fill="#fde725" stroke="black" cx="1399.36" cy="-638" rx="40.69" ry="18"/>
<text text-anchor="middle" x="1399.36" y="-633.33" font-family="Times,serif" font-size="14.00">siesta</text>
</a>
</g>
</g>
<!-- slepc4py&#45;&gt;fenics -->
<g id="edge39" class="edge">
<title>slepc4py&#45;&gt;fenics</title>
<path fill="none" stroke="black" d="M1495,-1351.83C1463.37,-1340.06 1416.99,-1322.79 1383.66,-1310.38"/>
<polygon fill="black" stroke="black" points="1384.91,-1307.11 1374.32,-1306.9 1382.47,-1313.67 1384.91,-1307.11"/>
</g>
<!-- slepc4py&#45;&gt;fenics&#45;dolfinx -->
<g id="edge40" class="edge">
<title>slepc4py&#45;&gt;fenics&#45;dolfinx</title>
<path fill="none" stroke="black" d="M1536.79,-1347.7C1539.59,-1340.15 1542.95,-1331.12 1546.08,-1322.68"/>
<polygon fill="black" stroke="black" points="1549.28,-1324.12 1549.48,-1313.52 1542.72,-1321.68 1549.28,-1324.12"/>
</g>
<!-- dakota -->
<g id="node36" class="node">
<title>dakota</title>
<g id="a_node36"><a xlink:href="https://github.com/conda-forge/dakota-feedstock" xlink:title="dakota">
<ellipse fill="#35b779" stroke="black" cx="448.36" cy="-710" rx="44.9" ry="18"/>
<text text-anchor="middle" x="448.36" y="-705.33" font-family="Times,serif" font-size="14.00">dakota</text>
</a>
</g>
</g>
<!-- parabem&#45;&gt;dakota -->
<!-- openpmd&#45;api -->
<g id="node34" class="node">
<title>openpmd&#45;api</title>
<g id="a_node34"><a xlink:href="https://github.com/conda-forge/openpmd-api-feedstock" xlink:title="openpmd api">
<ellipse fill="#fde725" stroke="black" cx="981.36" cy="-1222" rx="75.94" ry="18"/>
<text text-anchor="middle" x="981.36" y="-1217.33" font-family="Times,serif" font-size="14.00">openpmd api</text>
</a>
</g>
</g>
<!-- neuron -->
<g id="node35" class="node">
<title>neuron</title>
<g id="a_node35"><a xlink:href="https://github.com/conda-forge/neuron-feedstock/pull/54" xlink:title="neuron ✓">
<ellipse fill="#31688e" stroke="black" cx="726.36" cy="-1546" rx="54.36" ry="18"/>
<text text-anchor="middle" x="726.36" y="-1541.33" font-family="Times,serif" font-size="14.00" fill="white">neuron ✓</text>
</a>
</g>
</g>
<!-- neuron&#45;&gt;lfpy -->
<g id="edge42" class="edge">
<title>neuron&#45;&gt;lfpy</title>
<path fill="none" stroke="black" d="M727.6,-1527.7C728.12,-1520.41 728.74,-1511.73 729.32,-1503.54"/>
<polygon fill="black" stroke="black" points="732.81,-1503.84 730.03,-1493.61 725.83,-1503.34 732.81,-1503.84"/>
</g>
<!-- scorec -->
<g id="node38" class="node">
<title>scorec</title>
<g id="a_node38"><a xlink:href="https://github.com/conda-forge/scorec-feedstock/pull/12" xlink:title="scorec ❎">
<ellipse fill="#31688e" stroke="black" cx="448.36" cy="-638" rx="58.57" ry="18"/>
<text text-anchor="middle" x="448.36" y="-633.33" font-family="Times,serif" font-size="14.00" fill="white">scorec ❎</text>
</a>
</g>
</g>
<!-- dakota&#45;&gt;scorec -->
<!-- adios2 -->
<g id="node37" class="node">
<title>adios2</title>
<g id="a_node37"><a xlink:href="https://github.com/conda-forge/adios2-feedstock/pull/96" xlink:title="adios2 ❎">
<ellipse fill="#31688e" stroke="black" cx="1022.36" cy="-1366" rx="59.1" ry="18"/>
<text text-anchor="middle" x="1022.36" y="-1361.33" font-family="Times,serif" font-size="14.00" fill="white">adios2 ❎</text>
</a>
</g>
</g>
<!-- adios2&#45;&gt;casacore -->
<g id="edge44" class="edge">
<title>adios2&#45;&gt;casacore</title>
<path fill="none" stroke="black" d="M1032.53,-1348.05C1037.33,-1340.06 1043.16,-1330.33 1048.52,-1321.4"/>
<polygon fill="black" stroke="black" points="1051.36,-1323.46 1053.51,-1313.09 1045.36,-1319.86 1051.36,-1323.46"/>
</g>
<!-- adios2&#45;&gt;fenics&#45;dolfinx -->
<g id="edge45" class="edge">
<title>adios2&#45;&gt;fenics&#45;dolfinx</title>
<path fill="none" stroke="black" d="M1073.26,-1356.46C1090.71,-1353.63 1110.37,-1350.56 1128.36,-1348 1249.5,-1330.79 1390.38,-1313.96 1476.44,-1304.03"/>
<polygon fill="black" stroke="black" points="1476.65,-1307.53 1486.19,-1302.91 1475.85,-1300.57 1476.65,-1307.53"/>
</g>
<!-- adios2&#45;&gt;openpmd&#45;api -->
<g id="edge46" class="edge">
<title>adios2&#45;&gt;openpmd&#45;api</title>
<path fill="none" stroke="black" d="M1014.42,-1348.11C1009.82,-1337.84 1004.21,-1324.37 1000.36,-1312 994.18,-1292.14 989.33,-1269.18 986.08,-1251.55"/>
<polygon fill="black" stroke="black" points="989.54,-1251.03 984.35,-1241.79 982.65,-1252.25 989.54,-1251.03"/>
</g>
<!-- netcdf&#45;cxx&#45;legacy -->
<g id="node43" class="node">
<title>netcdf&#45;cxx&#45;legacy</title>
<g id="a_node43"><a xlink:href="https://github.com/conda-forge/netcdf-cxx-legacy-feedstock/pull/16" xlink:title="netcdf cxx legacy ❎">
<ellipse fill="#31688e" stroke="black" cx="448.36" cy="-566" rx="113.29" ry="18"/>
<text text-anchor="middle" x="448.36" y="-561.33" font-family="Times,serif" font-size="14.00" fill="white">netcdf cxx legacy ❎</text>
</a>
</g>
</g>
<!-- scorec&#45;&gt;netcdf&#45;cxx&#45;legacy -->
<!-- triqs -->
<g id="node39" class="node">
<title>triqs</title>
<g id="a_node39"><a xlink:href="https://github.com/conda-forge/triqs-feedstock/pull/64" xlink:title="triqs ❎">
<ellipse fill="#31688e" stroke="black" cx="1859.36" cy="-746" rx="50.16" ry="18"/>
<text text-anchor="middle" x="1859.36" y="-741.33" font-family="Times,serif" font-size="14.00" fill="white">triqs ❎</text>
</a>
</g>
</g>
<!-- triqs_tprf -->
<g id="node40" class="node">
<title>triqs_tprf</title>
<g id="a_node40"><a xlink:href="https://github.com/conda-forge/triqs_tprf-feedstock" xlink:title="triqs_tprf">
<ellipse fill="#fde725" stroke="black" cx="1772.36" cy="-674" rx="58.57" ry="18"/>
<text text-anchor="middle" x="1772.36" y="-669.33" font-family="Times,serif" font-size="14.00">triqs_tprf</text>
</a>
</g>
</g>
<!-- triqs&#45;&gt;triqs_tprf -->
<g id="edge48" class="edge">
<title>triqs&#45;&gt;triqs_tprf</title>
<path fill="none" stroke="black" d="M1839.62,-729.12C1828.32,-720.03 1813.94,-708.46 1801.38,-698.35"/>
<polygon fill="black" stroke="black" points="1803.79,-695.8 1793.81,-692.26 1799.4,-701.25 1803.79,-695.8"/>
</g>
<!-- triqs_cthyb -->
<g id="node41" class="node">
<title>triqs_cthyb</title>
<g id="a_node41"><a xlink:href="https://github.com/conda-forge/triqs_cthyb-feedstock" xlink:title="triqs_cthyb">
<ellipse fill="#fde725" stroke="black" cx="1859.36" cy="-602" rx="67.52" ry="18"/>
<text text-anchor="middle" x="1859.36" y="-597.33" font-family="Times,serif" font-size="14.00">triqs_cthyb</text>
</a>
</g>
</g>
<!-- triqs&#45;&gt;triqs_cthyb -->
<g id="edge49" class="edge">
<title>triqs&#45;&gt;triqs_cthyb</title>
<path fill="none" stroke="black" d="M1859.36,-727.59C1859.36,-703.61 1859.36,-660.14 1859.36,-631.42"/>
<polygon fill="black" stroke="black" points="1862.86,-631.62 1859.36,-621.62 1855.86,-631.62 1862.86,-631.62"/>
</g>
<!-- triqs_dft_tools -->
<g id="node42" class="node">
<title>triqs_dft_tools</title>
<g id="a_node42"><a xlink:href="https://github.com/conda-forge/triqs_dft_tools-feedstock" xlink:title="triqs_dft_tools">
<ellipse fill="#fde725" stroke="black" cx="1955.36" cy="-530" rx="82.77" ry="18"/>
<text text-anchor="middle" x="1955.36" y="-525.33" font-family="Times,serif" font-size="14.00">triqs_dft_tools</text>
</a>
</g>
</g>
<!-- triqs&#45;&gt;triqs_dft_tools -->
<g id="edge50" class="edge">
<title>triqs&#45;&gt;triqs_dft_tools</title>
<path fill="none" stroke="black" d="M1872.33,-728.21C1889.54,-705.11 1919.67,-661.64 1936.36,-620 1944.15,-600.58 1948.96,-577.43 1951.8,-559.61"/>
<polygon fill="black" stroke="black" points="1955.26,-560.14 1953.24,-549.74 1948.33,-559.13 1955.26,-560.14"/>
</g>
<!-- conduit -->
<g id="node44" class="node">
<title>conduit</title>
<g id="a_node44"><a xlink:href="https://github.com/conda-forge/conduit-feedstock" xlink:title="conduit">
<ellipse fill="#35b779" stroke="black" cx="448.36" cy="-494" rx="48.58" ry="18"/>
<text text-anchor="middle" x="448.36" y="-489.32" font-family="Times,serif" font-size="14.00">conduit</text>
</a>
</g>
</g>
<!-- netcdf&#45;cxx&#45;legacy&#45;&gt;conduit -->
<!-- parsplice -->
<g id="node45" class="node">
<title>parsplice</title>
<g id="a_node45"><a xlink:href="https://github.com/conda-forge/parsplice-feedstock/pull/13" xlink:title="parsplice ❎">
<ellipse fill="#31688e" stroke="black" cx="448.36" cy="-422" rx="72.25" ry="18"/>
<text text-anchor="middle" x="448.36" y="-417.32" font-family="Times,serif" font-size="14.00" fill="white">parsplice ❎</text>
</a>
</g>
</g>
<!-- conduit&#45;&gt;parsplice -->
<!-- parsmurf -->
<g id="node46" class="node">
<title>parsmurf</title>
<g id="a_node46"><a xlink:href="https://github.com/conda-forge/parsmurf-feedstock/pull/4" xlink:title="parsmurf ❎">
<ellipse fill="#31688e" stroke="black" cx="448.36" cy="-350" rx="72.78" ry="18"/>
<text text-anchor="middle" x="448.36" y="-345.32" font-family="Times,serif" font-size="14.00" fill="white">parsmurf ❎</text>
</a>
</g>
</g>
<!-- parsplice&#45;&gt;parsmurf -->
<!-- mrchem -->
<g id="node50" class="node">
<title>mrchem</title>
<g id="a_node50"><a xlink:href="https://github.com/conda-forge/mrchem-feedstock/pull/28" xlink:title="mrchem ❎">
<ellipse fill="#31688e" stroke="black" cx="448.36" cy="-278" rx="67.52" ry="18"/>
<text text-anchor="middle" x="448.36" y="-273.32" font-family="Times,serif" font-size="14.00" fill="white">mrchem ❎</text>
</a>
</g>
</g>
<!-- parsmurf&#45;&gt;mrchem -->
<!-- qe -->
<g id="node47" class="node">
<title>qe</title>
<g id="a_node47"><a xlink:href="https://github.com/conda-forge/qe-feedstock" xlink:title="qe">
<ellipse fill="#fde725" stroke="black" cx="1468.36" cy="-566" rx="27" ry="18"/>
<text text-anchor="middle" x="1468.36" y="-561.33" font-family="Times,serif" font-size="14.00">qe</text>
</a>
</g>
</g>
<!-- dftbplus -->
<g id="node48" class="node">
<title>dftbplus</title>
<g id="a_node48"><a xlink:href="https://github.com/conda-forge/dftbplus-feedstock" xlink:title="dftbplus">
<ellipse fill="#fde725" stroke="black" cx="1204.36" cy="-494" rx="52.79" ry="18"/>
<text text-anchor="middle" x="1204.36" y="-489.32" font-family="Times,serif" font-size="14.00">dftbplus</text>
</a>
</g>
</g>
<!-- libmbd -->
<g id="node49" class="node">
<title>libmbd</title>
<g id="a_node49"><a xlink:href="https://github.com/conda-forge/libmbd-feedstock" xlink:title="libmbd">
<ellipse fill="#fde725" stroke="black" cx="1167.36" cy="-566" rx="45.95" ry="18"/>
<text text-anchor="middle" x="1167.36" y="-561.33" font-family="Times,serif" font-size="14.00">libmbd</text>
</a>
</g>
</g>
<!-- libmbd&#45;&gt;dftbplus -->
<g id="edge55" class="edge">
<title>libmbd&#45;&gt;dftbplus</title>
<path fill="none" stroke="black" d="M1176.32,-548.05C1180.5,-540.14 1185.58,-530.54 1190.25,-521.69"/>
<polygon fill="black" stroke="black" points="1193.2,-523.6 1194.78,-513.13 1187.01,-520.33 1193.2,-523.6"/>
</g>
<!-- scalapackfx -->
<g id="node51" class="node">
<title>scalapackfx</title>
<g id="a_node51"><a xlink:href="https://github.com/conda-forge/scalapackfx-feedstock/pull/9" xlink:title="scalapackfx ✓">
<ellipse fill="#31688e" stroke="black" cx="1346.36" cy="-566" rx="76.99" ry="18"/>
<text text-anchor="middle" x="1346.36" y="-561.33" font-family="Times,serif" font-size="14.00" fill="white">scalapackfx ✓</text>
</a>
</g>
</g>
<!-- scalapackfx&#45;&gt;dftbplus -->
<g id="edge57" class="edge">
<title>scalapackfx&#45;&gt;dftbplus</title>
<path fill="none" stroke="black" d="M1314.49,-549.29C1293.46,-538.92 1265.76,-525.27 1243.4,-514.24"/>
<polygon fill="black" stroke="black" points="1245.1,-511.18 1234.58,-509.9 1242.01,-517.46 1245.1,-511.18"/>
</g>
<!-- libnegf -->
<g id="node52" class="node">
<title>libnegf</title>
<g id="a_node52"><a xlink:href="https://github.com/conda-forge/libnegf-feedstock/pull/17" xlink:title="libnegf ❎">
<ellipse fill="#31688e" stroke="black" cx="1241.36" cy="-638" rx="61.2" ry="18"/>
<text text-anchor="middle" x="1241.36" y="-633.33" font-family="Times,serif" font-size="14.00" fill="white">libnegf ❎</text>
</a>
</g>
</g>
<!-- libnegf&#45;&gt;dftbplus -->
<g id="edge58" class="edge">
<title>libnegf&#45;&gt;dftbplus</title>
<path fill="none" stroke="black" d="M1238.31,-619.79C1234.96,-601.76 1229.16,-572.68 1222.36,-548 1220.08,-539.72 1217.23,-530.84 1214.47,-522.77"/>
<polygon fill="black" stroke="black" points="1217.82,-521.74 1211.21,-513.46 1211.21,-524.05 1217.82,-521.74"/>
</g>
<!-- tempest&#45;extremes -->
<g id="node53" class="node">
<title>tempest&#45;extremes</title>
<g id="a_node53"><a xlink:href="https://github.com/conda-forge/tempest-extremes-feedstock/pull/9" xlink:title="tempest extremes ❎">
<ellipse fill="#31688e" stroke="black" cx="1875.36" cy="-1762" rx="117.5" ry="18"/>
<text text-anchor="middle" x="1875.36" y="-1757.33" font-family="Times,serif" font-size="14.00" fill="white">tempest extremes ❎</text>
</a>
</g>
</g>
<!-- analisi -->
<g id="node54" class="node">
<title>analisi</title>
<g id="a_node54"><a xlink:href="https://github.com/conda-forge/analisi-feedstock/pull/33" xlink:title="analisi ✓">
<ellipse fill="#31688e" stroke="black" cx="1875.36" cy="-1690" rx="51.74" ry="18"/>
<text text-anchor="middle" x="1875.36" y="-1685.33" font-family="Times,serif" font-size="14.00" fill="white">analisi ✓</text>
</a>
</g>
</g>
<!-- tempest&#45;extremes&#45;&gt;analisi -->
<!-- nwchem -->
<g id="node55" class="node">
<title>nwchem</title>
<g id="a_node55"><a xlink:href="https://github.com/conda-forge/nwchem-feedstock/pull/49" xlink:title="nwchem ❎">
<ellipse fill="#31688e" stroke="black" cx="1875.36" cy="-1618" rx="68.04" ry="18"/>
<text text-anchor="middle" x="1875.36" y="-1613.33" font-family="Times,serif" font-size="14.00" fill="white">nwchem ❎</text>
</a>
</g>
</g>
<!-- analisi&#45;&gt;nwchem -->
<!-- bmad -->
<g id="node56" class="node">
<title>bmad</title>
<g id="a_node56"><a xlink:href="https://github.com/conda-forge/bmad-feedstock" xlink:title="bmad">
<ellipse fill="#35b779" stroke="black" cx="1875.36" cy="-1546" rx="39.11" ry="18"/>
<text text-anchor="middle" x="1875.36" y="-1541.33" font-family="Times,serif" font-size="14.00">bmad</text>
</a>
</g>
</g>
<!-- nwchem&#45;&gt;bmad -->
<!-- mfem -->
<g id="node57" class="node">
<title>mfem</title>
<g id="a_node57"><a xlink:href="https://github.com/conda-forge/mfem-feedstock/pull/13" xlink:title="mfem ❎">
<ellipse fill="#31688e" stroke="black" cx="1875.36" cy="-1474" rx="54.89" ry="18"/>
<text text-anchor="middle" x="1875.36" y="-1469.33" font-family="Times,serif" font-size="14.00" fill="white">mfem ❎</text>
</a>
</g>
</g>
<!-- bmad&#45;&gt;mfem -->
<!-- timemory -->
<g id="node58" class="node">
<title>timemory</title>
<g id="a_node58"><a xlink:href="https://github.com/conda-forge/timemory-feedstock" xlink:title="timemory">
<ellipse fill="#000000" stroke="black" cx="1875.36" cy="-1402" rx="59.63" ry="18"/>
<text text-anchor="middle" x="1875.36" y="-1397.33" font-family="Times,serif" font-size="14.00" fill="white">timemory</text>
</a>
</g>
</g>
<!-- mfem&#45;&gt;timemory -->
<!-- pexsi -->
<g id="node59" class="node">
<title>pexsi</title>
<g id="a_node59"><a xlink:href="https://github.com/conda-forge/pexsi-feedstock/pull/10" xlink:title="pexsi ❎">
<ellipse fill="#31688e" stroke="black" cx="1875.36" cy="-1330" rx="52.79" ry="18"/>
<text text-anchor="middle" x="1875.36" y="-1325.33" font-family="Times,serif" font-size="14.00" fill="white">pexsi ❎</text>
</a>
</g>
</g>
<!-- timemory&#45;&gt;pexsi -->
<!-- eigenexa -->
<g id="node65" class="node">
<title>eigenexa</title>
<g id="a_node65"><a xlink:href="https://github.com/conda-forge/eigenexa-feedstock" xlink:title="eigenexa">
<ellipse fill="#35b779" stroke="black" cx="1875.36" cy="-1258" rx="55.94" ry="18"/>
<text text-anchor="middle" x="1875.36" y="-1253.33" font-family="Times,serif" font-size="14.00">eigenexa</text>
</a>
</g>
</g>
<!-- pexsi&#45;&gt;eigenexa -->
<!-- elpa -->
<g id="node60" class="node">
<title>elpa</title>
<g id="a_node60"><a xlink:href="https://github.com/conda-forge/elpa-feedstock/pull/26" xlink:title="elpa ❎">
<ellipse fill="#31688e" stroke="black" cx="1433.36" cy="-710" rx="47.53" ry="18"/>
<text text-anchor="middle" x="1433.36" y="-705.33" font-family="Times,serif" font-size="14.00" fill="white">elpa ❎</text>
</a>
</g>
</g>
<!-- elpa&#45;&gt;siesta -->
<g id="edge65" class="edge">
<title>elpa&#45;&gt;siesta</title>
<path fill="none" stroke="black" d="M1425.13,-692.05C1421.33,-684.23 1416.72,-674.75 1412.46,-665.98"/>
<polygon fill="black" stroke="black" points="1415.69,-664.62 1408.18,-657.15 1409.4,-667.67 1415.69,-664.62"/>
</g>
<!-- elpa&#45;&gt;qe -->
<g id="edge66" class="edge">
<title>elpa&#45;&gt;qe</title>
<path fill="none" stroke="black" d="M1438.91,-691.92C1442.17,-681.58 1446.25,-668.1 1449.36,-656 1454.54,-635.86 1459.42,-612.9 1462.93,-595.35"/>
<polygon fill="black" stroke="black" points="1466.35,-596.13 1464.84,-585.65 1459.48,-594.78 1466.35,-596.13"/>
</g>
<!-- elsi -->
<g id="node61" class="node">
<title>elsi</title>
<g id="a_node61"><a xlink:href="https://github.com/conda-forge/elsi-feedstock" xlink:title="elsi">
<ellipse fill="#fde725" stroke="black" cx="1133.36" cy="-638" rx="28.59" ry="18"/>
<text text-anchor="middle" x="1133.36" y="-633.33" font-family="Times,serif" font-size="14.00">elsi</text>
</a>
</g>
</g>
<!-- elpa&#45;&gt;elsi -->
<g id="edge67" class="edge">
<title>elpa&#45;&gt;elsi</title>
<path fill="none" stroke="black" d="M1389.03,-703.09C1336.31,-695.37 1246.05,-679.94 1171.36,-656 1169.56,-655.42 1167.74,-654.79 1165.9,-654.11"/>
<polygon fill="black" stroke="black" points="1167.53,-650.99 1156.95,-650.48 1164.9,-657.48 1167.53,-650.99"/>
</g>
<!-- abacus -->
<g id="node62" class="node">
<title>abacus</title>
<g id="a_node62"><a xlink:href="https://github.com/conda-forge/abacus-feedstock" xlink:title="abacus">
<ellipse fill="#fde725" stroke="black" cx="1523.36" cy="-494" rx="45.95" ry="18"/>
<text text-anchor="middle" x="1523.36" y="-489.32" font-family="Times,serif" font-size="14.00">abacus</text>
</a>
</g>
</g>
<!-- elpa&#45;&gt;abacus -->
<g id="edge68" class="edge">
<title>elpa&#45;&gt;abacus</title>
<path fill="none" stroke="black" d="M1444.81,-692.07C1451.61,-681.79 1460.27,-668.32 1467.36,-656 1485.32,-624.82 1492.28,-617.89 1504.36,-584 1511.35,-564.41 1516.17,-541.44 1519.21,-523.74"/>
<polygon fill="black" stroke="black" points="1522.66,-524.36 1520.79,-513.93 1515.74,-523.24 1522.66,-524.36"/>
</g>
<!-- elsi&#45;&gt;dftbplus -->
<g id="edge69" class="edge">
<title>elsi&#45;&gt;dftbplus</title>
<path fill="none" stroke="black" d="M1122.89,-620.87C1112.23,-602.2 1099.01,-571.09 1112.36,-548 1121.91,-531.48 1138.78,-519.65 1155.49,-511.43"/>
<polygon fill="black" stroke="black" points="1156.75,-514.7 1164.42,-507.38 1153.87,-508.32 1156.75,-514.7"/>
</g>
<!-- elsi&#45;&gt;libmbd -->
<g id="edge70" class="edge">
<title>elsi&#45;&gt;libmbd</title>
<path fill="none" stroke="black" d="M1141.42,-620.41C1145.22,-612.59 1149.85,-603.06 1154.14,-594.23"/>
<polygon fill="black" stroke="black" points="1157.24,-595.84 1158.46,-585.32 1150.95,-592.78 1157.24,-595.84"/>
</g>
<!-- libomm -->
<g id="node63" class="node">
<title>libomm</title>
<g id="a_node63"><a xlink:href="https://github.com/conda-forge/libomm-feedstock" xlink:title="libomm">
<ellipse fill="#fde725" stroke="black" cx="1172.36" cy="-710" rx="48.58" ry="18"/>
<text text-anchor="middle" x="1172.36" y="-705.33" font-family="Times,serif" font-size="14.00">libomm</text>
</a>
</g>
</g>
<!-- libomm&#45;&gt;elsi -->
<g id="edge71" class="edge">
<title>libomm&#45;&gt;elsi</title>
<path fill="none" stroke="black" d="M1162.92,-692.05C1158.45,-684.03 1153,-674.26 1148.01,-665.3"/>
<polygon fill="black" stroke="black" points="1151.11,-663.66 1143.18,-656.63 1144.99,-667.07 1151.11,-663.66"/>
</g>
<!-- matrixswitch -->
<g id="node64" class="node">
<title>matrixswitch</title>
<g id="a_node64"><a xlink:href="https://github.com/conda-forge/matrixswitch-feedstock/pull/7" xlink:title="matrixswitch ❎">
<ellipse fill="#31688e" stroke="black" cx="1133.36" cy="-782" rx="92.25" ry="18"/>
<text text-anchor="middle" x="1133.36" y="-777.33" font-family="Times,serif" font-size="14.00" fill="white">matrixswitch ❎</text>
</a>
</g>
</g>
<!-- matrixswitch&#45;&gt;elsi -->
<g id="edge72" class="edge">
<title>matrixswitch&#45;&gt;elsi</title>
<path fill="none" stroke="black" d="M1125.47,-763.75C1121.25,-753.58 1116.5,-740.33 1114.36,-728 1111.62,-712.24 1111.62,-707.76 1114.36,-692 1115.84,-683.49 1118.56,-674.54 1121.49,-666.47"/>
<polygon fill="black" stroke="black" points="1124.74,-667.78 1125.11,-657.19 1118.22,-665.23 1124.74,-667.78"/>
</g>
<!-- matrixswitch&#45;&gt;libomm -->
<g id="edge73" class="edge">
<title>matrixswitch&#45;&gt;libomm</title>
<path fill="none" stroke="black" d="M1143,-763.7C1147.3,-755.98 1152.46,-746.71 1157.26,-738.11"/>
<polygon fill="black" stroke="black" points="1160.29,-739.87 1162.09,-729.43 1154.17,-736.46 1160.29,-739.87"/>
</g>
<!-- fleur -->
<g id="node66" class="node">
<title>fleur</title>
<g id="a_node66"><a xlink:href="https://github.com/conda-forge/fleur-feedstock/pull/19" xlink:title="fleur ❎">
<ellipse fill="#31688e" stroke="black" cx="1875.36" cy="-1186" rx="49.63" ry="18"/>
<text text-anchor="middle" x="1875.36" y="-1181.33" font-family="Times,serif" font-size="14.00" fill="white">fleur ❎</text>
</a>
</g>
</g>
<!-- eigenexa&#45;&gt;fleur -->
<!-- edrixs -->
<g id="node67" class="node">
<title>edrixs</title>
<g id="a_node67"><a xlink:href="https://github.com/conda-forge/edrixs-feedstock/pull/14" xlink:title="edrixs ❎">
<ellipse fill="#31688e" stroke="black" cx="1875.36" cy="-1114" rx="57.52" ry="18"/>
<text text-anchor="middle" x="1875.36" y="-1109.33" font-family="Times,serif" font-size="14.00" fill="white">edrixs ❎</text>
</a>
</g>
</g>
<!-- fleur&#45;&gt;edrixs -->
<!-- openphase -->
<g id="node68" class="node">
<title>openphase</title>
<g id="a_node68"><a xlink:href="https://github.com/conda-forge/openphase-feedstock/pull/2" xlink:title="openphase ❎">
<ellipse fill="#31688e" stroke="black" cx="1875.36" cy="-1042" rx="80.14" ry="18"/>
<text text-anchor="middle" x="1875.36" y="-1037.33" font-family="Times,serif" font-size="14.00" fill="white">openphase ❎</text>
</a>
</g>
</g>
<!-- edrixs&#45;&gt;openphase -->
<!-- sparc&#45;x -->
<g id="node69" class="node">
<title>sparc&#45;x</title>
<g id="a_node69"><a xlink:href="https://github.com/conda-forge/sparc-x-feedstock/pull/9" xlink:title="sparc x ❎">
<ellipse fill="#31688e" stroke="black" cx="448.36" cy="-234" rx="62.78" ry="18"/>
<text text-anchor="middle" x="448.36" y="-229.32" font-family="Times,serif" font-size="14.00" fill="white">sparc x ❎</text>
</a>
</g>
</g>
<!-- reef3d -->
<g id="node70" class="node">
<title>reef3d</title>
<g id="a_node70"><a xlink:href="https://github.com/conda-forge/reef3d-feedstock/pull/11" xlink:title="reef3d ✓">
<ellipse fill="#31688e" stroke="black" cx="448.36" cy="-162" rx="51.74" ry="18"/>
<text text-anchor="middle" x="448.36" y="-157.32" font-family="Times,serif" font-size="14.00" fill="white">reef3d ✓</text>
</a>
</g>
</g>
<!-- sparc&#45;x&#45;&gt;reef3d -->
<!-- genesis4 -->
<g id="node71" class="node">
<title>genesis4</title>
<g id="a_node71"><a xlink:href="https://github.com/conda-forge/genesis4-feedstock/pull/12" xlink:title="genesis4 ❎">
<ellipse fill="#31688e" stroke="black" cx="448.36" cy="-90" rx="70.68" ry="18"/>
<text text-anchor="middle" x="448.36" y="-85.33" font-family="Times,serif" font-size="14.00" fill="white">genesis4 ❎</text>
</a>
</g>
</g>
<!-- reef3d&#45;&gt;genesis4 -->
<!-- opentelemac -->
<g id="node72" class="node">
<title>opentelemac</title>
<g id="a_node72"><a xlink:href="https://github.com/conda-forge/opentelemac-feedstock/pull/2" xlink:title="opentelemac ❎">
<ellipse fill="#31688e" stroke="black" cx="448.36" cy="-18" rx="90.14" ry="18"/>
<text text-anchor="middle" x="448.36" y="-13.32" font-family="Times,serif" font-size="14.00" fill="white">opentelemac ❎</text>
</a>
</g>
</g>
<!-- genesis4&#45;&gt;opentelemac -->
</g>
</svg>
