<?xml version="1.0" encoding="UTF-8" standalone="no"?>
<!DOCTYPE svg PUBLIC "-//W3C//DTD SVG 1.1//EN"
 "http://www.w3.org/Graphics/SVG/1.1/DTD/svg11.dtd">
<!-- Generated by graphviz version 11.0.0 (20240519.1550)
 -->
<!-- Pages: 1 -->
<svg width="1031pt" height="1212pt"
 viewBox="0.00 0.00 1030.70 1212.00" xmlns="http://www.w3.org/2000/svg" xmlns:xlink="http://www.w3.org/1999/xlink">
<g id="graph0" class="graph" transform="scale(1 1) rotate(0) translate(4 1208)">
<polygon fill="white" stroke="none" points="-4,4 -4,-1208 1026.7,-1208 1026.7,4 -4,4"/>
<!-- fenics -->
<g id="node1" class="node">
<title>fenics</title>
<g id="a_node1"><a xlink:href="https://github.com/conda-forge/fenics-feedstock" xlink:title="fenics">
<ellipse fill="#fde725" stroke="black" cx="314.76" cy="-278" rx="40.69" ry="18"/>
<text text-anchor="middle" x="314.76" y="-273.32" font-family="Times,serif" font-size="14.00">fenics</text>
</a>
</g>
</g>
<!-- mshr -->
<g id="node2" class="node">
<title>mshr</title>
<g id="a_node2"><a xlink:href="https://github.com/conda-forge/mshr-feedstock" xlink:title="mshr">
<ellipse fill="#fde725" stroke="black" cx="314.76" cy="-206" rx="37" ry="18"/>
<text text-anchor="middle" x="314.76" y="-201.32" font-family="Times,serif" font-size="14.00">mshr</text>
</a>
</g>
</g>
<!-- fenics&#45;&gt;mshr -->
<g id="edge1" class="edge">
<title>fenics&#45;&gt;mshr</title>
<path fill="none" stroke="black" d="M314.76,-259.7C314.76,-252.41 314.76,-243.73 314.76,-235.54"/>
<polygon fill="black" stroke="black" points="318.26,-235.62 314.76,-225.62 311.26,-235.62 318.26,-235.62"/>
</g>
<!-- openmc -->
<g id="node3" class="node">
<title>openmc</title>
<g id="a_node3"><a xlink:href="https://github.com/conda-forge/openmc-feedstock/pull/71" xlink:title="openmc ✓">
<ellipse fill="#31688e" stroke="black" cx="404.76" cy="-1186" rx="58.05" ry="18"/>
<text text-anchor="middle" x="404.76" y="-1181.33" font-family="Times,serif" font-size="14.00" fill="white">openmc ✓</text>
</a>
</g>
</g>
<!-- pytrilinos -->
<g id="node4" class="node">
<title>pytrilinos</title>
<g id="a_node4"><a xlink:href="https://github.com/conda-forge/pytrilinos-feedstock/pull/56" xlink:title="pytrilinos ❎">
<ellipse fill="#31688e" stroke="black" cx="404.76" cy="-1114" rx="74.36" ry="18"/>
<text text-anchor="middle" x="404.76" y="-1109.33" font-family="Times,serif" font-size="14.00" fill="white">pytrilinos ❎</text>
</a>
</g>
</g>
<!-- openmc&#45;&gt;pytrilinos -->
<!-- numcosmo -->
<g id="node5" class="node">
<title>numcosmo</title>
<g id="a_node5"><a xlink:href="https://github.com/conda-forge/numcosmo-feedstock/pull/63" xlink:title="numcosmo ✓">
<ellipse fill="#31688e" stroke="black" cx="404.76" cy="-1042" rx="72.78" ry="18"/>
<text text-anchor="middle" x="404.76" y="-1037.33" font-family="Times,serif" font-size="14.00" fill="white">numcosmo ✓</text>
</a>
</g>
</g>
<!-- pytrilinos&#45;&gt;numcosmo -->
<!-- trilinos -->
<g id="node11" class="node">
<title>trilinos</title>
<g id="a_node11"><a xlink:href="https://github.com/conda-forge/trilinos-feedstock/pull/47" xlink:title="trilinos ❎">
<ellipse fill="#31688e" stroke="black" cx="404.76" cy="-970" rx="62.26" ry="18"/>
<text text-anchor="middle" x="404.76" y="-965.33" font-family="Times,serif" font-size="14.00" fill="white">trilinos ❎</text>
</a>
</g>
</g>
<!-- numcosmo&#45;&gt;trilinos -->
<!-- siesta -->
<g id="node6" class="node">
<title>siesta</title>
<g id="a_node6"><a xlink:href="https://github.com/conda-forge/siesta-feedstock" xlink:title="siesta">
<ellipse fill="#fde725" stroke="black" cx="786.76" cy="-862" rx="40.69" ry="18"/>
<text text-anchor="middle" x="786.76" y="-857.33" font-family="Times,serif" font-size="14.00">siesta</text>
</a>
</g>
</g>
<!-- petsc4py -->
<g id="node7" class="node">
<title>petsc4py</title>
<g id="a_node7"><a xlink:href="https://github.com/conda-forge/petsc4py-feedstock" xlink:title="petsc4py">
<ellipse fill="#000000" stroke="black" cx="382.76" cy="-422" rx="56.47" ry="18"/>
<text text-anchor="middle" x="382.76" y="-417.32" font-family="Times,serif" font-size="14.00" fill="white">petsc4py</text>
</a>
</g>
</g>
<!-- petsc4py&#45;&gt;fenics -->
<g id="edge4" class="edge">
<title>petsc4py&#45;&gt;fenics</title>
<path fill="none" stroke="black" d="M355.29,-405.81C341.75,-396.74 326.66,-383.88 318.76,-368 309.52,-349.46 308.85,-325.97 310.32,-307.78"/>
<polygon fill="black" stroke="black" points="313.79,-308.25 311.39,-297.93 306.83,-307.49 313.79,-308.25"/>
</g>
<!-- slepc4py -->
<g id="node8" class="node">
<title>slepc4py</title>
<g id="a_node8"><a xlink:href="https://github.com/conda-forge/slepc4py-feedstock" xlink:title="slepc4py">
<ellipse fill="#fde725" stroke="black" cx="382.76" cy="-350" rx="55.42" ry="18"/>
<text text-anchor="middle" x="382.76" y="-345.32" font-family="Times,serif" font-size="14.00">slepc4py</text>
</a>
</g>
</g>
<!-- petsc4py&#45;&gt;slepc4py -->
<g id="edge5" class="edge">
<title>petsc4py&#45;&gt;slepc4py</title>
<path fill="none" stroke="black" d="M382.76,-403.7C382.76,-396.41 382.76,-387.73 382.76,-379.54"/>
<polygon fill="black" stroke="black" points="386.26,-379.62 382.76,-369.62 379.26,-379.62 386.26,-379.62"/>
</g>
<!-- fenics&#45;dolfinx -->
<g id="node9" class="node">
<title>fenics&#45;dolfinx</title>
<g id="a_node9"><a xlink:href="https://github.com/conda-forge/fenics-dolfinx-feedstock" xlink:title="fenics dolfinx">
<ellipse fill="#fde725" stroke="black" cx="457.76" cy="-278" rx="77.52" ry="18"/>
<text text-anchor="middle" x="457.76" y="-273.32" font-family="Times,serif" font-size="14.00">fenics dolfinx</text>
</a>
</g>
</g>
<!-- petsc4py&#45;&gt;fenics&#45;dolfinx -->
<g id="edge6" class="edge">
<title>petsc4py&#45;&gt;fenics&#45;dolfinx</title>
<path fill="none" stroke="black" d="M409.4,-405.77C422.88,-396.61 438.16,-383.69 446.76,-368 456.83,-349.61 459.35,-325.93 459.47,-307.62"/>
<polygon fill="black" stroke="black" points="462.97,-307.65 459.28,-297.71 455.97,-307.78 462.97,-307.65"/>
</g>
<!-- slepc4py&#45;&gt;fenics -->
<g id="edge7" class="edge">
<title>slepc4py&#45;&gt;fenics</title>
<path fill="none" stroke="black" d="M366.64,-332.41C358.13,-323.66 347.54,-312.75 338.15,-303.08"/>
<polygon fill="black" stroke="black" points="340.82,-300.81 331.34,-296.07 335.8,-305.69 340.82,-300.81"/>
</g>
<!-- slepc4py&#45;&gt;fenics&#45;dolfinx -->
<g id="edge8" class="edge">
<title>slepc4py&#45;&gt;fenics&#45;dolfinx</title>
<path fill="none" stroke="black" d="M400.15,-332.76C409.41,-324.12 421,-313.3 431.35,-303.65"/>
<polygon fill="black" stroke="black" points="433.64,-306.29 438.56,-296.91 428.87,-301.18 433.64,-306.29"/>
</g>
<!-- dolfinx_mpc -->
<g id="node10" class="node">
<title>dolfinx_mpc</title>
<g id="a_node10"><a xlink:href="https://github.com/conda-forge/dolfinx_mpc-feedstock" xlink:title="dolfinx_mpc">
<ellipse fill="#fde725" stroke="black" cx="457.76" cy="-206" rx="70.68" ry="18"/>
<text text-anchor="middle" x="457.76" y="-201.32" font-family="Times,serif" font-size="14.00">dolfinx_mpc</text>
</a>
</g>
</g>
<!-- fenics&#45;dolfinx&#45;&gt;dolfinx_mpc -->
<g id="edge9" class="edge">
<title>fenics&#45;dolfinx&#45;&gt;dolfinx_mpc</title>
<path fill="none" stroke="black" d="M457.76,-259.7C457.76,-252.41 457.76,-243.73 457.76,-235.54"/>
<polygon fill="black" stroke="black" points="461.26,-235.62 457.76,-225.62 454.26,-235.62 461.26,-235.62"/>
</g>
<!-- asap3 -->
<g id="node12" class="node">
<title>asap3</title>
<g id="a_node12"><a xlink:href="https://github.com/conda-forge/asap3-feedstock/pull/47" xlink:title="asap3 ✓">
<ellipse fill="#31688e" stroke="black" cx="404.76" cy="-898" rx="48.58" ry="18"/>
<text text-anchor="middle" x="404.76" y="-893.33" font-family="Times,serif" font-size="14.00" fill="white">asap3 ✓</text>
</a>
</g>
</g>
<!-- trilinos&#45;&gt;asap3 -->
<!-- lalinference -->
<g id="node16" class="node">
<title>lalinference</title>
<g id="a_node16"><a xlink:href="https://github.com/conda-forge/lalinference-feedstock/pull/63" xlink:title="lalinference ✓">
<ellipse fill="#31688e" stroke="black" cx="404.76" cy="-826" rx="78.04" ry="18"/>
<text text-anchor="middle" x="404.76" y="-821.33" font-family="Times,serif" font-size="14.00" fill="white">lalinference ✓</text>
</a>
</g>
</g>
<!-- asap3&#45;&gt;lalinference -->
<!-- lammps -->
<g id="node13" class="node">
<title>lammps</title>
<g id="a_node13"><a xlink:href="https://github.com/conda-forge/lammps-feedstock/pull/198" xlink:title="lammps ❎">
<ellipse fill="#31688e" stroke="black" cx="780.76" cy="-386" rx="65.94" ry="18"/>
<text text-anchor="middle" x="780.76" y="-381.32" font-family="Times,serif" font-size="14.00" fill="white">lammps ❎</text>
</a>
</g>
</g>
<!-- deepmd&#45;kit -->
<g id="node14" class="node">
<title>deepmd&#45;kit</title>
<g id="a_node14"><a xlink:href="https://github.com/conda-forge/deepmd-kit-feedstock" xlink:title="deepmd kit">
<ellipse fill="#fde725" stroke="black" cx="732.76" cy="-314" rx="67.52" ry="18"/>
<text text-anchor="middle" x="732.76" y="-309.32" font-family="Times,serif" font-size="14.00">deepmd kit</text>
</a>
</g>
</g>
<!-- lammps&#45;&gt;deepmd&#45;kit -->
<g id="edge12" class="edge">
<title>lammps&#45;&gt;deepmd&#45;kit</title>
<path fill="none" stroke="black" d="M769.14,-368.05C763.59,-359.97 756.84,-350.12 750.66,-341.11"/>
<polygon fill="black" stroke="black" points="753.67,-339.31 745.12,-333.04 747.89,-343.26 753.67,-339.31"/>
</g>
<!-- parsplice -->
<g id="node15" class="node">
<title>parsplice</title>
<g id="a_node15"><a xlink:href="https://github.com/conda-forge/parsplice-feedstock/pull/13" xlink:title="parsplice ❎">
<ellipse fill="#31688e" stroke="black" cx="828.76" cy="-242" rx="72.25" ry="18"/>
<text text-anchor="middle" x="828.76" y="-237.32" font-family="Times,serif" font-size="14.00" fill="white">parsplice ❎</text>
</a>
</g>
</g>
<!-- lammps&#45;&gt;parsplice -->
<g id="edge13" class="edge">
<title>lammps&#45;&gt;parsplice</title>
<path fill="none" stroke="black" d="M791.75,-367.94C797.83,-357.84 805.08,-344.59 809.76,-332 816.99,-312.5 821.81,-289.53 824.78,-271.8"/>
<polygon fill="black" stroke="black" points="828.23,-272.4 826.32,-261.98 821.32,-271.32 828.23,-272.4"/>
</g>
<!-- parabem -->
<g id="node17" class="node">
<title>parabem</title>
<g id="a_node17"><a xlink:href="https://github.com/conda-forge/parabem-feedstock/pull/17" xlink:title="parabem ❎">
<ellipse fill="#31688e" stroke="black" cx="404.76" cy="-754" rx="70.68" ry="18"/>
<text text-anchor="middle" x="404.76" y="-749.33" font-family="Times,serif" font-size="14.00" fill="white">parabem ❎</text>
</a>
</g>
</g>
<!-- lalinference&#45;&gt;parabem -->
<!-- dakota -->
<g id="node18" class="node">
<title>dakota</title>
<g id="a_node18"><a xlink:href="https://github.com/conda-forge/dakota-feedstock/pull/49" xlink:title="dakota ❎">
<ellipse fill="#31688e" stroke="black" cx="404.76" cy="-682" rx="60.15" ry="18"/>
<text text-anchor="middle" x="404.76" y="-677.33" font-family="Times,serif" font-size="14.00" fill="white">dakota ❎</text>
</a>
</g>
</g>
<!-- parabem&#45;&gt;dakota -->
<!-- scorec -->
<g id="node20" class="node">
<title>scorec</title>
<g id="a_node20"><a xlink:href="https://github.com/conda-forge/scorec-feedstock/pull/12" xlink:title="scorec ❎">
<ellipse fill="#31688e" stroke="black" cx="404.76" cy="-610" rx="58.57" ry="18"/>
<text text-anchor="middle" x="404.76" y="-605.33" font-family="Times,serif" font-size="14.00" fill="white">scorec ❎</text>
</a>
</g>
</g>
<!-- dakota&#45;&gt;scorec -->
<!-- gpaw -->
<g id="node19" class="node">
<title>gpaw</title>
<g id="a_node19"><a xlink:href="https://github.com/conda-forge/gpaw-feedstock" xlink:title="gpaw">
<ellipse fill="#fde725" stroke="black" cx="855.76" cy="-790" rx="38.06" ry="18"/>
<text text-anchor="middle" x="855.76" y="-785.33" font-family="Times,serif" font-size="14.00">gpaw</text>
</a>
</g>
</g>
<!-- conduit -->
<g id="node22" class="node">
<title>conduit</title>
<g id="a_node22"><a xlink:href="https://github.com/conda-forge/conduit-feedstock/pull/46" xlink:title="conduit ✓">
<ellipse fill="#31688e" stroke="black" cx="404.76" cy="-538" rx="56.47" ry="18"/>
<text text-anchor="middle" x="404.76" y="-533.33" font-family="Times,serif" font-size="14.00" fill="white">conduit ✓</text>
</a>
</g>
</g>
<!-- scorec&#45;&gt;conduit -->
<!-- cp2k -->
<g id="node21" class="node">
<title>cp2k</title>
<g id="a_node21"><a xlink:href="https://github.com/conda-forge/cp2k-feedstock" xlink:title="cp2k">
<ellipse fill="#fde725" stroke="black" cx="132.76" cy="-18" rx="34.9" ry="18"/>
<text text-anchor="middle" x="132.76" y="-13.32" font-family="Times,serif" font-size="14.00">cp2k</text>
</a>
</g>
</g>
<!-- parsmurf -->
<g id="node23" class="node">
<title>parsmurf</title>
<g id="a_node23"><a xlink:href="https://github.com/conda-forge/parsmurf-feedstock/pull/4" xlink:title="parsmurf ❎">
<ellipse fill="#31688e" stroke="black" cx="404.76" cy="-466" rx="72.78" ry="18"/>
<text text-anchor="middle" x="404.76" y="-461.32" font-family="Times,serif" font-size="14.00" fill="white">parsmurf ❎</text>
</a>
</g>
</g>
<!-- conduit&#45;&gt;parsmurf -->
<!-- qe -->
<g id="node24" class="node">
<title>qe</title>
<g id="a_node24"><a xlink:href="https://github.com/conda-forge/qe-feedstock" xlink:title="qe">
<ellipse fill="#fde725" stroke="black" cx="921.76" cy="-718" rx="27" ry="18"/>
<text text-anchor="middle" x="921.76" y="-713.33" font-family="Times,serif" font-size="14.00">qe</text>
</a>
</g>
</g>
<!-- dftbplus -->
<g id="node25" class="node">
<title>dftbplus</title>
<g id="a_node25"><a xlink:href="https://github.com/conda-forge/dftbplus-feedstock" xlink:title="dftbplus">
<ellipse fill="#fde725" stroke="black" cx="627.76" cy="-718" rx="52.79" ry="18"/>
<text text-anchor="middle" x="627.76" y="-713.33" font-family="Times,serif" font-size="14.00">dftbplus</text>
</a>
</g>
</g>
<!-- libmbd -->
<g id="node26" class="node">
<title>libmbd</title>
<g id="a_node26"><a xlink:href="https://github.com/conda-forge/libmbd-feedstock" xlink:title="libmbd">
<ellipse fill="#fde725" stroke="black" cx="627.76" cy="-790" rx="45.95" ry="18"/>
<text text-anchor="middle" x="627.76" y="-785.33" font-family="Times,serif" font-size="14.00">libmbd</text>
</a>
</g>
</g>
<!-- libmbd&#45;&gt;dftbplus -->
<g id="edge20" class="edge">
<title>libmbd&#45;&gt;dftbplus</title>
<path fill="none" stroke="black" d="M627.76,-771.7C627.76,-764.41 627.76,-755.73 627.76,-747.54"/>
<polygon fill="black" stroke="black" points="631.26,-747.62 627.76,-737.62 624.26,-747.62 631.26,-747.62"/>
</g>
<!-- dedalus -->
<g id="node27" class="node">
<title>dedalus</title>
<g id="a_node27"><a xlink:href="https://github.com/conda-forge/dedalus-feedstock/pull/22" xlink:title="dedalus ✓">
<ellipse fill="#31688e" stroke="black" cx="132.76" cy="-1186" rx="58.05" ry="18"/>
<text text-anchor="middle" x="132.76" y="-1181.33" font-family="Times,serif" font-size="14.00" fill="white">dedalus ✓</text>
</a>
</g>
</g>
<!-- yambo -->
<g id="node28" class="node">
<title>yambo</title>
<g id="a_node28"><a xlink:href="https://github.com/conda-forge/yambo-feedstock/pull/30" xlink:title="yambo ❎">
<ellipse fill="#31688e" stroke="black" cx="132.76" cy="-1114" rx="59.63" ry="18"/>
<text text-anchor="middle" x="132.76" y="-1109.33" font-family="Times,serif" font-size="14.00" fill="white">yambo ❎</text>
</a>
</g>
</g>
<!-- dedalus&#45;&gt;yambo -->
<!-- ondamonitor -->
<g id="node31" class="node">
<title>ondamonitor</title>
<g id="a_node31"><a xlink:href="https://github.com/conda-forge/ondamonitor-feedstock/pull/12" xlink:title="ondamonitor ❎">
<ellipse fill="#31688e" stroke="black" cx="132.76" cy="-1042" rx="90.14" ry="18"/>
<text text-anchor="middle" x="132.76" y="-1037.33" font-family="Times,serif" font-size="14.00" fill="white">ondamonitor ❎</text>
</a>
</g>
</g>
<!-- yambo&#45;&gt;ondamonitor -->
<!-- libnegf -->
<g id="node29" class="node">
<title>libnegf</title>
<g id="a_node29"><a xlink:href="https://github.com/conda-forge/libnegf-feedstock/pull/17" xlink:title="libnegf ✓">
<ellipse fill="#31688e" stroke="black" cx="745.76" cy="-790" rx="53.84" ry="18"/>
<text text-anchor="middle" x="745.76" y="-785.33" font-family="Times,serif" font-size="14.00" fill="white">libnegf ✓</text>
</a>
</g>
</g>
<!-- libnegf&#45;&gt;dftbplus -->
<g id="edge22" class="edge">
<title>libnegf&#45;&gt;dftbplus</title>
<path fill="none" stroke="black" d="M720.15,-773.81C703.45,-763.9 681.43,-750.84 663.07,-739.95"/>
<polygon fill="black" stroke="black" points="665,-737.02 654.61,-734.93 661.43,-743.04 665,-737.02"/>
</g>
<!-- sirius -->
<g id="node30" class="node">
<title>sirius</title>
<g id="a_node30"><a xlink:href="https://github.com/conda-forge/sirius-feedstock" xlink:title="sirius">
<ellipse fill="#fde725" stroke="black" cx="132.76" cy="-90" rx="39.11" ry="18"/>
<text text-anchor="middle" x="132.76" y="-85.33" font-family="Times,serif" font-size="14.00">sirius</text>
</a>
</g>
</g>
<!-- sirius&#45;&gt;cp2k -->
<g id="edge23" class="edge">
<title>sirius&#45;&gt;cp2k</title>
<path fill="none" stroke="black" d="M132.76,-71.7C132.76,-64.41 132.76,-55.73 132.76,-47.54"/>
<polygon fill="black" stroke="black" points="136.26,-47.62 132.76,-37.62 129.26,-47.62 136.26,-47.62"/>
</g>
<!-- alamode -->
<g id="node32" class="node">
<title>alamode</title>
<g id="a_node32"><a xlink:href="https://github.com/conda-forge/alamode-feedstock/pull/12" xlink:title="alamode ❎">
<ellipse fill="#31688e" stroke="black" cx="132.76" cy="-970" rx="68.57" ry="18"/>
<text text-anchor="middle" x="132.76" y="-965.33" font-family="Times,serif" font-size="14.00" fill="white">alamode ❎</text>
</a>
</g>
</g>
<!-- ondamonitor&#45;&gt;alamode -->
<!-- timemory -->
<g id="node33" class="node">
<title>timemory</title>
<g id="a_node33"><a xlink:href="https://github.com/conda-forge/timemory-feedstock" xlink:title="timemory">
<ellipse fill="#000000" stroke="black" cx="132.76" cy="-898" rx="59.63" ry="18"/>
<text text-anchor="middle" x="132.76" y="-893.33" font-family="Times,serif" font-size="14.00" fill="white">timemory</text>
</a>
</g>
</g>
<!-- alamode&#45;&gt;timemory -->
<!-- pexsi -->
<g id="node34" class="node">
<title>pexsi</title>
<g id="a_node34"><a xlink:href="https://github.com/conda-forge/pexsi-feedstock/pull/10" xlink:title="pexsi ❎">
<ellipse fill="#31688e" stroke="black" cx="132.76" cy="-826" rx="52.79" ry="18"/>
<text text-anchor="middle" x="132.76" y="-821.33" font-family="Times,serif" font-size="14.00" fill="white">pexsi ❎</text>
</a>
</g>
</g>
<!-- timemory&#45;&gt;pexsi -->
<!-- eigenexa -->
<g id="node41" class="node">
<title>eigenexa</title>
<g id="a_node41"><a xlink:href="https://github.com/conda-forge/eigenexa-feedstock/pull/3" xlink:title="eigenexa ❎">
<ellipse fill="#31688e" stroke="black" cx="132.76" cy="-754" rx="71.2" ry="18"/>
<text text-anchor="middle" x="132.76" y="-749.33" font-family="Times,serif" font-size="14.00" fill="white">eigenexa ❎</text>
</a>
</g>
</g>
<!-- pexsi&#45;&gt;eigenexa -->
<!-- costa_variants -->
<g id="node35" class="node">
<title>costa_variants</title>
<g id="a_node35"><a xlink:href="https://github.com/conda-forge/costa_variants-feedstock/pull/4" xlink:title="costa_variants ❎">
<ellipse fill="#31688e" stroke="black" cx="132.76" cy="-162" rx="98.56" ry="18"/>
<text text-anchor="middle" x="132.76" y="-157.32" font-family="Times,serif" font-size="14.00" fill="white">costa_variants ❎</text>
</a>
</g>
</g>
<!-- costa_variants&#45;&gt;sirius -->
<g id="edge28" class="edge">
<title>costa_variants&#45;&gt;sirius</title>
<path fill="none" stroke="black" d="M132.76,-143.7C132.76,-136.41 132.76,-127.73 132.76,-119.54"/>
<polygon fill="black" stroke="black" points="136.26,-119.62 132.76,-109.62 129.26,-119.62 136.26,-119.62"/>
</g>
<!-- elpa -->
<g id="node36" class="node">
<title>elpa</title>
<g id="a_node36"><a xlink:href="https://github.com/conda-forge/elpa-feedstock/pull/26" xlink:title="elpa ❎">
<ellipse fill="#31688e" stroke="black" cx="855.76" cy="-934" rx="47.53" ry="18"/>
<text text-anchor="middle" x="855.76" y="-929.33" font-family="Times,serif" font-size="14.00" fill="white">elpa ❎</text>
</a>
</g>
</g>
<!-- elpa&#45;&gt;siesta -->
<g id="edge29" class="edge">
<title>elpa&#45;&gt;siesta</title>
<path fill="none" stroke="black" d="M839.75,-916.76C830.92,-907.8 819.79,-896.51 810.01,-886.59"/>
<polygon fill="black" stroke="black" points="812.77,-884.41 803.26,-879.74 807.79,-889.32 812.77,-884.41"/>
</g>
<!-- elpa&#45;&gt;gpaw -->
<g id="edge30" class="edge">
<title>elpa&#45;&gt;gpaw</title>
<path fill="none" stroke="black" d="M855.76,-915.59C855.76,-891.61 855.76,-848.14 855.76,-819.42"/>
<polygon fill="black" stroke="black" points="859.26,-819.62 855.76,-809.62 852.26,-819.62 859.26,-819.62"/>
</g>
<!-- elpa&#45;&gt;qe -->
<g id="edge31" class="edge">
<title>elpa&#45;&gt;qe</title>
<path fill="none" stroke="black" d="M863.12,-915.89C873.17,-892.06 891.22,-847.38 902.76,-808 908.6,-788.04 913.46,-765.08 916.8,-747.48"/>
<polygon fill="black" stroke="black" points="920.22,-748.21 918.59,-737.74 913.34,-746.94 920.22,-748.21"/>
</g>
<!-- elsi -->
<g id="node37" class="node">
<title>elsi</title>
<g id="a_node37"><a xlink:href="https://github.com/conda-forge/elsi-feedstock" xlink:title="elsi">
<ellipse fill="#fde725" stroke="black" cx="627.76" cy="-862" rx="28.59" ry="18"/>
<text text-anchor="middle" x="627.76" y="-857.33" font-family="Times,serif" font-size="14.00">elsi</text>
</a>
</g>
</g>
<!-- elpa&#45;&gt;elsi -->
<g id="edge32" class="edge">
<title>elpa&#45;&gt;elsi</title>
<path fill="none" stroke="black" d="M819.63,-921.91C777.07,-908.84 706.78,-887.26 664.12,-874.16"/>
<polygon fill="black" stroke="black" points="665.16,-870.82 654.57,-871.23 663.1,-877.51 665.16,-870.82"/>
</g>
<!-- abacus -->
<g id="node38" class="node">
<title>abacus</title>
<g id="a_node38"><a xlink:href="https://github.com/conda-forge/abacus-feedstock" xlink:title="abacus">
<ellipse fill="#fde725" stroke="black" cx="976.76" cy="-646" rx="45.95" ry="18"/>
<text text-anchor="middle" x="976.76" y="-641.33" font-family="Times,serif" font-size="14.00">abacus</text>
</a>
</g>
</g>
<!-- elpa&#45;&gt;abacus -->
<g id="edge33" class="edge">
<title>elpa&#45;&gt;abacus</title>
<path fill="none" stroke="black" d="M870.63,-916.68C879.3,-906.61 890.01,-893.15 897.76,-880 932.95,-820.26 937.1,-802.18 957.76,-736 963.95,-716.15 968.8,-693.18 972.05,-675.55"/>
<polygon fill="black" stroke="black" points="975.48,-676.25 973.77,-665.79 968.58,-675.03 975.48,-676.25"/>
</g>
<!-- elsi&#45;&gt;dftbplus -->
<g id="edge34" class="edge">
<title>elsi&#45;&gt;dftbplus</title>
<path fill="none" stroke="black" d="M608.31,-848.54C595.56,-839.13 579.97,-824.96 572.76,-808 566.5,-793.28 566.5,-786.72 572.76,-772 577.67,-760.44 586.48,-750.18 595.62,-741.84"/>
<polygon fill="black" stroke="black" points="597.84,-744.55 603.23,-735.42 593.33,-739.2 597.84,-744.55"/>
</g>
<!-- elsi&#45;&gt;libmbd -->
<g id="edge35" class="edge">
<title>elsi&#45;&gt;libmbd</title>
<path fill="none" stroke="black" d="M627.76,-843.7C627.76,-836.41 627.76,-827.73 627.76,-819.54"/>
<polygon fill="black" stroke="black" points="631.26,-819.62 627.76,-809.62 624.26,-819.62 631.26,-819.62"/>
</g>
<!-- libomm -->
<g id="node39" class="node">
<title>libomm</title>
<g id="a_node39"><a xlink:href="https://github.com/conda-forge/libomm-feedstock" xlink:title="libomm">
<ellipse fill="#fde725" stroke="black" cx="666.76" cy="-934" rx="48.58" ry="18"/>
<text text-anchor="middle" x="666.76" y="-929.33" font-family="Times,serif" font-size="14.00">libomm</text>
</a>
</g>
</g>
<!-- libomm&#45;&gt;elsi -->
<g id="edge36" class="edge">
<title>libomm&#45;&gt;elsi</title>
<path fill="none" stroke="black" d="M657.31,-916.05C652.84,-908.03 647.4,-898.26 642.41,-889.3"/>
<polygon fill="black" stroke="black" points="645.5,-887.66 637.58,-880.63 639.39,-891.07 645.5,-887.66"/>
</g>
<!-- matrixswitch -->
<g id="node40" class="node">
<title>matrixswitch</title>
<g id="a_node40"><a xlink:href="https://github.com/conda-forge/matrixswitch-feedstock/pull/7" xlink:title="matrixswitch ✓">
<ellipse fill="#31688e" stroke="black" cx="627.76" cy="-1006" rx="84.88" ry="18"/>
<text text-anchor="middle" x="627.76" y="-1001.33" font-family="Times,serif" font-size="14.00" fill="white">matrixswitch ✓</text>
</a>
</g>
</g>
<!-- matrixswitch&#45;&gt;elsi -->
<g id="edge37" class="edge">
<title>matrixswitch&#45;&gt;elsi</title>
<path fill="none" stroke="black" d="M619.86,-987.75C615.65,-977.58 610.9,-964.33 608.76,-952 606.01,-936.24 606.01,-931.76 608.76,-916 610.23,-907.49 612.96,-898.54 615.89,-890.47"/>
<polygon fill="black" stroke="black" points="619.13,-891.78 619.51,-881.19 612.61,-889.23 619.13,-891.78"/>
</g>
<!-- matrixswitch&#45;&gt;libomm -->
<g id="edge38" class="edge">
<title>matrixswitch&#45;&gt;libomm</title>
<path fill="none" stroke="black" d="M637.4,-987.7C641.69,-979.98 646.86,-970.71 651.65,-962.11"/>
<polygon fill="black" stroke="black" points="654.68,-963.87 656.49,-953.43 648.56,-960.46 654.68,-963.87"/>
</g>
<!-- fleur -->
<g id="node42" class="node">
<title>fleur</title>
<g id="a_node42"><a xlink:href="https://github.com/conda-forge/fleur-feedstock/pull/19" xlink:title="fleur ✓">
<ellipse fill="#31688e" stroke="black" cx="132.76" cy="-682" rx="42.26" ry="18"/>
<text text-anchor="middle" x="132.76" y="-677.33" font-family="Times,serif" font-size="14.00" fill="white">fleur ✓</text>
</a>
</g>
</g>
<!-- eigenexa&#45;&gt;fleur -->
<!-- edrixs -->
<g id="node43" class="node">
<title>edrixs</title>
<g id="a_node43"><a xlink:href="https://github.com/conda-forge/edrixs-feedstock/pull/14" xlink:title="edrixs ❎">
<ellipse fill="#31688e" stroke="black" cx="132.76" cy="-610" rx="57.52" ry="18"/>
<text text-anchor="middle" x="132.76" y="-605.33" font-family="Times,serif" font-size="14.00" fill="white">edrixs ❎</text>
</a>
</g>
</g>
<!-- fleur&#45;&gt;edrixs -->
<!-- openphase -->
<g id="node44" class="node">
<title>openphase</title>
<g id="a_node44"><a xlink:href="https://github.com/conda-forge/openphase-feedstock/pull/2" xlink:title="openphase ❎">
<ellipse fill="#31688e" stroke="black" cx="132.76" cy="-538" rx="80.14" ry="18"/>
<text text-anchor="middle" x="132.76" y="-533.33" font-family="Times,serif" font-size="14.00" fill="white">openphase ❎</text>
</a>
</g>
</g>
<!-- edrixs&#45;&gt;openphase -->
<!-- sparc&#45;x -->
<g id="node45" class="node">
<title>sparc&#45;x</title>
<g id="a_node45"><a xlink:href="https://github.com/conda-forge/sparc-x-feedstock/pull/9" xlink:title="sparc x ❎">
<ellipse fill="#31688e" stroke="black" cx="132.76" cy="-466" rx="62.78" ry="18"/>
<text text-anchor="middle" x="132.76" y="-461.32" font-family="Times,serif" font-size="14.00" fill="white">sparc x ❎</text>
</a>
</g>
</g>
<!-- openphase&#45;&gt;sparc&#45;x -->
<!-- heat -->
<g id="node46" class="node">
<title>heat</title>
<g id="a_node46"><a xlink:href="https://github.com/conda-forge/heat-feedstock/pull/15" xlink:title="heat ❎">
<ellipse fill="#31688e" stroke="black" cx="132.76" cy="-422" rx="48.58" ry="18"/>
<text text-anchor="middle" x="132.76" y="-417.32" font-family="Times,serif" font-size="14.00" fill="white">heat ❎</text>
</a>
</g>
</g>
<!-- reef3d -->
<g id="node47" class="node">
<title>reef3d</title>
<g id="a_node47"><a xlink:href="https://github.com/conda-forge/reef3d-feedstock/pull/11" xlink:title="reef3d ✓">
<ellipse fill="#31688e" stroke="black" cx="132.76" cy="-350" rx="51.74" ry="18"/>
<text text-anchor="middle" x="132.76" y="-345.32" font-family="Times,serif" font-size="14.00" fill="white">reef3d ✓</text>
</a>
</g>
</g>
<!-- heat&#45;&gt;reef3d -->
<!-- fluidfft&#45;mpi_with_fftw -->
<g id="node48" class="node">
<title>fluidfft&#45;mpi_with_fftw</title>
<g id="a_node48"><a xlink:href="https://github.com/conda-forge/fluidfft-mpi_with_fftw-feedstock/pull/1" xlink:title="fluidfft mpi_with_fftw ❎">
<ellipse fill="#31688e" stroke="black" cx="132.76" cy="-278" rx="132.76" ry="18"/>
<text text-anchor="middle" x="132.76" y="-273.32" font-family="Times,serif" font-size="14.00" fill="white">fluidfft mpi_with_fftw ❎</text>
</a>
</g>
</g>
<!-- reef3d&#45;&gt;fluidfft&#45;mpi_with_fftw -->
<!-- eatpy -->
<g id="node49" class="node">
<title>eatpy</title>
<g id="a_node49"><a xlink:href="https://github.com/conda-forge/eatpy-feedstock" xlink:title="eatpy">
<ellipse fill="#000000" stroke="black" cx="132.76" cy="-206" rx="39.11" ry="18"/>
<text text-anchor="middle" x="132.76" y="-201.32" font-family="Times,serif" font-size="14.00" fill="white">eatpy</text>
</a>
</g>
</g>
<!-- fluidfft&#45;mpi_with_fftw&#45;&gt;eatpy -->
</g>
</svg>
