<?xml version="1.0" encoding="UTF-8" standalone="no"?>
<!DOCTYPE svg PUBLIC "-//W3C//DTD SVG 1.1//EN"
 "http://www.w3.org/Graphics/SVG/1.1/DTD/svg11.dtd">
<!-- Generated by graphviz version 11.0.0 (20240519.1550)
 -->
<!-- Pages: 1 -->
<svg width="1102pt" height="1500pt"
 viewBox="0.00 0.00 1101.70 1500.00" xmlns="http://www.w3.org/2000/svg" xmlns:xlink="http://www.w3.org/1999/xlink">
<g id="graph0" class="graph" transform="scale(1 1) rotate(0) translate(4 1496)">
<polygon fill="white" stroke="none" points="-4,4 -4,-1496 1097.7,-1496 1097.7,4 -4,4"/>
<!-- fenics -->
<g id="node1" class="node">
<title>fenics</title>
<g id="a_node1"><a xlink:href="https://github.com/conda-forge/fenics-feedstock" xlink:title="fenics">
<ellipse fill="#fde725" stroke="black" cx="759.76" cy="-422" rx="40.69" ry="18"/>
<text text-anchor="middle" x="759.76" y="-417.32" font-family="Times,serif" font-size="14.00">fenics</text>
</a>
</g>
</g>
<!-- mshr -->
<g id="node2" class="node">
<title>mshr</title>
<g id="a_node2"><a xlink:href="https://github.com/conda-forge/mshr-feedstock" xlink:title="mshr">
<ellipse fill="#fde725" stroke="black" cx="759.76" cy="-350" rx="37" ry="18"/>
<text text-anchor="middle" x="759.76" y="-345.32" font-family="Times,serif" font-size="14.00">mshr</text>
</a>
</g>
</g>
<!-- fenics&#45;&gt;mshr -->
<g id="edge1" class="edge">
<title>fenics&#45;&gt;mshr</title>
<path fill="none" stroke="black" d="M759.76,-403.7C759.76,-396.41 759.76,-387.73 759.76,-379.54"/>
<polygon fill="black" stroke="black" points="763.26,-379.62 759.76,-369.62 756.26,-379.62 763.26,-379.62"/>
</g>
<!-- openmc -->
<g id="node3" class="node">
<title>openmc</title>
<g id="a_node3"><a xlink:href="https://github.com/conda-forge/openmc-feedstock/pull/71" xlink:title="openmc ✓">
<ellipse fill="#31688e" stroke="black" cx="435.76" cy="-1474" rx="58.05" ry="18"/>
<text text-anchor="middle" x="435.76" y="-1469.33" font-family="Times,serif" font-size="14.00" fill="white">openmc ✓</text>
</a>
</g>
</g>
<!-- pytrilinos -->
<g id="node4" class="node">
<title>pytrilinos</title>
<g id="a_node4"><a xlink:href="https://github.com/conda-forge/pytrilinos-feedstock/pull/56" xlink:title="pytrilinos ❎">
<ellipse fill="#31688e" stroke="black" cx="435.76" cy="-1402" rx="74.36" ry="18"/>
<text text-anchor="middle" x="435.76" y="-1397.33" font-family="Times,serif" font-size="14.00" fill="white">pytrilinos ❎</text>
</a>
</g>
</g>
<!-- openmc&#45;&gt;pytrilinos -->
<!-- numcosmo -->
<g id="node5" class="node">
<title>numcosmo</title>
<g id="a_node5"><a xlink:href="https://github.com/conda-forge/numcosmo-feedstock/pull/63" xlink:title="numcosmo ✓">
<ellipse fill="#31688e" stroke="black" cx="435.76" cy="-1330" rx="72.78" ry="18"/>
<text text-anchor="middle" x="435.76" y="-1325.33" font-family="Times,serif" font-size="14.00" fill="white">numcosmo ✓</text>
</a>
</g>
</g>
<!-- pytrilinos&#45;&gt;numcosmo -->
<!-- trilinos -->
<g id="node11" class="node">
<title>trilinos</title>
<g id="a_node11"><a xlink:href="https://github.com/conda-forge/trilinos-feedstock/pull/47" xlink:title="trilinos ❎">
<ellipse fill="#31688e" stroke="black" cx="435.76" cy="-1258" rx="62.26" ry="18"/>
<text text-anchor="middle" x="435.76" y="-1253.33" font-family="Times,serif" font-size="14.00" fill="white">trilinos ❎</text>
</a>
</g>
</g>
<!-- numcosmo&#45;&gt;trilinos -->
<!-- siesta -->
<g id="node6" class="node">
<title>siesta</title>
<g id="a_node6"><a xlink:href="https://github.com/conda-forge/siesta-feedstock" xlink:title="siesta">
<ellipse fill="#fde725" stroke="black" cx="857.76" cy="-1150" rx="40.69" ry="18"/>
<text text-anchor="middle" x="857.76" y="-1145.33" font-family="Times,serif" font-size="14.00">siesta</text>
</a>
</g>
</g>
<!-- petsc4py -->
<g id="node7" class="node">
<title>petsc4py</title>
<g id="a_node7"><a xlink:href="https://github.com/conda-forge/petsc4py-feedstock" xlink:title="petsc4py">
<ellipse fill="#000000" stroke="black" cx="827.76" cy="-566" rx="56.47" ry="18"/>
<text text-anchor="middle" x="827.76" y="-561.33" font-family="Times,serif" font-size="14.00" fill="white">petsc4py</text>
</a>
</g>
</g>
<!-- petsc4py&#45;&gt;fenics -->
<g id="edge4" class="edge">
<title>petsc4py&#45;&gt;fenics</title>
<path fill="none" stroke="black" d="M800.29,-549.81C786.75,-540.74 771.66,-527.88 763.76,-512 754.52,-493.46 753.85,-469.97 755.32,-451.78"/>
<polygon fill="black" stroke="black" points="758.79,-452.25 756.39,-441.93 751.83,-451.49 758.79,-452.25"/>
</g>
<!-- slepc4py -->
<g id="node8" class="node">
<title>slepc4py</title>
<g id="a_node8"><a xlink:href="https://github.com/conda-forge/slepc4py-feedstock" xlink:title="slepc4py">
<ellipse fill="#fde725" stroke="black" cx="827.76" cy="-494" rx="55.42" ry="18"/>
<text text-anchor="middle" x="827.76" y="-489.32" font-family="Times,serif" font-size="14.00">slepc4py</text>
</a>
</g>
</g>
<!-- petsc4py&#45;&gt;slepc4py -->
<g id="edge5" class="edge">
<title>petsc4py&#45;&gt;slepc4py</title>
<path fill="none" stroke="black" d="M827.76,-547.7C827.76,-540.41 827.76,-531.73 827.76,-523.54"/>
<polygon fill="black" stroke="black" points="831.26,-523.62 827.76,-513.62 824.26,-523.62 831.26,-523.62"/>
</g>
<!-- fenics&#45;dolfinx -->
<g id="node9" class="node">
<title>fenics&#45;dolfinx</title>
<g id="a_node9"><a xlink:href="https://github.com/conda-forge/fenics-dolfinx-feedstock" xlink:title="fenics dolfinx">
<ellipse fill="#fde725" stroke="black" cx="902.76" cy="-422" rx="77.52" ry="18"/>
<text text-anchor="middle" x="902.76" y="-417.32" font-family="Times,serif" font-size="14.00">fenics dolfinx</text>
</a>
</g>
</g>
<!-- petsc4py&#45;&gt;fenics&#45;dolfinx -->
<g id="edge6" class="edge">
<title>petsc4py&#45;&gt;fenics&#45;dolfinx</title>
<path fill="none" stroke="black" d="M854.4,-549.77C867.88,-540.61 883.16,-527.69 891.76,-512 901.83,-493.61 904.35,-469.93 904.47,-451.62"/>
<polygon fill="black" stroke="black" points="907.97,-451.65 904.28,-441.71 900.97,-451.78 907.97,-451.65"/>
</g>
<!-- slepc4py&#45;&gt;fenics -->
<g id="edge7" class="edge">
<title>slepc4py&#45;&gt;fenics</title>
<path fill="none" stroke="black" d="M811.64,-476.41C803.13,-467.66 792.54,-456.75 783.15,-447.08"/>
<polygon fill="black" stroke="black" points="785.82,-444.81 776.34,-440.07 780.8,-449.69 785.82,-444.81"/>
</g>
<!-- slepc4py&#45;&gt;fenics&#45;dolfinx -->
<g id="edge8" class="edge">
<title>slepc4py&#45;&gt;fenics&#45;dolfinx</title>
<path fill="none" stroke="black" d="M845.15,-476.76C854.41,-468.12 866,-457.3 876.35,-447.65"/>
<polygon fill="black" stroke="black" points="878.64,-450.29 883.56,-440.91 873.87,-445.18 878.64,-450.29"/>
</g>
<!-- dolfinx_mpc -->
<g id="node10" class="node">
<title>dolfinx_mpc</title>
<g id="a_node10"><a xlink:href="https://github.com/conda-forge/dolfinx_mpc-feedstock" xlink:title="dolfinx_mpc">
<ellipse fill="#fde725" stroke="black" cx="902.76" cy="-350" rx="70.68" ry="18"/>
<text text-anchor="middle" x="902.76" y="-345.32" font-family="Times,serif" font-size="14.00">dolfinx_mpc</text>
</a>
</g>
</g>
<!-- fenics&#45;dolfinx&#45;&gt;dolfinx_mpc -->
<g id="edge9" class="edge">
<title>fenics&#45;dolfinx&#45;&gt;dolfinx_mpc</title>
<path fill="none" stroke="black" d="M902.76,-403.7C902.76,-396.41 902.76,-387.73 902.76,-379.54"/>
<polygon fill="black" stroke="black" points="906.26,-379.62 902.76,-369.62 899.26,-379.62 906.26,-379.62"/>
</g>
<!-- asap3 -->
<g id="node12" class="node">
<title>asap3</title>
<g id="a_node12"><a xlink:href="https://github.com/conda-forge/asap3-feedstock/pull/47" xlink:title="asap3 ✓">
<ellipse fill="#31688e" stroke="black" cx="435.76" cy="-1186" rx="48.58" ry="18"/>
<text text-anchor="middle" x="435.76" y="-1181.33" font-family="Times,serif" font-size="14.00" fill="white">asap3 ✓</text>
</a>
</g>
</g>
<!-- trilinos&#45;&gt;asap3 -->
<!-- lalinference -->
<g id="node16" class="node">
<title>lalinference</title>
<g id="a_node16"><a xlink:href="https://github.com/conda-forge/lalinference-feedstock/pull/63" xlink:title="lalinference ✓">
<ellipse fill="#31688e" stroke="black" cx="435.76" cy="-1114" rx="78.04" ry="18"/>
<text text-anchor="middle" x="435.76" y="-1109.33" font-family="Times,serif" font-size="14.00" fill="white">lalinference ✓</text>
</a>
</g>
</g>
<!-- asap3&#45;&gt;lalinference -->
<!-- lammps -->
<g id="node13" class="node">
<title>lammps</title>
<g id="a_node13"><a xlink:href="https://github.com/conda-forge/lammps-feedstock" xlink:title="lammps">
<ellipse fill="#35b779" stroke="black" cx="130.76" cy="-162" rx="50.68" ry="18"/>
<text text-anchor="middle" x="130.76" y="-157.32" font-family="Times,serif" font-size="14.00">lammps</text>
</a>
</g>
</g>
<!-- deepmd&#45;kit -->
<g id="node14" class="node">
<title>deepmd&#45;kit</title>
<g id="a_node14"><a xlink:href="https://github.com/conda-forge/deepmd-kit-feedstock" xlink:title="deepmd kit">
<ellipse fill="#fde725" stroke="black" cx="82.76" cy="-90" rx="67.52" ry="18"/>
<text text-anchor="middle" x="82.76" y="-85.33" font-family="Times,serif" font-size="14.00">deepmd kit</text>
</a>
</g>
</g>
<!-- lammps&#45;&gt;deepmd&#45;kit -->
<g id="edge12" class="edge">
<title>lammps&#45;&gt;deepmd&#45;kit</title>
<path fill="none" stroke="black" d="M119.14,-144.05C113.59,-135.97 106.84,-126.12 100.66,-117.11"/>
<polygon fill="black" stroke="black" points="103.67,-115.31 95.12,-109.04 97.89,-119.26 103.67,-115.31"/>
</g>
<!-- parsplice -->
<g id="node15" class="node">
<title>parsplice</title>
<g id="a_node15"><a xlink:href="https://github.com/conda-forge/parsplice-feedstock/pull/13" xlink:title="parsplice ❎">
<ellipse fill="#31688e" stroke="black" cx="178.76" cy="-18" rx="72.25" ry="18"/>
<text text-anchor="middle" x="178.76" y="-13.32" font-family="Times,serif" font-size="14.00" fill="white">parsplice ❎</text>
</a>
</g>
</g>
<!-- lammps&#45;&gt;parsplice -->
<g id="edge13" class="edge">
<title>lammps&#45;&gt;parsplice</title>
<path fill="none" stroke="black" d="M141.75,-143.94C147.83,-133.84 155.08,-120.59 159.76,-108 166.99,-88.5 171.81,-65.53 174.78,-47.8"/>
<polygon fill="black" stroke="black" points="178.23,-48.4 176.32,-37.98 171.32,-47.32 178.23,-48.4"/>
</g>
<!-- faunus -->
<g id="node17" class="node">
<title>faunus</title>
<g id="a_node17"><a xlink:href="https://github.com/conda-forge/faunus-feedstock/pull/49" xlink:title="faunus ❎">
<ellipse fill="#31688e" stroke="black" cx="435.76" cy="-1042" rx="60.15" ry="18"/>
<text text-anchor="middle" x="435.76" y="-1037.33" font-family="Times,serif" font-size="14.00" fill="white">faunus ❎</text>
</a>
</g>
</g>
<!-- lalinference&#45;&gt;faunus -->
<!-- parabem -->
<g id="node18" class="node">
<title>parabem</title>
<g id="a_node18"><a xlink:href="https://github.com/conda-forge/parabem-feedstock/pull/17" xlink:title="parabem ❎">
<ellipse fill="#31688e" stroke="black" cx="435.76" cy="-970" rx="70.68" ry="18"/>
<text text-anchor="middle" x="435.76" y="-965.33" font-family="Times,serif" font-size="14.00" fill="white">parabem ❎</text>
</a>
</g>
</g>
<!-- faunus&#45;&gt;parabem -->
<!-- ambertools -->
<g id="node19" class="node">
<title>ambertools</title>
<g id="a_node19"><a xlink:href="https://github.com/conda-forge/ambertools-feedstock/pull/147" xlink:title="ambertools ❎">
<ellipse fill="#31688e" stroke="black" cx="435.76" cy="-898" rx="82.77" ry="18"/>
<text text-anchor="middle" x="435.76" y="-893.33" font-family="Times,serif" font-size="14.00" fill="white">ambertools ❎</text>
</a>
</g>
</g>
<!-- parabem&#45;&gt;ambertools -->
<!-- dakota -->
<g id="node21" class="node">
<title>dakota</title>
<g id="a_node21"><a xlink:href="https://github.com/conda-forge/dakota-feedstock/pull/49" xlink:title="dakota ❎">
<ellipse fill="#31688e" stroke="black" cx="435.76" cy="-826" rx="60.15" ry="18"/>
<text text-anchor="middle" x="435.76" y="-821.33" font-family="Times,serif" font-size="14.00" fill="white">dakota ❎</text>
</a>
</g>
</g>
<!-- ambertools&#45;&gt;dakota -->
<!-- gpaw -->
<g id="node20" class="node">
<title>gpaw</title>
<g id="a_node20"><a xlink:href="https://github.com/conda-forge/gpaw-feedstock" xlink:title="gpaw">
<ellipse fill="#fde725" stroke="black" cx="926.76" cy="-1078" rx="38.06" ry="18"/>
<text text-anchor="middle" x="926.76" y="-1073.33" font-family="Times,serif" font-size="14.00">gpaw</text>
</a>
</g>
</g>
<!-- scorec -->
<g id="node22" class="node">
<title>scorec</title>
<g id="a_node22"><a xlink:href="https://github.com/conda-forge/scorec-feedstock/pull/12" xlink:title="scorec ❎">
<ellipse fill="#31688e" stroke="black" cx="435.76" cy="-754" rx="58.57" ry="18"/>
<text text-anchor="middle" x="435.76" y="-749.33" font-family="Times,serif" font-size="14.00" fill="white">scorec ❎</text>
</a>
</g>
</g>
<!-- dakota&#45;&gt;scorec -->
<!-- cp2k -->
<g id="node23" class="node">
<title>cp2k</title>
<g id="a_node23"><a xlink:href="https://github.com/conda-forge/cp2k-feedstock" xlink:title="cp2k">
<ellipse fill="#fde725" stroke="black" cx="435.76" cy="-18" rx="34.9" ry="18"/>
<text text-anchor="middle" x="435.76" y="-13.32" font-family="Times,serif" font-size="14.00">cp2k</text>
</a>
</g>
</g>
<!-- triqs -->
<g id="node24" class="node">
<title>triqs</title>
<g id="a_node24"><a xlink:href="https://github.com/conda-forge/triqs-feedstock/pull/64" xlink:title="triqs ❎">
<ellipse fill="#31688e" stroke="black" cx="419.76" cy="-566" rx="50.16" ry="18"/>
<text text-anchor="middle" x="419.76" y="-561.33" font-family="Times,serif" font-size="14.00" fill="white">triqs ❎</text>
</a>
</g>
</g>
<!-- triqs_tprf -->
<g id="node25" class="node">
<title>triqs_tprf</title>
<g id="a_node25"><a xlink:href="https://github.com/conda-forge/triqs_tprf-feedstock" xlink:title="triqs_tprf">
<ellipse fill="#fde725" stroke="black" cx="332.76" cy="-494" rx="58.57" ry="18"/>
<text text-anchor="middle" x="332.76" y="-489.32" font-family="Times,serif" font-size="14.00">triqs_tprf</text>
</a>
</g>
</g>
<!-- triqs&#45;&gt;triqs_tprf -->
<g id="edge20" class="edge">
<title>triqs&#45;&gt;triqs_tprf</title>
<path fill="none" stroke="black" d="M400.01,-549.12C388.72,-540.03 374.34,-528.46 361.78,-518.35"/>
<polygon fill="black" stroke="black" points="364.19,-515.8 354.2,-512.26 359.8,-521.25 364.19,-515.8"/>
</g>
<!-- triqs_cthyb -->
<g id="node26" class="node">
<title>triqs_cthyb</title>
<g id="a_node26"><a xlink:href="https://github.com/conda-forge/triqs_cthyb-feedstock" xlink:title="triqs_cthyb">
<ellipse fill="#fde725" stroke="black" cx="419.76" cy="-422" rx="67.52" ry="18"/>
<text text-anchor="middle" x="419.76" y="-417.32" font-family="Times,serif" font-size="14.00">triqs_cthyb</text>
</a>
</g>
</g>
<!-- triqs&#45;&gt;triqs_cthyb -->
<g id="edge21" class="edge">
<title>triqs&#45;&gt;triqs_cthyb</title>
<path fill="none" stroke="black" d="M419.76,-547.59C419.76,-523.61 419.76,-480.14 419.76,-451.42"/>
<polygon fill="black" stroke="black" points="423.26,-451.62 419.76,-441.62 416.26,-451.62 423.26,-451.62"/>
</g>
<!-- triqs_dft_tools -->
<g id="node27" class="node">
<title>triqs_dft_tools</title>
<g id="a_node27"><a xlink:href="https://github.com/conda-forge/triqs_dft_tools-feedstock" xlink:title="triqs_dft_tools">
<ellipse fill="#fde725" stroke="black" cx="515.76" cy="-350" rx="82.77" ry="18"/>
<text text-anchor="middle" x="515.76" y="-345.32" font-family="Times,serif" font-size="14.00">triqs_dft_tools</text>
</a>
</g>
</g>
<!-- triqs&#45;&gt;triqs_dft_tools -->
<g id="edge22" class="edge">
<title>triqs&#45;&gt;triqs_dft_tools</title>
<path fill="none" stroke="black" d="M432.72,-548.21C449.93,-525.11 480.07,-481.64 496.76,-440 504.54,-420.58 509.36,-397.43 512.19,-379.61"/>
<polygon fill="black" stroke="black" points="515.65,-380.14 513.63,-369.74 508.72,-379.13 515.65,-380.14"/>
</g>
<!-- conduit -->
<g id="node28" class="node">
<title>conduit</title>
<g id="a_node28"><a xlink:href="https://github.com/conda-forge/conduit-feedstock/pull/46" xlink:title="conduit ✓">
<ellipse fill="#31688e" stroke="black" cx="132.76" cy="-1474" rx="56.47" ry="18"/>
<text text-anchor="middle" x="132.76" y="-1469.33" font-family="Times,serif" font-size="14.00" fill="white">conduit ✓</text>
</a>
</g>
</g>
<!-- damask -->
<g id="node29" class="node">
<title>damask</title>
<g id="a_node29"><a xlink:href="https://github.com/conda-forge/damask-feedstock/pull/160" xlink:title="damask ✓">
<ellipse fill="#31688e" stroke="black" cx="132.76" cy="-1402" rx="57.52" ry="18"/>
<text text-anchor="middle" x="132.76" y="-1397.33" font-family="Times,serif" font-size="14.00" fill="white">damask ✓</text>
</a>
</g>
</g>
<!-- conduit&#45;&gt;damask -->
<!-- parsmurf -->
<g id="node30" class="node">
<title>parsmurf</title>
<g id="a_node30"><a xlink:href="https://github.com/conda-forge/parsmurf-feedstock/pull/4" xlink:title="parsmurf ❎">
<ellipse fill="#31688e" stroke="black" cx="132.76" cy="-1330" rx="72.78" ry="18"/>
<text text-anchor="middle" x="132.76" y="-1325.33" font-family="Times,serif" font-size="14.00" fill="white">parsmurf ❎</text>
</a>
</g>
</g>
<!-- damask&#45;&gt;parsmurf -->
<!-- dedalus -->
<g id="node34" class="node">
<title>dedalus</title>
<g id="a_node34"><a xlink:href="https://github.com/conda-forge/dedalus-feedstock/pull/22" xlink:title="dedalus ✓">
<ellipse fill="#31688e" stroke="black" cx="132.76" cy="-1258" rx="58.05" ry="18"/>
<text text-anchor="middle" x="132.76" y="-1253.33" font-family="Times,serif" font-size="14.00" fill="white">dedalus ✓</text>
</a>
</g>
</g>
<!-- parsmurf&#45;&gt;dedalus -->
<!-- qe -->
<g id="node31" class="node">
<title>qe</title>
<g id="a_node31"><a xlink:href="https://github.com/conda-forge/qe-feedstock" xlink:title="qe">
<ellipse fill="#fde725" stroke="black" cx="992.76" cy="-1006" rx="27" ry="18"/>
<text text-anchor="middle" x="992.76" y="-1001.33" font-family="Times,serif" font-size="14.00">qe</text>
</a>
</g>
</g>
<!-- dftbplus -->
<g id="node32" class="node">
<title>dftbplus</title>
<g id="a_node32"><a xlink:href="https://github.com/conda-forge/dftbplus-feedstock" xlink:title="dftbplus">
<ellipse fill="#fde725" stroke="black" cx="698.76" cy="-1006" rx="52.79" ry="18"/>
<text text-anchor="middle" x="698.76" y="-1001.33" font-family="Times,serif" font-size="14.00">dftbplus</text>
</a>
</g>
</g>
<!-- libmbd -->
<g id="node33" class="node">
<title>libmbd</title>
<g id="a_node33"><a xlink:href="https://github.com/conda-forge/libmbd-feedstock" xlink:title="libmbd">
<ellipse fill="#fde725" stroke="black" cx="698.76" cy="-1078" rx="45.95" ry="18"/>
<text text-anchor="middle" x="698.76" y="-1073.33" font-family="Times,serif" font-size="14.00">libmbd</text>
</a>
</g>
</g>
<!-- libmbd&#45;&gt;dftbplus -->
<g id="edge25" class="edge">
<title>libmbd&#45;&gt;dftbplus</title>
<path fill="none" stroke="black" d="M698.76,-1059.7C698.76,-1052.41 698.76,-1043.73 698.76,-1035.54"/>
<polygon fill="black" stroke="black" points="702.26,-1035.62 698.76,-1025.62 695.26,-1035.62 702.26,-1035.62"/>
</g>
<!-- yambo -->
<g id="node35" class="node">
<title>yambo</title>
<g id="a_node35"><a xlink:href="https://github.com/conda-forge/yambo-feedstock/pull/30" xlink:title="yambo ❎">
<ellipse fill="#31688e" stroke="black" cx="132.76" cy="-1186" rx="59.63" ry="18"/>
<text text-anchor="middle" x="132.76" y="-1181.33" font-family="Times,serif" font-size="14.00" fill="white">yambo ❎</text>
</a>
</g>
</g>
<!-- dedalus&#45;&gt;yambo -->
<!-- ondamonitor -->
<g id="node38" class="node">
<title>ondamonitor</title>
<g id="a_node38"><a xlink:href="https://github.com/conda-forge/ondamonitor-feedstock/pull/12" xlink:title="ondamonitor ❎">
<ellipse fill="#31688e" stroke="black" cx="132.76" cy="-1114" rx="90.14" ry="18"/>
<text text-anchor="middle" x="132.76" y="-1109.33" font-family="Times,serif" font-size="14.00" fill="white">ondamonitor ❎</text>
</a>
</g>
</g>
<!-- yambo&#45;&gt;ondamonitor -->
<!-- libnegf -->
<g id="node36" class="node">
<title>libnegf</title>
<g id="a_node36"><a xlink:href="https://github.com/conda-forge/libnegf-feedstock/pull/17" xlink:title="libnegf ✓">
<ellipse fill="#31688e" stroke="black" cx="816.76" cy="-1078" rx="53.84" ry="18"/>
<text text-anchor="middle" x="816.76" y="-1073.33" font-family="Times,serif" font-size="14.00" fill="white">libnegf ✓</text>
</a>
</g>
</g>
<!-- libnegf&#45;&gt;dftbplus -->
<g id="edge28" class="edge">
<title>libnegf&#45;&gt;dftbplus</title>
<path fill="none" stroke="black" d="M791.15,-1061.81C774.45,-1051.9 752.43,-1038.84 734.07,-1027.95"/>
<polygon fill="black" stroke="black" points="736,-1025.02 725.61,-1022.93 732.43,-1031.04 736,-1025.02"/>
</g>
<!-- sirius -->
<g id="node37" class="node">
<title>sirius</title>
<g id="a_node37"><a xlink:href="https://github.com/conda-forge/sirius-feedstock" xlink:title="sirius">
<ellipse fill="#fde725" stroke="black" cx="435.76" cy="-90" rx="39.11" ry="18"/>
<text text-anchor="middle" x="435.76" y="-85.33" font-family="Times,serif" font-size="14.00">sirius</text>
</a>
</g>
</g>
<!-- sirius&#45;&gt;cp2k -->
<g id="edge29" class="edge">
<title>sirius&#45;&gt;cp2k</title>
<path fill="none" stroke="black" d="M435.76,-71.7C435.76,-64.41 435.76,-55.73 435.76,-47.54"/>
<polygon fill="black" stroke="black" points="439.26,-47.62 435.76,-37.62 432.26,-47.62 439.26,-47.62"/>
</g>
<!-- alamode -->
<g id="node39" class="node">
<title>alamode</title>
<g id="a_node39"><a xlink:href="https://github.com/conda-forge/alamode-feedstock/pull/12" xlink:title="alamode ❎">
<ellipse fill="#31688e" stroke="black" cx="132.76" cy="-1042" rx="68.57" ry="18"/>
<text text-anchor="middle" x="132.76" y="-1037.33" font-family="Times,serif" font-size="14.00" fill="white">alamode ❎</text>
</a>
</g>
</g>
<!-- ondamonitor&#45;&gt;alamode -->
<!-- timemory -->
<g id="node40" class="node">
<title>timemory</title>
<g id="a_node40"><a xlink:href="https://github.com/conda-forge/timemory-feedstock" xlink:title="timemory">
<ellipse fill="#000000" stroke="black" cx="132.76" cy="-970" rx="59.63" ry="18"/>
<text text-anchor="middle" x="132.76" y="-965.33" font-family="Times,serif" font-size="14.00" fill="white">timemory</text>
</a>
</g>
</g>
<!-- alamode&#45;&gt;timemory -->
<!-- pexsi -->
<g id="node41" class="node">
<title>pexsi</title>
<g id="a_node41"><a xlink:href="https://github.com/conda-forge/pexsi-feedstock/pull/10" xlink:title="pexsi ❎">
<ellipse fill="#31688e" stroke="black" cx="132.76" cy="-898" rx="52.79" ry="18"/>
<text text-anchor="middle" x="132.76" y="-893.33" font-family="Times,serif" font-size="14.00" fill="white">pexsi ❎</text>
</a>
</g>
</g>
<!-- timemory&#45;&gt;pexsi -->
<!-- eigenexa -->
<g id="node48" class="node">
<title>eigenexa</title>
<g id="a_node48"><a xlink:href="https://github.com/conda-forge/eigenexa-feedstock/pull/3" xlink:title="eigenexa ❎">
<ellipse fill="#31688e" stroke="black" cx="132.76" cy="-826" rx="71.2" ry="18"/>
<text text-anchor="middle" x="132.76" y="-821.33" font-family="Times,serif" font-size="14.00" fill="white">eigenexa ❎</text>
</a>
</g>
</g>
<!-- pexsi&#45;&gt;eigenexa -->
<!-- costa_variants -->
<g id="node42" class="node">
<title>costa_variants</title>
<g id="a_node42"><a xlink:href="https://github.com/conda-forge/costa_variants-feedstock/pull/4" xlink:title="costa_variants ❎">
<ellipse fill="#31688e" stroke="black" cx="435.76" cy="-162" rx="98.56" ry="18"/>
<text text-anchor="middle" x="435.76" y="-157.32" font-family="Times,serif" font-size="14.00" fill="white">costa_variants ❎</text>
</a>
</g>
</g>
<!-- costa_variants&#45;&gt;sirius -->
<g id="edge34" class="edge">
<title>costa_variants&#45;&gt;sirius</title>
<path fill="none" stroke="black" d="M435.76,-143.7C435.76,-136.41 435.76,-127.73 435.76,-119.54"/>
<polygon fill="black" stroke="black" points="439.26,-119.62 435.76,-109.62 432.26,-119.62 439.26,-119.62"/>
</g>
<!-- elpa -->
<g id="node43" class="node">
<title>elpa</title>
<g id="a_node43"><a xlink:href="https://github.com/conda-forge/elpa-feedstock/pull/26" xlink:title="elpa ❎">
<ellipse fill="#31688e" stroke="black" cx="926.76" cy="-1222" rx="47.53" ry="18"/>
<text text-anchor="middle" x="926.76" y="-1217.33" font-family="Times,serif" font-size="14.00" fill="white">elpa ❎</text>
</a>
</g>
</g>
<!-- elpa&#45;&gt;siesta -->
<g id="edge35" class="edge">
<title>elpa&#45;&gt;siesta</title>
<path fill="none" stroke="black" d="M910.75,-1204.76C901.92,-1195.8 890.79,-1184.51 881.01,-1174.59"/>
<polygon fill="black" stroke="black" points="883.77,-1172.41 874.26,-1167.74 878.79,-1177.32 883.77,-1172.41"/>
</g>
<!-- elpa&#45;&gt;gpaw -->
<g id="edge36" class="edge">
<title>elpa&#45;&gt;gpaw</title>
<path fill="none" stroke="black" d="M926.76,-1203.59C926.76,-1179.61 926.76,-1136.14 926.76,-1107.42"/>
<polygon fill="black" stroke="black" points="930.26,-1107.62 926.76,-1097.62 923.26,-1107.62 930.26,-1107.62"/>
</g>
<!-- elpa&#45;&gt;qe -->
<g id="edge37" class="edge">
<title>elpa&#45;&gt;qe</title>
<path fill="none" stroke="black" d="M934.12,-1203.89C944.17,-1180.06 962.22,-1135.38 973.76,-1096 979.6,-1076.04 984.46,-1053.08 987.8,-1035.48"/>
<polygon fill="black" stroke="black" points="991.22,-1036.21 989.59,-1025.74 984.34,-1034.94 991.22,-1036.21"/>
</g>
<!-- elsi -->
<g id="node44" class="node">
<title>elsi</title>
<g id="a_node44"><a xlink:href="https://github.com/conda-forge/elsi-feedstock" xlink:title="elsi">
<ellipse fill="#fde725" stroke="black" cx="698.76" cy="-1150" rx="28.59" ry="18"/>
<text text-anchor="middle" x="698.76" y="-1145.33" font-family="Times,serif" font-size="14.00">elsi</text>
</a>
</g>
</g>
<!-- elpa&#45;&gt;elsi -->
<g id="edge38" class="edge">
<title>elpa&#45;&gt;elsi</title>
<path fill="none" stroke="black" d="M890.63,-1209.91C848.07,-1196.84 777.78,-1175.26 735.12,-1162.16"/>
<polygon fill="black" stroke="black" points="736.16,-1158.82 725.57,-1159.23 734.1,-1165.51 736.16,-1158.82"/>
</g>
<!-- abacus -->
<g id="node45" class="node">
<title>abacus</title>
<g id="a_node45"><a xlink:href="https://github.com/conda-forge/abacus-feedstock" xlink:title="abacus">
<ellipse fill="#fde725" stroke="black" cx="1047.76" cy="-934" rx="45.95" ry="18"/>
<text text-anchor="middle" x="1047.76" y="-929.33" font-family="Times,serif" font-size="14.00">abacus</text>
</a>
</g>
</g>
<!-- elpa&#45;&gt;abacus -->
<g id="edge39" class="edge">
<title>elpa&#45;&gt;abacus</title>
<path fill="none" stroke="black" d="M941.63,-1204.68C950.3,-1194.61 961.01,-1181.15 968.76,-1168 1003.95,-1108.26 1008.1,-1090.18 1028.76,-1024 1034.95,-1004.15 1039.8,-981.18 1043.05,-963.55"/>
<polygon fill="black" stroke="black" points="1046.48,-964.25 1044.77,-953.79 1039.58,-963.03 1046.48,-964.25"/>
</g>
<!-- elsi&#45;&gt;dftbplus -->
<g id="edge40" class="edge">
<title>elsi&#45;&gt;dftbplus</title>
<path fill="none" stroke="black" d="M679.31,-1136.54C666.56,-1127.13 650.97,-1112.96 643.76,-1096 637.5,-1081.28 637.5,-1074.72 643.76,-1060 648.67,-1048.44 657.48,-1038.18 666.62,-1029.84"/>
<polygon fill="black" stroke="black" points="668.84,-1032.55 674.23,-1023.42 664.33,-1027.2 668.84,-1032.55"/>
</g>
<!-- elsi&#45;&gt;libmbd -->
<g id="edge41" class="edge">
<title>elsi&#45;&gt;libmbd</title>
<path fill="none" stroke="black" d="M698.76,-1131.7C698.76,-1124.41 698.76,-1115.73 698.76,-1107.54"/>
<polygon fill="black" stroke="black" points="702.26,-1107.62 698.76,-1097.62 695.26,-1107.62 702.26,-1107.62"/>
</g>
<!-- libomm -->
<g id="node46" class="node">
<title>libomm</title>
<g id="a_node46"><a xlink:href="https://github.com/conda-forge/libomm-feedstock" xlink:title="libomm">
<ellipse fill="#fde725" stroke="black" cx="737.76" cy="-1222" rx="48.58" ry="18"/>
<text text-anchor="middle" x="737.76" y="-1217.33" font-family="Times,serif" font-size="14.00">libomm</text>
</a>
</g>
</g>
<!-- libomm&#45;&gt;elsi -->
<g id="edge42" class="edge">
<title>libomm&#45;&gt;elsi</title>
<path fill="none" stroke="black" d="M728.31,-1204.05C723.84,-1196.03 718.4,-1186.26 713.41,-1177.3"/>
<polygon fill="black" stroke="black" points="716.5,-1175.66 708.58,-1168.63 710.39,-1179.07 716.5,-1175.66"/>
</g>
<!-- matrixswitch -->
<g id="node47" class="node">
<title>matrixswitch</title>
<g id="a_node47"><a xlink:href="https://github.com/conda-forge/matrixswitch-feedstock/pull/7" xlink:title="matrixswitch ❎">
<ellipse fill="#31688e" stroke="black" cx="698.76" cy="-1294" rx="92.25" ry="18"/>
<text text-anchor="middle" x="698.76" y="-1289.33" font-family="Times,serif" font-size="14.00" fill="white">matrixswitch ❎</text>
</a>
</g>
</g>
<!-- matrixswitch&#45;&gt;elsi -->
<g id="edge43" class="edge">
<title>matrixswitch&#45;&gt;elsi</title>
<path fill="none" stroke="black" d="M690.86,-1275.75C686.65,-1265.58 681.9,-1252.33 679.76,-1240 677.01,-1224.24 677.01,-1219.76 679.76,-1204 681.23,-1195.49 683.96,-1186.54 686.89,-1178.47"/>
<polygon fill="black" stroke="black" points="690.13,-1179.78 690.51,-1169.19 683.61,-1177.23 690.13,-1179.78"/>
</g>
<!-- matrixswitch&#45;&gt;libomm -->
<g id="edge44" class="edge">
<title>matrixswitch&#45;&gt;libomm</title>
<path fill="none" stroke="black" d="M708.4,-1275.7C712.69,-1267.98 717.86,-1258.71 722.65,-1250.11"/>
<polygon fill="black" stroke="black" points="725.68,-1251.87 727.49,-1241.43 719.56,-1248.46 725.68,-1251.87"/>
</g>
<!-- fleur -->
<g id="node49" class="node">
<title>fleur</title>
<g id="a_node49"><a xlink:href="https://github.com/conda-forge/fleur-feedstock/pull/19" xlink:title="fleur ✓">
<ellipse fill="#31688e" stroke="black" cx="132.76" cy="-754" rx="42.26" ry="18"/>
<text text-anchor="middle" x="132.76" y="-749.33" font-family="Times,serif" font-size="14.00" fill="white">fleur ✓</text>
</a>
</g>
</g>
<!-- eigenexa&#45;&gt;fleur -->
<!-- edrixs -->
<g id="node50" class="node">
<title>edrixs</title>
<g id="a_node50"><a xlink:href="https://github.com/conda-forge/edrixs-feedstock/pull/14" xlink:title="edrixs ❎">
<ellipse fill="#31688e" stroke="black" cx="132.76" cy="-710" rx="57.52" ry="18"/>
<text text-anchor="middle" x="132.76" y="-705.33" font-family="Times,serif" font-size="14.00" fill="white">edrixs ❎</text>
</a>
</g>
</g>
<!-- bigdft&#45;suite -->
<g id="node51" class="node">
<title>bigdft&#45;suite</title>
<g id="a_node51"><a xlink:href="https://github.com/conda-forge/bigdft-suite-feedstock/pull/13" xlink:title="bigdft suite ✓">
<ellipse fill="#31688e" stroke="black" cx="132.76" cy="-638" rx="76.99" ry="18"/>
<text text-anchor="middle" x="132.76" y="-633.33" font-family="Times,serif" font-size="14.00" fill="white">bigdft suite ✓</text>
</a>
</g>
</g>
<!-- edrixs&#45;&gt;bigdft&#45;suite -->
<!-- openphase -->
<g id="node52" class="node">
<title>openphase</title>
<g id="a_node52"><a xlink:href="https://github.com/conda-forge/openphase-feedstock/pull/2" xlink:title="openphase ❎">
<ellipse fill="#31688e" stroke="black" cx="132.76" cy="-566" rx="80.14" ry="18"/>
<text text-anchor="middle" x="132.76" y="-561.33" font-family="Times,serif" font-size="14.00" fill="white">openphase ❎</text>
</a>
</g>
</g>
<!-- bigdft&#45;suite&#45;&gt;openphase -->
<!-- sparc&#45;x -->
<g id="node53" class="node">
<title>sparc&#45;x</title>
<g id="a_node53"><a xlink:href="https://github.com/conda-forge/sparc-x-feedstock/pull/9" xlink:title="sparc x ❎">
<ellipse fill="#31688e" stroke="black" cx="132.76" cy="-494" rx="62.78" ry="18"/>
<text text-anchor="middle" x="132.76" y="-489.32" font-family="Times,serif" font-size="14.00" fill="white">sparc x ❎</text>
</a>
</g>
</g>
<!-- openphase&#45;&gt;sparc&#45;x -->
<!-- heat -->
<g id="node54" class="node">
<title>heat</title>
<g id="a_node54"><a xlink:href="https://github.com/conda-forge/heat-feedstock/pull/15" xlink:title="heat ❎">
<ellipse fill="#31688e" stroke="black" cx="132.76" cy="-422" rx="48.58" ry="18"/>
<text text-anchor="middle" x="132.76" y="-417.32" font-family="Times,serif" font-size="14.00" fill="white">heat ❎</text>
</a>
</g>
</g>
<!-- sparc&#45;x&#45;&gt;heat -->
<!-- reef3d -->
<g id="node55" class="node">
<title>reef3d</title>
<g id="a_node55"><a xlink:href="https://github.com/conda-forge/reef3d-feedstock/pull/11" xlink:title="reef3d ✓">
<ellipse fill="#31688e" stroke="black" cx="132.76" cy="-350" rx="51.74" ry="18"/>
<text text-anchor="middle" x="132.76" y="-345.32" font-family="Times,serif" font-size="14.00" fill="white">reef3d ✓</text>
</a>
</g>
</g>
<!-- heat&#45;&gt;reef3d -->
<!-- fluidfft&#45;mpi_with_fftw -->
<g id="node56" class="node">
<title>fluidfft&#45;mpi_with_fftw</title>
<g id="a_node56"><a xlink:href="https://github.com/conda-forge/fluidfft-mpi_with_fftw-feedstock/pull/1" xlink:title="fluidfft mpi_with_fftw ❎">
<ellipse fill="#31688e" stroke="black" cx="132.76" cy="-278" rx="132.76" ry="18"/>
<text text-anchor="middle" x="132.76" y="-273.32" font-family="Times,serif" font-size="14.00" fill="white">fluidfft mpi_with_fftw ❎</text>
</a>
</g>
</g>
<!-- reef3d&#45;&gt;fluidfft&#45;mpi_with_fftw -->
<!-- eatpy -->
<g id="node57" class="node">
<title>eatpy</title>
<g id="a_node57"><a xlink:href="https://github.com/conda-forge/eatpy-feedstock" xlink:title="eatpy">
<ellipse fill="#000000" stroke="black" cx="132.76" cy="-206" rx="39.11" ry="18"/>
<text text-anchor="middle" x="132.76" y="-201.32" font-family="Times,serif" font-size="14.00" fill="white">eatpy</text>
</a>
</g>
</g>
<!-- fluidfft&#45;mpi_with_fftw&#45;&gt;eatpy -->
</g>
</svg>
