<?xml version="1.0" encoding="UTF-8" standalone="no"?>
<!DOCTYPE svg PUBLIC "-//W3C//DTD SVG 1.1//EN"
 "http://www.w3.org/Graphics/SVG/1.1/DTD/svg11.dtd">
<!-- Generated by graphviz version 11.0.0 (20240519.1550)
 -->
<!-- Pages: 1 -->
<svg width="937pt" height="1212pt"
 viewBox="0.00 0.00 936.70 1212.00" xmlns="http://www.w3.org/2000/svg" xmlns:xlink="http://www.w3.org/1999/xlink">
<g id="graph0" class="graph" transform="scale(1 1) rotate(0) translate(4 1208)">
<polygon fill="white" stroke="none" points="-4,4 -4,-1208 932.7,-1208 932.7,4 -4,4"/>
<!-- fenics -->
<g id="node1" class="node">
<title>fenics</title>
<g id="a_node1"><a xlink:href="https://github.com/conda-forge/fenics-feedstock" xlink:title="fenics">
<ellipse fill="#fde725" stroke="black" cx="314.76" cy="-278" rx="40.69" ry="18"/>
<text text-anchor="middle" x="314.76" y="-273.32" font-family="Times,serif" font-size="14.00">fenics</text>
</a>
</g>
</g>
<!-- mshr -->
<g id="node2" class="node">
<title>mshr</title>
<g id="a_node2"><a xlink:href="https://github.com/conda-forge/mshr-feedstock" xlink:title="mshr">
<ellipse fill="#fde725" stroke="black" cx="314.76" cy="-206" rx="37" ry="18"/>
<text text-anchor="middle" x="314.76" y="-201.32" font-family="Times,serif" font-size="14.00">mshr</text>
</a>
</g>
</g>
<!-- fenics&#45;&gt;mshr -->
<g id="edge1" class="edge">
<title>fenics&#45;&gt;mshr</title>
<path fill="none" stroke="black" d="M314.76,-259.7C314.76,-252.41 314.76,-243.73 314.76,-235.54"/>
<polygon fill="black" stroke="black" points="318.26,-235.62 314.76,-225.62 311.26,-235.62 318.26,-235.62"/>
</g>
<!-- openmc -->
<g id="node3" class="node">
<title>openmc</title>
<g id="a_node3"><a xlink:href="https://github.com/conda-forge/openmc-feedstock/pull/71" xlink:title="openmc ✓">
<ellipse fill="#31688e" stroke="black" cx="404.76" cy="-1186" rx="58.05" ry="18"/>
<text text-anchor="middle" x="404.76" y="-1181.33" font-family="Times,serif" font-size="14.00" fill="white">openmc ✓</text>
</a>
</g>
</g>
<!-- pytrilinos -->
<g id="node4" class="node">
<title>pytrilinos</title>
<g id="a_node4"><a xlink:href="https://github.com/conda-forge/pytrilinos-feedstock/pull/56" xlink:title="pytrilinos ❎">
<ellipse fill="#31688e" stroke="black" cx="404.76" cy="-1114" rx="74.36" ry="18"/>
<text text-anchor="middle" x="404.76" y="-1109.33" font-family="Times,serif" font-size="14.00" fill="white">pytrilinos ❎</text>
</a>
</g>
</g>
<!-- openmc&#45;&gt;pytrilinos -->
<!-- numcosmo -->
<g id="node5" class="node">
<title>numcosmo</title>
<g id="a_node5"><a xlink:href="https://github.com/conda-forge/numcosmo-feedstock/pull/63" xlink:title="numcosmo ✓">
<ellipse fill="#31688e" stroke="black" cx="404.76" cy="-1042" rx="72.78" ry="18"/>
<text text-anchor="middle" x="404.76" y="-1037.33" font-family="Times,serif" font-size="14.00" fill="white">numcosmo ✓</text>
</a>
</g>
</g>
<!-- pytrilinos&#45;&gt;numcosmo -->
<!-- trilinos -->
<g id="node11" class="node">
<title>trilinos</title>
<g id="a_node11"><a xlink:href="https://github.com/conda-forge/trilinos-feedstock/pull/47" xlink:title="trilinos ❎">
<ellipse fill="#31688e" stroke="black" cx="404.76" cy="-970" rx="62.26" ry="18"/>
<text text-anchor="middle" x="404.76" y="-965.33" font-family="Times,serif" font-size="14.00" fill="white">trilinos ❎</text>
</a>
</g>
</g>
<!-- numcosmo&#45;&gt;trilinos -->
<!-- siesta -->
<g id="node6" class="node">
<title>siesta</title>
<g id="a_node6"><a xlink:href="https://github.com/conda-forge/siesta-feedstock" xlink:title="siesta">
<ellipse fill="#fde725" stroke="black" cx="705.76" cy="-898" rx="40.69" ry="18"/>
<text text-anchor="middle" x="705.76" y="-893.33" font-family="Times,serif" font-size="14.00">siesta</text>
</a>
</g>
</g>
<!-- petsc4py -->
<g id="node7" class="node">
<title>petsc4py</title>
<g id="a_node7"><a xlink:href="https://github.com/conda-forge/petsc4py-feedstock" xlink:title="petsc4py">
<ellipse fill="#000000" stroke="black" cx="382.76" cy="-422" rx="56.47" ry="18"/>
<text text-anchor="middle" x="382.76" y="-417.32" font-family="Times,serif" font-size="14.00" fill="white">petsc4py</text>
</a>
</g>
</g>
<!-- petsc4py&#45;&gt;fenics -->
<g id="edge4" class="edge">
<title>petsc4py&#45;&gt;fenics</title>
<path fill="none" stroke="black" d="M355.29,-405.81C341.75,-396.74 326.66,-383.88 318.76,-368 309.52,-349.46 308.85,-325.97 310.32,-307.78"/>
<polygon fill="black" stroke="black" points="313.79,-308.25 311.39,-297.93 306.83,-307.49 313.79,-308.25"/>
</g>
<!-- slepc4py -->
<g id="node8" class="node">
<title>slepc4py</title>
<g id="a_node8"><a xlink:href="https://github.com/conda-forge/slepc4py-feedstock" xlink:title="slepc4py">
<ellipse fill="#fde725" stroke="black" cx="382.76" cy="-350" rx="55.42" ry="18"/>
<text text-anchor="middle" x="382.76" y="-345.32" font-family="Times,serif" font-size="14.00">slepc4py</text>
</a>
</g>
</g>
<!-- petsc4py&#45;&gt;slepc4py -->
<g id="edge5" class="edge">
<title>petsc4py&#45;&gt;slepc4py</title>
<path fill="none" stroke="black" d="M382.76,-403.7C382.76,-396.41 382.76,-387.73 382.76,-379.54"/>
<polygon fill="black" stroke="black" points="386.26,-379.62 382.76,-369.62 379.26,-379.62 386.26,-379.62"/>
</g>
<!-- fenics&#45;dolfinx -->
<g id="node9" class="node">
<title>fenics&#45;dolfinx</title>
<g id="a_node9"><a xlink:href="https://github.com/conda-forge/fenics-dolfinx-feedstock" xlink:title="fenics dolfinx">
<ellipse fill="#fde725" stroke="black" cx="457.76" cy="-278" rx="77.52" ry="18"/>
<text text-anchor="middle" x="457.76" y="-273.32" font-family="Times,serif" font-size="14.00">fenics dolfinx</text>
</a>
</g>
</g>
<!-- petsc4py&#45;&gt;fenics&#45;dolfinx -->
<g id="edge6" class="edge">
<title>petsc4py&#45;&gt;fenics&#45;dolfinx</title>
<path fill="none" stroke="black" d="M409.4,-405.77C422.88,-396.61 438.16,-383.69 446.76,-368 456.83,-349.61 459.35,-325.93 459.47,-307.62"/>
<polygon fill="black" stroke="black" points="462.97,-307.65 459.28,-297.71 455.97,-307.78 462.97,-307.65"/>
</g>
<!-- slepc4py&#45;&gt;fenics -->
<g id="edge7" class="edge">
<title>slepc4py&#45;&gt;fenics</title>
<path fill="none" stroke="black" d="M366.64,-332.41C358.13,-323.66 347.54,-312.75 338.15,-303.08"/>
<polygon fill="black" stroke="black" points="340.82,-300.81 331.34,-296.07 335.8,-305.69 340.82,-300.81"/>
</g>
<!-- slepc4py&#45;&gt;fenics&#45;dolfinx -->
<g id="edge8" class="edge">
<title>slepc4py&#45;&gt;fenics&#45;dolfinx</title>
<path fill="none" stroke="black" d="M400.15,-332.76C409.41,-324.12 421,-313.3 431.35,-303.65"/>
<polygon fill="black" stroke="black" points="433.64,-306.29 438.56,-296.91 428.87,-301.18 433.64,-306.29"/>
</g>
<!-- dolfinx_mpc -->
<g id="node10" class="node">
<title>dolfinx_mpc</title>
<g id="a_node10"><a xlink:href="https://github.com/conda-forge/dolfinx_mpc-feedstock" xlink:title="dolfinx_mpc">
<ellipse fill="#fde725" stroke="black" cx="457.76" cy="-206" rx="70.68" ry="18"/>
<text text-anchor="middle" x="457.76" y="-201.32" font-family="Times,serif" font-size="14.00">dolfinx_mpc</text>
</a>
</g>
</g>
<!-- fenics&#45;dolfinx&#45;&gt;dolfinx_mpc -->
<g id="edge9" class="edge">
<title>fenics&#45;dolfinx&#45;&gt;dolfinx_mpc</title>
<path fill="none" stroke="black" d="M457.76,-259.7C457.76,-252.41 457.76,-243.73 457.76,-235.54"/>
<polygon fill="black" stroke="black" points="461.26,-235.62 457.76,-225.62 454.26,-235.62 461.26,-235.62"/>
</g>
<!-- asap3 -->
<g id="node12" class="node">
<title>asap3</title>
<g id="a_node12"><a xlink:href="https://github.com/conda-forge/asap3-feedstock/pull/47" xlink:title="asap3 ✓">
<ellipse fill="#31688e" stroke="black" cx="404.76" cy="-898" rx="48.58" ry="18"/>
<text text-anchor="middle" x="404.76" y="-893.33" font-family="Times,serif" font-size="14.00" fill="white">asap3 ✓</text>
</a>
</g>
</g>
<!-- trilinos&#45;&gt;asap3 -->
<!-- lalinference -->
<g id="node16" class="node">
<title>lalinference</title>
<g id="a_node16"><a xlink:href="https://github.com/conda-forge/lalinference-feedstock/pull/63" xlink:title="lalinference ✓">
<ellipse fill="#31688e" stroke="black" cx="404.76" cy="-826" rx="78.04" ry="18"/>
<text text-anchor="middle" x="404.76" y="-821.33" font-family="Times,serif" font-size="14.00" fill="white">lalinference ✓</text>
</a>
</g>
</g>
<!-- asap3&#45;&gt;lalinference -->
<!-- lammps -->
<g id="node13" class="node">
<title>lammps</title>
<g id="a_node13"><a xlink:href="https://github.com/conda-forge/lammps-feedstock/pull/198" xlink:title="lammps ❎">
<ellipse fill="#31688e" stroke="black" cx="733.76" cy="-386" rx="65.94" ry="18"/>
<text text-anchor="middle" x="733.76" y="-381.32" font-family="Times,serif" font-size="14.00" fill="white">lammps ❎</text>
</a>
</g>
</g>
<!-- deepmd&#45;kit -->
<g id="node14" class="node">
<title>deepmd&#45;kit</title>
<g id="a_node14"><a xlink:href="https://github.com/conda-forge/deepmd-kit-feedstock" xlink:title="deepmd kit">
<ellipse fill="#fde725" stroke="black" cx="685.76" cy="-314" rx="67.52" ry="18"/>
<text text-anchor="middle" x="685.76" y="-309.32" font-family="Times,serif" font-size="14.00">deepmd kit</text>
</a>
</g>
</g>
<!-- lammps&#45;&gt;deepmd&#45;kit -->
<g id="edge12" class="edge">
<title>lammps&#45;&gt;deepmd&#45;kit</title>
<path fill="none" stroke="black" d="M722.14,-368.05C716.59,-359.97 709.84,-350.12 703.66,-341.11"/>
<polygon fill="black" stroke="black" points="706.67,-339.31 698.12,-333.04 700.89,-343.26 706.67,-339.31"/>
</g>
<!-- parsplice -->
<g id="node15" class="node">
<title>parsplice</title>
<g id="a_node15"><a xlink:href="https://github.com/conda-forge/parsplice-feedstock/pull/13" xlink:title="parsplice ❎">
<ellipse fill="#31688e" stroke="black" cx="781.76" cy="-242" rx="72.25" ry="18"/>
<text text-anchor="middle" x="781.76" y="-237.32" font-family="Times,serif" font-size="14.00" fill="white">parsplice ❎</text>
</a>
</g>
</g>
<!-- lammps&#45;&gt;parsplice -->
<g id="edge13" class="edge">
<title>lammps&#45;&gt;parsplice</title>
<path fill="none" stroke="black" d="M744.75,-367.94C750.83,-357.84 758.08,-344.59 762.76,-332 769.99,-312.5 774.81,-289.53 777.78,-271.8"/>
<polygon fill="black" stroke="black" points="781.23,-272.4 779.32,-261.98 774.32,-271.32 781.23,-272.4"/>
</g>
<!-- parabem -->
<g id="node17" class="node">
<title>parabem</title>
<g id="a_node17"><a xlink:href="https://github.com/conda-forge/parabem-feedstock/pull/17" xlink:title="parabem ❎">
<ellipse fill="#31688e" stroke="black" cx="404.76" cy="-754" rx="70.68" ry="18"/>
<text text-anchor="middle" x="404.76" y="-749.33" font-family="Times,serif" font-size="14.00" fill="white">parabem ❎</text>
</a>
</g>
</g>
<!-- lalinference&#45;&gt;parabem -->
<!-- dakota -->
<g id="node18" class="node">
<title>dakota</title>
<g id="a_node18"><a xlink:href="https://github.com/conda-forge/dakota-feedstock/pull/49" xlink:title="dakota ❎">
<ellipse fill="#31688e" stroke="black" cx="404.76" cy="-682" rx="60.15" ry="18"/>
<text text-anchor="middle" x="404.76" y="-677.33" font-family="Times,serif" font-size="14.00" fill="white">dakota ❎</text>
</a>
</g>
</g>
<!-- parabem&#45;&gt;dakota -->
<!-- scorec -->
<g id="node20" class="node">
<title>scorec</title>
<g id="a_node20"><a xlink:href="https://github.com/conda-forge/scorec-feedstock/pull/12" xlink:title="scorec ❎">
<ellipse fill="#31688e" stroke="black" cx="404.76" cy="-610" rx="58.57" ry="18"/>
<text text-anchor="middle" x="404.76" y="-605.33" font-family="Times,serif" font-size="14.00" fill="white">scorec ❎</text>
</a>
</g>
</g>
<!-- dakota&#45;&gt;scorec -->
<!-- gpaw -->
<g id="node19" class="node">
<title>gpaw</title>
<g id="a_node19"><a xlink:href="https://github.com/conda-forge/gpaw-feedstock" xlink:title="gpaw">
<ellipse fill="#fde725" stroke="black" cx="761.76" cy="-826" rx="38.06" ry="18"/>
<text text-anchor="middle" x="761.76" y="-821.33" font-family="Times,serif" font-size="14.00">gpaw</text>
</a>
</g>
</g>
<!-- conduit -->
<g id="node22" class="node">
<title>conduit</title>
<g id="a_node22"><a xlink:href="https://github.com/conda-forge/conduit-feedstock/pull/46" xlink:title="conduit ✓">
<ellipse fill="#31688e" stroke="black" cx="404.76" cy="-538" rx="56.47" ry="18"/>
<text text-anchor="middle" x="404.76" y="-533.33" font-family="Times,serif" font-size="14.00" fill="white">conduit ✓</text>
</a>
</g>
</g>
<!-- scorec&#45;&gt;conduit -->
<!-- cp2k -->
<g id="node21" class="node">
<title>cp2k</title>
<g id="a_node21"><a xlink:href="https://github.com/conda-forge/cp2k-feedstock" xlink:title="cp2k">
<ellipse fill="#fde725" stroke="black" cx="132.76" cy="-18" rx="34.9" ry="18"/>
<text text-anchor="middle" x="132.76" y="-13.32" font-family="Times,serif" font-size="14.00">cp2k</text>
</a>
</g>
</g>
<!-- parsmurf -->
<g id="node23" class="node">
<title>parsmurf</title>
<g id="a_node23"><a xlink:href="https://github.com/conda-forge/parsmurf-feedstock/pull/4" xlink:title="parsmurf ❎">
<ellipse fill="#31688e" stroke="black" cx="404.76" cy="-466" rx="72.78" ry="18"/>
<text text-anchor="middle" x="404.76" y="-461.32" font-family="Times,serif" font-size="14.00" fill="white">parsmurf ❎</text>
</a>
</g>
</g>
<!-- conduit&#45;&gt;parsmurf -->
<!-- qe -->
<g id="node24" class="node">
<title>qe</title>
<g id="a_node24"><a xlink:href="https://github.com/conda-forge/qe-feedstock" xlink:title="qe">
<ellipse fill="#fde725" stroke="black" cx="827.76" cy="-754" rx="27" ry="18"/>
<text text-anchor="middle" x="827.76" y="-749.33" font-family="Times,serif" font-size="14.00">qe</text>
</a>
</g>
</g>
<!-- dftbplus -->
<g id="node25" class="node">
<title>dftbplus</title>
<g id="a_node25"><a xlink:href="https://github.com/conda-forge/dftbplus-feedstock" xlink:title="dftbplus">
<ellipse fill="#fde725" stroke="black" cx="595.76" cy="-754" rx="52.79" ry="18"/>
<text text-anchor="middle" x="595.76" y="-749.33" font-family="Times,serif" font-size="14.00">dftbplus</text>
</a>
</g>
</g>
<!-- libmbd -->
<g id="node26" class="node">
<title>libmbd</title>
<g id="a_node26"><a xlink:href="https://github.com/conda-forge/libmbd-feedstock" xlink:title="libmbd">
<ellipse fill="#fde725" stroke="black" cx="632.76" cy="-826" rx="45.95" ry="18"/>
<text text-anchor="middle" x="632.76" y="-821.33" font-family="Times,serif" font-size="14.00">libmbd</text>
</a>
</g>
</g>
<!-- libmbd&#45;&gt;dftbplus -->
<g id="edge20" class="edge">
<title>libmbd&#45;&gt;dftbplus</title>
<path fill="none" stroke="black" d="M623.8,-808.05C619.62,-800.14 614.54,-790.54 609.86,-781.69"/>
<polygon fill="black" stroke="black" points="613.1,-780.33 605.34,-773.13 606.92,-783.6 613.1,-780.33"/>
</g>
<!-- dedalus -->
<g id="node27" class="node">
<title>dedalus</title>
<g id="a_node27"><a xlink:href="https://github.com/conda-forge/dedalus-feedstock/pull/22" xlink:title="dedalus ✓">
<ellipse fill="#31688e" stroke="black" cx="132.76" cy="-1186" rx="58.05" ry="18"/>
<text text-anchor="middle" x="132.76" y="-1181.33" font-family="Times,serif" font-size="14.00" fill="white">dedalus ✓</text>
</a>
</g>
</g>
<!-- yambo -->
<g id="node28" class="node">
<title>yambo</title>
<g id="a_node28"><a xlink:href="https://github.com/conda-forge/yambo-feedstock/pull/30" xlink:title="yambo ❎">
<ellipse fill="#31688e" stroke="black" cx="132.76" cy="-1114" rx="59.63" ry="18"/>
<text text-anchor="middle" x="132.76" y="-1109.33" font-family="Times,serif" font-size="14.00" fill="white">yambo ❎</text>
</a>
</g>
</g>
<!-- dedalus&#45;&gt;yambo -->
<!-- ondamonitor -->
<g id="node30" class="node">
<title>ondamonitor</title>
<g id="a_node30"><a xlink:href="https://github.com/conda-forge/ondamonitor-feedstock/pull/12" xlink:title="ondamonitor ❎">
<ellipse fill="#31688e" stroke="black" cx="132.76" cy="-1042" rx="90.14" ry="18"/>
<text text-anchor="middle" x="132.76" y="-1037.33" font-family="Times,serif" font-size="14.00" fill="white">ondamonitor ❎</text>
</a>
</g>
</g>
<!-- yambo&#45;&gt;ondamonitor -->
<!-- sirius -->
<g id="node29" class="node">
<title>sirius</title>
<g id="a_node29"><a xlink:href="https://github.com/conda-forge/sirius-feedstock" xlink:title="sirius">
<ellipse fill="#fde725" stroke="black" cx="132.76" cy="-90" rx="39.11" ry="18"/>
<text text-anchor="middle" x="132.76" y="-85.33" font-family="Times,serif" font-size="14.00">sirius</text>
</a>
</g>
</g>
<!-- sirius&#45;&gt;cp2k -->
<g id="edge22" class="edge">
<title>sirius&#45;&gt;cp2k</title>
<path fill="none" stroke="black" d="M132.76,-71.7C132.76,-64.41 132.76,-55.73 132.76,-47.54"/>
<polygon fill="black" stroke="black" points="136.26,-47.62 132.76,-37.62 129.26,-47.62 136.26,-47.62"/>
</g>
<!-- alamode -->
<g id="node31" class="node">
<title>alamode</title>
<g id="a_node31"><a xlink:href="https://github.com/conda-forge/alamode-feedstock/pull/12" xlink:title="alamode ❎">
<ellipse fill="#31688e" stroke="black" cx="132.76" cy="-970" rx="68.57" ry="18"/>
<text text-anchor="middle" x="132.76" y="-965.33" font-family="Times,serif" font-size="14.00" fill="white">alamode ❎</text>
</a>
</g>
</g>
<!-- ondamonitor&#45;&gt;alamode -->
<!-- timemory -->
<g id="node32" class="node">
<title>timemory</title>
<g id="a_node32"><a xlink:href="https://github.com/conda-forge/timemory-feedstock" xlink:title="timemory">
<ellipse fill="#000000" stroke="black" cx="132.76" cy="-898" rx="59.63" ry="18"/>
<text text-anchor="middle" x="132.76" y="-893.33" font-family="Times,serif" font-size="14.00" fill="white">timemory</text>
</a>
</g>
</g>
<!-- alamode&#45;&gt;timemory -->
<!-- pexsi -->
<g id="node33" class="node">
<title>pexsi</title>
<g id="a_node33"><a xlink:href="https://github.com/conda-forge/pexsi-feedstock/pull/10" xlink:title="pexsi ❎">
<ellipse fill="#31688e" stroke="black" cx="132.76" cy="-826" rx="52.79" ry="18"/>
<text text-anchor="middle" x="132.76" y="-821.33" font-family="Times,serif" font-size="14.00" fill="white">pexsi ❎</text>
</a>
</g>
</g>
<!-- timemory&#45;&gt;pexsi -->
<!-- eigenexa -->
<g id="node39" class="node">
<title>eigenexa</title>
<g id="a_node39"><a xlink:href="https://github.com/conda-forge/eigenexa-feedstock/pull/3" xlink:title="eigenexa ❎">
<ellipse fill="#31688e" stroke="black" cx="132.76" cy="-754" rx="71.2" ry="18"/>
<text text-anchor="middle" x="132.76" y="-749.33" font-family="Times,serif" font-size="14.00" fill="white">eigenexa ❎</text>
</a>
</g>
</g>
<!-- pexsi&#45;&gt;eigenexa -->
<!-- costa_variants -->
<g id="node34" class="node">
<title>costa_variants</title>
<g id="a_node34"><a xlink:href="https://github.com/conda-forge/costa_variants-feedstock/pull/4" xlink:title="costa_variants ❎">
<ellipse fill="#31688e" stroke="black" cx="132.76" cy="-162" rx="98.56" ry="18"/>
<text text-anchor="middle" x="132.76" y="-157.32" font-family="Times,serif" font-size="14.00" fill="white">costa_variants ❎</text>
</a>
</g>
</g>
<!-- costa_variants&#45;&gt;sirius -->
<g id="edge27" class="edge">
<title>costa_variants&#45;&gt;sirius</title>
<path fill="none" stroke="black" d="M132.76,-143.7C132.76,-136.41 132.76,-127.73 132.76,-119.54"/>
<polygon fill="black" stroke="black" points="136.26,-119.62 132.76,-109.62 129.26,-119.62 136.26,-119.62"/>
</g>
<!-- elpa -->
<g id="node35" class="node">
<title>elpa</title>
<g id="a_node35"><a xlink:href="https://github.com/conda-forge/elpa-feedstock/pull/26" xlink:title="elpa ❎">
<ellipse fill="#31688e" stroke="black" cx="774.76" cy="-970" rx="47.53" ry="18"/>
<text text-anchor="middle" x="774.76" y="-965.33" font-family="Times,serif" font-size="14.00" fill="white">elpa ❎</text>
</a>
</g>
</g>
<!-- elpa&#45;&gt;siesta -->
<g id="edge28" class="edge">
<title>elpa&#45;&gt;siesta</title>
<path fill="none" stroke="black" d="M758.75,-952.76C749.92,-943.8 738.79,-932.51 729.01,-922.59"/>
<polygon fill="black" stroke="black" points="731.77,-920.41 722.26,-915.74 726.79,-925.32 731.77,-920.41"/>
</g>
<!-- elpa&#45;&gt;gpaw -->
<g id="edge29" class="edge">
<title>elpa&#45;&gt;gpaw</title>
<path fill="none" stroke="black" d="M773.16,-951.59C770.97,-927.61 766.99,-884.14 764.36,-855.42"/>
<polygon fill="black" stroke="black" points="767.86,-855.26 763.46,-845.62 760.89,-855.9 767.86,-855.26"/>
</g>
<!-- elpa&#45;&gt;qe -->
<g id="edge30" class="edge">
<title>elpa&#45;&gt;qe</title>
<path fill="none" stroke="black" d="M779.79,-951.69C786.71,-927.63 799.37,-882.69 808.76,-844 813.66,-823.79 818.54,-800.83 822.13,-783.3"/>
<polygon fill="black" stroke="black" points="825.54,-784.1 824.09,-773.61 818.68,-782.72 825.54,-784.1"/>
</g>
<!-- elsi -->
<g id="node36" class="node">
<title>elsi</title>
<g id="a_node36"><a xlink:href="https://github.com/conda-forge/elsi-feedstock" xlink:title="elsi">
<ellipse fill="#fde725" stroke="black" cx="618.76" cy="-898" rx="28.59" ry="18"/>
<text text-anchor="middle" x="618.76" y="-893.33" font-family="Times,serif" font-size="14.00">elsi</text>
</a>
</g>
</g>
<!-- elpa&#45;&gt;elsi -->
<g id="edge31" class="edge">
<title>elpa&#45;&gt;elsi</title>
<path fill="none" stroke="black" d="M744.88,-955.81C720.79,-945.14 686.05,-929.7 655.76,-916 654.45,-915.41 653.12,-914.81 651.78,-914.2"/>
<polygon fill="black" stroke="black" points="653.36,-911.07 642.81,-910.1 650.45,-917.44 653.36,-911.07"/>
</g>
<!-- abacus -->
<g id="node37" class="node">
<title>abacus</title>
<g id="a_node37"><a xlink:href="https://github.com/conda-forge/abacus-feedstock" xlink:title="abacus">
<ellipse fill="#fde725" stroke="black" cx="882.76" cy="-682" rx="45.95" ry="18"/>
<text text-anchor="middle" x="882.76" y="-677.33" font-family="Times,serif" font-size="14.00">abacus</text>
</a>
</g>
</g>
<!-- elpa&#45;&gt;abacus -->
<g id="edge32" class="edge">
<title>elpa&#45;&gt;abacus</title>
<path fill="none" stroke="black" d="M786.7,-952.34C793.68,-942.15 802.35,-928.69 808.76,-916 839.64,-854.85 844.32,-837.7 863.76,-772 869.65,-752.06 874.51,-729.09 877.84,-711.49"/>
<polygon fill="black" stroke="black" points="881.26,-712.21 879.62,-701.75 874.37,-710.96 881.26,-712.21"/>
</g>
<!-- elsi&#45;&gt;dftbplus -->
<g id="edge33" class="edge">
<title>elsi&#45;&gt;dftbplus</title>
<path fill="none" stroke="black" d="M603.13,-882.41C593.79,-872.58 582.79,-858.75 577.76,-844 570.91,-823.96 576.2,-800.44 582.79,-782.62"/>
<polygon fill="black" stroke="black" points="585.98,-784.06 586.5,-773.48 579.49,-781.43 585.98,-784.06"/>
</g>
<!-- elsi&#45;&gt;libmbd -->
<g id="edge34" class="edge">
<title>elsi&#45;&gt;libmbd</title>
<path fill="none" stroke="black" d="M622.22,-879.7C623.69,-872.32 625.45,-863.52 627.11,-855.25"/>
<polygon fill="black" stroke="black" points="630.51,-856.08 629.04,-845.59 623.64,-854.71 630.51,-856.08"/>
</g>
<!-- libomm -->
<g id="node38" class="node">
<title>libomm</title>
<g id="a_node38"><a xlink:href="https://github.com/conda-forge/libomm-feedstock" xlink:title="libomm">
<ellipse fill="#35b779" stroke="black" cx="618.76" cy="-970" rx="48.58" ry="18"/>
<text text-anchor="middle" x="618.76" y="-965.33" font-family="Times,serif" font-size="14.00">libomm</text>
</a>
</g>
</g>
<!-- libomm&#45;&gt;elsi -->
<g id="edge35" class="edge">
<title>libomm&#45;&gt;elsi</title>
<path fill="none" stroke="black" d="M618.76,-951.7C618.76,-944.41 618.76,-935.73 618.76,-927.54"/>
<polygon fill="black" stroke="black" points="622.26,-927.62 618.76,-917.62 615.26,-927.62 622.26,-927.62"/>
</g>
<!-- fleur -->
<g id="node40" class="node">
<title>fleur</title>
<g id="a_node40"><a xlink:href="https://github.com/conda-forge/fleur-feedstock/pull/19" xlink:title="fleur ✓">
<ellipse fill="#31688e" stroke="black" cx="132.76" cy="-682" rx="42.26" ry="18"/>
<text text-anchor="middle" x="132.76" y="-677.33" font-family="Times,serif" font-size="14.00" fill="white">fleur ✓</text>
</a>
</g>
</g>
<!-- eigenexa&#45;&gt;fleur -->
<!-- edrixs -->
<g id="node41" class="node">
<title>edrixs</title>
<g id="a_node41"><a xlink:href="https://github.com/conda-forge/edrixs-feedstock/pull/14" xlink:title="edrixs ❎">
<ellipse fill="#31688e" stroke="black" cx="132.76" cy="-610" rx="57.52" ry="18"/>
<text text-anchor="middle" x="132.76" y="-605.33" font-family="Times,serif" font-size="14.00" fill="white">edrixs ❎</text>
</a>
</g>
</g>
<!-- fleur&#45;&gt;edrixs -->
<!-- openphase -->
<g id="node42" class="node">
<title>openphase</title>
<g id="a_node42"><a xlink:href="https://github.com/conda-forge/openphase-feedstock/pull/2" xlink:title="openphase ❎">
<ellipse fill="#31688e" stroke="black" cx="132.76" cy="-538" rx="80.14" ry="18"/>
<text text-anchor="middle" x="132.76" y="-533.33" font-family="Times,serif" font-size="14.00" fill="white">openphase ❎</text>
</a>
</g>
</g>
<!-- edrixs&#45;&gt;openphase -->
<!-- sparc&#45;x -->
<g id="node43" class="node">
<title>sparc&#45;x</title>
<g id="a_node43"><a xlink:href="https://github.com/conda-forge/sparc-x-feedstock/pull/9" xlink:title="sparc x ❎">
<ellipse fill="#31688e" stroke="black" cx="132.76" cy="-466" rx="62.78" ry="18"/>
<text text-anchor="middle" x="132.76" y="-461.32" font-family="Times,serif" font-size="14.00" fill="white">sparc x ❎</text>
</a>
</g>
</g>
<!-- openphase&#45;&gt;sparc&#45;x -->
<!-- heat -->
<g id="node44" class="node">
<title>heat</title>
<g id="a_node44"><a xlink:href="https://github.com/conda-forge/heat-feedstock/pull/15" xlink:title="heat ❎">
<ellipse fill="#31688e" stroke="black" cx="132.76" cy="-422" rx="48.58" ry="18"/>
<text text-anchor="middle" x="132.76" y="-417.32" font-family="Times,serif" font-size="14.00" fill="white">heat ❎</text>
</a>
</g>
</g>
<!-- reef3d -->
<g id="node45" class="node">
<title>reef3d</title>
<g id="a_node45"><a xlink:href="https://github.com/conda-forge/reef3d-feedstock/pull/11" xlink:title="reef3d ✓">
<ellipse fill="#31688e" stroke="black" cx="132.76" cy="-350" rx="51.74" ry="18"/>
<text text-anchor="middle" x="132.76" y="-345.32" font-family="Times,serif" font-size="14.00" fill="white">reef3d ✓</text>
</a>
</g>
</g>
<!-- heat&#45;&gt;reef3d -->
<!-- fluidfft&#45;mpi_with_fftw -->
<g id="node46" class="node">
<title>fluidfft&#45;mpi_with_fftw</title>
<g id="a_node46"><a xlink:href="https://github.com/conda-forge/fluidfft-mpi_with_fftw-feedstock/pull/1" xlink:title="fluidfft mpi_with_fftw ❎">
<ellipse fill="#31688e" stroke="black" cx="132.76" cy="-278" rx="132.76" ry="18"/>
<text text-anchor="middle" x="132.76" y="-273.32" font-family="Times,serif" font-size="14.00" fill="white">fluidfft mpi_with_fftw ❎</text>
</a>
</g>
</g>
<!-- reef3d&#45;&gt;fluidfft&#45;mpi_with_fftw -->
<!-- eatpy -->
<g id="node47" class="node">
<title>eatpy</title>
<g id="a_node47"><a xlink:href="https://github.com/conda-forge/eatpy-feedstock" xlink:title="eatpy">
<ellipse fill="#000000" stroke="black" cx="132.76" cy="-206" rx="39.11" ry="18"/>
<text text-anchor="middle" x="132.76" y="-201.32" font-family="Times,serif" font-size="14.00" fill="white">eatpy</text>
</a>
</g>
</g>
<!-- fluidfft&#45;mpi_with_fftw&#45;&gt;eatpy -->
</g>
</svg>
