<?xml version="1.0" encoding="UTF-8" standalone="no"?>
<!DOCTYPE svg PUBLIC "-//W3C//DTD SVG 1.1//EN"
 "http://www.w3.org/Graphics/SVG/1.1/DTD/svg11.dtd">
<!-- Generated by graphviz version 11.0.0 (20240519.1550)
 -->
<!-- Pages: 1 -->
<svg width="1115pt" height="1428pt"
 viewBox="0.00 0.00 1115.00 1428.00" xmlns="http://www.w3.org/2000/svg" xmlns:xlink="http://www.w3.org/1999/xlink">
<g id="graph0" class="graph" transform="scale(1 1) rotate(0) translate(4 1424)">
<polygon fill="white" stroke="none" points="-4,4 -4,-1424 1111,-1424 1111,4 -4,4"/>
<!-- fenics -->
<g id="node1" class="node">
<title>fenics</title>
<g id="a_node1"><a xlink:href="https://github.com/conda-forge/fenics-feedstock" xlink:title="fenics">
<ellipse fill="#fde725" stroke="black" cx="884.25" cy="-422" rx="40.69" ry="18"/>
<text text-anchor="middle" x="884.25" y="-417.32" font-family="Times,serif" font-size="14.00">fenics</text>
</a>
</g>
</g>
<!-- mshr -->
<g id="node2" class="node">
<title>mshr</title>
<g id="a_node2"><a xlink:href="https://github.com/conda-forge/mshr-feedstock" xlink:title="mshr">
<ellipse fill="#fde725" stroke="black" cx="884.25" cy="-350" rx="37" ry="18"/>
<text text-anchor="middle" x="884.25" y="-345.32" font-family="Times,serif" font-size="14.00">mshr</text>
</a>
</g>
</g>
<!-- fenics&#45;&gt;mshr -->
<g id="edge1" class="edge">
<title>fenics&#45;&gt;mshr</title>
<path fill="none" stroke="black" d="M884.25,-403.7C884.25,-396.41 884.25,-387.73 884.25,-379.54"/>
<polygon fill="black" stroke="black" points="887.75,-379.62 884.25,-369.62 880.75,-379.62 887.75,-379.62"/>
</g>
<!-- openmc -->
<g id="node3" class="node">
<title>openmc</title>
<g id="a_node3"><a xlink:href="https://github.com/conda-forge/openmc-feedstock/pull/71" xlink:title="openmc ✓">
<ellipse fill="#31688e" stroke="black" cx="671.25" cy="-1402" rx="58.05" ry="18"/>
<text text-anchor="middle" x="671.25" y="-1397.33" font-family="Times,serif" font-size="14.00" fill="white">openmc ✓</text>
</a>
</g>
</g>
<!-- pytrilinos -->
<g id="node4" class="node">
<title>pytrilinos</title>
<g id="a_node4"><a xlink:href="https://github.com/conda-forge/pytrilinos-feedstock/pull/56" xlink:title="pytrilinos ❎">
<ellipse fill="#31688e" stroke="black" cx="671.25" cy="-1330" rx="74.36" ry="18"/>
<text text-anchor="middle" x="671.25" y="-1325.33" font-family="Times,serif" font-size="14.00" fill="white">pytrilinos ❎</text>
</a>
</g>
</g>
<!-- openmc&#45;&gt;pytrilinos -->
<!-- numcosmo -->
<g id="node5" class="node">
<title>numcosmo</title>
<g id="a_node5"><a xlink:href="https://github.com/conda-forge/numcosmo-feedstock/pull/63" xlink:title="numcosmo ✓">
<ellipse fill="#31688e" stroke="black" cx="671.25" cy="-1258" rx="72.78" ry="18"/>
<text text-anchor="middle" x="671.25" y="-1253.33" font-family="Times,serif" font-size="14.00" fill="white">numcosmo ✓</text>
</a>
</g>
</g>
<!-- pytrilinos&#45;&gt;numcosmo -->
<!-- trilinos -->
<g id="node11" class="node">
<title>trilinos</title>
<g id="a_node11"><a xlink:href="https://github.com/conda-forge/trilinos-feedstock/pull/47" xlink:title="trilinos ❎">
<ellipse fill="#31688e" stroke="black" cx="671.25" cy="-1186" rx="62.26" ry="18"/>
<text text-anchor="middle" x="671.25" y="-1181.33" font-family="Times,serif" font-size="14.00" fill="white">trilinos ❎</text>
</a>
</g>
</g>
<!-- numcosmo&#45;&gt;trilinos -->
<!-- siesta -->
<g id="node6" class="node">
<title>siesta</title>
<g id="a_node6"><a xlink:href="https://github.com/conda-forge/siesta-feedstock" xlink:title="siesta">
<ellipse fill="#fde725" stroke="black" cx="265.25" cy="-494" rx="40.69" ry="18"/>
<text text-anchor="middle" x="265.25" y="-489.32" font-family="Times,serif" font-size="14.00">siesta</text>
</a>
</g>
</g>
<!-- petsc4py -->
<g id="node7" class="node">
<title>petsc4py</title>
<g id="a_node7"><a xlink:href="https://github.com/conda-forge/petsc4py-feedstock" xlink:title="petsc4py">
<ellipse fill="#000000" stroke="black" cx="952.25" cy="-566" rx="56.47" ry="18"/>
<text text-anchor="middle" x="952.25" y="-561.33" font-family="Times,serif" font-size="14.00" fill="white">petsc4py</text>
</a>
</g>
</g>
<!-- petsc4py&#45;&gt;fenics -->
<g id="edge4" class="edge">
<title>petsc4py&#45;&gt;fenics</title>
<path fill="none" stroke="black" d="M924.78,-549.81C911.24,-540.74 896.16,-527.88 888.25,-512 879.02,-493.46 878.35,-469.97 879.81,-451.78"/>
<polygon fill="black" stroke="black" points="883.28,-452.25 880.88,-441.93 876.32,-451.49 883.28,-452.25"/>
</g>
<!-- slepc4py -->
<g id="node8" class="node">
<title>slepc4py</title>
<g id="a_node8"><a xlink:href="https://github.com/conda-forge/slepc4py-feedstock" xlink:title="slepc4py">
<ellipse fill="#fde725" stroke="black" cx="952.25" cy="-494" rx="55.42" ry="18"/>
<text text-anchor="middle" x="952.25" y="-489.32" font-family="Times,serif" font-size="14.00">slepc4py</text>
</a>
</g>
</g>
<!-- petsc4py&#45;&gt;slepc4py -->
<g id="edge5" class="edge">
<title>petsc4py&#45;&gt;slepc4py</title>
<path fill="none" stroke="black" d="M952.25,-547.7C952.25,-540.41 952.25,-531.73 952.25,-523.54"/>
<polygon fill="black" stroke="black" points="955.75,-523.62 952.25,-513.62 948.75,-523.62 955.75,-523.62"/>
</g>
<!-- fenics&#45;dolfinx -->
<g id="node9" class="node">
<title>fenics&#45;dolfinx</title>
<g id="a_node9"><a xlink:href="https://github.com/conda-forge/fenics-dolfinx-feedstock" xlink:title="fenics dolfinx">
<ellipse fill="#fde725" stroke="black" cx="1027.25" cy="-422" rx="77.52" ry="18"/>
<text text-anchor="middle" x="1027.25" y="-417.32" font-family="Times,serif" font-size="14.00">fenics dolfinx</text>
</a>
</g>
</g>
<!-- petsc4py&#45;&gt;fenics&#45;dolfinx -->
<g id="edge6" class="edge">
<title>petsc4py&#45;&gt;fenics&#45;dolfinx</title>
<path fill="none" stroke="black" d="M978.89,-549.77C992.37,-540.61 1007.65,-527.69 1016.25,-512 1026.32,-493.61 1028.84,-469.93 1028.96,-451.62"/>
<polygon fill="black" stroke="black" points="1032.46,-451.65 1028.77,-441.71 1025.47,-451.78 1032.46,-451.65"/>
</g>
<!-- slepc4py&#45;&gt;fenics -->
<g id="edge7" class="edge">
<title>slepc4py&#45;&gt;fenics</title>
<path fill="none" stroke="black" d="M936.13,-476.41C927.63,-467.66 917.03,-456.75 907.64,-447.08"/>
<polygon fill="black" stroke="black" points="910.31,-444.81 900.83,-440.07 905.29,-449.69 910.31,-444.81"/>
</g>
<!-- slepc4py&#45;&gt;fenics&#45;dolfinx -->
<g id="edge8" class="edge">
<title>slepc4py&#45;&gt;fenics&#45;dolfinx</title>
<path fill="none" stroke="black" d="M969.64,-476.76C978.9,-468.12 990.49,-457.3 1000.84,-447.65"/>
<polygon fill="black" stroke="black" points="1003.13,-450.29 1008.06,-440.91 998.36,-445.18 1003.13,-450.29"/>
</g>
<!-- dolfinx_mpc -->
<g id="node10" class="node">
<title>dolfinx_mpc</title>
<g id="a_node10"><a xlink:href="https://github.com/conda-forge/dolfinx_mpc-feedstock" xlink:title="dolfinx_mpc">
<ellipse fill="#fde725" stroke="black" cx="1027.25" cy="-350" rx="70.68" ry="18"/>
<text text-anchor="middle" x="1027.25" y="-345.32" font-family="Times,serif" font-size="14.00">dolfinx_mpc</text>
</a>
</g>
</g>
<!-- fenics&#45;dolfinx&#45;&gt;dolfinx_mpc -->
<g id="edge9" class="edge">
<title>fenics&#45;dolfinx&#45;&gt;dolfinx_mpc</title>
<path fill="none" stroke="black" d="M1027.25,-403.7C1027.25,-396.41 1027.25,-387.73 1027.25,-379.54"/>
<polygon fill="black" stroke="black" points="1030.75,-379.62 1027.25,-369.62 1023.75,-379.62 1030.75,-379.62"/>
</g>
<!-- asap3 -->
<g id="node12" class="node">
<title>asap3</title>
<g id="a_node12"><a xlink:href="https://github.com/conda-forge/asap3-feedstock/pull/47" xlink:title="asap3 ✓">
<ellipse fill="#31688e" stroke="black" cx="671.25" cy="-1114" rx="48.58" ry="18"/>
<text text-anchor="middle" x="671.25" y="-1109.33" font-family="Times,serif" font-size="14.00" fill="white">asap3 ✓</text>
</a>
</g>
</g>
<!-- trilinos&#45;&gt;asap3 -->
<!-- lalinference -->
<g id="node16" class="node">
<title>lalinference</title>
<g id="a_node16"><a xlink:href="https://github.com/conda-forge/lalinference-feedstock/pull/63" xlink:title="lalinference ✓">
<ellipse fill="#31688e" stroke="black" cx="671.25" cy="-1042" rx="78.04" ry="18"/>
<text text-anchor="middle" x="671.25" y="-1037.33" font-family="Times,serif" font-size="14.00" fill="white">lalinference ✓</text>
</a>
</g>
</g>
<!-- asap3&#45;&gt;lalinference -->
<!-- lammps -->
<g id="node13" class="node">
<title>lammps</title>
<g id="a_node13"><a xlink:href="https://github.com/conda-forge/lammps-feedstock" xlink:title="lammps">
<ellipse fill="#fde725" stroke="black" cx="248.25" cy="-162" rx="50.68" ry="18"/>
<text text-anchor="middle" x="248.25" y="-157.32" font-family="Times,serif" font-size="14.00">lammps</text>
</a>
</g>
</g>
<!-- deepmd&#45;kit -->
<g id="node14" class="node">
<title>deepmd&#45;kit</title>
<g id="a_node14"><a xlink:href="https://github.com/conda-forge/deepmd-kit-feedstock" xlink:title="deepmd kit">
<ellipse fill="#fde725" stroke="black" cx="200.25" cy="-90" rx="67.52" ry="18"/>
<text text-anchor="middle" x="200.25" y="-85.33" font-family="Times,serif" font-size="14.00">deepmd kit</text>
</a>
</g>
</g>
<!-- lammps&#45;&gt;deepmd&#45;kit -->
<g id="edge12" class="edge">
<title>lammps&#45;&gt;deepmd&#45;kit</title>
<path fill="none" stroke="black" d="M236.63,-144.05C231.08,-135.97 224.33,-126.12 218.15,-117.11"/>
<polygon fill="black" stroke="black" points="221.16,-115.31 212.61,-109.04 215.38,-119.26 221.16,-115.31"/>
</g>
<!-- parsplice -->
<g id="node15" class="node">
<title>parsplice</title>
<g id="a_node15"><a xlink:href="https://github.com/conda-forge/parsplice-feedstock/pull/13" xlink:title="parsplice ❎">
<ellipse fill="#31688e" stroke="black" cx="296.25" cy="-18" rx="72.25" ry="18"/>
<text text-anchor="middle" x="296.25" y="-13.32" font-family="Times,serif" font-size="14.00" fill="white">parsplice ❎</text>
</a>
</g>
</g>
<!-- lammps&#45;&gt;parsplice -->
<g id="edge13" class="edge">
<title>lammps&#45;&gt;parsplice</title>
<path fill="none" stroke="black" d="M259.24,-143.94C265.32,-133.84 272.57,-120.59 277.25,-108 284.48,-88.5 289.3,-65.53 292.28,-47.8"/>
<polygon fill="black" stroke="black" points="295.73,-48.4 293.81,-37.98 288.81,-47.32 295.73,-48.4"/>
</g>
<!-- faunus -->
<g id="node17" class="node">
<title>faunus</title>
<g id="a_node17"><a xlink:href="https://github.com/conda-forge/faunus-feedstock/pull/49" xlink:title="faunus ❎">
<ellipse fill="#31688e" stroke="black" cx="671.25" cy="-970" rx="60.15" ry="18"/>
<text text-anchor="middle" x="671.25" y="-965.33" font-family="Times,serif" font-size="14.00" fill="white">faunus ❎</text>
</a>
</g>
</g>
<!-- lalinference&#45;&gt;faunus -->
<!-- parabem -->
<g id="node18" class="node">
<title>parabem</title>
<g id="a_node18"><a xlink:href="https://github.com/conda-forge/parabem-feedstock/pull/17" xlink:title="parabem ❎">
<ellipse fill="#31688e" stroke="black" cx="671.25" cy="-898" rx="70.68" ry="18"/>
<text text-anchor="middle" x="671.25" y="-893.33" font-family="Times,serif" font-size="14.00" fill="white">parabem ❎</text>
</a>
</g>
</g>
<!-- faunus&#45;&gt;parabem -->
<!-- ambertools -->
<g id="node19" class="node">
<title>ambertools</title>
<g id="a_node19"><a xlink:href="https://github.com/conda-forge/ambertools-feedstock/pull/147" xlink:title="ambertools ❎">
<ellipse fill="#31688e" stroke="black" cx="671.25" cy="-826" rx="82.77" ry="18"/>
<text text-anchor="middle" x="671.25" y="-821.33" font-family="Times,serif" font-size="14.00" fill="white">ambertools ❎</text>
</a>
</g>
</g>
<!-- parabem&#45;&gt;ambertools -->
<!-- dakota -->
<g id="node21" class="node">
<title>dakota</title>
<g id="a_node21"><a xlink:href="https://github.com/conda-forge/dakota-feedstock/pull/49" xlink:title="dakota ❎">
<ellipse fill="#31688e" stroke="black" cx="671.25" cy="-754" rx="60.15" ry="18"/>
<text text-anchor="middle" x="671.25" y="-749.33" font-family="Times,serif" font-size="14.00" fill="white">dakota ❎</text>
</a>
</g>
</g>
<!-- ambertools&#45;&gt;dakota -->
<!-- gpaw -->
<g id="node20" class="node">
<title>gpaw</title>
<g id="a_node20"><a xlink:href="https://github.com/conda-forge/gpaw-feedstock" xlink:title="gpaw">
<ellipse fill="#fde725" stroke="black" cx="334.25" cy="-422" rx="38.06" ry="18"/>
<text text-anchor="middle" x="334.25" y="-417.32" font-family="Times,serif" font-size="14.00">gpaw</text>
</a>
</g>
</g>
<!-- scorec -->
<g id="node22" class="node">
<title>scorec</title>
<g id="a_node22"><a xlink:href="https://github.com/conda-forge/scorec-feedstock/pull/12" xlink:title="scorec ❎">
<ellipse fill="#31688e" stroke="black" cx="671.25" cy="-682" rx="58.57" ry="18"/>
<text text-anchor="middle" x="671.25" y="-677.33" font-family="Times,serif" font-size="14.00" fill="white">scorec ❎</text>
</a>
</g>
</g>
<!-- dakota&#45;&gt;scorec -->
<!-- cp2k -->
<g id="node23" class="node">
<title>cp2k</title>
<g id="a_node23"><a xlink:href="https://github.com/conda-forge/cp2k-feedstock" xlink:title="cp2k">
<ellipse fill="#fde725" stroke="black" cx="699.25" cy="-18" rx="34.9" ry="18"/>
<text text-anchor="middle" x="699.25" y="-13.32" font-family="Times,serif" font-size="14.00">cp2k</text>
</a>
</g>
</g>
<!-- triqs -->
<g id="node24" class="node">
<title>triqs</title>
<g id="a_node24"><a xlink:href="https://github.com/conda-forge/triqs-feedstock/pull/64" xlink:title="triqs ❎">
<ellipse fill="#31688e" stroke="black" cx="654.25" cy="-566" rx="50.16" ry="18"/>
<text text-anchor="middle" x="654.25" y="-561.33" font-family="Times,serif" font-size="14.00" fill="white">triqs ❎</text>
</a>
</g>
</g>
<!-- triqs_tprf -->
<g id="node25" class="node">
<title>triqs_tprf</title>
<g id="a_node25"><a xlink:href="https://github.com/conda-forge/triqs_tprf-feedstock" xlink:title="triqs_tprf">
<ellipse fill="#fde725" stroke="black" cx="567.25" cy="-494" rx="58.57" ry="18"/>
<text text-anchor="middle" x="567.25" y="-489.32" font-family="Times,serif" font-size="14.00">triqs_tprf</text>
</a>
</g>
</g>
<!-- triqs&#45;&gt;triqs_tprf -->
<g id="edge20" class="edge">
<title>triqs&#45;&gt;triqs_tprf</title>
<path fill="none" stroke="black" d="M634.5,-549.12C623.21,-540.03 608.83,-528.46 596.27,-518.35"/>
<polygon fill="black" stroke="black" points="598.68,-515.8 588.69,-512.26 594.29,-521.25 598.68,-515.8"/>
</g>
<!-- triqs_cthyb -->
<g id="node26" class="node">
<title>triqs_cthyb</title>
<g id="a_node26"><a xlink:href="https://github.com/conda-forge/triqs_cthyb-feedstock" xlink:title="triqs_cthyb">
<ellipse fill="#fde725" stroke="black" cx="654.25" cy="-422" rx="67.52" ry="18"/>
<text text-anchor="middle" x="654.25" y="-417.32" font-family="Times,serif" font-size="14.00">triqs_cthyb</text>
</a>
</g>
</g>
<!-- triqs&#45;&gt;triqs_cthyb -->
<g id="edge21" class="edge">
<title>triqs&#45;&gt;triqs_cthyb</title>
<path fill="none" stroke="black" d="M654.25,-547.59C654.25,-523.61 654.25,-480.14 654.25,-451.42"/>
<polygon fill="black" stroke="black" points="657.75,-451.62 654.25,-441.62 650.75,-451.62 657.75,-451.62"/>
</g>
<!-- triqs_dft_tools -->
<g id="node27" class="node">
<title>triqs_dft_tools</title>
<g id="a_node27"><a xlink:href="https://github.com/conda-forge/triqs_dft_tools-feedstock" xlink:title="triqs_dft_tools">
<ellipse fill="#fde725" stroke="black" cx="750.25" cy="-350" rx="82.77" ry="18"/>
<text text-anchor="middle" x="750.25" y="-345.32" font-family="Times,serif" font-size="14.00">triqs_dft_tools</text>
</a>
</g>
</g>
<!-- triqs&#45;&gt;triqs_dft_tools -->
<g id="edge22" class="edge">
<title>triqs&#45;&gt;triqs_dft_tools</title>
<path fill="none" stroke="black" d="M667.22,-548.21C684.42,-525.11 714.56,-481.64 731.25,-440 739.03,-420.58 743.85,-397.43 746.68,-379.61"/>
<polygon fill="black" stroke="black" points="750.14,-380.14 748.12,-369.74 743.21,-379.13 750.14,-380.14"/>
</g>
<!-- daetk -->
<g id="node28" class="node">
<title>daetk</title>
<g id="a_node28"><a xlink:href="https://github.com/conda-forge/daetk-feedstock/pull/17" xlink:title="daetk ✓">
<ellipse fill="#31688e" stroke="black" cx="250.25" cy="-1402" rx="47" ry="18"/>
<text text-anchor="middle" x="250.25" y="-1397.33" font-family="Times,serif" font-size="14.00" fill="white">daetk ✓</text>
</a>
</g>
</g>
<!-- conduit -->
<g id="node29" class="node">
<title>conduit</title>
<g id="a_node29"><a xlink:href="https://github.com/conda-forge/conduit-feedstock/pull/46" xlink:title="conduit ✓">
<ellipse fill="#31688e" stroke="black" cx="250.25" cy="-1330" rx="56.47" ry="18"/>
<text text-anchor="middle" x="250.25" y="-1325.33" font-family="Times,serif" font-size="14.00" fill="white">conduit ✓</text>
</a>
</g>
</g>
<!-- daetk&#45;&gt;conduit -->
<!-- damask -->
<g id="node30" class="node">
<title>damask</title>
<g id="a_node30"><a xlink:href="https://github.com/conda-forge/damask-feedstock/pull/160" xlink:title="damask ❎">
<ellipse fill="#31688e" stroke="black" cx="250.25" cy="-1258" rx="64.89" ry="18"/>
<text text-anchor="middle" x="250.25" y="-1253.33" font-family="Times,serif" font-size="14.00" fill="white">damask ❎</text>
</a>
</g>
</g>
<!-- conduit&#45;&gt;damask -->
<!-- parsmurf -->
<g id="node31" class="node">
<title>parsmurf</title>
<g id="a_node31"><a xlink:href="https://github.com/conda-forge/parsmurf-feedstock/pull/4" xlink:title="parsmurf ❎">
<ellipse fill="#31688e" stroke="black" cx="250.25" cy="-1186" rx="72.78" ry="18"/>
<text text-anchor="middle" x="250.25" y="-1181.33" font-family="Times,serif" font-size="14.00" fill="white">parsmurf ❎</text>
</a>
</g>
</g>
<!-- damask&#45;&gt;parsmurf -->
<!-- dedalus -->
<g id="node35" class="node">
<title>dedalus</title>
<g id="a_node35"><a xlink:href="https://github.com/conda-forge/dedalus-feedstock/pull/22" xlink:title="dedalus ✓">
<ellipse fill="#31688e" stroke="black" cx="250.25" cy="-1114" rx="58.05" ry="18"/>
<text text-anchor="middle" x="250.25" y="-1109.33" font-family="Times,serif" font-size="14.00" fill="white">dedalus ✓</text>
</a>
</g>
</g>
<!-- parsmurf&#45;&gt;dedalus -->
<!-- qe -->
<g id="node32" class="node">
<title>qe</title>
<g id="a_node32"><a xlink:href="https://github.com/conda-forge/qe-feedstock" xlink:title="qe">
<ellipse fill="#fde725" stroke="black" cx="400.25" cy="-350" rx="27" ry="18"/>
<text text-anchor="middle" x="400.25" y="-345.32" font-family="Times,serif" font-size="14.00">qe</text>
</a>
</g>
</g>
<!-- dftbplus -->
<g id="node33" class="node">
<title>dftbplus</title>
<g id="a_node33"><a xlink:href="https://github.com/conda-forge/dftbplus-feedstock" xlink:title="dftbplus">
<ellipse fill="#fde725" stroke="black" cx="92.25" cy="-350" rx="52.79" ry="18"/>
<text text-anchor="middle" x="92.25" y="-345.32" font-family="Times,serif" font-size="14.00">dftbplus</text>
</a>
</g>
</g>
<!-- libmbd -->
<g id="node34" class="node">
<title>libmbd</title>
<g id="a_node34"><a xlink:href="https://github.com/conda-forge/libmbd-feedstock" xlink:title="libmbd">
<ellipse fill="#fde725" stroke="black" cx="92.25" cy="-422" rx="45.95" ry="18"/>
<text text-anchor="middle" x="92.25" y="-417.32" font-family="Times,serif" font-size="14.00">libmbd</text>
</a>
</g>
</g>
<!-- libmbd&#45;&gt;dftbplus -->
<g id="edge26" class="edge">
<title>libmbd&#45;&gt;dftbplus</title>
<path fill="none" stroke="black" d="M92.25,-403.7C92.25,-396.41 92.25,-387.73 92.25,-379.54"/>
<polygon fill="black" stroke="black" points="95.75,-379.62 92.25,-369.62 88.75,-379.62 95.75,-379.62"/>
</g>
<!-- analisi -->
<g id="node36" class="node">
<title>analisi</title>
<g id="a_node36"><a xlink:href="https://github.com/conda-forge/analisi-feedstock/pull/33" xlink:title="analisi ✓">
<ellipse fill="#31688e" stroke="black" cx="250.25" cy="-1042" rx="51.74" ry="18"/>
<text text-anchor="middle" x="250.25" y="-1037.33" font-family="Times,serif" font-size="14.00" fill="white">analisi ✓</text>
</a>
</g>
</g>
<!-- dedalus&#45;&gt;analisi -->
<!-- bmad -->
<g id="node39" class="node">
<title>bmad</title>
<g id="a_node39"><a xlink:href="https://github.com/conda-forge/bmad-feedstock/pull/412" xlink:title="bmad ✓">
<ellipse fill="#31688e" stroke="black" cx="250.25" cy="-970" rx="47" ry="18"/>
<text text-anchor="middle" x="250.25" y="-965.33" font-family="Times,serif" font-size="14.00" fill="white">bmad ✓</text>
</a>
</g>
</g>
<!-- analisi&#45;&gt;bmad -->
<!-- libnegf -->
<g id="node37" class="node">
<title>libnegf</title>
<g id="a_node37"><a xlink:href="https://github.com/conda-forge/libnegf-feedstock/pull/17" xlink:title="libnegf ❎">
<ellipse fill="#31688e" stroke="black" cx="217.25" cy="-422" rx="61.2" ry="18"/>
<text text-anchor="middle" x="217.25" y="-417.32" font-family="Times,serif" font-size="14.00" fill="white">libnegf ❎</text>
</a>
</g>
</g>
<!-- libnegf&#45;&gt;dftbplus -->
<g id="edge29" class="edge">
<title>libnegf&#45;&gt;dftbplus</title>
<path fill="none" stroke="black" d="M189.81,-405.64C171.82,-395.56 148.1,-382.28 128.55,-371.33"/>
<polygon fill="black" stroke="black" points="130.51,-368.42 120.08,-366.59 127.09,-374.53 130.51,-368.42"/>
</g>
<!-- mlip -->
<g id="node38" class="node">
<title>mlip</title>
<g id="a_node38"><a xlink:href="https://github.com/conda-forge/mlip-feedstock/pull/9" xlink:title="mlip ❎">
<ellipse fill="#31688e" stroke="black" cx="248.25" cy="-234" rx="48.58" ry="18"/>
<text text-anchor="middle" x="248.25" y="-229.32" font-family="Times,serif" font-size="14.00" fill="white">mlip ❎</text>
</a>
</g>
</g>
<!-- mlip&#45;&gt;lammps -->
<g id="edge30" class="edge">
<title>mlip&#45;&gt;lammps</title>
<path fill="none" stroke="black" d="M248.25,-215.7C248.25,-208.41 248.25,-199.73 248.25,-191.54"/>
<polygon fill="black" stroke="black" points="251.75,-191.62 248.25,-181.62 244.75,-191.62 251.75,-191.62"/>
</g>
<!-- yambo -->
<g id="node42" class="node">
<title>yambo</title>
<g id="a_node42"><a xlink:href="https://github.com/conda-forge/yambo-feedstock/pull/30" xlink:title="yambo ❎">
<ellipse fill="#31688e" stroke="black" cx="250.25" cy="-898" rx="59.63" ry="18"/>
<text text-anchor="middle" x="250.25" y="-893.33" font-family="Times,serif" font-size="14.00" fill="white">yambo ❎</text>
</a>
</g>
</g>
<!-- bmad&#45;&gt;yambo -->
<!-- spfft -->
<g id="node40" class="node">
<title>spfft</title>
<g id="a_node40"><a xlink:href="https://github.com/conda-forge/spfft-feedstock/pull/7" xlink:title="spfft ✓">
<ellipse fill="#31688e" stroke="black" cx="734.25" cy="-162" rx="41.74" ry="18"/>
<text text-anchor="middle" x="734.25" y="-157.32" font-family="Times,serif" font-size="14.00" fill="white">spfft ✓</text>
</a>
</g>
</g>
<!-- sirius -->
<g id="node41" class="node">
<title>sirius</title>
<g id="a_node41"><a xlink:href="https://github.com/conda-forge/sirius-feedstock" xlink:title="sirius">
<ellipse fill="#fde725" stroke="black" cx="699.25" cy="-90" rx="39.11" ry="18"/>
<text text-anchor="middle" x="699.25" y="-85.33" font-family="Times,serif" font-size="14.00">sirius</text>
</a>
</g>
</g>
<!-- spfft&#45;&gt;sirius -->
<g id="edge32" class="edge">
<title>spfft&#45;&gt;sirius</title>
<path fill="none" stroke="black" d="M725.77,-144.05C721.86,-136.23 717.12,-126.75 712.73,-117.98"/>
<polygon fill="black" stroke="black" points="715.92,-116.52 708.32,-109.14 709.66,-119.65 715.92,-116.52"/>
</g>
<!-- sirius&#45;&gt;cp2k -->
<g id="edge33" class="edge">
<title>sirius&#45;&gt;cp2k</title>
<path fill="none" stroke="black" d="M699.25,-71.7C699.25,-64.41 699.25,-55.73 699.25,-47.54"/>
<polygon fill="black" stroke="black" points="702.75,-47.62 699.25,-37.62 695.75,-47.62 702.75,-47.62"/>
</g>
<!-- ondamonitor -->
<g id="node43" class="node">
<title>ondamonitor</title>
<g id="a_node43"><a xlink:href="https://github.com/conda-forge/ondamonitor-feedstock/pull/12" xlink:title="ondamonitor ❎">
<ellipse fill="#31688e" stroke="black" cx="250.25" cy="-826" rx="90.14" ry="18"/>
<text text-anchor="middle" x="250.25" y="-821.33" font-family="Times,serif" font-size="14.00" fill="white">ondamonitor ❎</text>
</a>
</g>
</g>
<!-- yambo&#45;&gt;ondamonitor -->
<!-- alamode -->
<g id="node44" class="node">
<title>alamode</title>
<g id="a_node44"><a xlink:href="https://github.com/conda-forge/alamode-feedstock/pull/12" xlink:title="alamode ❎">
<ellipse fill="#31688e" stroke="black" cx="250.25" cy="-754" rx="68.57" ry="18"/>
<text text-anchor="middle" x="250.25" y="-749.33" font-family="Times,serif" font-size="14.00" fill="white">alamode ❎</text>
</a>
</g>
</g>
<!-- ondamonitor&#45;&gt;alamode -->
<!-- timemory -->
<g id="node45" class="node">
<title>timemory</title>
<g id="a_node45"><a xlink:href="https://github.com/conda-forge/timemory-feedstock" xlink:title="timemory">
<ellipse fill="#000000" stroke="black" cx="250.25" cy="-682" rx="59.63" ry="18"/>
<text text-anchor="middle" x="250.25" y="-677.33" font-family="Times,serif" font-size="14.00" fill="white">timemory</text>
</a>
</g>
</g>
<!-- alamode&#45;&gt;timemory -->
<!-- costa_variants -->
<g id="node46" class="node">
<title>costa_variants</title>
<g id="a_node46"><a xlink:href="https://github.com/conda-forge/costa_variants-feedstock/pull/4" xlink:title="costa_variants ❎">
<ellipse fill="#31688e" stroke="black" cx="664.25" cy="-234" rx="98.56" ry="18"/>
<text text-anchor="middle" x="664.25" y="-229.32" font-family="Times,serif" font-size="14.00" fill="white">costa_variants ❎</text>
</a>
</g>
</g>
<!-- costa_variants&#45;&gt;sirius -->
<g id="edge38" class="edge">
<title>costa_variants&#45;&gt;sirius</title>
<path fill="none" stroke="black" d="M667.47,-215.84C670.96,-197.84 676.87,-168.79 683.25,-144 685.36,-135.78 687.92,-126.91 690.37,-118.84"/>
<polygon fill="black" stroke="black" points="693.64,-120.12 693.25,-109.53 686.95,-118.05 693.64,-120.12"/>
</g>
<!-- elpa -->
<g id="node47" class="node">
<title>elpa</title>
<g id="a_node47"><a xlink:href="https://github.com/conda-forge/elpa-feedstock/pull/26" xlink:title="elpa ❎">
<ellipse fill="#31688e" stroke="black" cx="334.25" cy="-566" rx="47.53" ry="18"/>
<text text-anchor="middle" x="334.25" y="-561.33" font-family="Times,serif" font-size="14.00" fill="white">elpa ❎</text>
</a>
</g>
</g>
<!-- elpa&#45;&gt;siesta -->
<g id="edge39" class="edge">
<title>elpa&#45;&gt;siesta</title>
<path fill="none" stroke="black" d="M318.24,-548.76C309.41,-539.8 298.28,-528.51 288.5,-518.59"/>
<polygon fill="black" stroke="black" points="291.26,-516.41 281.75,-511.74 286.28,-521.32 291.26,-516.41"/>
</g>
<!-- elpa&#45;&gt;gpaw -->
<g id="edge40" class="edge">
<title>elpa&#45;&gt;gpaw</title>
<path fill="none" stroke="black" d="M334.25,-547.59C334.25,-523.61 334.25,-480.14 334.25,-451.42"/>
<polygon fill="black" stroke="black" points="337.75,-451.62 334.25,-441.62 330.75,-451.62 337.75,-451.62"/>
</g>
<!-- elpa&#45;&gt;qe -->
<g id="edge41" class="edge">
<title>elpa&#45;&gt;qe</title>
<path fill="none" stroke="black" d="M341.62,-547.89C351.66,-524.06 369.71,-479.38 381.25,-440 387.09,-420.04 391.95,-397.08 395.29,-379.48"/>
<polygon fill="black" stroke="black" points="398.71,-380.21 397.08,-369.74 391.83,-378.94 398.71,-380.21"/>
</g>
<!-- elsi -->
<g id="node48" class="node">
<title>elsi</title>
<g id="a_node48"><a xlink:href="https://github.com/conda-forge/elsi-feedstock" xlink:title="elsi">
<ellipse fill="#fde725" stroke="black" cx="92.25" cy="-494" rx="28.59" ry="18"/>
<text text-anchor="middle" x="92.25" y="-489.32" font-family="Times,serif" font-size="14.00">elsi</text>
</a>
</g>
</g>
<!-- elpa&#45;&gt;elsi -->
<g id="edge42" class="edge">
<title>elpa&#45;&gt;elsi</title>
<path fill="none" stroke="black" d="M297.23,-554.29C251.46,-541.05 174.04,-518.66 128.59,-505.51"/>
<polygon fill="black" stroke="black" points="129.79,-502.22 119.21,-502.8 127.84,-508.94 129.79,-502.22"/>
</g>
<!-- abacus -->
<g id="node49" class="node">
<title>abacus</title>
<g id="a_node49"><a xlink:href="https://github.com/conda-forge/abacus-feedstock" xlink:title="abacus">
<ellipse fill="#fde725" stroke="black" cx="455.25" cy="-278" rx="45.95" ry="18"/>
<text text-anchor="middle" x="455.25" y="-273.32" font-family="Times,serif" font-size="14.00">abacus</text>
</a>
</g>
</g>
<!-- elpa&#45;&gt;abacus -->
<g id="edge43" class="edge">
<title>elpa&#45;&gt;abacus</title>
<path fill="none" stroke="black" d="M349.12,-548.68C357.79,-538.61 368.5,-525.15 376.25,-512 411.44,-452.26 415.59,-434.18 436.25,-368 442.44,-348.15 447.29,-325.18 450.54,-307.55"/>
<polygon fill="black" stroke="black" points="453.97,-308.25 452.26,-297.79 447.08,-307.03 453.97,-308.25"/>
</g>
<!-- elsi&#45;&gt;dftbplus -->
<g id="edge44" class="edge">
<title>elsi&#45;&gt;dftbplus</title>
<path fill="none" stroke="black" d="M72.8,-480.54C60.05,-471.13 44.46,-456.96 37.25,-440 30.99,-425.28 30.99,-418.72 37.25,-404 42.16,-392.44 50.97,-382.18 60.12,-373.84"/>
<polygon fill="black" stroke="black" points="62.33,-376.55 67.72,-367.42 57.82,-371.2 62.33,-376.55"/>
</g>
<!-- elsi&#45;&gt;libmbd -->
<g id="edge45" class="edge">
<title>elsi&#45;&gt;libmbd</title>
<path fill="none" stroke="black" d="M92.25,-475.7C92.25,-468.41 92.25,-459.73 92.25,-451.54"/>
<polygon fill="black" stroke="black" points="95.75,-451.62 92.25,-441.62 88.75,-451.62 95.75,-451.62"/>
</g>
<!-- libomm -->
<g id="node50" class="node">
<title>libomm</title>
<g id="a_node50"><a xlink:href="https://github.com/conda-forge/libomm-feedstock" xlink:title="libomm">
<ellipse fill="#fde725" stroke="black" cx="131.25" cy="-566" rx="48.58" ry="18"/>
<text text-anchor="middle" x="131.25" y="-561.33" font-family="Times,serif" font-size="14.00">libomm</text>
</a>
</g>
</g>
<!-- libomm&#45;&gt;elsi -->
<g id="edge46" class="edge">
<title>libomm&#45;&gt;elsi</title>
<path fill="none" stroke="black" d="M121.81,-548.05C117.33,-540.03 111.89,-530.26 106.9,-521.3"/>
<polygon fill="black" stroke="black" points="109.99,-519.66 102.07,-512.63 103.88,-523.07 109.99,-519.66"/>
</g>
<!-- matrixswitch -->
<g id="node51" class="node">
<title>matrixswitch</title>
<g id="a_node51"><a xlink:href="https://github.com/conda-forge/matrixswitch-feedstock/pull/7" xlink:title="matrixswitch ❎">
<ellipse fill="#31688e" stroke="black" cx="92.25" cy="-638" rx="92.25" ry="18"/>
<text text-anchor="middle" x="92.25" y="-633.33" font-family="Times,serif" font-size="14.00" fill="white">matrixswitch ❎</text>
</a>
</g>
</g>
<!-- matrixswitch&#45;&gt;elsi -->
<g id="edge47" class="edge">
<title>matrixswitch&#45;&gt;elsi</title>
<path fill="none" stroke="black" d="M84.35,-619.75C80.14,-609.58 75.39,-596.33 73.25,-584 70.51,-568.24 70.51,-563.76 73.25,-548 74.73,-539.49 77.45,-530.54 80.38,-522.47"/>
<polygon fill="black" stroke="black" points="83.62,-523.78 84,-513.19 77.1,-521.23 83.62,-523.78"/>
</g>
<!-- matrixswitch&#45;&gt;libomm -->
<g id="edge48" class="edge">
<title>matrixswitch&#45;&gt;libomm</title>
<path fill="none" stroke="black" d="M101.89,-619.7C106.18,-611.98 111.35,-602.71 116.14,-594.11"/>
<polygon fill="black" stroke="black" points="119.17,-595.87 120.98,-585.43 113.06,-592.46 119.17,-595.87"/>
</g>
<!-- pexsi -->
<g id="node52" class="node">
<title>pexsi</title>
<g id="a_node52"><a xlink:href="https://github.com/conda-forge/pexsi-feedstock/pull/10" xlink:title="pexsi ❎">
<ellipse fill="#31688e" stroke="black" cx="974.25" cy="-1402" rx="52.79" ry="18"/>
<text text-anchor="middle" x="974.25" y="-1397.33" font-family="Times,serif" font-size="14.00" fill="white">pexsi ❎</text>
</a>
</g>
</g>
<!-- eigenexa -->
<g id="node53" class="node">
<title>eigenexa</title>
<g id="a_node53"><a xlink:href="https://github.com/conda-forge/eigenexa-feedstock/pull/3" xlink:title="eigenexa ❎">
<ellipse fill="#31688e" stroke="black" cx="974.25" cy="-1330" rx="71.2" ry="18"/>
<text text-anchor="middle" x="974.25" y="-1325.33" font-family="Times,serif" font-size="14.00" fill="white">eigenexa ❎</text>
</a>
</g>
</g>
<!-- pexsi&#45;&gt;eigenexa -->
<!-- fleur -->
<g id="node54" class="node">
<title>fleur</title>
<g id="a_node54"><a xlink:href="https://github.com/conda-forge/fleur-feedstock/pull/19" xlink:title="fleur ✓">
<ellipse fill="#31688e" stroke="black" cx="974.25" cy="-1258" rx="42.26" ry="18"/>
<text text-anchor="middle" x="974.25" y="-1253.33" font-family="Times,serif" font-size="14.00" fill="white">fleur ✓</text>
</a>
</g>
</g>
<!-- eigenexa&#45;&gt;fleur -->
<!-- gromacs -->
<g id="node55" class="node">
<title>gromacs</title>
<g id="a_node55"><a xlink:href="https://github.com/conda-forge/gromacs-feedstock" xlink:title="gromacs">
<ellipse fill="#35b779" stroke="black" cx="974.25" cy="-1186" rx="53.84" ry="18"/>
<text text-anchor="middle" x="974.25" y="-1181.33" font-family="Times,serif" font-size="14.00">gromacs</text>
</a>
</g>
</g>
<!-- fleur&#45;&gt;gromacs -->
<!-- edrixs -->
<g id="node56" class="node">
<title>edrixs</title>
<g id="a_node56"><a xlink:href="https://github.com/conda-forge/edrixs-feedstock/pull/14" xlink:title="edrixs ❎">
<ellipse fill="#31688e" stroke="black" cx="974.25" cy="-1114" rx="57.52" ry="18"/>
<text text-anchor="middle" x="974.25" y="-1109.33" font-family="Times,serif" font-size="14.00" fill="white">edrixs ❎</text>
</a>
</g>
</g>
<!-- gromacs&#45;&gt;edrixs -->
<!-- bigdft&#45;suite -->
<g id="node57" class="node">
<title>bigdft&#45;suite</title>
<g id="a_node57"><a xlink:href="https://github.com/conda-forge/bigdft-suite-feedstock/pull/13" xlink:title="bigdft suite ✓">
<ellipse fill="#31688e" stroke="black" cx="974.25" cy="-1042" rx="76.99" ry="18"/>
<text text-anchor="middle" x="974.25" y="-1037.33" font-family="Times,serif" font-size="14.00" fill="white">bigdft suite ✓</text>
</a>
</g>
</g>
<!-- edrixs&#45;&gt;bigdft&#45;suite -->
<!-- openphase -->
<g id="node58" class="node">
<title>openphase</title>
<g id="a_node58"><a xlink:href="https://github.com/conda-forge/openphase-feedstock/pull/2" xlink:title="openphase ❎">
<ellipse fill="#31688e" stroke="black" cx="974.25" cy="-970" rx="80.14" ry="18"/>
<text text-anchor="middle" x="974.25" y="-965.33" font-family="Times,serif" font-size="14.00" fill="white">openphase ❎</text>
</a>
</g>
</g>
<!-- bigdft&#45;suite&#45;&gt;openphase -->
<!-- sparc&#45;x -->
<g id="node59" class="node">
<title>sparc&#45;x</title>
<g id="a_node59"><a xlink:href="https://github.com/conda-forge/sparc-x-feedstock/pull/9" xlink:title="sparc x ❎">
<ellipse fill="#31688e" stroke="black" cx="974.25" cy="-898" rx="62.78" ry="18"/>
<text text-anchor="middle" x="974.25" y="-893.33" font-family="Times,serif" font-size="14.00" fill="white">sparc x ❎</text>
</a>
</g>
</g>
<!-- openphase&#45;&gt;sparc&#45;x -->
<!-- heat -->
<g id="node60" class="node">
<title>heat</title>
<g id="a_node60"><a xlink:href="https://github.com/conda-forge/heat-feedstock/pull/15" xlink:title="heat ❎">
<ellipse fill="#31688e" stroke="black" cx="974.25" cy="-826" rx="48.58" ry="18"/>
<text text-anchor="middle" x="974.25" y="-821.33" font-family="Times,serif" font-size="14.00" fill="white">heat ❎</text>
</a>
</g>
</g>
<!-- sparc&#45;x&#45;&gt;heat -->
<!-- reef3d -->
<g id="node61" class="node">
<title>reef3d</title>
<g id="a_node61"><a xlink:href="https://github.com/conda-forge/reef3d-feedstock/pull/11" xlink:title="reef3d ✓">
<ellipse fill="#31688e" stroke="black" cx="974.25" cy="-754" rx="51.74" ry="18"/>
<text text-anchor="middle" x="974.25" y="-749.33" font-family="Times,serif" font-size="14.00" fill="white">reef3d ✓</text>
</a>
</g>
</g>
<!-- heat&#45;&gt;reef3d -->
<!-- genesis4 -->
<g id="node62" class="node">
<title>genesis4</title>
<g id="a_node62"><a xlink:href="https://github.com/conda-forge/genesis4-feedstock/pull/12" xlink:title="genesis4 ❎">
<ellipse fill="#31688e" stroke="black" cx="974.25" cy="-682" rx="70.68" ry="18"/>
<text text-anchor="middle" x="974.25" y="-677.33" font-family="Times,serif" font-size="14.00" fill="white">genesis4 ❎</text>
</a>
</g>
</g>
<!-- reef3d&#45;&gt;genesis4 -->
<!-- fluidfft&#45;mpi_with_fftw -->
<g id="node63" class="node">
<title>fluidfft&#45;mpi_with_fftw</title>
<g id="a_node63"><a xlink:href="https://github.com/conda-forge/fluidfft-mpi_with_fftw-feedstock/pull/1" xlink:title="fluidfft mpi_with_fftw ❎">
<ellipse fill="#31688e" stroke="black" cx="974.25" cy="-198" rx="132.76" ry="18"/>
<text text-anchor="middle" x="974.25" y="-193.32" font-family="Times,serif" font-size="14.00" fill="white">fluidfft mpi_with_fftw ❎</text>
</a>
</g>
</g>
<!-- eatpy -->
<g id="node64" class="node">
<title>eatpy</title>
<g id="a_node64"><a xlink:href="https://github.com/conda-forge/eatpy-feedstock" xlink:title="eatpy">
<ellipse fill="#000000" stroke="black" cx="974.25" cy="-126" rx="39.11" ry="18"/>
<text text-anchor="middle" x="974.25" y="-121.33" font-family="Times,serif" font-size="14.00" fill="white">eatpy</text>
</a>
</g>
</g>
<!-- fluidfft&#45;mpi_with_fftw&#45;&gt;eatpy -->
<!-- elegant -->
<g id="node65" class="node">
<title>elegant</title>
<g id="a_node65"><a xlink:href="https://github.com/conda-forge/elegant-feedstock/pull/9" xlink:title="elegant ✓">
<ellipse fill="#31688e" stroke="black" cx="974.25" cy="-54" rx="56.47" ry="18"/>
<text text-anchor="middle" x="974.25" y="-49.33" font-family="Times,serif" font-size="14.00" fill="white">elegant ✓</text>
</a>
</g>
</g>
<!-- eatpy&#45;&gt;elegant -->
</g>
</svg>
