<?xml version="1.0" encoding="UTF-8" standalone="no"?>
<!DOCTYPE svg PUBLIC "-//W3C//DTD SVG 1.1//EN"
 "http://www.w3.org/Graphics/SVG/1.1/DTD/svg11.dtd">
<!-- Generated by graphviz version 11.0.0 (20240519.1550)
 -->
<!-- Pages: 1 -->
<svg width="1773pt" height="1428pt"
 viewBox="0.00 0.00 1773.14 1428.00" xmlns="http://www.w3.org/2000/svg" xmlns:xlink="http://www.w3.org/1999/xlink">
<g id="graph0" class="graph" transform="scale(1 1) rotate(0) translate(4 1424)">
<polygon fill="white" stroke="none" points="-4,4 -4,-1424 1769.14,-1424 1769.14,4 -4,4"/>
<!-- casacore -->
<g id="node1" class="node">
<title>casacore</title>
<g id="a_node1"><a xlink:href="https://github.com/conda-forge/casacore-feedstock/pull/88" xlink:title="casacore ❎">
<ellipse fill="#31688e" stroke="black" cx="1603.36" cy="-1402" rx="70.15" ry="18"/>
<text text-anchor="middle" x="1603.36" y="-1397.33" font-family="Times,serif" font-size="14.00" fill="white">casacore ❎</text>
</a>
</g>
</g>
<!-- esmf -->
<g id="node2" class="node">
<title>esmf</title>
<g id="a_node2"><a xlink:href="https://github.com/conda-forge/esmf-feedstock/pull/116" xlink:title="esmf ❎">
<ellipse fill="#31688e" stroke="black" cx="1603.36" cy="-1330" rx="50.68" ry="18"/>
<text text-anchor="middle" x="1603.36" y="-1325.33" font-family="Times,serif" font-size="14.00" fill="white">esmf ❎</text>
</a>
</g>
</g>
<!-- casacore&#45;&gt;esmf -->
<!-- netcdf&#45;cxx4 -->
<g id="node3" class="node">
<title>netcdf&#45;cxx4</title>
<g id="a_node3"><a xlink:href="https://github.com/conda-forge/netcdf-cxx4-feedstock/pull/48" xlink:title="netcdf cxx4 ❎">
<ellipse fill="#31688e" stroke="black" cx="1603.36" cy="-1258" rx="84.35" ry="18"/>
<text text-anchor="middle" x="1603.36" y="-1253.33" font-family="Times,serif" font-size="14.00" fill="white">netcdf cxx4 ❎</text>
</a>
</g>
</g>
<!-- esmf&#45;&gt;netcdf&#45;cxx4 -->
<!-- openpmd&#45;api -->
<g id="node20" class="node">
<title>openpmd&#45;api</title>
<g id="a_node20"><a xlink:href="https://github.com/conda-forge/openpmd-api-feedstock/pull/112" xlink:title="openpmd api ❎">
<ellipse fill="#31688e" stroke="black" cx="1603.36" cy="-1186" rx="91.19" ry="18"/>
<text text-anchor="middle" x="1603.36" y="-1181.33" font-family="Times,serif" font-size="14.00" fill="white">openpmd api ❎</text>
</a>
</g>
</g>
<!-- netcdf&#45;cxx4&#45;&gt;openpmd&#45;api -->
<!-- fenics -->
<g id="node4" class="node">
<title>fenics</title>
<g id="a_node4"><a xlink:href="https://github.com/conda-forge/fenics-feedstock" xlink:title="fenics">
<ellipse fill="#fde725" stroke="black" cx="421.36" cy="-422" rx="40.69" ry="18"/>
<text text-anchor="middle" x="421.36" y="-417.32" font-family="Times,serif" font-size="14.00">fenics</text>
</a>
</g>
</g>
<!-- mshr -->
<g id="node5" class="node">
<title>mshr</title>
<g id="a_node5"><a xlink:href="https://github.com/conda-forge/mshr-feedstock" xlink:title="mshr">
<ellipse fill="#fde725" stroke="black" cx="421.36" cy="-350" rx="37" ry="18"/>
<text text-anchor="middle" x="421.36" y="-345.32" font-family="Times,serif" font-size="14.00">mshr</text>
</a>
</g>
</g>
<!-- fenics&#45;&gt;mshr -->
<g id="edge3" class="edge">
<title>fenics&#45;&gt;mshr</title>
<path fill="none" stroke="black" d="M421.36,-403.7C421.36,-396.41 421.36,-387.73 421.36,-379.54"/>
<polygon fill="black" stroke="black" points="424.86,-379.62 421.36,-369.62 417.86,-379.62 424.86,-379.62"/>
</g>
<!-- h5py -->
<g id="node6" class="node">
<title>h5py</title>
<g id="a_node6"><a xlink:href="https://github.com/conda-forge/h5py-feedstock/pull/141" xlink:title="h5py ❎">
<ellipse fill="#31688e" stroke="black" cx="517.36" cy="-1186" rx="51.21" ry="18"/>
<text text-anchor="middle" x="517.36" y="-1181.33" font-family="Times,serif" font-size="14.00" fill="white">h5py ❎</text>
</a>
</g>
</g>
<!-- openmc -->
<g id="node7" class="node">
<title>openmc</title>
<g id="a_node7"><a xlink:href="https://github.com/conda-forge/openmc-feedstock" xlink:title="openmc">
<ellipse fill="#fde725" stroke="black" cx="838.36" cy="-1114" rx="50.16" ry="18"/>
<text text-anchor="middle" x="838.36" y="-1109.33" font-family="Times,serif" font-size="14.00">openmc</text>
</a>
</g>
</g>
<!-- h5py&#45;&gt;openmc -->
<g id="edge4" class="edge">
<title>h5py&#45;&gt;openmc</title>
<path fill="none" stroke="black" d="M561.35,-1176.32C611.91,-1166.22 697.32,-1148.77 770.36,-1132 775.93,-1130.72 781.74,-1129.34 787.51,-1127.94"/>
<polygon fill="black" stroke="black" points="788.17,-1131.38 797.04,-1125.6 786.49,-1124.58 788.17,-1131.38"/>
</g>
<!-- lalinference -->
<g id="node8" class="node">
<title>lalinference</title>
<g id="a_node8"><a xlink:href="https://github.com/conda-forge/lalinference-feedstock" xlink:title="lalinference">
<ellipse fill="#fde725" stroke="black" cx="339.36" cy="-1114" rx="70.15" ry="18"/>
<text text-anchor="middle" x="339.36" y="-1109.33" font-family="Times,serif" font-size="14.00">lalinference</text>
</a>
</g>
</g>
<!-- h5py&#45;&gt;lalinference -->
<g id="edge5" class="edge">
<title>h5py&#45;&gt;lalinference</title>
<path fill="none" stroke="black" d="M484.3,-1172C456.96,-1161.25 417.77,-1145.84 387.04,-1133.75"/>
<polygon fill="black" stroke="black" points="388.55,-1130.58 377.96,-1130.18 385.99,-1137.1 388.55,-1130.58"/>
</g>
<!-- lfpy -->
<g id="node9" class="node">
<title>lfpy</title>
<g id="a_node9"><a xlink:href="https://github.com/conda-forge/lfpy-feedstock" xlink:title="lfpy">
<ellipse fill="#fde725" stroke="black" cx="731.36" cy="-1114" rx="30.16" ry="18"/>
<text text-anchor="middle" x="731.36" y="-1109.33" font-family="Times,serif" font-size="14.00">lfpy</text>
</a>
</g>
</g>
<!-- h5py&#45;&gt;lfpy -->
<g id="edge6" class="edge">
<title>h5py&#45;&gt;lfpy</title>
<path fill="none" stroke="black" d="M555.75,-1173.83C590.36,-1163.56 642.55,-1147.62 687.36,-1132 690.23,-1131 693.2,-1129.93 696.17,-1128.83"/>
<polygon fill="black" stroke="black" points="697.26,-1132.16 705.38,-1125.36 694.79,-1125.61 697.26,-1132.16"/>
</g>
<!-- deepmd&#45;kit -->
<g id="node10" class="node">
<title>deepmd&#45;kit</title>
<g id="a_node10"><a xlink:href="https://github.com/conda-forge/deepmd-kit-feedstock" xlink:title="deepmd kit">
<ellipse fill="#fde725" stroke="black" cx="237.36" cy="-1042" rx="67.52" ry="18"/>
<text text-anchor="middle" x="237.36" y="-1037.33" font-family="Times,serif" font-size="14.00">deepmd kit</text>
</a>
</g>
</g>
<!-- h5py&#45;&gt;deepmd&#45;kit -->
<g id="edge7" class="edge">
<title>h5py&#45;&gt;deepmd&#45;kit</title>
<path fill="none" stroke="black" d="M467.67,-1180.94C401.56,-1174.53 289.61,-1159.83 260.36,-1132 244.18,-1116.6 238.82,-1091.44 237.28,-1071.79"/>
<polygon fill="black" stroke="black" points="240.78,-1071.75 236.82,-1061.92 233.79,-1072.07 240.78,-1071.75"/>
</g>
<!-- dedalus -->
<g id="node11" class="node">
<title>dedalus</title>
<g id="a_node11"><a xlink:href="https://github.com/conda-forge/dedalus-feedstock" xlink:title="dedalus">
<ellipse fill="#fde725" stroke="black" cx="713.36" cy="-970" rx="50.16" ry="18"/>
<text text-anchor="middle" x="713.36" y="-965.33" font-family="Times,serif" font-size="14.00">dedalus</text>
</a>
</g>
</g>
<!-- h5py&#45;&gt;dedalus -->
<g id="edge8" class="edge">
<title>h5py&#45;&gt;dedalus</title>
<path fill="none" stroke="black" d="M561.55,-1176.66C589.88,-1169.26 625.65,-1155.79 649.36,-1132 686.18,-1095.06 702.48,-1034.29 709.17,-998.93"/>
<polygon fill="black" stroke="black" points="712.55,-999.93 710.82,-989.47 705.65,-998.72 712.55,-999.93"/>
</g>
<!-- ondamonitor -->
<g id="node12" class="node">
<title>ondamonitor</title>
<g id="a_node12"><a xlink:href="https://github.com/conda-forge/ondamonitor-feedstock" xlink:title="ondamonitor">
<ellipse fill="#fde725" stroke="black" cx="700.36" cy="-898" rx="74.88" ry="18"/>
<text text-anchor="middle" x="700.36" y="-893.33" font-family="Times,serif" font-size="14.00">ondamonitor</text>
</a>
</g>
</g>
<!-- h5py&#45;&gt;ondamonitor -->
<g id="edge9" class="edge">
<title>h5py&#45;&gt;ondamonitor</title>
<path fill="none" stroke="black" d="M553.53,-1172.86C573.43,-1164.4 596.93,-1151.15 611.36,-1132 660.87,-1066.32 616.77,-1025.16 654.36,-952 659.57,-941.87 667.11,-932.06 674.58,-923.7"/>
<polygon fill="black" stroke="black" points="676.91,-926.34 681.21,-916.66 671.81,-921.54 676.91,-926.34"/>
</g>
<!-- alamode -->
<g id="node13" class="node">
<title>alamode</title>
<g id="a_node13"><a xlink:href="https://github.com/conda-forge/alamode-feedstock" xlink:title="alamode">
<ellipse fill="#fde725" stroke="black" cx="597.36" cy="-826" rx="53.31" ry="18"/>
<text text-anchor="middle" x="597.36" y="-821.33" font-family="Times,serif" font-size="14.00">alamode</text>
</a>
</g>
</g>
<!-- h5py&#45;&gt;alamode -->
<g id="edge10" class="edge">
<title>h5py&#45;&gt;alamode</title>
<path fill="none" stroke="black" d="M541.32,-1169.88C554.23,-1160.51 569.31,-1147.35 578.36,-1132 598.91,-1097.16 597.36,-1083.45 597.36,-1043 597.36,-1043 597.36,-1043 597.36,-969 597.36,-929.74 597.36,-884.38 597.36,-855.69"/>
<polygon fill="black" stroke="black" points="600.86,-856 597.36,-846 593.86,-856 600.86,-856"/>
</g>
<!-- veloxchem -->
<g id="node14" class="node">
<title>veloxchem</title>
<g id="a_node14"><a xlink:href="https://github.com/conda-forge/veloxchem-feedstock" xlink:title="veloxchem">
<ellipse fill="#fde725" stroke="black" cx="64.36" cy="-1114" rx="64.36" ry="18"/>
<text text-anchor="middle" x="64.36" y="-1109.33" font-family="Times,serif" font-size="14.00">veloxchem</text>
</a>
</g>
</g>
<!-- h5py&#45;&gt;veloxchem -->
<g id="edge11" class="edge">
<title>h5py&#45;&gt;veloxchem</title>
<path fill="none" stroke="black" d="M468.98,-1179.6C396.73,-1171.23 256.46,-1153.78 138.36,-1132 133.2,-1131.05 127.86,-1129.98 122.52,-1128.86"/>
<polygon fill="black" stroke="black" points="123.6,-1125.51 113.08,-1126.82 122.12,-1132.35 123.6,-1125.51"/>
</g>
<!-- heat -->
<g id="node15" class="node">
<title>heat</title>
<g id="a_node15"><a xlink:href="https://github.com/conda-forge/heat-feedstock" xlink:title="heat">
<ellipse fill="#fde725" stroke="black" cx="180.36" cy="-1114" rx="33.32" ry="18"/>
<text text-anchor="middle" x="180.36" y="-1109.33" font-family="Times,serif" font-size="14.00">heat</text>
</a>
</g>
</g>
<!-- h5py&#45;&gt;heat -->
<g id="edge12" class="edge">
<title>h5py&#45;&gt;heat</title>
<path fill="none" stroke="black" d="M469.86,-1178.8C411.97,-1170.67 311.48,-1154.73 227.36,-1132 224.03,-1131.1 220.61,-1130.07 217.19,-1128.97"/>
<polygon fill="black" stroke="black" points="218.49,-1125.72 207.9,-1125.8 216.23,-1132.34 218.49,-1125.72"/>
</g>
<!-- horovod -->
<g id="node16" class="node">
<title>horovod</title>
<g id="a_node16"><a xlink:href="https://github.com/conda-forge/horovod-feedstock" xlink:title="horovod">
<ellipse fill="#fde725" stroke="black" cx="517.36" cy="-1114" rx="51.74" ry="18"/>
<text text-anchor="middle" x="517.36" y="-1109.33" font-family="Times,serif" font-size="14.00">horovod</text>
</a>
</g>
</g>
<!-- h5py&#45;&gt;horovod -->
<g id="edge13" class="edge">
<title>h5py&#45;&gt;horovod</title>
<path fill="none" stroke="black" d="M517.36,-1167.7C517.36,-1160.41 517.36,-1151.73 517.36,-1143.54"/>
<polygon fill="black" stroke="black" points="520.86,-1143.62 517.36,-1133.62 513.86,-1143.62 520.86,-1143.62"/>
</g>
<!-- fluidfft&#45;mpi_with_fftw -->
<g id="node17" class="node">
<title>fluidfft&#45;mpi_with_fftw</title>
<g id="a_node17"><a xlink:href="https://github.com/conda-forge/fluidfft-mpi_with_fftw-feedstock" xlink:title="fluidfft mpi_with_fftw">
<ellipse fill="#fde725" stroke="black" cx="440.36" cy="-1042" rx="117.5" ry="18"/>
<text text-anchor="middle" x="440.36" y="-1037.33" font-family="Times,serif" font-size="14.00">fluidfft mpi_with_fftw</text>
</a>
</g>
</g>
<!-- h5py&#45;&gt;fluidfft&#45;mpi_with_fftw -->
<g id="edge14" class="edge">
<title>h5py&#45;&gt;fluidfft&#45;mpi_with_fftw</title>
<path fill="none" stroke="black" d="M492.9,-1169.77C480.01,-1160.45 465.09,-1147.37 456.36,-1132 445.91,-1113.61 442.03,-1089.93 440.7,-1071.62"/>
<polygon fill="black" stroke="black" points="444.2,-1071.53 440.21,-1061.72 437.21,-1071.88 444.2,-1071.53"/>
</g>
<!-- moab -->
<g id="node18" class="node">
<title>moab</title>
<g id="a_node18"><a xlink:href="https://github.com/conda-forge/moab-feedstock/pull/94" xlink:title="moab ❎">
<ellipse fill="#31688e" stroke="black" cx="843.36" cy="-1258" rx="53.84" ry="18"/>
<text text-anchor="middle" x="843.36" y="-1253.33" font-family="Times,serif" font-size="14.00" fill="white">moab ❎</text>
</a>
</g>
</g>
<!-- dagmc -->
<g id="node19" class="node">
<title>dagmc</title>
<g id="a_node19"><a xlink:href="https://github.com/conda-forge/dagmc-feedstock" xlink:title="dagmc">
<ellipse fill="#fde725" stroke="black" cx="843.36" cy="-1186" rx="44.37" ry="18"/>
<text text-anchor="middle" x="843.36" y="-1181.33" font-family="Times,serif" font-size="14.00">dagmc</text>
</a>
</g>
</g>
<!-- moab&#45;&gt;dagmc -->
<g id="edge15" class="edge">
<title>moab&#45;&gt;dagmc</title>
<path fill="none" stroke="black" d="M843.36,-1239.7C843.36,-1232.41 843.36,-1223.73 843.36,-1215.54"/>
<polygon fill="black" stroke="black" points="846.86,-1215.62 843.36,-1205.62 839.86,-1215.62 846.86,-1215.62"/>
</g>
<!-- dagmc&#45;&gt;openmc -->
<g id="edge16" class="edge">
<title>dagmc&#45;&gt;openmc</title>
<path fill="none" stroke="black" d="M842.12,-1167.7C841.6,-1160.41 840.98,-1151.73 840.4,-1143.54"/>
<polygon fill="black" stroke="black" points="843.89,-1143.34 839.69,-1133.61 836.91,-1143.84 843.89,-1143.34"/>
</g>
<!-- parabem -->
<g id="node32" class="node">
<title>parabem</title>
<g id="a_node32"><a xlink:href="https://github.com/conda-forge/parabem-feedstock/pull/17" xlink:title="parabem ❎">
<ellipse fill="#31688e" stroke="black" cx="1603.36" cy="-1114" rx="70.68" ry="18"/>
<text text-anchor="middle" x="1603.36" y="-1109.33" font-family="Times,serif" font-size="14.00" fill="white">parabem ❎</text>
</a>
</g>
</g>
<!-- openpmd&#45;api&#45;&gt;parabem -->
<!-- netcdf4 -->
<g id="node21" class="node">
<title>netcdf4</title>
<g id="a_node21"><a xlink:href="https://github.com/conda-forge/netcdf4-feedstock/pull/163" xlink:title="netcdf4 ❎">
<ellipse fill="#31688e" stroke="black" cx="122.36" cy="-1186" rx="64.36" ry="18"/>
<text text-anchor="middle" x="122.36" y="-1181.33" font-family="Times,serif" font-size="14.00" fill="white">netcdf4 ❎</text>
</a>
</g>
</g>
<!-- netcdf4&#45;&gt;veloxchem -->
<g id="edge18" class="edge">
<title>netcdf4&#45;&gt;veloxchem</title>
<path fill="none" stroke="black" d="M108.32,-1168.05C101.48,-1159.8 93.11,-1149.7 85.52,-1140.54"/>
<polygon fill="black" stroke="black" points="88.31,-1138.42 79.24,-1132.95 82.92,-1142.89 88.31,-1138.42"/>
</g>
<!-- netcdf4&#45;&gt;heat -->
<g id="edge19" class="edge">
<title>netcdf4&#45;&gt;heat</title>
<path fill="none" stroke="black" d="M136.4,-1168.05C143.51,-1159.47 152.28,-1148.89 160.11,-1139.44"/>
<polygon fill="black" stroke="black" points="162.59,-1141.93 166.28,-1131.99 157.2,-1137.46 162.59,-1141.93"/>
</g>
<!-- siesta -->
<g id="node22" class="node">
<title>siesta</title>
<g id="a_node22"><a xlink:href="https://github.com/conda-forge/siesta-feedstock" xlink:title="siesta">
<ellipse fill="#fde725" stroke="black" cx="1263.36" cy="-494" rx="40.69" ry="18"/>
<text text-anchor="middle" x="1263.36" y="-489.32" font-family="Times,serif" font-size="14.00">siesta</text>
</a>
</g>
</g>
<!-- petsc -->
<g id="node23" class="node">
<title>petsc</title>
<g id="a_node23"><a xlink:href="https://github.com/conda-forge/petsc-feedstock/pull/203" xlink:title="petsc ❎">
<ellipse fill="#31688e" stroke="black" cx="424.36" cy="-638" rx="53.31" ry="18"/>
<text text-anchor="middle" x="424.36" y="-633.33" font-family="Times,serif" font-size="14.00" fill="white">petsc ❎</text>
</a>
</g>
</g>
<!-- petsc&#45;&gt;fenics -->
<g id="edge20" class="edge">
<title>petsc&#45;&gt;fenics</title>
<path fill="none" stroke="black" d="M471.36,-629.14C567.98,-611.05 774.15,-561.33 703.36,-476 674.68,-441.43 546.45,-429.26 473.17,-425.09"/>
<polygon fill="black" stroke="black" points="473.59,-421.61 463.41,-424.57 473.21,-428.6 473.59,-421.61"/>
</g>
<!-- petsc4py -->
<g id="node24" class="node">
<title>petsc4py</title>
<g id="a_node24"><a xlink:href="https://github.com/conda-forge/petsc4py-feedstock" xlink:title="petsc4py">
<ellipse fill="#fde725" stroke="black" cx="263.36" cy="-566" rx="56.47" ry="18"/>
<text text-anchor="middle" x="263.36" y="-561.33" font-family="Times,serif" font-size="14.00">petsc4py</text>
</a>
</g>
</g>
<!-- petsc&#45;&gt;petsc4py -->
<g id="edge21" class="edge">
<title>petsc&#45;&gt;petsc4py</title>
<path fill="none" stroke="black" d="M392.55,-623.17C367.88,-612.44 333.43,-597.46 306.3,-585.67"/>
<polygon fill="black" stroke="black" points="307.89,-582.54 297.32,-581.76 305.09,-588.96 307.89,-582.54"/>
</g>
<!-- slepc -->
<g id="node25" class="node">
<title>slepc</title>
<g id="a_node25"><a xlink:href="https://github.com/conda-forge/slepc-feedstock" xlink:title="slepc">
<ellipse fill="#fde725" stroke="black" cx="471.36" cy="-566" rx="37" ry="18"/>
<text text-anchor="middle" x="471.36" y="-561.33" font-family="Times,serif" font-size="14.00">slepc</text>
</a>
</g>
</g>
<!-- petsc&#45;&gt;slepc -->
<g id="edge22" class="edge">
<title>petsc&#45;&gt;slepc</title>
<path fill="none" stroke="black" d="M435.74,-620.05C441.24,-611.85 447.97,-601.83 454.1,-592.71"/>
<polygon fill="black" stroke="black" points="456.9,-594.82 459.57,-584.56 451.09,-590.91 456.9,-594.82"/>
</g>
<!-- daetk -->
<g id="node26" class="node">
<title>daetk</title>
<g id="a_node26"><a xlink:href="https://github.com/conda-forge/daetk-feedstock" xlink:title="daetk">
<ellipse fill="#fde725" stroke="black" cx="377.36" cy="-566" rx="39.11" ry="18"/>
<text text-anchor="middle" x="377.36" y="-561.33" font-family="Times,serif" font-size="14.00">daetk</text>
</a>
</g>
</g>
<!-- petsc&#45;&gt;daetk -->
<g id="edge23" class="edge">
<title>petsc&#45;&gt;daetk</title>
<path fill="none" stroke="black" d="M412.98,-620.05C407.48,-611.85 400.75,-601.83 394.63,-592.71"/>
<polygon fill="black" stroke="black" points="397.63,-590.91 389.15,-584.56 391.82,-594.82 397.63,-590.91"/>
</g>
<!-- yambo -->
<g id="node27" class="node">
<title>yambo</title>
<g id="a_node27"><a xlink:href="https://github.com/conda-forge/yambo-feedstock" xlink:title="yambo">
<ellipse fill="#fde725" stroke="black" cx="531.36" cy="-494" rx="44.37" ry="18"/>
<text text-anchor="middle" x="531.36" y="-489.32" font-family="Times,serif" font-size="14.00">yambo</text>
</a>
</g>
</g>
<!-- petsc&#45;&gt;yambo -->
<g id="edge24" class="edge">
<title>petsc&#45;&gt;yambo</title>
<path fill="none" stroke="black" d="M461.66,-624.78C481.32,-616.41 504.05,-603.27 517.36,-584 529.46,-566.47 532.65,-542.41 532.99,-523.72"/>
<polygon fill="black" stroke="black" points="536.49,-523.82 532.87,-513.86 529.49,-523.9 536.49,-523.82"/>
</g>
<!-- fenics&#45;dolfinx -->
<g id="node28" class="node">
<title>fenics&#45;dolfinx</title>
<g id="a_node28"><a xlink:href="https://github.com/conda-forge/fenics-dolfinx-feedstock" xlink:title="fenics dolfinx">
<ellipse fill="#fde725" stroke="black" cx="247.36" cy="-422" rx="77.52" ry="18"/>
<text text-anchor="middle" x="247.36" y="-417.32" font-family="Times,serif" font-size="14.00">fenics dolfinx</text>
</a>
</g>
</g>
<!-- petsc&#45;&gt;fenics&#45;dolfinx -->
<g id="edge25" class="edge">
<title>petsc&#45;&gt;fenics&#45;dolfinx</title>
<path fill="none" stroke="black" d="M373.24,-632.28C313.41,-625.58 219.76,-611 198.36,-584 166.59,-543.92 201.18,-483.38 226.23,-449.09"/>
<polygon fill="black" stroke="black" points="228.83,-451.46 232.07,-441.37 223.24,-447.24 228.83,-451.46"/>
</g>
<!-- freefem -->
<g id="node29" class="node">
<title>freefem</title>
<g id="a_node29"><a xlink:href="https://github.com/conda-forge/freefem-feedstock" xlink:title="freefem">
<ellipse fill="#fde725" stroke="black" cx="644.36" cy="-494" rx="50.16" ry="18"/>
<text text-anchor="middle" x="644.36" y="-489.32" font-family="Times,serif" font-size="14.00">freefem</text>
</a>
</g>
</g>
<!-- petsc&#45;&gt;freefem -->
<g id="edge26" class="edge">
<title>petsc&#45;&gt;freefem</title>
<path fill="none" stroke="black" d="M458.42,-623.72C481.48,-614.09 512.22,-599.98 537.36,-584 567.52,-564.83 598.54,-538.11 619.36,-518.96"/>
<polygon fill="black" stroke="black" points="621.59,-521.67 626.52,-512.29 616.82,-516.55 621.59,-521.67"/>
</g>
<!-- dolfinx_mpc -->
<g id="node30" class="node">
<title>dolfinx_mpc</title>
<g id="a_node30"><a xlink:href="https://github.com/conda-forge/dolfinx_mpc-feedstock" xlink:title="dolfinx_mpc">
<ellipse fill="#fde725" stroke="black" cx="194.36" cy="-350" rx="70.68" ry="18"/>
<text text-anchor="middle" x="194.36" y="-345.32" font-family="Times,serif" font-size="14.00">dolfinx_mpc</text>
</a>
</g>
</g>
<!-- petsc&#45;&gt;dolfinx_mpc -->
<g id="edge27" class="edge">
<title>petsc&#45;&gt;dolfinx_mpc</title>
<path fill="none" stroke="black" d="M373.15,-632.6C309.74,-626.04 206.94,-611.44 181.36,-584 126.43,-525.09 137.7,-481.29 160.36,-404 163.12,-394.6 168.11,-385.29 173.43,-377.16"/>
<polygon fill="black" stroke="black" points="176.19,-379.32 179.09,-369.13 170.47,-375.29 176.19,-379.32"/>
</g>
<!-- petsc4py&#45;&gt;fenics -->
<g id="edge28" class="edge">
<title>petsc4py&#45;&gt;fenics</title>
<path fill="none" stroke="black" d="M298.89,-551.77C319.64,-542.8 345.39,-529.4 364.36,-512 383.44,-494.5 398.8,-469.26 408.75,-450.12"/>
<polygon fill="black" stroke="black" points="411.82,-451.8 413.16,-441.29 405.56,-448.67 411.82,-451.8"/>
</g>
<!-- petsc4py&#45;&gt;fenics&#45;dolfinx -->
<g id="edge29" class="edge">
<title>petsc4py&#45;&gt;fenics&#45;dolfinx</title>
<path fill="none" stroke="black" d="M252.17,-548.14C246.2,-538.1 239.45,-524.85 236.36,-512 231.55,-491.98 234.65,-468.89 238.77,-451.25"/>
<polygon fill="black" stroke="black" points="242.11,-452.29 241.24,-441.73 235.34,-450.53 242.11,-452.29"/>
</g>
<!-- slepc4py -->
<g id="node31" class="node">
<title>slepc4py</title>
<g id="a_node31"><a xlink:href="https://github.com/conda-forge/slepc4py-feedstock" xlink:title="slepc4py">
<ellipse fill="#fde725" stroke="black" cx="300.36" cy="-494" rx="55.42" ry="18"/>
<text text-anchor="middle" x="300.36" y="-489.32" font-family="Times,serif" font-size="14.00">slepc4py</text>
</a>
</g>
</g>
<!-- petsc4py&#45;&gt;slepc4py -->
<g id="edge30" class="edge">
<title>petsc4py&#45;&gt;slepc4py</title>
<path fill="none" stroke="black" d="M272.32,-548.05C276.5,-540.14 281.58,-530.54 286.25,-521.69"/>
<polygon fill="black" stroke="black" points="289.2,-523.6 290.78,-513.13 283.01,-520.33 289.2,-523.6"/>
</g>
<!-- slepc&#45;&gt;fenics -->
<g id="edge31" class="edge">
<title>slepc&#45;&gt;fenics</title>
<path fill="none" stroke="black" d="M465.33,-547.87C456.85,-523.78 441.29,-479.6 431.14,-450.77"/>
<polygon fill="black" stroke="black" points="434.54,-449.89 427.92,-441.62 427.94,-452.21 434.54,-449.89"/>
</g>
<!-- slepc&#45;&gt;yambo -->
<g id="edge32" class="edge">
<title>slepc&#45;&gt;yambo</title>
<path fill="none" stroke="black" d="M484.98,-549.12C492.39,-540.47 501.72,-529.58 510.08,-519.83"/>
<polygon fill="black" stroke="black" points="512.55,-522.33 516.4,-512.46 507.23,-517.77 512.55,-522.33"/>
</g>
<!-- slepc&#45;&gt;fenics&#45;dolfinx -->
<g id="edge33" class="edge">
<title>slepc&#45;&gt;fenics&#45;dolfinx</title>
<path fill="none" stroke="black" d="M455.39,-549.33C435.36,-530.27 399.38,-497.93 364.36,-476 343.42,-462.89 318.7,-451.2 297.38,-442.16"/>
<polygon fill="black" stroke="black" points="298.88,-438.99 288.3,-438.39 296.2,-445.45 298.88,-438.99"/>
</g>
<!-- slepc&#45;&gt;freefem -->
<g id="edge34" class="edge">
<title>slepc&#45;&gt;freefem</title>
<path fill="none" stroke="black" d="M499.16,-553.75C526.79,-542.57 569.55,-525.27 601.53,-512.33"/>
<polygon fill="black" stroke="black" points="602.56,-515.69 610.52,-508.69 599.93,-509.2 602.56,-515.69"/>
</g>
<!-- slepc&#45;&gt;slepc4py -->
<g id="edge35" class="edge">
<title>slepc&#45;&gt;slepc4py</title>
<path fill="none" stroke="black" d="M443.89,-553.75C417.12,-542.79 375.97,-525.95 344.59,-513.11"/>
<polygon fill="black" stroke="black" points="345.92,-509.87 335.34,-509.32 343.27,-516.35 345.92,-509.87"/>
</g>
<!-- fenics&#45;dolfinx&#45;&gt;dolfinx_mpc -->
<g id="edge36" class="edge">
<title>fenics&#45;dolfinx&#45;&gt;dolfinx_mpc</title>
<path fill="none" stroke="black" d="M234.53,-404.05C228.35,-395.89 220.79,-385.91 213.91,-376.82"/>
<polygon fill="black" stroke="black" points="216.81,-374.86 207.99,-369 211.23,-379.08 216.81,-374.86"/>
</g>
<!-- slepc4py&#45;&gt;fenics -->
<g id="edge37" class="edge">
<title>slepc4py&#45;&gt;fenics</title>
<path fill="none" stroke="black" d="M326.62,-477.81C344.41,-467.52 368.09,-453.82 387.33,-442.69"/>
<polygon fill="black" stroke="black" points="389,-445.76 395.9,-437.73 385.49,-439.71 389,-445.76"/>
</g>
<!-- slepc4py&#45;&gt;fenics&#45;dolfinx -->
<g id="edge38" class="edge">
<title>slepc4py&#45;&gt;fenics&#45;dolfinx</title>
<path fill="none" stroke="black" d="M287.53,-476.05C281.35,-467.89 273.79,-457.91 266.91,-448.82"/>
<polygon fill="black" stroke="black" points="269.81,-446.86 260.99,-441 264.23,-451.08 269.81,-446.86"/>
</g>
<!-- dakota -->
<g id="node34" class="node">
<title>dakota</title>
<g id="a_node34"><a xlink:href="https://github.com/conda-forge/dakota-feedstock/pull/49" xlink:title="dakota ❎">
<ellipse fill="#31688e" stroke="black" cx="1603.36" cy="-1042" rx="60.15" ry="18"/>
<text text-anchor="middle" x="1603.36" y="-1037.33" font-family="Times,serif" font-size="14.00" fill="white">dakota ❎</text>
</a>
</g>
</g>
<!-- parabem&#45;&gt;dakota -->
<!-- neuron -->
<g id="node33" class="node">
<title>neuron</title>
<g id="a_node33"><a xlink:href="https://github.com/conda-forge/neuron-feedstock/pull/54" xlink:title="neuron ✓">
<ellipse fill="#31688e" stroke="black" cx="726.36" cy="-1186" rx="54.36" ry="18"/>
<text text-anchor="middle" x="726.36" y="-1181.33" font-family="Times,serif" font-size="14.00" fill="white">neuron ✓</text>
</a>
</g>
</g>
<!-- neuron&#45;&gt;lfpy -->
<g id="edge40" class="edge">
<title>neuron&#45;&gt;lfpy</title>
<path fill="none" stroke="black" d="M727.6,-1167.7C728.12,-1160.41 728.74,-1151.73 729.32,-1143.54"/>
<polygon fill="black" stroke="black" points="732.81,-1143.84 730.03,-1133.61 725.83,-1143.34 732.81,-1143.84"/>
</g>
<!-- scorec -->
<g id="node35" class="node">
<title>scorec</title>
<g id="a_node35"><a xlink:href="https://github.com/conda-forge/scorec-feedstock/pull/12" xlink:title="scorec ❎">
<ellipse fill="#31688e" stroke="black" cx="1603.36" cy="-970" rx="58.57" ry="18"/>
<text text-anchor="middle" x="1603.36" y="-965.33" font-family="Times,serif" font-size="14.00" fill="white">scorec ❎</text>
</a>
</g>
</g>
<!-- dakota&#45;&gt;scorec -->
<!-- netcdf&#45;cxx&#45;legacy -->
<g id="node40" class="node">
<title>netcdf&#45;cxx&#45;legacy</title>
<g id="a_node40"><a xlink:href="https://github.com/conda-forge/netcdf-cxx-legacy-feedstock/pull/16" xlink:title="netcdf cxx legacy ❎">
<ellipse fill="#31688e" stroke="black" cx="1603.36" cy="-898" rx="113.29" ry="18"/>
<text text-anchor="middle" x="1603.36" y="-893.33" font-family="Times,serif" font-size="14.00" fill="white">netcdf cxx legacy ❎</text>
</a>
</g>
</g>
<!-- scorec&#45;&gt;netcdf&#45;cxx&#45;legacy -->
<!-- triqs -->
<g id="node36" class="node">
<title>triqs</title>
<g id="a_node36"><a xlink:href="https://github.com/conda-forge/triqs-feedstock/pull/64" xlink:title="triqs ❎">
<ellipse fill="#31688e" stroke="black" cx="1586.36" cy="-602" rx="50.16" ry="18"/>
<text text-anchor="middle" x="1586.36" y="-597.33" font-family="Times,serif" font-size="14.00" fill="white">triqs ❎</text>
</a>
</g>
</g>
<!-- triqs_tprf -->
<g id="node37" class="node">
<title>triqs_tprf</title>
<g id="a_node37"><a xlink:href="https://github.com/conda-forge/triqs_tprf-feedstock" xlink:title="triqs_tprf">
<ellipse fill="#fde725" stroke="black" cx="1499.36" cy="-530" rx="58.57" ry="18"/>
<text text-anchor="middle" x="1499.36" y="-525.33" font-family="Times,serif" font-size="14.00">triqs_tprf</text>
</a>
</g>
</g>
<!-- triqs&#45;&gt;triqs_tprf -->
<g id="edge43" class="edge">
<title>triqs&#45;&gt;triqs_tprf</title>
<path fill="none" stroke="black" d="M1566.62,-585.12C1555.32,-576.03 1540.94,-564.46 1528.38,-554.35"/>
<polygon fill="black" stroke="black" points="1530.79,-551.8 1520.81,-548.26 1526.4,-557.25 1530.79,-551.8"/>
</g>
<!-- triqs_cthyb -->
<g id="node38" class="node">
<title>triqs_cthyb</title>
<g id="a_node38"><a xlink:href="https://github.com/conda-forge/triqs_cthyb-feedstock" xlink:title="triqs_cthyb">
<ellipse fill="#fde725" stroke="black" cx="1586.36" cy="-458" rx="67.52" ry="18"/>
<text text-anchor="middle" x="1586.36" y="-453.32" font-family="Times,serif" font-size="14.00">triqs_cthyb</text>
</a>
</g>
</g>
<!-- triqs&#45;&gt;triqs_cthyb -->
<g id="edge44" class="edge">
<title>triqs&#45;&gt;triqs_cthyb</title>
<path fill="none" stroke="black" d="M1586.36,-583.59C1586.36,-559.61 1586.36,-516.14 1586.36,-487.42"/>
<polygon fill="black" stroke="black" points="1589.86,-487.62 1586.36,-477.62 1582.86,-487.62 1589.86,-487.62"/>
</g>
<!-- triqs_dft_tools -->
<g id="node39" class="node">
<title>triqs_dft_tools</title>
<g id="a_node39"><a xlink:href="https://github.com/conda-forge/triqs_dft_tools-feedstock" xlink:title="triqs_dft_tools">
<ellipse fill="#fde725" stroke="black" cx="1682.36" cy="-386" rx="82.77" ry="18"/>
<text text-anchor="middle" x="1682.36" y="-381.32" font-family="Times,serif" font-size="14.00">triqs_dft_tools</text>
</a>
</g>
</g>
<!-- triqs&#45;&gt;triqs_dft_tools -->
<g id="edge45" class="edge">
<title>triqs&#45;&gt;triqs_dft_tools</title>
<path fill="none" stroke="black" d="M1599.33,-584.21C1616.54,-561.11 1646.67,-517.64 1663.36,-476 1671.15,-456.58 1675.96,-433.43 1678.8,-415.61"/>
<polygon fill="black" stroke="black" points="1682.26,-416.14 1680.24,-405.74 1675.33,-415.13 1682.26,-416.14"/>
</g>
<!-- conduit -->
<g id="node41" class="node">
<title>conduit</title>
<g id="a_node41"><a xlink:href="https://github.com/conda-forge/conduit-feedstock/pull/46" xlink:title="conduit ✓">
<ellipse fill="#31688e" stroke="black" cx="1603.36" cy="-826" rx="56.47" ry="18"/>
<text text-anchor="middle" x="1603.36" y="-821.33" font-family="Times,serif" font-size="14.00" fill="white">conduit ✓</text>
</a>
</g>
</g>
<!-- netcdf&#45;cxx&#45;legacy&#45;&gt;conduit -->
<!-- parsplice -->
<g id="node42" class="node">
<title>parsplice</title>
<g id="a_node42"><a xlink:href="https://github.com/conda-forge/parsplice-feedstock/pull/13" xlink:title="parsplice ❎">
<ellipse fill="#31688e" stroke="black" cx="1603.36" cy="-754" rx="72.25" ry="18"/>
<text text-anchor="middle" x="1603.36" y="-749.33" font-family="Times,serif" font-size="14.00" fill="white">parsplice ❎</text>
</a>
</g>
</g>
<!-- conduit&#45;&gt;parsplice -->
<!-- parsmurf -->
<g id="node43" class="node">
<title>parsmurf</title>
<g id="a_node43"><a xlink:href="https://github.com/conda-forge/parsmurf-feedstock/pull/4" xlink:title="parsmurf ❎">
<ellipse fill="#31688e" stroke="black" cx="1603.36" cy="-682" rx="72.78" ry="18"/>
<text text-anchor="middle" x="1603.36" y="-677.33" font-family="Times,serif" font-size="14.00" fill="white">parsmurf ❎</text>
</a>
</g>
</g>
<!-- parsplice&#45;&gt;parsmurf -->
<!-- qe -->
<g id="node44" class="node">
<title>qe</title>
<g id="a_node44"><a xlink:href="https://github.com/conda-forge/qe-feedstock" xlink:title="qe">
<ellipse fill="#fde725" stroke="black" cx="1332.36" cy="-422" rx="27" ry="18"/>
<text text-anchor="middle" x="1332.36" y="-417.32" font-family="Times,serif" font-size="14.00">qe</text>
</a>
</g>
</g>
<!-- dftbplus -->
<g id="node45" class="node">
<title>dftbplus</title>
<g id="a_node45"><a xlink:href="https://github.com/conda-forge/dftbplus-feedstock" xlink:title="dftbplus">
<ellipse fill="#fde725" stroke="black" cx="1068.36" cy="-350" rx="52.79" ry="18"/>
<text text-anchor="middle" x="1068.36" y="-345.32" font-family="Times,serif" font-size="14.00">dftbplus</text>
</a>
</g>
</g>
<!-- libmbd -->
<g id="node46" class="node">
<title>libmbd</title>
<g id="a_node46"><a xlink:href="https://github.com/conda-forge/libmbd-feedstock" xlink:title="libmbd">
<ellipse fill="#fde725" stroke="black" cx="1031.36" cy="-422" rx="45.95" ry="18"/>
<text text-anchor="middle" x="1031.36" y="-417.32" font-family="Times,serif" font-size="14.00">libmbd</text>
</a>
</g>
</g>
<!-- libmbd&#45;&gt;dftbplus -->
<g id="edge50" class="edge">
<title>libmbd&#45;&gt;dftbplus</title>
<path fill="none" stroke="black" d="M1040.32,-404.05C1044.5,-396.14 1049.58,-386.54 1054.25,-377.69"/>
<polygon fill="black" stroke="black" points="1057.2,-379.6 1058.78,-369.13 1051.01,-376.33 1057.2,-379.6"/>
</g>
<!-- scalapackfx -->
<g id="node47" class="node">
<title>scalapackfx</title>
<g id="a_node47"><a xlink:href="https://github.com/conda-forge/scalapackfx-feedstock/pull/9" xlink:title="scalapackfx ✓">
<ellipse fill="#31688e" stroke="black" cx="1210.36" cy="-422" rx="76.99" ry="18"/>
<text text-anchor="middle" x="1210.36" y="-417.32" font-family="Times,serif" font-size="14.00" fill="white">scalapackfx ✓</text>
</a>
</g>
</g>
<!-- scalapackfx&#45;&gt;dftbplus -->
<g id="edge51" class="edge">
<title>scalapackfx&#45;&gt;dftbplus</title>
<path fill="none" stroke="black" d="M1178.49,-405.29C1157.46,-394.92 1129.76,-381.27 1107.4,-370.24"/>
<polygon fill="black" stroke="black" points="1109.1,-367.18 1098.58,-365.9 1106.01,-373.46 1109.1,-367.18"/>
</g>
<!-- mrchem -->
<g id="node48" class="node">
<title>mrchem</title>
<g id="a_node48"><a xlink:href="https://github.com/conda-forge/mrchem-feedstock/pull/28" xlink:title="mrchem ❎">
<ellipse fill="#31688e" stroke="black" cx="1169.36" cy="-1402" rx="67.52" ry="18"/>
<text text-anchor="middle" x="1169.36" y="-1397.33" font-family="Times,serif" font-size="14.00" fill="white">mrchem ❎</text>
</a>
</g>
</g>
<!-- tempest&#45;extremes -->
<g id="node49" class="node">
<title>tempest&#45;extremes</title>
<g id="a_node49"><a xlink:href="https://github.com/conda-forge/tempest-extremes-feedstock/pull/9" xlink:title="tempest extremes ❎">
<ellipse fill="#31688e" stroke="black" cx="1169.36" cy="-1330" rx="117.5" ry="18"/>
<text text-anchor="middle" x="1169.36" y="-1325.33" font-family="Times,serif" font-size="14.00" fill="white">tempest extremes ❎</text>
</a>
</g>
</g>
<!-- mrchem&#45;&gt;tempest&#45;extremes -->
<!-- analisi -->
<g id="node51" class="node">
<title>analisi</title>
<g id="a_node51"><a xlink:href="https://github.com/conda-forge/analisi-feedstock/pull/33" xlink:title="analisi ✓">
<ellipse fill="#31688e" stroke="black" cx="1169.36" cy="-1258" rx="51.74" ry="18"/>
<text text-anchor="middle" x="1169.36" y="-1253.33" font-family="Times,serif" font-size="14.00" fill="white">analisi ✓</text>
</a>
</g>
</g>
<!-- tempest&#45;extremes&#45;&gt;analisi -->
<!-- libnegf -->
<g id="node50" class="node">
<title>libnegf</title>
<g id="a_node50"><a xlink:href="https://github.com/conda-forge/libnegf-feedstock/pull/17" xlink:title="libnegf ❎">
<ellipse fill="#31688e" stroke="black" cx="1105.36" cy="-494" rx="61.2" ry="18"/>
<text text-anchor="middle" x="1105.36" y="-489.32" font-family="Times,serif" font-size="14.00" fill="white">libnegf ❎</text>
</a>
</g>
</g>
<!-- libnegf&#45;&gt;dftbplus -->
<g id="edge53" class="edge">
<title>libnegf&#45;&gt;dftbplus</title>
<path fill="none" stroke="black" d="M1102.31,-475.79C1098.96,-457.76 1093.16,-428.68 1086.36,-404 1084.08,-395.72 1081.23,-386.84 1078.47,-378.77"/>
<polygon fill="black" stroke="black" points="1081.82,-377.74 1075.21,-369.46 1075.21,-380.05 1081.82,-377.74"/>
</g>
<!-- nwchem -->
<g id="node52" class="node">
<title>nwchem</title>
<g id="a_node52"><a xlink:href="https://github.com/conda-forge/nwchem-feedstock/pull/49" xlink:title="nwchem ❎">
<ellipse fill="#31688e" stroke="black" cx="1169.36" cy="-1186" rx="68.04" ry="18"/>
<text text-anchor="middle" x="1169.36" y="-1181.33" font-family="Times,serif" font-size="14.00" fill="white">nwchem ❎</text>
</a>
</g>
</g>
<!-- analisi&#45;&gt;nwchem -->
<!-- bmad -->
<g id="node53" class="node">
<title>bmad</title>
<g id="a_node53"><a xlink:href="https://github.com/conda-forge/bmad-feedstock/pull/412" xlink:title="bmad ✓">
<ellipse fill="#31688e" stroke="black" cx="1169.36" cy="-1114" rx="47" ry="18"/>
<text text-anchor="middle" x="1169.36" y="-1109.33" font-family="Times,serif" font-size="14.00" fill="white">bmad ✓</text>
</a>
</g>
</g>
<!-- nwchem&#45;&gt;bmad -->
<!-- mfem -->
<g id="node54" class="node">
<title>mfem</title>
<g id="a_node54"><a xlink:href="https://github.com/conda-forge/mfem-feedstock/pull/13" xlink:title="mfem ❎">
<ellipse fill="#31688e" stroke="black" cx="1169.36" cy="-1042" rx="54.89" ry="18"/>
<text text-anchor="middle" x="1169.36" y="-1037.33" font-family="Times,serif" font-size="14.00" fill="white">mfem ❎</text>
</a>
</g>
</g>
<!-- bmad&#45;&gt;mfem -->
<!-- timemory -->
<g id="node55" class="node">
<title>timemory</title>
<g id="a_node55"><a xlink:href="https://github.com/conda-forge/timemory-feedstock" xlink:title="timemory">
<ellipse fill="#000000" stroke="black" cx="1169.36" cy="-970" rx="59.63" ry="18"/>
<text text-anchor="middle" x="1169.36" y="-965.33" font-family="Times,serif" font-size="14.00" fill="white">timemory</text>
</a>
</g>
</g>
<!-- mfem&#45;&gt;timemory -->
<!-- pexsi -->
<g id="node56" class="node">
<title>pexsi</title>
<g id="a_node56"><a xlink:href="https://github.com/conda-forge/pexsi-feedstock/pull/10" xlink:title="pexsi ❎">
<ellipse fill="#31688e" stroke="black" cx="1169.36" cy="-898" rx="52.79" ry="18"/>
<text text-anchor="middle" x="1169.36" y="-893.33" font-family="Times,serif" font-size="14.00" fill="white">pexsi ❎</text>
</a>
</g>
</g>
<!-- timemory&#45;&gt;pexsi -->
<!-- eigenexa -->
<g id="node62" class="node">
<title>eigenexa</title>
<g id="a_node62"><a xlink:href="https://github.com/conda-forge/eigenexa-feedstock/pull/3" xlink:title="eigenexa ❎">
<ellipse fill="#31688e" stroke="black" cx="1169.36" cy="-826" rx="71.2" ry="18"/>
<text text-anchor="middle" x="1169.36" y="-821.33" font-family="Times,serif" font-size="14.00" fill="white">eigenexa ❎</text>
</a>
</g>
</g>
<!-- pexsi&#45;&gt;eigenexa -->
<!-- elpa -->
<g id="node57" class="node">
<title>elpa</title>
<g id="a_node57"><a xlink:href="https://github.com/conda-forge/elpa-feedstock/pull/26" xlink:title="elpa ❎">
<ellipse fill="#31688e" stroke="black" cx="1297.36" cy="-566" rx="47.53" ry="18"/>
<text text-anchor="middle" x="1297.36" y="-561.33" font-family="Times,serif" font-size="14.00" fill="white">elpa ❎</text>
</a>
</g>
</g>
<!-- elpa&#45;&gt;siesta -->
<g id="edge60" class="edge">
<title>elpa&#45;&gt;siesta</title>
<path fill="none" stroke="black" d="M1289.13,-548.05C1285.33,-540.23 1280.72,-530.75 1276.46,-521.98"/>
<polygon fill="black" stroke="black" points="1279.69,-520.62 1272.18,-513.15 1273.4,-523.67 1279.69,-520.62"/>
</g>
<!-- elpa&#45;&gt;qe -->
<g id="edge61" class="edge">
<title>elpa&#45;&gt;qe</title>
<path fill="none" stroke="black" d="M1302.91,-547.92C1306.17,-537.58 1310.25,-524.1 1313.36,-512 1318.54,-491.86 1323.42,-468.9 1326.93,-451.35"/>
<polygon fill="black" stroke="black" points="1330.35,-452.13 1328.84,-441.65 1323.48,-450.78 1330.35,-452.13"/>
</g>
<!-- elsi -->
<g id="node58" class="node">
<title>elsi</title>
<g id="a_node58"><a xlink:href="https://github.com/conda-forge/elsi-feedstock" xlink:title="elsi">
<ellipse fill="#fde725" stroke="black" cx="997.36" cy="-494" rx="28.59" ry="18"/>
<text text-anchor="middle" x="997.36" y="-489.32" font-family="Times,serif" font-size="14.00">elsi</text>
</a>
</g>
</g>
<!-- elpa&#45;&gt;elsi -->
<g id="edge62" class="edge">
<title>elpa&#45;&gt;elsi</title>
<path fill="none" stroke="black" d="M1253.03,-559.09C1200.31,-551.37 1110.05,-535.94 1035.36,-512 1033.56,-511.42 1031.74,-510.79 1029.9,-510.11"/>
<polygon fill="black" stroke="black" points="1031.53,-506.99 1020.95,-506.48 1028.9,-513.48 1031.53,-506.99"/>
</g>
<!-- abacus -->
<g id="node59" class="node">
<title>abacus</title>
<g id="a_node59"><a xlink:href="https://github.com/conda-forge/abacus-feedstock" xlink:title="abacus">
<ellipse fill="#fde725" stroke="black" cx="1387.36" cy="-350" rx="45.95" ry="18"/>
<text text-anchor="middle" x="1387.36" y="-345.32" font-family="Times,serif" font-size="14.00">abacus</text>
</a>
</g>
</g>
<!-- elpa&#45;&gt;abacus -->
<g id="edge63" class="edge">
<title>elpa&#45;&gt;abacus</title>
<path fill="none" stroke="black" d="M1308.81,-548.07C1315.61,-537.79 1324.27,-524.32 1331.36,-512 1349.32,-480.82 1356.28,-473.89 1368.36,-440 1375.35,-420.41 1380.17,-397.44 1383.21,-379.74"/>
<polygon fill="black" stroke="black" points="1386.66,-380.36 1384.79,-369.93 1379.74,-379.24 1386.66,-380.36"/>
</g>
<!-- elsi&#45;&gt;dftbplus -->
<g id="edge64" class="edge">
<title>elsi&#45;&gt;dftbplus</title>
<path fill="none" stroke="black" d="M986.89,-476.87C976.23,-458.2 963.01,-427.09 976.36,-404 985.91,-387.48 1002.78,-375.65 1019.49,-367.43"/>
<polygon fill="black" stroke="black" points="1020.75,-370.7 1028.42,-363.38 1017.87,-364.32 1020.75,-370.7"/>
</g>
<!-- elsi&#45;&gt;libmbd -->
<g id="edge65" class="edge">
<title>elsi&#45;&gt;libmbd</title>
<path fill="none" stroke="black" d="M1005.42,-476.41C1009.22,-468.59 1013.85,-459.06 1018.14,-450.23"/>
<polygon fill="black" stroke="black" points="1021.24,-451.84 1022.46,-441.32 1014.95,-448.78 1021.24,-451.84"/>
</g>
<!-- libomm -->
<g id="node60" class="node">
<title>libomm</title>
<g id="a_node60"><a xlink:href="https://github.com/conda-forge/libomm-feedstock" xlink:title="libomm">
<ellipse fill="#fde725" stroke="black" cx="1036.36" cy="-566" rx="48.58" ry="18"/>
<text text-anchor="middle" x="1036.36" y="-561.33" font-family="Times,serif" font-size="14.00">libomm</text>
</a>
</g>
</g>
<!-- libomm&#45;&gt;elsi -->
<g id="edge66" class="edge">
<title>libomm&#45;&gt;elsi</title>
<path fill="none" stroke="black" d="M1026.92,-548.05C1022.45,-540.03 1017,-530.26 1012.01,-521.3"/>
<polygon fill="black" stroke="black" points="1015.11,-519.66 1007.18,-512.63 1008.99,-523.07 1015.11,-519.66"/>
</g>
<!-- matrixswitch -->
<g id="node61" class="node">
<title>matrixswitch</title>
<g id="a_node61"><a xlink:href="https://github.com/conda-forge/matrixswitch-feedstock/pull/7" xlink:title="matrixswitch ❎">
<ellipse fill="#31688e" stroke="black" cx="997.36" cy="-638" rx="92.25" ry="18"/>
<text text-anchor="middle" x="997.36" y="-633.33" font-family="Times,serif" font-size="14.00" fill="white">matrixswitch ❎</text>
</a>
</g>
</g>
<!-- matrixswitch&#45;&gt;elsi -->
<g id="edge67" class="edge">
<title>matrixswitch&#45;&gt;elsi</title>
<path fill="none" stroke="black" d="M989.47,-619.75C985.25,-609.58 980.5,-596.33 978.36,-584 975.62,-568.24 975.62,-563.76 978.36,-548 979.84,-539.49 982.56,-530.54 985.49,-522.47"/>
<polygon fill="black" stroke="black" points="988.74,-523.78 989.11,-513.19 982.22,-521.23 988.74,-523.78"/>
</g>
<!-- matrixswitch&#45;&gt;libomm -->
<g id="edge68" class="edge">
<title>matrixswitch&#45;&gt;libomm</title>
<path fill="none" stroke="black" d="M1007,-619.7C1011.3,-611.98 1016.46,-602.71 1021.26,-594.11"/>
<polygon fill="black" stroke="black" points="1024.29,-595.87 1026.09,-585.43 1018.17,-592.46 1024.29,-595.87"/>
</g>
<!-- fleur -->
<g id="node63" class="node">
<title>fleur</title>
<g id="a_node63"><a xlink:href="https://github.com/conda-forge/fleur-feedstock/pull/19" xlink:title="fleur ✓">
<ellipse fill="#31688e" stroke="black" cx="1169.36" cy="-754" rx="42.26" ry="18"/>
<text text-anchor="middle" x="1169.36" y="-749.33" font-family="Times,serif" font-size="14.00" fill="white">fleur ✓</text>
</a>
</g>
</g>
<!-- eigenexa&#45;&gt;fleur -->
<!-- edrixs -->
<g id="node64" class="node">
<title>edrixs</title>
<g id="a_node64"><a xlink:href="https://github.com/conda-forge/edrixs-feedstock/pull/14" xlink:title="edrixs ❎">
<ellipse fill="#31688e" stroke="black" cx="1169.36" cy="-682" rx="57.52" ry="18"/>
<text text-anchor="middle" x="1169.36" y="-677.33" font-family="Times,serif" font-size="14.00" fill="white">edrixs ❎</text>
</a>
</g>
</g>
<!-- fleur&#45;&gt;edrixs -->
<!-- openphase -->
<g id="node65" class="node">
<title>openphase</title>
<g id="a_node65"><a xlink:href="https://github.com/conda-forge/openphase-feedstock/pull/2" xlink:title="openphase ❎">
<ellipse fill="#31688e" stroke="black" cx="448.36" cy="-306" rx="80.14" ry="18"/>
<text text-anchor="middle" x="448.36" y="-301.32" font-family="Times,serif" font-size="14.00" fill="white">openphase ❎</text>
</a>
</g>
</g>
<!-- sparc&#45;x -->
<g id="node66" class="node">
<title>sparc&#45;x</title>
<g id="a_node66"><a xlink:href="https://github.com/conda-forge/sparc-x-feedstock/pull/9" xlink:title="sparc x ❎">
<ellipse fill="#31688e" stroke="black" cx="448.36" cy="-234" rx="62.78" ry="18"/>
<text text-anchor="middle" x="448.36" y="-229.32" font-family="Times,serif" font-size="14.00" fill="white">sparc x ❎</text>
</a>
</g>
</g>
<!-- openphase&#45;&gt;sparc&#45;x -->
<!-- reef3d -->
<g id="node67" class="node">
<title>reef3d</title>
<g id="a_node67"><a xlink:href="https://github.com/conda-forge/reef3d-feedstock/pull/11" xlink:title="reef3d ✓">
<ellipse fill="#31688e" stroke="black" cx="448.36" cy="-162" rx="51.74" ry="18"/>
<text text-anchor="middle" x="448.36" y="-157.32" font-family="Times,serif" font-size="14.00" fill="white">reef3d ✓</text>
</a>
</g>
</g>
<!-- sparc&#45;x&#45;&gt;reef3d -->
<!-- genesis4 -->
<g id="node68" class="node">
<title>genesis4</title>
<g id="a_node68"><a xlink:href="https://github.com/conda-forge/genesis4-feedstock/pull/12" xlink:title="genesis4 ❎">
<ellipse fill="#31688e" stroke="black" cx="448.36" cy="-90" rx="70.68" ry="18"/>
<text text-anchor="middle" x="448.36" y="-85.33" font-family="Times,serif" font-size="14.00" fill="white">genesis4 ❎</text>
</a>
</g>
</g>
<!-- reef3d&#45;&gt;genesis4 -->
<!-- opentelemac -->
<g id="node69" class="node">
<title>opentelemac</title>
<g id="a_node69"><a xlink:href="https://github.com/conda-forge/opentelemac-feedstock/pull/2" xlink:title="opentelemac ❎">
<ellipse fill="#31688e" stroke="black" cx="448.36" cy="-18" rx="90.14" ry="18"/>
<text text-anchor="middle" x="448.36" y="-13.32" font-family="Times,serif" font-size="14.00" fill="white">opentelemac ❎</text>
</a>
</g>
</g>
<!-- genesis4&#45;&gt;opentelemac -->
</g>
</svg>
