<?xml version="1.0" encoding="UTF-8" standalone="no"?>
<!DOCTYPE svg PUBLIC "-//W3C//DTD SVG 1.1//EN"
 "http://www.w3.org/Graphics/SVG/1.1/DTD/svg11.dtd">
<!-- Generated by graphviz version 11.0.0 (20240519.1550)
 -->
<!-- Pages: 1 -->
<svg width="1423pt" height="1284pt"
 viewBox="0.00 0.00 1423.45 1284.00" xmlns="http://www.w3.org/2000/svg" xmlns:xlink="http://www.w3.org/1999/xlink">
<g id="graph0" class="graph" transform="scale(1 1) rotate(0) translate(4 1280)">
<polygon fill="white" stroke="none" points="-4,4 -4,-1280 1419.45,-1280 1419.45,4 -4,4"/>
<!-- casacore -->
<g id="node1" class="node">
<title>casacore</title>
<g id="a_node1"><a xlink:href="https://github.com/conda-forge/casacore-feedstock/pull/88" xlink:title="casacore ❎">
<ellipse fill="#31688e" stroke="black" cx="1252.68" cy="-1258" rx="70.15" ry="18"/>
<text text-anchor="middle" x="1252.68" y="-1253.33" font-family="Times,serif" font-size="14.00" fill="white">casacore ❎</text>
</a>
</g>
</g>
<!-- esmf -->
<g id="node2" class="node">
<title>esmf</title>
<g id="a_node2"><a xlink:href="https://github.com/conda-forge/esmf-feedstock/pull/116" xlink:title="esmf ❎">
<ellipse fill="#31688e" stroke="black" cx="1252.68" cy="-1186" rx="50.68" ry="18"/>
<text text-anchor="middle" x="1252.68" y="-1181.33" font-family="Times,serif" font-size="14.00" fill="white">esmf ❎</text>
</a>
</g>
</g>
<!-- casacore&#45;&gt;esmf -->
<!-- netcdf&#45;cxx4 -->
<g id="node3" class="node">
<title>netcdf&#45;cxx4</title>
<g id="a_node3"><a xlink:href="https://github.com/conda-forge/netcdf-cxx4-feedstock/pull/48" xlink:title="netcdf cxx4 ❎">
<ellipse fill="#31688e" stroke="black" cx="1252.68" cy="-1114" rx="84.35" ry="18"/>
<text text-anchor="middle" x="1252.68" y="-1109.33" font-family="Times,serif" font-size="14.00" fill="white">netcdf cxx4 ❎</text>
</a>
</g>
</g>
<!-- esmf&#45;&gt;netcdf&#45;cxx4 -->
<!-- openpmd&#45;api -->
<g id="node9" class="node">
<title>openpmd&#45;api</title>
<g id="a_node9"><a xlink:href="https://github.com/conda-forge/openpmd-api-feedstock/pull/112" xlink:title="openpmd api ❎">
<ellipse fill="#31688e" stroke="black" cx="1252.68" cy="-1042" rx="91.19" ry="18"/>
<text text-anchor="middle" x="1252.68" y="-1037.33" font-family="Times,serif" font-size="14.00" fill="white">openpmd api ❎</text>
</a>
</g>
</g>
<!-- netcdf&#45;cxx4&#45;&gt;openpmd&#45;api -->
<!-- fenics -->
<g id="node4" class="node">
<title>fenics</title>
<g id="a_node4"><a xlink:href="https://github.com/conda-forge/fenics-feedstock" xlink:title="fenics">
<ellipse fill="#fde725" stroke="black" cx="297.68" cy="-278" rx="40.69" ry="18"/>
<text text-anchor="middle" x="297.68" y="-273.32" font-family="Times,serif" font-size="14.00">fenics</text>
</a>
</g>
</g>
<!-- mshr -->
<g id="node5" class="node">
<title>mshr</title>
<g id="a_node5"><a xlink:href="https://github.com/conda-forge/mshr-feedstock" xlink:title="mshr">
<ellipse fill="#fde725" stroke="black" cx="297.68" cy="-206" rx="37" ry="18"/>
<text text-anchor="middle" x="297.68" y="-201.32" font-family="Times,serif" font-size="14.00">mshr</text>
</a>
</g>
</g>
<!-- fenics&#45;&gt;mshr -->
<g id="edge3" class="edge">
<title>fenics&#45;&gt;mshr</title>
<path fill="none" stroke="black" d="M297.68,-259.7C297.68,-252.41 297.68,-243.73 297.68,-235.54"/>
<polygon fill="black" stroke="black" points="301.18,-235.62 297.68,-225.62 294.18,-235.62 301.18,-235.62"/>
</g>
<!-- moab -->
<g id="node6" class="node">
<title>moab</title>
<g id="a_node6"><a xlink:href="https://github.com/conda-forge/moab-feedstock/pull/94" xlink:title="moab ❎">
<ellipse fill="#31688e" stroke="black" cx="870.68" cy="-162" rx="53.84" ry="18"/>
<text text-anchor="middle" x="870.68" y="-157.32" font-family="Times,serif" font-size="14.00" fill="white">moab ❎</text>
</a>
</g>
</g>
<!-- dagmc -->
<g id="node7" class="node">
<title>dagmc</title>
<g id="a_node7"><a xlink:href="https://github.com/conda-forge/dagmc-feedstock" xlink:title="dagmc">
<ellipse fill="#fde725" stroke="black" cx="870.68" cy="-90" rx="44.37" ry="18"/>
<text text-anchor="middle" x="870.68" y="-85.33" font-family="Times,serif" font-size="14.00">dagmc</text>
</a>
</g>
</g>
<!-- moab&#45;&gt;dagmc -->
<g id="edge4" class="edge">
<title>moab&#45;&gt;dagmc</title>
<path fill="none" stroke="black" d="M870.68,-143.7C870.68,-136.41 870.68,-127.73 870.68,-119.54"/>
<polygon fill="black" stroke="black" points="874.18,-119.62 870.68,-109.62 867.18,-119.62 874.18,-119.62"/>
</g>
<!-- openmc -->
<g id="node8" class="node">
<title>openmc</title>
<g id="a_node8"><a xlink:href="https://github.com/conda-forge/openmc-feedstock" xlink:title="openmc">
<ellipse fill="#fde725" stroke="black" cx="870.68" cy="-18" rx="50.16" ry="18"/>
<text text-anchor="middle" x="870.68" y="-13.32" font-family="Times,serif" font-size="14.00">openmc</text>
</a>
</g>
</g>
<!-- dagmc&#45;&gt;openmc -->
<g id="edge5" class="edge">
<title>dagmc&#45;&gt;openmc</title>
<path fill="none" stroke="black" d="M870.68,-71.7C870.68,-64.41 870.68,-55.73 870.68,-47.54"/>
<polygon fill="black" stroke="black" points="874.18,-47.62 870.68,-37.62 867.18,-47.62 874.18,-47.62"/>
</g>
<!-- lalinference -->
<g id="node23" class="node">
<title>lalinference</title>
<g id="a_node23"><a xlink:href="https://github.com/conda-forge/lalinference-feedstock" xlink:title="lalinference">
<ellipse fill="#35b779" stroke="black" cx="1252.68" cy="-970" rx="70.15" ry="18"/>
<text text-anchor="middle" x="1252.68" y="-965.33" font-family="Times,serif" font-size="14.00">lalinference</text>
</a>
</g>
</g>
<!-- openpmd&#45;api&#45;&gt;lalinference -->
<!-- netcdf4 -->
<g id="node10" class="node">
<title>netcdf4</title>
<g id="a_node10"><a xlink:href="https://github.com/conda-forge/netcdf4-feedstock/pull/163" xlink:title="netcdf4 ❎">
<ellipse fill="#31688e" stroke="black" cx="340.68" cy="-162" rx="64.36" ry="18"/>
<text text-anchor="middle" x="340.68" y="-157.32" font-family="Times,serif" font-size="14.00" fill="white">netcdf4 ❎</text>
</a>
</g>
</g>
<!-- veloxchem -->
<g id="node11" class="node">
<title>veloxchem</title>
<g id="a_node11"><a xlink:href="https://github.com/conda-forge/veloxchem-feedstock" xlink:title="veloxchem">
<ellipse fill="#fde725" stroke="black" cx="294.68" cy="-90" rx="64.36" ry="18"/>
<text text-anchor="middle" x="294.68" y="-85.33" font-family="Times,serif" font-size="14.00">veloxchem</text>
</a>
</g>
</g>
<!-- netcdf4&#45;&gt;veloxchem -->
<g id="edge7" class="edge">
<title>netcdf4&#45;&gt;veloxchem</title>
<path fill="none" stroke="black" d="M329.54,-144.05C324.29,-136.06 317.89,-126.33 312.02,-117.4"/>
<polygon fill="black" stroke="black" points="314.96,-115.49 306.54,-109.05 309.11,-119.33 314.96,-115.49"/>
</g>
<!-- heat -->
<g id="node12" class="node">
<title>heat</title>
<g id="a_node12"><a xlink:href="https://github.com/conda-forge/heat-feedstock" xlink:title="heat">
<ellipse fill="#fde725" stroke="black" cx="386.68" cy="-18" rx="33.32" ry="18"/>
<text text-anchor="middle" x="386.68" y="-13.32" font-family="Times,serif" font-size="14.00">heat</text>
</a>
</g>
</g>
<!-- netcdf4&#45;&gt;heat -->
<g id="edge8" class="edge">
<title>netcdf4&#45;&gt;heat</title>
<path fill="none" stroke="black" d="M350.86,-143.84C356.51,-133.71 363.26,-120.46 367.68,-108 374.63,-88.4 379.45,-65.43 382.5,-47.73"/>
<polygon fill="black" stroke="black" points="385.94,-48.35 384.09,-37.92 379.03,-47.23 385.94,-48.35"/>
</g>
<!-- siesta -->
<g id="node13" class="node">
<title>siesta</title>
<g id="a_node13"><a xlink:href="https://github.com/conda-forge/siesta-feedstock" xlink:title="siesta">
<ellipse fill="#fde725" stroke="black" cx="912.68" cy="-350" rx="40.69" ry="18"/>
<text text-anchor="middle" x="912.68" y="-345.32" font-family="Times,serif" font-size="14.00">siesta</text>
</a>
</g>
</g>
<!-- petsc -->
<g id="node14" class="node">
<title>petsc</title>
<g id="a_node14"><a xlink:href="https://github.com/conda-forge/petsc-feedstock/pull/203" xlink:title="petsc ❎">
<ellipse fill="#31688e" stroke="black" cx="300.68" cy="-494" rx="53.31" ry="18"/>
<text text-anchor="middle" x="300.68" y="-489.32" font-family="Times,serif" font-size="14.00" fill="white">petsc ❎</text>
</a>
</g>
</g>
<!-- petsc&#45;&gt;fenics -->
<g id="edge9" class="edge">
<title>petsc&#45;&gt;fenics</title>
<path fill="none" stroke="black" d="M347.67,-485.14C444.29,-467.05 650.46,-417.33 579.68,-332 550.99,-297.43 422.76,-285.26 349.48,-281.09"/>
<polygon fill="black" stroke="black" points="349.9,-277.61 339.73,-280.57 349.53,-284.6 349.9,-277.61"/>
</g>
<!-- petsc4py -->
<g id="node15" class="node">
<title>petsc4py</title>
<g id="a_node15"><a xlink:href="https://github.com/conda-forge/petsc4py-feedstock" xlink:title="petsc4py">
<ellipse fill="#fde725" stroke="black" cx="139.68" cy="-422" rx="56.47" ry="18"/>
<text text-anchor="middle" x="139.68" y="-417.32" font-family="Times,serif" font-size="14.00">petsc4py</text>
</a>
</g>
</g>
<!-- petsc&#45;&gt;petsc4py -->
<g id="edge10" class="edge">
<title>petsc&#45;&gt;petsc4py</title>
<path fill="none" stroke="black" d="M268.87,-479.17C244.19,-468.44 209.74,-453.46 182.62,-441.67"/>
<polygon fill="black" stroke="black" points="184.2,-438.54 173.63,-437.76 181.41,-444.96 184.2,-438.54"/>
</g>
<!-- slepc -->
<g id="node16" class="node">
<title>slepc</title>
<g id="a_node16"><a xlink:href="https://github.com/conda-forge/slepc-feedstock" xlink:title="slepc">
<ellipse fill="#fde725" stroke="black" cx="347.68" cy="-422" rx="37" ry="18"/>
<text text-anchor="middle" x="347.68" y="-417.32" font-family="Times,serif" font-size="14.00">slepc</text>
</a>
</g>
</g>
<!-- petsc&#45;&gt;slepc -->
<g id="edge11" class="edge">
<title>petsc&#45;&gt;slepc</title>
<path fill="none" stroke="black" d="M312.05,-476.05C317.56,-467.85 324.29,-457.83 330.41,-448.71"/>
<polygon fill="black" stroke="black" points="333.21,-450.82 335.88,-440.56 327.4,-446.91 333.21,-450.82"/>
</g>
<!-- daetk -->
<g id="node17" class="node">
<title>daetk</title>
<g id="a_node17"><a xlink:href="https://github.com/conda-forge/daetk-feedstock" xlink:title="daetk">
<ellipse fill="#fde725" stroke="black" cx="253.68" cy="-422" rx="39.11" ry="18"/>
<text text-anchor="middle" x="253.68" y="-417.32" font-family="Times,serif" font-size="14.00">daetk</text>
</a>
</g>
</g>
<!-- petsc&#45;&gt;daetk -->
<g id="edge12" class="edge">
<title>petsc&#45;&gt;daetk</title>
<path fill="none" stroke="black" d="M289.3,-476.05C283.79,-467.85 277.06,-457.83 270.94,-448.71"/>
<polygon fill="black" stroke="black" points="273.95,-446.91 265.47,-440.56 268.14,-450.82 273.95,-446.91"/>
</g>
<!-- yambo -->
<g id="node18" class="node">
<title>yambo</title>
<g id="a_node18"><a xlink:href="https://github.com/conda-forge/yambo-feedstock" xlink:title="yambo">
<ellipse fill="#fde725" stroke="black" cx="407.68" cy="-350" rx="44.37" ry="18"/>
<text text-anchor="middle" x="407.68" y="-345.32" font-family="Times,serif" font-size="14.00">yambo</text>
</a>
</g>
</g>
<!-- petsc&#45;&gt;yambo -->
<g id="edge13" class="edge">
<title>petsc&#45;&gt;yambo</title>
<path fill="none" stroke="black" d="M337.97,-480.78C357.63,-472.41 380.37,-459.27 393.68,-440 405.78,-422.47 408.97,-398.41 409.3,-379.72"/>
<polygon fill="black" stroke="black" points="412.8,-379.82 409.19,-369.86 405.8,-379.9 412.8,-379.82"/>
</g>
<!-- fenics&#45;dolfinx -->
<g id="node19" class="node">
<title>fenics&#45;dolfinx</title>
<g id="a_node19"><a xlink:href="https://github.com/conda-forge/fenics-dolfinx-feedstock" xlink:title="fenics dolfinx">
<ellipse fill="#fde725" stroke="black" cx="123.68" cy="-278" rx="77.52" ry="18"/>
<text text-anchor="middle" x="123.68" y="-273.32" font-family="Times,serif" font-size="14.00">fenics dolfinx</text>
</a>
</g>
</g>
<!-- petsc&#45;&gt;fenics&#45;dolfinx -->
<g id="edge14" class="edge">
<title>petsc&#45;&gt;fenics&#45;dolfinx</title>
<path fill="none" stroke="black" d="M249.55,-488.28C189.73,-481.58 96.08,-467 74.68,-440 42.91,-399.92 77.49,-339.38 102.54,-305.09"/>
<polygon fill="black" stroke="black" points="105.14,-307.46 108.38,-297.37 99.56,-303.24 105.14,-307.46"/>
</g>
<!-- freefem -->
<g id="node20" class="node">
<title>freefem</title>
<g id="a_node20"><a xlink:href="https://github.com/conda-forge/freefem-feedstock" xlink:title="freefem">
<ellipse fill="#fde725" stroke="black" cx="520.68" cy="-350" rx="50.16" ry="18"/>
<text text-anchor="middle" x="520.68" y="-345.32" font-family="Times,serif" font-size="14.00">freefem</text>
</a>
</g>
</g>
<!-- petsc&#45;&gt;freefem -->
<g id="edge15" class="edge">
<title>petsc&#45;&gt;freefem</title>
<path fill="none" stroke="black" d="M334.73,-479.72C357.8,-470.09 388.53,-455.98 413.68,-440 443.83,-420.83 474.85,-394.11 495.67,-374.96"/>
<polygon fill="black" stroke="black" points="497.9,-377.67 502.83,-368.29 493.13,-372.55 497.9,-377.67"/>
</g>
<!-- dolfinx_mpc -->
<g id="node21" class="node">
<title>dolfinx_mpc</title>
<g id="a_node21"><a xlink:href="https://github.com/conda-forge/dolfinx_mpc-feedstock" xlink:title="dolfinx_mpc">
<ellipse fill="#fde725" stroke="black" cx="70.68" cy="-206" rx="70.68" ry="18"/>
<text text-anchor="middle" x="70.68" y="-201.32" font-family="Times,serif" font-size="14.00">dolfinx_mpc</text>
</a>
</g>
</g>
<!-- petsc&#45;&gt;dolfinx_mpc -->
<g id="edge16" class="edge">
<title>petsc&#45;&gt;dolfinx_mpc</title>
<path fill="none" stroke="black" d="M249.46,-488.6C186.05,-482.04 83.26,-467.44 57.68,-440 2.75,-381.09 14.02,-337.29 36.68,-260 39.43,-250.6 44.42,-241.29 49.74,-233.16"/>
<polygon fill="black" stroke="black" points="52.5,-235.32 55.4,-225.13 46.78,-231.29 52.5,-235.32"/>
</g>
<!-- petsc4py&#45;&gt;fenics -->
<g id="edge17" class="edge">
<title>petsc4py&#45;&gt;fenics</title>
<path fill="none" stroke="black" d="M175.2,-407.77C195.95,-398.8 221.7,-385.4 240.68,-368 259.75,-350.5 275.12,-325.26 285.06,-306.12"/>
<polygon fill="black" stroke="black" points="288.14,-307.8 289.48,-297.29 281.88,-304.67 288.14,-307.8"/>
</g>
<!-- petsc4py&#45;&gt;fenics&#45;dolfinx -->
<g id="edge18" class="edge">
<title>petsc4py&#45;&gt;fenics&#45;dolfinx</title>
<path fill="none" stroke="black" d="M128.49,-404.14C122.51,-394.1 115.76,-380.85 112.68,-368 107.87,-347.98 110.96,-324.89 115.08,-307.25"/>
<polygon fill="black" stroke="black" points="118.43,-308.29 117.55,-297.73 111.65,-306.53 118.43,-308.29"/>
</g>
<!-- slepc4py -->
<g id="node22" class="node">
<title>slepc4py</title>
<g id="a_node22"><a xlink:href="https://github.com/conda-forge/slepc4py-feedstock" xlink:title="slepc4py">
<ellipse fill="#fde725" stroke="black" cx="176.68" cy="-350" rx="55.42" ry="18"/>
<text text-anchor="middle" x="176.68" y="-345.32" font-family="Times,serif" font-size="14.00">slepc4py</text>
</a>
</g>
</g>
<!-- petsc4py&#45;&gt;slepc4py -->
<g id="edge19" class="edge">
<title>petsc4py&#45;&gt;slepc4py</title>
<path fill="none" stroke="black" d="M148.63,-404.05C152.81,-396.14 157.89,-386.54 162.57,-377.69"/>
<polygon fill="black" stroke="black" points="165.51,-379.6 167.09,-369.13 159.33,-376.33 165.51,-379.6"/>
</g>
<!-- slepc&#45;&gt;fenics -->
<g id="edge20" class="edge">
<title>slepc&#45;&gt;fenics</title>
<path fill="none" stroke="black" d="M341.64,-403.87C333.16,-379.78 317.61,-335.6 307.46,-306.77"/>
<polygon fill="black" stroke="black" points="310.85,-305.89 304.23,-297.62 304.25,-308.21 310.85,-305.89"/>
</g>
<!-- slepc&#45;&gt;yambo -->
<g id="edge21" class="edge">
<title>slepc&#45;&gt;yambo</title>
<path fill="none" stroke="black" d="M361.29,-405.12C368.7,-396.47 378.04,-385.58 386.39,-375.83"/>
<polygon fill="black" stroke="black" points="388.86,-378.33 392.71,-368.46 383.55,-373.77 388.86,-378.33"/>
</g>
<!-- slepc&#45;&gt;fenics&#45;dolfinx -->
<g id="edge22" class="edge">
<title>slepc&#45;&gt;fenics&#45;dolfinx</title>
<path fill="none" stroke="black" d="M331.7,-405.33C311.67,-386.27 275.69,-353.93 240.68,-332 219.74,-318.89 195.01,-307.2 173.7,-298.16"/>
<polygon fill="black" stroke="black" points="175.2,-294.99 164.62,-294.39 172.51,-301.45 175.2,-294.99"/>
</g>
<!-- slepc&#45;&gt;freefem -->
<g id="edge23" class="edge">
<title>slepc&#45;&gt;freefem</title>
<path fill="none" stroke="black" d="M375.47,-409.75C403.1,-398.57 445.87,-381.27 477.84,-368.33"/>
<polygon fill="black" stroke="black" points="478.87,-371.69 486.83,-364.69 476.25,-365.2 478.87,-371.69"/>
</g>
<!-- slepc&#45;&gt;slepc4py -->
<g id="edge24" class="edge">
<title>slepc&#45;&gt;slepc4py</title>
<path fill="none" stroke="black" d="M320.2,-409.75C293.43,-398.79 252.29,-381.95 220.9,-369.11"/>
<polygon fill="black" stroke="black" points="222.23,-365.87 211.65,-365.32 219.58,-372.35 222.23,-365.87"/>
</g>
<!-- fenics&#45;dolfinx&#45;&gt;dolfinx_mpc -->
<g id="edge25" class="edge">
<title>fenics&#45;dolfinx&#45;&gt;dolfinx_mpc</title>
<path fill="none" stroke="black" d="M110.85,-260.05C104.66,-251.89 97.11,-241.91 90.23,-232.82"/>
<polygon fill="black" stroke="black" points="93.13,-230.86 84.3,-225 87.55,-235.08 93.13,-230.86"/>
</g>
<!-- slepc4py&#45;&gt;fenics -->
<g id="edge26" class="edge">
<title>slepc4py&#45;&gt;fenics</title>
<path fill="none" stroke="black" d="M202.93,-333.81C220.72,-323.52 244.41,-309.82 263.65,-298.69"/>
<polygon fill="black" stroke="black" points="265.31,-301.76 272.22,-293.73 261.81,-295.71 265.31,-301.76"/>
</g>
<!-- slepc4py&#45;&gt;fenics&#45;dolfinx -->
<g id="edge27" class="edge">
<title>slepc4py&#45;&gt;fenics&#45;dolfinx</title>
<path fill="none" stroke="black" d="M163.85,-332.05C157.66,-323.89 150.11,-313.91 143.23,-304.82"/>
<polygon fill="black" stroke="black" points="146.13,-302.86 137.3,-297 140.55,-307.08 146.13,-302.86"/>
</g>
<!-- parabem -->
<g id="node24" class="node">
<title>parabem</title>
<g id="a_node24"><a xlink:href="https://github.com/conda-forge/parabem-feedstock/pull/17" xlink:title="parabem ❎">
<ellipse fill="#31688e" stroke="black" cx="1252.68" cy="-898" rx="70.68" ry="18"/>
<text text-anchor="middle" x="1252.68" y="-893.33" font-family="Times,serif" font-size="14.00" fill="white">parabem ❎</text>
</a>
</g>
</g>
<!-- lalinference&#45;&gt;parabem -->
<!-- lfpy -->
<g id="node25" class="node">
<title>lfpy</title>
<g id="a_node25"><a xlink:href="https://github.com/conda-forge/lfpy-feedstock" xlink:title="lfpy">
<ellipse fill="#35b779" stroke="black" cx="1252.68" cy="-826" rx="30.16" ry="18"/>
<text text-anchor="middle" x="1252.68" y="-821.33" font-family="Times,serif" font-size="14.00">lfpy</text>
</a>
</g>
</g>
<!-- parabem&#45;&gt;lfpy -->
<!-- dakota -->
<g id="node26" class="node">
<title>dakota</title>
<g id="a_node26"><a xlink:href="https://github.com/conda-forge/dakota-feedstock/pull/49" xlink:title="dakota ❎">
<ellipse fill="#31688e" stroke="black" cx="1252.68" cy="-754" rx="60.15" ry="18"/>
<text text-anchor="middle" x="1252.68" y="-749.33" font-family="Times,serif" font-size="14.00" fill="white">dakota ❎</text>
</a>
</g>
</g>
<!-- lfpy&#45;&gt;dakota -->
<!-- deepmd&#45;kit -->
<g id="node27" class="node">
<title>deepmd&#45;kit</title>
<g id="a_node27"><a xlink:href="https://github.com/conda-forge/deepmd-kit-feedstock" xlink:title="deepmd kit">
<ellipse fill="#35b779" stroke="black" cx="1252.68" cy="-682" rx="67.52" ry="18"/>
<text text-anchor="middle" x="1252.68" y="-677.33" font-family="Times,serif" font-size="14.00">deepmd kit</text>
</a>
</g>
</g>
<!-- dakota&#45;&gt;deepmd&#45;kit -->
<!-- scorec -->
<g id="node28" class="node">
<title>scorec</title>
<g id="a_node28"><a xlink:href="https://github.com/conda-forge/scorec-feedstock/pull/12" xlink:title="scorec ❎">
<ellipse fill="#31688e" stroke="black" cx="1252.68" cy="-610" rx="58.57" ry="18"/>
<text text-anchor="middle" x="1252.68" y="-605.33" font-family="Times,serif" font-size="14.00" fill="white">scorec ❎</text>
</a>
</g>
</g>
<!-- deepmd&#45;kit&#45;&gt;scorec -->
<!-- netcdf&#45;cxx&#45;legacy -->
<g id="node33" class="node">
<title>netcdf&#45;cxx&#45;legacy</title>
<g id="a_node33"><a xlink:href="https://github.com/conda-forge/netcdf-cxx-legacy-feedstock/pull/16" xlink:title="netcdf cxx legacy ❎">
<ellipse fill="#31688e" stroke="black" cx="1252.68" cy="-538" rx="113.29" ry="18"/>
<text text-anchor="middle" x="1252.68" y="-533.33" font-family="Times,serif" font-size="14.00" fill="white">netcdf cxx legacy ❎</text>
</a>
</g>
</g>
<!-- scorec&#45;&gt;netcdf&#45;cxx&#45;legacy -->
<!-- triqs -->
<g id="node29" class="node">
<title>triqs</title>
<g id="a_node29"><a xlink:href="https://github.com/conda-forge/triqs-feedstock/pull/64" xlink:title="triqs ❎">
<ellipse fill="#31688e" stroke="black" cx="1236.68" cy="-458" rx="50.16" ry="18"/>
<text text-anchor="middle" x="1236.68" y="-453.32" font-family="Times,serif" font-size="14.00" fill="white">triqs ❎</text>
</a>
</g>
</g>
<!-- triqs_tprf -->
<g id="node30" class="node">
<title>triqs_tprf</title>
<g id="a_node30"><a xlink:href="https://github.com/conda-forge/triqs_tprf-feedstock" xlink:title="triqs_tprf">
<ellipse fill="#fde725" stroke="black" cx="1149.68" cy="-386" rx="58.57" ry="18"/>
<text text-anchor="middle" x="1149.68" y="-381.32" font-family="Times,serif" font-size="14.00">triqs_tprf</text>
</a>
</g>
</g>
<!-- triqs&#45;&gt;triqs_tprf -->
<g id="edge34" class="edge">
<title>triqs&#45;&gt;triqs_tprf</title>
<path fill="none" stroke="black" d="M1216.93,-441.12C1205.64,-432.03 1191.26,-420.46 1178.7,-410.35"/>
<polygon fill="black" stroke="black" points="1181.11,-407.8 1171.12,-404.26 1176.72,-413.25 1181.11,-407.8"/>
</g>
<!-- triqs_cthyb -->
<g id="node31" class="node">
<title>triqs_cthyb</title>
<g id="a_node31"><a xlink:href="https://github.com/conda-forge/triqs_cthyb-feedstock" xlink:title="triqs_cthyb">
<ellipse fill="#fde725" stroke="black" cx="1236.68" cy="-314" rx="67.52" ry="18"/>
<text text-anchor="middle" x="1236.68" y="-309.32" font-family="Times,serif" font-size="14.00">triqs_cthyb</text>
</a>
</g>
</g>
<!-- triqs&#45;&gt;triqs_cthyb -->
<g id="edge35" class="edge">
<title>triqs&#45;&gt;triqs_cthyb</title>
<path fill="none" stroke="black" d="M1236.68,-439.59C1236.68,-415.61 1236.68,-372.14 1236.68,-343.42"/>
<polygon fill="black" stroke="black" points="1240.18,-343.62 1236.68,-333.62 1233.18,-343.62 1240.18,-343.62"/>
</g>
<!-- triqs_dft_tools -->
<g id="node32" class="node">
<title>triqs_dft_tools</title>
<g id="a_node32"><a xlink:href="https://github.com/conda-forge/triqs_dft_tools-feedstock" xlink:title="triqs_dft_tools">
<ellipse fill="#fde725" stroke="black" cx="1332.68" cy="-242" rx="82.77" ry="18"/>
<text text-anchor="middle" x="1332.68" y="-237.32" font-family="Times,serif" font-size="14.00">triqs_dft_tools</text>
</a>
</g>
</g>
<!-- triqs&#45;&gt;triqs_dft_tools -->
<g id="edge36" class="edge">
<title>triqs&#45;&gt;triqs_dft_tools</title>
<path fill="none" stroke="black" d="M1249.64,-440.21C1266.85,-417.11 1296.99,-373.64 1313.68,-332 1321.46,-312.58 1326.28,-289.43 1329.11,-271.61"/>
<polygon fill="black" stroke="black" points="1332.57,-272.14 1330.55,-261.74 1325.64,-271.13 1332.57,-272.14"/>
</g>
<!-- conduit -->
<g id="node34" class="node">
<title>conduit</title>
<g id="a_node34"><a xlink:href="https://github.com/conda-forge/conduit-feedstock/pull/46" xlink:title="conduit ✓">
<ellipse fill="#31688e" stroke="black" cx="325.68" cy="-1258" rx="56.47" ry="18"/>
<text text-anchor="middle" x="325.68" y="-1253.33" font-family="Times,serif" font-size="14.00" fill="white">conduit ✓</text>
</a>
</g>
</g>
<!-- parsplice -->
<g id="node35" class="node">
<title>parsplice</title>
<g id="a_node35"><a xlink:href="https://github.com/conda-forge/parsplice-feedstock/pull/13" xlink:title="parsplice ❎">
<ellipse fill="#31688e" stroke="black" cx="325.68" cy="-1186" rx="72.25" ry="18"/>
<text text-anchor="middle" x="325.68" y="-1181.33" font-family="Times,serif" font-size="14.00" fill="white">parsplice ❎</text>
</a>
</g>
</g>
<!-- conduit&#45;&gt;parsplice -->
<!-- parsmurf -->
<g id="node36" class="node">
<title>parsmurf</title>
<g id="a_node36"><a xlink:href="https://github.com/conda-forge/parsmurf-feedstock/pull/4" xlink:title="parsmurf ❎">
<ellipse fill="#31688e" stroke="black" cx="325.68" cy="-1114" rx="72.78" ry="18"/>
<text text-anchor="middle" x="325.68" y="-1109.33" font-family="Times,serif" font-size="14.00" fill="white">parsmurf ❎</text>
</a>
</g>
</g>
<!-- parsplice&#45;&gt;parsmurf -->
<!-- dedalus -->
<g id="node40" class="node">
<title>dedalus</title>
<g id="a_node40"><a xlink:href="https://github.com/conda-forge/dedalus-feedstock" xlink:title="dedalus">
<ellipse fill="#35b779" stroke="black" cx="325.68" cy="-1042" rx="50.16" ry="18"/>
<text text-anchor="middle" x="325.68" y="-1037.33" font-family="Times,serif" font-size="14.00">dedalus</text>
</a>
</g>
</g>
<!-- parsmurf&#45;&gt;dedalus -->
<!-- qe -->
<g id="node37" class="node">
<title>qe</title>
<g id="a_node37"><a xlink:href="https://github.com/conda-forge/qe-feedstock" xlink:title="qe">
<ellipse fill="#fde725" stroke="black" cx="981.68" cy="-278" rx="27" ry="18"/>
<text text-anchor="middle" x="981.68" y="-273.32" font-family="Times,serif" font-size="14.00">qe</text>
</a>
</g>
</g>
<!-- dftbplus -->
<g id="node38" class="node">
<title>dftbplus</title>
<g id="a_node38"><a xlink:href="https://github.com/conda-forge/dftbplus-feedstock" xlink:title="dftbplus">
<ellipse fill="#fde725" stroke="black" cx="750.68" cy="-206" rx="52.79" ry="18"/>
<text text-anchor="middle" x="750.68" y="-201.32" font-family="Times,serif" font-size="14.00">dftbplus</text>
</a>
</g>
</g>
<!-- libmbd -->
<g id="node39" class="node">
<title>libmbd</title>
<g id="a_node39"><a xlink:href="https://github.com/conda-forge/libmbd-feedstock" xlink:title="libmbd">
<ellipse fill="#fde725" stroke="black" cx="750.68" cy="-278" rx="45.95" ry="18"/>
<text text-anchor="middle" x="750.68" y="-273.32" font-family="Times,serif" font-size="14.00">libmbd</text>
</a>
</g>
</g>
<!-- libmbd&#45;&gt;dftbplus -->
<g id="edge40" class="edge">
<title>libmbd&#45;&gt;dftbplus</title>
<path fill="none" stroke="black" d="M750.68,-259.7C750.68,-252.41 750.68,-243.73 750.68,-235.54"/>
<polygon fill="black" stroke="black" points="754.18,-235.62 750.68,-225.62 747.18,-235.62 754.18,-235.62"/>
</g>
<!-- mrchem -->
<g id="node41" class="node">
<title>mrchem</title>
<g id="a_node41"><a xlink:href="https://github.com/conda-forge/mrchem-feedstock/pull/28" xlink:title="mrchem ❎">
<ellipse fill="#31688e" stroke="black" cx="325.68" cy="-970" rx="67.52" ry="18"/>
<text text-anchor="middle" x="325.68" y="-965.33" font-family="Times,serif" font-size="14.00" fill="white">mrchem ❎</text>
</a>
</g>
</g>
<!-- dedalus&#45;&gt;mrchem -->
<!-- tempest&#45;extremes -->
<g id="node42" class="node">
<title>tempest&#45;extremes</title>
<g id="a_node42"><a xlink:href="https://github.com/conda-forge/tempest-extremes-feedstock/pull/9" xlink:title="tempest extremes ❎">
<ellipse fill="#31688e" stroke="black" cx="325.68" cy="-898" rx="117.5" ry="18"/>
<text text-anchor="middle" x="325.68" y="-893.33" font-family="Times,serif" font-size="14.00" fill="white">tempest extremes ❎</text>
</a>
</g>
</g>
<!-- mrchem&#45;&gt;tempest&#45;extremes -->
<!-- analisi -->
<g id="node44" class="node">
<title>analisi</title>
<g id="a_node44"><a xlink:href="https://github.com/conda-forge/analisi-feedstock/pull/33" xlink:title="analisi ✓">
<ellipse fill="#31688e" stroke="black" cx="325.68" cy="-826" rx="51.74" ry="18"/>
<text text-anchor="middle" x="325.68" y="-821.33" font-family="Times,serif" font-size="14.00" fill="white">analisi ✓</text>
</a>
</g>
</g>
<!-- tempest&#45;extremes&#45;&gt;analisi -->
<!-- libnegf -->
<g id="node43" class="node">
<title>libnegf</title>
<g id="a_node43"><a xlink:href="https://github.com/conda-forge/libnegf-feedstock/pull/17" xlink:title="libnegf ❎">
<ellipse fill="#31688e" stroke="black" cx="875.68" cy="-278" rx="61.2" ry="18"/>
<text text-anchor="middle" x="875.68" y="-273.32" font-family="Times,serif" font-size="14.00" fill="white">libnegf ❎</text>
</a>
</g>
</g>
<!-- libnegf&#45;&gt;dftbplus -->
<g id="edge44" class="edge">
<title>libnegf&#45;&gt;dftbplus</title>
<path fill="none" stroke="black" d="M848.24,-261.64C830.25,-251.56 806.53,-238.28 786.98,-227.33"/>
<polygon fill="black" stroke="black" points="788.94,-224.42 778.51,-222.59 785.52,-230.53 788.94,-224.42"/>
</g>
<!-- nwchem -->
<g id="node45" class="node">
<title>nwchem</title>
<g id="a_node45"><a xlink:href="https://github.com/conda-forge/nwchem-feedstock/pull/49" xlink:title="nwchem ❎">
<ellipse fill="#31688e" stroke="black" cx="325.68" cy="-754" rx="68.04" ry="18"/>
<text text-anchor="middle" x="325.68" y="-749.33" font-family="Times,serif" font-size="14.00" fill="white">nwchem ❎</text>
</a>
</g>
</g>
<!-- analisi&#45;&gt;nwchem -->
<!-- bmad -->
<g id="node46" class="node">
<title>bmad</title>
<g id="a_node46"><a xlink:href="https://github.com/conda-forge/bmad-feedstock/pull/412" xlink:title="bmad ✓">
<ellipse fill="#31688e" stroke="black" cx="325.68" cy="-682" rx="47" ry="18"/>
<text text-anchor="middle" x="325.68" y="-677.33" font-family="Times,serif" font-size="14.00" fill="white">bmad ✓</text>
</a>
</g>
</g>
<!-- nwchem&#45;&gt;bmad -->
<!-- ondamonitor -->
<g id="node47" class="node">
<title>ondamonitor</title>
<g id="a_node47"><a xlink:href="https://github.com/conda-forge/ondamonitor-feedstock" xlink:title="ondamonitor">
<ellipse fill="#35b779" stroke="black" cx="325.68" cy="-610" rx="74.88" ry="18"/>
<text text-anchor="middle" x="325.68" y="-605.33" font-family="Times,serif" font-size="14.00">ondamonitor</text>
</a>
</g>
</g>
<!-- bmad&#45;&gt;ondamonitor -->
<!-- alamode -->
<g id="node48" class="node">
<title>alamode</title>
<g id="a_node48"><a xlink:href="https://github.com/conda-forge/alamode-feedstock" xlink:title="alamode">
<ellipse fill="#35b779" stroke="black" cx="325.68" cy="-538" rx="53.31" ry="18"/>
<text text-anchor="middle" x="325.68" y="-533.33" font-family="Times,serif" font-size="14.00">alamode</text>
</a>
</g>
</g>
<!-- ondamonitor&#45;&gt;alamode -->
<!-- timemory -->
<g id="node49" class="node">
<title>timemory</title>
<g id="a_node49"><a xlink:href="https://github.com/conda-forge/timemory-feedstock" xlink:title="timemory">
<ellipse fill="#000000" stroke="black" cx="870.68" cy="-1258" rx="59.63" ry="18"/>
<text text-anchor="middle" x="870.68" y="-1253.33" font-family="Times,serif" font-size="14.00" fill="white">timemory</text>
</a>
</g>
</g>
<!-- pexsi -->
<g id="node50" class="node">
<title>pexsi</title>
<g id="a_node50"><a xlink:href="https://github.com/conda-forge/pexsi-feedstock/pull/10" xlink:title="pexsi ❎">
<ellipse fill="#31688e" stroke="black" cx="870.68" cy="-1186" rx="52.79" ry="18"/>
<text text-anchor="middle" x="870.68" y="-1181.33" font-family="Times,serif" font-size="14.00" fill="white">pexsi ❎</text>
</a>
</g>
</g>
<!-- timemory&#45;&gt;pexsi -->
<!-- eigenexa -->
<g id="node56" class="node">
<title>eigenexa</title>
<g id="a_node56"><a xlink:href="https://github.com/conda-forge/eigenexa-feedstock/pull/3" xlink:title="eigenexa ❎">
<ellipse fill="#31688e" stroke="black" cx="870.68" cy="-1114" rx="71.2" ry="18"/>
<text text-anchor="middle" x="870.68" y="-1109.33" font-family="Times,serif" font-size="14.00" fill="white">eigenexa ❎</text>
</a>
</g>
</g>
<!-- pexsi&#45;&gt;eigenexa -->
<!-- elpa -->
<g id="node51" class="node">
<title>elpa</title>
<g id="a_node51"><a xlink:href="https://github.com/conda-forge/elpa-feedstock/pull/26" xlink:title="elpa ❎">
<ellipse fill="#31688e" stroke="black" cx="947.68" cy="-422" rx="47.53" ry="18"/>
<text text-anchor="middle" x="947.68" y="-417.32" font-family="Times,serif" font-size="14.00" fill="white">elpa ❎</text>
</a>
</g>
</g>
<!-- elpa&#45;&gt;siesta -->
<g id="edge51" class="edge">
<title>elpa&#45;&gt;siesta</title>
<path fill="none" stroke="black" d="M939.2,-404.05C935.29,-396.23 930.55,-386.75 926.16,-377.98"/>
<polygon fill="black" stroke="black" points="929.35,-376.52 921.75,-369.14 923.09,-379.65 929.35,-376.52"/>
</g>
<!-- elpa&#45;&gt;qe -->
<g id="edge52" class="edge">
<title>elpa&#45;&gt;qe</title>
<path fill="none" stroke="black" d="M952.82,-403.89C955.86,-393.54 959.68,-380.07 962.68,-368 967.68,-347.82 972.56,-324.86 976.12,-307.32"/>
<polygon fill="black" stroke="black" points="979.53,-308.11 978.07,-297.62 972.67,-306.74 979.53,-308.11"/>
</g>
<!-- elsi -->
<g id="node52" class="node">
<title>elsi</title>
<g id="a_node52"><a xlink:href="https://github.com/conda-forge/elsi-feedstock" xlink:title="elsi">
<ellipse fill="#fde725" stroke="black" cx="750.68" cy="-350" rx="28.59" ry="18"/>
<text text-anchor="middle" x="750.68" y="-345.32" font-family="Times,serif" font-size="14.00">elsi</text>
</a>
</g>
</g>
<!-- elpa&#45;&gt;elsi -->
<g id="edge53" class="edge">
<title>elpa&#45;&gt;elsi</title>
<path fill="none" stroke="black" d="M913.81,-408.97C878.02,-396.25 821.84,-376.29 785.64,-363.42"/>
<polygon fill="black" stroke="black" points="787.11,-360.23 776.52,-360.18 784.77,-366.83 787.11,-360.23"/>
</g>
<!-- abacus -->
<g id="node53" class="node">
<title>abacus</title>
<g id="a_node53"><a xlink:href="https://github.com/conda-forge/abacus-feedstock" xlink:title="abacus">
<ellipse fill="#fde725" stroke="black" cx="1036.68" cy="-206" rx="45.95" ry="18"/>
<text text-anchor="middle" x="1036.68" y="-201.32" font-family="Times,serif" font-size="14.00">abacus</text>
</a>
</g>
</g>
<!-- elpa&#45;&gt;abacus -->
<g id="edge54" class="edge">
<title>elpa&#45;&gt;abacus</title>
<path fill="none" stroke="black" d="M958.3,-403.96C964.66,-393.64 972.8,-380.16 979.68,-368 997.48,-336.5 1005.34,-330.01 1017.68,-296 1024.77,-276.45 1029.59,-253.48 1032.6,-235.77"/>
<polygon fill="black" stroke="black" points="1036.05,-236.37 1034.16,-225.95 1029.13,-235.27 1036.05,-236.37"/>
</g>
<!-- elsi&#45;&gt;dftbplus -->
<g id="edge55" class="edge">
<title>elsi&#45;&gt;dftbplus</title>
<path fill="none" stroke="black" d="M731.23,-336.54C718.48,-327.13 702.89,-312.96 695.68,-296 689.42,-281.28 689.42,-274.72 695.68,-260 700.59,-248.44 709.4,-238.18 718.54,-229.84"/>
<polygon fill="black" stroke="black" points="720.76,-232.55 726.15,-223.42 716.25,-227.2 720.76,-232.55"/>
</g>
<!-- elsi&#45;&gt;libmbd -->
<g id="edge56" class="edge">
<title>elsi&#45;&gt;libmbd</title>
<path fill="none" stroke="black" d="M750.68,-331.7C750.68,-324.41 750.68,-315.73 750.68,-307.54"/>
<polygon fill="black" stroke="black" points="754.18,-307.62 750.68,-297.62 747.18,-307.62 754.18,-307.62"/>
</g>
<!-- libomm -->
<g id="node54" class="node">
<title>libomm</title>
<g id="a_node54"><a xlink:href="https://github.com/conda-forge/libomm-feedstock" xlink:title="libomm">
<ellipse fill="#fde725" stroke="black" cx="789.68" cy="-422" rx="48.58" ry="18"/>
<text text-anchor="middle" x="789.68" y="-417.32" font-family="Times,serif" font-size="14.00">libomm</text>
</a>
</g>
</g>
<!-- libomm&#45;&gt;elsi -->
<g id="edge57" class="edge">
<title>libomm&#45;&gt;elsi</title>
<path fill="none" stroke="black" d="M780.23,-404.05C775.76,-396.03 770.32,-386.26 765.33,-377.3"/>
<polygon fill="black" stroke="black" points="768.42,-375.66 760.5,-368.63 762.31,-379.07 768.42,-375.66"/>
</g>
<!-- matrixswitch -->
<g id="node55" class="node">
<title>matrixswitch</title>
<g id="a_node55"><a xlink:href="https://github.com/conda-forge/matrixswitch-feedstock/pull/7" xlink:title="matrixswitch ❎">
<ellipse fill="#31688e" stroke="black" cx="750.68" cy="-494" rx="92.25" ry="18"/>
<text text-anchor="middle" x="750.68" y="-489.32" font-family="Times,serif" font-size="14.00" fill="white">matrixswitch ❎</text>
</a>
</g>
</g>
<!-- matrixswitch&#45;&gt;elsi -->
<g id="edge58" class="edge">
<title>matrixswitch&#45;&gt;elsi</title>
<path fill="none" stroke="black" d="M742.78,-475.75C738.57,-465.58 733.82,-452.33 731.68,-440 728.94,-424.24 728.94,-419.76 731.68,-404 733.15,-395.49 735.88,-386.54 738.81,-378.47"/>
<polygon fill="black" stroke="black" points="742.05,-379.78 742.43,-369.19 735.53,-377.23 742.05,-379.78"/>
</g>
<!-- matrixswitch&#45;&gt;libomm -->
<g id="edge59" class="edge">
<title>matrixswitch&#45;&gt;libomm</title>
<path fill="none" stroke="black" d="M760.32,-475.7C764.61,-467.98 769.78,-458.71 774.57,-450.11"/>
<polygon fill="black" stroke="black" points="777.6,-451.87 779.41,-441.43 771.48,-448.46 777.6,-451.87"/>
</g>
<!-- fleur -->
<g id="node57" class="node">
<title>fleur</title>
<g id="a_node57"><a xlink:href="https://github.com/conda-forge/fleur-feedstock/pull/19" xlink:title="fleur ✓">
<ellipse fill="#31688e" stroke="black" cx="870.68" cy="-1042" rx="42.26" ry="18"/>
<text text-anchor="middle" x="870.68" y="-1037.33" font-family="Times,serif" font-size="14.00" fill="white">fleur ✓</text>
</a>
</g>
</g>
<!-- eigenexa&#45;&gt;fleur -->
<!-- edrixs -->
<g id="node58" class="node">
<title>edrixs</title>
<g id="a_node58"><a xlink:href="https://github.com/conda-forge/edrixs-feedstock/pull/14" xlink:title="edrixs ❎">
<ellipse fill="#31688e" stroke="black" cx="870.68" cy="-970" rx="57.52" ry="18"/>
<text text-anchor="middle" x="870.68" y="-965.33" font-family="Times,serif" font-size="14.00" fill="white">edrixs ❎</text>
</a>
</g>
</g>
<!-- fleur&#45;&gt;edrixs -->
<!-- openphase -->
<g id="node59" class="node">
<title>openphase</title>
<g id="a_node59"><a xlink:href="https://github.com/conda-forge/openphase-feedstock/pull/2" xlink:title="openphase ❎">
<ellipse fill="#31688e" stroke="black" cx="870.68" cy="-898" rx="80.14" ry="18"/>
<text text-anchor="middle" x="870.68" y="-893.33" font-family="Times,serif" font-size="14.00" fill="white">openphase ❎</text>
</a>
</g>
</g>
<!-- edrixs&#45;&gt;openphase -->
<!-- sparc&#45;x -->
<g id="node60" class="node">
<title>sparc&#45;x</title>
<g id="a_node60"><a xlink:href="https://github.com/conda-forge/sparc-x-feedstock/pull/9" xlink:title="sparc x ❎">
<ellipse fill="#31688e" stroke="black" cx="870.68" cy="-826" rx="62.78" ry="18"/>
<text text-anchor="middle" x="870.68" y="-821.33" font-family="Times,serif" font-size="14.00" fill="white">sparc x ❎</text>
</a>
</g>
</g>
<!-- openphase&#45;&gt;sparc&#45;x -->
<!-- reef3d -->
<g id="node61" class="node">
<title>reef3d</title>
<g id="a_node61"><a xlink:href="https://github.com/conda-forge/reef3d-feedstock/pull/11" xlink:title="reef3d ✓">
<ellipse fill="#31688e" stroke="black" cx="870.68" cy="-754" rx="51.74" ry="18"/>
<text text-anchor="middle" x="870.68" y="-749.33" font-family="Times,serif" font-size="14.00" fill="white">reef3d ✓</text>
</a>
</g>
</g>
<!-- sparc&#45;x&#45;&gt;reef3d -->
<!-- horovod -->
<g id="node62" class="node">
<title>horovod</title>
<g id="a_node62"><a xlink:href="https://github.com/conda-forge/horovod-feedstock" xlink:title="horovod">
<ellipse fill="#35b779" stroke="black" cx="870.68" cy="-682" rx="51.74" ry="18"/>
<text text-anchor="middle" x="870.68" y="-677.33" font-family="Times,serif" font-size="14.00">horovod</text>
</a>
</g>
</g>
<!-- reef3d&#45;&gt;horovod -->
<!-- genesis4 -->
<g id="node63" class="node">
<title>genesis4</title>
<g id="a_node63"><a xlink:href="https://github.com/conda-forge/genesis4-feedstock/pull/12" xlink:title="genesis4 ❎">
<ellipse fill="#31688e" stroke="black" cx="870.68" cy="-610" rx="70.68" ry="18"/>
<text text-anchor="middle" x="870.68" y="-605.33" font-family="Times,serif" font-size="14.00" fill="white">genesis4 ❎</text>
</a>
</g>
</g>
<!-- horovod&#45;&gt;genesis4 -->
<!-- fluidfft&#45;mpi_with_fftw -->
<g id="node64" class="node">
<title>fluidfft&#45;mpi_with_fftw</title>
<g id="a_node64"><a xlink:href="https://github.com/conda-forge/fluidfft-mpi_with_fftw-feedstock" xlink:title="fluidfft mpi_with_fftw">
<ellipse fill="#35b779" stroke="black" cx="870.68" cy="-538" rx="117.5" ry="18"/>
<text text-anchor="middle" x="870.68" y="-533.33" font-family="Times,serif" font-size="14.00">fluidfft mpi_with_fftw</text>
</a>
</g>
</g>
<!-- genesis4&#45;&gt;fluidfft&#45;mpi_with_fftw -->
<!-- opentelemac -->
<g id="node65" class="node">
<title>opentelemac</title>
<g id="a_node65"><a xlink:href="https://github.com/conda-forge/opentelemac-feedstock/pull/2" xlink:title="opentelemac ✓">
<ellipse fill="#31688e" stroke="black" cx="1252.68" cy="-90" rx="82.77" ry="18"/>
<text text-anchor="middle" x="1252.68" y="-85.33" font-family="Times,serif" font-size="14.00" fill="white">opentelemac ✓</text>
</a>
</g>
</g>
</g>
</svg>
