<?xml version="1.0" encoding="UTF-8" standalone="no"?>
<!DOCTYPE svg PUBLIC "-//W3C//DTD SVG 1.1//EN"
 "http://www.w3.org/Graphics/SVG/1.1/DTD/svg11.dtd">
<!-- Generated by graphviz version 11.0.0 (20240519.1550)
 -->
<!-- Pages: 1 -->
<svg width="1739pt" height="1428pt"
 viewBox="0.00 0.00 1739.14 1428.00" xmlns="http://www.w3.org/2000/svg" xmlns:xlink="http://www.w3.org/1999/xlink">
<g id="graph0" class="graph" transform="scale(1 1) rotate(0) translate(4 1424)">
<polygon fill="white" stroke="none" points="-4,4 -4,-1424 1735.14,-1424 1735.14,4 -4,4"/>
<!-- casacore -->
<g id="node1" class="node">
<title>casacore</title>
<g id="a_node1"><a xlink:href="https://github.com/conda-forge/casacore-feedstock/pull/88" xlink:title="casacore ❎">
<ellipse fill="#31688e" stroke="black" cx="1569.36" cy="-1402" rx="70.15" ry="18"/>
<text text-anchor="middle" x="1569.36" y="-1397.33" font-family="Times,serif" font-size="14.00" fill="white">casacore ❎</text>
</a>
</g>
</g>
<!-- esmf -->
<g id="node2" class="node">
<title>esmf</title>
<g id="a_node2"><a xlink:href="https://github.com/conda-forge/esmf-feedstock/pull/116" xlink:title="esmf ❎">
<ellipse fill="#31688e" stroke="black" cx="1569.36" cy="-1330" rx="50.68" ry="18"/>
<text text-anchor="middle" x="1569.36" y="-1325.33" font-family="Times,serif" font-size="14.00" fill="white">esmf ❎</text>
</a>
</g>
</g>
<!-- casacore&#45;&gt;esmf -->
<!-- netcdf&#45;cxx4 -->
<g id="node3" class="node">
<title>netcdf&#45;cxx4</title>
<g id="a_node3"><a xlink:href="https://github.com/conda-forge/netcdf-cxx4-feedstock/pull/48" xlink:title="netcdf cxx4 ❎">
<ellipse fill="#31688e" stroke="black" cx="1569.36" cy="-1258" rx="84.35" ry="18"/>
<text text-anchor="middle" x="1569.36" y="-1253.33" font-family="Times,serif" font-size="14.00" fill="white">netcdf cxx4 ❎</text>
</a>
</g>
</g>
<!-- esmf&#45;&gt;netcdf&#45;cxx4 -->
<!-- openpmd&#45;api -->
<g id="node20" class="node">
<title>openpmd&#45;api</title>
<g id="a_node20"><a xlink:href="https://github.com/conda-forge/openpmd-api-feedstock/pull/112" xlink:title="openpmd api ❎">
<ellipse fill="#31688e" stroke="black" cx="1569.36" cy="-1186" rx="91.19" ry="18"/>
<text text-anchor="middle" x="1569.36" y="-1181.33" font-family="Times,serif" font-size="14.00" fill="white">openpmd api ❎</text>
</a>
</g>
</g>
<!-- netcdf&#45;cxx4&#45;&gt;openpmd&#45;api -->
<!-- fenics -->
<g id="node4" class="node">
<title>fenics</title>
<g id="a_node4"><a xlink:href="https://github.com/conda-forge/fenics-feedstock" xlink:title="fenics">
<ellipse fill="#fde725" stroke="black" cx="404.36" cy="-422" rx="40.69" ry="18"/>
<text text-anchor="middle" x="404.36" y="-417.32" font-family="Times,serif" font-size="14.00">fenics</text>
</a>
</g>
</g>
<!-- mshr -->
<g id="node5" class="node">
<title>mshr</title>
<g id="a_node5"><a xlink:href="https://github.com/conda-forge/mshr-feedstock" xlink:title="mshr">
<ellipse fill="#fde725" stroke="black" cx="404.36" cy="-350" rx="37" ry="18"/>
<text text-anchor="middle" x="404.36" y="-345.32" font-family="Times,serif" font-size="14.00">mshr</text>
</a>
</g>
</g>
<!-- fenics&#45;&gt;mshr -->
<g id="edge3" class="edge">
<title>fenics&#45;&gt;mshr</title>
<path fill="none" stroke="black" d="M404.36,-403.7C404.36,-396.41 404.36,-387.73 404.36,-379.54"/>
<polygon fill="black" stroke="black" points="407.86,-379.62 404.36,-369.62 400.86,-379.62 407.86,-379.62"/>
</g>
<!-- h5py -->
<g id="node6" class="node">
<title>h5py</title>
<g id="a_node6"><a xlink:href="https://github.com/conda-forge/h5py-feedstock/pull/141" xlink:title="h5py ❎">
<ellipse fill="#31688e" stroke="black" cx="441.36" cy="-1186" rx="51.21" ry="18"/>
<text text-anchor="middle" x="441.36" y="-1181.33" font-family="Times,serif" font-size="14.00" fill="white">h5py ❎</text>
</a>
</g>
</g>
<!-- openmc -->
<g id="node7" class="node">
<title>openmc</title>
<g id="a_node7"><a xlink:href="https://github.com/conda-forge/openmc-feedstock" xlink:title="openmc">
<ellipse fill="#fde725" stroke="black" cx="809.36" cy="-1114" rx="50.16" ry="18"/>
<text text-anchor="middle" x="809.36" y="-1109.33" font-family="Times,serif" font-size="14.00">openmc</text>
</a>
</g>
</g>
<!-- h5py&#45;&gt;openmc -->
<g id="edge4" class="edge">
<title>h5py&#45;&gt;openmc</title>
<path fill="none" stroke="black" d="M487.96,-1178.17C547.83,-1169.09 654.83,-1151.87 745.36,-1132 749.97,-1130.99 754.75,-1129.86 759.52,-1128.69"/>
<polygon fill="black" stroke="black" points="760.27,-1132.11 769.1,-1126.25 758.55,-1125.32 760.27,-1132.11"/>
</g>
<!-- lalinference -->
<g id="node8" class="node">
<title>lalinference</title>
<g id="a_node8"><a xlink:href="https://github.com/conda-forge/lalinference-feedstock" xlink:title="lalinference">
<ellipse fill="#fde725" stroke="black" cx="625.36" cy="-1114" rx="70.15" ry="18"/>
<text text-anchor="middle" x="625.36" y="-1109.33" font-family="Times,serif" font-size="14.00">lalinference</text>
</a>
</g>
</g>
<!-- h5py&#45;&gt;lalinference -->
<g id="edge5" class="edge">
<title>h5py&#45;&gt;lalinference</title>
<path fill="none" stroke="black" d="M475.11,-1172.16C503.63,-1161.31 544.84,-1145.63 576.9,-1133.44"/>
<polygon fill="black" stroke="black" points="577.87,-1136.81 585.97,-1129.99 575.38,-1130.27 577.87,-1136.81"/>
</g>
<!-- lfpy -->
<g id="node9" class="node">
<title>lfpy</title>
<g id="a_node9"><a xlink:href="https://github.com/conda-forge/lfpy-feedstock" xlink:title="lfpy">
<ellipse fill="#fde725" stroke="black" cx="537.36" cy="-1042" rx="30.16" ry="18"/>
<text text-anchor="middle" x="537.36" y="-1037.33" font-family="Times,serif" font-size="14.00">lfpy</text>
</a>
</g>
</g>
<!-- h5py&#45;&gt;lfpy -->
<g id="edge6" class="edge">
<title>h5py&#45;&gt;lfpy</title>
<path fill="none" stroke="black" d="M459.7,-1169.05C470.4,-1159.12 483.66,-1145.66 493.36,-1132 507,-1112.8 518.61,-1088.74 526.48,-1070.48"/>
<polygon fill="black" stroke="black" points="529.67,-1071.93 530.29,-1061.35 523.21,-1069.23 529.67,-1071.93"/>
</g>
<!-- deepmd&#45;kit -->
<g id="node10" class="node">
<title>deepmd&#45;kit</title>
<g id="a_node10"><a xlink:href="https://github.com/conda-forge/deepmd-kit-feedstock" xlink:title="deepmd kit">
<ellipse fill="#fde725" stroke="black" cx="537.36" cy="-970" rx="67.52" ry="18"/>
<text text-anchor="middle" x="537.36" y="-965.33" font-family="Times,serif" font-size="14.00">deepmd kit</text>
</a>
</g>
</g>
<!-- h5py&#45;&gt;deepmd&#45;kit -->
<g id="edge7" class="edge">
<title>h5py&#45;&gt;deepmd&#45;kit</title>
<path fill="none" stroke="black" d="M445.64,-1167.86C453.56,-1137.67 472.12,-1073.52 498.36,-1024 503.34,-1014.61 509.84,-1005.05 516.11,-996.68"/>
<polygon fill="black" stroke="black" points="518.7,-999.05 522.07,-989.01 513.17,-994.76 518.7,-999.05"/>
</g>
<!-- dedalus -->
<g id="node11" class="node">
<title>dedalus</title>
<g id="a_node11"><a xlink:href="https://github.com/conda-forge/dedalus-feedstock" xlink:title="dedalus">
<ellipse fill="#fde725" stroke="black" cx="481.36" cy="-898" rx="50.16" ry="18"/>
<text text-anchor="middle" x="481.36" y="-893.33" font-family="Times,serif" font-size="14.00">dedalus</text>
</a>
</g>
</g>
<!-- h5py&#45;&gt;dedalus -->
<g id="edge8" class="edge">
<title>h5py&#45;&gt;dedalus</title>
<path fill="none" stroke="black" d="M441.04,-1167.78C440.69,-1128.79 441.91,-1031.05 460.36,-952 462.32,-943.61 465.37,-934.81 468.55,-926.83"/>
<polygon fill="black" stroke="black" points="471.76,-928.22 472.43,-917.64 465.32,-925.49 471.76,-928.22"/>
</g>
<!-- ondamonitor -->
<g id="node12" class="node">
<title>ondamonitor</title>
<g id="a_node12"><a xlink:href="https://github.com/conda-forge/ondamonitor-feedstock" xlink:title="ondamonitor">
<ellipse fill="#fde725" stroke="black" cx="403.36" cy="-826" rx="74.88" ry="18"/>
<text text-anchor="middle" x="403.36" y="-821.33" font-family="Times,serif" font-size="14.00">ondamonitor</text>
</a>
</g>
</g>
<!-- h5py&#45;&gt;ondamonitor -->
<g id="edge9" class="edge">
<title>h5py&#45;&gt;ondamonitor</title>
<path fill="none" stroke="black" d="M433.67,-1167.91C422.57,-1141.62 403.36,-1089.45 403.36,-1043 403.36,-1043 403.36,-1043 403.36,-969 403.36,-929.74 403.36,-884.38 403.36,-855.69"/>
<polygon fill="black" stroke="black" points="406.86,-856 403.36,-846 399.86,-856 406.86,-856"/>
</g>
<!-- alamode -->
<g id="node13" class="node">
<title>alamode</title>
<g id="a_node13"><a xlink:href="https://github.com/conda-forge/alamode-feedstock" xlink:title="alamode">
<ellipse fill="#fde725" stroke="black" cx="322.36" cy="-1114" rx="53.31" ry="18"/>
<text text-anchor="middle" x="322.36" y="-1109.33" font-family="Times,serif" font-size="14.00">alamode</text>
</a>
</g>
</g>
<!-- h5py&#45;&gt;alamode -->
<g id="edge10" class="edge">
<title>h5py&#45;&gt;alamode</title>
<path fill="none" stroke="black" d="M415.83,-1169.98C398.89,-1160.02 376.42,-1146.8 357.76,-1135.83"/>
<polygon fill="black" stroke="black" points="359.55,-1132.81 349.15,-1130.76 356,-1138.85 359.55,-1132.81"/>
</g>
<!-- veloxchem -->
<g id="node14" class="node">
<title>veloxchem</title>
<g id="a_node14"><a xlink:href="https://github.com/conda-forge/veloxchem-feedstock" xlink:title="veloxchem">
<ellipse fill="#fde725" stroke="black" cx="64.36" cy="-1114" rx="64.36" ry="18"/>
<text text-anchor="middle" x="64.36" y="-1109.33" font-family="Times,serif" font-size="14.00">veloxchem</text>
</a>
</g>
</g>
<!-- h5py&#45;&gt;veloxchem -->
<g id="edge11" class="edge">
<title>h5py&#45;&gt;veloxchem</title>
<path fill="none" stroke="black" d="M395.28,-1177.71C335.76,-1168.13 229.05,-1150.33 138.36,-1132 133.43,-1131 128.33,-1129.93 123.21,-1128.81"/>
<polygon fill="black" stroke="black" points="124.05,-1125.42 113.53,-1126.67 122.53,-1132.25 124.05,-1125.42"/>
</g>
<!-- heat -->
<g id="node15" class="node">
<title>heat</title>
<g id="a_node15"><a xlink:href="https://github.com/conda-forge/heat-feedstock" xlink:title="heat">
<ellipse fill="#fde725" stroke="black" cx="180.36" cy="-1114" rx="33.32" ry="18"/>
<text text-anchor="middle" x="180.36" y="-1109.33" font-family="Times,serif" font-size="14.00">heat</text>
</a>
</g>
</g>
<!-- h5py&#45;&gt;heat -->
<g id="edge12" class="edge">
<title>h5py&#45;&gt;heat</title>
<path fill="none" stroke="black" d="M398.37,-1175.74C354.9,-1166.05 285.96,-1149.8 227.36,-1132 224.25,-1131.05 221.04,-1130.02 217.83,-1128.95"/>
<polygon fill="black" stroke="black" points="219.07,-1125.67 208.47,-1125.69 216.77,-1132.28 219.07,-1125.67"/>
</g>
<!-- horovod -->
<g id="node16" class="node">
<title>horovod</title>
<g id="a_node16"><a xlink:href="https://github.com/conda-forge/horovod-feedstock" xlink:title="horovod">
<ellipse fill="#fde725" stroke="black" cx="241.36" cy="-1042" rx="51.74" ry="18"/>
<text text-anchor="middle" x="241.36" y="-1037.33" font-family="Times,serif" font-size="14.00">horovod</text>
</a>
</g>
</g>
<!-- h5py&#45;&gt;horovod -->
<g id="edge13" class="edge">
<title>h5py&#45;&gt;horovod</title>
<path fill="none" stroke="black" d="M390.33,-1183.7C349.42,-1179.85 293.55,-1167.76 260.36,-1132 245.48,-1115.96 241.14,-1091.24 240.29,-1071.91"/>
<polygon fill="black" stroke="black" points="243.79,-1071.89 240.17,-1061.94 236.79,-1071.98 243.79,-1071.89"/>
</g>
<!-- fluidfft&#45;mpi_with_fftw -->
<g id="node17" class="node">
<title>fluidfft&#45;mpi_with_fftw</title>
<g id="a_node17"><a xlink:href="https://github.com/conda-forge/fluidfft-mpi_with_fftw-feedstock" xlink:title="fluidfft mpi_with_fftw">
<ellipse fill="#fde725" stroke="black" cx="740.36" cy="-970" rx="117.5" ry="18"/>
<text text-anchor="middle" x="740.36" y="-965.33" font-family="Times,serif" font-size="14.00">fluidfft mpi_with_fftw</text>
</a>
</g>
</g>
<!-- h5py&#45;&gt;fluidfft&#45;mpi_with_fftw -->
<g id="edge14" class="edge">
<title>h5py&#45;&gt;fluidfft&#45;mpi_with_fftw</title>
<path fill="none" stroke="black" d="M491.19,-1181.34C558.84,-1175.34 674.7,-1161.04 704.36,-1132 739.85,-1097.26 743.78,-1035.71 742.62,-999.62"/>
<polygon fill="black" stroke="black" points="746.13,-999.75 742.14,-989.94 739.14,-1000.1 746.13,-999.75"/>
</g>
<!-- moab -->
<g id="node18" class="node">
<title>moab</title>
<g id="a_node18"><a xlink:href="https://github.com/conda-forge/moab-feedstock/pull/94" xlink:title="moab ❎">
<ellipse fill="#31688e" stroke="black" cx="809.36" cy="-1258" rx="53.84" ry="18"/>
<text text-anchor="middle" x="809.36" y="-1253.33" font-family="Times,serif" font-size="14.00" fill="white">moab ❎</text>
</a>
</g>
</g>
<!-- dagmc -->
<g id="node19" class="node">
<title>dagmc</title>
<g id="a_node19"><a xlink:href="https://github.com/conda-forge/dagmc-feedstock" xlink:title="dagmc">
<ellipse fill="#fde725" stroke="black" cx="809.36" cy="-1186" rx="44.37" ry="18"/>
<text text-anchor="middle" x="809.36" y="-1181.33" font-family="Times,serif" font-size="14.00">dagmc</text>
</a>
</g>
</g>
<!-- moab&#45;&gt;dagmc -->
<g id="edge15" class="edge">
<title>moab&#45;&gt;dagmc</title>
<path fill="none" stroke="black" d="M809.36,-1239.7C809.36,-1232.41 809.36,-1223.73 809.36,-1215.54"/>
<polygon fill="black" stroke="black" points="812.86,-1215.62 809.36,-1205.62 805.86,-1215.62 812.86,-1215.62"/>
</g>
<!-- dagmc&#45;&gt;openmc -->
<g id="edge16" class="edge">
<title>dagmc&#45;&gt;openmc</title>
<path fill="none" stroke="black" d="M809.36,-1167.7C809.36,-1160.41 809.36,-1151.73 809.36,-1143.54"/>
<polygon fill="black" stroke="black" points="812.86,-1143.62 809.36,-1133.62 805.86,-1143.62 812.86,-1143.62"/>
</g>
<!-- parabem -->
<g id="node32" class="node">
<title>parabem</title>
<g id="a_node32"><a xlink:href="https://github.com/conda-forge/parabem-feedstock/pull/17" xlink:title="parabem ❎">
<ellipse fill="#31688e" stroke="black" cx="1569.36" cy="-1114" rx="70.68" ry="18"/>
<text text-anchor="middle" x="1569.36" y="-1109.33" font-family="Times,serif" font-size="14.00" fill="white">parabem ❎</text>
</a>
</g>
</g>
<!-- openpmd&#45;api&#45;&gt;parabem -->
<!-- netcdf4 -->
<g id="node21" class="node">
<title>netcdf4</title>
<g id="a_node21"><a xlink:href="https://github.com/conda-forge/netcdf4-feedstock/pull/163" xlink:title="netcdf4 ❎">
<ellipse fill="#31688e" stroke="black" cx="122.36" cy="-1186" rx="64.36" ry="18"/>
<text text-anchor="middle" x="122.36" y="-1181.33" font-family="Times,serif" font-size="14.00" fill="white">netcdf4 ❎</text>
</a>
</g>
</g>
<!-- netcdf4&#45;&gt;veloxchem -->
<g id="edge18" class="edge">
<title>netcdf4&#45;&gt;veloxchem</title>
<path fill="none" stroke="black" d="M108.32,-1168.05C101.48,-1159.8 93.11,-1149.7 85.52,-1140.54"/>
<polygon fill="black" stroke="black" points="88.31,-1138.42 79.24,-1132.95 82.92,-1142.89 88.31,-1138.42"/>
</g>
<!-- netcdf4&#45;&gt;heat -->
<g id="edge19" class="edge">
<title>netcdf4&#45;&gt;heat</title>
<path fill="none" stroke="black" d="M136.4,-1168.05C143.51,-1159.47 152.28,-1148.89 160.11,-1139.44"/>
<polygon fill="black" stroke="black" points="162.59,-1141.93 166.28,-1131.99 157.2,-1137.46 162.59,-1141.93"/>
</g>
<!-- siesta -->
<g id="node22" class="node">
<title>siesta</title>
<g id="a_node22"><a xlink:href="https://github.com/conda-forge/siesta-feedstock" xlink:title="siesta">
<ellipse fill="#fde725" stroke="black" cx="1229.36" cy="-494" rx="40.69" ry="18"/>
<text text-anchor="middle" x="1229.36" y="-489.32" font-family="Times,serif" font-size="14.00">siesta</text>
</a>
</g>
</g>
<!-- petsc -->
<g id="node23" class="node">
<title>petsc</title>
<g id="a_node23"><a xlink:href="https://github.com/conda-forge/petsc-feedstock/pull/203" xlink:title="petsc ❎">
<ellipse fill="#31688e" stroke="black" cx="407.36" cy="-638" rx="53.31" ry="18"/>
<text text-anchor="middle" x="407.36" y="-633.33" font-family="Times,serif" font-size="14.00" fill="white">petsc ❎</text>
</a>
</g>
</g>
<!-- petsc&#45;&gt;fenics -->
<g id="edge20" class="edge">
<title>petsc&#45;&gt;fenics</title>
<path fill="none" stroke="black" d="M454.36,-629.14C550.98,-611.05 757.15,-561.33 686.36,-476 657.68,-441.43 529.45,-429.26 456.17,-425.09"/>
<polygon fill="black" stroke="black" points="456.59,-421.61 446.41,-424.57 456.21,-428.6 456.59,-421.61"/>
</g>
<!-- petsc4py -->
<g id="node24" class="node">
<title>petsc4py</title>
<g id="a_node24"><a xlink:href="https://github.com/conda-forge/petsc4py-feedstock" xlink:title="petsc4py">
<ellipse fill="#fde725" stroke="black" cx="246.36" cy="-566" rx="56.47" ry="18"/>
<text text-anchor="middle" x="246.36" y="-561.33" font-family="Times,serif" font-size="14.00">petsc4py</text>
</a>
</g>
</g>
<!-- petsc&#45;&gt;petsc4py -->
<g id="edge21" class="edge">
<title>petsc&#45;&gt;petsc4py</title>
<path fill="none" stroke="black" d="M375.55,-623.17C350.88,-612.44 316.43,-597.46 289.3,-585.67"/>
<polygon fill="black" stroke="black" points="290.89,-582.54 280.32,-581.76 288.09,-588.96 290.89,-582.54"/>
</g>
<!-- slepc -->
<g id="node25" class="node">
<title>slepc</title>
<g id="a_node25"><a xlink:href="https://github.com/conda-forge/slepc-feedstock" xlink:title="slepc">
<ellipse fill="#fde725" stroke="black" cx="454.36" cy="-566" rx="37" ry="18"/>
<text text-anchor="middle" x="454.36" y="-561.33" font-family="Times,serif" font-size="14.00">slepc</text>
</a>
</g>
</g>
<!-- petsc&#45;&gt;slepc -->
<g id="edge22" class="edge">
<title>petsc&#45;&gt;slepc</title>
<path fill="none" stroke="black" d="M418.74,-620.05C424.24,-611.85 430.97,-601.83 437.1,-592.71"/>
<polygon fill="black" stroke="black" points="439.9,-594.82 442.57,-584.56 434.09,-590.91 439.9,-594.82"/>
</g>
<!-- daetk -->
<g id="node26" class="node">
<title>daetk</title>
<g id="a_node26"><a xlink:href="https://github.com/conda-forge/daetk-feedstock" xlink:title="daetk">
<ellipse fill="#fde725" stroke="black" cx="360.36" cy="-566" rx="39.11" ry="18"/>
<text text-anchor="middle" x="360.36" y="-561.33" font-family="Times,serif" font-size="14.00">daetk</text>
</a>
</g>
</g>
<!-- petsc&#45;&gt;daetk -->
<g id="edge23" class="edge">
<title>petsc&#45;&gt;daetk</title>
<path fill="none" stroke="black" d="M395.98,-620.05C390.48,-611.85 383.75,-601.83 377.63,-592.71"/>
<polygon fill="black" stroke="black" points="380.63,-590.91 372.15,-584.56 374.82,-594.82 380.63,-590.91"/>
</g>
<!-- yambo -->
<g id="node27" class="node">
<title>yambo</title>
<g id="a_node27"><a xlink:href="https://github.com/conda-forge/yambo-feedstock" xlink:title="yambo">
<ellipse fill="#fde725" stroke="black" cx="514.36" cy="-494" rx="44.37" ry="18"/>
<text text-anchor="middle" x="514.36" y="-489.32" font-family="Times,serif" font-size="14.00">yambo</text>
</a>
</g>
</g>
<!-- petsc&#45;&gt;yambo -->
<g id="edge24" class="edge">
<title>petsc&#45;&gt;yambo</title>
<path fill="none" stroke="black" d="M444.66,-624.78C464.32,-616.41 487.05,-603.27 500.36,-584 512.46,-566.47 515.65,-542.41 515.99,-523.72"/>
<polygon fill="black" stroke="black" points="519.49,-523.82 515.87,-513.86 512.49,-523.9 519.49,-523.82"/>
</g>
<!-- fenics&#45;dolfinx -->
<g id="node28" class="node">
<title>fenics&#45;dolfinx</title>
<g id="a_node28"><a xlink:href="https://github.com/conda-forge/fenics-dolfinx-feedstock" xlink:title="fenics dolfinx">
<ellipse fill="#fde725" stroke="black" cx="230.36" cy="-422" rx="77.52" ry="18"/>
<text text-anchor="middle" x="230.36" y="-417.32" font-family="Times,serif" font-size="14.00">fenics dolfinx</text>
</a>
</g>
</g>
<!-- petsc&#45;&gt;fenics&#45;dolfinx -->
<g id="edge25" class="edge">
<title>petsc&#45;&gt;fenics&#45;dolfinx</title>
<path fill="none" stroke="black" d="M356.24,-632.28C296.41,-625.58 202.76,-611 181.36,-584 149.59,-543.92 184.18,-483.38 209.23,-449.09"/>
<polygon fill="black" stroke="black" points="211.83,-451.46 215.07,-441.37 206.24,-447.24 211.83,-451.46"/>
</g>
<!-- freefem -->
<g id="node29" class="node">
<title>freefem</title>
<g id="a_node29"><a xlink:href="https://github.com/conda-forge/freefem-feedstock" xlink:title="freefem">
<ellipse fill="#fde725" stroke="black" cx="627.36" cy="-494" rx="50.16" ry="18"/>
<text text-anchor="middle" x="627.36" y="-489.32" font-family="Times,serif" font-size="14.00">freefem</text>
</a>
</g>
</g>
<!-- petsc&#45;&gt;freefem -->
<g id="edge26" class="edge">
<title>petsc&#45;&gt;freefem</title>
<path fill="none" stroke="black" d="M441.42,-623.72C464.48,-614.09 495.22,-599.98 520.36,-584 550.52,-564.83 581.54,-538.11 602.36,-518.96"/>
<polygon fill="black" stroke="black" points="604.59,-521.67 609.52,-512.29 599.82,-516.55 604.59,-521.67"/>
</g>
<!-- dolfinx_mpc -->
<g id="node30" class="node">
<title>dolfinx_mpc</title>
<g id="a_node30"><a xlink:href="https://github.com/conda-forge/dolfinx_mpc-feedstock" xlink:title="dolfinx_mpc">
<ellipse fill="#fde725" stroke="black" cx="177.36" cy="-350" rx="70.68" ry="18"/>
<text text-anchor="middle" x="177.36" y="-345.32" font-family="Times,serif" font-size="14.00">dolfinx_mpc</text>
</a>
</g>
</g>
<!-- petsc&#45;&gt;dolfinx_mpc -->
<g id="edge27" class="edge">
<title>petsc&#45;&gt;dolfinx_mpc</title>
<path fill="none" stroke="black" d="M356.15,-632.6C292.74,-626.04 189.94,-611.44 164.36,-584 109.43,-525.09 120.7,-481.29 143.36,-404 146.12,-394.6 151.11,-385.29 156.43,-377.16"/>
<polygon fill="black" stroke="black" points="159.19,-379.32 162.09,-369.13 153.47,-375.29 159.19,-379.32"/>
</g>
<!-- petsc4py&#45;&gt;fenics -->
<g id="edge28" class="edge">
<title>petsc4py&#45;&gt;fenics</title>
<path fill="none" stroke="black" d="M281.89,-551.77C302.64,-542.8 328.39,-529.4 347.36,-512 366.44,-494.5 381.8,-469.26 391.75,-450.12"/>
<polygon fill="black" stroke="black" points="394.82,-451.8 396.16,-441.29 388.56,-448.67 394.82,-451.8"/>
</g>
<!-- petsc4py&#45;&gt;fenics&#45;dolfinx -->
<g id="edge29" class="edge">
<title>petsc4py&#45;&gt;fenics&#45;dolfinx</title>
<path fill="none" stroke="black" d="M235.17,-548.14C229.2,-538.1 222.45,-524.85 219.36,-512 214.55,-491.98 217.65,-468.89 221.77,-451.25"/>
<polygon fill="black" stroke="black" points="225.11,-452.29 224.24,-441.73 218.34,-450.53 225.11,-452.29"/>
</g>
<!-- slepc4py -->
<g id="node31" class="node">
<title>slepc4py</title>
<g id="a_node31"><a xlink:href="https://github.com/conda-forge/slepc4py-feedstock" xlink:title="slepc4py">
<ellipse fill="#fde725" stroke="black" cx="283.36" cy="-494" rx="55.42" ry="18"/>
<text text-anchor="middle" x="283.36" y="-489.32" font-family="Times,serif" font-size="14.00">slepc4py</text>
</a>
</g>
</g>
<!-- petsc4py&#45;&gt;slepc4py -->
<g id="edge30" class="edge">
<title>petsc4py&#45;&gt;slepc4py</title>
<path fill="none" stroke="black" d="M255.32,-548.05C259.5,-540.14 264.58,-530.54 269.25,-521.69"/>
<polygon fill="black" stroke="black" points="272.2,-523.6 273.78,-513.13 266.01,-520.33 272.2,-523.6"/>
</g>
<!-- slepc&#45;&gt;fenics -->
<g id="edge31" class="edge">
<title>slepc&#45;&gt;fenics</title>
<path fill="none" stroke="black" d="M448.33,-547.87C439.85,-523.78 424.29,-479.6 414.14,-450.77"/>
<polygon fill="black" stroke="black" points="417.54,-449.89 410.92,-441.62 410.94,-452.21 417.54,-449.89"/>
</g>
<!-- slepc&#45;&gt;yambo -->
<g id="edge32" class="edge">
<title>slepc&#45;&gt;yambo</title>
<path fill="none" stroke="black" d="M467.98,-549.12C475.39,-540.47 484.72,-529.58 493.08,-519.83"/>
<polygon fill="black" stroke="black" points="495.55,-522.33 499.4,-512.46 490.23,-517.77 495.55,-522.33"/>
</g>
<!-- slepc&#45;&gt;fenics&#45;dolfinx -->
<g id="edge33" class="edge">
<title>slepc&#45;&gt;fenics&#45;dolfinx</title>
<path fill="none" stroke="black" d="M438.39,-549.33C418.36,-530.27 382.38,-497.93 347.36,-476 326.42,-462.89 301.7,-451.2 280.38,-442.16"/>
<polygon fill="black" stroke="black" points="281.88,-438.99 271.3,-438.39 279.2,-445.45 281.88,-438.99"/>
</g>
<!-- slepc&#45;&gt;freefem -->
<g id="edge34" class="edge">
<title>slepc&#45;&gt;freefem</title>
<path fill="none" stroke="black" d="M482.16,-553.75C509.79,-542.57 552.55,-525.27 584.53,-512.33"/>
<polygon fill="black" stroke="black" points="585.56,-515.69 593.52,-508.69 582.93,-509.2 585.56,-515.69"/>
</g>
<!-- slepc&#45;&gt;slepc4py -->
<g id="edge35" class="edge">
<title>slepc&#45;&gt;slepc4py</title>
<path fill="none" stroke="black" d="M426.89,-553.75C400.12,-542.79 358.97,-525.95 327.59,-513.11"/>
<polygon fill="black" stroke="black" points="328.92,-509.87 318.34,-509.32 326.27,-516.35 328.92,-509.87"/>
</g>
<!-- fenics&#45;dolfinx&#45;&gt;dolfinx_mpc -->
<g id="edge36" class="edge">
<title>fenics&#45;dolfinx&#45;&gt;dolfinx_mpc</title>
<path fill="none" stroke="black" d="M217.53,-404.05C211.35,-395.89 203.79,-385.91 196.91,-376.82"/>
<polygon fill="black" stroke="black" points="199.81,-374.86 190.99,-369 194.23,-379.08 199.81,-374.86"/>
</g>
<!-- slepc4py&#45;&gt;fenics -->
<g id="edge37" class="edge">
<title>slepc4py&#45;&gt;fenics</title>
<path fill="none" stroke="black" d="M309.62,-477.81C327.41,-467.52 351.09,-453.82 370.33,-442.69"/>
<polygon fill="black" stroke="black" points="372,-445.76 378.9,-437.73 368.49,-439.71 372,-445.76"/>
</g>
<!-- slepc4py&#45;&gt;fenics&#45;dolfinx -->
<g id="edge38" class="edge">
<title>slepc4py&#45;&gt;fenics&#45;dolfinx</title>
<path fill="none" stroke="black" d="M270.53,-476.05C264.35,-467.89 256.79,-457.91 249.91,-448.82"/>
<polygon fill="black" stroke="black" points="252.81,-446.86 243.99,-441 247.23,-451.08 252.81,-446.86"/>
</g>
<!-- dakota -->
<g id="node33" class="node">
<title>dakota</title>
<g id="a_node33"><a xlink:href="https://github.com/conda-forge/dakota-feedstock/pull/49" xlink:title="dakota ❎">
<ellipse fill="#31688e" stroke="black" cx="1569.36" cy="-1042" rx="60.15" ry="18"/>
<text text-anchor="middle" x="1569.36" y="-1037.33" font-family="Times,serif" font-size="14.00" fill="white">dakota ❎</text>
</a>
</g>
</g>
<!-- parabem&#45;&gt;dakota -->
<!-- scorec -->
<g id="node34" class="node">
<title>scorec</title>
<g id="a_node34"><a xlink:href="https://github.com/conda-forge/scorec-feedstock/pull/12" xlink:title="scorec ❎">
<ellipse fill="#31688e" stroke="black" cx="1569.36" cy="-970" rx="58.57" ry="18"/>
<text text-anchor="middle" x="1569.36" y="-965.33" font-family="Times,serif" font-size="14.00" fill="white">scorec ❎</text>
</a>
</g>
</g>
<!-- dakota&#45;&gt;scorec -->
<!-- netcdf&#45;cxx&#45;legacy -->
<g id="node39" class="node">
<title>netcdf&#45;cxx&#45;legacy</title>
<g id="a_node39"><a xlink:href="https://github.com/conda-forge/netcdf-cxx-legacy-feedstock/pull/16" xlink:title="netcdf cxx legacy ❎">
<ellipse fill="#31688e" stroke="black" cx="1569.36" cy="-898" rx="113.29" ry="18"/>
<text text-anchor="middle" x="1569.36" y="-893.33" font-family="Times,serif" font-size="14.00" fill="white">netcdf cxx legacy ❎</text>
</a>
</g>
</g>
<!-- scorec&#45;&gt;netcdf&#45;cxx&#45;legacy -->
<!-- triqs -->
<g id="node35" class="node">
<title>triqs</title>
<g id="a_node35"><a xlink:href="https://github.com/conda-forge/triqs-feedstock/pull/64" xlink:title="triqs ❎">
<ellipse fill="#31688e" stroke="black" cx="1552.36" cy="-602" rx="50.16" ry="18"/>
<text text-anchor="middle" x="1552.36" y="-597.33" font-family="Times,serif" font-size="14.00" fill="white">triqs ❎</text>
</a>
</g>
</g>
<!-- triqs_tprf -->
<g id="node36" class="node">
<title>triqs_tprf</title>
<g id="a_node36"><a xlink:href="https://github.com/conda-forge/triqs_tprf-feedstock" xlink:title="triqs_tprf">
<ellipse fill="#fde725" stroke="black" cx="1465.36" cy="-530" rx="58.57" ry="18"/>
<text text-anchor="middle" x="1465.36" y="-525.33" font-family="Times,serif" font-size="14.00">triqs_tprf</text>
</a>
</g>
</g>
<!-- triqs&#45;&gt;triqs_tprf -->
<g id="edge42" class="edge">
<title>triqs&#45;&gt;triqs_tprf</title>
<path fill="none" stroke="black" d="M1532.62,-585.12C1521.32,-576.03 1506.94,-564.46 1494.38,-554.35"/>
<polygon fill="black" stroke="black" points="1496.79,-551.8 1486.81,-548.26 1492.4,-557.25 1496.79,-551.8"/>
</g>
<!-- triqs_cthyb -->
<g id="node37" class="node">
<title>triqs_cthyb</title>
<g id="a_node37"><a xlink:href="https://github.com/conda-forge/triqs_cthyb-feedstock" xlink:title="triqs_cthyb">
<ellipse fill="#fde725" stroke="black" cx="1552.36" cy="-458" rx="67.52" ry="18"/>
<text text-anchor="middle" x="1552.36" y="-453.32" font-family="Times,serif" font-size="14.00">triqs_cthyb</text>
</a>
</g>
</g>
<!-- triqs&#45;&gt;triqs_cthyb -->
<g id="edge43" class="edge">
<title>triqs&#45;&gt;triqs_cthyb</title>
<path fill="none" stroke="black" d="M1552.36,-583.59C1552.36,-559.61 1552.36,-516.14 1552.36,-487.42"/>
<polygon fill="black" stroke="black" points="1555.86,-487.62 1552.36,-477.62 1548.86,-487.62 1555.86,-487.62"/>
</g>
<!-- triqs_dft_tools -->
<g id="node38" class="node">
<title>triqs_dft_tools</title>
<g id="a_node38"><a xlink:href="https://github.com/conda-forge/triqs_dft_tools-feedstock" xlink:title="triqs_dft_tools">
<ellipse fill="#fde725" stroke="black" cx="1648.36" cy="-386" rx="82.77" ry="18"/>
<text text-anchor="middle" x="1648.36" y="-381.32" font-family="Times,serif" font-size="14.00">triqs_dft_tools</text>
</a>
</g>
</g>
<!-- triqs&#45;&gt;triqs_dft_tools -->
<g id="edge44" class="edge">
<title>triqs&#45;&gt;triqs_dft_tools</title>
<path fill="none" stroke="black" d="M1565.33,-584.21C1582.54,-561.11 1612.67,-517.64 1629.36,-476 1637.15,-456.58 1641.96,-433.43 1644.8,-415.61"/>
<polygon fill="black" stroke="black" points="1648.26,-416.14 1646.24,-405.74 1641.33,-415.13 1648.26,-416.14"/>
</g>
<!-- conduit -->
<g id="node40" class="node">
<title>conduit</title>
<g id="a_node40"><a xlink:href="https://github.com/conda-forge/conduit-feedstock/pull/46" xlink:title="conduit ✓">
<ellipse fill="#31688e" stroke="black" cx="1569.36" cy="-826" rx="56.47" ry="18"/>
<text text-anchor="middle" x="1569.36" y="-821.33" font-family="Times,serif" font-size="14.00" fill="white">conduit ✓</text>
</a>
</g>
</g>
<!-- netcdf&#45;cxx&#45;legacy&#45;&gt;conduit -->
<!-- parsplice -->
<g id="node41" class="node">
<title>parsplice</title>
<g id="a_node41"><a xlink:href="https://github.com/conda-forge/parsplice-feedstock/pull/13" xlink:title="parsplice ❎">
<ellipse fill="#31688e" stroke="black" cx="1569.36" cy="-754" rx="72.25" ry="18"/>
<text text-anchor="middle" x="1569.36" y="-749.33" font-family="Times,serif" font-size="14.00" fill="white">parsplice ❎</text>
</a>
</g>
</g>
<!-- conduit&#45;&gt;parsplice -->
<!-- parsmurf -->
<g id="node42" class="node">
<title>parsmurf</title>
<g id="a_node42"><a xlink:href="https://github.com/conda-forge/parsmurf-feedstock/pull/4" xlink:title="parsmurf ❎">
<ellipse fill="#31688e" stroke="black" cx="1569.36" cy="-682" rx="72.78" ry="18"/>
<text text-anchor="middle" x="1569.36" y="-677.33" font-family="Times,serif" font-size="14.00" fill="white">parsmurf ❎</text>
</a>
</g>
</g>
<!-- parsplice&#45;&gt;parsmurf -->
<!-- qe -->
<g id="node43" class="node">
<title>qe</title>
<g id="a_node43"><a xlink:href="https://github.com/conda-forge/qe-feedstock" xlink:title="qe">
<ellipse fill="#fde725" stroke="black" cx="1298.36" cy="-422" rx="27" ry="18"/>
<text text-anchor="middle" x="1298.36" y="-417.32" font-family="Times,serif" font-size="14.00">qe</text>
</a>
</g>
</g>
<!-- dftbplus -->
<g id="node44" class="node">
<title>dftbplus</title>
<g id="a_node44"><a xlink:href="https://github.com/conda-forge/dftbplus-feedstock" xlink:title="dftbplus">
<ellipse fill="#fde725" stroke="black" cx="1034.36" cy="-350" rx="52.79" ry="18"/>
<text text-anchor="middle" x="1034.36" y="-345.32" font-family="Times,serif" font-size="14.00">dftbplus</text>
</a>
</g>
</g>
<!-- libmbd -->
<g id="node45" class="node">
<title>libmbd</title>
<g id="a_node45"><a xlink:href="https://github.com/conda-forge/libmbd-feedstock" xlink:title="libmbd">
<ellipse fill="#fde725" stroke="black" cx="997.36" cy="-422" rx="45.95" ry="18"/>
<text text-anchor="middle" x="997.36" y="-417.32" font-family="Times,serif" font-size="14.00">libmbd</text>
</a>
</g>
</g>
<!-- libmbd&#45;&gt;dftbplus -->
<g id="edge49" class="edge">
<title>libmbd&#45;&gt;dftbplus</title>
<path fill="none" stroke="black" d="M1006.32,-404.05C1010.5,-396.14 1015.58,-386.54 1020.25,-377.69"/>
<polygon fill="black" stroke="black" points="1023.2,-379.6 1024.78,-369.13 1017.01,-376.33 1023.2,-379.6"/>
</g>
<!-- scalapackfx -->
<g id="node46" class="node">
<title>scalapackfx</title>
<g id="a_node46"><a xlink:href="https://github.com/conda-forge/scalapackfx-feedstock/pull/9" xlink:title="scalapackfx ✓">
<ellipse fill="#31688e" stroke="black" cx="1176.36" cy="-422" rx="76.99" ry="18"/>
<text text-anchor="middle" x="1176.36" y="-417.32" font-family="Times,serif" font-size="14.00" fill="white">scalapackfx ✓</text>
</a>
</g>
</g>
<!-- scalapackfx&#45;&gt;dftbplus -->
<g id="edge50" class="edge">
<title>scalapackfx&#45;&gt;dftbplus</title>
<path fill="none" stroke="black" d="M1144.49,-405.29C1123.46,-394.92 1095.76,-381.27 1073.4,-370.24"/>
<polygon fill="black" stroke="black" points="1075.1,-367.18 1064.58,-365.9 1072.01,-373.46 1075.1,-367.18"/>
</g>
<!-- mrchem -->
<g id="node47" class="node">
<title>mrchem</title>
<g id="a_node47"><a xlink:href="https://github.com/conda-forge/mrchem-feedstock/pull/28" xlink:title="mrchem ❎">
<ellipse fill="#31688e" stroke="black" cx="1135.36" cy="-1402" rx="67.52" ry="18"/>
<text text-anchor="middle" x="1135.36" y="-1397.33" font-family="Times,serif" font-size="14.00" fill="white">mrchem ❎</text>
</a>
</g>
</g>
<!-- tempest&#45;extremes -->
<g id="node48" class="node">
<title>tempest&#45;extremes</title>
<g id="a_node48"><a xlink:href="https://github.com/conda-forge/tempest-extremes-feedstock/pull/9" xlink:title="tempest extremes ❎">
<ellipse fill="#31688e" stroke="black" cx="1135.36" cy="-1330" rx="117.5" ry="18"/>
<text text-anchor="middle" x="1135.36" y="-1325.33" font-family="Times,serif" font-size="14.00" fill="white">tempest extremes ❎</text>
</a>
</g>
</g>
<!-- mrchem&#45;&gt;tempest&#45;extremes -->
<!-- analisi -->
<g id="node50" class="node">
<title>analisi</title>
<g id="a_node50"><a xlink:href="https://github.com/conda-forge/analisi-feedstock/pull/33" xlink:title="analisi ✓">
<ellipse fill="#31688e" stroke="black" cx="1135.36" cy="-1258" rx="51.74" ry="18"/>
<text text-anchor="middle" x="1135.36" y="-1253.33" font-family="Times,serif" font-size="14.00" fill="white">analisi ✓</text>
</a>
</g>
</g>
<!-- tempest&#45;extremes&#45;&gt;analisi -->
<!-- libnegf -->
<g id="node49" class="node">
<title>libnegf</title>
<g id="a_node49"><a xlink:href="https://github.com/conda-forge/libnegf-feedstock/pull/17" xlink:title="libnegf ❎">
<ellipse fill="#31688e" stroke="black" cx="1071.36" cy="-494" rx="61.2" ry="18"/>
<text text-anchor="middle" x="1071.36" y="-489.32" font-family="Times,serif" font-size="14.00" fill="white">libnegf ❎</text>
</a>
</g>
</g>
<!-- libnegf&#45;&gt;dftbplus -->
<g id="edge52" class="edge">
<title>libnegf&#45;&gt;dftbplus</title>
<path fill="none" stroke="black" d="M1068.31,-475.79C1064.96,-457.76 1059.16,-428.68 1052.36,-404 1050.08,-395.72 1047.23,-386.84 1044.47,-378.77"/>
<polygon fill="black" stroke="black" points="1047.82,-377.74 1041.21,-369.46 1041.21,-380.05 1047.82,-377.74"/>
</g>
<!-- nwchem -->
<g id="node51" class="node">
<title>nwchem</title>
<g id="a_node51"><a xlink:href="https://github.com/conda-forge/nwchem-feedstock/pull/49" xlink:title="nwchem ❎">
<ellipse fill="#31688e" stroke="black" cx="1135.36" cy="-1186" rx="68.04" ry="18"/>
<text text-anchor="middle" x="1135.36" y="-1181.33" font-family="Times,serif" font-size="14.00" fill="white">nwchem ❎</text>
</a>
</g>
</g>
<!-- analisi&#45;&gt;nwchem -->
<!-- bmad -->
<g id="node52" class="node">
<title>bmad</title>
<g id="a_node52"><a xlink:href="https://github.com/conda-forge/bmad-feedstock/pull/412" xlink:title="bmad ✓">
<ellipse fill="#31688e" stroke="black" cx="1135.36" cy="-1114" rx="47" ry="18"/>
<text text-anchor="middle" x="1135.36" y="-1109.33" font-family="Times,serif" font-size="14.00" fill="white">bmad ✓</text>
</a>
</g>
</g>
<!-- nwchem&#45;&gt;bmad -->
<!-- mfem -->
<g id="node53" class="node">
<title>mfem</title>
<g id="a_node53"><a xlink:href="https://github.com/conda-forge/mfem-feedstock/pull/13" xlink:title="mfem ❎">
<ellipse fill="#31688e" stroke="black" cx="1135.36" cy="-1042" rx="54.89" ry="18"/>
<text text-anchor="middle" x="1135.36" y="-1037.33" font-family="Times,serif" font-size="14.00" fill="white">mfem ❎</text>
</a>
</g>
</g>
<!-- bmad&#45;&gt;mfem -->
<!-- timemory -->
<g id="node54" class="node">
<title>timemory</title>
<g id="a_node54"><a xlink:href="https://github.com/conda-forge/timemory-feedstock" xlink:title="timemory">
<ellipse fill="#000000" stroke="black" cx="1135.36" cy="-970" rx="59.63" ry="18"/>
<text text-anchor="middle" x="1135.36" y="-965.33" font-family="Times,serif" font-size="14.00" fill="white">timemory</text>
</a>
</g>
</g>
<!-- mfem&#45;&gt;timemory -->
<!-- pexsi -->
<g id="node55" class="node">
<title>pexsi</title>
<g id="a_node55"><a xlink:href="https://github.com/conda-forge/pexsi-feedstock/pull/10" xlink:title="pexsi ❎">
<ellipse fill="#31688e" stroke="black" cx="1135.36" cy="-898" rx="52.79" ry="18"/>
<text text-anchor="middle" x="1135.36" y="-893.33" font-family="Times,serif" font-size="14.00" fill="white">pexsi ❎</text>
</a>
</g>
</g>
<!-- timemory&#45;&gt;pexsi -->
<!-- eigenexa -->
<g id="node61" class="node">
<title>eigenexa</title>
<g id="a_node61"><a xlink:href="https://github.com/conda-forge/eigenexa-feedstock/pull/3" xlink:title="eigenexa ❎">
<ellipse fill="#31688e" stroke="black" cx="1135.36" cy="-826" rx="71.2" ry="18"/>
<text text-anchor="middle" x="1135.36" y="-821.33" font-family="Times,serif" font-size="14.00" fill="white">eigenexa ❎</text>
</a>
</g>
</g>
<!-- pexsi&#45;&gt;eigenexa -->
<!-- elpa -->
<g id="node56" class="node">
<title>elpa</title>
<g id="a_node56"><a xlink:href="https://github.com/conda-forge/elpa-feedstock/pull/26" xlink:title="elpa ❎">
<ellipse fill="#31688e" stroke="black" cx="1263.36" cy="-566" rx="47.53" ry="18"/>
<text text-anchor="middle" x="1263.36" y="-561.33" font-family="Times,serif" font-size="14.00" fill="white">elpa ❎</text>
</a>
</g>
</g>
<!-- elpa&#45;&gt;siesta -->
<g id="edge59" class="edge">
<title>elpa&#45;&gt;siesta</title>
<path fill="none" stroke="black" d="M1255.13,-548.05C1251.33,-540.23 1246.72,-530.75 1242.46,-521.98"/>
<polygon fill="black" stroke="black" points="1245.69,-520.62 1238.18,-513.15 1239.4,-523.67 1245.69,-520.62"/>
</g>
<!-- elpa&#45;&gt;qe -->
<g id="edge60" class="edge">
<title>elpa&#45;&gt;qe</title>
<path fill="none" stroke="black" d="M1268.91,-547.92C1272.17,-537.58 1276.25,-524.1 1279.36,-512 1284.54,-491.86 1289.42,-468.9 1292.93,-451.35"/>
<polygon fill="black" stroke="black" points="1296.35,-452.13 1294.84,-441.65 1289.48,-450.78 1296.35,-452.13"/>
</g>
<!-- elsi -->
<g id="node57" class="node">
<title>elsi</title>
<g id="a_node57"><a xlink:href="https://github.com/conda-forge/elsi-feedstock" xlink:title="elsi">
<ellipse fill="#fde725" stroke="black" cx="963.36" cy="-494" rx="28.59" ry="18"/>
<text text-anchor="middle" x="963.36" y="-489.32" font-family="Times,serif" font-size="14.00">elsi</text>
</a>
</g>
</g>
<!-- elpa&#45;&gt;elsi -->
<g id="edge61" class="edge">
<title>elpa&#45;&gt;elsi</title>
<path fill="none" stroke="black" d="M1219.03,-559.09C1166.31,-551.37 1076.05,-535.94 1001.36,-512 999.56,-511.42 997.74,-510.79 995.9,-510.11"/>
<polygon fill="black" stroke="black" points="997.53,-506.99 986.95,-506.48 994.9,-513.48 997.53,-506.99"/>
</g>
<!-- abacus -->
<g id="node58" class="node">
<title>abacus</title>
<g id="a_node58"><a xlink:href="https://github.com/conda-forge/abacus-feedstock" xlink:title="abacus">
<ellipse fill="#fde725" stroke="black" cx="1353.36" cy="-350" rx="45.95" ry="18"/>
<text text-anchor="middle" x="1353.36" y="-345.32" font-family="Times,serif" font-size="14.00">abacus</text>
</a>
</g>
</g>
<!-- elpa&#45;&gt;abacus -->
<g id="edge62" class="edge">
<title>elpa&#45;&gt;abacus</title>
<path fill="none" stroke="black" d="M1274.81,-548.07C1281.61,-537.79 1290.27,-524.32 1297.36,-512 1315.32,-480.82 1322.28,-473.89 1334.36,-440 1341.35,-420.41 1346.17,-397.44 1349.21,-379.74"/>
<polygon fill="black" stroke="black" points="1352.66,-380.36 1350.79,-369.93 1345.74,-379.24 1352.66,-380.36"/>
</g>
<!-- elsi&#45;&gt;dftbplus -->
<g id="edge63" class="edge">
<title>elsi&#45;&gt;dftbplus</title>
<path fill="none" stroke="black" d="M952.89,-476.87C942.23,-458.2 929.01,-427.09 942.36,-404 951.91,-387.48 968.78,-375.65 985.49,-367.43"/>
<polygon fill="black" stroke="black" points="986.75,-370.7 994.42,-363.38 983.87,-364.32 986.75,-370.7"/>
</g>
<!-- elsi&#45;&gt;libmbd -->
<g id="edge64" class="edge">
<title>elsi&#45;&gt;libmbd</title>
<path fill="none" stroke="black" d="M971.42,-476.41C975.22,-468.59 979.85,-459.06 984.14,-450.23"/>
<polygon fill="black" stroke="black" points="987.24,-451.84 988.46,-441.32 980.95,-448.78 987.24,-451.84"/>
</g>
<!-- libomm -->
<g id="node59" class="node">
<title>libomm</title>
<g id="a_node59"><a xlink:href="https://github.com/conda-forge/libomm-feedstock" xlink:title="libomm">
<ellipse fill="#fde725" stroke="black" cx="1002.36" cy="-566" rx="48.58" ry="18"/>
<text text-anchor="middle" x="1002.36" y="-561.33" font-family="Times,serif" font-size="14.00">libomm</text>
</a>
</g>
</g>
<!-- libomm&#45;&gt;elsi -->
<g id="edge65" class="edge">
<title>libomm&#45;&gt;elsi</title>
<path fill="none" stroke="black" d="M992.92,-548.05C988.45,-540.03 983,-530.26 978.01,-521.3"/>
<polygon fill="black" stroke="black" points="981.11,-519.66 973.18,-512.63 974.99,-523.07 981.11,-519.66"/>
</g>
<!-- matrixswitch -->
<g id="node60" class="node">
<title>matrixswitch</title>
<g id="a_node60"><a xlink:href="https://github.com/conda-forge/matrixswitch-feedstock/pull/7" xlink:title="matrixswitch ❎">
<ellipse fill="#31688e" stroke="black" cx="963.36" cy="-638" rx="92.25" ry="18"/>
<text text-anchor="middle" x="963.36" y="-633.33" font-family="Times,serif" font-size="14.00" fill="white">matrixswitch ❎</text>
</a>
</g>
</g>
<!-- matrixswitch&#45;&gt;elsi -->
<g id="edge66" class="edge">
<title>matrixswitch&#45;&gt;elsi</title>
<path fill="none" stroke="black" d="M955.47,-619.75C951.25,-609.58 946.5,-596.33 944.36,-584 941.62,-568.24 941.62,-563.76 944.36,-548 945.84,-539.49 948.56,-530.54 951.49,-522.47"/>
<polygon fill="black" stroke="black" points="954.74,-523.78 955.11,-513.19 948.22,-521.23 954.74,-523.78"/>
</g>
<!-- matrixswitch&#45;&gt;libomm -->
<g id="edge67" class="edge">
<title>matrixswitch&#45;&gt;libomm</title>
<path fill="none" stroke="black" d="M973,-619.7C977.3,-611.98 982.46,-602.71 987.26,-594.11"/>
<polygon fill="black" stroke="black" points="990.29,-595.87 992.09,-585.43 984.17,-592.46 990.29,-595.87"/>
</g>
<!-- fleur -->
<g id="node62" class="node">
<title>fleur</title>
<g id="a_node62"><a xlink:href="https://github.com/conda-forge/fleur-feedstock/pull/19" xlink:title="fleur ✓">
<ellipse fill="#31688e" stroke="black" cx="1135.36" cy="-754" rx="42.26" ry="18"/>
<text text-anchor="middle" x="1135.36" y="-749.33" font-family="Times,serif" font-size="14.00" fill="white">fleur ✓</text>
</a>
</g>
</g>
<!-- eigenexa&#45;&gt;fleur -->
<!-- edrixs -->
<g id="node63" class="node">
<title>edrixs</title>
<g id="a_node63"><a xlink:href="https://github.com/conda-forge/edrixs-feedstock/pull/14" xlink:title="edrixs ❎">
<ellipse fill="#31688e" stroke="black" cx="1135.36" cy="-682" rx="57.52" ry="18"/>
<text text-anchor="middle" x="1135.36" y="-677.33" font-family="Times,serif" font-size="14.00" fill="white">edrixs ❎</text>
</a>
</g>
</g>
<!-- fleur&#45;&gt;edrixs -->
<!-- openphase -->
<g id="node64" class="node">
<title>openphase</title>
<g id="a_node64"><a xlink:href="https://github.com/conda-forge/openphase-feedstock/pull/2" xlink:title="openphase ❎">
<ellipse fill="#31688e" stroke="black" cx="431.36" cy="-306" rx="80.14" ry="18"/>
<text text-anchor="middle" x="431.36" y="-301.32" font-family="Times,serif" font-size="14.00" fill="white">openphase ❎</text>
</a>
</g>
</g>
<!-- sparc&#45;x -->
<g id="node65" class="node">
<title>sparc&#45;x</title>
<g id="a_node65"><a xlink:href="https://github.com/conda-forge/sparc-x-feedstock/pull/9" xlink:title="sparc x ❎">
<ellipse fill="#31688e" stroke="black" cx="431.36" cy="-234" rx="62.78" ry="18"/>
<text text-anchor="middle" x="431.36" y="-229.32" font-family="Times,serif" font-size="14.00" fill="white">sparc x ❎</text>
</a>
</g>
</g>
<!-- openphase&#45;&gt;sparc&#45;x -->
<!-- reef3d -->
<g id="node66" class="node">
<title>reef3d</title>
<g id="a_node66"><a xlink:href="https://github.com/conda-forge/reef3d-feedstock/pull/11" xlink:title="reef3d ✓">
<ellipse fill="#31688e" stroke="black" cx="431.36" cy="-162" rx="51.74" ry="18"/>
<text text-anchor="middle" x="431.36" y="-157.32" font-family="Times,serif" font-size="14.00" fill="white">reef3d ✓</text>
</a>
</g>
</g>
<!-- sparc&#45;x&#45;&gt;reef3d -->
<!-- genesis4 -->
<g id="node67" class="node">
<title>genesis4</title>
<g id="a_node67"><a xlink:href="https://github.com/conda-forge/genesis4-feedstock/pull/12" xlink:title="genesis4 ❎">
<ellipse fill="#31688e" stroke="black" cx="431.36" cy="-90" rx="70.68" ry="18"/>
<text text-anchor="middle" x="431.36" y="-85.33" font-family="Times,serif" font-size="14.00" fill="white">genesis4 ❎</text>
</a>
</g>
</g>
<!-- reef3d&#45;&gt;genesis4 -->
<!-- opentelemac -->
<g id="node68" class="node">
<title>opentelemac</title>
<g id="a_node68"><a xlink:href="https://github.com/conda-forge/opentelemac-feedstock/pull/2" xlink:title="opentelemac ❎">
<ellipse fill="#31688e" stroke="black" cx="431.36" cy="-18" rx="90.14" ry="18"/>
<text text-anchor="middle" x="431.36" y="-13.32" font-family="Times,serif" font-size="14.00" fill="white">opentelemac ❎</text>
</a>
</g>
</g>
<!-- genesis4&#45;&gt;opentelemac -->
</g>
</svg>
