<?xml version="1.0" encoding="UTF-8" standalone="no"?>
<!DOCTYPE svg PUBLIC "-//W3C//DTD SVG 1.1//EN"
 "http://www.w3.org/Graphics/SVG/1.1/DTD/svg11.dtd">
<!-- Generated by graphviz version 11.0.0 (20240519.1550)
 -->
<!-- Pages: 1 -->
<svg width="1773pt" height="1500pt"
 viewBox="0.00 0.00 1773.14 1500.00" xmlns="http://www.w3.org/2000/svg" xmlns:xlink="http://www.w3.org/1999/xlink">
<g id="graph0" class="graph" transform="scale(1 1) rotate(0) translate(4 1496)">
<polygon fill="white" stroke="none" points="-4,4 -4,-1496 1769.14,-1496 1769.14,4 -4,4"/>
<!-- casacore -->
<g id="node1" class="node">
<title>casacore</title>
<g id="a_node1"><a xlink:href="https://github.com/conda-forge/casacore-feedstock" xlink:title="casacore">
<ellipse fill="#35b779" stroke="black" cx="1603.36" cy="-1474" rx="54.89" ry="18"/>
<text text-anchor="middle" x="1603.36" y="-1469.33" font-family="Times,serif" font-size="14.00">casacore</text>
</a>
</g>
</g>
<!-- esmf -->
<g id="node2" class="node">
<title>esmf</title>
<g id="a_node2"><a xlink:href="https://github.com/conda-forge/esmf-feedstock/pull/116" xlink:title="esmf ❎">
<ellipse fill="#31688e" stroke="black" cx="1603.36" cy="-1402" rx="50.68" ry="18"/>
<text text-anchor="middle" x="1603.36" y="-1397.33" font-family="Times,serif" font-size="14.00" fill="white">esmf ❎</text>
</a>
</g>
</g>
<!-- casacore&#45;&gt;esmf -->
<!-- netcdf&#45;cxx4 -->
<g id="node3" class="node">
<title>netcdf&#45;cxx4</title>
<g id="a_node3"><a xlink:href="https://github.com/conda-forge/netcdf-cxx4-feedstock/pull/48" xlink:title="netcdf cxx4 ❎">
<ellipse fill="#31688e" stroke="black" cx="1603.36" cy="-1330" rx="84.35" ry="18"/>
<text text-anchor="middle" x="1603.36" y="-1325.33" font-family="Times,serif" font-size="14.00" fill="white">netcdf cxx4 ❎</text>
</a>
</g>
</g>
<!-- esmf&#45;&gt;netcdf&#45;cxx4 -->
<!-- libmed -->
<g id="node20" class="node">
<title>libmed</title>
<g id="a_node20"><a xlink:href="https://github.com/conda-forge/libmed-feedstock/pull/61" xlink:title="libmed ✓">
<ellipse fill="#31688e" stroke="black" cx="1603.36" cy="-1258" rx="53.31" ry="18"/>
<text text-anchor="middle" x="1603.36" y="-1253.33" font-family="Times,serif" font-size="14.00" fill="white">libmed ✓</text>
</a>
</g>
</g>
<!-- netcdf&#45;cxx4&#45;&gt;libmed -->
<!-- fenics -->
<g id="node4" class="node">
<title>fenics</title>
<g id="a_node4"><a xlink:href="https://github.com/conda-forge/fenics-feedstock" xlink:title="fenics">
<ellipse fill="#fde725" stroke="black" cx="421.36" cy="-494" rx="40.69" ry="18"/>
<text text-anchor="middle" x="421.36" y="-489.32" font-family="Times,serif" font-size="14.00">fenics</text>
</a>
</g>
</g>
<!-- mshr -->
<g id="node5" class="node">
<title>mshr</title>
<g id="a_node5"><a xlink:href="https://github.com/conda-forge/mshr-feedstock" xlink:title="mshr">
<ellipse fill="#fde725" stroke="black" cx="421.36" cy="-422" rx="37" ry="18"/>
<text text-anchor="middle" x="421.36" y="-417.32" font-family="Times,serif" font-size="14.00">mshr</text>
</a>
</g>
</g>
<!-- fenics&#45;&gt;mshr -->
<g id="edge3" class="edge">
<title>fenics&#45;&gt;mshr</title>
<path fill="none" stroke="black" d="M421.36,-475.7C421.36,-468.41 421.36,-459.73 421.36,-451.54"/>
<polygon fill="black" stroke="black" points="424.86,-451.62 421.36,-441.62 417.86,-451.62 424.86,-451.62"/>
</g>
<!-- h5py -->
<g id="node6" class="node">
<title>h5py</title>
<g id="a_node6"><a xlink:href="https://github.com/conda-forge/h5py-feedstock/pull/141" xlink:title="h5py ❎">
<ellipse fill="#31688e" stroke="black" cx="517.36" cy="-1258" rx="51.21" ry="18"/>
<text text-anchor="middle" x="517.36" y="-1253.33" font-family="Times,serif" font-size="14.00" fill="white">h5py ❎</text>
</a>
</g>
</g>
<!-- openmc -->
<g id="node7" class="node">
<title>openmc</title>
<g id="a_node7"><a xlink:href="https://github.com/conda-forge/openmc-feedstock" xlink:title="openmc">
<ellipse fill="#fde725" stroke="black" cx="838.36" cy="-1186" rx="50.16" ry="18"/>
<text text-anchor="middle" x="838.36" y="-1181.33" font-family="Times,serif" font-size="14.00">openmc</text>
</a>
</g>
</g>
<!-- h5py&#45;&gt;openmc -->
<g id="edge4" class="edge">
<title>h5py&#45;&gt;openmc</title>
<path fill="none" stroke="black" d="M561.35,-1248.32C611.91,-1238.22 697.32,-1220.77 770.36,-1204 775.93,-1202.72 781.74,-1201.34 787.51,-1199.94"/>
<polygon fill="black" stroke="black" points="788.17,-1203.38 797.04,-1197.6 786.49,-1196.58 788.17,-1203.38"/>
</g>
<!-- lalinference -->
<g id="node8" class="node">
<title>lalinference</title>
<g id="a_node8"><a xlink:href="https://github.com/conda-forge/lalinference-feedstock" xlink:title="lalinference">
<ellipse fill="#fde725" stroke="black" cx="339.36" cy="-1186" rx="70.15" ry="18"/>
<text text-anchor="middle" x="339.36" y="-1181.33" font-family="Times,serif" font-size="14.00">lalinference</text>
</a>
</g>
</g>
<!-- h5py&#45;&gt;lalinference -->
<g id="edge5" class="edge">
<title>h5py&#45;&gt;lalinference</title>
<path fill="none" stroke="black" d="M484.3,-1244C456.96,-1233.25 417.77,-1217.84 387.04,-1205.75"/>
<polygon fill="black" stroke="black" points="388.55,-1202.58 377.96,-1202.18 385.99,-1209.1 388.55,-1202.58"/>
</g>
<!-- lfpy -->
<g id="node9" class="node">
<title>lfpy</title>
<g id="a_node9"><a xlink:href="https://github.com/conda-forge/lfpy-feedstock" xlink:title="lfpy">
<ellipse fill="#fde725" stroke="black" cx="731.36" cy="-1186" rx="30.16" ry="18"/>
<text text-anchor="middle" x="731.36" y="-1181.33" font-family="Times,serif" font-size="14.00">lfpy</text>
</a>
</g>
</g>
<!-- h5py&#45;&gt;lfpy -->
<g id="edge6" class="edge">
<title>h5py&#45;&gt;lfpy</title>
<path fill="none" stroke="black" d="M555.75,-1245.83C590.36,-1235.56 642.55,-1219.62 687.36,-1204 690.23,-1203 693.2,-1201.93 696.17,-1200.83"/>
<polygon fill="black" stroke="black" points="697.26,-1204.16 705.38,-1197.36 694.79,-1197.61 697.26,-1204.16"/>
</g>
<!-- deepmd&#45;kit -->
<g id="node10" class="node">
<title>deepmd&#45;kit</title>
<g id="a_node10"><a xlink:href="https://github.com/conda-forge/deepmd-kit-feedstock" xlink:title="deepmd kit">
<ellipse fill="#fde725" stroke="black" cx="237.36" cy="-1114" rx="67.52" ry="18"/>
<text text-anchor="middle" x="237.36" y="-1109.33" font-family="Times,serif" font-size="14.00">deepmd kit</text>
</a>
</g>
</g>
<!-- h5py&#45;&gt;deepmd&#45;kit -->
<g id="edge7" class="edge">
<title>h5py&#45;&gt;deepmd&#45;kit</title>
<path fill="none" stroke="black" d="M467.67,-1252.94C401.56,-1246.53 289.61,-1231.83 260.36,-1204 244.18,-1188.6 238.82,-1163.44 237.28,-1143.79"/>
<polygon fill="black" stroke="black" points="240.78,-1143.75 236.82,-1133.92 233.79,-1144.07 240.78,-1143.75"/>
</g>
<!-- dedalus -->
<g id="node11" class="node">
<title>dedalus</title>
<g id="a_node11"><a xlink:href="https://github.com/conda-forge/dedalus-feedstock" xlink:title="dedalus">
<ellipse fill="#fde725" stroke="black" cx="713.36" cy="-1042" rx="50.16" ry="18"/>
<text text-anchor="middle" x="713.36" y="-1037.33" font-family="Times,serif" font-size="14.00">dedalus</text>
</a>
</g>
</g>
<!-- h5py&#45;&gt;dedalus -->
<g id="edge8" class="edge">
<title>h5py&#45;&gt;dedalus</title>
<path fill="none" stroke="black" d="M561.55,-1248.66C589.88,-1241.26 625.65,-1227.79 649.36,-1204 686.18,-1167.06 702.48,-1106.29 709.17,-1070.93"/>
<polygon fill="black" stroke="black" points="712.55,-1071.93 710.82,-1061.47 705.65,-1070.72 712.55,-1071.93"/>
</g>
<!-- ondamonitor -->
<g id="node12" class="node">
<title>ondamonitor</title>
<g id="a_node12"><a xlink:href="https://github.com/conda-forge/ondamonitor-feedstock" xlink:title="ondamonitor">
<ellipse fill="#fde725" stroke="black" cx="700.36" cy="-970" rx="74.88" ry="18"/>
<text text-anchor="middle" x="700.36" y="-965.33" font-family="Times,serif" font-size="14.00">ondamonitor</text>
</a>
</g>
</g>
<!-- h5py&#45;&gt;ondamonitor -->
<g id="edge9" class="edge">
<title>h5py&#45;&gt;ondamonitor</title>
<path fill="none" stroke="black" d="M553.53,-1244.86C573.43,-1236.4 596.93,-1223.15 611.36,-1204 660.87,-1138.32 616.77,-1097.16 654.36,-1024 659.57,-1013.87 667.11,-1004.06 674.58,-995.7"/>
<polygon fill="black" stroke="black" points="676.91,-998.34 681.21,-988.66 671.81,-993.54 676.91,-998.34"/>
</g>
<!-- alamode -->
<g id="node13" class="node">
<title>alamode</title>
<g id="a_node13"><a xlink:href="https://github.com/conda-forge/alamode-feedstock" xlink:title="alamode">
<ellipse fill="#fde725" stroke="black" cx="597.36" cy="-898" rx="53.31" ry="18"/>
<text text-anchor="middle" x="597.36" y="-893.33" font-family="Times,serif" font-size="14.00">alamode</text>
</a>
</g>
</g>
<!-- h5py&#45;&gt;alamode -->
<g id="edge10" class="edge">
<title>h5py&#45;&gt;alamode</title>
<path fill="none" stroke="black" d="M541.32,-1241.88C554.23,-1232.51 569.31,-1219.35 578.36,-1204 598.91,-1169.16 597.36,-1155.45 597.36,-1115 597.36,-1115 597.36,-1115 597.36,-1041 597.36,-1001.74 597.36,-956.38 597.36,-927.69"/>
<polygon fill="black" stroke="black" points="600.86,-928 597.36,-918 593.86,-928 600.86,-928"/>
</g>
<!-- veloxchem -->
<g id="node14" class="node">
<title>veloxchem</title>
<g id="a_node14"><a xlink:href="https://github.com/conda-forge/veloxchem-feedstock" xlink:title="veloxchem">
<ellipse fill="#fde725" stroke="black" cx="64.36" cy="-1186" rx="64.36" ry="18"/>
<text text-anchor="middle" x="64.36" y="-1181.33" font-family="Times,serif" font-size="14.00">veloxchem</text>
</a>
</g>
</g>
<!-- h5py&#45;&gt;veloxchem -->
<g id="edge11" class="edge">
<title>h5py&#45;&gt;veloxchem</title>
<path fill="none" stroke="black" d="M468.98,-1251.6C396.73,-1243.23 256.46,-1225.78 138.36,-1204 133.2,-1203.05 127.86,-1201.98 122.52,-1200.86"/>
<polygon fill="black" stroke="black" points="123.6,-1197.51 113.08,-1198.82 122.12,-1204.35 123.6,-1197.51"/>
</g>
<!-- heat -->
<g id="node15" class="node">
<title>heat</title>
<g id="a_node15"><a xlink:href="https://github.com/conda-forge/heat-feedstock" xlink:title="heat">
<ellipse fill="#fde725" stroke="black" cx="180.36" cy="-1186" rx="33.32" ry="18"/>
<text text-anchor="middle" x="180.36" y="-1181.33" font-family="Times,serif" font-size="14.00">heat</text>
</a>
</g>
</g>
<!-- h5py&#45;&gt;heat -->
<g id="edge12" class="edge">
<title>h5py&#45;&gt;heat</title>
<path fill="none" stroke="black" d="M469.86,-1250.8C411.97,-1242.67 311.48,-1226.73 227.36,-1204 224.03,-1203.1 220.61,-1202.07 217.19,-1200.97"/>
<polygon fill="black" stroke="black" points="218.49,-1197.72 207.9,-1197.8 216.23,-1204.34 218.49,-1197.72"/>
</g>
<!-- horovod -->
<g id="node16" class="node">
<title>horovod</title>
<g id="a_node16"><a xlink:href="https://github.com/conda-forge/horovod-feedstock" xlink:title="horovod">
<ellipse fill="#fde725" stroke="black" cx="517.36" cy="-1186" rx="51.74" ry="18"/>
<text text-anchor="middle" x="517.36" y="-1181.33" font-family="Times,serif" font-size="14.00">horovod</text>
</a>
</g>
</g>
<!-- h5py&#45;&gt;horovod -->
<g id="edge13" class="edge">
<title>h5py&#45;&gt;horovod</title>
<path fill="none" stroke="black" d="M517.36,-1239.7C517.36,-1232.41 517.36,-1223.73 517.36,-1215.54"/>
<polygon fill="black" stroke="black" points="520.86,-1215.62 517.36,-1205.62 513.86,-1215.62 520.86,-1215.62"/>
</g>
<!-- fluidfft&#45;mpi_with_fftw -->
<g id="node17" class="node">
<title>fluidfft&#45;mpi_with_fftw</title>
<g id="a_node17"><a xlink:href="https://github.com/conda-forge/fluidfft-mpi_with_fftw-feedstock" xlink:title="fluidfft mpi_with_fftw">
<ellipse fill="#fde725" stroke="black" cx="440.36" cy="-1114" rx="117.5" ry="18"/>
<text text-anchor="middle" x="440.36" y="-1109.33" font-family="Times,serif" font-size="14.00">fluidfft mpi_with_fftw</text>
</a>
</g>
</g>
<!-- h5py&#45;&gt;fluidfft&#45;mpi_with_fftw -->
<g id="edge14" class="edge">
<title>h5py&#45;&gt;fluidfft&#45;mpi_with_fftw</title>
<path fill="none" stroke="black" d="M492.9,-1241.77C480.01,-1232.45 465.09,-1219.37 456.36,-1204 445.91,-1185.61 442.03,-1161.93 440.7,-1143.62"/>
<polygon fill="black" stroke="black" points="444.2,-1143.53 440.21,-1133.72 437.21,-1143.88 444.2,-1143.53"/>
</g>
<!-- moab -->
<g id="node18" class="node">
<title>moab</title>
<g id="a_node18"><a xlink:href="https://github.com/conda-forge/moab-feedstock/pull/94" xlink:title="moab ❎">
<ellipse fill="#31688e" stroke="black" cx="843.36" cy="-1330" rx="53.84" ry="18"/>
<text text-anchor="middle" x="843.36" y="-1325.33" font-family="Times,serif" font-size="14.00" fill="white">moab ❎</text>
</a>
</g>
</g>
<!-- dagmc -->
<g id="node19" class="node">
<title>dagmc</title>
<g id="a_node19"><a xlink:href="https://github.com/conda-forge/dagmc-feedstock" xlink:title="dagmc">
<ellipse fill="#fde725" stroke="black" cx="843.36" cy="-1258" rx="44.37" ry="18"/>
<text text-anchor="middle" x="843.36" y="-1253.33" font-family="Times,serif" font-size="14.00">dagmc</text>
</a>
</g>
</g>
<!-- moab&#45;&gt;dagmc -->
<g id="edge15" class="edge">
<title>moab&#45;&gt;dagmc</title>
<path fill="none" stroke="black" d="M843.36,-1311.7C843.36,-1304.41 843.36,-1295.73 843.36,-1287.54"/>
<polygon fill="black" stroke="black" points="846.86,-1287.62 843.36,-1277.62 839.86,-1287.62 846.86,-1287.62"/>
</g>
<!-- dagmc&#45;&gt;openmc -->
<g id="edge16" class="edge">
<title>dagmc&#45;&gt;openmc</title>
<path fill="none" stroke="black" d="M842.12,-1239.7C841.6,-1232.41 840.98,-1223.73 840.4,-1215.54"/>
<polygon fill="black" stroke="black" points="843.89,-1215.34 839.69,-1205.61 836.91,-1215.84 843.89,-1215.34"/>
</g>
<!-- openpmd&#45;api -->
<g id="node32" class="node">
<title>openpmd&#45;api</title>
<g id="a_node32"><a xlink:href="https://github.com/conda-forge/openpmd-api-feedstock/pull/112" xlink:title="openpmd api ❎">
<ellipse fill="#31688e" stroke="black" cx="1603.36" cy="-1186" rx="91.19" ry="18"/>
<text text-anchor="middle" x="1603.36" y="-1181.33" font-family="Times,serif" font-size="14.00" fill="white">openpmd api ❎</text>
</a>
</g>
</g>
<!-- libmed&#45;&gt;openpmd&#45;api -->
<!-- netcdf4 -->
<g id="node21" class="node">
<title>netcdf4</title>
<g id="a_node21"><a xlink:href="https://github.com/conda-forge/netcdf4-feedstock/pull/163" xlink:title="netcdf4 ❎">
<ellipse fill="#31688e" stroke="black" cx="122.36" cy="-1258" rx="64.36" ry="18"/>
<text text-anchor="middle" x="122.36" y="-1253.33" font-family="Times,serif" font-size="14.00" fill="white">netcdf4 ❎</text>
</a>
</g>
</g>
<!-- netcdf4&#45;&gt;veloxchem -->
<g id="edge18" class="edge">
<title>netcdf4&#45;&gt;veloxchem</title>
<path fill="none" stroke="black" d="M108.32,-1240.05C101.48,-1231.8 93.11,-1221.7 85.52,-1212.54"/>
<polygon fill="black" stroke="black" points="88.31,-1210.42 79.24,-1204.95 82.92,-1214.89 88.31,-1210.42"/>
</g>
<!-- netcdf4&#45;&gt;heat -->
<g id="edge19" class="edge">
<title>netcdf4&#45;&gt;heat</title>
<path fill="none" stroke="black" d="M136.4,-1240.05C143.51,-1231.47 152.28,-1220.89 160.11,-1211.44"/>
<polygon fill="black" stroke="black" points="162.59,-1213.93 166.28,-1203.99 157.2,-1209.46 162.59,-1213.93"/>
</g>
<!-- siesta -->
<g id="node22" class="node">
<title>siesta</title>
<g id="a_node22"><a xlink:href="https://github.com/conda-forge/siesta-feedstock" xlink:title="siesta">
<ellipse fill="#fde725" stroke="black" cx="1263.36" cy="-566" rx="40.69" ry="18"/>
<text text-anchor="middle" x="1263.36" y="-561.33" font-family="Times,serif" font-size="14.00">siesta</text>
</a>
</g>
</g>
<!-- petsc -->
<g id="node23" class="node">
<title>petsc</title>
<g id="a_node23"><a xlink:href="https://github.com/conda-forge/petsc-feedstock/pull/203" xlink:title="petsc ❎">
<ellipse fill="#31688e" stroke="black" cx="424.36" cy="-710" rx="53.31" ry="18"/>
<text text-anchor="middle" x="424.36" y="-705.33" font-family="Times,serif" font-size="14.00" fill="white">petsc ❎</text>
</a>
</g>
</g>
<!-- petsc&#45;&gt;fenics -->
<g id="edge20" class="edge">
<title>petsc&#45;&gt;fenics</title>
<path fill="none" stroke="black" d="M471.36,-701.14C567.98,-683.05 774.15,-633.33 703.36,-548 674.68,-513.43 546.45,-501.26 473.17,-497.09"/>
<polygon fill="black" stroke="black" points="473.59,-493.61 463.41,-496.57 473.21,-500.6 473.59,-493.61"/>
</g>
<!-- petsc4py -->
<g id="node24" class="node">
<title>petsc4py</title>
<g id="a_node24"><a xlink:href="https://github.com/conda-forge/petsc4py-feedstock" xlink:title="petsc4py">
<ellipse fill="#fde725" stroke="black" cx="263.36" cy="-638" rx="56.47" ry="18"/>
<text text-anchor="middle" x="263.36" y="-633.33" font-family="Times,serif" font-size="14.00">petsc4py</text>
</a>
</g>
</g>
<!-- petsc&#45;&gt;petsc4py -->
<g id="edge21" class="edge">
<title>petsc&#45;&gt;petsc4py</title>
<path fill="none" stroke="black" d="M392.55,-695.17C367.88,-684.44 333.43,-669.46 306.3,-657.67"/>
<polygon fill="black" stroke="black" points="307.89,-654.54 297.32,-653.76 305.09,-660.96 307.89,-654.54"/>
</g>
<!-- slepc -->
<g id="node25" class="node">
<title>slepc</title>
<g id="a_node25"><a xlink:href="https://github.com/conda-forge/slepc-feedstock" xlink:title="slepc">
<ellipse fill="#fde725" stroke="black" cx="471.36" cy="-638" rx="37" ry="18"/>
<text text-anchor="middle" x="471.36" y="-633.33" font-family="Times,serif" font-size="14.00">slepc</text>
</a>
</g>
</g>
<!-- petsc&#45;&gt;slepc -->
<g id="edge22" class="edge">
<title>petsc&#45;&gt;slepc</title>
<path fill="none" stroke="black" d="M435.74,-692.05C441.24,-683.85 447.97,-673.83 454.1,-664.71"/>
<polygon fill="black" stroke="black" points="456.9,-666.82 459.57,-656.56 451.09,-662.91 456.9,-666.82"/>
</g>
<!-- daetk -->
<g id="node26" class="node">
<title>daetk</title>
<g id="a_node26"><a xlink:href="https://github.com/conda-forge/daetk-feedstock" xlink:title="daetk">
<ellipse fill="#fde725" stroke="black" cx="377.36" cy="-638" rx="39.11" ry="18"/>
<text text-anchor="middle" x="377.36" y="-633.33" font-family="Times,serif" font-size="14.00">daetk</text>
</a>
</g>
</g>
<!-- petsc&#45;&gt;daetk -->
<g id="edge23" class="edge">
<title>petsc&#45;&gt;daetk</title>
<path fill="none" stroke="black" d="M412.98,-692.05C407.48,-683.85 400.75,-673.83 394.63,-664.71"/>
<polygon fill="black" stroke="black" points="397.63,-662.91 389.15,-656.56 391.82,-666.82 397.63,-662.91"/>
</g>
<!-- yambo -->
<g id="node27" class="node">
<title>yambo</title>
<g id="a_node27"><a xlink:href="https://github.com/conda-forge/yambo-feedstock" xlink:title="yambo">
<ellipse fill="#fde725" stroke="black" cx="531.36" cy="-566" rx="44.37" ry="18"/>
<text text-anchor="middle" x="531.36" y="-561.33" font-family="Times,serif" font-size="14.00">yambo</text>
</a>
</g>
</g>
<!-- petsc&#45;&gt;yambo -->
<g id="edge24" class="edge">
<title>petsc&#45;&gt;yambo</title>
<path fill="none" stroke="black" d="M461.66,-696.78C481.32,-688.41 504.05,-675.27 517.36,-656 529.46,-638.47 532.65,-614.41 532.99,-595.72"/>
<polygon fill="black" stroke="black" points="536.49,-595.82 532.87,-585.86 529.49,-595.9 536.49,-595.82"/>
</g>
<!-- fenics&#45;dolfinx -->
<g id="node28" class="node">
<title>fenics&#45;dolfinx</title>
<g id="a_node28"><a xlink:href="https://github.com/conda-forge/fenics-dolfinx-feedstock" xlink:title="fenics dolfinx">
<ellipse fill="#fde725" stroke="black" cx="247.36" cy="-494" rx="77.52" ry="18"/>
<text text-anchor="middle" x="247.36" y="-489.32" font-family="Times,serif" font-size="14.00">fenics dolfinx</text>
</a>
</g>
</g>
<!-- petsc&#45;&gt;fenics&#45;dolfinx -->
<g id="edge25" class="edge">
<title>petsc&#45;&gt;fenics&#45;dolfinx</title>
<path fill="none" stroke="black" d="M373.24,-704.28C313.41,-697.58 219.76,-683 198.36,-656 166.59,-615.92 201.18,-555.38 226.23,-521.09"/>
<polygon fill="black" stroke="black" points="228.83,-523.46 232.07,-513.37 223.24,-519.24 228.83,-523.46"/>
</g>
<!-- freefem -->
<g id="node29" class="node">
<title>freefem</title>
<g id="a_node29"><a xlink:href="https://github.com/conda-forge/freefem-feedstock" xlink:title="freefem">
<ellipse fill="#fde725" stroke="black" cx="644.36" cy="-566" rx="50.16" ry="18"/>
<text text-anchor="middle" x="644.36" y="-561.33" font-family="Times,serif" font-size="14.00">freefem</text>
</a>
</g>
</g>
<!-- petsc&#45;&gt;freefem -->
<g id="edge26" class="edge">
<title>petsc&#45;&gt;freefem</title>
<path fill="none" stroke="black" d="M458.42,-695.72C481.48,-686.09 512.22,-671.98 537.36,-656 567.52,-636.83 598.54,-610.11 619.36,-590.96"/>
<polygon fill="black" stroke="black" points="621.59,-593.67 626.52,-584.29 616.82,-588.55 621.59,-593.67"/>
</g>
<!-- dolfinx_mpc -->
<g id="node30" class="node">
<title>dolfinx_mpc</title>
<g id="a_node30"><a xlink:href="https://github.com/conda-forge/dolfinx_mpc-feedstock" xlink:title="dolfinx_mpc">
<ellipse fill="#fde725" stroke="black" cx="194.36" cy="-422" rx="70.68" ry="18"/>
<text text-anchor="middle" x="194.36" y="-417.32" font-family="Times,serif" font-size="14.00">dolfinx_mpc</text>
</a>
</g>
</g>
<!-- petsc&#45;&gt;dolfinx_mpc -->
<g id="edge27" class="edge">
<title>petsc&#45;&gt;dolfinx_mpc</title>
<path fill="none" stroke="black" d="M373.15,-704.6C309.74,-698.04 206.94,-683.44 181.36,-656 126.43,-597.09 137.7,-553.29 160.36,-476 163.12,-466.6 168.11,-457.29 173.43,-449.16"/>
<polygon fill="black" stroke="black" points="176.19,-451.32 179.09,-441.13 170.47,-447.29 176.19,-451.32"/>
</g>
<!-- petsc4py&#45;&gt;fenics -->
<g id="edge28" class="edge">
<title>petsc4py&#45;&gt;fenics</title>
<path fill="none" stroke="black" d="M298.89,-623.77C319.64,-614.8 345.39,-601.4 364.36,-584 383.44,-566.5 398.8,-541.26 408.75,-522.12"/>
<polygon fill="black" stroke="black" points="411.82,-523.8 413.16,-513.29 405.56,-520.67 411.82,-523.8"/>
</g>
<!-- petsc4py&#45;&gt;fenics&#45;dolfinx -->
<g id="edge29" class="edge">
<title>petsc4py&#45;&gt;fenics&#45;dolfinx</title>
<path fill="none" stroke="black" d="M252.17,-620.14C246.2,-610.1 239.45,-596.85 236.36,-584 231.55,-563.98 234.65,-540.89 238.77,-523.25"/>
<polygon fill="black" stroke="black" points="242.11,-524.29 241.24,-513.73 235.34,-522.53 242.11,-524.29"/>
</g>
<!-- slepc4py -->
<g id="node31" class="node">
<title>slepc4py</title>
<g id="a_node31"><a xlink:href="https://github.com/conda-forge/slepc4py-feedstock" xlink:title="slepc4py">
<ellipse fill="#fde725" stroke="black" cx="300.36" cy="-566" rx="55.42" ry="18"/>
<text text-anchor="middle" x="300.36" y="-561.33" font-family="Times,serif" font-size="14.00">slepc4py</text>
</a>
</g>
</g>
<!-- petsc4py&#45;&gt;slepc4py -->
<g id="edge30" class="edge">
<title>petsc4py&#45;&gt;slepc4py</title>
<path fill="none" stroke="black" d="M272.32,-620.05C276.5,-612.14 281.58,-602.54 286.25,-593.69"/>
<polygon fill="black" stroke="black" points="289.2,-595.6 290.78,-585.13 283.01,-592.33 289.2,-595.6"/>
</g>
<!-- slepc&#45;&gt;fenics -->
<g id="edge31" class="edge">
<title>slepc&#45;&gt;fenics</title>
<path fill="none" stroke="black" d="M465.33,-619.87C456.85,-595.78 441.29,-551.6 431.14,-522.77"/>
<polygon fill="black" stroke="black" points="434.54,-521.89 427.92,-513.62 427.94,-524.21 434.54,-521.89"/>
</g>
<!-- slepc&#45;&gt;yambo -->
<g id="edge32" class="edge">
<title>slepc&#45;&gt;yambo</title>
<path fill="none" stroke="black" d="M484.98,-621.12C492.39,-612.47 501.72,-601.58 510.08,-591.83"/>
<polygon fill="black" stroke="black" points="512.55,-594.33 516.4,-584.46 507.23,-589.77 512.55,-594.33"/>
</g>
<!-- slepc&#45;&gt;fenics&#45;dolfinx -->
<g id="edge33" class="edge">
<title>slepc&#45;&gt;fenics&#45;dolfinx</title>
<path fill="none" stroke="black" d="M455.39,-621.33C435.36,-602.27 399.38,-569.93 364.36,-548 343.42,-534.89 318.7,-523.2 297.38,-514.16"/>
<polygon fill="black" stroke="black" points="298.88,-510.99 288.3,-510.39 296.2,-517.45 298.88,-510.99"/>
</g>
<!-- slepc&#45;&gt;freefem -->
<g id="edge34" class="edge">
<title>slepc&#45;&gt;freefem</title>
<path fill="none" stroke="black" d="M499.16,-625.75C526.79,-614.57 569.55,-597.27 601.53,-584.33"/>
<polygon fill="black" stroke="black" points="602.56,-587.69 610.52,-580.69 599.93,-581.2 602.56,-587.69"/>
</g>
<!-- slepc&#45;&gt;slepc4py -->
<g id="edge35" class="edge">
<title>slepc&#45;&gt;slepc4py</title>
<path fill="none" stroke="black" d="M443.89,-625.75C417.12,-614.79 375.97,-597.95 344.59,-585.11"/>
<polygon fill="black" stroke="black" points="345.92,-581.87 335.34,-581.32 343.27,-588.35 345.92,-581.87"/>
</g>
<!-- fenics&#45;dolfinx&#45;&gt;dolfinx_mpc -->
<g id="edge36" class="edge">
<title>fenics&#45;dolfinx&#45;&gt;dolfinx_mpc</title>
<path fill="none" stroke="black" d="M234.53,-476.05C228.35,-467.89 220.79,-457.91 213.91,-448.82"/>
<polygon fill="black" stroke="black" points="216.81,-446.86 207.99,-441 211.23,-451.08 216.81,-446.86"/>
</g>
<!-- slepc4py&#45;&gt;fenics -->
<g id="edge37" class="edge">
<title>slepc4py&#45;&gt;fenics</title>
<path fill="none" stroke="black" d="M326.62,-549.81C344.41,-539.52 368.09,-525.82 387.33,-514.69"/>
<polygon fill="black" stroke="black" points="389,-517.76 395.9,-509.73 385.49,-511.71 389,-517.76"/>
</g>
<!-- slepc4py&#45;&gt;fenics&#45;dolfinx -->
<g id="edge38" class="edge">
<title>slepc4py&#45;&gt;fenics&#45;dolfinx</title>
<path fill="none" stroke="black" d="M287.53,-548.05C281.35,-539.89 273.79,-529.91 266.91,-520.82"/>
<polygon fill="black" stroke="black" points="269.81,-518.86 260.99,-513 264.23,-523.08 269.81,-518.86"/>
</g>
<!-- parabem -->
<g id="node33" class="node">
<title>parabem</title>
<g id="a_node33"><a xlink:href="https://github.com/conda-forge/parabem-feedstock/pull/17" xlink:title="parabem ❎">
<ellipse fill="#31688e" stroke="black" cx="1603.36" cy="-1114" rx="70.68" ry="18"/>
<text text-anchor="middle" x="1603.36" y="-1109.33" font-family="Times,serif" font-size="14.00" fill="white">parabem ❎</text>
</a>
</g>
</g>
<!-- openpmd&#45;api&#45;&gt;parabem -->
<!-- dakota -->
<g id="node35" class="node">
<title>dakota</title>
<g id="a_node35"><a xlink:href="https://github.com/conda-forge/dakota-feedstock/pull/49" xlink:title="dakota ❎">
<ellipse fill="#31688e" stroke="black" cx="1603.36" cy="-1042" rx="60.15" ry="18"/>
<text text-anchor="middle" x="1603.36" y="-1037.33" font-family="Times,serif" font-size="14.00" fill="white">dakota ❎</text>
</a>
</g>
</g>
<!-- parabem&#45;&gt;dakota -->
<!-- neuron -->
<g id="node34" class="node">
<title>neuron</title>
<g id="a_node34"><a xlink:href="https://github.com/conda-forge/neuron-feedstock/pull/54" xlink:title="neuron ✓">
<ellipse fill="#31688e" stroke="black" cx="726.36" cy="-1258" rx="54.36" ry="18"/>
<text text-anchor="middle" x="726.36" y="-1253.33" font-family="Times,serif" font-size="14.00" fill="white">neuron ✓</text>
</a>
</g>
</g>
<!-- neuron&#45;&gt;lfpy -->
<g id="edge41" class="edge">
<title>neuron&#45;&gt;lfpy</title>
<path fill="none" stroke="black" d="M727.6,-1239.7C728.12,-1232.41 728.74,-1223.73 729.32,-1215.54"/>
<polygon fill="black" stroke="black" points="732.81,-1215.84 730.03,-1205.61 725.83,-1215.34 732.81,-1215.84"/>
</g>
<!-- scorec -->
<g id="node36" class="node">
<title>scorec</title>
<g id="a_node36"><a xlink:href="https://github.com/conda-forge/scorec-feedstock/pull/12" xlink:title="scorec ❎">
<ellipse fill="#31688e" stroke="black" cx="1603.36" cy="-970" rx="58.57" ry="18"/>
<text text-anchor="middle" x="1603.36" y="-965.33" font-family="Times,serif" font-size="14.00" fill="white">scorec ❎</text>
</a>
</g>
</g>
<!-- dakota&#45;&gt;scorec -->
<!-- netcdf&#45;cxx&#45;legacy -->
<g id="node41" class="node">
<title>netcdf&#45;cxx&#45;legacy</title>
<g id="a_node41"><a xlink:href="https://github.com/conda-forge/netcdf-cxx-legacy-feedstock/pull/16" xlink:title="netcdf cxx legacy ❎">
<ellipse fill="#31688e" stroke="black" cx="1603.36" cy="-898" rx="113.29" ry="18"/>
<text text-anchor="middle" x="1603.36" y="-893.33" font-family="Times,serif" font-size="14.00" fill="white">netcdf cxx legacy ❎</text>
</a>
</g>
</g>
<!-- scorec&#45;&gt;netcdf&#45;cxx&#45;legacy -->
<!-- triqs -->
<g id="node37" class="node">
<title>triqs</title>
<g id="a_node37"><a xlink:href="https://github.com/conda-forge/triqs-feedstock/pull/64" xlink:title="triqs ❎">
<ellipse fill="#31688e" stroke="black" cx="1586.36" cy="-674" rx="50.16" ry="18"/>
<text text-anchor="middle" x="1586.36" y="-669.33" font-family="Times,serif" font-size="14.00" fill="white">triqs ❎</text>
</a>
</g>
</g>
<!-- triqs_tprf -->
<g id="node38" class="node">
<title>triqs_tprf</title>
<g id="a_node38"><a xlink:href="https://github.com/conda-forge/triqs_tprf-feedstock" xlink:title="triqs_tprf">
<ellipse fill="#fde725" stroke="black" cx="1499.36" cy="-602" rx="58.57" ry="18"/>
<text text-anchor="middle" x="1499.36" y="-597.33" font-family="Times,serif" font-size="14.00">triqs_tprf</text>
</a>
</g>
</g>
<!-- triqs&#45;&gt;triqs_tprf -->
<g id="edge44" class="edge">
<title>triqs&#45;&gt;triqs_tprf</title>
<path fill="none" stroke="black" d="M1566.62,-657.12C1555.32,-648.03 1540.94,-636.46 1528.38,-626.35"/>
<polygon fill="black" stroke="black" points="1530.79,-623.8 1520.81,-620.26 1526.4,-629.25 1530.79,-623.8"/>
</g>
<!-- triqs_cthyb -->
<g id="node39" class="node">
<title>triqs_cthyb</title>
<g id="a_node39"><a xlink:href="https://github.com/conda-forge/triqs_cthyb-feedstock" xlink:title="triqs_cthyb">
<ellipse fill="#fde725" stroke="black" cx="1586.36" cy="-530" rx="67.52" ry="18"/>
<text text-anchor="middle" x="1586.36" y="-525.33" font-family="Times,serif" font-size="14.00">triqs_cthyb</text>
</a>
</g>
</g>
<!-- triqs&#45;&gt;triqs_cthyb -->
<g id="edge45" class="edge">
<title>triqs&#45;&gt;triqs_cthyb</title>
<path fill="none" stroke="black" d="M1586.36,-655.59C1586.36,-631.61 1586.36,-588.14 1586.36,-559.42"/>
<polygon fill="black" stroke="black" points="1589.86,-559.62 1586.36,-549.62 1582.86,-559.62 1589.86,-559.62"/>
</g>
<!-- triqs_dft_tools -->
<g id="node40" class="node">
<title>triqs_dft_tools</title>
<g id="a_node40"><a xlink:href="https://github.com/conda-forge/triqs_dft_tools-feedstock" xlink:title="triqs_dft_tools">
<ellipse fill="#fde725" stroke="black" cx="1682.36" cy="-458" rx="82.77" ry="18"/>
<text text-anchor="middle" x="1682.36" y="-453.32" font-family="Times,serif" font-size="14.00">triqs_dft_tools</text>
</a>
</g>
</g>
<!-- triqs&#45;&gt;triqs_dft_tools -->
<g id="edge46" class="edge">
<title>triqs&#45;&gt;triqs_dft_tools</title>
<path fill="none" stroke="black" d="M1599.33,-656.21C1616.54,-633.11 1646.67,-589.64 1663.36,-548 1671.15,-528.58 1675.96,-505.43 1678.8,-487.61"/>
<polygon fill="black" stroke="black" points="1682.26,-488.14 1680.24,-477.74 1675.33,-487.13 1682.26,-488.14"/>
</g>
<!-- conduit -->
<g id="node42" class="node">
<title>conduit</title>
<g id="a_node42"><a xlink:href="https://github.com/conda-forge/conduit-feedstock/pull/46" xlink:title="conduit ✓">
<ellipse fill="#31688e" stroke="black" cx="1603.36" cy="-826" rx="56.47" ry="18"/>
<text text-anchor="middle" x="1603.36" y="-821.33" font-family="Times,serif" font-size="14.00" fill="white">conduit ✓</text>
</a>
</g>
</g>
<!-- netcdf&#45;cxx&#45;legacy&#45;&gt;conduit -->
<!-- parsplice -->
<g id="node43" class="node">
<title>parsplice</title>
<g id="a_node43"><a xlink:href="https://github.com/conda-forge/parsplice-feedstock/pull/13" xlink:title="parsplice ❎">
<ellipse fill="#31688e" stroke="black" cx="1603.36" cy="-754" rx="72.25" ry="18"/>
<text text-anchor="middle" x="1603.36" y="-749.33" font-family="Times,serif" font-size="14.00" fill="white">parsplice ❎</text>
</a>
</g>
</g>
<!-- conduit&#45;&gt;parsplice -->
<!-- qe -->
<g id="node44" class="node">
<title>qe</title>
<g id="a_node44"><a xlink:href="https://github.com/conda-forge/qe-feedstock" xlink:title="qe">
<ellipse fill="#fde725" stroke="black" cx="1332.36" cy="-494" rx="27" ry="18"/>
<text text-anchor="middle" x="1332.36" y="-489.32" font-family="Times,serif" font-size="14.00">qe</text>
</a>
</g>
</g>
<!-- dftbplus -->
<g id="node45" class="node">
<title>dftbplus</title>
<g id="a_node45"><a xlink:href="https://github.com/conda-forge/dftbplus-feedstock" xlink:title="dftbplus">
<ellipse fill="#fde725" stroke="black" cx="1068.36" cy="-422" rx="52.79" ry="18"/>
<text text-anchor="middle" x="1068.36" y="-417.32" font-family="Times,serif" font-size="14.00">dftbplus</text>
</a>
</g>
</g>
<!-- libmbd -->
<g id="node46" class="node">
<title>libmbd</title>
<g id="a_node46"><a xlink:href="https://github.com/conda-forge/libmbd-feedstock" xlink:title="libmbd">
<ellipse fill="#fde725" stroke="black" cx="1031.36" cy="-494" rx="45.95" ry="18"/>
<text text-anchor="middle" x="1031.36" y="-489.32" font-family="Times,serif" font-size="14.00">libmbd</text>
</a>
</g>
</g>
<!-- libmbd&#45;&gt;dftbplus -->
<g id="edge50" class="edge">
<title>libmbd&#45;&gt;dftbplus</title>
<path fill="none" stroke="black" d="M1040.32,-476.05C1044.5,-468.14 1049.58,-458.54 1054.25,-449.69"/>
<polygon fill="black" stroke="black" points="1057.2,-451.6 1058.78,-441.13 1051.01,-448.33 1057.2,-451.6"/>
</g>
<!-- parsmurf -->
<g id="node47" class="node">
<title>parsmurf</title>
<g id="a_node47"><a xlink:href="https://github.com/conda-forge/parsmurf-feedstock/pull/4" xlink:title="parsmurf ❎">
<ellipse fill="#31688e" stroke="black" cx="1169.36" cy="-1474" rx="72.78" ry="18"/>
<text text-anchor="middle" x="1169.36" y="-1469.33" font-family="Times,serif" font-size="14.00" fill="white">parsmurf ❎</text>
</a>
</g>
</g>
<!-- mrchem -->
<g id="node48" class="node">
<title>mrchem</title>
<g id="a_node48"><a xlink:href="https://github.com/conda-forge/mrchem-feedstock/pull/28" xlink:title="mrchem ❎">
<ellipse fill="#31688e" stroke="black" cx="1169.36" cy="-1402" rx="67.52" ry="18"/>
<text text-anchor="middle" x="1169.36" y="-1397.33" font-family="Times,serif" font-size="14.00" fill="white">mrchem ❎</text>
</a>
</g>
</g>
<!-- parsmurf&#45;&gt;mrchem -->
<!-- tempest&#45;extremes -->
<g id="node50" class="node">
<title>tempest&#45;extremes</title>
<g id="a_node50"><a xlink:href="https://github.com/conda-forge/tempest-extremes-feedstock/pull/9" xlink:title="tempest extremes ❎">
<ellipse fill="#31688e" stroke="black" cx="1169.36" cy="-1330" rx="117.5" ry="18"/>
<text text-anchor="middle" x="1169.36" y="-1325.33" font-family="Times,serif" font-size="14.00" fill="white">tempest extremes ❎</text>
</a>
</g>
</g>
<!-- mrchem&#45;&gt;tempest&#45;extremes -->
<!-- scalapackfx -->
<g id="node49" class="node">
<title>scalapackfx</title>
<g id="a_node49"><a xlink:href="https://github.com/conda-forge/scalapackfx-feedstock/pull/9" xlink:title="scalapackfx ✓">
<ellipse fill="#31688e" stroke="black" cx="1210.36" cy="-494" rx="76.99" ry="18"/>
<text text-anchor="middle" x="1210.36" y="-489.32" font-family="Times,serif" font-size="14.00" fill="white">scalapackfx ✓</text>
</a>
</g>
</g>
<!-- scalapackfx&#45;&gt;dftbplus -->
<g id="edge52" class="edge">
<title>scalapackfx&#45;&gt;dftbplus</title>
<path fill="none" stroke="black" d="M1178.49,-477.29C1157.46,-466.92 1129.76,-453.27 1107.4,-442.24"/>
<polygon fill="black" stroke="black" points="1109.1,-439.18 1098.58,-437.9 1106.01,-445.46 1109.1,-439.18"/>
</g>
<!-- analisi -->
<g id="node52" class="node">
<title>analisi</title>
<g id="a_node52"><a xlink:href="https://github.com/conda-forge/analisi-feedstock/pull/33" xlink:title="analisi ✓">
<ellipse fill="#31688e" stroke="black" cx="1169.36" cy="-1258" rx="51.74" ry="18"/>
<text text-anchor="middle" x="1169.36" y="-1253.33" font-family="Times,serif" font-size="14.00" fill="white">analisi ✓</text>
</a>
</g>
</g>
<!-- tempest&#45;extremes&#45;&gt;analisi -->
<!-- libnegf -->
<g id="node51" class="node">
<title>libnegf</title>
<g id="a_node51"><a xlink:href="https://github.com/conda-forge/libnegf-feedstock/pull/17" xlink:title="libnegf ❎">
<ellipse fill="#31688e" stroke="black" cx="1105.36" cy="-566" rx="61.2" ry="18"/>
<text text-anchor="middle" x="1105.36" y="-561.33" font-family="Times,serif" font-size="14.00" fill="white">libnegf ❎</text>
</a>
</g>
</g>
<!-- libnegf&#45;&gt;dftbplus -->
<g id="edge54" class="edge">
<title>libnegf&#45;&gt;dftbplus</title>
<path fill="none" stroke="black" d="M1102.31,-547.79C1098.96,-529.76 1093.16,-500.68 1086.36,-476 1084.08,-467.72 1081.23,-458.84 1078.47,-450.77"/>
<polygon fill="black" stroke="black" points="1081.82,-449.74 1075.21,-441.46 1075.21,-452.05 1081.82,-449.74"/>
</g>
<!-- nwchem -->
<g id="node53" class="node">
<title>nwchem</title>
<g id="a_node53"><a xlink:href="https://github.com/conda-forge/nwchem-feedstock/pull/49" xlink:title="nwchem ❎">
<ellipse fill="#31688e" stroke="black" cx="1169.36" cy="-1186" rx="68.04" ry="18"/>
<text text-anchor="middle" x="1169.36" y="-1181.33" font-family="Times,serif" font-size="14.00" fill="white">nwchem ❎</text>
</a>
</g>
</g>
<!-- analisi&#45;&gt;nwchem -->
<!-- bmad -->
<g id="node54" class="node">
<title>bmad</title>
<g id="a_node54"><a xlink:href="https://github.com/conda-forge/bmad-feedstock/pull/412" xlink:title="bmad ✓">
<ellipse fill="#31688e" stroke="black" cx="1169.36" cy="-1114" rx="47" ry="18"/>
<text text-anchor="middle" x="1169.36" y="-1109.33" font-family="Times,serif" font-size="14.00" fill="white">bmad ✓</text>
</a>
</g>
</g>
<!-- nwchem&#45;&gt;bmad -->
<!-- mfem -->
<g id="node55" class="node">
<title>mfem</title>
<g id="a_node55"><a xlink:href="https://github.com/conda-forge/mfem-feedstock/pull/13" xlink:title="mfem ❎">
<ellipse fill="#31688e" stroke="black" cx="1169.36" cy="-1042" rx="54.89" ry="18"/>
<text text-anchor="middle" x="1169.36" y="-1037.33" font-family="Times,serif" font-size="14.00" fill="white">mfem ❎</text>
</a>
</g>
</g>
<!-- bmad&#45;&gt;mfem -->
<!-- timemory -->
<g id="node56" class="node">
<title>timemory</title>
<g id="a_node56"><a xlink:href="https://github.com/conda-forge/timemory-feedstock" xlink:title="timemory">
<ellipse fill="#000000" stroke="black" cx="1169.36" cy="-970" rx="59.63" ry="18"/>
<text text-anchor="middle" x="1169.36" y="-965.33" font-family="Times,serif" font-size="14.00" fill="white">timemory</text>
</a>
</g>
</g>
<!-- mfem&#45;&gt;timemory -->
<!-- pexsi -->
<g id="node57" class="node">
<title>pexsi</title>
<g id="a_node57"><a xlink:href="https://github.com/conda-forge/pexsi-feedstock/pull/10" xlink:title="pexsi ❎">
<ellipse fill="#31688e" stroke="black" cx="1169.36" cy="-898" rx="52.79" ry="18"/>
<text text-anchor="middle" x="1169.36" y="-893.33" font-family="Times,serif" font-size="14.00" fill="white">pexsi ❎</text>
</a>
</g>
</g>
<!-- timemory&#45;&gt;pexsi -->
<!-- eigenexa -->
<g id="node63" class="node">
<title>eigenexa</title>
<g id="a_node63"><a xlink:href="https://github.com/conda-forge/eigenexa-feedstock/pull/3" xlink:title="eigenexa ❎">
<ellipse fill="#31688e" stroke="black" cx="1169.36" cy="-826" rx="71.2" ry="18"/>
<text text-anchor="middle" x="1169.36" y="-821.33" font-family="Times,serif" font-size="14.00" fill="white">eigenexa ❎</text>
</a>
</g>
</g>
<!-- pexsi&#45;&gt;eigenexa -->
<!-- elpa -->
<g id="node58" class="node">
<title>elpa</title>
<g id="a_node58"><a xlink:href="https://github.com/conda-forge/elpa-feedstock/pull/26" xlink:title="elpa ❎">
<ellipse fill="#31688e" stroke="black" cx="1297.36" cy="-638" rx="47.53" ry="18"/>
<text text-anchor="middle" x="1297.36" y="-633.33" font-family="Times,serif" font-size="14.00" fill="white">elpa ❎</text>
</a>
</g>
</g>
<!-- elpa&#45;&gt;siesta -->
<g id="edge61" class="edge">
<title>elpa&#45;&gt;siesta</title>
<path fill="none" stroke="black" d="M1289.13,-620.05C1285.33,-612.23 1280.72,-602.75 1276.46,-593.98"/>
<polygon fill="black" stroke="black" points="1279.69,-592.62 1272.18,-585.15 1273.4,-595.67 1279.69,-592.62"/>
</g>
<!-- elpa&#45;&gt;qe -->
<g id="edge62" class="edge">
<title>elpa&#45;&gt;qe</title>
<path fill="none" stroke="black" d="M1302.91,-619.92C1306.17,-609.58 1310.25,-596.1 1313.36,-584 1318.54,-563.86 1323.42,-540.9 1326.93,-523.35"/>
<polygon fill="black" stroke="black" points="1330.35,-524.13 1328.84,-513.65 1323.48,-522.78 1330.35,-524.13"/>
</g>
<!-- elsi -->
<g id="node59" class="node">
<title>elsi</title>
<g id="a_node59"><a xlink:href="https://github.com/conda-forge/elsi-feedstock" xlink:title="elsi">
<ellipse fill="#fde725" stroke="black" cx="997.36" cy="-566" rx="28.59" ry="18"/>
<text text-anchor="middle" x="997.36" y="-561.33" font-family="Times,serif" font-size="14.00">elsi</text>
</a>
</g>
</g>
<!-- elpa&#45;&gt;elsi -->
<g id="edge63" class="edge">
<title>elpa&#45;&gt;elsi</title>
<path fill="none" stroke="black" d="M1253.03,-631.09C1200.31,-623.37 1110.05,-607.94 1035.36,-584 1033.56,-583.42 1031.74,-582.79 1029.9,-582.11"/>
<polygon fill="black" stroke="black" points="1031.53,-578.99 1020.95,-578.48 1028.9,-585.48 1031.53,-578.99"/>
</g>
<!-- abacus -->
<g id="node60" class="node">
<title>abacus</title>
<g id="a_node60"><a xlink:href="https://github.com/conda-forge/abacus-feedstock" xlink:title="abacus">
<ellipse fill="#fde725" stroke="black" cx="1387.36" cy="-422" rx="45.95" ry="18"/>
<text text-anchor="middle" x="1387.36" y="-417.32" font-family="Times,serif" font-size="14.00">abacus</text>
</a>
</g>
</g>
<!-- elpa&#45;&gt;abacus -->
<g id="edge64" class="edge">
<title>elpa&#45;&gt;abacus</title>
<path fill="none" stroke="black" d="M1308.81,-620.07C1315.61,-609.79 1324.27,-596.32 1331.36,-584 1349.32,-552.82 1356.28,-545.89 1368.36,-512 1375.35,-492.41 1380.17,-469.44 1383.21,-451.74"/>
<polygon fill="black" stroke="black" points="1386.66,-452.36 1384.79,-441.93 1379.74,-451.24 1386.66,-452.36"/>
</g>
<!-- elsi&#45;&gt;dftbplus -->
<g id="edge65" class="edge">
<title>elsi&#45;&gt;dftbplus</title>
<path fill="none" stroke="black" d="M986.89,-548.87C976.23,-530.2 963.01,-499.09 976.36,-476 985.91,-459.48 1002.78,-447.65 1019.49,-439.43"/>
<polygon fill="black" stroke="black" points="1020.75,-442.7 1028.42,-435.38 1017.87,-436.32 1020.75,-442.7"/>
</g>
<!-- elsi&#45;&gt;libmbd -->
<g id="edge66" class="edge">
<title>elsi&#45;&gt;libmbd</title>
<path fill="none" stroke="black" d="M1005.42,-548.41C1009.22,-540.59 1013.85,-531.06 1018.14,-522.23"/>
<polygon fill="black" stroke="black" points="1021.24,-523.84 1022.46,-513.32 1014.95,-520.78 1021.24,-523.84"/>
</g>
<!-- libomm -->
<g id="node61" class="node">
<title>libomm</title>
<g id="a_node61"><a xlink:href="https://github.com/conda-forge/libomm-feedstock" xlink:title="libomm">
<ellipse fill="#fde725" stroke="black" cx="1036.36" cy="-638" rx="48.58" ry="18"/>
<text text-anchor="middle" x="1036.36" y="-633.33" font-family="Times,serif" font-size="14.00">libomm</text>
</a>
</g>
</g>
<!-- libomm&#45;&gt;elsi -->
<g id="edge67" class="edge">
<title>libomm&#45;&gt;elsi</title>
<path fill="none" stroke="black" d="M1026.92,-620.05C1022.45,-612.03 1017,-602.26 1012.01,-593.3"/>
<polygon fill="black" stroke="black" points="1015.11,-591.66 1007.18,-584.63 1008.99,-595.07 1015.11,-591.66"/>
</g>
<!-- matrixswitch -->
<g id="node62" class="node">
<title>matrixswitch</title>
<g id="a_node62"><a xlink:href="https://github.com/conda-forge/matrixswitch-feedstock/pull/7" xlink:title="matrixswitch ❎">
<ellipse fill="#31688e" stroke="black" cx="997.36" cy="-710" rx="92.25" ry="18"/>
<text text-anchor="middle" x="997.36" y="-705.33" font-family="Times,serif" font-size="14.00" fill="white">matrixswitch ❎</text>
</a>
</g>
</g>
<!-- matrixswitch&#45;&gt;elsi -->
<g id="edge68" class="edge">
<title>matrixswitch&#45;&gt;elsi</title>
<path fill="none" stroke="black" d="M989.47,-691.75C985.25,-681.58 980.5,-668.33 978.36,-656 975.62,-640.24 975.62,-635.76 978.36,-620 979.84,-611.49 982.56,-602.54 985.49,-594.47"/>
<polygon fill="black" stroke="black" points="988.74,-595.78 989.11,-585.19 982.22,-593.23 988.74,-595.78"/>
</g>
<!-- matrixswitch&#45;&gt;libomm -->
<g id="edge69" class="edge">
<title>matrixswitch&#45;&gt;libomm</title>
<path fill="none" stroke="black" d="M1007,-691.7C1011.3,-683.98 1016.46,-674.71 1021.26,-666.11"/>
<polygon fill="black" stroke="black" points="1024.29,-667.87 1026.09,-657.43 1018.17,-664.46 1024.29,-667.87"/>
</g>
<!-- fleur -->
<g id="node64" class="node">
<title>fleur</title>
<g id="a_node64"><a xlink:href="https://github.com/conda-forge/fleur-feedstock/pull/19" xlink:title="fleur ✓">
<ellipse fill="#31688e" stroke="black" cx="1169.36" cy="-754" rx="42.26" ry="18"/>
<text text-anchor="middle" x="1169.36" y="-749.33" font-family="Times,serif" font-size="14.00" fill="white">fleur ✓</text>
</a>
</g>
</g>
<!-- eigenexa&#45;&gt;fleur -->
<!-- edrixs -->
<g id="node65" class="node">
<title>edrixs</title>
<g id="a_node65"><a xlink:href="https://github.com/conda-forge/edrixs-feedstock/pull/14" xlink:title="edrixs ❎">
<ellipse fill="#31688e" stroke="black" cx="448.36" cy="-378" rx="57.52" ry="18"/>
<text text-anchor="middle" x="448.36" y="-373.32" font-family="Times,serif" font-size="14.00" fill="white">edrixs ❎</text>
</a>
</g>
</g>
<!-- openphase -->
<g id="node66" class="node">
<title>openphase</title>
<g id="a_node66"><a xlink:href="https://github.com/conda-forge/openphase-feedstock/pull/2" xlink:title="openphase ❎">
<ellipse fill="#31688e" stroke="black" cx="448.36" cy="-306" rx="80.14" ry="18"/>
<text text-anchor="middle" x="448.36" y="-301.32" font-family="Times,serif" font-size="14.00" fill="white">openphase ❎</text>
</a>
</g>
</g>
<!-- edrixs&#45;&gt;openphase -->
<!-- sparc&#45;x -->
<g id="node67" class="node">
<title>sparc&#45;x</title>
<g id="a_node67"><a xlink:href="https://github.com/conda-forge/sparc-x-feedstock/pull/9" xlink:title="sparc x ❎">
<ellipse fill="#31688e" stroke="black" cx="448.36" cy="-234" rx="62.78" ry="18"/>
<text text-anchor="middle" x="448.36" y="-229.32" font-family="Times,serif" font-size="14.00" fill="white">sparc x ❎</text>
</a>
</g>
</g>
<!-- openphase&#45;&gt;sparc&#45;x -->
<!-- reef3d -->
<g id="node68" class="node">
<title>reef3d</title>
<g id="a_node68"><a xlink:href="https://github.com/conda-forge/reef3d-feedstock/pull/11" xlink:title="reef3d ✓">
<ellipse fill="#31688e" stroke="black" cx="448.36" cy="-162" rx="51.74" ry="18"/>
<text text-anchor="middle" x="448.36" y="-157.32" font-family="Times,serif" font-size="14.00" fill="white">reef3d ✓</text>
</a>
</g>
</g>
<!-- sparc&#45;x&#45;&gt;reef3d -->
<!-- genesis4 -->
<g id="node69" class="node">
<title>genesis4</title>
<g id="a_node69"><a xlink:href="https://github.com/conda-forge/genesis4-feedstock/pull/12" xlink:title="genesis4 ❎">
<ellipse fill="#31688e" stroke="black" cx="448.36" cy="-90" rx="70.68" ry="18"/>
<text text-anchor="middle" x="448.36" y="-85.33" font-family="Times,serif" font-size="14.00" fill="white">genesis4 ❎</text>
</a>
</g>
</g>
<!-- reef3d&#45;&gt;genesis4 -->
<!-- opentelemac -->
<g id="node70" class="node">
<title>opentelemac</title>
<g id="a_node70"><a xlink:href="https://github.com/conda-forge/opentelemac-feedstock/pull/2" xlink:title="opentelemac ❎">
<ellipse fill="#31688e" stroke="black" cx="448.36" cy="-18" rx="90.14" ry="18"/>
<text text-anchor="middle" x="448.36" y="-13.32" font-family="Times,serif" font-size="14.00" fill="white">opentelemac ❎</text>
</a>
</g>
</g>
<!-- genesis4&#45;&gt;opentelemac -->
</g>
</svg>
