<?xml version="1.0" encoding="UTF-8" standalone="no"?>
<!DOCTYPE svg PUBLIC "-//W3C//DTD SVG 1.1//EN"
 "http://www.w3.org/Graphics/SVG/1.1/DTD/svg11.dtd">
<!-- Generated by graphviz version 11.0.0 (20240519.1550)
 -->
<!-- Pages: 1 -->
<svg width="2047pt" height="1788pt"
 viewBox="0.00 0.00 2047.14 1788.00" xmlns="http://www.w3.org/2000/svg" xmlns:xlink="http://www.w3.org/1999/xlink">
<g id="graph0" class="graph" transform="scale(1 1) rotate(0) translate(4 1784)">
<polygon fill="white" stroke="none" points="-4,4 -4,-1784 2043.14,-1784 2043.14,4 -4,4"/>
<!-- casacore -->
<g id="node1" class="node">
<title>casacore</title>
<g id="a_node1"><a xlink:href="https://github.com/conda-forge/casacore-feedstock" xlink:title="casacore">
<ellipse fill="#fde725" stroke="black" cx="1547.36" cy="-1330" rx="54.89" ry="18"/>
<text text-anchor="middle" x="1547.36" y="-1325.33" font-family="Times,serif" font-size="14.00">casacore</text>
</a>
</g>
</g>
<!-- esmf -->
<g id="node2" class="node">
<title>esmf</title>
<g id="a_node2"><a xlink:href="https://github.com/conda-forge/esmf-feedstock/pull/116" xlink:title="esmf ❎">
<ellipse fill="#31688e" stroke="black" cx="448.36" cy="-998" rx="50.68" ry="18"/>
<text text-anchor="middle" x="448.36" y="-993.33" font-family="Times,serif" font-size="14.00" fill="white">esmf ❎</text>
</a>
</g>
</g>
<!-- netcdf&#45;cxx4 -->
<g id="node3" class="node">
<title>netcdf&#45;cxx4</title>
<g id="a_node3"><a xlink:href="https://github.com/conda-forge/netcdf-cxx4-feedstock/pull/48" xlink:title="netcdf cxx4 ❎">
<ellipse fill="#31688e" stroke="black" cx="448.36" cy="-926" rx="84.35" ry="18"/>
<text text-anchor="middle" x="448.36" y="-921.33" font-family="Times,serif" font-size="14.00" fill="white">netcdf cxx4 ❎</text>
</a>
</g>
</g>
<!-- esmf&#45;&gt;netcdf&#45;cxx4 -->
<!-- libmed -->
<g id="node20" class="node">
<title>libmed</title>
<g id="a_node20"><a xlink:href="https://github.com/conda-forge/libmed-feedstock/pull/61" xlink:title="libmed ✓">
<ellipse fill="#31688e" stroke="black" cx="448.36" cy="-854" rx="53.31" ry="18"/>
<text text-anchor="middle" x="448.36" y="-849.33" font-family="Times,serif" font-size="14.00" fill="white">libmed ✓</text>
</a>
</g>
</g>
<!-- netcdf&#45;cxx4&#45;&gt;libmed -->
<!-- fenics -->
<g id="node4" class="node">
<title>fenics</title>
<g id="a_node4"><a xlink:href="https://github.com/conda-forge/fenics-feedstock" xlink:title="fenics">
<ellipse fill="#fde725" stroke="black" cx="980.36" cy="-1330" rx="40.69" ry="18"/>
<text text-anchor="middle" x="980.36" y="-1325.33" font-family="Times,serif" font-size="14.00">fenics</text>
</a>
</g>
</g>
<!-- mshr -->
<g id="node5" class="node">
<title>mshr</title>
<g id="a_node5"><a xlink:href="https://github.com/conda-forge/mshr-feedstock" xlink:title="mshr">
<ellipse fill="#fde725" stroke="black" cx="980.36" cy="-1258" rx="37" ry="18"/>
<text text-anchor="middle" x="980.36" y="-1253.33" font-family="Times,serif" font-size="14.00">mshr</text>
</a>
</g>
</g>
<!-- fenics&#45;&gt;mshr -->
<g id="edge2" class="edge">
<title>fenics&#45;&gt;mshr</title>
<path fill="none" stroke="black" d="M980.36,-1311.7C980.36,-1304.41 980.36,-1295.73 980.36,-1287.54"/>
<polygon fill="black" stroke="black" points="983.86,-1287.62 980.36,-1277.62 976.86,-1287.62 983.86,-1287.62"/>
</g>
<!-- h5py -->
<g id="node6" class="node">
<title>h5py</title>
<g id="a_node6"><a xlink:href="https://github.com/conda-forge/h5py-feedstock/pull/141" xlink:title="h5py ❎">
<ellipse fill="#31688e" stroke="black" cx="517.36" cy="-1546" rx="51.21" ry="18"/>
<text text-anchor="middle" x="517.36" y="-1541.33" font-family="Times,serif" font-size="14.00" fill="white">h5py ❎</text>
</a>
</g>
</g>
<!-- openmc -->
<g id="node7" class="node">
<title>openmc</title>
<g id="a_node7"><a xlink:href="https://github.com/conda-forge/openmc-feedstock" xlink:title="openmc">
<ellipse fill="#fde725" stroke="black" cx="838.36" cy="-1474" rx="50.16" ry="18"/>
<text text-anchor="middle" x="838.36" y="-1469.33" font-family="Times,serif" font-size="14.00">openmc</text>
</a>
</g>
</g>
<!-- h5py&#45;&gt;openmc -->
<g id="edge3" class="edge">
<title>h5py&#45;&gt;openmc</title>
<path fill="none" stroke="black" d="M561.35,-1536.32C611.91,-1526.22 697.32,-1508.77 770.36,-1492 775.93,-1490.72 781.74,-1489.34 787.51,-1487.94"/>
<polygon fill="black" stroke="black" points="788.17,-1491.38 797.04,-1485.6 786.49,-1484.58 788.17,-1491.38"/>
</g>
<!-- lalinference -->
<g id="node8" class="node">
<title>lalinference</title>
<g id="a_node8"><a xlink:href="https://github.com/conda-forge/lalinference-feedstock" xlink:title="lalinference">
<ellipse fill="#fde725" stroke="black" cx="339.36" cy="-1474" rx="70.15" ry="18"/>
<text text-anchor="middle" x="339.36" y="-1469.33" font-family="Times,serif" font-size="14.00">lalinference</text>
</a>
</g>
</g>
<!-- h5py&#45;&gt;lalinference -->
<g id="edge4" class="edge">
<title>h5py&#45;&gt;lalinference</title>
<path fill="none" stroke="black" d="M484.3,-1532C456.96,-1521.25 417.77,-1505.84 387.04,-1493.75"/>
<polygon fill="black" stroke="black" points="388.55,-1490.58 377.96,-1490.18 385.99,-1497.1 388.55,-1490.58"/>
</g>
<!-- lfpy -->
<g id="node9" class="node">
<title>lfpy</title>
<g id="a_node9"><a xlink:href="https://github.com/conda-forge/lfpy-feedstock" xlink:title="lfpy">
<ellipse fill="#fde725" stroke="black" cx="731.36" cy="-1474" rx="30.16" ry="18"/>
<text text-anchor="middle" x="731.36" y="-1469.33" font-family="Times,serif" font-size="14.00">lfpy</text>
</a>
</g>
</g>
<!-- h5py&#45;&gt;lfpy -->
<g id="edge5" class="edge">
<title>h5py&#45;&gt;lfpy</title>
<path fill="none" stroke="black" d="M555.75,-1533.83C590.36,-1523.56 642.55,-1507.62 687.36,-1492 690.23,-1491 693.2,-1489.93 696.17,-1488.83"/>
<polygon fill="black" stroke="black" points="697.26,-1492.16 705.38,-1485.36 694.79,-1485.61 697.26,-1492.16"/>
</g>
<!-- deepmd&#45;kit -->
<g id="node10" class="node">
<title>deepmd&#45;kit</title>
<g id="a_node10"><a xlink:href="https://github.com/conda-forge/deepmd-kit-feedstock" xlink:title="deepmd kit">
<ellipse fill="#fde725" stroke="black" cx="237.36" cy="-1402" rx="67.52" ry="18"/>
<text text-anchor="middle" x="237.36" y="-1397.33" font-family="Times,serif" font-size="14.00">deepmd kit</text>
</a>
</g>
</g>
<!-- h5py&#45;&gt;deepmd&#45;kit -->
<g id="edge6" class="edge">
<title>h5py&#45;&gt;deepmd&#45;kit</title>
<path fill="none" stroke="black" d="M467.67,-1540.94C401.56,-1534.53 289.61,-1519.83 260.36,-1492 244.18,-1476.6 238.82,-1451.44 237.28,-1431.79"/>
<polygon fill="black" stroke="black" points="240.78,-1431.75 236.82,-1421.92 233.79,-1432.07 240.78,-1431.75"/>
</g>
<!-- dedalus -->
<g id="node11" class="node">
<title>dedalus</title>
<g id="a_node11"><a xlink:href="https://github.com/conda-forge/dedalus-feedstock" xlink:title="dedalus">
<ellipse fill="#fde725" stroke="black" cx="713.36" cy="-1330" rx="50.16" ry="18"/>
<text text-anchor="middle" x="713.36" y="-1325.33" font-family="Times,serif" font-size="14.00">dedalus</text>
</a>
</g>
</g>
<!-- h5py&#45;&gt;dedalus -->
<g id="edge7" class="edge">
<title>h5py&#45;&gt;dedalus</title>
<path fill="none" stroke="black" d="M561.55,-1536.66C589.88,-1529.26 625.65,-1515.79 649.36,-1492 686.18,-1455.06 702.48,-1394.29 709.17,-1358.93"/>
<polygon fill="black" stroke="black" points="712.55,-1359.93 710.82,-1349.47 705.65,-1358.72 712.55,-1359.93"/>
</g>
<!-- ondamonitor -->
<g id="node12" class="node">
<title>ondamonitor</title>
<g id="a_node12"><a xlink:href="https://github.com/conda-forge/ondamonitor-feedstock" xlink:title="ondamonitor">
<ellipse fill="#fde725" stroke="black" cx="700.36" cy="-1258" rx="74.88" ry="18"/>
<text text-anchor="middle" x="700.36" y="-1253.33" font-family="Times,serif" font-size="14.00">ondamonitor</text>
</a>
</g>
</g>
<!-- h5py&#45;&gt;ondamonitor -->
<g id="edge8" class="edge">
<title>h5py&#45;&gt;ondamonitor</title>
<path fill="none" stroke="black" d="M553.53,-1532.86C573.43,-1524.4 596.93,-1511.15 611.36,-1492 660.87,-1426.32 616.77,-1385.16 654.36,-1312 659.57,-1301.87 667.11,-1292.06 674.58,-1283.7"/>
<polygon fill="black" stroke="black" points="676.91,-1286.34 681.21,-1276.66 671.81,-1281.54 676.91,-1286.34"/>
</g>
<!-- alamode -->
<g id="node13" class="node">
<title>alamode</title>
<g id="a_node13"><a xlink:href="https://github.com/conda-forge/alamode-feedstock" xlink:title="alamode">
<ellipse fill="#fde725" stroke="black" cx="597.36" cy="-1186" rx="53.31" ry="18"/>
<text text-anchor="middle" x="597.36" y="-1181.33" font-family="Times,serif" font-size="14.00">alamode</text>
</a>
</g>
</g>
<!-- h5py&#45;&gt;alamode -->
<g id="edge9" class="edge">
<title>h5py&#45;&gt;alamode</title>
<path fill="none" stroke="black" d="M541.32,-1529.88C554.23,-1520.51 569.31,-1507.35 578.36,-1492 598.91,-1457.16 597.36,-1443.45 597.36,-1403 597.36,-1403 597.36,-1403 597.36,-1329 597.36,-1289.74 597.36,-1244.38 597.36,-1215.69"/>
<polygon fill="black" stroke="black" points="600.86,-1216 597.36,-1206 593.86,-1216 600.86,-1216"/>
</g>
<!-- veloxchem -->
<g id="node14" class="node">
<title>veloxchem</title>
<g id="a_node14"><a xlink:href="https://github.com/conda-forge/veloxchem-feedstock" xlink:title="veloxchem">
<ellipse fill="#fde725" stroke="black" cx="64.36" cy="-1474" rx="64.36" ry="18"/>
<text text-anchor="middle" x="64.36" y="-1469.33" font-family="Times,serif" font-size="14.00">veloxchem</text>
</a>
</g>
</g>
<!-- h5py&#45;&gt;veloxchem -->
<g id="edge10" class="edge">
<title>h5py&#45;&gt;veloxchem</title>
<path fill="none" stroke="black" d="M468.98,-1539.6C396.73,-1531.23 256.46,-1513.78 138.36,-1492 133.2,-1491.05 127.86,-1489.98 122.52,-1488.86"/>
<polygon fill="black" stroke="black" points="123.6,-1485.51 113.08,-1486.82 122.12,-1492.35 123.6,-1485.51"/>
</g>
<!-- heat -->
<g id="node15" class="node">
<title>heat</title>
<g id="a_node15"><a xlink:href="https://github.com/conda-forge/heat-feedstock" xlink:title="heat">
<ellipse fill="#fde725" stroke="black" cx="180.36" cy="-1474" rx="33.32" ry="18"/>
<text text-anchor="middle" x="180.36" y="-1469.33" font-family="Times,serif" font-size="14.00">heat</text>
</a>
</g>
</g>
<!-- h5py&#45;&gt;heat -->
<g id="edge11" class="edge">
<title>h5py&#45;&gt;heat</title>
<path fill="none" stroke="black" d="M469.86,-1538.8C411.97,-1530.67 311.48,-1514.73 227.36,-1492 224.03,-1491.1 220.61,-1490.07 217.19,-1488.97"/>
<polygon fill="black" stroke="black" points="218.49,-1485.72 207.9,-1485.8 216.23,-1492.34 218.49,-1485.72"/>
</g>
<!-- horovod -->
<g id="node16" class="node">
<title>horovod</title>
<g id="a_node16"><a xlink:href="https://github.com/conda-forge/horovod-feedstock" xlink:title="horovod">
<ellipse fill="#fde725" stroke="black" cx="517.36" cy="-1474" rx="51.74" ry="18"/>
<text text-anchor="middle" x="517.36" y="-1469.33" font-family="Times,serif" font-size="14.00">horovod</text>
</a>
</g>
</g>
<!-- h5py&#45;&gt;horovod -->
<g id="edge12" class="edge">
<title>h5py&#45;&gt;horovod</title>
<path fill="none" stroke="black" d="M517.36,-1527.7C517.36,-1520.41 517.36,-1511.73 517.36,-1503.54"/>
<polygon fill="black" stroke="black" points="520.86,-1503.62 517.36,-1493.62 513.86,-1503.62 520.86,-1503.62"/>
</g>
<!-- fluidfft&#45;mpi_with_fftw -->
<g id="node17" class="node">
<title>fluidfft&#45;mpi_with_fftw</title>
<g id="a_node17"><a xlink:href="https://github.com/conda-forge/fluidfft-mpi_with_fftw-feedstock" xlink:title="fluidfft mpi_with_fftw">
<ellipse fill="#fde725" stroke="black" cx="440.36" cy="-1402" rx="117.5" ry="18"/>
<text text-anchor="middle" x="440.36" y="-1397.33" font-family="Times,serif" font-size="14.00">fluidfft mpi_with_fftw</text>
</a>
</g>
</g>
<!-- h5py&#45;&gt;fluidfft&#45;mpi_with_fftw -->
<g id="edge13" class="edge">
<title>h5py&#45;&gt;fluidfft&#45;mpi_with_fftw</title>
<path fill="none" stroke="black" d="M492.9,-1529.77C480.01,-1520.45 465.09,-1507.37 456.36,-1492 445.91,-1473.61 442.03,-1449.93 440.7,-1431.62"/>
<polygon fill="black" stroke="black" points="444.2,-1431.53 440.21,-1421.72 437.21,-1431.88 444.2,-1431.53"/>
</g>
<!-- moab -->
<g id="node18" class="node">
<title>moab</title>
<g id="a_node18"><a xlink:href="https://github.com/conda-forge/moab-feedstock/pull/94" xlink:title="moab ❎">
<ellipse fill="#31688e" stroke="black" cx="843.36" cy="-1618" rx="53.84" ry="18"/>
<text text-anchor="middle" x="843.36" y="-1613.33" font-family="Times,serif" font-size="14.00" fill="white">moab ❎</text>
</a>
</g>
</g>
<!-- dagmc -->
<g id="node19" class="node">
<title>dagmc</title>
<g id="a_node19"><a xlink:href="https://github.com/conda-forge/dagmc-feedstock" xlink:title="dagmc">
<ellipse fill="#fde725" stroke="black" cx="843.36" cy="-1546" rx="44.37" ry="18"/>
<text text-anchor="middle" x="843.36" y="-1541.33" font-family="Times,serif" font-size="14.00">dagmc</text>
</a>
</g>
</g>
<!-- moab&#45;&gt;dagmc -->
<g id="edge14" class="edge">
<title>moab&#45;&gt;dagmc</title>
<path fill="none" stroke="black" d="M843.36,-1599.7C843.36,-1592.41 843.36,-1583.73 843.36,-1575.54"/>
<polygon fill="black" stroke="black" points="846.86,-1575.62 843.36,-1565.62 839.86,-1575.62 846.86,-1575.62"/>
</g>
<!-- dagmc&#45;&gt;openmc -->
<g id="edge15" class="edge">
<title>dagmc&#45;&gt;openmc</title>
<path fill="none" stroke="black" d="M842.12,-1527.7C841.6,-1520.41 840.98,-1511.73 840.4,-1503.54"/>
<polygon fill="black" stroke="black" points="843.89,-1503.34 839.69,-1493.61 836.91,-1503.84 843.89,-1503.34"/>
</g>
<!-- parabem -->
<g id="node32" class="node">
<title>parabem</title>
<g id="a_node32"><a xlink:href="https://github.com/conda-forge/parabem-feedstock/pull/17" xlink:title="parabem ❎">
<ellipse fill="#31688e" stroke="black" cx="448.36" cy="-782" rx="70.68" ry="18"/>
<text text-anchor="middle" x="448.36" y="-777.33" font-family="Times,serif" font-size="14.00" fill="white">parabem ❎</text>
</a>
</g>
</g>
<!-- libmed&#45;&gt;parabem -->
<!-- netcdf4 -->
<g id="node21" class="node">
<title>netcdf4</title>
<g id="a_node21"><a xlink:href="https://github.com/conda-forge/netcdf4-feedstock/pull/163" xlink:title="netcdf4 ❎">
<ellipse fill="#31688e" stroke="black" cx="122.36" cy="-1546" rx="64.36" ry="18"/>
<text text-anchor="middle" x="122.36" y="-1541.33" font-family="Times,serif" font-size="14.00" fill="white">netcdf4 ❎</text>
</a>
</g>
</g>
<!-- netcdf4&#45;&gt;veloxchem -->
<g id="edge17" class="edge">
<title>netcdf4&#45;&gt;veloxchem</title>
<path fill="none" stroke="black" d="M108.32,-1528.05C101.48,-1519.8 93.11,-1509.7 85.52,-1500.54"/>
<polygon fill="black" stroke="black" points="88.31,-1498.42 79.24,-1492.95 82.92,-1502.89 88.31,-1498.42"/>
</g>
<!-- netcdf4&#45;&gt;heat -->
<g id="edge18" class="edge">
<title>netcdf4&#45;&gt;heat</title>
<path fill="none" stroke="black" d="M136.4,-1528.05C143.51,-1519.47 152.28,-1508.89 160.11,-1499.44"/>
<polygon fill="black" stroke="black" points="162.59,-1501.93 166.28,-1491.99 157.2,-1497.46 162.59,-1501.93"/>
</g>
<!-- siesta -->
<g id="node22" class="node">
<title>siesta</title>
<g id="a_node22"><a xlink:href="https://github.com/conda-forge/siesta-feedstock" xlink:title="siesta">
<ellipse fill="#fde725" stroke="black" cx="1400.36" cy="-638" rx="40.69" ry="18"/>
<text text-anchor="middle" x="1400.36" y="-633.33" font-family="Times,serif" font-size="14.00">siesta</text>
</a>
</g>
</g>
<!-- petsc -->
<g id="node23" class="node">
<title>petsc</title>
<g id="a_node23"><a xlink:href="https://github.com/conda-forge/petsc-feedstock" xlink:title="petsc">
<ellipse fill="#35b779" stroke="black" cx="1274.36" cy="-1546" rx="38.06" ry="18"/>
<text text-anchor="middle" x="1274.36" y="-1541.33" font-family="Times,serif" font-size="14.00">petsc</text>
</a>
</g>
</g>
<!-- petsc&#45;&gt;fenics -->
<g id="edge19" class="edge">
<title>petsc&#45;&gt;fenics</title>
<path fill="none" stroke="black" d="M1236.11,-1544.91C1156.01,-1543.83 974.89,-1536.42 936.36,-1492 904.91,-1455.74 918.81,-1429.06 935.36,-1384 939.38,-1373.07 946.76,-1362.85 954.4,-1354.36"/>
<polygon fill="black" stroke="black" points="956.82,-1356.88 961.27,-1347.26 951.8,-1352.01 956.82,-1356.88"/>
</g>
<!-- petsc4py -->
<g id="node24" class="node">
<title>petsc4py</title>
<g id="a_node24"><a xlink:href="https://github.com/conda-forge/petsc4py-feedstock" xlink:title="petsc4py">
<ellipse fill="#fde725" stroke="black" cx="1001.36" cy="-1474" rx="56.47" ry="18"/>
<text text-anchor="middle" x="1001.36" y="-1469.33" font-family="Times,serif" font-size="14.00">petsc4py</text>
</a>
</g>
</g>
<!-- petsc&#45;&gt;petsc4py -->
<g id="edge20" class="edge">
<title>petsc&#45;&gt;petsc4py</title>
<path fill="none" stroke="black" d="M1241.43,-1536.56C1195.26,-1524.72 1110.74,-1503.05 1055.3,-1488.83"/>
<polygon fill="black" stroke="black" points="1056.31,-1485.48 1045.75,-1486.38 1054.57,-1492.26 1056.31,-1485.48"/>
</g>
<!-- slepc -->
<g id="node25" class="node">
<title>slepc</title>
<g id="a_node25"><a xlink:href="https://github.com/conda-forge/slepc-feedstock" xlink:title="slepc">
<ellipse fill="#fde725" stroke="black" cx="1147.36" cy="-1474" rx="37" ry="18"/>
<text text-anchor="middle" x="1147.36" y="-1469.33" font-family="Times,serif" font-size="14.00">slepc</text>
</a>
</g>
</g>
<!-- petsc&#45;&gt;slepc -->
<g id="edge21" class="edge">
<title>petsc&#45;&gt;slepc</title>
<path fill="none" stroke="black" d="M1250.17,-1531.67C1230.54,-1520.85 1202.64,-1505.47 1180.86,-1493.46"/>
<polygon fill="black" stroke="black" points="1182.8,-1490.54 1172.35,-1488.78 1179.42,-1496.67 1182.8,-1490.54"/>
</g>
<!-- daetk -->
<g id="node26" class="node">
<title>daetk</title>
<g id="a_node26"><a xlink:href="https://github.com/conda-forge/daetk-feedstock" xlink:title="daetk">
<ellipse fill="#fde725" stroke="black" cx="1241.36" cy="-1474" rx="39.11" ry="18"/>
<text text-anchor="middle" x="1241.36" y="-1469.33" font-family="Times,serif" font-size="14.00">daetk</text>
</a>
</g>
</g>
<!-- petsc&#45;&gt;daetk -->
<g id="edge22" class="edge">
<title>petsc&#45;&gt;daetk</title>
<path fill="none" stroke="black" d="M1266.37,-1528.05C1262.68,-1520.23 1258.21,-1510.75 1254.08,-1501.98"/>
<polygon fill="black" stroke="black" points="1257.35,-1500.71 1249.92,-1493.16 1251.02,-1503.7 1257.35,-1500.71"/>
</g>
<!-- yambo -->
<g id="node27" class="node">
<title>yambo</title>
<g id="a_node27"><a xlink:href="https://github.com/conda-forge/yambo-feedstock" xlink:title="yambo">
<ellipse fill="#fde725" stroke="black" cx="1233.36" cy="-1402" rx="44.37" ry="18"/>
<text text-anchor="middle" x="1233.36" y="-1397.33" font-family="Times,serif" font-size="14.00">yambo</text>
</a>
</g>
</g>
<!-- petsc&#45;&gt;yambo -->
<g id="edge23" class="edge">
<title>petsc&#45;&gt;yambo</title>
<path fill="none" stroke="black" d="M1282.57,-1528.26C1290.4,-1509.86 1299.58,-1479.75 1289.36,-1456 1284.17,-1443.95 1274.75,-1433.36 1265.1,-1424.88"/>
<polygon fill="black" stroke="black" points="1267.42,-1422.25 1257.45,-1418.65 1263,-1427.68 1267.42,-1422.25"/>
</g>
<!-- fenics&#45;dolfinx -->
<g id="node28" class="node">
<title>fenics&#45;dolfinx</title>
<g id="a_node28"><a xlink:href="https://github.com/conda-forge/fenics-dolfinx-feedstock" xlink:title="fenics dolfinx">
<ellipse fill="#fde725" stroke="black" cx="1266.36" cy="-1330" rx="77.52" ry="18"/>
<text text-anchor="middle" x="1266.36" y="-1325.33" font-family="Times,serif" font-size="14.00">fenics dolfinx</text>
</a>
</g>
</g>
<!-- petsc&#45;&gt;fenics&#45;dolfinx -->
<g id="edge24" class="edge">
<title>petsc&#45;&gt;fenics&#45;dolfinx</title>
<path fill="none" stroke="black" d="M1299.55,-1531.99C1347.85,-1505.31 1445.33,-1442.01 1405.36,-1384 1391,-1363.16 1367.27,-1350.51 1343.44,-1342.83"/>
<polygon fill="black" stroke="black" points="1344.56,-1339.51 1333.98,-1340.06 1342.59,-1346.23 1344.56,-1339.51"/>
</g>
<!-- freefem -->
<g id="node29" class="node">
<title>freefem</title>
<g id="a_node29"><a xlink:href="https://github.com/conda-forge/freefem-feedstock" xlink:title="freefem">
<ellipse fill="#fde725" stroke="black" cx="1346.36" cy="-1402" rx="50.16" ry="18"/>
<text text-anchor="middle" x="1346.36" y="-1397.33" font-family="Times,serif" font-size="14.00">freefem</text>
</a>
</g>
</g>
<!-- petsc&#45;&gt;freefem -->
<g id="edge25" class="edge">
<title>petsc&#45;&gt;freefem</title>
<path fill="none" stroke="black" d="M1284.97,-1528.59C1291.47,-1518.26 1299.77,-1504.57 1306.36,-1492 1316.93,-1471.84 1327.42,-1448.33 1335.01,-1430.54"/>
<polygon fill="black" stroke="black" points="1338.19,-1431.99 1338.85,-1421.41 1331.74,-1429.27 1338.19,-1431.99"/>
</g>
<!-- dolfinx_mpc -->
<g id="node30" class="node">
<title>dolfinx_mpc</title>
<g id="a_node30"><a xlink:href="https://github.com/conda-forge/dolfinx_mpc-feedstock" xlink:title="dolfinx_mpc">
<ellipse fill="#fde725" stroke="black" cx="1364.36" cy="-1258" rx="70.68" ry="18"/>
<text text-anchor="middle" x="1364.36" y="-1253.33" font-family="Times,serif" font-size="14.00">dolfinx_mpc</text>
</a>
</g>
</g>
<!-- petsc&#45;&gt;dolfinx_mpc -->
<g id="edge26" class="edge">
<title>petsc&#45;&gt;dolfinx_mpc</title>
<path fill="none" stroke="black" d="M1307.99,-1537.07C1333.97,-1529.41 1369.28,-1515.44 1392.36,-1492 1416.8,-1467.17 1416.33,-1454.12 1423.36,-1420 1433.5,-1370.8 1404.64,-1316.51 1383.79,-1285.22"/>
<polygon fill="black" stroke="black" points="1386.78,-1283.39 1378.22,-1277.15 1381.02,-1287.37 1386.78,-1283.39"/>
</g>
<!-- petsc4py&#45;&gt;fenics -->
<g id="edge27" class="edge">
<title>petsc4py&#45;&gt;fenics</title>
<path fill="none" stroke="black" d="M976.44,-1457.6C964,-1448.4 950.18,-1435.48 943.36,-1420 936.91,-1405.36 938.56,-1399.26 943.36,-1384 946.54,-1373.89 952.41,-1364.02 958.55,-1355.6"/>
<polygon fill="black" stroke="black" points="961.13,-1357.99 964.54,-1347.96 955.62,-1353.67 961.13,-1357.99"/>
</g>
<!-- petsc4py&#45;&gt;fenics&#45;dolfinx -->
<g id="edge28" class="edge">
<title>petsc4py&#45;&gt;fenics&#45;dolfinx</title>
<path fill="none" stroke="black" d="M988.41,-1456.02C975.26,-1436.57 959.09,-1404.71 976.36,-1384 1001.85,-1353.43 1103.39,-1340.45 1179.18,-1334.96"/>
<polygon fill="black" stroke="black" points="1179.38,-1338.45 1189.12,-1334.28 1178.9,-1331.47 1179.38,-1338.45"/>
</g>
<!-- slepc4py -->
<g id="node31" class="node">
<title>slepc4py</title>
<g id="a_node31"><a xlink:href="https://github.com/conda-forge/slepc4py-feedstock" xlink:title="slepc4py">
<ellipse fill="#fde725" stroke="black" cx="1040.36" cy="-1402" rx="55.42" ry="18"/>
<text text-anchor="middle" x="1040.36" y="-1397.33" font-family="Times,serif" font-size="14.00">slepc4py</text>
</a>
</g>
</g>
<!-- petsc4py&#45;&gt;slepc4py -->
<g id="edge29" class="edge">
<title>petsc4py&#45;&gt;slepc4py</title>
<path fill="none" stroke="black" d="M1010.8,-1456.05C1015.21,-1448.14 1020.56,-1438.54 1025.49,-1429.69"/>
<polygon fill="black" stroke="black" points="1028.46,-1431.55 1030.27,-1421.11 1022.35,-1428.14 1028.46,-1431.55"/>
</g>
<!-- slepc&#45;&gt;fenics -->
<g id="edge30" class="edge">
<title>slepc&#45;&gt;fenics</title>
<path fill="none" stroke="black" d="M1143,-1455.74C1137.21,-1436.02 1125.21,-1403.91 1104.36,-1384 1082.97,-1363.58 1052.51,-1350.41 1027.12,-1342.3"/>
<polygon fill="black" stroke="black" points="1028.27,-1338.99 1017.68,-1339.46 1026.25,-1345.69 1028.27,-1338.99"/>
</g>
<!-- slepc&#45;&gt;yambo -->
<g id="edge31" class="edge">
<title>slepc&#45;&gt;yambo</title>
<path fill="none" stroke="black" d="M1165.6,-1458.15C1177.22,-1448.7 1192.49,-1436.26 1205.6,-1425.6"/>
<polygon fill="black" stroke="black" points="1207.53,-1428.53 1213.08,-1419.51 1203.12,-1423.11 1207.53,-1428.53"/>
</g>
<!-- slepc&#45;&gt;fenics&#45;dolfinx -->
<g id="edge32" class="edge">
<title>slepc&#45;&gt;fenics&#45;dolfinx</title>
<path fill="none" stroke="black" d="M1150.3,-1455.58C1154.29,-1436.3 1163.02,-1405.15 1180.36,-1384 1191.2,-1370.78 1206.26,-1359.94 1220.75,-1351.59"/>
<polygon fill="black" stroke="black" points="1222.2,-1354.78 1229.3,-1346.93 1218.85,-1348.64 1222.2,-1354.78"/>
</g>
<!-- slepc&#45;&gt;freefem -->
<g id="edge33" class="edge">
<title>slepc&#45;&gt;freefem</title>
<path fill="none" stroke="black" d="M1176.04,-1462.3C1181.77,-1460.19 1187.75,-1458.01 1193.36,-1456 1229.07,-1443.22 1269.64,-1429.19 1300.03,-1418.77"/>
<polygon fill="black" stroke="black" points="1300.98,-1422.15 1309.3,-1415.6 1298.71,-1415.53 1300.98,-1422.15"/>
</g>
<!-- slepc&#45;&gt;slepc4py -->
<g id="edge34" class="edge">
<title>slepc&#45;&gt;slepc4py</title>
<path fill="none" stroke="black" d="M1125.96,-1459C1111.08,-1449.26 1090.93,-1436.08 1073.92,-1424.95"/>
<polygon fill="black" stroke="black" points="1075.88,-1422.06 1065.6,-1419.51 1072.05,-1427.91 1075.88,-1422.06"/>
</g>
<!-- fenics&#45;dolfinx&#45;&gt;dolfinx_mpc -->
<g id="edge35" class="edge">
<title>fenics&#45;dolfinx&#45;&gt;dolfinx_mpc</title>
<path fill="none" stroke="black" d="M1289.59,-1312.41C1302.28,-1303.34 1318.2,-1291.97 1332.08,-1282.06"/>
<polygon fill="black" stroke="black" points="1333.97,-1285.01 1340.07,-1276.35 1329.9,-1279.31 1333.97,-1285.01"/>
</g>
<!-- slepc4py&#45;&gt;fenics -->
<g id="edge36" class="edge">
<title>slepc4py&#45;&gt;fenics</title>
<path fill="none" stroke="black" d="M1026.14,-1384.41C1018.79,-1375.83 1009.67,-1365.19 1001.51,-1355.67"/>
<polygon fill="black" stroke="black" points="1004.22,-1353.45 995.05,-1348.14 998.9,-1358.01 1004.22,-1353.45"/>
</g>
<!-- slepc4py&#45;&gt;fenics&#45;dolfinx -->
<g id="edge37" class="edge">
<title>slepc4py&#45;&gt;fenics&#45;dolfinx</title>
<path fill="none" stroke="black" d="M1079.47,-1388.89C1115.58,-1377.7 1169.61,-1360.97 1210.3,-1348.36"/>
<polygon fill="black" stroke="black" points="1211.17,-1351.76 1219.69,-1345.46 1209.1,-1345.07 1211.17,-1351.76"/>
</g>
<!-- dakota -->
<g id="node35" class="node">
<title>dakota</title>
<g id="a_node35"><a xlink:href="https://github.com/conda-forge/dakota-feedstock" xlink:title="dakota">
<ellipse fill="#35b779" stroke="black" cx="448.36" cy="-710" rx="44.9" ry="18"/>
<text text-anchor="middle" x="448.36" y="-705.33" font-family="Times,serif" font-size="14.00">dakota</text>
</a>
</g>
</g>
<!-- parabem&#45;&gt;dakota -->
<!-- openpmd&#45;api -->
<g id="node33" class="node">
<title>openpmd&#45;api</title>
<g id="a_node33"><a xlink:href="https://github.com/conda-forge/openpmd-api-feedstock" xlink:title="openpmd api">
<ellipse fill="#fde725" stroke="black" cx="1630.36" cy="-1258" rx="75.94" ry="18"/>
<text text-anchor="middle" x="1630.36" y="-1253.33" font-family="Times,serif" font-size="14.00">openpmd api</text>
</a>
</g>
</g>
<!-- neuron -->
<g id="node34" class="node">
<title>neuron</title>
<g id="a_node34"><a xlink:href="https://github.com/conda-forge/neuron-feedstock/pull/54" xlink:title="neuron ✓">
<ellipse fill="#31688e" stroke="black" cx="726.36" cy="-1546" rx="54.36" ry="18"/>
<text text-anchor="middle" x="726.36" y="-1541.33" font-family="Times,serif" font-size="14.00" fill="white">neuron ✓</text>
</a>
</g>
</g>
<!-- neuron&#45;&gt;lfpy -->
<g id="edge39" class="edge">
<title>neuron&#45;&gt;lfpy</title>
<path fill="none" stroke="black" d="M727.6,-1527.7C728.12,-1520.41 728.74,-1511.73 729.32,-1503.54"/>
<polygon fill="black" stroke="black" points="732.81,-1503.84 730.03,-1493.61 725.83,-1503.34 732.81,-1503.84"/>
</g>
<!-- scorec -->
<g id="node37" class="node">
<title>scorec</title>
<g id="a_node37"><a xlink:href="https://github.com/conda-forge/scorec-feedstock/pull/12" xlink:title="scorec ❎">
<ellipse fill="#31688e" stroke="black" cx="448.36" cy="-638" rx="58.57" ry="18"/>
<text text-anchor="middle" x="448.36" y="-633.33" font-family="Times,serif" font-size="14.00" fill="white">scorec ❎</text>
</a>
</g>
</g>
<!-- dakota&#45;&gt;scorec -->
<!-- adios2 -->
<g id="node36" class="node">
<title>adios2</title>
<g id="a_node36"><a xlink:href="https://github.com/conda-forge/adios2-feedstock/pull/96" xlink:title="adios2 ❎">
<ellipse fill="#31688e" stroke="black" cx="1549.36" cy="-1402" rx="59.1" ry="18"/>
<text text-anchor="middle" x="1549.36" y="-1397.33" font-family="Times,serif" font-size="14.00" fill="white">adios2 ❎</text>
</a>
</g>
</g>
<!-- adios2&#45;&gt;casacore -->
<g id="edge41" class="edge">
<title>adios2&#45;&gt;casacore</title>
<path fill="none" stroke="black" d="M1548.87,-1383.7C1548.66,-1376.41 1548.41,-1367.73 1548.18,-1359.54"/>
<polygon fill="black" stroke="black" points="1551.68,-1359.51 1547.89,-1349.62 1544.68,-1359.71 1551.68,-1359.51"/>
</g>
<!-- adios2&#45;&gt;fenics&#45;dolfinx -->
<g id="edge42" class="edge">
<title>adios2&#45;&gt;fenics&#45;dolfinx</title>
<path fill="none" stroke="black" d="M1504.52,-1389.91C1457.23,-1378.21 1382.35,-1359.69 1329.19,-1346.54"/>
<polygon fill="black" stroke="black" points="1330.21,-1343.19 1319.66,-1344.18 1328.53,-1349.98 1330.21,-1343.19"/>
</g>
<!-- adios2&#45;&gt;openpmd&#45;api -->
<g id="edge43" class="edge">
<title>adios2&#45;&gt;openpmd&#45;api</title>
<path fill="none" stroke="black" d="M1574.65,-1385.29C1587.55,-1375.99 1602.38,-1363.09 1611.36,-1348 1622.25,-1329.71 1626.94,-1306.03 1628.94,-1287.69"/>
<polygon fill="black" stroke="black" points="1632.42,-1288.02 1629.79,-1277.76 1625.45,-1287.42 1632.42,-1288.02"/>
</g>
<!-- netcdf&#45;cxx&#45;legacy -->
<g id="node42" class="node">
<title>netcdf&#45;cxx&#45;legacy</title>
<g id="a_node42"><a xlink:href="https://github.com/conda-forge/netcdf-cxx-legacy-feedstock/pull/16" xlink:title="netcdf cxx legacy ❎">
<ellipse fill="#31688e" stroke="black" cx="448.36" cy="-566" rx="113.29" ry="18"/>
<text text-anchor="middle" x="448.36" y="-561.33" font-family="Times,serif" font-size="14.00" fill="white">netcdf cxx legacy ❎</text>
</a>
</g>
</g>
<!-- scorec&#45;&gt;netcdf&#45;cxx&#45;legacy -->
<!-- triqs -->
<g id="node38" class="node">
<title>triqs</title>
<g id="a_node38"><a xlink:href="https://github.com/conda-forge/triqs-feedstock/pull/64" xlink:title="triqs ❎">
<ellipse fill="#31688e" stroke="black" cx="1860.36" cy="-746" rx="50.16" ry="18"/>
<text text-anchor="middle" x="1860.36" y="-741.33" font-family="Times,serif" font-size="14.00" fill="white">triqs ❎</text>
</a>
</g>
</g>
<!-- triqs_tprf -->
<g id="node39" class="node">
<title>triqs_tprf</title>
<g id="a_node39"><a xlink:href="https://github.com/conda-forge/triqs_tprf-feedstock" xlink:title="triqs_tprf">
<ellipse fill="#fde725" stroke="black" cx="1773.36" cy="-674" rx="58.57" ry="18"/>
<text text-anchor="middle" x="1773.36" y="-669.33" font-family="Times,serif" font-size="14.00">triqs_tprf</text>
</a>
</g>
</g>
<!-- triqs&#45;&gt;triqs_tprf -->
<g id="edge45" class="edge">
<title>triqs&#45;&gt;triqs_tprf</title>
<path fill="none" stroke="black" d="M1840.62,-729.12C1829.32,-720.03 1814.94,-708.46 1802.38,-698.35"/>
<polygon fill="black" stroke="black" points="1804.79,-695.8 1794.81,-692.26 1800.4,-701.25 1804.79,-695.8"/>
</g>
<!-- triqs_cthyb -->
<g id="node40" class="node">
<title>triqs_cthyb</title>
<g id="a_node40"><a xlink:href="https://github.com/conda-forge/triqs_cthyb-feedstock" xlink:title="triqs_cthyb">
<ellipse fill="#fde725" stroke="black" cx="1860.36" cy="-602" rx="67.52" ry="18"/>
<text text-anchor="middle" x="1860.36" y="-597.33" font-family="Times,serif" font-size="14.00">triqs_cthyb</text>
</a>
</g>
</g>
<!-- triqs&#45;&gt;triqs_cthyb -->
<g id="edge46" class="edge">
<title>triqs&#45;&gt;triqs_cthyb</title>
<path fill="none" stroke="black" d="M1860.36,-727.59C1860.36,-703.61 1860.36,-660.14 1860.36,-631.42"/>
<polygon fill="black" stroke="black" points="1863.86,-631.62 1860.36,-621.62 1856.86,-631.62 1863.86,-631.62"/>
</g>
<!-- triqs_dft_tools -->
<g id="node41" class="node">
<title>triqs_dft_tools</title>
<g id="a_node41"><a xlink:href="https://github.com/conda-forge/triqs_dft_tools-feedstock" xlink:title="triqs_dft_tools">
<ellipse fill="#fde725" stroke="black" cx="1956.36" cy="-530" rx="82.77" ry="18"/>
<text text-anchor="middle" x="1956.36" y="-525.33" font-family="Times,serif" font-size="14.00">triqs_dft_tools</text>
</a>
</g>
</g>
<!-- triqs&#45;&gt;triqs_dft_tools -->
<g id="edge47" class="edge">
<title>triqs&#45;&gt;triqs_dft_tools</title>
<path fill="none" stroke="black" d="M1873.33,-728.21C1890.54,-705.11 1920.67,-661.64 1937.36,-620 1945.15,-600.58 1949.96,-577.43 1952.8,-559.61"/>
<polygon fill="black" stroke="black" points="1956.26,-560.14 1954.24,-549.74 1949.33,-559.13 1956.26,-560.14"/>
</g>
<!-- conduit -->
<g id="node43" class="node">
<title>conduit</title>
<g id="a_node43"><a xlink:href="https://github.com/conda-forge/conduit-feedstock" xlink:title="conduit">
<ellipse fill="#35b779" stroke="black" cx="448.36" cy="-494" rx="48.58" ry="18"/>
<text text-anchor="middle" x="448.36" y="-489.32" font-family="Times,serif" font-size="14.00">conduit</text>
</a>
</g>
</g>
<!-- netcdf&#45;cxx&#45;legacy&#45;&gt;conduit -->
<!-- parsplice -->
<g id="node44" class="node">
<title>parsplice</title>
<g id="a_node44"><a xlink:href="https://github.com/conda-forge/parsplice-feedstock/pull/13" xlink:title="parsplice ❎">
<ellipse fill="#31688e" stroke="black" cx="448.36" cy="-422" rx="72.25" ry="18"/>
<text text-anchor="middle" x="448.36" y="-417.32" font-family="Times,serif" font-size="14.00" fill="white">parsplice ❎</text>
</a>
</g>
</g>
<!-- conduit&#45;&gt;parsplice -->
<!-- parsmurf -->
<g id="node45" class="node">
<title>parsmurf</title>
<g id="a_node45"><a xlink:href="https://github.com/conda-forge/parsmurf-feedstock/pull/4" xlink:title="parsmurf ❎">
<ellipse fill="#31688e" stroke="black" cx="448.36" cy="-350" rx="72.78" ry="18"/>
<text text-anchor="middle" x="448.36" y="-345.32" font-family="Times,serif" font-size="14.00" fill="white">parsmurf ❎</text>
</a>
</g>
</g>
<!-- parsplice&#45;&gt;parsmurf -->
<!-- mrchem -->
<g id="node49" class="node">
<title>mrchem</title>
<g id="a_node49"><a xlink:href="https://github.com/conda-forge/mrchem-feedstock/pull/28" xlink:title="mrchem ❎">
<ellipse fill="#31688e" stroke="black" cx="448.36" cy="-278" rx="67.52" ry="18"/>
<text text-anchor="middle" x="448.36" y="-273.32" font-family="Times,serif" font-size="14.00" fill="white">mrchem ❎</text>
</a>
</g>
</g>
<!-- parsmurf&#45;&gt;mrchem -->
<!-- qe -->
<g id="node46" class="node">
<title>qe</title>
<g id="a_node46"><a xlink:href="https://github.com/conda-forge/qe-feedstock" xlink:title="qe">
<ellipse fill="#fde725" stroke="black" cx="1469.36" cy="-566" rx="27" ry="18"/>
<text text-anchor="middle" x="1469.36" y="-561.33" font-family="Times,serif" font-size="14.00">qe</text>
</a>
</g>
</g>
<!-- dftbplus -->
<g id="node47" class="node">
<title>dftbplus</title>
<g id="a_node47"><a xlink:href="https://github.com/conda-forge/dftbplus-feedstock" xlink:title="dftbplus">
<ellipse fill="#fde725" stroke="black" cx="1205.36" cy="-494" rx="52.79" ry="18"/>
<text text-anchor="middle" x="1205.36" y="-489.32" font-family="Times,serif" font-size="14.00">dftbplus</text>
</a>
</g>
</g>
<!-- libmbd -->
<g id="node48" class="node">
<title>libmbd</title>
<g id="a_node48"><a xlink:href="https://github.com/conda-forge/libmbd-feedstock" xlink:title="libmbd">
<ellipse fill="#fde725" stroke="black" cx="1168.36" cy="-566" rx="45.95" ry="18"/>
<text text-anchor="middle" x="1168.36" y="-561.33" font-family="Times,serif" font-size="14.00">libmbd</text>
</a>
</g>
</g>
<!-- libmbd&#45;&gt;dftbplus -->
<g id="edge52" class="edge">
<title>libmbd&#45;&gt;dftbplus</title>
<path fill="none" stroke="black" d="M1177.32,-548.05C1181.5,-540.14 1186.58,-530.54 1191.25,-521.69"/>
<polygon fill="black" stroke="black" points="1194.2,-523.6 1195.78,-513.13 1188.01,-520.33 1194.2,-523.6"/>
</g>
<!-- scalapackfx -->
<g id="node50" class="node">
<title>scalapackfx</title>
<g id="a_node50"><a xlink:href="https://github.com/conda-forge/scalapackfx-feedstock/pull/9" xlink:title="scalapackfx ✓">
<ellipse fill="#31688e" stroke="black" cx="1347.36" cy="-566" rx="76.99" ry="18"/>
<text text-anchor="middle" x="1347.36" y="-561.33" font-family="Times,serif" font-size="14.00" fill="white">scalapackfx ✓</text>
</a>
</g>
</g>
<!-- scalapackfx&#45;&gt;dftbplus -->
<g id="edge54" class="edge">
<title>scalapackfx&#45;&gt;dftbplus</title>
<path fill="none" stroke="black" d="M1315.49,-549.29C1294.46,-538.92 1266.76,-525.27 1244.4,-514.24"/>
<polygon fill="black" stroke="black" points="1246.1,-511.18 1235.58,-509.9 1243.01,-517.46 1246.1,-511.18"/>
</g>
<!-- libnegf -->
<g id="node51" class="node">
<title>libnegf</title>
<g id="a_node51"><a xlink:href="https://github.com/conda-forge/libnegf-feedstock/pull/17" xlink:title="libnegf ❎">
<ellipse fill="#31688e" stroke="black" cx="1242.36" cy="-638" rx="61.2" ry="18"/>
<text text-anchor="middle" x="1242.36" y="-633.33" font-family="Times,serif" font-size="14.00" fill="white">libnegf ❎</text>
</a>
</g>
</g>
<!-- libnegf&#45;&gt;dftbplus -->
<g id="edge55" class="edge">
<title>libnegf&#45;&gt;dftbplus</title>
<path fill="none" stroke="black" d="M1239.31,-619.79C1235.96,-601.76 1230.16,-572.68 1223.36,-548 1221.08,-539.72 1218.23,-530.84 1215.47,-522.77"/>
<polygon fill="black" stroke="black" points="1218.82,-521.74 1212.21,-513.46 1212.21,-524.05 1218.82,-521.74"/>
</g>
<!-- tempest&#45;extremes -->
<g id="node52" class="node">
<title>tempest&#45;extremes</title>
<g id="a_node52"><a xlink:href="https://github.com/conda-forge/tempest-extremes-feedstock/pull/9" xlink:title="tempest extremes ❎">
<ellipse fill="#31688e" stroke="black" cx="1876.36" cy="-1762" rx="117.5" ry="18"/>
<text text-anchor="middle" x="1876.36" y="-1757.33" font-family="Times,serif" font-size="14.00" fill="white">tempest extremes ❎</text>
</a>
</g>
</g>
<!-- analisi -->
<g id="node53" class="node">
<title>analisi</title>
<g id="a_node53"><a xlink:href="https://github.com/conda-forge/analisi-feedstock/pull/33" xlink:title="analisi ✓">
<ellipse fill="#31688e" stroke="black" cx="1876.36" cy="-1690" rx="51.74" ry="18"/>
<text text-anchor="middle" x="1876.36" y="-1685.33" font-family="Times,serif" font-size="14.00" fill="white">analisi ✓</text>
</a>
</g>
</g>
<!-- tempest&#45;extremes&#45;&gt;analisi -->
<!-- nwchem -->
<g id="node54" class="node">
<title>nwchem</title>
<g id="a_node54"><a xlink:href="https://github.com/conda-forge/nwchem-feedstock/pull/49" xlink:title="nwchem ❎">
<ellipse fill="#31688e" stroke="black" cx="1876.36" cy="-1618" rx="68.04" ry="18"/>
<text text-anchor="middle" x="1876.36" y="-1613.33" font-family="Times,serif" font-size="14.00" fill="white">nwchem ❎</text>
</a>
</g>
</g>
<!-- analisi&#45;&gt;nwchem -->
<!-- bmad -->
<g id="node55" class="node">
<title>bmad</title>
<g id="a_node55"><a xlink:href="https://github.com/conda-forge/bmad-feedstock" xlink:title="bmad">
<ellipse fill="#35b779" stroke="black" cx="1876.36" cy="-1546" rx="39.11" ry="18"/>
<text text-anchor="middle" x="1876.36" y="-1541.33" font-family="Times,serif" font-size="14.00">bmad</text>
</a>
</g>
</g>
<!-- nwchem&#45;&gt;bmad -->
<!-- mfem -->
<g id="node56" class="node">
<title>mfem</title>
<g id="a_node56"><a xlink:href="https://github.com/conda-forge/mfem-feedstock/pull/13" xlink:title="mfem ❎">
<ellipse fill="#31688e" stroke="black" cx="1876.36" cy="-1474" rx="54.89" ry="18"/>
<text text-anchor="middle" x="1876.36" y="-1469.33" font-family="Times,serif" font-size="14.00" fill="white">mfem ❎</text>
</a>
</g>
</g>
<!-- bmad&#45;&gt;mfem -->
<!-- timemory -->
<g id="node57" class="node">
<title>timemory</title>
<g id="a_node57"><a xlink:href="https://github.com/conda-forge/timemory-feedstock" xlink:title="timemory">
<ellipse fill="#000000" stroke="black" cx="1876.36" cy="-1402" rx="59.63" ry="18"/>
<text text-anchor="middle" x="1876.36" y="-1397.33" font-family="Times,serif" font-size="14.00" fill="white">timemory</text>
</a>
</g>
</g>
<!-- mfem&#45;&gt;timemory -->
<!-- pexsi -->
<g id="node58" class="node">
<title>pexsi</title>
<g id="a_node58"><a xlink:href="https://github.com/conda-forge/pexsi-feedstock/pull/10" xlink:title="pexsi ❎">
<ellipse fill="#31688e" stroke="black" cx="1876.36" cy="-1330" rx="52.79" ry="18"/>
<text text-anchor="middle" x="1876.36" y="-1325.33" font-family="Times,serif" font-size="14.00" fill="white">pexsi ❎</text>
</a>
</g>
</g>
<!-- timemory&#45;&gt;pexsi -->
<!-- eigenexa -->
<g id="node64" class="node">
<title>eigenexa</title>
<g id="a_node64"><a xlink:href="https://github.com/conda-forge/eigenexa-feedstock" xlink:title="eigenexa">
<ellipse fill="#35b779" stroke="black" cx="1876.36" cy="-1258" rx="55.94" ry="18"/>
<text text-anchor="middle" x="1876.36" y="-1253.33" font-family="Times,serif" font-size="14.00">eigenexa</text>
</a>
</g>
</g>
<!-- pexsi&#45;&gt;eigenexa -->
<!-- elpa -->
<g id="node59" class="node">
<title>elpa</title>
<g id="a_node59"><a xlink:href="https://github.com/conda-forge/elpa-feedstock/pull/26" xlink:title="elpa ❎">
<ellipse fill="#31688e" stroke="black" cx="1434.36" cy="-710" rx="47.53" ry="18"/>
<text text-anchor="middle" x="1434.36" y="-705.33" font-family="Times,serif" font-size="14.00" fill="white">elpa ❎</text>
</a>
</g>
</g>
<!-- elpa&#45;&gt;siesta -->
<g id="edge62" class="edge">
<title>elpa&#45;&gt;siesta</title>
<path fill="none" stroke="black" d="M1426.13,-692.05C1422.33,-684.23 1417.72,-674.75 1413.46,-665.98"/>
<polygon fill="black" stroke="black" points="1416.69,-664.62 1409.18,-657.15 1410.4,-667.67 1416.69,-664.62"/>
</g>
<!-- elpa&#45;&gt;qe -->
<g id="edge63" class="edge">
<title>elpa&#45;&gt;qe</title>
<path fill="none" stroke="black" d="M1439.91,-691.92C1443.17,-681.58 1447.25,-668.1 1450.36,-656 1455.54,-635.86 1460.42,-612.9 1463.93,-595.35"/>
<polygon fill="black" stroke="black" points="1467.35,-596.13 1465.84,-585.65 1460.48,-594.78 1467.35,-596.13"/>
</g>
<!-- elsi -->
<g id="node60" class="node">
<title>elsi</title>
<g id="a_node60"><a xlink:href="https://github.com/conda-forge/elsi-feedstock" xlink:title="elsi">
<ellipse fill="#fde725" stroke="black" cx="1134.36" cy="-638" rx="28.59" ry="18"/>
<text text-anchor="middle" x="1134.36" y="-633.33" font-family="Times,serif" font-size="14.00">elsi</text>
</a>
</g>
</g>
<!-- elpa&#45;&gt;elsi -->
<g id="edge64" class="edge">
<title>elpa&#45;&gt;elsi</title>
<path fill="none" stroke="black" d="M1390.03,-703.09C1337.31,-695.37 1247.05,-679.94 1172.36,-656 1170.56,-655.42 1168.74,-654.79 1166.9,-654.11"/>
<polygon fill="black" stroke="black" points="1168.53,-650.99 1157.95,-650.48 1165.9,-657.48 1168.53,-650.99"/>
</g>
<!-- abacus -->
<g id="node61" class="node">
<title>abacus</title>
<g id="a_node61"><a xlink:href="https://github.com/conda-forge/abacus-feedstock" xlink:title="abacus">
<ellipse fill="#fde725" stroke="black" cx="1524.36" cy="-494" rx="45.95" ry="18"/>
<text text-anchor="middle" x="1524.36" y="-489.32" font-family="Times,serif" font-size="14.00">abacus</text>
</a>
</g>
</g>
<!-- elpa&#45;&gt;abacus -->
<g id="edge65" class="edge">
<title>elpa&#45;&gt;abacus</title>
<path fill="none" stroke="black" d="M1445.81,-692.07C1452.61,-681.79 1461.27,-668.32 1468.36,-656 1486.32,-624.82 1493.28,-617.89 1505.36,-584 1512.35,-564.41 1517.17,-541.44 1520.21,-523.74"/>
<polygon fill="black" stroke="black" points="1523.66,-524.36 1521.79,-513.93 1516.74,-523.24 1523.66,-524.36"/>
</g>
<!-- elsi&#45;&gt;dftbplus -->
<g id="edge66" class="edge">
<title>elsi&#45;&gt;dftbplus</title>
<path fill="none" stroke="black" d="M1123.89,-620.87C1113.23,-602.2 1100.01,-571.09 1113.36,-548 1122.91,-531.48 1139.78,-519.65 1156.49,-511.43"/>
<polygon fill="black" stroke="black" points="1157.75,-514.7 1165.42,-507.38 1154.87,-508.32 1157.75,-514.7"/>
</g>
<!-- elsi&#45;&gt;libmbd -->
<g id="edge67" class="edge">
<title>elsi&#45;&gt;libmbd</title>
<path fill="none" stroke="black" d="M1142.42,-620.41C1146.22,-612.59 1150.85,-603.06 1155.14,-594.23"/>
<polygon fill="black" stroke="black" points="1158.24,-595.84 1159.46,-585.32 1151.95,-592.78 1158.24,-595.84"/>
</g>
<!-- libomm -->
<g id="node62" class="node">
<title>libomm</title>
<g id="a_node62"><a xlink:href="https://github.com/conda-forge/libomm-feedstock" xlink:title="libomm">
<ellipse fill="#fde725" stroke="black" cx="1173.36" cy="-710" rx="48.58" ry="18"/>
<text text-anchor="middle" x="1173.36" y="-705.33" font-family="Times,serif" font-size="14.00">libomm</text>
</a>
</g>
</g>
<!-- libomm&#45;&gt;elsi -->
<g id="edge68" class="edge">
<title>libomm&#45;&gt;elsi</title>
<path fill="none" stroke="black" d="M1163.92,-692.05C1159.45,-684.03 1154,-674.26 1149.01,-665.3"/>
<polygon fill="black" stroke="black" points="1152.11,-663.66 1144.18,-656.63 1145.99,-667.07 1152.11,-663.66"/>
</g>
<!-- matrixswitch -->
<g id="node63" class="node">
<title>matrixswitch</title>
<g id="a_node63"><a xlink:href="https://github.com/conda-forge/matrixswitch-feedstock/pull/7" xlink:title="matrixswitch ❎">
<ellipse fill="#31688e" stroke="black" cx="1134.36" cy="-782" rx="92.25" ry="18"/>
<text text-anchor="middle" x="1134.36" y="-777.33" font-family="Times,serif" font-size="14.00" fill="white">matrixswitch ❎</text>
</a>
</g>
</g>
<!-- matrixswitch&#45;&gt;elsi -->
<g id="edge69" class="edge">
<title>matrixswitch&#45;&gt;elsi</title>
<path fill="none" stroke="black" d="M1126.47,-763.75C1122.25,-753.58 1117.5,-740.33 1115.36,-728 1112.62,-712.24 1112.62,-707.76 1115.36,-692 1116.84,-683.49 1119.56,-674.54 1122.49,-666.47"/>
<polygon fill="black" stroke="black" points="1125.74,-667.78 1126.11,-657.19 1119.22,-665.23 1125.74,-667.78"/>
</g>
<!-- matrixswitch&#45;&gt;libomm -->
<g id="edge70" class="edge">
<title>matrixswitch&#45;&gt;libomm</title>
<path fill="none" stroke="black" d="M1144,-763.7C1148.3,-755.98 1153.46,-746.71 1158.26,-738.11"/>
<polygon fill="black" stroke="black" points="1161.29,-739.87 1163.09,-729.43 1155.17,-736.46 1161.29,-739.87"/>
</g>
<!-- fleur -->
<g id="node65" class="node">
<title>fleur</title>
<g id="a_node65"><a xlink:href="https://github.com/conda-forge/fleur-feedstock/pull/19" xlink:title="fleur ✓">
<ellipse fill="#31688e" stroke="black" cx="1876.36" cy="-1186" rx="42.26" ry="18"/>
<text text-anchor="middle" x="1876.36" y="-1181.33" font-family="Times,serif" font-size="14.00" fill="white">fleur ✓</text>
</a>
</g>
</g>
<!-- eigenexa&#45;&gt;fleur -->
<!-- edrixs -->
<g id="node66" class="node">
<title>edrixs</title>
<g id="a_node66"><a xlink:href="https://github.com/conda-forge/edrixs-feedstock/pull/14" xlink:title="edrixs ❎">
<ellipse fill="#31688e" stroke="black" cx="1876.36" cy="-1114" rx="57.52" ry="18"/>
<text text-anchor="middle" x="1876.36" y="-1109.33" font-family="Times,serif" font-size="14.00" fill="white">edrixs ❎</text>
</a>
</g>
</g>
<!-- fleur&#45;&gt;edrixs -->
<!-- openphase -->
<g id="node67" class="node">
<title>openphase</title>
<g id="a_node67"><a xlink:href="https://github.com/conda-forge/openphase-feedstock/pull/2" xlink:title="openphase ❎">
<ellipse fill="#31688e" stroke="black" cx="1876.36" cy="-1042" rx="80.14" ry="18"/>
<text text-anchor="middle" x="1876.36" y="-1037.33" font-family="Times,serif" font-size="14.00" fill="white">openphase ❎</text>
</a>
</g>
</g>
<!-- edrixs&#45;&gt;openphase -->
<!-- sparc&#45;x -->
<g id="node68" class="node">
<title>sparc&#45;x</title>
<g id="a_node68"><a xlink:href="https://github.com/conda-forge/sparc-x-feedstock/pull/9" xlink:title="sparc x ❎">
<ellipse fill="#31688e" stroke="black" cx="448.36" cy="-234" rx="62.78" ry="18"/>
<text text-anchor="middle" x="448.36" y="-229.32" font-family="Times,serif" font-size="14.00" fill="white">sparc x ❎</text>
</a>
</g>
</g>
<!-- reef3d -->
<g id="node69" class="node">
<title>reef3d</title>
<g id="a_node69"><a xlink:href="https://github.com/conda-forge/reef3d-feedstock/pull/11" xlink:title="reef3d ✓">
<ellipse fill="#31688e" stroke="black" cx="448.36" cy="-162" rx="51.74" ry="18"/>
<text text-anchor="middle" x="448.36" y="-157.32" font-family="Times,serif" font-size="14.00" fill="white">reef3d ✓</text>
</a>
</g>
</g>
<!-- sparc&#45;x&#45;&gt;reef3d -->
<!-- genesis4 -->
<g id="node70" class="node">
<title>genesis4</title>
<g id="a_node70"><a xlink:href="https://github.com/conda-forge/genesis4-feedstock/pull/12" xlink:title="genesis4 ❎">
<ellipse fill="#31688e" stroke="black" cx="448.36" cy="-90" rx="70.68" ry="18"/>
<text text-anchor="middle" x="448.36" y="-85.33" font-family="Times,serif" font-size="14.00" fill="white">genesis4 ❎</text>
</a>
</g>
</g>
<!-- reef3d&#45;&gt;genesis4 -->
<!-- opentelemac -->
<g id="node71" class="node">
<title>opentelemac</title>
<g id="a_node71"><a xlink:href="https://github.com/conda-forge/opentelemac-feedstock/pull/2" xlink:title="opentelemac ❎">
<ellipse fill="#31688e" stroke="black" cx="448.36" cy="-18" rx="90.14" ry="18"/>
<text text-anchor="middle" x="448.36" y="-13.32" font-family="Times,serif" font-size="14.00" fill="white">opentelemac ❎</text>
</a>
</g>
</g>
<!-- genesis4&#45;&gt;opentelemac -->
</g>
</svg>
