<?xml version="1.0" encoding="UTF-8" standalone="no"?>
<!DOCTYPE svg PUBLIC "-//W3C//DTD SVG 1.1//EN"
 "http://www.w3.org/Graphics/SVG/1.1/DTD/svg11.dtd">
<!-- Generated by graphviz version 11.0.0 (20240519.1550)
 -->
<!-- Pages: 1 -->
<svg width="2018pt" height="1788pt"
 viewBox="0.00 0.00 2018.14 1788.00" xmlns="http://www.w3.org/2000/svg" xmlns:xlink="http://www.w3.org/1999/xlink">
<g id="graph0" class="graph" transform="scale(1 1) rotate(0) translate(4 1784)">
<polygon fill="white" stroke="none" points="-4,4 -4,-1784 2014.14,-1784 2014.14,4 -4,4"/>
<!-- casacore -->
<g id="node1" class="node">
<title>casacore</title>
<g id="a_node1"><a xlink:href="https://github.com/conda-forge/casacore-feedstock" xlink:title="casacore">
<ellipse fill="#fde725" stroke="black" cx="1051.36" cy="-1294" rx="54.89" ry="18"/>
<text text-anchor="middle" x="1051.36" y="-1289.33" font-family="Times,serif" font-size="14.00">casacore</text>
</a>
</g>
</g>
<!-- esmf -->
<g id="node2" class="node">
<title>esmf</title>
<g id="a_node2"><a xlink:href="https://github.com/conda-forge/esmf-feedstock" xlink:title="esmf">
<ellipse fill="#35b779" stroke="black" cx="442.36" cy="-998" rx="35.42" ry="18"/>
<text text-anchor="middle" x="442.36" y="-993.33" font-family="Times,serif" font-size="14.00">esmf</text>
</a>
</g>
</g>
<!-- netcdf&#45;cxx4 -->
<g id="node3" class="node">
<title>netcdf&#45;cxx4</title>
<g id="a_node3"><a xlink:href="https://github.com/conda-forge/netcdf-cxx4-feedstock" xlink:title="netcdf cxx4">
<ellipse fill="#35b779" stroke="black" cx="442.36" cy="-926" rx="69.1" ry="18"/>
<text text-anchor="middle" x="442.36" y="-921.33" font-family="Times,serif" font-size="14.00">netcdf cxx4</text>
</a>
</g>
</g>
<!-- esmf&#45;&gt;netcdf&#45;cxx4 -->
<!-- libmed -->
<g id="node29" class="node">
<title>libmed</title>
<g id="a_node29"><a xlink:href="https://github.com/conda-forge/libmed-feedstock" xlink:title="libmed">
<ellipse fill="#35b779" stroke="black" cx="442.36" cy="-854" rx="45.42" ry="18"/>
<text text-anchor="middle" x="442.36" y="-849.33" font-family="Times,serif" font-size="14.00">libmed</text>
</a>
</g>
</g>
<!-- netcdf&#45;cxx4&#45;&gt;libmed -->
<!-- fenics -->
<g id="node4" class="node">
<title>fenics</title>
<g id="a_node4"><a xlink:href="https://github.com/conda-forge/fenics-feedstock" xlink:title="fenics">
<ellipse fill="#fde725" stroke="black" cx="1314.36" cy="-1294" rx="40.69" ry="18"/>
<text text-anchor="middle" x="1314.36" y="-1289.33" font-family="Times,serif" font-size="14.00">fenics</text>
</a>
</g>
</g>
<!-- mshr -->
<g id="node5" class="node">
<title>mshr</title>
<g id="a_node5"><a xlink:href="https://github.com/conda-forge/mshr-feedstock" xlink:title="mshr">
<ellipse fill="#fde725" stroke="black" cx="1314.36" cy="-1222" rx="37" ry="18"/>
<text text-anchor="middle" x="1314.36" y="-1217.33" font-family="Times,serif" font-size="14.00">mshr</text>
</a>
</g>
</g>
<!-- fenics&#45;&gt;mshr -->
<g id="edge2" class="edge">
<title>fenics&#45;&gt;mshr</title>
<path fill="none" stroke="black" d="M1314.36,-1275.7C1314.36,-1268.41 1314.36,-1259.73 1314.36,-1251.54"/>
<polygon fill="black" stroke="black" points="1317.86,-1251.62 1314.36,-1241.62 1310.86,-1251.62 1317.86,-1251.62"/>
</g>
<!-- h5py -->
<g id="node6" class="node">
<title>h5py</title>
<g id="a_node6"><a xlink:href="https://github.com/conda-forge/h5py-feedstock" xlink:title="h5py">
<ellipse fill="#35b779" stroke="black" cx="517.36" cy="-1546" rx="35.95" ry="18"/>
<text text-anchor="middle" x="517.36" y="-1541.33" font-family="Times,serif" font-size="14.00">h5py</text>
</a>
</g>
</g>
<!-- openmc -->
<g id="node7" class="node">
<title>openmc</title>
<g id="a_node7"><a xlink:href="https://github.com/conda-forge/openmc-feedstock" xlink:title="openmc">
<ellipse fill="#fde725" stroke="black" cx="834.36" cy="-1474" rx="50.16" ry="18"/>
<text text-anchor="middle" x="834.36" y="-1469.33" font-family="Times,serif" font-size="14.00">openmc</text>
</a>
</g>
</g>
<!-- h5py&#45;&gt;openmc -->
<g id="edge3" class="edge">
<title>h5py&#45;&gt;openmc</title>
<path fill="none" stroke="black" d="M550.64,-1538.61C599.13,-1529.18 691.98,-1510.6 770.36,-1492 774.95,-1490.91 779.72,-1489.73 784.49,-1488.52"/>
<polygon fill="black" stroke="black" points="785.25,-1491.94 794.06,-1486.05 783.5,-1485.16 785.25,-1491.94"/>
</g>
<!-- lalinference -->
<g id="node8" class="node">
<title>lalinference</title>
<g id="a_node8"><a xlink:href="https://github.com/conda-forge/lalinference-feedstock" xlink:title="lalinference">
<ellipse fill="#fde725" stroke="black" cx="339.36" cy="-1474" rx="70.15" ry="18"/>
<text text-anchor="middle" x="339.36" y="-1469.33" font-family="Times,serif" font-size="14.00">lalinference</text>
</a>
</g>
</g>
<!-- h5py&#45;&gt;lalinference -->
<g id="edge4" class="edge">
<title>h5py&#45;&gt;lalinference</title>
<path fill="none" stroke="black" d="M489.55,-1534.06C462.23,-1523.32 420,-1506.71 387.27,-1493.84"/>
<polygon fill="black" stroke="black" points="388.56,-1490.59 377.98,-1490.19 386,-1497.1 388.56,-1490.59"/>
</g>
<!-- lfpy -->
<g id="node9" class="node">
<title>lfpy</title>
<g id="a_node9"><a xlink:href="https://github.com/conda-forge/lfpy-feedstock" xlink:title="lfpy">
<ellipse fill="#fde725" stroke="black" cx="731.36" cy="-1474" rx="30.16" ry="18"/>
<text text-anchor="middle" x="731.36" y="-1469.33" font-family="Times,serif" font-size="14.00">lfpy</text>
</a>
</g>
</g>
<!-- h5py&#45;&gt;lfpy -->
<g id="edge5" class="edge">
<title>h5py&#45;&gt;lfpy</title>
<path fill="none" stroke="black" d="M547.96,-1536.13C582.15,-1526.06 639.05,-1508.84 687.36,-1492 690.23,-1491 693.2,-1489.93 696.17,-1488.83"/>
<polygon fill="black" stroke="black" points="697.26,-1492.16 705.38,-1485.36 694.79,-1485.61 697.26,-1492.16"/>
</g>
<!-- deepmd&#45;kit -->
<g id="node10" class="node">
<title>deepmd&#45;kit</title>
<g id="a_node10"><a xlink:href="https://github.com/conda-forge/deepmd-kit-feedstock" xlink:title="deepmd kit">
<ellipse fill="#fde725" stroke="black" cx="237.36" cy="-1402" rx="67.52" ry="18"/>
<text text-anchor="middle" x="237.36" y="-1397.33" font-family="Times,serif" font-size="14.00">deepmd kit</text>
</a>
</g>
</g>
<!-- h5py&#45;&gt;deepmd&#45;kit -->
<g id="edge6" class="edge">
<title>h5py&#45;&gt;deepmd&#45;kit</title>
<path fill="none" stroke="black" d="M481.67,-1542.24C418.76,-1536.66 291.79,-1521.91 260.36,-1492 244.18,-1476.6 238.82,-1451.44 237.28,-1431.79"/>
<polygon fill="black" stroke="black" points="240.78,-1431.75 236.82,-1421.92 233.79,-1432.07 240.78,-1431.75"/>
</g>
<!-- dedalus -->
<g id="node11" class="node">
<title>dedalus</title>
<g id="a_node11"><a xlink:href="https://github.com/conda-forge/dedalus-feedstock" xlink:title="dedalus">
<ellipse fill="#fde725" stroke="black" cx="713.36" cy="-1330" rx="50.16" ry="18"/>
<text text-anchor="middle" x="713.36" y="-1325.33" font-family="Times,serif" font-size="14.00">dedalus</text>
</a>
</g>
</g>
<!-- h5py&#45;&gt;dedalus -->
<g id="edge7" class="edge">
<title>h5py&#45;&gt;dedalus</title>
<path fill="none" stroke="black" d="M551.03,-1539.23C580.48,-1532.56 622.6,-1518.85 649.36,-1492 686.18,-1455.06 702.48,-1394.29 709.17,-1358.93"/>
<polygon fill="black" stroke="black" points="712.55,-1359.93 710.82,-1349.47 705.65,-1358.72 712.55,-1359.93"/>
</g>
<!-- ondamonitor -->
<g id="node12" class="node">
<title>ondamonitor</title>
<g id="a_node12"><a xlink:href="https://github.com/conda-forge/ondamonitor-feedstock" xlink:title="ondamonitor">
<ellipse fill="#fde725" stroke="black" cx="700.36" cy="-1258" rx="74.88" ry="18"/>
<text text-anchor="middle" x="700.36" y="-1253.33" font-family="Times,serif" font-size="14.00">ondamonitor</text>
</a>
</g>
</g>
<!-- h5py&#45;&gt;ondamonitor -->
<g id="edge8" class="edge">
<title>h5py&#45;&gt;ondamonitor</title>
<path fill="none" stroke="black" d="M547.15,-1535.47C568.18,-1527.23 595.35,-1513.24 611.36,-1492 660.87,-1426.32 616.77,-1385.16 654.36,-1312 659.57,-1301.87 667.11,-1292.06 674.58,-1283.7"/>
<polygon fill="black" stroke="black" points="676.91,-1286.34 681.21,-1276.66 671.81,-1281.54 676.91,-1286.34"/>
</g>
<!-- alamode -->
<g id="node13" class="node">
<title>alamode</title>
<g id="a_node13"><a xlink:href="https://github.com/conda-forge/alamode-feedstock" xlink:title="alamode">
<ellipse fill="#fde725" stroke="black" cx="597.36" cy="-1186" rx="53.31" ry="18"/>
<text text-anchor="middle" x="597.36" y="-1181.33" font-family="Times,serif" font-size="14.00">alamode</text>
</a>
</g>
</g>
<!-- h5py&#45;&gt;alamode -->
<g id="edge9" class="edge">
<title>h5py&#45;&gt;alamode</title>
<path fill="none" stroke="black" d="M539.21,-1531.39C552.54,-1521.95 568.81,-1508.19 578.36,-1492 598.91,-1457.16 597.36,-1443.45 597.36,-1403 597.36,-1403 597.36,-1403 597.36,-1329 597.36,-1289.74 597.36,-1244.38 597.36,-1215.69"/>
<polygon fill="black" stroke="black" points="600.86,-1216 597.36,-1206 593.86,-1216 600.86,-1216"/>
</g>
<!-- veloxchem -->
<g id="node14" class="node">
<title>veloxchem</title>
<g id="a_node14"><a xlink:href="https://github.com/conda-forge/veloxchem-feedstock" xlink:title="veloxchem">
<ellipse fill="#fde725" stroke="black" cx="64.36" cy="-1474" rx="64.36" ry="18"/>
<text text-anchor="middle" x="64.36" y="-1469.33" font-family="Times,serif" font-size="14.00">veloxchem</text>
</a>
</g>
</g>
<!-- h5py&#45;&gt;veloxchem -->
<g id="edge10" class="edge">
<title>h5py&#45;&gt;veloxchem</title>
<path fill="none" stroke="black" d="M482.45,-1541.15C415.45,-1533.52 264.3,-1515.23 138.36,-1492 133.2,-1491.05 127.86,-1489.98 122.52,-1488.86"/>
<polygon fill="black" stroke="black" points="123.6,-1485.51 113.08,-1486.82 122.12,-1492.35 123.6,-1485.51"/>
</g>
<!-- heat -->
<g id="node15" class="node">
<title>heat</title>
<g id="a_node15"><a xlink:href="https://github.com/conda-forge/heat-feedstock" xlink:title="heat">
<ellipse fill="#fde725" stroke="black" cx="180.36" cy="-1474" rx="33.32" ry="18"/>
<text text-anchor="middle" x="180.36" y="-1469.33" font-family="Times,serif" font-size="14.00">heat</text>
</a>
</g>
</g>
<!-- h5py&#45;&gt;heat -->
<g id="edge11" class="edge">
<title>h5py&#45;&gt;heat</title>
<path fill="none" stroke="black" d="M482.57,-1540.55C427.72,-1533.11 318.03,-1516.5 227.36,-1492 224.03,-1491.1 220.61,-1490.07 217.19,-1488.97"/>
<polygon fill="black" stroke="black" points="218.49,-1485.72 207.9,-1485.8 216.23,-1492.34 218.49,-1485.72"/>
</g>
<!-- horovod -->
<g id="node16" class="node">
<title>horovod</title>
<g id="a_node16"><a xlink:href="https://github.com/conda-forge/horovod-feedstock" xlink:title="horovod">
<ellipse fill="#fde725" stroke="black" cx="517.36" cy="-1474" rx="51.74" ry="18"/>
<text text-anchor="middle" x="517.36" y="-1469.33" font-family="Times,serif" font-size="14.00">horovod</text>
</a>
</g>
</g>
<!-- h5py&#45;&gt;horovod -->
<g id="edge12" class="edge">
<title>h5py&#45;&gt;horovod</title>
<path fill="none" stroke="black" d="M517.36,-1527.7C517.36,-1520.41 517.36,-1511.73 517.36,-1503.54"/>
<polygon fill="black" stroke="black" points="520.86,-1503.62 517.36,-1493.62 513.86,-1503.62 520.86,-1503.62"/>
</g>
<!-- fluidfft&#45;mpi_with_fftw -->
<g id="node17" class="node">
<title>fluidfft&#45;mpi_with_fftw</title>
<g id="a_node17"><a xlink:href="https://github.com/conda-forge/fluidfft-mpi_with_fftw-feedstock" xlink:title="fluidfft mpi_with_fftw">
<ellipse fill="#fde725" stroke="black" cx="440.36" cy="-1402" rx="117.5" ry="18"/>
<text text-anchor="middle" x="440.36" y="-1397.33" font-family="Times,serif" font-size="14.00">fluidfft mpi_with_fftw</text>
</a>
</g>
</g>
<!-- h5py&#45;&gt;fluidfft&#45;mpi_with_fftw -->
<g id="edge13" class="edge">
<title>h5py&#45;&gt;fluidfft&#45;mpi_with_fftw</title>
<path fill="none" stroke="black" d="M495.33,-1531.5C481.93,-1522.1 465.65,-1508.35 456.36,-1492 445.91,-1473.61 442.03,-1449.93 440.7,-1431.62"/>
<polygon fill="black" stroke="black" points="444.2,-1431.53 440.21,-1421.72 437.21,-1431.88 444.2,-1431.53"/>
</g>
<!-- moab -->
<g id="node18" class="node">
<title>moab</title>
<g id="a_node18"><a xlink:href="https://github.com/conda-forge/moab-feedstock" xlink:title="moab">
<ellipse fill="#35b779" stroke="black" cx="837.36" cy="-1618" rx="38.58" ry="18"/>
<text text-anchor="middle" x="837.36" y="-1613.33" font-family="Times,serif" font-size="14.00">moab</text>
</a>
</g>
</g>
<!-- dagmc -->
<g id="node19" class="node">
<title>dagmc</title>
<g id="a_node19"><a xlink:href="https://github.com/conda-forge/dagmc-feedstock" xlink:title="dagmc">
<ellipse fill="#fde725" stroke="black" cx="837.36" cy="-1546" rx="44.37" ry="18"/>
<text text-anchor="middle" x="837.36" y="-1541.33" font-family="Times,serif" font-size="14.00">dagmc</text>
</a>
</g>
</g>
<!-- moab&#45;&gt;dagmc -->
<g id="edge14" class="edge">
<title>moab&#45;&gt;dagmc</title>
<path fill="none" stroke="black" d="M837.36,-1599.7C837.36,-1592.41 837.36,-1583.73 837.36,-1575.54"/>
<polygon fill="black" stroke="black" points="840.86,-1575.62 837.36,-1565.62 833.86,-1575.62 840.86,-1575.62"/>
</g>
<!-- dagmc&#45;&gt;openmc -->
<g id="edge15" class="edge">
<title>dagmc&#45;&gt;openmc</title>
<path fill="none" stroke="black" d="M836.62,-1527.7C836.31,-1520.41 835.93,-1511.73 835.58,-1503.54"/>
<polygon fill="black" stroke="black" points="839.08,-1503.46 835.16,-1493.62 832.09,-1503.76 839.08,-1503.46"/>
</g>
<!-- mumps -->
<g id="node20" class="node">
<title>mumps</title>
<g id="a_node20"><a xlink:href="https://github.com/conda-forge/mumps-feedstock/pull/116" xlink:title="mumps ✓">
<ellipse fill="#31688e" stroke="black" cx="1037.36" cy="-1582" rx="55.94" ry="18"/>
<text text-anchor="middle" x="1037.36" y="-1577.33" font-family="Times,serif" font-size="14.00" fill="white">mumps ✓</text>
</a>
</g>
</g>
<!-- petsc -->
<g id="node21" class="node">
<title>petsc</title>
<g id="a_node21"><a xlink:href="https://github.com/conda-forge/petsc-feedstock" xlink:title="petsc">
<ellipse fill="#fde725" stroke="black" cx="1275.36" cy="-1510" rx="38.06" ry="18"/>
<text text-anchor="middle" x="1275.36" y="-1505.33" font-family="Times,serif" font-size="14.00">petsc</text>
</a>
</g>
</g>
<!-- mumps&#45;&gt;petsc -->
<g id="edge16" class="edge">
<title>mumps&#45;&gt;petsc</title>
<path fill="none" stroke="black" d="M1077.73,-1569.13C1120.8,-1556.46 1188.74,-1536.48 1232.67,-1523.56"/>
<polygon fill="black" stroke="black" points="1233.51,-1526.96 1242.11,-1520.78 1231.53,-1520.24 1233.51,-1526.96"/>
</g>
<!-- daetk -->
<g id="node22" class="node">
<title>daetk</title>
<g id="a_node22"><a xlink:href="https://github.com/conda-forge/daetk-feedstock" xlink:title="daetk">
<ellipse fill="#fde725" stroke="black" cx="1037.36" cy="-1438" rx="39.11" ry="18"/>
<text text-anchor="middle" x="1037.36" y="-1433.33" font-family="Times,serif" font-size="14.00">daetk</text>
</a>
</g>
</g>
<!-- mumps&#45;&gt;daetk -->
<g id="edge17" class="edge">
<title>mumps&#45;&gt;daetk</title>
<path fill="none" stroke="black" d="M1037.36,-1563.59C1037.36,-1539.61 1037.36,-1496.14 1037.36,-1467.42"/>
<polygon fill="black" stroke="black" points="1040.86,-1467.62 1037.36,-1457.62 1033.86,-1467.62 1040.86,-1467.62"/>
</g>
<!-- freefem -->
<g id="node23" class="node">
<title>freefem</title>
<g id="a_node23"><a xlink:href="https://github.com/conda-forge/freefem-feedstock" xlink:title="freefem">
<ellipse fill="#fde725" stroke="black" cx="1159.36" cy="-1366" rx="50.16" ry="18"/>
<text text-anchor="middle" x="1159.36" y="-1361.33" font-family="Times,serif" font-size="14.00">freefem</text>
</a>
</g>
</g>
<!-- mumps&#45;&gt;freefem -->
<g id="edge18" class="edge">
<title>mumps&#45;&gt;freefem</title>
<path fill="none" stroke="black" d="M1023.64,-1564.3C999.77,-1533.12 956.17,-1465.11 989.36,-1420 1003.18,-1401.22 1059.75,-1386.16 1103.89,-1376.97"/>
<polygon fill="black" stroke="black" points="1104.5,-1380.42 1113.61,-1375 1103.12,-1373.56 1104.5,-1380.42"/>
</g>
<!-- petsc&#45;&gt;fenics -->
<g id="edge19" class="edge">
<title>petsc&#45;&gt;fenics</title>
<path fill="none" stroke="black" d="M1245.67,-1498.23C1183.56,-1474.1 1049.73,-1412.7 1100.36,-1348 1120.28,-1322.55 1207.03,-1307.61 1263.78,-1300.4"/>
<polygon fill="black" stroke="black" points="1264.05,-1303.89 1273.55,-1299.2 1263.2,-1296.94 1264.05,-1303.89"/>
</g>
<!-- petsc&#45;&gt;daetk -->
<g id="edge20" class="edge">
<title>petsc&#45;&gt;daetk</title>
<path fill="none" stroke="black" d="M1243.19,-1500.11C1206.21,-1489.82 1143.75,-1472.21 1090.36,-1456 1086.85,-1454.93 1083.21,-1453.81 1079.56,-1452.67"/>
<polygon fill="black" stroke="black" points="1080.73,-1449.37 1070.14,-1449.69 1078.62,-1456.04 1080.73,-1449.37"/>
</g>
<!-- petsc&#45;&gt;freefem -->
<g id="edge21" class="edge">
<title>petsc&#45;&gt;freefem</title>
<path fill="none" stroke="black" d="M1261.06,-1492.94C1251.88,-1482.52 1239.76,-1468.58 1229.36,-1456 1211.87,-1434.84 1192.63,-1410.28 1178.76,-1392.33"/>
<polygon fill="black" stroke="black" points="1181.83,-1390.58 1172.95,-1384.79 1176.28,-1394.85 1181.83,-1390.58"/>
</g>
<!-- petsc4py -->
<g id="node24" class="node">
<title>petsc4py</title>
<g id="a_node24"><a xlink:href="https://github.com/conda-forge/petsc4py-feedstock" xlink:title="petsc4py">
<ellipse fill="#fde725" stroke="black" cx="1465.36" cy="-1438" rx="56.47" ry="18"/>
<text text-anchor="middle" x="1465.36" y="-1433.33" font-family="Times,serif" font-size="14.00">petsc4py</text>
</a>
</g>
</g>
<!-- petsc&#45;&gt;petsc4py -->
<g id="edge22" class="edge">
<title>petsc&#45;&gt;petsc4py</title>
<path fill="none" stroke="black" d="M1304.63,-1498.22C1335.1,-1486.99 1383.27,-1469.24 1418.94,-1456.1"/>
<polygon fill="black" stroke="black" points="1419.98,-1459.45 1428.15,-1452.71 1417.56,-1452.88 1419.98,-1459.45"/>
</g>
<!-- slepc -->
<g id="node25" class="node">
<title>slepc</title>
<g id="a_node25"><a xlink:href="https://github.com/conda-forge/slepc-feedstock" xlink:title="slepc">
<ellipse fill="#fde725" stroke="black" cx="1275.36" cy="-1438" rx="37" ry="18"/>
<text text-anchor="middle" x="1275.36" y="-1433.33" font-family="Times,serif" font-size="14.00">slepc</text>
</a>
</g>
</g>
<!-- petsc&#45;&gt;slepc -->
<g id="edge23" class="edge">
<title>petsc&#45;&gt;slepc</title>
<path fill="none" stroke="black" d="M1275.36,-1491.7C1275.36,-1484.41 1275.36,-1475.73 1275.36,-1467.54"/>
<polygon fill="black" stroke="black" points="1278.86,-1467.62 1275.36,-1457.62 1271.86,-1467.62 1278.86,-1467.62"/>
</g>
<!-- yambo -->
<g id="node26" class="node">
<title>yambo</title>
<g id="a_node26"><a xlink:href="https://github.com/conda-forge/yambo-feedstock" xlink:title="yambo">
<ellipse fill="#fde725" stroke="black" cx="1347.36" cy="-1366" rx="44.37" ry="18"/>
<text text-anchor="middle" x="1347.36" y="-1361.33" font-family="Times,serif" font-size="14.00">yambo</text>
</a>
</g>
</g>
<!-- petsc&#45;&gt;yambo -->
<g id="edge24" class="edge">
<title>petsc&#45;&gt;yambo</title>
<path fill="none" stroke="black" d="M1291.86,-1493.68C1301.67,-1483.77 1313.66,-1470.12 1321.36,-1456 1331.68,-1437.08 1338.32,-1413.61 1342.3,-1395.52"/>
<polygon fill="black" stroke="black" points="1345.73,-1396.22 1344.3,-1385.73 1338.87,-1394.83 1345.73,-1396.22"/>
</g>
<!-- fenics&#45;dolfinx -->
<g id="node27" class="node">
<title>fenics&#45;dolfinx</title>
<g id="a_node27"><a xlink:href="https://github.com/conda-forge/fenics-dolfinx-feedstock" xlink:title="fenics dolfinx">
<ellipse fill="#fde725" stroke="black" cx="1528.36" cy="-1294" rx="77.52" ry="18"/>
<text text-anchor="middle" x="1528.36" y="-1289.33" font-family="Times,serif" font-size="14.00">fenics dolfinx</text>
</a>
</g>
</g>
<!-- petsc&#45;&gt;fenics&#45;dolfinx -->
<g id="edge25" class="edge">
<title>petsc&#45;&gt;fenics&#45;dolfinx</title>
<path fill="none" stroke="black" d="M1313.59,-1509.42C1366.47,-1508.25 1463.01,-1499.66 1530.36,-1456 1575.06,-1427.02 1602.98,-1397.12 1582.36,-1348 1577.75,-1337.01 1569.62,-1327.15 1561.05,-1319"/>
<polygon fill="black" stroke="black" points="1563.4,-1316.41 1553.58,-1312.44 1558.78,-1321.67 1563.4,-1316.41"/>
</g>
<!-- dolfinx_mpc -->
<g id="node28" class="node">
<title>dolfinx_mpc</title>
<g id="a_node28"><a xlink:href="https://github.com/conda-forge/dolfinx_mpc-feedstock" xlink:title="dolfinx_mpc">
<ellipse fill="#fde725" stroke="black" cx="1607.36" cy="-1222" rx="70.68" ry="18"/>
<text text-anchor="middle" x="1607.36" y="-1217.33" font-family="Times,serif" font-size="14.00">dolfinx_mpc</text>
</a>
</g>
</g>
<!-- petsc&#45;&gt;dolfinx_mpc -->
<g id="edge26" class="edge">
<title>petsc&#45;&gt;dolfinx_mpc</title>
<path fill="none" stroke="black" d="M1313.1,-1506.35C1382.38,-1500.82 1526.35,-1485.98 1565.36,-1456 1627.52,-1408.24 1620.37,-1302.33 1612.69,-1251.42"/>
<polygon fill="black" stroke="black" points="1616.18,-1251.08 1611.11,-1241.78 1609.27,-1252.22 1616.18,-1251.08"/>
</g>
<!-- petsc4py&#45;&gt;fenics -->
<g id="edge30" class="edge">
<title>petsc4py&#45;&gt;fenics</title>
<path fill="none" stroke="black" d="M1455.76,-1420.07C1444.34,-1400.96 1423.82,-1369.69 1400.36,-1348 1385.64,-1334.39 1366.93,-1322.37 1350.72,-1313.24"/>
<polygon fill="black" stroke="black" points="1352.79,-1310.38 1342.33,-1308.65 1349.43,-1316.52 1352.79,-1310.38"/>
</g>
<!-- petsc4py&#45;&gt;fenics&#45;dolfinx -->
<g id="edge31" class="edge">
<title>petsc4py&#45;&gt;fenics&#45;dolfinx</title>
<path fill="none" stroke="black" d="M1508.35,-1425.92C1529.76,-1418 1553.71,-1404.93 1566.36,-1384 1578.57,-1363.8 1565.93,-1338.96 1552.04,-1320.66"/>
<polygon fill="black" stroke="black" points="1554.77,-1318.47 1545.74,-1312.92 1549.34,-1322.89 1554.77,-1318.47"/>
</g>
<!-- slepc4py -->
<g id="node32" class="node">
<title>slepc4py</title>
<g id="a_node32"><a xlink:href="https://github.com/conda-forge/slepc4py-feedstock" xlink:title="slepc4py">
<ellipse fill="#fde725" stroke="black" cx="1502.36" cy="-1366" rx="55.42" ry="18"/>
<text text-anchor="middle" x="1502.36" y="-1361.33" font-family="Times,serif" font-size="14.00">slepc4py</text>
</a>
</g>
</g>
<!-- petsc4py&#45;&gt;slepc4py -->
<g id="edge32" class="edge">
<title>petsc4py&#45;&gt;slepc4py</title>
<path fill="none" stroke="black" d="M1474.32,-1420.05C1478.5,-1412.14 1483.58,-1402.54 1488.25,-1393.69"/>
<polygon fill="black" stroke="black" points="1491.2,-1395.6 1492.78,-1385.13 1485.01,-1392.33 1491.2,-1395.6"/>
</g>
<!-- slepc&#45;&gt;fenics -->
<g id="edge33" class="edge">
<title>slepc&#45;&gt;fenics</title>
<path fill="none" stroke="black" d="M1267.43,-1419.96C1260.05,-1401.56 1251.54,-1371.7 1261.36,-1348 1266.23,-1336.25 1275.11,-1325.74 1284.22,-1317.25"/>
<polygon fill="black" stroke="black" points="1286.49,-1319.91 1291.77,-1310.73 1281.91,-1314.62 1286.49,-1319.91"/>
</g>
<!-- slepc&#45;&gt;freefem -->
<g id="edge34" class="edge">
<title>slepc&#45;&gt;freefem</title>
<path fill="none" stroke="black" d="M1252.72,-1423.34C1236.06,-1413.29 1213.12,-1399.44 1194.14,-1387.99"/>
<polygon fill="black" stroke="black" points="1196.02,-1385.04 1185.65,-1382.87 1192.41,-1391.03 1196.02,-1385.04"/>
</g>
<!-- slepc&#45;&gt;yambo -->
<g id="edge35" class="edge">
<title>slepc&#45;&gt;yambo</title>
<path fill="none" stroke="black" d="M1291.34,-1421.46C1300.62,-1412.44 1312.51,-1400.88 1322.95,-1390.73"/>
<polygon fill="black" stroke="black" points="1325.11,-1393.51 1329.84,-1384.03 1320.23,-1388.49 1325.11,-1393.51"/>
</g>
<!-- slepc&#45;&gt;fenics&#45;dolfinx -->
<g id="edge36" class="edge">
<title>slepc&#45;&gt;fenics&#45;dolfinx</title>
<path fill="none" stroke="black" d="M1273.95,-1419.73C1273.33,-1399.7 1275.6,-1367 1294.36,-1348 1315.74,-1326.35 1388.92,-1312.15 1447.82,-1303.95"/>
<polygon fill="black" stroke="black" points="1448.07,-1307.45 1457.51,-1302.64 1447.13,-1300.51 1448.07,-1307.45"/>
</g>
<!-- slepc&#45;&gt;slepc4py -->
<g id="edge37" class="edge">
<title>slepc&#45;&gt;slepc4py</title>
<path fill="none" stroke="black" d="M1305.98,-1427.56C1343.46,-1416 1407.47,-1396.26 1452.19,-1382.47"/>
<polygon fill="black" stroke="black" points="1453.14,-1385.84 1461.67,-1379.55 1451.08,-1379.15 1453.14,-1385.84"/>
</g>
<!-- fenics&#45;dolfinx&#45;&gt;dolfinx_mpc -->
<g id="edge38" class="edge">
<title>fenics&#45;dolfinx&#45;&gt;dolfinx_mpc</title>
<path fill="none" stroke="black" d="M1547.08,-1276.41C1556.95,-1267.67 1569.23,-1256.79 1580.13,-1247.13"/>
<polygon fill="black" stroke="black" points="1582.2,-1249.97 1587.37,-1240.72 1577.56,-1244.73 1582.2,-1249.97"/>
</g>
<!-- parabem -->
<g id="node33" class="node">
<title>parabem</title>
<g id="a_node33"><a xlink:href="https://github.com/conda-forge/parabem-feedstock/pull/17" xlink:title="parabem ❎">
<ellipse fill="#31688e" stroke="black" cx="442.36" cy="-782" rx="70.68" ry="18"/>
<text text-anchor="middle" x="442.36" y="-777.33" font-family="Times,serif" font-size="14.00" fill="white">parabem ❎</text>
</a>
</g>
</g>
<!-- libmed&#45;&gt;parabem -->
<!-- netcdf4 -->
<g id="node30" class="node">
<title>netcdf4</title>
<g id="a_node30"><a xlink:href="https://github.com/conda-forge/netcdf4-feedstock" xlink:title="netcdf4">
<ellipse fill="#35b779" stroke="black" cx="122.36" cy="-1546" rx="49.1" ry="18"/>
<text text-anchor="middle" x="122.36" y="-1541.33" font-family="Times,serif" font-size="14.00">netcdf4</text>
</a>
</g>
</g>
<!-- netcdf4&#45;&gt;veloxchem -->
<g id="edge28" class="edge">
<title>netcdf4&#45;&gt;veloxchem</title>
<path fill="none" stroke="black" d="M108.62,-1528.41C101.78,-1520.16 93.37,-1510.01 85.72,-1500.78"/>
<polygon fill="black" stroke="black" points="88.45,-1498.59 79.38,-1493.12 83.06,-1503.05 88.45,-1498.59"/>
</g>
<!-- netcdf4&#45;&gt;heat -->
<g id="edge29" class="edge">
<title>netcdf4&#45;&gt;heat</title>
<path fill="none" stroke="black" d="M136.11,-1528.41C143.21,-1519.83 152.03,-1509.19 159.92,-1499.67"/>
<polygon fill="black" stroke="black" points="162.46,-1502.09 166.15,-1492.15 157.07,-1497.62 162.46,-1502.09"/>
</g>
<!-- siesta -->
<g id="node31" class="node">
<title>siesta</title>
<g id="a_node31"><a xlink:href="https://github.com/conda-forge/siesta-feedstock" xlink:title="siesta">
<ellipse fill="#fde725" stroke="black" cx="1371.36" cy="-638" rx="40.69" ry="18"/>
<text text-anchor="middle" x="1371.36" y="-633.33" font-family="Times,serif" font-size="14.00">siesta</text>
</a>
</g>
</g>
<!-- slepc4py&#45;&gt;fenics -->
<g id="edge39" class="edge">
<title>slepc4py&#45;&gt;fenics</title>
<path fill="none" stroke="black" d="M1467,-1351.83C1435.37,-1340.06 1388.99,-1322.79 1355.66,-1310.38"/>
<polygon fill="black" stroke="black" points="1356.91,-1307.11 1346.32,-1306.9 1354.47,-1313.67 1356.91,-1307.11"/>
</g>
<!-- slepc4py&#45;&gt;fenics&#45;dolfinx -->
<g id="edge40" class="edge">
<title>slepc4py&#45;&gt;fenics&#45;dolfinx</title>
<path fill="none" stroke="black" d="M1508.79,-1347.7C1511.59,-1340.15 1514.95,-1331.12 1518.08,-1322.68"/>
<polygon fill="black" stroke="black" points="1521.28,-1324.12 1521.48,-1313.52 1514.72,-1321.68 1521.28,-1324.12"/>
</g>
<!-- dakota -->
<g id="node36" class="node">
<title>dakota</title>
<g id="a_node36"><a xlink:href="https://github.com/conda-forge/dakota-feedstock" xlink:title="dakota">
<ellipse fill="#35b779" stroke="black" cx="442.36" cy="-710" rx="44.9" ry="18"/>
<text text-anchor="middle" x="442.36" y="-705.33" font-family="Times,serif" font-size="14.00">dakota</text>
</a>
</g>
</g>
<!-- parabem&#45;&gt;dakota -->
<!-- openpmd&#45;api -->
<g id="node34" class="node">
<title>openpmd&#45;api</title>
<g id="a_node34"><a xlink:href="https://github.com/conda-forge/openpmd-api-feedstock" xlink:title="openpmd api">
<ellipse fill="#fde725" stroke="black" cx="968.36" cy="-1222" rx="75.94" ry="18"/>
<text text-anchor="middle" x="968.36" y="-1217.33" font-family="Times,serif" font-size="14.00">openpmd api</text>
</a>
</g>
</g>
<!-- neuron -->
<g id="node35" class="node">
<title>neuron</title>
<g id="a_node35"><a xlink:href="https://github.com/conda-forge/neuron-feedstock" xlink:title="neuron">
<ellipse fill="#35b779" stroke="black" cx="728.36" cy="-1546" rx="46.47" ry="18"/>
<text text-anchor="middle" x="728.36" y="-1541.33" font-family="Times,serif" font-size="14.00">neuron</text>
</a>
</g>
</g>
<!-- neuron&#45;&gt;lfpy -->
<g id="edge42" class="edge">
<title>neuron&#45;&gt;lfpy</title>
<path fill="none" stroke="black" d="M729.1,-1527.7C729.41,-1520.41 729.79,-1511.73 730.14,-1503.54"/>
<polygon fill="black" stroke="black" points="733.63,-1503.76 730.56,-1493.62 726.64,-1503.46 733.63,-1503.76"/>
</g>
<!-- scorec -->
<g id="node38" class="node">
<title>scorec</title>
<g id="a_node38"><a xlink:href="https://github.com/conda-forge/scorec-feedstock/pull/12" xlink:title="scorec ❎">
<ellipse fill="#31688e" stroke="black" cx="442.36" cy="-638" rx="58.57" ry="18"/>
<text text-anchor="middle" x="442.36" y="-633.33" font-family="Times,serif" font-size="14.00" fill="white">scorec ❎</text>
</a>
</g>
</g>
<!-- dakota&#45;&gt;scorec -->
<!-- adios2 -->
<g id="node37" class="node">
<title>adios2</title>
<g id="a_node37"><a xlink:href="https://github.com/conda-forge/adios2-feedstock" xlink:title="adios2">
<ellipse fill="#35b779" stroke="black" cx="1009.36" cy="-1366" rx="43.84" ry="18"/>
<text text-anchor="middle" x="1009.36" y="-1361.33" font-family="Times,serif" font-size="14.00">adios2</text>
</a>
</g>
</g>
<!-- adios2&#45;&gt;casacore -->
<g id="edge44" class="edge">
<title>adios2&#45;&gt;casacore</title>
<path fill="none" stroke="black" d="M1019.53,-1348.05C1024.33,-1340.06 1030.16,-1330.33 1035.52,-1321.4"/>
<polygon fill="black" stroke="black" points="1038.36,-1323.46 1040.51,-1313.09 1032.36,-1319.86 1038.36,-1323.46"/>
</g>
<!-- adios2&#45;&gt;fenics&#45;dolfinx -->
<g id="edge45" class="edge">
<title>adios2&#45;&gt;fenics&#45;dolfinx</title>
<path fill="none" stroke="black" d="M1048.24,-1357.19C1064.33,-1354.1 1083.21,-1350.66 1100.36,-1348 1220.91,-1329.29 1361.39,-1312.93 1447.59,-1303.5"/>
<polygon fill="black" stroke="black" points="1447.8,-1307 1457.36,-1302.44 1447.04,-1300.04 1447.8,-1307"/>
</g>
<!-- adios2&#45;&gt;openpmd&#45;api -->
<g id="edge46" class="edge">
<title>adios2&#45;&gt;openpmd&#45;api</title>
<path fill="none" stroke="black" d="M1001.42,-1348.11C996.82,-1337.84 991.21,-1324.37 987.36,-1312 981.18,-1292.14 976.33,-1269.18 973.08,-1251.55"/>
<polygon fill="black" stroke="black" points="976.54,-1251.03 971.35,-1241.79 969.65,-1252.25 976.54,-1251.03"/>
</g>
<!-- netcdf&#45;cxx&#45;legacy -->
<g id="node43" class="node">
<title>netcdf&#45;cxx&#45;legacy</title>
<g id="a_node43"><a xlink:href="https://github.com/conda-forge/netcdf-cxx-legacy-feedstock" xlink:title="netcdf cxx legacy">
<ellipse fill="#35b779" stroke="black" cx="442.36" cy="-566" rx="98.03" ry="18"/>
<text text-anchor="middle" x="442.36" y="-561.33" font-family="Times,serif" font-size="14.00">netcdf cxx legacy</text>
</a>
</g>
</g>
<!-- scorec&#45;&gt;netcdf&#45;cxx&#45;legacy -->
<!-- triqs -->
<g id="node39" class="node">
<title>triqs</title>
<g id="a_node39"><a xlink:href="https://github.com/conda-forge/triqs-feedstock" xlink:title="triqs">
<ellipse fill="#35b779" stroke="black" cx="1831.36" cy="-746" rx="34.9" ry="18"/>
<text text-anchor="middle" x="1831.36" y="-741.33" font-family="Times,serif" font-size="14.00">triqs</text>
</a>
</g>
</g>
<!-- triqs_tprf -->
<g id="node40" class="node">
<title>triqs_tprf</title>
<g id="a_node40"><a xlink:href="https://github.com/conda-forge/triqs_tprf-feedstock" xlink:title="triqs_tprf">
<ellipse fill="#fde725" stroke="black" cx="1744.36" cy="-674" rx="58.57" ry="18"/>
<text text-anchor="middle" x="1744.36" y="-669.33" font-family="Times,serif" font-size="14.00">triqs_tprf</text>
</a>
</g>
</g>
<!-- triqs&#45;&gt;triqs_tprf -->
<g id="edge48" class="edge">
<title>triqs&#45;&gt;triqs_tprf</title>
<path fill="none" stroke="black" d="M1813.33,-730.5C1801.77,-721.19 1786.49,-708.9 1773.26,-698.25"/>
<polygon fill="black" stroke="black" points="1775.66,-695.69 1765.67,-692.15 1771.27,-701.14 1775.66,-695.69"/>
</g>
<!-- triqs_cthyb -->
<g id="node41" class="node">
<title>triqs_cthyb</title>
<g id="a_node41"><a xlink:href="https://github.com/conda-forge/triqs_cthyb-feedstock" xlink:title="triqs_cthyb">
<ellipse fill="#fde725" stroke="black" cx="1831.36" cy="-602" rx="67.52" ry="18"/>
<text text-anchor="middle" x="1831.36" y="-597.33" font-family="Times,serif" font-size="14.00">triqs_cthyb</text>
</a>
</g>
</g>
<!-- triqs&#45;&gt;triqs_cthyb -->
<g id="edge49" class="edge">
<title>triqs&#45;&gt;triqs_cthyb</title>
<path fill="none" stroke="black" d="M1831.36,-727.59C1831.36,-703.61 1831.36,-660.14 1831.36,-631.42"/>
<polygon fill="black" stroke="black" points="1834.86,-631.62 1831.36,-621.62 1827.86,-631.62 1834.86,-631.62"/>
</g>
<!-- triqs_dft_tools -->
<g id="node42" class="node">
<title>triqs_dft_tools</title>
<g id="a_node42"><a xlink:href="https://github.com/conda-forge/triqs_dft_tools-feedstock" xlink:title="triqs_dft_tools">
<ellipse fill="#fde725" stroke="black" cx="1927.36" cy="-530" rx="82.77" ry="18"/>
<text text-anchor="middle" x="1927.36" y="-525.33" font-family="Times,serif" font-size="14.00">triqs_dft_tools</text>
</a>
</g>
</g>
<!-- triqs&#45;&gt;triqs_dft_tools -->
<g id="edge50" class="edge">
<title>triqs&#45;&gt;triqs_dft_tools</title>
<path fill="none" stroke="black" d="M1843.75,-728.99C1860.85,-706.09 1891.48,-662.11 1908.36,-620 1916.15,-600.58 1920.96,-577.43 1923.8,-559.61"/>
<polygon fill="black" stroke="black" points="1927.26,-560.14 1925.24,-549.74 1920.33,-559.13 1927.26,-560.14"/>
</g>
<!-- conduit -->
<g id="node44" class="node">
<title>conduit</title>
<g id="a_node44"><a xlink:href="https://github.com/conda-forge/conduit-feedstock" xlink:title="conduit">
<ellipse fill="#35b779" stroke="black" cx="442.36" cy="-494" rx="48.58" ry="18"/>
<text text-anchor="middle" x="442.36" y="-489.32" font-family="Times,serif" font-size="14.00">conduit</text>
</a>
</g>
</g>
<!-- netcdf&#45;cxx&#45;legacy&#45;&gt;conduit -->
<!-- parsplice -->
<g id="node45" class="node">
<title>parsplice</title>
<g id="a_node45"><a xlink:href="https://github.com/conda-forge/parsplice-feedstock/pull/13" xlink:title="parsplice ❎">
<ellipse fill="#31688e" stroke="black" cx="442.36" cy="-422" rx="72.25" ry="18"/>
<text text-anchor="middle" x="442.36" y="-417.32" font-family="Times,serif" font-size="14.00" fill="white">parsplice ❎</text>
</a>
</g>
</g>
<!-- conduit&#45;&gt;parsplice -->
<!-- parsmurf -->
<g id="node46" class="node">
<title>parsmurf</title>
<g id="a_node46"><a xlink:href="https://github.com/conda-forge/parsmurf-feedstock/pull/4" xlink:title="parsmurf ❎">
<ellipse fill="#31688e" stroke="black" cx="442.36" cy="-350" rx="72.78" ry="18"/>
<text text-anchor="middle" x="442.36" y="-345.32" font-family="Times,serif" font-size="14.00" fill="white">parsmurf ❎</text>
</a>
</g>
</g>
<!-- parsplice&#45;&gt;parsmurf -->
<!-- mrchem -->
<g id="node50" class="node">
<title>mrchem</title>
<g id="a_node50"><a xlink:href="https://github.com/conda-forge/mrchem-feedstock/pull/28" xlink:title="mrchem ❎">
<ellipse fill="#31688e" stroke="black" cx="442.36" cy="-278" rx="67.52" ry="18"/>
<text text-anchor="middle" x="442.36" y="-273.32" font-family="Times,serif" font-size="14.00" fill="white">mrchem ❎</text>
</a>
</g>
</g>
<!-- parsmurf&#45;&gt;mrchem -->
<!-- qe -->
<g id="node47" class="node">
<title>qe</title>
<g id="a_node47"><a xlink:href="https://github.com/conda-forge/qe-feedstock" xlink:title="qe">
<ellipse fill="#fde725" stroke="black" cx="1440.36" cy="-566" rx="27" ry="18"/>
<text text-anchor="middle" x="1440.36" y="-561.33" font-family="Times,serif" font-size="14.00">qe</text>
</a>
</g>
</g>
<!-- dftbplus -->
<g id="node48" class="node">
<title>dftbplus</title>
<g id="a_node48"><a xlink:href="https://github.com/conda-forge/dftbplus-feedstock" xlink:title="dftbplus">
<ellipse fill="#fde725" stroke="black" cx="1192.36" cy="-494" rx="52.79" ry="18"/>
<text text-anchor="middle" x="1192.36" y="-489.32" font-family="Times,serif" font-size="14.00">dftbplus</text>
</a>
</g>
</g>
<!-- libmbd -->
<g id="node49" class="node">
<title>libmbd</title>
<g id="a_node49"><a xlink:href="https://github.com/conda-forge/libmbd-feedstock" xlink:title="libmbd">
<ellipse fill="#fde725" stroke="black" cx="1155.36" cy="-566" rx="45.95" ry="18"/>
<text text-anchor="middle" x="1155.36" y="-561.33" font-family="Times,serif" font-size="14.00">libmbd</text>
</a>
</g>
</g>
<!-- libmbd&#45;&gt;dftbplus -->
<g id="edge55" class="edge">
<title>libmbd&#45;&gt;dftbplus</title>
<path fill="none" stroke="black" d="M1164.32,-548.05C1168.5,-540.14 1173.58,-530.54 1178.25,-521.69"/>
<polygon fill="black" stroke="black" points="1181.2,-523.6 1182.78,-513.13 1175.01,-520.33 1181.2,-523.6"/>
</g>
<!-- scalapackfx -->
<g id="node51" class="node">
<title>scalapackfx</title>
<g id="a_node51"><a xlink:href="https://github.com/conda-forge/scalapackfx-feedstock" xlink:title="scalapackfx">
<ellipse fill="#35b779" stroke="black" cx="1326.36" cy="-566" rx="69.1" ry="18"/>
<text text-anchor="middle" x="1326.36" y="-561.33" font-family="Times,serif" font-size="14.00">scalapackfx</text>
</a>
</g>
</g>
<!-- scalapackfx&#45;&gt;dftbplus -->
<g id="edge57" class="edge">
<title>scalapackfx&#45;&gt;dftbplus</title>
<path fill="none" stroke="black" d="M1296.62,-549.46C1277.1,-539.27 1251.38,-525.83 1230.38,-514.86"/>
<polygon fill="black" stroke="black" points="1232.01,-511.76 1221.53,-510.24 1228.77,-517.97 1232.01,-511.76"/>
</g>
<!-- libnegf -->
<g id="node52" class="node">
<title>libnegf</title>
<g id="a_node52"><a xlink:href="https://github.com/conda-forge/libnegf-feedstock/pull/17" xlink:title="libnegf ❎">
<ellipse fill="#31688e" stroke="black" cx="1229.36" cy="-638" rx="61.2" ry="18"/>
<text text-anchor="middle" x="1229.36" y="-633.33" font-family="Times,serif" font-size="14.00" fill="white">libnegf ❎</text>
</a>
</g>
</g>
<!-- libnegf&#45;&gt;dftbplus -->
<g id="edge58" class="edge">
<title>libnegf&#45;&gt;dftbplus</title>
<path fill="none" stroke="black" d="M1226.31,-619.79C1222.96,-601.76 1217.16,-572.68 1210.36,-548 1208.08,-539.72 1205.23,-530.84 1202.47,-522.77"/>
<polygon fill="black" stroke="black" points="1205.82,-521.74 1199.21,-513.46 1199.21,-524.05 1205.82,-521.74"/>
</g>
<!-- tempest&#45;extremes -->
<g id="node53" class="node">
<title>tempest&#45;extremes</title>
<g id="a_node53"><a xlink:href="https://github.com/conda-forge/tempest-extremes-feedstock/pull/9" xlink:title="tempest extremes ❎">
<ellipse fill="#31688e" stroke="black" cx="1848.36" cy="-1762" rx="117.5" ry="18"/>
<text text-anchor="middle" x="1848.36" y="-1757.33" font-family="Times,serif" font-size="14.00" fill="white">tempest extremes ❎</text>
</a>
</g>
</g>
<!-- analisi -->
<g id="node54" class="node">
<title>analisi</title>
<g id="a_node54"><a xlink:href="https://github.com/conda-forge/analisi-feedstock/pull/33" xlink:title="analisi ✓">
<ellipse fill="#31688e" stroke="black" cx="1848.36" cy="-1690" rx="51.74" ry="18"/>
<text text-anchor="middle" x="1848.36" y="-1685.33" font-family="Times,serif" font-size="14.00" fill="white">analisi ✓</text>
</a>
</g>
</g>
<!-- tempest&#45;extremes&#45;&gt;analisi -->
<!-- nwchem -->
<g id="node55" class="node">
<title>nwchem</title>
<g id="a_node55"><a xlink:href="https://github.com/conda-forge/nwchem-feedstock" xlink:title="nwchem">
<ellipse fill="#35b779" stroke="black" cx="1848.36" cy="-1618" rx="52.79" ry="18"/>
<text text-anchor="middle" x="1848.36" y="-1613.33" font-family="Times,serif" font-size="14.00">nwchem</text>
</a>
</g>
</g>
<!-- analisi&#45;&gt;nwchem -->
<!-- bmad -->
<g id="node56" class="node">
<title>bmad</title>
<g id="a_node56"><a xlink:href="https://github.com/conda-forge/bmad-feedstock" xlink:title="bmad">
<ellipse fill="#35b779" stroke="black" cx="1848.36" cy="-1546" rx="39.11" ry="18"/>
<text text-anchor="middle" x="1848.36" y="-1541.33" font-family="Times,serif" font-size="14.00">bmad</text>
</a>
</g>
</g>
<!-- nwchem&#45;&gt;bmad -->
<!-- mfem -->
<g id="node57" class="node">
<title>mfem</title>
<g id="a_node57"><a xlink:href="https://github.com/conda-forge/mfem-feedstock/pull/13" xlink:title="mfem ❎">
<ellipse fill="#31688e" stroke="black" cx="1848.36" cy="-1474" rx="54.89" ry="18"/>
<text text-anchor="middle" x="1848.36" y="-1469.33" font-family="Times,serif" font-size="14.00" fill="white">mfem ❎</text>
</a>
</g>
</g>
<!-- bmad&#45;&gt;mfem -->
<!-- timemory -->
<g id="node58" class="node">
<title>timemory</title>
<g id="a_node58"><a xlink:href="https://github.com/conda-forge/timemory-feedstock" xlink:title="timemory">
<ellipse fill="#000000" stroke="black" cx="1848.36" cy="-1402" rx="59.63" ry="18"/>
<text text-anchor="middle" x="1848.36" y="-1397.33" font-family="Times,serif" font-size="14.00" fill="white">timemory</text>
</a>
</g>
</g>
<!-- mfem&#45;&gt;timemory -->
<!-- pexsi -->
<g id="node59" class="node">
<title>pexsi</title>
<g id="a_node59"><a xlink:href="https://github.com/conda-forge/pexsi-feedstock/pull/10" xlink:title="pexsi ❎">
<ellipse fill="#31688e" stroke="black" cx="1848.36" cy="-1330" rx="52.79" ry="18"/>
<text text-anchor="middle" x="1848.36" y="-1325.33" font-family="Times,serif" font-size="14.00" fill="white">pexsi ❎</text>
</a>
</g>
</g>
<!-- timemory&#45;&gt;pexsi -->
<!-- eigenexa -->
<g id="node65" class="node">
<title>eigenexa</title>
<g id="a_node65"><a xlink:href="https://github.com/conda-forge/eigenexa-feedstock" xlink:title="eigenexa">
<ellipse fill="#35b779" stroke="black" cx="1848.36" cy="-1258" rx="55.94" ry="18"/>
<text text-anchor="middle" x="1848.36" y="-1253.33" font-family="Times,serif" font-size="14.00">eigenexa</text>
</a>
</g>
</g>
<!-- pexsi&#45;&gt;eigenexa -->
<!-- elpa -->
<g id="node60" class="node">
<title>elpa</title>
<g id="a_node60"><a xlink:href="https://github.com/conda-forge/elpa-feedstock/pull/26" xlink:title="elpa ❎">
<ellipse fill="#31688e" stroke="black" cx="1405.36" cy="-710" rx="47.53" ry="18"/>
<text text-anchor="middle" x="1405.36" y="-705.33" font-family="Times,serif" font-size="14.00" fill="white">elpa ❎</text>
</a>
</g>
</g>
<!-- elpa&#45;&gt;siesta -->
<g id="edge65" class="edge">
<title>elpa&#45;&gt;siesta</title>
<path fill="none" stroke="black" d="M1397.13,-692.05C1393.33,-684.23 1388.72,-674.75 1384.46,-665.98"/>
<polygon fill="black" stroke="black" points="1387.69,-664.62 1380.18,-657.15 1381.4,-667.67 1387.69,-664.62"/>
</g>
<!-- elpa&#45;&gt;qe -->
<g id="edge66" class="edge">
<title>elpa&#45;&gt;qe</title>
<path fill="none" stroke="black" d="M1410.91,-691.92C1414.17,-681.58 1418.25,-668.1 1421.36,-656 1426.54,-635.86 1431.42,-612.9 1434.93,-595.35"/>
<polygon fill="black" stroke="black" points="1438.35,-596.13 1436.84,-585.65 1431.48,-594.78 1438.35,-596.13"/>
</g>
<!-- elsi -->
<g id="node61" class="node">
<title>elsi</title>
<g id="a_node61"><a xlink:href="https://github.com/conda-forge/elsi-feedstock" xlink:title="elsi">
<ellipse fill="#fde725" stroke="black" cx="1121.36" cy="-638" rx="28.59" ry="18"/>
<text text-anchor="middle" x="1121.36" y="-633.33" font-family="Times,serif" font-size="14.00">elsi</text>
</a>
</g>
</g>
<!-- elpa&#45;&gt;elsi -->
<g id="edge67" class="edge">
<title>elpa&#45;&gt;elsi</title>
<path fill="none" stroke="black" d="M1361.98,-702.47C1312.26,-694.34 1228.7,-678.7 1159.36,-656 1157.57,-655.41 1155.74,-654.77 1153.91,-654.08"/>
<polygon fill="black" stroke="black" points="1155.54,-650.97 1144.96,-650.43 1152.9,-657.45 1155.54,-650.97"/>
</g>
<!-- abacus -->
<g id="node62" class="node">
<title>abacus</title>
<g id="a_node62"><a xlink:href="https://github.com/conda-forge/abacus-feedstock" xlink:title="abacus">
<ellipse fill="#fde725" stroke="black" cx="1495.36" cy="-494" rx="45.95" ry="18"/>
<text text-anchor="middle" x="1495.36" y="-489.32" font-family="Times,serif" font-size="14.00">abacus</text>
</a>
</g>
</g>
<!-- elpa&#45;&gt;abacus -->
<g id="edge68" class="edge">
<title>elpa&#45;&gt;abacus</title>
<path fill="none" stroke="black" d="M1416.81,-692.07C1423.61,-681.79 1432.27,-668.32 1439.36,-656 1457.32,-624.82 1464.28,-617.89 1476.36,-584 1483.35,-564.41 1488.17,-541.44 1491.21,-523.74"/>
<polygon fill="black" stroke="black" points="1494.66,-524.36 1492.79,-513.93 1487.74,-523.24 1494.66,-524.36"/>
</g>
<!-- elsi&#45;&gt;dftbplus -->
<g id="edge69" class="edge">
<title>elsi&#45;&gt;dftbplus</title>
<path fill="none" stroke="black" d="M1110.89,-620.87C1100.23,-602.2 1087.01,-571.09 1100.36,-548 1109.91,-531.48 1126.78,-519.65 1143.49,-511.43"/>
<polygon fill="black" stroke="black" points="1144.75,-514.7 1152.42,-507.38 1141.87,-508.32 1144.75,-514.7"/>
</g>
<!-- elsi&#45;&gt;libmbd -->
<g id="edge70" class="edge">
<title>elsi&#45;&gt;libmbd</title>
<path fill="none" stroke="black" d="M1129.42,-620.41C1133.22,-612.59 1137.85,-603.06 1142.14,-594.23"/>
<polygon fill="black" stroke="black" points="1145.24,-595.84 1146.46,-585.32 1138.95,-592.78 1145.24,-595.84"/>
</g>
<!-- libomm -->
<g id="node63" class="node">
<title>libomm</title>
<g id="a_node63"><a xlink:href="https://github.com/conda-forge/libomm-feedstock" xlink:title="libomm">
<ellipse fill="#fde725" stroke="black" cx="1160.36" cy="-710" rx="48.58" ry="18"/>
<text text-anchor="middle" x="1160.36" y="-705.33" font-family="Times,serif" font-size="14.00">libomm</text>
</a>
</g>
</g>
<!-- libomm&#45;&gt;elsi -->
<g id="edge71" class="edge">
<title>libomm&#45;&gt;elsi</title>
<path fill="none" stroke="black" d="M1150.92,-692.05C1146.45,-684.03 1141,-674.26 1136.01,-665.3"/>
<polygon fill="black" stroke="black" points="1139.11,-663.66 1131.18,-656.63 1132.99,-667.07 1139.11,-663.66"/>
</g>
<!-- matrixswitch -->
<g id="node64" class="node">
<title>matrixswitch</title>
<g id="a_node64"><a xlink:href="https://github.com/conda-forge/matrixswitch-feedstock/pull/7" xlink:title="matrixswitch ❎">
<ellipse fill="#31688e" stroke="black" cx="1121.36" cy="-782" rx="92.25" ry="18"/>
<text text-anchor="middle" x="1121.36" y="-777.33" font-family="Times,serif" font-size="14.00" fill="white">matrixswitch ❎</text>
</a>
</g>
</g>
<!-- matrixswitch&#45;&gt;elsi -->
<g id="edge72" class="edge">
<title>matrixswitch&#45;&gt;elsi</title>
<path fill="none" stroke="black" d="M1113.47,-763.75C1109.25,-753.58 1104.5,-740.33 1102.36,-728 1099.62,-712.24 1099.62,-707.76 1102.36,-692 1103.84,-683.49 1106.56,-674.54 1109.49,-666.47"/>
<polygon fill="black" stroke="black" points="1112.74,-667.78 1113.11,-657.19 1106.22,-665.23 1112.74,-667.78"/>
</g>
<!-- matrixswitch&#45;&gt;libomm -->
<g id="edge73" class="edge">
<title>matrixswitch&#45;&gt;libomm</title>
<path fill="none" stroke="black" d="M1131,-763.7C1135.3,-755.98 1140.46,-746.71 1145.26,-738.11"/>
<polygon fill="black" stroke="black" points="1148.29,-739.87 1150.09,-729.43 1142.17,-736.46 1148.29,-739.87"/>
</g>
<!-- fleur -->
<g id="node66" class="node">
<title>fleur</title>
<g id="a_node66"><a xlink:href="https://github.com/conda-forge/fleur-feedstock" xlink:title="fleur">
<ellipse fill="#35b779" stroke="black" cx="1848.36" cy="-1186" rx="34.37" ry="18"/>
<text text-anchor="middle" x="1848.36" y="-1181.33" font-family="Times,serif" font-size="14.00">fleur</text>
</a>
</g>
</g>
<!-- eigenexa&#45;&gt;fleur -->
<!-- edrixs -->
<g id="node67" class="node">
<title>edrixs</title>
<g id="a_node67"><a xlink:href="https://github.com/conda-forge/edrixs-feedstock/pull/14" xlink:title="edrixs ❎">
<ellipse fill="#31688e" stroke="black" cx="1848.36" cy="-1114" rx="57.52" ry="18"/>
<text text-anchor="middle" x="1848.36" y="-1109.33" font-family="Times,serif" font-size="14.00" fill="white">edrixs ❎</text>
</a>
</g>
</g>
<!-- fleur&#45;&gt;edrixs -->
<!-- openphase -->
<g id="node68" class="node">
<title>openphase</title>
<g id="a_node68"><a xlink:href="https://github.com/conda-forge/openphase-feedstock/pull/2" xlink:title="openphase ❎">
<ellipse fill="#31688e" stroke="black" cx="1848.36" cy="-1042" rx="80.14" ry="18"/>
<text text-anchor="middle" x="1848.36" y="-1037.33" font-family="Times,serif" font-size="14.00" fill="white">openphase ❎</text>
</a>
</g>
</g>
<!-- edrixs&#45;&gt;openphase -->
<!-- sparc&#45;x -->
<g id="node69" class="node">
<title>sparc&#45;x</title>
<g id="a_node69"><a xlink:href="https://github.com/conda-forge/sparc-x-feedstock" xlink:title="sparc x">
<ellipse fill="#35b779" stroke="black" cx="442.36" cy="-234" rx="47.53" ry="18"/>
<text text-anchor="middle" x="442.36" y="-229.32" font-family="Times,serif" font-size="14.00">sparc x</text>
</a>
</g>
</g>
<!-- reef3d -->
<g id="node70" class="node">
<title>reef3d</title>
<g id="a_node70"><a xlink:href="https://github.com/conda-forge/reef3d-feedstock/pull/11" xlink:title="reef3d ✓">
<ellipse fill="#31688e" stroke="black" cx="442.36" cy="-162" rx="51.74" ry="18"/>
<text text-anchor="middle" x="442.36" y="-157.32" font-family="Times,serif" font-size="14.00" fill="white">reef3d ✓</text>
</a>
</g>
</g>
<!-- sparc&#45;x&#45;&gt;reef3d -->
<!-- genesis4 -->
<g id="node71" class="node">
<title>genesis4</title>
<g id="a_node71"><a xlink:href="https://github.com/conda-forge/genesis4-feedstock" xlink:title="genesis4">
<ellipse fill="#35b779" stroke="black" cx="442.36" cy="-90" rx="55.42" ry="18"/>
<text text-anchor="middle" x="442.36" y="-85.33" font-family="Times,serif" font-size="14.00">genesis4</text>
</a>
</g>
</g>
<!-- reef3d&#45;&gt;genesis4 -->
<!-- opentelemac -->
<g id="node72" class="node">
<title>opentelemac</title>
<g id="a_node72"><a xlink:href="https://github.com/conda-forge/opentelemac-feedstock/pull/2" xlink:title="opentelemac ❎">
<ellipse fill="#31688e" stroke="black" cx="442.36" cy="-18" rx="90.14" ry="18"/>
<text text-anchor="middle" x="442.36" y="-13.32" font-family="Times,serif" font-size="14.00" fill="white">opentelemac ❎</text>
</a>
</g>
</g>
<!-- genesis4&#45;&gt;opentelemac -->
</g>
</svg>
