<?xml version="1.0" encoding="UTF-8" standalone="no"?>
<!DOCTYPE svg PUBLIC "-//W3C//DTD SVG 1.1//EN"
 "http://www.w3.org/Graphics/SVG/1.1/DTD/svg11.dtd">
<!-- Generated by graphviz version 11.0.0 (20240519.1550)
 -->
<!-- Pages: 1 -->
<svg width="1993pt" height="1788pt"
 viewBox="0.00 0.00 1993.14 1788.00" xmlns="http://www.w3.org/2000/svg" xmlns:xlink="http://www.w3.org/1999/xlink">
<g id="graph0" class="graph" transform="scale(1 1) rotate(0) translate(4 1784)">
<polygon fill="white" stroke="none" points="-4,4 -4,-1784 1989.14,-1784 1989.14,4 -4,4"/>
<!-- casacore -->
<g id="node1" class="node">
<title>casacore</title>
<g id="a_node1"><a xlink:href="https://github.com/conda-forge/casacore-feedstock" xlink:title="casacore">
<ellipse fill="#fde725" stroke="black" cx="1026.36" cy="-1294" rx="54.89" ry="18"/>
<text text-anchor="middle" x="1026.36" y="-1289.33" font-family="Times,serif" font-size="14.00">casacore</text>
</a>
</g>
</g>
<!-- esmf -->
<g id="node2" class="node">
<title>esmf</title>
<g id="a_node2"><a xlink:href="https://github.com/conda-forge/esmf-feedstock" xlink:title="esmf">
<ellipse fill="#35b779" stroke="black" cx="429.36" cy="-998" rx="35.42" ry="18"/>
<text text-anchor="middle" x="429.36" y="-993.33" font-family="Times,serif" font-size="14.00">esmf</text>
</a>
</g>
</g>
<!-- netcdf&#45;cxx4 -->
<g id="node3" class="node">
<title>netcdf&#45;cxx4</title>
<g id="a_node3"><a xlink:href="https://github.com/conda-forge/netcdf-cxx4-feedstock" xlink:title="netcdf cxx4">
<ellipse fill="#35b779" stroke="black" cx="429.36" cy="-926" rx="69.1" ry="18"/>
<text text-anchor="middle" x="429.36" y="-921.33" font-family="Times,serif" font-size="14.00">netcdf cxx4</text>
</a>
</g>
</g>
<!-- esmf&#45;&gt;netcdf&#45;cxx4 -->
<!-- libmed -->
<g id="node29" class="node">
<title>libmed</title>
<g id="a_node29"><a xlink:href="https://github.com/conda-forge/libmed-feedstock" xlink:title="libmed">
<ellipse fill="#35b779" stroke="black" cx="429.36" cy="-854" rx="45.42" ry="18"/>
<text text-anchor="middle" x="429.36" y="-849.33" font-family="Times,serif" font-size="14.00">libmed</text>
</a>
</g>
</g>
<!-- netcdf&#45;cxx4&#45;&gt;libmed -->
<!-- fenics -->
<g id="node4" class="node">
<title>fenics</title>
<g id="a_node4"><a xlink:href="https://github.com/conda-forge/fenics-feedstock" xlink:title="fenics">
<ellipse fill="#fde725" stroke="black" cx="1289.36" cy="-1294" rx="40.69" ry="18"/>
<text text-anchor="middle" x="1289.36" y="-1289.33" font-family="Times,serif" font-size="14.00">fenics</text>
</a>
</g>
</g>
<!-- mshr -->
<g id="node5" class="node">
<title>mshr</title>
<g id="a_node5"><a xlink:href="https://github.com/conda-forge/mshr-feedstock" xlink:title="mshr">
<ellipse fill="#fde725" stroke="black" cx="1289.36" cy="-1222" rx="37" ry="18"/>
<text text-anchor="middle" x="1289.36" y="-1217.33" font-family="Times,serif" font-size="14.00">mshr</text>
</a>
</g>
</g>
<!-- fenics&#45;&gt;mshr -->
<g id="edge2" class="edge">
<title>fenics&#45;&gt;mshr</title>
<path fill="none" stroke="black" d="M1289.36,-1275.7C1289.36,-1268.41 1289.36,-1259.73 1289.36,-1251.54"/>
<polygon fill="black" stroke="black" points="1292.86,-1251.62 1289.36,-1241.62 1285.86,-1251.62 1292.86,-1251.62"/>
</g>
<!-- h5py -->
<g id="node6" class="node">
<title>h5py</title>
<g id="a_node6"><a xlink:href="https://github.com/conda-forge/h5py-feedstock" xlink:title="h5py">
<ellipse fill="#35b779" stroke="black" cx="441.36" cy="-1546" rx="35.95" ry="18"/>
<text text-anchor="middle" x="441.36" y="-1541.33" font-family="Times,serif" font-size="14.00">h5py</text>
</a>
</g>
</g>
<!-- openmc -->
<g id="node7" class="node">
<title>openmc</title>
<g id="a_node7"><a xlink:href="https://github.com/conda-forge/openmc-feedstock" xlink:title="openmc">
<ellipse fill="#fde725" stroke="black" cx="809.36" cy="-1474" rx="50.16" ry="18"/>
<text text-anchor="middle" x="809.36" y="-1469.33" font-family="Times,serif" font-size="14.00">openmc</text>
</a>
</g>
</g>
<!-- h5py&#45;&gt;openmc -->
<g id="edge3" class="edge">
<title>h5py&#45;&gt;openmc</title>
<path fill="none" stroke="black" d="M475.74,-1540C532.28,-1531.57 648.29,-1513.31 745.36,-1492 749.97,-1490.99 754.75,-1489.86 759.52,-1488.69"/>
<polygon fill="black" stroke="black" points="760.27,-1492.11 769.1,-1486.25 758.55,-1485.32 760.27,-1492.11"/>
</g>
<!-- lalinference -->
<g id="node8" class="node">
<title>lalinference</title>
<g id="a_node8"><a xlink:href="https://github.com/conda-forge/lalinference-feedstock" xlink:title="lalinference">
<ellipse fill="#fde725" stroke="black" cx="625.36" cy="-1474" rx="70.15" ry="18"/>
<text text-anchor="middle" x="625.36" y="-1469.33" font-family="Times,serif" font-size="14.00">lalinference</text>
</a>
</g>
</g>
<!-- h5py&#45;&gt;lalinference -->
<g id="edge4" class="edge">
<title>h5py&#45;&gt;lalinference</title>
<path fill="none" stroke="black" d="M469.31,-1534.37C497.7,-1523.57 542.26,-1506.62 576.5,-1493.59"/>
<polygon fill="black" stroke="black" points="577.71,-1496.87 585.81,-1490.05 575.22,-1490.33 577.71,-1496.87"/>
</g>
<!-- lfpy -->
<g id="node9" class="node">
<title>lfpy</title>
<g id="a_node9"><a xlink:href="https://github.com/conda-forge/lfpy-feedstock" xlink:title="lfpy">
<ellipse fill="#fde725" stroke="black" cx="537.36" cy="-1402" rx="30.16" ry="18"/>
<text text-anchor="middle" x="537.36" y="-1397.33" font-family="Times,serif" font-size="14.00">lfpy</text>
</a>
</g>
</g>
<!-- h5py&#45;&gt;lfpy -->
<g id="edge5" class="edge">
<title>h5py&#45;&gt;lfpy</title>
<path fill="none" stroke="black" d="M458.72,-1529.96C469.58,-1519.94 483.36,-1506.08 493.36,-1492 507,-1472.8 518.61,-1448.74 526.48,-1430.48"/>
<polygon fill="black" stroke="black" points="529.67,-1431.93 530.29,-1421.35 523.21,-1429.23 529.67,-1431.93"/>
</g>
<!-- deepmd&#45;kit -->
<g id="node10" class="node">
<title>deepmd&#45;kit</title>
<g id="a_node10"><a xlink:href="https://github.com/conda-forge/deepmd-kit-feedstock" xlink:title="deepmd kit">
<ellipse fill="#fde725" stroke="black" cx="537.36" cy="-1330" rx="67.52" ry="18"/>
<text text-anchor="middle" x="537.36" y="-1325.33" font-family="Times,serif" font-size="14.00">deepmd kit</text>
</a>
</g>
</g>
<!-- h5py&#45;&gt;deepmd&#45;kit -->
<g id="edge6" class="edge">
<title>h5py&#45;&gt;deepmd&#45;kit</title>
<path fill="none" stroke="black" d="M445.64,-1527.86C453.56,-1497.67 472.12,-1433.52 498.36,-1384 503.34,-1374.61 509.84,-1365.05 516.11,-1356.68"/>
<polygon fill="black" stroke="black" points="518.7,-1359.05 522.07,-1349.01 513.17,-1354.76 518.7,-1359.05"/>
</g>
<!-- dedalus -->
<g id="node11" class="node">
<title>dedalus</title>
<g id="a_node11"><a xlink:href="https://github.com/conda-forge/dedalus-feedstock" xlink:title="dedalus">
<ellipse fill="#fde725" stroke="black" cx="481.36" cy="-1258" rx="50.16" ry="18"/>
<text text-anchor="middle" x="481.36" y="-1253.33" font-family="Times,serif" font-size="14.00">dedalus</text>
</a>
</g>
</g>
<!-- h5py&#45;&gt;dedalus -->
<g id="edge7" class="edge">
<title>h5py&#45;&gt;dedalus</title>
<path fill="none" stroke="black" d="M441.04,-1527.78C440.69,-1488.79 441.91,-1391.05 460.36,-1312 462.32,-1303.61 465.37,-1294.81 468.55,-1286.83"/>
<polygon fill="black" stroke="black" points="471.76,-1288.22 472.43,-1277.64 465.32,-1285.49 471.76,-1288.22"/>
</g>
<!-- ondamonitor -->
<g id="node12" class="node">
<title>ondamonitor</title>
<g id="a_node12"><a xlink:href="https://github.com/conda-forge/ondamonitor-feedstock" xlink:title="ondamonitor">
<ellipse fill="#fde725" stroke="black" cx="403.36" cy="-1186" rx="74.88" ry="18"/>
<text text-anchor="middle" x="403.36" y="-1181.33" font-family="Times,serif" font-size="14.00">ondamonitor</text>
</a>
</g>
</g>
<!-- h5py&#45;&gt;ondamonitor -->
<g id="edge8" class="edge">
<title>h5py&#45;&gt;ondamonitor</title>
<path fill="none" stroke="black" d="M433.85,-1528.34C422.78,-1502.2 403.36,-1449.7 403.36,-1403 403.36,-1403 403.36,-1403 403.36,-1329 403.36,-1289.74 403.36,-1244.38 403.36,-1215.69"/>
<polygon fill="black" stroke="black" points="406.86,-1216 403.36,-1206 399.86,-1216 406.86,-1216"/>
</g>
<!-- alamode -->
<g id="node13" class="node">
<title>alamode</title>
<g id="a_node13"><a xlink:href="https://github.com/conda-forge/alamode-feedstock" xlink:title="alamode">
<ellipse fill="#fde725" stroke="black" cx="322.36" cy="-1474" rx="53.31" ry="18"/>
<text text-anchor="middle" x="322.36" y="-1469.33" font-family="Times,serif" font-size="14.00">alamode</text>
</a>
</g>
</g>
<!-- h5py&#45;&gt;alamode -->
<g id="edge9" class="edge">
<title>h5py&#45;&gt;alamode</title>
<path fill="none" stroke="black" d="M418.7,-1531.67C401.47,-1521.53 377.45,-1507.41 357.7,-1495.79"/>
<polygon fill="black" stroke="black" points="359.53,-1492.8 349.13,-1490.75 355.98,-1498.83 359.53,-1492.8"/>
</g>
<!-- veloxchem -->
<g id="node14" class="node">
<title>veloxchem</title>
<g id="a_node14"><a xlink:href="https://github.com/conda-forge/veloxchem-feedstock" xlink:title="veloxchem">
<ellipse fill="#fde725" stroke="black" cx="64.36" cy="-1474" rx="64.36" ry="18"/>
<text text-anchor="middle" x="64.36" y="-1469.33" font-family="Times,serif" font-size="14.00">veloxchem</text>
</a>
</g>
</g>
<!-- h5py&#45;&gt;veloxchem -->
<g id="edge10" class="edge">
<title>h5py&#45;&gt;veloxchem</title>
<path fill="none" stroke="black" d="M407.17,-1539.62C350.93,-1530.64 235.46,-1511.63 138.36,-1492 133.43,-1491 128.33,-1489.93 123.21,-1488.81"/>
<polygon fill="black" stroke="black" points="124.05,-1485.42 113.53,-1486.67 122.53,-1492.25 124.05,-1485.42"/>
</g>
<!-- heat -->
<g id="node15" class="node">
<title>heat</title>
<g id="a_node15"><a xlink:href="https://github.com/conda-forge/heat-feedstock" xlink:title="heat">
<ellipse fill="#fde725" stroke="black" cx="180.36" cy="-1474" rx="33.32" ry="18"/>
<text text-anchor="middle" x="180.36" y="-1469.33" font-family="Times,serif" font-size="14.00">heat</text>
</a>
</g>
</g>
<!-- h5py&#45;&gt;heat -->
<g id="edge11" class="edge">
<title>h5py&#45;&gt;heat</title>
<path fill="none" stroke="black" d="M408.81,-1538.05C366.61,-1528.79 290.9,-1511.3 227.36,-1492 224.25,-1491.05 221.04,-1490.02 217.83,-1488.95"/>
<polygon fill="black" stroke="black" points="219.07,-1485.67 208.47,-1485.69 216.77,-1492.28 219.07,-1485.67"/>
</g>
<!-- horovod -->
<g id="node16" class="node">
<title>horovod</title>
<g id="a_node16"><a xlink:href="https://github.com/conda-forge/horovod-feedstock" xlink:title="horovod">
<ellipse fill="#fde725" stroke="black" cx="241.36" cy="-1402" rx="51.74" ry="18"/>
<text text-anchor="middle" x="241.36" y="-1397.33" font-family="Times,serif" font-size="14.00">horovod</text>
</a>
</g>
</g>
<!-- h5py&#45;&gt;horovod -->
<g id="edge12" class="edge">
<title>h5py&#45;&gt;horovod</title>
<path fill="none" stroke="black" d="M405.17,-1544.81C364.04,-1542.54 297.78,-1532.32 260.36,-1492 245.48,-1475.96 241.14,-1451.24 240.29,-1431.91"/>
<polygon fill="black" stroke="black" points="243.79,-1431.89 240.17,-1421.94 236.79,-1431.98 243.79,-1431.89"/>
</g>
<!-- fluidfft&#45;mpi_with_fftw -->
<g id="node17" class="node">
<title>fluidfft&#45;mpi_with_fftw</title>
<g id="a_node17"><a xlink:href="https://github.com/conda-forge/fluidfft-mpi_with_fftw-feedstock" xlink:title="fluidfft mpi_with_fftw">
<ellipse fill="#fde725" stroke="black" cx="740.36" cy="-1330" rx="117.5" ry="18"/>
<text text-anchor="middle" x="740.36" y="-1325.33" font-family="Times,serif" font-size="14.00">fluidfft mpi_with_fftw</text>
</a>
</g>
</g>
<!-- h5py&#45;&gt;fluidfft&#45;mpi_with_fftw -->
<g id="edge13" class="edge">
<title>h5py&#45;&gt;fluidfft&#45;mpi_with_fftw</title>
<path fill="none" stroke="black" d="M476.97,-1542.54C541.13,-1537.38 672.49,-1523.2 704.36,-1492 739.85,-1457.26 743.78,-1395.71 742.62,-1359.62"/>
<polygon fill="black" stroke="black" points="746.13,-1359.75 742.14,-1349.94 739.14,-1360.1 746.13,-1359.75"/>
</g>
<!-- moab -->
<g id="node18" class="node">
<title>moab</title>
<g id="a_node18"><a xlink:href="https://github.com/conda-forge/moab-feedstock" xlink:title="moab">
<ellipse fill="#35b779" stroke="black" cx="809.36" cy="-1618" rx="38.58" ry="18"/>
<text text-anchor="middle" x="809.36" y="-1613.33" font-family="Times,serif" font-size="14.00">moab</text>
</a>
</g>
</g>
<!-- dagmc -->
<g id="node19" class="node">
<title>dagmc</title>
<g id="a_node19"><a xlink:href="https://github.com/conda-forge/dagmc-feedstock" xlink:title="dagmc">
<ellipse fill="#fde725" stroke="black" cx="809.36" cy="-1546" rx="44.37" ry="18"/>
<text text-anchor="middle" x="809.36" y="-1541.33" font-family="Times,serif" font-size="14.00">dagmc</text>
</a>
</g>
</g>
<!-- moab&#45;&gt;dagmc -->
<g id="edge14" class="edge">
<title>moab&#45;&gt;dagmc</title>
<path fill="none" stroke="black" d="M809.36,-1599.7C809.36,-1592.41 809.36,-1583.73 809.36,-1575.54"/>
<polygon fill="black" stroke="black" points="812.86,-1575.62 809.36,-1565.62 805.86,-1575.62 812.86,-1575.62"/>
</g>
<!-- dagmc&#45;&gt;openmc -->
<g id="edge15" class="edge">
<title>dagmc&#45;&gt;openmc</title>
<path fill="none" stroke="black" d="M809.36,-1527.7C809.36,-1520.41 809.36,-1511.73 809.36,-1503.54"/>
<polygon fill="black" stroke="black" points="812.86,-1503.62 809.36,-1493.62 805.86,-1503.62 812.86,-1503.62"/>
</g>
<!-- mumps -->
<g id="node20" class="node">
<title>mumps</title>
<g id="a_node20"><a xlink:href="https://github.com/conda-forge/mumps-feedstock" xlink:title="mumps">
<ellipse fill="#35b779" stroke="black" cx="1012.36" cy="-1582" rx="48.05" ry="18"/>
<text text-anchor="middle" x="1012.36" y="-1577.33" font-family="Times,serif" font-size="14.00">mumps</text>
</a>
</g>
</g>
<!-- petsc -->
<g id="node21" class="node">
<title>petsc</title>
<g id="a_node21"><a xlink:href="https://github.com/conda-forge/petsc-feedstock" xlink:title="petsc">
<ellipse fill="#fde725" stroke="black" cx="1250.36" cy="-1510" rx="38.06" ry="18"/>
<text text-anchor="middle" x="1250.36" y="-1505.33" font-family="Times,serif" font-size="14.00">petsc</text>
</a>
</g>
</g>
<!-- mumps&#45;&gt;petsc -->
<g id="edge16" class="edge">
<title>mumps&#45;&gt;petsc</title>
<path fill="none" stroke="black" d="M1049.29,-1570.14C1092.14,-1557.54 1162.67,-1536.79 1207.79,-1523.52"/>
<polygon fill="black" stroke="black" points="1208.62,-1526.92 1217.23,-1520.74 1206.65,-1520.21 1208.62,-1526.92"/>
</g>
<!-- daetk -->
<g id="node22" class="node">
<title>daetk</title>
<g id="a_node22"><a xlink:href="https://github.com/conda-forge/daetk-feedstock" xlink:title="daetk">
<ellipse fill="#fde725" stroke="black" cx="1012.36" cy="-1438" rx="39.11" ry="18"/>
<text text-anchor="middle" x="1012.36" y="-1433.33" font-family="Times,serif" font-size="14.00">daetk</text>
</a>
</g>
</g>
<!-- mumps&#45;&gt;daetk -->
<g id="edge17" class="edge">
<title>mumps&#45;&gt;daetk</title>
<path fill="none" stroke="black" d="M1012.36,-1563.59C1012.36,-1539.61 1012.36,-1496.14 1012.36,-1467.42"/>
<polygon fill="black" stroke="black" points="1015.86,-1467.62 1012.36,-1457.62 1008.86,-1467.62 1015.86,-1467.62"/>
</g>
<!-- freefem -->
<g id="node23" class="node">
<title>freefem</title>
<g id="a_node23"><a xlink:href="https://github.com/conda-forge/freefem-feedstock" xlink:title="freefem">
<ellipse fill="#fde725" stroke="black" cx="1134.36" cy="-1366" rx="50.16" ry="18"/>
<text text-anchor="middle" x="1134.36" y="-1361.33" font-family="Times,serif" font-size="14.00">freefem</text>
</a>
</g>
</g>
<!-- mumps&#45;&gt;freefem -->
<g id="edge18" class="edge">
<title>mumps&#45;&gt;freefem</title>
<path fill="none" stroke="black" d="M998.64,-1564.3C974.77,-1533.12 931.17,-1465.11 964.36,-1420 978.18,-1401.22 1034.75,-1386.16 1078.89,-1376.97"/>
<polygon fill="black" stroke="black" points="1079.5,-1380.42 1088.61,-1375 1078.12,-1373.56 1079.5,-1380.42"/>
</g>
<!-- petsc&#45;&gt;fenics -->
<g id="edge19" class="edge">
<title>petsc&#45;&gt;fenics</title>
<path fill="none" stroke="black" d="M1220.67,-1498.23C1158.56,-1474.1 1024.73,-1412.7 1075.36,-1348 1095.28,-1322.55 1182.03,-1307.61 1238.78,-1300.4"/>
<polygon fill="black" stroke="black" points="1239.05,-1303.89 1248.55,-1299.2 1238.2,-1296.94 1239.05,-1303.89"/>
</g>
<!-- petsc&#45;&gt;daetk -->
<g id="edge20" class="edge">
<title>petsc&#45;&gt;daetk</title>
<path fill="none" stroke="black" d="M1218.19,-1500.11C1181.21,-1489.82 1118.75,-1472.21 1065.36,-1456 1061.85,-1454.93 1058.21,-1453.81 1054.56,-1452.67"/>
<polygon fill="black" stroke="black" points="1055.73,-1449.37 1045.14,-1449.69 1053.62,-1456.04 1055.73,-1449.37"/>
</g>
<!-- petsc&#45;&gt;freefem -->
<g id="edge21" class="edge">
<title>petsc&#45;&gt;freefem</title>
<path fill="none" stroke="black" d="M1236.06,-1492.94C1226.88,-1482.52 1214.76,-1468.58 1204.36,-1456 1186.87,-1434.84 1167.63,-1410.28 1153.76,-1392.33"/>
<polygon fill="black" stroke="black" points="1156.83,-1390.58 1147.95,-1384.79 1151.28,-1394.85 1156.83,-1390.58"/>
</g>
<!-- petsc4py -->
<g id="node24" class="node">
<title>petsc4py</title>
<g id="a_node24"><a xlink:href="https://github.com/conda-forge/petsc4py-feedstock" xlink:title="petsc4py">
<ellipse fill="#fde725" stroke="black" cx="1440.36" cy="-1438" rx="56.47" ry="18"/>
<text text-anchor="middle" x="1440.36" y="-1433.33" font-family="Times,serif" font-size="14.00">petsc4py</text>
</a>
</g>
</g>
<!-- petsc&#45;&gt;petsc4py -->
<g id="edge22" class="edge">
<title>petsc&#45;&gt;petsc4py</title>
<path fill="none" stroke="black" d="M1279.63,-1498.22C1310.1,-1486.99 1358.27,-1469.24 1393.94,-1456.1"/>
<polygon fill="black" stroke="black" points="1394.98,-1459.45 1403.15,-1452.71 1392.56,-1452.88 1394.98,-1459.45"/>
</g>
<!-- slepc -->
<g id="node25" class="node">
<title>slepc</title>
<g id="a_node25"><a xlink:href="https://github.com/conda-forge/slepc-feedstock" xlink:title="slepc">
<ellipse fill="#fde725" stroke="black" cx="1250.36" cy="-1438" rx="37" ry="18"/>
<text text-anchor="middle" x="1250.36" y="-1433.33" font-family="Times,serif" font-size="14.00">slepc</text>
</a>
</g>
</g>
<!-- petsc&#45;&gt;slepc -->
<g id="edge23" class="edge">
<title>petsc&#45;&gt;slepc</title>
<path fill="none" stroke="black" d="M1250.36,-1491.7C1250.36,-1484.41 1250.36,-1475.73 1250.36,-1467.54"/>
<polygon fill="black" stroke="black" points="1253.86,-1467.62 1250.36,-1457.62 1246.86,-1467.62 1253.86,-1467.62"/>
</g>
<!-- yambo -->
<g id="node26" class="node">
<title>yambo</title>
<g id="a_node26"><a xlink:href="https://github.com/conda-forge/yambo-feedstock" xlink:title="yambo">
<ellipse fill="#fde725" stroke="black" cx="1322.36" cy="-1366" rx="44.37" ry="18"/>
<text text-anchor="middle" x="1322.36" y="-1361.33" font-family="Times,serif" font-size="14.00">yambo</text>
</a>
</g>
</g>
<!-- petsc&#45;&gt;yambo -->
<g id="edge24" class="edge">
<title>petsc&#45;&gt;yambo</title>
<path fill="none" stroke="black" d="M1266.86,-1493.68C1276.67,-1483.77 1288.66,-1470.12 1296.36,-1456 1306.68,-1437.08 1313.32,-1413.61 1317.3,-1395.52"/>
<polygon fill="black" stroke="black" points="1320.73,-1396.22 1319.3,-1385.73 1313.87,-1394.83 1320.73,-1396.22"/>
</g>
<!-- fenics&#45;dolfinx -->
<g id="node27" class="node">
<title>fenics&#45;dolfinx</title>
<g id="a_node27"><a xlink:href="https://github.com/conda-forge/fenics-dolfinx-feedstock" xlink:title="fenics dolfinx">
<ellipse fill="#fde725" stroke="black" cx="1503.36" cy="-1294" rx="77.52" ry="18"/>
<text text-anchor="middle" x="1503.36" y="-1289.33" font-family="Times,serif" font-size="14.00">fenics dolfinx</text>
</a>
</g>
</g>
<!-- petsc&#45;&gt;fenics&#45;dolfinx -->
<g id="edge25" class="edge">
<title>petsc&#45;&gt;fenics&#45;dolfinx</title>
<path fill="none" stroke="black" d="M1288.59,-1509.42C1341.47,-1508.25 1438.01,-1499.66 1505.36,-1456 1550.06,-1427.02 1577.98,-1397.12 1557.36,-1348 1552.75,-1337.01 1544.62,-1327.15 1536.05,-1319"/>
<polygon fill="black" stroke="black" points="1538.4,-1316.41 1528.58,-1312.44 1533.78,-1321.67 1538.4,-1316.41"/>
</g>
<!-- dolfinx_mpc -->
<g id="node28" class="node">
<title>dolfinx_mpc</title>
<g id="a_node28"><a xlink:href="https://github.com/conda-forge/dolfinx_mpc-feedstock" xlink:title="dolfinx_mpc">
<ellipse fill="#fde725" stroke="black" cx="1582.36" cy="-1222" rx="70.68" ry="18"/>
<text text-anchor="middle" x="1582.36" y="-1217.33" font-family="Times,serif" font-size="14.00">dolfinx_mpc</text>
</a>
</g>
</g>
<!-- petsc&#45;&gt;dolfinx_mpc -->
<g id="edge26" class="edge">
<title>petsc&#45;&gt;dolfinx_mpc</title>
<path fill="none" stroke="black" d="M1288.1,-1506.35C1357.38,-1500.82 1501.35,-1485.98 1540.36,-1456 1602.52,-1408.24 1595.37,-1302.33 1587.69,-1251.42"/>
<polygon fill="black" stroke="black" points="1591.18,-1251.08 1586.11,-1241.78 1584.27,-1252.22 1591.18,-1251.08"/>
</g>
<!-- petsc4py&#45;&gt;fenics -->
<g id="edge30" class="edge">
<title>petsc4py&#45;&gt;fenics</title>
<path fill="none" stroke="black" d="M1430.76,-1420.07C1419.34,-1400.96 1398.82,-1369.69 1375.36,-1348 1360.64,-1334.39 1341.93,-1322.37 1325.72,-1313.24"/>
<polygon fill="black" stroke="black" points="1327.79,-1310.38 1317.33,-1308.65 1324.43,-1316.52 1327.79,-1310.38"/>
</g>
<!-- petsc4py&#45;&gt;fenics&#45;dolfinx -->
<g id="edge31" class="edge">
<title>petsc4py&#45;&gt;fenics&#45;dolfinx</title>
<path fill="none" stroke="black" d="M1483.35,-1425.92C1504.76,-1418 1528.71,-1404.93 1541.36,-1384 1553.57,-1363.8 1540.93,-1338.96 1527.04,-1320.66"/>
<polygon fill="black" stroke="black" points="1529.77,-1318.47 1520.74,-1312.92 1524.34,-1322.89 1529.77,-1318.47"/>
</g>
<!-- slepc4py -->
<g id="node32" class="node">
<title>slepc4py</title>
<g id="a_node32"><a xlink:href="https://github.com/conda-forge/slepc4py-feedstock" xlink:title="slepc4py">
<ellipse fill="#fde725" stroke="black" cx="1477.36" cy="-1366" rx="55.42" ry="18"/>
<text text-anchor="middle" x="1477.36" y="-1361.33" font-family="Times,serif" font-size="14.00">slepc4py</text>
</a>
</g>
</g>
<!-- petsc4py&#45;&gt;slepc4py -->
<g id="edge32" class="edge">
<title>petsc4py&#45;&gt;slepc4py</title>
<path fill="none" stroke="black" d="M1449.32,-1420.05C1453.5,-1412.14 1458.58,-1402.54 1463.25,-1393.69"/>
<polygon fill="black" stroke="black" points="1466.2,-1395.6 1467.78,-1385.13 1460.01,-1392.33 1466.2,-1395.6"/>
</g>
<!-- slepc&#45;&gt;fenics -->
<g id="edge33" class="edge">
<title>slepc&#45;&gt;fenics</title>
<path fill="none" stroke="black" d="M1242.43,-1419.96C1235.05,-1401.56 1226.54,-1371.7 1236.36,-1348 1241.23,-1336.25 1250.11,-1325.74 1259.22,-1317.25"/>
<polygon fill="black" stroke="black" points="1261.49,-1319.91 1266.77,-1310.73 1256.91,-1314.62 1261.49,-1319.91"/>
</g>
<!-- slepc&#45;&gt;freefem -->
<g id="edge34" class="edge">
<title>slepc&#45;&gt;freefem</title>
<path fill="none" stroke="black" d="M1227.72,-1423.34C1211.06,-1413.29 1188.12,-1399.44 1169.14,-1387.99"/>
<polygon fill="black" stroke="black" points="1171.02,-1385.04 1160.65,-1382.87 1167.41,-1391.03 1171.02,-1385.04"/>
</g>
<!-- slepc&#45;&gt;yambo -->
<g id="edge35" class="edge">
<title>slepc&#45;&gt;yambo</title>
<path fill="none" stroke="black" d="M1266.34,-1421.46C1275.62,-1412.44 1287.51,-1400.88 1297.95,-1390.73"/>
<polygon fill="black" stroke="black" points="1300.11,-1393.51 1304.84,-1384.03 1295.23,-1388.49 1300.11,-1393.51"/>
</g>
<!-- slepc&#45;&gt;fenics&#45;dolfinx -->
<g id="edge36" class="edge">
<title>slepc&#45;&gt;fenics&#45;dolfinx</title>
<path fill="none" stroke="black" d="M1248.95,-1419.73C1248.33,-1399.7 1250.6,-1367 1269.36,-1348 1290.74,-1326.35 1363.92,-1312.15 1422.82,-1303.95"/>
<polygon fill="black" stroke="black" points="1423.07,-1307.45 1432.51,-1302.64 1422.13,-1300.51 1423.07,-1307.45"/>
</g>
<!-- slepc&#45;&gt;slepc4py -->
<g id="edge37" class="edge">
<title>slepc&#45;&gt;slepc4py</title>
<path fill="none" stroke="black" d="M1280.98,-1427.56C1318.46,-1416 1382.47,-1396.26 1427.19,-1382.47"/>
<polygon fill="black" stroke="black" points="1428.14,-1385.84 1436.67,-1379.55 1426.08,-1379.15 1428.14,-1385.84"/>
</g>
<!-- fenics&#45;dolfinx&#45;&gt;dolfinx_mpc -->
<g id="edge38" class="edge">
<title>fenics&#45;dolfinx&#45;&gt;dolfinx_mpc</title>
<path fill="none" stroke="black" d="M1522.08,-1276.41C1531.95,-1267.67 1544.23,-1256.79 1555.13,-1247.13"/>
<polygon fill="black" stroke="black" points="1557.2,-1249.97 1562.37,-1240.72 1552.56,-1244.73 1557.2,-1249.97"/>
</g>
<!-- parabem -->
<g id="node33" class="node">
<title>parabem</title>
<g id="a_node33"><a xlink:href="https://github.com/conda-forge/parabem-feedstock/pull/17" xlink:title="parabem ❎">
<ellipse fill="#31688e" stroke="black" cx="429.36" cy="-782" rx="70.68" ry="18"/>
<text text-anchor="middle" x="429.36" y="-777.33" font-family="Times,serif" font-size="14.00" fill="white">parabem ❎</text>
</a>
</g>
</g>
<!-- libmed&#45;&gt;parabem -->
<!-- netcdf4 -->
<g id="node30" class="node">
<title>netcdf4</title>
<g id="a_node30"><a xlink:href="https://github.com/conda-forge/netcdf4-feedstock" xlink:title="netcdf4">
<ellipse fill="#35b779" stroke="black" cx="122.36" cy="-1546" rx="49.1" ry="18"/>
<text text-anchor="middle" x="122.36" y="-1541.33" font-family="Times,serif" font-size="14.00">netcdf4</text>
</a>
</g>
</g>
<!-- netcdf4&#45;&gt;veloxchem -->
<g id="edge28" class="edge">
<title>netcdf4&#45;&gt;veloxchem</title>
<path fill="none" stroke="black" d="M108.62,-1528.41C101.78,-1520.16 93.37,-1510.01 85.72,-1500.78"/>
<polygon fill="black" stroke="black" points="88.45,-1498.59 79.38,-1493.12 83.06,-1503.05 88.45,-1498.59"/>
</g>
<!-- netcdf4&#45;&gt;heat -->
<g id="edge29" class="edge">
<title>netcdf4&#45;&gt;heat</title>
<path fill="none" stroke="black" d="M136.11,-1528.41C143.21,-1519.83 152.03,-1509.19 159.92,-1499.67"/>
<polygon fill="black" stroke="black" points="162.46,-1502.09 166.15,-1492.15 157.07,-1497.62 162.46,-1502.09"/>
</g>
<!-- siesta -->
<g id="node31" class="node">
<title>siesta</title>
<g id="a_node31"><a xlink:href="https://github.com/conda-forge/siesta-feedstock" xlink:title="siesta">
<ellipse fill="#fde725" stroke="black" cx="1338.36" cy="-638" rx="40.69" ry="18"/>
<text text-anchor="middle" x="1338.36" y="-633.33" font-family="Times,serif" font-size="14.00">siesta</text>
</a>
</g>
</g>
<!-- slepc4py&#45;&gt;fenics -->
<g id="edge39" class="edge">
<title>slepc4py&#45;&gt;fenics</title>
<path fill="none" stroke="black" d="M1442,-1351.83C1410.37,-1340.06 1363.99,-1322.79 1330.66,-1310.38"/>
<polygon fill="black" stroke="black" points="1331.91,-1307.11 1321.32,-1306.9 1329.47,-1313.67 1331.91,-1307.11"/>
</g>
<!-- slepc4py&#45;&gt;fenics&#45;dolfinx -->
<g id="edge40" class="edge">
<title>slepc4py&#45;&gt;fenics&#45;dolfinx</title>
<path fill="none" stroke="black" d="M1483.79,-1347.7C1486.59,-1340.15 1489.95,-1331.12 1493.08,-1322.68"/>
<polygon fill="black" stroke="black" points="1496.28,-1324.12 1496.48,-1313.52 1489.72,-1321.68 1496.28,-1324.12"/>
</g>
<!-- dakota -->
<g id="node35" class="node">
<title>dakota</title>
<g id="a_node35"><a xlink:href="https://github.com/conda-forge/dakota-feedstock" xlink:title="dakota">
<ellipse fill="#35b779" stroke="black" cx="429.36" cy="-710" rx="44.9" ry="18"/>
<text text-anchor="middle" x="429.36" y="-705.33" font-family="Times,serif" font-size="14.00">dakota</text>
</a>
</g>
</g>
<!-- parabem&#45;&gt;dakota -->
<!-- openpmd&#45;api -->
<g id="node34" class="node">
<title>openpmd&#45;api</title>
<g id="a_node34"><a xlink:href="https://github.com/conda-forge/openpmd-api-feedstock" xlink:title="openpmd api">
<ellipse fill="#fde725" stroke="black" cx="943.36" cy="-1222" rx="75.94" ry="18"/>
<text text-anchor="middle" x="943.36" y="-1217.33" font-family="Times,serif" font-size="14.00">openpmd api</text>
</a>
</g>
</g>
<!-- scorec -->
<g id="node37" class="node">
<title>scorec</title>
<g id="a_node37"><a xlink:href="https://github.com/conda-forge/scorec-feedstock/pull/12" xlink:title="scorec ❎">
<ellipse fill="#31688e" stroke="black" cx="429.36" cy="-638" rx="58.57" ry="18"/>
<text text-anchor="middle" x="429.36" y="-633.33" font-family="Times,serif" font-size="14.00" fill="white">scorec ❎</text>
</a>
</g>
</g>
<!-- dakota&#45;&gt;scorec -->
<!-- adios2 -->
<g id="node36" class="node">
<title>adios2</title>
<g id="a_node36"><a xlink:href="https://github.com/conda-forge/adios2-feedstock" xlink:title="adios2">
<ellipse fill="#35b779" stroke="black" cx="984.36" cy="-1366" rx="43.84" ry="18"/>
<text text-anchor="middle" x="984.36" y="-1361.33" font-family="Times,serif" font-size="14.00">adios2</text>
</a>
</g>
</g>
<!-- adios2&#45;&gt;casacore -->
<g id="edge43" class="edge">
<title>adios2&#45;&gt;casacore</title>
<path fill="none" stroke="black" d="M994.53,-1348.05C999.33,-1340.06 1005.16,-1330.33 1010.52,-1321.4"/>
<polygon fill="black" stroke="black" points="1013.36,-1323.46 1015.51,-1313.09 1007.36,-1319.86 1013.36,-1323.46"/>
</g>
<!-- adios2&#45;&gt;fenics&#45;dolfinx -->
<g id="edge44" class="edge">
<title>adios2&#45;&gt;fenics&#45;dolfinx</title>
<path fill="none" stroke="black" d="M1023.24,-1357.19C1039.33,-1354.1 1058.21,-1350.66 1075.36,-1348 1195.91,-1329.29 1336.39,-1312.93 1422.59,-1303.5"/>
<polygon fill="black" stroke="black" points="1422.8,-1307 1432.36,-1302.44 1422.04,-1300.04 1422.8,-1307"/>
</g>
<!-- adios2&#45;&gt;openpmd&#45;api -->
<g id="edge45" class="edge">
<title>adios2&#45;&gt;openpmd&#45;api</title>
<path fill="none" stroke="black" d="M976.42,-1348.11C971.82,-1337.84 966.21,-1324.37 962.36,-1312 956.18,-1292.14 951.33,-1269.18 948.08,-1251.55"/>
<polygon fill="black" stroke="black" points="951.54,-1251.03 946.35,-1241.79 944.65,-1252.25 951.54,-1251.03"/>
</g>
<!-- netcdf&#45;cxx&#45;legacy -->
<g id="node42" class="node">
<title>netcdf&#45;cxx&#45;legacy</title>
<g id="a_node42"><a xlink:href="https://github.com/conda-forge/netcdf-cxx-legacy-feedstock" xlink:title="netcdf cxx legacy">
<ellipse fill="#35b779" stroke="black" cx="429.36" cy="-566" rx="98.03" ry="18"/>
<text text-anchor="middle" x="429.36" y="-561.33" font-family="Times,serif" font-size="14.00">netcdf cxx legacy</text>
</a>
</g>
</g>
<!-- scorec&#45;&gt;netcdf&#45;cxx&#45;legacy -->
<!-- triqs -->
<g id="node38" class="node">
<title>triqs</title>
<g id="a_node38"><a xlink:href="https://github.com/conda-forge/triqs-feedstock" xlink:title="triqs">
<ellipse fill="#35b779" stroke="black" cx="1806.36" cy="-746" rx="34.9" ry="18"/>
<text text-anchor="middle" x="1806.36" y="-741.33" font-family="Times,serif" font-size="14.00">triqs</text>
</a>
</g>
</g>
<!-- triqs_tprf -->
<g id="node39" class="node">
<title>triqs_tprf</title>
<g id="a_node39"><a xlink:href="https://github.com/conda-forge/triqs_tprf-feedstock" xlink:title="triqs_tprf">
<ellipse fill="#fde725" stroke="black" cx="1719.36" cy="-674" rx="58.57" ry="18"/>
<text text-anchor="middle" x="1719.36" y="-669.33" font-family="Times,serif" font-size="14.00">triqs_tprf</text>
</a>
</g>
</g>
<!-- triqs&#45;&gt;triqs_tprf -->
<g id="edge47" class="edge">
<title>triqs&#45;&gt;triqs_tprf</title>
<path fill="none" stroke="black" d="M1788.33,-730.5C1776.77,-721.19 1761.49,-708.9 1748.26,-698.25"/>
<polygon fill="black" stroke="black" points="1750.66,-695.69 1740.67,-692.15 1746.27,-701.14 1750.66,-695.69"/>
</g>
<!-- triqs_cthyb -->
<g id="node40" class="node">
<title>triqs_cthyb</title>
<g id="a_node40"><a xlink:href="https://github.com/conda-forge/triqs_cthyb-feedstock" xlink:title="triqs_cthyb">
<ellipse fill="#fde725" stroke="black" cx="1806.36" cy="-602" rx="67.52" ry="18"/>
<text text-anchor="middle" x="1806.36" y="-597.33" font-family="Times,serif" font-size="14.00">triqs_cthyb</text>
</a>
</g>
</g>
<!-- triqs&#45;&gt;triqs_cthyb -->
<g id="edge48" class="edge">
<title>triqs&#45;&gt;triqs_cthyb</title>
<path fill="none" stroke="black" d="M1806.36,-727.59C1806.36,-703.61 1806.36,-660.14 1806.36,-631.42"/>
<polygon fill="black" stroke="black" points="1809.86,-631.62 1806.36,-621.62 1802.86,-631.62 1809.86,-631.62"/>
</g>
<!-- triqs_dft_tools -->
<g id="node41" class="node">
<title>triqs_dft_tools</title>
<g id="a_node41"><a xlink:href="https://github.com/conda-forge/triqs_dft_tools-feedstock" xlink:title="triqs_dft_tools">
<ellipse fill="#fde725" stroke="black" cx="1902.36" cy="-530" rx="82.77" ry="18"/>
<text text-anchor="middle" x="1902.36" y="-525.33" font-family="Times,serif" font-size="14.00">triqs_dft_tools</text>
</a>
</g>
</g>
<!-- triqs&#45;&gt;triqs_dft_tools -->
<g id="edge49" class="edge">
<title>triqs&#45;&gt;triqs_dft_tools</title>
<path fill="none" stroke="black" d="M1818.75,-728.99C1835.85,-706.09 1866.48,-662.11 1883.36,-620 1891.15,-600.58 1895.96,-577.43 1898.8,-559.61"/>
<polygon fill="black" stroke="black" points="1902.26,-560.14 1900.24,-549.74 1895.33,-559.13 1902.26,-560.14"/>
</g>
<!-- conduit -->
<g id="node43" class="node">
<title>conduit</title>
<g id="a_node43"><a xlink:href="https://github.com/conda-forge/conduit-feedstock" xlink:title="conduit">
<ellipse fill="#35b779" stroke="black" cx="429.36" cy="-494" rx="48.58" ry="18"/>
<text text-anchor="middle" x="429.36" y="-489.32" font-family="Times,serif" font-size="14.00">conduit</text>
</a>
</g>
</g>
<!-- netcdf&#45;cxx&#45;legacy&#45;&gt;conduit -->
<!-- parsplice -->
<g id="node44" class="node">
<title>parsplice</title>
<g id="a_node44"><a xlink:href="https://github.com/conda-forge/parsplice-feedstock/pull/13" xlink:title="parsplice ❎">
<ellipse fill="#31688e" stroke="black" cx="429.36" cy="-422" rx="72.25" ry="18"/>
<text text-anchor="middle" x="429.36" y="-417.32" font-family="Times,serif" font-size="14.00" fill="white">parsplice ❎</text>
</a>
</g>
</g>
<!-- conduit&#45;&gt;parsplice -->
<!-- parsmurf -->
<g id="node45" class="node">
<title>parsmurf</title>
<g id="a_node45"><a xlink:href="https://github.com/conda-forge/parsmurf-feedstock/pull/4" xlink:title="parsmurf ❎">
<ellipse fill="#31688e" stroke="black" cx="429.36" cy="-350" rx="72.78" ry="18"/>
<text text-anchor="middle" x="429.36" y="-345.32" font-family="Times,serif" font-size="14.00" fill="white">parsmurf ❎</text>
</a>
</g>
</g>
<!-- parsplice&#45;&gt;parsmurf -->
<!-- mrchem -->
<g id="node49" class="node">
<title>mrchem</title>
<g id="a_node49"><a xlink:href="https://github.com/conda-forge/mrchem-feedstock/pull/28" xlink:title="mrchem ❎">
<ellipse fill="#31688e" stroke="black" cx="429.36" cy="-278" rx="67.52" ry="18"/>
<text text-anchor="middle" x="429.36" y="-273.32" font-family="Times,serif" font-size="14.00" fill="white">mrchem ❎</text>
</a>
</g>
</g>
<!-- parsmurf&#45;&gt;mrchem -->
<!-- qe -->
<g id="node46" class="node">
<title>qe</title>
<g id="a_node46"><a xlink:href="https://github.com/conda-forge/qe-feedstock" xlink:title="qe">
<ellipse fill="#fde725" stroke="black" cx="1407.36" cy="-566" rx="27" ry="18"/>
<text text-anchor="middle" x="1407.36" y="-561.33" font-family="Times,serif" font-size="14.00">qe</text>
</a>
</g>
</g>
<!-- dftbplus -->
<g id="node47" class="node">
<title>dftbplus</title>
<g id="a_node47"><a xlink:href="https://github.com/conda-forge/dftbplus-feedstock" xlink:title="dftbplus">
<ellipse fill="#fde725" stroke="black" cx="1159.36" cy="-494" rx="52.79" ry="18"/>
<text text-anchor="middle" x="1159.36" y="-489.32" font-family="Times,serif" font-size="14.00">dftbplus</text>
</a>
</g>
</g>
<!-- libmbd -->
<g id="node48" class="node">
<title>libmbd</title>
<g id="a_node48"><a xlink:href="https://github.com/conda-forge/libmbd-feedstock" xlink:title="libmbd">
<ellipse fill="#fde725" stroke="black" cx="1122.36" cy="-566" rx="45.95" ry="18"/>
<text text-anchor="middle" x="1122.36" y="-561.33" font-family="Times,serif" font-size="14.00">libmbd</text>
</a>
</g>
</g>
<!-- libmbd&#45;&gt;dftbplus -->
<g id="edge54" class="edge">
<title>libmbd&#45;&gt;dftbplus</title>
<path fill="none" stroke="black" d="M1131.32,-548.05C1135.5,-540.14 1140.58,-530.54 1145.25,-521.69"/>
<polygon fill="black" stroke="black" points="1148.2,-523.6 1149.78,-513.13 1142.01,-520.33 1148.2,-523.6"/>
</g>
<!-- scalapackfx -->
<g id="node50" class="node">
<title>scalapackfx</title>
<g id="a_node50"><a xlink:href="https://github.com/conda-forge/scalapackfx-feedstock" xlink:title="scalapackfx">
<ellipse fill="#35b779" stroke="black" cx="1293.36" cy="-566" rx="69.1" ry="18"/>
<text text-anchor="middle" x="1293.36" y="-561.33" font-family="Times,serif" font-size="14.00">scalapackfx</text>
</a>
</g>
</g>
<!-- scalapackfx&#45;&gt;dftbplus -->
<g id="edge56" class="edge">
<title>scalapackfx&#45;&gt;dftbplus</title>
<path fill="none" stroke="black" d="M1263.62,-549.46C1244.1,-539.27 1218.38,-525.83 1197.38,-514.86"/>
<polygon fill="black" stroke="black" points="1199.01,-511.76 1188.53,-510.24 1195.77,-517.97 1199.01,-511.76"/>
</g>
<!-- libnegf -->
<g id="node51" class="node">
<title>libnegf</title>
<g id="a_node51"><a xlink:href="https://github.com/conda-forge/libnegf-feedstock/pull/17" xlink:title="libnegf ❎">
<ellipse fill="#31688e" stroke="black" cx="1196.36" cy="-638" rx="61.2" ry="18"/>
<text text-anchor="middle" x="1196.36" y="-633.33" font-family="Times,serif" font-size="14.00" fill="white">libnegf ❎</text>
</a>
</g>
</g>
<!-- libnegf&#45;&gt;dftbplus -->
<g id="edge57" class="edge">
<title>libnegf&#45;&gt;dftbplus</title>
<path fill="none" stroke="black" d="M1193.31,-619.79C1189.96,-601.76 1184.16,-572.68 1177.36,-548 1175.08,-539.72 1172.23,-530.84 1169.47,-522.77"/>
<polygon fill="black" stroke="black" points="1172.82,-521.74 1166.21,-513.46 1166.21,-524.05 1172.82,-521.74"/>
</g>
<!-- tempest&#45;extremes -->
<g id="node52" class="node">
<title>tempest&#45;extremes</title>
<g id="a_node52"><a xlink:href="https://github.com/conda-forge/tempest-extremes-feedstock/pull/9" xlink:title="tempest extremes ❎">
<ellipse fill="#31688e" stroke="black" cx="1823.36" cy="-1762" rx="117.5" ry="18"/>
<text text-anchor="middle" x="1823.36" y="-1757.33" font-family="Times,serif" font-size="14.00" fill="white">tempest extremes ❎</text>
</a>
</g>
</g>
<!-- analisi -->
<g id="node53" class="node">
<title>analisi</title>
<g id="a_node53"><a xlink:href="https://github.com/conda-forge/analisi-feedstock/pull/33" xlink:title="analisi ❎">
<ellipse fill="#31688e" stroke="black" cx="1823.36" cy="-1690" rx="59.1" ry="18"/>
<text text-anchor="middle" x="1823.36" y="-1685.33" font-family="Times,serif" font-size="14.00" fill="white">analisi ❎</text>
</a>
</g>
</g>
<!-- tempest&#45;extremes&#45;&gt;analisi -->
<!-- nwchem -->
<g id="node54" class="node">
<title>nwchem</title>
<g id="a_node54"><a xlink:href="https://github.com/conda-forge/nwchem-feedstock" xlink:title="nwchem">
<ellipse fill="#35b779" stroke="black" cx="1823.36" cy="-1618" rx="52.79" ry="18"/>
<text text-anchor="middle" x="1823.36" y="-1613.33" font-family="Times,serif" font-size="14.00">nwchem</text>
</a>
</g>
</g>
<!-- analisi&#45;&gt;nwchem -->
<!-- bmad -->
<g id="node55" class="node">
<title>bmad</title>
<g id="a_node55"><a xlink:href="https://github.com/conda-forge/bmad-feedstock" xlink:title="bmad">
<ellipse fill="#35b779" stroke="black" cx="1823.36" cy="-1546" rx="39.11" ry="18"/>
<text text-anchor="middle" x="1823.36" y="-1541.33" font-family="Times,serif" font-size="14.00">bmad</text>
</a>
</g>
</g>
<!-- nwchem&#45;&gt;bmad -->
<!-- mfem -->
<g id="node56" class="node">
<title>mfem</title>
<g id="a_node56"><a xlink:href="https://github.com/conda-forge/mfem-feedstock/pull/13" xlink:title="mfem ❎">
<ellipse fill="#31688e" stroke="black" cx="1823.36" cy="-1474" rx="54.89" ry="18"/>
<text text-anchor="middle" x="1823.36" y="-1469.33" font-family="Times,serif" font-size="14.00" fill="white">mfem ❎</text>
</a>
</g>
</g>
<!-- bmad&#45;&gt;mfem -->
<!-- timemory -->
<g id="node57" class="node">
<title>timemory</title>
<g id="a_node57"><a xlink:href="https://github.com/conda-forge/timemory-feedstock" xlink:title="timemory">
<ellipse fill="#000000" stroke="black" cx="1823.36" cy="-1402" rx="59.63" ry="18"/>
<text text-anchor="middle" x="1823.36" y="-1397.33" font-family="Times,serif" font-size="14.00" fill="white">timemory</text>
</a>
</g>
</g>
<!-- mfem&#45;&gt;timemory -->
<!-- pexsi -->
<g id="node58" class="node">
<title>pexsi</title>
<g id="a_node58"><a xlink:href="https://github.com/conda-forge/pexsi-feedstock/pull/10" xlink:title="pexsi ❎">
<ellipse fill="#31688e" stroke="black" cx="1823.36" cy="-1330" rx="52.79" ry="18"/>
<text text-anchor="middle" x="1823.36" y="-1325.33" font-family="Times,serif" font-size="14.00" fill="white">pexsi ❎</text>
</a>
</g>
</g>
<!-- timemory&#45;&gt;pexsi -->
<!-- eigenexa -->
<g id="node64" class="node">
<title>eigenexa</title>
<g id="a_node64"><a xlink:href="https://github.com/conda-forge/eigenexa-feedstock" xlink:title="eigenexa">
<ellipse fill="#35b779" stroke="black" cx="1823.36" cy="-1258" rx="55.94" ry="18"/>
<text text-anchor="middle" x="1823.36" y="-1253.33" font-family="Times,serif" font-size="14.00">eigenexa</text>
</a>
</g>
</g>
<!-- pexsi&#45;&gt;eigenexa -->
<!-- elpa -->
<g id="node59" class="node">
<title>elpa</title>
<g id="a_node59"><a xlink:href="https://github.com/conda-forge/elpa-feedstock" xlink:title="elpa">
<ellipse fill="#35b779" stroke="black" cx="1372.36" cy="-710" rx="32.27" ry="18"/>
<text text-anchor="middle" x="1372.36" y="-705.33" font-family="Times,serif" font-size="14.00">elpa</text>
</a>
</g>
</g>
<!-- elpa&#45;&gt;siesta -->
<g id="edge64" class="edge">
<title>elpa&#45;&gt;siesta</title>
<path fill="none" stroke="black" d="M1364.3,-692.41C1360.51,-684.59 1355.88,-675.06 1351.58,-666.23"/>
<polygon fill="black" stroke="black" points="1354.78,-664.78 1347.26,-657.32 1348.48,-667.84 1354.78,-664.78"/>
</g>
<!-- elpa&#45;&gt;qe -->
<g id="edge65" class="edge">
<title>elpa&#45;&gt;qe</title>
<path fill="none" stroke="black" d="M1377.91,-691.92C1381.17,-681.58 1385.25,-668.1 1388.36,-656 1393.54,-635.86 1398.42,-612.9 1401.93,-595.35"/>
<polygon fill="black" stroke="black" points="1405.35,-596.13 1403.84,-585.65 1398.48,-594.78 1405.35,-596.13"/>
</g>
<!-- elsi -->
<g id="node60" class="node">
<title>elsi</title>
<g id="a_node60"><a xlink:href="https://github.com/conda-forge/elsi-feedstock" xlink:title="elsi">
<ellipse fill="#fde725" stroke="black" cx="1088.36" cy="-638" rx="28.59" ry="18"/>
<text text-anchor="middle" x="1088.36" y="-633.33" font-family="Times,serif" font-size="14.00">elsi</text>
</a>
</g>
</g>
<!-- elpa&#45;&gt;elsi -->
<g id="edge66" class="edge">
<title>elpa&#45;&gt;elsi</title>
<path fill="none" stroke="black" d="M1341.13,-704.42C1293.88,-697 1201.72,-680.67 1126.36,-656 1124.57,-655.41 1122.74,-654.77 1120.91,-654.08"/>
<polygon fill="black" stroke="black" points="1122.54,-650.97 1111.96,-650.43 1119.9,-657.45 1122.54,-650.97"/>
</g>
<!-- abacus -->
<g id="node61" class="node">
<title>abacus</title>
<g id="a_node61"><a xlink:href="https://github.com/conda-forge/abacus-feedstock" xlink:title="abacus">
<ellipse fill="#fde725" stroke="black" cx="1462.36" cy="-494" rx="45.95" ry="18"/>
<text text-anchor="middle" x="1462.36" y="-489.32" font-family="Times,serif" font-size="14.00">abacus</text>
</a>
</g>
</g>
<!-- elpa&#45;&gt;abacus -->
<g id="edge67" class="edge">
<title>elpa&#45;&gt;abacus</title>
<path fill="none" stroke="black" d="M1383.19,-693.01C1390.08,-682.62 1399.05,-668.69 1406.36,-656 1424.32,-624.82 1431.28,-617.89 1443.36,-584 1450.35,-564.41 1455.17,-541.44 1458.21,-523.74"/>
<polygon fill="black" stroke="black" points="1461.66,-524.36 1459.79,-513.93 1454.74,-523.24 1461.66,-524.36"/>
</g>
<!-- elsi&#45;&gt;dftbplus -->
<g id="edge68" class="edge">
<title>elsi&#45;&gt;dftbplus</title>
<path fill="none" stroke="black" d="M1077.89,-620.87C1067.23,-602.2 1054.01,-571.09 1067.36,-548 1076.91,-531.48 1093.78,-519.65 1110.49,-511.43"/>
<polygon fill="black" stroke="black" points="1111.75,-514.7 1119.42,-507.38 1108.87,-508.32 1111.75,-514.7"/>
</g>
<!-- elsi&#45;&gt;libmbd -->
<g id="edge69" class="edge">
<title>elsi&#45;&gt;libmbd</title>
<path fill="none" stroke="black" d="M1096.42,-620.41C1100.22,-612.59 1104.85,-603.06 1109.14,-594.23"/>
<polygon fill="black" stroke="black" points="1112.24,-595.84 1113.46,-585.32 1105.95,-592.78 1112.24,-595.84"/>
</g>
<!-- libomm -->
<g id="node62" class="node">
<title>libomm</title>
<g id="a_node62"><a xlink:href="https://github.com/conda-forge/libomm-feedstock" xlink:title="libomm">
<ellipse fill="#fde725" stroke="black" cx="1127.36" cy="-710" rx="48.58" ry="18"/>
<text text-anchor="middle" x="1127.36" y="-705.33" font-family="Times,serif" font-size="14.00">libomm</text>
</a>
</g>
</g>
<!-- libomm&#45;&gt;elsi -->
<g id="edge70" class="edge">
<title>libomm&#45;&gt;elsi</title>
<path fill="none" stroke="black" d="M1117.92,-692.05C1113.45,-684.03 1108,-674.26 1103.01,-665.3"/>
<polygon fill="black" stroke="black" points="1106.11,-663.66 1098.18,-656.63 1099.99,-667.07 1106.11,-663.66"/>
</g>
<!-- matrixswitch -->
<g id="node63" class="node">
<title>matrixswitch</title>
<g id="a_node63"><a xlink:href="https://github.com/conda-forge/matrixswitch-feedstock" xlink:title="matrixswitch">
<ellipse fill="#35b779" stroke="black" cx="1088.36" cy="-782" rx="76.99" ry="18"/>
<text text-anchor="middle" x="1088.36" y="-777.33" font-family="Times,serif" font-size="14.00">matrixswitch</text>
</a>
</g>
</g>
<!-- matrixswitch&#45;&gt;elsi -->
<g id="edge71" class="edge">
<title>matrixswitch&#45;&gt;elsi</title>
<path fill="none" stroke="black" d="M1080.47,-763.75C1076.25,-753.58 1071.5,-740.33 1069.36,-728 1066.62,-712.24 1066.62,-707.76 1069.36,-692 1070.84,-683.49 1073.56,-674.54 1076.49,-666.47"/>
<polygon fill="black" stroke="black" points="1079.74,-667.78 1080.11,-657.19 1073.22,-665.23 1079.74,-667.78"/>
</g>
<!-- matrixswitch&#45;&gt;libomm -->
<g id="edge72" class="edge">
<title>matrixswitch&#45;&gt;libomm</title>
<path fill="none" stroke="black" d="M1098,-763.7C1102.3,-755.98 1107.46,-746.71 1112.26,-738.11"/>
<polygon fill="black" stroke="black" points="1115.29,-739.87 1117.09,-729.43 1109.17,-736.46 1115.29,-739.87"/>
</g>
<!-- fleur -->
<g id="node65" class="node">
<title>fleur</title>
<g id="a_node65"><a xlink:href="https://github.com/conda-forge/fleur-feedstock" xlink:title="fleur">
<ellipse fill="#35b779" stroke="black" cx="1823.36" cy="-1186" rx="34.37" ry="18"/>
<text text-anchor="middle" x="1823.36" y="-1181.33" font-family="Times,serif" font-size="14.00">fleur</text>
</a>
</g>
</g>
<!-- eigenexa&#45;&gt;fleur -->
<!-- edrixs -->
<g id="node66" class="node">
<title>edrixs</title>
<g id="a_node66"><a xlink:href="https://github.com/conda-forge/edrixs-feedstock/pull/14" xlink:title="edrixs ❎">
<ellipse fill="#31688e" stroke="black" cx="1823.36" cy="-1114" rx="57.52" ry="18"/>
<text text-anchor="middle" x="1823.36" y="-1109.33" font-family="Times,serif" font-size="14.00" fill="white">edrixs ❎</text>
</a>
</g>
</g>
<!-- fleur&#45;&gt;edrixs -->
<!-- openphase -->
<g id="node67" class="node">
<title>openphase</title>
<g id="a_node67"><a xlink:href="https://github.com/conda-forge/openphase-feedstock/pull/2" xlink:title="openphase ❎">
<ellipse fill="#31688e" stroke="black" cx="1823.36" cy="-1042" rx="80.14" ry="18"/>
<text text-anchor="middle" x="1823.36" y="-1037.33" font-family="Times,serif" font-size="14.00" fill="white">openphase ❎</text>
</a>
</g>
</g>
<!-- edrixs&#45;&gt;openphase -->
<!-- sparc&#45;x -->
<g id="node68" class="node">
<title>sparc&#45;x</title>
<g id="a_node68"><a xlink:href="https://github.com/conda-forge/sparc-x-feedstock" xlink:title="sparc x">
<ellipse fill="#35b779" stroke="black" cx="429.36" cy="-234" rx="47.53" ry="18"/>
<text text-anchor="middle" x="429.36" y="-229.32" font-family="Times,serif" font-size="14.00">sparc x</text>
</a>
</g>
</g>
<!-- reef3d -->
<g id="node69" class="node">
<title>reef3d</title>
<g id="a_node69"><a xlink:href="https://github.com/conda-forge/reef3d-feedstock/pull/11" xlink:title="reef3d ✓">
<ellipse fill="#31688e" stroke="black" cx="429.36" cy="-162" rx="51.74" ry="18"/>
<text text-anchor="middle" x="429.36" y="-157.32" font-family="Times,serif" font-size="14.00" fill="white">reef3d ✓</text>
</a>
</g>
</g>
<!-- sparc&#45;x&#45;&gt;reef3d -->
<!-- genesis4 -->
<g id="node70" class="node">
<title>genesis4</title>
<g id="a_node70"><a xlink:href="https://github.com/conda-forge/genesis4-feedstock" xlink:title="genesis4">
<ellipse fill="#35b779" stroke="black" cx="429.36" cy="-90" rx="55.42" ry="18"/>
<text text-anchor="middle" x="429.36" y="-85.33" font-family="Times,serif" font-size="14.00">genesis4</text>
</a>
</g>
</g>
<!-- reef3d&#45;&gt;genesis4 -->
<!-- opentelemac -->
<g id="node71" class="node">
<title>opentelemac</title>
<g id="a_node71"><a xlink:href="https://github.com/conda-forge/opentelemac-feedstock/pull/2" xlink:title="opentelemac ❎">
<ellipse fill="#31688e" stroke="black" cx="429.36" cy="-18" rx="90.14" ry="18"/>
<text text-anchor="middle" x="429.36" y="-13.32" font-family="Times,serif" font-size="14.00" fill="white">opentelemac ❎</text>
</a>
</g>
</g>
<!-- genesis4&#45;&gt;opentelemac -->
</g>
</svg>
