<?xml version="1.0" encoding="UTF-8" standalone="no"?>
<!DOCTYPE svg PUBLIC "-//W3C//DTD SVG 1.1//EN"
 "http://www.w3.org/Graphics/SVG/1.1/DTD/svg11.dtd">
<!-- Generated by graphviz version 11.0.0 (20240519.1550)
 -->
<!-- Pages: 1 -->
<svg width="2051pt" height="1788pt"
 viewBox="0.00 0.00 2051.14 1788.00" xmlns="http://www.w3.org/2000/svg" xmlns:xlink="http://www.w3.org/1999/xlink">
<g id="graph0" class="graph" transform="scale(1 1) rotate(0) translate(4 1784)">
<polygon fill="white" stroke="none" points="-4,4 -4,-1784 2047.14,-1784 2047.14,4 -4,4"/>
<!-- casacore -->
<g id="node1" class="node">
<title>casacore</title>
<g id="a_node1"><a xlink:href="https://github.com/conda-forge/casacore-feedstock" xlink:title="casacore">
<ellipse fill="#fde725" stroke="black" cx="1069.36" cy="-1294" rx="54.89" ry="18"/>
<text text-anchor="middle" x="1069.36" y="-1289.33" font-family="Times,serif" font-size="14.00">casacore</text>
</a>
</g>
</g>
<!-- esmf -->
<g id="node2" class="node">
<title>esmf</title>
<g id="a_node2"><a xlink:href="https://github.com/conda-forge/esmf-feedstock/pull/116" xlink:title="esmf ❎">
<ellipse fill="#31688e" stroke="black" cx="451.36" cy="-998" rx="50.68" ry="18"/>
<text text-anchor="middle" x="451.36" y="-993.33" font-family="Times,serif" font-size="14.00" fill="white">esmf ❎</text>
</a>
</g>
</g>
<!-- netcdf&#45;cxx4 -->
<g id="node3" class="node">
<title>netcdf&#45;cxx4</title>
<g id="a_node3"><a xlink:href="https://github.com/conda-forge/netcdf-cxx4-feedstock/pull/48" xlink:title="netcdf cxx4 ❎">
<ellipse fill="#31688e" stroke="black" cx="451.36" cy="-926" rx="84.35" ry="18"/>
<text text-anchor="middle" x="451.36" y="-921.33" font-family="Times,serif" font-size="14.00" fill="white">netcdf cxx4 ❎</text>
</a>
</g>
</g>
<!-- esmf&#45;&gt;netcdf&#45;cxx4 -->
<!-- libmed -->
<g id="node29" class="node">
<title>libmed</title>
<g id="a_node29"><a xlink:href="https://github.com/conda-forge/libmed-feedstock" xlink:title="libmed">
<ellipse fill="#35b779" stroke="black" cx="451.36" cy="-854" rx="45.42" ry="18"/>
<text text-anchor="middle" x="451.36" y="-849.33" font-family="Times,serif" font-size="14.00">libmed</text>
</a>
</g>
</g>
<!-- netcdf&#45;cxx4&#45;&gt;libmed -->
<!-- fenics -->
<g id="node4" class="node">
<title>fenics</title>
<g id="a_node4"><a xlink:href="https://github.com/conda-forge/fenics-feedstock" xlink:title="fenics">
<ellipse fill="#fde725" stroke="black" cx="1347.36" cy="-1294" rx="40.69" ry="18"/>
<text text-anchor="middle" x="1347.36" y="-1289.33" font-family="Times,serif" font-size="14.00">fenics</text>
</a>
</g>
</g>
<!-- mshr -->
<g id="node5" class="node">
<title>mshr</title>
<g id="a_node5"><a xlink:href="https://github.com/conda-forge/mshr-feedstock" xlink:title="mshr">
<ellipse fill="#fde725" stroke="black" cx="1347.36" cy="-1222" rx="37" ry="18"/>
<text text-anchor="middle" x="1347.36" y="-1217.33" font-family="Times,serif" font-size="14.00">mshr</text>
</a>
</g>
</g>
<!-- fenics&#45;&gt;mshr -->
<g id="edge2" class="edge">
<title>fenics&#45;&gt;mshr</title>
<path fill="none" stroke="black" d="M1347.36,-1275.7C1347.36,-1268.41 1347.36,-1259.73 1347.36,-1251.54"/>
<polygon fill="black" stroke="black" points="1350.86,-1251.62 1347.36,-1241.62 1343.86,-1251.62 1350.86,-1251.62"/>
</g>
<!-- h5py -->
<g id="node6" class="node">
<title>h5py</title>
<g id="a_node6"><a xlink:href="https://github.com/conda-forge/h5py-feedstock/pull/141" xlink:title="h5py ❎">
<ellipse fill="#31688e" stroke="black" cx="517.36" cy="-1546" rx="51.21" ry="18"/>
<text text-anchor="middle" x="517.36" y="-1541.33" font-family="Times,serif" font-size="14.00" fill="white">h5py ❎</text>
</a>
</g>
</g>
<!-- openmc -->
<g id="node7" class="node">
<title>openmc</title>
<g id="a_node7"><a xlink:href="https://github.com/conda-forge/openmc-feedstock" xlink:title="openmc">
<ellipse fill="#fde725" stroke="black" cx="842.36" cy="-1474" rx="50.16" ry="18"/>
<text text-anchor="middle" x="842.36" y="-1469.33" font-family="Times,serif" font-size="14.00">openmc</text>
</a>
</g>
</g>
<!-- h5py&#45;&gt;openmc -->
<g id="edge3" class="edge">
<title>h5py&#45;&gt;openmc</title>
<path fill="none" stroke="black" d="M560.86,-1536.24C611.32,-1525.99 696.99,-1508.34 770.36,-1492 777.02,-1490.52 784.03,-1488.91 790.94,-1487.31"/>
<polygon fill="black" stroke="black" points="791.25,-1490.83 800.19,-1485.14 789.65,-1484.02 791.25,-1490.83"/>
</g>
<!-- lalinference -->
<g id="node8" class="node">
<title>lalinference</title>
<g id="a_node8"><a xlink:href="https://github.com/conda-forge/lalinference-feedstock" xlink:title="lalinference">
<ellipse fill="#fde725" stroke="black" cx="339.36" cy="-1474" rx="70.15" ry="18"/>
<text text-anchor="middle" x="339.36" y="-1469.33" font-family="Times,serif" font-size="14.00">lalinference</text>
</a>
</g>
</g>
<!-- h5py&#45;&gt;lalinference -->
<g id="edge4" class="edge">
<title>h5py&#45;&gt;lalinference</title>
<path fill="none" stroke="black" d="M484.3,-1532C456.96,-1521.25 417.77,-1505.84 387.04,-1493.75"/>
<polygon fill="black" stroke="black" points="388.55,-1490.58 377.96,-1490.18 385.99,-1497.1 388.55,-1490.58"/>
</g>
<!-- lfpy -->
<g id="node9" class="node">
<title>lfpy</title>
<g id="a_node9"><a xlink:href="https://github.com/conda-forge/lfpy-feedstock" xlink:title="lfpy">
<ellipse fill="#fde725" stroke="black" cx="731.36" cy="-1474" rx="30.16" ry="18"/>
<text text-anchor="middle" x="731.36" y="-1469.33" font-family="Times,serif" font-size="14.00">lfpy</text>
</a>
</g>
</g>
<!-- h5py&#45;&gt;lfpy -->
<g id="edge5" class="edge">
<title>h5py&#45;&gt;lfpy</title>
<path fill="none" stroke="black" d="M555.75,-1533.83C590.36,-1523.56 642.55,-1507.62 687.36,-1492 690.23,-1491 693.2,-1489.93 696.17,-1488.83"/>
<polygon fill="black" stroke="black" points="697.26,-1492.16 705.38,-1485.36 694.79,-1485.61 697.26,-1492.16"/>
</g>
<!-- deepmd&#45;kit -->
<g id="node10" class="node">
<title>deepmd&#45;kit</title>
<g id="a_node10"><a xlink:href="https://github.com/conda-forge/deepmd-kit-feedstock" xlink:title="deepmd kit">
<ellipse fill="#fde725" stroke="black" cx="237.36" cy="-1402" rx="67.52" ry="18"/>
<text text-anchor="middle" x="237.36" y="-1397.33" font-family="Times,serif" font-size="14.00">deepmd kit</text>
</a>
</g>
</g>
<!-- h5py&#45;&gt;deepmd&#45;kit -->
<g id="edge6" class="edge">
<title>h5py&#45;&gt;deepmd&#45;kit</title>
<path fill="none" stroke="black" d="M467.67,-1540.94C401.56,-1534.53 289.61,-1519.83 260.36,-1492 244.18,-1476.6 238.82,-1451.44 237.28,-1431.79"/>
<polygon fill="black" stroke="black" points="240.78,-1431.75 236.82,-1421.92 233.79,-1432.07 240.78,-1431.75"/>
</g>
<!-- dedalus -->
<g id="node11" class="node">
<title>dedalus</title>
<g id="a_node11"><a xlink:href="https://github.com/conda-forge/dedalus-feedstock" xlink:title="dedalus">
<ellipse fill="#fde725" stroke="black" cx="713.36" cy="-1330" rx="50.16" ry="18"/>
<text text-anchor="middle" x="713.36" y="-1325.33" font-family="Times,serif" font-size="14.00">dedalus</text>
</a>
</g>
</g>
<!-- h5py&#45;&gt;dedalus -->
<g id="edge7" class="edge">
<title>h5py&#45;&gt;dedalus</title>
<path fill="none" stroke="black" d="M561.55,-1536.66C589.88,-1529.26 625.65,-1515.79 649.36,-1492 686.18,-1455.06 702.48,-1394.29 709.17,-1358.93"/>
<polygon fill="black" stroke="black" points="712.55,-1359.93 710.82,-1349.47 705.65,-1358.72 712.55,-1359.93"/>
</g>
<!-- ondamonitor -->
<g id="node12" class="node">
<title>ondamonitor</title>
<g id="a_node12"><a xlink:href="https://github.com/conda-forge/ondamonitor-feedstock" xlink:title="ondamonitor">
<ellipse fill="#fde725" stroke="black" cx="700.36" cy="-1258" rx="74.88" ry="18"/>
<text text-anchor="middle" x="700.36" y="-1253.33" font-family="Times,serif" font-size="14.00">ondamonitor</text>
</a>
</g>
</g>
<!-- h5py&#45;&gt;ondamonitor -->
<g id="edge8" class="edge">
<title>h5py&#45;&gt;ondamonitor</title>
<path fill="none" stroke="black" d="M553.53,-1532.86C573.43,-1524.4 596.93,-1511.15 611.36,-1492 660.87,-1426.32 616.77,-1385.16 654.36,-1312 659.57,-1301.87 667.11,-1292.06 674.58,-1283.7"/>
<polygon fill="black" stroke="black" points="676.91,-1286.34 681.21,-1276.66 671.81,-1281.54 676.91,-1286.34"/>
</g>
<!-- alamode -->
<g id="node13" class="node">
<title>alamode</title>
<g id="a_node13"><a xlink:href="https://github.com/conda-forge/alamode-feedstock" xlink:title="alamode">
<ellipse fill="#fde725" stroke="black" cx="597.36" cy="-1186" rx="53.31" ry="18"/>
<text text-anchor="middle" x="597.36" y="-1181.33" font-family="Times,serif" font-size="14.00">alamode</text>
</a>
</g>
</g>
<!-- h5py&#45;&gt;alamode -->
<g id="edge9" class="edge">
<title>h5py&#45;&gt;alamode</title>
<path fill="none" stroke="black" d="M541.32,-1529.88C554.23,-1520.51 569.31,-1507.35 578.36,-1492 598.91,-1457.16 597.36,-1443.45 597.36,-1403 597.36,-1403 597.36,-1403 597.36,-1329 597.36,-1289.74 597.36,-1244.38 597.36,-1215.69"/>
<polygon fill="black" stroke="black" points="600.86,-1216 597.36,-1206 593.86,-1216 600.86,-1216"/>
</g>
<!-- veloxchem -->
<g id="node14" class="node">
<title>veloxchem</title>
<g id="a_node14"><a xlink:href="https://github.com/conda-forge/veloxchem-feedstock" xlink:title="veloxchem">
<ellipse fill="#fde725" stroke="black" cx="64.36" cy="-1474" rx="64.36" ry="18"/>
<text text-anchor="middle" x="64.36" y="-1469.33" font-family="Times,serif" font-size="14.00">veloxchem</text>
</a>
</g>
</g>
<!-- h5py&#45;&gt;veloxchem -->
<g id="edge10" class="edge">
<title>h5py&#45;&gt;veloxchem</title>
<path fill="none" stroke="black" d="M468.98,-1539.6C396.73,-1531.23 256.46,-1513.78 138.36,-1492 133.2,-1491.05 127.86,-1489.98 122.52,-1488.86"/>
<polygon fill="black" stroke="black" points="123.6,-1485.51 113.08,-1486.82 122.12,-1492.35 123.6,-1485.51"/>
</g>
<!-- heat -->
<g id="node15" class="node">
<title>heat</title>
<g id="a_node15"><a xlink:href="https://github.com/conda-forge/heat-feedstock" xlink:title="heat">
<ellipse fill="#fde725" stroke="black" cx="180.36" cy="-1474" rx="33.32" ry="18"/>
<text text-anchor="middle" x="180.36" y="-1469.33" font-family="Times,serif" font-size="14.00">heat</text>
</a>
</g>
</g>
<!-- h5py&#45;&gt;heat -->
<g id="edge11" class="edge">
<title>h5py&#45;&gt;heat</title>
<path fill="none" stroke="black" d="M469.86,-1538.8C411.97,-1530.67 311.48,-1514.73 227.36,-1492 224.03,-1491.1 220.61,-1490.07 217.19,-1488.97"/>
<polygon fill="black" stroke="black" points="218.49,-1485.72 207.9,-1485.8 216.23,-1492.34 218.49,-1485.72"/>
</g>
<!-- horovod -->
<g id="node16" class="node">
<title>horovod</title>
<g id="a_node16"><a xlink:href="https://github.com/conda-forge/horovod-feedstock" xlink:title="horovod">
<ellipse fill="#fde725" stroke="black" cx="517.36" cy="-1474" rx="51.74" ry="18"/>
<text text-anchor="middle" x="517.36" y="-1469.33" font-family="Times,serif" font-size="14.00">horovod</text>
</a>
</g>
</g>
<!-- h5py&#45;&gt;horovod -->
<g id="edge12" class="edge">
<title>h5py&#45;&gt;horovod</title>
<path fill="none" stroke="black" d="M517.36,-1527.7C517.36,-1520.41 517.36,-1511.73 517.36,-1503.54"/>
<polygon fill="black" stroke="black" points="520.86,-1503.62 517.36,-1493.62 513.86,-1503.62 520.86,-1503.62"/>
</g>
<!-- fluidfft&#45;mpi_with_fftw -->
<g id="node17" class="node">
<title>fluidfft&#45;mpi_with_fftw</title>
<g id="a_node17"><a xlink:href="https://github.com/conda-forge/fluidfft-mpi_with_fftw-feedstock" xlink:title="fluidfft mpi_with_fftw">
<ellipse fill="#fde725" stroke="black" cx="440.36" cy="-1402" rx="117.5" ry="18"/>
<text text-anchor="middle" x="440.36" y="-1397.33" font-family="Times,serif" font-size="14.00">fluidfft mpi_with_fftw</text>
</a>
</g>
</g>
<!-- h5py&#45;&gt;fluidfft&#45;mpi_with_fftw -->
<g id="edge13" class="edge">
<title>h5py&#45;&gt;fluidfft&#45;mpi_with_fftw</title>
<path fill="none" stroke="black" d="M492.9,-1529.77C480.01,-1520.45 465.09,-1507.37 456.36,-1492 445.91,-1473.61 442.03,-1449.93 440.7,-1431.62"/>
<polygon fill="black" stroke="black" points="444.2,-1431.53 440.21,-1421.72 437.21,-1431.88 444.2,-1431.53"/>
</g>
<!-- moab -->
<g id="node18" class="node">
<title>moab</title>
<g id="a_node18"><a xlink:href="https://github.com/conda-forge/moab-feedstock/pull/94" xlink:title="moab ❎">
<ellipse fill="#31688e" stroke="black" cx="848.36" cy="-1618" rx="53.84" ry="18"/>
<text text-anchor="middle" x="848.36" y="-1613.33" font-family="Times,serif" font-size="14.00" fill="white">moab ❎</text>
</a>
</g>
</g>
<!-- dagmc -->
<g id="node19" class="node">
<title>dagmc</title>
<g id="a_node19"><a xlink:href="https://github.com/conda-forge/dagmc-feedstock" xlink:title="dagmc">
<ellipse fill="#fde725" stroke="black" cx="848.36" cy="-1546" rx="44.37" ry="18"/>
<text text-anchor="middle" x="848.36" y="-1541.33" font-family="Times,serif" font-size="14.00">dagmc</text>
</a>
</g>
</g>
<!-- moab&#45;&gt;dagmc -->
<g id="edge14" class="edge">
<title>moab&#45;&gt;dagmc</title>
<path fill="none" stroke="black" d="M848.36,-1599.7C848.36,-1592.41 848.36,-1583.73 848.36,-1575.54"/>
<polygon fill="black" stroke="black" points="851.86,-1575.62 848.36,-1565.62 844.86,-1575.62 851.86,-1575.62"/>
</g>
<!-- dagmc&#45;&gt;openmc -->
<g id="edge15" class="edge">
<title>dagmc&#45;&gt;openmc</title>
<path fill="none" stroke="black" d="M846.88,-1527.7C846.25,-1520.41 845.51,-1511.73 844.81,-1503.54"/>
<polygon fill="black" stroke="black" points="848.3,-1503.28 843.96,-1493.61 841.32,-1503.87 848.3,-1503.28"/>
</g>
<!-- mumps -->
<g id="node20" class="node">
<title>mumps</title>
<g id="a_node20"><a xlink:href="https://github.com/conda-forge/mumps-feedstock/pull/116" xlink:title="mumps ✓">
<ellipse fill="#31688e" stroke="black" cx="1070.36" cy="-1582" rx="55.94" ry="18"/>
<text text-anchor="middle" x="1070.36" y="-1577.33" font-family="Times,serif" font-size="14.00" fill="white">mumps ✓</text>
</a>
</g>
</g>
<!-- petsc -->
<g id="node21" class="node">
<title>petsc</title>
<g id="a_node21"><a xlink:href="https://github.com/conda-forge/petsc-feedstock" xlink:title="petsc">
<ellipse fill="#fde725" stroke="black" cx="1308.36" cy="-1510" rx="38.06" ry="18"/>
<text text-anchor="middle" x="1308.36" y="-1505.33" font-family="Times,serif" font-size="14.00">petsc</text>
</a>
</g>
</g>
<!-- mumps&#45;&gt;petsc -->
<g id="edge16" class="edge">
<title>mumps&#45;&gt;petsc</title>
<path fill="none" stroke="black" d="M1110.73,-1569.13C1153.8,-1556.46 1221.74,-1536.48 1265.67,-1523.56"/>
<polygon fill="black" stroke="black" points="1266.51,-1526.96 1275.11,-1520.78 1264.53,-1520.24 1266.51,-1526.96"/>
</g>
<!-- daetk -->
<g id="node22" class="node">
<title>daetk</title>
<g id="a_node22"><a xlink:href="https://github.com/conda-forge/daetk-feedstock" xlink:title="daetk">
<ellipse fill="#fde725" stroke="black" cx="1070.36" cy="-1438" rx="39.11" ry="18"/>
<text text-anchor="middle" x="1070.36" y="-1433.33" font-family="Times,serif" font-size="14.00">daetk</text>
</a>
</g>
</g>
<!-- mumps&#45;&gt;daetk -->
<g id="edge17" class="edge">
<title>mumps&#45;&gt;daetk</title>
<path fill="none" stroke="black" d="M1070.36,-1563.59C1070.36,-1539.61 1070.36,-1496.14 1070.36,-1467.42"/>
<polygon fill="black" stroke="black" points="1073.86,-1467.62 1070.36,-1457.62 1066.86,-1467.62 1073.86,-1467.62"/>
</g>
<!-- freefem -->
<g id="node23" class="node">
<title>freefem</title>
<g id="a_node23"><a xlink:href="https://github.com/conda-forge/freefem-feedstock" xlink:title="freefem">
<ellipse fill="#fde725" stroke="black" cx="1192.36" cy="-1366" rx="50.16" ry="18"/>
<text text-anchor="middle" x="1192.36" y="-1361.33" font-family="Times,serif" font-size="14.00">freefem</text>
</a>
</g>
</g>
<!-- mumps&#45;&gt;freefem -->
<g id="edge18" class="edge">
<title>mumps&#45;&gt;freefem</title>
<path fill="none" stroke="black" d="M1056.64,-1564.3C1032.77,-1533.12 989.17,-1465.11 1022.36,-1420 1036.18,-1401.22 1092.75,-1386.16 1136.89,-1376.97"/>
<polygon fill="black" stroke="black" points="1137.5,-1380.42 1146.61,-1375 1136.12,-1373.56 1137.5,-1380.42"/>
</g>
<!-- petsc&#45;&gt;fenics -->
<g id="edge19" class="edge">
<title>petsc&#45;&gt;fenics</title>
<path fill="none" stroke="black" d="M1278.67,-1498.23C1216.56,-1474.1 1082.73,-1412.7 1133.36,-1348 1153.28,-1322.55 1240.03,-1307.61 1296.78,-1300.4"/>
<polygon fill="black" stroke="black" points="1297.05,-1303.89 1306.55,-1299.2 1296.2,-1296.94 1297.05,-1303.89"/>
</g>
<!-- petsc&#45;&gt;daetk -->
<g id="edge20" class="edge">
<title>petsc&#45;&gt;daetk</title>
<path fill="none" stroke="black" d="M1276.19,-1500.11C1239.21,-1489.82 1176.75,-1472.21 1123.36,-1456 1119.85,-1454.93 1116.21,-1453.81 1112.56,-1452.67"/>
<polygon fill="black" stroke="black" points="1113.73,-1449.37 1103.14,-1449.69 1111.62,-1456.04 1113.73,-1449.37"/>
</g>
<!-- petsc&#45;&gt;freefem -->
<g id="edge21" class="edge">
<title>petsc&#45;&gt;freefem</title>
<path fill="none" stroke="black" d="M1294.06,-1492.94C1284.88,-1482.52 1272.76,-1468.58 1262.36,-1456 1244.87,-1434.84 1225.63,-1410.28 1211.76,-1392.33"/>
<polygon fill="black" stroke="black" points="1214.83,-1390.58 1205.95,-1384.79 1209.28,-1394.85 1214.83,-1390.58"/>
</g>
<!-- petsc4py -->
<g id="node24" class="node">
<title>petsc4py</title>
<g id="a_node24"><a xlink:href="https://github.com/conda-forge/petsc4py-feedstock" xlink:title="petsc4py">
<ellipse fill="#fde725" stroke="black" cx="1498.36" cy="-1438" rx="56.47" ry="18"/>
<text text-anchor="middle" x="1498.36" y="-1433.33" font-family="Times,serif" font-size="14.00">petsc4py</text>
</a>
</g>
</g>
<!-- petsc&#45;&gt;petsc4py -->
<g id="edge22" class="edge">
<title>petsc&#45;&gt;petsc4py</title>
<path fill="none" stroke="black" d="M1337.63,-1498.22C1368.1,-1486.99 1416.27,-1469.24 1451.94,-1456.1"/>
<polygon fill="black" stroke="black" points="1452.98,-1459.45 1461.15,-1452.71 1450.56,-1452.88 1452.98,-1459.45"/>
</g>
<!-- slepc -->
<g id="node25" class="node">
<title>slepc</title>
<g id="a_node25"><a xlink:href="https://github.com/conda-forge/slepc-feedstock" xlink:title="slepc">
<ellipse fill="#fde725" stroke="black" cx="1308.36" cy="-1438" rx="37" ry="18"/>
<text text-anchor="middle" x="1308.36" y="-1433.33" font-family="Times,serif" font-size="14.00">slepc</text>
</a>
</g>
</g>
<!-- petsc&#45;&gt;slepc -->
<g id="edge23" class="edge">
<title>petsc&#45;&gt;slepc</title>
<path fill="none" stroke="black" d="M1308.36,-1491.7C1308.36,-1484.41 1308.36,-1475.73 1308.36,-1467.54"/>
<polygon fill="black" stroke="black" points="1311.86,-1467.62 1308.36,-1457.62 1304.86,-1467.62 1311.86,-1467.62"/>
</g>
<!-- yambo -->
<g id="node26" class="node">
<title>yambo</title>
<g id="a_node26"><a xlink:href="https://github.com/conda-forge/yambo-feedstock" xlink:title="yambo">
<ellipse fill="#fde725" stroke="black" cx="1380.36" cy="-1366" rx="44.37" ry="18"/>
<text text-anchor="middle" x="1380.36" y="-1361.33" font-family="Times,serif" font-size="14.00">yambo</text>
</a>
</g>
</g>
<!-- petsc&#45;&gt;yambo -->
<g id="edge24" class="edge">
<title>petsc&#45;&gt;yambo</title>
<path fill="none" stroke="black" d="M1324.86,-1493.68C1334.67,-1483.77 1346.66,-1470.12 1354.36,-1456 1364.68,-1437.08 1371.32,-1413.61 1375.3,-1395.52"/>
<polygon fill="black" stroke="black" points="1378.73,-1396.22 1377.3,-1385.73 1371.87,-1394.83 1378.73,-1396.22"/>
</g>
<!-- fenics&#45;dolfinx -->
<g id="node27" class="node">
<title>fenics&#45;dolfinx</title>
<g id="a_node27"><a xlink:href="https://github.com/conda-forge/fenics-dolfinx-feedstock" xlink:title="fenics dolfinx">
<ellipse fill="#fde725" stroke="black" cx="1561.36" cy="-1294" rx="77.52" ry="18"/>
<text text-anchor="middle" x="1561.36" y="-1289.33" font-family="Times,serif" font-size="14.00">fenics dolfinx</text>
</a>
</g>
</g>
<!-- petsc&#45;&gt;fenics&#45;dolfinx -->
<g id="edge25" class="edge">
<title>petsc&#45;&gt;fenics&#45;dolfinx</title>
<path fill="none" stroke="black" d="M1346.59,-1509.42C1399.47,-1508.25 1496.01,-1499.66 1563.36,-1456 1608.06,-1427.02 1635.98,-1397.12 1615.36,-1348 1610.75,-1337.01 1602.62,-1327.15 1594.05,-1319"/>
<polygon fill="black" stroke="black" points="1596.4,-1316.41 1586.58,-1312.44 1591.78,-1321.67 1596.4,-1316.41"/>
</g>
<!-- dolfinx_mpc -->
<g id="node28" class="node">
<title>dolfinx_mpc</title>
<g id="a_node28"><a xlink:href="https://github.com/conda-forge/dolfinx_mpc-feedstock" xlink:title="dolfinx_mpc">
<ellipse fill="#fde725" stroke="black" cx="1640.36" cy="-1222" rx="70.68" ry="18"/>
<text text-anchor="middle" x="1640.36" y="-1217.33" font-family="Times,serif" font-size="14.00">dolfinx_mpc</text>
</a>
</g>
</g>
<!-- petsc&#45;&gt;dolfinx_mpc -->
<g id="edge26" class="edge">
<title>petsc&#45;&gt;dolfinx_mpc</title>
<path fill="none" stroke="black" d="M1346.1,-1506.35C1415.38,-1500.82 1559.35,-1485.98 1598.36,-1456 1660.52,-1408.24 1653.37,-1302.33 1645.69,-1251.42"/>
<polygon fill="black" stroke="black" points="1649.18,-1251.08 1644.11,-1241.78 1642.27,-1252.22 1649.18,-1251.08"/>
</g>
<!-- petsc4py&#45;&gt;fenics -->
<g id="edge30" class="edge">
<title>petsc4py&#45;&gt;fenics</title>
<path fill="none" stroke="black" d="M1488.76,-1420.07C1477.34,-1400.96 1456.82,-1369.69 1433.36,-1348 1418.64,-1334.39 1399.93,-1322.37 1383.72,-1313.24"/>
<polygon fill="black" stroke="black" points="1385.79,-1310.38 1375.33,-1308.65 1382.43,-1316.52 1385.79,-1310.38"/>
</g>
<!-- petsc4py&#45;&gt;fenics&#45;dolfinx -->
<g id="edge31" class="edge">
<title>petsc4py&#45;&gt;fenics&#45;dolfinx</title>
<path fill="none" stroke="black" d="M1541.35,-1425.92C1562.76,-1418 1586.71,-1404.93 1599.36,-1384 1611.57,-1363.8 1598.93,-1338.96 1585.04,-1320.66"/>
<polygon fill="black" stroke="black" points="1587.77,-1318.47 1578.74,-1312.92 1582.34,-1322.89 1587.77,-1318.47"/>
</g>
<!-- slepc4py -->
<g id="node32" class="node">
<title>slepc4py</title>
<g id="a_node32"><a xlink:href="https://github.com/conda-forge/slepc4py-feedstock" xlink:title="slepc4py">
<ellipse fill="#fde725" stroke="black" cx="1535.36" cy="-1366" rx="55.42" ry="18"/>
<text text-anchor="middle" x="1535.36" y="-1361.33" font-family="Times,serif" font-size="14.00">slepc4py</text>
</a>
</g>
</g>
<!-- petsc4py&#45;&gt;slepc4py -->
<g id="edge32" class="edge">
<title>petsc4py&#45;&gt;slepc4py</title>
<path fill="none" stroke="black" d="M1507.32,-1420.05C1511.5,-1412.14 1516.58,-1402.54 1521.25,-1393.69"/>
<polygon fill="black" stroke="black" points="1524.2,-1395.6 1525.78,-1385.13 1518.01,-1392.33 1524.2,-1395.6"/>
</g>
<!-- slepc&#45;&gt;fenics -->
<g id="edge33" class="edge">
<title>slepc&#45;&gt;fenics</title>
<path fill="none" stroke="black" d="M1300.43,-1419.96C1293.05,-1401.56 1284.54,-1371.7 1294.36,-1348 1299.23,-1336.25 1308.11,-1325.74 1317.22,-1317.25"/>
<polygon fill="black" stroke="black" points="1319.49,-1319.91 1324.77,-1310.73 1314.91,-1314.62 1319.49,-1319.91"/>
</g>
<!-- slepc&#45;&gt;freefem -->
<g id="edge34" class="edge">
<title>slepc&#45;&gt;freefem</title>
<path fill="none" stroke="black" d="M1285.72,-1423.34C1269.06,-1413.29 1246.12,-1399.44 1227.14,-1387.99"/>
<polygon fill="black" stroke="black" points="1229.02,-1385.04 1218.65,-1382.87 1225.41,-1391.03 1229.02,-1385.04"/>
</g>
<!-- slepc&#45;&gt;yambo -->
<g id="edge35" class="edge">
<title>slepc&#45;&gt;yambo</title>
<path fill="none" stroke="black" d="M1324.34,-1421.46C1333.62,-1412.44 1345.51,-1400.88 1355.95,-1390.73"/>
<polygon fill="black" stroke="black" points="1358.11,-1393.51 1362.84,-1384.03 1353.23,-1388.49 1358.11,-1393.51"/>
</g>
<!-- slepc&#45;&gt;fenics&#45;dolfinx -->
<g id="edge36" class="edge">
<title>slepc&#45;&gt;fenics&#45;dolfinx</title>
<path fill="none" stroke="black" d="M1306.95,-1419.73C1306.33,-1399.7 1308.6,-1367 1327.36,-1348 1348.74,-1326.35 1421.92,-1312.15 1480.82,-1303.95"/>
<polygon fill="black" stroke="black" points="1481.07,-1307.45 1490.51,-1302.64 1480.13,-1300.51 1481.07,-1307.45"/>
</g>
<!-- slepc&#45;&gt;slepc4py -->
<g id="edge37" class="edge">
<title>slepc&#45;&gt;slepc4py</title>
<path fill="none" stroke="black" d="M1338.98,-1427.56C1376.46,-1416 1440.47,-1396.26 1485.19,-1382.47"/>
<polygon fill="black" stroke="black" points="1486.14,-1385.84 1494.67,-1379.55 1484.08,-1379.15 1486.14,-1385.84"/>
</g>
<!-- fenics&#45;dolfinx&#45;&gt;dolfinx_mpc -->
<g id="edge38" class="edge">
<title>fenics&#45;dolfinx&#45;&gt;dolfinx_mpc</title>
<path fill="none" stroke="black" d="M1580.08,-1276.41C1589.95,-1267.67 1602.23,-1256.79 1613.13,-1247.13"/>
<polygon fill="black" stroke="black" points="1615.2,-1249.97 1620.37,-1240.72 1610.56,-1244.73 1615.2,-1249.97"/>
</g>
<!-- parabem -->
<g id="node33" class="node">
<title>parabem</title>
<g id="a_node33"><a xlink:href="https://github.com/conda-forge/parabem-feedstock/pull/17" xlink:title="parabem ❎">
<ellipse fill="#31688e" stroke="black" cx="451.36" cy="-782" rx="70.68" ry="18"/>
<text text-anchor="middle" x="451.36" y="-777.33" font-family="Times,serif" font-size="14.00" fill="white">parabem ❎</text>
</a>
</g>
</g>
<!-- libmed&#45;&gt;parabem -->
<!-- netcdf4 -->
<g id="node30" class="node">
<title>netcdf4</title>
<g id="a_node30"><a xlink:href="https://github.com/conda-forge/netcdf4-feedstock/pull/163" xlink:title="netcdf4 ❎">
<ellipse fill="#31688e" stroke="black" cx="122.36" cy="-1546" rx="64.36" ry="18"/>
<text text-anchor="middle" x="122.36" y="-1541.33" font-family="Times,serif" font-size="14.00" fill="white">netcdf4 ❎</text>
</a>
</g>
</g>
<!-- netcdf4&#45;&gt;veloxchem -->
<g id="edge28" class="edge">
<title>netcdf4&#45;&gt;veloxchem</title>
<path fill="none" stroke="black" d="M108.32,-1528.05C101.48,-1519.8 93.11,-1509.7 85.52,-1500.54"/>
<polygon fill="black" stroke="black" points="88.31,-1498.42 79.24,-1492.95 82.92,-1502.89 88.31,-1498.42"/>
</g>
<!-- netcdf4&#45;&gt;heat -->
<g id="edge29" class="edge">
<title>netcdf4&#45;&gt;heat</title>
<path fill="none" stroke="black" d="M136.4,-1528.05C143.51,-1519.47 152.28,-1508.89 160.11,-1499.44"/>
<polygon fill="black" stroke="black" points="162.59,-1501.93 166.28,-1491.99 157.2,-1497.46 162.59,-1501.93"/>
</g>
<!-- siesta -->
<g id="node31" class="node">
<title>siesta</title>
<g id="a_node31"><a xlink:href="https://github.com/conda-forge/siesta-feedstock" xlink:title="siesta">
<ellipse fill="#fde725" stroke="black" cx="1411.36" cy="-638" rx="40.69" ry="18"/>
<text text-anchor="middle" x="1411.36" y="-633.33" font-family="Times,serif" font-size="14.00">siesta</text>
</a>
</g>
</g>
<!-- slepc4py&#45;&gt;fenics -->
<g id="edge39" class="edge">
<title>slepc4py&#45;&gt;fenics</title>
<path fill="none" stroke="black" d="M1500,-1351.83C1468.37,-1340.06 1421.99,-1322.79 1388.66,-1310.38"/>
<polygon fill="black" stroke="black" points="1389.91,-1307.11 1379.32,-1306.9 1387.47,-1313.67 1389.91,-1307.11"/>
</g>
<!-- slepc4py&#45;&gt;fenics&#45;dolfinx -->
<g id="edge40" class="edge">
<title>slepc4py&#45;&gt;fenics&#45;dolfinx</title>
<path fill="none" stroke="black" d="M1541.79,-1347.7C1544.59,-1340.15 1547.95,-1331.12 1551.08,-1322.68"/>
<polygon fill="black" stroke="black" points="1554.28,-1324.12 1554.48,-1313.52 1547.72,-1321.68 1554.28,-1324.12"/>
</g>
<!-- dakota -->
<g id="node36" class="node">
<title>dakota</title>
<g id="a_node36"><a xlink:href="https://github.com/conda-forge/dakota-feedstock" xlink:title="dakota">
<ellipse fill="#35b779" stroke="black" cx="451.36" cy="-710" rx="44.9" ry="18"/>
<text text-anchor="middle" x="451.36" y="-705.33" font-family="Times,serif" font-size="14.00">dakota</text>
</a>
</g>
</g>
<!-- parabem&#45;&gt;dakota -->
<!-- openpmd&#45;api -->
<g id="node34" class="node">
<title>openpmd&#45;api</title>
<g id="a_node34"><a xlink:href="https://github.com/conda-forge/openpmd-api-feedstock" xlink:title="openpmd api">
<ellipse fill="#fde725" stroke="black" cx="986.36" cy="-1222" rx="75.94" ry="18"/>
<text text-anchor="middle" x="986.36" y="-1217.33" font-family="Times,serif" font-size="14.00">openpmd api</text>
</a>
</g>
</g>
<!-- neuron -->
<g id="node35" class="node">
<title>neuron</title>
<g id="a_node35"><a xlink:href="https://github.com/conda-forge/neuron-feedstock/pull/54" xlink:title="neuron ❎">
<ellipse fill="#31688e" stroke="black" cx="724.36" cy="-1546" rx="61.73" ry="18"/>
<text text-anchor="middle" x="724.36" y="-1541.33" font-family="Times,serif" font-size="14.00" fill="white">neuron ❎</text>
</a>
</g>
</g>
<!-- neuron&#45;&gt;lfpy -->
<g id="edge42" class="edge">
<title>neuron&#45;&gt;lfpy</title>
<path fill="none" stroke="black" d="M726.09,-1527.7C726.82,-1520.41 727.69,-1511.73 728.51,-1503.54"/>
<polygon fill="black" stroke="black" points="731.99,-1503.91 729.5,-1493.61 725.02,-1503.21 731.99,-1503.91"/>
</g>
<!-- scorec -->
<g id="node38" class="node">
<title>scorec</title>
<g id="a_node38"><a xlink:href="https://github.com/conda-forge/scorec-feedstock/pull/12" xlink:title="scorec ❎">
<ellipse fill="#31688e" stroke="black" cx="451.36" cy="-638" rx="58.57" ry="18"/>
<text text-anchor="middle" x="451.36" y="-633.33" font-family="Times,serif" font-size="14.00" fill="white">scorec ❎</text>
</a>
</g>
</g>
<!-- dakota&#45;&gt;scorec -->
<!-- adios2 -->
<g id="node37" class="node">
<title>adios2</title>
<g id="a_node37"><a xlink:href="https://github.com/conda-forge/adios2-feedstock/pull/96" xlink:title="adios2 ❎">
<ellipse fill="#31688e" stroke="black" cx="1027.36" cy="-1366" rx="59.1" ry="18"/>
<text text-anchor="middle" x="1027.36" y="-1361.33" font-family="Times,serif" font-size="14.00" fill="white">adios2 ❎</text>
</a>
</g>
</g>
<!-- adios2&#45;&gt;casacore -->
<g id="edge44" class="edge">
<title>adios2&#45;&gt;casacore</title>
<path fill="none" stroke="black" d="M1037.53,-1348.05C1042.33,-1340.06 1048.16,-1330.33 1053.52,-1321.4"/>
<polygon fill="black" stroke="black" points="1056.36,-1323.46 1058.51,-1313.09 1050.36,-1319.86 1056.36,-1323.46"/>
</g>
<!-- adios2&#45;&gt;fenics&#45;dolfinx -->
<g id="edge45" class="edge">
<title>adios2&#45;&gt;fenics&#45;dolfinx</title>
<path fill="none" stroke="black" d="M1078.26,-1356.46C1095.71,-1353.63 1115.37,-1350.56 1133.36,-1348 1254.5,-1330.79 1395.38,-1313.96 1481.44,-1304.03"/>
<polygon fill="black" stroke="black" points="1481.65,-1307.53 1491.19,-1302.91 1480.85,-1300.57 1481.65,-1307.53"/>
</g>
<!-- adios2&#45;&gt;openpmd&#45;api -->
<g id="edge46" class="edge">
<title>adios2&#45;&gt;openpmd&#45;api</title>
<path fill="none" stroke="black" d="M1019.42,-1348.11C1014.82,-1337.84 1009.21,-1324.37 1005.36,-1312 999.18,-1292.14 994.33,-1269.18 991.08,-1251.55"/>
<polygon fill="black" stroke="black" points="994.54,-1251.03 989.35,-1241.79 987.65,-1252.25 994.54,-1251.03"/>
</g>
<!-- netcdf&#45;cxx&#45;legacy -->
<g id="node43" class="node">
<title>netcdf&#45;cxx&#45;legacy</title>
<g id="a_node43"><a xlink:href="https://github.com/conda-forge/netcdf-cxx-legacy-feedstock" xlink:title="netcdf cxx legacy">
<ellipse fill="#35b779" stroke="black" cx="451.36" cy="-566" rx="98.03" ry="18"/>
<text text-anchor="middle" x="451.36" y="-561.33" font-family="Times,serif" font-size="14.00">netcdf cxx legacy</text>
</a>
</g>
</g>
<!-- scorec&#45;&gt;netcdf&#45;cxx&#45;legacy -->
<!-- triqs -->
<g id="node39" class="node">
<title>triqs</title>
<g id="a_node39"><a xlink:href="https://github.com/conda-forge/triqs-feedstock/pull/64" xlink:title="triqs ❎">
<ellipse fill="#31688e" stroke="black" cx="1864.36" cy="-746" rx="50.16" ry="18"/>
<text text-anchor="middle" x="1864.36" y="-741.33" font-family="Times,serif" font-size="14.00" fill="white">triqs ❎</text>
</a>
</g>
</g>
<!-- triqs_tprf -->
<g id="node40" class="node">
<title>triqs_tprf</title>
<g id="a_node40"><a xlink:href="https://github.com/conda-forge/triqs_tprf-feedstock" xlink:title="triqs_tprf">
<ellipse fill="#fde725" stroke="black" cx="1777.36" cy="-674" rx="58.57" ry="18"/>
<text text-anchor="middle" x="1777.36" y="-669.33" font-family="Times,serif" font-size="14.00">triqs_tprf</text>
</a>
</g>
</g>
<!-- triqs&#45;&gt;triqs_tprf -->
<g id="edge48" class="edge">
<title>triqs&#45;&gt;triqs_tprf</title>
<path fill="none" stroke="black" d="M1844.62,-729.12C1833.32,-720.03 1818.94,-708.46 1806.38,-698.35"/>
<polygon fill="black" stroke="black" points="1808.79,-695.8 1798.81,-692.26 1804.4,-701.25 1808.79,-695.8"/>
</g>
<!-- triqs_cthyb -->
<g id="node41" class="node">
<title>triqs_cthyb</title>
<g id="a_node41"><a xlink:href="https://github.com/conda-forge/triqs_cthyb-feedstock" xlink:title="triqs_cthyb">
<ellipse fill="#fde725" stroke="black" cx="1864.36" cy="-602" rx="67.52" ry="18"/>
<text text-anchor="middle" x="1864.36" y="-597.33" font-family="Times,serif" font-size="14.00">triqs_cthyb</text>
</a>
</g>
</g>
<!-- triqs&#45;&gt;triqs_cthyb -->
<g id="edge49" class="edge">
<title>triqs&#45;&gt;triqs_cthyb</title>
<path fill="none" stroke="black" d="M1864.36,-727.59C1864.36,-703.61 1864.36,-660.14 1864.36,-631.42"/>
<polygon fill="black" stroke="black" points="1867.86,-631.62 1864.36,-621.62 1860.86,-631.62 1867.86,-631.62"/>
</g>
<!-- triqs_dft_tools -->
<g id="node42" class="node">
<title>triqs_dft_tools</title>
<g id="a_node42"><a xlink:href="https://github.com/conda-forge/triqs_dft_tools-feedstock" xlink:title="triqs_dft_tools">
<ellipse fill="#fde725" stroke="black" cx="1960.36" cy="-530" rx="82.77" ry="18"/>
<text text-anchor="middle" x="1960.36" y="-525.33" font-family="Times,serif" font-size="14.00">triqs_dft_tools</text>
</a>
</g>
</g>
<!-- triqs&#45;&gt;triqs_dft_tools -->
<g id="edge50" class="edge">
<title>triqs&#45;&gt;triqs_dft_tools</title>
<path fill="none" stroke="black" d="M1877.33,-728.21C1894.54,-705.11 1924.67,-661.64 1941.36,-620 1949.15,-600.58 1953.96,-577.43 1956.8,-559.61"/>
<polygon fill="black" stroke="black" points="1960.26,-560.14 1958.24,-549.74 1953.33,-559.13 1960.26,-560.14"/>
</g>
<!-- conduit -->
<g id="node44" class="node">
<title>conduit</title>
<g id="a_node44"><a xlink:href="https://github.com/conda-forge/conduit-feedstock" xlink:title="conduit">
<ellipse fill="#35b779" stroke="black" cx="451.36" cy="-494" rx="48.58" ry="18"/>
<text text-anchor="middle" x="451.36" y="-489.32" font-family="Times,serif" font-size="14.00">conduit</text>
</a>
</g>
</g>
<!-- netcdf&#45;cxx&#45;legacy&#45;&gt;conduit -->
<!-- parsplice -->
<g id="node45" class="node">
<title>parsplice</title>
<g id="a_node45"><a xlink:href="https://github.com/conda-forge/parsplice-feedstock/pull/13" xlink:title="parsplice ❎">
<ellipse fill="#31688e" stroke="black" cx="451.36" cy="-422" rx="72.25" ry="18"/>
<text text-anchor="middle" x="451.36" y="-417.32" font-family="Times,serif" font-size="14.00" fill="white">parsplice ❎</text>
</a>
</g>
</g>
<!-- conduit&#45;&gt;parsplice -->
<!-- parsmurf -->
<g id="node46" class="node">
<title>parsmurf</title>
<g id="a_node46"><a xlink:href="https://github.com/conda-forge/parsmurf-feedstock/pull/4" xlink:title="parsmurf ❎">
<ellipse fill="#31688e" stroke="black" cx="451.36" cy="-350" rx="72.78" ry="18"/>
<text text-anchor="middle" x="451.36" y="-345.32" font-family="Times,serif" font-size="14.00" fill="white">parsmurf ❎</text>
</a>
</g>
</g>
<!-- parsplice&#45;&gt;parsmurf -->
<!-- mrchem -->
<g id="node50" class="node">
<title>mrchem</title>
<g id="a_node50"><a xlink:href="https://github.com/conda-forge/mrchem-feedstock/pull/28" xlink:title="mrchem ❎">
<ellipse fill="#31688e" stroke="black" cx="451.36" cy="-278" rx="67.52" ry="18"/>
<text text-anchor="middle" x="451.36" y="-273.32" font-family="Times,serif" font-size="14.00" fill="white">mrchem ❎</text>
</a>
</g>
</g>
<!-- parsmurf&#45;&gt;mrchem -->
<!-- qe -->
<g id="node47" class="node">
<title>qe</title>
<g id="a_node47"><a xlink:href="https://github.com/conda-forge/qe-feedstock" xlink:title="qe">
<ellipse fill="#fde725" stroke="black" cx="1480.36" cy="-566" rx="27" ry="18"/>
<text text-anchor="middle" x="1480.36" y="-561.33" font-family="Times,serif" font-size="14.00">qe</text>
</a>
</g>
</g>
<!-- dftbplus -->
<g id="node48" class="node">
<title>dftbplus</title>
<g id="a_node48"><a xlink:href="https://github.com/conda-forge/dftbplus-feedstock" xlink:title="dftbplus">
<ellipse fill="#fde725" stroke="black" cx="1202.36" cy="-494" rx="52.79" ry="18"/>
<text text-anchor="middle" x="1202.36" y="-489.32" font-family="Times,serif" font-size="14.00">dftbplus</text>
</a>
</g>
</g>
<!-- libmbd -->
<g id="node49" class="node">
<title>libmbd</title>
<g id="a_node49"><a xlink:href="https://github.com/conda-forge/libmbd-feedstock" xlink:title="libmbd">
<ellipse fill="#fde725" stroke="black" cx="1165.36" cy="-566" rx="45.95" ry="18"/>
<text text-anchor="middle" x="1165.36" y="-561.33" font-family="Times,serif" font-size="14.00">libmbd</text>
</a>
</g>
</g>
<!-- libmbd&#45;&gt;dftbplus -->
<g id="edge55" class="edge">
<title>libmbd&#45;&gt;dftbplus</title>
<path fill="none" stroke="black" d="M1174.32,-548.05C1178.5,-540.14 1183.58,-530.54 1188.25,-521.69"/>
<polygon fill="black" stroke="black" points="1191.2,-523.6 1192.78,-513.13 1185.01,-520.33 1191.2,-523.6"/>
</g>
<!-- scalapackfx -->
<g id="node51" class="node">
<title>scalapackfx</title>
<g id="a_node51"><a xlink:href="https://github.com/conda-forge/scalapackfx-feedstock/pull/9" xlink:title="scalapackfx ❎">
<ellipse fill="#31688e" stroke="black" cx="1351.36" cy="-566" rx="84.35" ry="18"/>
<text text-anchor="middle" x="1351.36" y="-561.33" font-family="Times,serif" font-size="14.00" fill="white">scalapackfx ❎</text>
</a>
</g>
</g>
<!-- scalapackfx&#45;&gt;dftbplus -->
<g id="edge57" class="edge">
<title>scalapackfx&#45;&gt;dftbplus</title>
<path fill="none" stroke="black" d="M1317.55,-549.12C1295.36,-538.69 1266.23,-525 1242.81,-514"/>
<polygon fill="black" stroke="black" points="1244.41,-510.89 1233.87,-509.8 1241.43,-517.22 1244.41,-510.89"/>
</g>
<!-- libnegf -->
<g id="node52" class="node">
<title>libnegf</title>
<g id="a_node52"><a xlink:href="https://github.com/conda-forge/libnegf-feedstock/pull/17" xlink:title="libnegf ❎">
<ellipse fill="#31688e" stroke="black" cx="1239.36" cy="-638" rx="61.2" ry="18"/>
<text text-anchor="middle" x="1239.36" y="-633.33" font-family="Times,serif" font-size="14.00" fill="white">libnegf ❎</text>
</a>
</g>
</g>
<!-- libnegf&#45;&gt;dftbplus -->
<g id="edge58" class="edge">
<title>libnegf&#45;&gt;dftbplus</title>
<path fill="none" stroke="black" d="M1236.31,-619.79C1232.96,-601.76 1227.16,-572.68 1220.36,-548 1218.08,-539.72 1215.23,-530.84 1212.47,-522.77"/>
<polygon fill="black" stroke="black" points="1215.82,-521.74 1209.21,-513.46 1209.21,-524.05 1215.82,-521.74"/>
</g>
<!-- tempest&#45;extremes -->
<g id="node53" class="node">
<title>tempest&#45;extremes</title>
<g id="a_node53"><a xlink:href="https://github.com/conda-forge/tempest-extremes-feedstock/pull/9" xlink:title="tempest extremes ❎">
<ellipse fill="#31688e" stroke="black" cx="1880.36" cy="-1762" rx="117.5" ry="18"/>
<text text-anchor="middle" x="1880.36" y="-1757.33" font-family="Times,serif" font-size="14.00" fill="white">tempest extremes ❎</text>
</a>
</g>
</g>
<!-- analisi -->
<g id="node54" class="node">
<title>analisi</title>
<g id="a_node54"><a xlink:href="https://github.com/conda-forge/analisi-feedstock/pull/33" xlink:title="analisi ✓">
<ellipse fill="#31688e" stroke="black" cx="1880.36" cy="-1690" rx="51.74" ry="18"/>
<text text-anchor="middle" x="1880.36" y="-1685.33" font-family="Times,serif" font-size="14.00" fill="white">analisi ✓</text>
</a>
</g>
</g>
<!-- tempest&#45;extremes&#45;&gt;analisi -->
<!-- nwchem -->
<g id="node55" class="node">
<title>nwchem</title>
<g id="a_node55"><a xlink:href="https://github.com/conda-forge/nwchem-feedstock" xlink:title="nwchem">
<ellipse fill="#35b779" stroke="black" cx="1880.36" cy="-1618" rx="52.79" ry="18"/>
<text text-anchor="middle" x="1880.36" y="-1613.33" font-family="Times,serif" font-size="14.00">nwchem</text>
</a>
</g>
</g>
<!-- analisi&#45;&gt;nwchem -->
<!-- bmad -->
<g id="node56" class="node">
<title>bmad</title>
<g id="a_node56"><a xlink:href="https://github.com/conda-forge/bmad-feedstock" xlink:title="bmad">
<ellipse fill="#35b779" stroke="black" cx="1880.36" cy="-1546" rx="39.11" ry="18"/>
<text text-anchor="middle" x="1880.36" y="-1541.33" font-family="Times,serif" font-size="14.00">bmad</text>
</a>
</g>
</g>
<!-- nwchem&#45;&gt;bmad -->
<!-- mfem -->
<g id="node57" class="node">
<title>mfem</title>
<g id="a_node57"><a xlink:href="https://github.com/conda-forge/mfem-feedstock/pull/13" xlink:title="mfem ❎">
<ellipse fill="#31688e" stroke="black" cx="1880.36" cy="-1474" rx="54.89" ry="18"/>
<text text-anchor="middle" x="1880.36" y="-1469.33" font-family="Times,serif" font-size="14.00" fill="white">mfem ❎</text>
</a>
</g>
</g>
<!-- bmad&#45;&gt;mfem -->
<!-- timemory -->
<g id="node58" class="node">
<title>timemory</title>
<g id="a_node58"><a xlink:href="https://github.com/conda-forge/timemory-feedstock" xlink:title="timemory">
<ellipse fill="#000000" stroke="black" cx="1880.36" cy="-1402" rx="59.63" ry="18"/>
<text text-anchor="middle" x="1880.36" y="-1397.33" font-family="Times,serif" font-size="14.00" fill="white">timemory</text>
</a>
</g>
</g>
<!-- mfem&#45;&gt;timemory -->
<!-- pexsi -->
<g id="node59" class="node">
<title>pexsi</title>
<g id="a_node59"><a xlink:href="https://github.com/conda-forge/pexsi-feedstock/pull/10" xlink:title="pexsi ❎">
<ellipse fill="#31688e" stroke="black" cx="1880.36" cy="-1330" rx="52.79" ry="18"/>
<text text-anchor="middle" x="1880.36" y="-1325.33" font-family="Times,serif" font-size="14.00" fill="white">pexsi ❎</text>
</a>
</g>
</g>
<!-- timemory&#45;&gt;pexsi -->
<!-- eigenexa -->
<g id="node65" class="node">
<title>eigenexa</title>
<g id="a_node65"><a xlink:href="https://github.com/conda-forge/eigenexa-feedstock" xlink:title="eigenexa">
<ellipse fill="#35b779" stroke="black" cx="1880.36" cy="-1258" rx="55.94" ry="18"/>
<text text-anchor="middle" x="1880.36" y="-1253.33" font-family="Times,serif" font-size="14.00">eigenexa</text>
</a>
</g>
</g>
<!-- pexsi&#45;&gt;eigenexa -->
<!-- elpa -->
<g id="node60" class="node">
<title>elpa</title>
<g id="a_node60"><a xlink:href="https://github.com/conda-forge/elpa-feedstock/pull/26" xlink:title="elpa ❎">
<ellipse fill="#31688e" stroke="black" cx="1445.36" cy="-710" rx="47.53" ry="18"/>
<text text-anchor="middle" x="1445.36" y="-705.33" font-family="Times,serif" font-size="14.00" fill="white">elpa ❎</text>
</a>
</g>
</g>
<!-- elpa&#45;&gt;siesta -->
<g id="edge65" class="edge">
<title>elpa&#45;&gt;siesta</title>
<path fill="none" stroke="black" d="M1437.13,-692.05C1433.33,-684.23 1428.72,-674.75 1424.46,-665.98"/>
<polygon fill="black" stroke="black" points="1427.69,-664.62 1420.18,-657.15 1421.4,-667.67 1427.69,-664.62"/>
</g>
<!-- elpa&#45;&gt;qe -->
<g id="edge66" class="edge">
<title>elpa&#45;&gt;qe</title>
<path fill="none" stroke="black" d="M1450.91,-691.92C1454.17,-681.58 1458.25,-668.1 1461.36,-656 1466.54,-635.86 1471.42,-612.9 1474.93,-595.35"/>
<polygon fill="black" stroke="black" points="1478.35,-596.13 1476.84,-585.65 1471.48,-594.78 1478.35,-596.13"/>
</g>
<!-- elsi -->
<g id="node61" class="node">
<title>elsi</title>
<g id="a_node61"><a xlink:href="https://github.com/conda-forge/elsi-feedstock" xlink:title="elsi">
<ellipse fill="#fde725" stroke="black" cx="1131.36" cy="-638" rx="28.59" ry="18"/>
<text text-anchor="middle" x="1131.36" y="-633.33" font-family="Times,serif" font-size="14.00">elsi</text>
</a>
</g>
</g>
<!-- elpa&#45;&gt;elsi -->
<g id="edge67" class="edge">
<title>elpa&#45;&gt;elsi</title>
<path fill="none" stroke="black" d="M1400.6,-703.64C1345.35,-696.3 1248.94,-681.07 1169.36,-656 1167.56,-655.43 1165.73,-654.8 1163.9,-654.13"/>
<polygon fill="black" stroke="black" points="1165.52,-651.01 1154.94,-650.51 1162.9,-657.5 1165.52,-651.01"/>
</g>
<!-- abacus -->
<g id="node62" class="node">
<title>abacus</title>
<g id="a_node62"><a xlink:href="https://github.com/conda-forge/abacus-feedstock" xlink:title="abacus">
<ellipse fill="#fde725" stroke="black" cx="1535.36" cy="-494" rx="45.95" ry="18"/>
<text text-anchor="middle" x="1535.36" y="-489.32" font-family="Times,serif" font-size="14.00">abacus</text>
</a>
</g>
</g>
<!-- elpa&#45;&gt;abacus -->
<g id="edge68" class="edge">
<title>elpa&#45;&gt;abacus</title>
<path fill="none" stroke="black" d="M1456.81,-692.07C1463.61,-681.79 1472.27,-668.32 1479.36,-656 1497.32,-624.82 1504.28,-617.89 1516.36,-584 1523.35,-564.41 1528.17,-541.44 1531.21,-523.74"/>
<polygon fill="black" stroke="black" points="1534.66,-524.36 1532.79,-513.93 1527.74,-523.24 1534.66,-524.36"/>
</g>
<!-- elsi&#45;&gt;dftbplus -->
<g id="edge69" class="edge">
<title>elsi&#45;&gt;dftbplus</title>
<path fill="none" stroke="black" d="M1120.89,-620.87C1110.23,-602.2 1097.01,-571.09 1110.36,-548 1119.91,-531.48 1136.78,-519.65 1153.49,-511.43"/>
<polygon fill="black" stroke="black" points="1154.75,-514.7 1162.42,-507.38 1151.87,-508.32 1154.75,-514.7"/>
</g>
<!-- elsi&#45;&gt;libmbd -->
<g id="edge70" class="edge">
<title>elsi&#45;&gt;libmbd</title>
<path fill="none" stroke="black" d="M1139.42,-620.41C1143.22,-612.59 1147.85,-603.06 1152.14,-594.23"/>
<polygon fill="black" stroke="black" points="1155.24,-595.84 1156.46,-585.32 1148.95,-592.78 1155.24,-595.84"/>
</g>
<!-- libomm -->
<g id="node63" class="node">
<title>libomm</title>
<g id="a_node63"><a xlink:href="https://github.com/conda-forge/libomm-feedstock" xlink:title="libomm">
<ellipse fill="#fde725" stroke="black" cx="1170.36" cy="-710" rx="48.58" ry="18"/>
<text text-anchor="middle" x="1170.36" y="-705.33" font-family="Times,serif" font-size="14.00">libomm</text>
</a>
</g>
</g>
<!-- libomm&#45;&gt;elsi -->
<g id="edge71" class="edge">
<title>libomm&#45;&gt;elsi</title>
<path fill="none" stroke="black" d="M1160.92,-692.05C1156.45,-684.03 1151,-674.26 1146.01,-665.3"/>
<polygon fill="black" stroke="black" points="1149.11,-663.66 1141.18,-656.63 1142.99,-667.07 1149.11,-663.66"/>
</g>
<!-- matrixswitch -->
<g id="node64" class="node">
<title>matrixswitch</title>
<g id="a_node64"><a xlink:href="https://github.com/conda-forge/matrixswitch-feedstock/pull/7" xlink:title="matrixswitch ❎">
<ellipse fill="#31688e" stroke="black" cx="1131.36" cy="-782" rx="92.25" ry="18"/>
<text text-anchor="middle" x="1131.36" y="-777.33" font-family="Times,serif" font-size="14.00" fill="white">matrixswitch ❎</text>
</a>
</g>
</g>
<!-- matrixswitch&#45;&gt;elsi -->
<g id="edge72" class="edge">
<title>matrixswitch&#45;&gt;elsi</title>
<path fill="none" stroke="black" d="M1123.47,-763.75C1119.25,-753.58 1114.5,-740.33 1112.36,-728 1109.62,-712.24 1109.62,-707.76 1112.36,-692 1113.84,-683.49 1116.56,-674.54 1119.49,-666.47"/>
<polygon fill="black" stroke="black" points="1122.74,-667.78 1123.11,-657.19 1116.22,-665.23 1122.74,-667.78"/>
</g>
<!-- matrixswitch&#45;&gt;libomm -->
<g id="edge73" class="edge">
<title>matrixswitch&#45;&gt;libomm</title>
<path fill="none" stroke="black" d="M1141,-763.7C1145.3,-755.98 1150.46,-746.71 1155.26,-738.11"/>
<polygon fill="black" stroke="black" points="1158.29,-739.87 1160.09,-729.43 1152.17,-736.46 1158.29,-739.87"/>
</g>
<!-- fleur -->
<g id="node66" class="node">
<title>fleur</title>
<g id="a_node66"><a xlink:href="https://github.com/conda-forge/fleur-feedstock" xlink:title="fleur">
<ellipse fill="#35b779" stroke="black" cx="1880.36" cy="-1186" rx="34.37" ry="18"/>
<text text-anchor="middle" x="1880.36" y="-1181.33" font-family="Times,serif" font-size="14.00">fleur</text>
</a>
</g>
</g>
<!-- eigenexa&#45;&gt;fleur -->
<!-- edrixs -->
<g id="node67" class="node">
<title>edrixs</title>
<g id="a_node67"><a xlink:href="https://github.com/conda-forge/edrixs-feedstock/pull/14" xlink:title="edrixs ❎">
<ellipse fill="#31688e" stroke="black" cx="1880.36" cy="-1114" rx="57.52" ry="18"/>
<text text-anchor="middle" x="1880.36" y="-1109.33" font-family="Times,serif" font-size="14.00" fill="white">edrixs ❎</text>
</a>
</g>
</g>
<!-- fleur&#45;&gt;edrixs -->
<!-- openphase -->
<g id="node68" class="node">
<title>openphase</title>
<g id="a_node68"><a xlink:href="https://github.com/conda-forge/openphase-feedstock/pull/2" xlink:title="openphase ❎">
<ellipse fill="#31688e" stroke="black" cx="1880.36" cy="-1042" rx="80.14" ry="18"/>
<text text-anchor="middle" x="1880.36" y="-1037.33" font-family="Times,serif" font-size="14.00" fill="white">openphase ❎</text>
</a>
</g>
</g>
<!-- edrixs&#45;&gt;openphase -->
<!-- sparc&#45;x -->
<g id="node69" class="node">
<title>sparc&#45;x</title>
<g id="a_node69"><a xlink:href="https://github.com/conda-forge/sparc-x-feedstock" xlink:title="sparc x">
<ellipse fill="#35b779" stroke="black" cx="451.36" cy="-234" rx="47.53" ry="18"/>
<text text-anchor="middle" x="451.36" y="-229.32" font-family="Times,serif" font-size="14.00">sparc x</text>
</a>
</g>
</g>
<!-- reef3d -->
<g id="node70" class="node">
<title>reef3d</title>
<g id="a_node70"><a xlink:href="https://github.com/conda-forge/reef3d-feedstock/pull/11" xlink:title="reef3d ✓">
<ellipse fill="#31688e" stroke="black" cx="451.36" cy="-162" rx="51.74" ry="18"/>
<text text-anchor="middle" x="451.36" y="-157.32" font-family="Times,serif" font-size="14.00" fill="white">reef3d ✓</text>
</a>
</g>
</g>
<!-- sparc&#45;x&#45;&gt;reef3d -->
<!-- genesis4 -->
<g id="node71" class="node">
<title>genesis4</title>
<g id="a_node71"><a xlink:href="https://github.com/conda-forge/genesis4-feedstock" xlink:title="genesis4">
<ellipse fill="#35b779" stroke="black" cx="451.36" cy="-90" rx="55.42" ry="18"/>
<text text-anchor="middle" x="451.36" y="-85.33" font-family="Times,serif" font-size="14.00">genesis4</text>
</a>
</g>
</g>
<!-- reef3d&#45;&gt;genesis4 -->
<!-- opentelemac -->
<g id="node72" class="node">
<title>opentelemac</title>
<g id="a_node72"><a xlink:href="https://github.com/conda-forge/opentelemac-feedstock/pull/2" xlink:title="opentelemac ❎">
<ellipse fill="#31688e" stroke="black" cx="451.36" cy="-18" rx="90.14" ry="18"/>
<text text-anchor="middle" x="451.36" y="-13.32" font-family="Times,serif" font-size="14.00" fill="white">opentelemac ❎</text>
</a>
</g>
</g>
<!-- genesis4&#45;&gt;opentelemac -->
</g>
</svg>
