<?xml version="1.0" encoding="UTF-8" standalone="no"?>
<!DOCTYPE svg PUBLIC "-//W3C//DTD SVG 1.1//EN"
 "http://www.w3.org/Graphics/SVG/1.1/DTD/svg11.dtd">
<!-- Generated by graphviz version 9.0.0 (20231125.0833)
 -->
<!-- Pages: 1 -->
<svg width="875pt" height="260pt"
 viewBox="0.00 0.00 875.26 260.00" xmlns="http://www.w3.org/2000/svg" xmlns:xlink="http://www.w3.org/1999/xlink">
<g id="graph0" class="graph" transform="scale(1 1) rotate(0) translate(4 256)">
<polygon fill="white" stroke="none" points="-4,4 -4,-256 871.26,-256 871.26,4 -4,4"/>
<!-- fenics -->
<g id="node1" class="node">
<title>fenics</title>
<g id="a_node1"><a xlink:href="https://github.com/conda-forge/fenics-feedstock" xlink:title="fenics">
<ellipse fill="#fde725" stroke="black" cx="183.63" cy="-90" rx="40.69" ry="18"/>
<text text-anchor="middle" x="183.63" y="-85.33" font-family="Times,serif" font-size="14.00">fenics</text>
</a>
</g>
</g>
<!-- libadjoint -->
<g id="node2" class="node">
<title>libadjoint</title>
<g id="a_node2"><a xlink:href="https://github.com/conda-forge/libadjoint-feedstock" xlink:title="libadjoint">
<ellipse fill="#fde725" stroke="black" cx="562.63" cy="-162" rx="58.57" ry="18"/>
<text text-anchor="middle" x="562.63" y="-157.32" font-family="Times,serif" font-size="14.00">libadjoint</text>
</a>
</g>
</g>
<!-- petsc4py -->
<g id="node3" class="node">
<title>petsc4py</title>
<g id="a_node3"><a xlink:href="https://github.com/conda-forge/petsc4py-feedstock/pull/90" xlink:title="petsc4py ❎">
<ellipse fill="#31688e" stroke="black" cx="198.63" cy="-234" rx="71.73" ry="18"/>
<text text-anchor="middle" x="198.63" y="-229.32" font-family="Times,serif" font-size="14.00" fill="white">petsc4py ❎</text>
</a>
</g>
</g>
<!-- petsc4py&#45;&gt;fenics -->
<g id="edge1" class="edge">
<title>petsc4py&#45;&gt;fenics</title>
<path fill="none" stroke="black" d="M175.69,-216.6C164.67,-207.28 152.58,-194.56 146.63,-180 140.58,-165.19 141.83,-159.26 146.63,-144 149.81,-133.89 155.68,-124.02 161.82,-115.6"/>
<polygon fill="black" stroke="black" points="164.4,-117.99 167.81,-107.96 158.89,-113.67 164.4,-117.99"/>
</g>
<!-- slepc4py -->
<g id="node5" class="node">
<title>slepc4py</title>
<g id="a_node5"><a xlink:href="https://github.com/conda-forge/slepc4py-feedstock" xlink:title="slepc4py">
<ellipse fill="#fde725" stroke="black" cx="210.63" cy="-162" rx="55.42" ry="18"/>
<text text-anchor="middle" x="210.63" y="-157.32" font-family="Times,serif" font-size="14.00">slepc4py</text>
</a>
</g>
</g>
<!-- petsc4py&#45;&gt;slepc4py -->
<g id="edge4" class="edge">
<title>petsc4py&#45;&gt;slepc4py</title>
<path fill="none" stroke="black" d="M201.6,-215.7C202.86,-208.32 204.37,-199.52 205.79,-191.25"/>
<polygon fill="black" stroke="black" points="209.2,-192.04 207.44,-181.6 202.3,-190.86 209.2,-192.04"/>
</g>
<!-- proteus -->
<g id="node7" class="node">
<title>proteus</title>
<g id="a_node7"><a xlink:href="https://github.com/conda-forge/proteus-feedstock" xlink:title="proteus">
<ellipse fill="#fde725" stroke="black" cx="49.63" cy="-162" rx="49.63" ry="18"/>
<text text-anchor="middle" x="49.63" y="-157.32" font-family="Times,serif" font-size="14.00">proteus</text>
</a>
</g>
</g>
<!-- petsc4py&#45;&gt;proteus -->
<g id="edge3" class="edge">
<title>petsc4py&#45;&gt;proteus</title>
<path fill="none" stroke="black" d="M165.93,-217.64C143.4,-207.05 113.31,-192.92 89.39,-181.68"/>
<polygon fill="black" stroke="black" points="91.13,-178.63 80.59,-177.54 88.15,-184.96 91.13,-178.63"/>
</g>
<!-- fenics&#45;dolfinx -->
<g id="node10" class="node">
<title>fenics&#45;dolfinx</title>
<g id="a_node10"><a xlink:href="https://github.com/conda-forge/fenics-dolfinx-feedstock" xlink:title="fenics dolfinx">
<ellipse fill="#fde725" stroke="black" cx="319.63" cy="-90" rx="77.51" ry="18"/>
<text text-anchor="middle" x="319.63" y="-85.33" font-family="Times,serif" font-size="14.00">fenics dolfinx</text>
</a>
</g>
</g>
<!-- petsc4py&#45;&gt;fenics&#45;dolfinx -->
<g id="edge2" class="edge">
<title>petsc4py&#45;&gt;fenics&#45;dolfinx</title>
<path fill="none" stroke="black" d="M227.98,-217.27C243.31,-207.97 261.55,-195.06 274.63,-180 290.31,-161.94 302.17,-137.46 309.76,-118.75"/>
<polygon fill="black" stroke="black" points="312.95,-120.22 313.3,-109.63 306.42,-117.69 312.95,-120.22"/>
</g>
<!-- slepc -->
<g id="node4" class="node">
<title>slepc</title>
<g id="a_node4"><a xlink:href="https://github.com/conda-forge/slepc-feedstock/pull/78" xlink:title="slepc ✓">
<ellipse fill="#31688e" stroke="black" cx="403.63" cy="-234" rx="44.89" ry="18"/>
<text text-anchor="middle" x="403.63" y="-229.32" font-family="Times,serif" font-size="14.00" fill="white">slepc ✓</text>
</a>
</g>
</g>
<!-- slepc&#45;&gt;fenics -->
<g id="edge5" class="edge">
<title>slepc&#45;&gt;fenics</title>
<path fill="none" stroke="black" d="M382.51,-217.69C357.23,-199.54 313.45,-168.65 274.63,-144 256.18,-132.29 235.12,-119.96 217.91,-110.14"/>
<polygon fill="black" stroke="black" points="220.01,-107.31 209.58,-105.42 216.56,-113.4 220.01,-107.31"/>
</g>
<!-- slepc&#45;&gt;libadjoint -->
<g id="edge7" class="edge">
<title>slepc&#45;&gt;libadjoint</title>
<path fill="none" stroke="black" d="M433.16,-220C457.42,-209.32 492.13,-194.04 519.5,-181.99"/>
<polygon fill="black" stroke="black" points="520.84,-185.22 528.58,-177.99 518.02,-178.82 520.84,-185.22"/>
</g>
<!-- slepc&#45;&gt;slepc4py -->
<g id="edge8" class="edge">
<title>slepc&#45;&gt;slepc4py</title>
<path fill="none" stroke="black" d="M371.33,-221.28C340.11,-209.96 292.49,-192.69 257.18,-179.88"/>
<polygon fill="black" stroke="black" points="258.67,-176.7 248.08,-176.58 256.28,-183.28 258.67,-176.7"/>
</g>
<!-- yambo -->
<g id="node9" class="node">
<title>yambo</title>
<g id="a_node9"><a xlink:href="https://github.com/conda-forge/yambo-feedstock" xlink:title="yambo">
<ellipse fill="#fde725" stroke="black" cx="403.63" cy="-162" rx="44.37" ry="18"/>
<text text-anchor="middle" x="403.63" y="-157.32" font-family="Times,serif" font-size="14.00">yambo</text>
</a>
</g>
</g>
<!-- slepc&#45;&gt;yambo -->
<g id="edge9" class="edge">
<title>slepc&#45;&gt;yambo</title>
<path fill="none" stroke="black" d="M403.63,-215.7C403.63,-208.41 403.63,-199.73 403.63,-191.54"/>
<polygon fill="black" stroke="black" points="407.13,-191.62 403.63,-181.62 400.13,-191.62 407.13,-191.62"/>
</g>
<!-- slepc&#45;&gt;fenics&#45;dolfinx -->
<g id="edge6" class="edge">
<title>slepc&#45;&gt;fenics&#45;dolfinx</title>
<path fill="none" stroke="black" d="M424.17,-217.51C445.55,-199.46 473.71,-168.92 456.63,-144 442.56,-123.48 419.32,-110.9 395.94,-103.19"/>
<polygon fill="black" stroke="black" points="397.26,-99.93 386.67,-100.42 395.25,-106.64 397.26,-99.93"/>
</g>
<!-- slepc4py&#45;&gt;fenics -->
<g id="edge10" class="edge">
<title>slepc4py&#45;&gt;fenics</title>
<path fill="none" stroke="black" d="M203.96,-143.7C201.05,-136.15 197.56,-127.12 194.31,-118.68"/>
<polygon fill="black" stroke="black" points="197.64,-117.59 190.77,-109.52 191.11,-120.11 197.64,-117.59"/>
</g>
<!-- slepc4py&#45;&gt;fenics&#45;dolfinx -->
<g id="edge11" class="edge">
<title>slepc4py&#45;&gt;fenics&#45;dolfinx</title>
<path fill="none" stroke="black" d="M234.82,-145.46C249.36,-136.13 268.13,-124.07 284.31,-113.68"/>
<polygon fill="black" stroke="black" points="286.19,-116.63 292.71,-108.29 282.41,-110.74 286.19,-116.63"/>
</g>
<!-- daetk -->
<g id="node6" class="node">
<title>daetk</title>
<g id="a_node6"><a xlink:href="https://github.com/conda-forge/daetk-feedstock/pull/15" xlink:title="daetk ✓">
<ellipse fill="#31688e" stroke="black" cx="49.63" cy="-234" rx="47" ry="18"/>
<text text-anchor="middle" x="49.63" y="-229.32" font-family="Times,serif" font-size="14.00" fill="white">daetk ✓</text>
</a>
</g>
</g>
<!-- daetk&#45;&gt;proteus -->
<g id="edge12" class="edge">
<title>daetk&#45;&gt;proteus</title>
<path fill="none" stroke="black" d="M49.63,-215.7C49.63,-208.41 49.63,-199.73 49.63,-191.54"/>
<polygon fill="black" stroke="black" points="53.13,-191.62 49.63,-181.62 46.13,-191.62 53.13,-191.62"/>
</g>
<!-- damask -->
<g id="node8" class="node">
<title>damask</title>
<g id="a_node8"><a xlink:href="https://github.com/conda-forge/damask-feedstock" xlink:title="damask">
<ellipse fill="#ff8c00" stroke="black" cx="817.63" cy="-126" rx="49.63" ry="18"/>
<text text-anchor="middle" x="817.63" y="-121.33" font-family="Times,serif" font-size="14.00">damask</text>
</a>
</g>
</g>
<!-- dolfinx_mpc -->
<g id="node12" class="node">
<title>dolfinx_mpc</title>
<g id="a_node12"><a xlink:href="https://github.com/conda-forge/dolfinx_mpc-feedstock" xlink:title="dolfinx_mpc">
<ellipse fill="#fde725" stroke="black" cx="319.63" cy="-18" rx="70.67" ry="18"/>
<text text-anchor="middle" x="319.63" y="-13.32" font-family="Times,serif" font-size="14.00">dolfinx_mpc</text>
</a>
</g>
</g>
<!-- fenics&#45;dolfinx&#45;&gt;dolfinx_mpc -->
<g id="edge13" class="edge">
<title>fenics&#45;dolfinx&#45;&gt;dolfinx_mpc</title>
<path fill="none" stroke="black" d="M319.63,-71.7C319.63,-64.41 319.63,-55.73 319.63,-47.54"/>
<polygon fill="black" stroke="black" points="323.13,-47.62 319.63,-37.62 316.13,-47.62 323.13,-47.62"/>
</g>
<!-- freefem -->
<g id="node11" class="node">
<title>freefem</title>
<g id="a_node11"><a xlink:href="https://github.com/conda-forge/freefem-feedstock/pull/19" xlink:title="freefem ❎">
<ellipse fill="#31688e" stroke="black" cx="694.63" cy="-126" rx="65.41" ry="18"/>
<text text-anchor="middle" x="694.63" y="-121.33" font-family="Times,serif" font-size="14.00" fill="white">freefem ❎</text>
</a>
</g>
</g>
</g>
</svg>
