<?xml version="1.0" encoding="UTF-8" standalone="no"?>
<!DOCTYPE svg PUBLIC "-//W3C//DTD SVG 1.1//EN"
 "http://www.w3.org/Graphics/SVG/1.1/DTD/svg11.dtd">
<!-- Generated by graphviz version 9.0.0 (20231125.0833)
 -->
<!-- Pages: 1 -->
<svg width="591pt" height="304pt"
 viewBox="0.00 0.00 591.26 304.00" xmlns="http://www.w3.org/2000/svg" xmlns:xlink="http://www.w3.org/1999/xlink">
<g id="graph0" class="graph" transform="scale(1 1) rotate(0) translate(4 300)">
<polygon fill="white" stroke="none" points="-4,4 -4,-300 587.26,-300 587.26,4 -4,4"/>
<!-- fenics -->
<g id="node1" class="node">
<title>fenics</title>
<g id="a_node1"><a xlink:href="https://github.com/conda-forge/fenics-feedstock" xlink:title="fenics">
<ellipse fill="#fde725" stroke="black" cx="40.69" cy="-134" rx="40.69" ry="18"/>
<text text-anchor="middle" x="40.69" y="-129.32" font-family="Times,serif" font-size="14.00">fenics</text>
</a>
</g>
</g>
<!-- libadjoint -->
<g id="node2" class="node">
<title>libadjoint</title>
<g id="a_node2"><a xlink:href="https://github.com/conda-forge/libadjoint-feedstock" xlink:title="libadjoint">
<ellipse fill="#35b779" stroke="black" cx="524.69" cy="-170" rx="58.57" ry="18"/>
<text text-anchor="middle" x="524.69" y="-165.32" font-family="Times,serif" font-size="14.00">libadjoint</text>
</a>
</g>
</g>
<!-- petsc4py -->
<g id="node3" class="node">
<title>petsc4py</title>
<g id="a_node3"><a xlink:href="https://github.com/conda-forge/petsc4py-feedstock/pull/90" xlink:title="petsc4py ✓">
<ellipse fill="#31688e" stroke="black" cx="124.69" cy="-278" rx="64.36" ry="18"/>
<text text-anchor="middle" x="124.69" y="-273.32" font-family="Times,serif" font-size="14.00" fill="white">petsc4py ✓</text>
</a>
</g>
</g>
<!-- petsc4py&#45;&gt;fenics -->
<g id="edge1" class="edge">
<title>petsc4py&#45;&gt;fenics</title>
<path fill="none" stroke="black" d="M89.28,-262.75C72.73,-254.13 54.54,-241.4 44.69,-224 34.37,-205.78 33.84,-181.95 35.64,-163.53"/>
<polygon fill="black" stroke="black" points="39.08,-164.19 36.88,-153.83 32.14,-163.3 39.08,-164.19"/>
</g>
<!-- slepc4py -->
<g id="node4" class="node">
<title>slepc4py</title>
<g id="a_node4"><a xlink:href="https://github.com/conda-forge/slepc4py-feedstock" xlink:title="slepc4py">
<ellipse fill="#fde725" stroke="black" cx="108.69" cy="-206" rx="55.42" ry="18"/>
<text text-anchor="middle" x="108.69" y="-201.32" font-family="Times,serif" font-size="14.00">slepc4py</text>
</a>
</g>
</g>
<!-- petsc4py&#45;&gt;slepc4py -->
<g id="edge4" class="edge">
<title>petsc4py&#45;&gt;slepc4py</title>
<path fill="none" stroke="black" d="M120.73,-259.7C119.05,-252.32 117.03,-243.52 115.14,-235.25"/>
<polygon fill="black" stroke="black" points="118.57,-234.55 112.93,-225.58 111.75,-236.11 118.57,-234.55"/>
</g>
<!-- proteus -->
<g id="node6" class="node">
<title>proteus</title>
<g id="a_node6"><a xlink:href="https://github.com/conda-forge/proteus-feedstock" xlink:title="proteus">
<ellipse fill="#fde725" stroke="black" cx="269.69" cy="-206" rx="49.63" ry="18"/>
<text text-anchor="middle" x="269.69" y="-201.32" font-family="Times,serif" font-size="14.00">proteus</text>
</a>
</g>
</g>
<!-- petsc4py&#45;&gt;proteus -->
<g id="edge3" class="edge">
<title>petsc4py&#45;&gt;proteus</title>
<path fill="none" stroke="black" d="M155.79,-261.98C177.59,-251.46 206.88,-237.32 230.31,-226.01"/>
<polygon fill="black" stroke="black" points="231.76,-229.2 239.24,-221.7 228.72,-222.89 231.76,-229.2"/>
</g>
<!-- fenics&#45;dolfinx -->
<g id="node9" class="node">
<title>fenics&#45;dolfinx</title>
<g id="a_node9"><a xlink:href="https://github.com/conda-forge/fenics-dolfinx-feedstock" xlink:title="fenics dolfinx">
<ellipse fill="#fde725" stroke="black" cx="183.69" cy="-134" rx="77.51" ry="18"/>
<text text-anchor="middle" x="183.69" y="-129.32" font-family="Times,serif" font-size="14.00">fenics dolfinx</text>
</a>
</g>
</g>
<!-- petsc4py&#45;&gt;fenics&#45;dolfinx -->
<g id="edge2" class="edge">
<title>petsc4py&#45;&gt;fenics&#45;dolfinx</title>
<path fill="none" stroke="black" d="M144.7,-260.42C154.81,-250.87 166.28,-238 172.69,-224 181.37,-205.05 183.97,-181.57 184.49,-163.49"/>
<polygon fill="black" stroke="black" points="187.99,-163.76 184.55,-153.74 180.99,-163.72 187.99,-163.76"/>
</g>
<!-- slepc4py&#45;&gt;fenics -->
<g id="edge5" class="edge">
<title>slepc4py&#45;&gt;fenics</title>
<path fill="none" stroke="black" d="M92.57,-188.41C84.07,-179.66 73.47,-168.75 64.08,-159.08"/>
<polygon fill="black" stroke="black" points="66.75,-156.81 57.27,-152.07 61.73,-161.69 66.75,-156.81"/>
</g>
<!-- slepc4py&#45;&gt;fenics&#45;dolfinx -->
<g id="edge6" class="edge">
<title>slepc4py&#45;&gt;fenics&#45;dolfinx</title>
<path fill="none" stroke="black" d="M126.08,-188.76C135.34,-180.12 146.93,-169.3 157.28,-159.65"/>
<polygon fill="black" stroke="black" points="159.57,-162.29 164.5,-152.91 154.8,-157.18 159.57,-162.29"/>
</g>
<!-- daetk -->
<g id="node5" class="node">
<title>daetk</title>
<g id="a_node5"><a xlink:href="https://github.com/conda-forge/daetk-feedstock/pull/15" xlink:title="daetk ✓">
<ellipse fill="#31688e" stroke="black" cx="269.69" cy="-278" rx="47" ry="18"/>
<text text-anchor="middle" x="269.69" y="-273.32" font-family="Times,serif" font-size="14.00" fill="white">daetk ✓</text>
</a>
</g>
</g>
<!-- daetk&#45;&gt;proteus -->
<g id="edge7" class="edge">
<title>daetk&#45;&gt;proteus</title>
<path fill="none" stroke="black" d="M269.69,-259.7C269.69,-252.41 269.69,-243.73 269.69,-235.54"/>
<polygon fill="black" stroke="black" points="273.19,-235.62 269.69,-225.62 266.19,-235.62 273.19,-235.62"/>
</g>
<!-- damask -->
<g id="node7" class="node">
<title>damask</title>
<g id="a_node7"><a xlink:href="https://github.com/conda-forge/damask-feedstock" xlink:title="damask">
<ellipse fill="#ff8c00" stroke="black" cx="159.69" cy="-18" rx="49.63" ry="18"/>
<text text-anchor="middle" x="159.69" y="-13.32" font-family="Times,serif" font-size="14.00">damask</text>
</a>
</g>
</g>
<!-- yambo -->
<g id="node8" class="node">
<title>yambo</title>
<g id="a_node8"><a xlink:href="https://github.com/conda-forge/yambo-feedstock" xlink:title="yambo">
<ellipse fill="#35b779" stroke="black" cx="392.69" cy="-18" rx="44.37" ry="18"/>
<text text-anchor="middle" x="392.69" y="-13.32" font-family="Times,serif" font-size="14.00">yambo</text>
</a>
</g>
</g>
<!-- dolfinx_mpc -->
<g id="node11" class="node">
<title>dolfinx_mpc</title>
<g id="a_node11"><a xlink:href="https://github.com/conda-forge/dolfinx_mpc-feedstock" xlink:title="dolfinx_mpc">
<ellipse fill="#fde725" stroke="black" cx="183.69" cy="-62" rx="70.67" ry="18"/>
<text text-anchor="middle" x="183.69" y="-57.33" font-family="Times,serif" font-size="14.00">dolfinx_mpc</text>
</a>
</g>
</g>
<!-- fenics&#45;dolfinx&#45;&gt;dolfinx_mpc -->
<g id="edge8" class="edge">
<title>fenics&#45;dolfinx&#45;&gt;dolfinx_mpc</title>
<path fill="none" stroke="black" d="M183.69,-115.7C183.69,-108.41 183.69,-99.73 183.69,-91.54"/>
<polygon fill="black" stroke="black" points="187.19,-91.62 183.69,-81.62 180.19,-91.62 187.19,-91.62"/>
</g>
<!-- freefem -->
<g id="node10" class="node">
<title>freefem</title>
<g id="a_node10"><a xlink:href="https://github.com/conda-forge/freefem-feedstock/pull/19" xlink:title="freefem ❎">
<ellipse fill="#31688e" stroke="black" cx="392.69" cy="-170" rx="65.41" ry="18"/>
<text text-anchor="middle" x="392.69" y="-165.32" font-family="Times,serif" font-size="14.00" fill="white">freefem ❎</text>
</a>
</g>
</g>
</g>
</svg>
