<?xml version="1.0" encoding="UTF-8" standalone="no"?>
<!DOCTYPE svg PUBLIC "-//W3C//DTD SVG 1.1//EN"
 "http://www.w3.org/Graphics/SVG/1.1/DTD/svg11.dtd">
<!-- Generated by graphviz version 9.0.0 (20231125.0833)
 -->
<!-- Pages: 1 -->
<svg width="880pt" height="260pt"
 viewBox="0.00 0.00 879.99 260.00" xmlns="http://www.w3.org/2000/svg" xmlns:xlink="http://www.w3.org/1999/xlink">
<g id="graph0" class="graph" transform="scale(1 1) rotate(0) translate(4 256)">
<polygon fill="white" stroke="none" points="-4,4 -4,-256 875.99,-256 875.99,4 -4,4"/>
<!-- fenics -->
<g id="node1" class="node">
<title>fenics</title>
<g id="a_node1"><a xlink:href="https://github.com/conda-forge/fenics-feedstock" xlink:title="fenics">
<ellipse fill="#fde725" stroke="black" cx="188.36" cy="-90" rx="40.69" ry="18"/>
<text text-anchor="middle" x="188.36" y="-85.33" font-family="Times,serif" font-size="14.00">fenics</text>
</a>
</g>
</g>
<!-- libadjoint -->
<g id="node2" class="node">
<title>libadjoint</title>
<g id="a_node2"><a xlink:href="https://github.com/conda-forge/libadjoint-feedstock" xlink:title="libadjoint">
<ellipse fill="#fde725" stroke="black" cx="567.36" cy="-162" rx="58.57" ry="18"/>
<text text-anchor="middle" x="567.36" y="-157.32" font-family="Times,serif" font-size="14.00">libadjoint</text>
</a>
</g>
</g>
<!-- petsc4py -->
<g id="node3" class="node">
<title>petsc4py</title>
<g id="a_node3"><a xlink:href="https://github.com/conda-forge/petsc4py-feedstock/pull/90" xlink:title="petsc4py ❎">
<ellipse fill="#31688e" stroke="black" cx="207.36" cy="-234" rx="71.73" ry="18"/>
<text text-anchor="middle" x="207.36" y="-229.32" font-family="Times,serif" font-size="14.00" fill="white">petsc4py ❎</text>
</a>
</g>
</g>
<!-- petsc4py&#45;&gt;fenics -->
<g id="edge1" class="edge">
<title>petsc4py&#45;&gt;fenics</title>
<path fill="none" stroke="black" d="M182.41,-216.74C170.63,-207.53 157.77,-194.88 151.36,-180 145.04,-165.3 146.56,-159.26 151.36,-144 154.54,-133.89 160.42,-124.02 166.56,-115.6"/>
<polygon fill="black" stroke="black" points="169.13,-117.99 172.55,-107.96 163.62,-113.67 169.13,-117.99"/>
</g>
<!-- slepc4py -->
<g id="node5" class="node">
<title>slepc4py</title>
<g id="a_node5"><a xlink:href="https://github.com/conda-forge/slepc4py-feedstock" xlink:title="slepc4py">
<ellipse fill="#fde725" stroke="black" cx="215.36" cy="-162" rx="55.42" ry="18"/>
<text text-anchor="middle" x="215.36" y="-157.32" font-family="Times,serif" font-size="14.00">slepc4py</text>
</a>
</g>
</g>
<!-- petsc4py&#45;&gt;slepc4py -->
<g id="edge4" class="edge">
<title>petsc4py&#45;&gt;slepc4py</title>
<path fill="none" stroke="black" d="M209.34,-215.7C210.18,-208.41 211.17,-199.73 212.1,-191.54"/>
<polygon fill="black" stroke="black" points="215.58,-191.94 213.24,-181.61 208.63,-191.15 215.58,-191.94"/>
</g>
<!-- proteus -->
<g id="node7" class="node">
<title>proteus</title>
<g id="a_node7"><a xlink:href="https://github.com/conda-forge/proteus-feedstock" xlink:title="proteus">
<ellipse fill="#fde725" stroke="black" cx="54.36" cy="-162" rx="49.63" ry="18"/>
<text text-anchor="middle" x="54.36" y="-157.32" font-family="Times,serif" font-size="14.00">proteus</text>
</a>
</g>
</g>
<!-- petsc4py&#45;&gt;proteus -->
<g id="edge3" class="edge">
<title>petsc4py&#45;&gt;proteus</title>
<path fill="none" stroke="black" d="M173.79,-217.64C150.57,-207.02 119.55,-192.83 94.95,-181.57"/>
<polygon fill="black" stroke="black" points="96.42,-178.39 85.87,-177.41 93.51,-184.76 96.42,-178.39"/>
</g>
<!-- fenics&#45;dolfinx -->
<g id="node10" class="node">
<title>fenics&#45;dolfinx</title>
<g id="a_node10"><a xlink:href="https://github.com/conda-forge/fenics-dolfinx-feedstock" xlink:title="fenics dolfinx">
<ellipse fill="#fde725" stroke="black" cx="324.36" cy="-90" rx="77.51" ry="18"/>
<text text-anchor="middle" x="324.36" y="-85.33" font-family="Times,serif" font-size="14.00">fenics dolfinx</text>
</a>
</g>
</g>
<!-- petsc4py&#45;&gt;fenics&#45;dolfinx -->
<g id="edge2" class="edge">
<title>petsc4py&#45;&gt;fenics&#45;dolfinx</title>
<path fill="none" stroke="black" d="M235.14,-216.98C249.65,-207.59 266.93,-194.69 279.36,-180 294.81,-161.74 306.69,-137.28 314.35,-118.62"/>
<polygon fill="black" stroke="black" points="317.52,-120.13 317.92,-109.54 311.01,-117.57 317.52,-120.13"/>
</g>
<!-- slepc -->
<g id="node4" class="node">
<title>slepc</title>
<g id="a_node4"><a xlink:href="https://github.com/conda-forge/slepc-feedstock/pull/78" xlink:title="slepc ✓">
<ellipse fill="#31688e" stroke="black" cx="408.36" cy="-234" rx="44.89" ry="18"/>
<text text-anchor="middle" x="408.36" y="-229.32" font-family="Times,serif" font-size="14.00" fill="white">slepc ✓</text>
</a>
</g>
</g>
<!-- slepc&#45;&gt;fenics -->
<g id="edge5" class="edge">
<title>slepc&#45;&gt;fenics</title>
<path fill="none" stroke="black" d="M387.25,-217.69C361.97,-199.54 318.19,-168.65 279.36,-144 260.91,-132.29 239.85,-119.96 222.64,-110.14"/>
<polygon fill="black" stroke="black" points="224.74,-107.31 214.32,-105.42 221.29,-113.4 224.74,-107.31"/>
</g>
<!-- slepc&#45;&gt;libadjoint -->
<g id="edge7" class="edge">
<title>slepc&#45;&gt;libadjoint</title>
<path fill="none" stroke="black" d="M437.9,-220C462.16,-209.32 496.86,-194.04 524.23,-181.99"/>
<polygon fill="black" stroke="black" points="525.57,-185.22 533.32,-177.99 522.75,-178.82 525.57,-185.22"/>
</g>
<!-- slepc&#45;&gt;slepc4py -->
<g id="edge8" class="edge">
<title>slepc&#45;&gt;slepc4py</title>
<path fill="none" stroke="black" d="M376.06,-221.28C344.84,-209.96 297.22,-192.69 261.92,-179.88"/>
<polygon fill="black" stroke="black" points="263.41,-176.7 252.81,-176.58 261.02,-183.28 263.41,-176.7"/>
</g>
<!-- yambo -->
<g id="node9" class="node">
<title>yambo</title>
<g id="a_node9"><a xlink:href="https://github.com/conda-forge/yambo-feedstock" xlink:title="yambo">
<ellipse fill="#fde725" stroke="black" cx="408.36" cy="-162" rx="44.37" ry="18"/>
<text text-anchor="middle" x="408.36" y="-157.32" font-family="Times,serif" font-size="14.00">yambo</text>
</a>
</g>
</g>
<!-- slepc&#45;&gt;yambo -->
<g id="edge9" class="edge">
<title>slepc&#45;&gt;yambo</title>
<path fill="none" stroke="black" d="M408.36,-215.7C408.36,-208.41 408.36,-199.73 408.36,-191.54"/>
<polygon fill="black" stroke="black" points="411.86,-191.62 408.36,-181.62 404.86,-191.62 411.86,-191.62"/>
</g>
<!-- slepc&#45;&gt;fenics&#45;dolfinx -->
<g id="edge6" class="edge">
<title>slepc&#45;&gt;fenics&#45;dolfinx</title>
<path fill="none" stroke="black" d="M428.9,-217.51C450.28,-199.46 478.44,-168.92 461.36,-144 447.3,-123.48 424.06,-110.9 400.68,-103.19"/>
<polygon fill="black" stroke="black" points="401.99,-99.93 391.41,-100.42 399.98,-106.64 401.99,-99.93"/>
</g>
<!-- slepc4py&#45;&gt;fenics -->
<g id="edge10" class="edge">
<title>slepc4py&#45;&gt;fenics</title>
<path fill="none" stroke="black" d="M208.69,-143.7C205.78,-136.15 202.3,-127.12 199.04,-118.68"/>
<polygon fill="black" stroke="black" points="202.37,-117.59 195.51,-109.52 195.84,-120.11 202.37,-117.59"/>
</g>
<!-- slepc4py&#45;&gt;fenics&#45;dolfinx -->
<g id="edge11" class="edge">
<title>slepc4py&#45;&gt;fenics&#45;dolfinx</title>
<path fill="none" stroke="black" d="M239.56,-145.46C254.1,-136.13 272.86,-124.07 289.04,-113.68"/>
<polygon fill="black" stroke="black" points="290.93,-116.63 297.45,-108.29 287.14,-110.74 290.93,-116.63"/>
</g>
<!-- daetk -->
<g id="node6" class="node">
<title>daetk</title>
<g id="a_node6"><a xlink:href="https://github.com/conda-forge/daetk-feedstock/pull/15" xlink:title="daetk ❎">
<ellipse fill="#31688e" stroke="black" cx="54.36" cy="-234" rx="54.36" ry="18"/>
<text text-anchor="middle" x="54.36" y="-229.32" font-family="Times,serif" font-size="14.00" fill="white">daetk ❎</text>
</a>
</g>
</g>
<!-- daetk&#45;&gt;proteus -->
<g id="edge12" class="edge">
<title>daetk&#45;&gt;proteus</title>
<path fill="none" stroke="black" d="M54.36,-215.7C54.36,-208.41 54.36,-199.73 54.36,-191.54"/>
<polygon fill="black" stroke="black" points="57.86,-191.62 54.36,-181.62 50.86,-191.62 57.86,-191.62"/>
</g>
<!-- damask -->
<g id="node8" class="node">
<title>damask</title>
<g id="a_node8"><a xlink:href="https://github.com/conda-forge/damask-feedstock" xlink:title="damask">
<ellipse fill="#ff8c00" stroke="black" cx="822.36" cy="-126" rx="49.63" ry="18"/>
<text text-anchor="middle" x="822.36" y="-121.33" font-family="Times,serif" font-size="14.00">damask</text>
</a>
</g>
</g>
<!-- dolfinx_mpc -->
<g id="node12" class="node">
<title>dolfinx_mpc</title>
<g id="a_node12"><a xlink:href="https://github.com/conda-forge/dolfinx_mpc-feedstock" xlink:title="dolfinx_mpc">
<ellipse fill="#fde725" stroke="black" cx="324.36" cy="-18" rx="70.67" ry="18"/>
<text text-anchor="middle" x="324.36" y="-13.32" font-family="Times,serif" font-size="14.00">dolfinx_mpc</text>
</a>
</g>
</g>
<!-- fenics&#45;dolfinx&#45;&gt;dolfinx_mpc -->
<g id="edge13" class="edge">
<title>fenics&#45;dolfinx&#45;&gt;dolfinx_mpc</title>
<path fill="none" stroke="black" d="M324.36,-71.7C324.36,-64.41 324.36,-55.73 324.36,-47.54"/>
<polygon fill="black" stroke="black" points="327.86,-47.62 324.36,-37.62 320.86,-47.62 327.86,-47.62"/>
</g>
<!-- freefem -->
<g id="node11" class="node">
<title>freefem</title>
<g id="a_node11"><a xlink:href="https://github.com/conda-forge/freefem-feedstock/pull/19" xlink:title="freefem ❎">
<ellipse fill="#31688e" stroke="black" cx="699.36" cy="-126" rx="65.41" ry="18"/>
<text text-anchor="middle" x="699.36" y="-121.33" font-family="Times,serif" font-size="14.00" fill="white">freefem ❎</text>
</a>
</g>
</g>
</g>
</svg>
