<?xml version="1.0" encoding="UTF-8" standalone="no"?>
<!DOCTYPE svg PUBLIC "-//W3C//DTD SVG 1.1//EN"
 "http://www.w3.org/Graphics/SVG/1.1/DTD/svg11.dtd">
<!-- Generated by graphviz version 9.0.0 (20231125.0833)
 -->
<!-- Pages: 1 -->
<svg width="591pt" height="304pt"
 viewBox="0.00 0.00 591.26 304.00" xmlns="http://www.w3.org/2000/svg" xmlns:xlink="http://www.w3.org/1999/xlink">
<g id="graph0" class="graph" transform="scale(1 1) rotate(0) translate(4 300)">
<polygon fill="white" stroke="none" points="-4,4 -4,-300 587.26,-300 587.26,4 -4,4"/>
<!-- fenics -->
<g id="node1" class="node">
<title>fenics</title>
<g id="a_node1"><a xlink:href="https://github.com/conda-forge/fenics-feedstock" xlink:title="fenics">
<ellipse fill="#fde725" stroke="black" cx="40.69" cy="-134" rx="40.69" ry="18"/>
<text text-anchor="middle" x="40.69" y="-129.32" font-family="Times,serif" font-size="14.00">fenics</text>
</a>
</g>
</g>
<!-- libadjoint -->
<g id="node2" class="node">
<title>libadjoint</title>
<g id="a_node2"><a xlink:href="https://github.com/conda-forge/libadjoint-feedstock" xlink:title="libadjoint">
<ellipse fill="#35b779" stroke="black" cx="524.69" cy="-170" rx="58.57" ry="18"/>
<text text-anchor="middle" x="524.69" y="-165.32" font-family="Times,serif" font-size="14.00">libadjoint</text>
</a>
</g>
</g>
<!-- petsc4py -->
<g id="node3" class="node">
<title>petsc4py</title>
<g id="a_node3"><a xlink:href="https://github.com/conda-forge/petsc4py-feedstock/pull/90" xlink:title="petsc4py ❎">
<ellipse fill="#31688e" stroke="black" cx="120.69" cy="-278" rx="71.73" ry="18"/>
<text text-anchor="middle" x="120.69" y="-273.32" font-family="Times,serif" font-size="14.00" fill="white">petsc4py ❎</text>
</a>
</g>
</g>
<!-- petsc4py&#45;&gt;fenics -->
<g id="edge1" class="edge">
<title>petsc4py&#45;&gt;fenics</title>
<path fill="none" stroke="black" d="M86.22,-261.9C70.7,-253.19 53.84,-240.63 44.69,-224 34.59,-205.66 34.05,-181.84 35.78,-163.45"/>
<polygon fill="black" stroke="black" points="39.23,-164.13 36.99,-153.77 32.28,-163.26 39.23,-164.13"/>
</g>
<!-- slepc4py -->
<g id="node4" class="node">
<title>slepc4py</title>
<g id="a_node4"><a xlink:href="https://github.com/conda-forge/slepc4py-feedstock" xlink:title="slepc4py">
<ellipse fill="#fde725" stroke="black" cx="108.69" cy="-206" rx="55.42" ry="18"/>
<text text-anchor="middle" x="108.69" y="-201.32" font-family="Times,serif" font-size="14.00">slepc4py</text>
</a>
</g>
</g>
<!-- petsc4py&#45;&gt;slepc4py -->
<g id="edge4" class="edge">
<title>petsc4py&#45;&gt;slepc4py</title>
<path fill="none" stroke="black" d="M117.72,-259.7C116.46,-252.32 114.95,-243.52 113.53,-235.25"/>
<polygon fill="black" stroke="black" points="117.01,-234.86 111.87,-225.6 110.11,-236.04 117.01,-234.86"/>
</g>
<!-- proteus -->
<g id="node6" class="node">
<title>proteus</title>
<g id="a_node6"><a xlink:href="https://github.com/conda-forge/proteus-feedstock" xlink:title="proteus">
<ellipse fill="#fde725" stroke="black" cx="269.69" cy="-206" rx="49.63" ry="18"/>
<text text-anchor="middle" x="269.69" y="-201.32" font-family="Times,serif" font-size="14.00">proteus</text>
</a>
</g>
</g>
<!-- petsc4py&#45;&gt;proteus -->
<g id="edge3" class="edge">
<title>petsc4py&#45;&gt;proteus</title>
<path fill="none" stroke="black" d="M153.38,-261.64C175.92,-251.05 206,-236.92 229.92,-225.68"/>
<polygon fill="black" stroke="black" points="231.16,-228.96 238.73,-221.54 228.19,-222.63 231.16,-228.96"/>
</g>
<!-- fenics&#45;dolfinx -->
<g id="node9" class="node">
<title>fenics&#45;dolfinx</title>
<g id="a_node9"><a xlink:href="https://github.com/conda-forge/fenics-dolfinx-feedstock" xlink:title="fenics dolfinx">
<ellipse fill="#fde725" stroke="black" cx="183.69" cy="-134" rx="77.51" ry="18"/>
<text text-anchor="middle" x="183.69" y="-129.32" font-family="Times,serif" font-size="14.00">fenics dolfinx</text>
</a>
</g>
</g>
<!-- petsc4py&#45;&gt;fenics&#45;dolfinx -->
<g id="edge2" class="edge">
<title>petsc4py&#45;&gt;fenics&#45;dolfinx</title>
<path fill="none" stroke="black" d="M142.63,-260.51C153.52,-251.07 165.8,-238.28 172.69,-224 181.74,-205.22 184.33,-181.74 184.75,-163.62"/>
<polygon fill="black" stroke="black" points="188.25,-163.82 184.74,-153.82 181.25,-163.83 188.25,-163.82"/>
</g>
<!-- slepc4py&#45;&gt;fenics -->
<g id="edge5" class="edge">
<title>slepc4py&#45;&gt;fenics</title>
<path fill="none" stroke="black" d="M92.57,-188.41C84.07,-179.66 73.47,-168.75 64.08,-159.08"/>
<polygon fill="black" stroke="black" points="66.75,-156.81 57.27,-152.07 61.73,-161.69 66.75,-156.81"/>
</g>
<!-- slepc4py&#45;&gt;fenics&#45;dolfinx -->
<g id="edge6" class="edge">
<title>slepc4py&#45;&gt;fenics&#45;dolfinx</title>
<path fill="none" stroke="black" d="M126.08,-188.76C135.34,-180.12 146.93,-169.3 157.28,-159.65"/>
<polygon fill="black" stroke="black" points="159.57,-162.29 164.5,-152.91 154.8,-157.18 159.57,-162.29"/>
</g>
<!-- daetk -->
<g id="node5" class="node">
<title>daetk</title>
<g id="a_node5"><a xlink:href="https://github.com/conda-forge/daetk-feedstock/pull/15" xlink:title="daetk ✓">
<ellipse fill="#31688e" stroke="black" cx="269.69" cy="-278" rx="47" ry="18"/>
<text text-anchor="middle" x="269.69" y="-273.32" font-family="Times,serif" font-size="14.00" fill="white">daetk ✓</text>
</a>
</g>
</g>
<!-- daetk&#45;&gt;proteus -->
<g id="edge7" class="edge">
<title>daetk&#45;&gt;proteus</title>
<path fill="none" stroke="black" d="M269.69,-259.7C269.69,-252.41 269.69,-243.73 269.69,-235.54"/>
<polygon fill="black" stroke="black" points="273.19,-235.62 269.69,-225.62 266.19,-235.62 273.19,-235.62"/>
</g>
<!-- damask -->
<g id="node7" class="node">
<title>damask</title>
<g id="a_node7"><a xlink:href="https://github.com/conda-forge/damask-feedstock" xlink:title="damask">
<ellipse fill="#ff8c00" stroke="black" cx="159.69" cy="-18" rx="49.63" ry="18"/>
<text text-anchor="middle" x="159.69" y="-13.32" font-family="Times,serif" font-size="14.00">damask</text>
</a>
</g>
</g>
<!-- yambo -->
<g id="node8" class="node">
<title>yambo</title>
<g id="a_node8"><a xlink:href="https://github.com/conda-forge/yambo-feedstock" xlink:title="yambo">
<ellipse fill="#35b779" stroke="black" cx="392.69" cy="-18" rx="44.37" ry="18"/>
<text text-anchor="middle" x="392.69" y="-13.32" font-family="Times,serif" font-size="14.00">yambo</text>
</a>
</g>
</g>
<!-- dolfinx_mpc -->
<g id="node11" class="node">
<title>dolfinx_mpc</title>
<g id="a_node11"><a xlink:href="https://github.com/conda-forge/dolfinx_mpc-feedstock" xlink:title="dolfinx_mpc">
<ellipse fill="#fde725" stroke="black" cx="183.69" cy="-62" rx="70.67" ry="18"/>
<text text-anchor="middle" x="183.69" y="-57.33" font-family="Times,serif" font-size="14.00">dolfinx_mpc</text>
</a>
</g>
</g>
<!-- fenics&#45;dolfinx&#45;&gt;dolfinx_mpc -->
<g id="edge8" class="edge">
<title>fenics&#45;dolfinx&#45;&gt;dolfinx_mpc</title>
<path fill="none" stroke="black" d="M183.69,-115.7C183.69,-108.41 183.69,-99.73 183.69,-91.54"/>
<polygon fill="black" stroke="black" points="187.19,-91.62 183.69,-81.62 180.19,-91.62 187.19,-91.62"/>
</g>
<!-- freefem -->
<g id="node10" class="node">
<title>freefem</title>
<g id="a_node10"><a xlink:href="https://github.com/conda-forge/freefem-feedstock/pull/19" xlink:title="freefem ❎">
<ellipse fill="#31688e" stroke="black" cx="392.69" cy="-170" rx="65.41" ry="18"/>
<text text-anchor="middle" x="392.69" y="-165.32" font-family="Times,serif" font-size="14.00" fill="white">freefem ❎</text>
</a>
</g>
</g>
</g>
</svg>
