<?xml version="1.0" encoding="UTF-8" standalone="no"?>
<!DOCTYPE svg PUBLIC "-//W3C//DTD SVG 1.1//EN"
 "http://www.w3.org/Graphics/SVG/1.1/DTD/svg11.dtd">
<!-- Generated by graphviz version 9.0.0 (20231125.0833)
 -->
<!-- Pages: 1 -->
<svg width="694pt" height="260pt"
 viewBox="0.00 0.00 694.41 260.00" xmlns="http://www.w3.org/2000/svg" xmlns:xlink="http://www.w3.org/1999/xlink">
<g id="graph0" class="graph" transform="scale(1 1) rotate(0) translate(4 256)">
<polygon fill="white" stroke="none" points="-4,4 -4,-256 690.41,-256 690.41,4 -4,4"/>
<!-- fenics -->
<g id="node1" class="node">
<title>fenics</title>
<g id="a_node1"><a xlink:href="https://github.com/conda-forge/fenics-feedstock" xlink:title="fenics">
<ellipse fill="#fde725" stroke="black" cx="298.63" cy="-90" rx="40.69" ry="18"/>
<text text-anchor="middle" x="298.63" y="-85.33" font-family="Times,serif" font-size="14.00">fenics</text>
</a>
</g>
</g>
<!-- libadjoint -->
<g id="node2" class="node">
<title>libadjoint</title>
<g id="a_node2"><a xlink:href="https://github.com/conda-forge/libadjoint-feedstock" xlink:title="libadjoint">
<ellipse fill="#fde725" stroke="black" cx="494.63" cy="-162" rx="58.57" ry="18"/>
<text text-anchor="middle" x="494.63" y="-157.32" font-family="Times,serif" font-size="14.00">libadjoint</text>
</a>
</g>
</g>
<!-- petsc4py -->
<g id="node3" class="node">
<title>petsc4py</title>
<g id="a_node3"><a xlink:href="https://github.com/conda-forge/petsc4py-feedstock/pull/90" xlink:title="petsc4py ❎">
<ellipse fill="#31688e" stroke="black" cx="194.63" cy="-234" rx="71.73" ry="18"/>
<text text-anchor="middle" x="194.63" y="-229.32" font-family="Times,serif" font-size="14.00" fill="white">petsc4py ❎</text>
</a>
</g>
</g>
<!-- petsc4py&#45;&gt;fenics -->
<g id="edge1" class="edge">
<title>petsc4py&#45;&gt;fenics</title>
<path fill="none" stroke="black" d="M228.48,-217.75C244.63,-208.88 262.94,-196.22 274.63,-180 287.37,-162.32 293.35,-138.27 296.15,-119.62"/>
<polygon fill="black" stroke="black" points="299.62,-120.13 297.39,-109.78 292.67,-119.26 299.62,-120.13"/>
</g>
<!-- slepc4py -->
<g id="node4" class="node">
<title>slepc4py</title>
<g id="a_node4"><a xlink:href="https://github.com/conda-forge/slepc4py-feedstock" xlink:title="slepc4py">
<ellipse fill="#fde725" stroke="black" cx="210.63" cy="-162" rx="55.42" ry="18"/>
<text text-anchor="middle" x="210.63" y="-157.32" font-family="Times,serif" font-size="14.00">slepc4py</text>
</a>
</g>
</g>
<!-- petsc4py&#45;&gt;slepc4py -->
<g id="edge2" class="edge">
<title>petsc4py&#45;&gt;slepc4py</title>
<path fill="none" stroke="black" d="M198.58,-215.7C200.27,-208.32 202.28,-199.52 204.17,-191.25"/>
<polygon fill="black" stroke="black" points="207.57,-192.11 206.38,-181.58 200.74,-190.55 207.57,-192.11"/>
</g>
<!-- proteus -->
<g id="node5" class="node">
<title>proteus</title>
<g id="a_node5"><a xlink:href="https://github.com/conda-forge/proteus-feedstock" xlink:title="proteus">
<ellipse fill="#fde725" stroke="black" cx="49.63" cy="-162" rx="49.63" ry="18"/>
<text text-anchor="middle" x="49.63" y="-157.32" font-family="Times,serif" font-size="14.00">proteus</text>
</a>
</g>
</g>
<!-- petsc4py&#45;&gt;proteus -->
<g id="edge3" class="edge">
<title>petsc4py&#45;&gt;proteus</title>
<path fill="none" stroke="black" d="M162.45,-217.46C140.6,-206.92 111.58,-192.91 88.45,-181.74"/>
<polygon fill="black" stroke="black" points="90.17,-178.69 79.65,-177.49 87.13,-184.99 90.17,-178.69"/>
</g>
<!-- fenics&#45;dolfinx -->
<g id="node6" class="node">
<title>fenics&#45;dolfinx</title>
<g id="a_node6"><a xlink:href="https://github.com/conda-forge/fenics-dolfinx-feedstock" xlink:title="fenics dolfinx">
<ellipse fill="#fde725" stroke="black" cx="162.63" cy="-90" rx="77.52" ry="18"/>
<text text-anchor="middle" x="162.63" y="-85.33" font-family="Times,serif" font-size="14.00">fenics dolfinx</text>
</a>
</g>
</g>
<!-- petsc4py&#45;&gt;fenics&#45;dolfinx -->
<g id="edge4" class="edge">
<title>petsc4py&#45;&gt;fenics&#45;dolfinx</title>
<path fill="none" stroke="black" d="M173.67,-216.48C163.42,-207.04 152.12,-194.25 146.63,-180 139.04,-160.32 143.83,-136.78 150.08,-118.86"/>
<polygon fill="black" stroke="black" points="153.3,-120.25 153.64,-109.66 146.77,-117.73 153.3,-120.25"/>
</g>
<!-- slepc4py&#45;&gt;fenics -->
<g id="edge5" class="edge">
<title>slepc4py&#45;&gt;fenics</title>
<path fill="none" stroke="black" d="M230.6,-145.12C242.35,-135.77 257.4,-123.79 270.36,-113.49"/>
<polygon fill="black" stroke="black" points="272.51,-116.25 278.16,-107.28 268.16,-110.77 272.51,-116.25"/>
</g>
<!-- slepc4py&#45;&gt;fenics&#45;dolfinx -->
<g id="edge6" class="edge">
<title>slepc4py&#45;&gt;fenics&#45;dolfinx</title>
<path fill="none" stroke="black" d="M199.01,-144.05C193.55,-136.09 186.91,-126.41 180.81,-117.51"/>
<polygon fill="black" stroke="black" points="183.87,-115.79 175.33,-109.52 178.1,-119.75 183.87,-115.79"/>
</g>
<!-- dolfinx_mpc -->
<g id="node7" class="node">
<title>dolfinx_mpc</title>
<g id="a_node7"><a xlink:href="https://github.com/conda-forge/dolfinx_mpc-feedstock" xlink:title="dolfinx_mpc">
<ellipse fill="#fde725" stroke="black" cx="162.63" cy="-18" rx="70.68" ry="18"/>
<text text-anchor="middle" x="162.63" y="-13.32" font-family="Times,serif" font-size="14.00">dolfinx_mpc</text>
</a>
</g>
</g>
<!-- fenics&#45;dolfinx&#45;&gt;dolfinx_mpc -->
<g id="edge7" class="edge">
<title>fenics&#45;dolfinx&#45;&gt;dolfinx_mpc</title>
<path fill="none" stroke="black" d="M162.63,-71.7C162.63,-64.41 162.63,-55.73 162.63,-47.54"/>
<polygon fill="black" stroke="black" points="166.13,-47.62 162.63,-37.62 159.13,-47.62 166.13,-47.62"/>
</g>
<!-- slepc -->
<g id="node8" class="node">
<title>slepc</title>
<g id="a_node8"><a xlink:href="https://github.com/conda-forge/slepc-feedstock/pull/78" xlink:title="slepc ✓">
<ellipse fill="#31688e" stroke="black" cx="369.63" cy="-234" rx="44.9" ry="18"/>
<text text-anchor="middle" x="369.63" y="-229.32" font-family="Times,serif" font-size="14.00" fill="white">slepc ✓</text>
</a>
</g>
</g>
<!-- slepc&#45;&gt;fenics -->
<g id="edge8" class="edge">
<title>slepc&#45;&gt;fenics</title>
<path fill="none" stroke="black" d="M367.38,-215.73C364.43,-197.13 358.08,-167.1 345.63,-144 339.94,-133.45 331.77,-123.24 323.83,-114.65"/>
<polygon fill="black" stroke="black" points="326.59,-112.48 317.12,-107.74 321.57,-117.35 326.59,-112.48"/>
</g>
<!-- slepc&#45;&gt;libadjoint -->
<g id="edge9" class="edge">
<title>slepc&#45;&gt;libadjoint</title>
<path fill="none" stroke="black" d="M394.93,-218.83C412.87,-208.79 437.24,-195.14 457.4,-183.85"/>
<polygon fill="black" stroke="black" points="458.87,-187.04 465.88,-179.1 455.45,-180.93 458.87,-187.04"/>
</g>
<!-- slepc&#45;&gt;slepc4py -->
<g id="edge10" class="edge">
<title>slepc&#45;&gt;slepc4py</title>
<path fill="none" stroke="black" d="M340.1,-220C315.68,-209.25 280.68,-193.84 253.23,-181.75"/>
<polygon fill="black" stroke="black" points="254.68,-178.57 244.12,-177.75 251.86,-184.98 254.68,-178.57"/>
</g>
<!-- slepc&#45;&gt;fenics&#45;dolfinx -->
<g id="edge11" class="edge">
<title>slepc&#45;&gt;fenics&#45;dolfinx</title>
<path fill="none" stroke="black" d="M355.11,-216.59C337.5,-197.39 306.21,-165.48 274.63,-144 255.41,-130.92 232.45,-119.44 212.34,-110.54"/>
<polygon fill="black" stroke="black" points="213.77,-107.34 203.21,-106.59 211,-113.77 213.77,-107.34"/>
</g>
<!-- yambo -->
<g id="node9" class="node">
<title>yambo</title>
<g id="a_node9"><a xlink:href="https://github.com/conda-forge/yambo-feedstock" xlink:title="yambo">
<ellipse fill="#fde725" stroke="black" cx="407.63" cy="-90" rx="44.37" ry="18"/>
<text text-anchor="middle" x="407.63" y="-85.33" font-family="Times,serif" font-size="14.00">yambo</text>
</a>
</g>
</g>
<!-- slepc&#45;&gt;yambo -->
<g id="edge12" class="edge">
<title>slepc&#45;&gt;yambo</title>
<path fill="none" stroke="black" d="M374.21,-215.87C380.63,-191.88 392.38,-147.99 400.09,-119.16"/>
<polygon fill="black" stroke="black" points="403.43,-120.22 402.64,-109.65 396.67,-118.41 403.43,-120.22"/>
</g>
<!-- daetk -->
<g id="node10" class="node">
<title>daetk</title>
<g id="a_node10"><a xlink:href="https://github.com/conda-forge/daetk-feedstock" xlink:title="daetk">
<ellipse fill="#35b779" stroke="black" cx="49.63" cy="-234" rx="39.11" ry="18"/>
<text text-anchor="middle" x="49.63" y="-229.32" font-family="Times,serif" font-size="14.00">daetk</text>
</a>
</g>
</g>
<!-- daetk&#45;&gt;proteus -->
<g id="edge13" class="edge">
<title>daetk&#45;&gt;proteus</title>
<path fill="none" stroke="black" d="M49.63,-215.7C49.63,-208.41 49.63,-199.73 49.63,-191.54"/>
<polygon fill="black" stroke="black" points="53.13,-191.62 49.63,-181.62 46.13,-191.62 53.13,-191.62"/>
</g>
<!-- damask -->
<g id="node11" class="node">
<title>damask</title>
<g id="a_node11"><a xlink:href="https://github.com/conda-forge/damask-feedstock" xlink:title="damask">
<ellipse fill="#35b779" stroke="black" cx="623.63" cy="-198" rx="49.63" ry="18"/>
<text text-anchor="middle" x="623.63" y="-193.32" font-family="Times,serif" font-size="14.00">damask</text>
</a>
</g>
</g>
<!-- precice -->
<g id="node12" class="node">
<title>precice</title>
<g id="a_node12"><a xlink:href="https://github.com/conda-forge/precice-feedstock/pull/28" xlink:title="precice ❎">
<ellipse fill="#31688e" stroke="black" cx="623.63" cy="-126" rx="62.78" ry="18"/>
<text text-anchor="middle" x="623.63" y="-121.33" font-family="Times,serif" font-size="14.00" fill="white">precice ❎</text>
</a>
</g>
</g>
<!-- damask&#45;&gt;precice -->
<!-- freefem -->
<g id="node13" class="node">
<title>freefem</title>
<g id="a_node13"><a xlink:href="https://github.com/conda-forge/freefem-feedstock" xlink:title="freefem">
<ellipse fill="#35b779" stroke="black" cx="623.63" cy="-54" rx="50.16" ry="18"/>
<text text-anchor="middle" x="623.63" y="-49.33" font-family="Times,serif" font-size="14.00">freefem</text>
</a>
</g>
</g>
<!-- precice&#45;&gt;freefem -->
</g>
</svg>
