<?xml version="1.0" encoding="UTF-8" standalone="no"?>
<!DOCTYPE svg PUBLIC "-//W3C//DTD SVG 1.1//EN"
 "http://www.w3.org/Graphics/SVG/1.1/DTD/svg11.dtd">
<!-- Generated by graphviz version 11.0.0 (20240519.1550)
 -->
<!-- Pages: 1 -->
<svg width="1259pt" height="520pt"
 viewBox="0.00 0.00 1258.53 520.00" xmlns="http://www.w3.org/2000/svg" xmlns:xlink="http://www.w3.org/1999/xlink">
<g id="graph0" class="graph" transform="scale(1 1) rotate(0) translate(4 516)">
<polygon fill="white" stroke="none" points="-4,4 -4,-516 1254.53,-516 1254.53,4 -4,4"/>
<!-- cdo -->
<g id="node1" class="node">
<title>cdo</title>
<g id="a_node1"><a xlink:href="https://github.com/conda-forge/cdo-feedstock" xlink:title="cdo">
<ellipse fill="#fde725" stroke="black" cx="361" cy="-18" rx="28.59" ry="18"/>
<text text-anchor="middle" x="361" y="-13.32" font-family="Times,serif" font-size="14.00">cdo</text>
</a>
</g>
</g>
<!-- gdal -->
<g id="node2" class="node">
<title>gdal</title>
<g id="a_node2"><a xlink:href="https://github.com/conda-forge/gdal-feedstock/pull/942" xlink:title="gdal ❎">
<ellipse fill="#31688e" stroke="black" cx="280" cy="-494" rx="48.05" ry="18"/>
<text text-anchor="middle" x="280" y="-489.32" font-family="Times,serif" font-size="14.00" fill="white">gdal ❎</text>
</a>
</g>
</g>
<!-- ncl -->
<g id="node3" class="node">
<title>ncl</title>
<g id="a_node3"><a xlink:href="https://github.com/conda-forge/ncl-feedstock" xlink:title="ncl">
<ellipse fill="#fde725" stroke="black" cx="27" cy="-422" rx="27" ry="18"/>
<text text-anchor="middle" x="27" y="-417.32" font-family="Times,serif" font-size="14.00">ncl</text>
</a>
</g>
</g>
<!-- gdal&#45;&gt;ncl -->
<g id="edge1" class="edge">
<title>gdal&#45;&gt;ncl</title>
<path fill="none" stroke="black" d="M238.45,-484.52C195.32,-475.28 126.18,-459.22 68,-440 65.25,-439.09 62.42,-438.08 59.59,-437.02"/>
<polygon fill="black" stroke="black" points="60.9,-433.77 50.31,-433.34 58.32,-440.28 60.9,-433.77"/>
</g>
<!-- postgis -->
<g id="node4" class="node">
<title>postgis</title>
<g id="a_node4"><a xlink:href="https://github.com/conda-forge/postgis-feedstock" xlink:title="postgis">
<ellipse fill="#fde725" stroke="black" cx="82" cy="-350" rx="47.53" ry="18"/>
<text text-anchor="middle" x="82" y="-345.32" font-family="Times,serif" font-size="14.00">postgis</text>
</a>
</g>
</g>
<!-- gdal&#45;&gt;postgis -->
<g id="edge2" class="edge">
<title>gdal&#45;&gt;postgis</title>
<path fill="none" stroke="black" d="M236,-486.22C203.6,-479.3 160.11,-465.77 130,-440 111.16,-423.87 98.49,-398.44 90.93,-378.89"/>
<polygon fill="black" stroke="black" points="94.26,-377.8 87.57,-369.59 87.68,-380.18 94.26,-377.8"/>
</g>
<!-- qgis -->
<g id="node5" class="node">
<title>qgis</title>
<g id="a_node5"><a xlink:href="https://github.com/conda-forge/qgis-feedstock" xlink:title="qgis">
<ellipse fill="#fde725" stroke="black" cx="181" cy="-350" rx="32.27" ry="18"/>
<text text-anchor="middle" x="181" y="-345.32" font-family="Times,serif" font-size="14.00">qgis</text>
</a>
</g>
</g>
<!-- gdal&#45;&gt;qgis -->
<g id="edge3" class="edge">
<title>gdal&#45;&gt;qgis</title>
<path fill="none" stroke="black" d="M233.6,-488.99C201.21,-483.5 160.14,-470.53 139,-440 124.64,-419.26 140.81,-392.85 157.07,-374.2"/>
<polygon fill="black" stroke="black" points="159.43,-376.8 163.65,-367.09 154.29,-372.05 159.43,-376.8"/>
</g>
<!-- r&#45;rgdal -->
<g id="node6" class="node">
<title>r&#45;rgdal</title>
<g id="a_node6"><a xlink:href="https://github.com/conda-forge/r-rgdal-feedstock" xlink:title="r rgdal">
<ellipse fill="#fde725" stroke="black" cx="207" cy="-278" rx="45.42" ry="18"/>
<text text-anchor="middle" x="207" y="-273.32" font-family="Times,serif" font-size="14.00">r rgdal</text>
</a>
</g>
</g>
<!-- gdal&#45;&gt;r&#45;rgdal -->
<g id="edge4" class="edge">
<title>gdal&#45;&gt;r&#45;rgdal</title>
<path fill="none" stroke="black" d="M274.15,-475.85C261.58,-438.99 231.87,-351.92 216.54,-306.96"/>
<polygon fill="black" stroke="black" points="219.91,-306 213.37,-297.66 213.28,-308.26 219.91,-306"/>
</g>
<!-- r&#45;sf -->
<g id="node7" class="node">
<title>r&#45;sf</title>
<g id="a_node7"><a xlink:href="https://github.com/conda-forge/r-sf-feedstock" xlink:title="r sf">
<ellipse fill="#fde725" stroke="black" cx="227" cy="-206" rx="28.06" ry="18"/>
<text text-anchor="middle" x="227" y="-201.33" font-family="Times,serif" font-size="14.00">r sf</text>
</a>
</g>
</g>
<!-- gdal&#45;&gt;r&#45;sf -->
<g id="edge5" class="edge">
<title>gdal&#45;&gt;r&#45;sf</title>
<path fill="none" stroke="black" d="M281.38,-475.76C283.95,-436.35 287.05,-337.09 261,-260 257.63,-250.03 251.98,-240.05 246.25,-231.5"/>
<polygon fill="black" stroke="black" points="249.14,-229.53 240.49,-223.42 243.44,-233.59 249.14,-229.53"/>
</g>
<!-- rasterio -->
<g id="node8" class="node">
<title>rasterio</title>
<g id="a_node8"><a xlink:href="https://github.com/conda-forge/rasterio-feedstock" xlink:title="rasterio">
<ellipse fill="#fde725" stroke="black" cx="318" cy="-134" rx="50.68" ry="18"/>
<text text-anchor="middle" x="318" y="-129.32" font-family="Times,serif" font-size="14.00">rasterio</text>
</a>
</g>
</g>
<!-- gdal&#45;&gt;rasterio -->
<g id="edge6" class="edge">
<title>gdal&#45;&gt;rasterio</title>
<path fill="none" stroke="black" d="M287.69,-475.91C298.79,-449.62 318,-397.45 318,-351 318,-351 318,-351 318,-277 318,-237.74 318,-192.38 318,-163.69"/>
<polygon fill="black" stroke="black" points="321.5,-164 318,-154 314.5,-164 321.5,-164"/>
</g>
<!-- pdal -->
<g id="node9" class="node">
<title>pdal</title>
<g id="a_node9"><a xlink:href="https://github.com/conda-forge/pdal-feedstock" xlink:title="pdal">
<ellipse fill="#fde725" stroke="black" cx="181" cy="-422" rx="32.79" ry="18"/>
<text text-anchor="middle" x="181" y="-417.32" font-family="Times,serif" font-size="14.00">pdal</text>
</a>
</g>
</g>
<!-- gdal&#45;&gt;pdal -->
<g id="edge7" class="edge">
<title>gdal&#45;&gt;pdal</title>
<path fill="none" stroke="black" d="M258.52,-477.81C244.2,-467.69 225.22,-454.27 209.63,-443.24"/>
<polygon fill="black" stroke="black" points="211.85,-440.53 201.66,-437.61 207.81,-446.24 211.85,-440.53"/>
</g>
<!-- r&#45;gdalcubes -->
<g id="node10" class="node">
<title>r&#45;gdalcubes</title>
<g id="a_node10"><a xlink:href="https://github.com/conda-forge/r-gdalcubes-feedstock" xlink:title="r gdalcubes">
<ellipse fill="#fde725" stroke="black" cx="416" cy="-350" rx="69.62" ry="18"/>
<text text-anchor="middle" x="416" y="-345.32" font-family="Times,serif" font-size="14.00">r gdalcubes</text>
</a>
</g>
</g>
<!-- gdal&#45;&gt;r&#45;gdalcubes -->
<g id="edge8" class="edge">
<title>gdal&#45;&gt;r&#45;gdalcubes</title>
<path fill="none" stroke="black" d="M296.01,-476.84C306.34,-466.38 320.02,-452.45 332,-440 352.64,-418.55 375.84,-393.93 392.62,-376.03"/>
<polygon fill="black" stroke="black" points="394.99,-378.62 399.27,-368.93 389.88,-373.84 394.99,-378.62"/>
</g>
<!-- r&#45;terra -->
<g id="node11" class="node">
<title>r&#45;terra</title>
<g id="a_node11"><a xlink:href="https://github.com/conda-forge/r-terra-feedstock" xlink:title="r terra">
<ellipse fill="#fde725" stroke="black" cx="497" cy="-278" rx="44.37" ry="18"/>
<text text-anchor="middle" x="497" y="-273.32" font-family="Times,serif" font-size="14.00">r terra</text>
</a>
</g>
</g>
<!-- gdal&#45;&gt;r&#45;terra -->
<g id="edge9" class="edge">
<title>gdal&#45;&gt;r&#45;terra</title>
<path fill="none" stroke="black" d="M318.98,-483.05C369.73,-467.78 456.48,-433.25 495,-368 505.7,-349.88 505.58,-325.85 503.13,-307.33"/>
<polygon fill="black" stroke="black" points="506.6,-306.86 501.52,-297.57 499.69,-308 506.6,-306.86"/>
</g>
<!-- mapserver -->
<g id="node12" class="node">
<title>mapserver</title>
<g id="a_node12"><a xlink:href="https://github.com/conda-forge/mapserver-feedstock" xlink:title="mapserver">
<ellipse fill="#fde725" stroke="black" cx="569" cy="-206" rx="64.89" ry="18"/>
<text text-anchor="middle" x="569" y="-201.33" font-family="Times,serif" font-size="14.00">mapserver</text>
</a>
</g>
</g>
<!-- gdal&#45;&gt;mapserver -->
<g id="edge10" class="edge">
<title>gdal&#45;&gt;mapserver</title>
<path fill="none" stroke="black" d="M324.8,-487.17C362.43,-480.56 416.28,-466.99 456,-440 519.22,-397.05 524.33,-367.99 550,-296 556.98,-276.41 561.81,-253.44 564.85,-235.74"/>
<polygon fill="black" stroke="black" points="568.29,-236.36 566.43,-225.93 561.38,-235.24 568.29,-236.36"/>
</g>
<!-- pygplates -->
<g id="node13" class="node">
<title>pygplates</title>
<g id="a_node13"><a xlink:href="https://github.com/conda-forge/pygplates-feedstock" xlink:title="pygplates">
<ellipse fill="#fde725" stroke="black" cx="662" cy="-134" rx="60.15" ry="18"/>
<text text-anchor="middle" x="662" y="-129.32" font-family="Times,serif" font-size="14.00">pygplates</text>
</a>
</g>
</g>
<!-- gdal&#45;&gt;pygplates -->
<g id="edge11" class="edge">
<title>gdal&#45;&gt;pygplates</title>
<path fill="none" stroke="black" d="M323.82,-486.25C424.16,-469.56 662,-422.46 662,-351 662,-351 662,-351 662,-277 662,-237.74 662,-192.38 662,-163.69"/>
<polygon fill="black" stroke="black" points="665.5,-164 662,-154 658.5,-164 665.5,-164"/>
</g>
<!-- meos -->
<g id="node14" class="node">
<title>meos</title>
<g id="a_node14"><a xlink:href="https://github.com/conda-forge/meos-feedstock" xlink:title="meos">
<ellipse fill="#fde725" stroke="black" cx="82" cy="-278" rx="37.53" ry="18"/>
<text text-anchor="middle" x="82" y="-273.32" font-family="Times,serif" font-size="14.00">meos</text>
</a>
</g>
</g>
<!-- postgis&#45;&gt;meos -->
<g id="edge12" class="edge">
<title>postgis&#45;&gt;meos</title>
<path fill="none" stroke="black" d="M82,-331.7C82,-324.41 82,-315.73 82,-307.54"/>
<polygon fill="black" stroke="black" points="85.5,-307.62 82,-297.62 78.5,-307.62 85.5,-307.62"/>
</g>
<!-- r&#45;lwgeom -->
<g id="node15" class="node">
<title>r&#45;lwgeom</title>
<g id="a_node15"><a xlink:href="https://github.com/conda-forge/r-lwgeom-feedstock" xlink:title="r lwgeom">
<ellipse fill="#fde725" stroke="black" cx="191" cy="-134" rx="58.05" ry="18"/>
<text text-anchor="middle" x="191" y="-129.32" font-family="Times,serif" font-size="14.00">r lwgeom</text>
</a>
</g>
</g>
<!-- r&#45;sf&#45;&gt;r&#45;lwgeom -->
<g id="edge13" class="edge">
<title>r&#45;sf&#45;&gt;r&#45;lwgeom</title>
<path fill="none" stroke="black" d="M218.47,-188.41C214.4,-180.51 209.44,-170.85 204.85,-161.94"/>
<polygon fill="black" stroke="black" points="208.1,-160.59 200.41,-153.3 201.87,-163.8 208.1,-160.59"/>
</g>
<!-- pdal&#45;&gt;qgis -->
<g id="edge14" class="edge">
<title>pdal&#45;&gt;qgis</title>
<path fill="none" stroke="black" d="M181,-403.7C181,-396.41 181,-387.73 181,-379.54"/>
<polygon fill="black" stroke="black" points="184.5,-379.62 181,-369.62 177.5,-379.62 184.5,-379.62"/>
</g>
<!-- magics -->
<g id="node16" class="node">
<title>magics</title>
<g id="a_node16"><a xlink:href="https://github.com/conda-forge/magics-feedstock/pull/138" xlink:title="magics ✓">
<ellipse fill="#31688e" stroke="black" cx="361" cy="-90" rx="54.36" ry="18"/>
<text text-anchor="middle" x="361" y="-85.33" font-family="Times,serif" font-size="14.00" fill="white">magics ✓</text>
</a>
</g>
</g>
<!-- magics&#45;&gt;cdo -->
<g id="edge15" class="edge">
<title>magics&#45;&gt;cdo</title>
<path fill="none" stroke="black" d="M361,-71.7C361,-64.41 361,-55.73 361,-47.54"/>
<polygon fill="black" stroke="black" points="364.5,-47.62 361,-37.62 357.5,-47.62 364.5,-47.62"/>
</g>
<!-- paraview -->
<g id="node17" class="node">
<title>paraview</title>
<g id="a_node17"><a xlink:href="https://github.com/conda-forge/paraview-feedstock" xlink:title="paraview">
<ellipse fill="#000000" stroke="black" cx="1071" cy="-350" rx="57" ry="18"/>
<text text-anchor="middle" x="1071" y="-345.32" font-family="Times,serif" font-size="14.00" fill="white">paraview</text>
</a>
</g>
</g>
<!-- topologytoolkit -->
<g id="node18" class="node">
<title>topologytoolkit</title>
<g id="a_node18"><a xlink:href="https://github.com/conda-forge/topologytoolkit-feedstock" xlink:title="topologytoolkit">
<ellipse fill="#fde725" stroke="black" cx="1071" cy="-278" rx="86.46" ry="18"/>
<text text-anchor="middle" x="1071" y="-273.32" font-family="Times,serif" font-size="14.00">topologytoolkit</text>
</a>
</g>
</g>
<!-- paraview&#45;&gt;topologytoolkit -->
<g id="edge16" class="edge">
<title>paraview&#45;&gt;topologytoolkit</title>
<path fill="none" stroke="black" d="M1071,-331.7C1071,-324.41 1071,-315.73 1071,-307.54"/>
<polygon fill="black" stroke="black" points="1074.5,-307.62 1071,-297.62 1067.5,-307.62 1074.5,-307.62"/>
</g>
<!-- r&#45;proj4 -->
<g id="node19" class="node">
<title>r&#45;proj4</title>
<g id="a_node19"><a xlink:href="https://github.com/conda-forge/r-proj4-feedstock" xlink:title="r proj4">
<ellipse fill="#000000" stroke="black" cx="853" cy="-458" rx="45.42" ry="18"/>
<text text-anchor="middle" x="853" y="-453.32" font-family="Times,serif" font-size="14.00" fill="white">r proj4</text>
</a>
</g>
</g>
<!-- magics&#45;metview -->
<g id="node20" class="node">
<title>magics&#45;metview</title>
<g id="a_node20"><a xlink:href="https://github.com/conda-forge/magics-metview-feedstock" xlink:title="magics metview">
<ellipse fill="#000000" stroke="black" cx="853" cy="-386" rx="92.25" ry="18"/>
<text text-anchor="middle" x="853" y="-381.32" font-family="Times,serif" font-size="14.00" fill="white">magics metview</text>
</a>
</g>
</g>
<!-- r&#45;proj4&#45;&gt;magics&#45;metview -->
<!-- magics&#45;metview&#45;batch -->
<g id="node23" class="node">
<title>magics&#45;metview&#45;batch</title>
<g id="a_node23"><a xlink:href="https://github.com/conda-forge/magics-metview-batch-feedstock" xlink:title="magics metview batch">
<ellipse fill="#000000" stroke="black" cx="853" cy="-314" rx="123.29" ry="18"/>
<text text-anchor="middle" x="853" y="-309.32" font-family="Times,serif" font-size="14.00" fill="white">magics metview batch</text>
</a>
</g>
</g>
<!-- magics&#45;metview&#45;&gt;magics&#45;metview&#45;batch -->
<!-- vtk -->
<g id="node21" class="node">
<title>vtk</title>
<g id="a_node21"><a xlink:href="https://github.com/conda-forge/vtk-feedstock" xlink:title="vtk">
<ellipse fill="#35b779" stroke="black" cx="1193" cy="-350" rx="27.01" ry="18"/>
<text text-anchor="middle" x="1193" y="-345.32" font-family="Times,serif" font-size="14.00">vtk</text>
</a>
</g>
</g>
<!-- vtk&#45;&gt;topologytoolkit -->
<g id="edge18" class="edge">
<title>vtk&#45;&gt;topologytoolkit</title>
<path fill="none" stroke="black" d="M1172.85,-337.44C1155.64,-327.56 1130.39,-313.08 1109.34,-301"/>
<polygon fill="black" stroke="black" points="1111.12,-297.98 1100.7,-296.04 1107.64,-304.06 1111.12,-297.98"/>
</g>
<!-- visan -->
<g id="node22" class="node">
<title>visan</title>
<g id="a_node22"><a xlink:href="https://github.com/conda-forge/visan-feedstock" xlink:title="visan">
<ellipse fill="#fde725" stroke="black" cx="1213" cy="-278" rx="37.53" ry="18"/>
<text text-anchor="middle" x="1213" y="-273.32" font-family="Times,serif" font-size="14.00">visan</text>
</a>
</g>
</g>
<!-- vtk&#45;&gt;visan -->
<g id="edge19" class="edge">
<title>vtk&#45;&gt;visan</title>
<path fill="none" stroke="black" d="M1197.84,-332.05C1199.97,-324.6 1202.53,-315.64 1204.94,-307.22"/>
<polygon fill="black" stroke="black" points="1208.27,-308.31 1207.65,-297.73 1201.54,-306.38 1208.27,-308.31"/>
</g>
<!-- fimex -->
<g id="node24" class="node">
<title>fimex</title>
<g id="a_node24"><a xlink:href="https://github.com/conda-forge/fimex-feedstock" xlink:title="fimex">
<ellipse fill="#000000" stroke="black" cx="853" cy="-242" rx="38.58" ry="18"/>
<text text-anchor="middle" x="853" y="-237.32" font-family="Times,serif" font-size="14.00" fill="white">fimex</text>
</a>
</g>
</g>
<!-- magics&#45;metview&#45;batch&#45;&gt;fimex -->
<!-- r&#45;proj -->
<g id="node25" class="node">
<title>r&#45;proj</title>
<g id="a_node25"><a xlink:href="https://github.com/conda-forge/r-proj-feedstock" xlink:title="r proj">
<ellipse fill="#000000" stroke="black" cx="853" cy="-170" rx="39.11" ry="18"/>
<text text-anchor="middle" x="853" y="-165.32" font-family="Times,serif" font-size="14.00" fill="white">r proj</text>
</a>
</g>
</g>
<!-- fimex&#45;&gt;r&#45;proj -->
</g>
</svg>
