<?xml version="1.0" encoding="UTF-8" standalone="no"?>
<!DOCTYPE svg PUBLIC "-//W3C//DTD SVG 1.1//EN"
 "http://www.w3.org/Graphics/SVG/1.1/DTD/svg11.dtd">
<!-- Generated by graphviz version 11.0.0 (20240519.1550)
 -->
<!-- Pages: 1 -->
<svg width="1363pt" height="520pt"
 viewBox="0.00 0.00 1362.85 520.00" xmlns="http://www.w3.org/2000/svg" xmlns:xlink="http://www.w3.org/1999/xlink">
<g id="graph0" class="graph" transform="scale(1 1) rotate(0) translate(4 516)">
<polygon fill="white" stroke="none" points="-4,4 -4,-516 1358.85,-516 1358.85,4 -4,4"/>
<!-- cdo -->
<g id="node1" class="node">
<title>cdo</title>
<g id="a_node1"><a xlink:href="https://github.com/conda-forge/cdo-feedstock" xlink:title="cdo">
<ellipse fill="#fde725" stroke="black" cx="413.32" cy="-18" rx="28.59" ry="18"/>
<text text-anchor="middle" x="413.32" y="-13.32" font-family="Times,serif" font-size="14.00">cdo</text>
</a>
</g>
</g>
<!-- gdal -->
<g id="node2" class="node">
<title>gdal</title>
<g id="a_node2"><a xlink:href="https://github.com/conda-forge/gdal-feedstock" xlink:title="gdal">
<ellipse fill="#35b779" stroke="black" cx="384.32" cy="-494" rx="32.79" ry="18"/>
<text text-anchor="middle" x="384.32" y="-489.32" font-family="Times,serif" font-size="14.00">gdal</text>
</a>
</g>
</g>
<!-- ncl -->
<g id="node3" class="node">
<title>ncl</title>
<g id="a_node3"><a xlink:href="https://github.com/conda-forge/ncl-feedstock" xlink:title="ncl">
<ellipse fill="#fde725" stroke="black" cx="131.32" cy="-422" rx="27" ry="18"/>
<text text-anchor="middle" x="131.32" y="-417.32" font-family="Times,serif" font-size="14.00">ncl</text>
</a>
</g>
</g>
<!-- gdal&#45;&gt;ncl -->
<g id="edge1" class="edge">
<title>gdal&#45;&gt;ncl</title>
<path fill="none" stroke="black" d="M353.72,-486.84C312.15,-478.14 235.72,-460.94 172.32,-440 169.56,-439.09 166.73,-438.08 163.91,-437.02"/>
<polygon fill="black" stroke="black" points="165.21,-433.77 154.63,-433.34 162.63,-440.28 165.21,-433.77"/>
</g>
<!-- postgis -->
<g id="node4" class="node">
<title>postgis</title>
<g id="a_node4"><a xlink:href="https://github.com/conda-forge/postgis-feedstock" xlink:title="postgis">
<ellipse fill="#fde725" stroke="black" cx="270.32" cy="-350" rx="47.53" ry="18"/>
<text text-anchor="middle" x="270.32" y="-345.32" font-family="Times,serif" font-size="14.00">postgis</text>
</a>
</g>
</g>
<!-- gdal&#45;&gt;postgis -->
<g id="edge2" class="edge">
<title>gdal&#45;&gt;postgis</title>
<path fill="none" stroke="black" d="M368.13,-477.88C357.48,-467.61 343.5,-453.5 332.32,-440 315.76,-420.03 299.08,-395.79 287.19,-377.65"/>
<polygon fill="black" stroke="black" points="290.14,-375.77 281.77,-369.28 284.27,-379.58 290.14,-375.77"/>
</g>
<!-- qgis -->
<g id="node5" class="node">
<title>qgis</title>
<g id="a_node5"><a xlink:href="https://github.com/conda-forge/qgis-feedstock" xlink:title="qgis">
<ellipse fill="#fde725" stroke="black" cx="172.32" cy="-350" rx="32.27" ry="18"/>
<text text-anchor="middle" x="172.32" y="-345.32" font-family="Times,serif" font-size="14.00">qgis</text>
</a>
</g>
</g>
<!-- gdal&#45;&gt;qgis -->
<g id="edge3" class="edge">
<title>gdal&#45;&gt;qgis</title>
<path fill="none" stroke="black" d="M351.26,-491.84C311.68,-488.72 245.68,-477.74 205.32,-440 188.47,-424.25 180.18,-399.12 176.13,-379.57"/>
<polygon fill="black" stroke="black" points="179.58,-378.98 174.38,-369.75 172.68,-380.21 179.58,-378.98"/>
</g>
<!-- r&#45;rgdal -->
<g id="node6" class="node">
<title>r&#45;rgdal</title>
<g id="a_node6"><a xlink:href="https://github.com/conda-forge/r-rgdal-feedstock" xlink:title="r rgdal">
<ellipse fill="#fde725" stroke="black" cx="311.32" cy="-278" rx="45.42" ry="18"/>
<text text-anchor="middle" x="311.32" y="-273.32" font-family="Times,serif" font-size="14.00">r rgdal</text>
</a>
</g>
</g>
<!-- gdal&#45;&gt;r&#45;rgdal -->
<g id="edge4" class="edge">
<title>gdal&#45;&gt;r&#45;rgdal</title>
<path fill="none" stroke="black" d="M378.47,-475.85C365.89,-438.99 336.19,-351.92 320.85,-306.96"/>
<polygon fill="black" stroke="black" points="324.22,-306 317.68,-297.66 317.6,-308.26 324.22,-306"/>
</g>
<!-- r&#45;sf -->
<g id="node7" class="node">
<title>r&#45;sf</title>
<g id="a_node7"><a xlink:href="https://github.com/conda-forge/r-sf-feedstock" xlink:title="r sf">
<ellipse fill="#fde725" stroke="black" cx="331.32" cy="-206" rx="28.06" ry="18"/>
<text text-anchor="middle" x="331.32" y="-201.33" font-family="Times,serif" font-size="14.00">r sf</text>
</a>
</g>
</g>
<!-- gdal&#45;&gt;r&#45;sf -->
<g id="edge5" class="edge">
<title>gdal&#45;&gt;r&#45;sf</title>
<path fill="none" stroke="black" d="M385.7,-475.76C388.27,-436.35 391.37,-337.09 365.32,-260 361.95,-250.03 356.3,-240.05 350.57,-231.5"/>
<polygon fill="black" stroke="black" points="353.46,-229.53 344.81,-223.42 347.76,-233.59 353.46,-229.53"/>
</g>
<!-- rasterio -->
<g id="node8" class="node">
<title>rasterio</title>
<g id="a_node8"><a xlink:href="https://github.com/conda-forge/rasterio-feedstock" xlink:title="rasterio">
<ellipse fill="#fde725" stroke="black" cx="422.32" cy="-134" rx="50.68" ry="18"/>
<text text-anchor="middle" x="422.32" y="-129.32" font-family="Times,serif" font-size="14.00">rasterio</text>
</a>
</g>
</g>
<!-- gdal&#45;&gt;rasterio -->
<g id="edge6" class="edge">
<title>gdal&#45;&gt;rasterio</title>
<path fill="none" stroke="black" d="M391.82,-476.34C402.9,-450.2 422.32,-397.7 422.32,-351 422.32,-351 422.32,-351 422.32,-277 422.32,-237.74 422.32,-192.38 422.32,-163.69"/>
<polygon fill="black" stroke="black" points="425.82,-164 422.32,-154 418.82,-164 425.82,-164"/>
</g>
<!-- pdal -->
<g id="node9" class="node">
<title>pdal</title>
<g id="a_node9"><a xlink:href="https://github.com/conda-forge/pdal-feedstock" xlink:title="pdal">
<ellipse fill="#fde725" stroke="black" cx="247.32" cy="-422" rx="32.79" ry="18"/>
<text text-anchor="middle" x="247.32" y="-417.32" font-family="Times,serif" font-size="14.00">pdal</text>
</a>
</g>
</g>
<!-- gdal&#45;&gt;pdal -->
<g id="edge7" class="edge">
<title>gdal&#45;&gt;pdal</title>
<path fill="none" stroke="black" d="M360.77,-480.97C338.67,-469.68 305.42,-452.69 280.62,-440.01"/>
<polygon fill="black" stroke="black" points="282.41,-437 271.91,-435.57 279.22,-443.23 282.41,-437"/>
</g>
<!-- r&#45;gdalcubes -->
<g id="node10" class="node">
<title>r&#45;gdalcubes</title>
<g id="a_node10"><a xlink:href="https://github.com/conda-forge/r-gdalcubes-feedstock" xlink:title="r gdalcubes">
<ellipse fill="#fde725" stroke="black" cx="520.32" cy="-350" rx="69.62" ry="18"/>
<text text-anchor="middle" x="520.32" y="-345.32" font-family="Times,serif" font-size="14.00">r gdalcubes</text>
</a>
</g>
</g>
<!-- gdal&#45;&gt;r&#45;gdalcubes -->
<g id="edge8" class="edge">
<title>gdal&#45;&gt;r&#45;gdalcubes</title>
<path fill="none" stroke="black" d="M399.41,-477.77C409.83,-467.22 423.98,-452.82 436.32,-440 456.95,-418.55 480.16,-393.93 496.94,-376.03"/>
<polygon fill="black" stroke="black" points="499.31,-378.62 503.59,-368.93 494.2,-373.84 499.31,-378.62"/>
</g>
<!-- r&#45;terra -->
<g id="node11" class="node">
<title>r&#45;terra</title>
<g id="a_node11"><a xlink:href="https://github.com/conda-forge/r-terra-feedstock" xlink:title="r terra">
<ellipse fill="#fde725" stroke="black" cx="601.32" cy="-278" rx="44.37" ry="18"/>
<text text-anchor="middle" x="601.32" y="-273.32" font-family="Times,serif" font-size="14.00">r terra</text>
</a>
</g>
</g>
<!-- gdal&#45;&gt;r&#45;terra -->
<g id="edge9" class="edge">
<title>gdal&#45;&gt;r&#45;terra</title>
<path fill="none" stroke="black" d="M413.81,-485.81C462.47,-472.18 558.27,-437.53 599.32,-368 610.02,-349.88 609.9,-325.85 607.44,-307.33"/>
<polygon fill="black" stroke="black" points="610.91,-306.86 605.83,-297.57 604.01,-308 610.91,-306.86"/>
</g>
<!-- mapserver -->
<g id="node12" class="node">
<title>mapserver</title>
<g id="a_node12"><a xlink:href="https://github.com/conda-forge/mapserver-feedstock" xlink:title="mapserver">
<ellipse fill="#fde725" stroke="black" cx="673.32" cy="-206" rx="64.89" ry="18"/>
<text text-anchor="middle" x="673.32" y="-201.33" font-family="Times,serif" font-size="14.00">mapserver</text>
</a>
</g>
</g>
<!-- gdal&#45;&gt;mapserver -->
<g id="edge10" class="edge">
<title>gdal&#45;&gt;mapserver</title>
<path fill="none" stroke="black" d="M416.36,-489.25C453.67,-483.62 515.84,-470.22 560.32,-440 623.53,-397.05 628.65,-367.99 654.32,-296 661.3,-276.41 666.13,-253.44 669.17,-235.74"/>
<polygon fill="black" stroke="black" points="672.61,-236.36 670.75,-225.93 665.7,-235.24 672.61,-236.36"/>
</g>
<!-- pygplates -->
<g id="node13" class="node">
<title>pygplates</title>
<g id="a_node13"><a xlink:href="https://github.com/conda-forge/pygplates-feedstock" xlink:title="pygplates">
<ellipse fill="#fde725" stroke="black" cx="766.32" cy="-134" rx="60.15" ry="18"/>
<text text-anchor="middle" x="766.32" y="-129.32" font-family="Times,serif" font-size="14.00">pygplates</text>
</a>
</g>
</g>
<!-- gdal&#45;&gt;pygplates -->
<g id="edge11" class="edge">
<title>gdal&#45;&gt;pygplates</title>
<path fill="none" stroke="black" d="M415.9,-488.25C507.42,-473.59 766.32,-425.56 766.32,-351 766.32,-351 766.32,-351 766.32,-277 766.32,-237.74 766.32,-192.38 766.32,-163.69"/>
<polygon fill="black" stroke="black" points="769.82,-164 766.32,-154 762.82,-164 769.82,-164"/>
</g>
<!-- meos -->
<g id="node14" class="node">
<title>meos</title>
<g id="a_node14"><a xlink:href="https://github.com/conda-forge/meos-feedstock" xlink:title="meos">
<ellipse fill="#fde725" stroke="black" cx="210.32" cy="-278" rx="37.53" ry="18"/>
<text text-anchor="middle" x="210.32" y="-273.32" font-family="Times,serif" font-size="14.00">meos</text>
</a>
</g>
</g>
<!-- postgis&#45;&gt;meos -->
<g id="edge12" class="edge">
<title>postgis&#45;&gt;meos</title>
<path fill="none" stroke="black" d="M256.1,-332.41C248.74,-323.83 239.62,-313.19 231.46,-303.67"/>
<polygon fill="black" stroke="black" points="234.17,-301.45 225.01,-296.14 228.86,-306.01 234.17,-301.45"/>
</g>
<!-- r&#45;lwgeom -->
<g id="node15" class="node">
<title>r&#45;lwgeom</title>
<g id="a_node15"><a xlink:href="https://github.com/conda-forge/r-lwgeom-feedstock" xlink:title="r lwgeom">
<ellipse fill="#fde725" stroke="black" cx="295.32" cy="-134" rx="58.05" ry="18"/>
<text text-anchor="middle" x="295.32" y="-129.32" font-family="Times,serif" font-size="14.00">r lwgeom</text>
</a>
</g>
</g>
<!-- r&#45;sf&#45;&gt;r&#45;lwgeom -->
<g id="edge13" class="edge">
<title>r&#45;sf&#45;&gt;r&#45;lwgeom</title>
<path fill="none" stroke="black" d="M322.78,-188.41C318.72,-180.51 313.75,-170.85 309.17,-161.94"/>
<polygon fill="black" stroke="black" points="312.41,-160.59 304.73,-153.3 306.19,-163.8 312.41,-160.59"/>
</g>
<!-- pdal&#45;&gt;qgis -->
<g id="edge14" class="edge">
<title>pdal&#45;&gt;qgis</title>
<path fill="none" stroke="black" d="M231.41,-406.15C221.34,-396.75 208.11,-384.41 196.72,-373.78"/>
<polygon fill="black" stroke="black" points="199.26,-371.36 189.56,-367.1 194.49,-376.48 199.26,-371.36"/>
</g>
<!-- magics -->
<g id="node16" class="node">
<title>magics</title>
<g id="a_node16"><a xlink:href="https://github.com/conda-forge/magics-feedstock" xlink:title="magics">
<ellipse fill="#000000" stroke="black" cx="413.32" cy="-90" rx="46.47" ry="18"/>
<text text-anchor="middle" x="413.32" y="-85.33" font-family="Times,serif" font-size="14.00" fill="white">magics</text>
</a>
</g>
</g>
<!-- magics&#45;&gt;cdo -->
<g id="edge15" class="edge">
<title>magics&#45;&gt;cdo</title>
<path fill="none" stroke="black" d="M413.32,-71.7C413.32,-64.41 413.32,-55.73 413.32,-47.54"/>
<polygon fill="black" stroke="black" points="416.82,-47.62 413.32,-37.62 409.82,-47.62 416.82,-47.62"/>
</g>
<!-- paraview -->
<g id="node17" class="node">
<title>paraview</title>
<g id="a_node17"><a xlink:href="https://github.com/conda-forge/paraview-feedstock" xlink:title="paraview">
<ellipse fill="#000000" stroke="black" cx="1175.32" cy="-350" rx="57" ry="18"/>
<text text-anchor="middle" x="1175.32" y="-345.32" font-family="Times,serif" font-size="14.00" fill="white">paraview</text>
</a>
</g>
</g>
<!-- topologytoolkit -->
<g id="node18" class="node">
<title>topologytoolkit</title>
<g id="a_node18"><a xlink:href="https://github.com/conda-forge/topologytoolkit-feedstock" xlink:title="topologytoolkit">
<ellipse fill="#fde725" stroke="black" cx="1175.32" cy="-278" rx="86.46" ry="18"/>
<text text-anchor="middle" x="1175.32" y="-273.32" font-family="Times,serif" font-size="14.00">topologytoolkit</text>
</a>
</g>
</g>
<!-- paraview&#45;&gt;topologytoolkit -->
<g id="edge16" class="edge">
<title>paraview&#45;&gt;topologytoolkit</title>
<path fill="none" stroke="black" d="M1175.32,-331.7C1175.32,-324.41 1175.32,-315.73 1175.32,-307.54"/>
<polygon fill="black" stroke="black" points="1178.82,-307.62 1175.32,-297.62 1171.82,-307.62 1178.82,-307.62"/>
</g>
<!-- pyproj -->
<g id="node19" class="node">
<title>pyproj</title>
<g id="a_node19"><a xlink:href="https://github.com/conda-forge/pyproj-feedstock" xlink:title="pyproj">
<ellipse fill="#000000" stroke="black" cx="43.32" cy="-422" rx="43.32" ry="18"/>
<text text-anchor="middle" x="43.32" y="-417.32" font-family="Times,serif" font-size="14.00" fill="white">pyproj</text>
</a>
</g>
</g>
<!-- pyproj&#45;&gt;qgis -->
<g id="edge17" class="edge">
<title>pyproj&#45;&gt;qgis</title>
<path fill="none" stroke="black" d="M68.8,-407.17C89.21,-396.09 117.97,-380.49 140,-368.54"/>
<polygon fill="black" stroke="black" points="141.45,-371.73 148.57,-363.89 138.11,-365.58 141.45,-371.73"/>
</g>
<!-- r&#45;proj4 -->
<g id="node20" class="node">
<title>r&#45;proj4</title>
<g id="a_node20"><a xlink:href="https://github.com/conda-forge/r-proj4-feedstock" xlink:title="r proj4">
<ellipse fill="#000000" stroke="black" cx="957.32" cy="-458" rx="45.42" ry="18"/>
<text text-anchor="middle" x="957.32" y="-453.32" font-family="Times,serif" font-size="14.00" fill="white">r proj4</text>
</a>
</g>
</g>
<!-- magics&#45;metview -->
<g id="node21" class="node">
<title>magics&#45;metview</title>
<g id="a_node21"><a xlink:href="https://github.com/conda-forge/magics-metview-feedstock" xlink:title="magics metview">
<ellipse fill="#000000" stroke="black" cx="957.32" cy="-386" rx="92.25" ry="18"/>
<text text-anchor="middle" x="957.32" y="-381.32" font-family="Times,serif" font-size="14.00" fill="white">magics metview</text>
</a>
</g>
</g>
<!-- r&#45;proj4&#45;&gt;magics&#45;metview -->
<!-- magics&#45;metview&#45;batch -->
<g id="node24" class="node">
<title>magics&#45;metview&#45;batch</title>
<g id="a_node24"><a xlink:href="https://github.com/conda-forge/magics-metview-batch-feedstock" xlink:title="magics metview batch">
<ellipse fill="#000000" stroke="black" cx="957.32" cy="-314" rx="123.29" ry="18"/>
<text text-anchor="middle" x="957.32" y="-309.32" font-family="Times,serif" font-size="14.00" fill="white">magics metview batch</text>
</a>
</g>
</g>
<!-- magics&#45;metview&#45;&gt;magics&#45;metview&#45;batch -->
<!-- vtk -->
<g id="node22" class="node">
<title>vtk</title>
<g id="a_node22"><a xlink:href="https://github.com/conda-forge/vtk-feedstock" xlink:title="vtk">
<ellipse fill="#35b779" stroke="black" cx="1297.32" cy="-350" rx="27.01" ry="18"/>
<text text-anchor="middle" x="1297.32" y="-345.32" font-family="Times,serif" font-size="14.00">vtk</text>
</a>
</g>
</g>
<!-- vtk&#45;&gt;topologytoolkit -->
<g id="edge19" class="edge">
<title>vtk&#45;&gt;topologytoolkit</title>
<path fill="none" stroke="black" d="M1277.17,-337.44C1259.95,-327.56 1234.7,-313.08 1213.65,-301"/>
<polygon fill="black" stroke="black" points="1215.44,-297.98 1205.02,-296.04 1211.95,-304.06 1215.44,-297.98"/>
</g>
<!-- visan -->
<g id="node23" class="node">
<title>visan</title>
<g id="a_node23"><a xlink:href="https://github.com/conda-forge/visan-feedstock" xlink:title="visan">
<ellipse fill="#fde725" stroke="black" cx="1317.32" cy="-278" rx="37.53" ry="18"/>
<text text-anchor="middle" x="1317.32" y="-273.32" font-family="Times,serif" font-size="14.00">visan</text>
</a>
</g>
</g>
<!-- vtk&#45;&gt;visan -->
<g id="edge20" class="edge">
<title>vtk&#45;&gt;visan</title>
<path fill="none" stroke="black" d="M1302.16,-332.05C1304.29,-324.6 1306.85,-315.64 1309.25,-307.22"/>
<polygon fill="black" stroke="black" points="1312.58,-308.31 1311.96,-297.73 1305.85,-306.38 1312.58,-308.31"/>
</g>
<!-- fimex -->
<g id="node25" class="node">
<title>fimex</title>
<g id="a_node25"><a xlink:href="https://github.com/conda-forge/fimex-feedstock" xlink:title="fimex">
<ellipse fill="#000000" stroke="black" cx="957.32" cy="-242" rx="38.58" ry="18"/>
<text text-anchor="middle" x="957.32" y="-237.32" font-family="Times,serif" font-size="14.00" fill="white">fimex</text>
</a>
</g>
</g>
<!-- magics&#45;metview&#45;batch&#45;&gt;fimex -->
<!-- r&#45;proj -->
<g id="node26" class="node">
<title>r&#45;proj</title>
<g id="a_node26"><a xlink:href="https://github.com/conda-forge/r-proj-feedstock" xlink:title="r proj">
<ellipse fill="#000000" stroke="black" cx="957.32" cy="-170" rx="39.11" ry="18"/>
<text text-anchor="middle" x="957.32" y="-165.32" font-family="Times,serif" font-size="14.00" fill="white">r proj</text>
</a>
</g>
</g>
<!-- fimex&#45;&gt;r&#45;proj -->
</g>
</svg>
