<?xml version="1.0" encoding="UTF-8" standalone="no"?>
<!DOCTYPE svg PUBLIC "-//W3C//DTD SVG 1.1//EN"
 "http://www.w3.org/Graphics/SVG/1.1/DTD/svg11.dtd">
<!-- Generated by graphviz version 11.0.0 (20240519.1550)
 -->
<!-- Pages: 1 -->
<svg width="532pt" height="116pt"
 viewBox="0.00 0.00 531.88 116.00" xmlns="http://www.w3.org/2000/svg" xmlns:xlink="http://www.w3.org/1999/xlink">
<g id="graph0" class="graph" transform="scale(1 1) rotate(0) translate(4 112)">
<polygon fill="white" stroke="none" points="-4,4 -4,-112 527.88,-112 527.88,4 -4,4"/>
<!-- vtk -->
<g id="node1" class="node">
<title>vtk</title>
<g id="a_node1"><a xlink:href="https://github.com/conda-forge/vtk-feedstock" xlink:title="vtk">
<ellipse fill="#000000" stroke="black" cx="157.46" cy="-90" rx="27.01" ry="18"/>
<text text-anchor="middle" x="157.46" y="-85.33" font-family="Times,serif" font-size="14.00" fill="white">vtk</text>
</a>
</g>
</g>
<!-- topologytoolkit -->
<g id="node2" class="node">
<title>topologytoolkit</title>
<g id="a_node2"><a xlink:href="https://github.com/conda-forge/topologytoolkit-feedstock" xlink:title="topologytoolkit">
<ellipse fill="#fde725" stroke="black" cx="86.46" cy="-18" rx="86.46" ry="18"/>
<text text-anchor="middle" x="86.46" y="-13.32" font-family="Times,serif" font-size="14.00">topologytoolkit</text>
</a>
</g>
</g>
<!-- vtk&#45;&gt;topologytoolkit -->
<g id="edge1" class="edge">
<title>vtk&#45;&gt;topologytoolkit</title>
<path fill="none" stroke="black" d="M142.75,-74.5C133.77,-65.65 122.06,-54.1 111.65,-43.84"/>
<polygon fill="black" stroke="black" points="114.31,-41.54 104.73,-37.01 109.39,-46.53 114.31,-41.54"/>
</g>
<!-- visan -->
<g id="node3" class="node">
<title>visan</title>
<g id="a_node3"><a xlink:href="https://github.com/conda-forge/visan-feedstock" xlink:title="visan">
<ellipse fill="#fde725" stroke="black" cx="228.46" cy="-18" rx="37.53" ry="18"/>
<text text-anchor="middle" x="228.46" y="-13.32" font-family="Times,serif" font-size="14.00">visan</text>
</a>
</g>
</g>
<!-- vtk&#45;&gt;visan -->
<g id="edge2" class="edge">
<title>vtk&#45;&gt;visan</title>
<path fill="none" stroke="black" d="M172.17,-74.5C181.53,-65.27 193.86,-53.11 204.6,-42.52"/>
<polygon fill="black" stroke="black" points="207.04,-45.03 211.7,-35.52 202.12,-40.05 207.04,-45.03"/>
</g>
<!-- pygplates -->
<g id="node4" class="node">
<title>pygplates</title>
<g id="a_node4"><a xlink:href="https://github.com/conda-forge/pygplates-feedstock/pull/24" xlink:title="pygplates ❎">
<ellipse fill="#31688e" stroke="black" cx="349.46" cy="-54" rx="75.41" ry="18"/>
<text text-anchor="middle" x="349.46" y="-49.33" font-family="Times,serif" font-size="14.00" fill="white">pygplates ❎</text>
</a>
</g>
</g>
<!-- meos -->
<g id="node5" class="node">
<title>meos</title>
<g id="a_node5"><a xlink:href="https://github.com/conda-forge/meos-feedstock/pull/3" xlink:title="meos ✓">
<ellipse fill="#31688e" stroke="black" cx="478.46" cy="-54" rx="45.42" ry="18"/>
<text text-anchor="middle" x="478.46" y="-49.33" font-family="Times,serif" font-size="14.00" fill="white">meos ✓</text>
</a>
</g>
</g>
</g>
</svg>
