<?xml version="1.0" encoding="UTF-8" standalone="no"?>
<!DOCTYPE svg PUBLIC "-//W3C//DTD SVG 1.1//EN"
 "http://www.w3.org/Graphics/SVG/1.1/DTD/svg11.dtd">
<!-- Generated by graphviz version 11.0.0 (20240519.1550)
 -->
<!-- Pages: 1 -->
<svg width="1401pt" height="592pt"
 viewBox="0.00 0.00 1400.68 592.00" xmlns="http://www.w3.org/2000/svg" xmlns:xlink="http://www.w3.org/1999/xlink">
<g id="graph0" class="graph" transform="scale(1 1) rotate(0) translate(4 588)">
<polygon fill="white" stroke="none" points="-4,4 -4,-588 1396.68,-588 1396.68,4 -4,4"/>
<!-- cdo -->
<g id="node1" class="node">
<title>cdo</title>
<g id="a_node1"><a xlink:href="https://github.com/conda-forge/cdo-feedstock" xlink:title="cdo">
<ellipse fill="#fde725" stroke="black" cx="432.15" cy="-18" rx="28.59" ry="18"/>
<text text-anchor="middle" x="432.15" y="-13.32" font-family="Times,serif" font-size="14.00">cdo</text>
</a>
</g>
</g>
<!-- gdal -->
<g id="node2" class="node">
<title>gdal</title>
<g id="a_node2"><a xlink:href="https://github.com/conda-forge/gdal-feedstock" xlink:title="gdal">
<ellipse fill="#fde725" stroke="black" cx="477.15" cy="-494" rx="32.79" ry="18"/>
<text text-anchor="middle" x="477.15" y="-489.32" font-family="Times,serif" font-size="14.00">gdal</text>
</a>
</g>
</g>
<!-- ncl -->
<g id="node3" class="node">
<title>ncl</title>
<g id="a_node3"><a xlink:href="https://github.com/conda-forge/ncl-feedstock" xlink:title="ncl">
<ellipse fill="#fde725" stroke="black" cx="837.15" cy="-422" rx="27" ry="18"/>
<text text-anchor="middle" x="837.15" y="-417.32" font-family="Times,serif" font-size="14.00">ncl</text>
</a>
</g>
</g>
<!-- gdal&#45;&gt;ncl -->
<g id="edge1" class="edge">
<title>gdal&#45;&gt;ncl</title>
<path fill="none" stroke="black" d="M509.38,-490.1C567.56,-484.33 693.6,-469.36 796.15,-440 798.94,-439.2 801.79,-438.27 804.63,-437.26"/>
<polygon fill="black" stroke="black" points="805.88,-440.54 813.94,-433.67 803.35,-434.01 805.88,-440.54"/>
</g>
<!-- postgis -->
<g id="node4" class="node">
<title>postgis</title>
<g id="a_node4"><a xlink:href="https://github.com/conda-forge/postgis-feedstock" xlink:title="postgis">
<ellipse fill="#fde725" stroke="black" cx="782.15" cy="-350" rx="47.53" ry="18"/>
<text text-anchor="middle" x="782.15" y="-345.32" font-family="Times,serif" font-size="14.00">postgis</text>
</a>
</g>
</g>
<!-- gdal&#45;&gt;postgis -->
<g id="edge2" class="edge">
<title>gdal&#45;&gt;postgis</title>
<path fill="none" stroke="black" d="M510.04,-491.38C577.36,-487.38 727.51,-474.69 763.15,-440 779,-424.58 783.2,-399.42 783.75,-379.78"/>
<polygon fill="black" stroke="black" points="787.25,-379.89 783.7,-369.91 780.25,-379.93 787.25,-379.89"/>
</g>
<!-- qgis -->
<g id="node5" class="node">
<title>qgis</title>
<g id="a_node5"><a xlink:href="https://github.com/conda-forge/qgis-feedstock" xlink:title="qgis">
<ellipse fill="#fde725" stroke="black" cx="609.15" cy="-350" rx="32.27" ry="18"/>
<text text-anchor="middle" x="609.15" y="-345.32" font-family="Times,serif" font-size="14.00">qgis</text>
</a>
</g>
</g>
<!-- gdal&#45;&gt;qgis -->
<g id="edge3" class="edge">
<title>gdal&#45;&gt;qgis</title>
<path fill="none" stroke="black" d="M486.05,-476.35C496.64,-457.49 515.61,-426.46 537.15,-404 549.34,-391.29 564.87,-379.44 578.38,-370.18"/>
<polygon fill="black" stroke="black" points="580.15,-373.21 586.53,-364.75 576.27,-367.38 580.15,-373.21"/>
</g>
<!-- r&#45;rgdal -->
<g id="node6" class="node">
<title>r&#45;rgdal</title>
<g id="a_node6"><a xlink:href="https://github.com/conda-forge/r-rgdal-feedstock" xlink:title="r rgdal">
<ellipse fill="#fde725" stroke="black" cx="515.15" cy="-278" rx="45.42" ry="18"/>
<text text-anchor="middle" x="515.15" y="-273.32" font-family="Times,serif" font-size="14.00">r rgdal</text>
</a>
</g>
</g>
<!-- gdal&#45;&gt;r&#45;rgdal -->
<g id="edge4" class="edge">
<title>gdal&#45;&gt;r&#45;rgdal</title>
<path fill="none" stroke="black" d="M480.2,-475.85C486.72,-439.14 502.07,-352.66 510.09,-307.53"/>
<polygon fill="black" stroke="black" points="513.53,-308.18 511.83,-297.72 506.63,-306.96 513.53,-308.18"/>
</g>
<!-- r&#45;sf -->
<g id="node7" class="node">
<title>r&#45;sf</title>
<g id="a_node7"><a xlink:href="https://github.com/conda-forge/r-sf-feedstock" xlink:title="r sf">
<ellipse fill="#fde725" stroke="black" cx="496.15" cy="-206" rx="28.06" ry="18"/>
<text text-anchor="middle" x="496.15" y="-201.33" font-family="Times,serif" font-size="14.00">r sf</text>
</a>
</g>
</g>
<!-- gdal&#45;&gt;r&#45;sf -->
<g id="edge5" class="edge">
<title>gdal&#45;&gt;r&#45;sf</title>
<path fill="none" stroke="black" d="M471.92,-475.87C460.83,-436.68 437.76,-337.86 461.15,-260 464.24,-249.72 470.04,-239.59 476.05,-230.99"/>
<polygon fill="black" stroke="black" points="478.68,-233.31 481.87,-223.21 473.08,-229.12 478.68,-233.31"/>
</g>
<!-- rasterio -->
<g id="node8" class="node">
<title>rasterio</title>
<g id="a_node8"><a xlink:href="https://github.com/conda-forge/rasterio-feedstock" xlink:title="rasterio">
<ellipse fill="#fde725" stroke="black" cx="404.15" cy="-134" rx="50.68" ry="18"/>
<text text-anchor="middle" x="404.15" y="-129.32" font-family="Times,serif" font-size="14.00">rasterio</text>
</a>
</g>
</g>
<!-- gdal&#45;&gt;rasterio -->
<g id="edge6" class="edge">
<title>gdal&#45;&gt;rasterio</title>
<path fill="none" stroke="black" d="M463.08,-477.72C441.86,-453.05 404.15,-402 404.15,-351 404.15,-351 404.15,-351 404.15,-277 404.15,-237.74 404.15,-192.38 404.15,-163.69"/>
<polygon fill="black" stroke="black" points="407.65,-164 404.15,-154 400.65,-164 407.65,-164"/>
</g>
<!-- pdal -->
<g id="node9" class="node">
<title>pdal</title>
<g id="a_node9"><a xlink:href="https://github.com/conda-forge/pdal-feedstock" xlink:title="pdal">
<ellipse fill="#fde725" stroke="black" cx="579.15" cy="-422" rx="32.79" ry="18"/>
<text text-anchor="middle" x="579.15" y="-417.32" font-family="Times,serif" font-size="14.00">pdal</text>
</a>
</g>
</g>
<!-- gdal&#45;&gt;pdal -->
<g id="edge7" class="edge">
<title>gdal&#45;&gt;pdal</title>
<path fill="none" stroke="black" d="M496.82,-479.5C511.82,-469.21 532.73,-454.86 549.72,-443.2"/>
<polygon fill="black" stroke="black" points="551.69,-446.09 557.95,-437.55 547.72,-440.32 551.69,-446.09"/>
</g>
<!-- r&#45;gdalcubes -->
<g id="node10" class="node">
<title>r&#45;gdalcubes</title>
<g id="a_node10"><a xlink:href="https://github.com/conda-forge/r-gdalcubes-feedstock" xlink:title="r gdalcubes">
<ellipse fill="#fde725" stroke="black" cx="306.15" cy="-422" rx="69.62" ry="18"/>
<text text-anchor="middle" x="306.15" y="-417.32" font-family="Times,serif" font-size="14.00">r gdalcubes</text>
</a>
</g>
</g>
<!-- gdal&#45;&gt;r&#45;gdalcubes -->
<g id="edge8" class="edge">
<title>gdal&#45;&gt;r&#45;gdalcubes</title>
<path fill="none" stroke="black" d="M451.55,-482.52C425.52,-471.86 384.6,-455.11 352.79,-442.09"/>
<polygon fill="black" stroke="black" points="354.37,-438.96 343.79,-438.41 351.72,-445.43 354.37,-438.96"/>
</g>
<!-- r&#45;terra -->
<g id="node11" class="node">
<title>r&#45;terra</title>
<g id="a_node11"><a xlink:href="https://github.com/conda-forge/r-terra-feedstock" xlink:title="r terra">
<ellipse fill="#fde725" stroke="black" cx="225.15" cy="-350" rx="44.37" ry="18"/>
<text text-anchor="middle" x="225.15" y="-345.32" font-family="Times,serif" font-size="14.00">r terra</text>
</a>
</g>
</g>
<!-- gdal&#45;&gt;r&#45;terra -->
<g id="edge9" class="edge">
<title>gdal&#45;&gt;r&#45;terra</title>
<path fill="none" stroke="black" d="M444.62,-490.97C383.36,-486.42 254.55,-473.05 227.15,-440 213.43,-423.45 214.03,-398.6 217.44,-379.36"/>
<polygon fill="black" stroke="black" points="220.84,-380.22 219.51,-369.71 213.99,-378.76 220.84,-380.22"/>
</g>
<!-- mapserver -->
<g id="node12" class="node">
<title>mapserver</title>
<g id="a_node12"><a xlink:href="https://github.com/conda-forge/mapserver-feedstock" xlink:title="mapserver">
<ellipse fill="#fde725" stroke="black" cx="153.15" cy="-278" rx="64.89" ry="18"/>
<text text-anchor="middle" x="153.15" y="-273.32" font-family="Times,serif" font-size="14.00">mapserver</text>
</a>
</g>
</g>
<!-- gdal&#45;&gt;mapserver -->
<g id="edge10" class="edge">
<title>gdal&#45;&gt;mapserver</title>
<path fill="none" stroke="black" d="M444.85,-490C382.41,-483.65 248.01,-467.18 211.15,-440 169.19,-409.05 157.5,-344.86 154.3,-307.56"/>
<polygon fill="black" stroke="black" points="157.82,-307.72 153.64,-297.98 150.84,-308.2 157.82,-307.72"/>
</g>
<!-- pygplates -->
<g id="node13" class="node">
<title>pygplates</title>
<g id="a_node13"><a xlink:href="https://github.com/conda-forge/pygplates-feedstock" xlink:title="pygplates">
<ellipse fill="#fde725" stroke="black" cx="60.15" cy="-206" rx="60.15" ry="18"/>
<text text-anchor="middle" x="60.15" y="-201.33" font-family="Times,serif" font-size="14.00">pygplates</text>
</a>
</g>
</g>
<!-- gdal&#45;&gt;pygplates -->
<g id="edge11" class="edge">
<title>gdal&#45;&gt;pygplates</title>
<path fill="none" stroke="black" d="M444.7,-490.45C376.54,-484.59 221.12,-468.43 177.15,-440 112.15,-397.96 109.58,-367.18 79.15,-296 70.89,-276.67 66.08,-253.38 63.37,-235.48"/>
<polygon fill="black" stroke="black" points="66.87,-235.26 62.05,-225.83 59.94,-236.21 66.87,-235.26"/>
</g>
<!-- meos -->
<g id="node14" class="node">
<title>meos</title>
<g id="a_node14"><a xlink:href="https://github.com/conda-forge/meos-feedstock" xlink:title="meos">
<ellipse fill="#fde725" stroke="black" cx="782.15" cy="-278" rx="37.53" ry="18"/>
<text text-anchor="middle" x="782.15" y="-273.32" font-family="Times,serif" font-size="14.00">meos</text>
</a>
</g>
</g>
<!-- postgis&#45;&gt;meos -->
<g id="edge12" class="edge">
<title>postgis&#45;&gt;meos</title>
<path fill="none" stroke="black" d="M782.15,-331.7C782.15,-324.41 782.15,-315.73 782.15,-307.54"/>
<polygon fill="black" stroke="black" points="785.65,-307.62 782.15,-297.62 778.65,-307.62 785.65,-307.62"/>
</g>
<!-- r&#45;lwgeom -->
<g id="node15" class="node">
<title>r&#45;lwgeom</title>
<g id="a_node15"><a xlink:href="https://github.com/conda-forge/r-lwgeom-feedstock" xlink:title="r lwgeom">
<ellipse fill="#fde725" stroke="black" cx="531.15" cy="-134" rx="58.05" ry="18"/>
<text text-anchor="middle" x="531.15" y="-129.32" font-family="Times,serif" font-size="14.00">r lwgeom</text>
</a>
</g>
</g>
<!-- r&#45;sf&#45;&gt;r&#45;lwgeom -->
<g id="edge13" class="edge">
<title>r&#45;sf&#45;&gt;r&#45;lwgeom</title>
<path fill="none" stroke="black" d="M504.45,-188.41C508.36,-180.59 513.12,-171.06 517.54,-162.23"/>
<polygon fill="black" stroke="black" points="520.66,-163.82 522,-153.31 514.39,-160.69 520.66,-163.82"/>
</g>
<!-- pdal&#45;&gt;qgis -->
<g id="edge14" class="edge">
<title>pdal&#45;&gt;qgis</title>
<path fill="none" stroke="black" d="M586.41,-404.05C589.73,-396.32 593.74,-386.96 597.47,-378.27"/>
<polygon fill="black" stroke="black" points="600.64,-379.75 601.36,-369.18 594.2,-376.99 600.64,-379.75"/>
</g>
<!-- geotiff -->
<g id="node16" class="node">
<title>geotiff</title>
<g id="a_node16"><a xlink:href="https://github.com/conda-forge/geotiff-feedstock/pull/70" xlink:title="geotiff ❎">
<ellipse fill="#31688e" stroke="black" cx="477.15" cy="-566" rx="58.57" ry="18"/>
<text text-anchor="middle" x="477.15" y="-561.33" font-family="Times,serif" font-size="14.00" fill="white">geotiff ❎</text>
</a>
</g>
</g>
<!-- geotiff&#45;&gt;gdal -->
<g id="edge15" class="edge">
<title>geotiff&#45;&gt;gdal</title>
<path fill="none" stroke="black" d="M477.15,-547.7C477.15,-540.41 477.15,-531.73 477.15,-523.54"/>
<polygon fill="black" stroke="black" points="480.65,-523.62 477.15,-513.62 473.65,-523.62 480.65,-523.62"/>
</g>
<!-- geotiff&#45;&gt;pdal -->
<g id="edge16" class="edge">
<title>geotiff&#45;&gt;pdal</title>
<path fill="none" stroke="black" d="M491.11,-548.07C499.45,-537.79 510.14,-524.32 519.15,-512 534.4,-491.16 550.72,-466.8 562.49,-448.84"/>
<polygon fill="black" stroke="black" points="565.33,-450.89 567.85,-440.6 559.46,-447.07 565.33,-450.89"/>
</g>
<!-- libspatialite -->
<g id="node17" class="node">
<title>libspatialite</title>
<g id="a_node17"><a xlink:href="https://github.com/conda-forge/libspatialite-feedstock/pull/107" xlink:title="libspatialite ❎">
<ellipse fill="#31688e" stroke="black" cx="640.15" cy="-566" rx="85.93" ry="18"/>
<text text-anchor="middle" x="640.15" y="-561.33" font-family="Times,serif" font-size="14.00" fill="white">libspatialite ❎</text>
</a>
</g>
</g>
<!-- libspatialite&#45;&gt;gdal -->
<g id="edge17" class="edge">
<title>libspatialite&#45;&gt;gdal</title>
<path fill="none" stroke="black" d="M603.57,-549.29C576.51,-537.67 539.85,-521.92 512.97,-510.38"/>
<polygon fill="black" stroke="black" points="514.43,-507.2 503.86,-506.47 511.67,-513.63 514.43,-507.2"/>
</g>
<!-- libspatialite&#45;&gt;qgis -->
<g id="edge18" class="edge">
<title>libspatialite&#45;&gt;qgis</title>
<path fill="none" stroke="black" d="M638.7,-547.52C636.09,-517.87 630.06,-455.87 621.15,-404 619.76,-395.88 617.92,-387.13 616.1,-379.13"/>
<polygon fill="black" stroke="black" points="619.55,-378.5 613.85,-369.57 612.73,-380.1 619.55,-378.5"/>
</g>
<!-- magics -->
<g id="node18" class="node">
<title>magics</title>
<g id="a_node18"><a xlink:href="https://github.com/conda-forge/magics-feedstock" xlink:title="magics">
<ellipse fill="#000000" stroke="black" cx="432.15" cy="-90" rx="46.47" ry="18"/>
<text text-anchor="middle" x="432.15" y="-85.33" font-family="Times,serif" font-size="14.00" fill="white">magics</text>
</a>
</g>
</g>
<!-- magics&#45;&gt;cdo -->
<g id="edge19" class="edge">
<title>magics&#45;&gt;cdo</title>
<path fill="none" stroke="black" d="M432.15,-71.7C432.15,-64.41 432.15,-55.73 432.15,-47.54"/>
<polygon fill="black" stroke="black" points="435.65,-47.62 432.15,-37.62 428.65,-47.62 435.65,-47.62"/>
</g>
<!-- paraview -->
<g id="node19" class="node">
<title>paraview</title>
<g id="a_node19"><a xlink:href="https://github.com/conda-forge/paraview-feedstock" xlink:title="paraview">
<ellipse fill="#000000" stroke="black" cx="1213.15" cy="-386" rx="57" ry="18"/>
<text text-anchor="middle" x="1213.15" y="-381.32" font-family="Times,serif" font-size="14.00" fill="white">paraview</text>
</a>
</g>
</g>
<!-- topologytoolkit -->
<g id="node20" class="node">
<title>topologytoolkit</title>
<g id="a_node20"><a xlink:href="https://github.com/conda-forge/topologytoolkit-feedstock" xlink:title="topologytoolkit">
<ellipse fill="#fde725" stroke="black" cx="1213.15" cy="-314" rx="86.46" ry="18"/>
<text text-anchor="middle" x="1213.15" y="-309.32" font-family="Times,serif" font-size="14.00">topologytoolkit</text>
</a>
</g>
</g>
<!-- paraview&#45;&gt;topologytoolkit -->
<g id="edge20" class="edge">
<title>paraview&#45;&gt;topologytoolkit</title>
<path fill="none" stroke="black" d="M1213.15,-367.7C1213.15,-360.41 1213.15,-351.73 1213.15,-343.54"/>
<polygon fill="black" stroke="black" points="1216.65,-343.62 1213.15,-333.62 1209.65,-343.62 1216.65,-343.62"/>
</g>
<!-- pyproj -->
<g id="node21" class="node">
<title>pyproj</title>
<g id="a_node21"><a xlink:href="https://github.com/conda-forge/pyproj-feedstock" xlink:title="pyproj">
<ellipse fill="#000000" stroke="black" cx="711.15" cy="-422" rx="43.32" ry="18"/>
<text text-anchor="middle" x="711.15" y="-417.32" font-family="Times,serif" font-size="14.00" fill="white">pyproj</text>
</a>
</g>
</g>
<!-- pyproj&#45;&gt;qgis -->
<g id="edge21" class="edge">
<title>pyproj&#45;&gt;qgis</title>
<path fill="none" stroke="black" d="M689.27,-405.98C674.3,-395.71 654.29,-381.98 638.01,-370.81"/>
<polygon fill="black" stroke="black" points="640.4,-368.2 630.17,-365.43 636.44,-373.97 640.4,-368.2"/>
</g>
<!-- r&#45;proj4 -->
<g id="node22" class="node">
<title>r&#45;proj4</title>
<g id="a_node22"><a xlink:href="https://github.com/conda-forge/r-proj4-feedstock" xlink:title="r proj4">
<ellipse fill="#000000" stroke="black" cx="995.15" cy="-494" rx="45.42" ry="18"/>
<text text-anchor="middle" x="995.15" y="-489.32" font-family="Times,serif" font-size="14.00" fill="white">r proj4</text>
</a>
</g>
</g>
<!-- magics&#45;metview -->
<g id="node23" class="node">
<title>magics&#45;metview</title>
<g id="a_node23"><a xlink:href="https://github.com/conda-forge/magics-metview-feedstock" xlink:title="magics metview">
<ellipse fill="#000000" stroke="black" cx="995.15" cy="-422" rx="92.25" ry="18"/>
<text text-anchor="middle" x="995.15" y="-417.32" font-family="Times,serif" font-size="14.00" fill="white">magics metview</text>
</a>
</g>
</g>
<!-- r&#45;proj4&#45;&gt;magics&#45;metview -->
<!-- magics&#45;metview&#45;batch -->
<g id="node26" class="node">
<title>magics&#45;metview&#45;batch</title>
<g id="a_node26"><a xlink:href="https://github.com/conda-forge/magics-metview-batch-feedstock" xlink:title="magics metview batch">
<ellipse fill="#000000" stroke="black" cx="995.15" cy="-350" rx="123.29" ry="18"/>
<text text-anchor="middle" x="995.15" y="-345.32" font-family="Times,serif" font-size="14.00" fill="white">magics metview batch</text>
</a>
</g>
</g>
<!-- magics&#45;metview&#45;&gt;magics&#45;metview&#45;batch -->
<!-- vtk -->
<g id="node24" class="node">
<title>vtk</title>
<g id="a_node24"><a xlink:href="https://github.com/conda-forge/vtk-feedstock" xlink:title="vtk">
<ellipse fill="#fde725" stroke="black" cx="1335.15" cy="-386" rx="27.01" ry="18"/>
<text text-anchor="middle" x="1335.15" y="-381.32" font-family="Times,serif" font-size="14.00">vtk</text>
</a>
</g>
</g>
<!-- vtk&#45;&gt;topologytoolkit -->
<g id="edge23" class="edge">
<title>vtk&#45;&gt;topologytoolkit</title>
<path fill="none" stroke="black" d="M1315.01,-373.44C1297.79,-363.56 1272.54,-349.08 1251.49,-337"/>
<polygon fill="black" stroke="black" points="1253.27,-333.98 1242.86,-332.04 1249.79,-340.06 1253.27,-333.98"/>
</g>
<!-- visan -->
<g id="node25" class="node">
<title>visan</title>
<g id="a_node25"><a xlink:href="https://github.com/conda-forge/visan-feedstock" xlink:title="visan">
<ellipse fill="#fde725" stroke="black" cx="1355.15" cy="-314" rx="37.53" ry="18"/>
<text text-anchor="middle" x="1355.15" y="-309.32" font-family="Times,serif" font-size="14.00">visan</text>
</a>
</g>
</g>
<!-- vtk&#45;&gt;visan -->
<g id="edge24" class="edge">
<title>vtk&#45;&gt;visan</title>
<path fill="none" stroke="black" d="M1339.99,-368.05C1342.12,-360.6 1344.68,-351.64 1347.09,-343.22"/>
<polygon fill="black" stroke="black" points="1350.42,-344.31 1349.8,-333.73 1343.69,-342.38 1350.42,-344.31"/>
</g>
<!-- fimex -->
<g id="node27" class="node">
<title>fimex</title>
<g id="a_node27"><a xlink:href="https://github.com/conda-forge/fimex-feedstock" xlink:title="fimex">
<ellipse fill="#000000" stroke="black" cx="995.15" cy="-278" rx="38.58" ry="18"/>
<text text-anchor="middle" x="995.15" y="-273.32" font-family="Times,serif" font-size="14.00" fill="white">fimex</text>
</a>
</g>
</g>
<!-- magics&#45;metview&#45;batch&#45;&gt;fimex -->
<!-- r&#45;proj -->
<g id="node28" class="node">
<title>r&#45;proj</title>
<g id="a_node28"><a xlink:href="https://github.com/conda-forge/r-proj-feedstock" xlink:title="r proj">
<ellipse fill="#000000" stroke="black" cx="995.15" cy="-206" rx="39.11" ry="18"/>
<text text-anchor="middle" x="995.15" y="-201.32" font-family="Times,serif" font-size="14.00" fill="white">r proj</text>
</a>
</g>
</g>
<!-- fimex&#45;&gt;r&#45;proj -->
</g>
</svg>
