<?xml version="1.0" encoding="UTF-8" standalone="no"?>
<!DOCTYPE svg PUBLIC "-//W3C//DTD SVG 1.1//EN"
 "http://www.w3.org/Graphics/SVG/1.1/DTD/svg11.dtd">
<!-- Generated by graphviz version 9.0.0 (20231125.0833)
 -->
<!-- Pages: 1 -->
<svg width="1119pt" height="592pt"
 viewBox="0.00 0.00 1118.94 592.00" xmlns="http://www.w3.org/2000/svg" xmlns:xlink="http://www.w3.org/1999/xlink">
<g id="graph0" class="graph" transform="scale(1 1) rotate(0) translate(4 588)">
<polygon fill="white" stroke="none" points="-4,4 -4,-588 1114.94,-588 1114.94,4 -4,4"/>
<!-- cdo -->
<g id="node1" class="node">
<title>cdo</title>
<g id="a_node1"><a xlink:href="https://github.com/conda-forge/cdo-feedstock" xlink:title="cdo">
<ellipse fill="#fde725" stroke="black" cx="1056.57" cy="-314" rx="28.59" ry="18"/>
<text text-anchor="middle" x="1056.57" y="-309.32" font-family="Times,serif" font-size="14.00">cdo</text>
</a>
</g>
</g>
<!-- gdal -->
<g id="node2" class="node">
<title>gdal</title>
<g id="a_node2"><a xlink:href="https://github.com/conda-forge/gdal-feedstock/pull/908" xlink:title="gdal ❎">
<ellipse fill="#31688e" stroke="black" cx="304.57" cy="-566" rx="48.05" ry="18"/>
<text text-anchor="middle" x="304.57" y="-561.33" font-family="Times,serif" font-size="14.00" fill="white">gdal ❎</text>
</a>
</g>
</g>
<!-- ncl -->
<g id="node3" class="node">
<title>ncl</title>
<g id="a_node3"><a xlink:href="https://github.com/conda-forge/ncl-feedstock" xlink:title="ncl">
<ellipse fill="#fde725" stroke="black" cx="135.57" cy="-494" rx="27" ry="18"/>
<text text-anchor="middle" x="135.57" y="-489.32" font-family="Times,serif" font-size="14.00">ncl</text>
</a>
</g>
</g>
<!-- gdal&#45;&gt;ncl -->
<g id="edge1" class="edge">
<title>gdal&#45;&gt;ncl</title>
<path fill="none" stroke="black" d="M273.27,-552.04C247.36,-541.32 209.57,-525.67 176.57,-512 173.96,-510.92 171.25,-509.79 168.52,-508.66"/>
<polygon fill="black" stroke="black" points="170.11,-505.53 159.53,-504.93 167.42,-512 170.11,-505.53"/>
</g>
<!-- postgis -->
<g id="node4" class="node">
<title>postgis</title>
<g id="a_node4"><a xlink:href="https://github.com/conda-forge/postgis-feedstock" xlink:title="postgis">
<ellipse fill="#fde725" stroke="black" cx="152.57" cy="-422" rx="47.53" ry="18"/>
<text text-anchor="middle" x="152.57" y="-417.32" font-family="Times,serif" font-size="14.00">postgis</text>
</a>
</g>
</g>
<!-- gdal&#45;&gt;postgis -->
<g id="edge2" class="edge">
<title>gdal&#45;&gt;postgis</title>
<path fill="none" stroke="black" d="M274.88,-551.61C256.22,-542.26 232.4,-528.51 214.57,-512 195.11,-493.97 178.29,-468.82 167.1,-449.86"/>
<polygon fill="black" stroke="black" points="170.24,-448.3 162.23,-441.36 164.16,-451.77 170.24,-448.3"/>
</g>
<!-- pynio -->
<g id="node5" class="node">
<title>pynio</title>
<g id="a_node5"><a xlink:href="https://github.com/conda-forge/pynio-feedstock" xlink:title="pynio">
<ellipse fill="#fde725" stroke="black" cx="199.57" cy="-350" rx="38.58" ry="18"/>
<text text-anchor="middle" x="199.57" y="-345.32" font-family="Times,serif" font-size="14.00">pynio</text>
</a>
</g>
</g>
<!-- gdal&#45;&gt;pynio -->
<g id="edge3" class="edge">
<title>gdal&#45;&gt;pynio</title>
<path fill="none" stroke="black" d="M285.01,-549.07C274.15,-539.34 261.15,-526.09 252.57,-512 226.68,-469.47 211.86,-412.82 204.79,-379.3"/>
<polygon fill="black" stroke="black" points="208.23,-378.66 202.83,-369.55 201.37,-380.04 208.23,-378.66"/>
</g>
<!-- qgis -->
<g id="node6" class="node">
<title>qgis</title>
<g id="a_node6"><a xlink:href="https://github.com/conda-forge/qgis-feedstock" xlink:title="qgis">
<ellipse fill="#fde725" stroke="black" cx="58.57" cy="-494" rx="32.27" ry="18"/>
<text text-anchor="middle" x="58.57" y="-489.32" font-family="Times,serif" font-size="14.00">qgis</text>
</a>
</g>
</g>
<!-- gdal&#45;&gt;qgis -->
<g id="edge4" class="edge">
<title>gdal&#45;&gt;qgis</title>
<path fill="none" stroke="black" d="M263.63,-556.2C221.9,-546.81 155.52,-530.73 99.57,-512 97.77,-511.39 95.92,-510.75 94.07,-510.07"/>
<polygon fill="black" stroke="black" points="95.52,-506.88 84.93,-506.54 92.99,-513.41 95.52,-506.88"/>
</g>
<!-- r&#45;rgdal -->
<g id="node7" class="node">
<title>r&#45;rgdal</title>
<g id="a_node7"><a xlink:href="https://github.com/conda-forge/r-rgdal-feedstock" xlink:title="r rgdal">
<ellipse fill="#fde725" stroke="black" cx="231.57" cy="-278" rx="45.42" ry="18"/>
<text text-anchor="middle" x="231.57" y="-273.32" font-family="Times,serif" font-size="14.00">r rgdal</text>
</a>
</g>
</g>
<!-- gdal&#45;&gt;r&#45;rgdal -->
<g id="edge5" class="edge">
<title>gdal&#45;&gt;r&#45;rgdal</title>
<path fill="none" stroke="black" d="M299.93,-547.84C297.15,-537.48 293.59,-524 290.57,-512 270.51,-432.23 269.02,-411.4 247.57,-332 245.36,-323.8 242.77,-314.95 240.32,-306.87"/>
<polygon fill="black" stroke="black" points="243.74,-306.09 237.46,-297.56 237.05,-308.15 243.74,-306.09"/>
</g>
<!-- r&#45;sf -->
<g id="node8" class="node">
<title>r&#45;sf</title>
<g id="a_node8"><a xlink:href="https://github.com/conda-forge/r-sf-feedstock" xlink:title="r sf">
<ellipse fill="#fde725" stroke="black" cx="304.57" cy="-206" rx="28.06" ry="18"/>
<text text-anchor="middle" x="304.57" y="-201.33" font-family="Times,serif" font-size="14.00">r sf</text>
</a>
</g>
</g>
<!-- gdal&#45;&gt;r&#45;sf -->
<g id="edge6" class="edge">
<title>gdal&#45;&gt;r&#45;sf</title>
<path fill="none" stroke="black" d="M304.57,-547.51C304.57,-520.71 304.57,-467.87 304.57,-423 304.57,-423 304.57,-423 304.57,-349 304.57,-309.74 304.57,-264.38 304.57,-235.69"/>
<polygon fill="black" stroke="black" points="308.07,-236 304.57,-226 301.07,-236 308.07,-236"/>
</g>
<!-- rasterio -->
<g id="node9" class="node">
<title>rasterio</title>
<g id="a_node9"><a xlink:href="https://github.com/conda-forge/rasterio-feedstock" xlink:title="rasterio">
<ellipse fill="#fde725" stroke="black" cx="383.57" cy="-494" rx="50.68" ry="18"/>
<text text-anchor="middle" x="383.57" y="-489.32" font-family="Times,serif" font-size="14.00">rasterio</text>
</a>
</g>
</g>
<!-- gdal&#45;&gt;rasterio -->
<g id="edge7" class="edge">
<title>gdal&#45;&gt;rasterio</title>
<path fill="none" stroke="black" d="M322.5,-549.12C332.73,-540.05 345.75,-528.52 357.13,-518.43"/>
<polygon fill="black" stroke="black" points="359.15,-521.32 364.31,-512.07 354.51,-516.08 359.15,-521.32"/>
</g>
<!-- r&#45;gdalcubes -->
<g id="node10" class="node">
<title>r&#45;gdalcubes</title>
<g id="a_node10"><a xlink:href="https://github.com/conda-forge/r-gdalcubes-feedstock" xlink:title="r gdalcubes">
<ellipse fill="#fde725" stroke="black" cx="402.57" cy="-422" rx="69.62" ry="18"/>
<text text-anchor="middle" x="402.57" y="-417.32" font-family="Times,serif" font-size="14.00">r gdalcubes</text>
</a>
</g>
</g>
<!-- gdal&#45;&gt;r&#45;gdalcubes -->
<g id="edge8" class="edge">
<title>gdal&#45;&gt;r&#45;gdalcubes</title>
<path fill="none" stroke="black" d="M351.01,-560.68C382.85,-555.02 422.91,-541.99 443.57,-512 457.34,-492.01 443.03,-466.67 427.66,-448.14"/>
<polygon fill="black" stroke="black" points="430.4,-445.95 421.16,-440.78 425.16,-450.59 430.4,-445.95"/>
</g>
<!-- r&#45;terra -->
<g id="node11" class="node">
<title>r&#45;terra</title>
<g id="a_node11"><a xlink:href="https://github.com/conda-forge/r-terra-feedstock" xlink:title="r terra">
<ellipse fill="#fde725" stroke="black" cx="483.57" cy="-350" rx="44.37" ry="18"/>
<text text-anchor="middle" x="483.57" y="-345.32" font-family="Times,serif" font-size="14.00">r terra</text>
</a>
</g>
</g>
<!-- gdal&#45;&gt;r&#45;terra -->
<g id="edge9" class="edge">
<title>gdal&#45;&gt;r&#45;terra</title>
<path fill="none" stroke="black" d="M350.95,-560.65C385.66,-554.99 431.89,-541.96 460.57,-512 494.43,-476.63 492.97,-415.31 488.51,-379.42"/>
<polygon fill="black" stroke="black" points="492.01,-379.21 487.14,-369.8 485.08,-380.19 492.01,-379.21"/>
</g>
<!-- mapserver -->
<g id="node12" class="node">
<title>mapserver</title>
<g id="a_node12"><a xlink:href="https://github.com/conda-forge/mapserver-feedstock" xlink:title="mapserver">
<ellipse fill="#fde725" stroke="black" cx="555.57" cy="-278" rx="64.89" ry="18"/>
<text text-anchor="middle" x="555.57" y="-273.32" font-family="Times,serif" font-size="14.00">mapserver</text>
</a>
</g>
</g>
<!-- gdal&#45;&gt;mapserver -->
<g id="edge10" class="edge">
<title>gdal&#45;&gt;mapserver</title>
<path fill="none" stroke="black" d="M352.02,-562.8C392.39,-558.47 449.42,-546.2 485.57,-512 543.42,-457.28 554.03,-356.79 555.6,-307.62"/>
<polygon fill="black" stroke="black" points="559.1,-307.87 555.8,-297.8 552.1,-307.73 559.1,-307.87"/>
</g>
<!-- pygplates -->
<g id="node13" class="node">
<title>pygplates</title>
<g id="a_node13"><a xlink:href="https://github.com/conda-forge/pygplates-feedstock" xlink:title="pygplates">
<ellipse fill="#fde725" stroke="black" cx="648.57" cy="-206" rx="60.15" ry="18"/>
<text text-anchor="middle" x="648.57" y="-201.33" font-family="Times,serif" font-size="14.00">pygplates</text>
</a>
</g>
</g>
<!-- gdal&#45;&gt;pygplates -->
<g id="edge11" class="edge">
<title>gdal&#45;&gt;pygplates</title>
<path fill="none" stroke="black" d="M346.75,-556.86C438.61,-537.94 648.57,-487.61 648.57,-423 648.57,-423 648.57,-423 648.57,-349 648.57,-309.74 648.57,-264.38 648.57,-235.69"/>
<polygon fill="black" stroke="black" points="652.07,-236 648.57,-226 645.07,-236 652.07,-236"/>
</g>
<!-- r&#45;lwgeom -->
<g id="node14" class="node">
<title>r&#45;lwgeom</title>
<g id="a_node14"><a xlink:href="https://github.com/conda-forge/r-lwgeom-feedstock" xlink:title="r lwgeom">
<ellipse fill="#fde725" stroke="black" cx="304.57" cy="-134" rx="58.05" ry="18"/>
<text text-anchor="middle" x="304.57" y="-129.32" font-family="Times,serif" font-size="14.00">r lwgeom</text>
</a>
</g>
</g>
<!-- r&#45;sf&#45;&gt;r&#45;lwgeom -->
<g id="edge12" class="edge">
<title>r&#45;sf&#45;&gt;r&#45;lwgeom</title>
<path fill="none" stroke="black" d="M304.57,-187.7C304.57,-180.41 304.57,-171.73 304.57,-163.54"/>
<polygon fill="black" stroke="black" points="308.07,-163.62 304.57,-153.62 301.07,-163.62 308.07,-163.62"/>
</g>
<!-- magics -->
<g id="node15" class="node">
<title>magics</title>
<g id="a_node15"><a xlink:href="https://github.com/conda-forge/magics-feedstock/pull/136" xlink:title="magics ✓">
<ellipse fill="#31688e" stroke="black" cx="1056.57" cy="-386" rx="54.36" ry="18"/>
<text text-anchor="middle" x="1056.57" y="-381.32" font-family="Times,serif" font-size="14.00" fill="white">magics ✓</text>
</a>
</g>
</g>
<!-- magics&#45;&gt;cdo -->
<g id="edge13" class="edge">
<title>magics&#45;&gt;cdo</title>
<path fill="none" stroke="black" d="M1056.57,-367.7C1056.57,-360.41 1056.57,-351.73 1056.57,-343.54"/>
<polygon fill="black" stroke="black" points="1060.07,-343.62 1056.57,-333.62 1053.07,-343.62 1060.07,-343.62"/>
</g>
<!-- pyproj -->
<g id="node16" class="node">
<title>pyproj</title>
<g id="a_node16"><a xlink:href="https://github.com/conda-forge/pyproj-feedstock/pull/148" xlink:title="pyproj ❎">
<ellipse fill="#31688e" stroke="black" cx="58.57" cy="-566" rx="58.57" ry="18"/>
<text text-anchor="middle" x="58.57" y="-561.33" font-family="Times,serif" font-size="14.00" fill="white">pyproj ❎</text>
</a>
</g>
</g>
<!-- pyproj&#45;&gt;qgis -->
<g id="edge14" class="edge">
<title>pyproj&#45;&gt;qgis</title>
<path fill="none" stroke="black" d="M58.57,-547.7C58.57,-540.41 58.57,-531.73 58.57,-523.54"/>
<polygon fill="black" stroke="black" points="62.07,-523.62 58.57,-513.62 55.07,-523.62 62.07,-523.62"/>
</g>
<!-- vtk -->
<g id="node17" class="node">
<title>vtk</title>
<g id="a_node17"><a xlink:href="https://github.com/conda-forge/vtk-feedstock/pull/322" xlink:title="vtk ❎">
<ellipse fill="#31688e" stroke="black" cx="354.57" cy="-90" rx="42.26" ry="18"/>
<text text-anchor="middle" x="354.57" y="-85.33" font-family="Times,serif" font-size="14.00" fill="white">vtk ❎</text>
</a>
</g>
</g>
<!-- visan -->
<g id="node18" class="node">
<title>visan</title>
<g id="a_node18"><a xlink:href="https://github.com/conda-forge/visan-feedstock" xlink:title="visan">
<ellipse fill="#fde725" stroke="black" cx="354.57" cy="-18" rx="37.53" ry="18"/>
<text text-anchor="middle" x="354.57" y="-13.32" font-family="Times,serif" font-size="14.00">visan</text>
</a>
</g>
</g>
<!-- vtk&#45;&gt;visan -->
<g id="edge15" class="edge">
<title>vtk&#45;&gt;visan</title>
<path fill="none" stroke="black" d="M354.57,-71.7C354.57,-64.41 354.57,-55.73 354.57,-47.54"/>
<polygon fill="black" stroke="black" points="358.07,-47.62 354.57,-37.62 351.07,-47.62 358.07,-47.62"/>
</g>
<!-- magics&#45;metview -->
<g id="node19" class="node">
<title>magics&#45;metview</title>
<g id="a_node19"><a xlink:href="https://github.com/conda-forge/magics-metview-feedstock/pull/76" xlink:title="magics metview ❎">
<ellipse fill="#31688e" stroke="black" cx="855.57" cy="-422" rx="107.5" ry="18"/>
<text text-anchor="middle" x="855.57" y="-417.32" font-family="Times,serif" font-size="14.00" fill="white">magics metview ❎</text>
</a>
</g>
</g>
<!-- magics&#45;metview&#45;batch -->
<g id="node20" class="node">
<title>magics&#45;metview&#45;batch</title>
<g id="a_node20"><a xlink:href="https://github.com/conda-forge/magics-metview-batch-feedstock/pull/67" xlink:title="magics metview batch ❎">
<ellipse fill="#31688e" stroke="black" cx="855.57" cy="-350" rx="138.54" ry="18"/>
<text text-anchor="middle" x="855.57" y="-345.32" font-family="Times,serif" font-size="14.00" fill="white">magics metview batch ❎</text>
</a>
</g>
</g>
<!-- magics&#45;metview&#45;&gt;magics&#45;metview&#45;batch -->
<!-- fimex -->
<g id="node21" class="node">
<title>fimex</title>
<g id="a_node21"><a xlink:href="https://github.com/conda-forge/fimex-feedstock/pull/77" xlink:title="fimex ❎">
<ellipse fill="#31688e" stroke="black" cx="855.57" cy="-278" rx="53.84" ry="18"/>
<text text-anchor="middle" x="855.57" y="-273.32" font-family="Times,serif" font-size="14.00" fill="white">fimex ❎</text>
</a>
</g>
</g>
<!-- magics&#45;metview&#45;batch&#45;&gt;fimex -->
</g>
</svg>
