<?xml version="1.0" encoding="UTF-8" standalone="no"?>
<!DOCTYPE svg PUBLIC "-//W3C//DTD SVG 1.1//EN"
 "http://www.w3.org/Graphics/SVG/1.1/DTD/svg11.dtd">
<!-- Generated by graphviz version 11.0.0 (20240519.1550)
 -->
<!-- Pages: 1 -->
<svg width="1394pt" height="520pt"
 viewBox="0.00 0.00 1394.10 520.00" xmlns="http://www.w3.org/2000/svg" xmlns:xlink="http://www.w3.org/1999/xlink">
<g id="graph0" class="graph" transform="scale(1 1) rotate(0) translate(4 516)">
<polygon fill="white" stroke="none" points="-4,4 -4,-516 1390.1,-516 1390.1,4 -4,4"/>
<!-- cdo -->
<g id="node1" class="node">
<title>cdo</title>
<g id="a_node1"><a xlink:href="https://github.com/conda-forge/cdo-feedstock" xlink:title="cdo">
<ellipse fill="#fde725" stroke="black" cx="428.57" cy="-18" rx="28.59" ry="18"/>
<text text-anchor="middle" x="428.57" y="-13.32" font-family="Times,serif" font-size="14.00">cdo</text>
</a>
</g>
</g>
<!-- gdal -->
<g id="node2" class="node">
<title>gdal</title>
<g id="a_node2"><a xlink:href="https://github.com/conda-forge/gdal-feedstock" xlink:title="gdal">
<ellipse fill="#35b779" stroke="black" cx="415.57" cy="-494" rx="32.79" ry="18"/>
<text text-anchor="middle" x="415.57" y="-489.32" font-family="Times,serif" font-size="14.00">gdal</text>
</a>
</g>
</g>
<!-- ncl -->
<g id="node3" class="node">
<title>ncl</title>
<g id="a_node3"><a xlink:href="https://github.com/conda-forge/ncl-feedstock" xlink:title="ncl">
<ellipse fill="#fde725" stroke="black" cx="162.57" cy="-422" rx="27" ry="18"/>
<text text-anchor="middle" x="162.57" y="-417.32" font-family="Times,serif" font-size="14.00">ncl</text>
</a>
</g>
</g>
<!-- gdal&#45;&gt;ncl -->
<g id="edge1" class="edge">
<title>gdal&#45;&gt;ncl</title>
<path fill="none" stroke="black" d="M384.98,-486.84C343.4,-478.14 266.98,-460.94 203.57,-440 200.82,-439.09 197.99,-438.08 195.17,-437.02"/>
<polygon fill="black" stroke="black" points="196.47,-433.77 185.88,-433.34 193.89,-440.28 196.47,-433.77"/>
</g>
<!-- postgis -->
<g id="node4" class="node">
<title>postgis</title>
<g id="a_node4"><a xlink:href="https://github.com/conda-forge/postgis-feedstock" xlink:title="postgis">
<ellipse fill="#fde725" stroke="black" cx="301.57" cy="-350" rx="47.53" ry="18"/>
<text text-anchor="middle" x="301.57" y="-345.32" font-family="Times,serif" font-size="14.00">postgis</text>
</a>
</g>
</g>
<!-- gdal&#45;&gt;postgis -->
<g id="edge2" class="edge">
<title>gdal&#45;&gt;postgis</title>
<path fill="none" stroke="black" d="M399.38,-477.88C388.74,-467.61 374.76,-453.5 363.57,-440 347.02,-420.03 330.33,-395.79 318.45,-377.65"/>
<polygon fill="black" stroke="black" points="321.4,-375.77 313.03,-369.28 315.52,-379.58 321.4,-375.77"/>
</g>
<!-- qgis -->
<g id="node5" class="node">
<title>qgis</title>
<g id="a_node5"><a xlink:href="https://github.com/conda-forge/qgis-feedstock" xlink:title="qgis">
<ellipse fill="#fde725" stroke="black" cx="203.57" cy="-350" rx="32.27" ry="18"/>
<text text-anchor="middle" x="203.57" y="-345.32" font-family="Times,serif" font-size="14.00">qgis</text>
</a>
</g>
</g>
<!-- gdal&#45;&gt;qgis -->
<g id="edge3" class="edge">
<title>gdal&#45;&gt;qgis</title>
<path fill="none" stroke="black" d="M382.52,-491.84C342.94,-488.72 276.94,-477.74 236.57,-440 219.73,-424.25 211.44,-399.12 207.38,-379.57"/>
<polygon fill="black" stroke="black" points="210.83,-378.98 205.63,-369.75 203.94,-380.21 210.83,-378.98"/>
</g>
<!-- r&#45;rgdal -->
<g id="node6" class="node">
<title>r&#45;rgdal</title>
<g id="a_node6"><a xlink:href="https://github.com/conda-forge/r-rgdal-feedstock" xlink:title="r rgdal">
<ellipse fill="#fde725" stroke="black" cx="342.57" cy="-278" rx="45.42" ry="18"/>
<text text-anchor="middle" x="342.57" y="-273.32" font-family="Times,serif" font-size="14.00">r rgdal</text>
</a>
</g>
</g>
<!-- gdal&#45;&gt;r&#45;rgdal -->
<g id="edge4" class="edge">
<title>gdal&#45;&gt;r&#45;rgdal</title>
<path fill="none" stroke="black" d="M409.72,-475.85C397.15,-438.99 367.45,-351.92 352.11,-306.96"/>
<polygon fill="black" stroke="black" points="355.48,-306 348.94,-297.66 348.86,-308.26 355.48,-306"/>
</g>
<!-- r&#45;sf -->
<g id="node7" class="node">
<title>r&#45;sf</title>
<g id="a_node7"><a xlink:href="https://github.com/conda-forge/r-sf-feedstock" xlink:title="r sf">
<ellipse fill="#fde725" stroke="black" cx="362.57" cy="-206" rx="28.06" ry="18"/>
<text text-anchor="middle" x="362.57" y="-201.33" font-family="Times,serif" font-size="14.00">r sf</text>
</a>
</g>
</g>
<!-- gdal&#45;&gt;r&#45;sf -->
<g id="edge5" class="edge">
<title>gdal&#45;&gt;r&#45;sf</title>
<path fill="none" stroke="black" d="M416.95,-475.76C419.52,-436.35 422.62,-337.09 396.57,-260 393.2,-250.03 387.56,-240.05 381.82,-231.5"/>
<polygon fill="black" stroke="black" points="384.72,-229.53 376.06,-223.42 379.02,-233.59 384.72,-229.53"/>
</g>
<!-- rasterio -->
<g id="node8" class="node">
<title>rasterio</title>
<g id="a_node8"><a xlink:href="https://github.com/conda-forge/rasterio-feedstock" xlink:title="rasterio">
<ellipse fill="#fde725" stroke="black" cx="453.57" cy="-134" rx="50.68" ry="18"/>
<text text-anchor="middle" x="453.57" y="-129.32" font-family="Times,serif" font-size="14.00">rasterio</text>
</a>
</g>
</g>
<!-- gdal&#45;&gt;rasterio -->
<g id="edge6" class="edge">
<title>gdal&#45;&gt;rasterio</title>
<path fill="none" stroke="black" d="M423.08,-476.34C434.16,-450.2 453.57,-397.7 453.57,-351 453.57,-351 453.57,-351 453.57,-277 453.57,-237.74 453.57,-192.38 453.57,-163.69"/>
<polygon fill="black" stroke="black" points="457.07,-164 453.57,-154 450.07,-164 457.07,-164"/>
</g>
<!-- pdal -->
<g id="node9" class="node">
<title>pdal</title>
<g id="a_node9"><a xlink:href="https://github.com/conda-forge/pdal-feedstock" xlink:title="pdal">
<ellipse fill="#fde725" stroke="black" cx="278.57" cy="-422" rx="32.79" ry="18"/>
<text text-anchor="middle" x="278.57" y="-417.32" font-family="Times,serif" font-size="14.00">pdal</text>
</a>
</g>
</g>
<!-- gdal&#45;&gt;pdal -->
<g id="edge7" class="edge">
<title>gdal&#45;&gt;pdal</title>
<path fill="none" stroke="black" d="M392.02,-480.97C369.93,-469.68 336.67,-452.69 311.87,-440.01"/>
<polygon fill="black" stroke="black" points="313.66,-437 303.17,-435.57 310.48,-443.23 313.66,-437"/>
</g>
<!-- r&#45;gdalcubes -->
<g id="node10" class="node">
<title>r&#45;gdalcubes</title>
<g id="a_node10"><a xlink:href="https://github.com/conda-forge/r-gdalcubes-feedstock" xlink:title="r gdalcubes">
<ellipse fill="#fde725" stroke="black" cx="551.57" cy="-350" rx="69.62" ry="18"/>
<text text-anchor="middle" x="551.57" y="-345.32" font-family="Times,serif" font-size="14.00">r gdalcubes</text>
</a>
</g>
</g>
<!-- gdal&#45;&gt;r&#45;gdalcubes -->
<g id="edge8" class="edge">
<title>gdal&#45;&gt;r&#45;gdalcubes</title>
<path fill="none" stroke="black" d="M430.67,-477.77C441.09,-467.22 455.24,-452.82 467.57,-440 488.21,-418.55 511.41,-393.93 528.2,-376.03"/>
<polygon fill="black" stroke="black" points="530.56,-378.62 534.84,-368.93 525.45,-373.84 530.56,-378.62"/>
</g>
<!-- r&#45;terra -->
<g id="node11" class="node">
<title>r&#45;terra</title>
<g id="a_node11"><a xlink:href="https://github.com/conda-forge/r-terra-feedstock" xlink:title="r terra">
<ellipse fill="#fde725" stroke="black" cx="632.57" cy="-278" rx="44.37" ry="18"/>
<text text-anchor="middle" x="632.57" y="-273.32" font-family="Times,serif" font-size="14.00">r terra</text>
</a>
</g>
</g>
<!-- gdal&#45;&gt;r&#45;terra -->
<g id="edge9" class="edge">
<title>gdal&#45;&gt;r&#45;terra</title>
<path fill="none" stroke="black" d="M445.07,-485.81C493.73,-472.18 589.53,-437.53 630.57,-368 641.27,-349.88 641.16,-325.85 638.7,-307.33"/>
<polygon fill="black" stroke="black" points="642.17,-306.86 637.09,-297.57 635.27,-308 642.17,-306.86"/>
</g>
<!-- mapserver -->
<g id="node12" class="node">
<title>mapserver</title>
<g id="a_node12"><a xlink:href="https://github.com/conda-forge/mapserver-feedstock" xlink:title="mapserver">
<ellipse fill="#fde725" stroke="black" cx="704.57" cy="-206" rx="64.89" ry="18"/>
<text text-anchor="middle" x="704.57" y="-201.33" font-family="Times,serif" font-size="14.00">mapserver</text>
</a>
</g>
</g>
<!-- gdal&#45;&gt;mapserver -->
<g id="edge10" class="edge">
<title>gdal&#45;&gt;mapserver</title>
<path fill="none" stroke="black" d="M447.61,-489.25C484.92,-483.62 547.1,-470.22 591.57,-440 654.79,-397.05 659.9,-367.99 685.57,-296 692.56,-276.41 697.38,-253.44 700.42,-235.74"/>
<polygon fill="black" stroke="black" points="703.87,-236.36 702.01,-225.93 696.96,-235.24 703.87,-236.36"/>
</g>
<!-- pygplates -->
<g id="node13" class="node">
<title>pygplates</title>
<g id="a_node13"><a xlink:href="https://github.com/conda-forge/pygplates-feedstock" xlink:title="pygplates">
<ellipse fill="#fde725" stroke="black" cx="797.57" cy="-134" rx="60.15" ry="18"/>
<text text-anchor="middle" x="797.57" y="-129.32" font-family="Times,serif" font-size="14.00">pygplates</text>
</a>
</g>
</g>
<!-- gdal&#45;&gt;pygplates -->
<g id="edge11" class="edge">
<title>gdal&#45;&gt;pygplates</title>
<path fill="none" stroke="black" d="M447.16,-488.25C538.68,-473.59 797.57,-425.56 797.57,-351 797.57,-351 797.57,-351 797.57,-277 797.57,-237.74 797.57,-192.38 797.57,-163.69"/>
<polygon fill="black" stroke="black" points="801.07,-164 797.57,-154 794.07,-164 801.07,-164"/>
</g>
<!-- meos -->
<g id="node14" class="node">
<title>meos</title>
<g id="a_node14"><a xlink:href="https://github.com/conda-forge/meos-feedstock" xlink:title="meos">
<ellipse fill="#fde725" stroke="black" cx="241.57" cy="-278" rx="37.53" ry="18"/>
<text text-anchor="middle" x="241.57" y="-273.32" font-family="Times,serif" font-size="14.00">meos</text>
</a>
</g>
</g>
<!-- postgis&#45;&gt;meos -->
<g id="edge12" class="edge">
<title>postgis&#45;&gt;meos</title>
<path fill="none" stroke="black" d="M287.35,-332.41C280,-323.83 270.88,-313.19 262.72,-303.67"/>
<polygon fill="black" stroke="black" points="265.43,-301.45 256.26,-296.14 260.11,-306.01 265.43,-301.45"/>
</g>
<!-- r&#45;lwgeom -->
<g id="node15" class="node">
<title>r&#45;lwgeom</title>
<g id="a_node15"><a xlink:href="https://github.com/conda-forge/r-lwgeom-feedstock" xlink:title="r lwgeom">
<ellipse fill="#fde725" stroke="black" cx="326.57" cy="-134" rx="58.05" ry="18"/>
<text text-anchor="middle" x="326.57" y="-129.32" font-family="Times,serif" font-size="14.00">r lwgeom</text>
</a>
</g>
</g>
<!-- r&#45;sf&#45;&gt;r&#45;lwgeom -->
<g id="edge13" class="edge">
<title>r&#45;sf&#45;&gt;r&#45;lwgeom</title>
<path fill="none" stroke="black" d="M354.04,-188.41C349.98,-180.51 345.01,-170.85 340.43,-161.94"/>
<polygon fill="black" stroke="black" points="343.67,-160.59 335.99,-153.3 337.45,-163.8 343.67,-160.59"/>
</g>
<!-- pdal&#45;&gt;qgis -->
<g id="edge14" class="edge">
<title>pdal&#45;&gt;qgis</title>
<path fill="none" stroke="black" d="M262.67,-406.15C252.59,-396.75 239.37,-384.41 227.98,-373.78"/>
<polygon fill="black" stroke="black" points="230.52,-371.36 220.82,-367.1 225.74,-376.48 230.52,-371.36"/>
</g>
<!-- magics -->
<g id="node16" class="node">
<title>magics</title>
<g id="a_node16"><a xlink:href="https://github.com/conda-forge/magics-feedstock/pull/138" xlink:title="magics ✓">
<ellipse fill="#31688e" stroke="black" cx="428.57" cy="-90" rx="54.36" ry="18"/>
<text text-anchor="middle" x="428.57" y="-85.33" font-family="Times,serif" font-size="14.00" fill="white">magics ✓</text>
</a>
</g>
</g>
<!-- magics&#45;&gt;cdo -->
<g id="edge15" class="edge">
<title>magics&#45;&gt;cdo</title>
<path fill="none" stroke="black" d="M428.57,-71.7C428.57,-64.41 428.57,-55.73 428.57,-47.54"/>
<polygon fill="black" stroke="black" points="432.07,-47.62 428.57,-37.62 425.07,-47.62 432.07,-47.62"/>
</g>
<!-- paraview -->
<g id="node17" class="node">
<title>paraview</title>
<g id="a_node17"><a xlink:href="https://github.com/conda-forge/paraview-feedstock" xlink:title="paraview">
<ellipse fill="#000000" stroke="black" cx="1206.57" cy="-350" rx="57" ry="18"/>
<text text-anchor="middle" x="1206.57" y="-345.32" font-family="Times,serif" font-size="14.00" fill="white">paraview</text>
</a>
</g>
</g>
<!-- topologytoolkit -->
<g id="node18" class="node">
<title>topologytoolkit</title>
<g id="a_node18"><a xlink:href="https://github.com/conda-forge/topologytoolkit-feedstock" xlink:title="topologytoolkit">
<ellipse fill="#fde725" stroke="black" cx="1206.57" cy="-278" rx="86.46" ry="18"/>
<text text-anchor="middle" x="1206.57" y="-273.32" font-family="Times,serif" font-size="14.00">topologytoolkit</text>
</a>
</g>
</g>
<!-- paraview&#45;&gt;topologytoolkit -->
<g id="edge16" class="edge">
<title>paraview&#45;&gt;topologytoolkit</title>
<path fill="none" stroke="black" d="M1206.57,-331.7C1206.57,-324.41 1206.57,-315.73 1206.57,-307.54"/>
<polygon fill="black" stroke="black" points="1210.07,-307.62 1206.57,-297.62 1203.07,-307.62 1210.07,-307.62"/>
</g>
<!-- pyproj -->
<g id="node19" class="node">
<title>pyproj</title>
<g id="a_node19"><a xlink:href="https://github.com/conda-forge/pyproj-feedstock/pull/151" xlink:title="pyproj ❎">
<ellipse fill="#31688e" stroke="black" cx="58.57" cy="-422" rx="58.57" ry="18"/>
<text text-anchor="middle" x="58.57" y="-417.32" font-family="Times,serif" font-size="14.00" fill="white">pyproj ❎</text>
</a>
</g>
</g>
<!-- pyproj&#45;&gt;qgis -->
<g id="edge17" class="edge">
<title>pyproj&#45;&gt;qgis</title>
<path fill="none" stroke="black" d="M88.97,-406.33C112.55,-394.94 145.23,-379.17 169.66,-367.37"/>
<polygon fill="black" stroke="black" points="171.06,-370.58 178.54,-363.08 168.02,-364.28 171.06,-370.58"/>
</g>
<!-- r&#45;proj4 -->
<g id="node20" class="node">
<title>r&#45;proj4</title>
<g id="a_node20"><a xlink:href="https://github.com/conda-forge/r-proj4-feedstock" xlink:title="r proj4">
<ellipse fill="#000000" stroke="black" cx="989.57" cy="-458" rx="45.42" ry="18"/>
<text text-anchor="middle" x="989.57" y="-453.32" font-family="Times,serif" font-size="14.00" fill="white">r proj4</text>
</a>
</g>
</g>
<!-- magics&#45;metview -->
<g id="node21" class="node">
<title>magics&#45;metview</title>
<g id="a_node21"><a xlink:href="https://github.com/conda-forge/magics-metview-feedstock" xlink:title="magics metview">
<ellipse fill="#000000" stroke="black" cx="989.57" cy="-386" rx="92.25" ry="18"/>
<text text-anchor="middle" x="989.57" y="-381.32" font-family="Times,serif" font-size="14.00" fill="white">magics metview</text>
</a>
</g>
</g>
<!-- r&#45;proj4&#45;&gt;magics&#45;metview -->
<!-- magics&#45;metview&#45;batch -->
<g id="node24" class="node">
<title>magics&#45;metview&#45;batch</title>
<g id="a_node24"><a xlink:href="https://github.com/conda-forge/magics-metview-batch-feedstock" xlink:title="magics metview batch">
<ellipse fill="#000000" stroke="black" cx="989.57" cy="-314" rx="123.29" ry="18"/>
<text text-anchor="middle" x="989.57" y="-309.32" font-family="Times,serif" font-size="14.00" fill="white">magics metview batch</text>
</a>
</g>
</g>
<!-- magics&#45;metview&#45;&gt;magics&#45;metview&#45;batch -->
<!-- vtk -->
<g id="node22" class="node">
<title>vtk</title>
<g id="a_node22"><a xlink:href="https://github.com/conda-forge/vtk-feedstock" xlink:title="vtk">
<ellipse fill="#35b779" stroke="black" cx="1328.57" cy="-350" rx="27.01" ry="18"/>
<text text-anchor="middle" x="1328.57" y="-345.32" font-family="Times,serif" font-size="14.00">vtk</text>
</a>
</g>
</g>
<!-- vtk&#45;&gt;topologytoolkit -->
<g id="edge19" class="edge">
<title>vtk&#45;&gt;topologytoolkit</title>
<path fill="none" stroke="black" d="M1308.43,-337.44C1291.21,-327.56 1265.96,-313.08 1244.91,-301"/>
<polygon fill="black" stroke="black" points="1246.69,-297.98 1236.28,-296.04 1243.21,-304.06 1246.69,-297.98"/>
</g>
<!-- visan -->
<g id="node23" class="node">
<title>visan</title>
<g id="a_node23"><a xlink:href="https://github.com/conda-forge/visan-feedstock" xlink:title="visan">
<ellipse fill="#fde725" stroke="black" cx="1348.57" cy="-278" rx="37.53" ry="18"/>
<text text-anchor="middle" x="1348.57" y="-273.32" font-family="Times,serif" font-size="14.00">visan</text>
</a>
</g>
</g>
<!-- vtk&#45;&gt;visan -->
<g id="edge20" class="edge">
<title>vtk&#45;&gt;visan</title>
<path fill="none" stroke="black" d="M1333.42,-332.05C1335.55,-324.6 1338.11,-315.64 1340.51,-307.22"/>
<polygon fill="black" stroke="black" points="1343.84,-308.31 1343.22,-297.73 1337.11,-306.38 1343.84,-308.31"/>
</g>
<!-- fimex -->
<g id="node25" class="node">
<title>fimex</title>
<g id="a_node25"><a xlink:href="https://github.com/conda-forge/fimex-feedstock" xlink:title="fimex">
<ellipse fill="#000000" stroke="black" cx="989.57" cy="-242" rx="38.58" ry="18"/>
<text text-anchor="middle" x="989.57" y="-237.32" font-family="Times,serif" font-size="14.00" fill="white">fimex</text>
</a>
</g>
</g>
<!-- magics&#45;metview&#45;batch&#45;&gt;fimex -->
<!-- r&#45;proj -->
<g id="node26" class="node">
<title>r&#45;proj</title>
<g id="a_node26"><a xlink:href="https://github.com/conda-forge/r-proj-feedstock" xlink:title="r proj">
<ellipse fill="#000000" stroke="black" cx="989.57" cy="-170" rx="39.11" ry="18"/>
<text text-anchor="middle" x="989.57" y="-165.32" font-family="Times,serif" font-size="14.00" fill="white">r proj</text>
</a>
</g>
</g>
<!-- fimex&#45;&gt;r&#45;proj -->
</g>
</svg>
