<?xml version="1.0" encoding="UTF-8" standalone="no"?>
<!DOCTYPE svg PUBLIC "-//W3C//DTD SVG 1.1//EN"
 "http://www.w3.org/Graphics/SVG/1.1/DTD/svg11.dtd">
<!-- Generated by graphviz version 11.0.0 (20240519.1550)
 -->
<!-- Pages: 1 -->
<svg width="1401pt" height="592pt"
 viewBox="0.00 0.00 1400.68 592.00" xmlns="http://www.w3.org/2000/svg" xmlns:xlink="http://www.w3.org/1999/xlink">
<g id="graph0" class="graph" transform="scale(1 1) rotate(0) translate(4 588)">
<polygon fill="white" stroke="none" points="-4,4 -4,-588 1396.68,-588 1396.68,4 -4,4"/>
<!-- cdo -->
<g id="node1" class="node">
<title>cdo</title>
<g id="a_node1"><a xlink:href="https://github.com/conda-forge/cdo-feedstock" xlink:title="cdo">
<ellipse fill="#fde725" stroke="black" cx="432.15" cy="-18" rx="28.59" ry="18"/>
<text text-anchor="middle" x="432.15" y="-13.32" font-family="Times,serif" font-size="14.00">cdo</text>
</a>
</g>
</g>
<!-- gdal -->
<g id="node2" class="node">
<title>gdal</title>
<g id="a_node2"><a xlink:href="https://github.com/conda-forge/gdal-feedstock" xlink:title="gdal">
<ellipse fill="#fde725" stroke="black" cx="480.15" cy="-494" rx="32.79" ry="18"/>
<text text-anchor="middle" x="480.15" y="-489.32" font-family="Times,serif" font-size="14.00">gdal</text>
</a>
</g>
</g>
<!-- ncl -->
<g id="node3" class="node">
<title>ncl</title>
<g id="a_node3"><a xlink:href="https://github.com/conda-forge/ncl-feedstock" xlink:title="ncl">
<ellipse fill="#fde725" stroke="black" cx="837.15" cy="-422" rx="27" ry="18"/>
<text text-anchor="middle" x="837.15" y="-417.32" font-family="Times,serif" font-size="14.00">ncl</text>
</a>
</g>
</g>
<!-- gdal&#45;&gt;ncl -->
<g id="edge1" class="edge">
<title>gdal&#45;&gt;ncl</title>
<path fill="none" stroke="black" d="M512.53,-490.02C570.36,-484.16 694.83,-469.09 796.15,-440 798.94,-439.2 801.79,-438.27 804.63,-437.26"/>
<polygon fill="black" stroke="black" points="805.88,-440.53 813.94,-433.66 803.35,-434 805.88,-440.53"/>
</g>
<!-- postgis -->
<g id="node4" class="node">
<title>postgis</title>
<g id="a_node4"><a xlink:href="https://github.com/conda-forge/postgis-feedstock" xlink:title="postgis">
<ellipse fill="#fde725" stroke="black" cx="782.15" cy="-350" rx="47.53" ry="18"/>
<text text-anchor="middle" x="782.15" y="-345.32" font-family="Times,serif" font-size="14.00">postgis</text>
</a>
</g>
</g>
<!-- gdal&#45;&gt;postgis -->
<g id="edge2" class="edge">
<title>gdal&#45;&gt;postgis</title>
<path fill="none" stroke="black" d="M512.96,-491.31C579.69,-487.2 727.95,-474.33 763.15,-440 778.98,-424.56 783.18,-399.4 783.74,-379.77"/>
<polygon fill="black" stroke="black" points="787.24,-379.89 783.69,-369.91 780.24,-379.92 787.24,-379.89"/>
</g>
<!-- qgis -->
<g id="node5" class="node">
<title>qgis</title>
<g id="a_node5"><a xlink:href="https://github.com/conda-forge/qgis-feedstock" xlink:title="qgis">
<ellipse fill="#fde725" stroke="black" cx="609.15" cy="-350" rx="32.27" ry="18"/>
<text text-anchor="middle" x="609.15" y="-345.32" font-family="Times,serif" font-size="14.00">qgis</text>
</a>
</g>
</g>
<!-- gdal&#45;&gt;qgis -->
<g id="edge3" class="edge">
<title>gdal&#45;&gt;qgis</title>
<path fill="none" stroke="black" d="M488.43,-476.32C498.33,-457.42 516.2,-426.36 537.15,-404 549.19,-391.15 564.71,-379.28 578.24,-370.04"/>
<polygon fill="black" stroke="black" points="580,-373.08 586.41,-364.64 576.14,-367.24 580,-373.08"/>
</g>
<!-- r&#45;rgdal -->
<g id="node6" class="node">
<title>r&#45;rgdal</title>
<g id="a_node6"><a xlink:href="https://github.com/conda-forge/r-rgdal-feedstock" xlink:title="r rgdal">
<ellipse fill="#fde725" stroke="black" cx="515.15" cy="-278" rx="45.42" ry="18"/>
<text text-anchor="middle" x="515.15" y="-273.32" font-family="Times,serif" font-size="14.00">r rgdal</text>
</a>
</g>
</g>
<!-- gdal&#45;&gt;r&#45;rgdal -->
<g id="edge4" class="edge">
<title>gdal&#45;&gt;r&#45;rgdal</title>
<path fill="none" stroke="black" d="M482.96,-475.85C488.96,-439.14 503.11,-352.66 510.49,-307.53"/>
<polygon fill="black" stroke="black" points="513.93,-308.16 512.09,-297.73 507.02,-307.03 513.93,-308.16"/>
</g>
<!-- r&#45;sf -->
<g id="node7" class="node">
<title>r&#45;sf</title>
<g id="a_node7"><a xlink:href="https://github.com/conda-forge/r-sf-feedstock" xlink:title="r sf">
<ellipse fill="#fde725" stroke="black" cx="496.15" cy="-206" rx="28.06" ry="18"/>
<text text-anchor="middle" x="496.15" y="-201.33" font-family="Times,serif" font-size="14.00">r sf</text>
</a>
</g>
</g>
<!-- gdal&#45;&gt;r&#45;sf -->
<g id="edge5" class="edge">
<title>gdal&#45;&gt;r&#45;sf</title>
<path fill="none" stroke="black" d="M474.56,-475.88C462.66,-436.72 437.74,-337.93 461.15,-260 464.24,-249.72 470.04,-239.59 476.05,-230.99"/>
<polygon fill="black" stroke="black" points="478.68,-233.31 481.87,-223.21 473.08,-229.12 478.68,-233.31"/>
</g>
<!-- rasterio -->
<g id="node8" class="node">
<title>rasterio</title>
<g id="a_node8"><a xlink:href="https://github.com/conda-forge/rasterio-feedstock" xlink:title="rasterio">
<ellipse fill="#fde725" stroke="black" cx="404.15" cy="-134" rx="50.68" ry="18"/>
<text text-anchor="middle" x="404.15" y="-129.32" font-family="Times,serif" font-size="14.00">rasterio</text>
</a>
</g>
</g>
<!-- gdal&#45;&gt;rasterio -->
<g id="edge6" class="edge">
<title>gdal&#45;&gt;rasterio</title>
<path fill="none" stroke="black" d="M465.5,-477.83C443.41,-453.3 404.15,-402.45 404.15,-351 404.15,-351 404.15,-351 404.15,-277 404.15,-237.74 404.15,-192.38 404.15,-163.69"/>
<polygon fill="black" stroke="black" points="407.65,-164 404.15,-154 400.65,-164 407.65,-164"/>
</g>
<!-- pdal -->
<g id="node9" class="node">
<title>pdal</title>
<g id="a_node9"><a xlink:href="https://github.com/conda-forge/pdal-feedstock" xlink:title="pdal">
<ellipse fill="#fde725" stroke="black" cx="579.15" cy="-422" rx="32.79" ry="18"/>
<text text-anchor="middle" x="579.15" y="-417.32" font-family="Times,serif" font-size="14.00">pdal</text>
</a>
</g>
</g>
<!-- gdal&#45;&gt;pdal -->
<g id="edge7" class="edge">
<title>gdal&#45;&gt;pdal</title>
<path fill="none" stroke="black" d="M499.71,-479.17C514.22,-468.91 534.23,-454.77 550.53,-443.24"/>
<polygon fill="black" stroke="black" points="552.25,-446.31 558.4,-437.67 548.21,-440.59 552.25,-446.31"/>
</g>
<!-- r&#45;gdalcubes -->
<g id="node10" class="node">
<title>r&#45;gdalcubes</title>
<g id="a_node10"><a xlink:href="https://github.com/conda-forge/r-gdalcubes-feedstock" xlink:title="r gdalcubes">
<ellipse fill="#fde725" stroke="black" cx="306.15" cy="-422" rx="69.62" ry="18"/>
<text text-anchor="middle" x="306.15" y="-417.32" font-family="Times,serif" font-size="14.00">r gdalcubes</text>
</a>
</g>
</g>
<!-- gdal&#45;&gt;r&#45;gdalcubes -->
<g id="edge8" class="edge">
<title>gdal&#45;&gt;r&#45;gdalcubes</title>
<path fill="none" stroke="black" d="M454.1,-482.52C427.53,-471.83 385.7,-455 353.3,-441.97"/>
<polygon fill="black" stroke="black" points="354.69,-438.75 344.11,-438.27 352.08,-445.25 354.69,-438.75"/>
</g>
<!-- r&#45;terra -->
<g id="node11" class="node">
<title>r&#45;terra</title>
<g id="a_node11"><a xlink:href="https://github.com/conda-forge/r-terra-feedstock" xlink:title="r terra">
<ellipse fill="#fde725" stroke="black" cx="225.15" cy="-350" rx="44.37" ry="18"/>
<text text-anchor="middle" x="225.15" y="-345.32" font-family="Times,serif" font-size="14.00">r terra</text>
</a>
</g>
</g>
<!-- gdal&#45;&gt;r&#45;terra -->
<g id="edge9" class="edge">
<title>gdal&#45;&gt;r&#45;terra</title>
<path fill="none" stroke="black" d="M447.72,-491.07C385.92,-486.65 254.97,-473.48 227.15,-440 213.41,-423.46 214.01,-398.61 217.43,-379.37"/>
<polygon fill="black" stroke="black" points="220.82,-380.23 219.5,-369.72 213.98,-378.76 220.82,-380.23"/>
</g>
<!-- mapserver -->
<g id="node12" class="node">
<title>mapserver</title>
<g id="a_node12"><a xlink:href="https://github.com/conda-forge/mapserver-feedstock" xlink:title="mapserver">
<ellipse fill="#fde725" stroke="black" cx="153.15" cy="-278" rx="64.89" ry="18"/>
<text text-anchor="middle" x="153.15" y="-273.32" font-family="Times,serif" font-size="14.00">mapserver</text>
</a>
</g>
</g>
<!-- gdal&#45;&gt;mapserver -->
<g id="edge10" class="edge">
<title>gdal&#45;&gt;mapserver</title>
<path fill="none" stroke="black" d="M447.98,-490.09C385.04,-483.86 248.53,-467.51 211.15,-440 169.16,-409.09 157.48,-344.89 154.29,-307.58"/>
<polygon fill="black" stroke="black" points="157.81,-307.73 153.63,-297.99 150.83,-308.21 157.81,-307.73"/>
</g>
<!-- pygplates -->
<g id="node13" class="node">
<title>pygplates</title>
<g id="a_node13"><a xlink:href="https://github.com/conda-forge/pygplates-feedstock" xlink:title="pygplates">
<ellipse fill="#fde725" stroke="black" cx="60.15" cy="-206" rx="60.15" ry="18"/>
<text text-anchor="middle" x="60.15" y="-201.33" font-family="Times,serif" font-size="14.00">pygplates</text>
</a>
</g>
</g>
<!-- gdal&#45;&gt;pygplates -->
<g id="edge11" class="edge">
<title>gdal&#45;&gt;pygplates</title>
<path fill="none" stroke="black" d="M447.64,-490.51C378.93,-484.74 221.63,-468.71 177.15,-440 112.11,-398.02 109.58,-367.18 79.15,-296 70.89,-276.67 66.08,-253.38 63.37,-235.48"/>
<polygon fill="black" stroke="black" points="66.87,-235.26 62.05,-225.83 59.94,-236.21 66.87,-235.26"/>
</g>
<!-- meos -->
<g id="node14" class="node">
<title>meos</title>
<g id="a_node14"><a xlink:href="https://github.com/conda-forge/meos-feedstock" xlink:title="meos">
<ellipse fill="#fde725" stroke="black" cx="782.15" cy="-278" rx="37.53" ry="18"/>
<text text-anchor="middle" x="782.15" y="-273.32" font-family="Times,serif" font-size="14.00">meos</text>
</a>
</g>
</g>
<!-- postgis&#45;&gt;meos -->
<g id="edge12" class="edge">
<title>postgis&#45;&gt;meos</title>
<path fill="none" stroke="black" d="M782.15,-331.7C782.15,-324.41 782.15,-315.73 782.15,-307.54"/>
<polygon fill="black" stroke="black" points="785.65,-307.62 782.15,-297.62 778.65,-307.62 785.65,-307.62"/>
</g>
<!-- r&#45;lwgeom -->
<g id="node15" class="node">
<title>r&#45;lwgeom</title>
<g id="a_node15"><a xlink:href="https://github.com/conda-forge/r-lwgeom-feedstock" xlink:title="r lwgeom">
<ellipse fill="#fde725" stroke="black" cx="531.15" cy="-134" rx="58.05" ry="18"/>
<text text-anchor="middle" x="531.15" y="-129.32" font-family="Times,serif" font-size="14.00">r lwgeom</text>
</a>
</g>
</g>
<!-- r&#45;sf&#45;&gt;r&#45;lwgeom -->
<g id="edge13" class="edge">
<title>r&#45;sf&#45;&gt;r&#45;lwgeom</title>
<path fill="none" stroke="black" d="M504.45,-188.41C508.36,-180.59 513.12,-171.06 517.54,-162.23"/>
<polygon fill="black" stroke="black" points="520.66,-163.82 522,-153.31 514.39,-160.69 520.66,-163.82"/>
</g>
<!-- pdal&#45;&gt;qgis -->
<g id="edge14" class="edge">
<title>pdal&#45;&gt;qgis</title>
<path fill="none" stroke="black" d="M586.41,-404.05C589.73,-396.32 593.74,-386.96 597.47,-378.27"/>
<polygon fill="black" stroke="black" points="600.64,-379.75 601.36,-369.18 594.2,-376.99 600.64,-379.75"/>
</g>
<!-- geotiff -->
<g id="node16" class="node">
<title>geotiff</title>
<g id="a_node16"><a xlink:href="https://github.com/conda-forge/geotiff-feedstock" xlink:title="geotiff">
<ellipse fill="#000000" stroke="black" cx="487.15" cy="-566" rx="43.32" ry="18"/>
<text text-anchor="middle" x="487.15" y="-561.33" font-family="Times,serif" font-size="14.00" fill="white">geotiff</text>
</a>
</g>
</g>
<!-- geotiff&#45;&gt;gdal -->
<g id="edge15" class="edge">
<title>geotiff&#45;&gt;gdal</title>
<path fill="none" stroke="black" d="M485.42,-547.7C484.69,-540.41 483.83,-531.73 483.01,-523.54"/>
<polygon fill="black" stroke="black" points="486.49,-523.21 482.01,-513.61 479.53,-523.91 486.49,-523.21"/>
</g>
<!-- geotiff&#45;&gt;pdal -->
<g id="edge16" class="edge">
<title>geotiff&#45;&gt;pdal</title>
<path fill="none" stroke="black" d="M498.25,-548.33C505.16,-537.91 514.22,-524.2 522.15,-512 535.87,-490.91 551.24,-466.89 562.56,-449.12"/>
<polygon fill="black" stroke="black" points="565.49,-451.04 567.9,-440.72 559.58,-447.28 565.49,-451.04"/>
</g>
<!-- libspatialite -->
<g id="node17" class="node">
<title>libspatialite</title>
<g id="a_node17"><a xlink:href="https://github.com/conda-forge/libspatialite-feedstock" xlink:title="libspatialite">
<ellipse fill="#000000" stroke="black" cx="633.15" cy="-566" rx="70.68" ry="18"/>
<text text-anchor="middle" x="633.15" y="-561.33" font-family="Times,serif" font-size="14.00" fill="white">libspatialite</text>
</a>
</g>
</g>
<!-- libspatialite&#45;&gt;gdal -->
<g id="edge17" class="edge">
<title>libspatialite&#45;&gt;gdal</title>
<path fill="none" stroke="black" d="M599.95,-549.81C574.88,-538.34 540.56,-522.64 515.08,-510.98"/>
<polygon fill="black" stroke="black" points="516.68,-507.86 506.13,-506.88 513.77,-514.23 516.68,-507.86"/>
</g>
<!-- libspatialite&#45;&gt;qgis -->
<g id="edge18" class="edge">
<title>libspatialite&#45;&gt;qgis</title>
<path fill="none" stroke="black" d="M632.7,-547.51C631.74,-517.85 628.91,-455.84 621.15,-404 619.93,-395.85 618.15,-387.09 616.33,-379.09"/>
<polygon fill="black" stroke="black" points="619.77,-378.45 614.04,-369.54 612.96,-380.08 619.77,-378.45"/>
</g>
<!-- magics -->
<g id="node18" class="node">
<title>magics</title>
<g id="a_node18"><a xlink:href="https://github.com/conda-forge/magics-feedstock" xlink:title="magics">
<ellipse fill="#000000" stroke="black" cx="432.15" cy="-90" rx="46.47" ry="18"/>
<text text-anchor="middle" x="432.15" y="-85.33" font-family="Times,serif" font-size="14.00" fill="white">magics</text>
</a>
</g>
</g>
<!-- magics&#45;&gt;cdo -->
<g id="edge19" class="edge">
<title>magics&#45;&gt;cdo</title>
<path fill="none" stroke="black" d="M432.15,-71.7C432.15,-64.41 432.15,-55.73 432.15,-47.54"/>
<polygon fill="black" stroke="black" points="435.65,-47.62 432.15,-37.62 428.65,-47.62 435.65,-47.62"/>
</g>
<!-- paraview -->
<g id="node19" class="node">
<title>paraview</title>
<g id="a_node19"><a xlink:href="https://github.com/conda-forge/paraview-feedstock" xlink:title="paraview">
<ellipse fill="#000000" stroke="black" cx="1213.15" cy="-386" rx="57" ry="18"/>
<text text-anchor="middle" x="1213.15" y="-381.32" font-family="Times,serif" font-size="14.00" fill="white">paraview</text>
</a>
</g>
</g>
<!-- topologytoolkit -->
<g id="node20" class="node">
<title>topologytoolkit</title>
<g id="a_node20"><a xlink:href="https://github.com/conda-forge/topologytoolkit-feedstock" xlink:title="topologytoolkit">
<ellipse fill="#fde725" stroke="black" cx="1213.15" cy="-314" rx="86.46" ry="18"/>
<text text-anchor="middle" x="1213.15" y="-309.32" font-family="Times,serif" font-size="14.00">topologytoolkit</text>
</a>
</g>
</g>
<!-- paraview&#45;&gt;topologytoolkit -->
<g id="edge20" class="edge">
<title>paraview&#45;&gt;topologytoolkit</title>
<path fill="none" stroke="black" d="M1213.15,-367.7C1213.15,-360.41 1213.15,-351.73 1213.15,-343.54"/>
<polygon fill="black" stroke="black" points="1216.65,-343.62 1213.15,-333.62 1209.65,-343.62 1216.65,-343.62"/>
</g>
<!-- pyproj -->
<g id="node21" class="node">
<title>pyproj</title>
<g id="a_node21"><a xlink:href="https://github.com/conda-forge/pyproj-feedstock" xlink:title="pyproj">
<ellipse fill="#000000" stroke="black" cx="711.15" cy="-422" rx="43.32" ry="18"/>
<text text-anchor="middle" x="711.15" y="-417.32" font-family="Times,serif" font-size="14.00" fill="white">pyproj</text>
</a>
</g>
</g>
<!-- pyproj&#45;&gt;qgis -->
<g id="edge21" class="edge">
<title>pyproj&#45;&gt;qgis</title>
<path fill="none" stroke="black" d="M689.27,-405.98C674.3,-395.71 654.29,-381.98 638.01,-370.81"/>
<polygon fill="black" stroke="black" points="640.4,-368.2 630.17,-365.43 636.44,-373.97 640.4,-368.2"/>
</g>
<!-- r&#45;proj4 -->
<g id="node22" class="node">
<title>r&#45;proj4</title>
<g id="a_node22"><a xlink:href="https://github.com/conda-forge/r-proj4-feedstock" xlink:title="r proj4">
<ellipse fill="#000000" stroke="black" cx="995.15" cy="-494" rx="45.42" ry="18"/>
<text text-anchor="middle" x="995.15" y="-489.32" font-family="Times,serif" font-size="14.00" fill="white">r proj4</text>
</a>
</g>
</g>
<!-- magics&#45;metview -->
<g id="node23" class="node">
<title>magics&#45;metview</title>
<g id="a_node23"><a xlink:href="https://github.com/conda-forge/magics-metview-feedstock" xlink:title="magics metview">
<ellipse fill="#000000" stroke="black" cx="995.15" cy="-422" rx="92.25" ry="18"/>
<text text-anchor="middle" x="995.15" y="-417.32" font-family="Times,serif" font-size="14.00" fill="white">magics metview</text>
</a>
</g>
</g>
<!-- r&#45;proj4&#45;&gt;magics&#45;metview -->
<!-- magics&#45;metview&#45;batch -->
<g id="node26" class="node">
<title>magics&#45;metview&#45;batch</title>
<g id="a_node26"><a xlink:href="https://github.com/conda-forge/magics-metview-batch-feedstock" xlink:title="magics metview batch">
<ellipse fill="#000000" stroke="black" cx="995.15" cy="-350" rx="123.29" ry="18"/>
<text text-anchor="middle" x="995.15" y="-345.32" font-family="Times,serif" font-size="14.00" fill="white">magics metview batch</text>
</a>
</g>
</g>
<!-- magics&#45;metview&#45;&gt;magics&#45;metview&#45;batch -->
<!-- vtk -->
<g id="node24" class="node">
<title>vtk</title>
<g id="a_node24"><a xlink:href="https://github.com/conda-forge/vtk-feedstock" xlink:title="vtk">
<ellipse fill="#35b779" stroke="black" cx="1335.15" cy="-386" rx="27.01" ry="18"/>
<text text-anchor="middle" x="1335.15" y="-381.32" font-family="Times,serif" font-size="14.00">vtk</text>
</a>
</g>
</g>
<!-- vtk&#45;&gt;topologytoolkit -->
<g id="edge23" class="edge">
<title>vtk&#45;&gt;topologytoolkit</title>
<path fill="none" stroke="black" d="M1315.01,-373.44C1297.79,-363.56 1272.54,-349.08 1251.49,-337"/>
<polygon fill="black" stroke="black" points="1253.27,-333.98 1242.86,-332.04 1249.79,-340.06 1253.27,-333.98"/>
</g>
<!-- visan -->
<g id="node25" class="node">
<title>visan</title>
<g id="a_node25"><a xlink:href="https://github.com/conda-forge/visan-feedstock" xlink:title="visan">
<ellipse fill="#fde725" stroke="black" cx="1355.15" cy="-314" rx="37.53" ry="18"/>
<text text-anchor="middle" x="1355.15" y="-309.32" font-family="Times,serif" font-size="14.00">visan</text>
</a>
</g>
</g>
<!-- vtk&#45;&gt;visan -->
<g id="edge24" class="edge">
<title>vtk&#45;&gt;visan</title>
<path fill="none" stroke="black" d="M1339.99,-368.05C1342.12,-360.6 1344.68,-351.64 1347.09,-343.22"/>
<polygon fill="black" stroke="black" points="1350.42,-344.31 1349.8,-333.73 1343.69,-342.38 1350.42,-344.31"/>
</g>
<!-- fimex -->
<g id="node27" class="node">
<title>fimex</title>
<g id="a_node27"><a xlink:href="https://github.com/conda-forge/fimex-feedstock" xlink:title="fimex">
<ellipse fill="#000000" stroke="black" cx="995.15" cy="-278" rx="38.58" ry="18"/>
<text text-anchor="middle" x="995.15" y="-273.32" font-family="Times,serif" font-size="14.00" fill="white">fimex</text>
</a>
</g>
</g>
<!-- magics&#45;metview&#45;batch&#45;&gt;fimex -->
<!-- r&#45;proj -->
<g id="node28" class="node">
<title>r&#45;proj</title>
<g id="a_node28"><a xlink:href="https://github.com/conda-forge/r-proj-feedstock" xlink:title="r proj">
<ellipse fill="#000000" stroke="black" cx="995.15" cy="-206" rx="39.11" ry="18"/>
<text text-anchor="middle" x="995.15" y="-201.32" font-family="Times,serif" font-size="14.00" fill="white">r proj</text>
</a>
</g>
</g>
<!-- fimex&#45;&gt;r&#45;proj -->
</g>
</svg>
