<?xml version="1.0" encoding="UTF-8" standalone="no"?>
<!DOCTYPE svg PUBLIC "-//W3C//DTD SVG 1.1//EN"
 "http://www.w3.org/Graphics/SVG/1.1/DTD/svg11.dtd">
<!-- Generated by graphviz version 11.0.0 (20240519.1550)
 -->
<!-- Pages: 1 -->
<svg width="1451pt" height="592pt"
 viewBox="0.00 0.00 1450.95 592.00" xmlns="http://www.w3.org/2000/svg" xmlns:xlink="http://www.w3.org/1999/xlink">
<g id="graph0" class="graph" transform="scale(1 1) rotate(0) translate(4 588)">
<polygon fill="white" stroke="none" points="-4,4 -4,-588 1446.95,-588 1446.95,4 -4,4"/>
<!-- cdo -->
<g id="node1" class="node">
<title>cdo</title>
<g id="a_node1"><a xlink:href="https://github.com/conda-forge/cdo-feedstock" xlink:title="cdo">
<ellipse fill="#fde725" stroke="black" cx="457.42" cy="-18" rx="28.59" ry="18"/>
<text text-anchor="middle" x="457.42" y="-13.32" font-family="Times,serif" font-size="14.00">cdo</text>
</a>
</g>
</g>
<!-- gdal -->
<g id="node2" class="node">
<title>gdal</title>
<g id="a_node2"><a xlink:href="https://github.com/conda-forge/gdal-feedstock" xlink:title="gdal">
<ellipse fill="#fde725" stroke="black" cx="426.42" cy="-494" rx="32.79" ry="18"/>
<text text-anchor="middle" x="426.42" y="-489.32" font-family="Times,serif" font-size="14.00">gdal</text>
</a>
</g>
</g>
<!-- ncl -->
<g id="node3" class="node">
<title>ncl</title>
<g id="a_node3"><a xlink:href="https://github.com/conda-forge/ncl-feedstock" xlink:title="ncl">
<ellipse fill="#fde725" stroke="black" cx="176.42" cy="-422" rx="27" ry="18"/>
<text text-anchor="middle" x="176.42" y="-417.32" font-family="Times,serif" font-size="14.00">ncl</text>
</a>
</g>
</g>
<!-- gdal&#45;&gt;ncl -->
<g id="edge1" class="edge">
<title>gdal&#45;&gt;ncl</title>
<path fill="none" stroke="black" d="M395.91,-486.72C354.86,-477.93 279.77,-460.71 217.42,-440 214.67,-439.09 211.84,-438.07 209.02,-437.01"/>
<polygon fill="black" stroke="black" points="210.32,-433.76 199.74,-433.33 207.74,-440.27 210.32,-433.76"/>
</g>
<!-- postgis -->
<g id="node4" class="node">
<title>postgis</title>
<g id="a_node4"><a xlink:href="https://github.com/conda-forge/postgis-feedstock" xlink:title="postgis">
<ellipse fill="#fde725" stroke="black" cx="419.42" cy="-350" rx="47.53" ry="18"/>
<text text-anchor="middle" x="419.42" y="-345.32" font-family="Times,serif" font-size="14.00">postgis</text>
</a>
</g>
</g>
<!-- gdal&#45;&gt;postgis -->
<g id="edge2" class="edge">
<title>gdal&#45;&gt;postgis</title>
<path fill="none" stroke="black" d="M431.84,-475.88C436.79,-457.91 442.75,-428.88 438.42,-404 436.94,-395.49 434.22,-386.54 431.29,-378.47"/>
<polygon fill="black" stroke="black" points="434.56,-377.23 427.67,-369.19 428.04,-379.78 434.56,-377.23"/>
</g>
<!-- qgis -->
<g id="node5" class="node">
<title>qgis</title>
<g id="a_node5"><a xlink:href="https://github.com/conda-forge/qgis-feedstock" xlink:title="qgis">
<ellipse fill="#fde725" stroke="black" cx="266.42" cy="-350" rx="32.27" ry="18"/>
<text text-anchor="middle" x="266.42" y="-345.32" font-family="Times,serif" font-size="14.00">qgis</text>
</a>
</g>
</g>
<!-- gdal&#45;&gt;qgis -->
<g id="edge3" class="edge">
<title>gdal&#45;&gt;qgis</title>
<path fill="none" stroke="black" d="M393.3,-493.87C352.15,-492.94 283.35,-484.31 250.42,-440 237.13,-422.12 243.49,-396.71 251.81,-377.61"/>
<polygon fill="black" stroke="black" points="254.84,-379.37 256,-368.84 248.53,-376.35 254.84,-379.37"/>
</g>
<!-- r&#45;rgdal -->
<g id="node6" class="node">
<title>r&#45;rgdal</title>
<g id="a_node6"><a xlink:href="https://github.com/conda-forge/r-rgdal-feedstock" xlink:title="r rgdal">
<ellipse fill="#fde725" stroke="black" cx="45.42" cy="-278" rx="45.42" ry="18"/>
<text text-anchor="middle" x="45.42" y="-273.32" font-family="Times,serif" font-size="14.00">r rgdal</text>
</a>
</g>
</g>
<!-- gdal&#45;&gt;r&#45;rgdal -->
<g id="edge4" class="edge">
<title>gdal&#45;&gt;r&#45;rgdal</title>
<path fill="none" stroke="black" d="M393.55,-491.59C321.16,-487.87 150.94,-475.47 107.42,-440 66.96,-407.01 52.85,-344.31 47.97,-307.65"/>
<polygon fill="black" stroke="black" points="51.46,-307.33 46.82,-297.8 44.5,-308.14 51.46,-307.33"/>
</g>
<!-- r&#45;sf -->
<g id="node7" class="node">
<title>r&#45;sf</title>
<g id="a_node7"><a xlink:href="https://github.com/conda-forge/r-sf-feedstock" xlink:title="r sf">
<ellipse fill="#fde725" stroke="black" cx="820.42" cy="-206" rx="28.06" ry="18"/>
<text text-anchor="middle" x="820.42" y="-201.33" font-family="Times,serif" font-size="14.00">r sf</text>
</a>
</g>
</g>
<!-- gdal&#45;&gt;r&#45;sf -->
<g id="edge5" class="edge">
<title>gdal&#45;&gt;r&#45;sf</title>
<path fill="none" stroke="black" d="M459.21,-491.71C531.41,-488.24 701.06,-476.31 743.42,-440 804.55,-387.6 817.39,-285.59 819.92,-235.77"/>
<polygon fill="black" stroke="black" points="823.42,-235.93 820.31,-225.8 816.42,-235.66 823.42,-235.93"/>
</g>
<!-- rasterio -->
<g id="node8" class="node">
<title>rasterio</title>
<g id="a_node8"><a xlink:href="https://github.com/conda-forge/rasterio-feedstock" xlink:title="rasterio">
<ellipse fill="#fde725" stroke="black" cx="729.42" cy="-134" rx="50.68" ry="18"/>
<text text-anchor="middle" x="729.42" y="-129.32" font-family="Times,serif" font-size="14.00">rasterio</text>
</a>
</g>
</g>
<!-- gdal&#45;&gt;rasterio -->
<g id="edge6" class="edge">
<title>gdal&#45;&gt;rasterio</title>
<path fill="none" stroke="black" d="M459.42,-492.45C537.96,-489.22 729.42,-469.22 729.42,-351 729.42,-351 729.42,-351 729.42,-277 729.42,-237.74 729.42,-192.38 729.42,-163.69"/>
<polygon fill="black" stroke="black" points="732.92,-164 729.42,-154 725.92,-164 732.92,-164"/>
</g>
<!-- pdal -->
<g id="node9" class="node">
<title>pdal</title>
<g id="a_node9"><a xlink:href="https://github.com/conda-forge/pdal-feedstock" xlink:title="pdal">
<ellipse fill="#fde725" stroke="black" cx="396.42" cy="-422" rx="32.79" ry="18"/>
<text text-anchor="middle" x="396.42" y="-417.32" font-family="Times,serif" font-size="14.00">pdal</text>
</a>
</g>
</g>
<!-- gdal&#45;&gt;pdal -->
<g id="edge7" class="edge">
<title>gdal&#45;&gt;pdal</title>
<path fill="none" stroke="black" d="M419.16,-476.05C415.84,-468.32 411.83,-458.96 408.11,-450.27"/>
<polygon fill="black" stroke="black" points="411.37,-448.99 404.21,-441.18 404.93,-451.75 411.37,-448.99"/>
</g>
<!-- r&#45;gdalcubes -->
<g id="node10" class="node">
<title>r&#45;gdalcubes</title>
<g id="a_node10"><a xlink:href="https://github.com/conda-forge/r-gdalcubes-feedstock" xlink:title="r gdalcubes">
<ellipse fill="#fde725" stroke="black" cx="631.42" cy="-350" rx="69.62" ry="18"/>
<text text-anchor="middle" x="631.42" y="-345.32" font-family="Times,serif" font-size="14.00">r gdalcubes</text>
</a>
</g>
</g>
<!-- gdal&#45;&gt;r&#45;gdalcubes -->
<g id="edge8" class="edge">
<title>gdal&#45;&gt;r&#45;gdalcubes</title>
<path fill="none" stroke="black" d="M454.49,-484.32C480.13,-475.58 518.36,-460.47 547.42,-440 572.5,-422.34 596.01,-396.29 611.74,-376.93"/>
<polygon fill="black" stroke="black" points="614.39,-379.23 617.87,-369.22 608.91,-374.87 614.39,-379.23"/>
</g>
<!-- r&#45;terra -->
<g id="node11" class="node">
<title>r&#45;terra</title>
<g id="a_node11"><a xlink:href="https://github.com/conda-forge/r-terra-feedstock" xlink:title="r terra">
<ellipse fill="#fde725" stroke="black" cx="567.42" cy="-278" rx="44.37" ry="18"/>
<text text-anchor="middle" x="567.42" y="-273.32" font-family="Times,serif" font-size="14.00">r terra</text>
</a>
</g>
</g>
<!-- gdal&#45;&gt;r&#45;terra -->
<g id="edge9" class="edge">
<title>gdal&#45;&gt;r&#45;terra</title>
<path fill="none" stroke="black" d="M451.74,-482.3C470.05,-473.4 494.16,-459.1 509.42,-440 526.17,-419.03 548.17,-347.47 559.66,-307.17"/>
<polygon fill="black" stroke="black" points="562.99,-308.26 562.33,-297.69 556.25,-306.37 562.99,-308.26"/>
</g>
<!-- mapserver -->
<g id="node12" class="node">
<title>mapserver</title>
<g id="a_node12"><a xlink:href="https://github.com/conda-forge/mapserver-feedstock" xlink:title="mapserver">
<ellipse fill="#fde725" stroke="black" cx="495.42" cy="-206" rx="64.89" ry="18"/>
<text text-anchor="middle" x="495.42" y="-201.33" font-family="Times,serif" font-size="14.00">mapserver</text>
</a>
</g>
</g>
<!-- gdal&#45;&gt;mapserver -->
<g id="edge10" class="edge">
<title>gdal&#45;&gt;mapserver</title>
<path fill="none" stroke="black" d="M435.2,-476.55C440.54,-466.22 447.29,-452.52 452.42,-440 465.21,-408.79 469.07,-400.92 476.42,-368 486.64,-322.21 491.61,-267.78 493.83,-235.39"/>
<polygon fill="black" stroke="black" points="497.31,-235.83 494.45,-225.62 490.32,-235.38 497.31,-235.83"/>
</g>
<!-- pygplates -->
<g id="node13" class="node">
<title>pygplates</title>
<g id="a_node13"><a xlink:href="https://github.com/conda-forge/pygplates-feedstock" xlink:title="pygplates">
<ellipse fill="#fde725" stroke="black" cx="121.42" cy="-134" rx="60.15" ry="18"/>
<text text-anchor="middle" x="121.42" y="-129.32" font-family="Times,serif" font-size="14.00">pygplates</text>
</a>
</g>
</g>
<!-- gdal&#45;&gt;pygplates -->
<g id="edge11" class="edge">
<title>gdal&#45;&gt;pygplates</title>
<path fill="none" stroke="black" d="M393.53,-491.38C326.21,-487.38 176.07,-474.69 140.42,-440 111.44,-411.79 121.42,-391.45 121.42,-351 121.42,-351 121.42,-351 121.42,-277 121.42,-237.74 121.42,-192.38 121.42,-163.69"/>
<polygon fill="black" stroke="black" points="124.92,-164 121.42,-154 117.92,-164 124.92,-164"/>
</g>
<!-- meos -->
<g id="node14" class="node">
<title>meos</title>
<g id="a_node14"><a xlink:href="https://github.com/conda-forge/meos-feedstock" xlink:title="meos">
<ellipse fill="#fde725" stroke="black" cx="419.42" cy="-278" rx="37.53" ry="18"/>
<text text-anchor="middle" x="419.42" y="-273.32" font-family="Times,serif" font-size="14.00">meos</text>
</a>
</g>
</g>
<!-- postgis&#45;&gt;meos -->
<g id="edge12" class="edge">
<title>postgis&#45;&gt;meos</title>
<path fill="none" stroke="black" d="M419.42,-331.7C419.42,-324.41 419.42,-315.73 419.42,-307.54"/>
<polygon fill="black" stroke="black" points="422.92,-307.62 419.42,-297.62 415.92,-307.62 422.92,-307.62"/>
</g>
<!-- r&#45;lwgeom -->
<g id="node15" class="node">
<title>r&#45;lwgeom</title>
<g id="a_node15"><a xlink:href="https://github.com/conda-forge/r-lwgeom-feedstock" xlink:title="r lwgeom">
<ellipse fill="#fde725" stroke="black" cx="856.42" cy="-134" rx="58.05" ry="18"/>
<text text-anchor="middle" x="856.42" y="-129.32" font-family="Times,serif" font-size="14.00">r lwgeom</text>
</a>
</g>
</g>
<!-- r&#45;sf&#45;&gt;r&#45;lwgeom -->
<g id="edge13" class="edge">
<title>r&#45;sf&#45;&gt;r&#45;lwgeom</title>
<path fill="none" stroke="black" d="M828.95,-188.41C833.02,-180.51 837.98,-170.85 842.57,-161.94"/>
<polygon fill="black" stroke="black" points="845.55,-163.8 847.01,-153.3 839.32,-160.59 845.55,-163.8"/>
</g>
<!-- pdal&#45;&gt;qgis -->
<g id="edge14" class="edge">
<title>pdal&#45;&gt;qgis</title>
<path fill="none" stroke="black" d="M373.48,-408.65C352.87,-397.55 322.38,-381.13 299.21,-368.65"/>
<polygon fill="black" stroke="black" points="300.93,-365.61 290.47,-363.95 297.61,-371.77 300.93,-365.61"/>
</g>
<!-- libspatialite -->
<g id="node16" class="node">
<title>libspatialite</title>
<g id="a_node16"><a xlink:href="https://github.com/conda-forge/libspatialite-feedstock/pull/107" xlink:title="libspatialite ❎">
<ellipse fill="#31688e" stroke="black" cx="239.42" cy="-566" rx="85.93" ry="18"/>
<text text-anchor="middle" x="239.42" y="-561.33" font-family="Times,serif" font-size="14.00" fill="white">libspatialite ❎</text>
</a>
</g>
</g>
<!-- libspatialite&#45;&gt;gdal -->
<g id="edge15" class="edge">
<title>libspatialite&#45;&gt;gdal</title>
<path fill="none" stroke="black" d="M280,-549.81C312.48,-537.65 357.66,-520.74 389.21,-508.93"/>
<polygon fill="black" stroke="black" points="390.21,-512.29 398.34,-505.51 387.75,-505.74 390.21,-512.29"/>
</g>
<!-- libspatialite&#45;&gt;qgis -->
<g id="edge16" class="edge">
<title>libspatialite&#45;&gt;qgis</title>
<path fill="none" stroke="black" d="M215.58,-548.3C176.42,-518.79 106.11,-455.66 140.42,-404 158.85,-376.25 194.95,-363 223.8,-356.69"/>
<polygon fill="black" stroke="black" points="224.23,-360.17 233.37,-354.81 222.88,-353.3 224.23,-360.17"/>
</g>
<!-- magics -->
<g id="node17" class="node">
<title>magics</title>
<g id="a_node17"><a xlink:href="https://github.com/conda-forge/magics-feedstock" xlink:title="magics">
<ellipse fill="#000000" stroke="black" cx="457.42" cy="-90" rx="46.47" ry="18"/>
<text text-anchor="middle" x="457.42" y="-85.33" font-family="Times,serif" font-size="14.00" fill="white">magics</text>
</a>
</g>
</g>
<!-- magics&#45;&gt;cdo -->
<g id="edge17" class="edge">
<title>magics&#45;&gt;cdo</title>
<path fill="none" stroke="black" d="M457.42,-71.7C457.42,-64.41 457.42,-55.73 457.42,-47.54"/>
<polygon fill="black" stroke="black" points="460.92,-47.62 457.42,-37.62 453.92,-47.62 460.92,-47.62"/>
</g>
<!-- paraview -->
<g id="node18" class="node">
<title>paraview</title>
<g id="a_node18"><a xlink:href="https://github.com/conda-forge/paraview-feedstock" xlink:title="paraview">
<ellipse fill="#000000" stroke="black" cx="1263.42" cy="-386" rx="57" ry="18"/>
<text text-anchor="middle" x="1263.42" y="-381.32" font-family="Times,serif" font-size="14.00" fill="white">paraview</text>
</a>
</g>
</g>
<!-- topologytoolkit -->
<g id="node19" class="node">
<title>topologytoolkit</title>
<g id="a_node19"><a xlink:href="https://github.com/conda-forge/topologytoolkit-feedstock" xlink:title="topologytoolkit">
<ellipse fill="#fde725" stroke="black" cx="1263.42" cy="-314" rx="86.46" ry="18"/>
<text text-anchor="middle" x="1263.42" y="-309.32" font-family="Times,serif" font-size="14.00">topologytoolkit</text>
</a>
</g>
</g>
<!-- paraview&#45;&gt;topologytoolkit -->
<g id="edge18" class="edge">
<title>paraview&#45;&gt;topologytoolkit</title>
<path fill="none" stroke="black" d="M1263.42,-367.7C1263.42,-360.41 1263.42,-351.73 1263.42,-343.54"/>
<polygon fill="black" stroke="black" points="1266.92,-343.62 1263.42,-333.62 1259.92,-343.62 1266.92,-343.62"/>
</g>
<!-- pyproj -->
<g id="node20" class="node">
<title>pyproj</title>
<g id="a_node20"><a xlink:href="https://github.com/conda-forge/pyproj-feedstock" xlink:title="pyproj">
<ellipse fill="#000000" stroke="black" cx="302.42" cy="-422" rx="43.32" ry="18"/>
<text text-anchor="middle" x="302.42" y="-417.32" font-family="Times,serif" font-size="14.00" fill="white">pyproj</text>
</a>
</g>
</g>
<!-- pyproj&#45;&gt;qgis -->
<g id="edge19" class="edge">
<title>pyproj&#45;&gt;qgis</title>
<path fill="none" stroke="black" d="M293.71,-404.05C289.68,-396.23 284.81,-386.75 280.29,-377.98"/>
<polygon fill="black" stroke="black" points="283.43,-376.43 275.75,-369.13 277.21,-379.63 283.43,-376.43"/>
</g>
<!-- r&#45;proj4 -->
<g id="node21" class="node">
<title>r&#45;proj4</title>
<g id="a_node21"><a xlink:href="https://github.com/conda-forge/r-proj4-feedstock" xlink:title="r proj4">
<ellipse fill="#000000" stroke="black" cx="1045.42" cy="-494" rx="45.42" ry="18"/>
<text text-anchor="middle" x="1045.42" y="-489.32" font-family="Times,serif" font-size="14.00" fill="white">r proj4</text>
</a>
</g>
</g>
<!-- magics&#45;metview -->
<g id="node22" class="node">
<title>magics&#45;metview</title>
<g id="a_node22"><a xlink:href="https://github.com/conda-forge/magics-metview-feedstock" xlink:title="magics metview">
<ellipse fill="#000000" stroke="black" cx="1045.42" cy="-422" rx="92.25" ry="18"/>
<text text-anchor="middle" x="1045.42" y="-417.32" font-family="Times,serif" font-size="14.00" fill="white">magics metview</text>
</a>
</g>
</g>
<!-- r&#45;proj4&#45;&gt;magics&#45;metview -->
<!-- magics&#45;metview&#45;batch -->
<g id="node25" class="node">
<title>magics&#45;metview&#45;batch</title>
<g id="a_node25"><a xlink:href="https://github.com/conda-forge/magics-metview-batch-feedstock" xlink:title="magics metview batch">
<ellipse fill="#000000" stroke="black" cx="1045.42" cy="-350" rx="123.29" ry="18"/>
<text text-anchor="middle" x="1045.42" y="-345.32" font-family="Times,serif" font-size="14.00" fill="white">magics metview batch</text>
</a>
</g>
</g>
<!-- magics&#45;metview&#45;&gt;magics&#45;metview&#45;batch -->
<!-- vtk -->
<g id="node23" class="node">
<title>vtk</title>
<g id="a_node23"><a xlink:href="https://github.com/conda-forge/vtk-feedstock" xlink:title="vtk">
<ellipse fill="#35b779" stroke="black" cx="1385.42" cy="-386" rx="27.01" ry="18"/>
<text text-anchor="middle" x="1385.42" y="-381.32" font-family="Times,serif" font-size="14.00">vtk</text>
</a>
</g>
</g>
<!-- vtk&#45;&gt;topologytoolkit -->
<g id="edge21" class="edge">
<title>vtk&#45;&gt;topologytoolkit</title>
<path fill="none" stroke="black" d="M1365.28,-373.44C1348.06,-363.56 1322.81,-349.08 1301.76,-337"/>
<polygon fill="black" stroke="black" points="1303.54,-333.98 1293.13,-332.04 1300.06,-340.06 1303.54,-333.98"/>
</g>
<!-- visan -->
<g id="node24" class="node">
<title>visan</title>
<g id="a_node24"><a xlink:href="https://github.com/conda-forge/visan-feedstock" xlink:title="visan">
<ellipse fill="#fde725" stroke="black" cx="1405.42" cy="-314" rx="37.53" ry="18"/>
<text text-anchor="middle" x="1405.42" y="-309.32" font-family="Times,serif" font-size="14.00">visan</text>
</a>
</g>
</g>
<!-- vtk&#45;&gt;visan -->
<g id="edge22" class="edge">
<title>vtk&#45;&gt;visan</title>
<path fill="none" stroke="black" d="M1390.26,-368.05C1392.39,-360.6 1394.95,-351.64 1397.36,-343.22"/>
<polygon fill="black" stroke="black" points="1400.69,-344.31 1400.07,-333.73 1393.96,-342.38 1400.69,-344.31"/>
</g>
<!-- fimex -->
<g id="node26" class="node">
<title>fimex</title>
<g id="a_node26"><a xlink:href="https://github.com/conda-forge/fimex-feedstock" xlink:title="fimex">
<ellipse fill="#000000" stroke="black" cx="1045.42" cy="-278" rx="38.58" ry="18"/>
<text text-anchor="middle" x="1045.42" y="-273.32" font-family="Times,serif" font-size="14.00" fill="white">fimex</text>
</a>
</g>
</g>
<!-- magics&#45;metview&#45;batch&#45;&gt;fimex -->
<!-- r&#45;proj -->
<g id="node27" class="node">
<title>r&#45;proj</title>
<g id="a_node27"><a xlink:href="https://github.com/conda-forge/r-proj-feedstock" xlink:title="r proj">
<ellipse fill="#000000" stroke="black" cx="1045.42" cy="-206" rx="39.11" ry="18"/>
<text text-anchor="middle" x="1045.42" y="-201.32" font-family="Times,serif" font-size="14.00" fill="white">r proj</text>
</a>
</g>
</g>
<!-- fimex&#45;&gt;r&#45;proj -->
</g>
</svg>
