<?xml version="1.0" encoding="UTF-8" standalone="no"?>
<!DOCTYPE svg PUBLIC "-//W3C//DTD SVG 1.1//EN"
 "http://www.w3.org/Graphics/SVG/1.1/DTD/svg11.dtd">
<!-- Generated by graphviz version 9.0.0 (20231125.0833)
 -->
<!-- Pages: 1 -->
<svg width="460pt" height="116pt"
 viewBox="0.00 0.00 460.37 116.00" xmlns="http://www.w3.org/2000/svg" xmlns:xlink="http://www.w3.org/1999/xlink">
<g id="graph0" class="graph" transform="scale(1 1) rotate(0) translate(4 112)">
<polygon fill="white" stroke="none" points="-4,4 -4,-112 456.37,-112 456.37,4 -4,4"/>
<!-- mlt -->
<g id="node1" class="node">
<title>mlt</title>
<g id="a_node1"><a xlink:href="https://github.com/conda-forge/mlt-feedstock/pull/27" xlink:title="mlt ❎">
<ellipse fill="#31688e" stroke="black" cx="409.05" cy="-54" rx="43.32" ry="18"/>
<text text-anchor="middle" x="409.05" y="-49.33" font-family="Times,serif" font-size="14.00" fill="white">mlt ❎</text>
</a>
</g>
</g>
<!-- phonon -->
<g id="node2" class="node">
<title>phonon</title>
<g id="a_node2"><a xlink:href="https://github.com/conda-forge/phonon-feedstock" xlink:title="phonon">
<ellipse fill="#fde725" stroke="black" cx="48.05" cy="-18" rx="48.05" ry="18"/>
<text text-anchor="middle" x="48.05" y="-13.32" font-family="Times,serif" font-size="14.00">phonon</text>
</a>
</g>
</g>
<!-- gqrx -->
<g id="node3" class="node">
<title>gqrx</title>
<g id="a_node3"><a xlink:href="https://github.com/conda-forge/gqrx-feedstock" xlink:title="gqrx">
<ellipse fill="#fde725" stroke="black" cx="148.05" cy="-18" rx="34.37" ry="18"/>
<text text-anchor="middle" x="148.05" y="-13.32" font-family="Times,serif" font-size="14.00">gqrx</text>
</a>
</g>
</g>
<!-- qt&#45;main -->
<g id="node4" class="node">
<title>qt&#45;main</title>
<g id="a_node4"><a xlink:href="https://github.com/conda-forge/qt-main-feedstock" xlink:title="qt main">
<ellipse fill="#35b779" stroke="black" cx="148.05" cy="-90" rx="49.63" ry="18"/>
<text text-anchor="middle" x="148.05" y="-85.33" font-family="Times,serif" font-size="14.00">qt main</text>
</a>
</g>
</g>
<!-- qt&#45;main&#45;&gt;phonon -->
<g id="edge2" class="edge">
<title>qt&#45;main&#45;&gt;phonon</title>
<path fill="none" stroke="black" d="M125.86,-73.46C112.04,-63.79 94.07,-51.21 78.88,-40.58"/>
<polygon fill="black" stroke="black" points="81.28,-37.99 71.08,-35.12 77.26,-43.72 81.28,-37.99"/>
</g>
<!-- qt&#45;main&#45;&gt;gqrx -->
<g id="edge1" class="edge">
<title>qt&#45;main&#45;&gt;gqrx</title>
<path fill="none" stroke="black" d="M148.05,-71.7C148.05,-64.41 148.05,-55.73 148.05,-47.54"/>
<polygon fill="black" stroke="black" points="151.55,-47.62 148.05,-37.62 144.55,-47.62 151.55,-47.62"/>
</g>
<!-- qt&#45;webengine -->
<g id="node5" class="node">
<title>qt&#45;webengine</title>
<g id="a_node5"><a xlink:href="https://github.com/conda-forge/qt-webengine-feedstock" xlink:title="qt webengine">
<ellipse fill="#fde725" stroke="black" cx="279.05" cy="-18" rx="79.09" ry="18"/>
<text text-anchor="middle" x="279.05" y="-13.32" font-family="Times,serif" font-size="14.00">qt webengine</text>
</a>
</g>
</g>
<!-- qt&#45;main&#45;&gt;qt&#45;webengine -->
<g id="edge3" class="edge">
<title>qt&#45;main&#45;&gt;qt&#45;webengine</title>
<path fill="none" stroke="black" d="M175.19,-74.5C193.66,-64.63 218.4,-51.41 239.1,-40.35"/>
<polygon fill="black" stroke="black" points="240.7,-43.46 247.87,-35.66 237.4,-37.29 240.7,-43.46"/>
</g>
</g>
</svg>
