<?xml version="1.0" encoding="UTF-8" standalone="no"?>
<!DOCTYPE svg PUBLIC "-//W3C//DTD SVG 1.1//EN"
 "http://www.w3.org/Graphics/SVG/1.1/DTD/svg11.dtd">
<!-- Generated by graphviz version 9.0.0 (20231125.0833)
 -->
<!-- Pages: 1 -->
<svg width="460pt" height="188pt"
 viewBox="0.00 0.00 460.37 188.00" xmlns="http://www.w3.org/2000/svg" xmlns:xlink="http://www.w3.org/1999/xlink">
<g id="graph0" class="graph" transform="scale(1 1) rotate(0) translate(4 184)">
<polygon fill="white" stroke="none" points="-4,4 -4,-184 456.37,-184 456.37,4 -4,4"/>
<!-- gstreamer -->
<g id="node1" class="node">
<title>gstreamer</title>
<g id="a_node1"><a xlink:href="https://github.com/conda-forge/gstreamer-feedstock/pull/124" xlink:title="gstreamer ❎">
<ellipse fill="#31688e" stroke="black" cx="213.05" cy="-162" rx="78.57" ry="18"/>
<text text-anchor="middle" x="213.05" y="-157.32" font-family="Times,serif" font-size="14.00" fill="white">gstreamer ❎</text>
</a>
</g>
</g>
<!-- qt&#45;main -->
<g id="node5" class="node">
<title>qt&#45;main</title>
<g id="a_node5"><a xlink:href="https://github.com/conda-forge/qt-main-feedstock" xlink:title="qt main">
<ellipse fill="#fde725" stroke="black" cx="174.05" cy="-90" rx="49.63" ry="18"/>
<text text-anchor="middle" x="174.05" y="-85.33" font-family="Times,serif" font-size="14.00">qt main</text>
</a>
</g>
</g>
<!-- gstreamer&#45;&gt;qt&#45;main -->
<g id="edge1" class="edge">
<title>gstreamer&#45;&gt;qt&#45;main</title>
<path fill="none" stroke="black" d="M203.41,-143.7C199.11,-135.98 193.95,-126.71 189.16,-118.11"/>
<polygon fill="black" stroke="black" points="192.24,-116.46 184.32,-109.43 186.13,-119.87 192.24,-116.46"/>
</g>
<!-- qt&#45;webengine -->
<g id="node6" class="node">
<title>qt&#45;webengine</title>
<g id="a_node6"><a xlink:href="https://github.com/conda-forge/qt-webengine-feedstock" xlink:title="qt webengine">
<ellipse fill="#fde725" stroke="black" cx="279.05" cy="-18" rx="79.09" ry="18"/>
<text text-anchor="middle" x="279.05" y="-13.32" font-family="Times,serif" font-size="14.00">qt webengine</text>
</a>
</g>
</g>
<!-- gstreamer&#45;&gt;qt&#45;webengine -->
<g id="edge2" class="edge">
<title>gstreamer&#45;&gt;qt&#45;webengine</title>
<path fill="none" stroke="black" d="M221.01,-143.87C232.26,-119.67 252.93,-75.21 266.32,-46.39"/>
<polygon fill="black" stroke="black" points="269.38,-48.11 270.42,-37.56 263.04,-45.15 269.38,-48.11"/>
</g>
<!-- mlt -->
<g id="node2" class="node">
<title>mlt</title>
<g id="a_node2"><a xlink:href="https://github.com/conda-forge/mlt-feedstock/pull/27" xlink:title="mlt ❎">
<ellipse fill="#31688e" stroke="black" cx="409.05" cy="-90" rx="43.32" ry="18"/>
<text text-anchor="middle" x="409.05" y="-85.33" font-family="Times,serif" font-size="14.00" fill="white">mlt ❎</text>
</a>
</g>
</g>
<!-- phonon -->
<g id="node3" class="node">
<title>phonon</title>
<g id="a_node3"><a xlink:href="https://github.com/conda-forge/phonon-feedstock" xlink:title="phonon">
<ellipse fill="#fde725" stroke="black" cx="48.05" cy="-18" rx="48.05" ry="18"/>
<text text-anchor="middle" x="48.05" y="-13.32" font-family="Times,serif" font-size="14.00">phonon</text>
</a>
</g>
</g>
<!-- gqrx -->
<g id="node4" class="node">
<title>gqrx</title>
<g id="a_node4"><a xlink:href="https://github.com/conda-forge/gqrx-feedstock" xlink:title="gqrx">
<ellipse fill="#fde725" stroke="black" cx="148.05" cy="-18" rx="34.37" ry="18"/>
<text text-anchor="middle" x="148.05" y="-13.32" font-family="Times,serif" font-size="14.00">gqrx</text>
</a>
</g>
</g>
<!-- qt&#45;main&#45;&gt;phonon -->
<g id="edge4" class="edge">
<title>qt&#45;main&#45;&gt;phonon</title>
<path fill="none" stroke="black" d="M147.64,-74.33C129.12,-64.04 104.14,-50.16 83.84,-38.88"/>
<polygon fill="black" stroke="black" points="85.76,-35.95 75.32,-34.15 82.36,-42.07 85.76,-35.95"/>
</g>
<!-- qt&#45;main&#45;&gt;gqrx -->
<g id="edge3" class="edge">
<title>qt&#45;main&#45;&gt;gqrx</title>
<path fill="none" stroke="black" d="M167.62,-71.7C164.82,-64.15 161.47,-55.12 158.33,-46.68"/>
<polygon fill="black" stroke="black" points="161.69,-45.68 154.93,-37.52 155.13,-48.12 161.69,-45.68"/>
</g>
<!-- qt&#45;main&#45;&gt;qt&#45;webengine -->
<g id="edge5" class="edge">
<title>qt&#45;main&#45;&gt;qt&#45;webengine</title>
<path fill="none" stroke="black" d="M197.09,-73.64C211.09,-64.31 229.22,-52.22 244.87,-41.79"/>
<polygon fill="black" stroke="black" points="246.59,-44.85 252.97,-36.39 242.71,-39.02 246.59,-44.85"/>
</g>
</g>
</svg>
