<?xml version="1.0" encoding="UTF-8" standalone="no"?>
<!DOCTYPE svg PUBLIC "-//W3C//DTD SVG 1.1//EN"
 "http://www.w3.org/Graphics/SVG/1.1/DTD/svg11.dtd">
<!-- Generated by graphviz version 9.0.0 (20231125.0833)
 -->
<!-- Pages: 1 -->
<svg width="1067pt" height="692pt"
 viewBox="0.00 0.00 1066.82 692.00" xmlns="http://www.w3.org/2000/svg" xmlns:xlink="http://www.w3.org/1999/xlink">
<g id="graph0" class="graph" transform="scale(1 1) rotate(0) translate(4 688)">
<polygon fill="white" stroke="none" points="-4,4 -4,-688 1062.82,-688 1062.82,4 -4,4"/>
<!-- torchvision -->
<g id="node1" class="node">
<title>torchvision</title>
<g id="a_node1"><a xlink:href="https://github.com/conda-forge/torchvision-feedstock" xlink:title="torchvision">
<ellipse fill="#ff8c00" stroke="black" cx="283.94" cy="-522" rx="66.99" ry="18"/>
<text text-anchor="middle" x="283.94" y="-517.33" font-family="Times,serif" font-size="14.00">torchvision</text>
</a>
</g>
</g>
<!-- detectron2 -->
<g id="node2" class="node">
<title>detectron2</title>
<g id="a_node2"><a xlink:href="https://github.com/conda-forge/detectron2-feedstock" xlink:title="detectron2">
<ellipse fill="#fde725" stroke="black" cx="65.94" cy="-450" rx="65.94" ry="18"/>
<text text-anchor="middle" x="65.94" y="-445.32" font-family="Times,serif" font-size="14.00">detectron2</text>
</a>
</g>
</g>
<!-- torchvision&#45;&gt;detectron2 -->
<g id="edge1" class="edge">
<title>torchvision&#45;&gt;detectron2</title>
<path fill="none" stroke="black" d="M242.16,-507.59C206.94,-496.28 156.36,-480.03 118.41,-467.85"/>
<polygon fill="black" stroke="black" points="119.6,-464.56 109.01,-464.83 117.46,-471.22 119.6,-464.56"/>
</g>
<!-- fcos -->
<g id="node3" class="node">
<title>fcos</title>
<g id="a_node3"><a xlink:href="https://github.com/conda-forge/fcos-feedstock" xlink:title="fcos">
<ellipse fill="#fde725" stroke="black" cx="148.94" cy="-378" rx="31.22" ry="18"/>
<text text-anchor="middle" x="148.94" y="-373.32" font-family="Times,serif" font-size="14.00">fcos</text>
</a>
</g>
</g>
<!-- torchvision&#45;&gt;fcos -->
<g id="edge2" class="edge">
<title>torchvision&#45;&gt;fcos</title>
<path fill="none" stroke="black" d="M249.1,-506.34C230.92,-497.35 209.32,-484.4 193.94,-468 177.48,-450.45 165.63,-425.73 158.24,-406.8"/>
<polygon fill="black" stroke="black" points="161.57,-405.73 154.83,-397.56 155.01,-408.16 161.57,-405.73"/>
</g>
<!-- norse -->
<g id="node4" class="node">
<title>norse</title>
<g id="a_node4"><a xlink:href="https://github.com/conda-forge/norse-feedstock" xlink:title="norse">
<ellipse fill="#fde725" stroke="black" cx="178.94" cy="-306" rx="39.11" ry="18"/>
<text text-anchor="middle" x="178.94" y="-301.32" font-family="Times,serif" font-size="14.00">norse</text>
</a>
</g>
</g>
<!-- torchvision&#45;&gt;norse -->
<g id="edge3" class="edge">
<title>torchvision&#45;&gt;norse</title>
<path fill="none" stroke="black" d="M263.61,-504.38C252.91,-494.72 240.32,-481.76 231.94,-468 206.04,-425.47 191.22,-368.82 184.15,-335.3"/>
<polygon fill="black" stroke="black" points="187.6,-334.66 182.19,-325.55 180.73,-336.04 187.6,-334.66"/>
</g>
<!-- fairscale -->
<g id="node5" class="node">
<title>fairscale</title>
<g id="a_node5"><a xlink:href="https://github.com/conda-forge/fairscale-feedstock" xlink:title="fairscale">
<ellipse fill="#fde725" stroke="black" cx="201.94" cy="-234" rx="53.84" ry="18"/>
<text text-anchor="middle" x="201.94" y="-229.32" font-family="Times,serif" font-size="14.00">fairscale</text>
</a>
</g>
</g>
<!-- torchvision&#45;&gt;fairscale -->
<g id="edge4" class="edge">
<title>torchvision&#45;&gt;fairscale</title>
<path fill="none" stroke="black" d="M279.3,-503.84C276.52,-493.48 272.96,-480 269.94,-468 249.88,-388.23 254.18,-365.61 226.94,-288 223.89,-279.32 219.88,-270.17 215.97,-261.95"/>
<polygon fill="black" stroke="black" points="219.2,-260.59 211.63,-253.17 212.92,-263.68 219.2,-260.59"/>
</g>
<!-- mmcv&#45;recipe -->
<g id="node6" class="node">
<title>mmcv&#45;recipe</title>
<g id="a_node6"><a xlink:href="https://github.com/conda-forge/mmcv-recipe-feedstock" xlink:title="mmcv recipe">
<ellipse fill="#fde725" stroke="black" cx="283.94" cy="-162" rx="75.41" ry="18"/>
<text text-anchor="middle" x="283.94" y="-157.32" font-family="Times,serif" font-size="14.00">mmcv recipe</text>
</a>
</g>
</g>
<!-- torchvision&#45;&gt;mmcv&#45;recipe -->
<g id="edge5" class="edge">
<title>torchvision&#45;&gt;mmcv&#45;recipe</title>
<path fill="none" stroke="black" d="M283.94,-503.51C283.94,-476.71 283.94,-423.87 283.94,-379 283.94,-379 283.94,-379 283.94,-305 283.94,-265.74 283.94,-220.38 283.94,-191.69"/>
<polygon fill="black" stroke="black" points="287.44,-192 283.94,-182 280.44,-192 287.44,-192"/>
</g>
<!-- pixsfm -->
<g id="node7" class="node">
<title>pixsfm</title>
<g id="a_node7"><a xlink:href="https://github.com/conda-forge/pixsfm-feedstock" xlink:title="pixsfm">
<ellipse fill="#fde725" stroke="black" cx="356.94" cy="-450" rx="44.9" ry="18"/>
<text text-anchor="middle" x="356.94" y="-445.32" font-family="Times,serif" font-size="14.00">pixsfm</text>
</a>
</g>
</g>
<!-- torchvision&#45;&gt;pixsfm -->
<g id="edge6" class="edge">
<title>torchvision&#45;&gt;pixsfm</title>
<path fill="none" stroke="black" d="M301.24,-504.41C310.46,-495.57 321.97,-484.53 332.13,-474.79"/>
<polygon fill="black" stroke="black" points="334.38,-477.48 339.17,-468.04 329.53,-472.43 334.38,-477.48"/>
</g>
<!-- pytorch3d -->
<g id="node8" class="node">
<title>pytorch3d</title>
<g id="a_node8"><a xlink:href="https://github.com/conda-forge/pytorch3d-feedstock" xlink:title="pytorch3d">
<ellipse fill="#fde725" stroke="black" cx="403.94" cy="-378" rx="62.26" ry="18"/>
<text text-anchor="middle" x="403.94" y="-373.32" font-family="Times,serif" font-size="14.00">pytorch3d</text>
</a>
</g>
</g>
<!-- torchvision&#45;&gt;pytorch3d -->
<g id="edge7" class="edge">
<title>torchvision&#45;&gt;pytorch3d</title>
<path fill="none" stroke="black" d="M340.58,-512.04C366.62,-504.78 395.18,-491.66 410.94,-468 422.75,-450.27 419.86,-425.92 414.65,-407.17"/>
<polygon fill="black" stroke="black" points="418.03,-406.25 411.67,-397.77 411.36,-408.36 418.03,-406.25"/>
</g>
<!-- aihwkit&#45;gpu -->
<g id="node9" class="node">
<title>aihwkit&#45;gpu</title>
<g id="a_node9"><a xlink:href="https://github.com/conda-forge/aihwkit-gpu-feedstock" xlink:title="aihwkit gpu">
<ellipse fill="#fde725" stroke="black" cx="493.94" cy="-306" rx="70.15" ry="18"/>
<text text-anchor="middle" x="493.94" y="-301.32" font-family="Times,serif" font-size="14.00">aihwkit gpu</text>
</a>
</g>
</g>
<!-- torchvision&#45;&gt;aihwkit&#45;gpu -->
<g id="edge8" class="edge">
<title>torchvision&#45;&gt;aihwkit&#45;gpu</title>
<path fill="none" stroke="black" d="M337.16,-510.69C366.89,-502.86 403.21,-489.62 429.94,-468 470.7,-435.03 485.62,-372.32 491,-335.65"/>
<polygon fill="black" stroke="black" points="494.46,-336.17 492.28,-325.8 487.52,-335.26 494.46,-336.17"/>
</g>
<!-- autoawq -->
<g id="node10" class="node">
<title>autoawq</title>
<g id="a_node10"><a xlink:href="https://github.com/conda-forge/autoawq-feedstock" xlink:title="autoawq">
<ellipse fill="#fde725" stroke="black" cx="591.94" cy="-234" rx="53.84" ry="18"/>
<text text-anchor="middle" x="591.94" y="-229.32" font-family="Times,serif" font-size="14.00">autoawq</text>
</a>
</g>
</g>
<!-- torchvision&#45;&gt;autoawq -->
<g id="edge9" class="edge">
<title>torchvision&#45;&gt;autoawq</title>
<path fill="none" stroke="black" d="M341.74,-512.59C377.82,-505.23 423.91,-491.85 458.94,-468 526.42,-422.07 538.17,-397.85 572.94,-324 581.89,-304.98 586.67,-281.68 589.2,-263.7"/>
<polygon fill="black" stroke="black" points="592.65,-264.33 590.4,-253.98 585.7,-263.48 592.65,-264.33"/>
</g>
<!-- pytorch_sparse -->
<g id="node11" class="node">
<title>pytorch_sparse</title>
<g id="a_node11"><a xlink:href="https://github.com/conda-forge/pytorch_sparse-feedstock" xlink:title="pytorch_sparse">
<ellipse fill="#000000" stroke="black" cx="764.94" cy="-666" rx="87.51" ry="18"/>
<text text-anchor="middle" x="764.94" y="-661.33" font-family="Times,serif" font-size="14.00" fill="white">pytorch_sparse</text>
</a>
</g>
</g>
<!-- openmm&#45;torch -->
<g id="node12" class="node">
<title>openmm&#45;torch</title>
<g id="a_node12"><a xlink:href="https://github.com/conda-forge/openmm-torch-feedstock/pull/52" xlink:title="openmm torch ❎">
<ellipse fill="#31688e" stroke="black" cx="764.94" cy="-594" rx="99.08" ry="18"/>
<text text-anchor="middle" x="764.94" y="-589.33" font-family="Times,serif" font-size="14.00" fill="white">openmm torch ❎</text>
</a>
</g>
</g>
<!-- pytorch_sparse&#45;&gt;openmm&#45;torch -->
<!-- torchsparse -->
<g id="node13" class="node">
<title>torchsparse</title>
<g id="a_node13"><a xlink:href="https://github.com/conda-forge/torchsparse-feedstock/pull/35" xlink:title="torchsparse ❎">
<ellipse fill="#31688e" stroke="black" cx="764.94" cy="-522" rx="85.93" ry="18"/>
<text text-anchor="middle" x="764.94" y="-517.33" font-family="Times,serif" font-size="14.00" fill="white">torchsparse ❎</text>
</a>
</g>
</g>
<!-- openmm&#45;torch&#45;&gt;torchsparse -->
<!-- kaolin -->
<g id="node14" class="node">
<title>kaolin</title>
<g id="a_node14"><a xlink:href="https://github.com/conda-forge/kaolin-feedstock" xlink:title="kaolin">
<ellipse fill="#ff8c00" stroke="black" cx="764.94" cy="-450" rx="41.21" ry="18"/>
<text text-anchor="middle" x="764.94" y="-445.32" font-family="Times,serif" font-size="14.00">kaolin</text>
</a>
</g>
</g>
<!-- torchsparse&#45;&gt;kaolin -->
<!-- xformers -->
<g id="node15" class="node">
<title>xformers</title>
<g id="a_node15"><a xlink:href="https://github.com/conda-forge/xformers-feedstock/pull/24" xlink:title="xformers ❎">
<ellipse fill="#31688e" stroke="black" cx="764.94" cy="-378" rx="71.73" ry="18"/>
<text text-anchor="middle" x="764.94" y="-373.32" font-family="Times,serif" font-size="14.00" fill="white">xformers ❎</text>
</a>
</g>
</g>
<!-- kaolin&#45;&gt;xformers -->
<!-- abacus -->
<g id="node19" class="node">
<title>abacus</title>
<g id="a_node19"><a xlink:href="https://github.com/conda-forge/abacus-feedstock" xlink:title="abacus">
<ellipse fill="#ff8c00" stroke="black" cx="764.94" cy="-306" rx="45.95" ry="18"/>
<text text-anchor="middle" x="764.94" y="-301.32" font-family="Times,serif" font-size="14.00">abacus</text>
</a>
</g>
</g>
<!-- xformers&#45;&gt;abacus -->
<!-- torchdata -->
<g id="node16" class="node">
<title>torchdata</title>
<g id="a_node16"><a xlink:href="https://github.com/conda-forge/torchdata-feedstock/pull/26" xlink:title="torchdata ❎">
<ellipse fill="#31688e" stroke="black" cx="983.94" cy="-414" rx="74.88" ry="18"/>
<text text-anchor="middle" x="983.94" y="-409.32" font-family="Times,serif" font-size="14.00" fill="white">torchdata ❎</text>
</a>
</g>
</g>
<!-- torchtext -->
<g id="node17" class="node">
<title>torchtext</title>
<g id="a_node17"><a xlink:href="https://github.com/conda-forge/torchtext-feedstock" xlink:title="torchtext">
<ellipse fill="#fde725" stroke="black" cx="940.94" cy="-342" rx="57.52" ry="18"/>
<text text-anchor="middle" x="940.94" y="-337.32" font-family="Times,serif" font-size="14.00">torchtext</text>
</a>
</g>
</g>
<!-- torchdata&#45;&gt;torchtext -->
<g id="edge14" class="edge">
<title>torchdata&#45;&gt;torchtext</title>
<path fill="none" stroke="black" d="M973.31,-395.7C968.52,-387.9 962.75,-378.51 957.42,-369.83"/>
<polygon fill="black" stroke="black" points="960.45,-368.08 952.24,-361.39 954.49,-371.75 960.45,-368.08"/>
</g>
<!-- dgl -->
<g id="node18" class="node">
<title>dgl</title>
<g id="a_node18"><a xlink:href="https://github.com/conda-forge/dgl-feedstock" xlink:title="dgl">
<ellipse fill="#fde725" stroke="black" cx="1026.94" cy="-270" rx="27.01" ry="18"/>
<text text-anchor="middle" x="1026.94" y="-265.32" font-family="Times,serif" font-size="14.00">dgl</text>
</a>
</g>
</g>
<!-- torchdata&#45;&gt;dgl -->
<g id="edge15" class="edge">
<title>torchdata&#45;&gt;dgl</title>
<path fill="none" stroke="black" d="M992.91,-395.71C997.9,-385.53 1003.9,-372.28 1007.94,-360 1014.44,-340.24 1019.28,-317.28 1022.44,-299.62"/>
<polygon fill="black" stroke="black" points="1025.88,-300.29 1024.11,-289.84 1018.98,-299.11 1025.88,-300.29"/>
</g>
<!-- torchmd&#45;net -->
<g id="node20" class="node">
<title>torchmd&#45;net</title>
<g id="a_node20"><a xlink:href="https://github.com/conda-forge/torchmd-net-feedstock" xlink:title="torchmd net">
<ellipse fill="#ff8c00" stroke="black" cx="764.94" cy="-234" rx="72.78" ry="18"/>
<text text-anchor="middle" x="764.94" y="-229.32" font-family="Times,serif" font-size="14.00">torchmd net</text>
</a>
</g>
</g>
<!-- abacus&#45;&gt;torchmd&#45;net -->
<!-- horovod -->
<g id="node21" class="node">
<title>horovod</title>
<g id="a_node21"><a xlink:href="https://github.com/conda-forge/horovod-feedstock" xlink:title="horovod">
<ellipse fill="#ff8c00" stroke="black" cx="764.94" cy="-162" rx="51.74" ry="18"/>
<text text-anchor="middle" x="764.94" y="-157.32" font-family="Times,serif" font-size="14.00">horovod</text>
</a>
</g>
</g>
<!-- torchmd&#45;net&#45;&gt;horovod -->
<!-- auto_gptq -->
<g id="node22" class="node">
<title>auto_gptq</title>
<g id="a_node22"><a xlink:href="https://github.com/conda-forge/auto_gptq-feedstock/pull/4" xlink:title="auto_gptq ❎">
<ellipse fill="#31688e" stroke="black" cx="764.94" cy="-90" rx="76.46" ry="18"/>
<text text-anchor="middle" x="764.94" y="-85.33" font-family="Times,serif" font-size="14.00" fill="white">auto_gptq ❎</text>
</a>
</g>
</g>
<!-- horovod&#45;&gt;auto_gptq -->
<!-- libmetatensor&#45;torch -->
<g id="node23" class="node">
<title>libmetatensor&#45;torch</title>
<g id="a_node23"><a xlink:href="https://github.com/conda-forge/libmetatensor-torch-feedstock" xlink:title="libmetatensor torch">
<ellipse fill="#35b779" stroke="black" cx="764.94" cy="-18" rx="110.66" ry="18"/>
<text text-anchor="middle" x="764.94" y="-13.32" font-family="Times,serif" font-size="14.00">libmetatensor torch</text>
</a>
</g>
</g>
<!-- auto_gptq&#45;&gt;libmetatensor&#45;torch -->
</g>
</svg>
