<?xml version="1.0" encoding="UTF-8" standalone="no"?>
<!DOCTYPE svg PUBLIC "-//W3C//DTD SVG 1.1//EN"
 "http://www.w3.org/Graphics/SVG/1.1/DTD/svg11.dtd">
<!-- Generated by graphviz version 9.0.0 (20231125.0833)
 -->
<!-- Pages: 1 -->
<svg width="1044pt" height="620pt"
 viewBox="0.00 0.00 1043.82 620.00" xmlns="http://www.w3.org/2000/svg" xmlns:xlink="http://www.w3.org/1999/xlink">
<g id="graph0" class="graph" transform="scale(1 1) rotate(0) translate(4 616)">
<polygon fill="white" stroke="none" points="-4,4 -4,-616 1039.82,-616 1039.82,4 -4,4"/>
<!-- torchvision -->
<g id="node1" class="node">
<title>torchvision</title>
<g id="a_node1"><a xlink:href="https://github.com/conda-forge/torchvision-feedstock" xlink:title="torchvision">
<ellipse fill="#ff8c00" stroke="black" cx="283.94" cy="-486" rx="66.99" ry="18"/>
<text text-anchor="middle" x="283.94" y="-481.32" font-family="Times,serif" font-size="14.00">torchvision</text>
</a>
</g>
</g>
<!-- detectron2 -->
<g id="node2" class="node">
<title>detectron2</title>
<g id="a_node2"><a xlink:href="https://github.com/conda-forge/detectron2-feedstock" xlink:title="detectron2">
<ellipse fill="#fde725" stroke="black" cx="65.94" cy="-414" rx="65.94" ry="18"/>
<text text-anchor="middle" x="65.94" y="-409.32" font-family="Times,serif" font-size="14.00">detectron2</text>
</a>
</g>
</g>
<!-- torchvision&#45;&gt;detectron2 -->
<g id="edge1" class="edge">
<title>torchvision&#45;&gt;detectron2</title>
<path fill="none" stroke="black" d="M242.16,-471.59C206.94,-460.28 156.36,-444.03 118.41,-431.85"/>
<polygon fill="black" stroke="black" points="119.6,-428.56 109.01,-428.83 117.46,-435.22 119.6,-428.56"/>
</g>
<!-- fcos -->
<g id="node3" class="node">
<title>fcos</title>
<g id="a_node3"><a xlink:href="https://github.com/conda-forge/fcos-feedstock" xlink:title="fcos">
<ellipse fill="#fde725" stroke="black" cx="148.94" cy="-342" rx="31.22" ry="18"/>
<text text-anchor="middle" x="148.94" y="-337.32" font-family="Times,serif" font-size="14.00">fcos</text>
</a>
</g>
</g>
<!-- torchvision&#45;&gt;fcos -->
<g id="edge2" class="edge">
<title>torchvision&#45;&gt;fcos</title>
<path fill="none" stroke="black" d="M249.1,-470.34C230.92,-461.35 209.32,-448.4 193.94,-432 177.48,-414.45 165.63,-389.73 158.24,-370.8"/>
<polygon fill="black" stroke="black" points="161.57,-369.73 154.83,-361.56 155.01,-372.16 161.57,-369.73"/>
</g>
<!-- norse -->
<g id="node4" class="node">
<title>norse</title>
<g id="a_node4"><a xlink:href="https://github.com/conda-forge/norse-feedstock" xlink:title="norse">
<ellipse fill="#fde725" stroke="black" cx="178.94" cy="-270" rx="39.11" ry="18"/>
<text text-anchor="middle" x="178.94" y="-265.32" font-family="Times,serif" font-size="14.00">norse</text>
</a>
</g>
</g>
<!-- torchvision&#45;&gt;norse -->
<g id="edge3" class="edge">
<title>torchvision&#45;&gt;norse</title>
<path fill="none" stroke="black" d="M263.61,-468.38C252.91,-458.72 240.32,-445.76 231.94,-432 206.04,-389.47 191.22,-332.82 184.15,-299.3"/>
<polygon fill="black" stroke="black" points="187.6,-298.66 182.19,-289.55 180.73,-300.04 187.6,-298.66"/>
</g>
<!-- fairscale -->
<g id="node5" class="node">
<title>fairscale</title>
<g id="a_node5"><a xlink:href="https://github.com/conda-forge/fairscale-feedstock" xlink:title="fairscale">
<ellipse fill="#fde725" stroke="black" cx="201.94" cy="-198" rx="53.84" ry="18"/>
<text text-anchor="middle" x="201.94" y="-193.32" font-family="Times,serif" font-size="14.00">fairscale</text>
</a>
</g>
</g>
<!-- torchvision&#45;&gt;fairscale -->
<g id="edge4" class="edge">
<title>torchvision&#45;&gt;fairscale</title>
<path fill="none" stroke="black" d="M279.3,-467.84C276.52,-457.48 272.96,-444 269.94,-432 249.88,-352.23 254.18,-329.61 226.94,-252 223.89,-243.32 219.88,-234.17 215.97,-225.95"/>
<polygon fill="black" stroke="black" points="219.2,-224.59 211.63,-217.17 212.92,-227.68 219.2,-224.59"/>
</g>
<!-- mmcv&#45;recipe -->
<g id="node6" class="node">
<title>mmcv&#45;recipe</title>
<g id="a_node6"><a xlink:href="https://github.com/conda-forge/mmcv-recipe-feedstock" xlink:title="mmcv recipe">
<ellipse fill="#fde725" stroke="black" cx="283.94" cy="-126" rx="75.41" ry="18"/>
<text text-anchor="middle" x="283.94" y="-121.33" font-family="Times,serif" font-size="14.00">mmcv recipe</text>
</a>
</g>
</g>
<!-- torchvision&#45;&gt;mmcv&#45;recipe -->
<g id="edge5" class="edge">
<title>torchvision&#45;&gt;mmcv&#45;recipe</title>
<path fill="none" stroke="black" d="M283.94,-467.51C283.94,-440.71 283.94,-387.87 283.94,-343 283.94,-343 283.94,-343 283.94,-269 283.94,-229.74 283.94,-184.38 283.94,-155.69"/>
<polygon fill="black" stroke="black" points="287.44,-156 283.94,-146 280.44,-156 287.44,-156"/>
</g>
<!-- pixsfm -->
<g id="node7" class="node">
<title>pixsfm</title>
<g id="a_node7"><a xlink:href="https://github.com/conda-forge/pixsfm-feedstock" xlink:title="pixsfm">
<ellipse fill="#fde725" stroke="black" cx="356.94" cy="-414" rx="44.9" ry="18"/>
<text text-anchor="middle" x="356.94" y="-409.32" font-family="Times,serif" font-size="14.00">pixsfm</text>
</a>
</g>
</g>
<!-- torchvision&#45;&gt;pixsfm -->
<g id="edge6" class="edge">
<title>torchvision&#45;&gt;pixsfm</title>
<path fill="none" stroke="black" d="M301.24,-468.41C310.46,-459.57 321.97,-448.53 332.13,-438.79"/>
<polygon fill="black" stroke="black" points="334.38,-441.48 339.17,-432.04 329.53,-436.43 334.38,-441.48"/>
</g>
<!-- pytorch3d -->
<g id="node8" class="node">
<title>pytorch3d</title>
<g id="a_node8"><a xlink:href="https://github.com/conda-forge/pytorch3d-feedstock" xlink:title="pytorch3d">
<ellipse fill="#fde725" stroke="black" cx="403.94" cy="-342" rx="62.26" ry="18"/>
<text text-anchor="middle" x="403.94" y="-337.32" font-family="Times,serif" font-size="14.00">pytorch3d</text>
</a>
</g>
</g>
<!-- torchvision&#45;&gt;pytorch3d -->
<g id="edge7" class="edge">
<title>torchvision&#45;&gt;pytorch3d</title>
<path fill="none" stroke="black" d="M340.58,-476.04C366.62,-468.78 395.18,-455.66 410.94,-432 422.75,-414.27 419.86,-389.92 414.65,-371.17"/>
<polygon fill="black" stroke="black" points="418.03,-370.25 411.67,-361.77 411.36,-372.36 418.03,-370.25"/>
</g>
<!-- aihwkit&#45;gpu -->
<g id="node9" class="node">
<title>aihwkit&#45;gpu</title>
<g id="a_node9"><a xlink:href="https://github.com/conda-forge/aihwkit-gpu-feedstock" xlink:title="aihwkit gpu">
<ellipse fill="#fde725" stroke="black" cx="493.94" cy="-270" rx="70.15" ry="18"/>
<text text-anchor="middle" x="493.94" y="-265.32" font-family="Times,serif" font-size="14.00">aihwkit gpu</text>
</a>
</g>
</g>
<!-- torchvision&#45;&gt;aihwkit&#45;gpu -->
<g id="edge8" class="edge">
<title>torchvision&#45;&gt;aihwkit&#45;gpu</title>
<path fill="none" stroke="black" d="M337.16,-474.69C366.89,-466.86 403.21,-453.62 429.94,-432 470.7,-399.03 485.62,-336.32 491,-299.65"/>
<polygon fill="black" stroke="black" points="494.46,-300.17 492.28,-289.8 487.52,-299.26 494.46,-300.17"/>
</g>
<!-- autoawq -->
<g id="node10" class="node">
<title>autoawq</title>
<g id="a_node10"><a xlink:href="https://github.com/conda-forge/autoawq-feedstock" xlink:title="autoawq">
<ellipse fill="#fde725" stroke="black" cx="591.94" cy="-198" rx="53.84" ry="18"/>
<text text-anchor="middle" x="591.94" y="-193.32" font-family="Times,serif" font-size="14.00">autoawq</text>
</a>
</g>
</g>
<!-- torchvision&#45;&gt;autoawq -->
<g id="edge9" class="edge">
<title>torchvision&#45;&gt;autoawq</title>
<path fill="none" stroke="black" d="M341.74,-476.59C377.82,-469.23 423.91,-455.85 458.94,-432 526.42,-386.07 538.17,-361.85 572.94,-288 581.89,-268.98 586.67,-245.68 589.2,-227.7"/>
<polygon fill="black" stroke="black" points="592.65,-228.33 590.4,-217.98 585.7,-227.48 592.65,-228.33"/>
</g>
<!-- pytorch_sparse -->
<g id="node11" class="node">
<title>pytorch_sparse</title>
<g id="a_node11"><a xlink:href="https://github.com/conda-forge/pytorch_sparse-feedstock" xlink:title="pytorch_sparse">
<ellipse fill="#000000" stroke="black" cx="752.94" cy="-594" rx="87.51" ry="18"/>
<text text-anchor="middle" x="752.94" y="-589.33" font-family="Times,serif" font-size="14.00" fill="white">pytorch_sparse</text>
</a>
</g>
</g>
<!-- openmm&#45;torch -->
<g id="node12" class="node">
<title>openmm&#45;torch</title>
<g id="a_node12"><a xlink:href="https://github.com/conda-forge/openmm-torch-feedstock/pull/52" xlink:title="openmm torch ❎">
<ellipse fill="#31688e" stroke="black" cx="752.94" cy="-522" rx="99.08" ry="18"/>
<text text-anchor="middle" x="752.94" y="-517.33" font-family="Times,serif" font-size="14.00" fill="white">openmm torch ❎</text>
</a>
</g>
</g>
<!-- pytorch_sparse&#45;&gt;openmm&#45;torch -->
<!-- torchsparse -->
<g id="node13" class="node">
<title>torchsparse</title>
<g id="a_node13"><a xlink:href="https://github.com/conda-forge/torchsparse-feedstock/pull/35" xlink:title="torchsparse ❎">
<ellipse fill="#31688e" stroke="black" cx="752.94" cy="-450" rx="85.93" ry="18"/>
<text text-anchor="middle" x="752.94" y="-445.32" font-family="Times,serif" font-size="14.00" fill="white">torchsparse ❎</text>
</a>
</g>
</g>
<!-- openmm&#45;torch&#45;&gt;torchsparse -->
<!-- kaolin -->
<g id="node14" class="node">
<title>kaolin</title>
<g id="a_node14"><a xlink:href="https://github.com/conda-forge/kaolin-feedstock" xlink:title="kaolin">
<ellipse fill="#ff8c00" stroke="black" cx="752.94" cy="-378" rx="41.21" ry="18"/>
<text text-anchor="middle" x="752.94" y="-373.32" font-family="Times,serif" font-size="14.00">kaolin</text>
</a>
</g>
</g>
<!-- torchsparse&#45;&gt;kaolin -->
<!-- xformers -->
<g id="node15" class="node">
<title>xformers</title>
<g id="a_node15"><a xlink:href="https://github.com/conda-forge/xformers-feedstock/pull/24" xlink:title="xformers ❎">
<ellipse fill="#31688e" stroke="black" cx="752.94" cy="-306" rx="71.73" ry="18"/>
<text text-anchor="middle" x="752.94" y="-301.32" font-family="Times,serif" font-size="14.00" fill="white">xformers ❎</text>
</a>
</g>
</g>
<!-- kaolin&#45;&gt;xformers -->
<!-- abacus -->
<g id="node19" class="node">
<title>abacus</title>
<g id="a_node19"><a xlink:href="https://github.com/conda-forge/abacus-feedstock" xlink:title="abacus">
<ellipse fill="#35b779" stroke="black" cx="752.94" cy="-234" rx="45.95" ry="18"/>
<text text-anchor="middle" x="752.94" y="-229.32" font-family="Times,serif" font-size="14.00">abacus</text>
</a>
</g>
</g>
<!-- xformers&#45;&gt;abacus -->
<!-- torchdata -->
<g id="node16" class="node">
<title>torchdata</title>
<g id="a_node16"><a xlink:href="https://github.com/conda-forge/torchdata-feedstock/pull/26" xlink:title="torchdata ❎">
<ellipse fill="#31688e" stroke="black" cx="960.94" cy="-378" rx="74.88" ry="18"/>
<text text-anchor="middle" x="960.94" y="-373.32" font-family="Times,serif" font-size="14.00" fill="white">torchdata ❎</text>
</a>
</g>
</g>
<!-- torchtext -->
<g id="node17" class="node">
<title>torchtext</title>
<g id="a_node17"><a xlink:href="https://github.com/conda-forge/torchtext-feedstock" xlink:title="torchtext">
<ellipse fill="#fde725" stroke="black" cx="917.94" cy="-306" rx="57.52" ry="18"/>
<text text-anchor="middle" x="917.94" y="-301.32" font-family="Times,serif" font-size="14.00">torchtext</text>
</a>
</g>
</g>
<!-- torchdata&#45;&gt;torchtext -->
<g id="edge14" class="edge">
<title>torchdata&#45;&gt;torchtext</title>
<path fill="none" stroke="black" d="M950.31,-359.7C945.52,-351.9 939.75,-342.51 934.42,-333.83"/>
<polygon fill="black" stroke="black" points="937.45,-332.08 929.24,-325.39 931.49,-335.75 937.45,-332.08"/>
</g>
<!-- dgl -->
<g id="node18" class="node">
<title>dgl</title>
<g id="a_node18"><a xlink:href="https://github.com/conda-forge/dgl-feedstock" xlink:title="dgl">
<ellipse fill="#fde725" stroke="black" cx="1003.94" cy="-234" rx="27.01" ry="18"/>
<text text-anchor="middle" x="1003.94" y="-229.32" font-family="Times,serif" font-size="14.00">dgl</text>
</a>
</g>
</g>
<!-- torchdata&#45;&gt;dgl -->
<g id="edge15" class="edge">
<title>torchdata&#45;&gt;dgl</title>
<path fill="none" stroke="black" d="M969.91,-359.71C974.9,-349.53 980.9,-336.28 984.94,-324 991.44,-304.24 996.28,-281.28 999.44,-263.62"/>
<polygon fill="black" stroke="black" points="1002.88,-264.29 1001.11,-253.84 995.98,-263.11 1002.88,-264.29"/>
</g>
<!-- torchmd&#45;net -->
<g id="node20" class="node">
<title>torchmd&#45;net</title>
<g id="a_node20"><a xlink:href="https://github.com/conda-forge/torchmd-net-feedstock" xlink:title="torchmd net">
<ellipse fill="#ff8c00" stroke="black" cx="752.94" cy="-162" rx="72.78" ry="18"/>
<text text-anchor="middle" x="752.94" y="-157.32" font-family="Times,serif" font-size="14.00">torchmd net</text>
</a>
</g>
</g>
<!-- abacus&#45;&gt;torchmd&#45;net -->
<!-- horovod -->
<g id="node21" class="node">
<title>horovod</title>
<g id="a_node21"><a xlink:href="https://github.com/conda-forge/horovod-feedstock" xlink:title="horovod">
<ellipse fill="#ff8c00" stroke="black" cx="752.94" cy="-90" rx="51.74" ry="18"/>
<text text-anchor="middle" x="752.94" y="-85.33" font-family="Times,serif" font-size="14.00">horovod</text>
</a>
</g>
</g>
<!-- torchmd&#45;net&#45;&gt;horovod -->
<!-- auto_gptq -->
<g id="node22" class="node">
<title>auto_gptq</title>
<g id="a_node22"><a xlink:href="https://github.com/conda-forge/auto_gptq-feedstock/pull/4" xlink:title="auto_gptq ❎">
<ellipse fill="#31688e" stroke="black" cx="752.94" cy="-18" rx="76.46" ry="18"/>
<text text-anchor="middle" x="752.94" y="-13.32" font-family="Times,serif" font-size="14.00" fill="white">auto_gptq ❎</text>
</a>
</g>
</g>
<!-- horovod&#45;&gt;auto_gptq -->
</g>
</svg>
