<?xml version="1.0" encoding="UTF-8" standalone="no"?>
<!DOCTYPE svg PUBLIC "-//W3C//DTD SVG 1.1//EN"
 "http://www.w3.org/Graphics/SVG/1.1/DTD/svg11.dtd">
<!-- Generated by graphviz version 9.0.0 (20231125.0833)
 -->
<!-- Pages: 1 -->
<svg width="1088pt" height="880pt"
 viewBox="0.00 0.00 1087.82 880.00" xmlns="http://www.w3.org/2000/svg" xmlns:xlink="http://www.w3.org/1999/xlink">
<g id="graph0" class="graph" transform="scale(1 1) rotate(0) translate(4 876)">
<polygon fill="white" stroke="none" points="-4,4 -4,-876 1083.82,-876 1083.82,4 -4,4"/>
<!-- torchvision -->
<g id="node1" class="node">
<title>torchvision</title>
<g id="a_node1"><a xlink:href="https://github.com/conda-forge/torchvision-feedstock" xlink:title="torchvision">
<ellipse fill="#ff8c00" stroke="black" cx="283.94" cy="-674" rx="66.99" ry="18"/>
<text text-anchor="middle" x="283.94" y="-669.33" font-family="Times,serif" font-size="14.00">torchvision</text>
</a>
</g>
</g>
<!-- detectron2 -->
<g id="node2" class="node">
<title>detectron2</title>
<g id="a_node2"><a xlink:href="https://github.com/conda-forge/detectron2-feedstock" xlink:title="detectron2">
<ellipse fill="#fde725" stroke="black" cx="65.94" cy="-602" rx="65.94" ry="18"/>
<text text-anchor="middle" x="65.94" y="-597.33" font-family="Times,serif" font-size="14.00">detectron2</text>
</a>
</g>
</g>
<!-- torchvision&#45;&gt;detectron2 -->
<g id="edge1" class="edge">
<title>torchvision&#45;&gt;detectron2</title>
<path fill="none" stroke="black" d="M242.16,-659.59C206.94,-648.28 156.36,-632.03 118.41,-619.85"/>
<polygon fill="black" stroke="black" points="119.6,-616.56 109.01,-616.83 117.46,-623.22 119.6,-616.56"/>
</g>
<!-- fcos -->
<g id="node3" class="node">
<title>fcos</title>
<g id="a_node3"><a xlink:href="https://github.com/conda-forge/fcos-feedstock" xlink:title="fcos">
<ellipse fill="#fde725" stroke="black" cx="148.94" cy="-530" rx="31.22" ry="18"/>
<text text-anchor="middle" x="148.94" y="-525.33" font-family="Times,serif" font-size="14.00">fcos</text>
</a>
</g>
</g>
<!-- torchvision&#45;&gt;fcos -->
<g id="edge2" class="edge">
<title>torchvision&#45;&gt;fcos</title>
<path fill="none" stroke="black" d="M249.1,-658.34C230.92,-649.35 209.32,-636.4 193.94,-620 177.48,-602.45 165.63,-577.73 158.24,-558.8"/>
<polygon fill="black" stroke="black" points="161.57,-557.73 154.83,-549.56 155.01,-560.16 161.57,-557.73"/>
</g>
<!-- norse -->
<g id="node4" class="node">
<title>norse</title>
<g id="a_node4"><a xlink:href="https://github.com/conda-forge/norse-feedstock" xlink:title="norse">
<ellipse fill="#fde725" stroke="black" cx="178.94" cy="-458" rx="39.11" ry="18"/>
<text text-anchor="middle" x="178.94" y="-453.32" font-family="Times,serif" font-size="14.00">norse</text>
</a>
</g>
</g>
<!-- torchvision&#45;&gt;norse -->
<g id="edge3" class="edge">
<title>torchvision&#45;&gt;norse</title>
<path fill="none" stroke="black" d="M263.61,-656.38C252.91,-646.72 240.32,-633.76 231.94,-620 206.04,-577.47 191.22,-520.82 184.15,-487.3"/>
<polygon fill="black" stroke="black" points="187.6,-486.66 182.19,-477.55 180.73,-488.04 187.6,-486.66"/>
</g>
<!-- fairscale -->
<g id="node5" class="node">
<title>fairscale</title>
<g id="a_node5"><a xlink:href="https://github.com/conda-forge/fairscale-feedstock" xlink:title="fairscale">
<ellipse fill="#fde725" stroke="black" cx="201.94" cy="-386" rx="53.84" ry="18"/>
<text text-anchor="middle" x="201.94" y="-381.32" font-family="Times,serif" font-size="14.00">fairscale</text>
</a>
</g>
</g>
<!-- torchvision&#45;&gt;fairscale -->
<g id="edge4" class="edge">
<title>torchvision&#45;&gt;fairscale</title>
<path fill="none" stroke="black" d="M279.3,-655.84C276.52,-645.48 272.96,-632 269.94,-620 249.88,-540.23 254.18,-517.61 226.94,-440 223.89,-431.32 219.88,-422.17 215.97,-413.95"/>
<polygon fill="black" stroke="black" points="219.2,-412.59 211.63,-405.17 212.92,-415.68 219.2,-412.59"/>
</g>
<!-- mmcv&#45;recipe -->
<g id="node6" class="node">
<title>mmcv&#45;recipe</title>
<g id="a_node6"><a xlink:href="https://github.com/conda-forge/mmcv-recipe-feedstock" xlink:title="mmcv recipe">
<ellipse fill="#fde725" stroke="black" cx="283.94" cy="-314" rx="75.41" ry="18"/>
<text text-anchor="middle" x="283.94" y="-309.32" font-family="Times,serif" font-size="14.00">mmcv recipe</text>
</a>
</g>
</g>
<!-- torchvision&#45;&gt;mmcv&#45;recipe -->
<g id="edge5" class="edge">
<title>torchvision&#45;&gt;mmcv&#45;recipe</title>
<path fill="none" stroke="black" d="M283.94,-655.51C283.94,-628.71 283.94,-575.87 283.94,-531 283.94,-531 283.94,-531 283.94,-457 283.94,-417.74 283.94,-372.38 283.94,-343.69"/>
<polygon fill="black" stroke="black" points="287.44,-344 283.94,-334 280.44,-344 287.44,-344"/>
</g>
<!-- pixsfm -->
<g id="node7" class="node">
<title>pixsfm</title>
<g id="a_node7"><a xlink:href="https://github.com/conda-forge/pixsfm-feedstock" xlink:title="pixsfm">
<ellipse fill="#fde725" stroke="black" cx="356.94" cy="-602" rx="44.9" ry="18"/>
<text text-anchor="middle" x="356.94" y="-597.33" font-family="Times,serif" font-size="14.00">pixsfm</text>
</a>
</g>
</g>
<!-- torchvision&#45;&gt;pixsfm -->
<g id="edge6" class="edge">
<title>torchvision&#45;&gt;pixsfm</title>
<path fill="none" stroke="black" d="M301.24,-656.41C310.46,-647.57 321.97,-636.53 332.13,-626.79"/>
<polygon fill="black" stroke="black" points="334.38,-629.48 339.17,-620.04 329.53,-624.43 334.38,-629.48"/>
</g>
<!-- pytorch3d -->
<g id="node8" class="node">
<title>pytorch3d</title>
<g id="a_node8"><a xlink:href="https://github.com/conda-forge/pytorch3d-feedstock" xlink:title="pytorch3d">
<ellipse fill="#fde725" stroke="black" cx="403.94" cy="-530" rx="62.26" ry="18"/>
<text text-anchor="middle" x="403.94" y="-525.33" font-family="Times,serif" font-size="14.00">pytorch3d</text>
</a>
</g>
</g>
<!-- torchvision&#45;&gt;pytorch3d -->
<g id="edge7" class="edge">
<title>torchvision&#45;&gt;pytorch3d</title>
<path fill="none" stroke="black" d="M340.58,-664.04C366.62,-656.78 395.18,-643.66 410.94,-620 422.75,-602.27 419.86,-577.92 414.65,-559.17"/>
<polygon fill="black" stroke="black" points="418.03,-558.25 411.67,-549.77 411.36,-560.36 418.03,-558.25"/>
</g>
<!-- aihwkit&#45;gpu -->
<g id="node9" class="node">
<title>aihwkit&#45;gpu</title>
<g id="a_node9"><a xlink:href="https://github.com/conda-forge/aihwkit-gpu-feedstock" xlink:title="aihwkit gpu">
<ellipse fill="#fde725" stroke="black" cx="493.94" cy="-458" rx="70.15" ry="18"/>
<text text-anchor="middle" x="493.94" y="-453.32" font-family="Times,serif" font-size="14.00">aihwkit gpu</text>
</a>
</g>
</g>
<!-- torchvision&#45;&gt;aihwkit&#45;gpu -->
<g id="edge8" class="edge">
<title>torchvision&#45;&gt;aihwkit&#45;gpu</title>
<path fill="none" stroke="black" d="M337.16,-662.69C366.89,-654.86 403.21,-641.62 429.94,-620 470.7,-587.03 485.62,-524.32 491,-487.65"/>
<polygon fill="black" stroke="black" points="494.46,-488.17 492.28,-477.8 487.52,-487.26 494.46,-488.17"/>
</g>
<!-- autoawq -->
<g id="node10" class="node">
<title>autoawq</title>
<g id="a_node10"><a xlink:href="https://github.com/conda-forge/autoawq-feedstock" xlink:title="autoawq">
<ellipse fill="#fde725" stroke="black" cx="591.94" cy="-386" rx="53.84" ry="18"/>
<text text-anchor="middle" x="591.94" y="-381.32" font-family="Times,serif" font-size="14.00">autoawq</text>
</a>
</g>
</g>
<!-- torchvision&#45;&gt;autoawq -->
<g id="edge9" class="edge">
<title>torchvision&#45;&gt;autoawq</title>
<path fill="none" stroke="black" d="M341.74,-664.59C377.82,-657.23 423.91,-643.85 458.94,-620 526.42,-574.07 538.17,-549.85 572.94,-476 581.89,-456.98 586.67,-433.68 589.2,-415.7"/>
<polygon fill="black" stroke="black" points="592.65,-416.33 590.4,-405.98 585.7,-415.48 592.65,-416.33"/>
</g>
<!-- pytorch_cluster -->
<g id="node11" class="node">
<title>pytorch_cluster</title>
<g id="a_node11"><a xlink:href="https://github.com/conda-forge/pytorch_cluster-feedstock/pull/56" xlink:title="pytorch_cluster ❎">
<ellipse fill="#31688e" stroke="black" cx="774.94" cy="-854" rx="104.35" ry="18"/>
<text text-anchor="middle" x="774.94" y="-849.33" font-family="Times,serif" font-size="14.00" fill="white">pytorch_cluster ❎</text>
</a>
</g>
</g>
<!-- openmm&#45;torch -->
<g id="node12" class="node">
<title>openmm&#45;torch</title>
<g id="a_node12"><a xlink:href="https://github.com/conda-forge/openmm-torch-feedstock/pull/52" xlink:title="openmm torch ❎">
<ellipse fill="#31688e" stroke="black" cx="774.94" cy="-782" rx="99.08" ry="18"/>
<text text-anchor="middle" x="774.94" y="-777.33" font-family="Times,serif" font-size="14.00" fill="white">openmm torch ❎</text>
</a>
</g>
</g>
<!-- pytorch_cluster&#45;&gt;openmm&#45;torch -->
<!-- torchsparse -->
<g id="node15" class="node">
<title>torchsparse</title>
<g id="a_node15"><a xlink:href="https://github.com/conda-forge/torchsparse-feedstock/pull/35" xlink:title="torchsparse ❎">
<ellipse fill="#31688e" stroke="black" cx="774.94" cy="-710" rx="85.93" ry="18"/>
<text text-anchor="middle" x="774.94" y="-705.33" font-family="Times,serif" font-size="14.00" fill="white">torchsparse ❎</text>
</a>
</g>
</g>
<!-- openmm&#45;torch&#45;&gt;torchsparse -->
<!-- pytorch_scatter -->
<g id="node13" class="node">
<title>pytorch_scatter</title>
<g id="a_node13"><a xlink:href="https://github.com/conda-forge/pytorch_scatter-feedstock/pull/62" xlink:title="pytorch_scatter ❎">
<ellipse fill="#31688e" stroke="black" cx="322.94" cy="-90" rx="104.87" ry="18"/>
<text text-anchor="middle" x="322.94" y="-85.33" font-family="Times,serif" font-size="14.00" fill="white">pytorch_scatter ❎</text>
</a>
</g>
</g>
<!-- pytorch_sparse -->
<g id="node14" class="node">
<title>pytorch_sparse</title>
<g id="a_node14"><a xlink:href="https://github.com/conda-forge/pytorch_sparse-feedstock" xlink:title="pytorch_sparse">
<ellipse fill="#fde725" stroke="black" cx="322.94" cy="-18" rx="87.51" ry="18"/>
<text text-anchor="middle" x="322.94" y="-13.32" font-family="Times,serif" font-size="14.00">pytorch_sparse</text>
</a>
</g>
</g>
<!-- pytorch_scatter&#45;&gt;pytorch_sparse -->
<g id="edge11" class="edge">
<title>pytorch_scatter&#45;&gt;pytorch_sparse</title>
<path fill="none" stroke="black" d="M322.94,-71.7C322.94,-64.41 322.94,-55.73 322.94,-47.54"/>
<polygon fill="black" stroke="black" points="326.44,-47.62 322.94,-37.62 319.44,-47.62 326.44,-47.62"/>
</g>
<!-- kaolin -->
<g id="node16" class="node">
<title>kaolin</title>
<g id="a_node16"><a xlink:href="https://github.com/conda-forge/kaolin-feedstock" xlink:title="kaolin">
<ellipse fill="#ff8c00" stroke="black" cx="774.94" cy="-638" rx="41.21" ry="18"/>
<text text-anchor="middle" x="774.94" y="-633.33" font-family="Times,serif" font-size="14.00">kaolin</text>
</a>
</g>
</g>
<!-- torchsparse&#45;&gt;kaolin -->
<!-- pyg&#45;lib -->
<g id="node17" class="node">
<title>pyg&#45;lib</title>
<g id="a_node17"><a xlink:href="https://github.com/conda-forge/pyg-lib-feedstock/pull/30" xlink:title="pyg lib ❎">
<ellipse fill="#31688e" stroke="black" cx="774.94" cy="-566" rx="60.68" ry="18"/>
<text text-anchor="middle" x="774.94" y="-561.33" font-family="Times,serif" font-size="14.00" fill="white">pyg lib ❎</text>
</a>
</g>
</g>
<!-- kaolin&#45;&gt;pyg&#45;lib -->
<!-- deepspeed -->
<g id="node21" class="node">
<title>deepspeed</title>
<g id="a_node21"><a xlink:href="https://github.com/conda-forge/deepspeed-feedstock" xlink:title="deepspeed">
<ellipse fill="#35b779" stroke="black" cx="774.94" cy="-494" rx="64.89" ry="18"/>
<text text-anchor="middle" x="774.94" y="-489.32" font-family="Times,serif" font-size="14.00">deepspeed</text>
</a>
</g>
</g>
<!-- pyg&#45;lib&#45;&gt;deepspeed -->
<!-- torchdata -->
<g id="node18" class="node">
<title>torchdata</title>
<g id="a_node18"><a xlink:href="https://github.com/conda-forge/torchdata-feedstock/pull/26" xlink:title="torchdata ❎">
<ellipse fill="#31688e" stroke="black" cx="1004.94" cy="-566" rx="74.88" ry="18"/>
<text text-anchor="middle" x="1004.94" y="-561.33" font-family="Times,serif" font-size="14.00" fill="white">torchdata ❎</text>
</a>
</g>
</g>
<!-- torchtext -->
<g id="node19" class="node">
<title>torchtext</title>
<g id="a_node19"><a xlink:href="https://github.com/conda-forge/torchtext-feedstock" xlink:title="torchtext">
<ellipse fill="#fde725" stroke="black" cx="961.94" cy="-494" rx="57.52" ry="18"/>
<text text-anchor="middle" x="961.94" y="-489.32" font-family="Times,serif" font-size="14.00">torchtext</text>
</a>
</g>
</g>
<!-- torchdata&#45;&gt;torchtext -->
<g id="edge15" class="edge">
<title>torchdata&#45;&gt;torchtext</title>
<path fill="none" stroke="black" d="M994.31,-547.7C989.52,-539.9 983.75,-530.51 978.42,-521.83"/>
<polygon fill="black" stroke="black" points="981.45,-520.08 973.24,-513.39 975.49,-523.75 981.45,-520.08"/>
</g>
<!-- dgl -->
<g id="node20" class="node">
<title>dgl</title>
<g id="a_node20"><a xlink:href="https://github.com/conda-forge/dgl-feedstock" xlink:title="dgl">
<ellipse fill="#fde725" stroke="black" cx="1047.94" cy="-422" rx="27.01" ry="18"/>
<text text-anchor="middle" x="1047.94" y="-417.32" font-family="Times,serif" font-size="14.00">dgl</text>
</a>
</g>
</g>
<!-- torchdata&#45;&gt;dgl -->
<g id="edge16" class="edge">
<title>torchdata&#45;&gt;dgl</title>
<path fill="none" stroke="black" d="M1013.91,-547.71C1018.9,-537.53 1024.9,-524.28 1028.94,-512 1035.44,-492.24 1040.28,-469.28 1043.44,-451.62"/>
<polygon fill="black" stroke="black" points="1046.88,-452.29 1045.11,-441.84 1039.98,-451.11 1046.88,-452.29"/>
</g>
<!-- xformers -->
<g id="node22" class="node">
<title>xformers</title>
<g id="a_node22"><a xlink:href="https://github.com/conda-forge/xformers-feedstock/pull/24" xlink:title="xformers ❎">
<ellipse fill="#31688e" stroke="black" cx="774.94" cy="-422" rx="71.73" ry="18"/>
<text text-anchor="middle" x="774.94" y="-417.32" font-family="Times,serif" font-size="14.00" fill="white">xformers ❎</text>
</a>
</g>
</g>
<!-- deepspeed&#45;&gt;xformers -->
<!-- abacus -->
<g id="node23" class="node">
<title>abacus</title>
<g id="a_node23"><a xlink:href="https://github.com/conda-forge/abacus-feedstock" xlink:title="abacus">
<ellipse fill="#35b779" stroke="black" cx="774.94" cy="-350" rx="45.95" ry="18"/>
<text text-anchor="middle" x="774.94" y="-345.32" font-family="Times,serif" font-size="14.00">abacus</text>
</a>
</g>
</g>
<!-- xformers&#45;&gt;abacus -->
<!-- carterbox&#45;torch&#45;radon -->
<g id="node24" class="node">
<title>carterbox&#45;torch&#45;radon</title>
<g id="a_node24"><a xlink:href="https://github.com/conda-forge/carterbox-torch-radon-feedstock" xlink:title="carterbox torch radon">
<ellipse fill="#35b779" stroke="black" cx="774.94" cy="-278" rx="121.18" ry="18"/>
<text text-anchor="middle" x="774.94" y="-273.32" font-family="Times,serif" font-size="14.00">carterbox torch radon</text>
</a>
</g>
</g>
<!-- abacus&#45;&gt;carterbox&#45;torch&#45;radon -->
<!-- torchmd&#45;net -->
<g id="node25" class="node">
<title>torchmd&#45;net</title>
<g id="a_node25"><a xlink:href="https://github.com/conda-forge/torchmd-net-feedstock" xlink:title="torchmd net">
<ellipse fill="#35b779" stroke="black" cx="774.94" cy="-206" rx="72.78" ry="18"/>
<text text-anchor="middle" x="774.94" y="-201.33" font-family="Times,serif" font-size="14.00">torchmd net</text>
</a>
</g>
</g>
<!-- carterbox&#45;torch&#45;radon&#45;&gt;torchmd&#45;net -->
<!-- horovod -->
<g id="node26" class="node">
<title>horovod</title>
<g id="a_node26"><a xlink:href="https://github.com/conda-forge/horovod-feedstock" xlink:title="horovod">
<ellipse fill="#ff8c00" stroke="black" cx="774.94" cy="-134" rx="51.74" ry="18"/>
<text text-anchor="middle" x="774.94" y="-129.32" font-family="Times,serif" font-size="14.00">horovod</text>
</a>
</g>
</g>
<!-- torchmd&#45;net&#45;&gt;horovod -->
<!-- flash&#45;attn -->
<g id="node27" class="node">
<title>flash&#45;attn</title>
<g id="a_node27"><a xlink:href="https://github.com/conda-forge/flash-attn-feedstock" xlink:title="flash attn">
<ellipse fill="#35b779" stroke="black" cx="774.94" cy="-90" rx="58.57" ry="18"/>
<text text-anchor="middle" x="774.94" y="-85.33" font-family="Times,serif" font-size="14.00">flash attn</text>
</a>
</g>
</g>
<!-- auto_gptq -->
<g id="node28" class="node">
<title>auto_gptq</title>
<g id="a_node28"><a xlink:href="https://github.com/conda-forge/auto_gptq-feedstock" xlink:title="auto_gptq">
<ellipse fill="#35b779" stroke="black" cx="774.94" cy="-18" rx="61.2" ry="18"/>
<text text-anchor="middle" x="774.94" y="-13.32" font-family="Times,serif" font-size="14.00">auto_gptq</text>
</a>
</g>
</g>
<!-- flash&#45;attn&#45;&gt;auto_gptq -->
</g>
</svg>
