<?xml version="1.0" encoding="UTF-8" standalone="no"?>
<!DOCTYPE svg PUBLIC "-//W3C//DTD SVG 1.1//EN"
 "http://www.w3.org/Graphics/SVG/1.1/DTD/svg11.dtd">
<!-- Generated by graphviz version 11.0.0 (20240519.1550)
 -->
<!-- Pages: 1 -->
<svg width="564pt" height="276pt"
 viewBox="0.00 0.00 563.56 276.00" xmlns="http://www.w3.org/2000/svg" xmlns:xlink="http://www.w3.org/1999/xlink">
<g id="graph0" class="graph" transform="scale(1 1) rotate(0) translate(4 272)">
<polygon fill="white" stroke="none" points="-4,4 -4,-272 559.56,-272 559.56,4 -4,4"/>
<!-- stir -->
<g id="node1" class="node">
<title>stir</title>
<g id="a_node1"><a xlink:href="https://github.com/conda-forge/stir-feedstock" xlink:title="stir">
<ellipse fill="#000000" stroke="black" cx="132.15" cy="-18" rx="28.59" ry="18"/>
<text text-anchor="middle" x="132.15" y="-13.32" font-family="Times,serif" font-size="14.00" fill="white">stir</text>
</a>
</g>
</g>
<!-- ostaphep -->
<g id="node2" class="node">
<title>ostaphep</title>
<g id="a_node2"><a xlink:href="https://github.com/conda-forge/ostaphep-feedstock" xlink:title="ostaphep">
<ellipse fill="#ff8c00" stroke="black" cx="132.15" cy="-62" rx="57" ry="18"/>
<text text-anchor="middle" x="132.15" y="-57.33" font-family="Times,serif" font-size="14.00">ostaphep</text>
</a>
</g>
</g>
<!-- omicron -->
<g id="node3" class="node">
<title>omicron</title>
<g id="a_node3"><a xlink:href="https://github.com/conda-forge/omicron-feedstock" xlink:title="omicron">
<ellipse fill="#35b779" stroke="black" cx="365.15" cy="-250" rx="51.73" ry="18"/>
<text text-anchor="middle" x="365.15" y="-245.32" font-family="Times,serif" font-size="14.00">omicron</text>
</a>
</g>
</g>
<!-- vetoperf -->
<g id="node8" class="node">
<title>vetoperf</title>
<g id="a_node8"><a xlink:href="https://github.com/conda-forge/vetoperf-feedstock" xlink:title="vetoperf">
<ellipse fill="#fde725" stroke="black" cx="325.15" cy="-178" rx="53.31" ry="18"/>
<text text-anchor="middle" x="325.15" y="-173.32" font-family="Times,serif" font-size="14.00">vetoperf</text>
</a>
</g>
</g>
<!-- omicron&#45;&gt;vetoperf -->
<g id="edge2" class="edge">
<title>omicron&#45;&gt;vetoperf</title>
<path fill="none" stroke="black" d="M355.47,-232.05C350.95,-224.14 345.46,-214.54 340.4,-205.69"/>
<polygon fill="black" stroke="black" points="343.5,-204.05 335.5,-197.1 337.42,-207.52 343.5,-204.05"/>
</g>
<!-- upv -->
<g id="node9" class="node">
<title>upv</title>
<g id="a_node9"><a xlink:href="https://github.com/conda-forge/upv-feedstock" xlink:title="upv">
<ellipse fill="#fde725" stroke="black" cx="365.15" cy="-106" rx="29.64" ry="18"/>
<text text-anchor="middle" x="365.15" y="-101.33" font-family="Times,serif" font-size="14.00">upv</text>
</a>
</g>
</g>
<!-- omicron&#45;&gt;upv -->
<g id="edge1" class="edge">
<title>omicron&#45;&gt;upv</title>
<path fill="none" stroke="black" d="M374.28,-231.88C379.16,-221.76 384.66,-208.51 387.15,-196 390.28,-180.31 390.28,-175.69 387.15,-160 385.41,-151.27 382.2,-142.17 378.77,-134.03"/>
<polygon fill="black" stroke="black" points="382,-132.69 374.68,-125.03 375.63,-135.58 382,-132.69"/>
</g>
<!-- hammer -->
<g id="node4" class="node">
<title>hammer</title>
<g id="a_node4"><a xlink:href="https://github.com/conda-forge/hammer-feedstock" xlink:title="hammer">
<ellipse fill="#000000" stroke="black" cx="344.15" cy="-62" rx="52.79" ry="18"/>
<text text-anchor="middle" x="344.15" y="-57.33" font-family="Times,serif" font-size="14.00" fill="white">hammer</text>
</a>
</g>
</g>
<!-- yoda -->
<g id="node5" class="node">
<title>yoda</title>
<g id="a_node5"><a xlink:href="https://github.com/conda-forge/yoda-feedstock" xlink:title="yoda">
<ellipse fill="#ff8c00" stroke="black" cx="490.15" cy="-62" rx="34.9" ry="18"/>
<text text-anchor="middle" x="490.15" y="-57.33" font-family="Times,serif" font-size="14.00">yoda</text>
</a>
</g>
</g>
<!-- gds&#45;gui -->
<g id="node6" class="node">
<title>gds&#45;gui</title>
<g id="a_node6"><a xlink:href="https://github.com/conda-forge/gds-gui-feedstock/pull/23" xlink:title="gds gui ❎">
<ellipse fill="#31688e" stroke="black" cx="201.15" cy="-214" rx="63.31" ry="18"/>
<text text-anchor="middle" x="201.15" y="-209.32" font-family="Times,serif" font-size="14.00" fill="white">gds gui ❎</text>
</a>
</g>
</g>
<!-- gds&#45;monitor&#45;apps -->
<g id="node10" class="node">
<title>gds&#45;monitor&#45;apps</title>
<g id="a_node10"><a xlink:href="https://github.com/conda-forge/gds-monitor-apps-feedstock" xlink:title="gds monitor apps">
<ellipse fill="#fde725" stroke="black" cx="130.15" cy="-142" rx="98.56" ry="18"/>
<text text-anchor="middle" x="130.15" y="-137.32" font-family="Times,serif" font-size="14.00">gds monitor apps</text>
</a>
</g>
</g>
<!-- gds&#45;gui&#45;&gt;gds&#45;monitor&#45;apps -->
<g id="edge3" class="edge">
<title>gds&#45;gui&#45;&gt;gds&#45;monitor&#45;apps</title>
<path fill="none" stroke="black" d="M184.33,-196.41C175.76,-187.97 165.17,-177.53 155.63,-168.12"/>
<polygon fill="black" stroke="black" points="158.25,-165.79 148.68,-161.26 153.34,-170.78 158.25,-165.79"/>
</g>
<!-- cds&#45;crtools -->
<g id="node7" class="node">
<title>cds&#45;crtools</title>
<g id="a_node7"><a xlink:href="https://github.com/conda-forge/cds-crtools-feedstock" xlink:title="cds crtools">
<ellipse fill="#35b779" stroke="black" cx="490.15" cy="-178" rx="65.41" ry="18"/>
<text text-anchor="middle" x="490.15" y="-173.32" font-family="Times,serif" font-size="14.00">cds crtools</text>
</a>
</g>
</g>
<!-- vetoperf&#45;&gt;upv -->
<g id="edge4" class="edge">
<title>vetoperf&#45;&gt;upv</title>
<path fill="none" stroke="black" d="M334.83,-160.05C339.42,-152.03 345.01,-142.26 350.12,-133.3"/>
<polygon fill="black" stroke="black" points="353.16,-135.04 355.08,-124.62 347.08,-131.57 353.16,-135.04"/>
</g>
<!-- gds&#45;dmt -->
<g id="node11" class="node">
<title>gds&#45;dmt</title>
<g id="a_node11"><a xlink:href="https://github.com/conda-forge/gds-dmt-feedstock/pull/4" xlink:title="gds dmt ✓">
<ellipse fill="#31688e" stroke="black" cx="60.15" cy="-214" rx="60.15" ry="18"/>
<text text-anchor="middle" x="60.15" y="-209.32" font-family="Times,serif" font-size="14.00" fill="white">gds dmt ✓</text>
</a>
</g>
</g>
<!-- gds&#45;dmt&#45;&gt;gds&#45;monitor&#45;apps -->
<g id="edge5" class="edge">
<title>gds&#45;dmt&#45;&gt;gds&#45;monitor&#45;apps</title>
<path fill="none" stroke="black" d="M76.74,-196.41C85.25,-187.91 95.78,-177.37 105.24,-167.91"/>
<polygon fill="black" stroke="black" points="107.53,-170.57 112.13,-161.03 102.58,-165.62 107.53,-170.57"/>
</g>
</g>
</svg>
