<?xml version="1.0" encoding="UTF-8" standalone="no"?>
<!DOCTYPE svg PUBLIC "-//W3C//DTD SVG 1.1//EN"
 "http://www.w3.org/Graphics/SVG/1.1/DTD/svg11.dtd">
<!-- Generated by graphviz version 11.0.0 (20240519.1550)
 -->
<!-- Pages: 1 -->
<svg width="497pt" height="276pt"
 viewBox="0.00 0.00 496.73 276.00" xmlns="http://www.w3.org/2000/svg" xmlns:xlink="http://www.w3.org/1999/xlink">
<g id="graph0" class="graph" transform="scale(1 1) rotate(0) translate(4 272)">
<polygon fill="white" stroke="none" points="-4,4 -4,-272 492.73,-272 492.73,4 -4,4"/>
<!-- stir -->
<g id="node1" class="node">
<title>stir</title>
<g id="a_node1"><a xlink:href="https://github.com/conda-forge/stir-feedstock" xlink:title="stir">
<ellipse fill="#000000" stroke="black" cx="72.31" cy="-18" rx="28.59" ry="18"/>
<text text-anchor="middle" x="72.31" y="-13.32" font-family="Times,serif" font-size="14.00" fill="white">stir</text>
</a>
</g>
</g>
<!-- ostaphep -->
<g id="node2" class="node">
<title>ostaphep</title>
<g id="a_node2"><a xlink:href="https://github.com/conda-forge/ostaphep-feedstock" xlink:title="ostaphep">
<ellipse fill="#ff8c00" stroke="black" cx="72.31" cy="-62" rx="57" ry="18"/>
<text text-anchor="middle" x="72.31" y="-57.33" font-family="Times,serif" font-size="14.00">ostaphep</text>
</a>
</g>
</g>
<!-- omicron -->
<g id="node3" class="node">
<title>omicron</title>
<g id="a_node3"><a xlink:href="https://github.com/conda-forge/omicron-feedstock" xlink:title="omicron">
<ellipse fill="#35b779" stroke="black" cx="93.31" cy="-250" rx="51.73" ry="18"/>
<text text-anchor="middle" x="93.31" y="-245.32" font-family="Times,serif" font-size="14.00">omicron</text>
</a>
</g>
</g>
<!-- vetoperf -->
<g id="node8" class="node">
<title>vetoperf</title>
<g id="a_node8"><a xlink:href="https://github.com/conda-forge/vetoperf-feedstock" xlink:title="vetoperf">
<ellipse fill="#fde725" stroke="black" cx="53.31" cy="-178" rx="53.31" ry="18"/>
<text text-anchor="middle" x="53.31" y="-173.32" font-family="Times,serif" font-size="14.00">vetoperf</text>
</a>
</g>
</g>
<!-- omicron&#45;&gt;vetoperf -->
<g id="edge2" class="edge">
<title>omicron&#45;&gt;vetoperf</title>
<path fill="none" stroke="black" d="M83.63,-232.05C79.11,-224.14 73.62,-214.54 68.56,-205.69"/>
<polygon fill="black" stroke="black" points="71.66,-204.05 63.66,-197.1 65.58,-207.52 71.66,-204.05"/>
</g>
<!-- upv -->
<g id="node9" class="node">
<title>upv</title>
<g id="a_node9"><a xlink:href="https://github.com/conda-forge/upv-feedstock" xlink:title="upv">
<ellipse fill="#fde725" stroke="black" cx="93.31" cy="-106" rx="29.64" ry="18"/>
<text text-anchor="middle" x="93.31" y="-101.33" font-family="Times,serif" font-size="14.00">upv</text>
</a>
</g>
</g>
<!-- omicron&#45;&gt;upv -->
<g id="edge1" class="edge">
<title>omicron&#45;&gt;upv</title>
<path fill="none" stroke="black" d="M102.44,-231.88C107.32,-221.76 112.82,-208.51 115.31,-196 118.44,-180.31 118.44,-175.69 115.31,-160 113.57,-151.27 110.37,-142.17 106.93,-134.03"/>
<polygon fill="black" stroke="black" points="110.16,-132.69 102.84,-125.03 103.79,-135.58 110.16,-132.69"/>
</g>
<!-- hammer -->
<g id="node4" class="node">
<title>hammer</title>
<g id="a_node4"><a xlink:href="https://github.com/conda-forge/hammer-feedstock" xlink:title="hammer">
<ellipse fill="#000000" stroke="black" cx="251.31" cy="-62" rx="52.79" ry="18"/>
<text text-anchor="middle" x="251.31" y="-57.33" font-family="Times,serif" font-size="14.00" fill="white">hammer</text>
</a>
</g>
</g>
<!-- yoda -->
<g id="node5" class="node">
<title>yoda</title>
<g id="a_node5"><a xlink:href="https://github.com/conda-forge/yoda-feedstock" xlink:title="yoda">
<ellipse fill="#ff8c00" stroke="black" cx="423.31" cy="-62" rx="34.9" ry="18"/>
<text text-anchor="middle" x="423.31" y="-57.33" font-family="Times,serif" font-size="14.00">yoda</text>
</a>
</g>
</g>
<!-- gds&#45;gui -->
<g id="node6" class="node">
<title>gds&#45;gui</title>
<g id="a_node6"><a xlink:href="https://github.com/conda-forge/gds-gui-feedstock/pull/23" xlink:title="gds gui ❎">
<ellipse fill="#31688e" stroke="black" cx="251.31" cy="-214" rx="63.31" ry="18"/>
<text text-anchor="middle" x="251.31" y="-209.32" font-family="Times,serif" font-size="14.00" fill="white">gds gui ❎</text>
</a>
</g>
</g>
<!-- gds&#45;monitor&#45;apps -->
<g id="node10" class="node">
<title>gds&#45;monitor&#45;apps</title>
<g id="a_node10"><a xlink:href="https://github.com/conda-forge/gds-monitor-apps-feedstock" xlink:title="gds monitor apps">
<ellipse fill="#fde725" stroke="black" cx="251.31" cy="-142" rx="98.56" ry="18"/>
<text text-anchor="middle" x="251.31" y="-137.32" font-family="Times,serif" font-size="14.00">gds monitor apps</text>
</a>
</g>
</g>
<!-- gds&#45;gui&#45;&gt;gds&#45;monitor&#45;apps -->
<g id="edge3" class="edge">
<title>gds&#45;gui&#45;&gt;gds&#45;monitor&#45;apps</title>
<path fill="none" stroke="black" d="M251.31,-195.7C251.31,-188.41 251.31,-179.73 251.31,-171.54"/>
<polygon fill="black" stroke="black" points="254.81,-171.62 251.31,-161.62 247.81,-171.62 254.81,-171.62"/>
</g>
<!-- cds&#45;crtools -->
<g id="node7" class="node">
<title>cds&#45;crtools</title>
<g id="a_node7"><a xlink:href="https://github.com/conda-forge/cds-crtools-feedstock" xlink:title="cds crtools">
<ellipse fill="#35b779" stroke="black" cx="423.31" cy="-178" rx="65.41" ry="18"/>
<text text-anchor="middle" x="423.31" y="-173.32" font-family="Times,serif" font-size="14.00">cds crtools</text>
</a>
</g>
</g>
<!-- vetoperf&#45;&gt;upv -->
<g id="edge4" class="edge">
<title>vetoperf&#45;&gt;upv</title>
<path fill="none" stroke="black" d="M63,-160.05C67.58,-152.03 73.17,-142.26 78.29,-133.3"/>
<polygon fill="black" stroke="black" points="81.32,-135.04 83.24,-124.62 75.24,-131.57 81.32,-135.04"/>
</g>
</g>
</svg>
