<?xml version="1.0" encoding="UTF-8" standalone="no"?>
<!DOCTYPE svg PUBLIC "-//W3C//DTD SVG 1.1//EN"
 "http://www.w3.org/Graphics/SVG/1.1/DTD/svg11.dtd">
<!-- Generated by graphviz version 11.0.0 (20240519.1550)
 -->
<!-- Pages: 1 -->
<svg width="668pt" height="520pt"
 viewBox="0.00 0.00 667.81 520.00" xmlns="http://www.w3.org/2000/svg" xmlns:xlink="http://www.w3.org/1999/xlink">
<g id="graph0" class="graph" transform="scale(1 1) rotate(0) translate(4 516)">
<polygon fill="white" stroke="none" points="-4,4 -4,-516 663.81,-516 663.81,4 -4,4"/>
<!-- stir -->
<g id="node1" class="node">
<title>stir</title>
<g id="a_node1"><a xlink:href="https://github.com/conda-forge/stir-feedstock" xlink:title="stir">
<ellipse fill="#000000" stroke="black" cx="117.5" cy="-494" rx="28.59" ry="18"/>
<text text-anchor="middle" x="117.5" y="-489.32" font-family="Times,serif" font-size="14.00" fill="white">stir</text>
</a>
</g>
</g>
<!-- ostaphep -->
<g id="node2" class="node">
<title>ostaphep</title>
<g id="a_node2"><a xlink:href="https://github.com/conda-forge/ostaphep-feedstock" xlink:title="ostaphep">
<ellipse fill="#ff8c00" stroke="black" cx="117.5" cy="-422" rx="57" ry="18"/>
<text text-anchor="middle" x="117.5" y="-417.32" font-family="Times,serif" font-size="14.00">ostaphep</text>
</a>
</g>
</g>
<!-- stir&#45;&gt;ostaphep -->
<!-- lhcb&#45;simpletools -->
<g id="node3" class="node">
<title>lhcb&#45;simpletools</title>
<g id="a_node3"><a xlink:href="https://github.com/conda-forge/lhcb-simpletools-feedstock/pull/33" xlink:title="lhcb simpletools ✓">
<ellipse fill="#31688e" stroke="black" cx="117.5" cy="-350" rx="100.66" ry="18"/>
<text text-anchor="middle" x="117.5" y="-345.32" font-family="Times,serif" font-size="14.00" fill="white">lhcb simpletools ✓</text>
</a>
</g>
</g>
<!-- ostaphep&#45;&gt;lhcb&#45;simpletools -->
<!-- hammer -->
<g id="node4" class="node">
<title>hammer</title>
<g id="a_node4"><a xlink:href="https://github.com/conda-forge/hammer-feedstock" xlink:title="hammer">
<ellipse fill="#000000" stroke="black" cx="117.5" cy="-278" rx="52.79" ry="18"/>
<text text-anchor="middle" x="117.5" y="-273.32" font-family="Times,serif" font-size="14.00" fill="white">hammer</text>
</a>
</g>
</g>
<!-- lhcb&#45;simpletools&#45;&gt;hammer -->
<!-- yoda -->
<g id="node9" class="node">
<title>yoda</title>
<g id="a_node9"><a xlink:href="https://github.com/conda-forge/yoda-feedstock" xlink:title="yoda">
<ellipse fill="#ff8c00" stroke="black" cx="117.5" cy="-206" rx="34.9" ry="18"/>
<text text-anchor="middle" x="117.5" y="-201.33" font-family="Times,serif" font-size="14.00">yoda</text>
</a>
</g>
</g>
<!-- hammer&#45;&gt;yoda -->
<!-- gwollum -->
<g id="node5" class="node">
<title>gwollum</title>
<g id="a_node5"><a xlink:href="https://github.com/conda-forge/gwollum-feedstock/pull/57" xlink:title="gwollum ✓">
<ellipse fill="#31688e" stroke="black" cx="355.5" cy="-422" rx="61.73" ry="18"/>
<text text-anchor="middle" x="355.5" y="-417.32" font-family="Times,serif" font-size="14.00" fill="white">gwollum ✓</text>
</a>
</g>
</g>
<!-- omicron -->
<g id="node6" class="node">
<title>omicron</title>
<g id="a_node6"><a xlink:href="https://github.com/conda-forge/omicron-feedstock" xlink:title="omicron">
<ellipse fill="#fde725" stroke="black" cx="355.5" cy="-350" rx="51.74" ry="18"/>
<text text-anchor="middle" x="355.5" y="-345.32" font-family="Times,serif" font-size="14.00">omicron</text>
</a>
</g>
</g>
<!-- gwollum&#45;&gt;omicron -->
<g id="edge4" class="edge">
<title>gwollum&#45;&gt;omicron</title>
<path fill="none" stroke="black" d="M355.5,-403.7C355.5,-396.41 355.5,-387.73 355.5,-379.54"/>
<polygon fill="black" stroke="black" points="359,-379.62 355.5,-369.62 352,-379.62 359,-379.62"/>
</g>
<!-- vetoperf -->
<g id="node7" class="node">
<title>vetoperf</title>
<g id="a_node7"><a xlink:href="https://github.com/conda-forge/vetoperf-feedstock" xlink:title="vetoperf">
<ellipse fill="#fde725" stroke="black" cx="296.5" cy="-278" rx="53.31" ry="18"/>
<text text-anchor="middle" x="296.5" y="-273.32" font-family="Times,serif" font-size="14.00">vetoperf</text>
</a>
</g>
</g>
<!-- gwollum&#45;&gt;vetoperf -->
<g id="edge5" class="edge">
<title>gwollum&#45;&gt;vetoperf</title>
<path fill="none" stroke="black" d="M328.69,-405.44C315.78,-396.34 301.6,-383.57 294.5,-368 285.91,-349.17 286.86,-325.69 289.71,-307.58"/>
<polygon fill="black" stroke="black" points="293.14,-308.25 291.55,-297.77 286.26,-306.95 293.14,-308.25"/>
</g>
<!-- upv -->
<g id="node8" class="node">
<title>upv</title>
<g id="a_node8"><a xlink:href="https://github.com/conda-forge/upv-feedstock" xlink:title="upv">
<ellipse fill="#fde725" stroke="black" cx="377.5" cy="-206" rx="29.64" ry="18"/>
<text text-anchor="middle" x="377.5" y="-201.32" font-family="Times,serif" font-size="14.00">upv</text>
</a>
</g>
</g>
<!-- gwollum&#45;&gt;upv -->
<g id="edge6" class="edge">
<title>gwollum&#45;&gt;upv</title>
<path fill="none" stroke="black" d="M382.31,-405.44C395.21,-396.34 409.4,-383.57 416.5,-368 437.06,-322.9 412.26,-265.55 393.86,-232.89"/>
<polygon fill="black" stroke="black" points="397.02,-231.36 388.94,-224.51 390.98,-234.9 397.02,-231.36"/>
</g>
<!-- omicron&#45;&gt;vetoperf -->
<g id="edge7" class="edge">
<title>omicron&#45;&gt;vetoperf</title>
<path fill="none" stroke="black" d="M341.52,-332.41C334.39,-323.95 325.57,-313.49 317.64,-304.08"/>
<polygon fill="black" stroke="black" points="320.48,-302.02 311.36,-296.63 315.12,-306.53 320.48,-302.02"/>
</g>
<!-- omicron&#45;&gt;upv -->
<g id="edge8" class="edge">
<title>omicron&#45;&gt;upv</title>
<path fill="none" stroke="black" d="M358.2,-331.59C361.91,-307.61 368.64,-264.14 373.1,-235.42"/>
<polygon fill="black" stroke="black" points="376.54,-236.02 374.62,-225.61 369.63,-234.95 376.54,-236.02"/>
</g>
<!-- vetoperf&#45;&gt;upv -->
<g id="edge9" class="edge">
<title>vetoperf&#45;&gt;upv</title>
<path fill="none" stroke="black" d="M315.28,-260.76C326.31,-251.24 340.38,-239.08 352.35,-228.73"/>
<polygon fill="black" stroke="black" points="354.59,-231.43 359.86,-222.24 350.01,-226.13 354.59,-231.43"/>
</g>
<!-- cwb -->
<g id="node10" class="node">
<title>cwb</title>
<g id="a_node10"><a xlink:href="https://github.com/conda-forge/cwb-feedstock/pull/25" xlink:title="cwb ✓">
<ellipse fill="#31688e" stroke="black" cx="117.5" cy="-134" rx="39.11" ry="18"/>
<text text-anchor="middle" x="117.5" y="-129.32" font-family="Times,serif" font-size="14.00" fill="white">cwb ✓</text>
</a>
</g>
</g>
<!-- yoda&#45;&gt;cwb -->
<!-- gds&#45;root&#45;extensions -->
<g id="node11" class="node">
<title>gds&#45;root&#45;extensions</title>
<g id="a_node11"><a xlink:href="https://github.com/conda-forge/gds-root-extensions-feedstock/pull/32" xlink:title="gds root extensions ✓">
<ellipse fill="#31688e" stroke="black" cx="117.5" cy="-90" rx="117.5" ry="18"/>
<text text-anchor="middle" x="117.5" y="-85.33" font-family="Times,serif" font-size="14.00" fill="white">gds root extensions ✓</text>
</a>
</g>
</g>
<!-- cds&#45;crtools -->
<g id="node12" class="node">
<title>cds&#45;crtools</title>
<g id="a_node12"><a xlink:href="https://github.com/conda-forge/cds-crtools-feedstock" xlink:title="cds crtools">
<ellipse fill="#fde725" stroke="black" cx="117.5" cy="-18" rx="65.41" ry="18"/>
<text text-anchor="middle" x="117.5" y="-13.32" font-family="Times,serif" font-size="14.00">cds crtools</text>
</a>
</g>
</g>
<!-- gds&#45;root&#45;extensions&#45;&gt;cds&#45;crtools -->
<g id="edge12" class="edge">
<title>gds&#45;root&#45;extensions&#45;&gt;cds&#45;crtools</title>
<path fill="none" stroke="black" d="M117.5,-71.7C117.5,-64.41 117.5,-55.73 117.5,-47.54"/>
<polygon fill="black" stroke="black" points="121,-47.62 117.5,-37.62 114,-47.62 121,-47.62"/>
</g>
<!-- gds&#45;gui -->
<g id="node13" class="node">
<title>gds&#45;gui</title>
<g id="a_node13"><a xlink:href="https://github.com/conda-forge/gds-gui-feedstock/pull/23" xlink:title="gds gui ❎">
<ellipse fill="#31688e" stroke="black" cx="596.5" cy="-314" rx="63.31" ry="18"/>
<text text-anchor="middle" x="596.5" y="-309.32" font-family="Times,serif" font-size="14.00" fill="white">gds gui ❎</text>
</a>
</g>
</g>
<!-- gds&#45;monitor&#45;apps -->
<g id="node14" class="node">
<title>gds&#45;monitor&#45;apps</title>
<g id="a_node14"><a xlink:href="https://github.com/conda-forge/gds-monitor-apps-feedstock" xlink:title="gds monitor apps">
<ellipse fill="#fde725" stroke="black" cx="550.5" cy="-242" rx="98.56" ry="18"/>
<text text-anchor="middle" x="550.5" y="-237.32" font-family="Times,serif" font-size="14.00">gds monitor apps</text>
</a>
</g>
</g>
<!-- gds&#45;gui&#45;&gt;gds&#45;monitor&#45;apps -->
<g id="edge13" class="edge">
<title>gds&#45;gui&#45;&gt;gds&#45;monitor&#45;apps</title>
<path fill="none" stroke="black" d="M585.36,-296.05C580.19,-288.18 573.9,-278.62 568.11,-269.79"/>
<polygon fill="black" stroke="black" points="571.1,-267.98 562.68,-261.54 565.25,-271.82 571.1,-267.98"/>
</g>
<!-- gds&#45;dmt -->
<g id="node15" class="node">
<title>gds&#45;dmt</title>
<g id="a_node15"><a xlink:href="https://github.com/conda-forge/gds-dmt-feedstock/pull/4" xlink:title="gds dmt ✓">
<ellipse fill="#31688e" stroke="black" cx="505.5" cy="-386" rx="60.15" ry="18"/>
<text text-anchor="middle" x="505.5" y="-381.32" font-family="Times,serif" font-size="14.00" fill="white">gds dmt ✓</text>
</a>
</g>
</g>
<!-- gds&#45;dmt&#45;&gt;gds&#45;monitor&#45;apps -->
<g id="edge14" class="edge">
<title>gds&#45;dmt&#45;&gt;gds&#45;monitor&#45;apps</title>
<path fill="none" stroke="black" d="M507.92,-367.6C510.74,-349.4 516.13,-320.19 524.5,-296 527.48,-287.38 531.53,-278.35 535.55,-270.23"/>
<polygon fill="black" stroke="black" points="538.55,-272.04 540.02,-261.55 532.33,-268.83 538.55,-272.04"/>
</g>
</g>
</svg>
