<?xml version="1.0" encoding="UTF-8" standalone="no"?>
<!DOCTYPE svg PUBLIC "-//W3C//DTD SVG 1.1//EN"
 "http://www.w3.org/Graphics/SVG/1.1/DTD/svg11.dtd">
<!-- Generated by graphviz version 11.0.0 (20240519.1550)
 -->
<!-- Pages: 1 -->
<svg width="717pt" height="348pt"
 viewBox="0.00 0.00 716.81 348.00" xmlns="http://www.w3.org/2000/svg" xmlns:xlink="http://www.w3.org/1999/xlink">
<g id="graph0" class="graph" transform="scale(1 1) rotate(0) translate(4 344)">
<polygon fill="white" stroke="none" points="-4,4 -4,-344 712.81,-344 712.81,4 -4,4"/>
<!-- stir -->
<g id="node1" class="node">
<title>stir</title>
<g id="a_node1"><a xlink:href="https://github.com/conda-forge/stir-feedstock" xlink:title="stir">
<ellipse fill="#000000" stroke="black" cx="96.31" cy="-18" rx="28.59" ry="18"/>
<text text-anchor="middle" x="96.31" y="-13.32" font-family="Times,serif" font-size="14.00" fill="white">stir</text>
</a>
</g>
</g>
<!-- ostaphep -->
<g id="node2" class="node">
<title>ostaphep</title>
<g id="a_node2"><a xlink:href="https://github.com/conda-forge/ostaphep-feedstock" xlink:title="ostaphep">
<ellipse fill="#ff8c00" stroke="black" cx="96.31" cy="-62" rx="57" ry="18"/>
<text text-anchor="middle" x="96.31" y="-57.33" font-family="Times,serif" font-size="14.00">ostaphep</text>
</a>
</g>
</g>
<!-- gwollum -->
<g id="node3" class="node">
<title>gwollum</title>
<g id="a_node3"><a xlink:href="https://github.com/conda-forge/gwollum-feedstock/pull/57" xlink:title="gwollum ✓">
<ellipse fill="#31688e" stroke="black" cx="112.31" cy="-322" rx="61.73" ry="18"/>
<text text-anchor="middle" x="112.31" y="-317.32" font-family="Times,serif" font-size="14.00" fill="white">gwollum ✓</text>
</a>
</g>
</g>
<!-- omicron -->
<g id="node4" class="node">
<title>omicron</title>
<g id="a_node4"><a xlink:href="https://github.com/conda-forge/omicron-feedstock" xlink:title="omicron">
<ellipse fill="#fde725" stroke="black" cx="112.31" cy="-250" rx="51.73" ry="18"/>
<text text-anchor="middle" x="112.31" y="-245.32" font-family="Times,serif" font-size="14.00">omicron</text>
</a>
</g>
</g>
<!-- gwollum&#45;&gt;omicron -->
<g id="edge1" class="edge">
<title>gwollum&#45;&gt;omicron</title>
<path fill="none" stroke="black" d="M112.31,-303.7C112.31,-296.41 112.31,-287.73 112.31,-279.54"/>
<polygon fill="black" stroke="black" points="115.81,-279.62 112.31,-269.62 108.81,-279.62 115.81,-279.62"/>
</g>
<!-- vetoperf -->
<g id="node10" class="node">
<title>vetoperf</title>
<g id="a_node10"><a xlink:href="https://github.com/conda-forge/vetoperf-feedstock" xlink:title="vetoperf">
<ellipse fill="#fde725" stroke="black" cx="53.31" cy="-178" rx="53.31" ry="18"/>
<text text-anchor="middle" x="53.31" y="-173.32" font-family="Times,serif" font-size="14.00">vetoperf</text>
</a>
</g>
</g>
<!-- gwollum&#45;&gt;vetoperf -->
<g id="edge3" class="edge">
<title>gwollum&#45;&gt;vetoperf</title>
<path fill="none" stroke="black" d="M85.51,-305.44C72.6,-296.34 58.41,-283.57 51.31,-268 42.73,-249.17 43.67,-225.69 46.52,-207.58"/>
<polygon fill="black" stroke="black" points="49.96,-208.25 48.37,-197.77 43.08,-206.95 49.96,-208.25"/>
</g>
<!-- upv -->
<g id="node11" class="node">
<title>upv</title>
<g id="a_node11"><a xlink:href="https://github.com/conda-forge/upv-feedstock" xlink:title="upv">
<ellipse fill="#fde725" stroke="black" cx="134.31" cy="-106" rx="29.64" ry="18"/>
<text text-anchor="middle" x="134.31" y="-101.33" font-family="Times,serif" font-size="14.00">upv</text>
</a>
</g>
</g>
<!-- gwollum&#45;&gt;upv -->
<g id="edge2" class="edge">
<title>gwollum&#45;&gt;upv</title>
<path fill="none" stroke="black" d="M139.12,-305.44C152.03,-296.34 166.21,-283.57 173.31,-268 193.87,-222.9 169.07,-165.55 150.67,-132.89"/>
<polygon fill="black" stroke="black" points="153.83,-131.36 145.75,-124.51 147.79,-134.9 153.83,-131.36"/>
</g>
<!-- omicron&#45;&gt;vetoperf -->
<g id="edge5" class="edge">
<title>omicron&#45;&gt;vetoperf</title>
<path fill="none" stroke="black" d="M98.33,-232.41C91.2,-223.95 82.39,-213.49 74.45,-204.08"/>
<polygon fill="black" stroke="black" points="77.29,-202.02 68.17,-196.63 71.94,-206.53 77.29,-202.02"/>
</g>
<!-- omicron&#45;&gt;upv -->
<g id="edge4" class="edge">
<title>omicron&#45;&gt;upv</title>
<path fill="none" stroke="black" d="M115.01,-231.59C118.72,-207.61 125.46,-164.14 129.91,-135.42"/>
<polygon fill="black" stroke="black" points="133.36,-136.02 131.43,-125.61 126.44,-134.95 133.36,-136.02"/>
</g>
<!-- hammer -->
<g id="node5" class="node">
<title>hammer</title>
<g id="a_node5"><a xlink:href="https://github.com/conda-forge/hammer-feedstock" xlink:title="hammer">
<ellipse fill="#000000" stroke="black" cx="334.31" cy="-62" rx="52.79" ry="18"/>
<text text-anchor="middle" x="334.31" y="-57.33" font-family="Times,serif" font-size="14.00" fill="white">hammer</text>
</a>
</g>
</g>
<!-- yoda -->
<g id="node6" class="node">
<title>yoda</title>
<g id="a_node6"><a xlink:href="https://github.com/conda-forge/yoda-feedstock" xlink:title="yoda">
<ellipse fill="#ff8c00" stroke="black" cx="591.31" cy="-62" rx="34.9" ry="18"/>
<text text-anchor="middle" x="591.31" y="-57.33" font-family="Times,serif" font-size="14.00">yoda</text>
</a>
</g>
</g>
<!-- gds&#45;root&#45;extensions -->
<g id="node7" class="node">
<title>gds&#45;root&#45;extensions</title>
<g id="a_node7"><a xlink:href="https://github.com/conda-forge/gds-root-extensions-feedstock/pull/32" xlink:title="gds root extensions ✓">
<ellipse fill="#31688e" stroke="black" cx="591.31" cy="-250" rx="117.5" ry="18"/>
<text text-anchor="middle" x="591.31" y="-245.32" font-family="Times,serif" font-size="14.00" fill="white">gds root extensions ✓</text>
</a>
</g>
</g>
<!-- cds&#45;crtools -->
<g id="node9" class="node">
<title>cds&#45;crtools</title>
<g id="a_node9"><a xlink:href="https://github.com/conda-forge/cds-crtools-feedstock" xlink:title="cds crtools">
<ellipse fill="#fde725" stroke="black" cx="591.31" cy="-178" rx="65.41" ry="18"/>
<text text-anchor="middle" x="591.31" y="-173.32" font-family="Times,serif" font-size="14.00">cds crtools</text>
</a>
</g>
</g>
<!-- gds&#45;root&#45;extensions&#45;&gt;cds&#45;crtools -->
<g id="edge6" class="edge">
<title>gds&#45;root&#45;extensions&#45;&gt;cds&#45;crtools</title>
<path fill="none" stroke="black" d="M591.31,-231.7C591.31,-224.41 591.31,-215.73 591.31,-207.54"/>
<polygon fill="black" stroke="black" points="594.81,-207.62 591.31,-197.62 587.81,-207.62 594.81,-207.62"/>
</g>
<!-- gds&#45;gui -->
<g id="node8" class="node">
<title>gds&#45;gui</title>
<g id="a_node8"><a xlink:href="https://github.com/conda-forge/gds-gui-feedstock/pull/23" xlink:title="gds gui ❎">
<ellipse fill="#31688e" stroke="black" cx="403.31" cy="-250" rx="63.31" ry="18"/>
<text text-anchor="middle" x="403.31" y="-245.32" font-family="Times,serif" font-size="14.00" fill="white">gds gui ❎</text>
</a>
</g>
</g>
<!-- gds&#45;monitor&#45;apps -->
<g id="node12" class="node">
<title>gds&#45;monitor&#45;apps</title>
<g id="a_node12"><a xlink:href="https://github.com/conda-forge/gds-monitor-apps-feedstock" xlink:title="gds monitor apps">
<ellipse fill="#fde725" stroke="black" cx="332.31" cy="-178" rx="98.56" ry="18"/>
<text text-anchor="middle" x="332.31" y="-173.32" font-family="Times,serif" font-size="14.00">gds monitor apps</text>
</a>
</g>
</g>
<!-- gds&#45;gui&#45;&gt;gds&#45;monitor&#45;apps -->
<g id="edge7" class="edge">
<title>gds&#45;gui&#45;&gt;gds&#45;monitor&#45;apps</title>
<path fill="none" stroke="black" d="M386.49,-232.41C377.92,-223.97 367.33,-213.53 357.79,-204.12"/>
<polygon fill="black" stroke="black" points="360.42,-201.79 350.84,-197.26 355.5,-206.78 360.42,-201.79"/>
</g>
<!-- vetoperf&#45;&gt;upv -->
<g id="edge8" class="edge">
<title>vetoperf&#45;&gt;upv</title>
<path fill="none" stroke="black" d="M72.1,-160.76C83.12,-151.24 97.19,-139.08 109.16,-128.73"/>
<polygon fill="black" stroke="black" points="111.4,-131.43 116.68,-122.24 106.82,-126.13 111.4,-131.43"/>
</g>
<!-- gds&#45;dmt -->
<g id="node13" class="node">
<title>gds&#45;dmt</title>
<g id="a_node13"><a xlink:href="https://github.com/conda-forge/gds-dmt-feedstock/pull/4" xlink:title="gds dmt ✓">
<ellipse fill="#31688e" stroke="black" cx="262.31" cy="-250" rx="60.15" ry="18"/>
<text text-anchor="middle" x="262.31" y="-245.32" font-family="Times,serif" font-size="14.00" fill="white">gds dmt ✓</text>
</a>
</g>
</g>
<!-- gds&#45;dmt&#45;&gt;gds&#45;monitor&#45;apps -->
<g id="edge9" class="edge">
<title>gds&#45;dmt&#45;&gt;gds&#45;monitor&#45;apps</title>
<path fill="none" stroke="black" d="M278.9,-232.41C287.41,-223.91 297.94,-213.37 307.4,-203.91"/>
<polygon fill="black" stroke="black" points="309.69,-206.57 314.29,-197.03 304.74,-201.62 309.69,-206.57"/>
</g>
</g>
</svg>
