<?xml version="1.0" encoding="UTF-8" standalone="no"?>
<!DOCTYPE svg PUBLIC "-//W3C//DTD SVG 1.1//EN"
 "http://www.w3.org/Graphics/SVG/1.1/DTD/svg11.dtd">
<!-- Generated by graphviz version 11.0.0 (20240519.1550)
 -->
<!-- Pages: 1 -->
<svg width="725pt" height="348pt"
 viewBox="0.00 0.00 725.16 348.00" xmlns="http://www.w3.org/2000/svg" xmlns:xlink="http://www.w3.org/1999/xlink">
<g id="graph0" class="graph" transform="scale(1 1) rotate(0) translate(4 344)">
<polygon fill="white" stroke="none" points="-4,4 -4,-344 721.16,-344 721.16,4 -4,4"/>
<!-- stir -->
<g id="node1" class="node">
<title>stir</title>
<g id="a_node1"><a xlink:href="https://github.com/conda-forge/stir-feedstock" xlink:title="stir">
<ellipse fill="#000000" stroke="black" cx="341.66" cy="-18" rx="28.59" ry="18"/>
<text text-anchor="middle" x="341.66" y="-13.32" font-family="Times,serif" font-size="14.00" fill="white">stir</text>
</a>
</g>
</g>
<!-- ostaphep -->
<g id="node2" class="node">
<title>ostaphep</title>
<g id="a_node2"><a xlink:href="https://github.com/conda-forge/ostaphep-feedstock" xlink:title="ostaphep">
<ellipse fill="#ff8c00" stroke="black" cx="341.66" cy="-62" rx="57" ry="18"/>
<text text-anchor="middle" x="341.66" y="-57.33" font-family="Times,serif" font-size="14.00">ostaphep</text>
</a>
</g>
</g>
<!-- lhcb&#45;simpletools -->
<g id="node3" class="node">
<title>lhcb&#45;simpletools</title>
<g id="a_node3"><a xlink:href="https://github.com/conda-forge/lhcb-simpletools-feedstock/pull/33" xlink:title="lhcb simpletools ✓">
<ellipse fill="#31688e" stroke="black" cx="100.66" cy="-62" rx="100.66" ry="18"/>
<text text-anchor="middle" x="100.66" y="-57.33" font-family="Times,serif" font-size="14.00" fill="white">lhcb simpletools ✓</text>
</a>
</g>
</g>
<!-- gwollum -->
<g id="node4" class="node">
<title>gwollum</title>
<g id="a_node4"><a xlink:href="https://github.com/conda-forge/gwollum-feedstock/pull/57" xlink:title="gwollum ✓">
<ellipse fill="#31688e" stroke="black" cx="116.66" cy="-322" rx="61.73" ry="18"/>
<text text-anchor="middle" x="116.66" y="-317.32" font-family="Times,serif" font-size="14.00" fill="white">gwollum ✓</text>
</a>
</g>
</g>
<!-- omicron -->
<g id="node5" class="node">
<title>omicron</title>
<g id="a_node5"><a xlink:href="https://github.com/conda-forge/omicron-feedstock" xlink:title="omicron">
<ellipse fill="#fde725" stroke="black" cx="116.66" cy="-250" rx="51.73" ry="18"/>
<text text-anchor="middle" x="116.66" y="-245.32" font-family="Times,serif" font-size="14.00">omicron</text>
</a>
</g>
</g>
<!-- gwollum&#45;&gt;omicron -->
<g id="edge1" class="edge">
<title>gwollum&#45;&gt;omicron</title>
<path fill="none" stroke="black" d="M116.66,-303.7C116.66,-296.41 116.66,-287.73 116.66,-279.54"/>
<polygon fill="black" stroke="black" points="120.16,-279.62 116.66,-269.62 113.16,-279.62 120.16,-279.62"/>
</g>
<!-- vetoperf -->
<g id="node11" class="node">
<title>vetoperf</title>
<g id="a_node11"><a xlink:href="https://github.com/conda-forge/vetoperf-feedstock" xlink:title="vetoperf">
<ellipse fill="#fde725" stroke="black" cx="57.66" cy="-178" rx="53.31" ry="18"/>
<text text-anchor="middle" x="57.66" y="-173.32" font-family="Times,serif" font-size="14.00">vetoperf</text>
</a>
</g>
</g>
<!-- gwollum&#45;&gt;vetoperf -->
<g id="edge3" class="edge">
<title>gwollum&#45;&gt;vetoperf</title>
<path fill="none" stroke="black" d="M89.86,-305.44C76.95,-296.34 62.76,-283.57 55.66,-268 47.08,-249.17 48.02,-225.69 50.87,-207.58"/>
<polygon fill="black" stroke="black" points="54.31,-208.25 52.72,-197.77 47.43,-206.95 54.31,-208.25"/>
</g>
<!-- upv -->
<g id="node12" class="node">
<title>upv</title>
<g id="a_node12"><a xlink:href="https://github.com/conda-forge/upv-feedstock" xlink:title="upv">
<ellipse fill="#fde725" stroke="black" cx="138.66" cy="-106" rx="29.64" ry="18"/>
<text text-anchor="middle" x="138.66" y="-101.33" font-family="Times,serif" font-size="14.00">upv</text>
</a>
</g>
</g>
<!-- gwollum&#45;&gt;upv -->
<g id="edge2" class="edge">
<title>gwollum&#45;&gt;upv</title>
<path fill="none" stroke="black" d="M143.47,-305.44C156.38,-296.34 170.56,-283.57 177.66,-268 198.22,-222.9 173.42,-165.55 155.02,-132.89"/>
<polygon fill="black" stroke="black" points="158.18,-131.36 150.1,-124.51 152.14,-134.9 158.18,-131.36"/>
</g>
<!-- omicron&#45;&gt;vetoperf -->
<g id="edge5" class="edge">
<title>omicron&#45;&gt;vetoperf</title>
<path fill="none" stroke="black" d="M102.68,-232.41C95.55,-223.95 86.74,-213.49 78.8,-204.08"/>
<polygon fill="black" stroke="black" points="81.64,-202.02 72.52,-196.63 76.29,-206.53 81.64,-202.02"/>
</g>
<!-- omicron&#45;&gt;upv -->
<g id="edge4" class="edge">
<title>omicron&#45;&gt;upv</title>
<path fill="none" stroke="black" d="M119.36,-231.59C123.07,-207.61 129.81,-164.14 134.26,-135.42"/>
<polygon fill="black" stroke="black" points="137.71,-136.02 135.78,-125.61 130.79,-134.95 137.71,-136.02"/>
</g>
<!-- hammer -->
<g id="node6" class="node">
<title>hammer</title>
<g id="a_node6"><a xlink:href="https://github.com/conda-forge/hammer-feedstock" xlink:title="hammer">
<ellipse fill="#000000" stroke="black" cx="599.66" cy="-62" rx="52.79" ry="18"/>
<text text-anchor="middle" x="599.66" y="-57.33" font-family="Times,serif" font-size="14.00" fill="white">hammer</text>
</a>
</g>
</g>
<!-- yoda -->
<g id="node7" class="node">
<title>yoda</title>
<g id="a_node7"><a xlink:href="https://github.com/conda-forge/yoda-feedstock" xlink:title="yoda">
<ellipse fill="#ff8c00" stroke="black" cx="100.66" cy="-18" rx="34.9" ry="18"/>
<text text-anchor="middle" x="100.66" y="-13.32" font-family="Times,serif" font-size="14.00">yoda</text>
</a>
</g>
</g>
<!-- gds&#45;root&#45;extensions -->
<g id="node8" class="node">
<title>gds&#45;root&#45;extensions</title>
<g id="a_node8"><a xlink:href="https://github.com/conda-forge/gds-root-extensions-feedstock/pull/32" xlink:title="gds root extensions ✓">
<ellipse fill="#31688e" stroke="black" cx="599.66" cy="-250" rx="117.5" ry="18"/>
<text text-anchor="middle" x="599.66" y="-245.32" font-family="Times,serif" font-size="14.00" fill="white">gds root extensions ✓</text>
</a>
</g>
</g>
<!-- cds&#45;crtools -->
<g id="node10" class="node">
<title>cds&#45;crtools</title>
<g id="a_node10"><a xlink:href="https://github.com/conda-forge/cds-crtools-feedstock" xlink:title="cds crtools">
<ellipse fill="#fde725" stroke="black" cx="599.66" cy="-178" rx="65.41" ry="18"/>
<text text-anchor="middle" x="599.66" y="-173.32" font-family="Times,serif" font-size="14.00">cds crtools</text>
</a>
</g>
</g>
<!-- gds&#45;root&#45;extensions&#45;&gt;cds&#45;crtools -->
<g id="edge6" class="edge">
<title>gds&#45;root&#45;extensions&#45;&gt;cds&#45;crtools</title>
<path fill="none" stroke="black" d="M599.66,-231.7C599.66,-224.41 599.66,-215.73 599.66,-207.54"/>
<polygon fill="black" stroke="black" points="603.16,-207.62 599.66,-197.62 596.16,-207.62 603.16,-207.62"/>
</g>
<!-- gds&#45;gui -->
<g id="node9" class="node">
<title>gds&#45;gui</title>
<g id="a_node9"><a xlink:href="https://github.com/conda-forge/gds-gui-feedstock/pull/23" xlink:title="gds gui ❎">
<ellipse fill="#31688e" stroke="black" cx="410.66" cy="-250" rx="63.31" ry="18"/>
<text text-anchor="middle" x="410.66" y="-245.32" font-family="Times,serif" font-size="14.00" fill="white">gds gui ❎</text>
</a>
</g>
</g>
<!-- gds&#45;monitor&#45;apps -->
<g id="node13" class="node">
<title>gds&#45;monitor&#45;apps</title>
<g id="a_node13"><a xlink:href="https://github.com/conda-forge/gds-monitor-apps-feedstock" xlink:title="gds monitor apps">
<ellipse fill="#fde725" stroke="black" cx="339.66" cy="-178" rx="98.56" ry="18"/>
<text text-anchor="middle" x="339.66" y="-173.32" font-family="Times,serif" font-size="14.00">gds monitor apps</text>
</a>
</g>
</g>
<!-- gds&#45;gui&#45;&gt;gds&#45;monitor&#45;apps -->
<g id="edge7" class="edge">
<title>gds&#45;gui&#45;&gt;gds&#45;monitor&#45;apps</title>
<path fill="none" stroke="black" d="M393.84,-232.41C385.27,-223.97 374.68,-213.53 365.14,-204.12"/>
<polygon fill="black" stroke="black" points="367.77,-201.79 358.19,-197.26 362.85,-206.78 367.77,-201.79"/>
</g>
<!-- vetoperf&#45;&gt;upv -->
<g id="edge8" class="edge">
<title>vetoperf&#45;&gt;upv</title>
<path fill="none" stroke="black" d="M76.45,-160.76C87.47,-151.24 101.54,-139.08 113.51,-128.73"/>
<polygon fill="black" stroke="black" points="115.75,-131.43 121.03,-122.24 111.17,-126.13 115.75,-131.43"/>
</g>
<!-- gds&#45;dmt -->
<g id="node14" class="node">
<title>gds&#45;dmt</title>
<g id="a_node14"><a xlink:href="https://github.com/conda-forge/gds-dmt-feedstock/pull/4" xlink:title="gds dmt ✓">
<ellipse fill="#31688e" stroke="black" cx="269.66" cy="-250" rx="60.15" ry="18"/>
<text text-anchor="middle" x="269.66" y="-245.32" font-family="Times,serif" font-size="14.00" fill="white">gds dmt ✓</text>
</a>
</g>
</g>
<!-- gds&#45;dmt&#45;&gt;gds&#45;monitor&#45;apps -->
<g id="edge9" class="edge">
<title>gds&#45;dmt&#45;&gt;gds&#45;monitor&#45;apps</title>
<path fill="none" stroke="black" d="M286.25,-232.41C294.76,-223.91 305.29,-213.37 314.75,-203.91"/>
<polygon fill="black" stroke="black" points="317.04,-206.57 321.64,-197.03 312.09,-201.62 317.04,-206.57"/>
</g>
</g>
</svg>
