<?xml version="1.0" encoding="UTF-8" standalone="no"?>
<!DOCTYPE svg PUBLIC "-//W3C//DTD SVG 1.1//EN"
 "http://www.w3.org/Graphics/SVG/1.1/DTD/svg11.dtd">
<!-- Generated by graphviz version 9.0.0 (20231125.0833)
 -->
<!-- Pages: 1 -->
<svg width="484pt" height="116pt"
 viewBox="0.00 0.00 484.05 116.00" xmlns="http://www.w3.org/2000/svg" xmlns:xlink="http://www.w3.org/1999/xlink">
<g id="graph0" class="graph" transform="scale(1 1) rotate(0) translate(4 112)">
<polygon fill="white" stroke="none" points="-4,4 -4,-112 480.05,-112 480.05,4 -4,4"/>
<!-- fenics -->
<g id="node1" class="node">
<title>fenics</title>
<g id="a_node1"><a xlink:href="https://github.com/conda-forge/fenics-feedstock" xlink:title="fenics">
<ellipse fill="#fde725" stroke="black" cx="40.69" cy="-18" rx="40.69" ry="18"/>
<text text-anchor="middle" x="40.69" y="-13.32" font-family="Times,serif" font-size="14.00">fenics</text>
</a>
</g>
</g>
<!-- libadjoint -->
<g id="node2" class="node">
<title>libadjoint</title>
<g id="a_node2"><a xlink:href="https://github.com/conda-forge/libadjoint-feedstock" xlink:title="libadjoint">
<ellipse fill="#35b779" stroke="black" cx="320.69" cy="-54" rx="58.57" ry="18"/>
<text text-anchor="middle" x="320.69" y="-49.33" font-family="Times,serif" font-size="14.00">libadjoint</text>
</a>
</g>
</g>
<!-- slepc4py -->
<g id="node3" class="node">
<title>slepc4py</title>
<g id="a_node3"><a xlink:href="https://github.com/conda-forge/slepc4py-feedstock/pull/52" xlink:title="slepc4py ❎">
<ellipse fill="#31688e" stroke="black" cx="108.69" cy="-90" rx="70.67" ry="18"/>
<text text-anchor="middle" x="108.69" y="-85.33" font-family="Times,serif" font-size="14.00" fill="white">slepc4py ❎</text>
</a>
</g>
</g>
<!-- slepc4py&#45;&gt;fenics -->
<g id="edge1" class="edge">
<title>slepc4py&#45;&gt;fenics</title>
<path fill="none" stroke="black" d="M92.22,-72.05C83.71,-63.29 73.18,-52.45 63.86,-42.86"/>
<polygon fill="black" stroke="black" points="66.6,-40.65 57.12,-35.92 61.57,-45.53 66.6,-40.65"/>
</g>
<!-- fenics&#45;dolfinx -->
<g id="node5" class="node">
<title>fenics&#45;dolfinx</title>
<g id="a_node5"><a xlink:href="https://github.com/conda-forge/fenics-dolfinx-feedstock" xlink:title="fenics dolfinx">
<ellipse fill="#fde725" stroke="black" cx="176.69" cy="-18" rx="77.51" ry="18"/>
<text text-anchor="middle" x="176.69" y="-13.32" font-family="Times,serif" font-size="14.00">fenics dolfinx</text>
</a>
</g>
</g>
<!-- slepc4py&#45;&gt;fenics&#45;dolfinx -->
<g id="edge2" class="edge">
<title>slepc4py&#45;&gt;fenics&#45;dolfinx</title>
<path fill="none" stroke="black" d="M125.15,-72.05C133.33,-63.63 143.39,-53.28 152.43,-43.97"/>
<polygon fill="black" stroke="black" points="154.86,-46.49 159.32,-36.87 149.84,-41.61 154.86,-46.49"/>
</g>
<!-- yambo -->
<g id="node4" class="node">
<title>yambo</title>
<g id="a_node4"><a xlink:href="https://github.com/conda-forge/yambo-feedstock" xlink:title="yambo">
<ellipse fill="#35b779" stroke="black" cx="431.69" cy="-54" rx="44.37" ry="18"/>
<text text-anchor="middle" x="431.69" y="-49.33" font-family="Times,serif" font-size="14.00">yambo</text>
</a>
</g>
</g>
</g>
</svg>
