<?xml version="1.0" encoding="UTF-8" standalone="no"?>
<!DOCTYPE svg PUBLIC "-//W3C//DTD SVG 1.1//EN"
 "http://www.w3.org/Graphics/SVG/1.1/DTD/svg11.dtd">
<!-- Generated by graphviz version 11.0.0 (20240519.1550)
 -->
<!-- Pages: 1 -->
<svg width="784pt" height="320pt"
 viewBox="0.00 0.00 783.67 320.00" xmlns="http://www.w3.org/2000/svg" xmlns:xlink="http://www.w3.org/1999/xlink">
<g id="graph0" class="graph" transform="scale(1 1) rotate(0) translate(4 316)">
<polygon fill="white" stroke="none" points="-4,4 -4,-316 779.67,-316 779.67,4 -4,4"/>
<!-- occt -->
<g id="node1" class="node">
<title>occt</title>
<g id="a_node1"><a xlink:href="https://github.com/conda-forge/occt-feedstock/pull/112" xlink:title="occt ❎">
<ellipse fill="#31688e" stroke="black" cx="215.21" cy="-294" rx="47" ry="18"/>
<text text-anchor="middle" x="215.21" y="-289.32" font-family="Times,serif" font-size="14.00" fill="white">occt ❎</text>
</a>
</g>
</g>
<!-- smesh -->
<g id="node2" class="node">
<title>smesh</title>
<g id="a_node2"><a xlink:href="https://github.com/conda-forge/smesh-feedstock" xlink:title="smesh">
<ellipse fill="#fde725" stroke="black" cx="144.21" cy="-222" rx="43.32" ry="18"/>
<text text-anchor="middle" x="144.21" y="-217.32" font-family="Times,serif" font-size="14.00">smesh</text>
</a>
</g>
</g>
<!-- occt&#45;&gt;smesh -->
<g id="edge3" class="edge">
<title>occt&#45;&gt;smesh</title>
<path fill="none" stroke="black" d="M198.74,-276.76C189.78,-267.93 178.53,-256.83 168.57,-247.01"/>
<polygon fill="black" stroke="black" points="171.25,-244.74 161.67,-240.21 166.33,-249.72 171.25,-244.74"/>
</g>
<!-- freecad -->
<g id="node4" class="node">
<title>freecad</title>
<g id="a_node4"><a xlink:href="https://github.com/conda-forge/freecad-feedstock" xlink:title="freecad">
<ellipse fill="#fde725" stroke="black" cx="144.21" cy="-150" rx="48.58" ry="18"/>
<text text-anchor="middle" x="144.21" y="-145.32" font-family="Times,serif" font-size="14.00">freecad</text>
</a>
</g>
</g>
<!-- occt&#45;&gt;freecad -->
<g id="edge1" class="edge">
<title>occt&#45;&gt;freecad</title>
<path fill="none" stroke="black" d="M214.37,-275.62C212.83,-256.93 208.48,-226.82 196.21,-204 190.34,-193.07 181.53,-182.87 172.83,-174.39"/>
<polygon fill="black" stroke="black" points="175.45,-172.05 165.73,-167.85 170.71,-177.2 175.45,-172.05"/>
</g>
<!-- ocp -->
<g id="node12" class="node">
<title>ocp</title>
<g id="a_node12"><a xlink:href="https://github.com/conda-forge/ocp-feedstock" xlink:title="ocp">
<ellipse fill="#fde725" stroke="black" cx="272.21" cy="-222" rx="28.59" ry="18"/>
<text text-anchor="middle" x="272.21" y="-217.32" font-family="Times,serif" font-size="14.00">ocp</text>
</a>
</g>
</g>
<!-- occt&#45;&gt;ocp -->
<g id="edge2" class="edge">
<title>occt&#45;&gt;ocp</title>
<path fill="none" stroke="black" d="M228.72,-276.41C235.81,-267.71 244.62,-256.89 252.46,-247.26"/>
<polygon fill="black" stroke="black" points="255.03,-249.65 258.63,-239.68 249.6,-245.23 255.03,-249.65"/>
</g>
<!-- smesh&#45;&gt;freecad -->
<g id="edge4" class="edge">
<title>smesh&#45;&gt;freecad</title>
<path fill="none" stroke="black" d="M144.21,-203.7C144.21,-196.41 144.21,-187.73 144.21,-179.54"/>
<polygon fill="black" stroke="black" points="147.71,-179.62 144.21,-169.62 140.71,-179.62 147.71,-179.62"/>
</g>
<!-- pcl -->
<g id="node3" class="node">
<title>pcl</title>
<g id="a_node3"><a xlink:href="https://github.com/conda-forge/pcl-feedstock/pull/64" xlink:title="pcl ❎">
<ellipse fill="#31688e" stroke="black" cx="41.21" cy="-222" rx="41.21" ry="18"/>
<text text-anchor="middle" x="41.21" y="-217.32" font-family="Times,serif" font-size="14.00" fill="white">pcl ❎</text>
</a>
</g>
</g>
<!-- pcl&#45;&gt;freecad -->
<g id="edge5" class="edge">
<title>pcl&#45;&gt;freecad</title>
<path fill="none" stroke="black" d="M62.55,-206.5C77.04,-196.65 96.43,-183.47 112.68,-172.43"/>
<polygon fill="black" stroke="black" points="114.27,-175.58 120.58,-167.06 110.34,-169.79 114.27,-175.58"/>
</g>
<!-- bonsu -->
<g id="node5" class="node">
<title>bonsu</title>
<g id="a_node5"><a xlink:href="https://github.com/conda-forge/bonsu-feedstock" xlink:title="bonsu">
<ellipse fill="#35b779" stroke="black" cx="451.21" cy="-62" rx="41.21" ry="18"/>
<text text-anchor="middle" x="451.21" y="-57.33" font-family="Times,serif" font-size="14.00">bonsu</text>
</a>
</g>
</g>
<!-- topologytoolkit -->
<g id="node6" class="node">
<title>topologytoolkit</title>
<g id="a_node6"><a xlink:href="https://github.com/conda-forge/topologytoolkit-feedstock" xlink:title="topologytoolkit">
<ellipse fill="#35b779" stroke="black" cx="689.21" cy="-222" rx="86.46" ry="18"/>
<text text-anchor="middle" x="689.21" y="-217.32" font-family="Times,serif" font-size="14.00">topologytoolkit</text>
</a>
</g>
</g>
<!-- basictools -->
<g id="node7" class="node">
<title>basictools</title>
<g id="a_node7"><a xlink:href="https://github.com/conda-forge/basictools-feedstock" xlink:title="basictools">
<ellipse fill="#fde725" stroke="black" cx="370.21" cy="-186" rx="61.2" ry="18"/>
<text text-anchor="middle" x="370.21" y="-181.32" font-family="Times,serif" font-size="14.00">basictools</text>
</a>
</g>
</g>
<!-- python&#45;mint -->
<g id="node8" class="node">
<title>python&#45;mint</title>
<g id="a_node8"><a xlink:href="https://github.com/conda-forge/python-mint-feedstock" xlink:title="python mint">
<ellipse fill="#35b779" stroke="black" cx="150.21" cy="-106" rx="72.25" ry="18"/>
<text text-anchor="middle" x="150.21" y="-101.33" font-family="Times,serif" font-size="14.00">python mint</text>
</a>
</g>
</g>
<!-- pycgns -->
<g id="node9" class="node">
<title>pycgns</title>
<g id="a_node9"><a xlink:href="https://github.com/conda-forge/pycgns-feedstock/pull/28" xlink:title="pycgns ✓">
<ellipse fill="#31688e" stroke="black" cx="446.21" cy="-258" rx="54.36" ry="18"/>
<text text-anchor="middle" x="446.21" y="-253.32" font-family="Times,serif" font-size="14.00" fill="white">pycgns ✓</text>
</a>
</g>
</g>
<!-- pycgns&#45;&gt;basictools -->
<g id="edge6" class="edge">
<title>pycgns&#45;&gt;basictools</title>
<path fill="none" stroke="black" d="M428.58,-240.76C419.04,-231.97 407.05,-220.93 396.43,-211.14"/>
<polygon fill="black" stroke="black" points="399.11,-208.86 389.38,-204.66 394.37,-214.01 399.11,-208.86"/>
</g>
<!-- muscat&#45;split -->
<g id="node15" class="node">
<title>muscat&#45;split</title>
<g id="a_node15"><a xlink:href="https://github.com/conda-forge/muscat-split-feedstock" xlink:title="muscat split">
<ellipse fill="#fde725" stroke="black" cx="522.21" cy="-186" rx="72.78" ry="18"/>
<text text-anchor="middle" x="522.21" y="-181.32" font-family="Times,serif" font-size="14.00">muscat split</text>
</a>
</g>
</g>
<!-- pycgns&#45;&gt;muscat&#45;split -->
<g id="edge7" class="edge">
<title>pycgns&#45;&gt;muscat&#45;split</title>
<path fill="none" stroke="black" d="M463.84,-240.76C473.23,-232.12 484.97,-221.3 495.45,-211.65"/>
<polygon fill="black" stroke="black" points="497.79,-214.25 502.77,-204.9 493.05,-209.1 497.79,-214.25"/>
</g>
<!-- visan -->
<g id="node10" class="node">
<title>visan</title>
<g id="a_node10"><a xlink:href="https://github.com/conda-forge/visan-feedstock" xlink:title="visan">
<ellipse fill="#35b779" stroke="black" cx="689.21" cy="-62" rx="37.53" ry="18"/>
<text text-anchor="middle" x="689.21" y="-57.33" font-family="Times,serif" font-size="14.00">visan</text>
</a>
</g>
</g>
<!-- vmtk -->
<g id="node11" class="node">
<title>vmtk</title>
<g id="a_node11"><a xlink:href="https://github.com/conda-forge/vmtk-feedstock" xlink:title="vmtk">
<ellipse fill="#35b779" stroke="black" cx="150.21" cy="-18" rx="36.48" ry="18"/>
<text text-anchor="middle" x="150.21" y="-13.32" font-family="Times,serif" font-size="14.00">vmtk</text>
</a>
</g>
</g>
<!-- pyg4ometry -->
<g id="node13" class="node">
<title>pyg4ometry</title>
<g id="a_node13"><a xlink:href="https://github.com/conda-forge/pyg4ometry-feedstock" xlink:title="pyg4ometry">
<ellipse fill="#35b779" stroke="black" cx="451.21" cy="-106" rx="71.73" ry="18"/>
<text text-anchor="middle" x="451.21" y="-101.33" font-family="Times,serif" font-size="14.00">pyg4ometry</text>
</a>
</g>
</g>
<!-- vtkbool -->
<g id="node14" class="node">
<title>vtkbool</title>
<g id="a_node14"><a xlink:href="https://github.com/conda-forge/vtkbool-feedstock" xlink:title="vtkbool">
<ellipse fill="#35b779" stroke="black" cx="689.21" cy="-106" rx="48.05" ry="18"/>
<text text-anchor="middle" x="689.21" y="-101.33" font-family="Times,serif" font-size="14.00">vtkbool</text>
</a>
</g>
</g>
<!-- open3d -->
<g id="node16" class="node">
<title>open3d</title>
<g id="a_node16"><a xlink:href="https://github.com/conda-forge/open3d-feedstock" xlink:title="open3d">
<ellipse fill="#35b779" stroke="black" cx="150.21" cy="-62" rx="48.05" ry="18"/>
<text text-anchor="middle" x="150.21" y="-57.33" font-family="Times,serif" font-size="14.00">open3d</text>
</a>
</g>
</g>
</g>
</svg>
