<?xml version="1.0" encoding="UTF-8" standalone="no"?>
<!DOCTYPE svg PUBLIC "-//W3C//DTD SVG 1.1//EN"
 "http://www.w3.org/Graphics/SVG/1.1/DTD/svg11.dtd">
<!-- Generated by graphviz version 11.0.0 (20240519.1550)
 -->
<!-- Pages: 1 -->
<svg width="754pt" height="320pt"
 viewBox="0.00 0.00 754.46 320.00" xmlns="http://www.w3.org/2000/svg" xmlns:xlink="http://www.w3.org/1999/xlink">
<g id="graph0" class="graph" transform="scale(1 1) rotate(0) translate(4 316)">
<polygon fill="white" stroke="none" points="-4,4 -4,-316 750.46,-316 750.46,4 -4,4"/>
<!-- mayavi -->
<g id="node1" class="node">
<title>mayavi</title>
<g id="a_node1"><a xlink:href="https://github.com/conda-forge/mayavi-feedstock/pull/81" xlink:title="mayavi ❎">
<ellipse fill="#31688e" stroke="black" cx="660" cy="-106" rx="62.26" ry="18"/>
<text text-anchor="middle" x="660" y="-101.33" font-family="Times,serif" font-size="14.00" fill="white">mayavi ❎</text>
</a>
</g>
</g>
<!-- occt -->
<g id="node2" class="node">
<title>occt</title>
<g id="a_node2"><a xlink:href="https://github.com/conda-forge/occt-feedstock/pull/112" xlink:title="occt ❎">
<ellipse fill="#31688e" stroke="black" cx="186" cy="-294" rx="47" ry="18"/>
<text text-anchor="middle" x="186" y="-289.32" font-family="Times,serif" font-size="14.00" fill="white">occt ❎</text>
</a>
</g>
</g>
<!-- smesh -->
<g id="node3" class="node">
<title>smesh</title>
<g id="a_node3"><a xlink:href="https://github.com/conda-forge/smesh-feedstock" xlink:title="smesh">
<ellipse fill="#fde725" stroke="black" cx="115" cy="-222" rx="43.32" ry="18"/>
<text text-anchor="middle" x="115" y="-217.32" font-family="Times,serif" font-size="14.00">smesh</text>
</a>
</g>
</g>
<!-- occt&#45;&gt;smesh -->
<g id="edge3" class="edge">
<title>occt&#45;&gt;smesh</title>
<path fill="none" stroke="black" d="M169.53,-276.76C160.57,-267.93 149.31,-256.83 139.36,-247.01"/>
<polygon fill="black" stroke="black" points="142.03,-244.74 132.46,-240.21 137.12,-249.72 142.03,-244.74"/>
</g>
<!-- freecad -->
<g id="node5" class="node">
<title>freecad</title>
<g id="a_node5"><a xlink:href="https://github.com/conda-forge/freecad-feedstock" xlink:title="freecad">
<ellipse fill="#fde725" stroke="black" cx="115" cy="-150" rx="48.58" ry="18"/>
<text text-anchor="middle" x="115" y="-145.32" font-family="Times,serif" font-size="14.00">freecad</text>
</a>
</g>
</g>
<!-- occt&#45;&gt;freecad -->
<g id="edge1" class="edge">
<title>occt&#45;&gt;freecad</title>
<path fill="none" stroke="black" d="M185.15,-275.62C183.61,-256.93 179.27,-226.82 167,-204 161.13,-193.07 152.32,-182.87 143.62,-174.39"/>
<polygon fill="black" stroke="black" points="146.24,-172.05 136.51,-167.85 141.5,-177.2 146.24,-172.05"/>
</g>
<!-- ocp -->
<g id="node13" class="node">
<title>ocp</title>
<g id="a_node13"><a xlink:href="https://github.com/conda-forge/ocp-feedstock" xlink:title="ocp">
<ellipse fill="#fde725" stroke="black" cx="243" cy="-222" rx="28.59" ry="18"/>
<text text-anchor="middle" x="243" y="-217.32" font-family="Times,serif" font-size="14.00">ocp</text>
</a>
</g>
</g>
<!-- occt&#45;&gt;ocp -->
<g id="edge2" class="edge">
<title>occt&#45;&gt;ocp</title>
<path fill="none" stroke="black" d="M199.51,-276.41C206.59,-267.71 215.41,-256.89 223.24,-247.26"/>
<polygon fill="black" stroke="black" points="225.81,-249.65 229.41,-239.68 220.39,-245.23 225.81,-249.65"/>
</g>
<!-- smesh&#45;&gt;freecad -->
<g id="edge4" class="edge">
<title>smesh&#45;&gt;freecad</title>
<path fill="none" stroke="black" d="M115,-203.7C115,-196.41 115,-187.73 115,-179.54"/>
<polygon fill="black" stroke="black" points="118.5,-179.62 115,-169.62 111.5,-179.62 118.5,-179.62"/>
</g>
<!-- pcl -->
<g id="node4" class="node">
<title>pcl</title>
<g id="a_node4"><a xlink:href="https://github.com/conda-forge/pcl-feedstock" xlink:title="pcl">
<ellipse fill="#35b779" stroke="black" cx="27" cy="-222" rx="27" ry="18"/>
<text text-anchor="middle" x="27" y="-217.32" font-family="Times,serif" font-size="14.00">pcl</text>
</a>
</g>
</g>
<!-- pcl&#45;&gt;freecad -->
<g id="edge5" class="edge">
<title>pcl&#45;&gt;freecad</title>
<path fill="none" stroke="black" d="M43.97,-207.5C56.01,-197.92 72.47,-184.83 86.51,-173.66"/>
<polygon fill="black" stroke="black" points="88.49,-176.56 94.14,-167.6 84.13,-171.08 88.49,-176.56"/>
</g>
<!-- bonsu -->
<g id="node6" class="node">
<title>bonsu</title>
<g id="a_node6"><a xlink:href="https://github.com/conda-forge/bonsu-feedstock" xlink:title="bonsu">
<ellipse fill="#35b779" stroke="black" cx="660" cy="-62" rx="41.21" ry="18"/>
<text text-anchor="middle" x="660" y="-57.33" font-family="Times,serif" font-size="14.00">bonsu</text>
</a>
</g>
</g>
<!-- topologytoolkit -->
<g id="node7" class="node">
<title>topologytoolkit</title>
<g id="a_node7"><a xlink:href="https://github.com/conda-forge/topologytoolkit-feedstock" xlink:title="topologytoolkit">
<ellipse fill="#fde725" stroke="black" cx="660" cy="-222" rx="86.46" ry="18"/>
<text text-anchor="middle" x="660" y="-217.32" font-family="Times,serif" font-size="14.00">topologytoolkit</text>
</a>
</g>
</g>
<!-- basictools -->
<g id="node8" class="node">
<title>basictools</title>
<g id="a_node8"><a xlink:href="https://github.com/conda-forge/basictools-feedstock" xlink:title="basictools">
<ellipse fill="#fde725" stroke="black" cx="340" cy="-186" rx="61.2" ry="18"/>
<text text-anchor="middle" x="340" y="-181.32" font-family="Times,serif" font-size="14.00">basictools</text>
</a>
</g>
</g>
<!-- python&#45;mint -->
<g id="node9" class="node">
<title>python&#45;mint</title>
<g id="a_node9"><a xlink:href="https://github.com/conda-forge/python-mint-feedstock" xlink:title="python mint">
<ellipse fill="#35b779" stroke="black" cx="135" cy="-106" rx="72.25" ry="18"/>
<text text-anchor="middle" x="135" y="-101.33" font-family="Times,serif" font-size="14.00">python mint</text>
</a>
</g>
</g>
<!-- pycgns -->
<g id="node10" class="node">
<title>pycgns</title>
<g id="a_node10"><a xlink:href="https://github.com/conda-forge/pycgns-feedstock" xlink:title="pycgns">
<ellipse fill="#35b779" stroke="black" cx="416" cy="-258" rx="46.47" ry="18"/>
<text text-anchor="middle" x="416" y="-253.32" font-family="Times,serif" font-size="14.00">pycgns</text>
</a>
</g>
</g>
<!-- pycgns&#45;&gt;basictools -->
<g id="edge6" class="edge">
<title>pycgns&#45;&gt;basictools</title>
<path fill="none" stroke="black" d="M398.75,-241.12C389.15,-232.27 376.99,-221.07 366.23,-211.16"/>
<polygon fill="black" stroke="black" points="368.81,-208.78 359.08,-204.58 364.07,-213.93 368.81,-208.78"/>
</g>
<!-- muscat&#45;split -->
<g id="node16" class="node">
<title>muscat&#45;split</title>
<g id="a_node16"><a xlink:href="https://github.com/conda-forge/muscat-split-feedstock" xlink:title="muscat split">
<ellipse fill="#fde725" stroke="black" cx="492" cy="-186" rx="72.78" ry="18"/>
<text text-anchor="middle" x="492" y="-181.32" font-family="Times,serif" font-size="14.00">muscat split</text>
</a>
</g>
</g>
<!-- pycgns&#45;&gt;muscat&#45;split -->
<g id="edge7" class="edge">
<title>pycgns&#45;&gt;muscat&#45;split</title>
<path fill="none" stroke="black" d="M433.25,-241.12C442.78,-232.33 454.84,-221.23 465.54,-211.37"/>
<polygon fill="black" stroke="black" points="467.67,-214.17 472.65,-204.82 462.92,-209.02 467.67,-214.17"/>
</g>
<!-- visan -->
<g id="node11" class="node">
<title>visan</title>
<g id="a_node11"><a xlink:href="https://github.com/conda-forge/visan-feedstock" xlink:title="visan">
<ellipse fill="#35b779" stroke="black" cx="135" cy="-18" rx="37.53" ry="18"/>
<text text-anchor="middle" x="135" y="-13.32" font-family="Times,serif" font-size="14.00">visan</text>
</a>
</g>
</g>
<!-- vmtk -->
<g id="node12" class="node">
<title>vmtk</title>
<g id="a_node12"><a xlink:href="https://github.com/conda-forge/vmtk-feedstock" xlink:title="vmtk">
<ellipse fill="#35b779" stroke="black" cx="422" cy="-18" rx="36.48" ry="18"/>
<text text-anchor="middle" x="422" y="-13.32" font-family="Times,serif" font-size="14.00">vmtk</text>
</a>
</g>
</g>
<!-- pyg4ometry -->
<g id="node14" class="node">
<title>pyg4ometry</title>
<g id="a_node14"><a xlink:href="https://github.com/conda-forge/pyg4ometry-feedstock" xlink:title="pyg4ometry">
<ellipse fill="#35b779" stroke="black" cx="422" cy="-106" rx="71.73" ry="18"/>
<text text-anchor="middle" x="422" y="-101.33" font-family="Times,serif" font-size="14.00">pyg4ometry</text>
</a>
</g>
</g>
<!-- vtkbool -->
<g id="node15" class="node">
<title>vtkbool</title>
<g id="a_node15"><a xlink:href="https://github.com/conda-forge/vtkbool-feedstock" xlink:title="vtkbool">
<ellipse fill="#35b779" stroke="black" cx="135" cy="-62" rx="48.05" ry="18"/>
<text text-anchor="middle" x="135" y="-57.33" font-family="Times,serif" font-size="14.00">vtkbool</text>
</a>
</g>
</g>
<!-- open3d -->
<g id="node17" class="node">
<title>open3d</title>
<g id="a_node17"><a xlink:href="https://github.com/conda-forge/open3d-feedstock" xlink:title="open3d">
<ellipse fill="#35b779" stroke="black" cx="422" cy="-62" rx="48.05" ry="18"/>
<text text-anchor="middle" x="422" y="-57.33" font-family="Times,serif" font-size="14.00">open3d</text>
</a>
</g>
</g>
</g>
</svg>
